M48
; DRILL file {KiCad 6.0.11-2627ca5db0~126~ubuntu22.04.1} date Wed 22 Mar 2023 09:18:50 PM EDT
; FORMAT={-:-/ absolute / metric / decimal}
; #@! TF.CreationDate,2023-03-22T21:18:50-04:00
; #@! TF.GenerationSoftware,Kicad,Pcbnew,6.0.11-2627ca5db0~126~ubuntu22.04.1
; #@! TF.FileFunction,MixedPlating,1,2
FMAT,2
METRIC
; #@! TA.AperFunction,Plated,PTH,ComponentDrill
T1C0.800
; #@! TA.AperFunction,Plated,PTH,ViaDrill
T2C0.813
; #@! TA.AperFunction,Plated,PTH,ComponentDrill
T3C1.000
; #@! TA.AperFunction,Plated,PTH,ComponentDrill
T4C1.100
; #@! TA.AperFunction,Plated,PTH,ComponentDrill
T5C1.700
; #@! TA.AperFunction,Plated,PTH,ComponentDrill
T6C2.000
; #@! TA.AperFunction,Plated,PTH,ComponentDrill
T7C2.250
; #@! TA.AperFunction,Plated,PTH,ComponentDrill
T8C3.200
; #@! TA.AperFunction,Plated,PTH,ComponentDrill
T9C3.250
; #@! TA.AperFunction,Plated,PTH,ComponentDrill
T10C5.300
%
G90
G05
T1
X30.48Y-85.483
X30.48Y-93.103
X30.48Y-108.343
X30.48Y-115.963
X30.734Y-72.021
X30.734Y-82.181
X33.02Y-85.483
X33.02Y-93.103
X33.02Y-108.343
X33.02Y-115.963
X33.274Y-120.789
X34.29Y-72.021
X34.29Y-82.181
X35.306Y-173.915
X35.306Y-178.915
X35.56Y-85.483
X35.56Y-93.103
X35.56Y-108.343
X35.56Y-115.963
X35.814Y-120.789
X38.1Y-85.483
X38.1Y-93.103
X38.1Y-108.343
X38.1Y-115.963
X38.354Y-120.789
X38.354Y-166.549
X38.354Y-171.549
X38.354Y-176.201
X38.354Y-181.201
X39.624Y-63.903
X39.624Y-66.443
X39.624Y-68.983
X39.624Y-71.523
X39.624Y-74.063
X39.624Y-76.603
X39.624Y-79.143
X39.624Y-81.683
X40.64Y-85.483
X40.64Y-93.103
X40.64Y-108.343
X40.64Y-115.963
X40.894Y-120.789
X43.18Y-85.483
X43.18Y-93.103
X43.18Y-108.343
X43.18Y-115.963
X43.434Y-120.789
X45.72Y-85.483
X45.72Y-93.103
X45.72Y-108.343
X45.72Y-115.963
X45.72Y-155.373
X45.72Y-160.373
X45.974Y-120.789
X48.26Y-85.483
X48.26Y-93.103
X48.26Y-108.343
X48.26Y-115.963
X48.514Y-120.789
X50.8Y-85.483
X50.8Y-93.103
X50.8Y-108.343
X50.8Y-115.963
X51.054Y-120.789
X51.602Y-152.539
X53.086Y-158.127
X53.086Y-165.747
X53.34Y-85.483
X53.34Y-93.103
X53.34Y-108.343
X53.34Y-115.963
X54.102Y-126.417
X54.102Y-131.417
X54.864Y-141.363
X54.864Y-146.363
X54.864Y-180.225
X54.864Y-185.225
X54.864Y-188.901
X54.864Y-193.901
X54.864Y-197.751
X54.864Y-202.751
X55.626Y-158.127
X55.626Y-165.747
X56.602Y-152.539
X56.896Y-169.597
X56.896Y-174.597
X58.166Y-126.417
X58.166Y-131.417
X58.166Y-158.127
X58.166Y-165.747
X58.674Y-87.809
X58.674Y-92.809
X59.182Y-182.765
X59.182Y-192.925
X59.944Y-109.693
X59.944Y-114.693
X60.452Y-48.145
X60.452Y-58.305
X60.706Y-158.127
X60.706Y-165.747
X60.706Y-169.303
X60.706Y-179.463
X60.96Y-139.839
X60.96Y-149.999
X62.23Y-96.405
X62.23Y-106.565
X62.23Y-119.265
X62.23Y-129.425
X62.484Y-69.227
X62.484Y-72.275
X62.484Y-186.615
X62.484Y-191.615
X63.246Y-84.761
X63.246Y-89.761
X63.246Y-158.127
X63.246Y-165.747
X64.008Y-60.845
X64.516Y-169.303
X64.516Y-179.463
X64.516Y-203.339
X65.024Y-137.045
X65.024Y-147.205
X65.537Y-49.4
X65.537Y-57.02
X65.612Y-114.693
X65.771Y-186.56
X65.771Y-194.18
X65.786Y-158.127
X65.786Y-165.747
X66.04Y-95.135
X66.04Y-105.295
X66.04Y-119.265
X66.04Y-129.425
X67.31Y-84.721
X67.31Y-89.721
X68.077Y-49.4
X68.077Y-57.02
X68.311Y-186.56
X68.311Y-194.18
X68.326Y-30.619
X68.326Y-40.779
X68.326Y-158.127
X68.326Y-165.747
X68.401Y-64.655
X68.58Y-139.839
X68.58Y-149.999
X68.58Y-208.419
X69.85Y-95.135
X69.85Y-105.295
X69.85Y-119.265
X69.85Y-129.425
X70.612Y-114.693
X70.617Y-49.4
X70.617Y-57.02
X70.851Y-186.56
X70.851Y-194.18
X71.128Y-34.937
X72.117Y-43.319
X72.136Y-168.795
X72.136Y-178.955
X72.644Y-69.227
X72.644Y-72.275
X73.152Y-137.553
X73.152Y-147.713
X73.157Y-49.4
X73.157Y-57.02
X73.391Y-186.56
X73.391Y-194.18
X73.401Y-64.655
X73.406Y-84.975
X73.406Y-90.055
X73.66Y-95.135
X73.66Y-105.295
X73.66Y-119.265
X73.66Y-129.425
X73.668Y-32.397
X73.668Y-37.477
X74.168Y-60.845
X74.676Y-203.339
X75.697Y-49.4
X75.697Y-57.02
X75.931Y-186.56
X75.931Y-194.18
X75.946Y-87.515
X76.026Y-199.275
X77.117Y-43.319
X77.724Y-161.937
X77.978Y-135.521
X77.978Y-145.681
X78.224Y-61.353
X78.224Y-66.433
X78.237Y-49.4
X78.237Y-57.02
X78.471Y-186.56
X78.471Y-194.18
X78.732Y-152.793
X78.732Y-157.873
X78.74Y-208.419
X80.01Y-34.723
X80.01Y-39.723
X80.764Y-63.893
X80.777Y-49.4
X80.777Y-57.02
X81.011Y-186.56
X81.011Y-194.18
X81.026Y-199.275
X81.272Y-155.333
X81.28Y-83.197
X81.534Y-87.261
X81.534Y-102.501
X83.551Y-186.56
X83.551Y-194.18
X84.582Y-31.635
X84.582Y-41.795
X84.582Y-109.75
X84.582Y-114.75
X85.344Y-87.261
X85.344Y-102.501
X85.344Y-152.833
X85.344Y-157.833
X85.852Y-47.383
X85.852Y-57.543
X86.28Y-83.197
X87.884Y-34.215
X87.884Y-39.215
X87.884Y-161.937
X89.448Y-46.367
X90.16Y-123.324
X90.16Y-138.564
X90.424Y-109.399
X90.424Y-114.399
X90.678Y-50.939
X90.678Y-61.099
X90.932Y-30.365
X90.932Y-40.525
X91.435Y-186.595
X91.435Y-201.835
X92.7Y-123.324
X92.7Y-138.564
X93.975Y-186.595
X93.975Y-201.835
X94.234Y-70.283
X94.234Y-75.283
X94.249Y-106.58
X94.249Y-114.2
X94.274Y-40.779
X94.274Y-60.591
X94.448Y-46.367
X95.24Y-123.324
X95.24Y-138.564
X96.515Y-186.595
X96.515Y-201.835
X96.789Y-106.58
X96.789Y-114.2
X97.028Y-81.535
X97.028Y-86.535
X97.78Y-123.324
X97.78Y-138.564
X99.055Y-186.595
X99.055Y-201.835
X99.274Y-40.779
X99.274Y-60.591
X99.329Y-106.58
X99.329Y-114.2
X99.822Y-73.291
X100.32Y-123.324
X100.32Y-138.564
X101.346Y-142.633
X101.595Y-186.595
X101.595Y-201.835
X101.869Y-106.58
X101.869Y-114.2
X102.86Y-123.324
X102.86Y-138.564
X104.135Y-186.595
X104.135Y-201.835
X104.409Y-106.58
X104.409Y-114.2
X104.648Y-146.951
X105.4Y-123.324
X105.4Y-138.564
X105.664Y-83.833
X105.664Y-88.833
X106.675Y-186.595
X106.675Y-201.835
X106.949Y-106.58
X106.949Y-114.2
X107.044Y-58.813
X107.94Y-123.324
X107.94Y-138.564
X108.204Y-47.931
X108.204Y-52.931
X108.966Y-64.949
X108.966Y-69.949
X109.215Y-186.595
X109.215Y-201.835
X109.489Y-106.58
X109.489Y-114.2
X109.544Y-58.813
X109.982Y-73.291
X110.48Y-123.324
X110.48Y-138.564
X111.506Y-84.213
X111.506Y-89.213
X111.755Y-186.595
X111.755Y-201.835
X112.029Y-106.58
X112.029Y-114.2
X113.02Y-123.324
X113.02Y-138.564
X114.295Y-186.595
X114.295Y-201.835
X115.316Y-84.253
X115.316Y-89.253
X115.56Y-123.324
X115.56Y-138.564
X116.586Y-142.633
X116.835Y-186.595
X116.835Y-201.835
X118.1Y-123.324
X118.1Y-138.564
X118.872Y-46.915
X118.872Y-51.915
X118.872Y-59.321
X118.872Y-64.321
X118.872Y-71.807
X118.872Y-76.807
X119.126Y-84.253
X119.126Y-89.253
X119.375Y-186.595
X119.375Y-201.835
X119.888Y-146.951
X120.64Y-123.324
X120.64Y-138.564
X120.65Y-214.007
X121.915Y-186.595
X121.915Y-201.835
X122.976Y-28.841
X123.18Y-123.324
X123.18Y-138.564
X123.429Y-44.574
X123.429Y-52.194
X123.429Y-57.025
X123.429Y-64.645
X123.429Y-69.476
X123.429Y-77.096
X123.429Y-81.927
X123.429Y-89.547
X124.455Y-186.595
X124.455Y-201.835
X125.725Y-97.929
X125.725Y-113.169
X125.969Y-44.574
X125.969Y-52.194
X125.969Y-57.025
X125.969Y-64.645
X125.969Y-69.476
X125.969Y-77.096
X125.969Y-81.927
X125.969Y-89.547
X126.238Y-155.119
X126.238Y-160.119
X126.995Y-186.595
X126.995Y-201.835
X127.976Y-28.841
X128.265Y-97.929
X128.265Y-113.169
X128.509Y-44.574
X128.509Y-52.194
X128.509Y-57.025
X128.509Y-64.645
X128.509Y-69.476
X128.509Y-77.096
X128.509Y-81.927
X128.509Y-89.547
X129.535Y-186.595
X129.535Y-201.835
X130.292Y-123.06
X130.292Y-130.68
X130.292Y-136.522
X130.292Y-144.142
X130.302Y-155.119
X130.302Y-160.119
X130.805Y-97.929
X130.805Y-113.169
X130.81Y-214.007
X131.049Y-44.574
X131.049Y-52.194
X131.049Y-57.025
X131.049Y-64.645
X131.049Y-69.476
X131.049Y-77.096
X131.049Y-81.927
X131.049Y-89.547
X132.075Y-186.595
X132.075Y-201.835
X132.832Y-123.06
X132.832Y-130.68
X132.832Y-136.522
X132.832Y-144.142
X133.345Y-97.929
X133.345Y-113.169
X133.589Y-44.574
X133.589Y-52.194
X133.589Y-57.025
X133.589Y-64.645
X133.589Y-69.476
X133.589Y-77.096
X133.589Y-81.927
X133.589Y-89.547
X134.371Y-152.524
X134.371Y-160.144
X134.615Y-186.595
X134.615Y-201.835
X135.372Y-123.06
X135.372Y-130.68
X135.372Y-136.522
X135.372Y-144.142
X135.885Y-97.929
X135.885Y-113.169
X136.129Y-44.574
X136.129Y-52.194
X136.129Y-57.025
X136.129Y-64.645
X136.129Y-69.476
X136.129Y-77.096
X136.129Y-81.927
X136.129Y-89.547
X136.911Y-152.524
X136.911Y-160.144
X137.155Y-186.595
X137.155Y-201.835
X137.912Y-123.06
X137.912Y-130.68
X137.912Y-136.522
X137.912Y-144.142
X138.425Y-97.929
X138.425Y-113.169
X138.669Y-44.574
X138.669Y-52.194
X138.669Y-57.025
X138.669Y-64.645
X138.669Y-69.476
X138.669Y-77.096
X138.669Y-81.927
X138.669Y-89.547
X139.451Y-152.524
X139.451Y-160.144
X139.695Y-186.595
X139.695Y-201.835
X140.452Y-123.06
X140.452Y-130.68
X140.452Y-136.522
X140.452Y-144.142
X140.965Y-97.929
X140.965Y-113.169
X141.209Y-44.574
X141.209Y-52.194
X141.209Y-57.025
X141.209Y-64.645
X141.209Y-69.476
X141.209Y-77.096
X141.209Y-81.927
X141.209Y-89.547
X141.991Y-152.524
X141.991Y-160.144
X142.992Y-123.06
X142.992Y-130.68
X142.992Y-136.522
X142.992Y-144.142
X143.505Y-97.929
X143.505Y-113.169
X144.531Y-152.524
X144.531Y-160.144
X145.532Y-123.06
X145.532Y-130.68
X145.532Y-136.522
X145.532Y-144.142
X145.542Y-47.383
X145.542Y-52.383
X145.542Y-84.721
X145.542Y-89.721
X145.796Y-59.869
X145.796Y-64.869
X145.796Y-72.315
X145.796Y-77.315
X146.045Y-97.929
X146.045Y-113.169
X146.304Y-163.207
X147.071Y-152.524
X147.071Y-160.144
X148.072Y-123.06
X148.072Y-130.68
X148.072Y-136.522
X148.072Y-144.142
X148.585Y-97.929
X148.585Y-113.169
X149.611Y-152.524
X149.611Y-160.144
X150.114Y-44.589
X150.114Y-49.589
X150.114Y-57.075
X150.114Y-62.075
X150.114Y-69.521
X150.114Y-74.521
X150.114Y-81.967
X150.114Y-86.967
X150.114Y-188.607
X150.114Y-198.767
X150.612Y-123.06
X150.612Y-130.68
X150.612Y-136.522
X150.612Y-144.142
X151.125Y-97.929
X151.125Y-113.169
X153.416Y-93.611
X153.665Y-97.929
X153.665Y-113.169
X154.432Y-187.591
X154.432Y-197.751
X155.179Y-121.536
X155.179Y-129.156
X155.448Y-81.927
X155.448Y-89.547
X155.463Y-44.574
X155.463Y-52.194
X155.463Y-57.025
X155.463Y-64.645
X155.463Y-69.476
X155.463Y-77.096
X156.205Y-97.929
X156.205Y-113.169
X156.21Y-139.371
X156.21Y-144.371
X157.719Y-121.536
X157.719Y-129.156
X157.988Y-81.927
X157.988Y-89.547
X157.988Y-182.003
X157.988Y-192.163
X157.988Y-197.497
X157.988Y-207.657
X158.003Y-44.574
X158.003Y-52.194
X158.003Y-57.025
X158.003Y-64.645
X158.003Y-69.476
X158.003Y-77.096
X158.496Y-150.253
X158.496Y-160.413
X158.745Y-97.929
X158.745Y-113.169
X160.02Y-137.299
X160.259Y-121.536
X160.259Y-129.156
X160.528Y-81.927
X160.528Y-89.547
X160.536Y-145.427
X160.543Y-44.574
X160.543Y-52.194
X160.543Y-57.025
X160.543Y-64.645
X160.543Y-69.476
X160.543Y-77.096
X161.036Y-168.795
X161.036Y-173.795
X161.285Y-97.929
X161.285Y-113.169
X161.544Y-163.207
X161.584Y-158.381
X161.624Y-154.825
X162.052Y-197.497
X162.052Y-207.657
X162.621Y-213.245
X162.799Y-121.536
X162.799Y-129.156
X162.814Y-184.035
X162.814Y-191.655
X163.068Y-81.927
X163.068Y-89.547
X163.076Y-142.887
X163.076Y-147.967
X163.083Y-44.574
X163.083Y-52.194
X163.083Y-57.025
X163.083Y-64.645
X163.083Y-69.476
X163.083Y-77.096
X163.576Y-93.611
X163.825Y-97.929
X163.825Y-113.169
X164.084Y-177.939
X165.1Y-180.987
X165.105Y-161.668
X165.105Y-169.288
X165.339Y-121.536
X165.339Y-129.156
X165.354Y-184.035
X165.354Y-191.655
X165.608Y-81.927
X165.608Y-89.547
X165.623Y-44.574
X165.623Y-52.194
X165.623Y-57.025
X165.623Y-64.645
X165.623Y-69.476
X165.623Y-77.096
X166.365Y-97.929
X166.365Y-113.169
X166.37Y-149.999
X166.37Y-197.497
X166.37Y-207.657
X166.584Y-158.381
X166.624Y-140.347
X166.624Y-154.825
X166.824Y-173.621
X167.386Y-146.443
X167.621Y-213.245
X167.645Y-161.668
X167.645Y-169.288
X167.879Y-121.536
X167.879Y-129.156
X167.894Y-184.035
X167.894Y-191.655
X168.148Y-81.927
X168.148Y-89.547
X168.163Y-44.574
X168.163Y-52.194
X168.163Y-57.025
X168.163Y-64.645
X168.163Y-69.476
X168.163Y-77.096
X168.905Y-97.929
X168.905Y-113.169
X169.527Y-117.233
X169.926Y-143.395
X170.18Y-137.299
X170.185Y-161.668
X170.185Y-169.288
X170.419Y-121.536
X170.419Y-129.156
X170.434Y-184.035
X170.434Y-191.655
X170.688Y-81.927
X170.688Y-89.547
X170.703Y-44.574
X170.703Y-52.194
X170.703Y-57.025
X170.703Y-64.645
X170.703Y-69.476
X170.703Y-77.096
X170.942Y-194.703
X171.445Y-97.929
X171.445Y-113.169
X171.704Y-173.621
X172.027Y-117.233
X172.506Y-158.381
X172.725Y-161.668
X172.725Y-169.288
X172.959Y-121.536
X172.959Y-129.156
X172.974Y-184.035
X172.974Y-191.655
X172.974Y-203.085
X172.974Y-213.245
X173.228Y-81.927
X173.228Y-89.547
X173.243Y-44.574
X173.243Y-52.194
X173.243Y-57.025
X173.243Y-64.645
X173.243Y-69.476
X173.243Y-77.096
X173.985Y-97.929
X173.985Y-113.169
X173.99Y-197.751
X174.244Y-177.939
X174.926Y-143.395
X175.26Y-180.987
X175.265Y-161.668
X175.265Y-169.288
X175.514Y-184.035
X175.514Y-191.655
X176.022Y-137.299
X176.53Y-149.999
X176.784Y-140.347
X177.506Y-158.381
X177.546Y-146.443
X177.805Y-161.668
X177.805Y-169.288
X178.054Y-174.169
X178.054Y-179.169
X178.054Y-184.035
X178.054Y-191.655
X178.308Y-47.169
X178.308Y-52.169
X178.308Y-59.615
X178.308Y-64.615
X178.308Y-72.061
X178.308Y-77.061
X178.308Y-84.507
X178.308Y-89.507
X178.816Y-119.265
X178.816Y-129.425
X180.345Y-161.668
X180.345Y-169.288
X181.022Y-137.299
X181.102Y-194.703
X182.372Y-101.485
X182.372Y-111.645
X182.626Y-185.345
X182.626Y-190.345
X182.88Y-118.757
X182.88Y-128.917
X184.15Y-197.751
T2
X28.194Y-147.967
X29.413Y-56.273
X29.921Y-127.901
X33.02Y-125.615
X35.306Y-125.615
X38.1Y-125.615
X39.624Y-140.347
X41.656Y-61.607
X41.656Y-137.553
X41.694Y-125.767
X50.038Y-192.925
X52.578Y-144.157
X54.864Y-138.823
X57.086Y-84.67
X57.15Y-128.663
X57.912Y-206.387
X59.436Y-206.387
X64.035Y-126.15
X65.024Y-144.919
X66.04Y-176.923
X66.478Y-174.647
X67.682Y-126.431
X69.063Y-175.581
X69.134Y-146.393
X72.136Y-82.435
X72.136Y-97.167
X72.644Y-207.149
X73.699Y-111.137
X73.699Y-113.169
X73.914Y-210.959
X75.692Y-121.297
X75.7Y-140.564
X76.246Y-176.67
X77.47Y-84.975
X79.502Y-89.039
X79.502Y-91.325
X80.264Y-93.611
X80.518Y-162.445
X81.026Y-170.369
X81.28Y-72.021
X82.296Y-53.987
X83.058Y-144.411
X85.141Y-162.699
X85.598Y-97.675
X87.122Y-98.945
X87.222Y-181.341
X87.422Y-196.116
X87.884Y-164.477
X88.111Y-194.422
X88.697Y-208.457
X89.662Y-217.817
X90.218Y-129.679
X90.288Y-116.412
X90.932Y-84.213
X90.977Y-190.122
X91.44Y-87.007
X91.694Y-211.975
X92.456Y-217.817
X92.71Y-149.745
X92.964Y-129.679
X94.234Y-182.003
X94.662Y-126.971
X95.183Y-169.246
X95.504Y-110.121
X95.504Y-157.873
X95.971Y-117.181
X96.266Y-154.825
X97.523Y-215.849
X97.536Y-179.717
X97.69Y-207.607
X99.06Y-218.833
X99.223Y-213.716
X100.33Y-129.679
X101.346Y-182.003
X102.262Y-131.049
X103.088Y-219.377
X105.156Y-91.579
X105.41Y-188.607
X107.645Y-181.241
X108.204Y-188.861
X108.707Y-38.035
X108.712Y-36.207
X108.712Y-41.795
X108.712Y-39.864
X109.063Y-177.94
X109.284Y-213.435
X109.855Y-215.404
X114.554Y-179.158
X114.808Y-213.499
X114.808Y-215.785
X116.84Y-98.437
X119.38Y-114.388
X120.904Y-141.109
X121.915Y-212.478
X122.544Y-111.22
X123.19Y-99.961
X125.73Y-109.613
X125.73Y-212.737
X126.825Y-153.333
X128.27Y-109.613
X129.794Y-216.039
X130.048Y-152.285
X130.81Y-109.613
X131.064Y-93.611
X132.006Y-181.379
X132.461Y-194.576
X134.614Y-166.408
X134.874Y-109.105
X135.89Y-106.565
X135.948Y-217.26
X136.398Y-194.957
X137.122Y-181.343
X137.414Y-93.357
X137.414Y-168.795
X139.192Y-196.481
X139.192Y-217.309
X139.7Y-93.357
X140.716Y-119.011
X142.24Y-167.525
X142.533Y-178.335
X143.002Y-119.773
X144.272Y-196.481
X144.406Y-181.672
X144.526Y-62.115
X145.034Y-50.177
X145.034Y-105.041
X145.542Y-125.412
X145.796Y-185.228
X145.847Y-199.524
X146.05Y-176.923
X146.812Y-120.027
X146.812Y-140.093
X146.863Y-201.499
X147.166Y-169.711
X147.879Y-195.111
X149.606Y-107.835
X149.86Y-209.689
X150.114Y-165.798
X150.114Y-180.225
X150.876Y-115.455
X152.756Y-192.925
X153.162Y-131.45
X153.416Y-109.359
X154.178Y-132.981
X155.448Y-206.641
X155.916Y-146.977
X156.953Y-209.21
X157.226Y-173.367
X158.707Y-109.079
X158.968Y-212.701
X160.122Y-193.179
X161.307Y-108.699
X161.949Y-201.274
X162.041Y-205.168
X162.53Y-150.665
X163.401Y-108.699
X163.576Y-136.029
X165.1Y-201.053
X165.1Y-203.847
X165.608Y-152.285
X167.386Y-180.733
X167.589Y-136.029
X169.418Y-147.205
X170.942Y-105.549
X171.104Y-187.811
X171.394Y-179.534
X172.009Y-150.761
X172.974Y-148.798
X174.752Y-146.697
X176.276Y-56.273
X176.733Y-87.043
X177.292Y-68.465
X178.054Y-81.673
X178.308Y-110.883
X180.34Y-187.845
X181.051Y-125.107
X182.524Y-95.897
X182.524Y-98.475
T3
X31.414Y-48.298
X31.414Y-51.068
X31.414Y-53.838
X31.414Y-56.608
X31.414Y-139.23
X31.414Y-142.0
X31.414Y-144.77
X31.414Y-147.54
X34.254Y-46.913
X34.254Y-49.683
X34.254Y-52.453
X34.254Y-55.223
X34.254Y-57.993
X34.254Y-137.845
X34.254Y-140.615
X34.254Y-143.385
X34.254Y-146.155
X34.254Y-148.925
X42.53Y-171.589
X50.15Y-171.589
X89.662Y-90.929
X89.662Y-98.549
X94.742Y-90.929
X94.742Y-98.549
X99.06Y-47.525
X99.06Y-55.145
X99.934Y-93.865
X103.632Y-46.636
X103.632Y-49.176
X103.632Y-51.716
X103.632Y-54.256
X103.632Y-56.796
X103.632Y-59.336
X103.632Y-61.876
X103.632Y-64.416
X107.554Y-93.865
X111.364Y-93.865
X118.984Y-93.865
X130.444Y-35.445
X138.064Y-35.445
X145.908Y-30.111
X153.528Y-30.111
X167.528Y-133.235
X169.306Y-154.063
X175.148Y-133.235
X176.926Y-154.063
X179.07Y-203.815
X179.07Y-205.847
X179.07Y-207.879
X181.61Y-203.815
X181.61Y-207.879
X184.15Y-203.815
X184.15Y-205.847
X184.15Y-207.879
T4
X43.18Y-177.177
X43.18Y-202.577
X49.784Y-177.177
X49.784Y-202.577
X97.536Y-170.573
X97.536Y-175.399
X100.076Y-170.573
X100.076Y-175.399
X102.616Y-170.573
X102.616Y-175.399
X105.156Y-170.573
X105.156Y-175.399
X107.696Y-170.573
X107.696Y-175.399
X110.236Y-170.573
X110.236Y-175.399
X112.776Y-170.573
X112.776Y-175.399
X115.316Y-170.573
X115.316Y-175.399
X117.856Y-170.573
X117.856Y-175.399
X120.396Y-170.573
X120.396Y-175.399
X122.936Y-170.573
X122.936Y-175.399
X125.476Y-170.573
X125.476Y-175.399
X128.016Y-170.573
X128.016Y-175.399
X130.556Y-170.573
X130.556Y-175.399
X133.096Y-170.573
X133.096Y-175.399
T5
X28.089Y-167.935
X28.089Y-171.895
X28.089Y-175.855
X28.089Y-179.815
T6
X27.305Y-204.768
X35.941Y-204.768
T7
X176.784Y-205.847
X186.436Y-205.847
T8
X32.834Y-39.953
X32.834Y-64.953
X32.834Y-130.885
X32.834Y-155.885
T9
X88.966Y-172.974
X141.666Y-172.974
T10
X36.83Y-30.365
X51.054Y-214.261
X115.57Y-159.143
X182.118Y-33.413
X182.118Y-220.865
T6
G00X27.305Y-199.41
M15
G01X27.305Y-196.41
M16
G05
G00X27.305Y-213.126
M15
G01X27.305Y-210.126
M16
G05
G00X29.75Y-188.861
M15
G01X33.75Y-188.861
M16
G05
G00X29.75Y-220.611
M15
G01X33.75Y-220.611
M16
G05
G00X35.941Y-199.41
M15
G01X35.941Y-196.41
M16
G05
G00X35.941Y-213.126
M15
G01X35.941Y-210.126
M16
G05
G00X43.706Y-44.049
M15
G01X43.706Y-40.049
M16
G05
G00X51.34Y-79.151
M15
G01X55.34Y-79.151
M16
G05
G00X103.156Y-26.065
M15
G01X107.156Y-26.065
M16
G05
G00X103.156Y-79.133
M15
G01X107.156Y-79.133
M16
G05
G00X114.554Y-65.639
M15
G01X114.554Y-61.639
M16
G05
T0
M30
