%TF.GenerationSoftware,KiCad,Pcbnew,6.0.11-2627ca5db0~126~ubuntu22.04.1*%
%TF.CreationDate,2023-03-22T21:18:41-04:00*%
%TF.ProjectId,coleco_original_main_only,636f6c65-636f-45f6-9f72-6967696e616c,DEV*%
%TF.SameCoordinates,Original*%
%TF.FileFunction,Other,User*%
%FSLAX46Y46*%
G04 Gerber Fmt 4.6, Leading zero omitted, Abs format (unit mm)*
G04 Created by KiCad (PCBNEW 6.0.11-2627ca5db0~126~ubuntu22.04.1) date 2023-03-22 21:18:41*
%MOMM*%
%LPD*%
G01*
G04 APERTURE LIST*
%ADD10C,0.800000*%
G04 APERTURE END LIST*
D10*
X77216000Y-231533000D02*
X76454000Y-230771000D01*
X66802000Y-231025000D02*
X66802000Y-218833000D01*
X154940000Y-231533000D02*
X155702000Y-230771000D01*
X167640000Y-16903000D02*
X167640000Y-22237000D01*
X66040000Y-231787000D02*
X66802000Y-231025000D01*
X66294000Y-24015000D02*
X66294000Y-16903000D01*
X167386000Y-16903000D02*
X94234000Y-16903000D01*
X22352000Y-16903000D02*
X22352000Y-231533000D01*
X191770000Y-231787000D02*
X191770000Y-22745000D01*
X94234000Y-16903000D02*
X94234000Y-24015000D01*
X165100000Y-230517000D02*
X165100000Y-230771000D01*
X94234000Y-24015000D02*
X66294000Y-24015000D01*
X66294000Y-16903000D02*
X22352000Y-16903000D01*
X191770000Y-16903000D02*
X167894000Y-16903000D01*
X76454000Y-218833000D02*
X76454000Y-230771000D01*
X167640000Y-22237000D02*
X167386000Y-22237000D01*
X167386000Y-22237000D02*
X167386000Y-17157000D01*
X77216000Y-231533000D02*
X154940000Y-231533000D01*
X191770000Y-22745000D02*
X188722000Y-22745000D01*
X66802000Y-218833000D02*
X76454000Y-218833000D01*
X191770000Y-22745000D02*
X191770000Y-16903000D01*
X155702000Y-218579000D02*
X165100000Y-218579000D01*
X165100000Y-218579000D02*
X165100000Y-230517000D01*
X22352000Y-231787000D02*
X66040000Y-231787000D01*
X165100000Y-230771000D02*
X166116000Y-231787000D01*
X166116000Y-231787000D02*
X191770000Y-231787000D01*
X167894000Y-16903000D02*
X167640000Y-16903000D01*
X76454000Y-230517000D02*
X76454000Y-230771000D01*
X155702000Y-230771000D02*
X155702000Y-218579000D01*
M02*
