M48
; DRILL file {KiCad 6.0.11-2627ca5db0~126~ubuntu22.04.1} date Sun 09 Apr 2023 08:53:49 PM EDT
; FORMAT={-:-/ absolute / metric / decimal}
; #@! TF.CreationDate,2023-04-09T20:53:49-04:00
; #@! TF.GenerationSoftware,Kicad,Pcbnew,6.0.11-2627ca5db0~126~ubuntu22.04.1
; #@! TF.FileFunction,Plated,1,2,PTH
FMAT,2
METRIC
; #@! TA.AperFunction,Plated,PTH,ComponentDrill
T1C0.762
; #@! TA.AperFunction,Plated,PTH,ComponentDrill
T2C0.800
; #@! TA.AperFunction,Plated,PTH,ComponentDrill
T3C0.900
; #@! TA.AperFunction,Plated,PTH,ComponentDrill
T4C1.000
; #@! TA.AperFunction,Plated,PTH,ComponentDrill
T5C1.250
; #@! TA.AperFunction,Plated,PTH,ComponentDrill
T6C1.300
; #@! TA.AperFunction,Plated,PTH,ComponentDrill
T7C2.000
; #@! TA.AperFunction,Plated,PTH,ComponentDrill
T8C2.200
; #@! TA.AperFunction,Plated,PTH,ComponentDrill
T9C2.693
; #@! TA.AperFunction,Plated,PTH,ComponentDrill
T10C2.818
; #@! TA.AperFunction,Plated,PTH,ComponentDrill
T11C4.000
%
G90
G05
T1
X114.046Y-72.631
X114.046Y-79.743
X117.602Y-72.631
X117.602Y-79.743
X121.158Y-72.631
X121.158Y-79.743
T2
X111.76Y-87.617
X111.76Y-95.237
X116.871Y-115.811
X118.871Y-115.811
X120.904Y-100.825
X120.904Y-110.985
X121.158Y-83.045
X121.158Y-98.285
X124.968Y-90.705
X124.968Y-95.705
X125.222Y-100.317
X125.222Y-107.937
X125.73Y-115.811
X126.238Y-73.981
X126.238Y-78.981
X127.802Y-112.255
X128.27Y-85.585
X128.27Y-95.745
X128.778Y-104.167
X128.778Y-109.167
X129.286Y-81.267
X131.572Y-84.823
X131.612Y-91.427
X132.802Y-112.255
X133.096Y-88.125
X133.35Y-96.761
X133.35Y-104.381
X133.35Y-115.811
X135.89Y-96.761
X135.89Y-104.381
X136.398Y-108.445
X136.398Y-116.065
X136.612Y-91.427
X136.906Y-81.267
X138.43Y-96.761
X138.43Y-104.381
X139.192Y-84.823
X140.716Y-88.125
X140.97Y-96.761
X140.97Y-104.381
X143.51Y-96.761
X143.51Y-104.381
X143.55Y-91.427
X146.05Y-96.761
X146.05Y-104.381
X148.55Y-91.427
X148.59Y-81.013
X148.59Y-88.633
X148.59Y-96.761
X148.59Y-104.381
X149.138Y-107.937
X151.13Y-96.761
X151.13Y-104.381
X151.384Y-81.013
X152.4Y-86.347
X152.4Y-93.967
X153.67Y-96.761
X153.67Y-104.381
X154.138Y-107.937
X155.448Y-86.347
X155.448Y-93.967
X155.448Y-111.787
X155.448Y-116.787
X156.384Y-81.013
X158.674Y-116.573
X158.75Y-88.165
X158.75Y-93.165
X158.75Y-112.763
X166.294Y-116.573
X166.37Y-112.763
X167.64Y-96.801
X167.64Y-101.801
X171.704Y-88.419
X171.704Y-93.419
T3
X136.716Y-74.663
X138.716Y-74.663
X140.716Y-74.663
T4
X115.824Y-89.395
X115.824Y-91.935
X115.824Y-94.475
X115.824Y-97.015
X115.824Y-99.555
X115.824Y-102.095
X115.824Y-104.635
X115.824Y-107.175
T5
X134.616Y-74.663
X142.816Y-74.663
T6
X149.098Y-111.787
X149.098Y-116.787
X158.79Y-100.825
X163.79Y-100.825
X165.1Y-88.419
X165.1Y-93.419
T7
X112.522Y-76.187
X122.682Y-76.187
T8
X115.824Y-85.331
X115.824Y-111.239
T9
X167.132Y-82.907
T10
X167.132Y-78.407
T11
X117.602Y-76.187
T0
M30
