%TF.GenerationSoftware,KiCad,Pcbnew,6.0.11-2627ca5db0~126~ubuntu22.04.1*%
%TF.CreationDate,2023-04-10T22:07:41-04:00*%
%TF.ProjectId,sub_rf_mod,7375625f-7266-45f6-9d6f-642e6b696361,rev?*%
%TF.SameCoordinates,Original*%
%TF.FileFunction,Legend,Top*%
%TF.FilePolarity,Positive*%
%FSLAX46Y46*%
G04 Gerber Fmt 4.6, Leading zero omitted, Abs format (unit mm)*
G04 Created by KiCad (PCBNEW 6.0.11-2627ca5db0~126~ubuntu22.04.1) date 2023-04-10 22:07:41*
%MOMM*%
%LPD*%
G01*
G04 APERTURE LIST*
%TA.AperFunction,Profile*%
%ADD10C,0.100000*%
%TD*%
%ADD11C,0.150000*%
%ADD12C,0.254000*%
%ADD13C,0.120000*%
%ADD14C,0.100000*%
%ADD15C,0.200000*%
G04 APERTURE END LIST*
D10*
X110022000Y-70612000D02*
X178094000Y-70612000D01*
X110022000Y-70612000D02*
X109514000Y-71120000D01*
X178602000Y-120142000D02*
X178602000Y-71120000D01*
X178094000Y-70612000D02*
X178602000Y-71120000D01*
X109514000Y-120142000D02*
X110022000Y-120650000D01*
X109514000Y-120142000D02*
X109514000Y-71120000D01*
X178094000Y-120650000D02*
X178602000Y-120142000D01*
X110022000Y-120650000D02*
X178094000Y-120650000D01*
D11*
%TO.C,RF_C10*%
X176768380Y-105076380D02*
X176292190Y-105409714D01*
X176768380Y-105647809D02*
X175768380Y-105647809D01*
X175768380Y-105266857D01*
X175816000Y-105171619D01*
X175863619Y-105124000D01*
X175958857Y-105076380D01*
X176101714Y-105076380D01*
X176196952Y-105124000D01*
X176244571Y-105171619D01*
X176292190Y-105266857D01*
X176292190Y-105647809D01*
X176244571Y-104314476D02*
X176244571Y-104647809D01*
X176768380Y-104647809D02*
X175768380Y-104647809D01*
X175768380Y-104171619D01*
X176863619Y-104028761D02*
X176863619Y-103266857D01*
X176673142Y-102457333D02*
X176720761Y-102504952D01*
X176768380Y-102647809D01*
X176768380Y-102743047D01*
X176720761Y-102885904D01*
X176625523Y-102981142D01*
X176530285Y-103028761D01*
X176339809Y-103076380D01*
X176196952Y-103076380D01*
X176006476Y-103028761D01*
X175911238Y-102981142D01*
X175816000Y-102885904D01*
X175768380Y-102743047D01*
X175768380Y-102647809D01*
X175816000Y-102504952D01*
X175863619Y-102457333D01*
X176768380Y-101504952D02*
X176768380Y-102076380D01*
X176768380Y-101790666D02*
X175768380Y-101790666D01*
X175911238Y-101885904D01*
X176006476Y-101981142D01*
X176054095Y-102076380D01*
X175768380Y-100885904D02*
X175768380Y-100790666D01*
X175816000Y-100695428D01*
X175863619Y-100647809D01*
X175958857Y-100600190D01*
X176149333Y-100552571D01*
X176387428Y-100552571D01*
X176577904Y-100600190D01*
X176673142Y-100647809D01*
X176720761Y-100695428D01*
X176768380Y-100790666D01*
X176768380Y-100885904D01*
X176720761Y-100981142D01*
X176673142Y-101028761D01*
X176577904Y-101076380D01*
X176387428Y-101124000D01*
X176149333Y-101124000D01*
X175958857Y-101076380D01*
X175863619Y-101028761D01*
X175816000Y-100981142D01*
X175768380Y-100885904D01*
%TO.C,RF_JP1*%
X123682380Y-89487142D02*
X123206190Y-89820476D01*
X123682380Y-90058571D02*
X122682380Y-90058571D01*
X122682380Y-89677619D01*
X122730000Y-89582380D01*
X122777619Y-89534761D01*
X122872857Y-89487142D01*
X123015714Y-89487142D01*
X123110952Y-89534761D01*
X123158571Y-89582380D01*
X123206190Y-89677619D01*
X123206190Y-90058571D01*
X123158571Y-88725238D02*
X123158571Y-89058571D01*
X123682380Y-89058571D02*
X122682380Y-89058571D01*
X122682380Y-88582380D01*
X123777619Y-88439523D02*
X123777619Y-87677619D01*
X122682380Y-87153809D02*
X123396666Y-87153809D01*
X123539523Y-87201428D01*
X123634761Y-87296666D01*
X123682380Y-87439523D01*
X123682380Y-87534761D01*
X123682380Y-86677619D02*
X122682380Y-86677619D01*
X122682380Y-86296666D01*
X122730000Y-86201428D01*
X122777619Y-86153809D01*
X122872857Y-86106190D01*
X123015714Y-86106190D01*
X123110952Y-86153809D01*
X123158571Y-86201428D01*
X123206190Y-86296666D01*
X123206190Y-86677619D01*
X123682380Y-85153809D02*
X123682380Y-85725238D01*
X123682380Y-85439523D02*
X122682380Y-85439523D01*
X122825238Y-85534761D01*
X122920476Y-85630000D01*
X122968095Y-85725238D01*
%TO.C,RF_C6*%
X158329809Y-119832380D02*
X157996476Y-119356190D01*
X157758380Y-119832380D02*
X157758380Y-118832380D01*
X158139333Y-118832380D01*
X158234571Y-118880000D01*
X158282190Y-118927619D01*
X158329809Y-119022857D01*
X158329809Y-119165714D01*
X158282190Y-119260952D01*
X158234571Y-119308571D01*
X158139333Y-119356190D01*
X157758380Y-119356190D01*
X159091714Y-119308571D02*
X158758380Y-119308571D01*
X158758380Y-119832380D02*
X158758380Y-118832380D01*
X159234571Y-118832380D01*
X159377428Y-119927619D02*
X160139333Y-119927619D01*
X160948857Y-119737142D02*
X160901238Y-119784761D01*
X160758380Y-119832380D01*
X160663142Y-119832380D01*
X160520285Y-119784761D01*
X160425047Y-119689523D01*
X160377428Y-119594285D01*
X160329809Y-119403809D01*
X160329809Y-119260952D01*
X160377428Y-119070476D01*
X160425047Y-118975238D01*
X160520285Y-118880000D01*
X160663142Y-118832380D01*
X160758380Y-118832380D01*
X160901238Y-118880000D01*
X160948857Y-118927619D01*
X161806000Y-118832380D02*
X161615523Y-118832380D01*
X161520285Y-118880000D01*
X161472666Y-118927619D01*
X161377428Y-119070476D01*
X161329809Y-119260952D01*
X161329809Y-119641904D01*
X161377428Y-119737142D01*
X161425047Y-119784761D01*
X161520285Y-119832380D01*
X161710761Y-119832380D01*
X161806000Y-119784761D01*
X161853619Y-119737142D01*
X161901238Y-119641904D01*
X161901238Y-119403809D01*
X161853619Y-119308571D01*
X161806000Y-119260952D01*
X161710761Y-119213333D01*
X161520285Y-119213333D01*
X161425047Y-119260952D01*
X161377428Y-119308571D01*
X161329809Y-119403809D01*
%TO.C,RF_C5*%
X141311809Y-94940380D02*
X140978476Y-94464190D01*
X140740380Y-94940380D02*
X140740380Y-93940380D01*
X141121333Y-93940380D01*
X141216571Y-93988000D01*
X141264190Y-94035619D01*
X141311809Y-94130857D01*
X141311809Y-94273714D01*
X141264190Y-94368952D01*
X141216571Y-94416571D01*
X141121333Y-94464190D01*
X140740380Y-94464190D01*
X142073714Y-94416571D02*
X141740380Y-94416571D01*
X141740380Y-94940380D02*
X141740380Y-93940380D01*
X142216571Y-93940380D01*
X142359428Y-95035619D02*
X143121333Y-95035619D01*
X143930857Y-94845142D02*
X143883238Y-94892761D01*
X143740380Y-94940380D01*
X143645142Y-94940380D01*
X143502285Y-94892761D01*
X143407047Y-94797523D01*
X143359428Y-94702285D01*
X143311809Y-94511809D01*
X143311809Y-94368952D01*
X143359428Y-94178476D01*
X143407047Y-94083238D01*
X143502285Y-93988000D01*
X143645142Y-93940380D01*
X143740380Y-93940380D01*
X143883238Y-93988000D01*
X143930857Y-94035619D01*
X144835619Y-93940380D02*
X144359428Y-93940380D01*
X144311809Y-94416571D01*
X144359428Y-94368952D01*
X144454666Y-94321333D01*
X144692761Y-94321333D01*
X144788000Y-94368952D01*
X144835619Y-94416571D01*
X144883238Y-94511809D01*
X144883238Y-94749904D01*
X144835619Y-94845142D01*
X144788000Y-94892761D01*
X144692761Y-94940380D01*
X144454666Y-94940380D01*
X144359428Y-94892761D01*
X144311809Y-94845142D01*
%TO.C,RF_R11*%
X143375619Y-83510380D02*
X143042285Y-83034190D01*
X142804190Y-83510380D02*
X142804190Y-82510380D01*
X143185142Y-82510380D01*
X143280380Y-82558000D01*
X143328000Y-82605619D01*
X143375619Y-82700857D01*
X143375619Y-82843714D01*
X143328000Y-82938952D01*
X143280380Y-82986571D01*
X143185142Y-83034190D01*
X142804190Y-83034190D01*
X144137523Y-82986571D02*
X143804190Y-82986571D01*
X143804190Y-83510380D02*
X143804190Y-82510380D01*
X144280380Y-82510380D01*
X144423238Y-83605619D02*
X145185142Y-83605619D01*
X145994666Y-83510380D02*
X145661333Y-83034190D01*
X145423238Y-83510380D02*
X145423238Y-82510380D01*
X145804190Y-82510380D01*
X145899428Y-82558000D01*
X145947047Y-82605619D01*
X145994666Y-82700857D01*
X145994666Y-82843714D01*
X145947047Y-82938952D01*
X145899428Y-82986571D01*
X145804190Y-83034190D01*
X145423238Y-83034190D01*
X146947047Y-83510380D02*
X146375619Y-83510380D01*
X146661333Y-83510380D02*
X146661333Y-82510380D01*
X146566095Y-82653238D01*
X146470857Y-82748476D01*
X146375619Y-82796095D01*
X147899428Y-83510380D02*
X147328000Y-83510380D01*
X147613714Y-83510380D02*
X147613714Y-82510380D01*
X147518476Y-82653238D01*
X147423238Y-82748476D01*
X147328000Y-82796095D01*
%TO.C,RF_C12*%
X160607619Y-110688380D02*
X160274285Y-110212190D01*
X160036190Y-110688380D02*
X160036190Y-109688380D01*
X160417142Y-109688380D01*
X160512380Y-109736000D01*
X160560000Y-109783619D01*
X160607619Y-109878857D01*
X160607619Y-110021714D01*
X160560000Y-110116952D01*
X160512380Y-110164571D01*
X160417142Y-110212190D01*
X160036190Y-110212190D01*
X161369523Y-110164571D02*
X161036190Y-110164571D01*
X161036190Y-110688380D02*
X161036190Y-109688380D01*
X161512380Y-109688380D01*
X161655238Y-110783619D02*
X162417142Y-110783619D01*
X163226666Y-110593142D02*
X163179047Y-110640761D01*
X163036190Y-110688380D01*
X162940952Y-110688380D01*
X162798095Y-110640761D01*
X162702857Y-110545523D01*
X162655238Y-110450285D01*
X162607619Y-110259809D01*
X162607619Y-110116952D01*
X162655238Y-109926476D01*
X162702857Y-109831238D01*
X162798095Y-109736000D01*
X162940952Y-109688380D01*
X163036190Y-109688380D01*
X163179047Y-109736000D01*
X163226666Y-109783619D01*
X164179047Y-110688380D02*
X163607619Y-110688380D01*
X163893333Y-110688380D02*
X163893333Y-109688380D01*
X163798095Y-109831238D01*
X163702857Y-109926476D01*
X163607619Y-109974095D01*
X164560000Y-109783619D02*
X164607619Y-109736000D01*
X164702857Y-109688380D01*
X164940952Y-109688380D01*
X165036190Y-109736000D01*
X165083809Y-109783619D01*
X165131428Y-109878857D01*
X165131428Y-109974095D01*
X165083809Y-110116952D01*
X164512380Y-110688380D01*
X165131428Y-110688380D01*
%TO.C,RF_R6*%
X172807809Y-113736380D02*
X172474476Y-113260190D01*
X172236380Y-113736380D02*
X172236380Y-112736380D01*
X172617333Y-112736380D01*
X172712571Y-112784000D01*
X172760190Y-112831619D01*
X172807809Y-112926857D01*
X172807809Y-113069714D01*
X172760190Y-113164952D01*
X172712571Y-113212571D01*
X172617333Y-113260190D01*
X172236380Y-113260190D01*
X173569714Y-113212571D02*
X173236380Y-113212571D01*
X173236380Y-113736380D02*
X173236380Y-112736380D01*
X173712571Y-112736380D01*
X173855428Y-113831619D02*
X174617333Y-113831619D01*
X175426857Y-113736380D02*
X175093523Y-113260190D01*
X174855428Y-113736380D02*
X174855428Y-112736380D01*
X175236380Y-112736380D01*
X175331619Y-112784000D01*
X175379238Y-112831619D01*
X175426857Y-112926857D01*
X175426857Y-113069714D01*
X175379238Y-113164952D01*
X175331619Y-113212571D01*
X175236380Y-113260190D01*
X174855428Y-113260190D01*
X176284000Y-112736380D02*
X176093523Y-112736380D01*
X175998285Y-112784000D01*
X175950666Y-112831619D01*
X175855428Y-112974476D01*
X175807809Y-113164952D01*
X175807809Y-113545904D01*
X175855428Y-113641142D01*
X175903047Y-113688761D01*
X175998285Y-113736380D01*
X176188761Y-113736380D01*
X176284000Y-113688761D01*
X176331619Y-113641142D01*
X176379238Y-113545904D01*
X176379238Y-113307809D01*
X176331619Y-113212571D01*
X176284000Y-113164952D01*
X176188761Y-113117333D01*
X175998285Y-113117333D01*
X175903047Y-113164952D01*
X175855428Y-113212571D01*
X175807809Y-113307809D01*
%TO.C,RF_C2*%
X128762380Y-89106190D02*
X128286190Y-89439523D01*
X128762380Y-89677619D02*
X127762380Y-89677619D01*
X127762380Y-89296666D01*
X127810000Y-89201428D01*
X127857619Y-89153809D01*
X127952857Y-89106190D01*
X128095714Y-89106190D01*
X128190952Y-89153809D01*
X128238571Y-89201428D01*
X128286190Y-89296666D01*
X128286190Y-89677619D01*
X128238571Y-88344285D02*
X128238571Y-88677619D01*
X128762380Y-88677619D02*
X127762380Y-88677619D01*
X127762380Y-88201428D01*
X128857619Y-88058571D02*
X128857619Y-87296666D01*
X128667142Y-86487142D02*
X128714761Y-86534761D01*
X128762380Y-86677619D01*
X128762380Y-86772857D01*
X128714761Y-86915714D01*
X128619523Y-87010952D01*
X128524285Y-87058571D01*
X128333809Y-87106190D01*
X128190952Y-87106190D01*
X128000476Y-87058571D01*
X127905238Y-87010952D01*
X127810000Y-86915714D01*
X127762380Y-86772857D01*
X127762380Y-86677619D01*
X127810000Y-86534761D01*
X127857619Y-86487142D01*
X127857619Y-86106190D02*
X127810000Y-86058571D01*
X127762380Y-85963333D01*
X127762380Y-85725238D01*
X127810000Y-85630000D01*
X127857619Y-85582380D01*
X127952857Y-85534761D01*
X128048095Y-85534761D01*
X128190952Y-85582380D01*
X128762380Y-86153809D01*
X128762380Y-85534761D01*
%TO.C,RF_C13*%
X114509395Y-117038380D02*
X114176061Y-116562190D01*
X113937966Y-117038380D02*
X113937966Y-116038380D01*
X114318918Y-116038380D01*
X114414156Y-116086000D01*
X114461776Y-116133619D01*
X114509395Y-116228857D01*
X114509395Y-116371714D01*
X114461776Y-116466952D01*
X114414156Y-116514571D01*
X114318918Y-116562190D01*
X113937966Y-116562190D01*
X115271299Y-116514571D02*
X114937966Y-116514571D01*
X114937966Y-117038380D02*
X114937966Y-116038380D01*
X115414156Y-116038380D01*
X115557014Y-117133619D02*
X116318918Y-117133619D01*
X117128442Y-116943142D02*
X117080823Y-116990761D01*
X116937966Y-117038380D01*
X116842728Y-117038380D01*
X116699871Y-116990761D01*
X116604633Y-116895523D01*
X116557014Y-116800285D01*
X116509395Y-116609809D01*
X116509395Y-116466952D01*
X116557014Y-116276476D01*
X116604633Y-116181238D01*
X116699871Y-116086000D01*
X116842728Y-116038380D01*
X116937966Y-116038380D01*
X117080823Y-116086000D01*
X117128442Y-116133619D01*
X118080823Y-117038380D02*
X117509395Y-117038380D01*
X117795109Y-117038380D02*
X117795109Y-116038380D01*
X117699871Y-116181238D01*
X117604633Y-116276476D01*
X117509395Y-116324095D01*
X118414156Y-116038380D02*
X119033204Y-116038380D01*
X118699871Y-116419333D01*
X118842728Y-116419333D01*
X118937966Y-116466952D01*
X118985585Y-116514571D01*
X119033204Y-116609809D01*
X119033204Y-116847904D01*
X118985585Y-116943142D01*
X118937966Y-116990761D01*
X118842728Y-117038380D01*
X118557014Y-117038380D01*
X118461776Y-116990761D01*
X118414156Y-116943142D01*
%TO.C,RF_R3*%
X135469809Y-110942380D02*
X135136476Y-110466190D01*
X134898380Y-110942380D02*
X134898380Y-109942380D01*
X135279333Y-109942380D01*
X135374571Y-109990000D01*
X135422190Y-110037619D01*
X135469809Y-110132857D01*
X135469809Y-110275714D01*
X135422190Y-110370952D01*
X135374571Y-110418571D01*
X135279333Y-110466190D01*
X134898380Y-110466190D01*
X136231714Y-110418571D02*
X135898380Y-110418571D01*
X135898380Y-110942380D02*
X135898380Y-109942380D01*
X136374571Y-109942380D01*
X136517428Y-111037619D02*
X137279333Y-111037619D01*
X138088857Y-110942380D02*
X137755523Y-110466190D01*
X137517428Y-110942380D02*
X137517428Y-109942380D01*
X137898380Y-109942380D01*
X137993619Y-109990000D01*
X138041238Y-110037619D01*
X138088857Y-110132857D01*
X138088857Y-110275714D01*
X138041238Y-110370952D01*
X137993619Y-110418571D01*
X137898380Y-110466190D01*
X137517428Y-110466190D01*
X138422190Y-109942380D02*
X139041238Y-109942380D01*
X138707904Y-110323333D01*
X138850761Y-110323333D01*
X138946000Y-110370952D01*
X138993619Y-110418571D01*
X139041238Y-110513809D01*
X139041238Y-110751904D01*
X138993619Y-110847142D01*
X138946000Y-110894761D01*
X138850761Y-110942380D01*
X138565047Y-110942380D01*
X138469809Y-110894761D01*
X138422190Y-110847142D01*
%TO.C,RF_L3*%
X145471047Y-115768380D02*
X145137714Y-115292190D01*
X144899619Y-115768380D02*
X144899619Y-114768380D01*
X145280571Y-114768380D01*
X145375809Y-114816000D01*
X145423428Y-114863619D01*
X145471047Y-114958857D01*
X145471047Y-115101714D01*
X145423428Y-115196952D01*
X145375809Y-115244571D01*
X145280571Y-115292190D01*
X144899619Y-115292190D01*
X146232952Y-115244571D02*
X145899619Y-115244571D01*
X145899619Y-115768380D02*
X145899619Y-114768380D01*
X146375809Y-114768380D01*
X146518666Y-115863619D02*
X147280571Y-115863619D01*
X147994857Y-115768380D02*
X147518666Y-115768380D01*
X147518666Y-114768380D01*
X148232952Y-114768380D02*
X148852000Y-114768380D01*
X148518666Y-115149333D01*
X148661523Y-115149333D01*
X148756761Y-115196952D01*
X148804380Y-115244571D01*
X148852000Y-115339809D01*
X148852000Y-115577904D01*
X148804380Y-115673142D01*
X148756761Y-115720761D01*
X148661523Y-115768380D01*
X148375809Y-115768380D01*
X148280571Y-115720761D01*
X148232952Y-115673142D01*
%TO.C,RF_C11*%
X177530380Y-91614380D02*
X177054190Y-91947714D01*
X177530380Y-92185809D02*
X176530380Y-92185809D01*
X176530380Y-91804857D01*
X176578000Y-91709619D01*
X176625619Y-91662000D01*
X176720857Y-91614380D01*
X176863714Y-91614380D01*
X176958952Y-91662000D01*
X177006571Y-91709619D01*
X177054190Y-91804857D01*
X177054190Y-92185809D01*
X177006571Y-90852476D02*
X177006571Y-91185809D01*
X177530380Y-91185809D02*
X176530380Y-91185809D01*
X176530380Y-90709619D01*
X177625619Y-90566761D02*
X177625619Y-89804857D01*
X177435142Y-88995333D02*
X177482761Y-89042952D01*
X177530380Y-89185809D01*
X177530380Y-89281047D01*
X177482761Y-89423904D01*
X177387523Y-89519142D01*
X177292285Y-89566761D01*
X177101809Y-89614380D01*
X176958952Y-89614380D01*
X176768476Y-89566761D01*
X176673238Y-89519142D01*
X176578000Y-89423904D01*
X176530380Y-89281047D01*
X176530380Y-89185809D01*
X176578000Y-89042952D01*
X176625619Y-88995333D01*
X177530380Y-88042952D02*
X177530380Y-88614380D01*
X177530380Y-88328666D02*
X176530380Y-88328666D01*
X176673238Y-88423904D01*
X176768476Y-88519142D01*
X176816095Y-88614380D01*
X177530380Y-87090571D02*
X177530380Y-87662000D01*
X177530380Y-87376285D02*
X176530380Y-87376285D01*
X176673238Y-87471523D01*
X176768476Y-87566761D01*
X176816095Y-87662000D01*
%TO.C,RF_D1*%
X123594380Y-107902190D02*
X123118190Y-108235523D01*
X123594380Y-108473619D02*
X122594380Y-108473619D01*
X122594380Y-108092666D01*
X122642000Y-107997428D01*
X122689619Y-107949809D01*
X122784857Y-107902190D01*
X122927714Y-107902190D01*
X123022952Y-107949809D01*
X123070571Y-107997428D01*
X123118190Y-108092666D01*
X123118190Y-108473619D01*
X123070571Y-107140285D02*
X123070571Y-107473619D01*
X123594380Y-107473619D02*
X122594380Y-107473619D01*
X122594380Y-106997428D01*
X123689619Y-106854571D02*
X123689619Y-106092666D01*
X123594380Y-105854571D02*
X122594380Y-105854571D01*
X122594380Y-105616476D01*
X122642000Y-105473619D01*
X122737238Y-105378380D01*
X122832476Y-105330761D01*
X123022952Y-105283142D01*
X123165809Y-105283142D01*
X123356285Y-105330761D01*
X123451523Y-105378380D01*
X123546761Y-105473619D01*
X123594380Y-105616476D01*
X123594380Y-105854571D01*
X123594380Y-104330761D02*
X123594380Y-104902190D01*
X123594380Y-104616476D02*
X122594380Y-104616476D01*
X122737238Y-104711714D01*
X122832476Y-104806952D01*
X122880095Y-104902190D01*
X123914380Y-111767904D02*
X122914380Y-111767904D01*
X123914380Y-111196476D02*
X123342952Y-111625047D01*
X122914380Y-111196476D02*
X123485809Y-111767904D01*
%TO.C,RF_D2*%
X131048380Y-89106190D02*
X130572190Y-89439523D01*
X131048380Y-89677619D02*
X130048380Y-89677619D01*
X130048380Y-89296666D01*
X130096000Y-89201428D01*
X130143619Y-89153809D01*
X130238857Y-89106190D01*
X130381714Y-89106190D01*
X130476952Y-89153809D01*
X130524571Y-89201428D01*
X130572190Y-89296666D01*
X130572190Y-89677619D01*
X130524571Y-88344285D02*
X130524571Y-88677619D01*
X131048380Y-88677619D02*
X130048380Y-88677619D01*
X130048380Y-88201428D01*
X131143619Y-88058571D02*
X131143619Y-87296666D01*
X131048380Y-87058571D02*
X130048380Y-87058571D01*
X130048380Y-86820476D01*
X130096000Y-86677619D01*
X130191238Y-86582380D01*
X130286476Y-86534761D01*
X130476952Y-86487142D01*
X130619809Y-86487142D01*
X130810285Y-86534761D01*
X130905523Y-86582380D01*
X131000761Y-86677619D01*
X131048380Y-86820476D01*
X131048380Y-87058571D01*
X130143619Y-86106190D02*
X130096000Y-86058571D01*
X130048380Y-85963333D01*
X130048380Y-85725238D01*
X130096000Y-85630000D01*
X130143619Y-85582380D01*
X130238857Y-85534761D01*
X130334095Y-85534761D01*
X130476952Y-85582380D01*
X131048380Y-86153809D01*
X131048380Y-85534761D01*
X133080380Y-84589904D02*
X132080380Y-84589904D01*
X133080380Y-84018476D02*
X132508952Y-84447047D01*
X132080380Y-84018476D02*
X132651809Y-84589904D01*
%TO.C,RF_C1*%
X114538380Y-77930190D02*
X114062190Y-78263523D01*
X114538380Y-78501619D02*
X113538380Y-78501619D01*
X113538380Y-78120666D01*
X113586000Y-78025428D01*
X113633619Y-77977809D01*
X113728857Y-77930190D01*
X113871714Y-77930190D01*
X113966952Y-77977809D01*
X114014571Y-78025428D01*
X114062190Y-78120666D01*
X114062190Y-78501619D01*
X114014571Y-77168285D02*
X114014571Y-77501619D01*
X114538380Y-77501619D02*
X113538380Y-77501619D01*
X113538380Y-77025428D01*
X114633619Y-76882571D02*
X114633619Y-76120666D01*
X114443142Y-75311142D02*
X114490761Y-75358761D01*
X114538380Y-75501619D01*
X114538380Y-75596857D01*
X114490761Y-75739714D01*
X114395523Y-75834952D01*
X114300285Y-75882571D01*
X114109809Y-75930190D01*
X113966952Y-75930190D01*
X113776476Y-75882571D01*
X113681238Y-75834952D01*
X113586000Y-75739714D01*
X113538380Y-75596857D01*
X113538380Y-75501619D01*
X113586000Y-75358761D01*
X113633619Y-75311142D01*
X114538380Y-74358761D02*
X114538380Y-74930190D01*
X114538380Y-74644476D02*
X113538380Y-74644476D01*
X113681238Y-74739714D01*
X113776476Y-74834952D01*
X113824095Y-74930190D01*
%TO.C,RF_R2*%
X132402380Y-102314190D02*
X131926190Y-102647523D01*
X132402380Y-102885619D02*
X131402380Y-102885619D01*
X131402380Y-102504666D01*
X131450000Y-102409428D01*
X131497619Y-102361809D01*
X131592857Y-102314190D01*
X131735714Y-102314190D01*
X131830952Y-102361809D01*
X131878571Y-102409428D01*
X131926190Y-102504666D01*
X131926190Y-102885619D01*
X131878571Y-101552285D02*
X131878571Y-101885619D01*
X132402380Y-101885619D02*
X131402380Y-101885619D01*
X131402380Y-101409428D01*
X132497619Y-101266571D02*
X132497619Y-100504666D01*
X132402380Y-99695142D02*
X131926190Y-100028476D01*
X132402380Y-100266571D02*
X131402380Y-100266571D01*
X131402380Y-99885619D01*
X131450000Y-99790380D01*
X131497619Y-99742761D01*
X131592857Y-99695142D01*
X131735714Y-99695142D01*
X131830952Y-99742761D01*
X131878571Y-99790380D01*
X131926190Y-99885619D01*
X131926190Y-100266571D01*
X131497619Y-99314190D02*
X131450000Y-99266571D01*
X131402380Y-99171333D01*
X131402380Y-98933238D01*
X131450000Y-98838000D01*
X131497619Y-98790380D01*
X131592857Y-98742761D01*
X131688095Y-98742761D01*
X131830952Y-98790380D01*
X132402380Y-99361809D01*
X132402380Y-98742761D01*
%TO.C,RF_U1*%
X135830380Y-102592000D02*
X135354190Y-102925333D01*
X135830380Y-103163428D02*
X134830380Y-103163428D01*
X134830380Y-102782476D01*
X134878000Y-102687238D01*
X134925619Y-102639619D01*
X135020857Y-102592000D01*
X135163714Y-102592000D01*
X135258952Y-102639619D01*
X135306571Y-102687238D01*
X135354190Y-102782476D01*
X135354190Y-103163428D01*
X135306571Y-101830095D02*
X135306571Y-102163428D01*
X135830380Y-102163428D02*
X134830380Y-102163428D01*
X134830380Y-101687238D01*
X135925619Y-101544380D02*
X135925619Y-100782476D01*
X134830380Y-100544380D02*
X135639904Y-100544380D01*
X135735142Y-100496761D01*
X135782761Y-100449142D01*
X135830380Y-100353904D01*
X135830380Y-100163428D01*
X135782761Y-100068190D01*
X135735142Y-100020571D01*
X135639904Y-99972952D01*
X134830380Y-99972952D01*
X135830380Y-98972952D02*
X135830380Y-99544380D01*
X135830380Y-99258666D02*
X134830380Y-99258666D01*
X134973238Y-99353904D01*
X135068476Y-99449142D01*
X135116095Y-99544380D01*
%TO.C,RF_C7*%
X149947809Y-94686380D02*
X149614476Y-94210190D01*
X149376380Y-94686380D02*
X149376380Y-93686380D01*
X149757333Y-93686380D01*
X149852571Y-93734000D01*
X149900190Y-93781619D01*
X149947809Y-93876857D01*
X149947809Y-94019714D01*
X149900190Y-94114952D01*
X149852571Y-94162571D01*
X149757333Y-94210190D01*
X149376380Y-94210190D01*
X150709714Y-94162571D02*
X150376380Y-94162571D01*
X150376380Y-94686380D02*
X150376380Y-93686380D01*
X150852571Y-93686380D01*
X150995428Y-94781619D02*
X151757333Y-94781619D01*
X152566857Y-94591142D02*
X152519238Y-94638761D01*
X152376380Y-94686380D01*
X152281142Y-94686380D01*
X152138285Y-94638761D01*
X152043047Y-94543523D01*
X151995428Y-94448285D01*
X151947809Y-94257809D01*
X151947809Y-94114952D01*
X151995428Y-93924476D01*
X152043047Y-93829238D01*
X152138285Y-93734000D01*
X152281142Y-93686380D01*
X152376380Y-93686380D01*
X152519238Y-93734000D01*
X152566857Y-93781619D01*
X152900190Y-93686380D02*
X153566857Y-93686380D01*
X153138285Y-94686380D01*
%TO.C,H17*%
X114879904Y-86304380D02*
X114879904Y-85304380D01*
X114879904Y-85780571D02*
X115451333Y-85780571D01*
X115451333Y-86304380D02*
X115451333Y-85304380D01*
X116451333Y-86304380D02*
X115879904Y-86304380D01*
X116165619Y-86304380D02*
X116165619Y-85304380D01*
X116070380Y-85447238D01*
X115975142Y-85542476D01*
X115879904Y-85590095D01*
X116784666Y-85304380D02*
X117451333Y-85304380D01*
X117022761Y-86304380D01*
%TO.C,RF_VL1*%
X123261523Y-82351619D02*
X123594857Y-82827809D01*
X123832952Y-82351619D02*
X123832952Y-83351619D01*
X123452000Y-83351619D01*
X123356761Y-83304000D01*
X123309142Y-83256380D01*
X123261523Y-83161142D01*
X123261523Y-83018285D01*
X123309142Y-82923047D01*
X123356761Y-82875428D01*
X123452000Y-82827809D01*
X123832952Y-82827809D01*
X122499619Y-82875428D02*
X122832952Y-82875428D01*
X122832952Y-82351619D02*
X122832952Y-83351619D01*
X122356761Y-83351619D01*
X122213904Y-82256380D02*
X121452000Y-82256380D01*
X121356761Y-83351619D02*
X121023428Y-82351619D01*
X120690095Y-83351619D01*
X119880571Y-82351619D02*
X120356761Y-82351619D01*
X120356761Y-83351619D01*
X119023428Y-82351619D02*
X119594857Y-82351619D01*
X119309142Y-82351619D02*
X119309142Y-83351619D01*
X119404380Y-83208761D01*
X119499619Y-83113523D01*
X119594857Y-83065904D01*
%TO.C,RF_C4*%
X127087809Y-113990380D02*
X126754476Y-113514190D01*
X126516380Y-113990380D02*
X126516380Y-112990380D01*
X126897333Y-112990380D01*
X126992571Y-113038000D01*
X127040190Y-113085619D01*
X127087809Y-113180857D01*
X127087809Y-113323714D01*
X127040190Y-113418952D01*
X126992571Y-113466571D01*
X126897333Y-113514190D01*
X126516380Y-113514190D01*
X127849714Y-113466571D02*
X127516380Y-113466571D01*
X127516380Y-113990380D02*
X127516380Y-112990380D01*
X127992571Y-112990380D01*
X128135428Y-114085619D02*
X128897333Y-114085619D01*
X129706857Y-113895142D02*
X129659238Y-113942761D01*
X129516380Y-113990380D01*
X129421142Y-113990380D01*
X129278285Y-113942761D01*
X129183047Y-113847523D01*
X129135428Y-113752285D01*
X129087809Y-113561809D01*
X129087809Y-113418952D01*
X129135428Y-113228476D01*
X129183047Y-113133238D01*
X129278285Y-113038000D01*
X129421142Y-112990380D01*
X129516380Y-112990380D01*
X129659238Y-113038000D01*
X129706857Y-113085619D01*
X130564000Y-113323714D02*
X130564000Y-113990380D01*
X130325904Y-112942761D02*
X130087809Y-113657047D01*
X130706857Y-113657047D01*
%TO.C,RF_R5*%
X172807809Y-117292380D02*
X172474476Y-116816190D01*
X172236380Y-117292380D02*
X172236380Y-116292380D01*
X172617333Y-116292380D01*
X172712571Y-116340000D01*
X172760190Y-116387619D01*
X172807809Y-116482857D01*
X172807809Y-116625714D01*
X172760190Y-116720952D01*
X172712571Y-116768571D01*
X172617333Y-116816190D01*
X172236380Y-116816190D01*
X173569714Y-116768571D02*
X173236380Y-116768571D01*
X173236380Y-117292380D02*
X173236380Y-116292380D01*
X173712571Y-116292380D01*
X173855428Y-117387619D02*
X174617333Y-117387619D01*
X175426857Y-117292380D02*
X175093523Y-116816190D01*
X174855428Y-117292380D02*
X174855428Y-116292380D01*
X175236380Y-116292380D01*
X175331619Y-116340000D01*
X175379238Y-116387619D01*
X175426857Y-116482857D01*
X175426857Y-116625714D01*
X175379238Y-116720952D01*
X175331619Y-116768571D01*
X175236380Y-116816190D01*
X174855428Y-116816190D01*
X176331619Y-116292380D02*
X175855428Y-116292380D01*
X175807809Y-116768571D01*
X175855428Y-116720952D01*
X175950666Y-116673333D01*
X176188761Y-116673333D01*
X176284000Y-116720952D01*
X176331619Y-116768571D01*
X176379238Y-116863809D01*
X176379238Y-117101904D01*
X176331619Y-117197142D01*
X176284000Y-117244761D01*
X176188761Y-117292380D01*
X175950666Y-117292380D01*
X175855428Y-117244761D01*
X175807809Y-117197142D01*
%TO.C,J4B1*%
X122174380Y-101131523D02*
X122888666Y-101131523D01*
X123031523Y-101179142D01*
X123126761Y-101274380D01*
X123174380Y-101417238D01*
X123174380Y-101512476D01*
X122507714Y-100226761D02*
X123174380Y-100226761D01*
X122126761Y-100464857D02*
X122841047Y-100702952D01*
X122841047Y-100083904D01*
X122650571Y-99369619D02*
X122698190Y-99226761D01*
X122745809Y-99179142D01*
X122841047Y-99131523D01*
X122983904Y-99131523D01*
X123079142Y-99179142D01*
X123126761Y-99226761D01*
X123174380Y-99322000D01*
X123174380Y-99702952D01*
X122174380Y-99702952D01*
X122174380Y-99369619D01*
X122222000Y-99274380D01*
X122269619Y-99226761D01*
X122364857Y-99179142D01*
X122460095Y-99179142D01*
X122555333Y-99226761D01*
X122602952Y-99274380D01*
X122650571Y-99369619D01*
X122650571Y-99702952D01*
X123174380Y-98179142D02*
X123174380Y-98750571D01*
X123174380Y-98464857D02*
X122174380Y-98464857D01*
X122317238Y-98560095D01*
X122412476Y-98655333D01*
X122460095Y-98750571D01*
%TO.C,RF_R7*%
X160615809Y-85542380D02*
X160282476Y-85066190D01*
X160044380Y-85542380D02*
X160044380Y-84542380D01*
X160425333Y-84542380D01*
X160520571Y-84590000D01*
X160568190Y-84637619D01*
X160615809Y-84732857D01*
X160615809Y-84875714D01*
X160568190Y-84970952D01*
X160520571Y-85018571D01*
X160425333Y-85066190D01*
X160044380Y-85066190D01*
X161377714Y-85018571D02*
X161044380Y-85018571D01*
X161044380Y-85542380D02*
X161044380Y-84542380D01*
X161520571Y-84542380D01*
X161663428Y-85637619D02*
X162425333Y-85637619D01*
X163234857Y-85542380D02*
X162901523Y-85066190D01*
X162663428Y-85542380D02*
X162663428Y-84542380D01*
X163044380Y-84542380D01*
X163139619Y-84590000D01*
X163187238Y-84637619D01*
X163234857Y-84732857D01*
X163234857Y-84875714D01*
X163187238Y-84970952D01*
X163139619Y-85018571D01*
X163044380Y-85066190D01*
X162663428Y-85066190D01*
X163568190Y-84542380D02*
X164234857Y-84542380D01*
X163806285Y-85542380D01*
%TO.C,RF_R8*%
X155281809Y-85542380D02*
X154948476Y-85066190D01*
X154710380Y-85542380D02*
X154710380Y-84542380D01*
X155091333Y-84542380D01*
X155186571Y-84590000D01*
X155234190Y-84637619D01*
X155281809Y-84732857D01*
X155281809Y-84875714D01*
X155234190Y-84970952D01*
X155186571Y-85018571D01*
X155091333Y-85066190D01*
X154710380Y-85066190D01*
X156043714Y-85018571D02*
X155710380Y-85018571D01*
X155710380Y-85542380D02*
X155710380Y-84542380D01*
X156186571Y-84542380D01*
X156329428Y-85637619D02*
X157091333Y-85637619D01*
X157900857Y-85542380D02*
X157567523Y-85066190D01*
X157329428Y-85542380D02*
X157329428Y-84542380D01*
X157710380Y-84542380D01*
X157805619Y-84590000D01*
X157853238Y-84637619D01*
X157900857Y-84732857D01*
X157900857Y-84875714D01*
X157853238Y-84970952D01*
X157805619Y-85018571D01*
X157710380Y-85066190D01*
X157329428Y-85066190D01*
X158472285Y-84970952D02*
X158377047Y-84923333D01*
X158329428Y-84875714D01*
X158281809Y-84780476D01*
X158281809Y-84732857D01*
X158329428Y-84637619D01*
X158377047Y-84590000D01*
X158472285Y-84542380D01*
X158662761Y-84542380D01*
X158758000Y-84590000D01*
X158805619Y-84637619D01*
X158853238Y-84732857D01*
X158853238Y-84780476D01*
X158805619Y-84875714D01*
X158758000Y-84923333D01*
X158662761Y-84970952D01*
X158472285Y-84970952D01*
X158377047Y-85018571D01*
X158329428Y-85066190D01*
X158281809Y-85161428D01*
X158281809Y-85351904D01*
X158329428Y-85447142D01*
X158377047Y-85494761D01*
X158472285Y-85542380D01*
X158662761Y-85542380D01*
X158758000Y-85494761D01*
X158805619Y-85447142D01*
X158853238Y-85351904D01*
X158853238Y-85161428D01*
X158805619Y-85066190D01*
X158758000Y-85018571D01*
X158662761Y-84970952D01*
D12*
%TO.C,RF_J1*%
X164698523Y-75891571D02*
X164093761Y-76314904D01*
X164698523Y-76617285D02*
X163428523Y-76617285D01*
X163428523Y-76133476D01*
X163489000Y-76012523D01*
X163549476Y-75952047D01*
X163670428Y-75891571D01*
X163851857Y-75891571D01*
X163972809Y-75952047D01*
X164033285Y-76012523D01*
X164093761Y-76133476D01*
X164093761Y-76617285D01*
X164033285Y-74923952D02*
X164033285Y-75347285D01*
X164698523Y-75347285D02*
X163428523Y-75347285D01*
X163428523Y-74742523D01*
X164819476Y-74561095D02*
X164819476Y-73593476D01*
X163428523Y-72928238D02*
X164335666Y-72928238D01*
X164517095Y-72988714D01*
X164638047Y-73109666D01*
X164698523Y-73291095D01*
X164698523Y-73412047D01*
X164698523Y-71658238D02*
X164698523Y-72383952D01*
X164698523Y-72021095D02*
X163428523Y-72021095D01*
X163609952Y-72142047D01*
X163730904Y-72263000D01*
X163791380Y-72383952D01*
D11*
%TO.C,RF_C8*%
X156805809Y-79700380D02*
X156472476Y-79224190D01*
X156234380Y-79700380D02*
X156234380Y-78700380D01*
X156615333Y-78700380D01*
X156710571Y-78748000D01*
X156758190Y-78795619D01*
X156805809Y-78890857D01*
X156805809Y-79033714D01*
X156758190Y-79128952D01*
X156710571Y-79176571D01*
X156615333Y-79224190D01*
X156234380Y-79224190D01*
X157567714Y-79176571D02*
X157234380Y-79176571D01*
X157234380Y-79700380D02*
X157234380Y-78700380D01*
X157710571Y-78700380D01*
X157853428Y-79795619D02*
X158615333Y-79795619D01*
X159424857Y-79605142D02*
X159377238Y-79652761D01*
X159234380Y-79700380D01*
X159139142Y-79700380D01*
X158996285Y-79652761D01*
X158901047Y-79557523D01*
X158853428Y-79462285D01*
X158805809Y-79271809D01*
X158805809Y-79128952D01*
X158853428Y-78938476D01*
X158901047Y-78843238D01*
X158996285Y-78748000D01*
X159139142Y-78700380D01*
X159234380Y-78700380D01*
X159377238Y-78748000D01*
X159424857Y-78795619D01*
X159996285Y-79128952D02*
X159901047Y-79081333D01*
X159853428Y-79033714D01*
X159805809Y-78938476D01*
X159805809Y-78890857D01*
X159853428Y-78795619D01*
X159901047Y-78748000D01*
X159996285Y-78700380D01*
X160186761Y-78700380D01*
X160282000Y-78748000D01*
X160329619Y-78795619D01*
X160377238Y-78890857D01*
X160377238Y-78938476D01*
X160329619Y-79033714D01*
X160282000Y-79081333D01*
X160186761Y-79128952D01*
X159996285Y-79128952D01*
X159901047Y-79176571D01*
X159853428Y-79224190D01*
X159805809Y-79319428D01*
X159805809Y-79509904D01*
X159853428Y-79605142D01*
X159901047Y-79652761D01*
X159996285Y-79700380D01*
X160186761Y-79700380D01*
X160282000Y-79652761D01*
X160329619Y-79605142D01*
X160377238Y-79509904D01*
X160377238Y-79319428D01*
X160329619Y-79224190D01*
X160282000Y-79176571D01*
X160186761Y-79128952D01*
%TO.C,RF_C9*%
X168132380Y-90630190D02*
X167656190Y-90963523D01*
X168132380Y-91201619D02*
X167132380Y-91201619D01*
X167132380Y-90820666D01*
X167180000Y-90725428D01*
X167227619Y-90677809D01*
X167322857Y-90630190D01*
X167465714Y-90630190D01*
X167560952Y-90677809D01*
X167608571Y-90725428D01*
X167656190Y-90820666D01*
X167656190Y-91201619D01*
X167608571Y-89868285D02*
X167608571Y-90201619D01*
X168132380Y-90201619D02*
X167132380Y-90201619D01*
X167132380Y-89725428D01*
X168227619Y-89582571D02*
X168227619Y-88820666D01*
X168037142Y-88011142D02*
X168084761Y-88058761D01*
X168132380Y-88201619D01*
X168132380Y-88296857D01*
X168084761Y-88439714D01*
X167989523Y-88534952D01*
X167894285Y-88582571D01*
X167703809Y-88630190D01*
X167560952Y-88630190D01*
X167370476Y-88582571D01*
X167275238Y-88534952D01*
X167180000Y-88439714D01*
X167132380Y-88296857D01*
X167132380Y-88201619D01*
X167180000Y-88058761D01*
X167227619Y-88011142D01*
X168132380Y-87534952D02*
X168132380Y-87344476D01*
X168084761Y-87249238D01*
X168037142Y-87201619D01*
X167894285Y-87106380D01*
X167703809Y-87058761D01*
X167322857Y-87058761D01*
X167227619Y-87106380D01*
X167180000Y-87154000D01*
X167132380Y-87249238D01*
X167132380Y-87439714D01*
X167180000Y-87534952D01*
X167227619Y-87582571D01*
X167322857Y-87630190D01*
X167560952Y-87630190D01*
X167656190Y-87582571D01*
X167703809Y-87534952D01*
X167751428Y-87439714D01*
X167751428Y-87249238D01*
X167703809Y-87154000D01*
X167656190Y-87106380D01*
X167560952Y-87058761D01*
%TO.C,H16*%
X114879904Y-112212380D02*
X114879904Y-111212380D01*
X114879904Y-111688571D02*
X115451333Y-111688571D01*
X115451333Y-112212380D02*
X115451333Y-111212380D01*
X116451333Y-112212380D02*
X115879904Y-112212380D01*
X116165619Y-112212380D02*
X116165619Y-111212380D01*
X116070380Y-111355238D01*
X115975142Y-111450476D01*
X115879904Y-111498095D01*
X117308476Y-111212380D02*
X117118000Y-111212380D01*
X117022761Y-111260000D01*
X116975142Y-111307619D01*
X116879904Y-111450476D01*
X116832285Y-111640952D01*
X116832285Y-112021904D01*
X116879904Y-112117142D01*
X116927523Y-112164761D01*
X117022761Y-112212380D01*
X117213238Y-112212380D01*
X117308476Y-112164761D01*
X117356095Y-112117142D01*
X117403714Y-112021904D01*
X117403714Y-111783809D01*
X117356095Y-111688571D01*
X117308476Y-111640952D01*
X117213238Y-111593333D01*
X117022761Y-111593333D01*
X116927523Y-111640952D01*
X116879904Y-111688571D01*
X116832285Y-111783809D01*
%TO.C,RF_R4*%
X139279809Y-119324380D02*
X138946476Y-118848190D01*
X138708380Y-119324380D02*
X138708380Y-118324380D01*
X139089333Y-118324380D01*
X139184571Y-118372000D01*
X139232190Y-118419619D01*
X139279809Y-118514857D01*
X139279809Y-118657714D01*
X139232190Y-118752952D01*
X139184571Y-118800571D01*
X139089333Y-118848190D01*
X138708380Y-118848190D01*
X140041714Y-118800571D02*
X139708380Y-118800571D01*
X139708380Y-119324380D02*
X139708380Y-118324380D01*
X140184571Y-118324380D01*
X140327428Y-119419619D02*
X141089333Y-119419619D01*
X141898857Y-119324380D02*
X141565523Y-118848190D01*
X141327428Y-119324380D02*
X141327428Y-118324380D01*
X141708380Y-118324380D01*
X141803619Y-118372000D01*
X141851238Y-118419619D01*
X141898857Y-118514857D01*
X141898857Y-118657714D01*
X141851238Y-118752952D01*
X141803619Y-118800571D01*
X141708380Y-118848190D01*
X141327428Y-118848190D01*
X142756000Y-118657714D02*
X142756000Y-119324380D01*
X142517904Y-118276761D02*
X142279809Y-118991047D01*
X142898857Y-118991047D01*
%TO.C,RF_R1*%
X114200380Y-93424190D02*
X113724190Y-93757523D01*
X114200380Y-93995619D02*
X113200380Y-93995619D01*
X113200380Y-93614666D01*
X113248000Y-93519428D01*
X113295619Y-93471809D01*
X113390857Y-93424190D01*
X113533714Y-93424190D01*
X113628952Y-93471809D01*
X113676571Y-93519428D01*
X113724190Y-93614666D01*
X113724190Y-93995619D01*
X113676571Y-92662285D02*
X113676571Y-92995619D01*
X114200380Y-92995619D02*
X113200380Y-92995619D01*
X113200380Y-92519428D01*
X114295619Y-92376571D02*
X114295619Y-91614666D01*
X114200380Y-90805142D02*
X113724190Y-91138476D01*
X114200380Y-91376571D02*
X113200380Y-91376571D01*
X113200380Y-90995619D01*
X113248000Y-90900380D01*
X113295619Y-90852761D01*
X113390857Y-90805142D01*
X113533714Y-90805142D01*
X113628952Y-90852761D01*
X113676571Y-90900380D01*
X113724190Y-90995619D01*
X113724190Y-91376571D01*
X114200380Y-89852761D02*
X114200380Y-90424190D01*
X114200380Y-90138476D02*
X113200380Y-90138476D01*
X113343238Y-90233714D01*
X113438476Y-90328952D01*
X113486095Y-90424190D01*
%TO.C,RF_R9*%
X151114380Y-86820190D02*
X150638190Y-87153523D01*
X151114380Y-87391619D02*
X150114380Y-87391619D01*
X150114380Y-87010666D01*
X150162000Y-86915428D01*
X150209619Y-86867809D01*
X150304857Y-86820190D01*
X150447714Y-86820190D01*
X150542952Y-86867809D01*
X150590571Y-86915428D01*
X150638190Y-87010666D01*
X150638190Y-87391619D01*
X150590571Y-86058285D02*
X150590571Y-86391619D01*
X151114380Y-86391619D02*
X150114380Y-86391619D01*
X150114380Y-85915428D01*
X151209619Y-85772571D02*
X151209619Y-85010666D01*
X151114380Y-84201142D02*
X150638190Y-84534476D01*
X151114380Y-84772571D02*
X150114380Y-84772571D01*
X150114380Y-84391619D01*
X150162000Y-84296380D01*
X150209619Y-84248761D01*
X150304857Y-84201142D01*
X150447714Y-84201142D01*
X150542952Y-84248761D01*
X150590571Y-84296380D01*
X150638190Y-84391619D01*
X150638190Y-84772571D01*
X151114380Y-83724952D02*
X151114380Y-83534476D01*
X151066761Y-83439238D01*
X151019142Y-83391619D01*
X150876285Y-83296380D01*
X150685809Y-83248761D01*
X150304857Y-83248761D01*
X150209619Y-83296380D01*
X150162000Y-83344000D01*
X150114380Y-83439238D01*
X150114380Y-83629714D01*
X150162000Y-83724952D01*
X150209619Y-83772571D01*
X150304857Y-83820190D01*
X150542952Y-83820190D01*
X150638190Y-83772571D01*
X150685809Y-83724952D01*
X150733428Y-83629714D01*
X150733428Y-83439238D01*
X150685809Y-83344000D01*
X150638190Y-83296380D01*
X150542952Y-83248761D01*
%TO.C,RF_SW1*%
X141650190Y-79236380D02*
X141316857Y-78760190D01*
X141078761Y-79236380D02*
X141078761Y-78236380D01*
X141459714Y-78236380D01*
X141554952Y-78284000D01*
X141602571Y-78331619D01*
X141650190Y-78426857D01*
X141650190Y-78569714D01*
X141602571Y-78664952D01*
X141554952Y-78712571D01*
X141459714Y-78760190D01*
X141078761Y-78760190D01*
X142412095Y-78712571D02*
X142078761Y-78712571D01*
X142078761Y-79236380D02*
X142078761Y-78236380D01*
X142554952Y-78236380D01*
X142697809Y-79331619D02*
X143459714Y-79331619D01*
X143650190Y-79188761D02*
X143793047Y-79236380D01*
X144031142Y-79236380D01*
X144126380Y-79188761D01*
X144174000Y-79141142D01*
X144221619Y-79045904D01*
X144221619Y-78950666D01*
X144174000Y-78855428D01*
X144126380Y-78807809D01*
X144031142Y-78760190D01*
X143840666Y-78712571D01*
X143745428Y-78664952D01*
X143697809Y-78617333D01*
X143650190Y-78522095D01*
X143650190Y-78426857D01*
X143697809Y-78331619D01*
X143745428Y-78284000D01*
X143840666Y-78236380D01*
X144078761Y-78236380D01*
X144221619Y-78284000D01*
X144554952Y-78236380D02*
X144793047Y-79236380D01*
X144983523Y-78522095D01*
X145174000Y-79236380D01*
X145412095Y-78236380D01*
X146316857Y-79236380D02*
X145745428Y-79236380D01*
X146031142Y-79236380D02*
X146031142Y-78236380D01*
X145935904Y-78379238D01*
X145840666Y-78474476D01*
X145745428Y-78522095D01*
%TO.C,RF_R10*%
X143375619Y-81732380D02*
X143042285Y-81256190D01*
X142804190Y-81732380D02*
X142804190Y-80732380D01*
X143185142Y-80732380D01*
X143280380Y-80780000D01*
X143328000Y-80827619D01*
X143375619Y-80922857D01*
X143375619Y-81065714D01*
X143328000Y-81160952D01*
X143280380Y-81208571D01*
X143185142Y-81256190D01*
X142804190Y-81256190D01*
X144137523Y-81208571D02*
X143804190Y-81208571D01*
X143804190Y-81732380D02*
X143804190Y-80732380D01*
X144280380Y-80732380D01*
X144423238Y-81827619D02*
X145185142Y-81827619D01*
X145994666Y-81732380D02*
X145661333Y-81256190D01*
X145423238Y-81732380D02*
X145423238Y-80732380D01*
X145804190Y-80732380D01*
X145899428Y-80780000D01*
X145947047Y-80827619D01*
X145994666Y-80922857D01*
X145994666Y-81065714D01*
X145947047Y-81160952D01*
X145899428Y-81208571D01*
X145804190Y-81256190D01*
X145423238Y-81256190D01*
X146947047Y-81732380D02*
X146375619Y-81732380D01*
X146661333Y-81732380D02*
X146661333Y-80732380D01*
X146566095Y-80875238D01*
X146470857Y-80970476D01*
X146375619Y-81018095D01*
X147566095Y-80732380D02*
X147661333Y-80732380D01*
X147756571Y-80780000D01*
X147804190Y-80827619D01*
X147851809Y-80922857D01*
X147899428Y-81113333D01*
X147899428Y-81351428D01*
X147851809Y-81541904D01*
X147804190Y-81637142D01*
X147756571Y-81684761D01*
X147661333Y-81732380D01*
X147566095Y-81732380D01*
X147470857Y-81684761D01*
X147423238Y-81637142D01*
X147375619Y-81541904D01*
X147328000Y-81351428D01*
X147328000Y-81113333D01*
X147375619Y-80922857D01*
X147423238Y-80827619D01*
X147470857Y-80780000D01*
X147566095Y-80732380D01*
%TO.C,RF_L1*%
X174681047Y-99512380D02*
X174347714Y-99036190D01*
X174109619Y-99512380D02*
X174109619Y-98512380D01*
X174490571Y-98512380D01*
X174585809Y-98560000D01*
X174633428Y-98607619D01*
X174681047Y-98702857D01*
X174681047Y-98845714D01*
X174633428Y-98940952D01*
X174585809Y-98988571D01*
X174490571Y-99036190D01*
X174109619Y-99036190D01*
X175442952Y-98988571D02*
X175109619Y-98988571D01*
X175109619Y-99512380D02*
X175109619Y-98512380D01*
X175585809Y-98512380D01*
X175728666Y-99607619D02*
X176490571Y-99607619D01*
X177204857Y-99512380D02*
X176728666Y-99512380D01*
X176728666Y-98512380D01*
X178062000Y-99512380D02*
X177490571Y-99512380D01*
X177776285Y-99512380D02*
X177776285Y-98512380D01*
X177681047Y-98655238D01*
X177585809Y-98750476D01*
X177490571Y-98798095D01*
%TO.C,RF_C3*%
X135874380Y-108410190D02*
X135398190Y-108743523D01*
X135874380Y-108981619D02*
X134874380Y-108981619D01*
X134874380Y-108600666D01*
X134922000Y-108505428D01*
X134969619Y-108457809D01*
X135064857Y-108410190D01*
X135207714Y-108410190D01*
X135302952Y-108457809D01*
X135350571Y-108505428D01*
X135398190Y-108600666D01*
X135398190Y-108981619D01*
X135350571Y-107648285D02*
X135350571Y-107981619D01*
X135874380Y-107981619D02*
X134874380Y-107981619D01*
X134874380Y-107505428D01*
X135969619Y-107362571D02*
X135969619Y-106600666D01*
X135779142Y-105791142D02*
X135826761Y-105838761D01*
X135874380Y-105981619D01*
X135874380Y-106076857D01*
X135826761Y-106219714D01*
X135731523Y-106314952D01*
X135636285Y-106362571D01*
X135445809Y-106410190D01*
X135302952Y-106410190D01*
X135112476Y-106362571D01*
X135017238Y-106314952D01*
X134922000Y-106219714D01*
X134874380Y-106076857D01*
X134874380Y-105981619D01*
X134922000Y-105838761D01*
X134969619Y-105791142D01*
X134874380Y-105457809D02*
X134874380Y-104838761D01*
X135255333Y-105172095D01*
X135255333Y-105029238D01*
X135302952Y-104934000D01*
X135350571Y-104886380D01*
X135445809Y-104838761D01*
X135683904Y-104838761D01*
X135779142Y-104886380D01*
X135826761Y-104934000D01*
X135874380Y-105029238D01*
X135874380Y-105314952D01*
X135826761Y-105410190D01*
X135779142Y-105457809D01*
%TO.C,RF_R12*%
X147304380Y-89074380D02*
X146828190Y-89407714D01*
X147304380Y-89645809D02*
X146304380Y-89645809D01*
X146304380Y-89264857D01*
X146352000Y-89169619D01*
X146399619Y-89122000D01*
X146494857Y-89074380D01*
X146637714Y-89074380D01*
X146732952Y-89122000D01*
X146780571Y-89169619D01*
X146828190Y-89264857D01*
X146828190Y-89645809D01*
X146780571Y-88312476D02*
X146780571Y-88645809D01*
X147304380Y-88645809D02*
X146304380Y-88645809D01*
X146304380Y-88169619D01*
X147399619Y-88026761D02*
X147399619Y-87264857D01*
X147304380Y-86455333D02*
X146828190Y-86788666D01*
X147304380Y-87026761D02*
X146304380Y-87026761D01*
X146304380Y-86645809D01*
X146352000Y-86550571D01*
X146399619Y-86502952D01*
X146494857Y-86455333D01*
X146637714Y-86455333D01*
X146732952Y-86502952D01*
X146780571Y-86550571D01*
X146828190Y-86645809D01*
X146828190Y-87026761D01*
X147304380Y-85502952D02*
X147304380Y-86074380D01*
X147304380Y-85788666D02*
X146304380Y-85788666D01*
X146447238Y-85883904D01*
X146542476Y-85979142D01*
X146590095Y-86074380D01*
X146399619Y-85122000D02*
X146352000Y-85074380D01*
X146304380Y-84979142D01*
X146304380Y-84741047D01*
X146352000Y-84645809D01*
X146399619Y-84598190D01*
X146494857Y-84550571D01*
X146590095Y-84550571D01*
X146732952Y-84598190D01*
X147304380Y-85169619D01*
X147304380Y-84550571D01*
%TO.C,RF_L2*%
X161981047Y-96718380D02*
X161647714Y-96242190D01*
X161409619Y-96718380D02*
X161409619Y-95718380D01*
X161790571Y-95718380D01*
X161885809Y-95766000D01*
X161933428Y-95813619D01*
X161981047Y-95908857D01*
X161981047Y-96051714D01*
X161933428Y-96146952D01*
X161885809Y-96194571D01*
X161790571Y-96242190D01*
X161409619Y-96242190D01*
X162742952Y-96194571D02*
X162409619Y-96194571D01*
X162409619Y-96718380D02*
X162409619Y-95718380D01*
X162885809Y-95718380D01*
X163028666Y-96813619D02*
X163790571Y-96813619D01*
X164504857Y-96718380D02*
X164028666Y-96718380D01*
X164028666Y-95718380D01*
X164790571Y-95813619D02*
X164838190Y-95766000D01*
X164933428Y-95718380D01*
X165171523Y-95718380D01*
X165266761Y-95766000D01*
X165314380Y-95813619D01*
X165362000Y-95908857D01*
X165362000Y-96004095D01*
X165314380Y-96146952D01*
X164742952Y-96718380D01*
X165362000Y-96718380D01*
D13*
%TO.C,RF_C10*%
X170882000Y-106236000D02*
X173622000Y-106236000D01*
X170882000Y-98996000D02*
X173622000Y-98996000D01*
X173622000Y-106236000D02*
X173622000Y-98996000D01*
X170882000Y-106236000D02*
X170882000Y-98996000D01*
%TO.C,RF_JP1*%
X126886000Y-94456000D02*
X126886000Y-87916000D01*
X126886000Y-87916000D02*
X124146000Y-87916000D01*
X124146000Y-87916000D02*
X124146000Y-94456000D01*
X124146000Y-94456000D02*
X126886000Y-94456000D01*
X125516000Y-84606000D02*
X125516000Y-87916000D01*
X125516000Y-97766000D02*
X125516000Y-94456000D01*
%TO.C,RF_C6*%
X158436000Y-118428000D02*
X158436000Y-111188000D01*
X158436000Y-111188000D02*
X161176000Y-111188000D01*
X161176000Y-118428000D02*
X161176000Y-111188000D01*
X158436000Y-118428000D02*
X161176000Y-118428000D01*
%TO.C,RF_C5*%
X134850000Y-93318000D02*
X142090000Y-93318000D01*
X142090000Y-90578000D02*
X142090000Y-93318000D01*
X134850000Y-90578000D02*
X134850000Y-93318000D01*
X134850000Y-90578000D02*
X142090000Y-90578000D01*
%TO.C,RF_R11*%
X136470000Y-86384000D02*
X136470000Y-86714000D01*
X136470000Y-84304000D02*
X136470000Y-83974000D01*
X136470000Y-83974000D02*
X143010000Y-83974000D01*
X143010000Y-83974000D02*
X143010000Y-84304000D01*
X143010000Y-86714000D02*
X143010000Y-86384000D01*
X136470000Y-86714000D02*
X143010000Y-86714000D01*
%TO.C,RF_C12*%
X152376000Y-109828000D02*
X152376000Y-107088000D01*
X159616000Y-107088000D02*
X152376000Y-107088000D01*
X159616000Y-109828000D02*
X159616000Y-107088000D01*
X159616000Y-109828000D02*
X152376000Y-109828000D01*
%TO.C,RF_R6*%
X163648000Y-111914000D02*
X170188000Y-111914000D01*
X163648000Y-114324000D02*
X163648000Y-114654000D01*
X163648000Y-112244000D02*
X163648000Y-111914000D01*
X163648000Y-114654000D02*
X170188000Y-114654000D01*
X170188000Y-114654000D02*
X170188000Y-114324000D01*
X170188000Y-111914000D02*
X170188000Y-112244000D01*
%TO.C,RF_C2*%
X127956000Y-90106000D02*
X127956000Y-97346000D01*
X130696000Y-97346000D02*
X127956000Y-97346000D01*
X130696000Y-90106000D02*
X130696000Y-97346000D01*
X130696000Y-90106000D02*
X127956000Y-90106000D01*
%TO.C,RF_C13*%
X124390328Y-114889000D02*
X124390328Y-117775000D01*
X123590328Y-117372000D02*
X123590328Y-118532000D01*
X122389328Y-113756000D02*
X122389328Y-115292000D01*
X123710328Y-117372000D02*
X123710328Y-118454000D01*
X124670328Y-115417000D02*
X124670328Y-117247000D01*
X122589328Y-113776000D02*
X122589328Y-115292000D01*
X124190328Y-117372000D02*
X124190328Y-118031000D01*
X122749328Y-113804000D02*
X122749328Y-115292000D01*
X122469328Y-117372000D02*
X122469328Y-118901000D01*
X123630328Y-117372000D02*
X123630328Y-118507000D01*
X123110328Y-113904000D02*
X123110328Y-115292000D01*
X122669328Y-113789000D02*
X122669328Y-115292000D01*
X123470328Y-117372000D02*
X123470328Y-118600000D01*
X123110328Y-117372000D02*
X123110328Y-118760000D01*
X122229328Y-117372000D02*
X122229328Y-118912000D01*
X123310328Y-117372000D02*
X123310328Y-118680000D01*
X123910328Y-114361000D02*
X123910328Y-115292000D01*
X124590328Y-115234000D02*
X124590328Y-117430000D01*
X122909328Y-117372000D02*
X122909328Y-118823000D01*
X124070328Y-117372000D02*
X124070328Y-118158000D01*
X124790328Y-115814000D02*
X124790328Y-116850000D01*
X123030328Y-117372000D02*
X123030328Y-118787000D01*
X124510328Y-115081000D02*
X124510328Y-117583000D01*
X119424553Y-114857000D02*
X119924553Y-114857000D01*
X123190328Y-117372000D02*
X123190328Y-118730000D01*
X122349328Y-113754000D02*
X122349328Y-115292000D01*
X123270328Y-113967000D02*
X123270328Y-115292000D01*
X123710328Y-114210000D02*
X123710328Y-115292000D01*
X123990328Y-114431000D02*
X123990328Y-115292000D01*
X123150328Y-113918000D02*
X123150328Y-115292000D01*
X122829328Y-117372000D02*
X122829328Y-118843000D01*
X122869328Y-117372000D02*
X122869328Y-118833000D01*
X122309328Y-117372000D02*
X122309328Y-118911000D01*
X124430328Y-114949000D02*
X124430328Y-117715000D01*
X123670328Y-117372000D02*
X123670328Y-118481000D01*
X122709328Y-117372000D02*
X122709328Y-118868000D01*
X123630328Y-114157000D02*
X123630328Y-115292000D01*
X123350328Y-117372000D02*
X123350328Y-118661000D01*
X123430328Y-114042000D02*
X123430328Y-115292000D01*
X123750328Y-117372000D02*
X123750328Y-118427000D01*
X122869328Y-113831000D02*
X122869328Y-115292000D01*
X124830328Y-116048000D02*
X124830328Y-116616000D01*
X124750328Y-115655000D02*
X124750328Y-117009000D01*
X123510328Y-114085000D02*
X123510328Y-115292000D01*
X123590328Y-114132000D02*
X123590328Y-115292000D01*
X123230328Y-113950000D02*
X123230328Y-115292000D01*
X122269328Y-113752000D02*
X122269328Y-115292000D01*
X122709328Y-113796000D02*
X122709328Y-115292000D01*
X123990328Y-117372000D02*
X123990328Y-118233000D01*
X123510328Y-117372000D02*
X123510328Y-118579000D01*
X122509328Y-113767000D02*
X122509328Y-115292000D01*
X122229328Y-113752000D02*
X122229328Y-115292000D01*
X123910328Y-117372000D02*
X123910328Y-118303000D01*
X124150328Y-117372000D02*
X124150328Y-118075000D01*
X124470328Y-115013000D02*
X124470328Y-117651000D01*
X122549328Y-113771000D02*
X122549328Y-115292000D01*
X122789328Y-117372000D02*
X122789328Y-118852000D01*
X123230328Y-117372000D02*
X123230328Y-118714000D01*
X119674553Y-114607000D02*
X119674553Y-115107000D01*
X124110328Y-117372000D02*
X124110328Y-118117000D01*
X122909328Y-113841000D02*
X122909328Y-115292000D01*
X123550328Y-117372000D02*
X123550328Y-118556000D01*
X124070328Y-114506000D02*
X124070328Y-115292000D01*
X122950328Y-117372000D02*
X122950328Y-118812000D01*
X122629328Y-113782000D02*
X122629328Y-115292000D01*
X124230328Y-117372000D02*
X124230328Y-117985000D01*
X123150328Y-117372000D02*
X123150328Y-118746000D01*
X122429328Y-117372000D02*
X122429328Y-118905000D01*
X123470328Y-114064000D02*
X123470328Y-115292000D01*
X122509328Y-117372000D02*
X122509328Y-118897000D01*
X124310328Y-114778000D02*
X124310328Y-117886000D01*
X123870328Y-114328000D02*
X123870328Y-115292000D01*
X122269328Y-117372000D02*
X122269328Y-118912000D01*
X124550328Y-115154000D02*
X124550328Y-117510000D01*
X123390328Y-114022000D02*
X123390328Y-115292000D01*
X123790328Y-114267000D02*
X123790328Y-115292000D01*
X123950328Y-114395000D02*
X123950328Y-115292000D01*
X123030328Y-113877000D02*
X123030328Y-115292000D01*
X124230328Y-114679000D02*
X124230328Y-115292000D01*
X123190328Y-113934000D02*
X123190328Y-115292000D01*
X122349328Y-117372000D02*
X122349328Y-118910000D01*
X122990328Y-113864000D02*
X122990328Y-115292000D01*
X123270328Y-117372000D02*
X123270328Y-118697000D01*
X122469328Y-113763000D02*
X122469328Y-115292000D01*
X124030328Y-117372000D02*
X124030328Y-118196000D01*
X124350328Y-114832000D02*
X124350328Y-117832000D01*
X122990328Y-117372000D02*
X122990328Y-118800000D01*
X123870328Y-117372000D02*
X123870328Y-118336000D01*
X123310328Y-113984000D02*
X123310328Y-115292000D01*
X123830328Y-114297000D02*
X123830328Y-115292000D01*
X122669328Y-117372000D02*
X122669328Y-118875000D01*
X123350328Y-114003000D02*
X123350328Y-115292000D01*
X122950328Y-113852000D02*
X122950328Y-115292000D01*
X124110328Y-114547000D02*
X124110328Y-115292000D01*
X122749328Y-117372000D02*
X122749328Y-118860000D01*
X123070328Y-113890000D02*
X123070328Y-115292000D01*
X124630328Y-115321000D02*
X124630328Y-117343000D01*
X122829328Y-113821000D02*
X122829328Y-115292000D01*
X122789328Y-113812000D02*
X122789328Y-115292000D01*
X122429328Y-113759000D02*
X122429328Y-115292000D01*
X124710328Y-115527000D02*
X124710328Y-117137000D01*
X122629328Y-117372000D02*
X122629328Y-118882000D01*
X124030328Y-114468000D02*
X124030328Y-115292000D01*
X124190328Y-114633000D02*
X124190328Y-115292000D01*
X122589328Y-117372000D02*
X122589328Y-118888000D01*
X124150328Y-114589000D02*
X124150328Y-115292000D01*
X123390328Y-117372000D02*
X123390328Y-118642000D01*
X123430328Y-117372000D02*
X123430328Y-118622000D01*
X123950328Y-117372000D02*
X123950328Y-118269000D01*
X123070328Y-117372000D02*
X123070328Y-118774000D01*
X123790328Y-117372000D02*
X123790328Y-118397000D01*
X124270328Y-114727000D02*
X124270328Y-117937000D01*
X122549328Y-117372000D02*
X122549328Y-118893000D01*
X123750328Y-114237000D02*
X123750328Y-115292000D01*
X122389328Y-117372000D02*
X122389328Y-118908000D01*
X123830328Y-117372000D02*
X123830328Y-118367000D01*
X123670328Y-114183000D02*
X123670328Y-115292000D01*
X122309328Y-113753000D02*
X122309328Y-115292000D01*
X123550328Y-114108000D02*
X123550328Y-115292000D01*
X124849328Y-116332000D02*
G75*
G03*
X124849328Y-116332000I-2620000J0D01*
G01*
%TO.C,RF_R3*%
X130628000Y-114962000D02*
X137168000Y-114962000D01*
X130628000Y-117372000D02*
X130628000Y-117702000D01*
X130628000Y-117702000D02*
X137168000Y-117702000D01*
X137168000Y-117702000D02*
X137168000Y-117372000D01*
X130628000Y-115292000D02*
X130628000Y-114962000D01*
X137168000Y-114962000D02*
X137168000Y-115292000D01*
%TO.C,RF_L3*%
X155016000Y-118349652D02*
G75*
G03*
X155016000Y-111266348I-1560000J3541652D01*
G01*
X151896000Y-111266348D02*
G75*
G03*
X151896000Y-118349652I1560000J-3541652D01*
G01*
%TO.C,RF_C11*%
X168632000Y-86768000D02*
X168632000Y-89508000D01*
X168632000Y-89508000D02*
X175872000Y-89508000D01*
X168632000Y-86768000D02*
X175872000Y-86768000D01*
X175872000Y-86768000D02*
X175872000Y-89508000D01*
%TO.C,RF_D1*%
X125262000Y-110466000D02*
X125262000Y-108546000D01*
X124142000Y-107706000D02*
X126382000Y-107706000D01*
X124142000Y-108546000D02*
X126382000Y-108546000D01*
X125262000Y-102386000D02*
X125262000Y-104306000D01*
X124142000Y-104306000D02*
X124142000Y-108546000D01*
X126382000Y-108546000D02*
X126382000Y-104306000D01*
X124142000Y-107826000D02*
X126382000Y-107826000D01*
X126382000Y-104306000D02*
X124142000Y-104306000D01*
X124142000Y-107946000D02*
X126382000Y-107946000D01*
%TO.C,RF_D2*%
X132628000Y-87146000D02*
X132628000Y-89066000D01*
X133748000Y-89666000D02*
X131508000Y-89666000D01*
X131508000Y-93306000D02*
X133748000Y-93306000D01*
X132628000Y-95226000D02*
X132628000Y-93306000D01*
X133748000Y-89786000D02*
X131508000Y-89786000D01*
X133748000Y-93306000D02*
X133748000Y-89066000D01*
X133748000Y-89906000D02*
X131508000Y-89906000D01*
X131508000Y-89066000D02*
X131508000Y-93306000D01*
X133748000Y-89066000D02*
X131508000Y-89066000D01*
%TO.C,RF_C1*%
X131966000Y-80622000D02*
X131966000Y-73382000D01*
X129226000Y-80622000D02*
X129226000Y-73382000D01*
X129226000Y-80622000D02*
X131966000Y-80622000D01*
X129226000Y-73382000D02*
X131966000Y-73382000D01*
%TO.C,S5*%
G36*
X111292000Y-77825600D02*
G01*
X111296689Y-77745167D01*
X111562118Y-77745167D01*
X111584736Y-77857467D01*
X111734524Y-77893078D01*
X111757666Y-77893334D01*
X111921871Y-77864078D01*
X111955780Y-77760502D01*
X111953215Y-77745167D01*
X111857341Y-77623250D01*
X111757666Y-77597000D01*
X111607871Y-77661225D01*
X111562118Y-77745167D01*
X111296689Y-77745167D01*
X111308601Y-77540815D01*
X111351451Y-77319601D01*
X111393599Y-77232934D01*
X111586036Y-77142951D01*
X111819015Y-77152933D01*
X111983283Y-77244050D01*
X112076819Y-77300606D01*
X112206639Y-77266050D01*
X112379436Y-77159384D01*
X112615834Y-77012692D01*
X112749425Y-76975526D01*
X112806852Y-77048246D01*
X112816000Y-77165304D01*
X112749915Y-77356492D01*
X112537529Y-77532754D01*
X112519666Y-77543449D01*
X112333061Y-77673209D01*
X112230280Y-77782890D01*
X112223333Y-77805812D01*
X112297752Y-77863658D01*
X112480746Y-77892577D01*
X112519666Y-77893334D01*
X112720064Y-77909148D01*
X112802104Y-77980313D01*
X112816000Y-78105000D01*
X112809932Y-78205200D01*
X112770006Y-78267413D01*
X112663636Y-78300693D01*
X112458237Y-78314091D01*
X112121223Y-78316657D01*
X112054000Y-78316667D01*
X111292000Y-78316667D01*
X111292000Y-77825600D01*
G37*
G36*
X112760236Y-75728741D02*
G01*
X112799829Y-75860023D01*
X112815070Y-76117435D01*
X112816000Y-76242334D01*
X112816000Y-76792667D01*
X111292000Y-76792667D01*
X111292000Y-76242334D01*
X111300478Y-75933644D01*
X111330774Y-75762072D01*
X111390177Y-75696030D01*
X111419000Y-75692000D01*
X111507306Y-75747924D01*
X111543695Y-75933303D01*
X111546000Y-76030667D01*
X111560200Y-76252235D01*
X111617594Y-76350160D01*
X111715333Y-76369334D01*
X111832041Y-76336186D01*
X111879131Y-76206778D01*
X111884666Y-76073000D01*
X111912206Y-75853827D01*
X112000100Y-75777203D01*
X112011666Y-75776667D01*
X112105598Y-75840927D01*
X112138437Y-76046012D01*
X112138666Y-76073000D01*
X112154480Y-76273399D01*
X112225646Y-76355438D01*
X112350333Y-76369334D01*
X112486706Y-76350849D01*
X112547319Y-76263659D01*
X112561924Y-76060160D01*
X112562000Y-76030667D01*
X112582971Y-75795182D01*
X112652488Y-75698147D01*
X112689000Y-75692000D01*
X112760236Y-75728741D01*
G37*
G36*
X111985561Y-74263614D02*
G01*
X112355631Y-74399186D01*
X112595476Y-74494425D01*
X112733271Y-74568865D01*
X112797189Y-74642037D01*
X112815405Y-74733475D01*
X112816000Y-74839352D01*
X112803302Y-74962758D01*
X112743432Y-75055060D01*
X112603724Y-75140016D01*
X112351513Y-75241382D01*
X112176580Y-75304375D01*
X111859246Y-75417453D01*
X111595031Y-75512370D01*
X111431968Y-75571851D01*
X111414580Y-75578412D01*
X111320052Y-75563404D01*
X111292000Y-75409274D01*
X111312236Y-75283946D01*
X111396520Y-75187613D01*
X111580213Y-75092827D01*
X111817230Y-75001588D01*
X112342461Y-74810079D01*
X111817230Y-74642071D01*
X111531922Y-74543857D01*
X111373645Y-74461626D01*
X111305860Y-74367563D01*
X111292000Y-74242279D01*
X111292000Y-74010496D01*
X111985561Y-74263614D01*
G37*
G36*
X112644884Y-79372494D02*
G01*
X112675877Y-79402834D01*
X112757326Y-79570154D01*
X112807008Y-79814812D01*
X112818277Y-80066163D01*
X112784486Y-80253560D01*
X112759555Y-80292223D01*
X112632002Y-80344359D01*
X112581043Y-80348667D01*
X112498046Y-80296516D01*
X112510412Y-80143728D01*
X112527574Y-79885883D01*
X112442346Y-79718064D01*
X112308000Y-79671334D01*
X112150367Y-79741320D01*
X112083381Y-79928744D01*
X112105587Y-80143728D01*
X112124988Y-80263971D01*
X112079365Y-80324682D01*
X111931013Y-80346138D01*
X111724511Y-80348667D01*
X111292000Y-80348667D01*
X111292000Y-79840667D01*
X111301753Y-79545695D01*
X111336328Y-79387325D01*
X111403697Y-79333669D01*
X111419000Y-79332667D01*
X111507306Y-79388590D01*
X111543695Y-79573970D01*
X111546000Y-79671334D01*
X111566971Y-79906819D01*
X111636488Y-80003854D01*
X111673000Y-80010000D01*
X111774001Y-79934568D01*
X111799999Y-79762048D01*
X111844045Y-79534095D01*
X111933047Y-79381048D01*
X112152010Y-79267854D01*
X112416128Y-79265789D01*
X112644884Y-79372494D01*
G37*
G36*
X112644884Y-83436494D02*
G01*
X112675877Y-83466834D01*
X112757326Y-83634154D01*
X112807008Y-83878812D01*
X112818277Y-84130163D01*
X112784486Y-84317560D01*
X112759555Y-84356223D01*
X112632002Y-84408359D01*
X112581043Y-84412667D01*
X112498046Y-84360516D01*
X112510412Y-84207728D01*
X112527574Y-83949883D01*
X112442346Y-83782064D01*
X112308000Y-83735334D01*
X112150367Y-83805320D01*
X112083381Y-83992744D01*
X112105587Y-84207728D01*
X112124988Y-84327971D01*
X112079365Y-84388682D01*
X111931013Y-84410138D01*
X111724511Y-84412667D01*
X111292000Y-84412667D01*
X111292000Y-83904667D01*
X111301753Y-83609695D01*
X111336328Y-83451325D01*
X111403697Y-83397669D01*
X111419000Y-83396667D01*
X111507306Y-83452590D01*
X111543695Y-83637970D01*
X111546000Y-83735334D01*
X111566971Y-83970819D01*
X111636488Y-84067854D01*
X111673000Y-84074000D01*
X111774001Y-83998568D01*
X111799999Y-83826048D01*
X111844045Y-83598095D01*
X111933047Y-83445048D01*
X112152010Y-83331854D01*
X112416128Y-83329789D01*
X112644884Y-83436494D01*
G37*
G36*
X111520767Y-81988505D02*
G01*
X111755092Y-82071439D01*
X112056880Y-82190263D01*
X112158688Y-82232500D01*
X112481906Y-82373639D01*
X112677769Y-82479327D01*
X112777463Y-82573605D01*
X112812171Y-82680513D01*
X112814894Y-82738363D01*
X112816000Y-82969059D01*
X112181000Y-82679680D01*
X111545999Y-82390301D01*
X111545999Y-82766484D01*
X111528963Y-83015855D01*
X111471177Y-83128370D01*
X111419000Y-83142667D01*
X111349998Y-83107813D01*
X111310507Y-82982487D01*
X111293851Y-82735546D01*
X111292000Y-82550000D01*
X111303295Y-82205708D01*
X111339070Y-82013503D01*
X111397794Y-81957334D01*
X111520767Y-81988505D01*
G37*
G36*
X112760236Y-72172741D02*
G01*
X112799829Y-72304023D01*
X112815070Y-72561435D01*
X112816000Y-72686334D01*
X112816000Y-73236667D01*
X111292000Y-73236667D01*
X111292000Y-72686334D01*
X111300478Y-72377644D01*
X111330774Y-72206072D01*
X111390177Y-72140030D01*
X111419000Y-72136000D01*
X111507306Y-72191924D01*
X111543695Y-72377303D01*
X111546000Y-72474667D01*
X111560200Y-72696235D01*
X111617594Y-72794160D01*
X111715333Y-72813334D01*
X111832041Y-72780186D01*
X111879131Y-72650778D01*
X111884666Y-72517000D01*
X111912206Y-72297827D01*
X112000100Y-72221203D01*
X112011666Y-72220667D01*
X112105598Y-72284927D01*
X112138437Y-72490012D01*
X112138666Y-72517000D01*
X112154480Y-72717399D01*
X112225646Y-72799438D01*
X112350333Y-72813334D01*
X112486706Y-72794849D01*
X112547319Y-72707659D01*
X112561924Y-72504160D01*
X112562000Y-72474667D01*
X112582971Y-72239182D01*
X112652488Y-72142147D01*
X112689000Y-72136000D01*
X112760236Y-72172741D01*
G37*
G36*
X111520767Y-84697839D02*
G01*
X111755092Y-84780773D01*
X112056880Y-84899597D01*
X112158688Y-84941834D01*
X112481906Y-85082972D01*
X112677769Y-85188660D01*
X112777463Y-85282938D01*
X112812171Y-85389847D01*
X112814894Y-85447696D01*
X112816000Y-85678392D01*
X112181000Y-85389013D01*
X111545999Y-85099634D01*
X111545999Y-85475817D01*
X111528963Y-85725189D01*
X111471177Y-85837703D01*
X111419000Y-85852000D01*
X111349998Y-85817146D01*
X111310507Y-85691820D01*
X111293851Y-85444880D01*
X111292000Y-85259334D01*
X111303295Y-84915041D01*
X111339070Y-84722836D01*
X111397794Y-84666667D01*
X111520767Y-84697839D01*
G37*
G36*
X111972866Y-81635361D02*
G01*
X111751626Y-81512834D01*
X111490108Y-81340382D01*
X111349786Y-81201697D01*
X111318395Y-81116301D01*
X111757666Y-81116301D01*
X111957546Y-81282817D01*
X112158189Y-81422130D01*
X112270742Y-81425263D01*
X112307891Y-81292112D01*
X112308000Y-81280000D01*
X112272551Y-81160463D01*
X112136287Y-81116149D01*
X112032833Y-81113484D01*
X111757666Y-81116301D01*
X111318395Y-81116301D01*
X111297797Y-81060264D01*
X111294401Y-81004834D01*
X111301395Y-80875930D01*
X111352237Y-80806347D01*
X111486618Y-80777808D01*
X111744231Y-80772033D01*
X111800000Y-80772000D01*
X112094972Y-80762247D01*
X112253341Y-80727672D01*
X112306998Y-80660303D01*
X112308000Y-80645000D01*
X112375772Y-80532752D01*
X112435000Y-80518000D01*
X112547248Y-80585773D01*
X112562000Y-80645000D01*
X112629772Y-80757249D01*
X112689000Y-80772000D01*
X112792428Y-80842587D01*
X112816000Y-80941334D01*
X112763060Y-81079238D01*
X112689000Y-81110667D01*
X112600693Y-81166590D01*
X112564304Y-81351970D01*
X112562000Y-81449334D01*
X112548487Y-81669860D01*
X112492053Y-81767554D01*
X112384224Y-81788000D01*
X112270742Y-81758755D01*
X112219459Y-81745539D01*
X111972866Y-81635361D01*
G37*
%TO.C,RF_R2*%
X128540000Y-101886000D02*
X128210000Y-101886000D01*
X130950000Y-101886000D02*
X130950000Y-108426000D01*
X130950000Y-108426000D02*
X130620000Y-108426000D01*
X128210000Y-108426000D02*
X128540000Y-108426000D01*
X130620000Y-101886000D02*
X130950000Y-101886000D01*
X128210000Y-101886000D02*
X128210000Y-108426000D01*
%TO.C,RF_U1*%
X136378000Y-103342000D02*
X159358000Y-103342000D01*
X159358000Y-98842000D02*
X136378000Y-98842000D01*
X159358000Y-103342000D02*
X159358000Y-98842000D01*
X136378000Y-102092000D02*
X136378000Y-103342000D01*
X136378000Y-98842000D02*
X136378000Y-100092000D01*
X136378000Y-102092000D02*
G75*
G03*
X136378000Y-100092000I0J1000000D01*
G01*
%TO.C,RF_C7*%
X146788000Y-90578000D02*
X154028000Y-90578000D01*
X146788000Y-93318000D02*
X154028000Y-93318000D01*
X154028000Y-90578000D02*
X154028000Y-93318000D01*
X146788000Y-90578000D02*
X146788000Y-93318000D01*
%TO.C,RF_VL1*%
X127040000Y-71628000D02*
X116880000Y-71628000D01*
X127040000Y-81788000D02*
X127040000Y-78486000D01*
X116880000Y-78486000D02*
X116880000Y-81788000D01*
X116880000Y-81788000D02*
X127040000Y-81788000D01*
X127040000Y-74930000D02*
X127040000Y-71628000D01*
X116880000Y-71628000D02*
X116880000Y-74930000D01*
%TO.C,RF_C4*%
X138280000Y-111406000D02*
X131040000Y-111406000D01*
X131040000Y-114146000D02*
X131040000Y-111406000D01*
X138280000Y-114146000D02*
X138280000Y-111406000D01*
X138280000Y-114146000D02*
X131040000Y-114146000D01*
%TO.C,RF_R5*%
X170112000Y-115724000D02*
X163572000Y-115724000D01*
X170112000Y-116054000D02*
X170112000Y-115724000D01*
X163572000Y-115724000D02*
X163572000Y-116054000D01*
X170112000Y-118134000D02*
X170112000Y-118464000D01*
X163572000Y-118464000D02*
X163572000Y-118134000D01*
X170112000Y-118464000D02*
X163572000Y-118464000D01*
%TO.C,J4B1*%
X121512000Y-91186000D02*
X121512000Y-109026000D01*
X121512000Y-88586000D02*
X121512000Y-89916000D01*
X118852000Y-109026000D02*
X121512000Y-109026000D01*
X118852000Y-91186000D02*
X121512000Y-91186000D01*
X118852000Y-91186000D02*
X118852000Y-109026000D01*
X120182000Y-88586000D02*
X121512000Y-88586000D01*
%TO.C,RF_R7*%
X163132000Y-93948000D02*
X163462000Y-93948000D01*
X163462000Y-87408000D02*
X163132000Y-87408000D01*
X160722000Y-93948000D02*
X160722000Y-87408000D01*
X163462000Y-93948000D02*
X163462000Y-87408000D01*
X160722000Y-87408000D02*
X161052000Y-87408000D01*
X161052000Y-93948000D02*
X160722000Y-93948000D01*
%TO.C,RF_R8*%
X158128000Y-87408000D02*
X157798000Y-87408000D01*
X157798000Y-93948000D02*
X158128000Y-93948000D01*
X158128000Y-93948000D02*
X158128000Y-87408000D01*
X155718000Y-93948000D02*
X155388000Y-93948000D01*
X155388000Y-87408000D02*
X155718000Y-87408000D01*
X155388000Y-93948000D02*
X155388000Y-87408000D01*
D14*
%TO.C,RF_J1*%
X173490000Y-74928500D02*
X169490000Y-74928500D01*
X168990000Y-84928500D02*
X166490000Y-84928500D01*
X173990000Y-84928500D02*
X176490000Y-84928500D01*
X166490000Y-84928500D02*
X166490000Y-77428500D01*
X176490000Y-84928500D02*
X176490000Y-77428500D01*
D15*
X177090000Y-78828500D02*
X177090000Y-78828500D01*
X177290000Y-78828500D02*
X177290000Y-78828500D01*
X177290000Y-78828500D02*
G75*
G03*
X177090000Y-78828500I-100000J0D01*
G01*
X177090000Y-78828500D02*
G75*
G03*
X177290000Y-78828500I100000J0D01*
G01*
D13*
%TO.C,RF_C8*%
X161862000Y-80164000D02*
X161862000Y-82904000D01*
X154622000Y-82904000D02*
X161862000Y-82904000D01*
X154622000Y-80164000D02*
X161862000Y-80164000D01*
X154622000Y-80164000D02*
X154622000Y-82904000D01*
%TO.C,RF_C9*%
X164024000Y-94806000D02*
X164024000Y-87566000D01*
X164024000Y-94806000D02*
X166764000Y-94806000D01*
X166764000Y-94806000D02*
X166764000Y-87566000D01*
X164024000Y-87566000D02*
X166764000Y-87566000D01*
%TO.C,RF_R4*%
X139386000Y-116046000D02*
X139386000Y-109506000D01*
X141796000Y-116046000D02*
X142126000Y-116046000D01*
X142126000Y-116046000D02*
X142126000Y-109506000D01*
X139716000Y-116046000D02*
X139386000Y-116046000D01*
X139386000Y-109506000D02*
X139716000Y-109506000D01*
X142126000Y-109506000D02*
X141796000Y-109506000D01*
%TO.C,RF_R1*%
X115078000Y-95218000D02*
X114748000Y-95218000D01*
X114748000Y-95218000D02*
X114748000Y-88678000D01*
X114748000Y-88678000D02*
X115078000Y-88678000D01*
X117158000Y-95218000D02*
X117488000Y-95218000D01*
X117488000Y-88678000D02*
X117158000Y-88678000D01*
X117488000Y-95218000D02*
X117488000Y-88678000D01*
%TO.C,RF_R9*%
X154318000Y-82074000D02*
X154318000Y-88614000D01*
X154318000Y-88614000D02*
X153988000Y-88614000D01*
X153988000Y-82074000D02*
X154318000Y-82074000D01*
X151908000Y-82074000D02*
X151578000Y-82074000D01*
X151578000Y-88614000D02*
X151908000Y-88614000D01*
X151578000Y-82074000D02*
X151578000Y-88614000D01*
D11*
%TO.C,RF_SW1*%
X141074000Y-72884000D02*
X138774000Y-72884000D01*
X147374000Y-72884000D02*
X145174000Y-72884000D01*
X147374000Y-77484000D02*
X138774000Y-77484000D01*
D13*
%TO.C,RF_R10*%
X140724000Y-83158000D02*
X134184000Y-83158000D01*
X134184000Y-80418000D02*
X134184000Y-80748000D01*
X140724000Y-80418000D02*
X134184000Y-80418000D01*
X134184000Y-83158000D02*
X134184000Y-82828000D01*
X140724000Y-82828000D02*
X140724000Y-83158000D01*
X140724000Y-80748000D02*
X140724000Y-80418000D01*
%TO.C,RF_L1*%
X174066000Y-97775652D02*
G75*
G03*
X174066000Y-90692348I-1560000J3541652D01*
G01*
X170946000Y-90692348D02*
G75*
G03*
X170946000Y-97775652I1560000J-3541652D01*
G01*
%TO.C,RF_C3*%
X134506000Y-110808000D02*
X131766000Y-110808000D01*
X134506000Y-103568000D02*
X134506000Y-110808000D01*
X134506000Y-103568000D02*
X131766000Y-103568000D01*
X131766000Y-103568000D02*
X131766000Y-110808000D01*
%TO.C,RF_R12*%
X137994000Y-90016000D02*
X137994000Y-89686000D01*
X144534000Y-87276000D02*
X137994000Y-87276000D01*
X144534000Y-87606000D02*
X144534000Y-87276000D01*
X144534000Y-90016000D02*
X137994000Y-90016000D01*
X137994000Y-87276000D02*
X137994000Y-87606000D01*
X144534000Y-89686000D02*
X144534000Y-90016000D01*
%TO.C,RF_L2*%
X169189652Y-99786000D02*
G75*
G03*
X162106348Y-99786000I-3541652J-1560000D01*
G01*
X162106348Y-102906000D02*
G75*
G03*
X169189652Y-102906000I3541652J1560000D01*
G01*
%TD*%
M02*
