M48
; DRILL file {KiCad 6.0.11-2627ca5db0~126~ubuntu22.04.1} date Mon 10 Apr 2023 10:07:44 PM EDT
; FORMAT={-:-/ absolute / metric / decimal}
; #@! TF.CreationDate,2023-04-10T22:07:44-04:00
; #@! TF.GenerationSoftware,Kicad,Pcbnew,6.0.11-2627ca5db0~126~ubuntu22.04.1
; #@! TF.FileFunction,Plated,1,2,PTH
FMAT,2
METRIC
; #@! TA.AperFunction,Plated,PTH,ComponentDrill
T1C0.762
; #@! TA.AperFunction,Plated,PTH,ComponentDrill
T2C0.800
; #@! TA.AperFunction,Plated,PTH,ComponentDrill
T3C0.900
; #@! TA.AperFunction,Plated,PTH,ComponentDrill
T4C1.000
; #@! TA.AperFunction,Plated,PTH,ComponentDrill
T5C1.250
; #@! TA.AperFunction,Plated,PTH,ComponentDrill
T6C1.300
; #@! TA.AperFunction,Plated,PTH,ComponentDrill
T7C2.000
; #@! TA.AperFunction,Plated,PTH,ComponentDrill
T8C2.200
; #@! TA.AperFunction,Plated,PTH,ComponentDrill
T9C2.693
; #@! TA.AperFunction,Plated,PTH,ComponentDrill
T10C2.818
; #@! TA.AperFunction,Plated,PTH,ComponentDrill
T11C4.000
%
G90
G05
T1
X118.404Y-73.152
X118.404Y-80.264
X121.96Y-73.152
X121.96Y-80.264
X125.516Y-73.152
X125.516Y-80.264
T2
X116.118Y-88.138
X116.118Y-95.758
X121.229Y-116.332
X123.229Y-116.332
X125.262Y-101.346
X125.262Y-111.506
X125.516Y-83.566
X125.516Y-98.806
X129.326Y-91.226
X129.326Y-96.226
X129.58Y-101.346
X129.58Y-108.966
X130.088Y-116.332
X130.596Y-74.502
X130.596Y-79.502
X132.16Y-112.776
X132.628Y-86.106
X132.628Y-96.266
X133.136Y-104.688
X133.136Y-109.688
X133.644Y-81.788
X135.93Y-85.344
X135.97Y-91.948
X137.16Y-112.776
X137.454Y-88.646
X137.708Y-97.282
X137.708Y-104.902
X137.708Y-116.332
X140.248Y-97.282
X140.248Y-104.902
X140.756Y-108.966
X140.756Y-116.586
X140.97Y-91.948
X141.264Y-81.788
X142.788Y-97.282
X142.788Y-104.902
X143.55Y-85.344
X145.074Y-88.646
X145.328Y-97.282
X145.328Y-104.902
X147.868Y-97.282
X147.868Y-104.902
X147.908Y-91.948
X150.408Y-97.282
X150.408Y-104.902
X152.908Y-91.948
X152.948Y-81.534
X152.948Y-89.154
X152.948Y-97.282
X152.948Y-104.902
X153.496Y-108.458
X155.488Y-97.282
X155.488Y-104.902
X155.742Y-81.534
X156.758Y-86.868
X156.758Y-94.488
X158.028Y-97.282
X158.028Y-104.902
X158.496Y-108.458
X159.806Y-112.308
X159.806Y-117.308
X160.742Y-81.534
X162.092Y-86.868
X162.092Y-94.488
X163.032Y-117.094
X163.108Y-113.284
X165.394Y-88.686
X165.394Y-93.686
X169.752Y-88.138
X170.652Y-117.094
X170.728Y-113.284
X172.252Y-100.116
X172.252Y-105.116
X174.752Y-88.138
T3
X141.074Y-75.184
X143.074Y-75.184
X145.074Y-75.184
T4
X120.182Y-89.916
X120.182Y-92.456
X120.182Y-94.996
X120.182Y-97.536
X120.182Y-100.076
X120.182Y-102.616
X120.182Y-105.156
X120.182Y-107.696
T5
X138.974Y-75.184
X147.174Y-75.184
T6
X153.456Y-112.308
X153.456Y-117.308
X163.148Y-101.346
X168.148Y-101.346
X172.506Y-91.734
X172.506Y-96.734
T7
X116.88Y-76.708
X127.04Y-76.708
T8
X120.182Y-85.852
X120.182Y-111.76
T9
X171.49Y-83.428
T10
X171.49Y-78.928
T11
X121.96Y-76.708
T0
M30
