%TF.GenerationSoftware,KiCad,Pcbnew,6.0.11-2627ca5db0~126~ubuntu22.04.1*%
%TF.CreationDate,2023-04-08T12:37:41-04:00*%
%TF.ProjectId,sub_rf_mod,7375625f-7266-45f6-9d6f-642e6b696361,rev?*%
%TF.SameCoordinates,Original*%
%TF.FileFunction,Copper,L2,Bot*%
%TF.FilePolarity,Positive*%
%FSLAX46Y46*%
G04 Gerber Fmt 4.6, Leading zero omitted, Abs format (unit mm)*
G04 Created by KiCad (PCBNEW 6.0.11-2627ca5db0~126~ubuntu22.04.1) date 2023-04-08 12:37:41*
%MOMM*%
%LPD*%
G01*
G04 APERTURE LIST*
%TA.AperFunction,Profile*%
%ADD10C,0.100000*%
%TD*%
%TA.AperFunction,ComponentPad*%
%ADD11C,1.600000*%
%TD*%
%TA.AperFunction,ComponentPad*%
%ADD12O,1.600000X1.600000*%
%TD*%
%TA.AperFunction,ComponentPad*%
%ADD13R,1.600000X1.600000*%
%TD*%
%TA.AperFunction,ComponentPad*%
%ADD14C,2.600000*%
%TD*%
%TA.AperFunction,ComponentPad*%
%ADD15R,1.600000X2.400000*%
%TD*%
%TA.AperFunction,ComponentPad*%
%ADD16O,1.600000X2.400000*%
%TD*%
%TA.AperFunction,ComponentPad*%
%ADD17C,3.800000*%
%TD*%
%TA.AperFunction,ComponentPad*%
%ADD18C,1.524000*%
%TD*%
%TA.AperFunction,ComponentPad*%
%ADD19C,3.000000*%
%TD*%
%TA.AperFunction,ComponentPad*%
%ADD20R,1.700000X1.700000*%
%TD*%
%TA.AperFunction,ComponentPad*%
%ADD21O,1.700000X1.700000*%
%TD*%
%TA.AperFunction,ComponentPad*%
%ADD22C,4.227000*%
%TD*%
%TA.AperFunction,ComponentPad*%
%ADD23C,4.039000*%
%TD*%
%TA.AperFunction,ComponentPad*%
%ADD24O,1.800000X3.000000*%
%TD*%
%TA.AperFunction,ComponentPad*%
%ADD25R,1.500000X2.500000*%
%TD*%
%TA.AperFunction,ComponentPad*%
%ADD26O,1.500000X2.500000*%
%TD*%
%TA.AperFunction,Conductor*%
%ADD27C,0.304800*%
%TD*%
%TA.AperFunction,Conductor*%
%ADD28C,1.016000*%
%TD*%
G04 APERTURE END LIST*
D10*
X108966000Y-67183000D02*
X177038000Y-67183000D01*
X108966000Y-67183000D02*
X108458000Y-67691000D01*
X177546000Y-116713000D02*
X177546000Y-67691000D01*
X177038000Y-67183000D02*
X177546000Y-67691000D01*
X108458000Y-116713000D02*
X108966000Y-117221000D01*
X108458000Y-116713000D02*
X108458000Y-67691000D01*
X177038000Y-117221000D02*
X177546000Y-116713000D01*
X108966000Y-117221000D02*
X177038000Y-117221000D01*
D11*
%TO.P,RF_C10,1*%
%TO.N,N/C*%
X166664000Y-95123000D03*
%TO.P,RF_C10,2*%
X171664000Y-95123000D03*
%TD*%
%TO.P,RF_JP1,1,A*%
%TO.N,N/C*%
X124460000Y-80137000D03*
D12*
%TO.P,RF_JP1,2,B*%
X124460000Y-95377000D03*
%TD*%
D11*
%TO.P,RF_C6,1*%
%TO.N,N/C*%
X141518000Y-110109000D03*
%TO.P,RF_C6,2*%
X146518000Y-110109000D03*
%TD*%
%TO.P,RF_C5,1*%
%TO.N,N/C*%
X134914000Y-88519000D03*
%TO.P,RF_C5,2*%
X139914000Y-88519000D03*
%TD*%
%TO.P,RF_R11,1*%
%TO.N,N/C*%
X134874000Y-81915000D03*
D12*
%TO.P,RF_R11,2*%
X142494000Y-81915000D03*
%TD*%
D11*
%TO.P,RF_C12,1*%
%TO.N,N/C*%
X160020000Y-105029000D03*
%TO.P,RF_C12,2*%
X155020000Y-105029000D03*
%TD*%
%TO.P,RF_R6,1*%
%TO.N,N/C*%
X159004000Y-79883000D03*
D12*
%TO.P,RF_R6,2*%
X159004000Y-72263000D03*
%TD*%
D11*
%TO.P,RF_C2,1*%
%TO.N,N/C*%
X128270000Y-87797000D03*
%TO.P,RF_C2,2*%
X128270000Y-92797000D03*
%TD*%
D13*
%TO.P,RF_C13,1*%
%TO.N,N/C*%
X120173328Y-112903000D03*
D11*
%TO.P,RF_C13,2*%
X122173328Y-112903000D03*
%TD*%
%TO.P,RF_R3,1*%
%TO.N,N/C*%
X129032000Y-112903000D03*
D12*
%TO.P,RF_R3,2*%
X136652000Y-112903000D03*
%TD*%
D14*
%TO.P,RF_L3,1,1*%
%TO.N,N/C*%
X150154000Y-112141000D03*
%TO.P,RF_L3,2,2*%
X155154000Y-112141000D03*
%TD*%
D11*
%TO.P,RF_C11,1*%
%TO.N,N/C*%
X174752000Y-90765000D03*
%TO.P,RF_C11,2*%
X174752000Y-85765000D03*
%TD*%
D13*
%TO.P,RF_D1,1,K*%
%TO.N,N/C*%
X124206000Y-108077000D03*
D12*
%TO.P,RF_D1,2,A*%
X124206000Y-97917000D03*
%TD*%
D13*
%TO.P,RF_D2,1,K*%
%TO.N,N/C*%
X131572000Y-82677000D03*
D12*
%TO.P,RF_D2,2,A*%
X131572000Y-92837000D03*
%TD*%
D11*
%TO.P,RF_C1,1*%
%TO.N,N/C*%
X129540000Y-76073000D03*
%TO.P,RF_C1,2*%
X129540000Y-71073000D03*
%TD*%
%TO.P,RF_R2,1*%
%TO.N,N/C*%
X128524000Y-97409000D03*
D12*
%TO.P,RF_R2,2*%
X128524000Y-105029000D03*
%TD*%
D15*
%TO.P,RF_U1,1,CHROMA_LEAD*%
%TO.N,N/C*%
X136652000Y-101473000D03*
D16*
%TO.P,RF_U1,2,R-Y*%
X139192000Y-101473000D03*
%TO.P,RF_U1,3,CHROMA_BIAS*%
X141732000Y-101473000D03*
%TO.P,RF_U1,4,B-Y*%
X144272000Y-101473000D03*
%TO.P,RF_U1,5,GND*%
X146812000Y-101473000D03*
%TO.P,RF_U1,6,CHB_TANK1*%
X149352000Y-101473000D03*
%TO.P,RF_U1,7,CHB_TANK2*%
X151892000Y-101473000D03*
%TO.P,RF_U1,8,CHA_TANK1*%
X154432000Y-101473000D03*
%TO.P,RF_U1,9,CHA_TANK2*%
X156972000Y-101473000D03*
%TO.P,RF_U1,10,CHB_OUTPUT*%
X156972000Y-93853000D03*
%TO.P,RF_U1,11,CHA_OUTPUT*%
X154432000Y-93853000D03*
%TO.P,RF_U1,12,VIDEO_IN*%
X151892000Y-93853000D03*
%TO.P,RF_U1,13,CHROMA_SUBCAR*%
X149352000Y-93853000D03*
%TO.P,RF_U1,14,RF_SUPPLY*%
X146812000Y-93853000D03*
%TO.P,RF_U1,15,SOUND_TANK*%
X144272000Y-93853000D03*
%TO.P,RF_U1,16,CHROMA_SUPPLY*%
X141732000Y-93853000D03*
%TO.P,RF_U1,17,CHROMA_OSC*%
X139192000Y-93853000D03*
%TO.P,RF_U1,18,CHROMA_LAG*%
X136652000Y-93853000D03*
%TD*%
D11*
%TO.P,RF_C7,1*%
%TO.N,N/C*%
X146852000Y-88011000D03*
%TO.P,RF_C7,2*%
X151852000Y-88011000D03*
%TD*%
D17*
%TO.P,H17,1,1*%
%TO.N,N/C*%
X119126000Y-82423000D03*
%TD*%
D18*
%TO.P,RF_VL1,1,1*%
%TO.N,N/C*%
X117348000Y-76835000D03*
%TO.P,RF_VL1,2,2*%
X120904000Y-76835000D03*
%TO.P,RF_VL1,3,3*%
X124460000Y-76835000D03*
%TO.P,RF_VL1,4,4*%
X124460000Y-69723000D03*
%TO.P,RF_VL1,6,6*%
X117348000Y-69723000D03*
D19*
%TO.P,RF_VL1,S,S*%
X115824000Y-73279000D03*
X125984000Y-73279000D03*
%TD*%
D11*
%TO.P,RF_C4,1*%
%TO.N,N/C*%
X136104000Y-109347000D03*
%TO.P,RF_C4,2*%
X131104000Y-109347000D03*
%TD*%
%TO.P,RF_R5,1*%
%TO.N,N/C*%
X169596000Y-113665000D03*
D12*
%TO.P,RF_R5,2*%
X161976000Y-113665000D03*
%TD*%
D20*
%TO.P,J4B1,1,Pin_1*%
%TO.N,N/C*%
X119126000Y-86487000D03*
D21*
%TO.P,J4B1,2,Pin_2*%
X119126000Y-89027000D03*
%TO.P,J4B1,3,Pin_3*%
X119126000Y-91567000D03*
%TO.P,J4B1,4,Pin_4*%
X119126000Y-94107000D03*
%TO.P,J4B1,5,Pin_5*%
X119126000Y-96647000D03*
%TO.P,J4B1,6,Pin_6*%
X119126000Y-99187000D03*
%TO.P,J4B1,7,Pin_7*%
X119126000Y-101727000D03*
%TO.P,J4B1,8,Pin_8*%
X119126000Y-104267000D03*
%TD*%
D11*
%TO.P,RF_R7,1*%
%TO.N,N/C*%
X158750000Y-89789000D03*
D12*
%TO.P,RF_R7,2*%
X158750000Y-82169000D03*
%TD*%
D11*
%TO.P,RF_R8,1*%
%TO.N,N/C*%
X162052000Y-109601000D03*
D12*
%TO.P,RF_R8,2*%
X169672000Y-109601000D03*
%TD*%
D22*
%TO.P,RF_J1,S*%
%TO.N,N/C*%
X170434000Y-75499500D03*
D23*
%TO.P,RF_J1,T*%
X170434000Y-79999500D03*
%TD*%
D11*
%TO.P,RF_C8,1*%
%TO.N,N/C*%
X154686000Y-78105000D03*
%TO.P,RF_C8,2*%
X154686000Y-73105000D03*
%TD*%
%TO.P,RF_C9,1*%
%TO.N,N/C*%
X162052000Y-90257000D03*
%TO.P,RF_C9,2*%
X162052000Y-85257000D03*
%TD*%
D17*
%TO.P,H16,1,1*%
%TO.N,N/C*%
X119126000Y-108331000D03*
%TD*%
D11*
%TO.P,RF_R4,1*%
%TO.N,N/C*%
X147574000Y-105537000D03*
D12*
%TO.P,RF_R4,2*%
X139954000Y-105537000D03*
%TD*%
D11*
%TO.P,RF_R1,1*%
%TO.N,N/C*%
X115062000Y-92329000D03*
D12*
%TO.P,RF_R1,2*%
X115062000Y-84709000D03*
%TD*%
D11*
%TO.P,RF_R9,1*%
%TO.N,N/C*%
X150114000Y-75311000D03*
D12*
%TO.P,RF_R9,2*%
X150114000Y-82931000D03*
%TD*%
D24*
%TO.P,RF_SW1,*%
%TO.N,*%
X137918000Y-71755000D03*
X146118000Y-71755000D03*
D25*
%TO.P,RF_SW1,1,A*%
%TO.N,N/C*%
X144018000Y-71755000D03*
D26*
%TO.P,RF_SW1,2,B*%
X142018000Y-71755000D03*
%TO.P,RF_SW1,3,C*%
X140018000Y-71755000D03*
%TD*%
D11*
%TO.P,RF_R10,1*%
%TO.N,N/C*%
X140208000Y-78359000D03*
D12*
%TO.P,RF_R10,2*%
X132588000Y-78359000D03*
%TD*%
D14*
%TO.P,RF_L1,1,1*%
%TO.N,N/C*%
X168402000Y-90511000D03*
%TO.P,RF_L1,2,2*%
X168402000Y-85511000D03*
%TD*%
D11*
%TO.P,RF_C3,1*%
%TO.N,N/C*%
X132080000Y-101259000D03*
%TO.P,RF_C3,2*%
X132080000Y-106259000D03*
%TD*%
%TO.P,RF_R12,1*%
%TO.N,N/C*%
X144018000Y-85217000D03*
D12*
%TO.P,RF_R12,2*%
X136398000Y-85217000D03*
%TD*%
D14*
%TO.P,RF_L2,1,1*%
%TO.N,N/C*%
X166410000Y-101727000D03*
%TO.P,RF_L2,2,2*%
X171410000Y-101727000D03*
%TD*%
D27*
%TO.N,*%
X122428000Y-89027000D02*
X119126000Y-89027000D01*
X132588000Y-78359000D02*
X132842000Y-78613000D01*
X132842000Y-91567000D02*
X131572000Y-92837000D01*
X132842000Y-78613000D02*
X132842000Y-91567000D01*
X115062000Y-84709000D02*
X115062000Y-84963000D01*
X128310000Y-92837000D02*
X128270000Y-92797000D01*
X128270000Y-92797000D02*
X126198000Y-92797000D01*
X126198000Y-92797000D02*
X122428000Y-89027000D01*
X131572000Y-92837000D02*
X128310000Y-92837000D01*
X115062000Y-84963000D02*
X119126000Y-89027000D01*
X140335000Y-105537000D02*
X141732000Y-104140000D01*
X122936000Y-96647000D02*
X124206000Y-97917000D01*
X119126000Y-96647000D02*
X122936000Y-96647000D01*
X132826648Y-103783598D02*
X130556000Y-101512950D01*
X141732000Y-101473000D02*
X140462000Y-100203000D01*
X130556000Y-101512950D02*
X130556000Y-100711000D01*
X139914000Y-88519000D02*
X137160000Y-88519000D01*
X137160000Y-88519000D02*
X134874000Y-86233000D01*
X115062000Y-92583000D02*
X115062000Y-92329000D01*
X139954000Y-105537000D02*
X138200598Y-103783598D01*
X129540000Y-99695000D02*
X125984000Y-99695000D01*
X140462000Y-89067000D02*
X139914000Y-88519000D01*
X134874000Y-86233000D02*
X134874000Y-81915000D01*
X140462000Y-100203000D02*
X140462000Y-89067000D01*
X130556000Y-100711000D02*
X129540000Y-99695000D01*
X119126000Y-96647000D02*
X115062000Y-92583000D01*
X138200598Y-103783598D02*
X132826648Y-103783598D01*
X125984000Y-99695000D02*
X124206000Y-97917000D01*
X141732000Y-104140000D02*
X141732000Y-101473000D01*
X139954000Y-105537000D02*
X140335000Y-105537000D01*
X128524000Y-106767000D02*
X131104000Y-109347000D01*
X127762000Y-104267000D02*
X128524000Y-105029000D01*
X119126000Y-104267000D02*
X127762000Y-104267000D01*
X128524000Y-105029000D02*
X128524000Y-106767000D01*
X140843000Y-107569000D02*
X144272000Y-104140000D01*
X129184899Y-101371899D02*
X129184899Y-101879900D01*
X129184899Y-101879900D02*
X132306800Y-105001800D01*
X135167950Y-107569000D02*
X140843000Y-107569000D01*
X129032000Y-101219000D02*
X129184899Y-101371899D01*
X119126000Y-101727000D02*
X119634000Y-101219000D01*
X144272000Y-104140000D02*
X144272000Y-101473000D01*
X119634000Y-101219000D02*
X129032000Y-101219000D01*
X132306800Y-105001800D02*
X132600750Y-105001800D01*
X132600750Y-105001800D02*
X135167950Y-107569000D01*
X126238000Y-94361000D02*
X123444000Y-91567000D01*
X139192000Y-100768200D02*
X137356800Y-98933000D01*
X127000000Y-98933000D02*
X126238000Y-98171000D01*
X137356800Y-98933000D02*
X127000000Y-98933000D01*
X126238000Y-98171000D02*
X126238000Y-94361000D01*
X123444000Y-91567000D02*
X119126000Y-91567000D01*
X139192000Y-101473000D02*
X139192000Y-100768200D01*
D28*
X120396000Y-95377000D02*
X119126000Y-94107000D01*
X113284000Y-91313000D02*
X113284000Y-93091000D01*
X124206000Y-108077000D02*
X120173328Y-112109672D01*
X120173328Y-112109672D02*
X120173328Y-112903000D01*
X114046000Y-90551000D02*
X113284000Y-91313000D01*
X119126000Y-94107000D02*
X115570000Y-90551000D01*
X113284000Y-93091000D02*
X116332000Y-96139000D01*
X116332000Y-96139000D02*
X116332000Y-109373479D01*
X120173328Y-112903000D02*
X119861521Y-112903000D01*
X115570000Y-90551000D02*
X114046000Y-90551000D01*
X124460000Y-95377000D02*
X120396000Y-95377000D01*
X119861521Y-112903000D02*
X116332000Y-109373479D01*
X170434000Y-75499500D02*
X172146500Y-75499500D01*
D27*
X166410000Y-101727000D02*
X166410000Y-107275000D01*
X158536000Y-93853000D02*
X156972000Y-93853000D01*
X166410000Y-107275000D02*
X164084000Y-109601000D01*
X164084000Y-109601000D02*
X162052000Y-109601000D01*
X166410000Y-101727000D02*
X158536000Y-93853000D01*
X138430000Y-85217000D02*
X144272000Y-91059000D01*
X136398000Y-79883000D02*
X136398000Y-85217000D01*
X118364000Y-76835000D02*
X117348000Y-76835000D01*
X130302000Y-81407000D02*
X122936000Y-81407000D01*
X131572000Y-82677000D02*
X131064000Y-82169000D01*
X131064000Y-82169000D02*
X131064000Y-77851000D01*
X132080000Y-76835000D02*
X133350000Y-76835000D01*
X131064000Y-77851000D02*
X132080000Y-76835000D01*
X133350000Y-76835000D02*
X136398000Y-79883000D01*
X144272000Y-91059000D02*
X144272000Y-93853000D01*
X136398000Y-85217000D02*
X138430000Y-85217000D01*
X131572000Y-82677000D02*
X130302000Y-81407000D01*
X122936000Y-81407000D02*
X118364000Y-76835000D01*
X160020000Y-100203000D02*
X155702000Y-95885000D01*
X154178000Y-91227688D02*
X154178000Y-84201000D01*
X155702000Y-95885000D02*
X155702000Y-92751688D01*
X155702000Y-92751688D02*
X154178000Y-91227688D01*
X160020000Y-105029000D02*
X160020000Y-100203000D01*
X144018000Y-74041000D02*
X144018000Y-71469000D01*
X154178000Y-84201000D02*
X144018000Y-74041000D01*
X169498000Y-85511000D02*
X168402000Y-85511000D01*
X174752000Y-90765000D02*
X169498000Y-85511000D01*
X168402000Y-82031500D02*
X170434000Y-79999500D01*
X168402000Y-85511000D02*
X168402000Y-82031500D01*
X171410000Y-99869000D02*
X166664000Y-95123000D01*
X171410000Y-101727000D02*
X171410000Y-99869000D01*
X162052000Y-90257000D02*
X159218000Y-90257000D01*
X159218000Y-90257000D02*
X158750000Y-89789000D01*
X168402000Y-90511000D02*
X162306000Y-90511000D01*
X171664000Y-93773000D02*
X168402000Y-90511000D01*
X171664000Y-95123000D02*
X171664000Y-93773000D01*
X158964000Y-90257000D02*
X158750000Y-90043000D01*
X162306000Y-90511000D02*
X162052000Y-90257000D01*
X151892000Y-93853000D02*
X151892000Y-88051000D01*
X142494000Y-81915000D02*
X148844000Y-81915000D01*
X151852000Y-88011000D02*
X151852000Y-84923000D01*
X151852000Y-84923000D02*
X150114000Y-83185000D01*
X151892000Y-88051000D02*
X151852000Y-88011000D01*
X148844000Y-81915000D02*
X150114000Y-83185000D01*
X146852000Y-88011000D02*
X144058000Y-85217000D01*
X144058000Y-85217000D02*
X144018000Y-85217000D01*
X171196000Y-113842950D02*
X171196000Y-109347000D01*
X160602244Y-91567000D02*
X158750000Y-91567000D01*
X169075250Y-114922200D02*
X170116750Y-114922200D01*
X170116750Y-114922200D02*
X171196000Y-113842950D01*
X158750000Y-91567000D02*
X157226000Y-90043000D01*
X155154000Y-112141000D02*
X166294050Y-112141000D01*
X152908000Y-105029000D02*
X152908000Y-109982000D01*
X171196000Y-109347000D02*
X169487501Y-107638501D01*
X155154000Y-112141000D02*
X153122000Y-110109000D01*
X153122000Y-110109000D02*
X146518000Y-110109000D01*
X157226000Y-90043000D02*
X157226000Y-81661000D01*
X169487501Y-107638501D02*
X169487501Y-100452256D01*
X152908000Y-109982000D02*
X152781000Y-110109000D01*
X166294050Y-112141000D02*
X169075250Y-114922200D01*
X157226000Y-81661000D02*
X159004000Y-79883000D01*
X169487501Y-100452256D02*
X160602244Y-91567000D01*
X152781000Y-110109000D02*
X146518000Y-110109000D01*
X155020000Y-105029000D02*
X152908000Y-105029000D01*
X149352000Y-101473000D02*
X152908000Y-105029000D01*
X153162000Y-100203000D02*
X153162000Y-84201000D01*
X149352000Y-106299000D02*
X149352000Y-104521000D01*
X152186000Y-114173000D02*
X150154000Y-112141000D01*
X161468000Y-114173000D02*
X152186000Y-114173000D01*
X142018000Y-73057000D02*
X142018000Y-71469000D01*
X143550000Y-112141000D02*
X150154000Y-112141000D01*
X148082000Y-107569000D02*
X149352000Y-106299000D01*
X153162000Y-84201000D02*
X142018000Y-73057000D01*
X148952051Y-99695000D02*
X150114000Y-99695000D01*
X150114000Y-99695000D02*
X151892000Y-101473000D01*
X151892000Y-101473000D02*
X153162000Y-100203000D01*
X141518000Y-110109000D02*
X144058000Y-107569000D01*
X141518000Y-110109000D02*
X143550000Y-112141000D01*
X148094800Y-100552251D02*
X148952051Y-99695000D01*
X148094800Y-103263800D02*
X148094800Y-100552251D01*
X149352000Y-104521000D02*
X148094800Y-103263800D01*
X161976000Y-113665000D02*
X161468000Y-114173000D01*
X144058000Y-107569000D02*
X148082000Y-107569000D01*
X136652000Y-93853000D02*
X136652000Y-90257000D01*
X136652000Y-90257000D02*
X134914000Y-88519000D01*
X128524000Y-97409000D02*
X133096000Y-97409000D01*
X133096000Y-97409000D02*
X136652000Y-93853000D01*
X135168000Y-109347000D02*
X132080000Y-106259000D01*
X136104000Y-109347000D02*
X136104000Y-112355000D01*
X136104000Y-109347000D02*
X135168000Y-109347000D01*
X136104000Y-112355000D02*
X136652000Y-112903000D01*
X132294000Y-101473000D02*
X132080000Y-101259000D01*
X136652000Y-101473000D02*
X132294000Y-101473000D01*
D28*
X136211692Y-69401308D02*
X132461000Y-73152000D01*
X155956000Y-78105000D02*
X159004000Y-75057000D01*
X154686000Y-78105000D02*
X152146000Y-75565000D01*
X160202652Y-92531701D02*
X158347905Y-92531701D01*
X146812000Y-94361000D02*
X145034000Y-96139000D01*
X159004000Y-75057000D02*
X159004000Y-72619000D01*
X135001000Y-73152000D02*
X140208000Y-78359000D01*
X152146000Y-75565000D02*
X150114000Y-75565000D01*
X132461000Y-73152000D02*
X135001000Y-73152000D01*
X142494000Y-96139000D02*
X141732000Y-95377000D01*
X150114000Y-75565000D02*
X150114000Y-72289497D01*
X169596000Y-113665000D02*
X169596000Y-109677000D01*
X146812000Y-93853000D02*
X146812000Y-94361000D01*
X124460000Y-76835000D02*
X128778000Y-76835000D01*
X124460000Y-80137000D02*
X124460000Y-76835000D01*
X145034000Y-96139000D02*
X142494000Y-96139000D01*
X150114000Y-72289497D02*
X147225811Y-69401308D01*
X140208000Y-78359000D02*
X140208000Y-82677000D01*
X154686000Y-78105000D02*
X155956000Y-78105000D01*
X146812000Y-90297000D02*
X146812000Y-93853000D01*
X169596000Y-109677000D02*
X169672000Y-109601000D01*
X169672000Y-109601000D02*
X168522800Y-108451800D01*
X155485999Y-89669795D02*
X155485999Y-78904999D01*
X168522800Y-108451800D02*
X168522800Y-100851849D01*
X142405200Y-85890200D02*
X146812000Y-90297000D01*
X132461000Y-73152000D02*
X129540000Y-76073000D01*
X140208000Y-82677000D02*
X142405200Y-84874200D01*
X128778000Y-76835000D02*
X129540000Y-76073000D01*
X168522800Y-100851849D02*
X160202652Y-92531701D01*
X142405200Y-84874200D02*
X142405200Y-85890200D01*
X147225811Y-69401308D02*
X136211692Y-69401308D01*
X158347905Y-92531701D02*
X155485999Y-89669795D01*
X155485999Y-78904999D02*
X154686000Y-78105000D01*
X141732000Y-95377000D02*
X141732000Y-93853000D01*
D27*
X149352000Y-93853000D02*
X143065600Y-100139400D01*
X143065600Y-100139400D02*
X143065600Y-100501451D01*
X120396000Y-100457000D02*
X119126000Y-99187000D01*
X143065600Y-100501451D02*
X143014800Y-100552251D01*
X143014800Y-102393749D02*
X143065600Y-102444549D01*
X129794000Y-100812101D02*
X129438899Y-100457000D01*
X132853047Y-104392699D02*
X132559097Y-104392699D01*
X129438899Y-100457000D02*
X120396000Y-100457000D01*
X143065600Y-104203400D02*
X140474800Y-106794200D01*
X143014800Y-100552251D02*
X143014800Y-102393749D01*
X140474800Y-106794200D02*
X135254548Y-106794200D01*
X143065600Y-102444549D02*
X143065600Y-104203400D01*
X132559097Y-104392699D02*
X129794000Y-101627602D01*
X135254548Y-106794200D02*
X132853047Y-104392699D01*
X129794000Y-101627602D02*
X129794000Y-100812101D01*
%TD*%
%TA.AperFunction,NonConductor*%
G36*
X176843303Y-67711502D02*
G01*
X176864278Y-67728405D01*
X177000596Y-67864724D01*
X177034621Y-67927036D01*
X177037500Y-67953819D01*
X177037500Y-116450181D01*
X177017498Y-116518302D01*
X177000596Y-116539276D01*
X176864278Y-116675595D01*
X176801966Y-116709620D01*
X176775182Y-116712500D01*
X109228819Y-116712500D01*
X109160698Y-116692498D01*
X109139724Y-116675596D01*
X109003405Y-116539278D01*
X108969380Y-116476966D01*
X108966500Y-116450182D01*
X108966500Y-91309435D01*
X112262588Y-91309435D01*
X112266941Y-91355485D01*
X112267500Y-91367343D01*
X112267500Y-93028724D01*
X112266763Y-93042332D01*
X112263714Y-93070402D01*
X112262638Y-93080304D01*
X112265575Y-93113870D01*
X112267046Y-93130690D01*
X112267375Y-93135518D01*
X112267500Y-93138073D01*
X112267500Y-93141157D01*
X112267801Y-93144224D01*
X112271722Y-93184219D01*
X112271844Y-93185532D01*
X112280012Y-93278892D01*
X112281511Y-93284052D01*
X112282035Y-93289394D01*
X112297010Y-93338992D01*
X112309098Y-93379031D01*
X112309455Y-93380236D01*
X112335628Y-93470322D01*
X112338100Y-93475090D01*
X112339652Y-93480232D01*
X112342547Y-93485677D01*
X112342550Y-93485684D01*
X112383633Y-93562950D01*
X112384213Y-93564054D01*
X112427366Y-93647304D01*
X112430718Y-93651503D01*
X112433239Y-93656244D01*
X112437131Y-93661016D01*
X112492438Y-93728829D01*
X112493266Y-93729855D01*
X112519962Y-93763296D01*
X112524768Y-93769316D01*
X112527263Y-93771811D01*
X112527973Y-93772605D01*
X112531693Y-93776960D01*
X112555337Y-93805951D01*
X112555340Y-93805954D01*
X112559232Y-93810726D01*
X112563980Y-93814654D01*
X112563981Y-93814655D01*
X112594873Y-93840211D01*
X112603652Y-93848200D01*
X115278595Y-96523143D01*
X115312621Y-96585455D01*
X115315500Y-96612238D01*
X115315500Y-109311203D01*
X115314763Y-109324811D01*
X115311758Y-109352475D01*
X115310638Y-109362783D01*
X115313402Y-109394371D01*
X115315046Y-109413169D01*
X115315375Y-109417997D01*
X115315500Y-109420552D01*
X115315500Y-109423636D01*
X115315801Y-109426703D01*
X115319722Y-109466698D01*
X115319844Y-109468011D01*
X115328012Y-109561371D01*
X115329511Y-109566531D01*
X115330035Y-109571873D01*
X115356933Y-109660962D01*
X115357098Y-109661510D01*
X115357455Y-109662715D01*
X115383628Y-109752801D01*
X115386100Y-109757569D01*
X115387652Y-109762711D01*
X115390547Y-109768156D01*
X115390550Y-109768163D01*
X115431633Y-109845429D01*
X115432213Y-109846533D01*
X115475366Y-109929783D01*
X115478718Y-109933982D01*
X115481239Y-109938723D01*
X115485131Y-109943495D01*
X115540438Y-110011308D01*
X115541266Y-110012334D01*
X115567290Y-110044933D01*
X115572768Y-110051795D01*
X115575263Y-110054290D01*
X115575973Y-110055084D01*
X115579693Y-110059439D01*
X115603337Y-110088430D01*
X115603340Y-110088433D01*
X115607232Y-110093205D01*
X115611980Y-110097133D01*
X115611981Y-110097134D01*
X115642873Y-110122690D01*
X115651652Y-110130679D01*
X118827923Y-113306950D01*
X118861949Y-113369262D01*
X118864828Y-113396045D01*
X118864828Y-113751134D01*
X118871583Y-113813316D01*
X118922713Y-113949705D01*
X119010067Y-114066261D01*
X119126623Y-114153615D01*
X119263012Y-114204745D01*
X119325194Y-114211500D01*
X121021462Y-114211500D01*
X121083644Y-114204745D01*
X121220033Y-114153615D01*
X121336589Y-114066261D01*
X121423943Y-113949705D01*
X121475073Y-113813316D01*
X121481828Y-113751134D01*
X121481828Y-112290910D01*
X121501830Y-112222789D01*
X121518733Y-112201815D01*
X124298143Y-109422405D01*
X124360455Y-109388379D01*
X124387238Y-109385500D01*
X125054134Y-109385500D01*
X125116316Y-109378745D01*
X125252705Y-109327615D01*
X125369261Y-109240261D01*
X125456615Y-109123705D01*
X125507745Y-108987316D01*
X125514500Y-108925134D01*
X125514500Y-107228866D01*
X125507745Y-107166684D01*
X125456615Y-107030295D01*
X125369261Y-106913739D01*
X125252705Y-106826385D01*
X125116316Y-106775255D01*
X125054134Y-106768500D01*
X123357866Y-106768500D01*
X123295684Y-106775255D01*
X123159295Y-106826385D01*
X123042739Y-106913739D01*
X122955385Y-107030295D01*
X122904255Y-107166684D01*
X122897500Y-107228866D01*
X122897500Y-107895761D01*
X122877498Y-107963882D01*
X122860595Y-107984856D01*
X121265050Y-109580402D01*
X119709856Y-111135596D01*
X119647544Y-111169622D01*
X119576729Y-111164557D01*
X119531666Y-111135596D01*
X117385405Y-108989336D01*
X117351380Y-108927024D01*
X117348500Y-108900241D01*
X117348500Y-96201276D01*
X117349237Y-96187668D01*
X117352697Y-96155821D01*
X117352697Y-96155817D01*
X117353362Y-96149696D01*
X117351845Y-96132357D01*
X117350871Y-96121219D01*
X117364858Y-96051614D01*
X117414257Y-96000621D01*
X117483383Y-95984430D01*
X117550289Y-96008181D01*
X117565486Y-96021140D01*
X117767364Y-96223017D01*
X117801389Y-96285329D01*
X117799686Y-96345785D01*
X117788370Y-96386588D01*
X117788369Y-96386596D01*
X117786989Y-96391570D01*
X117786441Y-96396700D01*
X117786440Y-96396704D01*
X117781777Y-96440341D01*
X117763251Y-96613695D01*
X117763548Y-96618848D01*
X117763548Y-96618851D01*
X117775812Y-96831547D01*
X117776110Y-96836715D01*
X117777247Y-96841761D01*
X117777248Y-96841767D01*
X117792806Y-96910802D01*
X117825222Y-97054639D01*
X117909266Y-97261616D01*
X117943037Y-97316726D01*
X117996228Y-97403525D01*
X118025987Y-97452088D01*
X118172250Y-97620938D01*
X118344126Y-97763632D01*
X118414595Y-97804811D01*
X118417445Y-97806476D01*
X118466169Y-97858114D01*
X118479240Y-97927897D01*
X118452509Y-97993669D01*
X118412055Y-98027027D01*
X118399607Y-98033507D01*
X118395474Y-98036610D01*
X118395471Y-98036612D01*
X118225100Y-98164530D01*
X118220965Y-98167635D01*
X118217393Y-98171373D01*
X118106735Y-98287170D01*
X118066629Y-98329138D01*
X118063715Y-98333410D01*
X118063714Y-98333411D01*
X118041318Y-98366243D01*
X117940743Y-98513680D01*
X117846688Y-98716305D01*
X117786989Y-98931570D01*
X117763251Y-99153695D01*
X117763548Y-99158848D01*
X117763548Y-99158851D01*
X117769011Y-99253590D01*
X117776110Y-99376715D01*
X117777247Y-99381761D01*
X117777248Y-99381767D01*
X117800068Y-99483023D01*
X117825222Y-99594639D01*
X117872144Y-99710195D01*
X117896196Y-99769427D01*
X117909266Y-99801616D01*
X117957380Y-99880131D01*
X118017336Y-99977970D01*
X118025987Y-99992088D01*
X118172250Y-100160938D01*
X118278632Y-100249258D01*
X118325188Y-100287909D01*
X118344126Y-100303632D01*
X118376218Y-100322385D01*
X118417445Y-100346476D01*
X118466169Y-100398114D01*
X118479240Y-100467897D01*
X118452509Y-100533669D01*
X118412055Y-100567027D01*
X118399607Y-100573507D01*
X118395474Y-100576610D01*
X118395471Y-100576612D01*
X118225100Y-100704530D01*
X118220965Y-100707635D01*
X118066629Y-100869138D01*
X117940743Y-101053680D01*
X117846688Y-101256305D01*
X117786989Y-101471570D01*
X117763251Y-101693695D01*
X117763548Y-101698848D01*
X117763548Y-101698851D01*
X117770462Y-101818758D01*
X117776110Y-101916715D01*
X117777247Y-101921761D01*
X117777248Y-101921767D01*
X117784198Y-101952604D01*
X117825222Y-102134639D01*
X117861841Y-102224822D01*
X117903824Y-102328213D01*
X117909266Y-102341616D01*
X117921193Y-102361079D01*
X118021498Y-102524762D01*
X118025987Y-102532088D01*
X118172250Y-102700938D01*
X118344126Y-102843632D01*
X118398321Y-102875301D01*
X118417445Y-102886476D01*
X118466169Y-102938114D01*
X118479240Y-103007897D01*
X118452509Y-103073669D01*
X118412055Y-103107027D01*
X118399607Y-103113507D01*
X118395474Y-103116610D01*
X118395471Y-103116612D01*
X118235746Y-103236537D01*
X118220965Y-103247635D01*
X118217393Y-103251373D01*
X118084771Y-103390154D01*
X118066629Y-103409138D01*
X117940743Y-103593680D01*
X117911117Y-103657505D01*
X117870241Y-103745565D01*
X117846688Y-103796305D01*
X117786989Y-104011570D01*
X117763251Y-104233695D01*
X117763548Y-104238848D01*
X117763548Y-104238851D01*
X117771095Y-104369737D01*
X117776110Y-104456715D01*
X117777247Y-104461761D01*
X117777248Y-104461767D01*
X117783804Y-104490855D01*
X117825222Y-104674639D01*
X117909266Y-104881616D01*
X117911965Y-104886020D01*
X117996228Y-105023525D01*
X118025987Y-105072088D01*
X118172250Y-105240938D01*
X118344126Y-105383632D01*
X118537000Y-105496338D01*
X118745692Y-105576030D01*
X118750760Y-105577061D01*
X118750763Y-105577062D01*
X118852414Y-105597743D01*
X118964597Y-105620567D01*
X118969772Y-105620757D01*
X118969774Y-105620757D01*
X119182673Y-105628564D01*
X119182677Y-105628564D01*
X119187837Y-105628753D01*
X119192957Y-105628097D01*
X119192959Y-105628097D01*
X119404288Y-105601025D01*
X119404289Y-105601025D01*
X119409416Y-105600368D01*
X119418166Y-105597743D01*
X119618429Y-105537661D01*
X119618434Y-105537659D01*
X119623384Y-105536174D01*
X119823994Y-105437896D01*
X120005860Y-105308173D01*
X120164096Y-105150489D01*
X120286336Y-104980373D01*
X120342330Y-104936726D01*
X120388658Y-104927900D01*
X127086199Y-104927900D01*
X127154320Y-104947902D01*
X127200813Y-105001558D01*
X127211720Y-105042919D01*
X127229977Y-105251606D01*
X127229978Y-105251611D01*
X127230457Y-105257087D01*
X127231881Y-105262400D01*
X127231881Y-105262402D01*
X127272690Y-105414700D01*
X127289716Y-105478243D01*
X127292039Y-105483224D01*
X127292039Y-105483225D01*
X127384151Y-105680762D01*
X127384154Y-105680767D01*
X127386477Y-105685749D01*
X127427005Y-105743629D01*
X127473309Y-105809757D01*
X127517802Y-105873300D01*
X127679700Y-106035198D01*
X127684208Y-106038355D01*
X127684211Y-106038357D01*
X127809371Y-106125995D01*
X127853699Y-106181452D01*
X127863100Y-106229208D01*
X127863100Y-106739737D01*
X127862808Y-106748308D01*
X127859158Y-106801843D01*
X127860463Y-106809320D01*
X127860463Y-106809321D01*
X127869368Y-106860343D01*
X127870331Y-106866869D01*
X127875643Y-106910762D01*
X127877463Y-106925805D01*
X127880149Y-106932913D01*
X127881860Y-106939879D01*
X127883279Y-106945068D01*
X127885356Y-106951947D01*
X127886661Y-106959424D01*
X127910529Y-107013795D01*
X127913012Y-107019881D01*
X127934006Y-107075441D01*
X127938309Y-107081702D01*
X127941615Y-107088026D01*
X127944271Y-107092798D01*
X127947906Y-107098944D01*
X127950958Y-107105896D01*
X127976402Y-107139056D01*
X127987102Y-107153001D01*
X127990973Y-107158328D01*
X128024611Y-107207271D01*
X128030287Y-107212328D01*
X128067819Y-107245768D01*
X128073095Y-107250749D01*
X128937386Y-108115039D01*
X129786659Y-108964312D01*
X129820684Y-109026624D01*
X129819271Y-109086018D01*
X129816275Y-109097199D01*
X129810457Y-109118913D01*
X129790502Y-109347000D01*
X129810457Y-109575087D01*
X129811881Y-109580400D01*
X129811881Y-109580402D01*
X129866068Y-109782627D01*
X129869716Y-109796243D01*
X129872039Y-109801224D01*
X129872039Y-109801225D01*
X129964151Y-109998762D01*
X129964154Y-109998767D01*
X129966477Y-110003749D01*
X130029115Y-110093205D01*
X130090644Y-110181077D01*
X130097802Y-110191300D01*
X130259700Y-110353198D01*
X130264208Y-110356355D01*
X130264211Y-110356357D01*
X130278597Y-110366430D01*
X130447251Y-110484523D01*
X130452233Y-110486846D01*
X130452238Y-110486849D01*
X130648516Y-110578374D01*
X130654757Y-110581284D01*
X130660065Y-110582706D01*
X130660067Y-110582707D01*
X130870598Y-110639119D01*
X130870600Y-110639119D01*
X130875913Y-110640543D01*
X131104000Y-110660498D01*
X131332087Y-110640543D01*
X131337400Y-110639119D01*
X131337402Y-110639119D01*
X131547933Y-110582707D01*
X131547935Y-110582706D01*
X131553243Y-110581284D01*
X131559484Y-110578374D01*
X131755762Y-110486849D01*
X131755767Y-110486846D01*
X131760749Y-110484523D01*
X131929403Y-110366430D01*
X131943789Y-110356357D01*
X131943792Y-110356355D01*
X131948300Y-110353198D01*
X132110198Y-110191300D01*
X132117357Y-110181077D01*
X132178885Y-110093205D01*
X132241523Y-110003749D01*
X132243846Y-109998767D01*
X132243849Y-109998762D01*
X132335961Y-109801225D01*
X132335961Y-109801224D01*
X132338284Y-109796243D01*
X132341933Y-109782627D01*
X132396119Y-109580402D01*
X132396119Y-109580400D01*
X132397543Y-109575087D01*
X132417498Y-109347000D01*
X132397543Y-109118913D01*
X132371526Y-109021816D01*
X132339707Y-108903067D01*
X132339706Y-108903065D01*
X132338284Y-108897757D01*
X132326876Y-108873293D01*
X132243849Y-108695238D01*
X132243846Y-108695233D01*
X132241523Y-108690251D01*
X132110198Y-108502700D01*
X131948300Y-108340802D01*
X131943792Y-108337645D01*
X131943789Y-108337643D01*
X131865611Y-108282902D01*
X131760749Y-108209477D01*
X131755767Y-108207154D01*
X131755762Y-108207151D01*
X131558225Y-108115039D01*
X131558224Y-108115039D01*
X131553243Y-108112716D01*
X131547935Y-108111294D01*
X131547933Y-108111293D01*
X131337402Y-108054881D01*
X131337400Y-108054881D01*
X131332087Y-108053457D01*
X131104000Y-108033502D01*
X130875913Y-108053457D01*
X130870602Y-108054880D01*
X130870591Y-108054882D01*
X130843020Y-108062270D01*
X130772044Y-108060581D01*
X130721313Y-108029659D01*
X129221805Y-106530152D01*
X129187780Y-106467840D01*
X129184900Y-106441057D01*
X129184900Y-106229208D01*
X129204902Y-106161087D01*
X129238629Y-106125995D01*
X129363789Y-106038357D01*
X129363792Y-106038355D01*
X129368300Y-106035198D01*
X129530198Y-105873300D01*
X129574692Y-105809757D01*
X129620995Y-105743629D01*
X129661523Y-105685749D01*
X129663846Y-105680767D01*
X129663849Y-105680762D01*
X129755961Y-105483225D01*
X129755961Y-105483224D01*
X129758284Y-105478243D01*
X129775311Y-105414700D01*
X129816119Y-105262402D01*
X129816119Y-105262400D01*
X129817543Y-105257087D01*
X129837498Y-105029000D01*
X129817543Y-104800913D01*
X129783708Y-104674639D01*
X129759707Y-104585067D01*
X129759706Y-104585065D01*
X129758284Y-104579757D01*
X129716829Y-104490855D01*
X129663849Y-104377238D01*
X129663846Y-104377233D01*
X129661523Y-104372251D01*
X129557368Y-104223502D01*
X129533357Y-104189211D01*
X129533355Y-104189208D01*
X129530198Y-104184700D01*
X129368300Y-104022802D01*
X129363792Y-104019645D01*
X129363789Y-104019643D01*
X129238629Y-103932005D01*
X129180749Y-103891477D01*
X129175767Y-103889154D01*
X129175762Y-103889151D01*
X128978225Y-103797039D01*
X128978224Y-103797039D01*
X128973243Y-103794716D01*
X128967935Y-103793294D01*
X128967933Y-103793293D01*
X128757402Y-103736881D01*
X128757400Y-103736881D01*
X128752087Y-103735457D01*
X128524000Y-103715502D01*
X128295913Y-103735457D01*
X128290595Y-103736882D01*
X128251880Y-103747255D01*
X128180904Y-103745565D01*
X128141523Y-103724701D01*
X128112859Y-103702226D01*
X128106879Y-103697537D01*
X128099953Y-103694410D01*
X128093824Y-103690698D01*
X128089204Y-103688062D01*
X128082822Y-103684640D01*
X128076603Y-103680269D01*
X128021286Y-103658701D01*
X128015207Y-103656146D01*
X128012966Y-103655134D01*
X127961088Y-103631711D01*
X127953612Y-103630325D01*
X127946734Y-103628170D01*
X127941609Y-103626710D01*
X127934645Y-103624922D01*
X127927566Y-103622162D01*
X127920034Y-103621170D01*
X127920032Y-103621170D01*
X127894804Y-103617849D01*
X127868700Y-103614413D01*
X127862202Y-103613384D01*
X127803803Y-103602560D01*
X127796223Y-103602997D01*
X127796222Y-103602997D01*
X127746033Y-103605891D01*
X127738780Y-103606100D01*
X120385079Y-103606100D01*
X120316958Y-103586098D01*
X120279287Y-103548540D01*
X120208822Y-103439617D01*
X120208820Y-103439614D01*
X120206014Y-103435277D01*
X120055670Y-103270051D01*
X120051619Y-103266852D01*
X120051615Y-103266848D01*
X119884414Y-103134800D01*
X119884410Y-103134798D01*
X119880359Y-103131598D01*
X119839053Y-103108796D01*
X119789084Y-103058364D01*
X119774312Y-102988921D01*
X119799428Y-102922516D01*
X119826780Y-102895909D01*
X119870603Y-102864650D01*
X120005860Y-102768173D01*
X120053001Y-102721197D01*
X120160435Y-102614137D01*
X120164096Y-102610489D01*
X120223594Y-102527689D01*
X120291435Y-102433277D01*
X120294453Y-102429077D01*
X120312103Y-102393366D01*
X120391136Y-102233453D01*
X120391137Y-102233451D01*
X120393430Y-102228811D01*
X120445336Y-102057968D01*
X120456865Y-102020023D01*
X120456865Y-102020021D01*
X120458370Y-102015069D01*
X120461743Y-101989451D01*
X120490467Y-101924524D01*
X120549733Y-101885434D01*
X120586665Y-101879900D01*
X128407473Y-101879900D01*
X128475594Y-101899902D01*
X128522087Y-101953558D01*
X128532561Y-101990764D01*
X128538362Y-102038705D01*
X128541049Y-102045816D01*
X128542766Y-102052805D01*
X128544178Y-102057968D01*
X128546255Y-102064847D01*
X128547560Y-102072324D01*
X128550612Y-102079276D01*
X128550612Y-102079277D01*
X128571421Y-102126680D01*
X128573912Y-102132784D01*
X128594905Y-102188341D01*
X128599205Y-102194598D01*
X128602539Y-102200975D01*
X128605139Y-102205645D01*
X128608804Y-102211842D01*
X128611857Y-102218797D01*
X128616479Y-102224821D01*
X128616480Y-102224822D01*
X128648005Y-102265905D01*
X128651883Y-102271243D01*
X128685510Y-102320171D01*
X128691180Y-102325223D01*
X128691181Y-102325224D01*
X128728718Y-102358668D01*
X128733994Y-102363649D01*
X130769634Y-104399287D01*
X131357403Y-104987056D01*
X131391428Y-105049368D01*
X131386364Y-105120183D01*
X131340579Y-105179364D01*
X131240211Y-105249643D01*
X131240208Y-105249645D01*
X131235700Y-105252802D01*
X131073802Y-105414700D01*
X131070645Y-105419208D01*
X131070643Y-105419211D01*
X131025820Y-105483225D01*
X130942477Y-105602251D01*
X130940154Y-105607233D01*
X130940151Y-105607238D01*
X130869101Y-105759607D01*
X130845716Y-105809757D01*
X130844294Y-105815065D01*
X130844293Y-105815067D01*
X130827645Y-105877197D01*
X130786457Y-106030913D01*
X130766502Y-106259000D01*
X130786457Y-106487087D01*
X130787881Y-106492400D01*
X130787881Y-106492402D01*
X130828470Y-106643879D01*
X130845716Y-106708243D01*
X130848039Y-106713224D01*
X130848039Y-106713225D01*
X130940151Y-106910762D01*
X130940154Y-106910767D01*
X130942477Y-106915749D01*
X130993936Y-106989240D01*
X131054184Y-107075282D01*
X131073802Y-107103300D01*
X131235700Y-107265198D01*
X131240208Y-107268355D01*
X131240211Y-107268357D01*
X131303337Y-107312558D01*
X131423251Y-107396523D01*
X131428233Y-107398846D01*
X131428238Y-107398849D01*
X131604439Y-107481012D01*
X131630757Y-107493284D01*
X131636065Y-107494706D01*
X131636067Y-107494707D01*
X131846598Y-107551119D01*
X131846600Y-107551119D01*
X131851913Y-107552543D01*
X132080000Y-107572498D01*
X132308087Y-107552543D01*
X132313398Y-107551120D01*
X132313409Y-107551118D01*
X132340980Y-107543730D01*
X132411956Y-107545419D01*
X132462687Y-107576341D01*
X134681393Y-109795047D01*
X134687246Y-109801312D01*
X134722524Y-109841752D01*
X134728735Y-109846117D01*
X134728738Y-109846120D01*
X134771107Y-109875897D01*
X134776402Y-109879830D01*
X134823121Y-109916462D01*
X134830046Y-109919589D01*
X134836223Y-109923330D01*
X134840802Y-109925942D01*
X134847180Y-109929362D01*
X134853397Y-109933731D01*
X134906648Y-109954492D01*
X134962848Y-109997873D01*
X134966006Y-110002738D01*
X134966477Y-110003749D01*
X134969005Y-110007359D01*
X134969008Y-110007364D01*
X135092260Y-110183385D01*
X135097802Y-110191300D01*
X135259700Y-110353198D01*
X135264208Y-110356355D01*
X135264211Y-110356357D01*
X135389371Y-110443995D01*
X135433699Y-110499452D01*
X135443100Y-110547208D01*
X135443100Y-112327737D01*
X135442808Y-112336309D01*
X135439322Y-112387434D01*
X135427809Y-112432111D01*
X135420041Y-112448770D01*
X135417716Y-112453757D01*
X135358457Y-112674913D01*
X135338502Y-112903000D01*
X135358457Y-113131087D01*
X135359881Y-113136400D01*
X135359881Y-113136402D01*
X135384561Y-113228506D01*
X135417716Y-113352243D01*
X135420039Y-113357224D01*
X135420039Y-113357225D01*
X135512151Y-113554762D01*
X135512154Y-113554767D01*
X135514477Y-113559749D01*
X135645802Y-113747300D01*
X135807700Y-113909198D01*
X135812208Y-113912355D01*
X135812211Y-113912357D01*
X135860798Y-113946378D01*
X135995251Y-114040523D01*
X136000233Y-114042846D01*
X136000238Y-114042849D01*
X136153345Y-114114243D01*
X136202757Y-114137284D01*
X136208065Y-114138706D01*
X136208067Y-114138707D01*
X136418598Y-114195119D01*
X136418600Y-114195119D01*
X136423913Y-114196543D01*
X136652000Y-114216498D01*
X136880087Y-114196543D01*
X136885400Y-114195119D01*
X136885402Y-114195119D01*
X137095933Y-114138707D01*
X137095935Y-114138706D01*
X137101243Y-114137284D01*
X137150655Y-114114243D01*
X137303762Y-114042849D01*
X137303767Y-114042846D01*
X137308749Y-114040523D01*
X137443202Y-113946378D01*
X137491789Y-113912357D01*
X137491792Y-113912355D01*
X137496300Y-113909198D01*
X137658198Y-113747300D01*
X137789523Y-113559749D01*
X137791846Y-113554767D01*
X137791849Y-113554762D01*
X137883961Y-113357225D01*
X137883961Y-113357224D01*
X137886284Y-113352243D01*
X137919440Y-113228506D01*
X137944119Y-113136402D01*
X137944119Y-113136400D01*
X137945543Y-113131087D01*
X137965498Y-112903000D01*
X137945543Y-112674913D01*
X137886284Y-112453757D01*
X137883959Y-112448770D01*
X137791849Y-112251238D01*
X137791846Y-112251233D01*
X137789523Y-112246251D01*
X137685854Y-112098197D01*
X137661357Y-112063211D01*
X137661355Y-112063208D01*
X137658198Y-112058700D01*
X137496300Y-111896802D01*
X137491792Y-111893645D01*
X137491789Y-111893643D01*
X137401947Y-111830735D01*
X137308749Y-111765477D01*
X137303767Y-111763154D01*
X137303762Y-111763151D01*
X137106225Y-111671039D01*
X137106224Y-111671039D01*
X137101243Y-111668716D01*
X137095935Y-111667294D01*
X137095933Y-111667293D01*
X137001094Y-111641881D01*
X136880087Y-111609457D01*
X136874598Y-111608977D01*
X136869194Y-111608024D01*
X136869646Y-111605458D01*
X136813675Y-111583482D01*
X136772108Y-111525926D01*
X136764900Y-111483922D01*
X136764900Y-110547208D01*
X136784902Y-110479087D01*
X136818629Y-110443995D01*
X136943789Y-110356357D01*
X136943792Y-110356355D01*
X136948300Y-110353198D01*
X137110198Y-110191300D01*
X137117357Y-110181077D01*
X137178885Y-110093205D01*
X137241523Y-110003749D01*
X137243846Y-109998767D01*
X137243849Y-109998762D01*
X137335961Y-109801225D01*
X137335961Y-109801224D01*
X137338284Y-109796243D01*
X137341933Y-109782627D01*
X137396119Y-109580402D01*
X137396119Y-109580400D01*
X137397543Y-109575087D01*
X137417498Y-109347000D01*
X137397543Y-109118913D01*
X137371526Y-109021816D01*
X137339707Y-108903067D01*
X137339706Y-108903065D01*
X137338284Y-108897757D01*
X137326876Y-108873293D01*
X137243849Y-108695238D01*
X137243846Y-108695233D01*
X137241523Y-108690251D01*
X137110198Y-108502700D01*
X137052493Y-108444995D01*
X137018467Y-108382683D01*
X137023532Y-108311868D01*
X137066079Y-108255032D01*
X137132599Y-108230221D01*
X137141588Y-108229900D01*
X140815737Y-108229900D01*
X140824308Y-108230192D01*
X140877843Y-108233842D01*
X140885320Y-108232537D01*
X140885321Y-108232537D01*
X140910626Y-108228121D01*
X140936347Y-108223631D01*
X140942865Y-108222670D01*
X140961223Y-108220448D01*
X140994262Y-108216450D01*
X140994264Y-108216450D01*
X141001805Y-108215537D01*
X141008913Y-108212851D01*
X141015879Y-108211140D01*
X141021068Y-108209721D01*
X141027947Y-108207644D01*
X141035424Y-108206339D01*
X141089795Y-108182471D01*
X141095886Y-108179986D01*
X141144336Y-108161679D01*
X141144338Y-108161678D01*
X141151441Y-108158994D01*
X141157702Y-108154691D01*
X141164026Y-108151385D01*
X141168798Y-108148729D01*
X141174944Y-108145094D01*
X141181896Y-108142042D01*
X141229001Y-108105898D01*
X141234334Y-108102023D01*
X141283271Y-108068389D01*
X141321769Y-108025180D01*
X141326749Y-108019905D01*
X144720047Y-104626607D01*
X144726313Y-104620753D01*
X144761025Y-104590472D01*
X144766752Y-104585476D01*
X144800882Y-104536913D01*
X144804814Y-104531618D01*
X144836777Y-104490855D01*
X144841463Y-104484879D01*
X144844589Y-104477955D01*
X144848302Y-104471824D01*
X144850938Y-104467204D01*
X144854360Y-104460822D01*
X144858731Y-104454603D01*
X144880299Y-104399286D01*
X144882854Y-104393207D01*
X144890064Y-104377238D01*
X144907289Y-104339088D01*
X144908675Y-104331612D01*
X144910830Y-104324734D01*
X144912290Y-104319609D01*
X144914078Y-104312645D01*
X144916838Y-104305566D01*
X144924587Y-104246700D01*
X144925618Y-104240189D01*
X144933081Y-104199925D01*
X144936440Y-104181803D01*
X144933109Y-104124032D01*
X144932900Y-104116780D01*
X144932900Y-103073208D01*
X144952902Y-103005087D01*
X144986629Y-102969995D01*
X145111789Y-102882357D01*
X145111792Y-102882355D01*
X145116300Y-102879198D01*
X145278198Y-102717300D01*
X145409523Y-102529749D01*
X145411846Y-102524767D01*
X145411849Y-102524762D01*
X145503961Y-102327225D01*
X145503961Y-102327224D01*
X145506284Y-102322243D01*
X145520680Y-102268519D01*
X145564119Y-102106402D01*
X145564119Y-102106400D01*
X145565543Y-102101087D01*
X145575310Y-101989451D01*
X145580262Y-101932851D01*
X145580262Y-101932844D01*
X145580500Y-101930127D01*
X145580500Y-101015873D01*
X145565543Y-100844913D01*
X145506284Y-100623757D01*
X145464276Y-100533669D01*
X145411849Y-100421238D01*
X145411846Y-100421233D01*
X145409523Y-100416251D01*
X145305797Y-100268115D01*
X145281357Y-100233211D01*
X145281355Y-100233208D01*
X145278198Y-100228700D01*
X145116300Y-100066802D01*
X145111792Y-100063645D01*
X145111789Y-100063643D01*
X145015170Y-99995990D01*
X144928749Y-99935477D01*
X144923767Y-99933154D01*
X144923762Y-99933151D01*
X144726225Y-99841039D01*
X144726224Y-99841039D01*
X144721243Y-99838716D01*
X144600560Y-99806379D01*
X144539938Y-99769427D01*
X144508916Y-99705566D01*
X144517345Y-99635072D01*
X144544077Y-99595577D01*
X148669611Y-95470043D01*
X148731923Y-95436017D01*
X148802738Y-95441082D01*
X148811955Y-95444943D01*
X148897768Y-95484958D01*
X148897772Y-95484959D01*
X148902757Y-95487284D01*
X148971441Y-95505688D01*
X149118598Y-95545119D01*
X149118600Y-95545119D01*
X149123913Y-95546543D01*
X149352000Y-95566498D01*
X149580087Y-95546543D01*
X149585400Y-95545119D01*
X149585402Y-95545119D01*
X149795933Y-95488707D01*
X149795935Y-95488706D01*
X149801243Y-95487284D01*
X149838217Y-95470043D01*
X150003762Y-95392849D01*
X150003767Y-95392846D01*
X150008749Y-95390523D01*
X150113611Y-95317098D01*
X150191789Y-95262357D01*
X150191792Y-95262355D01*
X150196300Y-95259198D01*
X150358198Y-95097300D01*
X150362820Y-95090700D01*
X150486366Y-94914257D01*
X150489523Y-94909749D01*
X150491846Y-94904767D01*
X150491849Y-94904762D01*
X150507805Y-94870543D01*
X150554722Y-94817258D01*
X150622999Y-94797797D01*
X150690959Y-94818339D01*
X150736195Y-94870543D01*
X150752151Y-94904762D01*
X150752154Y-94904767D01*
X150754477Y-94909749D01*
X150757634Y-94914257D01*
X150881181Y-95090700D01*
X150885802Y-95097300D01*
X151047700Y-95259198D01*
X151052208Y-95262355D01*
X151052211Y-95262357D01*
X151130389Y-95317098D01*
X151235251Y-95390523D01*
X151240233Y-95392846D01*
X151240238Y-95392849D01*
X151405783Y-95470043D01*
X151442757Y-95487284D01*
X151448065Y-95488706D01*
X151448067Y-95488707D01*
X151658598Y-95545119D01*
X151658600Y-95545119D01*
X151663913Y-95546543D01*
X151892000Y-95566498D01*
X152120087Y-95546543D01*
X152125400Y-95545119D01*
X152125402Y-95545119D01*
X152341243Y-95487284D01*
X152341842Y-95489520D01*
X152402816Y-95485623D01*
X152464869Y-95520120D01*
X152498420Y-95582688D01*
X152501100Y-95608537D01*
X152501100Y-99717463D01*
X152481098Y-99785584D01*
X152427442Y-99832077D01*
X152357168Y-99842181D01*
X152341378Y-99838214D01*
X152341243Y-99838716D01*
X152125402Y-99780881D01*
X152125400Y-99780881D01*
X152120087Y-99779457D01*
X151892000Y-99759502D01*
X151663913Y-99779457D01*
X151658600Y-99780881D01*
X151658598Y-99780881D01*
X151448067Y-99837293D01*
X151448065Y-99837294D01*
X151442757Y-99838716D01*
X151437775Y-99841039D01*
X151437770Y-99841041D01*
X151351954Y-99881057D01*
X151281763Y-99891718D01*
X151216950Y-99862738D01*
X151209610Y-99855957D01*
X150600614Y-99246961D01*
X150594760Y-99240695D01*
X150568457Y-99210543D01*
X150559476Y-99200248D01*
X150510898Y-99166107D01*
X150505604Y-99162175D01*
X150505352Y-99161977D01*
X150458879Y-99125537D01*
X150451955Y-99122411D01*
X150445824Y-99118698D01*
X150441204Y-99116062D01*
X150434822Y-99112640D01*
X150428603Y-99108269D01*
X150373286Y-99086701D01*
X150367207Y-99084146D01*
X150361393Y-99081521D01*
X150313088Y-99059711D01*
X150305612Y-99058325D01*
X150298734Y-99056170D01*
X150293609Y-99054710D01*
X150286645Y-99052922D01*
X150279566Y-99050162D01*
X150272034Y-99049170D01*
X150272032Y-99049170D01*
X150246804Y-99045849D01*
X150220700Y-99042413D01*
X150214202Y-99041384D01*
X150155803Y-99030560D01*
X150148223Y-99030997D01*
X150148222Y-99030997D01*
X150098033Y-99033891D01*
X150090780Y-99034100D01*
X148979314Y-99034100D01*
X148970743Y-99033808D01*
X148917208Y-99030158D01*
X148909731Y-99031463D01*
X148909730Y-99031463D01*
X148896294Y-99033808D01*
X148858704Y-99040369D01*
X148852186Y-99041330D01*
X148846802Y-99041982D01*
X148800789Y-99047550D01*
X148800787Y-99047550D01*
X148793246Y-99048463D01*
X148786138Y-99051149D01*
X148779172Y-99052860D01*
X148773983Y-99054279D01*
X148767104Y-99056356D01*
X148759627Y-99057661D01*
X148705256Y-99081529D01*
X148699170Y-99084012D01*
X148695219Y-99085505D01*
X148650715Y-99102321D01*
X148650713Y-99102322D01*
X148643610Y-99105006D01*
X148637349Y-99109309D01*
X148631025Y-99112615D01*
X148626253Y-99115271D01*
X148620107Y-99118906D01*
X148613155Y-99121958D01*
X148602384Y-99130223D01*
X148566050Y-99158102D01*
X148560723Y-99161973D01*
X148511780Y-99195611D01*
X148506723Y-99201287D01*
X148473291Y-99238810D01*
X148468311Y-99244086D01*
X147646754Y-100065644D01*
X147640488Y-100071497D01*
X147600048Y-100106775D01*
X147584156Y-100129387D01*
X147565909Y-100155350D01*
X147561977Y-100160644D01*
X147525337Y-100207372D01*
X147522211Y-100214296D01*
X147518498Y-100220427D01*
X147515862Y-100225047D01*
X147512440Y-100231429D01*
X147508069Y-100237648D01*
X147505309Y-100244727D01*
X147486502Y-100292964D01*
X147483946Y-100299043D01*
X147459511Y-100353163D01*
X147458125Y-100360639D01*
X147455970Y-100367517D01*
X147454510Y-100372642D01*
X147452722Y-100379606D01*
X147449962Y-100386685D01*
X147442964Y-100439849D01*
X147442214Y-100445543D01*
X147441184Y-100452049D01*
X147430360Y-100510448D01*
X147430797Y-100518028D01*
X147430797Y-100518029D01*
X147433691Y-100568218D01*
X147433900Y-100575471D01*
X147433900Y-103236537D01*
X147433608Y-103245108D01*
X147429958Y-103298643D01*
X147431263Y-103306120D01*
X147431263Y-103306121D01*
X147440168Y-103357143D01*
X147441130Y-103363665D01*
X147448263Y-103422605D01*
X147450949Y-103429713D01*
X147452660Y-103436679D01*
X147454079Y-103441868D01*
X147456156Y-103448747D01*
X147457461Y-103456224D01*
X147481329Y-103510595D01*
X147483812Y-103516681D01*
X147504806Y-103572241D01*
X147509109Y-103578502D01*
X147512415Y-103584826D01*
X147515071Y-103589598D01*
X147518706Y-103595744D01*
X147521758Y-103602696D01*
X147536695Y-103622162D01*
X147557902Y-103649801D01*
X147561773Y-103655128D01*
X147595411Y-103704071D01*
X147618566Y-103724701D01*
X147638619Y-103742568D01*
X147643895Y-103747549D01*
X148654195Y-104757849D01*
X148688221Y-104820161D01*
X148691100Y-104846944D01*
X148691100Y-105973055D01*
X148671098Y-106041176D01*
X148654196Y-106062150D01*
X147845152Y-106871195D01*
X147782839Y-106905220D01*
X147756056Y-106908100D01*
X144085252Y-106908100D01*
X144076682Y-106907808D01*
X144030732Y-106904675D01*
X144030728Y-106904675D01*
X144023156Y-106904159D01*
X144015679Y-106905464D01*
X144015677Y-106905464D01*
X143979500Y-106911778D01*
X143964662Y-106914368D01*
X143958144Y-106915329D01*
X143954677Y-106915749D01*
X143906737Y-106921550D01*
X143906734Y-106921551D01*
X143899195Y-106922463D01*
X143892087Y-106925149D01*
X143885121Y-106926860D01*
X143879932Y-106928279D01*
X143873053Y-106930356D01*
X143865576Y-106931661D01*
X143858624Y-106934713D01*
X143858623Y-106934713D01*
X143811220Y-106955522D01*
X143805111Y-106958015D01*
X143756664Y-106976321D01*
X143756662Y-106976322D01*
X143749559Y-106979006D01*
X143743302Y-106983306D01*
X143736925Y-106986640D01*
X143732255Y-106989240D01*
X143726058Y-106992905D01*
X143719103Y-106995958D01*
X143713079Y-107000580D01*
X143713078Y-107000581D01*
X143671995Y-107032106D01*
X143666657Y-107035984D01*
X143623988Y-107065309D01*
X143623986Y-107065311D01*
X143617729Y-107069611D01*
X143612677Y-107075281D01*
X143612676Y-107075282D01*
X143579232Y-107112819D01*
X143574251Y-107118095D01*
X142728465Y-107963882D01*
X141900688Y-108791659D01*
X141838376Y-108825684D01*
X141778982Y-108824271D01*
X141751402Y-108816881D01*
X141751400Y-108816881D01*
X141746087Y-108815457D01*
X141518000Y-108795502D01*
X141289913Y-108815457D01*
X141284600Y-108816881D01*
X141284598Y-108816881D01*
X141074067Y-108873293D01*
X141074065Y-108873294D01*
X141068757Y-108874716D01*
X141063776Y-108877039D01*
X141063775Y-108877039D01*
X140866238Y-108969151D01*
X140866233Y-108969154D01*
X140861251Y-108971477D01*
X140782493Y-109026624D01*
X140678211Y-109099643D01*
X140678208Y-109099645D01*
X140673700Y-109102802D01*
X140511802Y-109264700D01*
X140380477Y-109452251D01*
X140378154Y-109457233D01*
X140378151Y-109457238D01*
X140286039Y-109654775D01*
X140283716Y-109659757D01*
X140282294Y-109665065D01*
X140282293Y-109665067D01*
X140255026Y-109766827D01*
X140224457Y-109880913D01*
X140204502Y-110109000D01*
X140224457Y-110337087D01*
X140225881Y-110342400D01*
X140225881Y-110342402D01*
X140263963Y-110484523D01*
X140283716Y-110558243D01*
X140286039Y-110563224D01*
X140286039Y-110563225D01*
X140378151Y-110760762D01*
X140378154Y-110760767D01*
X140380477Y-110765749D01*
X140511802Y-110953300D01*
X140673700Y-111115198D01*
X140678208Y-111118355D01*
X140678211Y-111118357D01*
X140696156Y-111130922D01*
X140861251Y-111246523D01*
X140866233Y-111248846D01*
X140866238Y-111248849D01*
X141063775Y-111340961D01*
X141068757Y-111343284D01*
X141074065Y-111344706D01*
X141074067Y-111344707D01*
X141284598Y-111401119D01*
X141284600Y-111401119D01*
X141289913Y-111402543D01*
X141518000Y-111422498D01*
X141746087Y-111402543D01*
X141751398Y-111401120D01*
X141751409Y-111401118D01*
X141778980Y-111393730D01*
X141849956Y-111395419D01*
X141900687Y-111426341D01*
X143063386Y-112589039D01*
X143069239Y-112595304D01*
X143104524Y-112635752D01*
X143110738Y-112640119D01*
X143153099Y-112669891D01*
X143158393Y-112673823D01*
X143205121Y-112710463D01*
X143212047Y-112713590D01*
X143218176Y-112717302D01*
X143222815Y-112719949D01*
X143229182Y-112723363D01*
X143235397Y-112727731D01*
X143242472Y-112730490D01*
X143242475Y-112730491D01*
X143290703Y-112749294D01*
X143296781Y-112751849D01*
X143350912Y-112776290D01*
X143358380Y-112777674D01*
X143365196Y-112779810D01*
X143370368Y-112781284D01*
X143377353Y-112783077D01*
X143384434Y-112785838D01*
X143391971Y-112786830D01*
X143391970Y-112786830D01*
X143443289Y-112793586D01*
X143449805Y-112794618D01*
X143500728Y-112804056D01*
X143500730Y-112804056D01*
X143508197Y-112805440D01*
X143515777Y-112805003D01*
X143515778Y-112805003D01*
X143565968Y-112802109D01*
X143573221Y-112801900D01*
X148381605Y-112801900D01*
X148449726Y-112821902D01*
X148496356Y-112876240D01*
X148497220Y-112878646D01*
X148499433Y-112882765D01*
X148499435Y-112882769D01*
X148562519Y-113000173D01*
X148624450Y-113115431D01*
X148627241Y-113119168D01*
X148627245Y-113119175D01*
X148699367Y-113215757D01*
X148785281Y-113330810D01*
X148788590Y-113334090D01*
X148788595Y-113334096D01*
X148935107Y-113479334D01*
X148976180Y-113520050D01*
X148979942Y-113522808D01*
X148979945Y-113522811D01*
X149166400Y-113659525D01*
X149192954Y-113678995D01*
X149197089Y-113681171D01*
X149197093Y-113681173D01*
X149330066Y-113751134D01*
X149430840Y-113804154D01*
X149487553Y-113823959D01*
X149639933Y-113877172D01*
X149684613Y-113892775D01*
X149689206Y-113893647D01*
X149944109Y-113942042D01*
X149944112Y-113942042D01*
X149948698Y-113942913D01*
X150076370Y-113947929D01*
X150212625Y-113953283D01*
X150212630Y-113953283D01*
X150217293Y-113953466D01*
X150328410Y-113941297D01*
X150479844Y-113924713D01*
X150479850Y-113924712D01*
X150484497Y-113924203D01*
X150541490Y-113909198D01*
X150739918Y-113856956D01*
X150739920Y-113856955D01*
X150744441Y-113855765D01*
X150748736Y-113853920D01*
X150748744Y-113853917D01*
X150798657Y-113832472D01*
X150869142Y-113823959D01*
X150937491Y-113859144D01*
X151699386Y-114621039D01*
X151705239Y-114627304D01*
X151740524Y-114667752D01*
X151746738Y-114672119D01*
X151789099Y-114701891D01*
X151794393Y-114705823D01*
X151841121Y-114742463D01*
X151848047Y-114745590D01*
X151854176Y-114749302D01*
X151858815Y-114751949D01*
X151865182Y-114755363D01*
X151871397Y-114759731D01*
X151878472Y-114762490D01*
X151878475Y-114762491D01*
X151926703Y-114781294D01*
X151932781Y-114783849D01*
X151986912Y-114808290D01*
X151994380Y-114809674D01*
X152001196Y-114811810D01*
X152006368Y-114813284D01*
X152013353Y-114815077D01*
X152020434Y-114817838D01*
X152027971Y-114818830D01*
X152027970Y-114818830D01*
X152079289Y-114825586D01*
X152085805Y-114826618D01*
X152136728Y-114836056D01*
X152136730Y-114836056D01*
X152144197Y-114837440D01*
X152151777Y-114837003D01*
X152151778Y-114837003D01*
X152201968Y-114834109D01*
X152209221Y-114833900D01*
X161358606Y-114833900D01*
X161411856Y-114845705D01*
X161526757Y-114899284D01*
X161532065Y-114900706D01*
X161532067Y-114900707D01*
X161742598Y-114957119D01*
X161742600Y-114957119D01*
X161747913Y-114958543D01*
X161976000Y-114978498D01*
X162204087Y-114958543D01*
X162209400Y-114957119D01*
X162209402Y-114957119D01*
X162419933Y-114900707D01*
X162419935Y-114900706D01*
X162425243Y-114899284D01*
X162430225Y-114896961D01*
X162627762Y-114804849D01*
X162627767Y-114804846D01*
X162632749Y-114802523D01*
X162776466Y-114701891D01*
X162815789Y-114674357D01*
X162815792Y-114674355D01*
X162820300Y-114671198D01*
X162982198Y-114509300D01*
X163113523Y-114321749D01*
X163115846Y-114316767D01*
X163115849Y-114316762D01*
X163207961Y-114119225D01*
X163207961Y-114119224D01*
X163210284Y-114114243D01*
X163229632Y-114042038D01*
X163268119Y-113898402D01*
X163268119Y-113898400D01*
X163269543Y-113893087D01*
X163289498Y-113665000D01*
X163269543Y-113436913D01*
X163264666Y-113418712D01*
X163211707Y-113221067D01*
X163211706Y-113221064D01*
X163210284Y-113215757D01*
X163177105Y-113144604D01*
X163115849Y-113013238D01*
X163115846Y-113013233D01*
X163113523Y-113008251D01*
X163107867Y-113000173D01*
X163085177Y-112932900D01*
X163102460Y-112864039D01*
X163154229Y-112815454D01*
X163211078Y-112801900D01*
X165968106Y-112801900D01*
X166036227Y-112821902D01*
X166057201Y-112838805D01*
X168588643Y-115370247D01*
X168594496Y-115376512D01*
X168629774Y-115416952D01*
X168678343Y-115451087D01*
X168683636Y-115455018D01*
X168686281Y-115457092D01*
X168730372Y-115491663D01*
X168737300Y-115494791D01*
X168743456Y-115498519D01*
X168748075Y-115501154D01*
X168754431Y-115504562D01*
X168760647Y-115508931D01*
X168767726Y-115511691D01*
X168815948Y-115530492D01*
X168822029Y-115533048D01*
X168876162Y-115557490D01*
X168883636Y-115558875D01*
X168890470Y-115561017D01*
X168895618Y-115562484D01*
X168902603Y-115564277D01*
X168909684Y-115567038D01*
X168934007Y-115570240D01*
X168968539Y-115574786D01*
X168975055Y-115575818D01*
X169025978Y-115585256D01*
X169025980Y-115585256D01*
X169033447Y-115586640D01*
X169041027Y-115586203D01*
X169041028Y-115586203D01*
X169091218Y-115583309D01*
X169098471Y-115583100D01*
X170089487Y-115583100D01*
X170098058Y-115583392D01*
X170151593Y-115587042D01*
X170159070Y-115585737D01*
X170159071Y-115585737D01*
X170184376Y-115581321D01*
X170210097Y-115576831D01*
X170216615Y-115575870D01*
X170234973Y-115573648D01*
X170268012Y-115569650D01*
X170268014Y-115569650D01*
X170275555Y-115568737D01*
X170282663Y-115566051D01*
X170289629Y-115564340D01*
X170294818Y-115562921D01*
X170301697Y-115560844D01*
X170309174Y-115559539D01*
X170363545Y-115535671D01*
X170369636Y-115533186D01*
X170370002Y-115533048D01*
X170387032Y-115526613D01*
X170418086Y-115514879D01*
X170418088Y-115514878D01*
X170425191Y-115512194D01*
X170431452Y-115507891D01*
X170437776Y-115504585D01*
X170442548Y-115501929D01*
X170448694Y-115498294D01*
X170455646Y-115495242D01*
X170502751Y-115459098D01*
X170508084Y-115455223D01*
X170557021Y-115421589D01*
X170595519Y-115378380D01*
X170600499Y-115373105D01*
X171644039Y-114329564D01*
X171650305Y-114323710D01*
X171685027Y-114293420D01*
X171690752Y-114288426D01*
X171724893Y-114239848D01*
X171728825Y-114234554D01*
X171747192Y-114211131D01*
X171765463Y-114187829D01*
X171768589Y-114180905D01*
X171772302Y-114174774D01*
X171774938Y-114170154D01*
X171778360Y-114163772D01*
X171782731Y-114157553D01*
X171804299Y-114102236D01*
X171806854Y-114096157D01*
X171831289Y-114042038D01*
X171832675Y-114034562D01*
X171834830Y-114027684D01*
X171836290Y-114022559D01*
X171838078Y-114015595D01*
X171840838Y-114008516D01*
X171848587Y-113949650D01*
X171849618Y-113943139D01*
X171849660Y-113942913D01*
X171860440Y-113884753D01*
X171857109Y-113826982D01*
X171856900Y-113819729D01*
X171856900Y-109374252D01*
X171857192Y-109365682D01*
X171860325Y-109319732D01*
X171860325Y-109319728D01*
X171860841Y-109312156D01*
X171850632Y-109253662D01*
X171849670Y-109247140D01*
X171843450Y-109195737D01*
X171843449Y-109195734D01*
X171842537Y-109188195D01*
X171839851Y-109181087D01*
X171838140Y-109174121D01*
X171836721Y-109168932D01*
X171834644Y-109162053D01*
X171833339Y-109154576D01*
X171824046Y-109133405D01*
X171812322Y-109106699D01*
X171809476Y-109100215D01*
X171806985Y-109094111D01*
X171805292Y-109089629D01*
X171785994Y-109038559D01*
X171781694Y-109032302D01*
X171778360Y-109025925D01*
X171775760Y-109021255D01*
X171772095Y-109015058D01*
X171769042Y-109008103D01*
X171732894Y-108960995D01*
X171729016Y-108955657D01*
X171699691Y-108912988D01*
X171699689Y-108912986D01*
X171695389Y-108906729D01*
X171679728Y-108892775D01*
X171652181Y-108868232D01*
X171646905Y-108863251D01*
X170185306Y-107401653D01*
X170151281Y-107339341D01*
X170148401Y-107312558D01*
X170148401Y-103293249D01*
X170168403Y-103225128D01*
X170222059Y-103178635D01*
X170292333Y-103168531D01*
X170348906Y-103191637D01*
X170425278Y-103247635D01*
X170448954Y-103264995D01*
X170453089Y-103267171D01*
X170453093Y-103267173D01*
X170681767Y-103387485D01*
X170686840Y-103390154D01*
X170940613Y-103478775D01*
X170945206Y-103479647D01*
X171200109Y-103528042D01*
X171200112Y-103528042D01*
X171204698Y-103528913D01*
X171332370Y-103533929D01*
X171468625Y-103539283D01*
X171468630Y-103539283D01*
X171473293Y-103539466D01*
X171577607Y-103528042D01*
X171735844Y-103510713D01*
X171735850Y-103510712D01*
X171740497Y-103510203D01*
X171745021Y-103509012D01*
X171995918Y-103442956D01*
X171995920Y-103442955D01*
X172000441Y-103441765D01*
X172006914Y-103438984D01*
X172243120Y-103337502D01*
X172243122Y-103337501D01*
X172247414Y-103335657D01*
X172366071Y-103262230D01*
X172472017Y-103196669D01*
X172472021Y-103196666D01*
X172475990Y-103194210D01*
X172681149Y-103020530D01*
X172858382Y-102818434D01*
X172876212Y-102790715D01*
X173001269Y-102596291D01*
X173003797Y-102592361D01*
X173114199Y-102347278D01*
X173148735Y-102224822D01*
X173185893Y-102093072D01*
X173185894Y-102093069D01*
X173187163Y-102088568D01*
X173205043Y-101948019D01*
X173220688Y-101825045D01*
X173220688Y-101825041D01*
X173221086Y-101821915D01*
X173223571Y-101727000D01*
X173221096Y-101693695D01*
X173203996Y-101463592D01*
X173203996Y-101463591D01*
X173203650Y-101458937D01*
X173192020Y-101407538D01*
X173145361Y-101201331D01*
X173145360Y-101201326D01*
X173144327Y-101196763D01*
X173046902Y-100946238D01*
X172913518Y-100712864D01*
X172747105Y-100501769D01*
X172551317Y-100317591D01*
X172380899Y-100199367D01*
X172334299Y-100167039D01*
X172334296Y-100167037D01*
X172330457Y-100164374D01*
X172323490Y-100160938D01*
X172141172Y-100071029D01*
X172088923Y-100022961D01*
X172070900Y-99958023D01*
X172070900Y-99896267D01*
X172071192Y-99887697D01*
X172074326Y-99841733D01*
X172074326Y-99841729D01*
X172074842Y-99834157D01*
X172073209Y-99824797D01*
X172064631Y-99775651D01*
X172063673Y-99769167D01*
X172056537Y-99710195D01*
X172053851Y-99703087D01*
X172052135Y-99696101D01*
X172050733Y-99690975D01*
X172048647Y-99684065D01*
X172047340Y-99676577D01*
X172023480Y-99622223D01*
X172020987Y-99616115D01*
X172002678Y-99567662D01*
X171999994Y-99560559D01*
X171995693Y-99554301D01*
X171992385Y-99547973D01*
X171989732Y-99543208D01*
X171986095Y-99537059D01*
X171983042Y-99530104D01*
X171946889Y-99482989D01*
X171943036Y-99477685D01*
X171913694Y-99434992D01*
X171913692Y-99434989D01*
X171909389Y-99428729D01*
X171866171Y-99390223D01*
X171860896Y-99385243D01*
X167981341Y-95505688D01*
X167947315Y-95443376D01*
X167948729Y-95383982D01*
X167956119Y-95356402D01*
X167956119Y-95356400D01*
X167957543Y-95351087D01*
X167977498Y-95123000D01*
X167957543Y-94894913D01*
X167931521Y-94797797D01*
X167899707Y-94679067D01*
X167899706Y-94679065D01*
X167898284Y-94673757D01*
X167893085Y-94662608D01*
X167803849Y-94471238D01*
X167803846Y-94471233D01*
X167801523Y-94466251D01*
X167713470Y-94340498D01*
X167673357Y-94283211D01*
X167673355Y-94283208D01*
X167670198Y-94278700D01*
X167508300Y-94116802D01*
X167503792Y-94113645D01*
X167503789Y-94113643D01*
X167397716Y-94039370D01*
X167320749Y-93985477D01*
X167315767Y-93983154D01*
X167315762Y-93983151D01*
X167118225Y-93891039D01*
X167118224Y-93891039D01*
X167113243Y-93888716D01*
X167107935Y-93887294D01*
X167107933Y-93887293D01*
X166897402Y-93830881D01*
X166897400Y-93830881D01*
X166892087Y-93829457D01*
X166664000Y-93809502D01*
X166435913Y-93829457D01*
X166430600Y-93830881D01*
X166430598Y-93830881D01*
X166220067Y-93887293D01*
X166220065Y-93887294D01*
X166214757Y-93888716D01*
X166209776Y-93891039D01*
X166209775Y-93891039D01*
X166012238Y-93983151D01*
X166012233Y-93983154D01*
X166007251Y-93985477D01*
X165930284Y-94039370D01*
X165824211Y-94113643D01*
X165824208Y-94113645D01*
X165819700Y-94116802D01*
X165657802Y-94278700D01*
X165654645Y-94283208D01*
X165654643Y-94283211D01*
X165614530Y-94340498D01*
X165526477Y-94466251D01*
X165524154Y-94471233D01*
X165524151Y-94471238D01*
X165434915Y-94662608D01*
X165429716Y-94673757D01*
X165428294Y-94679065D01*
X165428293Y-94679067D01*
X165396479Y-94797797D01*
X165370457Y-94894913D01*
X165369978Y-94900389D01*
X165369977Y-94900394D01*
X165353328Y-95090700D01*
X165327465Y-95156819D01*
X165269961Y-95198458D01*
X165199074Y-95202399D01*
X165138712Y-95168814D01*
X163437488Y-93467590D01*
X161736132Y-91766235D01*
X161702106Y-91703923D01*
X161707171Y-91633108D01*
X161749718Y-91576272D01*
X161816238Y-91551461D01*
X161836208Y-91551619D01*
X162046524Y-91570019D01*
X162046525Y-91570019D01*
X162052000Y-91570498D01*
X162280087Y-91550543D01*
X162285400Y-91549119D01*
X162285402Y-91549119D01*
X162495933Y-91492707D01*
X162495935Y-91492706D01*
X162501243Y-91491284D01*
X162513795Y-91485431D01*
X162703762Y-91396849D01*
X162703767Y-91396846D01*
X162708749Y-91394523D01*
X162830635Y-91309177D01*
X162891789Y-91266357D01*
X162891792Y-91266355D01*
X162896300Y-91263198D01*
X162950693Y-91208805D01*
X163013005Y-91174779D01*
X163039788Y-91171900D01*
X166629605Y-91171900D01*
X166697726Y-91191902D01*
X166744356Y-91246240D01*
X166745220Y-91248646D01*
X166747433Y-91252765D01*
X166747435Y-91252769D01*
X166818456Y-91384944D01*
X166872450Y-91485431D01*
X166875241Y-91489168D01*
X166875245Y-91489175D01*
X166982726Y-91633108D01*
X167033281Y-91700810D01*
X167036590Y-91704090D01*
X167036595Y-91704096D01*
X167208518Y-91874524D01*
X167224180Y-91890050D01*
X167227942Y-91892808D01*
X167227945Y-91892811D01*
X167375097Y-92000707D01*
X167440954Y-92048995D01*
X167445089Y-92051171D01*
X167445093Y-92051173D01*
X167668597Y-92168765D01*
X167678840Y-92174154D01*
X167932613Y-92262775D01*
X167937206Y-92263647D01*
X168192109Y-92312042D01*
X168192112Y-92312042D01*
X168196698Y-92312913D01*
X168324370Y-92317929D01*
X168460625Y-92323283D01*
X168460630Y-92323283D01*
X168465293Y-92323466D01*
X168549927Y-92314197D01*
X168727844Y-92294713D01*
X168727850Y-92294712D01*
X168732497Y-92294203D01*
X168844158Y-92264805D01*
X168987918Y-92226956D01*
X168987920Y-92226955D01*
X168992441Y-92225765D01*
X168996739Y-92223918D01*
X168996743Y-92223917D01*
X169046659Y-92202472D01*
X169117144Y-92193960D01*
X169185491Y-92229145D01*
X170862589Y-93906243D01*
X170896615Y-93968555D01*
X170891550Y-94039370D01*
X170845765Y-94098551D01*
X170824211Y-94113643D01*
X170824208Y-94113645D01*
X170819700Y-94116802D01*
X170657802Y-94278700D01*
X170654645Y-94283208D01*
X170654643Y-94283211D01*
X170614530Y-94340498D01*
X170526477Y-94466251D01*
X170524154Y-94471233D01*
X170524151Y-94471238D01*
X170434915Y-94662608D01*
X170429716Y-94673757D01*
X170428294Y-94679065D01*
X170428293Y-94679067D01*
X170396479Y-94797797D01*
X170370457Y-94894913D01*
X170350502Y-95123000D01*
X170370457Y-95351087D01*
X170371881Y-95356400D01*
X170371881Y-95356402D01*
X170428177Y-95566498D01*
X170429716Y-95572243D01*
X170432039Y-95577224D01*
X170432039Y-95577225D01*
X170524151Y-95774762D01*
X170524154Y-95774767D01*
X170526477Y-95779749D01*
X170599902Y-95884611D01*
X170639111Y-95940606D01*
X170657802Y-95967300D01*
X170819700Y-96129198D01*
X170824208Y-96132355D01*
X170824211Y-96132357D01*
X170840202Y-96143554D01*
X171007251Y-96260523D01*
X171012233Y-96262846D01*
X171012238Y-96262849D01*
X171156949Y-96330328D01*
X171214757Y-96357284D01*
X171220065Y-96358706D01*
X171220067Y-96358707D01*
X171430598Y-96415119D01*
X171430600Y-96415119D01*
X171435913Y-96416543D01*
X171664000Y-96436498D01*
X171892087Y-96416543D01*
X171897400Y-96415119D01*
X171897402Y-96415119D01*
X172107933Y-96358707D01*
X172107935Y-96358706D01*
X172113243Y-96357284D01*
X172171051Y-96330328D01*
X172315762Y-96262849D01*
X172315767Y-96262846D01*
X172320749Y-96260523D01*
X172487798Y-96143554D01*
X172503789Y-96132357D01*
X172503792Y-96132355D01*
X172508300Y-96129198D01*
X172670198Y-95967300D01*
X172688890Y-95940606D01*
X172728098Y-95884611D01*
X172801523Y-95779749D01*
X172803846Y-95774767D01*
X172803849Y-95774762D01*
X172895961Y-95577225D01*
X172895961Y-95577224D01*
X172898284Y-95572243D01*
X172899824Y-95566498D01*
X172956119Y-95356402D01*
X172956119Y-95356400D01*
X172957543Y-95351087D01*
X172977498Y-95123000D01*
X172957543Y-94894913D01*
X172931521Y-94797797D01*
X172899707Y-94679067D01*
X172899706Y-94679065D01*
X172898284Y-94673757D01*
X172893085Y-94662608D01*
X172803849Y-94471238D01*
X172803846Y-94471233D01*
X172801523Y-94466251D01*
X172713470Y-94340498D01*
X172673357Y-94283211D01*
X172673355Y-94283208D01*
X172670198Y-94278700D01*
X172508300Y-94116802D01*
X172503792Y-94113645D01*
X172503789Y-94113643D01*
X172378629Y-94026005D01*
X172334301Y-93970548D01*
X172324900Y-93922792D01*
X172324900Y-93800267D01*
X172325192Y-93791697D01*
X172328326Y-93745733D01*
X172328326Y-93745729D01*
X172328842Y-93738157D01*
X172318630Y-93679647D01*
X172317673Y-93673167D01*
X172310537Y-93614195D01*
X172307851Y-93607087D01*
X172306135Y-93600101D01*
X172304733Y-93594975D01*
X172302647Y-93588065D01*
X172301340Y-93580577D01*
X172277480Y-93526223D01*
X172274987Y-93520115D01*
X172256678Y-93471662D01*
X172253994Y-93464559D01*
X172249693Y-93458301D01*
X172246385Y-93451973D01*
X172243732Y-93447208D01*
X172240095Y-93441059D01*
X172237042Y-93434104D01*
X172200889Y-93386989D01*
X172197036Y-93381685D01*
X172167694Y-93338992D01*
X172167692Y-93338989D01*
X172163389Y-93332729D01*
X172120171Y-93294223D01*
X172114896Y-93289243D01*
X170121362Y-91295709D01*
X170087336Y-91233397D01*
X170092401Y-91162582D01*
X170095574Y-91154865D01*
X170098128Y-91149194D01*
X170106199Y-91131278D01*
X170117387Y-91091610D01*
X170177893Y-90877072D01*
X170177894Y-90877069D01*
X170179163Y-90872568D01*
X170194685Y-90750559D01*
X170212688Y-90609045D01*
X170212688Y-90609041D01*
X170213086Y-90605915D01*
X170213688Y-90582944D01*
X170214749Y-90542393D01*
X170215571Y-90511000D01*
X170205365Y-90373669D01*
X170195996Y-90247592D01*
X170195996Y-90247591D01*
X170195650Y-90242937D01*
X170192662Y-90229732D01*
X170137361Y-89985331D01*
X170137360Y-89985326D01*
X170136327Y-89980763D01*
X170038902Y-89730238D01*
X169905518Y-89496864D01*
X169892437Y-89480270D01*
X169777738Y-89334775D01*
X169739105Y-89285769D01*
X169543317Y-89101591D01*
X169344199Y-88963457D01*
X169326299Y-88951039D01*
X169326296Y-88951037D01*
X169322457Y-88948374D01*
X169307105Y-88940803D01*
X169085564Y-88831551D01*
X169085561Y-88831550D01*
X169081376Y-88829486D01*
X169033745Y-88814239D01*
X168935535Y-88782802D01*
X168825370Y-88747538D01*
X168820763Y-88746788D01*
X168820760Y-88746787D01*
X168564674Y-88705081D01*
X168564675Y-88705081D01*
X168560063Y-88704330D01*
X168429719Y-88702624D01*
X168295961Y-88700873D01*
X168295958Y-88700873D01*
X168291284Y-88700812D01*
X168024937Y-88737060D01*
X168020451Y-88738368D01*
X168020449Y-88738368D01*
X167988988Y-88747538D01*
X167766874Y-88812278D01*
X167522763Y-88924815D01*
X167518854Y-88927378D01*
X167301881Y-89069631D01*
X167301876Y-89069635D01*
X167297968Y-89072197D01*
X167241458Y-89122634D01*
X167136050Y-89216715D01*
X167097426Y-89251188D01*
X167065615Y-89289437D01*
X166930429Y-89451981D01*
X166925544Y-89457854D01*
X166911942Y-89480270D01*
X166804051Y-89658068D01*
X166786096Y-89687656D01*
X166784287Y-89691970D01*
X166784285Y-89691974D01*
X166777606Y-89707902D01*
X166752043Y-89768865D01*
X166750382Y-89772825D01*
X166705594Y-89827911D01*
X166634185Y-89850100D01*
X163386300Y-89850100D01*
X163318179Y-89830098D01*
X163272105Y-89777350D01*
X163268363Y-89769324D01*
X163240373Y-89709299D01*
X163191849Y-89605238D01*
X163191846Y-89605233D01*
X163189523Y-89600251D01*
X163058198Y-89412700D01*
X162896300Y-89250802D01*
X162891792Y-89247645D01*
X162891789Y-89247643D01*
X162798121Y-89182056D01*
X162708749Y-89119477D01*
X162703767Y-89117154D01*
X162703762Y-89117151D01*
X162506225Y-89025039D01*
X162506224Y-89025039D01*
X162501243Y-89022716D01*
X162495935Y-89021294D01*
X162495933Y-89021293D01*
X162285402Y-88964881D01*
X162285400Y-88964881D01*
X162280087Y-88963457D01*
X162052000Y-88943502D01*
X161823913Y-88963457D01*
X161818600Y-88964881D01*
X161818598Y-88964881D01*
X161608067Y-89021293D01*
X161608065Y-89021294D01*
X161602757Y-89022716D01*
X161597776Y-89025039D01*
X161597775Y-89025039D01*
X161400238Y-89117151D01*
X161400233Y-89117154D01*
X161395251Y-89119477D01*
X161305879Y-89182056D01*
X161212211Y-89247643D01*
X161212208Y-89247645D01*
X161207700Y-89250802D01*
X161045802Y-89412700D01*
X161042645Y-89417208D01*
X161042643Y-89417211D01*
X160955005Y-89542371D01*
X160899548Y-89586699D01*
X160851792Y-89596100D01*
X160149655Y-89596100D01*
X160081534Y-89576098D01*
X160035041Y-89522442D01*
X160027948Y-89502712D01*
X159985706Y-89345064D01*
X159984284Y-89339757D01*
X159957617Y-89282569D01*
X159889849Y-89137238D01*
X159889846Y-89137233D01*
X159887523Y-89132251D01*
X159769332Y-88963457D01*
X159759357Y-88949211D01*
X159759355Y-88949208D01*
X159756198Y-88944700D01*
X159594300Y-88782802D01*
X159589792Y-88779645D01*
X159589789Y-88779643D01*
X159482231Y-88704330D01*
X159406749Y-88651477D01*
X159401767Y-88649154D01*
X159401762Y-88649151D01*
X159204225Y-88557039D01*
X159204224Y-88557039D01*
X159199243Y-88554716D01*
X159193935Y-88553294D01*
X159193933Y-88553293D01*
X158983402Y-88496881D01*
X158983400Y-88496881D01*
X158978087Y-88495457D01*
X158750000Y-88475502D01*
X158521913Y-88495457D01*
X158516600Y-88496881D01*
X158516598Y-88496881D01*
X158306067Y-88553293D01*
X158306065Y-88553294D01*
X158300757Y-88554716D01*
X158295776Y-88557039D01*
X158295775Y-88557039D01*
X158098238Y-88649151D01*
X158098233Y-88649154D01*
X158093251Y-88651477D01*
X158088742Y-88654634D01*
X158088739Y-88654636D01*
X158085173Y-88657133D01*
X158017900Y-88679823D01*
X157949039Y-88662540D01*
X157900454Y-88610771D01*
X157886900Y-88553922D01*
X157886900Y-85463526D01*
X166589050Y-85463526D01*
X166589274Y-85468192D01*
X166589274Y-85468197D01*
X166593362Y-85553300D01*
X166601947Y-85732019D01*
X166654388Y-85995656D01*
X166745220Y-86248646D01*
X166747432Y-86252762D01*
X166747433Y-86252765D01*
X166786968Y-86326343D01*
X166872450Y-86485431D01*
X166875241Y-86489168D01*
X166875245Y-86489175D01*
X166941514Y-86577919D01*
X167033281Y-86700810D01*
X167036590Y-86704090D01*
X167036595Y-86704096D01*
X167210394Y-86876384D01*
X167224180Y-86890050D01*
X167227942Y-86892808D01*
X167227945Y-86892811D01*
X167340299Y-86975192D01*
X167440954Y-87048995D01*
X167445089Y-87051171D01*
X167445093Y-87051173D01*
X167587718Y-87126212D01*
X167678840Y-87174154D01*
X167719990Y-87188524D01*
X167922774Y-87259339D01*
X167932613Y-87262775D01*
X167937206Y-87263647D01*
X168192109Y-87312042D01*
X168192112Y-87312042D01*
X168196698Y-87312913D01*
X168324370Y-87317929D01*
X168460625Y-87323283D01*
X168460630Y-87323283D01*
X168465293Y-87323466D01*
X168569607Y-87312042D01*
X168727844Y-87294713D01*
X168727850Y-87294712D01*
X168732497Y-87294203D01*
X168847436Y-87263942D01*
X168987918Y-87226956D01*
X168987920Y-87226955D01*
X168992441Y-87225765D01*
X169079122Y-87188524D01*
X169235120Y-87121502D01*
X169235122Y-87121501D01*
X169239414Y-87119657D01*
X169401788Y-87019177D01*
X169464017Y-86980669D01*
X169464021Y-86980666D01*
X169467990Y-86978210D01*
X169673149Y-86804530D01*
X169676236Y-86801009D01*
X169676476Y-86800774D01*
X169739081Y-86767291D01*
X169809850Y-86772970D01*
X169853890Y-86801544D01*
X173434659Y-90382312D01*
X173468685Y-90444624D01*
X173467271Y-90504018D01*
X173460107Y-90530754D01*
X173458457Y-90536913D01*
X173438502Y-90765000D01*
X173458457Y-90993087D01*
X173459881Y-90998400D01*
X173459881Y-90998402D01*
X173507142Y-91174779D01*
X173517716Y-91214243D01*
X173520039Y-91219224D01*
X173520039Y-91219225D01*
X173612151Y-91416762D01*
X173612154Y-91416767D01*
X173614477Y-91421749D01*
X173671354Y-91502978D01*
X173741192Y-91602716D01*
X173745802Y-91609300D01*
X173907700Y-91771198D01*
X173912208Y-91774355D01*
X173912211Y-91774357D01*
X173959176Y-91807242D01*
X174095251Y-91902523D01*
X174100233Y-91904846D01*
X174100238Y-91904849D01*
X174280280Y-91988803D01*
X174302757Y-91999284D01*
X174308065Y-92000706D01*
X174308067Y-92000707D01*
X174518598Y-92057119D01*
X174518600Y-92057119D01*
X174523913Y-92058543D01*
X174752000Y-92078498D01*
X174980087Y-92058543D01*
X174985400Y-92057119D01*
X174985402Y-92057119D01*
X175195933Y-92000707D01*
X175195935Y-92000706D01*
X175201243Y-91999284D01*
X175223720Y-91988803D01*
X175403762Y-91904849D01*
X175403767Y-91904846D01*
X175408749Y-91902523D01*
X175544824Y-91807242D01*
X175591789Y-91774357D01*
X175591792Y-91774355D01*
X175596300Y-91771198D01*
X175758198Y-91609300D01*
X175762809Y-91602716D01*
X175832646Y-91502978D01*
X175889523Y-91421749D01*
X175891846Y-91416767D01*
X175891849Y-91416762D01*
X175983961Y-91219225D01*
X175983961Y-91219224D01*
X175986284Y-91214243D01*
X175996859Y-91174779D01*
X176044119Y-90998402D01*
X176044119Y-90998400D01*
X176045543Y-90993087D01*
X176065498Y-90765000D01*
X176045543Y-90536913D01*
X176034004Y-90493849D01*
X175987707Y-90321067D01*
X175987706Y-90321065D01*
X175986284Y-90315757D01*
X175979662Y-90301555D01*
X175891849Y-90113238D01*
X175891846Y-90113233D01*
X175889523Y-90108251D01*
X175777705Y-89948559D01*
X175761357Y-89925211D01*
X175761355Y-89925208D01*
X175758198Y-89920700D01*
X175596300Y-89758802D01*
X175591792Y-89755645D01*
X175591789Y-89755643D01*
X175508593Y-89697389D01*
X175408749Y-89627477D01*
X175403767Y-89625154D01*
X175403762Y-89625151D01*
X175206225Y-89533039D01*
X175206224Y-89533039D01*
X175201243Y-89530716D01*
X175195935Y-89529294D01*
X175195933Y-89529293D01*
X174985402Y-89472881D01*
X174985400Y-89472881D01*
X174980087Y-89471457D01*
X174752000Y-89451502D01*
X174523913Y-89471457D01*
X174518602Y-89472880D01*
X174518591Y-89472882D01*
X174491020Y-89480270D01*
X174420044Y-89478581D01*
X174369313Y-89447659D01*
X170230075Y-85308421D01*
X170196049Y-85246109D01*
X170195774Y-85244609D01*
X170195650Y-85242937D01*
X170192595Y-85229434D01*
X170137361Y-84985331D01*
X170137360Y-84985326D01*
X170136327Y-84980763D01*
X170038902Y-84730238D01*
X169905518Y-84496864D01*
X169897264Y-84486393D01*
X169811192Y-84377211D01*
X169739105Y-84285769D01*
X169543317Y-84101591D01*
X169375309Y-83985039D01*
X169326299Y-83951039D01*
X169326296Y-83951037D01*
X169322457Y-83948374D01*
X169306201Y-83940357D01*
X169133172Y-83855029D01*
X169080923Y-83806961D01*
X169062900Y-83742023D01*
X169062900Y-82357444D01*
X169082902Y-82289323D01*
X169099805Y-82268349D01*
X169108725Y-82259429D01*
X169171037Y-82225403D01*
X169241852Y-82230468D01*
X169258519Y-82238108D01*
X169355502Y-82291425D01*
X169449297Y-82328561D01*
X169647578Y-82407066D01*
X169647581Y-82407067D01*
X169651261Y-82408524D01*
X169655100Y-82409510D01*
X169655104Y-82409511D01*
X169798347Y-82446290D01*
X169959364Y-82487632D01*
X169963292Y-82488128D01*
X169963296Y-82488129D01*
X170088276Y-82503917D01*
X170274952Y-82527500D01*
X170593048Y-82527500D01*
X170779724Y-82503917D01*
X170904704Y-82488129D01*
X170904708Y-82488128D01*
X170908636Y-82487632D01*
X171069653Y-82446290D01*
X171212896Y-82409511D01*
X171212900Y-82409510D01*
X171216739Y-82408524D01*
X171220419Y-82407067D01*
X171220422Y-82407066D01*
X171418703Y-82328561D01*
X171512498Y-82291425D01*
X171516322Y-82289323D01*
X171787776Y-82140090D01*
X171787779Y-82140088D01*
X171791248Y-82138181D01*
X171794452Y-82135853D01*
X171794457Y-82135850D01*
X172045390Y-81953537D01*
X172045392Y-81953536D01*
X172048594Y-81951209D01*
X172060729Y-81939814D01*
X172277589Y-81736167D01*
X172280476Y-81733456D01*
X172483238Y-81488359D01*
X172630357Y-81256537D01*
X172651559Y-81223128D01*
X172651559Y-81223127D01*
X172653683Y-81219781D01*
X172655367Y-81216202D01*
X172655371Y-81216195D01*
X172787433Y-80935549D01*
X172787435Y-80935545D01*
X172789122Y-80931959D01*
X172887419Y-80629431D01*
X172947025Y-80316969D01*
X172966998Y-79999500D01*
X172947025Y-79682031D01*
X172887419Y-79369569D01*
X172789122Y-79067041D01*
X172787433Y-79063451D01*
X172655371Y-78782805D01*
X172655367Y-78782798D01*
X172653683Y-78779219D01*
X172483238Y-78510641D01*
X172470252Y-78494943D01*
X172362319Y-78364475D01*
X172280476Y-78265544D01*
X172048594Y-78047791D01*
X172030800Y-78034863D01*
X171794457Y-77863150D01*
X171794452Y-77863147D01*
X171791248Y-77860819D01*
X171781932Y-77855697D01*
X171515960Y-77709478D01*
X171515957Y-77709477D01*
X171512498Y-77707575D01*
X171305791Y-77625734D01*
X171220422Y-77591934D01*
X171220419Y-77591933D01*
X171216739Y-77590476D01*
X171212900Y-77589490D01*
X171212896Y-77589489D01*
X171033687Y-77543476D01*
X170908636Y-77511368D01*
X170904708Y-77510872D01*
X170904704Y-77510871D01*
X170779723Y-77495083D01*
X170593048Y-77471500D01*
X170274952Y-77471500D01*
X170088277Y-77495083D01*
X169963296Y-77510871D01*
X169963292Y-77510872D01*
X169959364Y-77511368D01*
X169834313Y-77543476D01*
X169655104Y-77589489D01*
X169655100Y-77589490D01*
X169651261Y-77590476D01*
X169647581Y-77591933D01*
X169647578Y-77591934D01*
X169562209Y-77625734D01*
X169355502Y-77707575D01*
X169352043Y-77709477D01*
X169352040Y-77709478D01*
X169086069Y-77855697D01*
X169076752Y-77860819D01*
X169073548Y-77863147D01*
X169073543Y-77863150D01*
X168837200Y-78034863D01*
X168819406Y-78047791D01*
X168587524Y-78265544D01*
X168505681Y-78364475D01*
X168397749Y-78494943D01*
X168384762Y-78510641D01*
X168214317Y-78779219D01*
X168212633Y-78782798D01*
X168212629Y-78782805D01*
X168080567Y-79063451D01*
X168078878Y-79067041D01*
X167980581Y-79369569D01*
X167920975Y-79682031D01*
X167901002Y-79999500D01*
X167920975Y-80316969D01*
X167980581Y-80629431D01*
X168078878Y-80931959D01*
X168197332Y-81183687D01*
X168208238Y-81253838D01*
X168179485Y-81318752D01*
X168172419Y-81326428D01*
X167953961Y-81544886D01*
X167947696Y-81550739D01*
X167907248Y-81586024D01*
X167902881Y-81592238D01*
X167873109Y-81634599D01*
X167869177Y-81639893D01*
X167832537Y-81686621D01*
X167829411Y-81693545D01*
X167825698Y-81699676D01*
X167823062Y-81704296D01*
X167819640Y-81710678D01*
X167815269Y-81716897D01*
X167812509Y-81723976D01*
X167793702Y-81772213D01*
X167791146Y-81778292D01*
X167766711Y-81832412D01*
X167765325Y-81839888D01*
X167763170Y-81846766D01*
X167761710Y-81851891D01*
X167759922Y-81858855D01*
X167757162Y-81865934D01*
X167756170Y-81873466D01*
X167756170Y-81873468D01*
X167749414Y-81924792D01*
X167748384Y-81931298D01*
X167737560Y-81989697D01*
X167737997Y-81997277D01*
X167737997Y-81997278D01*
X167740891Y-82047467D01*
X167741100Y-82054720D01*
X167741100Y-83743502D01*
X167721098Y-83811623D01*
X167667851Y-83857928D01*
X167661615Y-83860803D01*
X167522763Y-83924815D01*
X167513685Y-83930767D01*
X167301881Y-84069631D01*
X167301876Y-84069635D01*
X167297968Y-84072197D01*
X167268024Y-84098923D01*
X167128875Y-84223119D01*
X167097426Y-84251188D01*
X166925544Y-84457854D01*
X166923121Y-84461847D01*
X166816191Y-84638062D01*
X166786096Y-84687656D01*
X166784287Y-84691970D01*
X166784285Y-84691974D01*
X166753276Y-84765923D01*
X166682148Y-84935545D01*
X166615981Y-85196077D01*
X166589050Y-85463526D01*
X157886900Y-85463526D01*
X157886900Y-81986944D01*
X157906902Y-81918823D01*
X157923805Y-81897849D01*
X158621313Y-81200341D01*
X158683625Y-81166315D01*
X158743020Y-81167730D01*
X158770591Y-81175118D01*
X158770602Y-81175120D01*
X158775913Y-81176543D01*
X159004000Y-81196498D01*
X159232087Y-81176543D01*
X159237400Y-81175119D01*
X159237402Y-81175119D01*
X159447933Y-81118707D01*
X159447935Y-81118706D01*
X159453243Y-81117284D01*
X159537941Y-81077789D01*
X159655762Y-81022849D01*
X159655767Y-81022846D01*
X159660749Y-81020523D01*
X159793454Y-80927602D01*
X159843789Y-80892357D01*
X159843792Y-80892355D01*
X159848300Y-80889198D01*
X160010198Y-80727300D01*
X160037562Y-80688221D01*
X160085260Y-80620100D01*
X160141523Y-80539749D01*
X160143846Y-80534767D01*
X160143849Y-80534762D01*
X160235961Y-80337225D01*
X160235961Y-80337224D01*
X160238284Y-80332243D01*
X160256118Y-80265688D01*
X160296119Y-80116402D01*
X160296119Y-80116400D01*
X160297543Y-80111087D01*
X160317498Y-79883000D01*
X160297543Y-79654913D01*
X160281242Y-79594078D01*
X160239707Y-79439067D01*
X160239706Y-79439065D01*
X160238284Y-79433757D01*
X160228874Y-79413576D01*
X160143849Y-79231238D01*
X160143846Y-79231233D01*
X160141523Y-79226251D01*
X160010198Y-79038700D01*
X159848300Y-78876802D01*
X159843792Y-78873645D01*
X159843789Y-78873643D01*
X159723696Y-78789553D01*
X159660749Y-78745477D01*
X159655767Y-78743154D01*
X159655762Y-78743151D01*
X159458225Y-78651039D01*
X159458224Y-78651039D01*
X159453243Y-78648716D01*
X159447935Y-78647294D01*
X159447933Y-78647293D01*
X159237402Y-78590881D01*
X159237400Y-78590881D01*
X159232087Y-78589457D01*
X159004000Y-78569502D01*
X158775913Y-78589457D01*
X158770600Y-78590881D01*
X158770598Y-78590881D01*
X158560067Y-78647293D01*
X158560065Y-78647294D01*
X158554757Y-78648716D01*
X158549776Y-78651039D01*
X158549775Y-78651039D01*
X158352238Y-78743151D01*
X158352233Y-78743154D01*
X158347251Y-78745477D01*
X158284304Y-78789553D01*
X158164211Y-78873643D01*
X158164208Y-78873645D01*
X158159700Y-78876802D01*
X157997802Y-79038700D01*
X157866477Y-79226251D01*
X157864154Y-79231233D01*
X157864151Y-79231238D01*
X157779126Y-79413576D01*
X157769716Y-79433757D01*
X157768294Y-79439065D01*
X157768293Y-79439067D01*
X157726758Y-79594078D01*
X157710457Y-79654913D01*
X157690502Y-79883000D01*
X157710457Y-80111087D01*
X157711881Y-80116400D01*
X157711881Y-80116402D01*
X157719271Y-80143982D01*
X157717581Y-80214959D01*
X157686659Y-80265688D01*
X156777961Y-81174386D01*
X156771695Y-81180240D01*
X156748653Y-81200341D01*
X156731248Y-81215524D01*
X156726883Y-81221734D01*
X156722134Y-81227009D01*
X156661688Y-81264248D01*
X156590704Y-81262896D01*
X156531720Y-81223382D01*
X156503463Y-81158251D01*
X156502499Y-81142698D01*
X156502499Y-79030878D01*
X156522501Y-78962757D01*
X156548864Y-78933235D01*
X156593830Y-78896562D01*
X156594855Y-78895734D01*
X156631564Y-78866429D01*
X156631565Y-78866428D01*
X156634316Y-78864232D01*
X156636811Y-78861737D01*
X156637605Y-78861027D01*
X156641960Y-78857307D01*
X156670951Y-78833663D01*
X156670954Y-78833660D01*
X156675726Y-78829768D01*
X156705211Y-78794127D01*
X156713200Y-78785348D01*
X159678733Y-75819815D01*
X159688876Y-75810713D01*
X159713849Y-75790634D01*
X159718649Y-75786775D01*
X159751187Y-75747998D01*
X159754352Y-75744370D01*
X159756046Y-75742502D01*
X159758240Y-75740308D01*
X159785736Y-75706834D01*
X159786488Y-75705927D01*
X159846786Y-75634067D01*
X159849375Y-75629358D01*
X159852782Y-75625210D01*
X159855690Y-75619786D01*
X159855693Y-75619782D01*
X159897050Y-75542651D01*
X159897679Y-75541492D01*
X159931794Y-75479438D01*
X159942821Y-75459379D01*
X159944444Y-75454263D01*
X159946984Y-75449526D01*
X159974384Y-75359904D01*
X159974767Y-75358674D01*
X160003098Y-75269365D01*
X160003697Y-75264027D01*
X160005267Y-75258891D01*
X160014746Y-75165569D01*
X160014866Y-75164449D01*
X160020500Y-75114216D01*
X160020500Y-75110711D01*
X160020562Y-75109603D01*
X160021010Y-75103908D01*
X160024790Y-75066695D01*
X160024790Y-75066688D01*
X160025412Y-75060565D01*
X160021059Y-75014514D01*
X160020500Y-75002657D01*
X160020500Y-73132315D01*
X160043287Y-73060044D01*
X160118536Y-72952577D01*
X160141523Y-72919749D01*
X160143846Y-72914767D01*
X160143849Y-72914762D01*
X160235961Y-72717225D01*
X160235961Y-72717224D01*
X160238284Y-72712243D01*
X160270189Y-72593175D01*
X160296119Y-72496402D01*
X160296119Y-72496400D01*
X160297543Y-72491087D01*
X160300576Y-72456420D01*
X164435870Y-72456420D01*
X164470875Y-72713636D01*
X164472184Y-72718126D01*
X164472185Y-72718132D01*
X164485186Y-72762735D01*
X164543515Y-72962852D01*
X164652194Y-73198594D01*
X164654754Y-73202499D01*
X164654757Y-73202504D01*
X164791957Y-73411770D01*
X164791961Y-73411775D01*
X164794523Y-73415683D01*
X164827462Y-73452588D01*
X164933487Y-73571379D01*
X164967377Y-73609350D01*
X165166959Y-73775339D01*
X165388882Y-73910006D01*
X165393196Y-73911815D01*
X165393200Y-73911817D01*
X165441279Y-73931978D01*
X165628274Y-74010391D01*
X165879873Y-74074289D01*
X166095481Y-74096000D01*
X166249896Y-74096000D01*
X166252221Y-74095827D01*
X166252227Y-74095827D01*
X166438221Y-74082005D01*
X166438225Y-74082004D01*
X166442873Y-74081659D01*
X166696059Y-74024369D01*
X166729044Y-74011542D01*
X166933643Y-73931978D01*
X166933645Y-73931977D01*
X166937996Y-73930285D01*
X166970309Y-73911817D01*
X167158683Y-73804152D01*
X167163369Y-73801474D01*
X167367227Y-73640765D01*
X167545091Y-73451690D01*
X167609279Y-73359164D01*
X167690390Y-73242243D01*
X167690392Y-73242240D01*
X167693055Y-73238401D01*
X167709921Y-73204201D01*
X167805802Y-73009773D01*
X167805803Y-73009770D01*
X167807867Y-73005585D01*
X167887006Y-72758356D01*
X167928732Y-72502144D01*
X167929331Y-72456420D01*
X172935870Y-72456420D01*
X172970875Y-72713636D01*
X172972184Y-72718126D01*
X172972185Y-72718132D01*
X172985186Y-72762735D01*
X173043515Y-72962852D01*
X173152194Y-73198594D01*
X173154754Y-73202499D01*
X173154757Y-73202504D01*
X173291957Y-73411770D01*
X173291961Y-73411775D01*
X173294523Y-73415683D01*
X173327462Y-73452588D01*
X173433487Y-73571379D01*
X173467377Y-73609350D01*
X173666959Y-73775339D01*
X173888882Y-73910006D01*
X173893196Y-73911815D01*
X173893200Y-73911817D01*
X173941279Y-73931978D01*
X174128274Y-74010391D01*
X174379873Y-74074289D01*
X174595481Y-74096000D01*
X174749896Y-74096000D01*
X174752221Y-74095827D01*
X174752227Y-74095827D01*
X174938221Y-74082005D01*
X174938225Y-74082004D01*
X174942873Y-74081659D01*
X175196059Y-74024369D01*
X175229044Y-74011542D01*
X175433643Y-73931978D01*
X175433645Y-73931977D01*
X175437996Y-73930285D01*
X175470309Y-73911817D01*
X175658683Y-73804152D01*
X175663369Y-73801474D01*
X175867227Y-73640765D01*
X176045091Y-73451690D01*
X176109279Y-73359164D01*
X176190390Y-73242243D01*
X176190392Y-73242240D01*
X176193055Y-73238401D01*
X176209921Y-73204201D01*
X176305802Y-73009773D01*
X176305803Y-73009770D01*
X176307867Y-73005585D01*
X176387006Y-72758356D01*
X176428732Y-72502144D01*
X176431206Y-72313176D01*
X176432069Y-72247257D01*
X176432069Y-72247254D01*
X176432130Y-72242580D01*
X176397125Y-71985364D01*
X176384091Y-71940644D01*
X176364951Y-71874980D01*
X176324485Y-71736148D01*
X176321480Y-71729628D01*
X176247784Y-71569771D01*
X176215806Y-71500406D01*
X176187189Y-71456757D01*
X176076043Y-71287230D01*
X176076039Y-71287225D01*
X176073477Y-71283317D01*
X175945156Y-71139545D01*
X175903740Y-71093142D01*
X175903738Y-71093140D01*
X175900623Y-71089650D01*
X175701041Y-70923661D01*
X175479118Y-70788994D01*
X175474804Y-70787185D01*
X175474800Y-70787183D01*
X175244040Y-70690418D01*
X175239726Y-70688609D01*
X174988127Y-70624711D01*
X174772519Y-70603000D01*
X174618104Y-70603000D01*
X174615779Y-70603173D01*
X174615773Y-70603173D01*
X174429779Y-70616995D01*
X174429775Y-70616996D01*
X174425127Y-70617341D01*
X174171941Y-70674631D01*
X174167589Y-70676323D01*
X174167587Y-70676324D01*
X173934357Y-70767022D01*
X173934355Y-70767023D01*
X173930004Y-70768715D01*
X173925950Y-70771032D01*
X173925948Y-70771033D01*
X173894523Y-70788994D01*
X173704631Y-70897526D01*
X173500773Y-71058235D01*
X173322909Y-71247310D01*
X173320241Y-71251156D01*
X173184541Y-71446767D01*
X173174945Y-71460599D01*
X173172878Y-71464789D01*
X173172877Y-71464792D01*
X173105341Y-71601743D01*
X173060133Y-71693415D01*
X173058711Y-71697858D01*
X173058710Y-71697860D01*
X173048892Y-71728531D01*
X172980994Y-71940644D01*
X172980244Y-71945250D01*
X172941809Y-72181256D01*
X172939268Y-72196856D01*
X172937996Y-72294058D01*
X172936120Y-72437351D01*
X172935870Y-72456420D01*
X167929331Y-72456420D01*
X167931206Y-72313176D01*
X167932069Y-72247257D01*
X167932069Y-72247254D01*
X167932130Y-72242580D01*
X167897125Y-71985364D01*
X167884091Y-71940644D01*
X167864951Y-71874980D01*
X167824485Y-71736148D01*
X167821480Y-71729628D01*
X167747784Y-71569771D01*
X167715806Y-71500406D01*
X167687189Y-71456757D01*
X167576043Y-71287230D01*
X167576039Y-71287225D01*
X167573477Y-71283317D01*
X167445156Y-71139545D01*
X167403740Y-71093142D01*
X167403738Y-71093140D01*
X167400623Y-71089650D01*
X167201041Y-70923661D01*
X166979118Y-70788994D01*
X166974804Y-70787185D01*
X166974800Y-70787183D01*
X166744040Y-70690418D01*
X166739726Y-70688609D01*
X166488127Y-70624711D01*
X166272519Y-70603000D01*
X166118104Y-70603000D01*
X166115779Y-70603173D01*
X166115773Y-70603173D01*
X165929779Y-70616995D01*
X165929775Y-70616996D01*
X165925127Y-70617341D01*
X165671941Y-70674631D01*
X165667589Y-70676323D01*
X165667587Y-70676324D01*
X165434357Y-70767022D01*
X165434355Y-70767023D01*
X165430004Y-70768715D01*
X165425950Y-70771032D01*
X165425948Y-70771033D01*
X165394523Y-70788994D01*
X165204631Y-70897526D01*
X165000773Y-71058235D01*
X164822909Y-71247310D01*
X164820241Y-71251156D01*
X164684541Y-71446767D01*
X164674945Y-71460599D01*
X164672878Y-71464789D01*
X164672877Y-71464792D01*
X164605341Y-71601743D01*
X164560133Y-71693415D01*
X164558711Y-71697858D01*
X164558710Y-71697860D01*
X164548892Y-71728531D01*
X164480994Y-71940644D01*
X164480244Y-71945250D01*
X164441809Y-72181256D01*
X164439268Y-72196856D01*
X164437996Y-72294058D01*
X164436120Y-72437351D01*
X164435870Y-72456420D01*
X160300576Y-72456420D01*
X160317498Y-72263000D01*
X160297543Y-72034913D01*
X160272284Y-71940644D01*
X160239707Y-71819067D01*
X160239706Y-71819065D01*
X160238284Y-71813757D01*
X160204190Y-71740641D01*
X160143849Y-71611238D01*
X160143846Y-71611233D01*
X160141523Y-71606251D01*
X160010198Y-71418700D01*
X159848300Y-71256802D01*
X159843792Y-71253645D01*
X159843789Y-71253643D01*
X159680840Y-71139545D01*
X159660749Y-71125477D01*
X159655767Y-71123154D01*
X159655762Y-71123151D01*
X159458225Y-71031039D01*
X159458224Y-71031039D01*
X159453243Y-71028716D01*
X159447935Y-71027294D01*
X159447933Y-71027293D01*
X159237402Y-70970881D01*
X159237400Y-70970881D01*
X159232087Y-70969457D01*
X159004000Y-70949502D01*
X158775913Y-70969457D01*
X158770600Y-70970881D01*
X158770598Y-70970881D01*
X158560067Y-71027293D01*
X158560065Y-71027294D01*
X158554757Y-71028716D01*
X158549776Y-71031039D01*
X158549775Y-71031039D01*
X158352238Y-71123151D01*
X158352233Y-71123154D01*
X158347251Y-71125477D01*
X158327160Y-71139545D01*
X158164211Y-71253643D01*
X158164208Y-71253645D01*
X158159700Y-71256802D01*
X157997802Y-71418700D01*
X157866477Y-71606251D01*
X157864154Y-71611233D01*
X157864151Y-71611238D01*
X157803810Y-71740641D01*
X157769716Y-71813757D01*
X157768294Y-71819065D01*
X157768293Y-71819067D01*
X157735716Y-71940644D01*
X157710457Y-72034913D01*
X157690502Y-72263000D01*
X157710457Y-72491087D01*
X157711881Y-72496400D01*
X157711881Y-72496402D01*
X157737812Y-72593175D01*
X157769716Y-72712243D01*
X157772039Y-72717224D01*
X157772039Y-72717225D01*
X157864151Y-72914762D01*
X157864154Y-72914767D01*
X157866477Y-72919749D01*
X157889464Y-72952577D01*
X157964713Y-73060044D01*
X157987500Y-73132315D01*
X157987500Y-74583762D01*
X157967498Y-74651883D01*
X157950595Y-74672857D01*
X155601737Y-77021715D01*
X155539425Y-77055741D01*
X155468610Y-77050676D01*
X155440371Y-77035833D01*
X155424853Y-77024967D01*
X155342749Y-76967477D01*
X155337767Y-76965154D01*
X155337762Y-76965151D01*
X155140225Y-76873039D01*
X155140224Y-76873039D01*
X155135243Y-76870716D01*
X155129935Y-76869294D01*
X155129933Y-76869293D01*
X155061859Y-76851053D01*
X154914087Y-76811457D01*
X154867629Y-76807393D01*
X154801511Y-76781530D01*
X154789515Y-76770967D01*
X152908815Y-74890267D01*
X152899713Y-74880124D01*
X152889215Y-74867067D01*
X152875775Y-74850351D01*
X152836998Y-74817813D01*
X152833371Y-74814649D01*
X152831502Y-74812954D01*
X152829308Y-74810760D01*
X152795742Y-74783188D01*
X152794945Y-74782526D01*
X152723067Y-74722214D01*
X152718361Y-74719627D01*
X152714211Y-74716218D01*
X152708787Y-74713310D01*
X152708777Y-74713303D01*
X152631632Y-74671939D01*
X152630472Y-74671310D01*
X152595134Y-74651883D01*
X152548379Y-74626179D01*
X152543259Y-74624555D01*
X152538526Y-74622017D01*
X152449007Y-74594648D01*
X152447748Y-74594256D01*
X152364239Y-74567765D01*
X152364235Y-74567764D01*
X152358365Y-74565902D01*
X152353027Y-74565303D01*
X152347891Y-74563733D01*
X152341760Y-74563110D01*
X152341759Y-74563110D01*
X152322456Y-74561149D01*
X152254569Y-74554254D01*
X152253449Y-74554134D01*
X152203216Y-74548500D01*
X152199711Y-74548500D01*
X152198603Y-74548438D01*
X152192908Y-74547990D01*
X152155695Y-74544210D01*
X152155688Y-74544210D01*
X152149565Y-74543588D01*
X152103515Y-74547941D01*
X152091657Y-74548500D01*
X151256500Y-74548500D01*
X151188379Y-74528498D01*
X151141886Y-74474842D01*
X151130500Y-74422500D01*
X151130500Y-72351773D01*
X151131237Y-72338165D01*
X151134697Y-72306318D01*
X151134697Y-72306314D01*
X151135362Y-72300193D01*
X151130954Y-72249807D01*
X151130625Y-72244979D01*
X151130500Y-72242424D01*
X151130500Y-72239340D01*
X151128226Y-72216148D01*
X151126278Y-72196278D01*
X151126156Y-72194965D01*
X151122187Y-72149602D01*
X151117988Y-72101605D01*
X151116489Y-72096445D01*
X151115965Y-72091103D01*
X151088883Y-72001401D01*
X151088527Y-72000201D01*
X151086668Y-71993802D01*
X151062372Y-71910175D01*
X151059900Y-71905407D01*
X151058348Y-71900265D01*
X151055453Y-71894820D01*
X151055450Y-71894813D01*
X151014367Y-71817547D01*
X151013753Y-71816379D01*
X151009812Y-71808775D01*
X150970634Y-71733193D01*
X150967282Y-71728994D01*
X150964761Y-71724253D01*
X150923754Y-71673974D01*
X150905562Y-71651668D01*
X150904734Y-71650642D01*
X150875429Y-71613933D01*
X150875428Y-71613932D01*
X150873232Y-71611181D01*
X150870737Y-71608686D01*
X150870027Y-71607892D01*
X150866307Y-71603537D01*
X150842663Y-71574546D01*
X150842660Y-71574543D01*
X150838768Y-71569771D01*
X150803127Y-71540286D01*
X150794348Y-71532297D01*
X147988626Y-68726575D01*
X147979524Y-68716432D01*
X147959445Y-68691459D01*
X147955586Y-68686659D01*
X147916809Y-68654121D01*
X147913182Y-68650957D01*
X147911313Y-68649262D01*
X147909119Y-68647068D01*
X147875553Y-68619496D01*
X147874756Y-68618834D01*
X147802878Y-68558522D01*
X147798172Y-68555935D01*
X147794022Y-68552526D01*
X147788598Y-68549618D01*
X147788588Y-68549611D01*
X147711443Y-68508247D01*
X147710283Y-68507618D01*
X147636439Y-68467022D01*
X147628190Y-68462487D01*
X147623070Y-68460863D01*
X147618337Y-68458325D01*
X147528818Y-68430956D01*
X147527559Y-68430564D01*
X147444050Y-68404073D01*
X147444046Y-68404072D01*
X147438176Y-68402210D01*
X147432838Y-68401611D01*
X147427702Y-68400041D01*
X147421571Y-68399418D01*
X147421570Y-68399418D01*
X147400924Y-68397321D01*
X147334380Y-68390562D01*
X147333260Y-68390442D01*
X147283027Y-68384808D01*
X147279522Y-68384808D01*
X147278414Y-68384746D01*
X147272719Y-68384298D01*
X147235506Y-68380518D01*
X147235499Y-68380518D01*
X147229376Y-68379896D01*
X147185209Y-68384071D01*
X147183326Y-68384249D01*
X147171468Y-68384808D01*
X136273965Y-68384808D01*
X136260357Y-68384071D01*
X136222387Y-68379946D01*
X136216249Y-68380483D01*
X136216247Y-68380483D01*
X136200164Y-68381890D01*
X136172014Y-68384353D01*
X136167199Y-68384682D01*
X136164623Y-68384808D01*
X136161535Y-68384808D01*
X136142623Y-68386662D01*
X136118357Y-68389041D01*
X136117046Y-68389162D01*
X136029937Y-68396784D01*
X136023800Y-68397321D01*
X136018645Y-68398819D01*
X136013298Y-68399343D01*
X135923463Y-68426466D01*
X135922307Y-68426808D01*
X135838288Y-68451217D01*
X135838282Y-68451219D01*
X135832370Y-68452937D01*
X135827606Y-68455406D01*
X135822460Y-68456960D01*
X135739636Y-68500998D01*
X135738594Y-68501545D01*
X135694193Y-68524560D01*
X135655387Y-68544675D01*
X135651189Y-68548026D01*
X135646448Y-68550547D01*
X135641671Y-68554443D01*
X135573925Y-68609695D01*
X135572900Y-68610523D01*
X135533375Y-68642076D01*
X135530879Y-68644572D01*
X135530075Y-68645291D01*
X135525720Y-68649011D01*
X135496741Y-68672645D01*
X135496738Y-68672648D01*
X135491966Y-68676540D01*
X135488038Y-68681288D01*
X135488037Y-68681289D01*
X135462486Y-68712175D01*
X135454497Y-68720954D01*
X131783458Y-72391994D01*
X131773999Y-72400542D01*
X131746049Y-72423337D01*
X131746046Y-72423340D01*
X131741274Y-72427232D01*
X131737346Y-72431980D01*
X131737345Y-72431981D01*
X131711789Y-72462873D01*
X131703800Y-72471652D01*
X129436485Y-74738967D01*
X129374173Y-74772993D01*
X129358373Y-74775392D01*
X129341728Y-74776848D01*
X129311913Y-74779457D01*
X129181158Y-74814493D01*
X129096067Y-74837293D01*
X129096065Y-74837294D01*
X129090757Y-74838716D01*
X129085776Y-74841039D01*
X129085775Y-74841039D01*
X128888238Y-74933151D01*
X128888233Y-74933154D01*
X128883251Y-74935477D01*
X128787308Y-75002657D01*
X128700211Y-75063643D01*
X128700208Y-75063645D01*
X128695700Y-75066802D01*
X128533802Y-75228700D01*
X128530645Y-75233208D01*
X128530643Y-75233211D01*
X128505542Y-75269059D01*
X128402477Y-75416251D01*
X128400154Y-75421233D01*
X128400151Y-75421238D01*
X128372022Y-75481562D01*
X128305716Y-75623757D01*
X128281671Y-75713495D01*
X128278558Y-75725111D01*
X128241606Y-75785734D01*
X128177746Y-75816755D01*
X128156851Y-75818500D01*
X125263064Y-75818500D01*
X125190793Y-75795713D01*
X125190355Y-75795406D01*
X125097677Y-75730512D01*
X125092695Y-75728189D01*
X125092690Y-75728186D01*
X124901178Y-75638883D01*
X124901177Y-75638882D01*
X124896196Y-75636560D01*
X124890888Y-75635138D01*
X124890886Y-75635137D01*
X124812998Y-75614267D01*
X124681463Y-75579022D01*
X124460000Y-75559647D01*
X124238537Y-75579022D01*
X124107002Y-75614267D01*
X124029114Y-75635137D01*
X124029112Y-75635138D01*
X124023804Y-75636560D01*
X124018823Y-75638882D01*
X124018822Y-75638883D01*
X123827311Y-75728186D01*
X123827306Y-75728189D01*
X123822324Y-75730512D01*
X123817817Y-75733668D01*
X123817815Y-75733669D01*
X123644730Y-75854864D01*
X123644727Y-75854866D01*
X123640219Y-75858023D01*
X123483023Y-76015219D01*
X123479866Y-76019727D01*
X123479864Y-76019730D01*
X123361683Y-76188511D01*
X123355512Y-76197324D01*
X123353189Y-76202306D01*
X123353186Y-76202311D01*
X123263883Y-76393822D01*
X123261560Y-76398804D01*
X123204022Y-76613537D01*
X123184647Y-76835000D01*
X123204022Y-77056463D01*
X123261560Y-77271196D01*
X123263882Y-77276177D01*
X123263883Y-77276178D01*
X123353186Y-77467689D01*
X123353189Y-77467694D01*
X123355512Y-77472676D01*
X123358669Y-77477184D01*
X123358672Y-77477190D01*
X123420713Y-77565794D01*
X123443500Y-77638064D01*
X123443500Y-79267685D01*
X123420713Y-79339956D01*
X123322477Y-79480251D01*
X123320154Y-79485233D01*
X123320151Y-79485238D01*
X123254503Y-79626022D01*
X123225716Y-79687757D01*
X123224294Y-79693065D01*
X123224293Y-79693067D01*
X123174867Y-79877525D01*
X123166457Y-79908913D01*
X123146502Y-80137000D01*
X123166457Y-80365087D01*
X123167881Y-80370402D01*
X123167883Y-80370412D01*
X123168363Y-80372204D01*
X123168343Y-80373024D01*
X123168836Y-80375817D01*
X123168275Y-80375916D01*
X123166672Y-80443180D01*
X123126877Y-80501975D01*
X123061611Y-80529921D01*
X122991598Y-80518146D01*
X122957561Y-80493907D01*
X121877230Y-79413576D01*
X120787155Y-78323502D01*
X120753130Y-78261190D01*
X120758194Y-78190375D01*
X120800741Y-78133539D01*
X120867261Y-78108728D01*
X120887231Y-78108886D01*
X120898525Y-78109874D01*
X120904000Y-78110353D01*
X121125463Y-78090978D01*
X121300185Y-78044161D01*
X121334886Y-78034863D01*
X121334888Y-78034862D01*
X121340196Y-78033440D01*
X121345178Y-78031117D01*
X121536690Y-77941814D01*
X121536695Y-77941811D01*
X121541677Y-77939488D01*
X121667158Y-77851625D01*
X121719270Y-77815136D01*
X121719273Y-77815134D01*
X121723781Y-77811977D01*
X121880977Y-77654781D01*
X121887837Y-77644985D01*
X122005331Y-77477185D01*
X122005332Y-77477183D01*
X122008488Y-77472676D01*
X122010811Y-77467694D01*
X122010814Y-77467689D01*
X122100117Y-77276178D01*
X122100118Y-77276177D01*
X122102440Y-77271196D01*
X122159978Y-77056463D01*
X122179353Y-76835000D01*
X122159978Y-76613537D01*
X122102440Y-76398804D01*
X122100117Y-76393822D01*
X122010814Y-76202311D01*
X122010811Y-76202306D01*
X122008488Y-76197324D01*
X122002317Y-76188511D01*
X121884136Y-76019730D01*
X121884134Y-76019727D01*
X121880977Y-76015219D01*
X121723781Y-75858023D01*
X121719276Y-75854868D01*
X121718857Y-75854517D01*
X121679532Y-75795406D01*
X121678408Y-75724418D01*
X121715841Y-75664092D01*
X121760914Y-75638165D01*
X121786289Y-75629920D01*
X121829266Y-75615956D01*
X121832852Y-75614269D01*
X121832856Y-75614267D01*
X122111283Y-75483250D01*
X122111290Y-75483246D01*
X122114869Y-75481562D01*
X122381375Y-75312432D01*
X122624582Y-75111233D01*
X122840654Y-74881140D01*
X122863024Y-74850351D01*
X122914531Y-74779457D01*
X123026184Y-74625779D01*
X123029243Y-74620216D01*
X123176340Y-74352648D01*
X123176341Y-74352647D01*
X123178247Y-74349179D01*
X123294443Y-74055702D01*
X123372940Y-73749975D01*
X123412500Y-73436821D01*
X123412500Y-73121179D01*
X123372940Y-72808025D01*
X123294443Y-72502298D01*
X123282309Y-72471652D01*
X123179702Y-72212495D01*
X123179700Y-72212490D01*
X123178247Y-72208821D01*
X123171669Y-72196856D01*
X123028093Y-71935693D01*
X123028091Y-71935690D01*
X123026184Y-71932221D01*
X122840654Y-71676860D01*
X122624582Y-71446767D01*
X122381375Y-71245568D01*
X122114869Y-71076438D01*
X122111290Y-71074754D01*
X122111283Y-71074750D01*
X121832856Y-70943733D01*
X121832852Y-70943731D01*
X121829266Y-70942044D01*
X121765854Y-70921440D01*
X121532848Y-70845732D01*
X121532850Y-70845732D01*
X121529072Y-70844505D01*
X121256139Y-70792440D01*
X121192973Y-70760028D01*
X121157357Y-70698611D01*
X121160601Y-70627688D01*
X121201673Y-70569778D01*
X121240812Y-70548839D01*
X121267785Y-70540075D01*
X121429715Y-70446585D01*
X121520119Y-70365185D01*
X121563766Y-70325885D01*
X121563767Y-70325883D01*
X121568669Y-70321470D01*
X121678573Y-70170200D01*
X121683473Y-70159196D01*
X121751940Y-70005416D01*
X121751940Y-70005414D01*
X121754625Y-69999385D01*
X121793500Y-69816490D01*
X121793500Y-69723000D01*
X123184647Y-69723000D01*
X123204022Y-69944463D01*
X123261560Y-70159196D01*
X123263882Y-70164177D01*
X123263883Y-70164178D01*
X123353186Y-70355689D01*
X123353189Y-70355694D01*
X123355512Y-70360676D01*
X123358668Y-70365183D01*
X123358669Y-70365185D01*
X123478815Y-70536771D01*
X123483023Y-70542781D01*
X123640219Y-70699977D01*
X123644727Y-70703134D01*
X123644730Y-70703136D01*
X123685621Y-70731768D01*
X123822323Y-70827488D01*
X123827305Y-70829811D01*
X123827310Y-70829814D01*
X123967547Y-70895207D01*
X124023804Y-70921440D01*
X124029112Y-70922862D01*
X124029114Y-70922863D01*
X124094949Y-70940503D01*
X124238537Y-70978978D01*
X124460000Y-70998353D01*
X124681463Y-70978978D01*
X124825051Y-70940503D01*
X124890886Y-70922863D01*
X124890888Y-70922862D01*
X124896196Y-70921440D01*
X124952453Y-70895207D01*
X125092690Y-70829814D01*
X125092695Y-70829811D01*
X125097677Y-70827488D01*
X125234379Y-70731768D01*
X125275270Y-70703136D01*
X125275273Y-70703134D01*
X125279781Y-70699977D01*
X125436977Y-70542781D01*
X125441186Y-70536771D01*
X125561331Y-70365185D01*
X125561332Y-70365183D01*
X125564488Y-70360676D01*
X125566811Y-70355694D01*
X125566814Y-70355689D01*
X125656117Y-70164178D01*
X125656118Y-70164177D01*
X125658440Y-70159196D01*
X125715978Y-69944463D01*
X125735353Y-69723000D01*
X125715978Y-69501537D01*
X125658440Y-69286804D01*
X125585260Y-69129869D01*
X125566814Y-69090311D01*
X125566811Y-69090306D01*
X125564488Y-69085324D01*
X125561331Y-69080815D01*
X125440136Y-68907730D01*
X125440134Y-68907727D01*
X125436977Y-68903219D01*
X125279781Y-68746023D01*
X125275273Y-68742866D01*
X125275270Y-68742864D01*
X125189348Y-68682701D01*
X125097677Y-68618512D01*
X125092695Y-68616189D01*
X125092690Y-68616186D01*
X124901178Y-68526883D01*
X124901177Y-68526882D01*
X124896196Y-68524560D01*
X124890888Y-68523138D01*
X124890886Y-68523137D01*
X124825051Y-68505497D01*
X124681463Y-68467022D01*
X124460000Y-68447647D01*
X124238537Y-68467022D01*
X124094949Y-68505497D01*
X124029114Y-68523137D01*
X124029112Y-68523138D01*
X124023804Y-68524560D01*
X124018823Y-68526882D01*
X124018822Y-68526883D01*
X123827311Y-68616186D01*
X123827306Y-68616189D01*
X123822324Y-68618512D01*
X123817817Y-68621668D01*
X123817815Y-68621669D01*
X123644730Y-68742864D01*
X123644727Y-68742866D01*
X123640219Y-68746023D01*
X123483023Y-68903219D01*
X123479866Y-68907727D01*
X123479864Y-68907730D01*
X123358669Y-69080815D01*
X123355512Y-69085324D01*
X123353189Y-69090306D01*
X123353186Y-69090311D01*
X123334740Y-69129869D01*
X123261560Y-69286804D01*
X123204022Y-69501537D01*
X123184647Y-69723000D01*
X121793500Y-69723000D01*
X121793500Y-69629510D01*
X121754625Y-69446615D01*
X121751940Y-69440584D01*
X121681258Y-69281830D01*
X121681257Y-69281828D01*
X121678573Y-69275800D01*
X121568669Y-69124530D01*
X121525127Y-69085324D01*
X121434623Y-69003834D01*
X121434622Y-69003833D01*
X121429715Y-68999415D01*
X121267785Y-68905925D01*
X121193722Y-68881861D01*
X121096235Y-68850185D01*
X121096234Y-68850185D01*
X121089956Y-68848145D01*
X121083393Y-68847455D01*
X121083392Y-68847455D01*
X121060803Y-68845081D01*
X120950620Y-68833500D01*
X120857380Y-68833500D01*
X120747197Y-68845081D01*
X120724608Y-68847455D01*
X120724607Y-68847455D01*
X120718044Y-68848145D01*
X120711766Y-68850185D01*
X120711765Y-68850185D01*
X120614278Y-68881861D01*
X120540215Y-68905925D01*
X120378285Y-68999415D01*
X120373378Y-69003833D01*
X120373377Y-69003834D01*
X120282874Y-69085324D01*
X120239331Y-69124530D01*
X120129427Y-69275800D01*
X120126743Y-69281828D01*
X120126742Y-69281830D01*
X120056060Y-69440584D01*
X120053375Y-69446615D01*
X120014500Y-69629510D01*
X120014500Y-69816490D01*
X120053375Y-69999385D01*
X120056060Y-70005414D01*
X120056060Y-70005416D01*
X120124528Y-70159196D01*
X120129427Y-70170200D01*
X120239331Y-70321470D01*
X120244233Y-70325883D01*
X120244234Y-70325885D01*
X120287881Y-70365185D01*
X120378285Y-70446585D01*
X120540215Y-70540075D01*
X120567188Y-70548839D01*
X120625794Y-70588913D01*
X120653430Y-70654310D01*
X120641323Y-70724267D01*
X120593316Y-70776573D01*
X120551862Y-70792440D01*
X120278928Y-70844505D01*
X120275150Y-70845732D01*
X120275152Y-70845732D01*
X120042147Y-70921440D01*
X119978734Y-70942044D01*
X119975148Y-70943731D01*
X119975144Y-70943733D01*
X119696717Y-71074750D01*
X119696710Y-71074754D01*
X119693131Y-71076438D01*
X119426625Y-71245568D01*
X119183418Y-71446767D01*
X118967346Y-71676860D01*
X118781816Y-71932221D01*
X118779909Y-71935690D01*
X118779907Y-71935693D01*
X118636331Y-72196856D01*
X118629753Y-72208821D01*
X118628300Y-72212490D01*
X118628298Y-72212495D01*
X118525691Y-72471652D01*
X118513557Y-72502298D01*
X118435060Y-72808025D01*
X118395500Y-73121179D01*
X118395500Y-73436821D01*
X118435060Y-73749975D01*
X118513557Y-74055702D01*
X118629753Y-74349179D01*
X118631659Y-74352647D01*
X118631660Y-74352648D01*
X118778758Y-74620216D01*
X118781816Y-74625779D01*
X118893469Y-74779457D01*
X118944977Y-74850351D01*
X118967346Y-74881140D01*
X119183418Y-75111233D01*
X119426625Y-75312432D01*
X119693131Y-75481562D01*
X119696710Y-75483246D01*
X119696717Y-75483250D01*
X119975144Y-75614267D01*
X119975148Y-75614269D01*
X119978734Y-75615956D01*
X120021711Y-75629920D01*
X120047086Y-75638165D01*
X120105691Y-75678239D01*
X120133328Y-75743636D01*
X120121221Y-75813592D01*
X120089143Y-75854517D01*
X120088724Y-75854868D01*
X120084219Y-75858023D01*
X119927023Y-76015219D01*
X119923866Y-76019727D01*
X119923864Y-76019730D01*
X119805683Y-76188511D01*
X119799512Y-76197324D01*
X119797189Y-76202306D01*
X119797186Y-76202311D01*
X119707883Y-76393822D01*
X119705560Y-76398804D01*
X119648022Y-76613537D01*
X119628647Y-76835000D01*
X119629126Y-76840475D01*
X119630114Y-76851769D01*
X119616124Y-76921374D01*
X119566725Y-76972366D01*
X119497599Y-76988556D01*
X119430693Y-76964803D01*
X119415498Y-76951845D01*
X118850614Y-76386961D01*
X118844760Y-76380695D01*
X118809476Y-76340248D01*
X118760898Y-76306107D01*
X118755604Y-76302175D01*
X118755352Y-76301977D01*
X118708879Y-76265537D01*
X118701955Y-76262411D01*
X118695824Y-76258698D01*
X118691204Y-76256062D01*
X118684822Y-76252640D01*
X118678603Y-76248269D01*
X118623286Y-76226701D01*
X118617207Y-76224146D01*
X118583537Y-76208944D01*
X118563088Y-76199711D01*
X118555612Y-76198325D01*
X118548734Y-76196170D01*
X118543609Y-76194710D01*
X118536645Y-76192922D01*
X118529566Y-76190162D01*
X118522034Y-76189170D01*
X118522032Y-76189170D01*
X118494106Y-76185494D01*
X118429178Y-76156773D01*
X118407337Y-76132842D01*
X118328136Y-76019731D01*
X118324977Y-76015219D01*
X118167781Y-75858023D01*
X118163273Y-75854866D01*
X118163270Y-75854864D01*
X118071540Y-75790634D01*
X117985677Y-75730512D01*
X117980695Y-75728189D01*
X117980690Y-75728186D01*
X117789178Y-75638883D01*
X117789177Y-75638882D01*
X117784196Y-75636560D01*
X117778888Y-75635138D01*
X117778886Y-75635137D01*
X117700998Y-75614267D01*
X117569463Y-75579022D01*
X117348000Y-75559647D01*
X117126537Y-75579022D01*
X116995002Y-75614267D01*
X116917114Y-75635137D01*
X116917112Y-75635138D01*
X116911804Y-75636560D01*
X116906823Y-75638882D01*
X116906822Y-75638883D01*
X116715311Y-75728186D01*
X116715306Y-75728189D01*
X116710324Y-75730512D01*
X116705817Y-75733668D01*
X116705815Y-75733669D01*
X116532730Y-75854864D01*
X116532727Y-75854866D01*
X116528219Y-75858023D01*
X116371023Y-76015219D01*
X116367866Y-76019727D01*
X116367864Y-76019730D01*
X116249683Y-76188511D01*
X116243512Y-76197324D01*
X116241189Y-76202306D01*
X116241186Y-76202311D01*
X116151883Y-76393822D01*
X116149560Y-76398804D01*
X116092022Y-76613537D01*
X116072647Y-76835000D01*
X116092022Y-77056463D01*
X116149560Y-77271196D01*
X116151882Y-77276177D01*
X116151883Y-77276178D01*
X116241186Y-77467689D01*
X116241189Y-77467694D01*
X116243512Y-77472676D01*
X116246668Y-77477183D01*
X116246669Y-77477185D01*
X116364164Y-77644985D01*
X116371023Y-77654781D01*
X116528219Y-77811977D01*
X116532727Y-77815134D01*
X116532730Y-77815136D01*
X116584842Y-77851625D01*
X116710323Y-77939488D01*
X116715305Y-77941811D01*
X116715310Y-77941814D01*
X116906822Y-78031117D01*
X116911804Y-78033440D01*
X116917112Y-78034862D01*
X116917114Y-78034863D01*
X116951815Y-78044161D01*
X117126537Y-78090978D01*
X117348000Y-78110353D01*
X117569463Y-78090978D01*
X117744185Y-78044161D01*
X117778886Y-78034863D01*
X117778888Y-78034862D01*
X117784196Y-78033440D01*
X117789178Y-78031117D01*
X117980690Y-77941814D01*
X117980695Y-77941811D01*
X117985677Y-77939488D01*
X118111158Y-77851625D01*
X118163270Y-77815136D01*
X118163273Y-77815134D01*
X118167781Y-77811977D01*
X118197957Y-77781801D01*
X118260269Y-77747775D01*
X118331084Y-77752840D01*
X118376147Y-77781801D01*
X122449393Y-81855047D01*
X122455246Y-81861312D01*
X122490524Y-81901752D01*
X122496742Y-81906122D01*
X122539084Y-81935880D01*
X122544380Y-81939813D01*
X122591121Y-81976463D01*
X122598045Y-81979589D01*
X122604176Y-81983302D01*
X122608796Y-81985938D01*
X122615178Y-81989360D01*
X122621397Y-81993731D01*
X122630495Y-81997278D01*
X122676713Y-82015298D01*
X122682792Y-82017854D01*
X122736912Y-82042289D01*
X122744388Y-82043675D01*
X122751266Y-82045830D01*
X122756391Y-82047290D01*
X122763355Y-82049078D01*
X122770434Y-82051838D01*
X122777966Y-82052830D01*
X122777968Y-82052830D01*
X122803196Y-82056151D01*
X122829300Y-82059587D01*
X122835798Y-82060616D01*
X122894197Y-82071440D01*
X122901777Y-82071003D01*
X122901778Y-82071003D01*
X122951967Y-82068109D01*
X122959220Y-82067900D01*
X129976056Y-82067900D01*
X130044177Y-82087902D01*
X130065151Y-82104805D01*
X130226595Y-82266249D01*
X130260621Y-82328561D01*
X130263500Y-82355344D01*
X130263500Y-83525134D01*
X130270255Y-83587316D01*
X130321385Y-83723705D01*
X130408739Y-83840261D01*
X130525295Y-83927615D01*
X130661684Y-83978745D01*
X130723866Y-83985500D01*
X132055100Y-83985500D01*
X132123221Y-84005502D01*
X132169714Y-84059158D01*
X132181100Y-84111500D01*
X132181100Y-91241056D01*
X132161098Y-91309177D01*
X132144195Y-91330151D01*
X131954687Y-91519659D01*
X131892375Y-91553685D01*
X131832980Y-91552270D01*
X131805409Y-91544882D01*
X131805398Y-91544880D01*
X131800087Y-91543457D01*
X131572000Y-91523502D01*
X131343913Y-91543457D01*
X131338600Y-91544881D01*
X131338598Y-91544881D01*
X131128067Y-91601293D01*
X131128065Y-91601294D01*
X131122757Y-91602716D01*
X131117776Y-91605039D01*
X131117775Y-91605039D01*
X130920238Y-91697151D01*
X130920233Y-91697154D01*
X130915251Y-91699477D01*
X130820121Y-91766088D01*
X130732211Y-91827643D01*
X130732208Y-91827645D01*
X130727700Y-91830802D01*
X130565802Y-91992700D01*
X130562645Y-91997208D01*
X130562643Y-91997211D01*
X130475005Y-92122371D01*
X130419548Y-92166699D01*
X130371792Y-92176100D01*
X129498216Y-92176100D01*
X129430095Y-92156098D01*
X129395003Y-92122371D01*
X129363948Y-92078019D01*
X129307190Y-91996961D01*
X129279357Y-91957211D01*
X129279355Y-91957208D01*
X129276198Y-91952700D01*
X129114300Y-91790802D01*
X129109792Y-91787645D01*
X129109789Y-91787643D01*
X128985778Y-91700810D01*
X128926749Y-91659477D01*
X128921767Y-91657154D01*
X128921762Y-91657151D01*
X128724225Y-91565039D01*
X128724224Y-91565039D01*
X128719243Y-91562716D01*
X128713935Y-91561294D01*
X128713933Y-91561293D01*
X128503402Y-91504881D01*
X128503400Y-91504881D01*
X128498087Y-91503457D01*
X128270000Y-91483502D01*
X128041913Y-91503457D01*
X128036600Y-91504881D01*
X128036598Y-91504881D01*
X127826067Y-91561293D01*
X127826065Y-91561294D01*
X127820757Y-91562716D01*
X127815776Y-91565039D01*
X127815775Y-91565039D01*
X127618238Y-91657151D01*
X127618233Y-91657154D01*
X127613251Y-91659477D01*
X127554222Y-91700810D01*
X127430211Y-91787643D01*
X127430208Y-91787645D01*
X127425700Y-91790802D01*
X127263802Y-91952700D01*
X127260645Y-91957208D01*
X127260643Y-91957211D01*
X127173005Y-92082371D01*
X127117548Y-92126699D01*
X127069792Y-92136100D01*
X126523944Y-92136100D01*
X126455823Y-92116098D01*
X126434849Y-92099195D01*
X122914614Y-88578961D01*
X122908760Y-88572695D01*
X122878470Y-88537973D01*
X122873476Y-88532248D01*
X122824898Y-88498107D01*
X122819604Y-88494175D01*
X122778855Y-88462223D01*
X122778856Y-88462223D01*
X122772879Y-88457537D01*
X122765955Y-88454411D01*
X122759824Y-88450698D01*
X122755204Y-88448062D01*
X122748822Y-88444640D01*
X122742603Y-88440269D01*
X122687286Y-88418701D01*
X122681207Y-88416146D01*
X122627088Y-88391711D01*
X122619612Y-88390325D01*
X122612734Y-88388170D01*
X122607609Y-88386710D01*
X122600645Y-88384922D01*
X122593566Y-88382162D01*
X122586034Y-88381170D01*
X122586032Y-88381170D01*
X122560804Y-88377849D01*
X122534700Y-88374413D01*
X122528202Y-88373384D01*
X122469803Y-88362560D01*
X122462223Y-88362997D01*
X122462222Y-88362997D01*
X122412033Y-88365891D01*
X122404780Y-88366100D01*
X120385079Y-88366100D01*
X120316958Y-88346098D01*
X120279287Y-88308540D01*
X120208822Y-88199617D01*
X120208820Y-88199614D01*
X120206014Y-88195277D01*
X120055670Y-88030051D01*
X120051619Y-88026852D01*
X120051615Y-88026848D01*
X119884414Y-87894800D01*
X119884410Y-87894798D01*
X119880359Y-87891598D01*
X119684789Y-87783638D01*
X119679920Y-87781914D01*
X119679916Y-87781912D01*
X119479087Y-87710795D01*
X119479083Y-87710794D01*
X119474212Y-87709069D01*
X119469119Y-87708162D01*
X119469116Y-87708161D01*
X119259373Y-87670800D01*
X119259367Y-87670799D01*
X119254284Y-87669894D01*
X119180452Y-87668992D01*
X119036081Y-87667228D01*
X119036079Y-87667228D01*
X119030911Y-87667165D01*
X118810091Y-87700955D01*
X118809806Y-87699093D01*
X118747055Y-87695829D01*
X118699689Y-87666035D01*
X116324815Y-85291162D01*
X116290790Y-85228850D01*
X116295434Y-85160065D01*
X116296284Y-85158243D01*
X116355543Y-84937087D01*
X116375498Y-84709000D01*
X116355543Y-84480913D01*
X116354119Y-84475598D01*
X116297707Y-84265067D01*
X116297706Y-84265065D01*
X116296284Y-84259757D01*
X116266500Y-84195884D01*
X116201849Y-84057238D01*
X116201846Y-84057233D01*
X116199523Y-84052251D01*
X116068198Y-83864700D01*
X115906300Y-83702802D01*
X115901792Y-83699645D01*
X115901789Y-83699643D01*
X115751936Y-83594715D01*
X115718749Y-83571477D01*
X115713767Y-83569154D01*
X115713762Y-83569151D01*
X115516225Y-83477039D01*
X115516224Y-83477039D01*
X115511243Y-83474716D01*
X115505935Y-83473294D01*
X115505933Y-83473293D01*
X115295402Y-83416881D01*
X115295400Y-83416881D01*
X115290087Y-83415457D01*
X115062000Y-83395502D01*
X114833913Y-83415457D01*
X114828600Y-83416881D01*
X114828598Y-83416881D01*
X114618067Y-83473293D01*
X114618065Y-83473294D01*
X114612757Y-83474716D01*
X114607776Y-83477039D01*
X114607775Y-83477039D01*
X114410238Y-83569151D01*
X114410233Y-83569154D01*
X114405251Y-83571477D01*
X114372064Y-83594715D01*
X114222211Y-83699643D01*
X114222208Y-83699645D01*
X114217700Y-83702802D01*
X114055802Y-83864700D01*
X113924477Y-84052251D01*
X113922154Y-84057233D01*
X113922151Y-84057238D01*
X113857500Y-84195884D01*
X113827716Y-84259757D01*
X113826294Y-84265065D01*
X113826293Y-84265067D01*
X113769881Y-84475598D01*
X113768457Y-84480913D01*
X113748502Y-84709000D01*
X113768457Y-84937087D01*
X113769881Y-84942400D01*
X113769881Y-84942402D01*
X113826293Y-85152931D01*
X113827716Y-85158243D01*
X113830039Y-85163224D01*
X113830039Y-85163225D01*
X113922151Y-85360762D01*
X113922154Y-85360767D01*
X113924477Y-85365749D01*
X114055802Y-85553300D01*
X114217700Y-85715198D01*
X114222208Y-85718355D01*
X114222211Y-85718357D01*
X114248271Y-85736604D01*
X114405251Y-85846523D01*
X114410233Y-85848846D01*
X114410238Y-85848849D01*
X114594387Y-85934718D01*
X114612757Y-85943284D01*
X114618065Y-85944706D01*
X114618067Y-85944707D01*
X114828598Y-86001119D01*
X114828600Y-86001119D01*
X114833913Y-86002543D01*
X115062000Y-86022498D01*
X115067475Y-86022019D01*
X115118270Y-86017575D01*
X115187875Y-86031564D01*
X115218347Y-86054001D01*
X116493849Y-87329502D01*
X117767365Y-88603018D01*
X117801390Y-88665330D01*
X117799687Y-88725783D01*
X117786989Y-88771570D01*
X117786441Y-88776700D01*
X117786440Y-88776704D01*
X117782429Y-88814239D01*
X117763251Y-88993695D01*
X117763548Y-88998848D01*
X117763548Y-88998851D01*
X117772715Y-89157830D01*
X117776110Y-89216715D01*
X117777247Y-89221761D01*
X117777248Y-89221767D01*
X117783792Y-89250802D01*
X117825222Y-89434639D01*
X117884423Y-89580435D01*
X117898519Y-89615148D01*
X117909266Y-89641616D01*
X117946355Y-89702140D01*
X118021629Y-89824976D01*
X118025987Y-89832088D01*
X118172250Y-90000938D01*
X118344126Y-90143632D01*
X118372869Y-90160428D01*
X118417445Y-90186476D01*
X118466169Y-90238114D01*
X118479240Y-90307897D01*
X118452509Y-90373669D01*
X118412055Y-90407027D01*
X118399607Y-90413507D01*
X118395474Y-90416610D01*
X118395471Y-90416612D01*
X118225100Y-90544530D01*
X118220965Y-90547635D01*
X118066629Y-90709138D01*
X118063715Y-90713410D01*
X118063714Y-90713411D01*
X118024949Y-90770238D01*
X117940743Y-90893680D01*
X117924567Y-90928528D01*
X117855326Y-91077697D01*
X117846688Y-91096305D01*
X117845305Y-91101291D01*
X117845303Y-91101297D01*
X117840629Y-91118151D01*
X117803149Y-91178447D01*
X117739019Y-91208909D01*
X117668601Y-91199863D01*
X117630118Y-91173570D01*
X116332815Y-89876267D01*
X116323713Y-89866124D01*
X116303634Y-89841151D01*
X116299775Y-89836351D01*
X116260998Y-89803813D01*
X116257371Y-89800649D01*
X116255502Y-89798954D01*
X116253308Y-89796760D01*
X116219742Y-89769188D01*
X116218945Y-89768526D01*
X116147067Y-89708214D01*
X116142361Y-89705627D01*
X116138211Y-89702218D01*
X116132787Y-89699310D01*
X116132777Y-89699303D01*
X116055632Y-89657939D01*
X116054472Y-89657310D01*
X116033935Y-89646020D01*
X115972379Y-89612179D01*
X115967259Y-89610555D01*
X115962526Y-89608017D01*
X115873007Y-89580648D01*
X115871748Y-89580256D01*
X115788239Y-89553765D01*
X115788235Y-89553764D01*
X115782365Y-89551902D01*
X115777027Y-89551303D01*
X115771891Y-89549733D01*
X115765760Y-89549110D01*
X115765759Y-89549110D01*
X115745103Y-89547012D01*
X115678569Y-89540254D01*
X115677449Y-89540134D01*
X115627216Y-89534500D01*
X115623711Y-89534500D01*
X115622603Y-89534438D01*
X115616908Y-89533990D01*
X115579695Y-89530210D01*
X115579688Y-89530210D01*
X115573565Y-89529588D01*
X115529398Y-89533763D01*
X115527515Y-89533941D01*
X115515657Y-89534500D01*
X114108276Y-89534500D01*
X114094668Y-89533763D01*
X114062821Y-89530303D01*
X114062817Y-89530303D01*
X114056696Y-89529638D01*
X114019828Y-89532863D01*
X114006310Y-89534046D01*
X114001482Y-89534375D01*
X113998927Y-89534500D01*
X113995843Y-89534500D01*
X113980469Y-89536008D01*
X113952781Y-89538722D01*
X113951468Y-89538844D01*
X113911371Y-89542352D01*
X113858108Y-89547012D01*
X113852948Y-89548511D01*
X113847606Y-89549035D01*
X113757904Y-89576117D01*
X113756764Y-89576455D01*
X113666678Y-89602628D01*
X113661910Y-89605100D01*
X113656768Y-89606652D01*
X113651323Y-89609547D01*
X113651316Y-89609550D01*
X113574050Y-89650633D01*
X113572946Y-89651213D01*
X113489696Y-89694366D01*
X113485497Y-89697718D01*
X113480756Y-89700239D01*
X113475984Y-89704131D01*
X113408171Y-89759438D01*
X113407145Y-89760266D01*
X113387660Y-89775821D01*
X113367684Y-89791768D01*
X113365189Y-89794263D01*
X113364395Y-89794973D01*
X113360040Y-89798693D01*
X113331049Y-89822337D01*
X113331046Y-89822340D01*
X113326274Y-89826232D01*
X113322346Y-89830980D01*
X113322345Y-89830981D01*
X113296789Y-89861873D01*
X113288800Y-89870652D01*
X112609267Y-90550185D01*
X112599125Y-90559286D01*
X112569351Y-90583225D01*
X112536813Y-90622002D01*
X112533649Y-90625629D01*
X112531954Y-90627498D01*
X112529760Y-90629692D01*
X112502188Y-90663258D01*
X112501526Y-90664055D01*
X112441214Y-90735933D01*
X112438627Y-90740639D01*
X112435218Y-90744789D01*
X112432310Y-90750213D01*
X112432303Y-90750223D01*
X112390939Y-90827368D01*
X112390310Y-90828528D01*
X112345179Y-90910621D01*
X112343555Y-90915741D01*
X112341017Y-90920474D01*
X112329200Y-90959125D01*
X112313648Y-91009993D01*
X112313256Y-91011252D01*
X112287765Y-91091610D01*
X112284902Y-91100635D01*
X112284303Y-91105973D01*
X112282733Y-91111109D01*
X112274527Y-91191902D01*
X112273263Y-91204343D01*
X112273134Y-91205551D01*
X112267500Y-91255784D01*
X112267500Y-91259289D01*
X112267438Y-91260397D01*
X112266990Y-91266092D01*
X112263210Y-91303305D01*
X112263210Y-91303312D01*
X112262588Y-91309435D01*
X108966500Y-91309435D01*
X108966500Y-69723000D01*
X116072647Y-69723000D01*
X116092022Y-69944463D01*
X116149560Y-70159196D01*
X116151882Y-70164177D01*
X116151883Y-70164178D01*
X116241186Y-70355689D01*
X116241189Y-70355694D01*
X116243512Y-70360676D01*
X116246668Y-70365183D01*
X116246669Y-70365185D01*
X116366815Y-70536771D01*
X116371023Y-70542781D01*
X116528219Y-70699977D01*
X116532727Y-70703134D01*
X116532730Y-70703136D01*
X116573621Y-70731768D01*
X116710323Y-70827488D01*
X116715305Y-70829811D01*
X116715310Y-70829814D01*
X116855547Y-70895207D01*
X116911804Y-70921440D01*
X116917112Y-70922862D01*
X116917114Y-70922863D01*
X116982949Y-70940503D01*
X117126537Y-70978978D01*
X117348000Y-70998353D01*
X117569463Y-70978978D01*
X117713051Y-70940503D01*
X117778886Y-70922863D01*
X117778888Y-70922862D01*
X117784196Y-70921440D01*
X117840453Y-70895207D01*
X117980690Y-70829814D01*
X117980695Y-70829811D01*
X117985677Y-70827488D01*
X118122379Y-70731768D01*
X118163270Y-70703136D01*
X118163273Y-70703134D01*
X118167781Y-70699977D01*
X118324977Y-70542781D01*
X118329186Y-70536771D01*
X118449331Y-70365185D01*
X118449332Y-70365183D01*
X118452488Y-70360676D01*
X118454811Y-70355694D01*
X118454814Y-70355689D01*
X118544117Y-70164178D01*
X118544118Y-70164177D01*
X118546440Y-70159196D01*
X118603978Y-69944463D01*
X118623353Y-69723000D01*
X118603978Y-69501537D01*
X118546440Y-69286804D01*
X118473260Y-69129869D01*
X118454814Y-69090311D01*
X118454811Y-69090306D01*
X118452488Y-69085324D01*
X118449331Y-69080815D01*
X118328136Y-68907730D01*
X118328134Y-68907727D01*
X118324977Y-68903219D01*
X118167781Y-68746023D01*
X118163273Y-68742866D01*
X118163270Y-68742864D01*
X118077348Y-68682701D01*
X117985677Y-68618512D01*
X117980695Y-68616189D01*
X117980690Y-68616186D01*
X117789178Y-68526883D01*
X117789177Y-68526882D01*
X117784196Y-68524560D01*
X117778888Y-68523138D01*
X117778886Y-68523137D01*
X117713051Y-68505497D01*
X117569463Y-68467022D01*
X117348000Y-68447647D01*
X117126537Y-68467022D01*
X116982949Y-68505497D01*
X116917114Y-68523137D01*
X116917112Y-68523138D01*
X116911804Y-68524560D01*
X116906823Y-68526882D01*
X116906822Y-68526883D01*
X116715311Y-68616186D01*
X116715306Y-68616189D01*
X116710324Y-68618512D01*
X116705817Y-68621668D01*
X116705815Y-68621669D01*
X116532730Y-68742864D01*
X116532727Y-68742866D01*
X116528219Y-68746023D01*
X116371023Y-68903219D01*
X116367866Y-68907727D01*
X116367864Y-68907730D01*
X116246669Y-69080815D01*
X116243512Y-69085324D01*
X116241189Y-69090306D01*
X116241186Y-69090311D01*
X116222740Y-69129869D01*
X116149560Y-69286804D01*
X116092022Y-69501537D01*
X116072647Y-69723000D01*
X108966500Y-69723000D01*
X108966500Y-67953818D01*
X108986502Y-67885697D01*
X109003405Y-67864722D01*
X109139724Y-67728404D01*
X109202036Y-67694379D01*
X109228819Y-67691500D01*
X176775182Y-67691500D01*
X176843303Y-67711502D01*
G37*
%TD.AperFunction*%
M02*
