%TF.GenerationSoftware,KiCad,Pcbnew,6.0.11-2627ca5db0~126~ubuntu22.04.1*%
%TF.CreationDate,2023-04-09T20:53:47-04:00*%
%TF.ProjectId,sub_rf_mod,7375625f-7266-45f6-9d6f-642e6b696361,rev?*%
%TF.SameCoordinates,Original*%
%TF.FileFunction,Legend,Top*%
%TF.FilePolarity,Positive*%
%FSLAX46Y46*%
G04 Gerber Fmt 4.6, Leading zero omitted, Abs format (unit mm)*
G04 Created by KiCad (PCBNEW 6.0.11-2627ca5db0~126~ubuntu22.04.1) date 2023-04-09 20:53:47*
%MOMM*%
%LPD*%
G01*
G04 APERTURE LIST*
%TA.AperFunction,Profile*%
%ADD10C,0.100000*%
%TD*%
%ADD11C,0.150000*%
%ADD12C,0.254000*%
%ADD13C,0.120000*%
%ADD14C,0.100000*%
%ADD15C,0.200000*%
G04 APERTURE END LIST*
D10*
X173736000Y-120128760D02*
X174244000Y-119620760D01*
X105664000Y-120128760D02*
X173736000Y-120128760D01*
X105664000Y-70090760D02*
X173736000Y-70090760D01*
X105664000Y-70090760D02*
X105156000Y-70598760D01*
X174244000Y-119620760D02*
X174244000Y-70598760D01*
X173736000Y-70090760D02*
X174244000Y-70598760D01*
X105156000Y-119620760D02*
X105664000Y-120128760D01*
X105156000Y-119620760D02*
X105156000Y-70598760D01*
D11*
%TO.C,RF_R4*%
X134921809Y-118803140D02*
X134588476Y-118326950D01*
X134350380Y-118803140D02*
X134350380Y-117803140D01*
X134731333Y-117803140D01*
X134826571Y-117850760D01*
X134874190Y-117898379D01*
X134921809Y-117993617D01*
X134921809Y-118136474D01*
X134874190Y-118231712D01*
X134826571Y-118279331D01*
X134731333Y-118326950D01*
X134350380Y-118326950D01*
X135683714Y-118279331D02*
X135350380Y-118279331D01*
X135350380Y-118803140D02*
X135350380Y-117803140D01*
X135826571Y-117803140D01*
X135969428Y-118898379D02*
X136731333Y-118898379D01*
X137540857Y-118803140D02*
X137207523Y-118326950D01*
X136969428Y-118803140D02*
X136969428Y-117803140D01*
X137350380Y-117803140D01*
X137445619Y-117850760D01*
X137493238Y-117898379D01*
X137540857Y-117993617D01*
X137540857Y-118136474D01*
X137493238Y-118231712D01*
X137445619Y-118279331D01*
X137350380Y-118326950D01*
X136969428Y-118326950D01*
X138398000Y-118136474D02*
X138398000Y-118803140D01*
X138159904Y-117755521D02*
X137921809Y-118469807D01*
X138540857Y-118469807D01*
%TO.C,RF_R1*%
X109842380Y-92902950D02*
X109366190Y-93236283D01*
X109842380Y-93474379D02*
X108842380Y-93474379D01*
X108842380Y-93093426D01*
X108890000Y-92998188D01*
X108937619Y-92950569D01*
X109032857Y-92902950D01*
X109175714Y-92902950D01*
X109270952Y-92950569D01*
X109318571Y-92998188D01*
X109366190Y-93093426D01*
X109366190Y-93474379D01*
X109318571Y-92141045D02*
X109318571Y-92474379D01*
X109842380Y-92474379D02*
X108842380Y-92474379D01*
X108842380Y-91998188D01*
X109937619Y-91855331D02*
X109937619Y-91093426D01*
X109842380Y-90283902D02*
X109366190Y-90617236D01*
X109842380Y-90855331D02*
X108842380Y-90855331D01*
X108842380Y-90474379D01*
X108890000Y-90379140D01*
X108937619Y-90331521D01*
X109032857Y-90283902D01*
X109175714Y-90283902D01*
X109270952Y-90331521D01*
X109318571Y-90379140D01*
X109366190Y-90474379D01*
X109366190Y-90855331D01*
X109842380Y-89331521D02*
X109842380Y-89902950D01*
X109842380Y-89617236D02*
X108842380Y-89617236D01*
X108985238Y-89712474D01*
X109080476Y-89807712D01*
X109128095Y-89902950D01*
%TO.C,RF_R9*%
X146756380Y-86298950D02*
X146280190Y-86632283D01*
X146756380Y-86870379D02*
X145756380Y-86870379D01*
X145756380Y-86489426D01*
X145804000Y-86394188D01*
X145851619Y-86346569D01*
X145946857Y-86298950D01*
X146089714Y-86298950D01*
X146184952Y-86346569D01*
X146232571Y-86394188D01*
X146280190Y-86489426D01*
X146280190Y-86870379D01*
X146232571Y-85537045D02*
X146232571Y-85870379D01*
X146756380Y-85870379D02*
X145756380Y-85870379D01*
X145756380Y-85394188D01*
X146851619Y-85251331D02*
X146851619Y-84489426D01*
X146756380Y-83679902D02*
X146280190Y-84013236D01*
X146756380Y-84251331D02*
X145756380Y-84251331D01*
X145756380Y-83870379D01*
X145804000Y-83775140D01*
X145851619Y-83727521D01*
X145946857Y-83679902D01*
X146089714Y-83679902D01*
X146184952Y-83727521D01*
X146232571Y-83775140D01*
X146280190Y-83870379D01*
X146280190Y-84251331D01*
X146756380Y-83203712D02*
X146756380Y-83013236D01*
X146708761Y-82917998D01*
X146661142Y-82870379D01*
X146518285Y-82775140D01*
X146327809Y-82727521D01*
X145946857Y-82727521D01*
X145851619Y-82775140D01*
X145804000Y-82822760D01*
X145756380Y-82917998D01*
X145756380Y-83108474D01*
X145804000Y-83203712D01*
X145851619Y-83251331D01*
X145946857Y-83298950D01*
X146184952Y-83298950D01*
X146280190Y-83251331D01*
X146327809Y-83203712D01*
X146375428Y-83108474D01*
X146375428Y-82917998D01*
X146327809Y-82822760D01*
X146280190Y-82775140D01*
X146184952Y-82727521D01*
%TO.C,RF_SW1*%
X137292190Y-78715140D02*
X136958857Y-78238950D01*
X136720761Y-78715140D02*
X136720761Y-77715140D01*
X137101714Y-77715140D01*
X137196952Y-77762760D01*
X137244571Y-77810379D01*
X137292190Y-77905617D01*
X137292190Y-78048474D01*
X137244571Y-78143712D01*
X137196952Y-78191331D01*
X137101714Y-78238950D01*
X136720761Y-78238950D01*
X138054095Y-78191331D02*
X137720761Y-78191331D01*
X137720761Y-78715140D02*
X137720761Y-77715140D01*
X138196952Y-77715140D01*
X138339809Y-78810379D02*
X139101714Y-78810379D01*
X139292190Y-78667521D02*
X139435047Y-78715140D01*
X139673142Y-78715140D01*
X139768380Y-78667521D01*
X139816000Y-78619902D01*
X139863619Y-78524664D01*
X139863619Y-78429426D01*
X139816000Y-78334188D01*
X139768380Y-78286569D01*
X139673142Y-78238950D01*
X139482666Y-78191331D01*
X139387428Y-78143712D01*
X139339809Y-78096093D01*
X139292190Y-78000855D01*
X139292190Y-77905617D01*
X139339809Y-77810379D01*
X139387428Y-77762760D01*
X139482666Y-77715140D01*
X139720761Y-77715140D01*
X139863619Y-77762760D01*
X140196952Y-77715140D02*
X140435047Y-78715140D01*
X140625523Y-78000855D01*
X140816000Y-78715140D01*
X141054095Y-77715140D01*
X141958857Y-78715140D02*
X141387428Y-78715140D01*
X141673142Y-78715140D02*
X141673142Y-77715140D01*
X141577904Y-77857998D01*
X141482666Y-77953236D01*
X141387428Y-78000855D01*
%TO.C,RF_R10*%
X139017619Y-81211140D02*
X138684285Y-80734950D01*
X138446190Y-81211140D02*
X138446190Y-80211140D01*
X138827142Y-80211140D01*
X138922380Y-80258760D01*
X138970000Y-80306379D01*
X139017619Y-80401617D01*
X139017619Y-80544474D01*
X138970000Y-80639712D01*
X138922380Y-80687331D01*
X138827142Y-80734950D01*
X138446190Y-80734950D01*
X139779523Y-80687331D02*
X139446190Y-80687331D01*
X139446190Y-81211140D02*
X139446190Y-80211140D01*
X139922380Y-80211140D01*
X140065238Y-81306379D02*
X140827142Y-81306379D01*
X141636666Y-81211140D02*
X141303333Y-80734950D01*
X141065238Y-81211140D02*
X141065238Y-80211140D01*
X141446190Y-80211140D01*
X141541428Y-80258760D01*
X141589047Y-80306379D01*
X141636666Y-80401617D01*
X141636666Y-80544474D01*
X141589047Y-80639712D01*
X141541428Y-80687331D01*
X141446190Y-80734950D01*
X141065238Y-80734950D01*
X142589047Y-81211140D02*
X142017619Y-81211140D01*
X142303333Y-81211140D02*
X142303333Y-80211140D01*
X142208095Y-80353998D01*
X142112857Y-80449236D01*
X142017619Y-80496855D01*
X143208095Y-80211140D02*
X143303333Y-80211140D01*
X143398571Y-80258760D01*
X143446190Y-80306379D01*
X143493809Y-80401617D01*
X143541428Y-80592093D01*
X143541428Y-80830188D01*
X143493809Y-81020664D01*
X143446190Y-81115902D01*
X143398571Y-81163521D01*
X143303333Y-81211140D01*
X143208095Y-81211140D01*
X143112857Y-81163521D01*
X143065238Y-81115902D01*
X143017619Y-81020664D01*
X142970000Y-80830188D01*
X142970000Y-80592093D01*
X143017619Y-80401617D01*
X143065238Y-80306379D01*
X143112857Y-80258760D01*
X143208095Y-80211140D01*
%TO.C,RF_L1*%
X162449047Y-96197140D02*
X162115714Y-95720950D01*
X161877619Y-96197140D02*
X161877619Y-95197140D01*
X162258571Y-95197140D01*
X162353809Y-95244760D01*
X162401428Y-95292379D01*
X162449047Y-95387617D01*
X162449047Y-95530474D01*
X162401428Y-95625712D01*
X162353809Y-95673331D01*
X162258571Y-95720950D01*
X161877619Y-95720950D01*
X163210952Y-95673331D02*
X162877619Y-95673331D01*
X162877619Y-96197140D02*
X162877619Y-95197140D01*
X163353809Y-95197140D01*
X163496666Y-96292379D02*
X164258571Y-96292379D01*
X164972857Y-96197140D02*
X164496666Y-96197140D01*
X164496666Y-95197140D01*
X165830000Y-96197140D02*
X165258571Y-96197140D01*
X165544285Y-96197140D02*
X165544285Y-95197140D01*
X165449047Y-95339998D01*
X165353809Y-95435236D01*
X165258571Y-95482855D01*
%TO.C,RF_C3*%
X131516380Y-107888950D02*
X131040190Y-108222283D01*
X131516380Y-108460379D02*
X130516380Y-108460379D01*
X130516380Y-108079426D01*
X130564000Y-107984188D01*
X130611619Y-107936569D01*
X130706857Y-107888950D01*
X130849714Y-107888950D01*
X130944952Y-107936569D01*
X130992571Y-107984188D01*
X131040190Y-108079426D01*
X131040190Y-108460379D01*
X130992571Y-107127045D02*
X130992571Y-107460379D01*
X131516380Y-107460379D02*
X130516380Y-107460379D01*
X130516380Y-106984188D01*
X131611619Y-106841331D02*
X131611619Y-106079426D01*
X131421142Y-105269902D02*
X131468761Y-105317521D01*
X131516380Y-105460379D01*
X131516380Y-105555617D01*
X131468761Y-105698474D01*
X131373523Y-105793712D01*
X131278285Y-105841331D01*
X131087809Y-105888950D01*
X130944952Y-105888950D01*
X130754476Y-105841331D01*
X130659238Y-105793712D01*
X130564000Y-105698474D01*
X130516380Y-105555617D01*
X130516380Y-105460379D01*
X130564000Y-105317521D01*
X130611619Y-105269902D01*
X130516380Y-104936569D02*
X130516380Y-104317521D01*
X130897333Y-104650855D01*
X130897333Y-104507998D01*
X130944952Y-104412760D01*
X130992571Y-104365140D01*
X131087809Y-104317521D01*
X131325904Y-104317521D01*
X131421142Y-104365140D01*
X131468761Y-104412760D01*
X131516380Y-104507998D01*
X131516380Y-104793712D01*
X131468761Y-104888950D01*
X131421142Y-104936569D01*
%TO.C,RF_R12*%
X142946380Y-88553140D02*
X142470190Y-88886474D01*
X142946380Y-89124569D02*
X141946380Y-89124569D01*
X141946380Y-88743617D01*
X141994000Y-88648379D01*
X142041619Y-88600760D01*
X142136857Y-88553140D01*
X142279714Y-88553140D01*
X142374952Y-88600760D01*
X142422571Y-88648379D01*
X142470190Y-88743617D01*
X142470190Y-89124569D01*
X142422571Y-87791236D02*
X142422571Y-88124569D01*
X142946380Y-88124569D02*
X141946380Y-88124569D01*
X141946380Y-87648379D01*
X143041619Y-87505521D02*
X143041619Y-86743617D01*
X142946380Y-85934093D02*
X142470190Y-86267426D01*
X142946380Y-86505521D02*
X141946380Y-86505521D01*
X141946380Y-86124569D01*
X141994000Y-86029331D01*
X142041619Y-85981712D01*
X142136857Y-85934093D01*
X142279714Y-85934093D01*
X142374952Y-85981712D01*
X142422571Y-86029331D01*
X142470190Y-86124569D01*
X142470190Y-86505521D01*
X142946380Y-84981712D02*
X142946380Y-85553140D01*
X142946380Y-85267426D02*
X141946380Y-85267426D01*
X142089238Y-85362664D01*
X142184476Y-85457902D01*
X142232095Y-85553140D01*
X142041619Y-84600760D02*
X141994000Y-84553140D01*
X141946380Y-84457902D01*
X141946380Y-84219807D01*
X141994000Y-84124569D01*
X142041619Y-84076950D01*
X142136857Y-84029331D01*
X142232095Y-84029331D01*
X142374952Y-84076950D01*
X142946380Y-84648379D01*
X142946380Y-84029331D01*
%TO.C,RF_L2*%
X157623047Y-96197140D02*
X157289714Y-95720950D01*
X157051619Y-96197140D02*
X157051619Y-95197140D01*
X157432571Y-95197140D01*
X157527809Y-95244760D01*
X157575428Y-95292379D01*
X157623047Y-95387617D01*
X157623047Y-95530474D01*
X157575428Y-95625712D01*
X157527809Y-95673331D01*
X157432571Y-95720950D01*
X157051619Y-95720950D01*
X158384952Y-95673331D02*
X158051619Y-95673331D01*
X158051619Y-96197140D02*
X158051619Y-95197140D01*
X158527809Y-95197140D01*
X158670666Y-96292379D02*
X159432571Y-96292379D01*
X160146857Y-96197140D02*
X159670666Y-96197140D01*
X159670666Y-95197140D01*
X160432571Y-95292379D02*
X160480190Y-95244760D01*
X160575428Y-95197140D01*
X160813523Y-95197140D01*
X160908761Y-95244760D01*
X160956380Y-95292379D01*
X161004000Y-95387617D01*
X161004000Y-95482855D01*
X160956380Y-95625712D01*
X160384952Y-96197140D01*
X161004000Y-96197140D01*
%TO.C,RF_C4*%
X122729809Y-113469140D02*
X122396476Y-112992950D01*
X122158380Y-113469140D02*
X122158380Y-112469140D01*
X122539333Y-112469140D01*
X122634571Y-112516760D01*
X122682190Y-112564379D01*
X122729809Y-112659617D01*
X122729809Y-112802474D01*
X122682190Y-112897712D01*
X122634571Y-112945331D01*
X122539333Y-112992950D01*
X122158380Y-112992950D01*
X123491714Y-112945331D02*
X123158380Y-112945331D01*
X123158380Y-113469140D02*
X123158380Y-112469140D01*
X123634571Y-112469140D01*
X123777428Y-113564379D02*
X124539333Y-113564379D01*
X125348857Y-113373902D02*
X125301238Y-113421521D01*
X125158380Y-113469140D01*
X125063142Y-113469140D01*
X124920285Y-113421521D01*
X124825047Y-113326283D01*
X124777428Y-113231045D01*
X124729809Y-113040569D01*
X124729809Y-112897712D01*
X124777428Y-112707236D01*
X124825047Y-112611998D01*
X124920285Y-112516760D01*
X125063142Y-112469140D01*
X125158380Y-112469140D01*
X125301238Y-112516760D01*
X125348857Y-112564379D01*
X126206000Y-112802474D02*
X126206000Y-113469140D01*
X125967904Y-112421521D02*
X125729809Y-113135807D01*
X126348857Y-113135807D01*
%TO.C,RF_R5*%
X168449809Y-116771140D02*
X168116476Y-116294950D01*
X167878380Y-116771140D02*
X167878380Y-115771140D01*
X168259333Y-115771140D01*
X168354571Y-115818760D01*
X168402190Y-115866379D01*
X168449809Y-115961617D01*
X168449809Y-116104474D01*
X168402190Y-116199712D01*
X168354571Y-116247331D01*
X168259333Y-116294950D01*
X167878380Y-116294950D01*
X169211714Y-116247331D02*
X168878380Y-116247331D01*
X168878380Y-116771140D02*
X168878380Y-115771140D01*
X169354571Y-115771140D01*
X169497428Y-116866379D02*
X170259333Y-116866379D01*
X171068857Y-116771140D02*
X170735523Y-116294950D01*
X170497428Y-116771140D02*
X170497428Y-115771140D01*
X170878380Y-115771140D01*
X170973619Y-115818760D01*
X171021238Y-115866379D01*
X171068857Y-115961617D01*
X171068857Y-116104474D01*
X171021238Y-116199712D01*
X170973619Y-116247331D01*
X170878380Y-116294950D01*
X170497428Y-116294950D01*
X171973619Y-115771140D02*
X171497428Y-115771140D01*
X171449809Y-116247331D01*
X171497428Y-116199712D01*
X171592666Y-116152093D01*
X171830761Y-116152093D01*
X171926000Y-116199712D01*
X171973619Y-116247331D01*
X172021238Y-116342569D01*
X172021238Y-116580664D01*
X171973619Y-116675902D01*
X171926000Y-116723521D01*
X171830761Y-116771140D01*
X171592666Y-116771140D01*
X171497428Y-116723521D01*
X171449809Y-116675902D01*
%TO.C,J4B1*%
X117816380Y-100610283D02*
X118530666Y-100610283D01*
X118673523Y-100657902D01*
X118768761Y-100753140D01*
X118816380Y-100895998D01*
X118816380Y-100991236D01*
X118149714Y-99705521D02*
X118816380Y-99705521D01*
X117768761Y-99943617D02*
X118483047Y-100181712D01*
X118483047Y-99562664D01*
X118292571Y-98848379D02*
X118340190Y-98705521D01*
X118387809Y-98657902D01*
X118483047Y-98610283D01*
X118625904Y-98610283D01*
X118721142Y-98657902D01*
X118768761Y-98705521D01*
X118816380Y-98800760D01*
X118816380Y-99181712D01*
X117816380Y-99181712D01*
X117816380Y-98848379D01*
X117864000Y-98753140D01*
X117911619Y-98705521D01*
X118006857Y-98657902D01*
X118102095Y-98657902D01*
X118197333Y-98705521D01*
X118244952Y-98753140D01*
X118292571Y-98848379D01*
X118292571Y-99181712D01*
X118816380Y-97657902D02*
X118816380Y-98229331D01*
X118816380Y-97943617D02*
X117816380Y-97943617D01*
X117959238Y-98038855D01*
X118054476Y-98134093D01*
X118102095Y-98229331D01*
%TO.C,RF_R7*%
X155495809Y-85021140D02*
X155162476Y-84544950D01*
X154924380Y-85021140D02*
X154924380Y-84021140D01*
X155305333Y-84021140D01*
X155400571Y-84068760D01*
X155448190Y-84116379D01*
X155495809Y-84211617D01*
X155495809Y-84354474D01*
X155448190Y-84449712D01*
X155400571Y-84497331D01*
X155305333Y-84544950D01*
X154924380Y-84544950D01*
X156257714Y-84497331D02*
X155924380Y-84497331D01*
X155924380Y-85021140D02*
X155924380Y-84021140D01*
X156400571Y-84021140D01*
X156543428Y-85116379D02*
X157305333Y-85116379D01*
X158114857Y-85021140D02*
X157781523Y-84544950D01*
X157543428Y-85021140D02*
X157543428Y-84021140D01*
X157924380Y-84021140D01*
X158019619Y-84068760D01*
X158067238Y-84116379D01*
X158114857Y-84211617D01*
X158114857Y-84354474D01*
X158067238Y-84449712D01*
X158019619Y-84497331D01*
X157924380Y-84544950D01*
X157543428Y-84544950D01*
X158448190Y-84021140D02*
X159114857Y-84021140D01*
X158686285Y-85021140D01*
%TO.C,RF_R8*%
X150923809Y-85021140D02*
X150590476Y-84544950D01*
X150352380Y-85021140D02*
X150352380Y-84021140D01*
X150733333Y-84021140D01*
X150828571Y-84068760D01*
X150876190Y-84116379D01*
X150923809Y-84211617D01*
X150923809Y-84354474D01*
X150876190Y-84449712D01*
X150828571Y-84497331D01*
X150733333Y-84544950D01*
X150352380Y-84544950D01*
X151685714Y-84497331D02*
X151352380Y-84497331D01*
X151352380Y-85021140D02*
X151352380Y-84021140D01*
X151828571Y-84021140D01*
X151971428Y-85116379D02*
X152733333Y-85116379D01*
X153542857Y-85021140D02*
X153209523Y-84544950D01*
X152971428Y-85021140D02*
X152971428Y-84021140D01*
X153352380Y-84021140D01*
X153447619Y-84068760D01*
X153495238Y-84116379D01*
X153542857Y-84211617D01*
X153542857Y-84354474D01*
X153495238Y-84449712D01*
X153447619Y-84497331D01*
X153352380Y-84544950D01*
X152971428Y-84544950D01*
X154114285Y-84449712D02*
X154019047Y-84402093D01*
X153971428Y-84354474D01*
X153923809Y-84259236D01*
X153923809Y-84211617D01*
X153971428Y-84116379D01*
X154019047Y-84068760D01*
X154114285Y-84021140D01*
X154304761Y-84021140D01*
X154400000Y-84068760D01*
X154447619Y-84116379D01*
X154495238Y-84211617D01*
X154495238Y-84259236D01*
X154447619Y-84354474D01*
X154400000Y-84402093D01*
X154304761Y-84449712D01*
X154114285Y-84449712D01*
X154019047Y-84497331D01*
X153971428Y-84544950D01*
X153923809Y-84640188D01*
X153923809Y-84830664D01*
X153971428Y-84925902D01*
X154019047Y-84973521D01*
X154114285Y-85021140D01*
X154304761Y-85021140D01*
X154400000Y-84973521D01*
X154447619Y-84925902D01*
X154495238Y-84830664D01*
X154495238Y-84640188D01*
X154447619Y-84544950D01*
X154400000Y-84497331D01*
X154304761Y-84449712D01*
D12*
%TO.C,RF_J1*%
X160340523Y-75370331D02*
X159735761Y-75793664D01*
X160340523Y-76096045D02*
X159070523Y-76096045D01*
X159070523Y-75612236D01*
X159131000Y-75491283D01*
X159191476Y-75430807D01*
X159312428Y-75370331D01*
X159493857Y-75370331D01*
X159614809Y-75430807D01*
X159675285Y-75491283D01*
X159735761Y-75612236D01*
X159735761Y-76096045D01*
X159675285Y-74402712D02*
X159675285Y-74826045D01*
X160340523Y-74826045D02*
X159070523Y-74826045D01*
X159070523Y-74221283D01*
X160461476Y-74039855D02*
X160461476Y-73072236D01*
X159070523Y-72406998D02*
X159977666Y-72406998D01*
X160159095Y-72467474D01*
X160280047Y-72588426D01*
X160340523Y-72769855D01*
X160340523Y-72890807D01*
X160340523Y-71136998D02*
X160340523Y-71862712D01*
X160340523Y-71499855D02*
X159070523Y-71499855D01*
X159251952Y-71620807D01*
X159372904Y-71741760D01*
X159433380Y-71862712D01*
D11*
%TO.C,RF_C8*%
X152447809Y-79179140D02*
X152114476Y-78702950D01*
X151876380Y-79179140D02*
X151876380Y-78179140D01*
X152257333Y-78179140D01*
X152352571Y-78226760D01*
X152400190Y-78274379D01*
X152447809Y-78369617D01*
X152447809Y-78512474D01*
X152400190Y-78607712D01*
X152352571Y-78655331D01*
X152257333Y-78702950D01*
X151876380Y-78702950D01*
X153209714Y-78655331D02*
X152876380Y-78655331D01*
X152876380Y-79179140D02*
X152876380Y-78179140D01*
X153352571Y-78179140D01*
X153495428Y-79274379D02*
X154257333Y-79274379D01*
X155066857Y-79083902D02*
X155019238Y-79131521D01*
X154876380Y-79179140D01*
X154781142Y-79179140D01*
X154638285Y-79131521D01*
X154543047Y-79036283D01*
X154495428Y-78941045D01*
X154447809Y-78750569D01*
X154447809Y-78607712D01*
X154495428Y-78417236D01*
X154543047Y-78321998D01*
X154638285Y-78226760D01*
X154781142Y-78179140D01*
X154876380Y-78179140D01*
X155019238Y-78226760D01*
X155066857Y-78274379D01*
X155638285Y-78607712D02*
X155543047Y-78560093D01*
X155495428Y-78512474D01*
X155447809Y-78417236D01*
X155447809Y-78369617D01*
X155495428Y-78274379D01*
X155543047Y-78226760D01*
X155638285Y-78179140D01*
X155828761Y-78179140D01*
X155924000Y-78226760D01*
X155971619Y-78274379D01*
X156019238Y-78369617D01*
X156019238Y-78417236D01*
X155971619Y-78512474D01*
X155924000Y-78560093D01*
X155828761Y-78607712D01*
X155638285Y-78607712D01*
X155543047Y-78655331D01*
X155495428Y-78702950D01*
X155447809Y-78798188D01*
X155447809Y-78988664D01*
X155495428Y-79083902D01*
X155543047Y-79131521D01*
X155638285Y-79179140D01*
X155828761Y-79179140D01*
X155924000Y-79131521D01*
X155971619Y-79083902D01*
X156019238Y-78988664D01*
X156019238Y-78798188D01*
X155971619Y-78702950D01*
X155924000Y-78655331D01*
X155828761Y-78607712D01*
%TO.C,RF_C9*%
X160218380Y-86044950D02*
X159742190Y-86378283D01*
X160218380Y-86616379D02*
X159218380Y-86616379D01*
X159218380Y-86235426D01*
X159266000Y-86140188D01*
X159313619Y-86092569D01*
X159408857Y-86044950D01*
X159551714Y-86044950D01*
X159646952Y-86092569D01*
X159694571Y-86140188D01*
X159742190Y-86235426D01*
X159742190Y-86616379D01*
X159694571Y-85283045D02*
X159694571Y-85616379D01*
X160218380Y-85616379D02*
X159218380Y-85616379D01*
X159218380Y-85140188D01*
X160313619Y-84997331D02*
X160313619Y-84235426D01*
X160123142Y-83425902D02*
X160170761Y-83473521D01*
X160218380Y-83616379D01*
X160218380Y-83711617D01*
X160170761Y-83854474D01*
X160075523Y-83949712D01*
X159980285Y-83997331D01*
X159789809Y-84044950D01*
X159646952Y-84044950D01*
X159456476Y-83997331D01*
X159361238Y-83949712D01*
X159266000Y-83854474D01*
X159218380Y-83711617D01*
X159218380Y-83616379D01*
X159266000Y-83473521D01*
X159313619Y-83425902D01*
X160218380Y-82949712D02*
X160218380Y-82759236D01*
X160170761Y-82663998D01*
X160123142Y-82616379D01*
X159980285Y-82521140D01*
X159789809Y-82473521D01*
X159408857Y-82473521D01*
X159313619Y-82521140D01*
X159266000Y-82568760D01*
X159218380Y-82663998D01*
X159218380Y-82854474D01*
X159266000Y-82949712D01*
X159313619Y-82997331D01*
X159408857Y-83044950D01*
X159646952Y-83044950D01*
X159742190Y-82997331D01*
X159789809Y-82949712D01*
X159837428Y-82854474D01*
X159837428Y-82663998D01*
X159789809Y-82568760D01*
X159742190Y-82521140D01*
X159646952Y-82473521D01*
%TO.C,H16*%
X110521904Y-111691140D02*
X110521904Y-110691140D01*
X110521904Y-111167331D02*
X111093333Y-111167331D01*
X111093333Y-111691140D02*
X111093333Y-110691140D01*
X112093333Y-111691140D02*
X111521904Y-111691140D01*
X111807619Y-111691140D02*
X111807619Y-110691140D01*
X111712380Y-110833998D01*
X111617142Y-110929236D01*
X111521904Y-110976855D01*
X112950476Y-110691140D02*
X112760000Y-110691140D01*
X112664761Y-110738760D01*
X112617142Y-110786379D01*
X112521904Y-110929236D01*
X112474285Y-111119712D01*
X112474285Y-111500664D01*
X112521904Y-111595902D01*
X112569523Y-111643521D01*
X112664761Y-111691140D01*
X112855238Y-111691140D01*
X112950476Y-111643521D01*
X112998095Y-111595902D01*
X113045714Y-111500664D01*
X113045714Y-111262569D01*
X112998095Y-111167331D01*
X112950476Y-111119712D01*
X112855238Y-111072093D01*
X112664761Y-111072093D01*
X112569523Y-111119712D01*
X112521904Y-111167331D01*
X112474285Y-111262569D01*
%TO.C,RF_C13*%
X110151395Y-116517140D02*
X109818061Y-116040950D01*
X109579966Y-116517140D02*
X109579966Y-115517140D01*
X109960918Y-115517140D01*
X110056156Y-115564760D01*
X110103776Y-115612379D01*
X110151395Y-115707617D01*
X110151395Y-115850474D01*
X110103776Y-115945712D01*
X110056156Y-115993331D01*
X109960918Y-116040950D01*
X109579966Y-116040950D01*
X110913299Y-115993331D02*
X110579966Y-115993331D01*
X110579966Y-116517140D02*
X110579966Y-115517140D01*
X111056156Y-115517140D01*
X111199014Y-116612379D02*
X111960918Y-116612379D01*
X112770442Y-116421902D02*
X112722823Y-116469521D01*
X112579966Y-116517140D01*
X112484728Y-116517140D01*
X112341871Y-116469521D01*
X112246633Y-116374283D01*
X112199014Y-116279045D01*
X112151395Y-116088569D01*
X112151395Y-115945712D01*
X112199014Y-115755236D01*
X112246633Y-115659998D01*
X112341871Y-115564760D01*
X112484728Y-115517140D01*
X112579966Y-115517140D01*
X112722823Y-115564760D01*
X112770442Y-115612379D01*
X113722823Y-116517140D02*
X113151395Y-116517140D01*
X113437109Y-116517140D02*
X113437109Y-115517140D01*
X113341871Y-115659998D01*
X113246633Y-115755236D01*
X113151395Y-115802855D01*
X114056156Y-115517140D02*
X114675204Y-115517140D01*
X114341871Y-115898093D01*
X114484728Y-115898093D01*
X114579966Y-115945712D01*
X114627585Y-115993331D01*
X114675204Y-116088569D01*
X114675204Y-116326664D01*
X114627585Y-116421902D01*
X114579966Y-116469521D01*
X114484728Y-116517140D01*
X114199014Y-116517140D01*
X114103776Y-116469521D01*
X114056156Y-116421902D01*
%TO.C,RF_R3*%
X131111809Y-110421140D02*
X130778476Y-109944950D01*
X130540380Y-110421140D02*
X130540380Y-109421140D01*
X130921333Y-109421140D01*
X131016571Y-109468760D01*
X131064190Y-109516379D01*
X131111809Y-109611617D01*
X131111809Y-109754474D01*
X131064190Y-109849712D01*
X131016571Y-109897331D01*
X130921333Y-109944950D01*
X130540380Y-109944950D01*
X131873714Y-109897331D02*
X131540380Y-109897331D01*
X131540380Y-110421140D02*
X131540380Y-109421140D01*
X132016571Y-109421140D01*
X132159428Y-110516379D02*
X132921333Y-110516379D01*
X133730857Y-110421140D02*
X133397523Y-109944950D01*
X133159428Y-110421140D02*
X133159428Y-109421140D01*
X133540380Y-109421140D01*
X133635619Y-109468760D01*
X133683238Y-109516379D01*
X133730857Y-109611617D01*
X133730857Y-109754474D01*
X133683238Y-109849712D01*
X133635619Y-109897331D01*
X133540380Y-109944950D01*
X133159428Y-109944950D01*
X134064190Y-109421140D02*
X134683238Y-109421140D01*
X134349904Y-109802093D01*
X134492761Y-109802093D01*
X134588000Y-109849712D01*
X134635619Y-109897331D01*
X134683238Y-109992569D01*
X134683238Y-110230664D01*
X134635619Y-110325902D01*
X134588000Y-110373521D01*
X134492761Y-110421140D01*
X134207047Y-110421140D01*
X134111809Y-110373521D01*
X134064190Y-110325902D01*
%TO.C,RF_L3*%
X141113047Y-115247140D02*
X140779714Y-114770950D01*
X140541619Y-115247140D02*
X140541619Y-114247140D01*
X140922571Y-114247140D01*
X141017809Y-114294760D01*
X141065428Y-114342379D01*
X141113047Y-114437617D01*
X141113047Y-114580474D01*
X141065428Y-114675712D01*
X141017809Y-114723331D01*
X140922571Y-114770950D01*
X140541619Y-114770950D01*
X141874952Y-114723331D02*
X141541619Y-114723331D01*
X141541619Y-115247140D02*
X141541619Y-114247140D01*
X142017809Y-114247140D01*
X142160666Y-115342379D02*
X142922571Y-115342379D01*
X143636857Y-115247140D02*
X143160666Y-115247140D01*
X143160666Y-114247140D01*
X143874952Y-114247140D02*
X144494000Y-114247140D01*
X144160666Y-114628093D01*
X144303523Y-114628093D01*
X144398761Y-114675712D01*
X144446380Y-114723331D01*
X144494000Y-114818569D01*
X144494000Y-115056664D01*
X144446380Y-115151902D01*
X144398761Y-115199521D01*
X144303523Y-115247140D01*
X144017809Y-115247140D01*
X143922571Y-115199521D01*
X143874952Y-115151902D01*
%TO.C,RF_C11*%
X172918380Y-99475140D02*
X172442190Y-99808474D01*
X172918380Y-100046569D02*
X171918380Y-100046569D01*
X171918380Y-99665617D01*
X171966000Y-99570379D01*
X172013619Y-99522760D01*
X172108857Y-99475140D01*
X172251714Y-99475140D01*
X172346952Y-99522760D01*
X172394571Y-99570379D01*
X172442190Y-99665617D01*
X172442190Y-100046569D01*
X172394571Y-98713236D02*
X172394571Y-99046569D01*
X172918380Y-99046569D02*
X171918380Y-99046569D01*
X171918380Y-98570379D01*
X173013619Y-98427521D02*
X173013619Y-97665617D01*
X172823142Y-96856093D02*
X172870761Y-96903712D01*
X172918380Y-97046569D01*
X172918380Y-97141807D01*
X172870761Y-97284664D01*
X172775523Y-97379902D01*
X172680285Y-97427521D01*
X172489809Y-97475140D01*
X172346952Y-97475140D01*
X172156476Y-97427521D01*
X172061238Y-97379902D01*
X171966000Y-97284664D01*
X171918380Y-97141807D01*
X171918380Y-97046569D01*
X171966000Y-96903712D01*
X172013619Y-96856093D01*
X172918380Y-95903712D02*
X172918380Y-96475140D01*
X172918380Y-96189426D02*
X171918380Y-96189426D01*
X172061238Y-96284664D01*
X172156476Y-96379902D01*
X172204095Y-96475140D01*
X172918380Y-94951331D02*
X172918380Y-95522760D01*
X172918380Y-95237045D02*
X171918380Y-95237045D01*
X172061238Y-95332283D01*
X172156476Y-95427521D01*
X172204095Y-95522760D01*
%TO.C,RF_D1*%
X119236380Y-107380950D02*
X118760190Y-107714283D01*
X119236380Y-107952379D02*
X118236380Y-107952379D01*
X118236380Y-107571426D01*
X118284000Y-107476188D01*
X118331619Y-107428569D01*
X118426857Y-107380950D01*
X118569714Y-107380950D01*
X118664952Y-107428569D01*
X118712571Y-107476188D01*
X118760190Y-107571426D01*
X118760190Y-107952379D01*
X118712571Y-106619045D02*
X118712571Y-106952379D01*
X119236380Y-106952379D02*
X118236380Y-106952379D01*
X118236380Y-106476188D01*
X119331619Y-106333331D02*
X119331619Y-105571426D01*
X119236380Y-105333331D02*
X118236380Y-105333331D01*
X118236380Y-105095236D01*
X118284000Y-104952379D01*
X118379238Y-104857140D01*
X118474476Y-104809521D01*
X118664952Y-104761902D01*
X118807809Y-104761902D01*
X118998285Y-104809521D01*
X119093523Y-104857140D01*
X119188761Y-104952379D01*
X119236380Y-105095236D01*
X119236380Y-105333331D01*
X119236380Y-103809521D02*
X119236380Y-104380950D01*
X119236380Y-104095236D02*
X118236380Y-104095236D01*
X118379238Y-104190474D01*
X118474476Y-104285712D01*
X118522095Y-104380950D01*
X119556380Y-111246664D02*
X118556380Y-111246664D01*
X119556380Y-110675236D02*
X118984952Y-111103807D01*
X118556380Y-110675236D02*
X119127809Y-111246664D01*
%TO.C,RF_D2*%
X126690380Y-88584950D02*
X126214190Y-88918283D01*
X126690380Y-89156379D02*
X125690380Y-89156379D01*
X125690380Y-88775426D01*
X125738000Y-88680188D01*
X125785619Y-88632569D01*
X125880857Y-88584950D01*
X126023714Y-88584950D01*
X126118952Y-88632569D01*
X126166571Y-88680188D01*
X126214190Y-88775426D01*
X126214190Y-89156379D01*
X126166571Y-87823045D02*
X126166571Y-88156379D01*
X126690380Y-88156379D02*
X125690380Y-88156379D01*
X125690380Y-87680188D01*
X126785619Y-87537331D02*
X126785619Y-86775426D01*
X126690380Y-86537331D02*
X125690380Y-86537331D01*
X125690380Y-86299236D01*
X125738000Y-86156379D01*
X125833238Y-86061140D01*
X125928476Y-86013521D01*
X126118952Y-85965902D01*
X126261809Y-85965902D01*
X126452285Y-86013521D01*
X126547523Y-86061140D01*
X126642761Y-86156379D01*
X126690380Y-86299236D01*
X126690380Y-86537331D01*
X125785619Y-85584950D02*
X125738000Y-85537331D01*
X125690380Y-85442093D01*
X125690380Y-85203998D01*
X125738000Y-85108760D01*
X125785619Y-85061140D01*
X125880857Y-85013521D01*
X125976095Y-85013521D01*
X126118952Y-85061140D01*
X126690380Y-85632569D01*
X126690380Y-85013521D01*
X128722380Y-84068664D02*
X127722380Y-84068664D01*
X128722380Y-83497236D02*
X128150952Y-83925807D01*
X127722380Y-83497236D02*
X128293809Y-84068664D01*
%TO.C,RF_C1*%
X110180380Y-77408950D02*
X109704190Y-77742283D01*
X110180380Y-77980379D02*
X109180380Y-77980379D01*
X109180380Y-77599426D01*
X109228000Y-77504188D01*
X109275619Y-77456569D01*
X109370857Y-77408950D01*
X109513714Y-77408950D01*
X109608952Y-77456569D01*
X109656571Y-77504188D01*
X109704190Y-77599426D01*
X109704190Y-77980379D01*
X109656571Y-76647045D02*
X109656571Y-76980379D01*
X110180380Y-76980379D02*
X109180380Y-76980379D01*
X109180380Y-76504188D01*
X110275619Y-76361331D02*
X110275619Y-75599426D01*
X110085142Y-74789902D02*
X110132761Y-74837521D01*
X110180380Y-74980379D01*
X110180380Y-75075617D01*
X110132761Y-75218474D01*
X110037523Y-75313712D01*
X109942285Y-75361331D01*
X109751809Y-75408950D01*
X109608952Y-75408950D01*
X109418476Y-75361331D01*
X109323238Y-75313712D01*
X109228000Y-75218474D01*
X109180380Y-75075617D01*
X109180380Y-74980379D01*
X109228000Y-74837521D01*
X109275619Y-74789902D01*
X110180380Y-73837521D02*
X110180380Y-74408950D01*
X110180380Y-74123236D02*
X109180380Y-74123236D01*
X109323238Y-74218474D01*
X109418476Y-74313712D01*
X109466095Y-74408950D01*
%TO.C,RF_R2*%
X128044380Y-102046950D02*
X127568190Y-102380283D01*
X128044380Y-102618379D02*
X127044380Y-102618379D01*
X127044380Y-102237426D01*
X127092000Y-102142188D01*
X127139619Y-102094569D01*
X127234857Y-102046950D01*
X127377714Y-102046950D01*
X127472952Y-102094569D01*
X127520571Y-102142188D01*
X127568190Y-102237426D01*
X127568190Y-102618379D01*
X127520571Y-101285045D02*
X127520571Y-101618379D01*
X128044380Y-101618379D02*
X127044380Y-101618379D01*
X127044380Y-101142188D01*
X128139619Y-100999331D02*
X128139619Y-100237426D01*
X128044380Y-99427902D02*
X127568190Y-99761236D01*
X128044380Y-99999331D02*
X127044380Y-99999331D01*
X127044380Y-99618379D01*
X127092000Y-99523140D01*
X127139619Y-99475521D01*
X127234857Y-99427902D01*
X127377714Y-99427902D01*
X127472952Y-99475521D01*
X127520571Y-99523140D01*
X127568190Y-99618379D01*
X127568190Y-99999331D01*
X127139619Y-99046950D02*
X127092000Y-98999331D01*
X127044380Y-98904093D01*
X127044380Y-98665998D01*
X127092000Y-98570760D01*
X127139619Y-98523140D01*
X127234857Y-98475521D01*
X127330095Y-98475521D01*
X127472952Y-98523140D01*
X128044380Y-99094569D01*
X128044380Y-98475521D01*
%TO.C,RF_U1*%
X131472380Y-102070760D02*
X130996190Y-102404093D01*
X131472380Y-102642188D02*
X130472380Y-102642188D01*
X130472380Y-102261236D01*
X130520000Y-102165998D01*
X130567619Y-102118379D01*
X130662857Y-102070760D01*
X130805714Y-102070760D01*
X130900952Y-102118379D01*
X130948571Y-102165998D01*
X130996190Y-102261236D01*
X130996190Y-102642188D01*
X130948571Y-101308855D02*
X130948571Y-101642188D01*
X131472380Y-101642188D02*
X130472380Y-101642188D01*
X130472380Y-101165998D01*
X131567619Y-101023140D02*
X131567619Y-100261236D01*
X130472380Y-100023140D02*
X131281904Y-100023140D01*
X131377142Y-99975521D01*
X131424761Y-99927902D01*
X131472380Y-99832664D01*
X131472380Y-99642188D01*
X131424761Y-99546950D01*
X131377142Y-99499331D01*
X131281904Y-99451712D01*
X130472380Y-99451712D01*
X131472380Y-98451712D02*
X131472380Y-99023140D01*
X131472380Y-98737426D02*
X130472380Y-98737426D01*
X130615238Y-98832664D01*
X130710476Y-98927902D01*
X130758095Y-99023140D01*
%TO.C,RF_C7*%
X145589809Y-94165140D02*
X145256476Y-93688950D01*
X145018380Y-94165140D02*
X145018380Y-93165140D01*
X145399333Y-93165140D01*
X145494571Y-93212760D01*
X145542190Y-93260379D01*
X145589809Y-93355617D01*
X145589809Y-93498474D01*
X145542190Y-93593712D01*
X145494571Y-93641331D01*
X145399333Y-93688950D01*
X145018380Y-93688950D01*
X146351714Y-93641331D02*
X146018380Y-93641331D01*
X146018380Y-94165140D02*
X146018380Y-93165140D01*
X146494571Y-93165140D01*
X146637428Y-94260379D02*
X147399333Y-94260379D01*
X148208857Y-94069902D02*
X148161238Y-94117521D01*
X148018380Y-94165140D01*
X147923142Y-94165140D01*
X147780285Y-94117521D01*
X147685047Y-94022283D01*
X147637428Y-93927045D01*
X147589809Y-93736569D01*
X147589809Y-93593712D01*
X147637428Y-93403236D01*
X147685047Y-93307998D01*
X147780285Y-93212760D01*
X147923142Y-93165140D01*
X148018380Y-93165140D01*
X148161238Y-93212760D01*
X148208857Y-93260379D01*
X148542190Y-93165140D02*
X149208857Y-93165140D01*
X148780285Y-94165140D01*
%TO.C,H17*%
X110521904Y-85783140D02*
X110521904Y-84783140D01*
X110521904Y-85259331D02*
X111093333Y-85259331D01*
X111093333Y-85783140D02*
X111093333Y-84783140D01*
X112093333Y-85783140D02*
X111521904Y-85783140D01*
X111807619Y-85783140D02*
X111807619Y-84783140D01*
X111712380Y-84925998D01*
X111617142Y-85021236D01*
X111521904Y-85068855D01*
X112426666Y-84783140D02*
X113093333Y-84783140D01*
X112664761Y-85783140D01*
%TO.C,RF_VL1*%
X118903523Y-81830379D02*
X119236857Y-82306569D01*
X119474952Y-81830379D02*
X119474952Y-82830379D01*
X119094000Y-82830379D01*
X118998761Y-82782760D01*
X118951142Y-82735140D01*
X118903523Y-82639902D01*
X118903523Y-82497045D01*
X118951142Y-82401807D01*
X118998761Y-82354188D01*
X119094000Y-82306569D01*
X119474952Y-82306569D01*
X118141619Y-82354188D02*
X118474952Y-82354188D01*
X118474952Y-81830379D02*
X118474952Y-82830379D01*
X117998761Y-82830379D01*
X117855904Y-81735140D02*
X117094000Y-81735140D01*
X116998761Y-82830379D02*
X116665428Y-81830379D01*
X116332095Y-82830379D01*
X115522571Y-81830379D02*
X115998761Y-81830379D01*
X115998761Y-82830379D01*
X114665428Y-81830379D02*
X115236857Y-81830379D01*
X114951142Y-81830379D02*
X114951142Y-82830379D01*
X115046380Y-82687521D01*
X115141619Y-82592283D01*
X115236857Y-82544664D01*
%TO.C,RF_C10*%
X168092380Y-107857140D02*
X167616190Y-108190474D01*
X168092380Y-108428569D02*
X167092380Y-108428569D01*
X167092380Y-108047617D01*
X167140000Y-107952379D01*
X167187619Y-107904760D01*
X167282857Y-107857140D01*
X167425714Y-107857140D01*
X167520952Y-107904760D01*
X167568571Y-107952379D01*
X167616190Y-108047617D01*
X167616190Y-108428569D01*
X167568571Y-107095236D02*
X167568571Y-107428569D01*
X168092380Y-107428569D02*
X167092380Y-107428569D01*
X167092380Y-106952379D01*
X168187619Y-106809521D02*
X168187619Y-106047617D01*
X167997142Y-105238093D02*
X168044761Y-105285712D01*
X168092380Y-105428569D01*
X168092380Y-105523807D01*
X168044761Y-105666664D01*
X167949523Y-105761902D01*
X167854285Y-105809521D01*
X167663809Y-105857140D01*
X167520952Y-105857140D01*
X167330476Y-105809521D01*
X167235238Y-105761902D01*
X167140000Y-105666664D01*
X167092380Y-105523807D01*
X167092380Y-105428569D01*
X167140000Y-105285712D01*
X167187619Y-105238093D01*
X168092380Y-104285712D02*
X168092380Y-104857140D01*
X168092380Y-104571426D02*
X167092380Y-104571426D01*
X167235238Y-104666664D01*
X167330476Y-104761902D01*
X167378095Y-104857140D01*
X167092380Y-103666664D02*
X167092380Y-103571426D01*
X167140000Y-103476188D01*
X167187619Y-103428569D01*
X167282857Y-103380950D01*
X167473333Y-103333331D01*
X167711428Y-103333331D01*
X167901904Y-103380950D01*
X167997142Y-103428569D01*
X168044761Y-103476188D01*
X168092380Y-103571426D01*
X168092380Y-103666664D01*
X168044761Y-103761902D01*
X167997142Y-103809521D01*
X167901904Y-103857140D01*
X167711428Y-103904760D01*
X167473333Y-103904760D01*
X167282857Y-103857140D01*
X167187619Y-103809521D01*
X167140000Y-103761902D01*
X167092380Y-103666664D01*
%TO.C,RF_JP1*%
X119324380Y-88965902D02*
X118848190Y-89299236D01*
X119324380Y-89537331D02*
X118324380Y-89537331D01*
X118324380Y-89156379D01*
X118372000Y-89061140D01*
X118419619Y-89013521D01*
X118514857Y-88965902D01*
X118657714Y-88965902D01*
X118752952Y-89013521D01*
X118800571Y-89061140D01*
X118848190Y-89156379D01*
X118848190Y-89537331D01*
X118800571Y-88203998D02*
X118800571Y-88537331D01*
X119324380Y-88537331D02*
X118324380Y-88537331D01*
X118324380Y-88061140D01*
X119419619Y-87918283D02*
X119419619Y-87156379D01*
X118324380Y-86632569D02*
X119038666Y-86632569D01*
X119181523Y-86680188D01*
X119276761Y-86775426D01*
X119324380Y-86918283D01*
X119324380Y-87013521D01*
X119324380Y-86156379D02*
X118324380Y-86156379D01*
X118324380Y-85775426D01*
X118372000Y-85680188D01*
X118419619Y-85632569D01*
X118514857Y-85584950D01*
X118657714Y-85584950D01*
X118752952Y-85632569D01*
X118800571Y-85680188D01*
X118848190Y-85775426D01*
X118848190Y-86156379D01*
X119324380Y-84632569D02*
X119324380Y-85203998D01*
X119324380Y-84918283D02*
X118324380Y-84918283D01*
X118467238Y-85013521D01*
X118562476Y-85108760D01*
X118610095Y-85203998D01*
%TO.C,RF_C6*%
X153971809Y-119311140D02*
X153638476Y-118834950D01*
X153400380Y-119311140D02*
X153400380Y-118311140D01*
X153781333Y-118311140D01*
X153876571Y-118358760D01*
X153924190Y-118406379D01*
X153971809Y-118501617D01*
X153971809Y-118644474D01*
X153924190Y-118739712D01*
X153876571Y-118787331D01*
X153781333Y-118834950D01*
X153400380Y-118834950D01*
X154733714Y-118787331D02*
X154400380Y-118787331D01*
X154400380Y-119311140D02*
X154400380Y-118311140D01*
X154876571Y-118311140D01*
X155019428Y-119406379D02*
X155781333Y-119406379D01*
X156590857Y-119215902D02*
X156543238Y-119263521D01*
X156400380Y-119311140D01*
X156305142Y-119311140D01*
X156162285Y-119263521D01*
X156067047Y-119168283D01*
X156019428Y-119073045D01*
X155971809Y-118882569D01*
X155971809Y-118739712D01*
X156019428Y-118549236D01*
X156067047Y-118453998D01*
X156162285Y-118358760D01*
X156305142Y-118311140D01*
X156400380Y-118311140D01*
X156543238Y-118358760D01*
X156590857Y-118406379D01*
X157448000Y-118311140D02*
X157257523Y-118311140D01*
X157162285Y-118358760D01*
X157114666Y-118406379D01*
X157019428Y-118549236D01*
X156971809Y-118739712D01*
X156971809Y-119120664D01*
X157019428Y-119215902D01*
X157067047Y-119263521D01*
X157162285Y-119311140D01*
X157352761Y-119311140D01*
X157448000Y-119263521D01*
X157495619Y-119215902D01*
X157543238Y-119120664D01*
X157543238Y-118882569D01*
X157495619Y-118787331D01*
X157448000Y-118739712D01*
X157352761Y-118692093D01*
X157162285Y-118692093D01*
X157067047Y-118739712D01*
X157019428Y-118787331D01*
X156971809Y-118882569D01*
%TO.C,RF_C5*%
X136953809Y-94419140D02*
X136620476Y-93942950D01*
X136382380Y-94419140D02*
X136382380Y-93419140D01*
X136763333Y-93419140D01*
X136858571Y-93466760D01*
X136906190Y-93514379D01*
X136953809Y-93609617D01*
X136953809Y-93752474D01*
X136906190Y-93847712D01*
X136858571Y-93895331D01*
X136763333Y-93942950D01*
X136382380Y-93942950D01*
X137715714Y-93895331D02*
X137382380Y-93895331D01*
X137382380Y-94419140D02*
X137382380Y-93419140D01*
X137858571Y-93419140D01*
X138001428Y-94514379D02*
X138763333Y-94514379D01*
X139572857Y-94323902D02*
X139525238Y-94371521D01*
X139382380Y-94419140D01*
X139287142Y-94419140D01*
X139144285Y-94371521D01*
X139049047Y-94276283D01*
X139001428Y-94181045D01*
X138953809Y-93990569D01*
X138953809Y-93847712D01*
X139001428Y-93657236D01*
X139049047Y-93561998D01*
X139144285Y-93466760D01*
X139287142Y-93419140D01*
X139382380Y-93419140D01*
X139525238Y-93466760D01*
X139572857Y-93514379D01*
X140477619Y-93419140D02*
X140001428Y-93419140D01*
X139953809Y-93895331D01*
X140001428Y-93847712D01*
X140096666Y-93800093D01*
X140334761Y-93800093D01*
X140430000Y-93847712D01*
X140477619Y-93895331D01*
X140525238Y-93990569D01*
X140525238Y-94228664D01*
X140477619Y-94323902D01*
X140430000Y-94371521D01*
X140334761Y-94419140D01*
X140096666Y-94419140D01*
X140001428Y-94371521D01*
X139953809Y-94323902D01*
%TO.C,RF_R11*%
X139017619Y-82989140D02*
X138684285Y-82512950D01*
X138446190Y-82989140D02*
X138446190Y-81989140D01*
X138827142Y-81989140D01*
X138922380Y-82036760D01*
X138970000Y-82084379D01*
X139017619Y-82179617D01*
X139017619Y-82322474D01*
X138970000Y-82417712D01*
X138922380Y-82465331D01*
X138827142Y-82512950D01*
X138446190Y-82512950D01*
X139779523Y-82465331D02*
X139446190Y-82465331D01*
X139446190Y-82989140D02*
X139446190Y-81989140D01*
X139922380Y-81989140D01*
X140065238Y-83084379D02*
X140827142Y-83084379D01*
X141636666Y-82989140D02*
X141303333Y-82512950D01*
X141065238Y-82989140D02*
X141065238Y-81989140D01*
X141446190Y-81989140D01*
X141541428Y-82036760D01*
X141589047Y-82084379D01*
X141636666Y-82179617D01*
X141636666Y-82322474D01*
X141589047Y-82417712D01*
X141541428Y-82465331D01*
X141446190Y-82512950D01*
X141065238Y-82512950D01*
X142589047Y-82989140D02*
X142017619Y-82989140D01*
X142303333Y-82989140D02*
X142303333Y-81989140D01*
X142208095Y-82131998D01*
X142112857Y-82227236D01*
X142017619Y-82274855D01*
X143541428Y-82989140D02*
X142970000Y-82989140D01*
X143255714Y-82989140D02*
X143255714Y-81989140D01*
X143160476Y-82131998D01*
X143065238Y-82227236D01*
X142970000Y-82274855D01*
%TO.C,RF_C12*%
X156249619Y-110167140D02*
X155916285Y-109690950D01*
X155678190Y-110167140D02*
X155678190Y-109167140D01*
X156059142Y-109167140D01*
X156154380Y-109214760D01*
X156202000Y-109262379D01*
X156249619Y-109357617D01*
X156249619Y-109500474D01*
X156202000Y-109595712D01*
X156154380Y-109643331D01*
X156059142Y-109690950D01*
X155678190Y-109690950D01*
X157011523Y-109643331D02*
X156678190Y-109643331D01*
X156678190Y-110167140D02*
X156678190Y-109167140D01*
X157154380Y-109167140D01*
X157297238Y-110262379D02*
X158059142Y-110262379D01*
X158868666Y-110071902D02*
X158821047Y-110119521D01*
X158678190Y-110167140D01*
X158582952Y-110167140D01*
X158440095Y-110119521D01*
X158344857Y-110024283D01*
X158297238Y-109929045D01*
X158249619Y-109738569D01*
X158249619Y-109595712D01*
X158297238Y-109405236D01*
X158344857Y-109309998D01*
X158440095Y-109214760D01*
X158582952Y-109167140D01*
X158678190Y-109167140D01*
X158821047Y-109214760D01*
X158868666Y-109262379D01*
X159821047Y-110167140D02*
X159249619Y-110167140D01*
X159535333Y-110167140D02*
X159535333Y-109167140D01*
X159440095Y-109309998D01*
X159344857Y-109405236D01*
X159249619Y-109452855D01*
X160202000Y-109262379D02*
X160249619Y-109214760D01*
X160344857Y-109167140D01*
X160582952Y-109167140D01*
X160678190Y-109214760D01*
X160725809Y-109262379D01*
X160773428Y-109357617D01*
X160773428Y-109452855D01*
X160725809Y-109595712D01*
X160154380Y-110167140D01*
X160773428Y-110167140D01*
%TO.C,RF_R6*%
X168449809Y-113215140D02*
X168116476Y-112738950D01*
X167878380Y-113215140D02*
X167878380Y-112215140D01*
X168259333Y-112215140D01*
X168354571Y-112262760D01*
X168402190Y-112310379D01*
X168449809Y-112405617D01*
X168449809Y-112548474D01*
X168402190Y-112643712D01*
X168354571Y-112691331D01*
X168259333Y-112738950D01*
X167878380Y-112738950D01*
X169211714Y-112691331D02*
X168878380Y-112691331D01*
X168878380Y-113215140D02*
X168878380Y-112215140D01*
X169354571Y-112215140D01*
X169497428Y-113310379D02*
X170259333Y-113310379D01*
X171068857Y-113215140D02*
X170735523Y-112738950D01*
X170497428Y-113215140D02*
X170497428Y-112215140D01*
X170878380Y-112215140D01*
X170973619Y-112262760D01*
X171021238Y-112310379D01*
X171068857Y-112405617D01*
X171068857Y-112548474D01*
X171021238Y-112643712D01*
X170973619Y-112691331D01*
X170878380Y-112738950D01*
X170497428Y-112738950D01*
X171926000Y-112215140D02*
X171735523Y-112215140D01*
X171640285Y-112262760D01*
X171592666Y-112310379D01*
X171497428Y-112453236D01*
X171449809Y-112643712D01*
X171449809Y-113024664D01*
X171497428Y-113119902D01*
X171545047Y-113167521D01*
X171640285Y-113215140D01*
X171830761Y-113215140D01*
X171926000Y-113167521D01*
X171973619Y-113119902D01*
X172021238Y-113024664D01*
X172021238Y-112786569D01*
X171973619Y-112691331D01*
X171926000Y-112643712D01*
X171830761Y-112596093D01*
X171640285Y-112596093D01*
X171545047Y-112643712D01*
X171497428Y-112691331D01*
X171449809Y-112786569D01*
%TO.C,RF_C2*%
X124404380Y-88584950D02*
X123928190Y-88918283D01*
X124404380Y-89156379D02*
X123404380Y-89156379D01*
X123404380Y-88775426D01*
X123452000Y-88680188D01*
X123499619Y-88632569D01*
X123594857Y-88584950D01*
X123737714Y-88584950D01*
X123832952Y-88632569D01*
X123880571Y-88680188D01*
X123928190Y-88775426D01*
X123928190Y-89156379D01*
X123880571Y-87823045D02*
X123880571Y-88156379D01*
X124404380Y-88156379D02*
X123404380Y-88156379D01*
X123404380Y-87680188D01*
X124499619Y-87537331D02*
X124499619Y-86775426D01*
X124309142Y-85965902D02*
X124356761Y-86013521D01*
X124404380Y-86156379D01*
X124404380Y-86251617D01*
X124356761Y-86394474D01*
X124261523Y-86489712D01*
X124166285Y-86537331D01*
X123975809Y-86584950D01*
X123832952Y-86584950D01*
X123642476Y-86537331D01*
X123547238Y-86489712D01*
X123452000Y-86394474D01*
X123404380Y-86251617D01*
X123404380Y-86156379D01*
X123452000Y-86013521D01*
X123499619Y-85965902D01*
X123499619Y-85584950D02*
X123452000Y-85537331D01*
X123404380Y-85442093D01*
X123404380Y-85203998D01*
X123452000Y-85108760D01*
X123499619Y-85061140D01*
X123594857Y-85013521D01*
X123690095Y-85013521D01*
X123832952Y-85061140D01*
X124404380Y-85632569D01*
X124404380Y-85013521D01*
D13*
%TO.C,RF_R4*%
X135028000Y-115524760D02*
X135028000Y-108984760D01*
X137438000Y-115524760D02*
X137768000Y-115524760D01*
X137768000Y-115524760D02*
X137768000Y-108984760D01*
X135358000Y-115524760D02*
X135028000Y-115524760D01*
X135028000Y-108984760D02*
X135358000Y-108984760D01*
X137768000Y-108984760D02*
X137438000Y-108984760D01*
%TO.C,RF_R1*%
X110720000Y-94696760D02*
X110390000Y-94696760D01*
X110390000Y-94696760D02*
X110390000Y-88156760D01*
X110390000Y-88156760D02*
X110720000Y-88156760D01*
X112800000Y-94696760D02*
X113130000Y-94696760D01*
X113130000Y-88156760D02*
X112800000Y-88156760D01*
X113130000Y-94696760D02*
X113130000Y-88156760D01*
%TO.C,RF_R9*%
X149960000Y-81552760D02*
X149960000Y-88092760D01*
X149960000Y-88092760D02*
X149630000Y-88092760D01*
X149630000Y-81552760D02*
X149960000Y-81552760D01*
X147550000Y-81552760D02*
X147220000Y-81552760D01*
X147220000Y-88092760D02*
X147550000Y-88092760D01*
X147220000Y-81552760D02*
X147220000Y-88092760D01*
D11*
%TO.C,RF_SW1*%
X136716000Y-72362760D02*
X134416000Y-72362760D01*
X143016000Y-72362760D02*
X140816000Y-72362760D01*
X143016000Y-76962760D02*
X134416000Y-76962760D01*
D13*
%TO.C,RF_R10*%
X136366000Y-82636760D02*
X129826000Y-82636760D01*
X129826000Y-79896760D02*
X129826000Y-80226760D01*
X136366000Y-79896760D02*
X129826000Y-79896760D01*
X129826000Y-82636760D02*
X129826000Y-82306760D01*
X136366000Y-82306760D02*
X136366000Y-82636760D01*
X136366000Y-80226760D02*
X136366000Y-79896760D01*
%TO.C,RF_L1*%
X166660000Y-94460412D02*
G75*
G03*
X166660000Y-87377108I-1560000J3541652D01*
G01*
X163540000Y-87377108D02*
G75*
G03*
X163540000Y-94460412I1560000J-3541652D01*
G01*
%TO.C,RF_C3*%
X130148000Y-110286760D02*
X127408000Y-110286760D01*
X130148000Y-103046760D02*
X130148000Y-110286760D01*
X130148000Y-103046760D02*
X127408000Y-103046760D01*
X127408000Y-103046760D02*
X127408000Y-110286760D01*
%TO.C,RF_R12*%
X133636000Y-89494760D02*
X133636000Y-89164760D01*
X140176000Y-86754760D02*
X133636000Y-86754760D01*
X140176000Y-87084760D02*
X140176000Y-86754760D01*
X140176000Y-89494760D02*
X133636000Y-89494760D01*
X133636000Y-86754760D02*
X133636000Y-87084760D01*
X140176000Y-89164760D02*
X140176000Y-89494760D01*
%TO.C,RF_L2*%
X164831652Y-99264760D02*
G75*
G03*
X157748348Y-99264760I-3541652J-1560000D01*
G01*
X157748348Y-102384760D02*
G75*
G03*
X164831652Y-102384760I3541652J1560000D01*
G01*
%TO.C,RF_C4*%
X133922000Y-110884760D02*
X126682000Y-110884760D01*
X126682000Y-113624760D02*
X126682000Y-110884760D01*
X133922000Y-113624760D02*
X133922000Y-110884760D01*
X133922000Y-113624760D02*
X126682000Y-113624760D01*
%TO.C,RF_R5*%
X165754000Y-115202760D02*
X159214000Y-115202760D01*
X165754000Y-115532760D02*
X165754000Y-115202760D01*
X159214000Y-115202760D02*
X159214000Y-115532760D01*
X165754000Y-117612760D02*
X165754000Y-117942760D01*
X159214000Y-117942760D02*
X159214000Y-117612760D01*
X165754000Y-117942760D02*
X159214000Y-117942760D01*
%TO.C,J4B1*%
X117154000Y-90664760D02*
X117154000Y-108504760D01*
X117154000Y-88064760D02*
X117154000Y-89394760D01*
X114494000Y-108504760D02*
X117154000Y-108504760D01*
X114494000Y-90664760D02*
X117154000Y-90664760D01*
X114494000Y-90664760D02*
X114494000Y-108504760D01*
X115824000Y-88064760D02*
X117154000Y-88064760D01*
%TO.C,RF_R7*%
X156488000Y-93426760D02*
X156818000Y-93426760D01*
X156818000Y-86886760D02*
X156488000Y-86886760D01*
X154078000Y-93426760D02*
X154078000Y-86886760D01*
X156818000Y-93426760D02*
X156818000Y-86886760D01*
X154078000Y-86886760D02*
X154408000Y-86886760D01*
X154408000Y-93426760D02*
X154078000Y-93426760D01*
%TO.C,RF_R8*%
X153770000Y-86886760D02*
X153440000Y-86886760D01*
X153440000Y-93426760D02*
X153770000Y-93426760D01*
X153770000Y-93426760D02*
X153770000Y-86886760D01*
X151360000Y-93426760D02*
X151030000Y-93426760D01*
X151030000Y-86886760D02*
X151360000Y-86886760D01*
X151030000Y-93426760D02*
X151030000Y-86886760D01*
D14*
%TO.C,RF_J1*%
X169132000Y-74407260D02*
X165132000Y-74407260D01*
X164632000Y-84407260D02*
X162132000Y-84407260D01*
X169632000Y-84407260D02*
X172132000Y-84407260D01*
X162132000Y-84407260D02*
X162132000Y-76907260D01*
X172132000Y-84407260D02*
X172132000Y-76907260D01*
D15*
X172732000Y-78307260D02*
X172732000Y-78307260D01*
X172932000Y-78307260D02*
X172932000Y-78307260D01*
X172932000Y-78307260D02*
G75*
G03*
X172732000Y-78307260I-100000J0D01*
G01*
X172732000Y-78307260D02*
G75*
G03*
X172932000Y-78307260I100000J0D01*
G01*
D13*
%TO.C,RF_C8*%
X157504000Y-79642760D02*
X157504000Y-82382760D01*
X150264000Y-82382760D02*
X157504000Y-82382760D01*
X150264000Y-79642760D02*
X157504000Y-79642760D01*
X150264000Y-79642760D02*
X150264000Y-82382760D01*
%TO.C,RF_C9*%
X157380000Y-94284760D02*
X157380000Y-87044760D01*
X157380000Y-94284760D02*
X160120000Y-94284760D01*
X160120000Y-94284760D02*
X160120000Y-87044760D01*
X157380000Y-87044760D02*
X160120000Y-87044760D01*
%TO.C,RF_C13*%
X120032328Y-114367760D02*
X120032328Y-117253760D01*
X119232328Y-116850760D02*
X119232328Y-118010760D01*
X118031328Y-113234760D02*
X118031328Y-114770760D01*
X119352328Y-116850760D02*
X119352328Y-117932760D01*
X120312328Y-114895760D02*
X120312328Y-116725760D01*
X118231328Y-113254760D02*
X118231328Y-114770760D01*
X119832328Y-116850760D02*
X119832328Y-117509760D01*
X118391328Y-113282760D02*
X118391328Y-114770760D01*
X118111328Y-116850760D02*
X118111328Y-118379760D01*
X119272328Y-116850760D02*
X119272328Y-117985760D01*
X118752328Y-113382760D02*
X118752328Y-114770760D01*
X118311328Y-113267760D02*
X118311328Y-114770760D01*
X119112328Y-116850760D02*
X119112328Y-118078760D01*
X118752328Y-116850760D02*
X118752328Y-118238760D01*
X117871328Y-116850760D02*
X117871328Y-118390760D01*
X118952328Y-116850760D02*
X118952328Y-118158760D01*
X119552328Y-113839760D02*
X119552328Y-114770760D01*
X120232328Y-114712760D02*
X120232328Y-116908760D01*
X118551328Y-116850760D02*
X118551328Y-118301760D01*
X119712328Y-116850760D02*
X119712328Y-117636760D01*
X120432328Y-115292760D02*
X120432328Y-116328760D01*
X118672328Y-116850760D02*
X118672328Y-118265760D01*
X120152328Y-114559760D02*
X120152328Y-117061760D01*
X115066553Y-114335760D02*
X115566553Y-114335760D01*
X118832328Y-116850760D02*
X118832328Y-118208760D01*
X117991328Y-113232760D02*
X117991328Y-114770760D01*
X118912328Y-113445760D02*
X118912328Y-114770760D01*
X119352328Y-113688760D02*
X119352328Y-114770760D01*
X119632328Y-113909760D02*
X119632328Y-114770760D01*
X118792328Y-113396760D02*
X118792328Y-114770760D01*
X118471328Y-116850760D02*
X118471328Y-118321760D01*
X118511328Y-116850760D02*
X118511328Y-118311760D01*
X117951328Y-116850760D02*
X117951328Y-118389760D01*
X120072328Y-114427760D02*
X120072328Y-117193760D01*
X119312328Y-116850760D02*
X119312328Y-117959760D01*
X118351328Y-116850760D02*
X118351328Y-118346760D01*
X119272328Y-113635760D02*
X119272328Y-114770760D01*
X118992328Y-116850760D02*
X118992328Y-118139760D01*
X119072328Y-113520760D02*
X119072328Y-114770760D01*
X119392328Y-116850760D02*
X119392328Y-117905760D01*
X118511328Y-113309760D02*
X118511328Y-114770760D01*
X120472328Y-115526760D02*
X120472328Y-116094760D01*
X120392328Y-115133760D02*
X120392328Y-116487760D01*
X119152328Y-113563760D02*
X119152328Y-114770760D01*
X119232328Y-113610760D02*
X119232328Y-114770760D01*
X118872328Y-113428760D02*
X118872328Y-114770760D01*
X117911328Y-113230760D02*
X117911328Y-114770760D01*
X118351328Y-113274760D02*
X118351328Y-114770760D01*
X119632328Y-116850760D02*
X119632328Y-117711760D01*
X119152328Y-116850760D02*
X119152328Y-118057760D01*
X118151328Y-113245760D02*
X118151328Y-114770760D01*
X117871328Y-113230760D02*
X117871328Y-114770760D01*
X119552328Y-116850760D02*
X119552328Y-117781760D01*
X119792328Y-116850760D02*
X119792328Y-117553760D01*
X120112328Y-114491760D02*
X120112328Y-117129760D01*
X118191328Y-113249760D02*
X118191328Y-114770760D01*
X118431328Y-116850760D02*
X118431328Y-118330760D01*
X118872328Y-116850760D02*
X118872328Y-118192760D01*
X115316553Y-114085760D02*
X115316553Y-114585760D01*
X119752328Y-116850760D02*
X119752328Y-117595760D01*
X118551328Y-113319760D02*
X118551328Y-114770760D01*
X119192328Y-116850760D02*
X119192328Y-118034760D01*
X119712328Y-113984760D02*
X119712328Y-114770760D01*
X118592328Y-116850760D02*
X118592328Y-118290760D01*
X118271328Y-113260760D02*
X118271328Y-114770760D01*
X119872328Y-116850760D02*
X119872328Y-117463760D01*
X118792328Y-116850760D02*
X118792328Y-118224760D01*
X118071328Y-116850760D02*
X118071328Y-118383760D01*
X119112328Y-113542760D02*
X119112328Y-114770760D01*
X118151328Y-116850760D02*
X118151328Y-118375760D01*
X119952328Y-114256760D02*
X119952328Y-117364760D01*
X119512328Y-113806760D02*
X119512328Y-114770760D01*
X117911328Y-116850760D02*
X117911328Y-118390760D01*
X120192328Y-114632760D02*
X120192328Y-116988760D01*
X119032328Y-113500760D02*
X119032328Y-114770760D01*
X119432328Y-113745760D02*
X119432328Y-114770760D01*
X119592328Y-113873760D02*
X119592328Y-114770760D01*
X118672328Y-113355760D02*
X118672328Y-114770760D01*
X119872328Y-114157760D02*
X119872328Y-114770760D01*
X118832328Y-113412760D02*
X118832328Y-114770760D01*
X117991328Y-116850760D02*
X117991328Y-118388760D01*
X118632328Y-113342760D02*
X118632328Y-114770760D01*
X118912328Y-116850760D02*
X118912328Y-118175760D01*
X118111328Y-113241760D02*
X118111328Y-114770760D01*
X119672328Y-116850760D02*
X119672328Y-117674760D01*
X119992328Y-114310760D02*
X119992328Y-117310760D01*
X118632328Y-116850760D02*
X118632328Y-118278760D01*
X119512328Y-116850760D02*
X119512328Y-117814760D01*
X118952328Y-113462760D02*
X118952328Y-114770760D01*
X119472328Y-113775760D02*
X119472328Y-114770760D01*
X118311328Y-116850760D02*
X118311328Y-118353760D01*
X118992328Y-113481760D02*
X118992328Y-114770760D01*
X118592328Y-113330760D02*
X118592328Y-114770760D01*
X119752328Y-114025760D02*
X119752328Y-114770760D01*
X118391328Y-116850760D02*
X118391328Y-118338760D01*
X118712328Y-113368760D02*
X118712328Y-114770760D01*
X120272328Y-114799760D02*
X120272328Y-116821760D01*
X118471328Y-113299760D02*
X118471328Y-114770760D01*
X118431328Y-113290760D02*
X118431328Y-114770760D01*
X118071328Y-113237760D02*
X118071328Y-114770760D01*
X120352328Y-115005760D02*
X120352328Y-116615760D01*
X118271328Y-116850760D02*
X118271328Y-118360760D01*
X119672328Y-113946760D02*
X119672328Y-114770760D01*
X119832328Y-114111760D02*
X119832328Y-114770760D01*
X118231328Y-116850760D02*
X118231328Y-118366760D01*
X119792328Y-114067760D02*
X119792328Y-114770760D01*
X119032328Y-116850760D02*
X119032328Y-118120760D01*
X119072328Y-116850760D02*
X119072328Y-118100760D01*
X119592328Y-116850760D02*
X119592328Y-117747760D01*
X118712328Y-116850760D02*
X118712328Y-118252760D01*
X119432328Y-116850760D02*
X119432328Y-117875760D01*
X119912328Y-114205760D02*
X119912328Y-117415760D01*
X118191328Y-116850760D02*
X118191328Y-118371760D01*
X119392328Y-113715760D02*
X119392328Y-114770760D01*
X118031328Y-116850760D02*
X118031328Y-118386760D01*
X119472328Y-116850760D02*
X119472328Y-117845760D01*
X119312328Y-113661760D02*
X119312328Y-114770760D01*
X117951328Y-113231760D02*
X117951328Y-114770760D01*
X119192328Y-113586760D02*
X119192328Y-114770760D01*
X120491328Y-115810760D02*
G75*
G03*
X120491328Y-115810760I-2620000J0D01*
G01*
%TO.C,RF_R3*%
X126270000Y-114440760D02*
X132810000Y-114440760D01*
X126270000Y-116850760D02*
X126270000Y-117180760D01*
X126270000Y-117180760D02*
X132810000Y-117180760D01*
X132810000Y-117180760D02*
X132810000Y-116850760D01*
X126270000Y-114770760D02*
X126270000Y-114440760D01*
X132810000Y-114440760D02*
X132810000Y-114770760D01*
%TO.C,RF_L3*%
X150658000Y-117828412D02*
G75*
G03*
X150658000Y-110745108I-1560000J3541652D01*
G01*
X147538000Y-110745108D02*
G75*
G03*
X147538000Y-117828412I1560000J-3541652D01*
G01*
%TO.C,RF_C11*%
X173074000Y-87298760D02*
X170334000Y-87298760D01*
X170334000Y-87298760D02*
X170334000Y-94538760D01*
X173074000Y-87298760D02*
X173074000Y-94538760D01*
X173074000Y-94538760D02*
X170334000Y-94538760D01*
%TO.C,RF_D1*%
X120904000Y-109944760D02*
X120904000Y-108024760D01*
X119784000Y-107184760D02*
X122024000Y-107184760D01*
X119784000Y-108024760D02*
X122024000Y-108024760D01*
X120904000Y-101864760D02*
X120904000Y-103784760D01*
X119784000Y-103784760D02*
X119784000Y-108024760D01*
X122024000Y-108024760D02*
X122024000Y-103784760D01*
X119784000Y-107304760D02*
X122024000Y-107304760D01*
X122024000Y-103784760D02*
X119784000Y-103784760D01*
X119784000Y-107424760D02*
X122024000Y-107424760D01*
%TO.C,RF_D2*%
X128270000Y-86624760D02*
X128270000Y-88544760D01*
X129390000Y-89144760D02*
X127150000Y-89144760D01*
X127150000Y-92784760D02*
X129390000Y-92784760D01*
X128270000Y-94704760D02*
X128270000Y-92784760D01*
X129390000Y-89264760D02*
X127150000Y-89264760D01*
X129390000Y-92784760D02*
X129390000Y-88544760D01*
X129390000Y-89384760D02*
X127150000Y-89384760D01*
X127150000Y-88544760D02*
X127150000Y-92784760D01*
X129390000Y-88544760D02*
X127150000Y-88544760D01*
%TO.C,RF_C1*%
X127608000Y-80100760D02*
X127608000Y-72860760D01*
X124868000Y-80100760D02*
X124868000Y-72860760D01*
X124868000Y-80100760D02*
X127608000Y-80100760D01*
X124868000Y-72860760D02*
X127608000Y-72860760D01*
%TO.C,S5*%
G36*
X106934000Y-77304360D02*
G01*
X106938689Y-77223927D01*
X107204118Y-77223927D01*
X107226736Y-77336227D01*
X107376524Y-77371838D01*
X107399666Y-77372094D01*
X107563871Y-77342838D01*
X107597780Y-77239262D01*
X107595215Y-77223927D01*
X107499341Y-77102010D01*
X107399666Y-77075760D01*
X107249871Y-77139985D01*
X107204118Y-77223927D01*
X106938689Y-77223927D01*
X106950601Y-77019575D01*
X106993451Y-76798361D01*
X107035599Y-76711694D01*
X107228036Y-76621711D01*
X107461015Y-76631693D01*
X107625283Y-76722810D01*
X107718819Y-76779366D01*
X107848639Y-76744810D01*
X108021436Y-76638144D01*
X108257834Y-76491452D01*
X108391425Y-76454286D01*
X108448852Y-76527006D01*
X108458000Y-76644064D01*
X108391915Y-76835252D01*
X108179529Y-77011514D01*
X108161666Y-77022209D01*
X107975061Y-77151969D01*
X107872280Y-77261650D01*
X107865333Y-77284572D01*
X107939752Y-77342418D01*
X108122746Y-77371337D01*
X108161666Y-77372094D01*
X108362064Y-77387908D01*
X108444104Y-77459073D01*
X108458000Y-77583760D01*
X108451932Y-77683960D01*
X108412006Y-77746173D01*
X108305636Y-77779453D01*
X108100237Y-77792851D01*
X107763223Y-77795417D01*
X107696000Y-77795427D01*
X106934000Y-77795427D01*
X106934000Y-77304360D01*
G37*
G36*
X108402236Y-75207501D02*
G01*
X108441829Y-75338783D01*
X108457070Y-75596195D01*
X108458000Y-75721094D01*
X108458000Y-76271427D01*
X106934000Y-76271427D01*
X106934000Y-75721094D01*
X106942478Y-75412404D01*
X106972774Y-75240832D01*
X107032177Y-75174790D01*
X107061000Y-75170760D01*
X107149306Y-75226684D01*
X107185695Y-75412063D01*
X107188000Y-75509427D01*
X107202200Y-75730995D01*
X107259594Y-75828920D01*
X107357333Y-75848094D01*
X107474041Y-75814946D01*
X107521131Y-75685538D01*
X107526666Y-75551760D01*
X107554206Y-75332587D01*
X107642100Y-75255963D01*
X107653666Y-75255427D01*
X107747598Y-75319687D01*
X107780437Y-75524772D01*
X107780666Y-75551760D01*
X107796480Y-75752159D01*
X107867646Y-75834198D01*
X107992333Y-75848094D01*
X108128706Y-75829609D01*
X108189319Y-75742419D01*
X108203924Y-75538920D01*
X108204000Y-75509427D01*
X108224971Y-75273942D01*
X108294488Y-75176907D01*
X108331000Y-75170760D01*
X108402236Y-75207501D01*
G37*
G36*
X107627561Y-73742374D02*
G01*
X107997631Y-73877946D01*
X108237476Y-73973185D01*
X108375271Y-74047625D01*
X108439189Y-74120797D01*
X108457405Y-74212235D01*
X108458000Y-74318112D01*
X108445302Y-74441518D01*
X108385432Y-74533820D01*
X108245724Y-74618776D01*
X107993513Y-74720142D01*
X107818580Y-74783135D01*
X107501246Y-74896213D01*
X107237031Y-74991130D01*
X107073968Y-75050611D01*
X107056580Y-75057172D01*
X106962052Y-75042164D01*
X106934000Y-74888034D01*
X106954236Y-74762706D01*
X107038520Y-74666373D01*
X107222213Y-74571587D01*
X107459230Y-74480348D01*
X107984461Y-74288839D01*
X107459230Y-74120831D01*
X107173922Y-74022617D01*
X107015645Y-73940386D01*
X106947860Y-73846323D01*
X106934000Y-73721039D01*
X106934000Y-73489256D01*
X107627561Y-73742374D01*
G37*
G36*
X108286884Y-78851254D02*
G01*
X108317877Y-78881594D01*
X108399326Y-79048914D01*
X108449008Y-79293572D01*
X108460277Y-79544923D01*
X108426486Y-79732320D01*
X108401555Y-79770983D01*
X108274002Y-79823119D01*
X108223043Y-79827427D01*
X108140046Y-79775276D01*
X108152412Y-79622488D01*
X108169574Y-79364643D01*
X108084346Y-79196824D01*
X107950000Y-79150094D01*
X107792367Y-79220080D01*
X107725381Y-79407504D01*
X107747587Y-79622488D01*
X107766988Y-79742731D01*
X107721365Y-79803442D01*
X107573013Y-79824898D01*
X107366511Y-79827427D01*
X106934000Y-79827427D01*
X106934000Y-79319427D01*
X106943753Y-79024455D01*
X106978328Y-78866085D01*
X107045697Y-78812429D01*
X107061000Y-78811427D01*
X107149306Y-78867350D01*
X107185695Y-79052730D01*
X107188000Y-79150094D01*
X107208971Y-79385579D01*
X107278488Y-79482614D01*
X107315000Y-79488760D01*
X107416001Y-79413328D01*
X107441999Y-79240808D01*
X107486045Y-79012855D01*
X107575047Y-78859808D01*
X107794010Y-78746614D01*
X108058128Y-78744549D01*
X108286884Y-78851254D01*
G37*
G36*
X108286884Y-82915254D02*
G01*
X108317877Y-82945594D01*
X108399326Y-83112914D01*
X108449008Y-83357572D01*
X108460277Y-83608923D01*
X108426486Y-83796320D01*
X108401555Y-83834983D01*
X108274002Y-83887119D01*
X108223043Y-83891427D01*
X108140046Y-83839276D01*
X108152412Y-83686488D01*
X108169574Y-83428643D01*
X108084346Y-83260824D01*
X107950000Y-83214094D01*
X107792367Y-83284080D01*
X107725381Y-83471504D01*
X107747587Y-83686488D01*
X107766988Y-83806731D01*
X107721365Y-83867442D01*
X107573013Y-83888898D01*
X107366511Y-83891427D01*
X106934000Y-83891427D01*
X106934000Y-83383427D01*
X106943753Y-83088455D01*
X106978328Y-82930085D01*
X107045697Y-82876429D01*
X107061000Y-82875427D01*
X107149306Y-82931350D01*
X107185695Y-83116730D01*
X107188000Y-83214094D01*
X107208971Y-83449579D01*
X107278488Y-83546614D01*
X107315000Y-83552760D01*
X107416001Y-83477328D01*
X107441999Y-83304808D01*
X107486045Y-83076855D01*
X107575047Y-82923808D01*
X107794010Y-82810614D01*
X108058128Y-82808549D01*
X108286884Y-82915254D01*
G37*
G36*
X107162767Y-81467265D02*
G01*
X107397092Y-81550199D01*
X107698880Y-81669023D01*
X107800688Y-81711260D01*
X108123906Y-81852399D01*
X108319769Y-81958087D01*
X108419463Y-82052365D01*
X108454171Y-82159273D01*
X108456894Y-82217123D01*
X108458000Y-82447819D01*
X107823000Y-82158440D01*
X107187999Y-81869061D01*
X107187999Y-82245244D01*
X107170963Y-82494615D01*
X107113177Y-82607130D01*
X107061000Y-82621427D01*
X106991998Y-82586573D01*
X106952507Y-82461247D01*
X106935851Y-82214306D01*
X106934000Y-82028760D01*
X106945295Y-81684468D01*
X106981070Y-81492263D01*
X107039794Y-81436094D01*
X107162767Y-81467265D01*
G37*
G36*
X108402236Y-71651501D02*
G01*
X108441829Y-71782783D01*
X108457070Y-72040195D01*
X108458000Y-72165094D01*
X108458000Y-72715427D01*
X106934000Y-72715427D01*
X106934000Y-72165094D01*
X106942478Y-71856404D01*
X106972774Y-71684832D01*
X107032177Y-71618790D01*
X107061000Y-71614760D01*
X107149306Y-71670684D01*
X107185695Y-71856063D01*
X107188000Y-71953427D01*
X107202200Y-72174995D01*
X107259594Y-72272920D01*
X107357333Y-72292094D01*
X107474041Y-72258946D01*
X107521131Y-72129538D01*
X107526666Y-71995760D01*
X107554206Y-71776587D01*
X107642100Y-71699963D01*
X107653666Y-71699427D01*
X107747598Y-71763687D01*
X107780437Y-71968772D01*
X107780666Y-71995760D01*
X107796480Y-72196159D01*
X107867646Y-72278198D01*
X107992333Y-72292094D01*
X108128706Y-72273609D01*
X108189319Y-72186419D01*
X108203924Y-71982920D01*
X108204000Y-71953427D01*
X108224971Y-71717942D01*
X108294488Y-71620907D01*
X108331000Y-71614760D01*
X108402236Y-71651501D01*
G37*
G36*
X107162767Y-84176599D02*
G01*
X107397092Y-84259533D01*
X107698880Y-84378357D01*
X107800688Y-84420594D01*
X108123906Y-84561732D01*
X108319769Y-84667420D01*
X108419463Y-84761698D01*
X108454171Y-84868607D01*
X108456894Y-84926456D01*
X108458000Y-85157152D01*
X107823000Y-84867773D01*
X107187999Y-84578394D01*
X107187999Y-84954577D01*
X107170963Y-85203949D01*
X107113177Y-85316463D01*
X107061000Y-85330760D01*
X106991998Y-85295906D01*
X106952507Y-85170580D01*
X106935851Y-84923640D01*
X106934000Y-84738094D01*
X106945295Y-84393801D01*
X106981070Y-84201596D01*
X107039794Y-84145427D01*
X107162767Y-84176599D01*
G37*
G36*
X107614866Y-81114121D02*
G01*
X107393626Y-80991594D01*
X107132108Y-80819142D01*
X106991786Y-80680457D01*
X106960395Y-80595061D01*
X107399666Y-80595061D01*
X107599546Y-80761577D01*
X107800189Y-80900890D01*
X107912742Y-80904023D01*
X107949891Y-80770872D01*
X107950000Y-80758760D01*
X107914551Y-80639223D01*
X107778287Y-80594909D01*
X107674833Y-80592244D01*
X107399666Y-80595061D01*
X106960395Y-80595061D01*
X106939797Y-80539024D01*
X106936401Y-80483594D01*
X106943395Y-80354690D01*
X106994237Y-80285107D01*
X107128618Y-80256568D01*
X107386231Y-80250793D01*
X107442000Y-80250760D01*
X107736972Y-80241007D01*
X107895341Y-80206432D01*
X107948998Y-80139063D01*
X107950000Y-80123760D01*
X108017772Y-80011512D01*
X108077000Y-79996760D01*
X108189248Y-80064533D01*
X108204000Y-80123760D01*
X108271772Y-80236009D01*
X108331000Y-80250760D01*
X108434428Y-80321347D01*
X108458000Y-80420094D01*
X108405060Y-80557998D01*
X108331000Y-80589427D01*
X108242693Y-80645350D01*
X108206304Y-80830730D01*
X108204000Y-80928094D01*
X108190487Y-81148620D01*
X108134053Y-81246314D01*
X108026224Y-81266760D01*
X107912742Y-81237515D01*
X107861459Y-81224299D01*
X107614866Y-81114121D01*
G37*
%TO.C,RF_R2*%
X124182000Y-100856760D02*
X123852000Y-100856760D01*
X126592000Y-100856760D02*
X126592000Y-107396760D01*
X126592000Y-107396760D02*
X126262000Y-107396760D01*
X123852000Y-107396760D02*
X124182000Y-107396760D01*
X126262000Y-100856760D02*
X126592000Y-100856760D01*
X123852000Y-100856760D02*
X123852000Y-107396760D01*
%TO.C,RF_U1*%
X132020000Y-102820760D02*
X155000000Y-102820760D01*
X155000000Y-98320760D02*
X132020000Y-98320760D01*
X155000000Y-102820760D02*
X155000000Y-98320760D01*
X132020000Y-101570760D02*
X132020000Y-102820760D01*
X132020000Y-98320760D02*
X132020000Y-99570760D01*
X132020000Y-101570760D02*
G75*
G03*
X132020000Y-99570760I0J1000000D01*
G01*
%TO.C,RF_C7*%
X142430000Y-90056760D02*
X149670000Y-90056760D01*
X142430000Y-92796760D02*
X149670000Y-92796760D01*
X149670000Y-90056760D02*
X149670000Y-92796760D01*
X142430000Y-90056760D02*
X142430000Y-92796760D01*
%TO.C,RF_VL1*%
X122682000Y-71106760D02*
X112522000Y-71106760D01*
X122682000Y-81266760D02*
X122682000Y-77964760D01*
X112522000Y-77964760D02*
X112522000Y-81266760D01*
X112522000Y-81266760D02*
X122682000Y-81266760D01*
X122682000Y-74408760D02*
X122682000Y-71106760D01*
X112522000Y-71106760D02*
X112522000Y-74408760D01*
%TO.C,RF_C10*%
X166270000Y-102920760D02*
X169010000Y-102920760D01*
X166270000Y-95680760D02*
X169010000Y-95680760D01*
X169010000Y-102920760D02*
X169010000Y-95680760D01*
X166270000Y-102920760D02*
X166270000Y-95680760D01*
%TO.C,RF_JP1*%
X122528000Y-93934760D02*
X122528000Y-87394760D01*
X122528000Y-87394760D02*
X119788000Y-87394760D01*
X119788000Y-87394760D02*
X119788000Y-93934760D01*
X119788000Y-93934760D02*
X122528000Y-93934760D01*
X121158000Y-84084760D02*
X121158000Y-87394760D01*
X121158000Y-97244760D02*
X121158000Y-93934760D01*
%TO.C,RF_C6*%
X154078000Y-117906760D02*
X154078000Y-110666760D01*
X154078000Y-110666760D02*
X156818000Y-110666760D01*
X156818000Y-117906760D02*
X156818000Y-110666760D01*
X154078000Y-117906760D02*
X156818000Y-117906760D01*
%TO.C,RF_C5*%
X130492000Y-92796760D02*
X137732000Y-92796760D01*
X137732000Y-90056760D02*
X137732000Y-92796760D01*
X130492000Y-90056760D02*
X130492000Y-92796760D01*
X130492000Y-90056760D02*
X137732000Y-90056760D01*
%TO.C,RF_R11*%
X132112000Y-85862760D02*
X132112000Y-86192760D01*
X132112000Y-83782760D02*
X132112000Y-83452760D01*
X132112000Y-83452760D02*
X138652000Y-83452760D01*
X138652000Y-83452760D02*
X138652000Y-83782760D01*
X138652000Y-86192760D02*
X138652000Y-85862760D01*
X132112000Y-86192760D02*
X138652000Y-86192760D01*
%TO.C,RF_C12*%
X148018000Y-109306760D02*
X148018000Y-106566760D01*
X155258000Y-106566760D02*
X148018000Y-106566760D01*
X155258000Y-109306760D02*
X155258000Y-106566760D01*
X155258000Y-109306760D02*
X148018000Y-109306760D01*
%TO.C,RF_R6*%
X159290000Y-111392760D02*
X165830000Y-111392760D01*
X159290000Y-113802760D02*
X159290000Y-114132760D01*
X159290000Y-111722760D02*
X159290000Y-111392760D01*
X159290000Y-114132760D02*
X165830000Y-114132760D01*
X165830000Y-114132760D02*
X165830000Y-113802760D01*
X165830000Y-111392760D02*
X165830000Y-111722760D01*
%TO.C,RF_C2*%
X123598000Y-89584760D02*
X123598000Y-96824760D01*
X126338000Y-96824760D02*
X123598000Y-96824760D01*
X126338000Y-89584760D02*
X126338000Y-96824760D01*
X126338000Y-89584760D02*
X123598000Y-89584760D01*
%TD*%
M02*
