%TF.GenerationSoftware,KiCad,Pcbnew,6.0.11-2627ca5db0~126~ubuntu22.04.1*%
%TF.CreationDate,2023-04-10T22:07:41-04:00*%
%TF.ProjectId,sub_rf_mod,7375625f-7266-45f6-9d6f-642e6b696361,rev?*%
%TF.SameCoordinates,Original*%
%TF.FileFunction,Copper,L1,Top*%
%TF.FilePolarity,Positive*%
%FSLAX46Y46*%
G04 Gerber Fmt 4.6, Leading zero omitted, Abs format (unit mm)*
G04 Created by KiCad (PCBNEW 6.0.11-2627ca5db0~126~ubuntu22.04.1) date 2023-04-10 22:07:41*
%MOMM*%
%LPD*%
G01*
G04 APERTURE LIST*
%TA.AperFunction,Profile*%
%ADD10C,0.100000*%
%TD*%
%TA.AperFunction,ComponentPad*%
%ADD11C,1.600000*%
%TD*%
%TA.AperFunction,ComponentPad*%
%ADD12O,1.600000X1.600000*%
%TD*%
%TA.AperFunction,ComponentPad*%
%ADD13R,1.600000X1.600000*%
%TD*%
%TA.AperFunction,ComponentPad*%
%ADD14C,2.600000*%
%TD*%
%TA.AperFunction,ComponentPad*%
%ADD15R,1.600000X2.400000*%
%TD*%
%TA.AperFunction,ComponentPad*%
%ADD16O,1.600000X2.400000*%
%TD*%
%TA.AperFunction,ComponentPad*%
%ADD17C,3.800000*%
%TD*%
%TA.AperFunction,ComponentPad*%
%ADD18C,1.524000*%
%TD*%
%TA.AperFunction,ComponentPad*%
%ADD19C,3.000000*%
%TD*%
%TA.AperFunction,ComponentPad*%
%ADD20R,1.700000X1.700000*%
%TD*%
%TA.AperFunction,ComponentPad*%
%ADD21O,1.700000X1.700000*%
%TD*%
%TA.AperFunction,ComponentPad*%
%ADD22C,4.227000*%
%TD*%
%TA.AperFunction,ComponentPad*%
%ADD23C,4.039000*%
%TD*%
%TA.AperFunction,ComponentPad*%
%ADD24O,1.800000X3.000000*%
%TD*%
%TA.AperFunction,ComponentPad*%
%ADD25R,1.500000X2.500000*%
%TD*%
%TA.AperFunction,ComponentPad*%
%ADD26O,1.500000X2.500000*%
%TD*%
G04 APERTURE END LIST*
D10*
X110022000Y-70612000D02*
X178094000Y-70612000D01*
X110022000Y-70612000D02*
X109514000Y-71120000D01*
X178602000Y-120142000D02*
X178602000Y-71120000D01*
X178094000Y-70612000D02*
X178602000Y-71120000D01*
X109514000Y-120142000D02*
X110022000Y-120650000D01*
X109514000Y-120142000D02*
X109514000Y-71120000D01*
X178094000Y-120650000D02*
X178602000Y-120142000D01*
X110022000Y-120650000D02*
X178094000Y-120650000D01*
D11*
%TO.P,RF_C10,1*%
%TO.N,N/C*%
X172252000Y-105116000D03*
%TO.P,RF_C10,2*%
X172252000Y-100116000D03*
%TD*%
%TO.P,RF_JP1,1,A*%
%TO.N,N/C*%
X125516000Y-83566000D03*
D12*
%TO.P,RF_JP1,2,B*%
X125516000Y-98806000D03*
%TD*%
D11*
%TO.P,RF_C6,1*%
%TO.N,N/C*%
X159806000Y-117308000D03*
%TO.P,RF_C6,2*%
X159806000Y-112308000D03*
%TD*%
%TO.P,RF_C5,1*%
%TO.N,N/C*%
X135970000Y-91948000D03*
%TO.P,RF_C5,2*%
X140970000Y-91948000D03*
%TD*%
%TO.P,RF_R11,1*%
%TO.N,N/C*%
X135930000Y-85344000D03*
D12*
%TO.P,RF_R11,2*%
X143550000Y-85344000D03*
%TD*%
D11*
%TO.P,RF_C12,1*%
%TO.N,N/C*%
X158496000Y-108458000D03*
%TO.P,RF_C12,2*%
X153496000Y-108458000D03*
%TD*%
%TO.P,RF_R6,1*%
%TO.N,N/C*%
X163108000Y-113284000D03*
D12*
%TO.P,RF_R6,2*%
X170728000Y-113284000D03*
%TD*%
D11*
%TO.P,RF_C2,1*%
%TO.N,N/C*%
X129326000Y-91226000D03*
%TO.P,RF_C2,2*%
X129326000Y-96226000D03*
%TD*%
D13*
%TO.P,RF_C13,1*%
%TO.N,N/C*%
X121229328Y-116332000D03*
D11*
%TO.P,RF_C13,2*%
X123229328Y-116332000D03*
%TD*%
%TO.P,RF_R3,1*%
%TO.N,N/C*%
X130088000Y-116332000D03*
D12*
%TO.P,RF_R3,2*%
X137708000Y-116332000D03*
%TD*%
D14*
%TO.P,RF_L3,1,1*%
%TO.N,N/C*%
X153456000Y-117308000D03*
%TO.P,RF_L3,2,2*%
X153456000Y-112308000D03*
%TD*%
D11*
%TO.P,RF_C11,1*%
%TO.N,N/C*%
X169752000Y-88138000D03*
%TO.P,RF_C11,2*%
X174752000Y-88138000D03*
%TD*%
D13*
%TO.P,RF_D1,1,K*%
%TO.N,N/C*%
X125262000Y-111506000D03*
D12*
%TO.P,RF_D1,2,A*%
X125262000Y-101346000D03*
%TD*%
D13*
%TO.P,RF_D2,1,K*%
%TO.N,N/C*%
X132628000Y-86106000D03*
D12*
%TO.P,RF_D2,2,A*%
X132628000Y-96266000D03*
%TD*%
D11*
%TO.P,RF_C1,1*%
%TO.N,N/C*%
X130596000Y-79502000D03*
%TO.P,RF_C1,2*%
X130596000Y-74502000D03*
%TD*%
%TO.P,RF_R2,1*%
%TO.N,N/C*%
X129580000Y-101346000D03*
D12*
%TO.P,RF_R2,2*%
X129580000Y-108966000D03*
%TD*%
D15*
%TO.P,RF_U1,1,CHROMA_LEAD*%
%TO.N,N/C*%
X137708000Y-104902000D03*
D16*
%TO.P,RF_U1,2,R-Y*%
X140248000Y-104902000D03*
%TO.P,RF_U1,3,CHROMA_BIAS*%
X142788000Y-104902000D03*
%TO.P,RF_U1,4,B-Y*%
X145328000Y-104902000D03*
%TO.P,RF_U1,5,GND*%
X147868000Y-104902000D03*
%TO.P,RF_U1,6,CHB_TANK1*%
X150408000Y-104902000D03*
%TO.P,RF_U1,7,CHB_TANK2*%
X152948000Y-104902000D03*
%TO.P,RF_U1,8,CHA_TANK1*%
X155488000Y-104902000D03*
%TO.P,RF_U1,9,CHA_TANK2*%
X158028000Y-104902000D03*
%TO.P,RF_U1,10,CHB_OUTPUT*%
X158028000Y-97282000D03*
%TO.P,RF_U1,11,CHA_OUTPUT*%
X155488000Y-97282000D03*
%TO.P,RF_U1,12,VIDEO_IN*%
X152948000Y-97282000D03*
%TO.P,RF_U1,13,CHROMA_SUBCAR*%
X150408000Y-97282000D03*
%TO.P,RF_U1,14,RF_SUPPLY*%
X147868000Y-97282000D03*
%TO.P,RF_U1,15,SOUND_TANK*%
X145328000Y-97282000D03*
%TO.P,RF_U1,16,CHROMA_SUPPLY*%
X142788000Y-97282000D03*
%TO.P,RF_U1,17,CHROMA_OSC*%
X140248000Y-97282000D03*
%TO.P,RF_U1,18,CHROMA_LAG*%
X137708000Y-97282000D03*
%TD*%
D11*
%TO.P,RF_C7,1*%
%TO.N,N/C*%
X147908000Y-91948000D03*
%TO.P,RF_C7,2*%
X152908000Y-91948000D03*
%TD*%
D17*
%TO.P,H17,1,1*%
%TO.N,N/C*%
X120182000Y-85852000D03*
%TD*%
D18*
%TO.P,RF_VL1,1,1*%
%TO.N,N/C*%
X118404000Y-80264000D03*
%TO.P,RF_VL1,2,2*%
X121960000Y-80264000D03*
%TO.P,RF_VL1,3,3*%
X125516000Y-80264000D03*
%TO.P,RF_VL1,4,4*%
X125516000Y-73152000D03*
%TO.P,RF_VL1,6,6*%
X118404000Y-73152000D03*
D19*
%TO.P,RF_VL1,S,S*%
X116880000Y-76708000D03*
X127040000Y-76708000D03*
%TD*%
D11*
%TO.P,RF_C4,1*%
%TO.N,N/C*%
X137160000Y-112776000D03*
%TO.P,RF_C4,2*%
X132160000Y-112776000D03*
%TD*%
%TO.P,RF_R5,1*%
%TO.N,N/C*%
X170652000Y-117094000D03*
D12*
%TO.P,RF_R5,2*%
X163032000Y-117094000D03*
%TD*%
D20*
%TO.P,J4B1,1,Pin_1*%
%TO.N,N/C*%
X120182000Y-89916000D03*
D21*
%TO.P,J4B1,2,Pin_2*%
X120182000Y-92456000D03*
%TO.P,J4B1,3,Pin_3*%
X120182000Y-94996000D03*
%TO.P,J4B1,4,Pin_4*%
X120182000Y-97536000D03*
%TO.P,J4B1,5,Pin_5*%
X120182000Y-100076000D03*
%TO.P,J4B1,6,Pin_6*%
X120182000Y-102616000D03*
%TO.P,J4B1,7,Pin_7*%
X120182000Y-105156000D03*
%TO.P,J4B1,8,Pin_8*%
X120182000Y-107696000D03*
%TD*%
D11*
%TO.P,RF_R7,1*%
%TO.N,N/C*%
X162092000Y-94488000D03*
D12*
%TO.P,RF_R7,2*%
X162092000Y-86868000D03*
%TD*%
D11*
%TO.P,RF_R8,1*%
%TO.N,N/C*%
X156758000Y-94488000D03*
D12*
%TO.P,RF_R8,2*%
X156758000Y-86868000D03*
%TD*%
D22*
%TO.P,RF_J1,S*%
%TO.N,N/C*%
X171490000Y-78928500D03*
D23*
%TO.P,RF_J1,T*%
X171490000Y-83428500D03*
%TD*%
D11*
%TO.P,RF_C8,1*%
%TO.N,N/C*%
X155742000Y-81534000D03*
%TO.P,RF_C8,2*%
X160742000Y-81534000D03*
%TD*%
%TO.P,RF_C9,1*%
%TO.N,N/C*%
X165394000Y-93686000D03*
%TO.P,RF_C9,2*%
X165394000Y-88686000D03*
%TD*%
D17*
%TO.P,H16,1,1*%
%TO.N,N/C*%
X120182000Y-111760000D03*
%TD*%
D11*
%TO.P,RF_R4,1*%
%TO.N,N/C*%
X140756000Y-116586000D03*
D12*
%TO.P,RF_R4,2*%
X140756000Y-108966000D03*
%TD*%
D11*
%TO.P,RF_R1,1*%
%TO.N,N/C*%
X116118000Y-95758000D03*
D12*
%TO.P,RF_R1,2*%
X116118000Y-88138000D03*
%TD*%
D11*
%TO.P,RF_R9,1*%
%TO.N,N/C*%
X152948000Y-81534000D03*
D12*
%TO.P,RF_R9,2*%
X152948000Y-89154000D03*
%TD*%
D24*
%TO.P,RF_SW1,*%
%TO.N,*%
X138974000Y-75184000D03*
X147174000Y-75184000D03*
D25*
%TO.P,RF_SW1,1,A*%
%TO.N,N/C*%
X145074000Y-75184000D03*
D26*
%TO.P,RF_SW1,2,B*%
X143074000Y-75184000D03*
%TO.P,RF_SW1,3,C*%
X141074000Y-75184000D03*
%TD*%
D11*
%TO.P,RF_R10,1*%
%TO.N,N/C*%
X141264000Y-81788000D03*
D12*
%TO.P,RF_R10,2*%
X133644000Y-81788000D03*
%TD*%
D14*
%TO.P,RF_L1,1,1*%
%TO.N,N/C*%
X172506000Y-96734000D03*
%TO.P,RF_L1,2,2*%
X172506000Y-91734000D03*
%TD*%
D11*
%TO.P,RF_C3,1*%
%TO.N,N/C*%
X133136000Y-104688000D03*
%TO.P,RF_C3,2*%
X133136000Y-109688000D03*
%TD*%
%TO.P,RF_R12,1*%
%TO.N,N/C*%
X145074000Y-88646000D03*
D12*
%TO.P,RF_R12,2*%
X137454000Y-88646000D03*
%TD*%
D14*
%TO.P,RF_L2,1,1*%
%TO.N,N/C*%
X163148000Y-101346000D03*
%TO.P,RF_L2,2,2*%
X168148000Y-101346000D03*
%TD*%
M02*
