M48
; DRILL file {KiCad 6.0.11-2627ca5db0~126~ubuntu22.04.1} date Mon 01 May 2023 09:38:37 AM EDT
; FORMAT={-:-/ absolute / metric / decimal}
; #@! TF.CreationDate,2023-05-01T09:38:37-04:00
; #@! TF.GenerationSoftware,Kicad,Pcbnew,6.0.11-2627ca5db0~126~ubuntu22.04.1
; #@! TF.FileFunction,Plated,1,2,PTH
FMAT,2
METRIC
; #@! TA.AperFunction,Plated,PTH,ComponentDrill
T1C0.762
; #@! TA.AperFunction,Plated,PTH,ComponentDrill
T2C0.800
; #@! TA.AperFunction,Plated,PTH,ComponentDrill
T3C1.000
; #@! TA.AperFunction,Plated,PTH,ComponentDrill
T4C1.300
; #@! TA.AperFunction,Plated,PTH,ComponentDrill
T5C1.850
; #@! TA.AperFunction,Plated,PTH,ComponentDrill
T6C2.000
; #@! TA.AperFunction,Plated,PTH,ComponentDrill
T7C2.200
; #@! TA.AperFunction,Plated,PTH,ComponentDrill
T8C2.693
; #@! TA.AperFunction,Plated,PTH,ComponentDrill
T9C2.818
; #@! TA.AperFunction,Plated,PTH,ComponentDrill
T10C4.000
%
G90
G05
T1
X123.571Y-59.563
T2
X117.729Y-74.549
X117.729Y-82.169
X120.015Y-59.563
X120.015Y-66.675
X122.84Y-102.743
X123.571Y-66.675
X124.84Y-102.743
X126.873Y-87.757
X126.873Y-97.917
X127.127Y-59.563
X127.127Y-66.675
X127.127Y-69.977
X127.127Y-85.217
X130.937Y-77.637
X130.937Y-82.637
X131.191Y-87.757
X131.191Y-95.377
X131.699Y-102.743
X132.207Y-60.913
X132.207Y-65.913
X133.771Y-99.187
X134.239Y-72.517
X134.239Y-82.677
X134.747Y-91.099
X134.747Y-96.099
X137.287Y-72.771
X137.287Y-75.819
X137.581Y-81.915
X138.771Y-99.187
X139.065Y-78.867
X139.319Y-84.978
X139.319Y-92.598
X139.319Y-102.743
X141.859Y-84.978
X141.859Y-92.598
X142.367Y-95.377
X142.367Y-102.997
X142.581Y-81.915
X144.399Y-84.978
X144.399Y-92.598
X144.907Y-72.771
X144.907Y-75.819
X146.685Y-78.867
X146.939Y-84.978
X146.939Y-92.598
X149.479Y-84.978
X149.479Y-92.598
X149.773Y-81.915
X152.019Y-84.978
X152.019Y-92.598
X152.059Y-95.631
X154.559Y-84.978
X154.559Y-92.598
X154.773Y-81.915
X156.083Y-67.945
X156.083Y-75.565
X157.059Y-95.631
X157.099Y-84.978
X157.099Y-92.598
X159.171Y-67.945
X159.385Y-73.279
X159.385Y-80.899
X159.639Y-84.978
X159.639Y-92.598
X161.417Y-98.719
X161.417Y-103.719
X163.703Y-73.279
X163.703Y-80.899
X164.171Y-67.945
X164.719Y-99.695
X164.719Y-103.505
X167.005Y-75.097
X167.005Y-80.097
X171.363Y-74.549
X172.339Y-99.695
X172.339Y-103.505
X173.863Y-86.527
X173.863Y-91.527
X176.363Y-74.549
T3
X121.793Y-76.327
X121.793Y-78.867
X121.793Y-81.407
X121.793Y-83.947
X121.793Y-86.487
X121.793Y-89.027
X121.793Y-91.567
X121.793Y-94.107
T4
X155.067Y-99.187
X155.067Y-104.187
X164.759Y-87.757
X169.759Y-87.757
X174.117Y-78.145
X174.117Y-83.145
T5
X138.81Y-59.25
X140.715Y-68.78
X145.415Y-68.78
X150.115Y-68.78
X152.02Y-59.25
T6
X118.491Y-63.119
X128.651Y-63.119
T7
X121.793Y-72.263
X121.793Y-98.171
T8
X173.101Y-69.84
T9
X173.101Y-65.34
T10
X123.571Y-63.119
T0
M30
