M48
; DRILL file {KiCad 6.0.11-2627ca5db0~126~ubuntu22.04.1} date Sat 08 Apr 2023 12:37:44 PM EDT
; FORMAT={-:-/ absolute / metric / decimal}
; #@! TF.CreationDate,2023-04-08T12:37:44-04:00
; #@! TF.GenerationSoftware,Kicad,Pcbnew,6.0.11-2627ca5db0~126~ubuntu22.04.1
; #@! TF.FileFunction,Plated,1,2,PTH
FMAT,2
METRIC
; #@! TA.AperFunction,Plated,PTH,ComponentDrill
T1C0.762
; #@! TA.AperFunction,Plated,PTH,ComponentDrill
T2C0.800
; #@! TA.AperFunction,Plated,PTH,ComponentDrill
T3C0.900
; #@! TA.AperFunction,Plated,PTH,ComponentDrill
T4C1.000
; #@! TA.AperFunction,Plated,PTH,ComponentDrill
T5C1.250
; #@! TA.AperFunction,Plated,PTH,ComponentDrill
T6C1.300
; #@! TA.AperFunction,Plated,PTH,ComponentDrill
T7C2.000
; #@! TA.AperFunction,Plated,PTH,ComponentDrill
T8C2.200
; #@! TA.AperFunction,Plated,PTH,ComponentDrill
T9C2.693
; #@! TA.AperFunction,Plated,PTH,ComponentDrill
T10C2.818
; #@! TA.AperFunction,Plated,PTH,ComponentDrill
T11C4.000
%
G90
G05
T1
X117.348Y-69.723
X117.348Y-76.835
X120.904Y-69.723
X120.904Y-76.835
X124.46Y-69.723
X124.46Y-76.835
T2
X115.062Y-84.709
X115.062Y-92.329
X120.173Y-112.903
X122.173Y-112.903
X124.206Y-97.917
X124.206Y-108.077
X124.46Y-80.137
X124.46Y-95.377
X128.27Y-87.797
X128.27Y-92.797
X128.524Y-97.409
X128.524Y-105.029
X129.032Y-112.903
X129.54Y-71.073
X129.54Y-76.073
X131.104Y-109.347
X131.572Y-82.677
X131.572Y-92.837
X132.08Y-101.259
X132.08Y-106.259
X132.588Y-78.359
X134.874Y-81.915
X134.914Y-88.519
X136.104Y-109.347
X136.398Y-85.217
X136.652Y-93.853
X136.652Y-101.473
X136.652Y-112.903
X139.192Y-93.853
X139.192Y-101.473
X139.914Y-88.519
X139.954Y-105.537
X140.208Y-78.359
X141.518Y-110.109
X141.732Y-93.853
X141.732Y-101.473
X142.494Y-81.915
X144.018Y-85.217
X144.272Y-93.853
X144.272Y-101.473
X146.518Y-110.109
X146.812Y-93.853
X146.812Y-101.473
X146.852Y-88.011
X147.574Y-105.537
X149.352Y-93.853
X149.352Y-101.473
X150.114Y-75.311
X150.114Y-82.931
X151.852Y-88.011
X151.892Y-93.853
X151.892Y-101.473
X154.432Y-93.853
X154.432Y-101.473
X154.686Y-73.105
X154.686Y-78.105
X155.02Y-105.029
X156.972Y-93.853
X156.972Y-101.473
X158.75Y-82.169
X158.75Y-89.789
X159.004Y-72.263
X159.004Y-79.883
X160.02Y-105.029
X161.976Y-113.665
X162.052Y-85.257
X162.052Y-90.257
X162.052Y-109.601
X166.664Y-95.123
X169.596Y-113.665
X169.672Y-109.601
X171.664Y-95.123
X174.752Y-85.765
X174.752Y-90.765
T3
X140.018Y-71.755
X142.018Y-71.755
X144.018Y-71.755
T4
X119.126Y-86.487
X119.126Y-89.027
X119.126Y-91.567
X119.126Y-94.107
X119.126Y-96.647
X119.126Y-99.187
X119.126Y-101.727
X119.126Y-104.267
T5
X137.918Y-71.755
X146.118Y-71.755
T6
X150.154Y-112.141
X155.154Y-112.141
X166.41Y-101.727
X168.402Y-85.511
X168.402Y-90.511
X171.41Y-101.727
T7
X115.824Y-73.279
X125.984Y-73.279
T8
X119.126Y-82.423
X119.126Y-108.331
T9
X170.434Y-79.999
T10
X170.434Y-75.499
T11
X120.904Y-73.279
T0
M30
