M48
; DRILL file {KiCad 6.0.11-2627ca5db0~126~ubuntu22.04.1} date Thu 04 May 2023 08:33:05 PM EDT
; FORMAT={-:-/ absolute / metric / decimal}
; #@! TF.CreationDate,2023-05-04T20:33:05-04:00
; #@! TF.GenerationSoftware,Kicad,Pcbnew,6.0.11-2627ca5db0~126~ubuntu22.04.1
; #@! TF.FileFunction,Plated,1,2,PTH
FMAT,2
METRIC
; #@! TA.AperFunction,Plated,PTH,ComponentDrill
T1C0.762
; #@! TA.AperFunction,Plated,PTH,ComponentDrill
T2C0.800
; #@! TA.AperFunction,Plated,PTH,ComponentDrill
T3C1.000
; #@! TA.AperFunction,Plated,PTH,ComponentDrill
T4C1.300
; #@! TA.AperFunction,Plated,PTH,ComponentDrill
T5C1.850
; #@! TA.AperFunction,Plated,PTH,ComponentDrill
T6C2.000
; #@! TA.AperFunction,Plated,PTH,ComponentDrill
T7C2.200
; #@! TA.AperFunction,Plated,PTH,ComponentDrill
T8C2.693
; #@! TA.AperFunction,Plated,PTH,ComponentDrill
T9C2.818
; #@! TA.AperFunction,Plated,PTH,ComponentDrill
T10C4.000
%
G90
G05
T1
X115.824Y-55.88
T2
X109.982Y-70.866
X109.982Y-78.486
X112.268Y-55.88
X112.268Y-62.992
X115.093Y-99.06
X115.824Y-62.992
X117.093Y-99.06
X119.126Y-84.074
X119.126Y-94.234
X119.38Y-55.88
X119.38Y-62.992
X119.38Y-66.294
X119.38Y-81.534
X123.19Y-73.954
X123.19Y-78.954
X123.444Y-84.074
X123.444Y-91.694
X123.952Y-99.06
X124.46Y-57.23
X124.46Y-62.23
X126.024Y-95.504
X126.492Y-68.834
X126.492Y-78.994
X127.0Y-87.416
X127.0Y-92.416
X129.54Y-69.088
X129.54Y-72.136
X129.834Y-78.232
X131.024Y-95.504
X131.318Y-75.184
X131.572Y-81.295
X131.572Y-88.915
X131.572Y-99.06
X134.112Y-81.295
X134.112Y-88.915
X134.62Y-91.694
X134.62Y-99.314
X134.834Y-78.232
X136.652Y-81.295
X136.652Y-88.915
X137.16Y-69.088
X137.16Y-72.136
X138.938Y-75.184
X139.192Y-81.295
X139.192Y-88.915
X141.732Y-81.295
X141.732Y-88.915
X142.026Y-78.232
X144.272Y-81.295
X144.272Y-88.915
X144.312Y-91.948
X146.812Y-81.295
X146.812Y-88.915
X147.026Y-78.232
X148.336Y-64.262
X148.336Y-71.882
X149.312Y-91.948
X149.352Y-81.295
X149.352Y-88.915
X151.424Y-64.262
X151.638Y-69.596
X151.638Y-77.216
X151.892Y-81.295
X151.892Y-88.915
X153.67Y-95.036
X153.67Y-100.036
X155.956Y-69.596
X155.956Y-77.216
X156.424Y-64.262
X156.972Y-96.012
X156.972Y-99.822
X159.258Y-71.414
X159.258Y-76.414
X163.616Y-70.866
X164.592Y-96.012
X164.592Y-99.822
X166.116Y-82.844
X166.116Y-87.844
X168.616Y-70.866
T3
X114.046Y-72.644
X114.046Y-75.184
X114.046Y-77.724
X114.046Y-80.264
X114.046Y-82.804
X114.046Y-85.344
X114.046Y-87.884
X114.046Y-90.424
T4
X147.32Y-95.504
X147.32Y-100.504
X157.012Y-84.074
X162.012Y-84.074
X166.37Y-74.462
X166.37Y-79.462
T5
X131.064Y-55.567
X132.969Y-65.097
X137.668Y-65.097
X142.368Y-65.097
X144.273Y-55.567
T6
X110.744Y-59.436
X120.904Y-59.436
T7
X114.046Y-68.58
X114.046Y-94.488
T8
X165.354Y-66.156
T9
X165.354Y-61.656
T10
X115.824Y-59.436
T0
M30
