%TF.GenerationSoftware,KiCad,Pcbnew,6.0.11-2627ca5db0~126~ubuntu22.04.1*%
%TF.CreationDate,2023-05-01T09:38:35-04:00*%
%TF.ProjectId,sub_rf_mod,7375625f-7266-45f6-9d6f-642e6b696361,rev?*%
%TF.SameCoordinates,Original*%
%TF.FileFunction,Copper,L2,Bot*%
%TF.FilePolarity,Positive*%
%FSLAX46Y46*%
G04 Gerber Fmt 4.6, Leading zero omitted, Abs format (unit mm)*
G04 Created by KiCad (PCBNEW 6.0.11-2627ca5db0~126~ubuntu22.04.1) date 2023-05-01 09:38:35*
%MOMM*%
%LPD*%
G01*
G04 APERTURE LIST*
%TA.AperFunction,Profile*%
%ADD10C,0.100000*%
%TD*%
%TA.AperFunction,ComponentPad*%
%ADD11C,1.600000*%
%TD*%
%TA.AperFunction,ComponentPad*%
%ADD12O,1.600000X1.600000*%
%TD*%
%TA.AperFunction,ComponentPad*%
%ADD13R,1.600000X1.600000*%
%TD*%
%TA.AperFunction,ComponentPad*%
%ADD14C,2.600000*%
%TD*%
%TA.AperFunction,ComponentPad*%
%ADD15C,2.775000*%
%TD*%
%TA.AperFunction,ComponentPad*%
%ADD16R,1.600000X2.400000*%
%TD*%
%TA.AperFunction,ComponentPad*%
%ADD17O,1.600000X2.400000*%
%TD*%
%TA.AperFunction,ComponentPad*%
%ADD18C,3.800000*%
%TD*%
%TA.AperFunction,ComponentPad*%
%ADD19C,1.700000*%
%TD*%
%TA.AperFunction,ComponentPad*%
%ADD20C,3.000000*%
%TD*%
%TA.AperFunction,ComponentPad*%
%ADD21R,1.700000X1.700000*%
%TD*%
%TA.AperFunction,ComponentPad*%
%ADD22O,1.700000X1.700000*%
%TD*%
%TA.AperFunction,ComponentPad*%
%ADD23C,4.227000*%
%TD*%
%TA.AperFunction,ComponentPad*%
%ADD24C,4.039000*%
%TD*%
%TA.AperFunction,Conductor*%
%ADD25C,0.304800*%
%TD*%
%TA.AperFunction,Conductor*%
%ADD26C,1.016000*%
%TD*%
G04 APERTURE END LIST*
D10*
X111633000Y-57023000D02*
X179705000Y-57023000D01*
X111633000Y-57023000D02*
X111125000Y-57531000D01*
X180213000Y-106553000D02*
X180213000Y-57531000D01*
X179705000Y-57023000D02*
X180213000Y-57531000D01*
X111125000Y-106553000D02*
X111633000Y-107061000D01*
X111125000Y-106553000D02*
X111125000Y-57531000D01*
X179705000Y-107061000D02*
X180213000Y-106553000D01*
X111633000Y-107061000D02*
X179705000Y-107061000D01*
D11*
%TO.P,RF_C10,1*%
%TO.N,N/C*%
X173863000Y-91527000D03*
%TO.P,RF_C10,2*%
X173863000Y-86527000D03*
%TD*%
%TO.P,RF_JP1,1,A*%
%TO.N,N/C*%
X127127000Y-69977000D03*
D12*
%TO.P,RF_JP1,2,B*%
X127127000Y-85217000D03*
%TD*%
D11*
%TO.P,RF_C6,1*%
%TO.N,N/C*%
X161417000Y-98719000D03*
%TO.P,RF_C6,2*%
X161417000Y-103719000D03*
%TD*%
%TO.P,RF_C5,1*%
%TO.N,N/C*%
X137581000Y-81915000D03*
%TO.P,RF_C5,2*%
X142581000Y-81915000D03*
%TD*%
%TO.P,RF_R11,1*%
%TO.N,N/C*%
X137287000Y-75819000D03*
D12*
%TO.P,RF_R11,2*%
X144907000Y-75819000D03*
%TD*%
D11*
%TO.P,RF_C12,1*%
%TO.N,N/C*%
X157059000Y-95631000D03*
%TO.P,RF_C12,2*%
X152059000Y-95631000D03*
%TD*%
%TO.P,RF_R6,1*%
%TO.N,N/C*%
X164719000Y-103505000D03*
D12*
%TO.P,RF_R6,2*%
X172339000Y-103505000D03*
%TD*%
D11*
%TO.P,RF_C2,1*%
%TO.N,N/C*%
X130937000Y-77637000D03*
%TO.P,RF_C2,2*%
X130937000Y-82637000D03*
%TD*%
D13*
%TO.P,RF_C13,1*%
%TO.N,N/C*%
X122840328Y-102743000D03*
D11*
%TO.P,RF_C13,2*%
X124840328Y-102743000D03*
%TD*%
%TO.P,RF_R3,1*%
%TO.N,N/C*%
X131699000Y-102743000D03*
D12*
%TO.P,RF_R3,2*%
X139319000Y-102743000D03*
%TD*%
D14*
%TO.P,RF_L3,1,1*%
%TO.N,N/C*%
X155067000Y-99187000D03*
%TO.P,RF_L3,2,2*%
X155067000Y-104187000D03*
%TD*%
D11*
%TO.P,RF_C11,1*%
%TO.N,N/C*%
X171363000Y-74549000D03*
%TO.P,RF_C11,2*%
X176363000Y-74549000D03*
%TD*%
D13*
%TO.P,RF_D1,1,K*%
%TO.N,N/C*%
X126873000Y-97917000D03*
D12*
%TO.P,RF_D1,2,A*%
X126873000Y-87757000D03*
%TD*%
D13*
%TO.P,RF_D2,1,K*%
%TO.N,N/C*%
X134239000Y-72517000D03*
D12*
%TO.P,RF_D2,2,A*%
X134239000Y-82677000D03*
%TD*%
D11*
%TO.P,RF_C1,1*%
%TO.N,N/C*%
X132207000Y-65913000D03*
%TO.P,RF_C1,2*%
X132207000Y-60913000D03*
%TD*%
D15*
%TO.P,RF_SW1,1,A*%
%TO.N,N/C*%
X150115500Y-68780000D03*
%TO.P,RF_SW1,2,B*%
X145415500Y-68780000D03*
%TO.P,RF_SW1,3,C*%
X140715500Y-68780000D03*
%TO.P,RF_SW1,4*%
X138810500Y-59250000D03*
X152020500Y-59250000D03*
%TD*%
D11*
%TO.P,RF_R10,1*%
%TO.N,N/C*%
X144907000Y-72771000D03*
D12*
%TO.P,RF_R10,2*%
X137287000Y-72771000D03*
%TD*%
D14*
%TO.P,RF_L1,1,1*%
%TO.N,N/C*%
X174117000Y-83145000D03*
%TO.P,RF_L1,2,2*%
X174117000Y-78145000D03*
%TD*%
D11*
%TO.P,RF_C3,1*%
%TO.N,N/C*%
X134747000Y-91099000D03*
%TO.P,RF_C3,2*%
X134747000Y-96099000D03*
%TD*%
%TO.P,RF_R12,1*%
%TO.N,N/C*%
X146685000Y-78867000D03*
D12*
%TO.P,RF_R12,2*%
X139065000Y-78867000D03*
%TD*%
D14*
%TO.P,RF_L2,1,1*%
%TO.N,N/C*%
X164759000Y-87757000D03*
%TO.P,RF_L2,2,2*%
X169759000Y-87757000D03*
%TD*%
D11*
%TO.P,RF_R2,1*%
%TO.N,N/C*%
X131191000Y-87757000D03*
D12*
%TO.P,RF_R2,2*%
X131191000Y-95377000D03*
%TD*%
D16*
%TO.P,RF_U1,1,CHROMA_LEAD*%
%TO.N,N/C*%
X139319000Y-92598000D03*
D17*
%TO.P,RF_U1,2,R-Y*%
X141859000Y-92598000D03*
%TO.P,RF_U1,3,CHROMA_BIAS*%
X144399000Y-92598000D03*
%TO.P,RF_U1,4,B-Y*%
X146939000Y-92598000D03*
%TO.P,RF_U1,5,GND*%
X149479000Y-92598000D03*
%TO.P,RF_U1,6,CHB_TANK1*%
X152019000Y-92598000D03*
%TO.P,RF_U1,7,CHB_TANK2*%
X154559000Y-92598000D03*
%TO.P,RF_U1,8,CHA_TANK1*%
X157099000Y-92598000D03*
%TO.P,RF_U1,9,CHA_TANK2*%
X159639000Y-92598000D03*
%TO.P,RF_U1,10,CHB_OUTPUT*%
X159639000Y-84978000D03*
%TO.P,RF_U1,11,CHA_OUTPUT*%
X157099000Y-84978000D03*
%TO.P,RF_U1,12,VIDEO_IN*%
X154559000Y-84978000D03*
%TO.P,RF_U1,13,CHROMA_SUBCAR*%
X152019000Y-84978000D03*
%TO.P,RF_U1,14,RF_SUPPLY*%
X149479000Y-84978000D03*
%TO.P,RF_U1,15,SOUND_TANK*%
X146939000Y-84978000D03*
%TO.P,RF_U1,16,CHROMA_SUPPLY*%
X144399000Y-84978000D03*
%TO.P,RF_U1,17,CHROMA_OSC*%
X141859000Y-84978000D03*
%TO.P,RF_U1,18,CHROMA_LAG*%
X139319000Y-84978000D03*
%TD*%
D11*
%TO.P,RF_C7,1*%
%TO.N,N/C*%
X149773000Y-81915000D03*
%TO.P,RF_C7,2*%
X154773000Y-81915000D03*
%TD*%
D18*
%TO.P,H17,1,1*%
%TO.N,N/C*%
X121793000Y-72263000D03*
%TD*%
D19*
%TO.P,RF_VL1,1,1*%
%TO.N,N/C*%
X120015000Y-66675000D03*
%TO.P,RF_VL1,2,2*%
X123571000Y-66675000D03*
%TO.P,RF_VL1,3,3*%
X127127000Y-66675000D03*
%TO.P,RF_VL1,4,4*%
X127127000Y-59563000D03*
%TO.P,RF_VL1,6,6*%
X120015000Y-59563000D03*
D20*
%TO.P,RF_VL1,S,S*%
X118491000Y-63119000D03*
X128651000Y-63119000D03*
%TD*%
D11*
%TO.P,RF_C4,1*%
%TO.N,N/C*%
X138771000Y-99187000D03*
%TO.P,RF_C4,2*%
X133771000Y-99187000D03*
%TD*%
%TO.P,RF_R5,1*%
%TO.N,N/C*%
X172339000Y-99695000D03*
D12*
%TO.P,RF_R5,2*%
X164719000Y-99695000D03*
%TD*%
D21*
%TO.P,J4B1,1,Pin_1*%
%TO.N,N/C*%
X121793000Y-76327000D03*
D22*
%TO.P,J4B1,2,Pin_2*%
X121793000Y-78867000D03*
%TO.P,J4B1,3,Pin_3*%
X121793000Y-81407000D03*
%TO.P,J4B1,4,Pin_4*%
X121793000Y-83947000D03*
%TO.P,J4B1,5,Pin_5*%
X121793000Y-86487000D03*
%TO.P,J4B1,6,Pin_6*%
X121793000Y-89027000D03*
%TO.P,J4B1,7,Pin_7*%
X121793000Y-91567000D03*
%TO.P,J4B1,8,Pin_8*%
X121793000Y-94107000D03*
%TD*%
D11*
%TO.P,RF_R7,1*%
%TO.N,N/C*%
X163703000Y-80899000D03*
D12*
%TO.P,RF_R7,2*%
X163703000Y-73279000D03*
%TD*%
D11*
%TO.P,RF_R8,1*%
%TO.N,N/C*%
X159385000Y-80899000D03*
D12*
%TO.P,RF_R8,2*%
X159385000Y-73279000D03*
%TD*%
D23*
%TO.P,RF_J1,S*%
%TO.N,N/C*%
X173101000Y-65339500D03*
D24*
%TO.P,RF_J1,T*%
X173101000Y-69839500D03*
%TD*%
D11*
%TO.P,RF_C8,1*%
%TO.N,N/C*%
X159171000Y-67945000D03*
%TO.P,RF_C8,2*%
X164171000Y-67945000D03*
%TD*%
%TO.P,RF_C9,1*%
%TO.N,N/C*%
X167005000Y-80097000D03*
%TO.P,RF_C9,2*%
X167005000Y-75097000D03*
%TD*%
D18*
%TO.P,H16,1,1*%
%TO.N,N/C*%
X121793000Y-98171000D03*
%TD*%
D11*
%TO.P,RF_R4,1*%
%TO.N,N/C*%
X142367000Y-102997000D03*
D12*
%TO.P,RF_R4,2*%
X142367000Y-95377000D03*
%TD*%
D11*
%TO.P,RF_R1,1*%
%TO.N,N/C*%
X117729000Y-82169000D03*
D12*
%TO.P,RF_R1,2*%
X117729000Y-74549000D03*
%TD*%
D11*
%TO.P,RF_R9,1*%
%TO.N,N/C*%
X156083000Y-67945000D03*
D12*
%TO.P,RF_R9,2*%
X156083000Y-75565000D03*
%TD*%
D25*
%TO.N,*%
X125095000Y-78867000D02*
X121793000Y-78867000D01*
X135509000Y-81407000D02*
X135509000Y-74549000D01*
X135509000Y-81407000D02*
X134239000Y-82677000D01*
X117729000Y-74549000D02*
X117729000Y-74803000D01*
X135509000Y-74549000D02*
X137287000Y-72771000D01*
X130977000Y-82677000D02*
X130937000Y-82637000D01*
X130937000Y-82637000D02*
X128865000Y-82637000D01*
X128865000Y-82637000D02*
X125095000Y-78867000D01*
X134239000Y-82677000D02*
X130977000Y-82677000D01*
X117729000Y-74803000D02*
X121793000Y-78867000D01*
X142367000Y-95377000D02*
X144399000Y-93345000D01*
X125603000Y-86487000D02*
X126873000Y-87757000D01*
X121793000Y-86487000D02*
X125603000Y-86487000D01*
X143116200Y-89268200D02*
X143116200Y-82450200D01*
X135763000Y-92583000D02*
X132969000Y-92583000D01*
X144399000Y-92598000D02*
X144399000Y-90551000D01*
X142367000Y-95377000D02*
X142113000Y-95631000D01*
X139827000Y-81915000D02*
X142581000Y-81915000D01*
X142113000Y-95631000D02*
X138811000Y-95631000D01*
X144399000Y-90551000D02*
X143116200Y-89268200D01*
X132969000Y-92583000D02*
X131953000Y-91567000D01*
X117729000Y-82423000D02*
X117729000Y-82169000D01*
X138811000Y-95631000D02*
X135763000Y-92583000D01*
X121793000Y-86487000D02*
X117729000Y-82423000D01*
X137287000Y-75819000D02*
X137287000Y-79375000D01*
X143116200Y-82450200D02*
X142581000Y-81915000D01*
X131953000Y-91567000D02*
X130683000Y-91567000D01*
X130683000Y-91567000D02*
X126873000Y-87757000D01*
X137287000Y-79375000D02*
X139827000Y-81915000D01*
X144399000Y-93345000D02*
X144399000Y-92598000D01*
X133771000Y-99187000D02*
X133771000Y-97957000D01*
X123063000Y-95377000D02*
X121793000Y-94107000D01*
X131191000Y-95377000D02*
X123063000Y-95377000D01*
X133771000Y-97957000D02*
X131191000Y-95377000D01*
X131445000Y-93599000D02*
X132461000Y-94615000D01*
X135040950Y-94615000D02*
X138088950Y-97663000D01*
X121793000Y-91567000D02*
X123825000Y-93599000D01*
X146939000Y-94361000D02*
X146939000Y-92598000D01*
X143637000Y-97663000D02*
X146939000Y-94361000D01*
X138088950Y-97663000D02*
X143637000Y-97663000D01*
X132461000Y-94615000D02*
X135040950Y-94615000D01*
X123825000Y-93599000D02*
X131445000Y-93599000D01*
X128905000Y-88011000D02*
X128905000Y-84201000D01*
X130175000Y-89281000D02*
X128905000Y-88011000D01*
X140531800Y-89281000D02*
X130175000Y-89281000D01*
X141859000Y-90608200D02*
X141859000Y-92598000D01*
X126111000Y-81407000D02*
X121793000Y-81407000D01*
X128905000Y-84201000D02*
X126111000Y-81407000D01*
X140531800Y-89281000D02*
X141859000Y-90608200D01*
D26*
X123063000Y-85217000D02*
X121793000Y-83947000D01*
X115951000Y-81153000D02*
X115951000Y-82931000D01*
X118237000Y-80391000D02*
X116713000Y-80391000D01*
X126873000Y-97917000D02*
X126873000Y-98171000D01*
X126873000Y-98171000D02*
X122840328Y-102203672D01*
X122840328Y-102203672D02*
X122840328Y-102743000D01*
X118745000Y-85725000D02*
X118745000Y-99187000D01*
X121793000Y-83947000D02*
X118237000Y-80391000D01*
X116713000Y-80391000D02*
X115951000Y-81153000D01*
X115951000Y-82931000D02*
X118745000Y-85725000D01*
X127127000Y-85217000D02*
X123063000Y-85217000D01*
X122301000Y-102743000D02*
X122840328Y-102743000D01*
X118745000Y-99187000D02*
X122301000Y-102743000D01*
X173101000Y-65339500D02*
X174813500Y-65339500D01*
D25*
X161980000Y-84978000D02*
X164759000Y-87757000D01*
X159639000Y-84978000D02*
X161980000Y-84978000D01*
X159385000Y-80899000D02*
X159385000Y-84724000D01*
X159385000Y-84724000D02*
X159639000Y-84978000D01*
X134239000Y-72263000D02*
X135509000Y-70993000D01*
X139065000Y-72009000D02*
X139065000Y-78867000D01*
X126873000Y-72517000D02*
X121031000Y-66675000D01*
X142113000Y-78867000D02*
X139065000Y-78867000D01*
X135509000Y-70993000D02*
X138049000Y-70993000D01*
X138049000Y-70993000D02*
X139065000Y-72009000D01*
X146939000Y-84978000D02*
X146939000Y-83693000D01*
X121031000Y-66675000D02*
X120015000Y-66675000D01*
X134239000Y-72517000D02*
X134239000Y-72263000D01*
X134239000Y-72517000D02*
X126873000Y-72517000D01*
X146939000Y-83693000D02*
X142113000Y-78867000D01*
X161417000Y-93559000D02*
X161417000Y-89027000D01*
X152781000Y-73025000D02*
X150115500Y-70359500D01*
X161417000Y-89027000D02*
X158381800Y-85991800D01*
X150115500Y-70359500D02*
X150115500Y-68780000D01*
X158127800Y-82689800D02*
X158127800Y-74561800D01*
X158127800Y-74561800D02*
X156591000Y-73025000D01*
X157059000Y-95631000D02*
X159345000Y-95631000D01*
X159345000Y-95631000D02*
X161417000Y-93559000D01*
X158381800Y-82943800D02*
X158127800Y-82689800D01*
X138064000Y-92598000D02*
X136565000Y-91099000D01*
X136565000Y-91099000D02*
X134747000Y-91099000D01*
X139319000Y-92598000D02*
X138064000Y-92598000D01*
D26*
X156083000Y-67945000D02*
X159171000Y-67945000D01*
X149479000Y-84201000D02*
X149479000Y-84978000D01*
X172339000Y-99695000D02*
X172339000Y-103429000D01*
X144907000Y-72771000D02*
X141340805Y-72771000D01*
X167259000Y-94615000D02*
X172339000Y-99695000D01*
X167259000Y-86741000D02*
X167259000Y-94615000D01*
X127127000Y-66675000D02*
X131445000Y-66675000D01*
X145762000Y-87757000D02*
X147955000Y-87757000D01*
X127127000Y-69977000D02*
X127127000Y-66675000D01*
X159385000Y-78105000D02*
X159385000Y-73279000D01*
X144399000Y-84978000D02*
X144399000Y-86394000D01*
X161163000Y-79883000D02*
X159385000Y-78105000D01*
X167259000Y-86741000D02*
X161163000Y-80645000D01*
X134482805Y-65913000D02*
X132207000Y-65913000D01*
X154051000Y-65913000D02*
X156083000Y-67945000D01*
X144907000Y-72771000D02*
X142621000Y-75057000D01*
X156083000Y-69977000D02*
X159385000Y-73279000D01*
X149479000Y-86233000D02*
X149479000Y-84978000D01*
X161163000Y-80645000D02*
X161163000Y-79883000D01*
X132207000Y-65913000D02*
X154051000Y-65913000D01*
X172339000Y-103429000D02*
X172263000Y-103505000D01*
X144399000Y-86394000D02*
X145762000Y-87757000D01*
X142621000Y-77343000D02*
X149479000Y-84201000D01*
X147955000Y-87757000D02*
X149479000Y-86233000D01*
X141340805Y-72771000D02*
X134482805Y-65913000D01*
X131445000Y-66675000D02*
X132207000Y-65913000D01*
X142621000Y-75057000D02*
X142621000Y-77343000D01*
X156083000Y-67945000D02*
X156083000Y-69977000D01*
D25*
X138417200Y-96634200D02*
X143141800Y-96634200D01*
X135382000Y-93599000D02*
X138417200Y-96634200D01*
X143141800Y-96634200D02*
X145681800Y-94094200D01*
X132715000Y-93599000D02*
X135382000Y-93599000D01*
X145681800Y-94094200D02*
X145681800Y-91677251D01*
X145681800Y-91677251D02*
X152019000Y-85340051D01*
X125349000Y-92583000D02*
X131699000Y-92583000D01*
X121793000Y-89027000D02*
X125349000Y-92583000D01*
X131699000Y-92583000D02*
X132715000Y-93599000D01*
X152019000Y-85340051D02*
X152019000Y-84978000D01*
X158381800Y-85991800D02*
X158381800Y-82943800D01*
X156591000Y-73025000D02*
X152781000Y-73025000D01*
X171363000Y-74549000D02*
X171363000Y-71577500D01*
X174117000Y-77303000D02*
X174117000Y-78145000D01*
X171363000Y-74549000D02*
X174117000Y-77303000D01*
X171363000Y-71577500D02*
X173101000Y-69839500D01*
X169759000Y-87757000D02*
X173529000Y-91527000D01*
X173529000Y-91527000D02*
X173863000Y-91527000D01*
X174117000Y-83145000D02*
X170053000Y-83145000D01*
X173863000Y-83399000D02*
X174117000Y-83145000D01*
X173863000Y-86527000D02*
X173863000Y-83399000D01*
X170053000Y-83145000D02*
X167005000Y-80097000D01*
X163703000Y-80899000D02*
X166203000Y-80899000D01*
X166203000Y-80899000D02*
X167005000Y-80097000D01*
X154519000Y-84938000D02*
X154559000Y-84978000D01*
X155829000Y-75819000D02*
X156083000Y-75565000D01*
X156083000Y-80605000D02*
X154519000Y-82169000D01*
X156083000Y-75565000D02*
X156083000Y-80605000D01*
X154519000Y-82169000D02*
X154519000Y-84938000D01*
X144907000Y-75819000D02*
X155829000Y-75819000D01*
X146685000Y-79081000D02*
X146685000Y-78867000D01*
X149519000Y-81915000D02*
X146685000Y-79081000D01*
X155535000Y-103719000D02*
X155067000Y-104187000D01*
X161631000Y-103505000D02*
X161417000Y-103719000D01*
X152059000Y-92638000D02*
X152019000Y-92598000D01*
X161417000Y-103719000D02*
X155535000Y-103719000D01*
X152059000Y-95631000D02*
X152059000Y-92638000D01*
X152059000Y-101179000D02*
X152059000Y-95631000D01*
X164719000Y-103505000D02*
X161631000Y-103505000D01*
X155067000Y-104187000D02*
X152059000Y-101179000D01*
X155829000Y-87757000D02*
X155829000Y-82636950D01*
X157353000Y-75057050D02*
X156336950Y-74041000D01*
X145415500Y-70485500D02*
X145415500Y-68780000D01*
X154559000Y-89027000D02*
X155829000Y-87757000D01*
X155067000Y-99187000D02*
X155067000Y-93106000D01*
X155067000Y-93106000D02*
X154559000Y-92598000D01*
X161203000Y-98933000D02*
X161417000Y-98719000D01*
X155829000Y-82636950D02*
X157353000Y-81112950D01*
X157353000Y-81112950D02*
X157353000Y-75057050D01*
X154559000Y-92598000D02*
X154559000Y-89027000D01*
X163743000Y-98719000D02*
X164719000Y-99695000D01*
X156336950Y-74041000D02*
X148971000Y-74041000D01*
X148971000Y-74041000D02*
X145415500Y-70485500D01*
X161417000Y-98719000D02*
X163743000Y-98719000D01*
X155321000Y-98933000D02*
X161203000Y-98933000D01*
X155067000Y-99187000D02*
X155321000Y-98933000D01*
X139319000Y-84978000D02*
X139319000Y-83653000D01*
X139319000Y-83653000D02*
X137581000Y-81915000D01*
X135255000Y-87757000D02*
X138034000Y-84978000D01*
X138034000Y-84978000D02*
X139319000Y-84978000D01*
X131191000Y-87757000D02*
X135255000Y-87757000D01*
X137835000Y-99187000D02*
X134747000Y-96099000D01*
X138771000Y-99187000D02*
X138771000Y-102195000D01*
X138771000Y-99187000D02*
X137835000Y-99187000D01*
X138771000Y-102195000D02*
X139319000Y-102743000D01*
%TD*%
%TA.AperFunction,NonConductor*%
G36*
X137629208Y-57551502D02*
G01*
X137675701Y-57605158D01*
X137685805Y-57675432D01*
X137656311Y-57740012D01*
X137634345Y-57760015D01*
X137602478Y-57782787D01*
X137602474Y-57782790D01*
X137598857Y-57785375D01*
X137404577Y-57970709D01*
X137238350Y-58181568D01*
X137103491Y-58413745D01*
X137101823Y-58417862D01*
X137101820Y-58417869D01*
X137004365Y-58658474D01*
X137002691Y-58662607D01*
X136937962Y-58923190D01*
X136910595Y-59190293D01*
X136910770Y-59194745D01*
X136915405Y-59312707D01*
X136921136Y-59458588D01*
X136923131Y-59469510D01*
X136958459Y-59662947D01*
X136969375Y-59722720D01*
X137054350Y-59977421D01*
X137100336Y-60069453D01*
X137156583Y-60182020D01*
X137174365Y-60217608D01*
X137327024Y-60438488D01*
X137331195Y-60443000D01*
X137503126Y-60628994D01*
X137509283Y-60635655D01*
X137512737Y-60638467D01*
X137714048Y-60802360D01*
X137714052Y-60802363D01*
X137717505Y-60805174D01*
X137947535Y-60943664D01*
X138194784Y-61048360D01*
X138199077Y-61049498D01*
X138199082Y-61049500D01*
X138327097Y-61083442D01*
X138454318Y-61117174D01*
X138720958Y-61148733D01*
X138989385Y-61142407D01*
X138993779Y-61141676D01*
X138993786Y-61141675D01*
X139249841Y-61099056D01*
X139249845Y-61099055D01*
X139254243Y-61098323D01*
X139510247Y-61017359D01*
X139514258Y-61015433D01*
X139514263Y-61015431D01*
X139748270Y-60903062D01*
X139748271Y-60903061D01*
X139752289Y-60901132D01*
X139759419Y-60896368D01*
X139971832Y-60754439D01*
X139971836Y-60754436D01*
X139975540Y-60751961D01*
X140175545Y-60572821D01*
X140348314Y-60367287D01*
X140412059Y-60265077D01*
X140488042Y-60143242D01*
X140488042Y-60143241D01*
X140490400Y-60139461D01*
X140598967Y-59893888D01*
X140671849Y-59635467D01*
X140673088Y-59626240D01*
X140707165Y-59372537D01*
X140707166Y-59372529D01*
X140707592Y-59369355D01*
X140709690Y-59302588D01*
X140711242Y-59253222D01*
X140711242Y-59253217D01*
X140711343Y-59250000D01*
X140692380Y-58982169D01*
X140688583Y-58964530D01*
X140636804Y-58724029D01*
X140636804Y-58724027D01*
X140635868Y-58719682D01*
X140542935Y-58467776D01*
X140510206Y-58407118D01*
X140417548Y-58235393D01*
X140415435Y-58231477D01*
X140255912Y-58015501D01*
X140067550Y-57824157D01*
X140064010Y-57821456D01*
X140064004Y-57821450D01*
X139980422Y-57757663D01*
X139938405Y-57700435D01*
X139933997Y-57629575D01*
X139968599Y-57567581D01*
X140031225Y-57534136D01*
X140056864Y-57531500D01*
X150771087Y-57531500D01*
X150839208Y-57551502D01*
X150885701Y-57605158D01*
X150895805Y-57675432D01*
X150866311Y-57740012D01*
X150844345Y-57760015D01*
X150812478Y-57782787D01*
X150812474Y-57782790D01*
X150808857Y-57785375D01*
X150614577Y-57970709D01*
X150448350Y-58181568D01*
X150313491Y-58413745D01*
X150311823Y-58417862D01*
X150311820Y-58417869D01*
X150214365Y-58658474D01*
X150212691Y-58662607D01*
X150147962Y-58923190D01*
X150120595Y-59190293D01*
X150120770Y-59194745D01*
X150125405Y-59312707D01*
X150131136Y-59458588D01*
X150133131Y-59469510D01*
X150168459Y-59662947D01*
X150179375Y-59722720D01*
X150264350Y-59977421D01*
X150310336Y-60069453D01*
X150366583Y-60182020D01*
X150384365Y-60217608D01*
X150537024Y-60438488D01*
X150541195Y-60443000D01*
X150713126Y-60628994D01*
X150719283Y-60635655D01*
X150722737Y-60638467D01*
X150924048Y-60802360D01*
X150924052Y-60802363D01*
X150927505Y-60805174D01*
X151157535Y-60943664D01*
X151404784Y-61048360D01*
X151409077Y-61049498D01*
X151409082Y-61049500D01*
X151537097Y-61083442D01*
X151664318Y-61117174D01*
X151930958Y-61148733D01*
X152199385Y-61142407D01*
X152203779Y-61141676D01*
X152203786Y-61141675D01*
X152459841Y-61099056D01*
X152459845Y-61099055D01*
X152464243Y-61098323D01*
X152720247Y-61017359D01*
X152724258Y-61015433D01*
X152724263Y-61015431D01*
X152958270Y-60903062D01*
X152958271Y-60903061D01*
X152962289Y-60901132D01*
X152969419Y-60896368D01*
X153181832Y-60754439D01*
X153181836Y-60754436D01*
X153185540Y-60751961D01*
X153385545Y-60572821D01*
X153558314Y-60367287D01*
X153622059Y-60265077D01*
X153698042Y-60143242D01*
X153698042Y-60143241D01*
X153700400Y-60139461D01*
X153808967Y-59893888D01*
X153881849Y-59635467D01*
X153883088Y-59626240D01*
X153917165Y-59372537D01*
X153917166Y-59372529D01*
X153917592Y-59369355D01*
X153919690Y-59302588D01*
X153921242Y-59253222D01*
X153921242Y-59253217D01*
X153921343Y-59250000D01*
X153902380Y-58982169D01*
X153898583Y-58964530D01*
X153846804Y-58724029D01*
X153846804Y-58724027D01*
X153845868Y-58719682D01*
X153752935Y-58467776D01*
X153720206Y-58407118D01*
X153627548Y-58235393D01*
X153625435Y-58231477D01*
X153465912Y-58015501D01*
X153277550Y-57824157D01*
X153274010Y-57821456D01*
X153274004Y-57821450D01*
X153190422Y-57757663D01*
X153148405Y-57700435D01*
X153143997Y-57629575D01*
X153178599Y-57567581D01*
X153241225Y-57534136D01*
X153266864Y-57531500D01*
X179442182Y-57531500D01*
X179510303Y-57551502D01*
X179531278Y-57568405D01*
X179667596Y-57704724D01*
X179701621Y-57767036D01*
X179704500Y-57793819D01*
X179704500Y-106290181D01*
X179684498Y-106358302D01*
X179667596Y-106379276D01*
X179531278Y-106515595D01*
X179468966Y-106549620D01*
X179442182Y-106552500D01*
X111895819Y-106552500D01*
X111827698Y-106532498D01*
X111806724Y-106515596D01*
X111670405Y-106379278D01*
X111636380Y-106316966D01*
X111633500Y-106290182D01*
X111633500Y-81149435D01*
X114929588Y-81149435D01*
X114933941Y-81195485D01*
X114934500Y-81207343D01*
X114934500Y-82868724D01*
X114933763Y-82882332D01*
X114930714Y-82910402D01*
X114929638Y-82920304D01*
X114932575Y-82953870D01*
X114934046Y-82970690D01*
X114934375Y-82975518D01*
X114934500Y-82978073D01*
X114934500Y-82981157D01*
X114934801Y-82984224D01*
X114938722Y-83024219D01*
X114938844Y-83025532D01*
X114941206Y-83052523D01*
X114947012Y-83118892D01*
X114948511Y-83124052D01*
X114949035Y-83129394D01*
X114974802Y-83214737D01*
X114976098Y-83219031D01*
X114976455Y-83220236D01*
X115002628Y-83310322D01*
X115005100Y-83315090D01*
X115006652Y-83320232D01*
X115009547Y-83325677D01*
X115009550Y-83325684D01*
X115050633Y-83402950D01*
X115051213Y-83404054D01*
X115094366Y-83487304D01*
X115097718Y-83491503D01*
X115100239Y-83496244D01*
X115104131Y-83501016D01*
X115159438Y-83568829D01*
X115160266Y-83569855D01*
X115178681Y-83592922D01*
X115191768Y-83609316D01*
X115194263Y-83611811D01*
X115194973Y-83612605D01*
X115198693Y-83616960D01*
X115222337Y-83645951D01*
X115222340Y-83645954D01*
X115226232Y-83650726D01*
X115230980Y-83654654D01*
X115230981Y-83654655D01*
X115261873Y-83680211D01*
X115270652Y-83688200D01*
X117691595Y-86109143D01*
X117725621Y-86171455D01*
X117728500Y-86198238D01*
X117728500Y-99124724D01*
X117727763Y-99138332D01*
X117723638Y-99176304D01*
X117724175Y-99182439D01*
X117728046Y-99226690D01*
X117728375Y-99231518D01*
X117728500Y-99234073D01*
X117728500Y-99237157D01*
X117728801Y-99240224D01*
X117732722Y-99280219D01*
X117732844Y-99281532D01*
X117741012Y-99374892D01*
X117742511Y-99380052D01*
X117743035Y-99385394D01*
X117769302Y-99472393D01*
X117770098Y-99475031D01*
X117770455Y-99476236D01*
X117796628Y-99566322D01*
X117799100Y-99571090D01*
X117800652Y-99576232D01*
X117803547Y-99581677D01*
X117803550Y-99581684D01*
X117844633Y-99658950D01*
X117845213Y-99660054D01*
X117888366Y-99743304D01*
X117891718Y-99747503D01*
X117894239Y-99752244D01*
X117898131Y-99757016D01*
X117953438Y-99824829D01*
X117954266Y-99825855D01*
X117980605Y-99858849D01*
X117985768Y-99865316D01*
X117988263Y-99867811D01*
X117988973Y-99868605D01*
X117992693Y-99872960D01*
X118016337Y-99901951D01*
X118016340Y-99901954D01*
X118020232Y-99906726D01*
X118024980Y-99910654D01*
X118024981Y-99910655D01*
X118055873Y-99936211D01*
X118064652Y-99944200D01*
X121494923Y-103374471D01*
X121528949Y-103436783D01*
X121531828Y-103463566D01*
X121531828Y-103591134D01*
X121538583Y-103653316D01*
X121589713Y-103789705D01*
X121677067Y-103906261D01*
X121793623Y-103993615D01*
X121930012Y-104044745D01*
X121992194Y-104051500D01*
X123688462Y-104051500D01*
X123750644Y-104044745D01*
X123887033Y-103993615D01*
X124003589Y-103906261D01*
X124090943Y-103789705D01*
X124142073Y-103653316D01*
X124148828Y-103591134D01*
X124148828Y-102384910D01*
X124168830Y-102316789D01*
X124185733Y-102295815D01*
X127219143Y-99262405D01*
X127281455Y-99228379D01*
X127308238Y-99225500D01*
X127721134Y-99225500D01*
X127783316Y-99218745D01*
X127919705Y-99167615D01*
X128036261Y-99080261D01*
X128123615Y-98963705D01*
X128174745Y-98827316D01*
X128181500Y-98765134D01*
X128181500Y-97068866D01*
X128174745Y-97006684D01*
X128123615Y-96870295D01*
X128036261Y-96753739D01*
X127919705Y-96666385D01*
X127783316Y-96615255D01*
X127721134Y-96608500D01*
X126024866Y-96608500D01*
X125962684Y-96615255D01*
X125826295Y-96666385D01*
X125709739Y-96753739D01*
X125622385Y-96870295D01*
X125571255Y-97006684D01*
X125564500Y-97068866D01*
X125564500Y-97989761D01*
X125544498Y-98057882D01*
X125527595Y-98078856D01*
X123934796Y-99671656D01*
X122390095Y-101216357D01*
X122327783Y-101250383D01*
X122256968Y-101245318D01*
X122211905Y-101216357D01*
X119798405Y-98802857D01*
X119764379Y-98740545D01*
X119761500Y-98713762D01*
X119761500Y-85787276D01*
X119762237Y-85773668D01*
X119765697Y-85741821D01*
X119765697Y-85741817D01*
X119766362Y-85735696D01*
X119765825Y-85729557D01*
X119763871Y-85707215D01*
X119777861Y-85637611D01*
X119827262Y-85586619D01*
X119896388Y-85570430D01*
X119963293Y-85594184D01*
X119978487Y-85607141D01*
X120434364Y-86063018D01*
X120468390Y-86125330D01*
X120466686Y-86185785D01*
X120455370Y-86226588D01*
X120455369Y-86226596D01*
X120453989Y-86231570D01*
X120453441Y-86236700D01*
X120453440Y-86236704D01*
X120445006Y-86315631D01*
X120430251Y-86453695D01*
X120430548Y-86458848D01*
X120430548Y-86458851D01*
X120442730Y-86670118D01*
X120443110Y-86676715D01*
X120444247Y-86681761D01*
X120444248Y-86681767D01*
X120459537Y-86749607D01*
X120492222Y-86894639D01*
X120576266Y-87101616D01*
X120610037Y-87156726D01*
X120650284Y-87222402D01*
X120692987Y-87292088D01*
X120839250Y-87460938D01*
X121011126Y-87603632D01*
X121081595Y-87644811D01*
X121084445Y-87646476D01*
X121133169Y-87698114D01*
X121146240Y-87767897D01*
X121119509Y-87833669D01*
X121079055Y-87867027D01*
X121066607Y-87873507D01*
X121062474Y-87876610D01*
X121062471Y-87876612D01*
X120921303Y-87982604D01*
X120887965Y-88007635D01*
X120733629Y-88169138D01*
X120730715Y-88173410D01*
X120730714Y-88173411D01*
X120677982Y-88250713D01*
X120607743Y-88353680D01*
X120571512Y-88431733D01*
X120536412Y-88507351D01*
X120513688Y-88556305D01*
X120453989Y-88771570D01*
X120430251Y-88993695D01*
X120430548Y-88998848D01*
X120430548Y-88998851D01*
X120438459Y-89136050D01*
X120443110Y-89216715D01*
X120444247Y-89221761D01*
X120444248Y-89221767D01*
X120449535Y-89245225D01*
X120492222Y-89434639D01*
X120576266Y-89641616D01*
X120692987Y-89832088D01*
X120839250Y-90000938D01*
X121011126Y-90143632D01*
X121047685Y-90164995D01*
X121084445Y-90186476D01*
X121133169Y-90238114D01*
X121146240Y-90307897D01*
X121119509Y-90373669D01*
X121079055Y-90407027D01*
X121066607Y-90413507D01*
X121062474Y-90416610D01*
X121062471Y-90416612D01*
X120912069Y-90529537D01*
X120887965Y-90547635D01*
X120733629Y-90709138D01*
X120607743Y-90893680D01*
X120578117Y-90957505D01*
X120522298Y-91077757D01*
X120513688Y-91096305D01*
X120453989Y-91311570D01*
X120430251Y-91533695D01*
X120430548Y-91538848D01*
X120430548Y-91538851D01*
X120436202Y-91636908D01*
X120443110Y-91756715D01*
X120444247Y-91761761D01*
X120444248Y-91761767D01*
X120455804Y-91813042D01*
X120492222Y-91974639D01*
X120540678Y-92093973D01*
X120557322Y-92134961D01*
X120576266Y-92181616D01*
X120578965Y-92186020D01*
X120689740Y-92366789D01*
X120692987Y-92372088D01*
X120839250Y-92540938D01*
X121011126Y-92683632D01*
X121078505Y-92723005D01*
X121084445Y-92726476D01*
X121133169Y-92778114D01*
X121146240Y-92847897D01*
X121119509Y-92913669D01*
X121079055Y-92947027D01*
X121066607Y-92953507D01*
X121062474Y-92956610D01*
X121062471Y-92956612D01*
X120892100Y-93084530D01*
X120887965Y-93087635D01*
X120884393Y-93091373D01*
X120743996Y-93238290D01*
X120733629Y-93249138D01*
X120607743Y-93433680D01*
X120599135Y-93452225D01*
X120519290Y-93624237D01*
X120513688Y-93636305D01*
X120453989Y-93851570D01*
X120430251Y-94073695D01*
X120430548Y-94078842D01*
X120430548Y-94078851D01*
X120436131Y-94175669D01*
X120443110Y-94296715D01*
X120444247Y-94301761D01*
X120444248Y-94301767D01*
X120466391Y-94400019D01*
X120492222Y-94514639D01*
X120576266Y-94721616D01*
X120578965Y-94726020D01*
X120683956Y-94897350D01*
X120692987Y-94912088D01*
X120839250Y-95080938D01*
X121011126Y-95223632D01*
X121204000Y-95336338D01*
X121208825Y-95338180D01*
X121208826Y-95338181D01*
X121276992Y-95364211D01*
X121412692Y-95416030D01*
X121417760Y-95417061D01*
X121417763Y-95417062D01*
X121507834Y-95435387D01*
X121631597Y-95460567D01*
X121636772Y-95460757D01*
X121636774Y-95460757D01*
X121849673Y-95468564D01*
X121849677Y-95468564D01*
X121854837Y-95468753D01*
X121859957Y-95468097D01*
X121859959Y-95468097D01*
X121929153Y-95459233D01*
X122076416Y-95440368D01*
X122081369Y-95438882D01*
X122081374Y-95438881D01*
X122093019Y-95435387D01*
X122164014Y-95434969D01*
X122218323Y-95466977D01*
X122576393Y-95825047D01*
X122582246Y-95831312D01*
X122617524Y-95871752D01*
X122623742Y-95876122D01*
X122666084Y-95905880D01*
X122671380Y-95909813D01*
X122718121Y-95946463D01*
X122725045Y-95949589D01*
X122731176Y-95953302D01*
X122735796Y-95955938D01*
X122742178Y-95959360D01*
X122748397Y-95963731D01*
X122755476Y-95966491D01*
X122803713Y-95985298D01*
X122809792Y-95987854D01*
X122863912Y-96012289D01*
X122871388Y-96013675D01*
X122878266Y-96015830D01*
X122883391Y-96017290D01*
X122890355Y-96019078D01*
X122897434Y-96021838D01*
X122904966Y-96022830D01*
X122904968Y-96022830D01*
X122930196Y-96026151D01*
X122956300Y-96029587D01*
X122962798Y-96030616D01*
X123021197Y-96041440D01*
X123028777Y-96041003D01*
X123028778Y-96041003D01*
X123078967Y-96038109D01*
X123086220Y-96037900D01*
X129990792Y-96037900D01*
X130058913Y-96057902D01*
X130094005Y-96091629D01*
X130181643Y-96216789D01*
X130184802Y-96221300D01*
X130346700Y-96383198D01*
X130351208Y-96386355D01*
X130351211Y-96386357D01*
X130354760Y-96388842D01*
X130534251Y-96514523D01*
X130539233Y-96516846D01*
X130539238Y-96516849D01*
X130736578Y-96608869D01*
X130741757Y-96611284D01*
X130747065Y-96612706D01*
X130747067Y-96612707D01*
X130957598Y-96669119D01*
X130957600Y-96669119D01*
X130962913Y-96670543D01*
X131191000Y-96690498D01*
X131419087Y-96670543D01*
X131424398Y-96669120D01*
X131424409Y-96669118D01*
X131451980Y-96661730D01*
X131522956Y-96663419D01*
X131573687Y-96694341D01*
X132904329Y-98024983D01*
X132938355Y-98087295D01*
X132933290Y-98158110D01*
X132904329Y-98203173D01*
X132764802Y-98342700D01*
X132761645Y-98347208D01*
X132761643Y-98347211D01*
X132729305Y-98393395D01*
X132633477Y-98530251D01*
X132631154Y-98535233D01*
X132631151Y-98535238D01*
X132595569Y-98611545D01*
X132536716Y-98737757D01*
X132535294Y-98743065D01*
X132535293Y-98743067D01*
X132510736Y-98834715D01*
X132477457Y-98958913D01*
X132457502Y-99187000D01*
X132477457Y-99415087D01*
X132478881Y-99420400D01*
X132478881Y-99420402D01*
X132517981Y-99566322D01*
X132536716Y-99636243D01*
X132539039Y-99641224D01*
X132539039Y-99641225D01*
X132631151Y-99838762D01*
X132631154Y-99838767D01*
X132633477Y-99843749D01*
X132674231Y-99901951D01*
X132752004Y-100013022D01*
X132764802Y-100031300D01*
X132926700Y-100193198D01*
X132931208Y-100196355D01*
X132931211Y-100196357D01*
X133009389Y-100251098D01*
X133114251Y-100324523D01*
X133119233Y-100326846D01*
X133119238Y-100326849D01*
X133233428Y-100380096D01*
X133321757Y-100421284D01*
X133327065Y-100422706D01*
X133327067Y-100422707D01*
X133537598Y-100479119D01*
X133537600Y-100479119D01*
X133542913Y-100480543D01*
X133771000Y-100500498D01*
X133999087Y-100480543D01*
X134004400Y-100479119D01*
X134004402Y-100479119D01*
X134214933Y-100422707D01*
X134214935Y-100422706D01*
X134220243Y-100421284D01*
X134308572Y-100380096D01*
X134422762Y-100326849D01*
X134422767Y-100326846D01*
X134427749Y-100324523D01*
X134532611Y-100251098D01*
X134610789Y-100196357D01*
X134610792Y-100196355D01*
X134615300Y-100193198D01*
X134777198Y-100031300D01*
X134789997Y-100013022D01*
X134867769Y-99901951D01*
X134908523Y-99843749D01*
X134910846Y-99838767D01*
X134910849Y-99838762D01*
X135002961Y-99641225D01*
X135002961Y-99641224D01*
X135005284Y-99636243D01*
X135024020Y-99566322D01*
X135063119Y-99420402D01*
X135063119Y-99420400D01*
X135064543Y-99415087D01*
X135084498Y-99187000D01*
X135064543Y-98958913D01*
X135031264Y-98834715D01*
X135006707Y-98743067D01*
X135006706Y-98743065D01*
X135005284Y-98737757D01*
X134946431Y-98611545D01*
X134910849Y-98535238D01*
X134910846Y-98535233D01*
X134908523Y-98530251D01*
X134812695Y-98393395D01*
X134780357Y-98347211D01*
X134780355Y-98347208D01*
X134777198Y-98342700D01*
X134615300Y-98180802D01*
X134610792Y-98177645D01*
X134610789Y-98177643D01*
X134485629Y-98090005D01*
X134441301Y-98034548D01*
X134431900Y-97986792D01*
X134431900Y-97984263D01*
X134432192Y-97975692D01*
X134433359Y-97958569D01*
X134435842Y-97922157D01*
X134425631Y-97863653D01*
X134424669Y-97857131D01*
X134418450Y-97805738D01*
X134418450Y-97805736D01*
X134417537Y-97798195D01*
X134414851Y-97791087D01*
X134413140Y-97784121D01*
X134411721Y-97778932D01*
X134409644Y-97772053D01*
X134408339Y-97764576D01*
X134384471Y-97710205D01*
X134381986Y-97704114D01*
X134363679Y-97655664D01*
X134363678Y-97655662D01*
X134360994Y-97648559D01*
X134356691Y-97642298D01*
X134353385Y-97635974D01*
X134350729Y-97631202D01*
X134347094Y-97625056D01*
X134344042Y-97618104D01*
X134307898Y-97570999D01*
X134304037Y-97565686D01*
X134303139Y-97564380D01*
X134281025Y-97496916D01*
X134298896Y-97428205D01*
X134351077Y-97380063D01*
X134421002Y-97367775D01*
X134439576Y-97371285D01*
X134513591Y-97391118D01*
X134513602Y-97391120D01*
X134518913Y-97392543D01*
X134747000Y-97412498D01*
X134975087Y-97392543D01*
X134980398Y-97391120D01*
X134980409Y-97391118D01*
X135007980Y-97383730D01*
X135078956Y-97385419D01*
X135129687Y-97416341D01*
X137348393Y-99635047D01*
X137354246Y-99641312D01*
X137389524Y-99681752D01*
X137395735Y-99686117D01*
X137395738Y-99686120D01*
X137438107Y-99715897D01*
X137443402Y-99719830D01*
X137490121Y-99756462D01*
X137497046Y-99759589D01*
X137503223Y-99763330D01*
X137507802Y-99765942D01*
X137514180Y-99769362D01*
X137520397Y-99773731D01*
X137573648Y-99794492D01*
X137629848Y-99837873D01*
X137633006Y-99842738D01*
X137633477Y-99843749D01*
X137636005Y-99847359D01*
X137636008Y-99847364D01*
X137752004Y-100013022D01*
X137764802Y-100031300D01*
X137926700Y-100193198D01*
X137931208Y-100196355D01*
X137931211Y-100196357D01*
X138056371Y-100283995D01*
X138100699Y-100339452D01*
X138110100Y-100387208D01*
X138110100Y-102167737D01*
X138109808Y-102176309D01*
X138106322Y-102227434D01*
X138094809Y-102272111D01*
X138087041Y-102288770D01*
X138084716Y-102293757D01*
X138083294Y-102299065D01*
X138083293Y-102299067D01*
X138026881Y-102509598D01*
X138025457Y-102514913D01*
X138005502Y-102743000D01*
X138025457Y-102971087D01*
X138084716Y-103192243D01*
X138087039Y-103197224D01*
X138087039Y-103197225D01*
X138179151Y-103394762D01*
X138179154Y-103394767D01*
X138181477Y-103399749D01*
X138228054Y-103466268D01*
X138280926Y-103541776D01*
X138312802Y-103587300D01*
X138474700Y-103749198D01*
X138479208Y-103752355D01*
X138479211Y-103752357D01*
X138520542Y-103781297D01*
X138662251Y-103880523D01*
X138667233Y-103882846D01*
X138667238Y-103882849D01*
X138820345Y-103954243D01*
X138869757Y-103977284D01*
X138875065Y-103978706D01*
X138875067Y-103978707D01*
X139085598Y-104035119D01*
X139085600Y-104035119D01*
X139090913Y-104036543D01*
X139319000Y-104056498D01*
X139547087Y-104036543D01*
X139552400Y-104035119D01*
X139552402Y-104035119D01*
X139762933Y-103978707D01*
X139762935Y-103978706D01*
X139768243Y-103977284D01*
X139817655Y-103954243D01*
X139970762Y-103882849D01*
X139970767Y-103882846D01*
X139975749Y-103880523D01*
X140117458Y-103781297D01*
X140158789Y-103752357D01*
X140158792Y-103752355D01*
X140163300Y-103749198D01*
X140325198Y-103587300D01*
X140357075Y-103541776D01*
X140409946Y-103466268D01*
X140456523Y-103399749D01*
X140458846Y-103394767D01*
X140458849Y-103394762D01*
X140550961Y-103197225D01*
X140550961Y-103197224D01*
X140553284Y-103192243D01*
X140612543Y-102971087D01*
X140632498Y-102743000D01*
X140612543Y-102514913D01*
X140611119Y-102509598D01*
X140554707Y-102299067D01*
X140554706Y-102299065D01*
X140553284Y-102293757D01*
X140543623Y-102273039D01*
X140458849Y-102091238D01*
X140458846Y-102091233D01*
X140456523Y-102086251D01*
X140325198Y-101898700D01*
X140163300Y-101736802D01*
X140158792Y-101733645D01*
X140158789Y-101733643D01*
X140050428Y-101657768D01*
X139975749Y-101605477D01*
X139970767Y-101603154D01*
X139970762Y-101603151D01*
X139773225Y-101511039D01*
X139773224Y-101511039D01*
X139768243Y-101508716D01*
X139762935Y-101507294D01*
X139762933Y-101507293D01*
X139662328Y-101480336D01*
X139547087Y-101449457D01*
X139541598Y-101448977D01*
X139536194Y-101448024D01*
X139536646Y-101445458D01*
X139480675Y-101423482D01*
X139439108Y-101365926D01*
X139431900Y-101323922D01*
X139431900Y-100387208D01*
X139451902Y-100319087D01*
X139485629Y-100283995D01*
X139610789Y-100196357D01*
X139610792Y-100196355D01*
X139615300Y-100193198D01*
X139777198Y-100031300D01*
X139789997Y-100013022D01*
X139867769Y-99901951D01*
X139908523Y-99843749D01*
X139910846Y-99838767D01*
X139910849Y-99838762D01*
X140002961Y-99641225D01*
X140002961Y-99641224D01*
X140005284Y-99636243D01*
X140024020Y-99566322D01*
X140063119Y-99420402D01*
X140063119Y-99420400D01*
X140064543Y-99415087D01*
X140084498Y-99187000D01*
X140064543Y-98958913D01*
X140031264Y-98834715D01*
X140006707Y-98743067D01*
X140006706Y-98743065D01*
X140005284Y-98737757D01*
X139946431Y-98611545D01*
X139910849Y-98535238D01*
X139910846Y-98535233D01*
X139908523Y-98530251D01*
X139902867Y-98522173D01*
X139880177Y-98454900D01*
X139897460Y-98386039D01*
X139949229Y-98337454D01*
X140006078Y-98323900D01*
X143609737Y-98323900D01*
X143618308Y-98324192D01*
X143671843Y-98327842D01*
X143679320Y-98326537D01*
X143679321Y-98326537D01*
X143704626Y-98322121D01*
X143730347Y-98317631D01*
X143736865Y-98316670D01*
X143755223Y-98314448D01*
X143788262Y-98310450D01*
X143788264Y-98310450D01*
X143795805Y-98309537D01*
X143802913Y-98306851D01*
X143809879Y-98305140D01*
X143815068Y-98303721D01*
X143821947Y-98301644D01*
X143829424Y-98300339D01*
X143883795Y-98276471D01*
X143889886Y-98273986D01*
X143894878Y-98272100D01*
X143914475Y-98264695D01*
X143938336Y-98255679D01*
X143938338Y-98255678D01*
X143945441Y-98252994D01*
X143951702Y-98248691D01*
X143958026Y-98245385D01*
X143962798Y-98242729D01*
X143968944Y-98239094D01*
X143975896Y-98236042D01*
X144023001Y-98199898D01*
X144028334Y-98196023D01*
X144039699Y-98188212D01*
X144077271Y-98162389D01*
X144115769Y-98119180D01*
X144120749Y-98113905D01*
X147387047Y-94847607D01*
X147393313Y-94841753D01*
X147428025Y-94811472D01*
X147433752Y-94806476D01*
X147467882Y-94757913D01*
X147471814Y-94752618D01*
X147499877Y-94716829D01*
X147508463Y-94705879D01*
X147511589Y-94698955D01*
X147515302Y-94692824D01*
X147517938Y-94688204D01*
X147521360Y-94681822D01*
X147525731Y-94675603D01*
X147547299Y-94620286D01*
X147549854Y-94614207D01*
X147571161Y-94567015D01*
X147574289Y-94560088D01*
X147575675Y-94552612D01*
X147577830Y-94545734D01*
X147579290Y-94540609D01*
X147581078Y-94533645D01*
X147583838Y-94526566D01*
X147591587Y-94467700D01*
X147592618Y-94461189D01*
X147603440Y-94402803D01*
X147602766Y-94391104D01*
X147600109Y-94345033D01*
X147599900Y-94337780D01*
X147599900Y-94198208D01*
X147619902Y-94130087D01*
X147653629Y-94094995D01*
X147778789Y-94007357D01*
X147778792Y-94007355D01*
X147783300Y-94004198D01*
X147945198Y-93842300D01*
X148076523Y-93654749D01*
X148078846Y-93649767D01*
X148078849Y-93649762D01*
X148170961Y-93452225D01*
X148170961Y-93452224D01*
X148173284Y-93447243D01*
X148226367Y-93249138D01*
X148231119Y-93231402D01*
X148231119Y-93231400D01*
X148232543Y-93226087D01*
X148247500Y-93055127D01*
X148247500Y-92140873D01*
X148232543Y-91969913D01*
X148226594Y-91947711D01*
X148174707Y-91754067D01*
X148174706Y-91754065D01*
X148173284Y-91748757D01*
X148128727Y-91653203D01*
X148078849Y-91546238D01*
X148078846Y-91546233D01*
X148076523Y-91541251D01*
X147976507Y-91398414D01*
X147948357Y-91358211D01*
X147948355Y-91358208D01*
X147945198Y-91353700D01*
X147783300Y-91191802D01*
X147778792Y-91188645D01*
X147778789Y-91188643D01*
X147690399Y-91126752D01*
X147595749Y-91060477D01*
X147590761Y-91058151D01*
X147590758Y-91058149D01*
X147511602Y-91021239D01*
X147458317Y-90974323D01*
X147438855Y-90906045D01*
X147459396Y-90838085D01*
X147475756Y-90817949D01*
X151606383Y-86687322D01*
X151668695Y-86653296D01*
X151728088Y-86654710D01*
X151768046Y-86665416D01*
X151790913Y-86671543D01*
X152019000Y-86691498D01*
X152247087Y-86671543D01*
X152252400Y-86670119D01*
X152252402Y-86670119D01*
X152462933Y-86613707D01*
X152462935Y-86613706D01*
X152468243Y-86612284D01*
X152528142Y-86584353D01*
X152670762Y-86517849D01*
X152670767Y-86517846D01*
X152675749Y-86515523D01*
X152784606Y-86439300D01*
X152858789Y-86387357D01*
X152858792Y-86387355D01*
X152863300Y-86384198D01*
X153025198Y-86222300D01*
X153042047Y-86198238D01*
X153093097Y-86125330D01*
X153156523Y-86034749D01*
X153158846Y-86029767D01*
X153158849Y-86029762D01*
X153174805Y-85995543D01*
X153221722Y-85942258D01*
X153289999Y-85922797D01*
X153357959Y-85943339D01*
X153403195Y-85995543D01*
X153419151Y-86029762D01*
X153419154Y-86029767D01*
X153421477Y-86034749D01*
X153484903Y-86125330D01*
X153535954Y-86198238D01*
X153552802Y-86222300D01*
X153714700Y-86384198D01*
X153719208Y-86387355D01*
X153719211Y-86387357D01*
X153793394Y-86439300D01*
X153902251Y-86515523D01*
X153907233Y-86517846D01*
X153907238Y-86517849D01*
X154049858Y-86584353D01*
X154109757Y-86612284D01*
X154115065Y-86613706D01*
X154115067Y-86613707D01*
X154325598Y-86670119D01*
X154325600Y-86670119D01*
X154330913Y-86671543D01*
X154559000Y-86691498D01*
X154787087Y-86671543D01*
X154792400Y-86670119D01*
X154792402Y-86670119D01*
X155008243Y-86612284D01*
X155008842Y-86614520D01*
X155069816Y-86610623D01*
X155131869Y-86645120D01*
X155165420Y-86707688D01*
X155168100Y-86733537D01*
X155168100Y-87431056D01*
X155148098Y-87499177D01*
X155131195Y-87520151D01*
X154110961Y-88540386D01*
X154104696Y-88546239D01*
X154064248Y-88581524D01*
X154031597Y-88627982D01*
X154030109Y-88630099D01*
X154026177Y-88635393D01*
X153989537Y-88682121D01*
X153986411Y-88689045D01*
X153982698Y-88695176D01*
X153980062Y-88699796D01*
X153976640Y-88706178D01*
X153972269Y-88712397D01*
X153955424Y-88755603D01*
X153950702Y-88767713D01*
X153948146Y-88773792D01*
X153923711Y-88827912D01*
X153922325Y-88835388D01*
X153920170Y-88842266D01*
X153918710Y-88847391D01*
X153916922Y-88854355D01*
X153914162Y-88861434D01*
X153913170Y-88868966D01*
X153913170Y-88868968D01*
X153906414Y-88920292D01*
X153905384Y-88926798D01*
X153894560Y-88985197D01*
X153894997Y-88992777D01*
X153894997Y-88992778D01*
X153897891Y-89042967D01*
X153898100Y-89050220D01*
X153898100Y-90997792D01*
X153878098Y-91065913D01*
X153844371Y-91101005D01*
X153719211Y-91188643D01*
X153719208Y-91188645D01*
X153714700Y-91191802D01*
X153552802Y-91353700D01*
X153549645Y-91358208D01*
X153549643Y-91358211D01*
X153521493Y-91398414D01*
X153421477Y-91541251D01*
X153419154Y-91546233D01*
X153419151Y-91546238D01*
X153403195Y-91580457D01*
X153356278Y-91633742D01*
X153288001Y-91653203D01*
X153220041Y-91632661D01*
X153174805Y-91580457D01*
X153158849Y-91546238D01*
X153158846Y-91546233D01*
X153156523Y-91541251D01*
X153056507Y-91398414D01*
X153028357Y-91358211D01*
X153028355Y-91358208D01*
X153025198Y-91353700D01*
X152863300Y-91191802D01*
X152858792Y-91188645D01*
X152858789Y-91188643D01*
X152770399Y-91126752D01*
X152675749Y-91060477D01*
X152670767Y-91058154D01*
X152670762Y-91058151D01*
X152473225Y-90966039D01*
X152473224Y-90966039D01*
X152468243Y-90963716D01*
X152462935Y-90962294D01*
X152462933Y-90962293D01*
X152252402Y-90905881D01*
X152252400Y-90905881D01*
X152247087Y-90904457D01*
X152019000Y-90884502D01*
X151790913Y-90904457D01*
X151785600Y-90905881D01*
X151785598Y-90905881D01*
X151575067Y-90962293D01*
X151575065Y-90962294D01*
X151569757Y-90963716D01*
X151564776Y-90966039D01*
X151564775Y-90966039D01*
X151367238Y-91058151D01*
X151367233Y-91058154D01*
X151362251Y-91060477D01*
X151267601Y-91126752D01*
X151179211Y-91188643D01*
X151179208Y-91188645D01*
X151174700Y-91191802D01*
X151012802Y-91353700D01*
X151009645Y-91358208D01*
X151009643Y-91358211D01*
X150981493Y-91398414D01*
X150881477Y-91541251D01*
X150879154Y-91546233D01*
X150879151Y-91546238D01*
X150829273Y-91653203D01*
X150784716Y-91748757D01*
X150783294Y-91754065D01*
X150783293Y-91754067D01*
X150731406Y-91947711D01*
X150725457Y-91969913D01*
X150710500Y-92140873D01*
X150710500Y-93055127D01*
X150725457Y-93226087D01*
X150726881Y-93231400D01*
X150726881Y-93231402D01*
X150731634Y-93249138D01*
X150784716Y-93447243D01*
X150787039Y-93452224D01*
X150787039Y-93452225D01*
X150879151Y-93649762D01*
X150879154Y-93649767D01*
X150881477Y-93654749D01*
X151012802Y-93842300D01*
X151174700Y-94004198D01*
X151179208Y-94007355D01*
X151179211Y-94007357D01*
X151344371Y-94123003D01*
X151388699Y-94178460D01*
X151398100Y-94226216D01*
X151398100Y-94430792D01*
X151378098Y-94498913D01*
X151344371Y-94534005D01*
X151219211Y-94621643D01*
X151219208Y-94621645D01*
X151214700Y-94624802D01*
X151052802Y-94786700D01*
X151049645Y-94791208D01*
X151049643Y-94791211D01*
X151010154Y-94847607D01*
X150921477Y-94974251D01*
X150919154Y-94979233D01*
X150919151Y-94979238D01*
X150829652Y-95171171D01*
X150824716Y-95181757D01*
X150823294Y-95187065D01*
X150823293Y-95187067D01*
X150772400Y-95377000D01*
X150765457Y-95402913D01*
X150745502Y-95631000D01*
X150765457Y-95859087D01*
X150766881Y-95864400D01*
X150766881Y-95864402D01*
X150814202Y-96041003D01*
X150824716Y-96080243D01*
X150827039Y-96085224D01*
X150827039Y-96085225D01*
X150919151Y-96282762D01*
X150919154Y-96282767D01*
X150921477Y-96287749D01*
X151052802Y-96475300D01*
X151214700Y-96637198D01*
X151219208Y-96640355D01*
X151219211Y-96640357D01*
X151344371Y-96727995D01*
X151388699Y-96783452D01*
X151398100Y-96831208D01*
X151398100Y-101151737D01*
X151397808Y-101160308D01*
X151394158Y-101213843D01*
X151395463Y-101221320D01*
X151395463Y-101221321D01*
X151404368Y-101272343D01*
X151405330Y-101278865D01*
X151412463Y-101337805D01*
X151415149Y-101344913D01*
X151416860Y-101351879D01*
X151418279Y-101357068D01*
X151420356Y-101363947D01*
X151421661Y-101371424D01*
X151445529Y-101425795D01*
X151448012Y-101431881D01*
X151469006Y-101487441D01*
X151473309Y-101493702D01*
X151476615Y-101500026D01*
X151479271Y-101504798D01*
X151482906Y-101510944D01*
X151485958Y-101517896D01*
X151490580Y-101523919D01*
X151522102Y-101565001D01*
X151525973Y-101570328D01*
X151559611Y-101619271D01*
X151565287Y-101624328D01*
X151602819Y-101657768D01*
X151608095Y-101662749D01*
X153349302Y-103403956D01*
X153383328Y-103466268D01*
X153376405Y-103541774D01*
X153347148Y-103611545D01*
X153280981Y-103872077D01*
X153254050Y-104139526D01*
X153254274Y-104144192D01*
X153254274Y-104144197D01*
X153257898Y-104219629D01*
X153266947Y-104408019D01*
X153319388Y-104671656D01*
X153410220Y-104924646D01*
X153412432Y-104928762D01*
X153412433Y-104928765D01*
X153425608Y-104953284D01*
X153537450Y-105161431D01*
X153540241Y-105165168D01*
X153540245Y-105165175D01*
X153621887Y-105274506D01*
X153698281Y-105376810D01*
X153701590Y-105380090D01*
X153701595Y-105380096D01*
X153885863Y-105562762D01*
X153889180Y-105566050D01*
X153892942Y-105568808D01*
X153892945Y-105568811D01*
X154005299Y-105651192D01*
X154105954Y-105724995D01*
X154110089Y-105727171D01*
X154110093Y-105727173D01*
X154339698Y-105847975D01*
X154343840Y-105850154D01*
X154597613Y-105938775D01*
X154602206Y-105939647D01*
X154857109Y-105988042D01*
X154857112Y-105988042D01*
X154861698Y-105988913D01*
X154989370Y-105993929D01*
X155125625Y-105999283D01*
X155125630Y-105999283D01*
X155130293Y-105999466D01*
X155234607Y-105988042D01*
X155392844Y-105970713D01*
X155392850Y-105970712D01*
X155397497Y-105970203D01*
X155402021Y-105969012D01*
X155652918Y-105902956D01*
X155652920Y-105902955D01*
X155657441Y-105901765D01*
X155661738Y-105899919D01*
X155900120Y-105797502D01*
X155900122Y-105797501D01*
X155904414Y-105795657D01*
X156023071Y-105722230D01*
X156129017Y-105656669D01*
X156129021Y-105656666D01*
X156132990Y-105654210D01*
X156338149Y-105480530D01*
X156515382Y-105278434D01*
X156660797Y-105052361D01*
X156771199Y-104807278D01*
X156844163Y-104548568D01*
X156851614Y-104489998D01*
X156880053Y-104424947D01*
X156939147Y-104385597D01*
X156976607Y-104379900D01*
X160216792Y-104379900D01*
X160284913Y-104399902D01*
X160320005Y-104433629D01*
X160407643Y-104558789D01*
X160410802Y-104563300D01*
X160572700Y-104725198D01*
X160577208Y-104728355D01*
X160577211Y-104728357D01*
X160594849Y-104740707D01*
X160760251Y-104856523D01*
X160765233Y-104858846D01*
X160765238Y-104858849D01*
X160906342Y-104924646D01*
X160967757Y-104953284D01*
X160973065Y-104954706D01*
X160973067Y-104954707D01*
X161183598Y-105011119D01*
X161183600Y-105011119D01*
X161188913Y-105012543D01*
X161417000Y-105032498D01*
X161645087Y-105012543D01*
X161650400Y-105011119D01*
X161650402Y-105011119D01*
X161860933Y-104954707D01*
X161860935Y-104954706D01*
X161866243Y-104953284D01*
X161927658Y-104924646D01*
X162068762Y-104858849D01*
X162068767Y-104858846D01*
X162073749Y-104856523D01*
X162239151Y-104740707D01*
X162256789Y-104728357D01*
X162256792Y-104728355D01*
X162261300Y-104725198D01*
X162423198Y-104563300D01*
X162430366Y-104553064D01*
X162520074Y-104424947D01*
X162554523Y-104375749D01*
X162556846Y-104370767D01*
X162556849Y-104370762D01*
X162618453Y-104238650D01*
X162665370Y-104185365D01*
X162732648Y-104165900D01*
X163518792Y-104165900D01*
X163586913Y-104185902D01*
X163622005Y-104219629D01*
X163712802Y-104349300D01*
X163874700Y-104511198D01*
X163879208Y-104514355D01*
X163879211Y-104514357D01*
X163921457Y-104543938D01*
X164062251Y-104642523D01*
X164067233Y-104644846D01*
X164067238Y-104644849D01*
X164264775Y-104736961D01*
X164269757Y-104739284D01*
X164275065Y-104740706D01*
X164275067Y-104740707D01*
X164485598Y-104797119D01*
X164485600Y-104797119D01*
X164490913Y-104798543D01*
X164719000Y-104818498D01*
X164947087Y-104798543D01*
X164952400Y-104797119D01*
X164952402Y-104797119D01*
X165162933Y-104740707D01*
X165162935Y-104740706D01*
X165168243Y-104739284D01*
X165173225Y-104736961D01*
X165370762Y-104644849D01*
X165370767Y-104644846D01*
X165375749Y-104642523D01*
X165516543Y-104543938D01*
X165558789Y-104514357D01*
X165558792Y-104514355D01*
X165563300Y-104511198D01*
X165725198Y-104349300D01*
X165856523Y-104161749D01*
X165858846Y-104156767D01*
X165858849Y-104156762D01*
X165950961Y-103959225D01*
X165950961Y-103959224D01*
X165953284Y-103954243D01*
X165973038Y-103880523D01*
X166011119Y-103738402D01*
X166011119Y-103738400D01*
X166012543Y-103733087D01*
X166032498Y-103505000D01*
X166012543Y-103276913D01*
X165953284Y-103055757D01*
X165931997Y-103010106D01*
X165858849Y-102853238D01*
X165858846Y-102853233D01*
X165856523Y-102848251D01*
X165761680Y-102712802D01*
X165728357Y-102665211D01*
X165728355Y-102665208D01*
X165725198Y-102660700D01*
X165563300Y-102498802D01*
X165558792Y-102495645D01*
X165558789Y-102495643D01*
X165455812Y-102423538D01*
X165375749Y-102367477D01*
X165370767Y-102365154D01*
X165370762Y-102365151D01*
X165173225Y-102273039D01*
X165173224Y-102273039D01*
X165168243Y-102270716D01*
X165162935Y-102269294D01*
X165162933Y-102269293D01*
X164952402Y-102212881D01*
X164952400Y-102212881D01*
X164947087Y-102211457D01*
X164719000Y-102191502D01*
X164490913Y-102211457D01*
X164485600Y-102212881D01*
X164485598Y-102212881D01*
X164275067Y-102269293D01*
X164275065Y-102269294D01*
X164269757Y-102270716D01*
X164264776Y-102273039D01*
X164264775Y-102273039D01*
X164067238Y-102365151D01*
X164067233Y-102365154D01*
X164062251Y-102367477D01*
X163982188Y-102423538D01*
X163879211Y-102495643D01*
X163879208Y-102495645D01*
X163874700Y-102498802D01*
X163712802Y-102660700D01*
X163709645Y-102665208D01*
X163709643Y-102665211D01*
X163622005Y-102790371D01*
X163566548Y-102834699D01*
X163518792Y-102844100D01*
X162444788Y-102844100D01*
X162376667Y-102824098D01*
X162355693Y-102807195D01*
X162261300Y-102712802D01*
X162256792Y-102709645D01*
X162256789Y-102709643D01*
X162135012Y-102624374D01*
X162073749Y-102581477D01*
X162068767Y-102579154D01*
X162068762Y-102579151D01*
X161871225Y-102487039D01*
X161871224Y-102487039D01*
X161866243Y-102484716D01*
X161860935Y-102483294D01*
X161860933Y-102483293D01*
X161650402Y-102426881D01*
X161650400Y-102426881D01*
X161645087Y-102425457D01*
X161417000Y-102405502D01*
X161188913Y-102425457D01*
X161183600Y-102426881D01*
X161183598Y-102426881D01*
X160973067Y-102483293D01*
X160973065Y-102483294D01*
X160967757Y-102484716D01*
X160962776Y-102487039D01*
X160962775Y-102487039D01*
X160765238Y-102579151D01*
X160765233Y-102579154D01*
X160760251Y-102581477D01*
X160698988Y-102624374D01*
X160577211Y-102709643D01*
X160577208Y-102709645D01*
X160572700Y-102712802D01*
X160410802Y-102874700D01*
X160407645Y-102879208D01*
X160407643Y-102879211D01*
X160320005Y-103004371D01*
X160264548Y-103048699D01*
X160216792Y-103058100D01*
X156541161Y-103058100D01*
X156473040Y-103038098D01*
X156442211Y-103010106D01*
X156406997Y-102965437D01*
X156406994Y-102965434D01*
X156404105Y-102961769D01*
X156208317Y-102777591D01*
X155987457Y-102624374D01*
X155983264Y-102622306D01*
X155750564Y-102507551D01*
X155750561Y-102507550D01*
X155746376Y-102505486D01*
X155737670Y-102502699D01*
X155625733Y-102466868D01*
X155490370Y-102423538D01*
X155485763Y-102422788D01*
X155485760Y-102422787D01*
X155229674Y-102381081D01*
X155229675Y-102381081D01*
X155225063Y-102380330D01*
X155094719Y-102378624D01*
X154960961Y-102376873D01*
X154960958Y-102376873D01*
X154956284Y-102376812D01*
X154689937Y-102413060D01*
X154685451Y-102414368D01*
X154685449Y-102414368D01*
X154642519Y-102426881D01*
X154431874Y-102488278D01*
X154424832Y-102491524D01*
X154423364Y-102492201D01*
X154353126Y-102502553D01*
X154288441Y-102473289D01*
X154281521Y-102466868D01*
X152756805Y-100942152D01*
X152722779Y-100879840D01*
X152719900Y-100853057D01*
X152719900Y-96831208D01*
X152739902Y-96763087D01*
X152773629Y-96727995D01*
X152898789Y-96640357D01*
X152898792Y-96640355D01*
X152903300Y-96637198D01*
X153065198Y-96475300D01*
X153196523Y-96287749D01*
X153198846Y-96282767D01*
X153198849Y-96282762D01*
X153290961Y-96085225D01*
X153290961Y-96085224D01*
X153293284Y-96080243D01*
X153303799Y-96041003D01*
X153351119Y-95864402D01*
X153351119Y-95864400D01*
X153352543Y-95859087D01*
X153372498Y-95631000D01*
X153352543Y-95402913D01*
X153345600Y-95377000D01*
X153294707Y-95187067D01*
X153294706Y-95187065D01*
X153293284Y-95181757D01*
X153288348Y-95171171D01*
X153198849Y-94979238D01*
X153198846Y-94979233D01*
X153196523Y-94974251D01*
X153107846Y-94847607D01*
X153068357Y-94791211D01*
X153068355Y-94791208D01*
X153065198Y-94786700D01*
X152903300Y-94624802D01*
X152898792Y-94621645D01*
X152898789Y-94621643D01*
X152773629Y-94534005D01*
X152729301Y-94478548D01*
X152719900Y-94430792D01*
X152719900Y-94170199D01*
X152739902Y-94102078D01*
X152773630Y-94066986D01*
X152858784Y-94007361D01*
X152858790Y-94007356D01*
X152863300Y-94004198D01*
X153025198Y-93842300D01*
X153156523Y-93654749D01*
X153158846Y-93649767D01*
X153158849Y-93649762D01*
X153174805Y-93615543D01*
X153221722Y-93562258D01*
X153289999Y-93542797D01*
X153357959Y-93563339D01*
X153403195Y-93615543D01*
X153419151Y-93649762D01*
X153419154Y-93649767D01*
X153421477Y-93654749D01*
X153552802Y-93842300D01*
X153714700Y-94004198D01*
X153719208Y-94007355D01*
X153719211Y-94007357D01*
X153780222Y-94050077D01*
X153902251Y-94135523D01*
X153907233Y-94137846D01*
X153907238Y-94137849D01*
X154096744Y-94226216D01*
X154109757Y-94232284D01*
X154117244Y-94234290D01*
X154312712Y-94286666D01*
X154373334Y-94323618D01*
X154404356Y-94387479D01*
X154406100Y-94408373D01*
X154406100Y-97419502D01*
X154386098Y-97487623D01*
X154332851Y-97533928D01*
X154271276Y-97562315D01*
X154187763Y-97600815D01*
X154161393Y-97618104D01*
X153966881Y-97745631D01*
X153966876Y-97745635D01*
X153962968Y-97748197D01*
X153926443Y-97780797D01*
X153768063Y-97922157D01*
X153762426Y-97927188D01*
X153590544Y-98133854D01*
X153588121Y-98137847D01*
X153509189Y-98267923D01*
X153451096Y-98363656D01*
X153449287Y-98367970D01*
X153449285Y-98367974D01*
X153381237Y-98530251D01*
X153347148Y-98611545D01*
X153280981Y-98872077D01*
X153254050Y-99139526D01*
X153254274Y-99144192D01*
X153254274Y-99144197D01*
X153256067Y-99181525D01*
X153266947Y-99408019D01*
X153319388Y-99671656D01*
X153410220Y-99924646D01*
X153412432Y-99928762D01*
X153412433Y-99928765D01*
X153476555Y-100048100D01*
X153537450Y-100161431D01*
X153540241Y-100165168D01*
X153540245Y-100165175D01*
X153563530Y-100196357D01*
X153698281Y-100376810D01*
X153701590Y-100380090D01*
X153701595Y-100380096D01*
X153885863Y-100562762D01*
X153889180Y-100566050D01*
X153892942Y-100568808D01*
X153892945Y-100568811D01*
X154005299Y-100651192D01*
X154105954Y-100724995D01*
X154110089Y-100727171D01*
X154110093Y-100727173D01*
X154310329Y-100832523D01*
X154343840Y-100850154D01*
X154352153Y-100853057D01*
X154574510Y-100930707D01*
X154597613Y-100938775D01*
X154602206Y-100939647D01*
X154857109Y-100988042D01*
X154857112Y-100988042D01*
X154861698Y-100988913D01*
X154989370Y-100993929D01*
X155125625Y-100999283D01*
X155125630Y-100999283D01*
X155130293Y-100999466D01*
X155224983Y-100989096D01*
X155392844Y-100970713D01*
X155392850Y-100970712D01*
X155397497Y-100970203D01*
X155402021Y-100969012D01*
X155652918Y-100902956D01*
X155652920Y-100902955D01*
X155657441Y-100901765D01*
X155770812Y-100853057D01*
X155900120Y-100797502D01*
X155900122Y-100797501D01*
X155904414Y-100795657D01*
X156023071Y-100722230D01*
X156129017Y-100656669D01*
X156129021Y-100656666D01*
X156132990Y-100654210D01*
X156338149Y-100480530D01*
X156515382Y-100278434D01*
X156660797Y-100052361D01*
X156771199Y-99807278D01*
X156773671Y-99798515D01*
X156805488Y-99685699D01*
X156843229Y-99625565D01*
X156907491Y-99595382D01*
X156926757Y-99593900D01*
X160389212Y-99593900D01*
X160457333Y-99613902D01*
X160478307Y-99630805D01*
X160572700Y-99725198D01*
X160577208Y-99728355D01*
X160577211Y-99728357D01*
X160627158Y-99763330D01*
X160760251Y-99856523D01*
X160765233Y-99858846D01*
X160765238Y-99858849D01*
X160939258Y-99939995D01*
X160967757Y-99953284D01*
X160973065Y-99954706D01*
X160973067Y-99954707D01*
X161183598Y-100011119D01*
X161183600Y-100011119D01*
X161188913Y-100012543D01*
X161417000Y-100032498D01*
X161645087Y-100012543D01*
X161650400Y-100011119D01*
X161650402Y-100011119D01*
X161860933Y-99954707D01*
X161860935Y-99954706D01*
X161866243Y-99953284D01*
X161894742Y-99939995D01*
X162068762Y-99858849D01*
X162068767Y-99858846D01*
X162073749Y-99856523D01*
X162206842Y-99763330D01*
X162256789Y-99728357D01*
X162256792Y-99728355D01*
X162261300Y-99725198D01*
X162423198Y-99563300D01*
X162490689Y-99466913D01*
X162513995Y-99433629D01*
X162569452Y-99389301D01*
X162617208Y-99379900D01*
X163295564Y-99379900D01*
X163363685Y-99399902D01*
X163410178Y-99453558D01*
X163421085Y-99516881D01*
X163410481Y-99638085D01*
X163405502Y-99695000D01*
X163425457Y-99923087D01*
X163426881Y-99928400D01*
X163426881Y-99928402D01*
X163433930Y-99954707D01*
X163484716Y-100144243D01*
X163487039Y-100149224D01*
X163487039Y-100149225D01*
X163579151Y-100346762D01*
X163579154Y-100346767D01*
X163581477Y-100351749D01*
X163712802Y-100539300D01*
X163874700Y-100701198D01*
X163879208Y-100704355D01*
X163879211Y-100704357D01*
X163911796Y-100727173D01*
X164062251Y-100832523D01*
X164067233Y-100834846D01*
X164067238Y-100834849D01*
X164213296Y-100902956D01*
X164269757Y-100929284D01*
X164275065Y-100930706D01*
X164275067Y-100930707D01*
X164485598Y-100987119D01*
X164485600Y-100987119D01*
X164490913Y-100988543D01*
X164719000Y-101008498D01*
X164947087Y-100988543D01*
X164952400Y-100987119D01*
X164952402Y-100987119D01*
X165162933Y-100930707D01*
X165162935Y-100930706D01*
X165168243Y-100929284D01*
X165224704Y-100902956D01*
X165370762Y-100834849D01*
X165370767Y-100834846D01*
X165375749Y-100832523D01*
X165526204Y-100727173D01*
X165558789Y-100704357D01*
X165558792Y-100704355D01*
X165563300Y-100701198D01*
X165725198Y-100539300D01*
X165856523Y-100351749D01*
X165858846Y-100346767D01*
X165858849Y-100346762D01*
X165950961Y-100149225D01*
X165950961Y-100149224D01*
X165953284Y-100144243D01*
X166004071Y-99954707D01*
X166011119Y-99928402D01*
X166011119Y-99928400D01*
X166012543Y-99923087D01*
X166032498Y-99695000D01*
X166012543Y-99466913D01*
X165989415Y-99380597D01*
X165954707Y-99251067D01*
X165954706Y-99251065D01*
X165953284Y-99245757D01*
X165939395Y-99215971D01*
X165858849Y-99043238D01*
X165858846Y-99043233D01*
X165856523Y-99038251D01*
X165743428Y-98876735D01*
X165728357Y-98855211D01*
X165728355Y-98855208D01*
X165725198Y-98850700D01*
X165563300Y-98688802D01*
X165558792Y-98685645D01*
X165558789Y-98685643D01*
X165446805Y-98607231D01*
X165375749Y-98557477D01*
X165370767Y-98555154D01*
X165370762Y-98555151D01*
X165173225Y-98463039D01*
X165173224Y-98463039D01*
X165168243Y-98460716D01*
X165162935Y-98459294D01*
X165162933Y-98459293D01*
X164952402Y-98402881D01*
X164952400Y-98402881D01*
X164947087Y-98401457D01*
X164719000Y-98381502D01*
X164490913Y-98401457D01*
X164485600Y-98402881D01*
X164485598Y-98402881D01*
X164458018Y-98410271D01*
X164387041Y-98408581D01*
X164336312Y-98377659D01*
X164229614Y-98270961D01*
X164223760Y-98264695D01*
X164206915Y-98245385D01*
X164188476Y-98224248D01*
X164139898Y-98190107D01*
X164134604Y-98186175D01*
X164122804Y-98176922D01*
X164087879Y-98149537D01*
X164080955Y-98146411D01*
X164074824Y-98142698D01*
X164070204Y-98140062D01*
X164063822Y-98136640D01*
X164057603Y-98132269D01*
X164002286Y-98110701D01*
X163996207Y-98108146D01*
X163942088Y-98083711D01*
X163934612Y-98082325D01*
X163927734Y-98080170D01*
X163922609Y-98078710D01*
X163915645Y-98076922D01*
X163908566Y-98074162D01*
X163901034Y-98073170D01*
X163901032Y-98073170D01*
X163875804Y-98069849D01*
X163849700Y-98066413D01*
X163843202Y-98065384D01*
X163784803Y-98054560D01*
X163777223Y-98054997D01*
X163777222Y-98054997D01*
X163727033Y-98057891D01*
X163719780Y-98058100D01*
X162617208Y-98058100D01*
X162549087Y-98038098D01*
X162513995Y-98004371D01*
X162426357Y-97879211D01*
X162426355Y-97879208D01*
X162423198Y-97874700D01*
X162261300Y-97712802D01*
X162256792Y-97709645D01*
X162256789Y-97709643D01*
X162169552Y-97648559D01*
X162073749Y-97581477D01*
X162068767Y-97579154D01*
X162068762Y-97579151D01*
X161871225Y-97487039D01*
X161871224Y-97487039D01*
X161866243Y-97484716D01*
X161860935Y-97483294D01*
X161860933Y-97483293D01*
X161650402Y-97426881D01*
X161650400Y-97426881D01*
X161645087Y-97425457D01*
X161417000Y-97405502D01*
X161188913Y-97425457D01*
X161183600Y-97426881D01*
X161183598Y-97426881D01*
X160973067Y-97483293D01*
X160973065Y-97483294D01*
X160967757Y-97484716D01*
X160962776Y-97487039D01*
X160962775Y-97487039D01*
X160765238Y-97579151D01*
X160765233Y-97579154D01*
X160760251Y-97581477D01*
X160664448Y-97648559D01*
X160577211Y-97709643D01*
X160577208Y-97709645D01*
X160572700Y-97712802D01*
X160410802Y-97874700D01*
X160279477Y-98062251D01*
X160277154Y-98067233D01*
X160277151Y-98067238D01*
X160215547Y-98199350D01*
X160168630Y-98252635D01*
X160101352Y-98272100D01*
X156700349Y-98272100D01*
X156632228Y-98252098D01*
X156590956Y-98208623D01*
X156572837Y-98176922D01*
X156570518Y-98172864D01*
X156565653Y-98166692D01*
X156478346Y-98055944D01*
X156404105Y-97961769D01*
X156208317Y-97777591D01*
X156032561Y-97655664D01*
X155991299Y-97627039D01*
X155991296Y-97627037D01*
X155987457Y-97624374D01*
X155962530Y-97612081D01*
X155798172Y-97531029D01*
X155745923Y-97482961D01*
X155727900Y-97418023D01*
X155727900Y-96410913D01*
X155747902Y-96342792D01*
X155801558Y-96296299D01*
X155871832Y-96286195D01*
X155936412Y-96315689D01*
X155957112Y-96338641D01*
X156052802Y-96475300D01*
X156214700Y-96637198D01*
X156219208Y-96640355D01*
X156219211Y-96640357D01*
X156264075Y-96671771D01*
X156402251Y-96768523D01*
X156407233Y-96770846D01*
X156407238Y-96770849D01*
X156536680Y-96831208D01*
X156609757Y-96865284D01*
X156615065Y-96866706D01*
X156615067Y-96866707D01*
X156825598Y-96923119D01*
X156825600Y-96923119D01*
X156830913Y-96924543D01*
X157059000Y-96944498D01*
X157287087Y-96924543D01*
X157292400Y-96923119D01*
X157292402Y-96923119D01*
X157502933Y-96866707D01*
X157502935Y-96866706D01*
X157508243Y-96865284D01*
X157581320Y-96831208D01*
X157710762Y-96770849D01*
X157710767Y-96770846D01*
X157715749Y-96768523D01*
X157853925Y-96671771D01*
X157898789Y-96640357D01*
X157898792Y-96640355D01*
X157903300Y-96637198D01*
X158065198Y-96475300D01*
X158076039Y-96459818D01*
X158155995Y-96345629D01*
X158211452Y-96301301D01*
X158259208Y-96291900D01*
X159317737Y-96291900D01*
X159326308Y-96292192D01*
X159379843Y-96295842D01*
X159387320Y-96294537D01*
X159387321Y-96294537D01*
X159412626Y-96290121D01*
X159438347Y-96285631D01*
X159444865Y-96284670D01*
X159463223Y-96282448D01*
X159496262Y-96278450D01*
X159496264Y-96278450D01*
X159503805Y-96277537D01*
X159510913Y-96274851D01*
X159517879Y-96273140D01*
X159523068Y-96271721D01*
X159529947Y-96269644D01*
X159537424Y-96268339D01*
X159591795Y-96244471D01*
X159597886Y-96241986D01*
X159646336Y-96223679D01*
X159646338Y-96223678D01*
X159653441Y-96220994D01*
X159659702Y-96216691D01*
X159666026Y-96213385D01*
X159670798Y-96210729D01*
X159676944Y-96207094D01*
X159683896Y-96204042D01*
X159731001Y-96167898D01*
X159736334Y-96164023D01*
X159785271Y-96130389D01*
X159823769Y-96087180D01*
X159828749Y-96081905D01*
X161865047Y-94045607D01*
X161871313Y-94039753D01*
X161906025Y-94009472D01*
X161911752Y-94004476D01*
X161945892Y-93955900D01*
X161949818Y-93950614D01*
X161981774Y-93909858D01*
X161986463Y-93903878D01*
X161989591Y-93896950D01*
X161993319Y-93890794D01*
X161995954Y-93886175D01*
X161999362Y-93879819D01*
X162003731Y-93873603D01*
X162017694Y-93837789D01*
X162025292Y-93818302D01*
X162027848Y-93812221D01*
X162049166Y-93765007D01*
X162052290Y-93758088D01*
X162053673Y-93750625D01*
X162055810Y-93743807D01*
X162057287Y-93738622D01*
X162059078Y-93731645D01*
X162061838Y-93724566D01*
X162069589Y-93665692D01*
X162070620Y-93659183D01*
X162080056Y-93608269D01*
X162081440Y-93600802D01*
X162078109Y-93543031D01*
X162077900Y-93535779D01*
X162077900Y-89054263D01*
X162078192Y-89045692D01*
X162081325Y-88999733D01*
X162081842Y-88992157D01*
X162080072Y-88982012D01*
X162071632Y-88933657D01*
X162070669Y-88927131D01*
X162064450Y-88875738D01*
X162064450Y-88875736D01*
X162063537Y-88868195D01*
X162060851Y-88861087D01*
X162059140Y-88854121D01*
X162057721Y-88848932D01*
X162055644Y-88842053D01*
X162054339Y-88834576D01*
X162030471Y-88780205D01*
X162027986Y-88774114D01*
X162025628Y-88767872D01*
X162019671Y-88752109D01*
X162009679Y-88725664D01*
X162009678Y-88725662D01*
X162006994Y-88718559D01*
X162002691Y-88712298D01*
X161999385Y-88705974D01*
X161996729Y-88701202D01*
X161993094Y-88695056D01*
X161990042Y-88688104D01*
X161960851Y-88650061D01*
X161953898Y-88640999D01*
X161950023Y-88635666D01*
X161916389Y-88586729D01*
X161873180Y-88548231D01*
X161867905Y-88543251D01*
X160991503Y-87666849D01*
X160112296Y-86787643D01*
X160078271Y-86725331D01*
X160083335Y-86654516D01*
X160125882Y-86597680D01*
X160148142Y-86584353D01*
X160290758Y-86517851D01*
X160290764Y-86517847D01*
X160295749Y-86515523D01*
X160404606Y-86439300D01*
X160478789Y-86387357D01*
X160478792Y-86387355D01*
X160483300Y-86384198D01*
X160645198Y-86222300D01*
X160662047Y-86198238D01*
X160713097Y-86125330D01*
X160776523Y-86034749D01*
X160778846Y-86029767D01*
X160778849Y-86029762D01*
X160837997Y-85902916D01*
X160873284Y-85827243D01*
X160898727Y-85732288D01*
X160935679Y-85671666D01*
X160999539Y-85640645D01*
X161020434Y-85638900D01*
X161654056Y-85638900D01*
X161722177Y-85658902D01*
X161743151Y-85675805D01*
X163041302Y-86973956D01*
X163075328Y-87036268D01*
X163068405Y-87111774D01*
X163039148Y-87181545D01*
X162972981Y-87442077D01*
X162946050Y-87709526D01*
X162946274Y-87714192D01*
X162946274Y-87714197D01*
X162948854Y-87767897D01*
X162958947Y-87978019D01*
X163011388Y-88241656D01*
X163102220Y-88494646D01*
X163104432Y-88498762D01*
X163104433Y-88498765D01*
X163180859Y-88640999D01*
X163229450Y-88731431D01*
X163232241Y-88735168D01*
X163232245Y-88735175D01*
X163321067Y-88854121D01*
X163390281Y-88946810D01*
X163393590Y-88950090D01*
X163393595Y-88950096D01*
X163541695Y-89096908D01*
X163581180Y-89136050D01*
X163584942Y-89138808D01*
X163584945Y-89138811D01*
X163684145Y-89211547D01*
X163797954Y-89294995D01*
X163802089Y-89297171D01*
X163802093Y-89297173D01*
X164025597Y-89414765D01*
X164035840Y-89420154D01*
X164289613Y-89508775D01*
X164294206Y-89509647D01*
X164549109Y-89558042D01*
X164549112Y-89558042D01*
X164553698Y-89558913D01*
X164681370Y-89563929D01*
X164817625Y-89569283D01*
X164817630Y-89569283D01*
X164822293Y-89569466D01*
X164926607Y-89558042D01*
X165084844Y-89540713D01*
X165084850Y-89540712D01*
X165089497Y-89540203D01*
X165173837Y-89517998D01*
X165344918Y-89472956D01*
X165344920Y-89472955D01*
X165349441Y-89471765D01*
X165353738Y-89469919D01*
X165592120Y-89367502D01*
X165592122Y-89367501D01*
X165596414Y-89365657D01*
X165715071Y-89292230D01*
X165821017Y-89226669D01*
X165821021Y-89226666D01*
X165824990Y-89224210D01*
X166030149Y-89050530D01*
X166030379Y-89050802D01*
X166090786Y-89018495D01*
X166161555Y-89024174D01*
X166218020Y-89067212D01*
X166242252Y-89133945D01*
X166242500Y-89141843D01*
X166242500Y-94552724D01*
X166241763Y-94566332D01*
X166237638Y-94604304D01*
X166238768Y-94617217D01*
X166242046Y-94654690D01*
X166242375Y-94659518D01*
X166242500Y-94662073D01*
X166242500Y-94665157D01*
X166242801Y-94668224D01*
X166246722Y-94708219D01*
X166246844Y-94709532D01*
X166248218Y-94725238D01*
X166255012Y-94802892D01*
X166256511Y-94808052D01*
X166257035Y-94813394D01*
X166282383Y-94897350D01*
X166284098Y-94903031D01*
X166284455Y-94904236D01*
X166310628Y-94994322D01*
X166313100Y-94999090D01*
X166314652Y-95004232D01*
X166317547Y-95009677D01*
X166317550Y-95009684D01*
X166358633Y-95086950D01*
X166359213Y-95088054D01*
X166402366Y-95171304D01*
X166405718Y-95175503D01*
X166408239Y-95180244D01*
X166412131Y-95185016D01*
X166467438Y-95252829D01*
X166468266Y-95253855D01*
X166485865Y-95275900D01*
X166499768Y-95293316D01*
X166502263Y-95295811D01*
X166502973Y-95296605D01*
X166506693Y-95300960D01*
X166530337Y-95329951D01*
X166530340Y-95329954D01*
X166534232Y-95334726D01*
X166538980Y-95338654D01*
X166538981Y-95338655D01*
X166569873Y-95364211D01*
X166578652Y-95372200D01*
X171004967Y-99798515D01*
X171038993Y-99860827D01*
X171041392Y-99876627D01*
X171045457Y-99923087D01*
X171104716Y-100144243D01*
X171107039Y-100149224D01*
X171107039Y-100149225D01*
X171199151Y-100346762D01*
X171199154Y-100346767D01*
X171201477Y-100351749D01*
X171204634Y-100356257D01*
X171299713Y-100492044D01*
X171322500Y-100564315D01*
X171322500Y-102635685D01*
X171299713Y-102707956D01*
X171201477Y-102848251D01*
X171199154Y-102853233D01*
X171199151Y-102853238D01*
X171126003Y-103010106D01*
X171104716Y-103055757D01*
X171045457Y-103276913D01*
X171025502Y-103505000D01*
X171045457Y-103733087D01*
X171046881Y-103738400D01*
X171046881Y-103738402D01*
X171084963Y-103880523D01*
X171104716Y-103954243D01*
X171107039Y-103959224D01*
X171107039Y-103959225D01*
X171199151Y-104156762D01*
X171199154Y-104156767D01*
X171201477Y-104161749D01*
X171332802Y-104349300D01*
X171494700Y-104511198D01*
X171499208Y-104514355D01*
X171499211Y-104514357D01*
X171541457Y-104543938D01*
X171682251Y-104642523D01*
X171687233Y-104644846D01*
X171687238Y-104644849D01*
X171884775Y-104736961D01*
X171889757Y-104739284D01*
X171895065Y-104740706D01*
X171895067Y-104740707D01*
X172105598Y-104797119D01*
X172105600Y-104797119D01*
X172110913Y-104798543D01*
X172339000Y-104818498D01*
X172567087Y-104798543D01*
X172572400Y-104797119D01*
X172572402Y-104797119D01*
X172782933Y-104740707D01*
X172782935Y-104740706D01*
X172788243Y-104739284D01*
X172793225Y-104736961D01*
X172990762Y-104644849D01*
X172990767Y-104644846D01*
X172995749Y-104642523D01*
X173136543Y-104543938D01*
X173178789Y-104514357D01*
X173178792Y-104514355D01*
X173183300Y-104511198D01*
X173345198Y-104349300D01*
X173476523Y-104161749D01*
X173478846Y-104156767D01*
X173478849Y-104156762D01*
X173570961Y-103959225D01*
X173570961Y-103959224D01*
X173573284Y-103954243D01*
X173593038Y-103880523D01*
X173631119Y-103738402D01*
X173631119Y-103738400D01*
X173632543Y-103733087D01*
X173652498Y-103505000D01*
X173632543Y-103276913D01*
X173573284Y-103055757D01*
X173551997Y-103010106D01*
X173478849Y-102853238D01*
X173478846Y-102853233D01*
X173476523Y-102848251D01*
X173378287Y-102707956D01*
X173355500Y-102635685D01*
X173355500Y-100564315D01*
X173378287Y-100492044D01*
X173473366Y-100356257D01*
X173476523Y-100351749D01*
X173478846Y-100346767D01*
X173478849Y-100346762D01*
X173570961Y-100149225D01*
X173570961Y-100149224D01*
X173573284Y-100144243D01*
X173624071Y-99954707D01*
X173631119Y-99928402D01*
X173631119Y-99928400D01*
X173632543Y-99923087D01*
X173652498Y-99695000D01*
X173632543Y-99466913D01*
X173609415Y-99380597D01*
X173574707Y-99251067D01*
X173574706Y-99251065D01*
X173573284Y-99245757D01*
X173559395Y-99215971D01*
X173478849Y-99043238D01*
X173478846Y-99043233D01*
X173476523Y-99038251D01*
X173363428Y-98876735D01*
X173348357Y-98855211D01*
X173348355Y-98855208D01*
X173345198Y-98850700D01*
X173183300Y-98688802D01*
X173178792Y-98685645D01*
X173178789Y-98685643D01*
X173066805Y-98607231D01*
X172995749Y-98557477D01*
X172990767Y-98555154D01*
X172990762Y-98555151D01*
X172793225Y-98463039D01*
X172793224Y-98463039D01*
X172788243Y-98460716D01*
X172782935Y-98459294D01*
X172782933Y-98459293D01*
X172704748Y-98438343D01*
X172567087Y-98401457D01*
X172537272Y-98398848D01*
X172520627Y-98397392D01*
X172454509Y-98371529D01*
X172442515Y-98360967D01*
X168312405Y-94230857D01*
X168278379Y-94168545D01*
X168275500Y-94141762D01*
X168275500Y-89135350D01*
X168295502Y-89067229D01*
X168349158Y-89020736D01*
X168419432Y-89010632D01*
X168484012Y-89040126D01*
X168490197Y-89045857D01*
X168581180Y-89136050D01*
X168584942Y-89138808D01*
X168584945Y-89138811D01*
X168684145Y-89211547D01*
X168797954Y-89294995D01*
X168802089Y-89297171D01*
X168802093Y-89297173D01*
X169025597Y-89414765D01*
X169035840Y-89420154D01*
X169289613Y-89508775D01*
X169294206Y-89509647D01*
X169549109Y-89558042D01*
X169549112Y-89558042D01*
X169553698Y-89558913D01*
X169681370Y-89563929D01*
X169817625Y-89569283D01*
X169817630Y-89569283D01*
X169822293Y-89569466D01*
X169926607Y-89558042D01*
X170084844Y-89540713D01*
X170084850Y-89540712D01*
X170089497Y-89540203D01*
X170173837Y-89517998D01*
X170344918Y-89472956D01*
X170344920Y-89472955D01*
X170349441Y-89471765D01*
X170353738Y-89469919D01*
X170353744Y-89469917D01*
X170403657Y-89448472D01*
X170474142Y-89439959D01*
X170542491Y-89475144D01*
X172513076Y-91445729D01*
X172547102Y-91508041D01*
X172549143Y-91527031D01*
X172549502Y-91527000D01*
X172569457Y-91755087D01*
X172570881Y-91760400D01*
X172570881Y-91760402D01*
X172604320Y-91885195D01*
X172628716Y-91976243D01*
X172631039Y-91981224D01*
X172631039Y-91981225D01*
X172723151Y-92178762D01*
X172723154Y-92178767D01*
X172725477Y-92183749D01*
X172856802Y-92371300D01*
X173018700Y-92533198D01*
X173023208Y-92536355D01*
X173023211Y-92536357D01*
X173101389Y-92591098D01*
X173206251Y-92664523D01*
X173211233Y-92666846D01*
X173211238Y-92666849D01*
X173408775Y-92758961D01*
X173413757Y-92761284D01*
X173419065Y-92762706D01*
X173419067Y-92762707D01*
X173629598Y-92819119D01*
X173629600Y-92819119D01*
X173634913Y-92820543D01*
X173863000Y-92840498D01*
X174091087Y-92820543D01*
X174096400Y-92819119D01*
X174096402Y-92819119D01*
X174306933Y-92762707D01*
X174306935Y-92762706D01*
X174312243Y-92761284D01*
X174317225Y-92758961D01*
X174514762Y-92666849D01*
X174514767Y-92666846D01*
X174519749Y-92664523D01*
X174624611Y-92591098D01*
X174702789Y-92536357D01*
X174702792Y-92536355D01*
X174707300Y-92533198D01*
X174869198Y-92371300D01*
X175000523Y-92183749D01*
X175002846Y-92178767D01*
X175002849Y-92178762D01*
X175094961Y-91981225D01*
X175094961Y-91981224D01*
X175097284Y-91976243D01*
X175121681Y-91885195D01*
X175155119Y-91760402D01*
X175155119Y-91760400D01*
X175156543Y-91755087D01*
X175176498Y-91527000D01*
X175156543Y-91298913D01*
X175151552Y-91280285D01*
X175098707Y-91083067D01*
X175098706Y-91083065D01*
X175097284Y-91077757D01*
X175091761Y-91065913D01*
X175002849Y-90875238D01*
X175002846Y-90875233D01*
X175000523Y-90870251D01*
X174887710Y-90709138D01*
X174872357Y-90687211D01*
X174872355Y-90687208D01*
X174869198Y-90682700D01*
X174707300Y-90520802D01*
X174702792Y-90517645D01*
X174702789Y-90517643D01*
X174607813Y-90451140D01*
X174519749Y-90389477D01*
X174514767Y-90387154D01*
X174514762Y-90387151D01*
X174317225Y-90295039D01*
X174317224Y-90295039D01*
X174312243Y-90292716D01*
X174306935Y-90291294D01*
X174306933Y-90291293D01*
X174096402Y-90234881D01*
X174096400Y-90234881D01*
X174091087Y-90233457D01*
X173863000Y-90213502D01*
X173634913Y-90233457D01*
X173629600Y-90234881D01*
X173629598Y-90234881D01*
X173419067Y-90291293D01*
X173419065Y-90291294D01*
X173413757Y-90292716D01*
X173408773Y-90295040D01*
X173408765Y-90295043D01*
X173367964Y-90314068D01*
X173297773Y-90324729D01*
X173232960Y-90295748D01*
X173225621Y-90288968D01*
X171478362Y-88541709D01*
X171444336Y-88479397D01*
X171449401Y-88408582D01*
X171452574Y-88400865D01*
X171455128Y-88395194D01*
X171463199Y-88377278D01*
X171465117Y-88370479D01*
X171534893Y-88123072D01*
X171534894Y-88123069D01*
X171536163Y-88118568D01*
X171554043Y-87978019D01*
X171569688Y-87855045D01*
X171569688Y-87855041D01*
X171570086Y-87851915D01*
X171570398Y-87840019D01*
X171571675Y-87791222D01*
X171572571Y-87757000D01*
X171564357Y-87646476D01*
X171552996Y-87493592D01*
X171552996Y-87493591D01*
X171552650Y-87488937D01*
X171551619Y-87484379D01*
X171494361Y-87231331D01*
X171494360Y-87231326D01*
X171493327Y-87226763D01*
X171395902Y-86976238D01*
X171262518Y-86742864D01*
X171255166Y-86733537D01*
X171163414Y-86617151D01*
X171096105Y-86531769D01*
X170900317Y-86347591D01*
X170735857Y-86233500D01*
X170683299Y-86197039D01*
X170683296Y-86197037D01*
X170679457Y-86194374D01*
X170675264Y-86192306D01*
X170442564Y-86077551D01*
X170442561Y-86077550D01*
X170438376Y-86075486D01*
X170429214Y-86072553D01*
X170295534Y-86029762D01*
X170182370Y-85993538D01*
X170177763Y-85992788D01*
X170177760Y-85992787D01*
X169921674Y-85951081D01*
X169921675Y-85951081D01*
X169917063Y-85950330D01*
X169786719Y-85948624D01*
X169652961Y-85946873D01*
X169652958Y-85946873D01*
X169648284Y-85946812D01*
X169381937Y-85983060D01*
X169377451Y-85984368D01*
X169377449Y-85984368D01*
X169351989Y-85991789D01*
X169123874Y-86058278D01*
X169119621Y-86060238D01*
X169119620Y-86060239D01*
X169113592Y-86063018D01*
X168879763Y-86170815D01*
X168858591Y-86184696D01*
X168658881Y-86315631D01*
X168658876Y-86315635D01*
X168654968Y-86318197D01*
X168585387Y-86380301D01*
X168490621Y-86464883D01*
X168454426Y-86497188D01*
X168451433Y-86500786D01*
X168448189Y-86504146D01*
X168447211Y-86503202D01*
X168393295Y-86539421D01*
X168322313Y-86540865D01*
X168261819Y-86503704D01*
X168234730Y-86455710D01*
X168234568Y-86455174D01*
X168233886Y-86452916D01*
X168233527Y-86451704D01*
X168233405Y-86451284D01*
X168207372Y-86361678D01*
X168204900Y-86356910D01*
X168203348Y-86351768D01*
X168200453Y-86346323D01*
X168200450Y-86346316D01*
X168159367Y-86269050D01*
X168158753Y-86267882D01*
X168151863Y-86254588D01*
X168115634Y-86184696D01*
X168112282Y-86180497D01*
X168109761Y-86175756D01*
X168101391Y-86165493D01*
X168050562Y-86103171D01*
X168049734Y-86102145D01*
X168020429Y-86065436D01*
X168020428Y-86065435D01*
X168018232Y-86062684D01*
X168015737Y-86060189D01*
X168015027Y-86059395D01*
X168011307Y-86055040D01*
X167987663Y-86026049D01*
X167987660Y-86026046D01*
X167983768Y-86021274D01*
X167948127Y-85991789D01*
X167939348Y-85983800D01*
X164236239Y-82280691D01*
X164202213Y-82218379D01*
X164207278Y-82147564D01*
X164249825Y-82090728D01*
X164272085Y-82077401D01*
X164354758Y-82038851D01*
X164354764Y-82038847D01*
X164359749Y-82036523D01*
X164465649Y-81962371D01*
X164542789Y-81908357D01*
X164542792Y-81908355D01*
X164547300Y-81905198D01*
X164709198Y-81743300D01*
X164712357Y-81738789D01*
X164799995Y-81613629D01*
X164855452Y-81569301D01*
X164903208Y-81559900D01*
X166175737Y-81559900D01*
X166184308Y-81560192D01*
X166237843Y-81563842D01*
X166245320Y-81562537D01*
X166245321Y-81562537D01*
X166270626Y-81558121D01*
X166296347Y-81553631D01*
X166302865Y-81552670D01*
X166321223Y-81550448D01*
X166354262Y-81546450D01*
X166354264Y-81546450D01*
X166361805Y-81545537D01*
X166368913Y-81542851D01*
X166375879Y-81541140D01*
X166381068Y-81539721D01*
X166387947Y-81537644D01*
X166395424Y-81536339D01*
X166449795Y-81512471D01*
X166455886Y-81509986D01*
X166504336Y-81491679D01*
X166504338Y-81491678D01*
X166511441Y-81488994D01*
X166517702Y-81484691D01*
X166524026Y-81481385D01*
X166528798Y-81478729D01*
X166534944Y-81475094D01*
X166541896Y-81472042D01*
X166589001Y-81435898D01*
X166594334Y-81432023D01*
X166641101Y-81399880D01*
X166708568Y-81377780D01*
X166745081Y-81382014D01*
X166771594Y-81389119D01*
X166771608Y-81389121D01*
X166776913Y-81390543D01*
X167005000Y-81410498D01*
X167233087Y-81390543D01*
X167238398Y-81389120D01*
X167238409Y-81389118D01*
X167265980Y-81381730D01*
X167336956Y-81383419D01*
X167387687Y-81414341D01*
X169566386Y-83593039D01*
X169572239Y-83599304D01*
X169607524Y-83639752D01*
X169628729Y-83654655D01*
X169656099Y-83673891D01*
X169661393Y-83677823D01*
X169708121Y-83714463D01*
X169715047Y-83717590D01*
X169721176Y-83721302D01*
X169725815Y-83723949D01*
X169732182Y-83727363D01*
X169738397Y-83731731D01*
X169745472Y-83734490D01*
X169745475Y-83734491D01*
X169793703Y-83753294D01*
X169799781Y-83755849D01*
X169853912Y-83780290D01*
X169861380Y-83781674D01*
X169868196Y-83783810D01*
X169873368Y-83785284D01*
X169880353Y-83787077D01*
X169887434Y-83789838D01*
X169894971Y-83790830D01*
X169894970Y-83790830D01*
X169946289Y-83797586D01*
X169952805Y-83798618D01*
X170003728Y-83808056D01*
X170003730Y-83808056D01*
X170011197Y-83809440D01*
X170018777Y-83809003D01*
X170018778Y-83809003D01*
X170068968Y-83806109D01*
X170076221Y-83805900D01*
X172344605Y-83805900D01*
X172412726Y-83825902D01*
X172459356Y-83880240D01*
X172460220Y-83882646D01*
X172462433Y-83886765D01*
X172462435Y-83886769D01*
X172528844Y-84010361D01*
X172587450Y-84119431D01*
X172590241Y-84123168D01*
X172590245Y-84123175D01*
X172671887Y-84232506D01*
X172748281Y-84334810D01*
X172751590Y-84338090D01*
X172751595Y-84338096D01*
X172893615Y-84478881D01*
X172939180Y-84524050D01*
X172942942Y-84526808D01*
X172942945Y-84526811D01*
X173150605Y-84679073D01*
X173193713Y-84735484D01*
X173202100Y-84780685D01*
X173202100Y-85326792D01*
X173182098Y-85394913D01*
X173148371Y-85430005D01*
X173023211Y-85517643D01*
X173023208Y-85517645D01*
X173018700Y-85520802D01*
X172856802Y-85682700D01*
X172853645Y-85687208D01*
X172853643Y-85687211D01*
X172839636Y-85707215D01*
X172725477Y-85870251D01*
X172723154Y-85875233D01*
X172723151Y-85875238D01*
X172635589Y-86063018D01*
X172628716Y-86077757D01*
X172627294Y-86083065D01*
X172627293Y-86083067D01*
X172581334Y-86254588D01*
X172569457Y-86298913D01*
X172549502Y-86527000D01*
X172569457Y-86755087D01*
X172570881Y-86760400D01*
X172570881Y-86760402D01*
X172611690Y-86912700D01*
X172628716Y-86976243D01*
X172631039Y-86981224D01*
X172631039Y-86981225D01*
X172723151Y-87178762D01*
X172723154Y-87178767D01*
X172725477Y-87183749D01*
X172798257Y-87287689D01*
X172812309Y-87307757D01*
X172856802Y-87371300D01*
X173018700Y-87533198D01*
X173023208Y-87536355D01*
X173023211Y-87536357D01*
X173101389Y-87591098D01*
X173206251Y-87664523D01*
X173211233Y-87666846D01*
X173211238Y-87666849D01*
X173408775Y-87758961D01*
X173413757Y-87761284D01*
X173419065Y-87762706D01*
X173419067Y-87762707D01*
X173629598Y-87819119D01*
X173629600Y-87819119D01*
X173634913Y-87820543D01*
X173863000Y-87840498D01*
X174091087Y-87820543D01*
X174096400Y-87819119D01*
X174096402Y-87819119D01*
X174306933Y-87762707D01*
X174306935Y-87762706D01*
X174312243Y-87761284D01*
X174317225Y-87758961D01*
X174514762Y-87666849D01*
X174514767Y-87666846D01*
X174519749Y-87664523D01*
X174624611Y-87591098D01*
X174702789Y-87536357D01*
X174702792Y-87536355D01*
X174707300Y-87533198D01*
X174869198Y-87371300D01*
X174913692Y-87307757D01*
X174927743Y-87287689D01*
X175000523Y-87183749D01*
X175002846Y-87178767D01*
X175002849Y-87178762D01*
X175094961Y-86981225D01*
X175094961Y-86981224D01*
X175097284Y-86976243D01*
X175114311Y-86912700D01*
X175155119Y-86760402D01*
X175155119Y-86760400D01*
X175156543Y-86755087D01*
X175176498Y-86527000D01*
X175156543Y-86298913D01*
X175144666Y-86254588D01*
X175098707Y-86083067D01*
X175098706Y-86083065D01*
X175097284Y-86077757D01*
X175090411Y-86063018D01*
X175002849Y-85875238D01*
X175002846Y-85875233D01*
X175000523Y-85870251D01*
X174886364Y-85707215D01*
X174872357Y-85687211D01*
X174872355Y-85687208D01*
X174869198Y-85682700D01*
X174707300Y-85520802D01*
X174702792Y-85517645D01*
X174702789Y-85517643D01*
X174577629Y-85430005D01*
X174533301Y-85374548D01*
X174523900Y-85326792D01*
X174523900Y-85005209D01*
X174543902Y-84937088D01*
X174597558Y-84890595D01*
X174617819Y-84883361D01*
X174702921Y-84860955D01*
X174707441Y-84859765D01*
X174954414Y-84753657D01*
X175074941Y-84679073D01*
X175179017Y-84614669D01*
X175179021Y-84614666D01*
X175182990Y-84612210D01*
X175388149Y-84438530D01*
X175565382Y-84236434D01*
X175570636Y-84228267D01*
X175690321Y-84042195D01*
X175710797Y-84010361D01*
X175821199Y-83765278D01*
X175833602Y-83721302D01*
X175892893Y-83511072D01*
X175892894Y-83511069D01*
X175894163Y-83506568D01*
X175906982Y-83405801D01*
X175927688Y-83243045D01*
X175927688Y-83243041D01*
X175928086Y-83239915D01*
X175928285Y-83232341D01*
X175930089Y-83163398D01*
X175930571Y-83145000D01*
X175929462Y-83130071D01*
X175910996Y-82881592D01*
X175910996Y-82881591D01*
X175910650Y-82876937D01*
X175908598Y-82867868D01*
X175852361Y-82619331D01*
X175852360Y-82619326D01*
X175851327Y-82614763D01*
X175753902Y-82364238D01*
X175620518Y-82130864D01*
X175612249Y-82120374D01*
X175543657Y-82033366D01*
X175454105Y-81919769D01*
X175258317Y-81735591D01*
X175080007Y-81611892D01*
X175041299Y-81585039D01*
X175041296Y-81585037D01*
X175037457Y-81582374D01*
X175033264Y-81580306D01*
X174800564Y-81465551D01*
X174800561Y-81465550D01*
X174796376Y-81463486D01*
X174748745Y-81448239D01*
X174642847Y-81414341D01*
X174540370Y-81381538D01*
X174535763Y-81380788D01*
X174535760Y-81380787D01*
X174279674Y-81339081D01*
X174279675Y-81339081D01*
X174275063Y-81338330D01*
X174144719Y-81336624D01*
X174010961Y-81334873D01*
X174010958Y-81334873D01*
X174006284Y-81334812D01*
X173739937Y-81371060D01*
X173735451Y-81372368D01*
X173735449Y-81372368D01*
X173683849Y-81387408D01*
X173481874Y-81446278D01*
X173237763Y-81558815D01*
X173233854Y-81561378D01*
X173016881Y-81703631D01*
X173016876Y-81703635D01*
X173012968Y-81706197D01*
X172965071Y-81748947D01*
X172849077Y-81852476D01*
X172812426Y-81885188D01*
X172640544Y-82091854D01*
X172638121Y-82095847D01*
X172522556Y-82286292D01*
X172501096Y-82321656D01*
X172499287Y-82325970D01*
X172499285Y-82325974D01*
X172465382Y-82406825D01*
X172420594Y-82461911D01*
X172349185Y-82484100D01*
X170378944Y-82484100D01*
X170310823Y-82464098D01*
X170289849Y-82447195D01*
X169306140Y-81463486D01*
X168322341Y-80479688D01*
X168288316Y-80417376D01*
X168289729Y-80357982D01*
X168297119Y-80330402D01*
X168297119Y-80330400D01*
X168298543Y-80325087D01*
X168318498Y-80097000D01*
X168298543Y-79868913D01*
X168281679Y-79805975D01*
X168240707Y-79653067D01*
X168240706Y-79653065D01*
X168239284Y-79647757D01*
X168235897Y-79640493D01*
X168144849Y-79445238D01*
X168144846Y-79445233D01*
X168142523Y-79440251D01*
X168056377Y-79317222D01*
X168014357Y-79257211D01*
X168014355Y-79257208D01*
X168011198Y-79252700D01*
X167849300Y-79090802D01*
X167844792Y-79087645D01*
X167844789Y-79087643D01*
X167740031Y-79014291D01*
X167661749Y-78959477D01*
X167656767Y-78957154D01*
X167656762Y-78957151D01*
X167459225Y-78865039D01*
X167459224Y-78865039D01*
X167454243Y-78862716D01*
X167448935Y-78861294D01*
X167448933Y-78861293D01*
X167238402Y-78804881D01*
X167238400Y-78804881D01*
X167233087Y-78803457D01*
X167005000Y-78783502D01*
X166776913Y-78803457D01*
X166771600Y-78804881D01*
X166771598Y-78804881D01*
X166561067Y-78861293D01*
X166561065Y-78861294D01*
X166555757Y-78862716D01*
X166550776Y-78865039D01*
X166550775Y-78865039D01*
X166353238Y-78957151D01*
X166353233Y-78957154D01*
X166348251Y-78959477D01*
X166269969Y-79014291D01*
X166165211Y-79087643D01*
X166165208Y-79087645D01*
X166160700Y-79090802D01*
X165998802Y-79252700D01*
X165995645Y-79257208D01*
X165995643Y-79257211D01*
X165953623Y-79317222D01*
X165867477Y-79440251D01*
X165865154Y-79445233D01*
X165865151Y-79445238D01*
X165774103Y-79640493D01*
X165770716Y-79647757D01*
X165769294Y-79653065D01*
X165769293Y-79653067D01*
X165728321Y-79805975D01*
X165711457Y-79868913D01*
X165691502Y-80097000D01*
X165691981Y-80102475D01*
X165691981Y-80107982D01*
X165690484Y-80107982D01*
X165677869Y-80170731D01*
X165628466Y-80221720D01*
X165566341Y-80238100D01*
X164903208Y-80238100D01*
X164835087Y-80218098D01*
X164799995Y-80184371D01*
X164712357Y-80059211D01*
X164712355Y-80059208D01*
X164709198Y-80054700D01*
X164547300Y-79892802D01*
X164542792Y-79889645D01*
X164542789Y-79889643D01*
X164443797Y-79820328D01*
X164359749Y-79761477D01*
X164354767Y-79759154D01*
X164354762Y-79759151D01*
X164157225Y-79667039D01*
X164157224Y-79667039D01*
X164152243Y-79664716D01*
X164146935Y-79663294D01*
X164146933Y-79663293D01*
X163936402Y-79606881D01*
X163936400Y-79606881D01*
X163931087Y-79605457D01*
X163703000Y-79585502D01*
X163474913Y-79605457D01*
X163469600Y-79606881D01*
X163469598Y-79606881D01*
X163259067Y-79663293D01*
X163259065Y-79663294D01*
X163253757Y-79664716D01*
X163248776Y-79667039D01*
X163248775Y-79667039D01*
X163051238Y-79759151D01*
X163051233Y-79759154D01*
X163046251Y-79761477D01*
X162962203Y-79820328D01*
X162863211Y-79889643D01*
X162863208Y-79889645D01*
X162858700Y-79892802D01*
X162696802Y-80054700D01*
X162693645Y-80059208D01*
X162693643Y-80059211D01*
X162667183Y-80097000D01*
X162565477Y-80242251D01*
X162563153Y-80247236D01*
X162563149Y-80247242D01*
X162524599Y-80329915D01*
X162477683Y-80383200D01*
X162409405Y-80402662D01*
X162341445Y-80382121D01*
X162321309Y-80365761D01*
X162216405Y-80260857D01*
X162182379Y-80198545D01*
X162179500Y-80171762D01*
X162179500Y-79945274D01*
X162180237Y-79931666D01*
X162183697Y-79899820D01*
X162183697Y-79899817D01*
X162184362Y-79893696D01*
X162179954Y-79843310D01*
X162179625Y-79838482D01*
X162179500Y-79835927D01*
X162179500Y-79832843D01*
X162177777Y-79815271D01*
X162175278Y-79789781D01*
X162175156Y-79788468D01*
X162170328Y-79733289D01*
X162166988Y-79695108D01*
X162165489Y-79689948D01*
X162164965Y-79684606D01*
X162137883Y-79594904D01*
X162137527Y-79593704D01*
X162111372Y-79503678D01*
X162108900Y-79498910D01*
X162107348Y-79493768D01*
X162104453Y-79488323D01*
X162104450Y-79488316D01*
X162063367Y-79411050D01*
X162062753Y-79409882D01*
X162053434Y-79391902D01*
X162019634Y-79326696D01*
X162016282Y-79322497D01*
X162013761Y-79317756D01*
X161982499Y-79279425D01*
X161954562Y-79245171D01*
X161953734Y-79244145D01*
X161924429Y-79207436D01*
X161924428Y-79207435D01*
X161922232Y-79204684D01*
X161919737Y-79202189D01*
X161919027Y-79201395D01*
X161915307Y-79197040D01*
X161891663Y-79168049D01*
X161891660Y-79168046D01*
X161887768Y-79163274D01*
X161852127Y-79133789D01*
X161843348Y-79125800D01*
X160438405Y-77720857D01*
X160404379Y-77658545D01*
X160401500Y-77631762D01*
X160401500Y-74549000D01*
X170049502Y-74549000D01*
X170069457Y-74777087D01*
X170070881Y-74782400D01*
X170070881Y-74782402D01*
X170127293Y-74992931D01*
X170128716Y-74998243D01*
X170131039Y-75003224D01*
X170131039Y-75003225D01*
X170223151Y-75200762D01*
X170223154Y-75200767D01*
X170225477Y-75205749D01*
X170356802Y-75393300D01*
X170518700Y-75555198D01*
X170523208Y-75558355D01*
X170523211Y-75558357D01*
X170601389Y-75613098D01*
X170706251Y-75686523D01*
X170711233Y-75688846D01*
X170711238Y-75688849D01*
X170908775Y-75780961D01*
X170913757Y-75783284D01*
X170919065Y-75784706D01*
X170919067Y-75784707D01*
X171129598Y-75841119D01*
X171129600Y-75841119D01*
X171134913Y-75842543D01*
X171363000Y-75862498D01*
X171591087Y-75842543D01*
X171596398Y-75841120D01*
X171596409Y-75841118D01*
X171623980Y-75833730D01*
X171694956Y-75835419D01*
X171745687Y-75866341D01*
X172709396Y-76830050D01*
X172743422Y-76892362D01*
X172738357Y-76963177D01*
X172717177Y-76999712D01*
X172640544Y-77091854D01*
X172501096Y-77321656D01*
X172499287Y-77325970D01*
X172499285Y-77325974D01*
X172409137Y-77540955D01*
X172397148Y-77569545D01*
X172330981Y-77830077D01*
X172304050Y-78097526D01*
X172304274Y-78102192D01*
X172304274Y-78102197D01*
X172308432Y-78188755D01*
X172316947Y-78366019D01*
X172369388Y-78629656D01*
X172460220Y-78882646D01*
X172587450Y-79119431D01*
X172590241Y-79123168D01*
X172590245Y-79123175D01*
X172690335Y-79257211D01*
X172748281Y-79334810D01*
X172751590Y-79338090D01*
X172751595Y-79338096D01*
X172919837Y-79504875D01*
X172939180Y-79524050D01*
X172942942Y-79526808D01*
X172942945Y-79526811D01*
X173133092Y-79666232D01*
X173155954Y-79682995D01*
X173160089Y-79685171D01*
X173160093Y-79685173D01*
X173356423Y-79788468D01*
X173393840Y-79808154D01*
X173647613Y-79896775D01*
X173652206Y-79897647D01*
X173907109Y-79946042D01*
X173907112Y-79946042D01*
X173911698Y-79946913D01*
X174039370Y-79951929D01*
X174175625Y-79957283D01*
X174175630Y-79957283D01*
X174180293Y-79957466D01*
X174291620Y-79945274D01*
X174442844Y-79928713D01*
X174442850Y-79928712D01*
X174447497Y-79928203D01*
X174537417Y-79904529D01*
X174702918Y-79860956D01*
X174702920Y-79860955D01*
X174707441Y-79859765D01*
X174715788Y-79856179D01*
X174950120Y-79755502D01*
X174950122Y-79755501D01*
X174954414Y-79753657D01*
X175065083Y-79685173D01*
X175179017Y-79614669D01*
X175179021Y-79614666D01*
X175182990Y-79612210D01*
X175388149Y-79438530D01*
X175565382Y-79236434D01*
X175585805Y-79204684D01*
X175708269Y-79014291D01*
X175710797Y-79010361D01*
X175821199Y-78765278D01*
X175858337Y-78633598D01*
X175892893Y-78511072D01*
X175892894Y-78511069D01*
X175894163Y-78506568D01*
X175911460Y-78370604D01*
X175927688Y-78243045D01*
X175927688Y-78243041D01*
X175928086Y-78239915D01*
X175928385Y-78228521D01*
X175930488Y-78148160D01*
X175930571Y-78145000D01*
X175921482Y-78022700D01*
X175910996Y-77881592D01*
X175910996Y-77881591D01*
X175910650Y-77876937D01*
X175906999Y-77860802D01*
X175852361Y-77619331D01*
X175852360Y-77619326D01*
X175851327Y-77614763D01*
X175753902Y-77364238D01*
X175620518Y-77130864D01*
X175604953Y-77111119D01*
X175483079Y-76956523D01*
X175454105Y-76919769D01*
X175258317Y-76735591D01*
X175037457Y-76582374D01*
X175033264Y-76580306D01*
X174800564Y-76465551D01*
X174800561Y-76465550D01*
X174796376Y-76463486D01*
X174540370Y-76381538D01*
X174535763Y-76380788D01*
X174535760Y-76380787D01*
X174279674Y-76339081D01*
X174279675Y-76339081D01*
X174275063Y-76338330D01*
X174220660Y-76337618D01*
X174135711Y-76336506D01*
X174067858Y-76315614D01*
X174048265Y-76299612D01*
X172680341Y-74931688D01*
X172646315Y-74869376D01*
X172647729Y-74809982D01*
X172655119Y-74782402D01*
X172655119Y-74782400D01*
X172656543Y-74777087D01*
X172676498Y-74549000D01*
X172656543Y-74320913D01*
X172633361Y-74234397D01*
X172598707Y-74105067D01*
X172598706Y-74105065D01*
X172597284Y-74099757D01*
X172582759Y-74068608D01*
X172502849Y-73897238D01*
X172502846Y-73897233D01*
X172500523Y-73892251D01*
X172394878Y-73741375D01*
X172372357Y-73709211D01*
X172372355Y-73709208D01*
X172369198Y-73704700D01*
X172207300Y-73542802D01*
X172202792Y-73539645D01*
X172202789Y-73539643D01*
X172077629Y-73452005D01*
X172033301Y-73396548D01*
X172023900Y-73348792D01*
X172023900Y-72317382D01*
X172043902Y-72249261D01*
X172097558Y-72202768D01*
X172167832Y-72192664D01*
X172196283Y-72200230D01*
X172253500Y-72222883D01*
X172318261Y-72248524D01*
X172322096Y-72249509D01*
X172322100Y-72249510D01*
X172472313Y-72288078D01*
X172626364Y-72327632D01*
X172630292Y-72328128D01*
X172630296Y-72328129D01*
X172755276Y-72343917D01*
X172941952Y-72367500D01*
X173260048Y-72367500D01*
X173446724Y-72343917D01*
X173571704Y-72328129D01*
X173571708Y-72328128D01*
X173575636Y-72327632D01*
X173736653Y-72286290D01*
X173879896Y-72249511D01*
X173879900Y-72249510D01*
X173883739Y-72248524D01*
X173887419Y-72247067D01*
X173887422Y-72247066D01*
X174102337Y-72161975D01*
X174179498Y-72131425D01*
X174182960Y-72129522D01*
X174454776Y-71980090D01*
X174454779Y-71980088D01*
X174458248Y-71978181D01*
X174461452Y-71975853D01*
X174461457Y-71975850D01*
X174712390Y-71793537D01*
X174712392Y-71793536D01*
X174715594Y-71791209D01*
X174743715Y-71764802D01*
X174880199Y-71636634D01*
X174947476Y-71573456D01*
X175129242Y-71353739D01*
X175147716Y-71331408D01*
X175147719Y-71331404D01*
X175150238Y-71328359D01*
X175274836Y-71132024D01*
X175318559Y-71063128D01*
X175318559Y-71063127D01*
X175320683Y-71059781D01*
X175322367Y-71056202D01*
X175322371Y-71056195D01*
X175454433Y-70775549D01*
X175454435Y-70775545D01*
X175456122Y-70771959D01*
X175467031Y-70738386D01*
X175520719Y-70573149D01*
X175554419Y-70469431D01*
X175614025Y-70156969D01*
X175633998Y-69839500D01*
X175614025Y-69522031D01*
X175554419Y-69209569D01*
X175456122Y-68907041D01*
X175454003Y-68902537D01*
X175322371Y-68622805D01*
X175322367Y-68622798D01*
X175320683Y-68619219D01*
X175150238Y-68350641D01*
X174947476Y-68105544D01*
X174842413Y-68006883D01*
X174718480Y-67890501D01*
X174718479Y-67890500D01*
X174715594Y-67887791D01*
X174712390Y-67885463D01*
X174461457Y-67703150D01*
X174461452Y-67703147D01*
X174458248Y-67700819D01*
X174448932Y-67695697D01*
X174182960Y-67549478D01*
X174182957Y-67549477D01*
X174179498Y-67547575D01*
X173893226Y-67434232D01*
X173887422Y-67431934D01*
X173887419Y-67431933D01*
X173883739Y-67430476D01*
X173879900Y-67429490D01*
X173879896Y-67429489D01*
X173675765Y-67377077D01*
X173575636Y-67351368D01*
X173571708Y-67350872D01*
X173571704Y-67350871D01*
X173446723Y-67335083D01*
X173260048Y-67311500D01*
X172941952Y-67311500D01*
X172755277Y-67335083D01*
X172630296Y-67350871D01*
X172630292Y-67350872D01*
X172626364Y-67351368D01*
X172526235Y-67377077D01*
X172322104Y-67429489D01*
X172322100Y-67429490D01*
X172318261Y-67430476D01*
X172314581Y-67431933D01*
X172314578Y-67431934D01*
X172308774Y-67434232D01*
X172022502Y-67547575D01*
X172019043Y-67549477D01*
X172019040Y-67549478D01*
X171753069Y-67695697D01*
X171743752Y-67700819D01*
X171740548Y-67703147D01*
X171740543Y-67703150D01*
X171489610Y-67885463D01*
X171486406Y-67887791D01*
X171483521Y-67890500D01*
X171483520Y-67890501D01*
X171359587Y-68006883D01*
X171254524Y-68105544D01*
X171051762Y-68350641D01*
X170881317Y-68619219D01*
X170879633Y-68622798D01*
X170879629Y-68622805D01*
X170747997Y-68902537D01*
X170745878Y-68907041D01*
X170647581Y-69209569D01*
X170587975Y-69522031D01*
X170568002Y-69839500D01*
X170587975Y-70156969D01*
X170647581Y-70469431D01*
X170681281Y-70573149D01*
X170734970Y-70738386D01*
X170745878Y-70771959D01*
X170747565Y-70775545D01*
X170747567Y-70775549D01*
X170865276Y-71025693D01*
X170876182Y-71095847D01*
X170854355Y-71151792D01*
X170834109Y-71180599D01*
X170830177Y-71185893D01*
X170793537Y-71232621D01*
X170790411Y-71239545D01*
X170786698Y-71245676D01*
X170784062Y-71250296D01*
X170780640Y-71256678D01*
X170776269Y-71262897D01*
X170773509Y-71269976D01*
X170754702Y-71318213D01*
X170752146Y-71324292D01*
X170727711Y-71378412D01*
X170726325Y-71385888D01*
X170724170Y-71392766D01*
X170722710Y-71397891D01*
X170720922Y-71404855D01*
X170718162Y-71411934D01*
X170717170Y-71419466D01*
X170717170Y-71419468D01*
X170710414Y-71470792D01*
X170709384Y-71477298D01*
X170698560Y-71535697D01*
X170698997Y-71543277D01*
X170698997Y-71543278D01*
X170701891Y-71593467D01*
X170702100Y-71600720D01*
X170702100Y-73348792D01*
X170682098Y-73416913D01*
X170648371Y-73452005D01*
X170523211Y-73539643D01*
X170523208Y-73539645D01*
X170518700Y-73542802D01*
X170356802Y-73704700D01*
X170353645Y-73709208D01*
X170353643Y-73709211D01*
X170331122Y-73741375D01*
X170225477Y-73892251D01*
X170223154Y-73897233D01*
X170223151Y-73897238D01*
X170143241Y-74068608D01*
X170128716Y-74099757D01*
X170127294Y-74105065D01*
X170127293Y-74105067D01*
X170092639Y-74234397D01*
X170069457Y-74320913D01*
X170049502Y-74549000D01*
X160401500Y-74549000D01*
X160401500Y-74148315D01*
X160424287Y-74076044D01*
X160475460Y-74002961D01*
X160522523Y-73935749D01*
X160524846Y-73930767D01*
X160524849Y-73930762D01*
X160616961Y-73733225D01*
X160616961Y-73733224D01*
X160619284Y-73728243D01*
X160625593Y-73704700D01*
X160677119Y-73512402D01*
X160677119Y-73512400D01*
X160678543Y-73507087D01*
X160698498Y-73279000D01*
X160678543Y-73050913D01*
X160677119Y-73045598D01*
X160620707Y-72835067D01*
X160620706Y-72835065D01*
X160619284Y-72829757D01*
X160597583Y-72783219D01*
X160524849Y-72627238D01*
X160524846Y-72627233D01*
X160522523Y-72622251D01*
X160432869Y-72494212D01*
X160394357Y-72439211D01*
X160394355Y-72439208D01*
X160391198Y-72434700D01*
X160229300Y-72272802D01*
X160224792Y-72269645D01*
X160224789Y-72269643D01*
X160071023Y-72161975D01*
X160041749Y-72141477D01*
X160036767Y-72139154D01*
X160036762Y-72139151D01*
X159839225Y-72047039D01*
X159839224Y-72047039D01*
X159834243Y-72044716D01*
X159828935Y-72043294D01*
X159828933Y-72043293D01*
X159750748Y-72022343D01*
X159613087Y-71985457D01*
X159583272Y-71982848D01*
X159566627Y-71981392D01*
X159500509Y-71955529D01*
X159488515Y-71944967D01*
X157136405Y-69592857D01*
X157102379Y-69530545D01*
X157099500Y-69503762D01*
X157099500Y-69087500D01*
X157119502Y-69019379D01*
X157173158Y-68972886D01*
X157225500Y-68961500D01*
X158301685Y-68961500D01*
X158373956Y-68984287D01*
X158386354Y-68992968D01*
X158514251Y-69082523D01*
X158519233Y-69084846D01*
X158519238Y-69084849D01*
X158716775Y-69176961D01*
X158721757Y-69179284D01*
X158727065Y-69180706D01*
X158727067Y-69180707D01*
X158937598Y-69237119D01*
X158937600Y-69237119D01*
X158942913Y-69238543D01*
X159171000Y-69258498D01*
X159399087Y-69238543D01*
X159404400Y-69237119D01*
X159404402Y-69237119D01*
X159614933Y-69180707D01*
X159614935Y-69180706D01*
X159620243Y-69179284D01*
X159625225Y-69176961D01*
X159822762Y-69084849D01*
X159822767Y-69084846D01*
X159827749Y-69082523D01*
X159932611Y-69009098D01*
X160010789Y-68954357D01*
X160010792Y-68954355D01*
X160015300Y-68951198D01*
X160177198Y-68789300D01*
X160185966Y-68776779D01*
X160298634Y-68615872D01*
X160308523Y-68601749D01*
X160310846Y-68596767D01*
X160310849Y-68596762D01*
X160402961Y-68399225D01*
X160402961Y-68399224D01*
X160405284Y-68394243D01*
X160442855Y-68254029D01*
X160463119Y-68178402D01*
X160463119Y-68178400D01*
X160464543Y-68173087D01*
X160484498Y-67945000D01*
X160464543Y-67716913D01*
X160460855Y-67703150D01*
X160406707Y-67501067D01*
X160406706Y-67501065D01*
X160405284Y-67495757D01*
X160402961Y-67490775D01*
X160310849Y-67293238D01*
X160310846Y-67293233D01*
X160308523Y-67288251D01*
X160177198Y-67100700D01*
X160015300Y-66938802D01*
X160010792Y-66935645D01*
X160010789Y-66935643D01*
X159902112Y-66859547D01*
X159827749Y-66807477D01*
X159822767Y-66805154D01*
X159822762Y-66805151D01*
X159625225Y-66713039D01*
X159625224Y-66713039D01*
X159620243Y-66710716D01*
X159614935Y-66709294D01*
X159614933Y-66709293D01*
X159404402Y-66652881D01*
X159404400Y-66652881D01*
X159399087Y-66651457D01*
X159171000Y-66631502D01*
X158942913Y-66651457D01*
X158937600Y-66652881D01*
X158937598Y-66652881D01*
X158727067Y-66709293D01*
X158727065Y-66709294D01*
X158721757Y-66710716D01*
X158716776Y-66713039D01*
X158716775Y-66713039D01*
X158519238Y-66805151D01*
X158519233Y-66805154D01*
X158514251Y-66807477D01*
X158439888Y-66859547D01*
X158373956Y-66905713D01*
X158301685Y-66928500D01*
X156952315Y-66928500D01*
X156880044Y-66905713D01*
X156814112Y-66859547D01*
X156739749Y-66807477D01*
X156734767Y-66805154D01*
X156734762Y-66805151D01*
X156537225Y-66713039D01*
X156537224Y-66713039D01*
X156532243Y-66710716D01*
X156526935Y-66709294D01*
X156526933Y-66709293D01*
X156398950Y-66675000D01*
X156311087Y-66651457D01*
X156281272Y-66648848D01*
X156264627Y-66647392D01*
X156198509Y-66621529D01*
X156186515Y-66610967D01*
X154813815Y-65238267D01*
X154804713Y-65228124D01*
X154784634Y-65203151D01*
X154780775Y-65198351D01*
X154741998Y-65165813D01*
X154738371Y-65162649D01*
X154736502Y-65160954D01*
X154734308Y-65158760D01*
X154700742Y-65131188D01*
X154699945Y-65130526D01*
X154628067Y-65070214D01*
X154623361Y-65067627D01*
X154619211Y-65064218D01*
X154613787Y-65061310D01*
X154613777Y-65061303D01*
X154536632Y-65019939D01*
X154535472Y-65019310D01*
X154517972Y-65009689D01*
X154453379Y-64974179D01*
X154448259Y-64972555D01*
X154443526Y-64970017D01*
X154354007Y-64942648D01*
X154352748Y-64942256D01*
X154269239Y-64915765D01*
X154269235Y-64915764D01*
X154263365Y-64913902D01*
X154258027Y-64913303D01*
X154252891Y-64911733D01*
X154246760Y-64911110D01*
X154246759Y-64911110D01*
X154227456Y-64909149D01*
X154159569Y-64902254D01*
X154158449Y-64902134D01*
X154108216Y-64896500D01*
X154104711Y-64896500D01*
X154103603Y-64896438D01*
X154097908Y-64895990D01*
X154060695Y-64892210D01*
X154060688Y-64892210D01*
X154054565Y-64891588D01*
X154008515Y-64895941D01*
X153996657Y-64896500D01*
X134541111Y-64896500D01*
X134528378Y-64895855D01*
X134492498Y-64892210D01*
X134492493Y-64892210D01*
X134486370Y-64891588D01*
X134440320Y-64895941D01*
X134428462Y-64896500D01*
X133076315Y-64896500D01*
X133004044Y-64873713D01*
X132991371Y-64864839D01*
X132863749Y-64775477D01*
X132858767Y-64773154D01*
X132858762Y-64773151D01*
X132661225Y-64681039D01*
X132661224Y-64681039D01*
X132656243Y-64678716D01*
X132650935Y-64677294D01*
X132650933Y-64677293D01*
X132440402Y-64620881D01*
X132440400Y-64620881D01*
X132435087Y-64619457D01*
X132207000Y-64599502D01*
X131978913Y-64619457D01*
X131973600Y-64620881D01*
X131973598Y-64620881D01*
X131763067Y-64677293D01*
X131763065Y-64677294D01*
X131757757Y-64678716D01*
X131752776Y-64681039D01*
X131752775Y-64681039D01*
X131555238Y-64773151D01*
X131555233Y-64773154D01*
X131550251Y-64775477D01*
X131445389Y-64848902D01*
X131367211Y-64903643D01*
X131367208Y-64903645D01*
X131362700Y-64906802D01*
X131200802Y-65068700D01*
X131197645Y-65073208D01*
X131197643Y-65073211D01*
X131157542Y-65130482D01*
X131069477Y-65256251D01*
X131067154Y-65261233D01*
X131067151Y-65261238D01*
X131022465Y-65357069D01*
X130972716Y-65463757D01*
X130971292Y-65469070D01*
X130971292Y-65469071D01*
X130945558Y-65565111D01*
X130908606Y-65625734D01*
X130844746Y-65656755D01*
X130823851Y-65658500D01*
X128075669Y-65658500D01*
X128007548Y-65638498D01*
X127997577Y-65631382D01*
X127885414Y-65542800D01*
X127885410Y-65542798D01*
X127881359Y-65539598D01*
X127849305Y-65521903D01*
X127804709Y-65497285D01*
X127685789Y-65431638D01*
X127680920Y-65429914D01*
X127680916Y-65429912D01*
X127480087Y-65358795D01*
X127480083Y-65358794D01*
X127475212Y-65357069D01*
X127470119Y-65356162D01*
X127470116Y-65356161D01*
X127260373Y-65318800D01*
X127260367Y-65318799D01*
X127255284Y-65317894D01*
X127181452Y-65316992D01*
X127037081Y-65315228D01*
X127037079Y-65315228D01*
X127031911Y-65315165D01*
X126811091Y-65348955D01*
X126598756Y-65418357D01*
X126400607Y-65521507D01*
X126396474Y-65524610D01*
X126396471Y-65524612D01*
X126261789Y-65625734D01*
X126221965Y-65655635D01*
X126067629Y-65817138D01*
X125941743Y-66001680D01*
X125912117Y-66065505D01*
X125874702Y-66146109D01*
X125847688Y-66204305D01*
X125787989Y-66419570D01*
X125764251Y-66641695D01*
X125764548Y-66646848D01*
X125764548Y-66646851D01*
X125770011Y-66741590D01*
X125777110Y-66864715D01*
X125778247Y-66869761D01*
X125778248Y-66869767D01*
X125796218Y-66949502D01*
X125826222Y-67082639D01*
X125910266Y-67289616D01*
X125951766Y-67357338D01*
X126018434Y-67466130D01*
X126026987Y-67480088D01*
X126074094Y-67534469D01*
X126079737Y-67540984D01*
X126109220Y-67605570D01*
X126110500Y-67623482D01*
X126110500Y-69107685D01*
X126087713Y-69179956D01*
X125989477Y-69320251D01*
X125987154Y-69325233D01*
X125987151Y-69325238D01*
X125939247Y-69427970D01*
X125892716Y-69527757D01*
X125833457Y-69748913D01*
X125813502Y-69977000D01*
X125833457Y-70205087D01*
X125834881Y-70210402D01*
X125834882Y-70210407D01*
X125835362Y-70212198D01*
X125835343Y-70213018D01*
X125835836Y-70215817D01*
X125835274Y-70215916D01*
X125833675Y-70283175D01*
X125793883Y-70341972D01*
X125728620Y-70369922D01*
X125658606Y-70358152D01*
X125624562Y-70333909D01*
X123542273Y-68251620D01*
X123508247Y-68189308D01*
X123513312Y-68118493D01*
X123555859Y-68061657D01*
X123625657Y-68036654D01*
X123627659Y-68036563D01*
X123632837Y-68036753D01*
X123804145Y-68014808D01*
X123849288Y-68009025D01*
X123849289Y-68009025D01*
X123854416Y-68008368D01*
X123864032Y-68005483D01*
X124063429Y-67945661D01*
X124063434Y-67945659D01*
X124068384Y-67944174D01*
X124268994Y-67845896D01*
X124450860Y-67716173D01*
X124458990Y-67708072D01*
X124546292Y-67621074D01*
X124609096Y-67558489D01*
X124616939Y-67547575D01*
X124736435Y-67381277D01*
X124739453Y-67377077D01*
X124748114Y-67359554D01*
X124836136Y-67181453D01*
X124836137Y-67181451D01*
X124838430Y-67176811D01*
X124903370Y-66963069D01*
X124932529Y-66741590D01*
X124933227Y-66713039D01*
X124934074Y-66678365D01*
X124934074Y-66678361D01*
X124934156Y-66675000D01*
X124915852Y-66452361D01*
X124861431Y-66235702D01*
X124772354Y-66030840D01*
X124651014Y-65843277D01*
X124500670Y-65678051D01*
X124482594Y-65663775D01*
X124441532Y-65605858D01*
X124438301Y-65534935D01*
X124473926Y-65473524D01*
X124507036Y-65450888D01*
X124781869Y-65321562D01*
X125048375Y-65152432D01*
X125208531Y-65019939D01*
X125288530Y-64953758D01*
X125288531Y-64953757D01*
X125291582Y-64951233D01*
X125507654Y-64721140D01*
X125693184Y-64465779D01*
X125845247Y-64189179D01*
X125961443Y-63895702D01*
X126039940Y-63589975D01*
X126079500Y-63276821D01*
X126079500Y-62961179D01*
X126039940Y-62648025D01*
X125961443Y-62342298D01*
X125943279Y-62296420D01*
X167102870Y-62296420D01*
X167137875Y-62553636D01*
X167139184Y-62558126D01*
X167139185Y-62558132D01*
X167152205Y-62602801D01*
X167210515Y-62802852D01*
X167319194Y-63038594D01*
X167321754Y-63042499D01*
X167321757Y-63042504D01*
X167458957Y-63251770D01*
X167458961Y-63251775D01*
X167461523Y-63255683D01*
X167634377Y-63449350D01*
X167833959Y-63615339D01*
X168055882Y-63750006D01*
X168060196Y-63751815D01*
X168060200Y-63751817D01*
X168108279Y-63771978D01*
X168295274Y-63850391D01*
X168546873Y-63914289D01*
X168762481Y-63936000D01*
X168916896Y-63936000D01*
X168919221Y-63935827D01*
X168919227Y-63935827D01*
X169105221Y-63922005D01*
X169105225Y-63922004D01*
X169109873Y-63921659D01*
X169363059Y-63864369D01*
X169396044Y-63851542D01*
X169600643Y-63771978D01*
X169600645Y-63771977D01*
X169604996Y-63770285D01*
X169637309Y-63751817D01*
X169687956Y-63722869D01*
X169830369Y-63641474D01*
X170034227Y-63480765D01*
X170212091Y-63291690D01*
X170360055Y-63078401D01*
X170362123Y-63074208D01*
X170472802Y-62849773D01*
X170472803Y-62849770D01*
X170474867Y-62845585D01*
X170554006Y-62598356D01*
X170595732Y-62342144D01*
X170596331Y-62296420D01*
X175602870Y-62296420D01*
X175637875Y-62553636D01*
X175639184Y-62558126D01*
X175639185Y-62558132D01*
X175652205Y-62602801D01*
X175710515Y-62802852D01*
X175819194Y-63038594D01*
X175821754Y-63042499D01*
X175821757Y-63042504D01*
X175958957Y-63251770D01*
X175958961Y-63251775D01*
X175961523Y-63255683D01*
X176134377Y-63449350D01*
X176333959Y-63615339D01*
X176555882Y-63750006D01*
X176560196Y-63751815D01*
X176560200Y-63751817D01*
X176608279Y-63771978D01*
X176795274Y-63850391D01*
X177046873Y-63914289D01*
X177262481Y-63936000D01*
X177416896Y-63936000D01*
X177419221Y-63935827D01*
X177419227Y-63935827D01*
X177605221Y-63922005D01*
X177605225Y-63922004D01*
X177609873Y-63921659D01*
X177863059Y-63864369D01*
X177896044Y-63851542D01*
X178100643Y-63771978D01*
X178100645Y-63771977D01*
X178104996Y-63770285D01*
X178137309Y-63751817D01*
X178187956Y-63722869D01*
X178330369Y-63641474D01*
X178534227Y-63480765D01*
X178712091Y-63291690D01*
X178860055Y-63078401D01*
X178862123Y-63074208D01*
X178972802Y-62849773D01*
X178972803Y-62849770D01*
X178974867Y-62845585D01*
X179054006Y-62598356D01*
X179095732Y-62342144D01*
X179099130Y-62082580D01*
X179064125Y-61825364D01*
X179051091Y-61780644D01*
X179031951Y-61714980D01*
X178991485Y-61576148D01*
X178882806Y-61340406D01*
X178854189Y-61296757D01*
X178743043Y-61127230D01*
X178743039Y-61127225D01*
X178740477Y-61123317D01*
X178644185Y-61015431D01*
X178570740Y-60933142D01*
X178570738Y-60933140D01*
X178567623Y-60929650D01*
X178368041Y-60763661D01*
X178146118Y-60628994D01*
X178141804Y-60627185D01*
X178141800Y-60627183D01*
X177911040Y-60530418D01*
X177906726Y-60528609D01*
X177655127Y-60464711D01*
X177439519Y-60443000D01*
X177285104Y-60443000D01*
X177282779Y-60443173D01*
X177282773Y-60443173D01*
X177096779Y-60456995D01*
X177096775Y-60456996D01*
X177092127Y-60457341D01*
X176838941Y-60514631D01*
X176834589Y-60516323D01*
X176834587Y-60516324D01*
X176601357Y-60607022D01*
X176601355Y-60607023D01*
X176597004Y-60608715D01*
X176592950Y-60611032D01*
X176592948Y-60611033D01*
X176561523Y-60628994D01*
X176371631Y-60737526D01*
X176167773Y-60898235D01*
X175989909Y-61087310D01*
X175987241Y-61091156D01*
X175851541Y-61286767D01*
X175841945Y-61300599D01*
X175839878Y-61304789D01*
X175839877Y-61304792D01*
X175824243Y-61336496D01*
X175727133Y-61533415D01*
X175647994Y-61780644D01*
X175606268Y-62036856D01*
X175602870Y-62296420D01*
X170596331Y-62296420D01*
X170599130Y-62082580D01*
X170564125Y-61825364D01*
X170551091Y-61780644D01*
X170531951Y-61714980D01*
X170491485Y-61576148D01*
X170382806Y-61340406D01*
X170354189Y-61296757D01*
X170243043Y-61127230D01*
X170243039Y-61127225D01*
X170240477Y-61123317D01*
X170144185Y-61015431D01*
X170070740Y-60933142D01*
X170070738Y-60933140D01*
X170067623Y-60929650D01*
X169868041Y-60763661D01*
X169646118Y-60628994D01*
X169641804Y-60627185D01*
X169641800Y-60627183D01*
X169411040Y-60530418D01*
X169406726Y-60528609D01*
X169155127Y-60464711D01*
X168939519Y-60443000D01*
X168785104Y-60443000D01*
X168782779Y-60443173D01*
X168782773Y-60443173D01*
X168596779Y-60456995D01*
X168596775Y-60456996D01*
X168592127Y-60457341D01*
X168338941Y-60514631D01*
X168334589Y-60516323D01*
X168334587Y-60516324D01*
X168101357Y-60607022D01*
X168101355Y-60607023D01*
X168097004Y-60608715D01*
X168092950Y-60611032D01*
X168092948Y-60611033D01*
X168061523Y-60628994D01*
X167871631Y-60737526D01*
X167667773Y-60898235D01*
X167489909Y-61087310D01*
X167487241Y-61091156D01*
X167351541Y-61286767D01*
X167341945Y-61300599D01*
X167339878Y-61304789D01*
X167339877Y-61304792D01*
X167324243Y-61336496D01*
X167227133Y-61533415D01*
X167147994Y-61780644D01*
X167106268Y-62036856D01*
X167102870Y-62296420D01*
X125943279Y-62296420D01*
X125845247Y-62048821D01*
X125693184Y-61772221D01*
X125507654Y-61516860D01*
X125291582Y-61286767D01*
X125048375Y-61085568D01*
X124781869Y-60916438D01*
X124778290Y-60914754D01*
X124778283Y-60914750D01*
X124499856Y-60783733D01*
X124499852Y-60783731D01*
X124496266Y-60782044D01*
X124196072Y-60684505D01*
X123923139Y-60632440D01*
X123859973Y-60600028D01*
X123824357Y-60538611D01*
X123827601Y-60467688D01*
X123868673Y-60409778D01*
X123907812Y-60388839D01*
X123934785Y-60380075D01*
X123963167Y-60363689D01*
X124090994Y-60289888D01*
X124096715Y-60286585D01*
X124101623Y-60282166D01*
X124230766Y-60165885D01*
X124230767Y-60165883D01*
X124235669Y-60161470D01*
X124345573Y-60010200D01*
X124421625Y-59839385D01*
X124460500Y-59656490D01*
X124460500Y-59529695D01*
X125764251Y-59529695D01*
X125764548Y-59534848D01*
X125764548Y-59534851D01*
X125775624Y-59726943D01*
X125777110Y-59752715D01*
X125778247Y-59757761D01*
X125778248Y-59757767D01*
X125795187Y-59832928D01*
X125826222Y-59970639D01*
X125864461Y-60064811D01*
X125905503Y-60165885D01*
X125910266Y-60177616D01*
X125912965Y-60182020D01*
X126024182Y-60363510D01*
X126026987Y-60368088D01*
X126030367Y-60371990D01*
X126039138Y-60382116D01*
X126173250Y-60536938D01*
X126345126Y-60679632D01*
X126538000Y-60792338D01*
X126746692Y-60872030D01*
X126751760Y-60873061D01*
X126751763Y-60873062D01*
X126859017Y-60894883D01*
X126965597Y-60916567D01*
X126970772Y-60916757D01*
X126970774Y-60916757D01*
X127183673Y-60924564D01*
X127183677Y-60924564D01*
X127188837Y-60924753D01*
X127193957Y-60924097D01*
X127193959Y-60924097D01*
X127405288Y-60897025D01*
X127405289Y-60897025D01*
X127410416Y-60896368D01*
X127415366Y-60894883D01*
X127619429Y-60833661D01*
X127619434Y-60833659D01*
X127624384Y-60832174D01*
X127824994Y-60733896D01*
X128006860Y-60604173D01*
X128035340Y-60575793D01*
X128161435Y-60450137D01*
X128165096Y-60446489D01*
X128191476Y-60409778D01*
X128292435Y-60269277D01*
X128295453Y-60265077D01*
X128318914Y-60217608D01*
X128392136Y-60069453D01*
X128392137Y-60069451D01*
X128394430Y-60064811D01*
X128446361Y-59893888D01*
X128457865Y-59856023D01*
X128457865Y-59856021D01*
X128459370Y-59851069D01*
X128488529Y-59629590D01*
X128490156Y-59563000D01*
X128471852Y-59340361D01*
X128417431Y-59123702D01*
X128328354Y-58918840D01*
X128218628Y-58749229D01*
X128209822Y-58735617D01*
X128209820Y-58735614D01*
X128207014Y-58731277D01*
X128056670Y-58566051D01*
X128052619Y-58562852D01*
X128052615Y-58562848D01*
X127885414Y-58430800D01*
X127885410Y-58430798D01*
X127881359Y-58427598D01*
X127685789Y-58319638D01*
X127680920Y-58317914D01*
X127680916Y-58317912D01*
X127480087Y-58246795D01*
X127480083Y-58246794D01*
X127475212Y-58245069D01*
X127470119Y-58244162D01*
X127470116Y-58244161D01*
X127260373Y-58206800D01*
X127260367Y-58206799D01*
X127255284Y-58205894D01*
X127181452Y-58204992D01*
X127037081Y-58203228D01*
X127037079Y-58203228D01*
X127031911Y-58203165D01*
X126811091Y-58236955D01*
X126598756Y-58306357D01*
X126400607Y-58409507D01*
X126396474Y-58412610D01*
X126396471Y-58412612D01*
X126226100Y-58540530D01*
X126221965Y-58543635D01*
X126067629Y-58705138D01*
X125941743Y-58889680D01*
X125847688Y-59092305D01*
X125787989Y-59307570D01*
X125764251Y-59529695D01*
X124460500Y-59529695D01*
X124460500Y-59469510D01*
X124459110Y-59462968D01*
X124422997Y-59293072D01*
X124421625Y-59286615D01*
X124418940Y-59280584D01*
X124348258Y-59121830D01*
X124348257Y-59121828D01*
X124345573Y-59115800D01*
X124235669Y-58964530D01*
X124189757Y-58923190D01*
X124101623Y-58843834D01*
X124101622Y-58843833D01*
X124096715Y-58839415D01*
X123934785Y-58745925D01*
X123797754Y-58701401D01*
X123763235Y-58690185D01*
X123763234Y-58690185D01*
X123756956Y-58688145D01*
X123750393Y-58687455D01*
X123750392Y-58687455D01*
X123727803Y-58685081D01*
X123617620Y-58673500D01*
X123524380Y-58673500D01*
X123414197Y-58685081D01*
X123391608Y-58687455D01*
X123391607Y-58687455D01*
X123385044Y-58688145D01*
X123378766Y-58690185D01*
X123378765Y-58690185D01*
X123344246Y-58701401D01*
X123207215Y-58745925D01*
X123045285Y-58839415D01*
X123040378Y-58843833D01*
X123040377Y-58843834D01*
X122952244Y-58923190D01*
X122906331Y-58964530D01*
X122796427Y-59115800D01*
X122793743Y-59121828D01*
X122793742Y-59121830D01*
X122723060Y-59280584D01*
X122720375Y-59286615D01*
X122719003Y-59293072D01*
X122682891Y-59462968D01*
X122681500Y-59469510D01*
X122681500Y-59656490D01*
X122720375Y-59839385D01*
X122796427Y-60010200D01*
X122906331Y-60161470D01*
X122911233Y-60165883D01*
X122911234Y-60165885D01*
X123040377Y-60282166D01*
X123045285Y-60286585D01*
X123051006Y-60289888D01*
X123178834Y-60363689D01*
X123207215Y-60380075D01*
X123234188Y-60388839D01*
X123292794Y-60428913D01*
X123320430Y-60494310D01*
X123308323Y-60564267D01*
X123260316Y-60616573D01*
X123218862Y-60632440D01*
X122945928Y-60684505D01*
X122645734Y-60782044D01*
X122642148Y-60783731D01*
X122642144Y-60783733D01*
X122363717Y-60914750D01*
X122363710Y-60914754D01*
X122360131Y-60916438D01*
X122093625Y-61085568D01*
X121850418Y-61286767D01*
X121634346Y-61516860D01*
X121448816Y-61772221D01*
X121296753Y-62048821D01*
X121180557Y-62342298D01*
X121102060Y-62648025D01*
X121062500Y-62961179D01*
X121062500Y-63276821D01*
X121102060Y-63589975D01*
X121180557Y-63895702D01*
X121296753Y-64189179D01*
X121448816Y-64465779D01*
X121634346Y-64721140D01*
X121850418Y-64951233D01*
X121853469Y-64953757D01*
X121853470Y-64953758D01*
X121933469Y-65019939D01*
X122093625Y-65152432D01*
X122360131Y-65321562D01*
X122633468Y-65450184D01*
X122686588Y-65497285D01*
X122705811Y-65565630D01*
X122685032Y-65633518D01*
X122665918Y-65655590D01*
X122665965Y-65655635D01*
X122511629Y-65817138D01*
X122385743Y-66001680D01*
X122356117Y-66065505D01*
X122318702Y-66146109D01*
X122291688Y-66204305D01*
X122231989Y-66419570D01*
X122210407Y-66621529D01*
X122209621Y-66628880D01*
X122182493Y-66694489D01*
X122124201Y-66735018D01*
X122053251Y-66737597D01*
X121995239Y-66704586D01*
X121517614Y-66226961D01*
X121511760Y-66220695D01*
X121481470Y-66185973D01*
X121476476Y-66180248D01*
X121427898Y-66146107D01*
X121422604Y-66142175D01*
X121381855Y-66110223D01*
X121381856Y-66110223D01*
X121375879Y-66105537D01*
X121368955Y-66102411D01*
X121362824Y-66098698D01*
X121358204Y-66096062D01*
X121351822Y-66092640D01*
X121345603Y-66088269D01*
X121290286Y-66066701D01*
X121284207Y-66064146D01*
X121252593Y-66049872D01*
X121198651Y-66003475D01*
X121097822Y-65847617D01*
X121097820Y-65847614D01*
X121095014Y-65843277D01*
X120944670Y-65678051D01*
X120940619Y-65674852D01*
X120940615Y-65674848D01*
X120773414Y-65542800D01*
X120773410Y-65542798D01*
X120769359Y-65539598D01*
X120737305Y-65521903D01*
X120692709Y-65497285D01*
X120573789Y-65431638D01*
X120568920Y-65429914D01*
X120568916Y-65429912D01*
X120368087Y-65358795D01*
X120368083Y-65358794D01*
X120363212Y-65357069D01*
X120358119Y-65356162D01*
X120358116Y-65356161D01*
X120148373Y-65318800D01*
X120148367Y-65318799D01*
X120143284Y-65317894D01*
X120069452Y-65316992D01*
X119925081Y-65315228D01*
X119925079Y-65315228D01*
X119919911Y-65315165D01*
X119699091Y-65348955D01*
X119486756Y-65418357D01*
X119288607Y-65521507D01*
X119284474Y-65524610D01*
X119284471Y-65524612D01*
X119149789Y-65625734D01*
X119109965Y-65655635D01*
X118955629Y-65817138D01*
X118829743Y-66001680D01*
X118800117Y-66065505D01*
X118762702Y-66146109D01*
X118735688Y-66204305D01*
X118675989Y-66419570D01*
X118652251Y-66641695D01*
X118652548Y-66646848D01*
X118652548Y-66646851D01*
X118658011Y-66741590D01*
X118665110Y-66864715D01*
X118666247Y-66869761D01*
X118666248Y-66869767D01*
X118684218Y-66949502D01*
X118714222Y-67082639D01*
X118798266Y-67289616D01*
X118811981Y-67311997D01*
X118906434Y-67466130D01*
X118914987Y-67480088D01*
X119061250Y-67648938D01*
X119233126Y-67791632D01*
X119426000Y-67904338D01*
X119634692Y-67984030D01*
X119639760Y-67985061D01*
X119639763Y-67985062D01*
X119740136Y-68005483D01*
X119853597Y-68028567D01*
X119858772Y-68028757D01*
X119858774Y-68028757D01*
X120071673Y-68036564D01*
X120071677Y-68036564D01*
X120076837Y-68036753D01*
X120081957Y-68036097D01*
X120081959Y-68036097D01*
X120293288Y-68009025D01*
X120293289Y-68009025D01*
X120298416Y-68008368D01*
X120308032Y-68005483D01*
X120507429Y-67945661D01*
X120507434Y-67945659D01*
X120512384Y-67944174D01*
X120712994Y-67845896D01*
X120894860Y-67716173D01*
X120902990Y-67708072D01*
X120927305Y-67683841D01*
X120989676Y-67649923D01*
X121060483Y-67655111D01*
X121105341Y-67683995D01*
X126386393Y-72965047D01*
X126392246Y-72971312D01*
X126427524Y-73011752D01*
X126476093Y-73045887D01*
X126481386Y-73049818D01*
X126528122Y-73086463D01*
X126535050Y-73089591D01*
X126541206Y-73093319D01*
X126545825Y-73095954D01*
X126552181Y-73099362D01*
X126558397Y-73103731D01*
X126565476Y-73106491D01*
X126613698Y-73125292D01*
X126619779Y-73127848D01*
X126673912Y-73152290D01*
X126681375Y-73153673D01*
X126688193Y-73155810D01*
X126693378Y-73157287D01*
X126700355Y-73159078D01*
X126707434Y-73161838D01*
X126714967Y-73162830D01*
X126714968Y-73162830D01*
X126738152Y-73165882D01*
X126766308Y-73169589D01*
X126772805Y-73170618D01*
X126831198Y-73181440D01*
X126838779Y-73181003D01*
X126838780Y-73181003D01*
X126888968Y-73178109D01*
X126896221Y-73177900D01*
X132804500Y-73177900D01*
X132872621Y-73197902D01*
X132919114Y-73251558D01*
X132930500Y-73303900D01*
X132930500Y-73365134D01*
X132937255Y-73427316D01*
X132988385Y-73563705D01*
X133075739Y-73680261D01*
X133192295Y-73767615D01*
X133328684Y-73818745D01*
X133390866Y-73825500D01*
X134993657Y-73825500D01*
X135061778Y-73845502D01*
X135108271Y-73899158D01*
X135118375Y-73969432D01*
X135088881Y-74034012D01*
X135082752Y-74040595D01*
X135060961Y-74062386D01*
X135054696Y-74068239D01*
X135014248Y-74103524D01*
X135009881Y-74109738D01*
X134980109Y-74152099D01*
X134976177Y-74157393D01*
X134939537Y-74204121D01*
X134936411Y-74211045D01*
X134932698Y-74217176D01*
X134930062Y-74221796D01*
X134926640Y-74228178D01*
X134922269Y-74234397D01*
X134919509Y-74241476D01*
X134900702Y-74289713D01*
X134898146Y-74295792D01*
X134873711Y-74349912D01*
X134872325Y-74357388D01*
X134870170Y-74364266D01*
X134868710Y-74369391D01*
X134866922Y-74376355D01*
X134864162Y-74383434D01*
X134863170Y-74390966D01*
X134863170Y-74390968D01*
X134856414Y-74442292D01*
X134855384Y-74448798D01*
X134844560Y-74507197D01*
X134844997Y-74514777D01*
X134844997Y-74514778D01*
X134847891Y-74564967D01*
X134848100Y-74572220D01*
X134848100Y-81081056D01*
X134828098Y-81149177D01*
X134811195Y-81170151D01*
X134621687Y-81359659D01*
X134559375Y-81393685D01*
X134499980Y-81392270D01*
X134472409Y-81384882D01*
X134472398Y-81384880D01*
X134467087Y-81383457D01*
X134239000Y-81363502D01*
X134010913Y-81383457D01*
X134005600Y-81384881D01*
X134005598Y-81384881D01*
X133795067Y-81441293D01*
X133795065Y-81441294D01*
X133789757Y-81442716D01*
X133784776Y-81445039D01*
X133784775Y-81445039D01*
X133587238Y-81537151D01*
X133587233Y-81537154D01*
X133582251Y-81539477D01*
X133487121Y-81606088D01*
X133399211Y-81667643D01*
X133399208Y-81667645D01*
X133394700Y-81670802D01*
X133232802Y-81832700D01*
X133229645Y-81837208D01*
X133229643Y-81837211D01*
X133142005Y-81962371D01*
X133086548Y-82006699D01*
X133038792Y-82016100D01*
X132165216Y-82016100D01*
X132097095Y-81996098D01*
X132062003Y-81962371D01*
X131946357Y-81797211D01*
X131946355Y-81797208D01*
X131943198Y-81792700D01*
X131781300Y-81630802D01*
X131776792Y-81627645D01*
X131776789Y-81627643D01*
X131683808Y-81562537D01*
X131593749Y-81499477D01*
X131588767Y-81497154D01*
X131588762Y-81497151D01*
X131391225Y-81405039D01*
X131391224Y-81405039D01*
X131386243Y-81402716D01*
X131380935Y-81401294D01*
X131380933Y-81401293D01*
X131170402Y-81344881D01*
X131170400Y-81344881D01*
X131165087Y-81343457D01*
X130937000Y-81323502D01*
X130708913Y-81343457D01*
X130703600Y-81344881D01*
X130703598Y-81344881D01*
X130493067Y-81401293D01*
X130493065Y-81401294D01*
X130487757Y-81402716D01*
X130482776Y-81405039D01*
X130482775Y-81405039D01*
X130285238Y-81497151D01*
X130285233Y-81497154D01*
X130280251Y-81499477D01*
X130190192Y-81562537D01*
X130097211Y-81627643D01*
X130097208Y-81627645D01*
X130092700Y-81630802D01*
X129930802Y-81792700D01*
X129927645Y-81797208D01*
X129927643Y-81797211D01*
X129840005Y-81922371D01*
X129784548Y-81966699D01*
X129736792Y-81976100D01*
X129190944Y-81976100D01*
X129122823Y-81956098D01*
X129101849Y-81939195D01*
X125581614Y-78418961D01*
X125575760Y-78412695D01*
X125545470Y-78377973D01*
X125540476Y-78372248D01*
X125491898Y-78338107D01*
X125486604Y-78334175D01*
X125445855Y-78302223D01*
X125445856Y-78302223D01*
X125439879Y-78297537D01*
X125432955Y-78294411D01*
X125426824Y-78290698D01*
X125422204Y-78288062D01*
X125415822Y-78284640D01*
X125409603Y-78280269D01*
X125354286Y-78258701D01*
X125348207Y-78256146D01*
X125294088Y-78231711D01*
X125286612Y-78230325D01*
X125279734Y-78228170D01*
X125274609Y-78226710D01*
X125267645Y-78224922D01*
X125260566Y-78222162D01*
X125253034Y-78221170D01*
X125253032Y-78221170D01*
X125227804Y-78217849D01*
X125201700Y-78214413D01*
X125195202Y-78213384D01*
X125136803Y-78202560D01*
X125129223Y-78202997D01*
X125129222Y-78202997D01*
X125079033Y-78205891D01*
X125071780Y-78206100D01*
X123052079Y-78206100D01*
X122983958Y-78186098D01*
X122946287Y-78148540D01*
X122875822Y-78039617D01*
X122875820Y-78039614D01*
X122873014Y-78035277D01*
X122722670Y-77870051D01*
X122718619Y-77866852D01*
X122718615Y-77866848D01*
X122551414Y-77734800D01*
X122551410Y-77734798D01*
X122547359Y-77731598D01*
X122540235Y-77727665D01*
X122461048Y-77683952D01*
X122351789Y-77623638D01*
X122346920Y-77621914D01*
X122346916Y-77621912D01*
X122146087Y-77550795D01*
X122146083Y-77550794D01*
X122141212Y-77549069D01*
X122136119Y-77548162D01*
X122136116Y-77548161D01*
X121926373Y-77510800D01*
X121926367Y-77510799D01*
X121921284Y-77509894D01*
X121847452Y-77508992D01*
X121703081Y-77507228D01*
X121703079Y-77507228D01*
X121697911Y-77507165D01*
X121477091Y-77540955D01*
X121476806Y-77539093D01*
X121414055Y-77535829D01*
X121366689Y-77506035D01*
X120196490Y-76335836D01*
X118991815Y-75131162D01*
X118957790Y-75068850D01*
X118962434Y-75000065D01*
X118963284Y-74998243D01*
X119006017Y-74838761D01*
X119021119Y-74782402D01*
X119021119Y-74782400D01*
X119022543Y-74777087D01*
X119042498Y-74549000D01*
X119022543Y-74320913D01*
X118999361Y-74234397D01*
X118964707Y-74105067D01*
X118964706Y-74105065D01*
X118963284Y-74099757D01*
X118948759Y-74068608D01*
X118868849Y-73897238D01*
X118868846Y-73897233D01*
X118866523Y-73892251D01*
X118760878Y-73741375D01*
X118738357Y-73709211D01*
X118738355Y-73709208D01*
X118735198Y-73704700D01*
X118573300Y-73542802D01*
X118568792Y-73539645D01*
X118568789Y-73539643D01*
X118418936Y-73434715D01*
X118385749Y-73411477D01*
X118380767Y-73409154D01*
X118380762Y-73409151D01*
X118183225Y-73317039D01*
X118183224Y-73317039D01*
X118178243Y-73314716D01*
X118172935Y-73313294D01*
X118172933Y-73313293D01*
X117962402Y-73256881D01*
X117962400Y-73256881D01*
X117957087Y-73255457D01*
X117729000Y-73235502D01*
X117500913Y-73255457D01*
X117495600Y-73256881D01*
X117495598Y-73256881D01*
X117285067Y-73313293D01*
X117285065Y-73313294D01*
X117279757Y-73314716D01*
X117274776Y-73317039D01*
X117274775Y-73317039D01*
X117077238Y-73409151D01*
X117077233Y-73409154D01*
X117072251Y-73411477D01*
X117039064Y-73434715D01*
X116889211Y-73539643D01*
X116889208Y-73539645D01*
X116884700Y-73542802D01*
X116722802Y-73704700D01*
X116719645Y-73709208D01*
X116719643Y-73709211D01*
X116697122Y-73741375D01*
X116591477Y-73892251D01*
X116589154Y-73897233D01*
X116589151Y-73897238D01*
X116509241Y-74068608D01*
X116494716Y-74099757D01*
X116493294Y-74105065D01*
X116493293Y-74105067D01*
X116458639Y-74234397D01*
X116435457Y-74320913D01*
X116415502Y-74549000D01*
X116435457Y-74777087D01*
X116436881Y-74782400D01*
X116436881Y-74782402D01*
X116493293Y-74992931D01*
X116494716Y-74998243D01*
X116497039Y-75003224D01*
X116497039Y-75003225D01*
X116589151Y-75200762D01*
X116589154Y-75200767D01*
X116591477Y-75205749D01*
X116722802Y-75393300D01*
X116884700Y-75555198D01*
X116889208Y-75558355D01*
X116889211Y-75558357D01*
X116967389Y-75613098D01*
X117072251Y-75686523D01*
X117077233Y-75688846D01*
X117077238Y-75688849D01*
X117274775Y-75780961D01*
X117279757Y-75783284D01*
X117285065Y-75784706D01*
X117285067Y-75784707D01*
X117495598Y-75841119D01*
X117495600Y-75841119D01*
X117500913Y-75842543D01*
X117729000Y-75862498D01*
X117734475Y-75862019D01*
X117785270Y-75857575D01*
X117854875Y-75871564D01*
X117885347Y-75894001D01*
X120434365Y-78443018D01*
X120468390Y-78505330D01*
X120466687Y-78565783D01*
X120453989Y-78611570D01*
X120453441Y-78616700D01*
X120453440Y-78616704D01*
X120451067Y-78638913D01*
X120430251Y-78833695D01*
X120430548Y-78838848D01*
X120430548Y-78838851D01*
X120437369Y-78957151D01*
X120443110Y-79056715D01*
X120444247Y-79061761D01*
X120444248Y-79061767D01*
X120460938Y-79135824D01*
X120492222Y-79274639D01*
X120551423Y-79420435D01*
X120565519Y-79455148D01*
X120576266Y-79481616D01*
X120613355Y-79542140D01*
X120687012Y-79662337D01*
X120692987Y-79672088D01*
X120839250Y-79840938D01*
X121011126Y-79983632D01*
X121081595Y-80024811D01*
X121084445Y-80026476D01*
X121133169Y-80078114D01*
X121146240Y-80147897D01*
X121119509Y-80213669D01*
X121079055Y-80247027D01*
X121066607Y-80253507D01*
X121062474Y-80256610D01*
X121062471Y-80256612D01*
X120892100Y-80384530D01*
X120887965Y-80387635D01*
X120884393Y-80391373D01*
X120759890Y-80521658D01*
X120733629Y-80549138D01*
X120730715Y-80553410D01*
X120730714Y-80553411D01*
X120677319Y-80631685D01*
X120607743Y-80733680D01*
X120588493Y-80775151D01*
X120553753Y-80849993D01*
X120513688Y-80936305D01*
X120512305Y-80941291D01*
X120512303Y-80941297D01*
X120507629Y-80958151D01*
X120470149Y-81018447D01*
X120406019Y-81048909D01*
X120335601Y-81039863D01*
X120297118Y-81013570D01*
X118999815Y-79716267D01*
X118990713Y-79706124D01*
X118973412Y-79684606D01*
X118966775Y-79676351D01*
X118927998Y-79643813D01*
X118924371Y-79640649D01*
X118922502Y-79638954D01*
X118920308Y-79636760D01*
X118886742Y-79609188D01*
X118885945Y-79608526D01*
X118814067Y-79548214D01*
X118809361Y-79545627D01*
X118805211Y-79542218D01*
X118799787Y-79539310D01*
X118799777Y-79539303D01*
X118722632Y-79497939D01*
X118721472Y-79497310D01*
X118700935Y-79486020D01*
X118639379Y-79452179D01*
X118634259Y-79450555D01*
X118629526Y-79448017D01*
X118540007Y-79420648D01*
X118538748Y-79420256D01*
X118455239Y-79393765D01*
X118455235Y-79393764D01*
X118449365Y-79391902D01*
X118444027Y-79391303D01*
X118438891Y-79389733D01*
X118432760Y-79389110D01*
X118432759Y-79389110D01*
X118412103Y-79387012D01*
X118345569Y-79380254D01*
X118344449Y-79380134D01*
X118294216Y-79374500D01*
X118290711Y-79374500D01*
X118289603Y-79374438D01*
X118283908Y-79373990D01*
X118246695Y-79370210D01*
X118246688Y-79370210D01*
X118240565Y-79369588D01*
X118196398Y-79373763D01*
X118194515Y-79373941D01*
X118182657Y-79374500D01*
X116775276Y-79374500D01*
X116761668Y-79373763D01*
X116729821Y-79370303D01*
X116729817Y-79370303D01*
X116723696Y-79369638D01*
X116686828Y-79372863D01*
X116673310Y-79374046D01*
X116668482Y-79374375D01*
X116665927Y-79374500D01*
X116662843Y-79374500D01*
X116647469Y-79376008D01*
X116619781Y-79378722D01*
X116618468Y-79378844D01*
X116578371Y-79382352D01*
X116525108Y-79387012D01*
X116519948Y-79388511D01*
X116514606Y-79389035D01*
X116424904Y-79416117D01*
X116423764Y-79416455D01*
X116333678Y-79442628D01*
X116328910Y-79445100D01*
X116323768Y-79446652D01*
X116318323Y-79449547D01*
X116318316Y-79449550D01*
X116241050Y-79490633D01*
X116239946Y-79491213D01*
X116156696Y-79534366D01*
X116152497Y-79537718D01*
X116147756Y-79540239D01*
X116142984Y-79544131D01*
X116075171Y-79599438D01*
X116074145Y-79600266D01*
X116043415Y-79624798D01*
X116034684Y-79631768D01*
X116032189Y-79634263D01*
X116031395Y-79634973D01*
X116027040Y-79638693D01*
X115998049Y-79662337D01*
X115998046Y-79662340D01*
X115993274Y-79666232D01*
X115989346Y-79670980D01*
X115989345Y-79670981D01*
X115963789Y-79701873D01*
X115955800Y-79710652D01*
X115276267Y-80390185D01*
X115266125Y-80399286D01*
X115236351Y-80423225D01*
X115203813Y-80462002D01*
X115200649Y-80465629D01*
X115198954Y-80467498D01*
X115196760Y-80469692D01*
X115169188Y-80503258D01*
X115168526Y-80504055D01*
X115108214Y-80575933D01*
X115105627Y-80580639D01*
X115102218Y-80584789D01*
X115099310Y-80590213D01*
X115099303Y-80590223D01*
X115057939Y-80667368D01*
X115057310Y-80668528D01*
X115012179Y-80750621D01*
X115010555Y-80755741D01*
X115008017Y-80760474D01*
X114983790Y-80839716D01*
X114980648Y-80849993D01*
X114980256Y-80851252D01*
X114963002Y-80905643D01*
X114951902Y-80940635D01*
X114951303Y-80945973D01*
X114949733Y-80951109D01*
X114943389Y-81013570D01*
X114940263Y-81044343D01*
X114940134Y-81045551D01*
X114934500Y-81095784D01*
X114934500Y-81099289D01*
X114934438Y-81100397D01*
X114933990Y-81106092D01*
X114930210Y-81143305D01*
X114930210Y-81143312D01*
X114929588Y-81149435D01*
X111633500Y-81149435D01*
X111633500Y-59529695D01*
X118652251Y-59529695D01*
X118652548Y-59534848D01*
X118652548Y-59534851D01*
X118663624Y-59726943D01*
X118665110Y-59752715D01*
X118666247Y-59757761D01*
X118666248Y-59757767D01*
X118683187Y-59832928D01*
X118714222Y-59970639D01*
X118752461Y-60064811D01*
X118793503Y-60165885D01*
X118798266Y-60177616D01*
X118800965Y-60182020D01*
X118912182Y-60363510D01*
X118914987Y-60368088D01*
X118918367Y-60371990D01*
X118927138Y-60382116D01*
X119061250Y-60536938D01*
X119233126Y-60679632D01*
X119426000Y-60792338D01*
X119634692Y-60872030D01*
X119639760Y-60873061D01*
X119639763Y-60873062D01*
X119747017Y-60894883D01*
X119853597Y-60916567D01*
X119858772Y-60916757D01*
X119858774Y-60916757D01*
X120071673Y-60924564D01*
X120071677Y-60924564D01*
X120076837Y-60924753D01*
X120081957Y-60924097D01*
X120081959Y-60924097D01*
X120293288Y-60897025D01*
X120293289Y-60897025D01*
X120298416Y-60896368D01*
X120303366Y-60894883D01*
X120507429Y-60833661D01*
X120507434Y-60833659D01*
X120512384Y-60832174D01*
X120712994Y-60733896D01*
X120894860Y-60604173D01*
X120923340Y-60575793D01*
X121049435Y-60450137D01*
X121053096Y-60446489D01*
X121079476Y-60409778D01*
X121180435Y-60269277D01*
X121183453Y-60265077D01*
X121206914Y-60217608D01*
X121280136Y-60069453D01*
X121280137Y-60069451D01*
X121282430Y-60064811D01*
X121334361Y-59893888D01*
X121345865Y-59856023D01*
X121345865Y-59856021D01*
X121347370Y-59851069D01*
X121376529Y-59629590D01*
X121378156Y-59563000D01*
X121359852Y-59340361D01*
X121305431Y-59123702D01*
X121216354Y-58918840D01*
X121106628Y-58749229D01*
X121097822Y-58735617D01*
X121097820Y-58735614D01*
X121095014Y-58731277D01*
X120944670Y-58566051D01*
X120940619Y-58562852D01*
X120940615Y-58562848D01*
X120773414Y-58430800D01*
X120773410Y-58430798D01*
X120769359Y-58427598D01*
X120573789Y-58319638D01*
X120568920Y-58317914D01*
X120568916Y-58317912D01*
X120368087Y-58246795D01*
X120368083Y-58246794D01*
X120363212Y-58245069D01*
X120358119Y-58244162D01*
X120358116Y-58244161D01*
X120148373Y-58206800D01*
X120148367Y-58206799D01*
X120143284Y-58205894D01*
X120069452Y-58204992D01*
X119925081Y-58203228D01*
X119925079Y-58203228D01*
X119919911Y-58203165D01*
X119699091Y-58236955D01*
X119486756Y-58306357D01*
X119288607Y-58409507D01*
X119284474Y-58412610D01*
X119284471Y-58412612D01*
X119114100Y-58540530D01*
X119109965Y-58543635D01*
X118955629Y-58705138D01*
X118829743Y-58889680D01*
X118735688Y-59092305D01*
X118675989Y-59307570D01*
X118652251Y-59529695D01*
X111633500Y-59529695D01*
X111633500Y-57793818D01*
X111653502Y-57725697D01*
X111670405Y-57704722D01*
X111806724Y-57568404D01*
X111869036Y-57534379D01*
X111895819Y-57531500D01*
X137561087Y-57531500D01*
X137629208Y-57551502D01*
G37*
%TD.AperFunction*%
M02*
