%TF.GenerationSoftware,KiCad,Pcbnew,6.0.11-2627ca5db0~126~ubuntu22.04.1*%
%TF.CreationDate,2023-04-14T09:26:24-04:00*%
%TF.ProjectId,sub_rf_mod,7375625f-7266-45f6-9d6f-642e6b696361,rev?*%
%TF.SameCoordinates,Original*%
%TF.FileFunction,Copper,L1,Top*%
%TF.FilePolarity,Positive*%
%FSLAX46Y46*%
G04 Gerber Fmt 4.6, Leading zero omitted, Abs format (unit mm)*
G04 Created by KiCad (PCBNEW 6.0.11-2627ca5db0~126~ubuntu22.04.1) date 2023-04-14 09:26:24*
%MOMM*%
%LPD*%
G01*
G04 APERTURE LIST*
%TA.AperFunction,Profile*%
%ADD10C,0.100000*%
%TD*%
%TA.AperFunction,ComponentPad*%
%ADD11C,1.600000*%
%TD*%
%TA.AperFunction,ComponentPad*%
%ADD12O,1.600000X1.600000*%
%TD*%
%TA.AperFunction,ComponentPad*%
%ADD13R,1.600000X1.600000*%
%TD*%
%TA.AperFunction,ComponentPad*%
%ADD14C,2.600000*%
%TD*%
%TA.AperFunction,ComponentPad*%
%ADD15R,1.600000X2.400000*%
%TD*%
%TA.AperFunction,ComponentPad*%
%ADD16O,1.600000X2.400000*%
%TD*%
%TA.AperFunction,ComponentPad*%
%ADD17C,3.800000*%
%TD*%
%TA.AperFunction,ComponentPad*%
%ADD18C,1.700000*%
%TD*%
%TA.AperFunction,ComponentPad*%
%ADD19C,3.000000*%
%TD*%
%TA.AperFunction,ComponentPad*%
%ADD20R,1.700000X1.700000*%
%TD*%
%TA.AperFunction,ComponentPad*%
%ADD21O,1.700000X1.700000*%
%TD*%
%TA.AperFunction,ComponentPad*%
%ADD22C,4.227000*%
%TD*%
%TA.AperFunction,ComponentPad*%
%ADD23C,4.039000*%
%TD*%
%TA.AperFunction,ComponentPad*%
%ADD24C,2.775000*%
%TD*%
G04 APERTURE END LIST*
D10*
X107950000Y-64008000D02*
X176022000Y-64008000D01*
X107950000Y-64008000D02*
X107442000Y-64516000D01*
X176530000Y-113538000D02*
X176530000Y-64516000D01*
X176022000Y-64008000D02*
X176530000Y-64516000D01*
X107442000Y-113538000D02*
X107950000Y-114046000D01*
X107442000Y-113538000D02*
X107442000Y-64516000D01*
X176022000Y-114046000D02*
X176530000Y-113538000D01*
X107950000Y-114046000D02*
X176022000Y-114046000D01*
D11*
%TO.P,RF_C10,1*%
%TO.N,N/C*%
X170180000Y-98512000D03*
%TO.P,RF_C10,2*%
X170180000Y-93512000D03*
%TD*%
%TO.P,RF_JP1,1,A*%
%TO.N,N/C*%
X123444000Y-76962000D03*
D12*
%TO.P,RF_JP1,2,B*%
X123444000Y-92202000D03*
%TD*%
D11*
%TO.P,RF_C6,1*%
%TO.N,N/C*%
X157734000Y-105704000D03*
%TO.P,RF_C6,2*%
X157734000Y-110704000D03*
%TD*%
%TO.P,RF_C5,1*%
%TO.N,N/C*%
X133898000Y-88900000D03*
%TO.P,RF_C5,2*%
X138898000Y-88900000D03*
%TD*%
%TO.P,RF_R11,1*%
%TO.N,N/C*%
X133604000Y-82804000D03*
D12*
%TO.P,RF_R11,2*%
X141224000Y-82804000D03*
%TD*%
D11*
%TO.P,RF_C12,1*%
%TO.N,N/C*%
X153376000Y-102616000D03*
%TO.P,RF_C12,2*%
X148376000Y-102616000D03*
%TD*%
%TO.P,RF_R6,1*%
%TO.N,N/C*%
X161036000Y-110490000D03*
D12*
%TO.P,RF_R6,2*%
X168656000Y-110490000D03*
%TD*%
D11*
%TO.P,RF_C2,1*%
%TO.N,N/C*%
X127254000Y-84622000D03*
%TO.P,RF_C2,2*%
X127254000Y-89622000D03*
%TD*%
D13*
%TO.P,RF_C13,1*%
%TO.N,N/C*%
X119157328Y-109728000D03*
D11*
%TO.P,RF_C13,2*%
X121157328Y-109728000D03*
%TD*%
%TO.P,RF_R3,1*%
%TO.N,N/C*%
X128016000Y-109728000D03*
D12*
%TO.P,RF_R3,2*%
X135636000Y-109728000D03*
%TD*%
D14*
%TO.P,RF_L3,1,1*%
%TO.N,N/C*%
X151384000Y-106172000D03*
%TO.P,RF_L3,2,2*%
X151384000Y-111172000D03*
%TD*%
D11*
%TO.P,RF_C11,1*%
%TO.N,N/C*%
X167680000Y-81534000D03*
%TO.P,RF_C11,2*%
X172680000Y-81534000D03*
%TD*%
D13*
%TO.P,RF_D1,1,K*%
%TO.N,N/C*%
X123190000Y-104902000D03*
D12*
%TO.P,RF_D1,2,A*%
X123190000Y-94742000D03*
%TD*%
D13*
%TO.P,RF_D2,1,K*%
%TO.N,N/C*%
X130556000Y-79502000D03*
D12*
%TO.P,RF_D2,2,A*%
X130556000Y-89662000D03*
%TD*%
D11*
%TO.P,RF_C1,1*%
%TO.N,N/C*%
X128524000Y-72898000D03*
%TO.P,RF_C1,2*%
X128524000Y-67898000D03*
%TD*%
%TO.P,RF_R10,1*%
%TO.N,N/C*%
X141224000Y-79756000D03*
D12*
%TO.P,RF_R10,2*%
X133604000Y-79756000D03*
%TD*%
D14*
%TO.P,RF_L1,1,1*%
%TO.N,N/C*%
X170434000Y-90130000D03*
%TO.P,RF_L1,2,2*%
X170434000Y-85130000D03*
%TD*%
D11*
%TO.P,RF_C3,1*%
%TO.N,N/C*%
X131064000Y-98084000D03*
%TO.P,RF_C3,2*%
X131064000Y-103084000D03*
%TD*%
%TO.P,RF_R12,1*%
%TO.N,N/C*%
X143002000Y-85852000D03*
D12*
%TO.P,RF_R12,2*%
X135382000Y-85852000D03*
%TD*%
D14*
%TO.P,RF_L2,1,1*%
%TO.N,N/C*%
X161076000Y-94742000D03*
%TO.P,RF_L2,2,2*%
X166076000Y-94742000D03*
%TD*%
D11*
%TO.P,RF_R2,1*%
%TO.N,N/C*%
X127508000Y-94742000D03*
D12*
%TO.P,RF_R2,2*%
X127508000Y-102362000D03*
%TD*%
D15*
%TO.P,RF_U1,1,CHROMA_LEAD*%
%TO.N,N/C*%
X135636000Y-99583000D03*
D16*
%TO.P,RF_U1,2,R-Y*%
X138176000Y-99583000D03*
%TO.P,RF_U1,3,CHROMA_BIAS*%
X140716000Y-99583000D03*
%TO.P,RF_U1,4,B-Y*%
X143256000Y-99583000D03*
%TO.P,RF_U1,5,GND*%
X145796000Y-99583000D03*
%TO.P,RF_U1,6,CHB_TANK1*%
X148336000Y-99583000D03*
%TO.P,RF_U1,7,CHB_TANK2*%
X150876000Y-99583000D03*
%TO.P,RF_U1,8,CHA_TANK1*%
X153416000Y-99583000D03*
%TO.P,RF_U1,9,CHA_TANK2*%
X155956000Y-99583000D03*
%TO.P,RF_U1,10,CHB_OUTPUT*%
X155956000Y-91963000D03*
%TO.P,RF_U1,11,CHA_OUTPUT*%
X153416000Y-91963000D03*
%TO.P,RF_U1,12,VIDEO_IN*%
X150876000Y-91963000D03*
%TO.P,RF_U1,13,CHROMA_SUBCAR*%
X148336000Y-91963000D03*
%TO.P,RF_U1,14,RF_SUPPLY*%
X145796000Y-91963000D03*
%TO.P,RF_U1,15,SOUND_TANK*%
X143256000Y-91963000D03*
%TO.P,RF_U1,16,CHROMA_SUPPLY*%
X140716000Y-91963000D03*
%TO.P,RF_U1,17,CHROMA_OSC*%
X138176000Y-91963000D03*
%TO.P,RF_U1,18,CHROMA_LAG*%
X135636000Y-91963000D03*
%TD*%
D11*
%TO.P,RF_C7,1*%
%TO.N,N/C*%
X146090000Y-88900000D03*
%TO.P,RF_C7,2*%
X151090000Y-88900000D03*
%TD*%
D17*
%TO.P,H17,1,1*%
%TO.N,N/C*%
X118110000Y-79248000D03*
%TD*%
D18*
%TO.P,RF_VL1,1,1*%
%TO.N,N/C*%
X116332000Y-73660000D03*
%TO.P,RF_VL1,2,2*%
X119888000Y-73660000D03*
%TO.P,RF_VL1,3,3*%
X123444000Y-73660000D03*
%TO.P,RF_VL1,4,4*%
X123444000Y-66548000D03*
%TO.P,RF_VL1,6,6*%
X116332000Y-66548000D03*
D19*
%TO.P,RF_VL1,S,S*%
X114808000Y-70104000D03*
X124968000Y-70104000D03*
%TD*%
D11*
%TO.P,RF_C4,1*%
%TO.N,N/C*%
X135088000Y-106172000D03*
%TO.P,RF_C4,2*%
X130088000Y-106172000D03*
%TD*%
%TO.P,RF_R5,1*%
%TO.N,N/C*%
X168656000Y-106680000D03*
D12*
%TO.P,RF_R5,2*%
X161036000Y-106680000D03*
%TD*%
D20*
%TO.P,J4B1,1,Pin_1*%
%TO.N,N/C*%
X118110000Y-83312000D03*
D21*
%TO.P,J4B1,2,Pin_2*%
X118110000Y-85852000D03*
%TO.P,J4B1,3,Pin_3*%
X118110000Y-88392000D03*
%TO.P,J4B1,4,Pin_4*%
X118110000Y-90932000D03*
%TO.P,J4B1,5,Pin_5*%
X118110000Y-93472000D03*
%TO.P,J4B1,6,Pin_6*%
X118110000Y-96012000D03*
%TO.P,J4B1,7,Pin_7*%
X118110000Y-98552000D03*
%TO.P,J4B1,8,Pin_8*%
X118110000Y-101092000D03*
%TD*%
D11*
%TO.P,RF_R7,1*%
%TO.N,N/C*%
X160020000Y-87884000D03*
D12*
%TO.P,RF_R7,2*%
X160020000Y-80264000D03*
%TD*%
D11*
%TO.P,RF_R8,1*%
%TO.N,N/C*%
X155702000Y-87884000D03*
D12*
%TO.P,RF_R8,2*%
X155702000Y-80264000D03*
%TD*%
D22*
%TO.P,RF_J1,S*%
%TO.N,N/C*%
X169418000Y-72324500D03*
D23*
%TO.P,RF_J1,T*%
X169418000Y-76824500D03*
%TD*%
D11*
%TO.P,RF_C8,1*%
%TO.N,N/C*%
X155488000Y-74930000D03*
%TO.P,RF_C8,2*%
X160488000Y-74930000D03*
%TD*%
%TO.P,RF_C9,1*%
%TO.N,N/C*%
X163322000Y-87082000D03*
%TO.P,RF_C9,2*%
X163322000Y-82082000D03*
%TD*%
D17*
%TO.P,H16,1,1*%
%TO.N,N/C*%
X118110000Y-105156000D03*
%TD*%
D11*
%TO.P,RF_R4,1*%
%TO.N,N/C*%
X138684000Y-109982000D03*
D12*
%TO.P,RF_R4,2*%
X138684000Y-102362000D03*
%TD*%
D11*
%TO.P,RF_R1,1*%
%TO.N,N/C*%
X114046000Y-89154000D03*
D12*
%TO.P,RF_R1,2*%
X114046000Y-81534000D03*
%TD*%
D11*
%TO.P,RF_R9,1*%
%TO.N,N/C*%
X152400000Y-74930000D03*
D12*
%TO.P,RF_R9,2*%
X152400000Y-82550000D03*
%TD*%
D24*
%TO.P,RF_SW1,1,A*%
%TO.N,N/C*%
X146432500Y-75765000D03*
%TO.P,RF_SW1,2,B*%
X141732500Y-75765000D03*
%TO.P,RF_SW1,3,C*%
X137032500Y-75765000D03*
%TO.P,RF_SW1,4*%
X148337500Y-66235000D03*
X135127500Y-66235000D03*
%TD*%
M02*
