%TF.GenerationSoftware,KiCad,Pcbnew,6.0.11-2627ca5db0~126~ubuntu22.04.1*%
%TF.CreationDate,2023-05-04T20:33:03-04:00*%
%TF.ProjectId,sub_rf_mod,7375625f-7266-45f6-9d6f-642e6b696361,rev?*%
%TF.SameCoordinates,Original*%
%TF.FileFunction,Legend,Top*%
%TF.FilePolarity,Positive*%
%FSLAX46Y46*%
G04 Gerber Fmt 4.6, Leading zero omitted, Abs format (unit mm)*
G04 Created by KiCad (PCBNEW 6.0.11-2627ca5db0~126~ubuntu22.04.1) date 2023-05-04 20:33:03*
%MOMM*%
%LPD*%
G01*
G04 APERTURE LIST*
%TA.AperFunction,Profile*%
%ADD10C,0.100000*%
%TD*%
%ADD11C,0.150000*%
%ADD12C,0.254000*%
%ADD13C,0.120000*%
%ADD14C,0.200000*%
%ADD15C,0.100000*%
G04 APERTURE END LIST*
D10*
X103886000Y-53340000D02*
X171958000Y-53340000D01*
X103886000Y-53340000D02*
X103378000Y-53848000D01*
X172466000Y-102870000D02*
X172466000Y-53848000D01*
X171958000Y-53340000D02*
X172466000Y-53848000D01*
X103378000Y-102870000D02*
X103886000Y-103378000D01*
X103378000Y-102870000D02*
X103378000Y-53848000D01*
X171958000Y-103378000D02*
X172466000Y-102870000D01*
X103886000Y-103378000D02*
X171958000Y-103378000D01*
D11*
%TO.C,RF_JP1*%
X117546380Y-72215142D02*
X117070190Y-72548476D01*
X117546380Y-72786571D02*
X116546380Y-72786571D01*
X116546380Y-72405619D01*
X116594000Y-72310380D01*
X116641619Y-72262761D01*
X116736857Y-72215142D01*
X116879714Y-72215142D01*
X116974952Y-72262761D01*
X117022571Y-72310380D01*
X117070190Y-72405619D01*
X117070190Y-72786571D01*
X117022571Y-71453238D02*
X117022571Y-71786571D01*
X117546380Y-71786571D02*
X116546380Y-71786571D01*
X116546380Y-71310380D01*
X117641619Y-71167523D02*
X117641619Y-70405619D01*
X116546380Y-69881809D02*
X117260666Y-69881809D01*
X117403523Y-69929428D01*
X117498761Y-70024666D01*
X117546380Y-70167523D01*
X117546380Y-70262761D01*
X117546380Y-69405619D02*
X116546380Y-69405619D01*
X116546380Y-69024666D01*
X116594000Y-68929428D01*
X116641619Y-68881809D01*
X116736857Y-68834190D01*
X116879714Y-68834190D01*
X116974952Y-68881809D01*
X117022571Y-68929428D01*
X117070190Y-69024666D01*
X117070190Y-69405619D01*
X117546380Y-67881809D02*
X117546380Y-68453238D01*
X117546380Y-68167523D02*
X116546380Y-68167523D01*
X116689238Y-68262761D01*
X116784476Y-68358000D01*
X116832095Y-68453238D01*
%TO.C,RF_C6*%
X152193809Y-93416380D02*
X151860476Y-92940190D01*
X151622380Y-93416380D02*
X151622380Y-92416380D01*
X152003333Y-92416380D01*
X152098571Y-92464000D01*
X152146190Y-92511619D01*
X152193809Y-92606857D01*
X152193809Y-92749714D01*
X152146190Y-92844952D01*
X152098571Y-92892571D01*
X152003333Y-92940190D01*
X151622380Y-92940190D01*
X152955714Y-92892571D02*
X152622380Y-92892571D01*
X152622380Y-93416380D02*
X152622380Y-92416380D01*
X153098571Y-92416380D01*
X153241428Y-93511619D02*
X154003333Y-93511619D01*
X154812857Y-93321142D02*
X154765238Y-93368761D01*
X154622380Y-93416380D01*
X154527142Y-93416380D01*
X154384285Y-93368761D01*
X154289047Y-93273523D01*
X154241428Y-93178285D01*
X154193809Y-92987809D01*
X154193809Y-92844952D01*
X154241428Y-92654476D01*
X154289047Y-92559238D01*
X154384285Y-92464000D01*
X154527142Y-92416380D01*
X154622380Y-92416380D01*
X154765238Y-92464000D01*
X154812857Y-92511619D01*
X155670000Y-92416380D02*
X155479523Y-92416380D01*
X155384285Y-92464000D01*
X155336666Y-92511619D01*
X155241428Y-92654476D01*
X155193809Y-92844952D01*
X155193809Y-93225904D01*
X155241428Y-93321142D01*
X155289047Y-93368761D01*
X155384285Y-93416380D01*
X155574761Y-93416380D01*
X155670000Y-93368761D01*
X155717619Y-93321142D01*
X155765238Y-93225904D01*
X155765238Y-92987809D01*
X155717619Y-92892571D01*
X155670000Y-92844952D01*
X155574761Y-92797333D01*
X155384285Y-92797333D01*
X155289047Y-92844952D01*
X155241428Y-92892571D01*
X155193809Y-92987809D01*
%TO.C,RF_C5*%
X136953809Y-79446380D02*
X136620476Y-78970190D01*
X136382380Y-79446380D02*
X136382380Y-78446380D01*
X136763333Y-78446380D01*
X136858571Y-78494000D01*
X136906190Y-78541619D01*
X136953809Y-78636857D01*
X136953809Y-78779714D01*
X136906190Y-78874952D01*
X136858571Y-78922571D01*
X136763333Y-78970190D01*
X136382380Y-78970190D01*
X137715714Y-78922571D02*
X137382380Y-78922571D01*
X137382380Y-79446380D02*
X137382380Y-78446380D01*
X137858571Y-78446380D01*
X138001428Y-79541619D02*
X138763333Y-79541619D01*
X139572857Y-79351142D02*
X139525238Y-79398761D01*
X139382380Y-79446380D01*
X139287142Y-79446380D01*
X139144285Y-79398761D01*
X139049047Y-79303523D01*
X139001428Y-79208285D01*
X138953809Y-79017809D01*
X138953809Y-78874952D01*
X139001428Y-78684476D01*
X139049047Y-78589238D01*
X139144285Y-78494000D01*
X139287142Y-78446380D01*
X139382380Y-78446380D01*
X139525238Y-78494000D01*
X139572857Y-78541619D01*
X140477619Y-78446380D02*
X140001428Y-78446380D01*
X139953809Y-78922571D01*
X140001428Y-78874952D01*
X140096666Y-78827333D01*
X140334761Y-78827333D01*
X140430000Y-78874952D01*
X140477619Y-78922571D01*
X140525238Y-79017809D01*
X140525238Y-79255904D01*
X140477619Y-79351142D01*
X140430000Y-79398761D01*
X140334761Y-79446380D01*
X140096666Y-79446380D01*
X140001428Y-79398761D01*
X139953809Y-79351142D01*
%TO.C,RF_R11*%
X139271619Y-73350380D02*
X138938285Y-72874190D01*
X138700190Y-73350380D02*
X138700190Y-72350380D01*
X139081142Y-72350380D01*
X139176380Y-72398000D01*
X139224000Y-72445619D01*
X139271619Y-72540857D01*
X139271619Y-72683714D01*
X139224000Y-72778952D01*
X139176380Y-72826571D01*
X139081142Y-72874190D01*
X138700190Y-72874190D01*
X140033523Y-72826571D02*
X139700190Y-72826571D01*
X139700190Y-73350380D02*
X139700190Y-72350380D01*
X140176380Y-72350380D01*
X140319238Y-73445619D02*
X141081142Y-73445619D01*
X141890666Y-73350380D02*
X141557333Y-72874190D01*
X141319238Y-73350380D02*
X141319238Y-72350380D01*
X141700190Y-72350380D01*
X141795428Y-72398000D01*
X141843047Y-72445619D01*
X141890666Y-72540857D01*
X141890666Y-72683714D01*
X141843047Y-72778952D01*
X141795428Y-72826571D01*
X141700190Y-72874190D01*
X141319238Y-72874190D01*
X142843047Y-73350380D02*
X142271619Y-73350380D01*
X142557333Y-73350380D02*
X142557333Y-72350380D01*
X142462095Y-72493238D01*
X142366857Y-72588476D01*
X142271619Y-72636095D01*
X143795428Y-73350380D02*
X143224000Y-73350380D01*
X143509714Y-73350380D02*
X143509714Y-72350380D01*
X143414476Y-72493238D01*
X143319238Y-72588476D01*
X143224000Y-72636095D01*
%TO.C,RF_C12*%
X151423619Y-91638380D02*
X151090285Y-91162190D01*
X150852190Y-91638380D02*
X150852190Y-90638380D01*
X151233142Y-90638380D01*
X151328380Y-90686000D01*
X151376000Y-90733619D01*
X151423619Y-90828857D01*
X151423619Y-90971714D01*
X151376000Y-91066952D01*
X151328380Y-91114571D01*
X151233142Y-91162190D01*
X150852190Y-91162190D01*
X152185523Y-91114571D02*
X151852190Y-91114571D01*
X151852190Y-91638380D02*
X151852190Y-90638380D01*
X152328380Y-90638380D01*
X152471238Y-91733619D02*
X153233142Y-91733619D01*
X154042666Y-91543142D02*
X153995047Y-91590761D01*
X153852190Y-91638380D01*
X153756952Y-91638380D01*
X153614095Y-91590761D01*
X153518857Y-91495523D01*
X153471238Y-91400285D01*
X153423619Y-91209809D01*
X153423619Y-91066952D01*
X153471238Y-90876476D01*
X153518857Y-90781238D01*
X153614095Y-90686000D01*
X153756952Y-90638380D01*
X153852190Y-90638380D01*
X153995047Y-90686000D01*
X154042666Y-90733619D01*
X154995047Y-91638380D02*
X154423619Y-91638380D01*
X154709333Y-91638380D02*
X154709333Y-90638380D01*
X154614095Y-90781238D01*
X154518857Y-90876476D01*
X154423619Y-90924095D01*
X155376000Y-90733619D02*
X155423619Y-90686000D01*
X155518857Y-90638380D01*
X155756952Y-90638380D01*
X155852190Y-90686000D01*
X155899809Y-90733619D01*
X155947428Y-90828857D01*
X155947428Y-90924095D01*
X155899809Y-91066952D01*
X155328380Y-91638380D01*
X155947428Y-91638380D01*
%TO.C,RF_R6*%
X166671809Y-100274380D02*
X166338476Y-99798190D01*
X166100380Y-100274380D02*
X166100380Y-99274380D01*
X166481333Y-99274380D01*
X166576571Y-99322000D01*
X166624190Y-99369619D01*
X166671809Y-99464857D01*
X166671809Y-99607714D01*
X166624190Y-99702952D01*
X166576571Y-99750571D01*
X166481333Y-99798190D01*
X166100380Y-99798190D01*
X167433714Y-99750571D02*
X167100380Y-99750571D01*
X167100380Y-100274380D02*
X167100380Y-99274380D01*
X167576571Y-99274380D01*
X167719428Y-100369619D02*
X168481333Y-100369619D01*
X169290857Y-100274380D02*
X168957523Y-99798190D01*
X168719428Y-100274380D02*
X168719428Y-99274380D01*
X169100380Y-99274380D01*
X169195619Y-99322000D01*
X169243238Y-99369619D01*
X169290857Y-99464857D01*
X169290857Y-99607714D01*
X169243238Y-99702952D01*
X169195619Y-99750571D01*
X169100380Y-99798190D01*
X168719428Y-99798190D01*
X170148000Y-99274380D02*
X169957523Y-99274380D01*
X169862285Y-99322000D01*
X169814666Y-99369619D01*
X169719428Y-99512476D01*
X169671809Y-99702952D01*
X169671809Y-100083904D01*
X169719428Y-100179142D01*
X169767047Y-100226761D01*
X169862285Y-100274380D01*
X170052761Y-100274380D01*
X170148000Y-100226761D01*
X170195619Y-100179142D01*
X170243238Y-100083904D01*
X170243238Y-99845809D01*
X170195619Y-99750571D01*
X170148000Y-99702952D01*
X170052761Y-99655333D01*
X169862285Y-99655333D01*
X169767047Y-99702952D01*
X169719428Y-99750571D01*
X169671809Y-99845809D01*
%TO.C,RF_C2*%
X122626380Y-71834190D02*
X122150190Y-72167523D01*
X122626380Y-72405619D02*
X121626380Y-72405619D01*
X121626380Y-72024666D01*
X121674000Y-71929428D01*
X121721619Y-71881809D01*
X121816857Y-71834190D01*
X121959714Y-71834190D01*
X122054952Y-71881809D01*
X122102571Y-71929428D01*
X122150190Y-72024666D01*
X122150190Y-72405619D01*
X122102571Y-71072285D02*
X122102571Y-71405619D01*
X122626380Y-71405619D02*
X121626380Y-71405619D01*
X121626380Y-70929428D01*
X122721619Y-70786571D02*
X122721619Y-70024666D01*
X122531142Y-69215142D02*
X122578761Y-69262761D01*
X122626380Y-69405619D01*
X122626380Y-69500857D01*
X122578761Y-69643714D01*
X122483523Y-69738952D01*
X122388285Y-69786571D01*
X122197809Y-69834190D01*
X122054952Y-69834190D01*
X121864476Y-69786571D01*
X121769238Y-69738952D01*
X121674000Y-69643714D01*
X121626380Y-69500857D01*
X121626380Y-69405619D01*
X121674000Y-69262761D01*
X121721619Y-69215142D01*
X121721619Y-68834190D02*
X121674000Y-68786571D01*
X121626380Y-68691333D01*
X121626380Y-68453238D01*
X121674000Y-68358000D01*
X121721619Y-68310380D01*
X121816857Y-68262761D01*
X121912095Y-68262761D01*
X122054952Y-68310380D01*
X122626380Y-68881809D01*
X122626380Y-68262761D01*
%TO.C,RF_C13*%
X108373395Y-99766380D02*
X108040061Y-99290190D01*
X107801966Y-99766380D02*
X107801966Y-98766380D01*
X108182918Y-98766380D01*
X108278156Y-98814000D01*
X108325776Y-98861619D01*
X108373395Y-98956857D01*
X108373395Y-99099714D01*
X108325776Y-99194952D01*
X108278156Y-99242571D01*
X108182918Y-99290190D01*
X107801966Y-99290190D01*
X109135299Y-99242571D02*
X108801966Y-99242571D01*
X108801966Y-99766380D02*
X108801966Y-98766380D01*
X109278156Y-98766380D01*
X109421014Y-99861619D02*
X110182918Y-99861619D01*
X110992442Y-99671142D02*
X110944823Y-99718761D01*
X110801966Y-99766380D01*
X110706728Y-99766380D01*
X110563871Y-99718761D01*
X110468633Y-99623523D01*
X110421014Y-99528285D01*
X110373395Y-99337809D01*
X110373395Y-99194952D01*
X110421014Y-99004476D01*
X110468633Y-98909238D01*
X110563871Y-98814000D01*
X110706728Y-98766380D01*
X110801966Y-98766380D01*
X110944823Y-98814000D01*
X110992442Y-98861619D01*
X111944823Y-99766380D02*
X111373395Y-99766380D01*
X111659109Y-99766380D02*
X111659109Y-98766380D01*
X111563871Y-98909238D01*
X111468633Y-99004476D01*
X111373395Y-99052095D01*
X112278156Y-98766380D02*
X112897204Y-98766380D01*
X112563871Y-99147333D01*
X112706728Y-99147333D01*
X112801966Y-99194952D01*
X112849585Y-99242571D01*
X112897204Y-99337809D01*
X112897204Y-99575904D01*
X112849585Y-99671142D01*
X112801966Y-99718761D01*
X112706728Y-99766380D01*
X112421014Y-99766380D01*
X112325776Y-99718761D01*
X112278156Y-99671142D01*
%TO.C,RF_R3*%
X129333809Y-93670380D02*
X129000476Y-93194190D01*
X128762380Y-93670380D02*
X128762380Y-92670380D01*
X129143333Y-92670380D01*
X129238571Y-92718000D01*
X129286190Y-92765619D01*
X129333809Y-92860857D01*
X129333809Y-93003714D01*
X129286190Y-93098952D01*
X129238571Y-93146571D01*
X129143333Y-93194190D01*
X128762380Y-93194190D01*
X130095714Y-93146571D02*
X129762380Y-93146571D01*
X129762380Y-93670380D02*
X129762380Y-92670380D01*
X130238571Y-92670380D01*
X130381428Y-93765619D02*
X131143333Y-93765619D01*
X131952857Y-93670380D02*
X131619523Y-93194190D01*
X131381428Y-93670380D02*
X131381428Y-92670380D01*
X131762380Y-92670380D01*
X131857619Y-92718000D01*
X131905238Y-92765619D01*
X131952857Y-92860857D01*
X131952857Y-93003714D01*
X131905238Y-93098952D01*
X131857619Y-93146571D01*
X131762380Y-93194190D01*
X131381428Y-93194190D01*
X132286190Y-92670380D02*
X132905238Y-92670380D01*
X132571904Y-93051333D01*
X132714761Y-93051333D01*
X132810000Y-93098952D01*
X132857619Y-93146571D01*
X132905238Y-93241809D01*
X132905238Y-93479904D01*
X132857619Y-93575142D01*
X132810000Y-93622761D01*
X132714761Y-93670380D01*
X132429047Y-93670380D01*
X132333809Y-93622761D01*
X132286190Y-93575142D01*
%TO.C,RF_L3*%
X139335047Y-98496380D02*
X139001714Y-98020190D01*
X138763619Y-98496380D02*
X138763619Y-97496380D01*
X139144571Y-97496380D01*
X139239809Y-97544000D01*
X139287428Y-97591619D01*
X139335047Y-97686857D01*
X139335047Y-97829714D01*
X139287428Y-97924952D01*
X139239809Y-97972571D01*
X139144571Y-98020190D01*
X138763619Y-98020190D01*
X140096952Y-97972571D02*
X139763619Y-97972571D01*
X139763619Y-98496380D02*
X139763619Y-97496380D01*
X140239809Y-97496380D01*
X140382666Y-98591619D02*
X141144571Y-98591619D01*
X141858857Y-98496380D02*
X141382666Y-98496380D01*
X141382666Y-97496380D01*
X142096952Y-97496380D02*
X142716000Y-97496380D01*
X142382666Y-97877333D01*
X142525523Y-97877333D01*
X142620761Y-97924952D01*
X142668380Y-97972571D01*
X142716000Y-98067809D01*
X142716000Y-98305904D01*
X142668380Y-98401142D01*
X142620761Y-98448761D01*
X142525523Y-98496380D01*
X142239809Y-98496380D01*
X142144571Y-98448761D01*
X142096952Y-98401142D01*
%TO.C,RF_C11*%
X171394380Y-74342380D02*
X170918190Y-74675714D01*
X171394380Y-74913809D02*
X170394380Y-74913809D01*
X170394380Y-74532857D01*
X170442000Y-74437619D01*
X170489619Y-74390000D01*
X170584857Y-74342380D01*
X170727714Y-74342380D01*
X170822952Y-74390000D01*
X170870571Y-74437619D01*
X170918190Y-74532857D01*
X170918190Y-74913809D01*
X170870571Y-73580476D02*
X170870571Y-73913809D01*
X171394380Y-73913809D02*
X170394380Y-73913809D01*
X170394380Y-73437619D01*
X171489619Y-73294761D02*
X171489619Y-72532857D01*
X171299142Y-71723333D02*
X171346761Y-71770952D01*
X171394380Y-71913809D01*
X171394380Y-72009047D01*
X171346761Y-72151904D01*
X171251523Y-72247142D01*
X171156285Y-72294761D01*
X170965809Y-72342380D01*
X170822952Y-72342380D01*
X170632476Y-72294761D01*
X170537238Y-72247142D01*
X170442000Y-72151904D01*
X170394380Y-72009047D01*
X170394380Y-71913809D01*
X170442000Y-71770952D01*
X170489619Y-71723333D01*
X171394380Y-70770952D02*
X171394380Y-71342380D01*
X171394380Y-71056666D02*
X170394380Y-71056666D01*
X170537238Y-71151904D01*
X170632476Y-71247142D01*
X170680095Y-71342380D01*
X171394380Y-69818571D02*
X171394380Y-70390000D01*
X171394380Y-70104285D02*
X170394380Y-70104285D01*
X170537238Y-70199523D01*
X170632476Y-70294761D01*
X170680095Y-70390000D01*
%TO.C,RF_D1*%
X117458380Y-90630190D02*
X116982190Y-90963523D01*
X117458380Y-91201619D02*
X116458380Y-91201619D01*
X116458380Y-90820666D01*
X116506000Y-90725428D01*
X116553619Y-90677809D01*
X116648857Y-90630190D01*
X116791714Y-90630190D01*
X116886952Y-90677809D01*
X116934571Y-90725428D01*
X116982190Y-90820666D01*
X116982190Y-91201619D01*
X116934571Y-89868285D02*
X116934571Y-90201619D01*
X117458380Y-90201619D02*
X116458380Y-90201619D01*
X116458380Y-89725428D01*
X117553619Y-89582571D02*
X117553619Y-88820666D01*
X117458380Y-88582571D02*
X116458380Y-88582571D01*
X116458380Y-88344476D01*
X116506000Y-88201619D01*
X116601238Y-88106380D01*
X116696476Y-88058761D01*
X116886952Y-88011142D01*
X117029809Y-88011142D01*
X117220285Y-88058761D01*
X117315523Y-88106380D01*
X117410761Y-88201619D01*
X117458380Y-88344476D01*
X117458380Y-88582571D01*
X117458380Y-87058761D02*
X117458380Y-87630190D01*
X117458380Y-87344476D02*
X116458380Y-87344476D01*
X116601238Y-87439714D01*
X116696476Y-87534952D01*
X116744095Y-87630190D01*
X117778380Y-94495904D02*
X116778380Y-94495904D01*
X117778380Y-93924476D02*
X117206952Y-94353047D01*
X116778380Y-93924476D02*
X117349809Y-94495904D01*
%TO.C,RF_D2*%
X124912380Y-71834190D02*
X124436190Y-72167523D01*
X124912380Y-72405619D02*
X123912380Y-72405619D01*
X123912380Y-72024666D01*
X123960000Y-71929428D01*
X124007619Y-71881809D01*
X124102857Y-71834190D01*
X124245714Y-71834190D01*
X124340952Y-71881809D01*
X124388571Y-71929428D01*
X124436190Y-72024666D01*
X124436190Y-72405619D01*
X124388571Y-71072285D02*
X124388571Y-71405619D01*
X124912380Y-71405619D02*
X123912380Y-71405619D01*
X123912380Y-70929428D01*
X125007619Y-70786571D02*
X125007619Y-70024666D01*
X124912380Y-69786571D02*
X123912380Y-69786571D01*
X123912380Y-69548476D01*
X123960000Y-69405619D01*
X124055238Y-69310380D01*
X124150476Y-69262761D01*
X124340952Y-69215142D01*
X124483809Y-69215142D01*
X124674285Y-69262761D01*
X124769523Y-69310380D01*
X124864761Y-69405619D01*
X124912380Y-69548476D01*
X124912380Y-69786571D01*
X124007619Y-68834190D02*
X123960000Y-68786571D01*
X123912380Y-68691333D01*
X123912380Y-68453238D01*
X123960000Y-68358000D01*
X124007619Y-68310380D01*
X124102857Y-68262761D01*
X124198095Y-68262761D01*
X124340952Y-68310380D01*
X124912380Y-68881809D01*
X124912380Y-68262761D01*
X126944380Y-67317904D02*
X125944380Y-67317904D01*
X126944380Y-66746476D02*
X126372952Y-67175047D01*
X125944380Y-66746476D02*
X126515809Y-67317904D01*
%TO.C,RF_C4*%
X120951809Y-96718380D02*
X120618476Y-96242190D01*
X120380380Y-96718380D02*
X120380380Y-95718380D01*
X120761333Y-95718380D01*
X120856571Y-95766000D01*
X120904190Y-95813619D01*
X120951809Y-95908857D01*
X120951809Y-96051714D01*
X120904190Y-96146952D01*
X120856571Y-96194571D01*
X120761333Y-96242190D01*
X120380380Y-96242190D01*
X121713714Y-96194571D02*
X121380380Y-96194571D01*
X121380380Y-96718380D02*
X121380380Y-95718380D01*
X121856571Y-95718380D01*
X121999428Y-96813619D02*
X122761333Y-96813619D01*
X123570857Y-96623142D02*
X123523238Y-96670761D01*
X123380380Y-96718380D01*
X123285142Y-96718380D01*
X123142285Y-96670761D01*
X123047047Y-96575523D01*
X122999428Y-96480285D01*
X122951809Y-96289809D01*
X122951809Y-96146952D01*
X122999428Y-95956476D01*
X123047047Y-95861238D01*
X123142285Y-95766000D01*
X123285142Y-95718380D01*
X123380380Y-95718380D01*
X123523238Y-95766000D01*
X123570857Y-95813619D01*
X124428000Y-96051714D02*
X124428000Y-96718380D01*
X124189904Y-95670761D02*
X123951809Y-96385047D01*
X124570857Y-96385047D01*
%TO.C,RF_R5*%
X166747809Y-96210380D02*
X166414476Y-95734190D01*
X166176380Y-96210380D02*
X166176380Y-95210380D01*
X166557333Y-95210380D01*
X166652571Y-95258000D01*
X166700190Y-95305619D01*
X166747809Y-95400857D01*
X166747809Y-95543714D01*
X166700190Y-95638952D01*
X166652571Y-95686571D01*
X166557333Y-95734190D01*
X166176380Y-95734190D01*
X167509714Y-95686571D02*
X167176380Y-95686571D01*
X167176380Y-96210380D02*
X167176380Y-95210380D01*
X167652571Y-95210380D01*
X167795428Y-96305619D02*
X168557333Y-96305619D01*
X169366857Y-96210380D02*
X169033523Y-95734190D01*
X168795428Y-96210380D02*
X168795428Y-95210380D01*
X169176380Y-95210380D01*
X169271619Y-95258000D01*
X169319238Y-95305619D01*
X169366857Y-95400857D01*
X169366857Y-95543714D01*
X169319238Y-95638952D01*
X169271619Y-95686571D01*
X169176380Y-95734190D01*
X168795428Y-95734190D01*
X170271619Y-95210380D02*
X169795428Y-95210380D01*
X169747809Y-95686571D01*
X169795428Y-95638952D01*
X169890666Y-95591333D01*
X170128761Y-95591333D01*
X170224000Y-95638952D01*
X170271619Y-95686571D01*
X170319238Y-95781809D01*
X170319238Y-96019904D01*
X170271619Y-96115142D01*
X170224000Y-96162761D01*
X170128761Y-96210380D01*
X169890666Y-96210380D01*
X169795428Y-96162761D01*
X169747809Y-96115142D01*
%TO.C,J4B1*%
X116038380Y-83859523D02*
X116752666Y-83859523D01*
X116895523Y-83907142D01*
X116990761Y-84002380D01*
X117038380Y-84145238D01*
X117038380Y-84240476D01*
X116371714Y-82954761D02*
X117038380Y-82954761D01*
X115990761Y-83192857D02*
X116705047Y-83430952D01*
X116705047Y-82811904D01*
X116514571Y-82097619D02*
X116562190Y-81954761D01*
X116609809Y-81907142D01*
X116705047Y-81859523D01*
X116847904Y-81859523D01*
X116943142Y-81907142D01*
X116990761Y-81954761D01*
X117038380Y-82050000D01*
X117038380Y-82430952D01*
X116038380Y-82430952D01*
X116038380Y-82097619D01*
X116086000Y-82002380D01*
X116133619Y-81954761D01*
X116228857Y-81907142D01*
X116324095Y-81907142D01*
X116419333Y-81954761D01*
X116466952Y-82002380D01*
X116514571Y-82097619D01*
X116514571Y-82430952D01*
X117038380Y-80907142D02*
X117038380Y-81478571D01*
X117038380Y-81192857D02*
X116038380Y-81192857D01*
X116181238Y-81288095D01*
X116276476Y-81383333D01*
X116324095Y-81478571D01*
%TO.C,RF_R7*%
X154479809Y-68270380D02*
X154146476Y-67794190D01*
X153908380Y-68270380D02*
X153908380Y-67270380D01*
X154289333Y-67270380D01*
X154384571Y-67318000D01*
X154432190Y-67365619D01*
X154479809Y-67460857D01*
X154479809Y-67603714D01*
X154432190Y-67698952D01*
X154384571Y-67746571D01*
X154289333Y-67794190D01*
X153908380Y-67794190D01*
X155241714Y-67746571D02*
X154908380Y-67746571D01*
X154908380Y-68270380D02*
X154908380Y-67270380D01*
X155384571Y-67270380D01*
X155527428Y-68365619D02*
X156289333Y-68365619D01*
X157098857Y-68270380D02*
X156765523Y-67794190D01*
X156527428Y-68270380D02*
X156527428Y-67270380D01*
X156908380Y-67270380D01*
X157003619Y-67318000D01*
X157051238Y-67365619D01*
X157098857Y-67460857D01*
X157098857Y-67603714D01*
X157051238Y-67698952D01*
X157003619Y-67746571D01*
X156908380Y-67794190D01*
X156527428Y-67794190D01*
X157432190Y-67270380D02*
X158098857Y-67270380D01*
X157670285Y-68270380D01*
%TO.C,RF_R8*%
X149804380Y-76914190D02*
X149328190Y-77247523D01*
X149804380Y-77485619D02*
X148804380Y-77485619D01*
X148804380Y-77104666D01*
X148852000Y-77009428D01*
X148899619Y-76961809D01*
X148994857Y-76914190D01*
X149137714Y-76914190D01*
X149232952Y-76961809D01*
X149280571Y-77009428D01*
X149328190Y-77104666D01*
X149328190Y-77485619D01*
X149280571Y-76152285D02*
X149280571Y-76485619D01*
X149804380Y-76485619D02*
X148804380Y-76485619D01*
X148804380Y-76009428D01*
X149899619Y-75866571D02*
X149899619Y-75104666D01*
X149804380Y-74295142D02*
X149328190Y-74628476D01*
X149804380Y-74866571D02*
X148804380Y-74866571D01*
X148804380Y-74485619D01*
X148852000Y-74390380D01*
X148899619Y-74342761D01*
X148994857Y-74295142D01*
X149137714Y-74295142D01*
X149232952Y-74342761D01*
X149280571Y-74390380D01*
X149328190Y-74485619D01*
X149328190Y-74866571D01*
X149232952Y-73723714D02*
X149185333Y-73818952D01*
X149137714Y-73866571D01*
X149042476Y-73914190D01*
X148994857Y-73914190D01*
X148899619Y-73866571D01*
X148852000Y-73818952D01*
X148804380Y-73723714D01*
X148804380Y-73533238D01*
X148852000Y-73438000D01*
X148899619Y-73390380D01*
X148994857Y-73342761D01*
X149042476Y-73342761D01*
X149137714Y-73390380D01*
X149185333Y-73438000D01*
X149232952Y-73533238D01*
X149232952Y-73723714D01*
X149280571Y-73818952D01*
X149328190Y-73866571D01*
X149423428Y-73914190D01*
X149613904Y-73914190D01*
X149709142Y-73866571D01*
X149756761Y-73818952D01*
X149804380Y-73723714D01*
X149804380Y-73533238D01*
X149756761Y-73438000D01*
X149709142Y-73390380D01*
X149613904Y-73342761D01*
X149423428Y-73342761D01*
X149328190Y-73390380D01*
X149280571Y-73438000D01*
X149232952Y-73533238D01*
D12*
%TO.C,RF_J1*%
X158562523Y-58619571D02*
X157957761Y-59042904D01*
X158562523Y-59345285D02*
X157292523Y-59345285D01*
X157292523Y-58861476D01*
X157353000Y-58740523D01*
X157413476Y-58680047D01*
X157534428Y-58619571D01*
X157715857Y-58619571D01*
X157836809Y-58680047D01*
X157897285Y-58740523D01*
X157957761Y-58861476D01*
X157957761Y-59345285D01*
X157897285Y-57651952D02*
X157897285Y-58075285D01*
X158562523Y-58075285D02*
X157292523Y-58075285D01*
X157292523Y-57470523D01*
X158683476Y-57289095D02*
X158683476Y-56321476D01*
X157292523Y-55656238D02*
X158199666Y-55656238D01*
X158381095Y-55716714D01*
X158502047Y-55837666D01*
X158562523Y-56019095D01*
X158562523Y-56140047D01*
X158562523Y-54386238D02*
X158562523Y-55111952D01*
X158562523Y-54749095D02*
X157292523Y-54749095D01*
X157473952Y-54870047D01*
X157594904Y-54991000D01*
X157655380Y-55111952D01*
D11*
%TO.C,RF_C8*%
X152487809Y-62428380D02*
X152154476Y-61952190D01*
X151916380Y-62428380D02*
X151916380Y-61428380D01*
X152297333Y-61428380D01*
X152392571Y-61476000D01*
X152440190Y-61523619D01*
X152487809Y-61618857D01*
X152487809Y-61761714D01*
X152440190Y-61856952D01*
X152392571Y-61904571D01*
X152297333Y-61952190D01*
X151916380Y-61952190D01*
X153249714Y-61904571D02*
X152916380Y-61904571D01*
X152916380Y-62428380D02*
X152916380Y-61428380D01*
X153392571Y-61428380D01*
X153535428Y-62523619D02*
X154297333Y-62523619D01*
X155106857Y-62333142D02*
X155059238Y-62380761D01*
X154916380Y-62428380D01*
X154821142Y-62428380D01*
X154678285Y-62380761D01*
X154583047Y-62285523D01*
X154535428Y-62190285D01*
X154487809Y-61999809D01*
X154487809Y-61856952D01*
X154535428Y-61666476D01*
X154583047Y-61571238D01*
X154678285Y-61476000D01*
X154821142Y-61428380D01*
X154916380Y-61428380D01*
X155059238Y-61476000D01*
X155106857Y-61523619D01*
X155678285Y-61856952D02*
X155583047Y-61809333D01*
X155535428Y-61761714D01*
X155487809Y-61666476D01*
X155487809Y-61618857D01*
X155535428Y-61523619D01*
X155583047Y-61476000D01*
X155678285Y-61428380D01*
X155868761Y-61428380D01*
X155964000Y-61476000D01*
X156011619Y-61523619D01*
X156059238Y-61618857D01*
X156059238Y-61666476D01*
X156011619Y-61761714D01*
X155964000Y-61809333D01*
X155868761Y-61856952D01*
X155678285Y-61856952D01*
X155583047Y-61904571D01*
X155535428Y-61952190D01*
X155487809Y-62047428D01*
X155487809Y-62237904D01*
X155535428Y-62333142D01*
X155583047Y-62380761D01*
X155678285Y-62428380D01*
X155868761Y-62428380D01*
X155964000Y-62380761D01*
X156011619Y-62333142D01*
X156059238Y-62237904D01*
X156059238Y-62047428D01*
X156011619Y-61952190D01*
X155964000Y-61904571D01*
X155868761Y-61856952D01*
%TO.C,RF_C9*%
X161996380Y-73358190D02*
X161520190Y-73691523D01*
X161996380Y-73929619D02*
X160996380Y-73929619D01*
X160996380Y-73548666D01*
X161044000Y-73453428D01*
X161091619Y-73405809D01*
X161186857Y-73358190D01*
X161329714Y-73358190D01*
X161424952Y-73405809D01*
X161472571Y-73453428D01*
X161520190Y-73548666D01*
X161520190Y-73929619D01*
X161472571Y-72596285D02*
X161472571Y-72929619D01*
X161996380Y-72929619D02*
X160996380Y-72929619D01*
X160996380Y-72453428D01*
X162091619Y-72310571D02*
X162091619Y-71548666D01*
X161901142Y-70739142D02*
X161948761Y-70786761D01*
X161996380Y-70929619D01*
X161996380Y-71024857D01*
X161948761Y-71167714D01*
X161853523Y-71262952D01*
X161758285Y-71310571D01*
X161567809Y-71358190D01*
X161424952Y-71358190D01*
X161234476Y-71310571D01*
X161139238Y-71262952D01*
X161044000Y-71167714D01*
X160996380Y-71024857D01*
X160996380Y-70929619D01*
X161044000Y-70786761D01*
X161091619Y-70739142D01*
X161996380Y-70262952D02*
X161996380Y-70072476D01*
X161948761Y-69977238D01*
X161901142Y-69929619D01*
X161758285Y-69834380D01*
X161567809Y-69786761D01*
X161186857Y-69786761D01*
X161091619Y-69834380D01*
X161044000Y-69882000D01*
X160996380Y-69977238D01*
X160996380Y-70167714D01*
X161044000Y-70262952D01*
X161091619Y-70310571D01*
X161186857Y-70358190D01*
X161424952Y-70358190D01*
X161520190Y-70310571D01*
X161567809Y-70262952D01*
X161615428Y-70167714D01*
X161615428Y-69977238D01*
X161567809Y-69882000D01*
X161520190Y-69834380D01*
X161424952Y-69786761D01*
%TO.C,H16*%
X108743904Y-94940380D02*
X108743904Y-93940380D01*
X108743904Y-94416571D02*
X109315333Y-94416571D01*
X109315333Y-94940380D02*
X109315333Y-93940380D01*
X110315333Y-94940380D02*
X109743904Y-94940380D01*
X110029619Y-94940380D02*
X110029619Y-93940380D01*
X109934380Y-94083238D01*
X109839142Y-94178476D01*
X109743904Y-94226095D01*
X111172476Y-93940380D02*
X110982000Y-93940380D01*
X110886761Y-93988000D01*
X110839142Y-94035619D01*
X110743904Y-94178476D01*
X110696285Y-94368952D01*
X110696285Y-94749904D01*
X110743904Y-94845142D01*
X110791523Y-94892761D01*
X110886761Y-94940380D01*
X111077238Y-94940380D01*
X111172476Y-94892761D01*
X111220095Y-94845142D01*
X111267714Y-94749904D01*
X111267714Y-94511809D01*
X111220095Y-94416571D01*
X111172476Y-94368952D01*
X111077238Y-94321333D01*
X110886761Y-94321333D01*
X110791523Y-94368952D01*
X110743904Y-94416571D01*
X110696285Y-94511809D01*
%TO.C,RF_R4*%
X133143809Y-102052380D02*
X132810476Y-101576190D01*
X132572380Y-102052380D02*
X132572380Y-101052380D01*
X132953333Y-101052380D01*
X133048571Y-101100000D01*
X133096190Y-101147619D01*
X133143809Y-101242857D01*
X133143809Y-101385714D01*
X133096190Y-101480952D01*
X133048571Y-101528571D01*
X132953333Y-101576190D01*
X132572380Y-101576190D01*
X133905714Y-101528571D02*
X133572380Y-101528571D01*
X133572380Y-102052380D02*
X133572380Y-101052380D01*
X134048571Y-101052380D01*
X134191428Y-102147619D02*
X134953333Y-102147619D01*
X135762857Y-102052380D02*
X135429523Y-101576190D01*
X135191428Y-102052380D02*
X135191428Y-101052380D01*
X135572380Y-101052380D01*
X135667619Y-101100000D01*
X135715238Y-101147619D01*
X135762857Y-101242857D01*
X135762857Y-101385714D01*
X135715238Y-101480952D01*
X135667619Y-101528571D01*
X135572380Y-101576190D01*
X135191428Y-101576190D01*
X136620000Y-101385714D02*
X136620000Y-102052380D01*
X136381904Y-101004761D02*
X136143809Y-101719047D01*
X136762857Y-101719047D01*
%TO.C,RF_R1*%
X108064380Y-76152190D02*
X107588190Y-76485523D01*
X108064380Y-76723619D02*
X107064380Y-76723619D01*
X107064380Y-76342666D01*
X107112000Y-76247428D01*
X107159619Y-76199809D01*
X107254857Y-76152190D01*
X107397714Y-76152190D01*
X107492952Y-76199809D01*
X107540571Y-76247428D01*
X107588190Y-76342666D01*
X107588190Y-76723619D01*
X107540571Y-75390285D02*
X107540571Y-75723619D01*
X108064380Y-75723619D02*
X107064380Y-75723619D01*
X107064380Y-75247428D01*
X108159619Y-75104571D02*
X108159619Y-74342666D01*
X108064380Y-73533142D02*
X107588190Y-73866476D01*
X108064380Y-74104571D02*
X107064380Y-74104571D01*
X107064380Y-73723619D01*
X107112000Y-73628380D01*
X107159619Y-73580761D01*
X107254857Y-73533142D01*
X107397714Y-73533142D01*
X107492952Y-73580761D01*
X107540571Y-73628380D01*
X107588190Y-73723619D01*
X107588190Y-74104571D01*
X108064380Y-72580761D02*
X108064380Y-73152190D01*
X108064380Y-72866476D02*
X107064380Y-72866476D01*
X107207238Y-72961714D01*
X107302476Y-73056952D01*
X107350095Y-73152190D01*
%TO.C,RF_R9*%
X146502380Y-72342190D02*
X146026190Y-72675523D01*
X146502380Y-72913619D02*
X145502380Y-72913619D01*
X145502380Y-72532666D01*
X145550000Y-72437428D01*
X145597619Y-72389809D01*
X145692857Y-72342190D01*
X145835714Y-72342190D01*
X145930952Y-72389809D01*
X145978571Y-72437428D01*
X146026190Y-72532666D01*
X146026190Y-72913619D01*
X145978571Y-71580285D02*
X145978571Y-71913619D01*
X146502380Y-71913619D02*
X145502380Y-71913619D01*
X145502380Y-71437428D01*
X146597619Y-71294571D02*
X146597619Y-70532666D01*
X146502380Y-69723142D02*
X146026190Y-70056476D01*
X146502380Y-70294571D02*
X145502380Y-70294571D01*
X145502380Y-69913619D01*
X145550000Y-69818380D01*
X145597619Y-69770761D01*
X145692857Y-69723142D01*
X145835714Y-69723142D01*
X145930952Y-69770761D01*
X145978571Y-69818380D01*
X146026190Y-69913619D01*
X146026190Y-70294571D01*
X146502380Y-69246952D02*
X146502380Y-69056476D01*
X146454761Y-68961238D01*
X146407142Y-68913619D01*
X146264285Y-68818380D01*
X146073809Y-68770761D01*
X145692857Y-68770761D01*
X145597619Y-68818380D01*
X145550000Y-68866000D01*
X145502380Y-68961238D01*
X145502380Y-69151714D01*
X145550000Y-69246952D01*
X145597619Y-69294571D01*
X145692857Y-69342190D01*
X145930952Y-69342190D01*
X146026190Y-69294571D01*
X146073809Y-69246952D01*
X146121428Y-69151714D01*
X146121428Y-68961238D01*
X146073809Y-68866000D01*
X146026190Y-68818380D01*
X145930952Y-68770761D01*
D12*
%TO.C,RF_SW1*%
X148051761Y-56454523D02*
X147628428Y-55849761D01*
X147326047Y-56454523D02*
X147326047Y-55184523D01*
X147809857Y-55184523D01*
X147930809Y-55245000D01*
X147991285Y-55305476D01*
X148051761Y-55426428D01*
X148051761Y-55607857D01*
X147991285Y-55728809D01*
X147930809Y-55789285D01*
X147809857Y-55849761D01*
X147326047Y-55849761D01*
X149019380Y-55789285D02*
X148596047Y-55789285D01*
X148596047Y-56454523D02*
X148596047Y-55184523D01*
X149200809Y-55184523D01*
X149382238Y-56575476D02*
X150349857Y-56575476D01*
X150591761Y-56394047D02*
X150773190Y-56454523D01*
X151075571Y-56454523D01*
X151196523Y-56394047D01*
X151257000Y-56333571D01*
X151317476Y-56212619D01*
X151317476Y-56091666D01*
X151257000Y-55970714D01*
X151196523Y-55910238D01*
X151075571Y-55849761D01*
X150833666Y-55789285D01*
X150712714Y-55728809D01*
X150652238Y-55668333D01*
X150591761Y-55547380D01*
X150591761Y-55426428D01*
X150652238Y-55305476D01*
X150712714Y-55245000D01*
X150833666Y-55184523D01*
X151136047Y-55184523D01*
X151317476Y-55245000D01*
X151740809Y-55184523D02*
X152043190Y-56454523D01*
X152285095Y-55547380D01*
X152527000Y-56454523D01*
X152829380Y-55184523D01*
X153978428Y-56454523D02*
X153252714Y-56454523D01*
X153615571Y-56454523D02*
X153615571Y-55184523D01*
X153494619Y-55365952D01*
X153373666Y-55486904D01*
X153252714Y-55547380D01*
D11*
%TO.C,RF_R10*%
X139017619Y-70302380D02*
X138684285Y-69826190D01*
X138446190Y-70302380D02*
X138446190Y-69302380D01*
X138827142Y-69302380D01*
X138922380Y-69350000D01*
X138970000Y-69397619D01*
X139017619Y-69492857D01*
X139017619Y-69635714D01*
X138970000Y-69730952D01*
X138922380Y-69778571D01*
X138827142Y-69826190D01*
X138446190Y-69826190D01*
X139779523Y-69778571D02*
X139446190Y-69778571D01*
X139446190Y-70302380D02*
X139446190Y-69302380D01*
X139922380Y-69302380D01*
X140065238Y-70397619D02*
X140827142Y-70397619D01*
X141636666Y-70302380D02*
X141303333Y-69826190D01*
X141065238Y-70302380D02*
X141065238Y-69302380D01*
X141446190Y-69302380D01*
X141541428Y-69350000D01*
X141589047Y-69397619D01*
X141636666Y-69492857D01*
X141636666Y-69635714D01*
X141589047Y-69730952D01*
X141541428Y-69778571D01*
X141446190Y-69826190D01*
X141065238Y-69826190D01*
X142589047Y-70302380D02*
X142017619Y-70302380D01*
X142303333Y-70302380D02*
X142303333Y-69302380D01*
X142208095Y-69445238D01*
X142112857Y-69540476D01*
X142017619Y-69588095D01*
X143208095Y-69302380D02*
X143303333Y-69302380D01*
X143398571Y-69350000D01*
X143446190Y-69397619D01*
X143493809Y-69492857D01*
X143541428Y-69683333D01*
X143541428Y-69921428D01*
X143493809Y-70111904D01*
X143446190Y-70207142D01*
X143398571Y-70254761D01*
X143303333Y-70302380D01*
X143208095Y-70302380D01*
X143112857Y-70254761D01*
X143065238Y-70207142D01*
X143017619Y-70111904D01*
X142970000Y-69921428D01*
X142970000Y-69683333D01*
X143017619Y-69492857D01*
X143065238Y-69397619D01*
X143112857Y-69350000D01*
X143208095Y-69302380D01*
%TO.C,RF_L1*%
X168545047Y-82240380D02*
X168211714Y-81764190D01*
X167973619Y-82240380D02*
X167973619Y-81240380D01*
X168354571Y-81240380D01*
X168449809Y-81288000D01*
X168497428Y-81335619D01*
X168545047Y-81430857D01*
X168545047Y-81573714D01*
X168497428Y-81668952D01*
X168449809Y-81716571D01*
X168354571Y-81764190D01*
X167973619Y-81764190D01*
X169306952Y-81716571D02*
X168973619Y-81716571D01*
X168973619Y-82240380D02*
X168973619Y-81240380D01*
X169449809Y-81240380D01*
X169592666Y-82335619D02*
X170354571Y-82335619D01*
X171068857Y-82240380D02*
X170592666Y-82240380D01*
X170592666Y-81240380D01*
X171926000Y-82240380D02*
X171354571Y-82240380D01*
X171640285Y-82240380D02*
X171640285Y-81240380D01*
X171545047Y-81383238D01*
X171449809Y-81478476D01*
X171354571Y-81526095D01*
%TO.C,RF_C3*%
X129738380Y-91138190D02*
X129262190Y-91471523D01*
X129738380Y-91709619D02*
X128738380Y-91709619D01*
X128738380Y-91328666D01*
X128786000Y-91233428D01*
X128833619Y-91185809D01*
X128928857Y-91138190D01*
X129071714Y-91138190D01*
X129166952Y-91185809D01*
X129214571Y-91233428D01*
X129262190Y-91328666D01*
X129262190Y-91709619D01*
X129214571Y-90376285D02*
X129214571Y-90709619D01*
X129738380Y-90709619D02*
X128738380Y-90709619D01*
X128738380Y-90233428D01*
X129833619Y-90090571D02*
X129833619Y-89328666D01*
X129643142Y-88519142D02*
X129690761Y-88566761D01*
X129738380Y-88709619D01*
X129738380Y-88804857D01*
X129690761Y-88947714D01*
X129595523Y-89042952D01*
X129500285Y-89090571D01*
X129309809Y-89138190D01*
X129166952Y-89138190D01*
X128976476Y-89090571D01*
X128881238Y-89042952D01*
X128786000Y-88947714D01*
X128738380Y-88804857D01*
X128738380Y-88709619D01*
X128786000Y-88566761D01*
X128833619Y-88519142D01*
X128738380Y-88185809D02*
X128738380Y-87566761D01*
X129119333Y-87900095D01*
X129119333Y-87757238D01*
X129166952Y-87662000D01*
X129214571Y-87614380D01*
X129309809Y-87566761D01*
X129547904Y-87566761D01*
X129643142Y-87614380D01*
X129690761Y-87662000D01*
X129738380Y-87757238D01*
X129738380Y-88042952D01*
X129690761Y-88138190D01*
X129643142Y-88185809D01*
%TO.C,RF_R12*%
X140795619Y-74874380D02*
X140462285Y-74398190D01*
X140224190Y-74874380D02*
X140224190Y-73874380D01*
X140605142Y-73874380D01*
X140700380Y-73922000D01*
X140748000Y-73969619D01*
X140795619Y-74064857D01*
X140795619Y-74207714D01*
X140748000Y-74302952D01*
X140700380Y-74350571D01*
X140605142Y-74398190D01*
X140224190Y-74398190D01*
X141557523Y-74350571D02*
X141224190Y-74350571D01*
X141224190Y-74874380D02*
X141224190Y-73874380D01*
X141700380Y-73874380D01*
X141843238Y-74969619D02*
X142605142Y-74969619D01*
X143414666Y-74874380D02*
X143081333Y-74398190D01*
X142843238Y-74874380D02*
X142843238Y-73874380D01*
X143224190Y-73874380D01*
X143319428Y-73922000D01*
X143367047Y-73969619D01*
X143414666Y-74064857D01*
X143414666Y-74207714D01*
X143367047Y-74302952D01*
X143319428Y-74350571D01*
X143224190Y-74398190D01*
X142843238Y-74398190D01*
X144367047Y-74874380D02*
X143795619Y-74874380D01*
X144081333Y-74874380D02*
X144081333Y-73874380D01*
X143986095Y-74017238D01*
X143890857Y-74112476D01*
X143795619Y-74160095D01*
X144748000Y-73969619D02*
X144795619Y-73922000D01*
X144890857Y-73874380D01*
X145128952Y-73874380D01*
X145224190Y-73922000D01*
X145271809Y-73969619D01*
X145319428Y-74064857D01*
X145319428Y-74160095D01*
X145271809Y-74302952D01*
X144700380Y-74874380D01*
X145319428Y-74874380D01*
%TO.C,RF_L2*%
X155845047Y-79446380D02*
X155511714Y-78970190D01*
X155273619Y-79446380D02*
X155273619Y-78446380D01*
X155654571Y-78446380D01*
X155749809Y-78494000D01*
X155797428Y-78541619D01*
X155845047Y-78636857D01*
X155845047Y-78779714D01*
X155797428Y-78874952D01*
X155749809Y-78922571D01*
X155654571Y-78970190D01*
X155273619Y-78970190D01*
X156606952Y-78922571D02*
X156273619Y-78922571D01*
X156273619Y-79446380D02*
X156273619Y-78446380D01*
X156749809Y-78446380D01*
X156892666Y-79541619D02*
X157654571Y-79541619D01*
X158368857Y-79446380D02*
X157892666Y-79446380D01*
X157892666Y-78446380D01*
X158654571Y-78541619D02*
X158702190Y-78494000D01*
X158797428Y-78446380D01*
X159035523Y-78446380D01*
X159130761Y-78494000D01*
X159178380Y-78541619D01*
X159226000Y-78636857D01*
X159226000Y-78732095D01*
X159178380Y-78874952D01*
X158606952Y-79446380D01*
X159226000Y-79446380D01*
%TO.C,RF_C10*%
X170632380Y-87804380D02*
X170156190Y-88137714D01*
X170632380Y-88375809D02*
X169632380Y-88375809D01*
X169632380Y-87994857D01*
X169680000Y-87899619D01*
X169727619Y-87852000D01*
X169822857Y-87804380D01*
X169965714Y-87804380D01*
X170060952Y-87852000D01*
X170108571Y-87899619D01*
X170156190Y-87994857D01*
X170156190Y-88375809D01*
X170108571Y-87042476D02*
X170108571Y-87375809D01*
X170632380Y-87375809D02*
X169632380Y-87375809D01*
X169632380Y-86899619D01*
X170727619Y-86756761D02*
X170727619Y-85994857D01*
X170537142Y-85185333D02*
X170584761Y-85232952D01*
X170632380Y-85375809D01*
X170632380Y-85471047D01*
X170584761Y-85613904D01*
X170489523Y-85709142D01*
X170394285Y-85756761D01*
X170203809Y-85804380D01*
X170060952Y-85804380D01*
X169870476Y-85756761D01*
X169775238Y-85709142D01*
X169680000Y-85613904D01*
X169632380Y-85471047D01*
X169632380Y-85375809D01*
X169680000Y-85232952D01*
X169727619Y-85185333D01*
X170632380Y-84232952D02*
X170632380Y-84804380D01*
X170632380Y-84518666D02*
X169632380Y-84518666D01*
X169775238Y-84613904D01*
X169870476Y-84709142D01*
X169918095Y-84804380D01*
X169632380Y-83613904D02*
X169632380Y-83518666D01*
X169680000Y-83423428D01*
X169727619Y-83375809D01*
X169822857Y-83328190D01*
X170013333Y-83280571D01*
X170251428Y-83280571D01*
X170441904Y-83328190D01*
X170537142Y-83375809D01*
X170584761Y-83423428D01*
X170632380Y-83518666D01*
X170632380Y-83613904D01*
X170584761Y-83709142D01*
X170537142Y-83756761D01*
X170441904Y-83804380D01*
X170251428Y-83852000D01*
X170013333Y-83852000D01*
X169822857Y-83804380D01*
X169727619Y-83756761D01*
X169680000Y-83709142D01*
X169632380Y-83613904D01*
%TO.C,RF_C1*%
X127452380Y-60658190D02*
X126976190Y-60991523D01*
X127452380Y-61229619D02*
X126452380Y-61229619D01*
X126452380Y-60848666D01*
X126500000Y-60753428D01*
X126547619Y-60705809D01*
X126642857Y-60658190D01*
X126785714Y-60658190D01*
X126880952Y-60705809D01*
X126928571Y-60753428D01*
X126976190Y-60848666D01*
X126976190Y-61229619D01*
X126928571Y-59896285D02*
X126928571Y-60229619D01*
X127452380Y-60229619D02*
X126452380Y-60229619D01*
X126452380Y-59753428D01*
X127547619Y-59610571D02*
X127547619Y-58848666D01*
X127357142Y-58039142D02*
X127404761Y-58086761D01*
X127452380Y-58229619D01*
X127452380Y-58324857D01*
X127404761Y-58467714D01*
X127309523Y-58562952D01*
X127214285Y-58610571D01*
X127023809Y-58658190D01*
X126880952Y-58658190D01*
X126690476Y-58610571D01*
X126595238Y-58562952D01*
X126500000Y-58467714D01*
X126452380Y-58324857D01*
X126452380Y-58229619D01*
X126500000Y-58086761D01*
X126547619Y-58039142D01*
X127452380Y-57086761D02*
X127452380Y-57658190D01*
X127452380Y-57372476D02*
X126452380Y-57372476D01*
X126595238Y-57467714D01*
X126690476Y-57562952D01*
X126738095Y-57658190D01*
%TO.C,RF_R2*%
X126266380Y-85042190D02*
X125790190Y-85375523D01*
X126266380Y-85613619D02*
X125266380Y-85613619D01*
X125266380Y-85232666D01*
X125314000Y-85137428D01*
X125361619Y-85089809D01*
X125456857Y-85042190D01*
X125599714Y-85042190D01*
X125694952Y-85089809D01*
X125742571Y-85137428D01*
X125790190Y-85232666D01*
X125790190Y-85613619D01*
X125742571Y-84280285D02*
X125742571Y-84613619D01*
X126266380Y-84613619D02*
X125266380Y-84613619D01*
X125266380Y-84137428D01*
X126361619Y-83994571D02*
X126361619Y-83232666D01*
X126266380Y-82423142D02*
X125790190Y-82756476D01*
X126266380Y-82994571D02*
X125266380Y-82994571D01*
X125266380Y-82613619D01*
X125314000Y-82518380D01*
X125361619Y-82470761D01*
X125456857Y-82423142D01*
X125599714Y-82423142D01*
X125694952Y-82470761D01*
X125742571Y-82518380D01*
X125790190Y-82613619D01*
X125790190Y-82994571D01*
X125361619Y-82042190D02*
X125314000Y-81994571D01*
X125266380Y-81899333D01*
X125266380Y-81661238D01*
X125314000Y-81566000D01*
X125361619Y-81518380D01*
X125456857Y-81470761D01*
X125552095Y-81470761D01*
X125694952Y-81518380D01*
X126266380Y-82089809D01*
X126266380Y-81470761D01*
%TO.C,RF_U1*%
X129694380Y-86605000D02*
X129218190Y-86938333D01*
X129694380Y-87176428D02*
X128694380Y-87176428D01*
X128694380Y-86795476D01*
X128742000Y-86700238D01*
X128789619Y-86652619D01*
X128884857Y-86605000D01*
X129027714Y-86605000D01*
X129122952Y-86652619D01*
X129170571Y-86700238D01*
X129218190Y-86795476D01*
X129218190Y-87176428D01*
X129170571Y-85843095D02*
X129170571Y-86176428D01*
X129694380Y-86176428D02*
X128694380Y-86176428D01*
X128694380Y-85700238D01*
X129789619Y-85557380D02*
X129789619Y-84795476D01*
X128694380Y-84557380D02*
X129503904Y-84557380D01*
X129599142Y-84509761D01*
X129646761Y-84462142D01*
X129694380Y-84366904D01*
X129694380Y-84176428D01*
X129646761Y-84081190D01*
X129599142Y-84033571D01*
X129503904Y-83985952D01*
X128694380Y-83985952D01*
X129694380Y-82985952D02*
X129694380Y-83557380D01*
X129694380Y-83271666D02*
X128694380Y-83271666D01*
X128837238Y-83366904D01*
X128932476Y-83462142D01*
X128980095Y-83557380D01*
%TO.C,RF_C7*%
X136953809Y-77922380D02*
X136620476Y-77446190D01*
X136382380Y-77922380D02*
X136382380Y-76922380D01*
X136763333Y-76922380D01*
X136858571Y-76970000D01*
X136906190Y-77017619D01*
X136953809Y-77112857D01*
X136953809Y-77255714D01*
X136906190Y-77350952D01*
X136858571Y-77398571D01*
X136763333Y-77446190D01*
X136382380Y-77446190D01*
X137715714Y-77398571D02*
X137382380Y-77398571D01*
X137382380Y-77922380D02*
X137382380Y-76922380D01*
X137858571Y-76922380D01*
X138001428Y-78017619D02*
X138763333Y-78017619D01*
X139572857Y-77827142D02*
X139525238Y-77874761D01*
X139382380Y-77922380D01*
X139287142Y-77922380D01*
X139144285Y-77874761D01*
X139049047Y-77779523D01*
X139001428Y-77684285D01*
X138953809Y-77493809D01*
X138953809Y-77350952D01*
X139001428Y-77160476D01*
X139049047Y-77065238D01*
X139144285Y-76970000D01*
X139287142Y-76922380D01*
X139382380Y-76922380D01*
X139525238Y-76970000D01*
X139572857Y-77017619D01*
X139906190Y-76922380D02*
X140572857Y-76922380D01*
X140144285Y-77922380D01*
%TO.C,H17*%
X108743904Y-69032380D02*
X108743904Y-68032380D01*
X108743904Y-68508571D02*
X109315333Y-68508571D01*
X109315333Y-69032380D02*
X109315333Y-68032380D01*
X110315333Y-69032380D02*
X109743904Y-69032380D01*
X110029619Y-69032380D02*
X110029619Y-68032380D01*
X109934380Y-68175238D01*
X109839142Y-68270476D01*
X109743904Y-68318095D01*
X110648666Y-68032380D02*
X111315333Y-68032380D01*
X110886761Y-69032380D01*
%TO.C,RF_VL1*%
X117125523Y-65079619D02*
X117458857Y-65555809D01*
X117696952Y-65079619D02*
X117696952Y-66079619D01*
X117316000Y-66079619D01*
X117220761Y-66032000D01*
X117173142Y-65984380D01*
X117125523Y-65889142D01*
X117125523Y-65746285D01*
X117173142Y-65651047D01*
X117220761Y-65603428D01*
X117316000Y-65555809D01*
X117696952Y-65555809D01*
X116363619Y-65603428D02*
X116696952Y-65603428D01*
X116696952Y-65079619D02*
X116696952Y-66079619D01*
X116220761Y-66079619D01*
X116077904Y-64984380D02*
X115316000Y-64984380D01*
X115220761Y-66079619D02*
X114887428Y-65079619D01*
X114554095Y-66079619D01*
X113744571Y-65079619D02*
X114220761Y-65079619D01*
X114220761Y-66079619D01*
X112887428Y-65079619D02*
X113458857Y-65079619D01*
X113173142Y-65079619D02*
X113173142Y-66079619D01*
X113268380Y-65936761D01*
X113363619Y-65841523D01*
X113458857Y-65793904D01*
D13*
%TO.C,RF_JP1*%
X120750000Y-70644000D02*
X118010000Y-70644000D01*
X118010000Y-70644000D02*
X118010000Y-77184000D01*
X119380000Y-80494000D02*
X119380000Y-77184000D01*
X120750000Y-77184000D02*
X120750000Y-70644000D01*
X119380000Y-67334000D02*
X119380000Y-70644000D01*
X118010000Y-77184000D02*
X120750000Y-77184000D01*
%TO.C,RF_C6*%
X155040000Y-93916000D02*
X152300000Y-93916000D01*
X152300000Y-93916000D02*
X152300000Y-101156000D01*
X155040000Y-101156000D02*
X152300000Y-101156000D01*
X155040000Y-93916000D02*
X155040000Y-101156000D01*
%TO.C,RF_C5*%
X128714000Y-79602000D02*
X135954000Y-79602000D01*
X128714000Y-76862000D02*
X128714000Y-79602000D01*
X135954000Y-76862000D02*
X135954000Y-79602000D01*
X128714000Y-76862000D02*
X135954000Y-76862000D01*
%TO.C,RF_R11*%
X130080000Y-70766000D02*
X136620000Y-70766000D01*
X136620000Y-73506000D02*
X136620000Y-73176000D01*
X130080000Y-73506000D02*
X136620000Y-73506000D01*
X130080000Y-73176000D02*
X130080000Y-73506000D01*
X130080000Y-71096000D02*
X130080000Y-70766000D01*
X136620000Y-70766000D02*
X136620000Y-71096000D01*
%TO.C,RF_C12*%
X143192000Y-93318000D02*
X143192000Y-90578000D01*
X150432000Y-93318000D02*
X143192000Y-93318000D01*
X150432000Y-90578000D02*
X143192000Y-90578000D01*
X150432000Y-93318000D02*
X150432000Y-90578000D01*
%TO.C,RF_R6*%
X164052000Y-98452000D02*
X164052000Y-98782000D01*
X157512000Y-101192000D02*
X164052000Y-101192000D01*
X157512000Y-98782000D02*
X157512000Y-98452000D01*
X157512000Y-100862000D02*
X157512000Y-101192000D01*
X164052000Y-101192000D02*
X164052000Y-100862000D01*
X157512000Y-98452000D02*
X164052000Y-98452000D01*
%TO.C,RF_C2*%
X124560000Y-72834000D02*
X121820000Y-72834000D01*
X124560000Y-72834000D02*
X124560000Y-80074000D01*
X124560000Y-80074000D02*
X121820000Y-80074000D01*
X121820000Y-72834000D02*
X121820000Y-80074000D01*
%TO.C,RF_C13*%
X116453328Y-100100000D02*
X116453328Y-101616000D01*
X116493328Y-96510000D02*
X116493328Y-98020000D01*
X117974328Y-100100000D02*
X117974328Y-100845000D01*
X116934328Y-96618000D02*
X116934328Y-98020000D01*
X116453328Y-96504000D02*
X116453328Y-98020000D01*
X116333328Y-100100000D02*
X116333328Y-101629000D01*
X118294328Y-97677000D02*
X118294328Y-100443000D01*
X117014328Y-96646000D02*
X117014328Y-98020000D01*
X116213328Y-96482000D02*
X116213328Y-98020000D01*
X118614328Y-98383000D02*
X118614328Y-99737000D01*
X113288553Y-97585000D02*
X113788553Y-97585000D01*
X117614328Y-96965000D02*
X117614328Y-98020000D01*
X117414328Y-100100000D02*
X117414328Y-101284000D01*
X116413328Y-96499000D02*
X116413328Y-98020000D01*
X113538553Y-97335000D02*
X113538553Y-97835000D01*
X118254328Y-97617000D02*
X118254328Y-100503000D01*
X117654328Y-96995000D02*
X117654328Y-98020000D01*
X117934328Y-100100000D02*
X117934328Y-100886000D01*
X116333328Y-96491000D02*
X116333328Y-98020000D01*
X118454328Y-97962000D02*
X118454328Y-100158000D01*
X116854328Y-100100000D02*
X116854328Y-101528000D01*
X117574328Y-96938000D02*
X117574328Y-98020000D01*
X116613328Y-100100000D02*
X116613328Y-101588000D01*
X116413328Y-100100000D02*
X116413328Y-101621000D01*
X117414328Y-96836000D02*
X117414328Y-98020000D01*
X117254328Y-100100000D02*
X117254328Y-101370000D01*
X116894328Y-100100000D02*
X116894328Y-101515000D01*
X117614328Y-100100000D02*
X117614328Y-101155000D01*
X117174328Y-96712000D02*
X117174328Y-98020000D01*
X116974328Y-100100000D02*
X116974328Y-101488000D01*
X118694328Y-98776000D02*
X118694328Y-99344000D01*
X117094328Y-100100000D02*
X117094328Y-101442000D01*
X116093328Y-96480000D02*
X116093328Y-98020000D01*
X117774328Y-100100000D02*
X117774328Y-101031000D01*
X118574328Y-98255000D02*
X118574328Y-99865000D01*
X117774328Y-97089000D02*
X117774328Y-98020000D01*
X118214328Y-97560000D02*
X118214328Y-100560000D01*
X116653328Y-96540000D02*
X116653328Y-98020000D01*
X117214328Y-96731000D02*
X117214328Y-98020000D01*
X116854328Y-96592000D02*
X116854328Y-98020000D01*
X117254328Y-96750000D02*
X117254328Y-98020000D01*
X118374328Y-97809000D02*
X118374328Y-100311000D01*
X116533328Y-96517000D02*
X116533328Y-98020000D01*
X116894328Y-96605000D02*
X116894328Y-98020000D01*
X116133328Y-96480000D02*
X116133328Y-98020000D01*
X117094328Y-96678000D02*
X117094328Y-98020000D01*
X117494328Y-96885000D02*
X117494328Y-98020000D01*
X117134328Y-96695000D02*
X117134328Y-98020000D01*
X117494328Y-100100000D02*
X117494328Y-101235000D01*
X118654328Y-98542000D02*
X118654328Y-99578000D01*
X117814328Y-97123000D02*
X117814328Y-98020000D01*
X118054328Y-100100000D02*
X118054328Y-100759000D01*
X117374328Y-100100000D02*
X117374328Y-101307000D01*
X117534328Y-96911000D02*
X117534328Y-98020000D01*
X116213328Y-100100000D02*
X116213328Y-101638000D01*
X117054328Y-100100000D02*
X117054328Y-101458000D01*
X117294328Y-96770000D02*
X117294328Y-98020000D01*
X117334328Y-100100000D02*
X117334328Y-101328000D01*
X117974328Y-97275000D02*
X117974328Y-98020000D01*
X117734328Y-97056000D02*
X117734328Y-98020000D01*
X116533328Y-100100000D02*
X116533328Y-101603000D01*
X116693328Y-96549000D02*
X116693328Y-98020000D01*
X117654328Y-100100000D02*
X117654328Y-101125000D01*
X116373328Y-100100000D02*
X116373328Y-101625000D01*
X116093328Y-100100000D02*
X116093328Y-101640000D01*
X116773328Y-100100000D02*
X116773328Y-101551000D01*
X116253328Y-100100000D02*
X116253328Y-101636000D01*
X116693328Y-100100000D02*
X116693328Y-101571000D01*
X118054328Y-97361000D02*
X118054328Y-98020000D01*
X116613328Y-96532000D02*
X116613328Y-98020000D01*
X116253328Y-96484000D02*
X116253328Y-98020000D01*
X117894328Y-97196000D02*
X117894328Y-98020000D01*
X118494328Y-98049000D02*
X118494328Y-100071000D01*
X117054328Y-96662000D02*
X117054328Y-98020000D01*
X117334328Y-96792000D02*
X117334328Y-98020000D01*
X116493328Y-100100000D02*
X116493328Y-101610000D01*
X116173328Y-96481000D02*
X116173328Y-98020000D01*
X116293328Y-96487000D02*
X116293328Y-98020000D01*
X116934328Y-100100000D02*
X116934328Y-101502000D01*
X116814328Y-100100000D02*
X116814328Y-101540000D01*
X118094328Y-97407000D02*
X118094328Y-98020000D01*
X118014328Y-97317000D02*
X118014328Y-98020000D01*
X118414328Y-97882000D02*
X118414328Y-100238000D01*
X117694328Y-100100000D02*
X117694328Y-101095000D01*
X117294328Y-100100000D02*
X117294328Y-101350000D01*
X116173328Y-100100000D02*
X116173328Y-101639000D01*
X117174328Y-100100000D02*
X117174328Y-101408000D01*
X117454328Y-96860000D02*
X117454328Y-98020000D01*
X117134328Y-100100000D02*
X117134328Y-101425000D01*
X117854328Y-100100000D02*
X117854328Y-100961000D01*
X116733328Y-96559000D02*
X116733328Y-98020000D01*
X117374328Y-96813000D02*
X117374328Y-98020000D01*
X117014328Y-100100000D02*
X117014328Y-101474000D01*
X117214328Y-100100000D02*
X117214328Y-101389000D01*
X116814328Y-96580000D02*
X116814328Y-98020000D01*
X118134328Y-97455000D02*
X118134328Y-100665000D01*
X117814328Y-100100000D02*
X117814328Y-100997000D01*
X116293328Y-100100000D02*
X116293328Y-101633000D01*
X118014328Y-100100000D02*
X118014328Y-100803000D01*
X118334328Y-97741000D02*
X118334328Y-100379000D01*
X116573328Y-96524000D02*
X116573328Y-98020000D01*
X118174328Y-97506000D02*
X118174328Y-100614000D01*
X116373328Y-96495000D02*
X116373328Y-98020000D01*
X116653328Y-100100000D02*
X116653328Y-101580000D01*
X117534328Y-100100000D02*
X117534328Y-101209000D01*
X117894328Y-100100000D02*
X117894328Y-100924000D01*
X116133328Y-100100000D02*
X116133328Y-101640000D01*
X117694328Y-97025000D02*
X117694328Y-98020000D01*
X118534328Y-98145000D02*
X118534328Y-99975000D01*
X117854328Y-97159000D02*
X117854328Y-98020000D01*
X117574328Y-100100000D02*
X117574328Y-101182000D01*
X116573328Y-100100000D02*
X116573328Y-101596000D01*
X117934328Y-97234000D02*
X117934328Y-98020000D01*
X117454328Y-100100000D02*
X117454328Y-101260000D01*
X116974328Y-96632000D02*
X116974328Y-98020000D01*
X116733328Y-100100000D02*
X116733328Y-101561000D01*
X117734328Y-100100000D02*
X117734328Y-101064000D01*
X118094328Y-100100000D02*
X118094328Y-100713000D01*
X116773328Y-96569000D02*
X116773328Y-98020000D01*
X118713328Y-99060000D02*
G75*
G03*
X118713328Y-99060000I-2620000J0D01*
G01*
%TO.C,RF_R3*%
X124492000Y-100100000D02*
X124492000Y-100430000D01*
X124492000Y-98020000D02*
X124492000Y-97690000D01*
X131032000Y-100430000D02*
X131032000Y-100100000D01*
X124492000Y-100430000D02*
X131032000Y-100430000D01*
X131032000Y-97690000D02*
X131032000Y-98020000D01*
X124492000Y-97690000D02*
X131032000Y-97690000D01*
%TO.C,RF_L3*%
X145760000Y-94462348D02*
G75*
G03*
X145760000Y-101545652I1560000J-3541652D01*
G01*
X148880000Y-101545652D02*
G75*
G03*
X148880000Y-94462348I-1560000J3541652D01*
G01*
%TO.C,RF_C11*%
X169736000Y-69496000D02*
X169736000Y-72236000D01*
X162496000Y-69496000D02*
X169736000Y-69496000D01*
X162496000Y-72236000D02*
X169736000Y-72236000D01*
X162496000Y-69496000D02*
X162496000Y-72236000D01*
%TO.C,RF_D1*%
X118006000Y-90674000D02*
X120246000Y-90674000D01*
X119126000Y-93194000D02*
X119126000Y-91274000D01*
X120246000Y-91274000D02*
X120246000Y-87034000D01*
X118006000Y-87034000D02*
X118006000Y-91274000D01*
X120246000Y-87034000D02*
X118006000Y-87034000D01*
X118006000Y-90554000D02*
X120246000Y-90554000D01*
X119126000Y-85114000D02*
X119126000Y-87034000D01*
X118006000Y-91274000D02*
X120246000Y-91274000D01*
X118006000Y-90434000D02*
X120246000Y-90434000D01*
%TO.C,RF_D2*%
X127612000Y-72394000D02*
X125372000Y-72394000D01*
X125372000Y-71794000D02*
X125372000Y-76034000D01*
X127612000Y-71794000D02*
X125372000Y-71794000D01*
X126492000Y-69874000D02*
X126492000Y-71794000D01*
X126492000Y-77954000D02*
X126492000Y-76034000D01*
X127612000Y-76034000D02*
X127612000Y-71794000D01*
X127612000Y-72634000D02*
X125372000Y-72634000D01*
X125372000Y-76034000D02*
X127612000Y-76034000D01*
X127612000Y-72514000D02*
X125372000Y-72514000D01*
%TO.C,RF_C4*%
X132144000Y-94134000D02*
X124904000Y-94134000D01*
X132144000Y-96874000D02*
X124904000Y-96874000D01*
X124904000Y-96874000D02*
X124904000Y-94134000D01*
X132144000Y-96874000D02*
X132144000Y-94134000D01*
%TO.C,RF_R5*%
X164052000Y-97052000D02*
X164052000Y-97382000D01*
X157512000Y-94642000D02*
X157512000Y-94972000D01*
X164052000Y-94972000D02*
X164052000Y-94642000D01*
X157512000Y-97382000D02*
X157512000Y-97052000D01*
X164052000Y-94642000D02*
X157512000Y-94642000D01*
X164052000Y-97382000D02*
X157512000Y-97382000D01*
%TO.C,J4B1*%
X112716000Y-73914000D02*
X115376000Y-73914000D01*
X115376000Y-71314000D02*
X115376000Y-72644000D01*
X112716000Y-73914000D02*
X112716000Y-91754000D01*
X112716000Y-91754000D02*
X115376000Y-91754000D01*
X114046000Y-71314000D02*
X115376000Y-71314000D01*
X115376000Y-73914000D02*
X115376000Y-91754000D01*
%TO.C,RF_R7*%
X157326000Y-70136000D02*
X156996000Y-70136000D01*
X154586000Y-76676000D02*
X154586000Y-70136000D01*
X154916000Y-76676000D02*
X154586000Y-76676000D01*
X156996000Y-76676000D02*
X157326000Y-76676000D01*
X157326000Y-76676000D02*
X157326000Y-70136000D01*
X154586000Y-70136000D02*
X154916000Y-70136000D01*
%TO.C,RF_R8*%
X153008000Y-76676000D02*
X153008000Y-70136000D01*
X153008000Y-70136000D02*
X152678000Y-70136000D01*
X150598000Y-76676000D02*
X150268000Y-76676000D01*
X152678000Y-76676000D02*
X153008000Y-76676000D01*
X150268000Y-70136000D02*
X150598000Y-70136000D01*
X150268000Y-76676000D02*
X150268000Y-70136000D01*
D14*
%TO.C,RF_J1*%
X170954000Y-61556500D02*
X170954000Y-61556500D01*
D15*
X160354000Y-67656500D02*
X160354000Y-60156500D01*
X167354000Y-57656500D02*
X163354000Y-57656500D01*
X167854000Y-67656500D02*
X170354000Y-67656500D01*
X170354000Y-67656500D02*
X170354000Y-60156500D01*
D14*
X171154000Y-61556500D02*
X171154000Y-61556500D01*
D15*
X162854000Y-67656500D02*
X160354000Y-67656500D01*
D14*
X170954000Y-61556500D02*
G75*
G03*
X171154000Y-61556500I100000J0D01*
G01*
X171154000Y-61556500D02*
G75*
G03*
X170954000Y-61556500I-100000J0D01*
G01*
D13*
%TO.C,RF_C8*%
X150304000Y-62892000D02*
X157544000Y-62892000D01*
X150304000Y-65632000D02*
X157544000Y-65632000D01*
X150304000Y-62892000D02*
X150304000Y-65632000D01*
X157544000Y-62892000D02*
X157544000Y-65632000D01*
%TO.C,RF_C9*%
X157888000Y-77534000D02*
X160628000Y-77534000D01*
X157888000Y-70294000D02*
X160628000Y-70294000D01*
X157888000Y-77534000D02*
X157888000Y-70294000D01*
X160628000Y-77534000D02*
X160628000Y-70294000D01*
%TO.C,RF_R4*%
X133250000Y-98774000D02*
X133250000Y-92234000D01*
X133250000Y-92234000D02*
X133580000Y-92234000D01*
X135660000Y-98774000D02*
X135990000Y-98774000D01*
X135990000Y-98774000D02*
X135990000Y-92234000D01*
X133580000Y-98774000D02*
X133250000Y-98774000D01*
X135990000Y-92234000D02*
X135660000Y-92234000D01*
%TO.C,RF_R1*%
X108612000Y-71406000D02*
X108942000Y-71406000D01*
X108612000Y-77946000D02*
X108612000Y-71406000D01*
X111352000Y-77946000D02*
X111352000Y-71406000D01*
X111352000Y-71406000D02*
X111022000Y-71406000D01*
X108942000Y-77946000D02*
X108612000Y-77946000D01*
X111022000Y-77946000D02*
X111352000Y-77946000D01*
%TO.C,RF_R9*%
X146966000Y-71342000D02*
X147296000Y-71342000D01*
X146966000Y-64802000D02*
X146966000Y-71342000D01*
X147296000Y-64802000D02*
X146966000Y-64802000D01*
X149706000Y-64802000D02*
X149706000Y-71342000D01*
X149376000Y-64802000D02*
X149706000Y-64802000D01*
X149706000Y-71342000D02*
X149376000Y-71342000D01*
D14*
%TO.C,RF_SW1*%
X131168500Y-64997000D02*
X131168500Y-64997000D01*
D15*
X131318500Y-60917000D02*
X131318500Y-57567000D01*
D14*
X131168500Y-65197000D02*
X131168500Y-65197000D01*
D15*
X144018500Y-60917000D02*
X131318500Y-60917000D01*
X142668500Y-54567000D02*
X132668500Y-54567000D01*
X144018500Y-57567000D02*
X144018500Y-60917000D01*
D14*
X131168500Y-65197000D02*
G75*
G03*
X131168500Y-64997000I0J100000D01*
G01*
X131168500Y-64997000D02*
G75*
G03*
X131168500Y-65197000I0J-100000D01*
G01*
D13*
%TO.C,RF_R10*%
X136620000Y-68048000D02*
X136620000Y-67718000D01*
X130080000Y-70458000D02*
X130080000Y-70128000D01*
X136620000Y-70458000D02*
X130080000Y-70458000D01*
X130080000Y-67718000D02*
X130080000Y-68048000D01*
X136620000Y-67718000D02*
X130080000Y-67718000D01*
X136620000Y-70128000D02*
X136620000Y-70458000D01*
%TO.C,RF_L1*%
X164810000Y-73420348D02*
G75*
G03*
X164810000Y-80503652I1560000J-3541652D01*
G01*
X167930000Y-80503652D02*
G75*
G03*
X167930000Y-73420348I-1560000J3541652D01*
G01*
%TO.C,RF_C3*%
X128370000Y-86296000D02*
X128370000Y-93536000D01*
X125630000Y-86296000D02*
X125630000Y-93536000D01*
X128370000Y-86296000D02*
X125630000Y-86296000D01*
X128370000Y-93536000D02*
X125630000Y-93536000D01*
%TO.C,RF_R12*%
X131858000Y-73814000D02*
X131858000Y-74144000D01*
X138398000Y-73814000D02*
X131858000Y-73814000D01*
X138398000Y-74144000D02*
X138398000Y-73814000D01*
X131858000Y-76554000D02*
X131858000Y-76224000D01*
X138398000Y-76554000D02*
X131858000Y-76554000D01*
X138398000Y-76224000D02*
X138398000Y-76554000D01*
%TO.C,RF_L2*%
X163053652Y-82514000D02*
G75*
G03*
X155970348Y-82514000I-3541652J-1560000D01*
G01*
X155970348Y-85634000D02*
G75*
G03*
X163053652Y-85634000I3541652J1560000D01*
G01*
%TO.C,RF_C10*%
X164746000Y-88964000D02*
X164746000Y-81724000D01*
X164746000Y-81724000D02*
X167486000Y-81724000D01*
X164746000Y-88964000D02*
X167486000Y-88964000D01*
X167486000Y-88964000D02*
X167486000Y-81724000D01*
%TO.C,RF_C1*%
X123090000Y-56110000D02*
X125830000Y-56110000D01*
X123090000Y-63350000D02*
X125830000Y-63350000D01*
X123090000Y-63350000D02*
X123090000Y-56110000D01*
X125830000Y-63350000D02*
X125830000Y-56110000D01*
%TO.C,S5*%
G36*
X105836866Y-64363361D02*
G01*
X105615626Y-64240834D01*
X105354108Y-64068382D01*
X105213786Y-63929697D01*
X105182395Y-63844301D01*
X105621666Y-63844301D01*
X105821546Y-64010817D01*
X106022189Y-64150130D01*
X106134742Y-64153263D01*
X106171891Y-64020112D01*
X106172000Y-64008000D01*
X106136551Y-63888463D01*
X106000287Y-63844149D01*
X105896833Y-63841484D01*
X105621666Y-63844301D01*
X105182395Y-63844301D01*
X105161797Y-63788264D01*
X105158401Y-63732834D01*
X105165395Y-63603930D01*
X105216237Y-63534347D01*
X105350618Y-63505808D01*
X105608231Y-63500033D01*
X105664000Y-63500000D01*
X105958972Y-63490247D01*
X106117341Y-63455672D01*
X106170998Y-63388303D01*
X106172000Y-63373000D01*
X106239772Y-63260752D01*
X106299000Y-63246000D01*
X106411248Y-63313773D01*
X106426000Y-63373000D01*
X106493772Y-63485249D01*
X106553000Y-63500000D01*
X106656428Y-63570587D01*
X106680000Y-63669334D01*
X106627060Y-63807238D01*
X106553000Y-63838667D01*
X106464693Y-63894590D01*
X106428304Y-64079970D01*
X106426000Y-64177334D01*
X106412487Y-64397860D01*
X106356053Y-64495554D01*
X106248224Y-64516000D01*
X106134742Y-64486755D01*
X106083459Y-64473539D01*
X105836866Y-64363361D01*
G37*
G36*
X106508884Y-66164494D02*
G01*
X106539877Y-66194834D01*
X106621326Y-66362154D01*
X106671008Y-66606812D01*
X106682277Y-66858163D01*
X106648486Y-67045560D01*
X106623555Y-67084223D01*
X106496002Y-67136359D01*
X106445043Y-67140667D01*
X106362046Y-67088516D01*
X106374412Y-66935728D01*
X106391574Y-66677883D01*
X106306346Y-66510064D01*
X106172000Y-66463334D01*
X106014367Y-66533320D01*
X105947381Y-66720744D01*
X105969587Y-66935728D01*
X105988988Y-67055971D01*
X105943365Y-67116682D01*
X105795013Y-67138138D01*
X105588511Y-67140667D01*
X105156000Y-67140667D01*
X105156000Y-66632667D01*
X105165753Y-66337695D01*
X105200328Y-66179325D01*
X105267697Y-66125669D01*
X105283000Y-66124667D01*
X105371306Y-66180590D01*
X105407695Y-66365970D01*
X105410000Y-66463334D01*
X105430971Y-66698819D01*
X105500488Y-66795854D01*
X105537000Y-66802000D01*
X105638001Y-66726568D01*
X105663999Y-66554048D01*
X105708045Y-66326095D01*
X105797047Y-66173048D01*
X106016010Y-66059854D01*
X106280128Y-66057789D01*
X106508884Y-66164494D01*
G37*
G36*
X106508884Y-62100494D02*
G01*
X106539877Y-62130834D01*
X106621326Y-62298154D01*
X106671008Y-62542812D01*
X106682277Y-62794163D01*
X106648486Y-62981560D01*
X106623555Y-63020223D01*
X106496002Y-63072359D01*
X106445043Y-63076667D01*
X106362046Y-63024516D01*
X106374412Y-62871728D01*
X106391574Y-62613883D01*
X106306346Y-62446064D01*
X106172000Y-62399334D01*
X106014367Y-62469320D01*
X105947381Y-62656744D01*
X105969587Y-62871728D01*
X105988988Y-62991971D01*
X105943365Y-63052682D01*
X105795013Y-63074138D01*
X105588511Y-63076667D01*
X105156000Y-63076667D01*
X105156000Y-62568667D01*
X105165753Y-62273695D01*
X105200328Y-62115325D01*
X105267697Y-62061669D01*
X105283000Y-62060667D01*
X105371306Y-62116590D01*
X105407695Y-62301970D01*
X105410000Y-62399334D01*
X105430971Y-62634819D01*
X105500488Y-62731854D01*
X105537000Y-62738000D01*
X105638001Y-62662568D01*
X105663999Y-62490048D01*
X105708045Y-62262095D01*
X105797047Y-62109048D01*
X106016010Y-61995854D01*
X106280128Y-61993789D01*
X106508884Y-62100494D01*
G37*
G36*
X105156000Y-60553600D02*
G01*
X105160689Y-60473167D01*
X105426118Y-60473167D01*
X105448736Y-60585467D01*
X105598524Y-60621078D01*
X105621666Y-60621334D01*
X105785871Y-60592078D01*
X105819780Y-60488502D01*
X105817215Y-60473167D01*
X105721341Y-60351250D01*
X105621666Y-60325000D01*
X105471871Y-60389225D01*
X105426118Y-60473167D01*
X105160689Y-60473167D01*
X105172601Y-60268815D01*
X105215451Y-60047601D01*
X105257599Y-59960934D01*
X105450036Y-59870951D01*
X105683015Y-59880933D01*
X105847283Y-59972050D01*
X105940819Y-60028606D01*
X106070639Y-59994050D01*
X106243436Y-59887384D01*
X106479834Y-59740692D01*
X106613425Y-59703526D01*
X106670852Y-59776246D01*
X106680000Y-59893304D01*
X106613915Y-60084492D01*
X106401529Y-60260754D01*
X106383666Y-60271449D01*
X106197061Y-60401209D01*
X106094280Y-60510890D01*
X106087333Y-60533812D01*
X106161752Y-60591658D01*
X106344746Y-60620577D01*
X106383666Y-60621334D01*
X106584064Y-60637148D01*
X106666104Y-60708313D01*
X106680000Y-60833000D01*
X106673932Y-60933200D01*
X106634006Y-60995413D01*
X106527636Y-61028693D01*
X106322237Y-61042091D01*
X105985223Y-61044657D01*
X105918000Y-61044667D01*
X105156000Y-61044667D01*
X105156000Y-60553600D01*
G37*
G36*
X106624236Y-54900741D02*
G01*
X106663829Y-55032023D01*
X106679070Y-55289435D01*
X106680000Y-55414334D01*
X106680000Y-55964667D01*
X105156000Y-55964667D01*
X105156000Y-55414334D01*
X105164478Y-55105644D01*
X105194774Y-54934072D01*
X105254177Y-54868030D01*
X105283000Y-54864000D01*
X105371306Y-54919924D01*
X105407695Y-55105303D01*
X105410000Y-55202667D01*
X105424200Y-55424235D01*
X105481594Y-55522160D01*
X105579333Y-55541334D01*
X105696041Y-55508186D01*
X105743131Y-55378778D01*
X105748666Y-55245000D01*
X105776206Y-55025827D01*
X105864100Y-54949203D01*
X105875666Y-54948667D01*
X105969598Y-55012927D01*
X106002437Y-55218012D01*
X106002666Y-55245000D01*
X106018480Y-55445399D01*
X106089646Y-55527438D01*
X106214333Y-55541334D01*
X106350706Y-55522849D01*
X106411319Y-55435659D01*
X106425924Y-55232160D01*
X106426000Y-55202667D01*
X106446971Y-54967182D01*
X106516488Y-54870147D01*
X106553000Y-54864000D01*
X106624236Y-54900741D01*
G37*
G36*
X105849561Y-56991614D02*
G01*
X106219631Y-57127186D01*
X106459476Y-57222425D01*
X106597271Y-57296865D01*
X106661189Y-57370037D01*
X106679405Y-57461475D01*
X106680000Y-57567352D01*
X106667302Y-57690758D01*
X106607432Y-57783060D01*
X106467724Y-57868016D01*
X106215513Y-57969382D01*
X106040580Y-58032375D01*
X105723246Y-58145453D01*
X105459031Y-58240370D01*
X105295968Y-58299851D01*
X105278580Y-58306412D01*
X105184052Y-58291404D01*
X105156000Y-58137274D01*
X105176236Y-58011946D01*
X105260520Y-57915613D01*
X105444213Y-57820827D01*
X105681230Y-57729588D01*
X106206461Y-57538079D01*
X105681230Y-57370071D01*
X105395922Y-57271857D01*
X105237645Y-57189626D01*
X105169860Y-57095563D01*
X105156000Y-56970279D01*
X105156000Y-56738496D01*
X105849561Y-56991614D01*
G37*
G36*
X106624236Y-58456741D02*
G01*
X106663829Y-58588023D01*
X106679070Y-58845435D01*
X106680000Y-58970334D01*
X106680000Y-59520667D01*
X105156000Y-59520667D01*
X105156000Y-58970334D01*
X105164478Y-58661644D01*
X105194774Y-58490072D01*
X105254177Y-58424030D01*
X105283000Y-58420000D01*
X105371306Y-58475924D01*
X105407695Y-58661303D01*
X105410000Y-58758667D01*
X105424200Y-58980235D01*
X105481594Y-59078160D01*
X105579333Y-59097334D01*
X105696041Y-59064186D01*
X105743131Y-58934778D01*
X105748666Y-58801000D01*
X105776206Y-58581827D01*
X105864100Y-58505203D01*
X105875666Y-58504667D01*
X105969598Y-58568927D01*
X106002437Y-58774012D01*
X106002666Y-58801000D01*
X106018480Y-59001399D01*
X106089646Y-59083438D01*
X106214333Y-59097334D01*
X106350706Y-59078849D01*
X106411319Y-58991659D01*
X106425924Y-58788160D01*
X106426000Y-58758667D01*
X106446971Y-58523182D01*
X106516488Y-58426147D01*
X106553000Y-58420000D01*
X106624236Y-58456741D01*
G37*
G36*
X105384767Y-64716505D02*
G01*
X105619092Y-64799439D01*
X105920880Y-64918263D01*
X106022688Y-64960500D01*
X106345906Y-65101639D01*
X106541769Y-65207327D01*
X106641463Y-65301605D01*
X106676171Y-65408513D01*
X106678894Y-65466363D01*
X106680000Y-65697059D01*
X106045000Y-65407680D01*
X105409999Y-65118301D01*
X105409999Y-65494484D01*
X105392963Y-65743855D01*
X105335177Y-65856370D01*
X105283000Y-65870667D01*
X105213998Y-65835813D01*
X105174507Y-65710487D01*
X105157851Y-65463546D01*
X105156000Y-65278000D01*
X105167295Y-64933708D01*
X105203070Y-64741503D01*
X105261794Y-64685334D01*
X105384767Y-64716505D01*
G37*
G36*
X105384767Y-67425839D02*
G01*
X105619092Y-67508773D01*
X105920880Y-67627597D01*
X106022688Y-67669834D01*
X106345906Y-67810972D01*
X106541769Y-67916660D01*
X106641463Y-68010938D01*
X106676171Y-68117847D01*
X106678894Y-68175696D01*
X106680000Y-68406392D01*
X106045000Y-68117013D01*
X105409999Y-67827634D01*
X105409999Y-68203817D01*
X105392963Y-68453189D01*
X105335177Y-68565703D01*
X105283000Y-68580000D01*
X105213998Y-68545146D01*
X105174507Y-68419820D01*
X105157851Y-68172880D01*
X105156000Y-67987334D01*
X105167295Y-67643041D01*
X105203070Y-67450836D01*
X105261794Y-67394667D01*
X105384767Y-67425839D01*
G37*
%TO.C,RF_R2*%
X124484000Y-84614000D02*
X124814000Y-84614000D01*
X122404000Y-84614000D02*
X122074000Y-84614000D01*
X122074000Y-84614000D02*
X122074000Y-91154000D01*
X124814000Y-84614000D02*
X124814000Y-91154000D01*
X124814000Y-91154000D02*
X124484000Y-91154000D01*
X122074000Y-91154000D02*
X122404000Y-91154000D01*
%TO.C,RF_U1*%
X153222000Y-82855000D02*
X130242000Y-82855000D01*
X130242000Y-87355000D02*
X153222000Y-87355000D01*
X130242000Y-82855000D02*
X130242000Y-84105000D01*
X153222000Y-87355000D02*
X153222000Y-82855000D01*
X130242000Y-86105000D02*
X130242000Y-87355000D01*
X130242000Y-86105000D02*
G75*
G03*
X130242000Y-84105000I0J1000000D01*
G01*
%TO.C,RF_C7*%
X140906000Y-76862000D02*
X140906000Y-79602000D01*
X148146000Y-76862000D02*
X148146000Y-79602000D01*
X140906000Y-76862000D02*
X148146000Y-76862000D01*
X140906000Y-79602000D02*
X148146000Y-79602000D01*
%TO.C,RF_VL1*%
X120904000Y-64516000D02*
X120904000Y-61214000D01*
X110744000Y-61214000D02*
X110744000Y-64516000D01*
X120904000Y-54356000D02*
X110744000Y-54356000D01*
X110744000Y-54356000D02*
X110744000Y-57658000D01*
X110744000Y-64516000D02*
X120904000Y-64516000D01*
X120904000Y-57658000D02*
X120904000Y-54356000D01*
%TD*%
M02*
