M48
; DRILL file {KiCad 6.0.11-2627ca5db0~126~ubuntu22.04.1} date Fri 14 Apr 2023 09:26:26 AM EDT
; FORMAT={-:-/ absolute / metric / decimal}
; #@! TF.CreationDate,2023-04-14T09:26:26-04:00
; #@! TF.GenerationSoftware,Kicad,Pcbnew,6.0.11-2627ca5db0~126~ubuntu22.04.1
; #@! TF.FileFunction,Plated,1,2,PTH
FMAT,2
METRIC
; #@! TA.AperFunction,Plated,PTH,ComponentDrill
T1C0.762
; #@! TA.AperFunction,Plated,PTH,ComponentDrill
T2C0.800
; #@! TA.AperFunction,Plated,PTH,ComponentDrill
T3C1.000
; #@! TA.AperFunction,Plated,PTH,ComponentDrill
T4C1.300
; #@! TA.AperFunction,Plated,PTH,ComponentDrill
T5C1.850
; #@! TA.AperFunction,Plated,PTH,ComponentDrill
T6C2.000
; #@! TA.AperFunction,Plated,PTH,ComponentDrill
T7C2.200
; #@! TA.AperFunction,Plated,PTH,ComponentDrill
T8C2.693
; #@! TA.AperFunction,Plated,PTH,ComponentDrill
T9C2.818
; #@! TA.AperFunction,Plated,PTH,ComponentDrill
T10C4.000
%
G90
G05
T1
X119.888Y-66.548
T2
X114.046Y-81.534
X114.046Y-89.154
X116.332Y-66.548
X116.332Y-73.66
X119.157Y-109.728
X119.888Y-73.66
X121.157Y-109.728
X123.19Y-94.742
X123.19Y-104.902
X123.444Y-66.548
X123.444Y-73.66
X123.444Y-76.962
X123.444Y-92.202
X127.254Y-84.622
X127.254Y-89.622
X127.508Y-94.742
X127.508Y-102.362
X128.016Y-109.728
X128.524Y-67.898
X128.524Y-72.898
X130.088Y-106.172
X130.556Y-79.502
X130.556Y-89.662
X131.064Y-98.084
X131.064Y-103.084
X133.604Y-79.756
X133.604Y-82.804
X133.898Y-88.9
X135.088Y-106.172
X135.382Y-85.852
X135.636Y-91.963
X135.636Y-99.583
X135.636Y-109.728
X138.176Y-91.963
X138.176Y-99.583
X138.684Y-102.362
X138.684Y-109.982
X138.898Y-88.9
X140.716Y-91.963
X140.716Y-99.583
X141.224Y-79.756
X141.224Y-82.804
X143.002Y-85.852
X143.256Y-91.963
X143.256Y-99.583
X145.796Y-91.963
X145.796Y-99.583
X146.09Y-88.9
X148.336Y-91.963
X148.336Y-99.583
X148.376Y-102.616
X150.876Y-91.963
X150.876Y-99.583
X151.09Y-88.9
X152.4Y-74.93
X152.4Y-82.55
X153.376Y-102.616
X153.416Y-91.963
X153.416Y-99.583
X155.488Y-74.93
X155.702Y-80.264
X155.702Y-87.884
X155.956Y-91.963
X155.956Y-99.583
X157.734Y-105.704
X157.734Y-110.704
X160.02Y-80.264
X160.02Y-87.884
X160.488Y-74.93
X161.036Y-106.68
X161.036Y-110.49
X163.322Y-82.082
X163.322Y-87.082
X167.68Y-81.534
X168.656Y-106.68
X168.656Y-110.49
X170.18Y-93.512
X170.18Y-98.512
X172.68Y-81.534
T3
X118.11Y-83.312
X118.11Y-85.852
X118.11Y-88.392
X118.11Y-90.932
X118.11Y-93.472
X118.11Y-96.012
X118.11Y-98.552
X118.11Y-101.092
T4
X151.384Y-106.172
X151.384Y-111.172
X161.076Y-94.742
X166.076Y-94.742
X170.434Y-85.13
X170.434Y-90.13
T5
X135.127Y-66.235
X137.032Y-75.765
X141.732Y-75.765
X146.433Y-75.765
X148.338Y-66.235
T6
X114.808Y-70.104
X124.968Y-70.104
T7
X118.11Y-79.248
X118.11Y-105.156
T8
X169.418Y-76.825
T9
X169.418Y-72.325
T10
X119.888Y-70.104
T0
M30
