%TF.GenerationSoftware,KiCad,Pcbnew,6.0.11-2627ca5db0~126~ubuntu22.04.1*%
%TF.CreationDate,2023-04-08T12:37:41-04:00*%
%TF.ProjectId,sub_rf_mod,7375625f-7266-45f6-9d6f-642e6b696361,rev?*%
%TF.SameCoordinates,Original*%
%TF.FileFunction,Legend,Top*%
%TF.FilePolarity,Positive*%
%FSLAX46Y46*%
G04 Gerber Fmt 4.6, Leading zero omitted, Abs format (unit mm)*
G04 Created by KiCad (PCBNEW 6.0.11-2627ca5db0~126~ubuntu22.04.1) date 2023-04-08 12:37:41*
%MOMM*%
%LPD*%
G01*
G04 APERTURE LIST*
%TA.AperFunction,Profile*%
%ADD10C,0.100000*%
%TD*%
%ADD11C,0.150000*%
%ADD12C,0.254000*%
%ADD13C,0.120000*%
%ADD14C,0.100000*%
%ADD15C,0.200000*%
G04 APERTURE END LIST*
D10*
X108966000Y-67183000D02*
X177038000Y-67183000D01*
X108966000Y-67183000D02*
X108458000Y-67691000D01*
X177546000Y-116713000D02*
X177546000Y-67691000D01*
X177038000Y-67183000D02*
X177546000Y-67691000D01*
X108458000Y-116713000D02*
X108966000Y-117221000D01*
X108458000Y-116713000D02*
X108458000Y-67691000D01*
X177038000Y-117221000D02*
X177546000Y-116713000D01*
X108966000Y-117221000D02*
X177038000Y-117221000D01*
D11*
%TO.C,RF_C10*%
X160607619Y-95575380D02*
X160274285Y-95099190D01*
X160036190Y-95575380D02*
X160036190Y-94575380D01*
X160417142Y-94575380D01*
X160512380Y-94623000D01*
X160560000Y-94670619D01*
X160607619Y-94765857D01*
X160607619Y-94908714D01*
X160560000Y-95003952D01*
X160512380Y-95051571D01*
X160417142Y-95099190D01*
X160036190Y-95099190D01*
X161369523Y-95051571D02*
X161036190Y-95051571D01*
X161036190Y-95575380D02*
X161036190Y-94575380D01*
X161512380Y-94575380D01*
X161655238Y-95670619D02*
X162417142Y-95670619D01*
X163226666Y-95480142D02*
X163179047Y-95527761D01*
X163036190Y-95575380D01*
X162940952Y-95575380D01*
X162798095Y-95527761D01*
X162702857Y-95432523D01*
X162655238Y-95337285D01*
X162607619Y-95146809D01*
X162607619Y-95003952D01*
X162655238Y-94813476D01*
X162702857Y-94718238D01*
X162798095Y-94623000D01*
X162940952Y-94575380D01*
X163036190Y-94575380D01*
X163179047Y-94623000D01*
X163226666Y-94670619D01*
X164179047Y-95575380D02*
X163607619Y-95575380D01*
X163893333Y-95575380D02*
X163893333Y-94575380D01*
X163798095Y-94718238D01*
X163702857Y-94813476D01*
X163607619Y-94861095D01*
X164798095Y-94575380D02*
X164893333Y-94575380D01*
X164988571Y-94623000D01*
X165036190Y-94670619D01*
X165083809Y-94765857D01*
X165131428Y-94956333D01*
X165131428Y-95194428D01*
X165083809Y-95384904D01*
X165036190Y-95480142D01*
X164988571Y-95527761D01*
X164893333Y-95575380D01*
X164798095Y-95575380D01*
X164702857Y-95527761D01*
X164655238Y-95480142D01*
X164607619Y-95384904D01*
X164560000Y-95194428D01*
X164560000Y-94956333D01*
X164607619Y-94765857D01*
X164655238Y-94670619D01*
X164702857Y-94623000D01*
X164798095Y-94575380D01*
%TO.C,RF_JP1*%
X122626380Y-86058142D02*
X122150190Y-86391476D01*
X122626380Y-86629571D02*
X121626380Y-86629571D01*
X121626380Y-86248619D01*
X121674000Y-86153380D01*
X121721619Y-86105761D01*
X121816857Y-86058142D01*
X121959714Y-86058142D01*
X122054952Y-86105761D01*
X122102571Y-86153380D01*
X122150190Y-86248619D01*
X122150190Y-86629571D01*
X122102571Y-85296238D02*
X122102571Y-85629571D01*
X122626380Y-85629571D02*
X121626380Y-85629571D01*
X121626380Y-85153380D01*
X122721619Y-85010523D02*
X122721619Y-84248619D01*
X121626380Y-83724809D02*
X122340666Y-83724809D01*
X122483523Y-83772428D01*
X122578761Y-83867666D01*
X122626380Y-84010523D01*
X122626380Y-84105761D01*
X122626380Y-83248619D02*
X121626380Y-83248619D01*
X121626380Y-82867666D01*
X121674000Y-82772428D01*
X121721619Y-82724809D01*
X121816857Y-82677190D01*
X121959714Y-82677190D01*
X122054952Y-82724809D01*
X122102571Y-82772428D01*
X122150190Y-82867666D01*
X122150190Y-83248619D01*
X122626380Y-81724809D02*
X122626380Y-82296238D01*
X122626380Y-82010523D02*
X121626380Y-82010523D01*
X121769238Y-82105761D01*
X121864476Y-82201000D01*
X121912095Y-82296238D01*
%TO.C,RF_C6*%
X142287809Y-108275380D02*
X141954476Y-107799190D01*
X141716380Y-108275380D02*
X141716380Y-107275380D01*
X142097333Y-107275380D01*
X142192571Y-107323000D01*
X142240190Y-107370619D01*
X142287809Y-107465857D01*
X142287809Y-107608714D01*
X142240190Y-107703952D01*
X142192571Y-107751571D01*
X142097333Y-107799190D01*
X141716380Y-107799190D01*
X143049714Y-107751571D02*
X142716380Y-107751571D01*
X142716380Y-108275380D02*
X142716380Y-107275380D01*
X143192571Y-107275380D01*
X143335428Y-108370619D02*
X144097333Y-108370619D01*
X144906857Y-108180142D02*
X144859238Y-108227761D01*
X144716380Y-108275380D01*
X144621142Y-108275380D01*
X144478285Y-108227761D01*
X144383047Y-108132523D01*
X144335428Y-108037285D01*
X144287809Y-107846809D01*
X144287809Y-107703952D01*
X144335428Y-107513476D01*
X144383047Y-107418238D01*
X144478285Y-107323000D01*
X144621142Y-107275380D01*
X144716380Y-107275380D01*
X144859238Y-107323000D01*
X144906857Y-107370619D01*
X145764000Y-107275380D02*
X145573523Y-107275380D01*
X145478285Y-107323000D01*
X145430666Y-107370619D01*
X145335428Y-107513476D01*
X145287809Y-107703952D01*
X145287809Y-108084904D01*
X145335428Y-108180142D01*
X145383047Y-108227761D01*
X145478285Y-108275380D01*
X145668761Y-108275380D01*
X145764000Y-108227761D01*
X145811619Y-108180142D01*
X145859238Y-108084904D01*
X145859238Y-107846809D01*
X145811619Y-107751571D01*
X145764000Y-107703952D01*
X145668761Y-107656333D01*
X145478285Y-107656333D01*
X145383047Y-107703952D01*
X145335428Y-107751571D01*
X145287809Y-107846809D01*
%TO.C,RF_C5*%
X140255809Y-91511380D02*
X139922476Y-91035190D01*
X139684380Y-91511380D02*
X139684380Y-90511380D01*
X140065333Y-90511380D01*
X140160571Y-90559000D01*
X140208190Y-90606619D01*
X140255809Y-90701857D01*
X140255809Y-90844714D01*
X140208190Y-90939952D01*
X140160571Y-90987571D01*
X140065333Y-91035190D01*
X139684380Y-91035190D01*
X141017714Y-90987571D02*
X140684380Y-90987571D01*
X140684380Y-91511380D02*
X140684380Y-90511380D01*
X141160571Y-90511380D01*
X141303428Y-91606619D02*
X142065333Y-91606619D01*
X142874857Y-91416142D02*
X142827238Y-91463761D01*
X142684380Y-91511380D01*
X142589142Y-91511380D01*
X142446285Y-91463761D01*
X142351047Y-91368523D01*
X142303428Y-91273285D01*
X142255809Y-91082809D01*
X142255809Y-90939952D01*
X142303428Y-90749476D01*
X142351047Y-90654238D01*
X142446285Y-90559000D01*
X142589142Y-90511380D01*
X142684380Y-90511380D01*
X142827238Y-90559000D01*
X142874857Y-90606619D01*
X143779619Y-90511380D02*
X143303428Y-90511380D01*
X143255809Y-90987571D01*
X143303428Y-90939952D01*
X143398666Y-90892333D01*
X143636761Y-90892333D01*
X143732000Y-90939952D01*
X143779619Y-90987571D01*
X143827238Y-91082809D01*
X143827238Y-91320904D01*
X143779619Y-91416142D01*
X143732000Y-91463761D01*
X143636761Y-91511380D01*
X143398666Y-91511380D01*
X143303428Y-91463761D01*
X143255809Y-91416142D01*
%TO.C,RF_R11*%
X142319619Y-80081380D02*
X141986285Y-79605190D01*
X141748190Y-80081380D02*
X141748190Y-79081380D01*
X142129142Y-79081380D01*
X142224380Y-79129000D01*
X142272000Y-79176619D01*
X142319619Y-79271857D01*
X142319619Y-79414714D01*
X142272000Y-79509952D01*
X142224380Y-79557571D01*
X142129142Y-79605190D01*
X141748190Y-79605190D01*
X143081523Y-79557571D02*
X142748190Y-79557571D01*
X142748190Y-80081380D02*
X142748190Y-79081380D01*
X143224380Y-79081380D01*
X143367238Y-80176619D02*
X144129142Y-80176619D01*
X144938666Y-80081380D02*
X144605333Y-79605190D01*
X144367238Y-80081380D02*
X144367238Y-79081380D01*
X144748190Y-79081380D01*
X144843428Y-79129000D01*
X144891047Y-79176619D01*
X144938666Y-79271857D01*
X144938666Y-79414714D01*
X144891047Y-79509952D01*
X144843428Y-79557571D01*
X144748190Y-79605190D01*
X144367238Y-79605190D01*
X145891047Y-80081380D02*
X145319619Y-80081380D01*
X145605333Y-80081380D02*
X145605333Y-79081380D01*
X145510095Y-79224238D01*
X145414857Y-79319476D01*
X145319619Y-79367095D01*
X146843428Y-80081380D02*
X146272000Y-80081380D01*
X146557714Y-80081380D02*
X146557714Y-79081380D01*
X146462476Y-79224238D01*
X146367238Y-79319476D01*
X146272000Y-79367095D01*
%TO.C,RF_C12*%
X155567619Y-107981380D02*
X155234285Y-107505190D01*
X154996190Y-107981380D02*
X154996190Y-106981380D01*
X155377142Y-106981380D01*
X155472380Y-107029000D01*
X155520000Y-107076619D01*
X155567619Y-107171857D01*
X155567619Y-107314714D01*
X155520000Y-107409952D01*
X155472380Y-107457571D01*
X155377142Y-107505190D01*
X154996190Y-107505190D01*
X156329523Y-107457571D02*
X155996190Y-107457571D01*
X155996190Y-107981380D02*
X155996190Y-106981380D01*
X156472380Y-106981380D01*
X156615238Y-108076619D02*
X157377142Y-108076619D01*
X158186666Y-107886142D02*
X158139047Y-107933761D01*
X157996190Y-107981380D01*
X157900952Y-107981380D01*
X157758095Y-107933761D01*
X157662857Y-107838523D01*
X157615238Y-107743285D01*
X157567619Y-107552809D01*
X157567619Y-107409952D01*
X157615238Y-107219476D01*
X157662857Y-107124238D01*
X157758095Y-107029000D01*
X157900952Y-106981380D01*
X157996190Y-106981380D01*
X158139047Y-107029000D01*
X158186666Y-107076619D01*
X159139047Y-107981380D02*
X158567619Y-107981380D01*
X158853333Y-107981380D02*
X158853333Y-106981380D01*
X158758095Y-107124238D01*
X158662857Y-107219476D01*
X158567619Y-107267095D01*
X159520000Y-107076619D02*
X159567619Y-107029000D01*
X159662857Y-106981380D01*
X159900952Y-106981380D01*
X159996190Y-107029000D01*
X160043809Y-107076619D01*
X160091428Y-107171857D01*
X160091428Y-107267095D01*
X160043809Y-107409952D01*
X159472380Y-107981380D01*
X160091428Y-107981380D01*
%TO.C,RF_R6*%
X161742380Y-73383190D02*
X161266190Y-73716523D01*
X161742380Y-73954619D02*
X160742380Y-73954619D01*
X160742380Y-73573666D01*
X160790000Y-73478428D01*
X160837619Y-73430809D01*
X160932857Y-73383190D01*
X161075714Y-73383190D01*
X161170952Y-73430809D01*
X161218571Y-73478428D01*
X161266190Y-73573666D01*
X161266190Y-73954619D01*
X161218571Y-72621285D02*
X161218571Y-72954619D01*
X161742380Y-72954619D02*
X160742380Y-72954619D01*
X160742380Y-72478428D01*
X161837619Y-72335571D02*
X161837619Y-71573666D01*
X161742380Y-70764142D02*
X161266190Y-71097476D01*
X161742380Y-71335571D02*
X160742380Y-71335571D01*
X160742380Y-70954619D01*
X160790000Y-70859380D01*
X160837619Y-70811761D01*
X160932857Y-70764142D01*
X161075714Y-70764142D01*
X161170952Y-70811761D01*
X161218571Y-70859380D01*
X161266190Y-70954619D01*
X161266190Y-71335571D01*
X160742380Y-69907000D02*
X160742380Y-70097476D01*
X160790000Y-70192714D01*
X160837619Y-70240333D01*
X160980476Y-70335571D01*
X161170952Y-70383190D01*
X161551904Y-70383190D01*
X161647142Y-70335571D01*
X161694761Y-70287952D01*
X161742380Y-70192714D01*
X161742380Y-70002238D01*
X161694761Y-69907000D01*
X161647142Y-69859380D01*
X161551904Y-69811761D01*
X161313809Y-69811761D01*
X161218571Y-69859380D01*
X161170952Y-69907000D01*
X161123333Y-70002238D01*
X161123333Y-70192714D01*
X161170952Y-70287952D01*
X161218571Y-70335571D01*
X161313809Y-70383190D01*
%TO.C,RF_C2*%
X127706380Y-85677190D02*
X127230190Y-86010523D01*
X127706380Y-86248619D02*
X126706380Y-86248619D01*
X126706380Y-85867666D01*
X126754000Y-85772428D01*
X126801619Y-85724809D01*
X126896857Y-85677190D01*
X127039714Y-85677190D01*
X127134952Y-85724809D01*
X127182571Y-85772428D01*
X127230190Y-85867666D01*
X127230190Y-86248619D01*
X127182571Y-84915285D02*
X127182571Y-85248619D01*
X127706380Y-85248619D02*
X126706380Y-85248619D01*
X126706380Y-84772428D01*
X127801619Y-84629571D02*
X127801619Y-83867666D01*
X127611142Y-83058142D02*
X127658761Y-83105761D01*
X127706380Y-83248619D01*
X127706380Y-83343857D01*
X127658761Y-83486714D01*
X127563523Y-83581952D01*
X127468285Y-83629571D01*
X127277809Y-83677190D01*
X127134952Y-83677190D01*
X126944476Y-83629571D01*
X126849238Y-83581952D01*
X126754000Y-83486714D01*
X126706380Y-83343857D01*
X126706380Y-83248619D01*
X126754000Y-83105761D01*
X126801619Y-83058142D01*
X126801619Y-82677190D02*
X126754000Y-82629571D01*
X126706380Y-82534333D01*
X126706380Y-82296238D01*
X126754000Y-82201000D01*
X126801619Y-82153380D01*
X126896857Y-82105761D01*
X126992095Y-82105761D01*
X127134952Y-82153380D01*
X127706380Y-82724809D01*
X127706380Y-82105761D01*
%TO.C,RF_C13*%
X113453395Y-113609380D02*
X113120061Y-113133190D01*
X112881966Y-113609380D02*
X112881966Y-112609380D01*
X113262918Y-112609380D01*
X113358156Y-112657000D01*
X113405776Y-112704619D01*
X113453395Y-112799857D01*
X113453395Y-112942714D01*
X113405776Y-113037952D01*
X113358156Y-113085571D01*
X113262918Y-113133190D01*
X112881966Y-113133190D01*
X114215299Y-113085571D02*
X113881966Y-113085571D01*
X113881966Y-113609380D02*
X113881966Y-112609380D01*
X114358156Y-112609380D01*
X114501014Y-113704619D02*
X115262918Y-113704619D01*
X116072442Y-113514142D02*
X116024823Y-113561761D01*
X115881966Y-113609380D01*
X115786728Y-113609380D01*
X115643871Y-113561761D01*
X115548633Y-113466523D01*
X115501014Y-113371285D01*
X115453395Y-113180809D01*
X115453395Y-113037952D01*
X115501014Y-112847476D01*
X115548633Y-112752238D01*
X115643871Y-112657000D01*
X115786728Y-112609380D01*
X115881966Y-112609380D01*
X116024823Y-112657000D01*
X116072442Y-112704619D01*
X117024823Y-113609380D02*
X116453395Y-113609380D01*
X116739109Y-113609380D02*
X116739109Y-112609380D01*
X116643871Y-112752238D01*
X116548633Y-112847476D01*
X116453395Y-112895095D01*
X117358156Y-112609380D02*
X117977204Y-112609380D01*
X117643871Y-112990333D01*
X117786728Y-112990333D01*
X117881966Y-113037952D01*
X117929585Y-113085571D01*
X117977204Y-113180809D01*
X117977204Y-113418904D01*
X117929585Y-113514142D01*
X117881966Y-113561761D01*
X117786728Y-113609380D01*
X117501014Y-113609380D01*
X117405776Y-113561761D01*
X117358156Y-113514142D01*
%TO.C,RF_R3*%
X134413809Y-107513380D02*
X134080476Y-107037190D01*
X133842380Y-107513380D02*
X133842380Y-106513380D01*
X134223333Y-106513380D01*
X134318571Y-106561000D01*
X134366190Y-106608619D01*
X134413809Y-106703857D01*
X134413809Y-106846714D01*
X134366190Y-106941952D01*
X134318571Y-106989571D01*
X134223333Y-107037190D01*
X133842380Y-107037190D01*
X135175714Y-106989571D02*
X134842380Y-106989571D01*
X134842380Y-107513380D02*
X134842380Y-106513380D01*
X135318571Y-106513380D01*
X135461428Y-107608619D02*
X136223333Y-107608619D01*
X137032857Y-107513380D02*
X136699523Y-107037190D01*
X136461428Y-107513380D02*
X136461428Y-106513380D01*
X136842380Y-106513380D01*
X136937619Y-106561000D01*
X136985238Y-106608619D01*
X137032857Y-106703857D01*
X137032857Y-106846714D01*
X136985238Y-106941952D01*
X136937619Y-106989571D01*
X136842380Y-107037190D01*
X136461428Y-107037190D01*
X137366190Y-106513380D02*
X137985238Y-106513380D01*
X137651904Y-106894333D01*
X137794761Y-106894333D01*
X137890000Y-106941952D01*
X137937619Y-106989571D01*
X137985238Y-107084809D01*
X137985238Y-107322904D01*
X137937619Y-107418142D01*
X137890000Y-107465761D01*
X137794761Y-107513380D01*
X137509047Y-107513380D01*
X137413809Y-107465761D01*
X137366190Y-107418142D01*
%TO.C,RF_L3*%
X145177047Y-115133380D02*
X144843714Y-114657190D01*
X144605619Y-115133380D02*
X144605619Y-114133380D01*
X144986571Y-114133380D01*
X145081809Y-114181000D01*
X145129428Y-114228619D01*
X145177047Y-114323857D01*
X145177047Y-114466714D01*
X145129428Y-114561952D01*
X145081809Y-114609571D01*
X144986571Y-114657190D01*
X144605619Y-114657190D01*
X145938952Y-114609571D02*
X145605619Y-114609571D01*
X145605619Y-115133380D02*
X145605619Y-114133380D01*
X146081809Y-114133380D01*
X146224666Y-115228619D02*
X146986571Y-115228619D01*
X147700857Y-115133380D02*
X147224666Y-115133380D01*
X147224666Y-114133380D01*
X147938952Y-114133380D02*
X148558000Y-114133380D01*
X148224666Y-114514333D01*
X148367523Y-114514333D01*
X148462761Y-114561952D01*
X148510380Y-114609571D01*
X148558000Y-114704809D01*
X148558000Y-114942904D01*
X148510380Y-115038142D01*
X148462761Y-115085761D01*
X148367523Y-115133380D01*
X148081809Y-115133380D01*
X147986571Y-115085761D01*
X147938952Y-115038142D01*
%TO.C,RF_C11*%
X175204380Y-96821380D02*
X174728190Y-97154714D01*
X175204380Y-97392809D02*
X174204380Y-97392809D01*
X174204380Y-97011857D01*
X174252000Y-96916619D01*
X174299619Y-96869000D01*
X174394857Y-96821380D01*
X174537714Y-96821380D01*
X174632952Y-96869000D01*
X174680571Y-96916619D01*
X174728190Y-97011857D01*
X174728190Y-97392809D01*
X174680571Y-96059476D02*
X174680571Y-96392809D01*
X175204380Y-96392809D02*
X174204380Y-96392809D01*
X174204380Y-95916619D01*
X175299619Y-95773761D02*
X175299619Y-95011857D01*
X175109142Y-94202333D02*
X175156761Y-94249952D01*
X175204380Y-94392809D01*
X175204380Y-94488047D01*
X175156761Y-94630904D01*
X175061523Y-94726142D01*
X174966285Y-94773761D01*
X174775809Y-94821380D01*
X174632952Y-94821380D01*
X174442476Y-94773761D01*
X174347238Y-94726142D01*
X174252000Y-94630904D01*
X174204380Y-94488047D01*
X174204380Y-94392809D01*
X174252000Y-94249952D01*
X174299619Y-94202333D01*
X175204380Y-93249952D02*
X175204380Y-93821380D01*
X175204380Y-93535666D02*
X174204380Y-93535666D01*
X174347238Y-93630904D01*
X174442476Y-93726142D01*
X174490095Y-93821380D01*
X175204380Y-92297571D02*
X175204380Y-92869000D01*
X175204380Y-92583285D02*
X174204380Y-92583285D01*
X174347238Y-92678523D01*
X174442476Y-92773761D01*
X174490095Y-92869000D01*
%TO.C,RF_D1*%
X122538380Y-104473190D02*
X122062190Y-104806523D01*
X122538380Y-105044619D02*
X121538380Y-105044619D01*
X121538380Y-104663666D01*
X121586000Y-104568428D01*
X121633619Y-104520809D01*
X121728857Y-104473190D01*
X121871714Y-104473190D01*
X121966952Y-104520809D01*
X122014571Y-104568428D01*
X122062190Y-104663666D01*
X122062190Y-105044619D01*
X122014571Y-103711285D02*
X122014571Y-104044619D01*
X122538380Y-104044619D02*
X121538380Y-104044619D01*
X121538380Y-103568428D01*
X122633619Y-103425571D02*
X122633619Y-102663666D01*
X122538380Y-102425571D02*
X121538380Y-102425571D01*
X121538380Y-102187476D01*
X121586000Y-102044619D01*
X121681238Y-101949380D01*
X121776476Y-101901761D01*
X121966952Y-101854142D01*
X122109809Y-101854142D01*
X122300285Y-101901761D01*
X122395523Y-101949380D01*
X122490761Y-102044619D01*
X122538380Y-102187476D01*
X122538380Y-102425571D01*
X122538380Y-100901761D02*
X122538380Y-101473190D01*
X122538380Y-101187476D02*
X121538380Y-101187476D01*
X121681238Y-101282714D01*
X121776476Y-101377952D01*
X121824095Y-101473190D01*
X122858380Y-108338904D02*
X121858380Y-108338904D01*
X122858380Y-107767476D02*
X122286952Y-108196047D01*
X121858380Y-107767476D02*
X122429809Y-108338904D01*
%TO.C,RF_D2*%
X129992380Y-85677190D02*
X129516190Y-86010523D01*
X129992380Y-86248619D02*
X128992380Y-86248619D01*
X128992380Y-85867666D01*
X129040000Y-85772428D01*
X129087619Y-85724809D01*
X129182857Y-85677190D01*
X129325714Y-85677190D01*
X129420952Y-85724809D01*
X129468571Y-85772428D01*
X129516190Y-85867666D01*
X129516190Y-86248619D01*
X129468571Y-84915285D02*
X129468571Y-85248619D01*
X129992380Y-85248619D02*
X128992380Y-85248619D01*
X128992380Y-84772428D01*
X130087619Y-84629571D02*
X130087619Y-83867666D01*
X129992380Y-83629571D02*
X128992380Y-83629571D01*
X128992380Y-83391476D01*
X129040000Y-83248619D01*
X129135238Y-83153380D01*
X129230476Y-83105761D01*
X129420952Y-83058142D01*
X129563809Y-83058142D01*
X129754285Y-83105761D01*
X129849523Y-83153380D01*
X129944761Y-83248619D01*
X129992380Y-83391476D01*
X129992380Y-83629571D01*
X129087619Y-82677190D02*
X129040000Y-82629571D01*
X128992380Y-82534333D01*
X128992380Y-82296238D01*
X129040000Y-82201000D01*
X129087619Y-82153380D01*
X129182857Y-82105761D01*
X129278095Y-82105761D01*
X129420952Y-82153380D01*
X129992380Y-82724809D01*
X129992380Y-82105761D01*
X132024380Y-81160904D02*
X131024380Y-81160904D01*
X132024380Y-80589476D02*
X131452952Y-81018047D01*
X131024380Y-80589476D02*
X131595809Y-81160904D01*
%TO.C,RF_C1*%
X113482380Y-74501190D02*
X113006190Y-74834523D01*
X113482380Y-75072619D02*
X112482380Y-75072619D01*
X112482380Y-74691666D01*
X112530000Y-74596428D01*
X112577619Y-74548809D01*
X112672857Y-74501190D01*
X112815714Y-74501190D01*
X112910952Y-74548809D01*
X112958571Y-74596428D01*
X113006190Y-74691666D01*
X113006190Y-75072619D01*
X112958571Y-73739285D02*
X112958571Y-74072619D01*
X113482380Y-74072619D02*
X112482380Y-74072619D01*
X112482380Y-73596428D01*
X113577619Y-73453571D02*
X113577619Y-72691666D01*
X113387142Y-71882142D02*
X113434761Y-71929761D01*
X113482380Y-72072619D01*
X113482380Y-72167857D01*
X113434761Y-72310714D01*
X113339523Y-72405952D01*
X113244285Y-72453571D01*
X113053809Y-72501190D01*
X112910952Y-72501190D01*
X112720476Y-72453571D01*
X112625238Y-72405952D01*
X112530000Y-72310714D01*
X112482380Y-72167857D01*
X112482380Y-72072619D01*
X112530000Y-71929761D01*
X112577619Y-71882142D01*
X113482380Y-70929761D02*
X113482380Y-71501190D01*
X113482380Y-71215476D02*
X112482380Y-71215476D01*
X112625238Y-71310714D01*
X112720476Y-71405952D01*
X112768095Y-71501190D01*
%TO.C,RF_R2*%
X131346380Y-99139190D02*
X130870190Y-99472523D01*
X131346380Y-99710619D02*
X130346380Y-99710619D01*
X130346380Y-99329666D01*
X130394000Y-99234428D01*
X130441619Y-99186809D01*
X130536857Y-99139190D01*
X130679714Y-99139190D01*
X130774952Y-99186809D01*
X130822571Y-99234428D01*
X130870190Y-99329666D01*
X130870190Y-99710619D01*
X130822571Y-98377285D02*
X130822571Y-98710619D01*
X131346380Y-98710619D02*
X130346380Y-98710619D01*
X130346380Y-98234428D01*
X131441619Y-98091571D02*
X131441619Y-97329666D01*
X131346380Y-96520142D02*
X130870190Y-96853476D01*
X131346380Y-97091571D02*
X130346380Y-97091571D01*
X130346380Y-96710619D01*
X130394000Y-96615380D01*
X130441619Y-96567761D01*
X130536857Y-96520142D01*
X130679714Y-96520142D01*
X130774952Y-96567761D01*
X130822571Y-96615380D01*
X130870190Y-96710619D01*
X130870190Y-97091571D01*
X130441619Y-96139190D02*
X130394000Y-96091571D01*
X130346380Y-95996333D01*
X130346380Y-95758238D01*
X130394000Y-95663000D01*
X130441619Y-95615380D01*
X130536857Y-95567761D01*
X130632095Y-95567761D01*
X130774952Y-95615380D01*
X131346380Y-96186809D01*
X131346380Y-95567761D01*
%TO.C,RF_U1*%
X134774380Y-99163000D02*
X134298190Y-99496333D01*
X134774380Y-99734428D02*
X133774380Y-99734428D01*
X133774380Y-99353476D01*
X133822000Y-99258238D01*
X133869619Y-99210619D01*
X133964857Y-99163000D01*
X134107714Y-99163000D01*
X134202952Y-99210619D01*
X134250571Y-99258238D01*
X134298190Y-99353476D01*
X134298190Y-99734428D01*
X134250571Y-98401095D02*
X134250571Y-98734428D01*
X134774380Y-98734428D02*
X133774380Y-98734428D01*
X133774380Y-98258238D01*
X134869619Y-98115380D02*
X134869619Y-97353476D01*
X133774380Y-97115380D02*
X134583904Y-97115380D01*
X134679142Y-97067761D01*
X134726761Y-97020142D01*
X134774380Y-96924904D01*
X134774380Y-96734428D01*
X134726761Y-96639190D01*
X134679142Y-96591571D01*
X134583904Y-96543952D01*
X133774380Y-96543952D01*
X134774380Y-95543952D02*
X134774380Y-96115380D01*
X134774380Y-95829666D02*
X133774380Y-95829666D01*
X133917238Y-95924904D01*
X134012476Y-96020142D01*
X134060095Y-96115380D01*
%TO.C,RF_C7*%
X147875809Y-85963380D02*
X147542476Y-85487190D01*
X147304380Y-85963380D02*
X147304380Y-84963380D01*
X147685333Y-84963380D01*
X147780571Y-85011000D01*
X147828190Y-85058619D01*
X147875809Y-85153857D01*
X147875809Y-85296714D01*
X147828190Y-85391952D01*
X147780571Y-85439571D01*
X147685333Y-85487190D01*
X147304380Y-85487190D01*
X148637714Y-85439571D02*
X148304380Y-85439571D01*
X148304380Y-85963380D02*
X148304380Y-84963380D01*
X148780571Y-84963380D01*
X148923428Y-86058619D02*
X149685333Y-86058619D01*
X150494857Y-85868142D02*
X150447238Y-85915761D01*
X150304380Y-85963380D01*
X150209142Y-85963380D01*
X150066285Y-85915761D01*
X149971047Y-85820523D01*
X149923428Y-85725285D01*
X149875809Y-85534809D01*
X149875809Y-85391952D01*
X149923428Y-85201476D01*
X149971047Y-85106238D01*
X150066285Y-85011000D01*
X150209142Y-84963380D01*
X150304380Y-84963380D01*
X150447238Y-85011000D01*
X150494857Y-85058619D01*
X150828190Y-84963380D02*
X151494857Y-84963380D01*
X151066285Y-85963380D01*
%TO.C,H17*%
X113823904Y-82875380D02*
X113823904Y-81875380D01*
X113823904Y-82351571D02*
X114395333Y-82351571D01*
X114395333Y-82875380D02*
X114395333Y-81875380D01*
X115395333Y-82875380D02*
X114823904Y-82875380D01*
X115109619Y-82875380D02*
X115109619Y-81875380D01*
X115014380Y-82018238D01*
X114919142Y-82113476D01*
X114823904Y-82161095D01*
X115728666Y-81875380D02*
X116395333Y-81875380D01*
X115966761Y-82875380D01*
%TO.C,RF_VL1*%
X122205523Y-78922619D02*
X122538857Y-79398809D01*
X122776952Y-78922619D02*
X122776952Y-79922619D01*
X122396000Y-79922619D01*
X122300761Y-79875000D01*
X122253142Y-79827380D01*
X122205523Y-79732142D01*
X122205523Y-79589285D01*
X122253142Y-79494047D01*
X122300761Y-79446428D01*
X122396000Y-79398809D01*
X122776952Y-79398809D01*
X121443619Y-79446428D02*
X121776952Y-79446428D01*
X121776952Y-78922619D02*
X121776952Y-79922619D01*
X121300761Y-79922619D01*
X121157904Y-78827380D02*
X120396000Y-78827380D01*
X120300761Y-79922619D02*
X119967428Y-78922619D01*
X119634095Y-79922619D01*
X118824571Y-78922619D02*
X119300761Y-78922619D01*
X119300761Y-79922619D01*
X117967428Y-78922619D02*
X118538857Y-78922619D01*
X118253142Y-78922619D02*
X118253142Y-79922619D01*
X118348380Y-79779761D01*
X118443619Y-79684523D01*
X118538857Y-79636904D01*
%TO.C,RF_C4*%
X138477809Y-113355380D02*
X138144476Y-112879190D01*
X137906380Y-113355380D02*
X137906380Y-112355380D01*
X138287333Y-112355380D01*
X138382571Y-112403000D01*
X138430190Y-112450619D01*
X138477809Y-112545857D01*
X138477809Y-112688714D01*
X138430190Y-112783952D01*
X138382571Y-112831571D01*
X138287333Y-112879190D01*
X137906380Y-112879190D01*
X139239714Y-112831571D02*
X138906380Y-112831571D01*
X138906380Y-113355380D02*
X138906380Y-112355380D01*
X139382571Y-112355380D01*
X139525428Y-113450619D02*
X140287333Y-113450619D01*
X141096857Y-113260142D02*
X141049238Y-113307761D01*
X140906380Y-113355380D01*
X140811142Y-113355380D01*
X140668285Y-113307761D01*
X140573047Y-113212523D01*
X140525428Y-113117285D01*
X140477809Y-112926809D01*
X140477809Y-112783952D01*
X140525428Y-112593476D01*
X140573047Y-112498238D01*
X140668285Y-112403000D01*
X140811142Y-112355380D01*
X140906380Y-112355380D01*
X141049238Y-112403000D01*
X141096857Y-112450619D01*
X141954000Y-112688714D02*
X141954000Y-113355380D01*
X141715904Y-112307761D02*
X141477809Y-113022047D01*
X142096857Y-113022047D01*
%TO.C,RF_R5*%
X164309809Y-116487380D02*
X163976476Y-116011190D01*
X163738380Y-116487380D02*
X163738380Y-115487380D01*
X164119333Y-115487380D01*
X164214571Y-115535000D01*
X164262190Y-115582619D01*
X164309809Y-115677857D01*
X164309809Y-115820714D01*
X164262190Y-115915952D01*
X164214571Y-115963571D01*
X164119333Y-116011190D01*
X163738380Y-116011190D01*
X165071714Y-115963571D02*
X164738380Y-115963571D01*
X164738380Y-116487380D02*
X164738380Y-115487380D01*
X165214571Y-115487380D01*
X165357428Y-116582619D02*
X166119333Y-116582619D01*
X166928857Y-116487380D02*
X166595523Y-116011190D01*
X166357428Y-116487380D02*
X166357428Y-115487380D01*
X166738380Y-115487380D01*
X166833619Y-115535000D01*
X166881238Y-115582619D01*
X166928857Y-115677857D01*
X166928857Y-115820714D01*
X166881238Y-115915952D01*
X166833619Y-115963571D01*
X166738380Y-116011190D01*
X166357428Y-116011190D01*
X167833619Y-115487380D02*
X167357428Y-115487380D01*
X167309809Y-115963571D01*
X167357428Y-115915952D01*
X167452666Y-115868333D01*
X167690761Y-115868333D01*
X167786000Y-115915952D01*
X167833619Y-115963571D01*
X167881238Y-116058809D01*
X167881238Y-116296904D01*
X167833619Y-116392142D01*
X167786000Y-116439761D01*
X167690761Y-116487380D01*
X167452666Y-116487380D01*
X167357428Y-116439761D01*
X167309809Y-116392142D01*
%TO.C,J4B1*%
X121118380Y-97702523D02*
X121832666Y-97702523D01*
X121975523Y-97750142D01*
X122070761Y-97845380D01*
X122118380Y-97988238D01*
X122118380Y-98083476D01*
X121451714Y-96797761D02*
X122118380Y-96797761D01*
X121070761Y-97035857D02*
X121785047Y-97273952D01*
X121785047Y-96654904D01*
X121594571Y-95940619D02*
X121642190Y-95797761D01*
X121689809Y-95750142D01*
X121785047Y-95702523D01*
X121927904Y-95702523D01*
X122023142Y-95750142D01*
X122070761Y-95797761D01*
X122118380Y-95893000D01*
X122118380Y-96273952D01*
X121118380Y-96273952D01*
X121118380Y-95940619D01*
X121166000Y-95845380D01*
X121213619Y-95797761D01*
X121308857Y-95750142D01*
X121404095Y-95750142D01*
X121499333Y-95797761D01*
X121546952Y-95845380D01*
X121594571Y-95940619D01*
X121594571Y-96273952D01*
X122118380Y-94750142D02*
X122118380Y-95321571D01*
X122118380Y-95035857D02*
X121118380Y-95035857D01*
X121261238Y-95131095D01*
X121356476Y-95226333D01*
X121404095Y-95321571D01*
%TO.C,RF_R7*%
X156832380Y-87455190D02*
X156356190Y-87788523D01*
X156832380Y-88026619D02*
X155832380Y-88026619D01*
X155832380Y-87645666D01*
X155880000Y-87550428D01*
X155927619Y-87502809D01*
X156022857Y-87455190D01*
X156165714Y-87455190D01*
X156260952Y-87502809D01*
X156308571Y-87550428D01*
X156356190Y-87645666D01*
X156356190Y-88026619D01*
X156308571Y-86693285D02*
X156308571Y-87026619D01*
X156832380Y-87026619D02*
X155832380Y-87026619D01*
X155832380Y-86550428D01*
X156927619Y-86407571D02*
X156927619Y-85645666D01*
X156832380Y-84836142D02*
X156356190Y-85169476D01*
X156832380Y-85407571D02*
X155832380Y-85407571D01*
X155832380Y-85026619D01*
X155880000Y-84931380D01*
X155927619Y-84883761D01*
X156022857Y-84836142D01*
X156165714Y-84836142D01*
X156260952Y-84883761D01*
X156308571Y-84931380D01*
X156356190Y-85026619D01*
X156356190Y-85407571D01*
X155832380Y-84502809D02*
X155832380Y-83836142D01*
X156832380Y-84264714D01*
%TO.C,RF_R8*%
X164385809Y-107683380D02*
X164052476Y-107207190D01*
X163814380Y-107683380D02*
X163814380Y-106683380D01*
X164195333Y-106683380D01*
X164290571Y-106731000D01*
X164338190Y-106778619D01*
X164385809Y-106873857D01*
X164385809Y-107016714D01*
X164338190Y-107111952D01*
X164290571Y-107159571D01*
X164195333Y-107207190D01*
X163814380Y-107207190D01*
X165147714Y-107159571D02*
X164814380Y-107159571D01*
X164814380Y-107683380D02*
X164814380Y-106683380D01*
X165290571Y-106683380D01*
X165433428Y-107778619D02*
X166195333Y-107778619D01*
X167004857Y-107683380D02*
X166671523Y-107207190D01*
X166433428Y-107683380D02*
X166433428Y-106683380D01*
X166814380Y-106683380D01*
X166909619Y-106731000D01*
X166957238Y-106778619D01*
X167004857Y-106873857D01*
X167004857Y-107016714D01*
X166957238Y-107111952D01*
X166909619Y-107159571D01*
X166814380Y-107207190D01*
X166433428Y-107207190D01*
X167576285Y-107111952D02*
X167481047Y-107064333D01*
X167433428Y-107016714D01*
X167385809Y-106921476D01*
X167385809Y-106873857D01*
X167433428Y-106778619D01*
X167481047Y-106731000D01*
X167576285Y-106683380D01*
X167766761Y-106683380D01*
X167862000Y-106731000D01*
X167909619Y-106778619D01*
X167957238Y-106873857D01*
X167957238Y-106921476D01*
X167909619Y-107016714D01*
X167862000Y-107064333D01*
X167766761Y-107111952D01*
X167576285Y-107111952D01*
X167481047Y-107159571D01*
X167433428Y-107207190D01*
X167385809Y-107302428D01*
X167385809Y-107492904D01*
X167433428Y-107588142D01*
X167481047Y-107635761D01*
X167576285Y-107683380D01*
X167766761Y-107683380D01*
X167862000Y-107635761D01*
X167909619Y-107588142D01*
X167957238Y-107492904D01*
X167957238Y-107302428D01*
X167909619Y-107207190D01*
X167862000Y-107159571D01*
X167766761Y-107111952D01*
D12*
%TO.C,RF_J1*%
X163642523Y-72462571D02*
X163037761Y-72885904D01*
X163642523Y-73188285D02*
X162372523Y-73188285D01*
X162372523Y-72704476D01*
X162433000Y-72583523D01*
X162493476Y-72523047D01*
X162614428Y-72462571D01*
X162795857Y-72462571D01*
X162916809Y-72523047D01*
X162977285Y-72583523D01*
X163037761Y-72704476D01*
X163037761Y-73188285D01*
X162977285Y-71494952D02*
X162977285Y-71918285D01*
X163642523Y-71918285D02*
X162372523Y-71918285D01*
X162372523Y-71313523D01*
X163763476Y-71132095D02*
X163763476Y-70164476D01*
X162372523Y-69499238D02*
X163279666Y-69499238D01*
X163461095Y-69559714D01*
X163582047Y-69680666D01*
X163642523Y-69862095D01*
X163642523Y-69983047D01*
X163642523Y-68229238D02*
X163642523Y-68954952D01*
X163642523Y-68592095D02*
X162372523Y-68592095D01*
X162553952Y-68713047D01*
X162674904Y-68834000D01*
X162735380Y-68954952D01*
D11*
%TO.C,RF_C8*%
X157424380Y-72723190D02*
X156948190Y-73056523D01*
X157424380Y-73294619D02*
X156424380Y-73294619D01*
X156424380Y-72913666D01*
X156472000Y-72818428D01*
X156519619Y-72770809D01*
X156614857Y-72723190D01*
X156757714Y-72723190D01*
X156852952Y-72770809D01*
X156900571Y-72818428D01*
X156948190Y-72913666D01*
X156948190Y-73294619D01*
X156900571Y-71961285D02*
X156900571Y-72294619D01*
X157424380Y-72294619D02*
X156424380Y-72294619D01*
X156424380Y-71818428D01*
X157519619Y-71675571D02*
X157519619Y-70913666D01*
X157329142Y-70104142D02*
X157376761Y-70151761D01*
X157424380Y-70294619D01*
X157424380Y-70389857D01*
X157376761Y-70532714D01*
X157281523Y-70627952D01*
X157186285Y-70675571D01*
X156995809Y-70723190D01*
X156852952Y-70723190D01*
X156662476Y-70675571D01*
X156567238Y-70627952D01*
X156472000Y-70532714D01*
X156424380Y-70389857D01*
X156424380Y-70294619D01*
X156472000Y-70151761D01*
X156519619Y-70104142D01*
X156852952Y-69532714D02*
X156805333Y-69627952D01*
X156757714Y-69675571D01*
X156662476Y-69723190D01*
X156614857Y-69723190D01*
X156519619Y-69675571D01*
X156472000Y-69627952D01*
X156424380Y-69532714D01*
X156424380Y-69342238D01*
X156472000Y-69247000D01*
X156519619Y-69199380D01*
X156614857Y-69151761D01*
X156662476Y-69151761D01*
X156757714Y-69199380D01*
X156805333Y-69247000D01*
X156852952Y-69342238D01*
X156852952Y-69532714D01*
X156900571Y-69627952D01*
X156948190Y-69675571D01*
X157043428Y-69723190D01*
X157233904Y-69723190D01*
X157329142Y-69675571D01*
X157376761Y-69627952D01*
X157424380Y-69532714D01*
X157424380Y-69342238D01*
X157376761Y-69247000D01*
X157329142Y-69199380D01*
X157233904Y-69151761D01*
X157043428Y-69151761D01*
X156948190Y-69199380D01*
X156900571Y-69247000D01*
X156852952Y-69342238D01*
%TO.C,RF_C9*%
X162504380Y-83137190D02*
X162028190Y-83470523D01*
X162504380Y-83708619D02*
X161504380Y-83708619D01*
X161504380Y-83327666D01*
X161552000Y-83232428D01*
X161599619Y-83184809D01*
X161694857Y-83137190D01*
X161837714Y-83137190D01*
X161932952Y-83184809D01*
X161980571Y-83232428D01*
X162028190Y-83327666D01*
X162028190Y-83708619D01*
X161980571Y-82375285D02*
X161980571Y-82708619D01*
X162504380Y-82708619D02*
X161504380Y-82708619D01*
X161504380Y-82232428D01*
X162599619Y-82089571D02*
X162599619Y-81327666D01*
X162409142Y-80518142D02*
X162456761Y-80565761D01*
X162504380Y-80708619D01*
X162504380Y-80803857D01*
X162456761Y-80946714D01*
X162361523Y-81041952D01*
X162266285Y-81089571D01*
X162075809Y-81137190D01*
X161932952Y-81137190D01*
X161742476Y-81089571D01*
X161647238Y-81041952D01*
X161552000Y-80946714D01*
X161504380Y-80803857D01*
X161504380Y-80708619D01*
X161552000Y-80565761D01*
X161599619Y-80518142D01*
X162504380Y-80041952D02*
X162504380Y-79851476D01*
X162456761Y-79756238D01*
X162409142Y-79708619D01*
X162266285Y-79613380D01*
X162075809Y-79565761D01*
X161694857Y-79565761D01*
X161599619Y-79613380D01*
X161552000Y-79661000D01*
X161504380Y-79756238D01*
X161504380Y-79946714D01*
X161552000Y-80041952D01*
X161599619Y-80089571D01*
X161694857Y-80137190D01*
X161932952Y-80137190D01*
X162028190Y-80089571D01*
X162075809Y-80041952D01*
X162123428Y-79946714D01*
X162123428Y-79756238D01*
X162075809Y-79661000D01*
X162028190Y-79613380D01*
X161932952Y-79565761D01*
%TO.C,H16*%
X113823904Y-108783380D02*
X113823904Y-107783380D01*
X113823904Y-108259571D02*
X114395333Y-108259571D01*
X114395333Y-108783380D02*
X114395333Y-107783380D01*
X115395333Y-108783380D02*
X114823904Y-108783380D01*
X115109619Y-108783380D02*
X115109619Y-107783380D01*
X115014380Y-107926238D01*
X114919142Y-108021476D01*
X114823904Y-108069095D01*
X116252476Y-107783380D02*
X116062000Y-107783380D01*
X115966761Y-107831000D01*
X115919142Y-107878619D01*
X115823904Y-108021476D01*
X115776285Y-108211952D01*
X115776285Y-108592904D01*
X115823904Y-108688142D01*
X115871523Y-108735761D01*
X115966761Y-108783380D01*
X116157238Y-108783380D01*
X116252476Y-108735761D01*
X116300095Y-108688142D01*
X116347714Y-108592904D01*
X116347714Y-108354809D01*
X116300095Y-108259571D01*
X116252476Y-108211952D01*
X116157238Y-108164333D01*
X115966761Y-108164333D01*
X115871523Y-108211952D01*
X115823904Y-108259571D01*
X115776285Y-108354809D01*
%TO.C,RF_R4*%
X149399809Y-105989380D02*
X149066476Y-105513190D01*
X148828380Y-105989380D02*
X148828380Y-104989380D01*
X149209333Y-104989380D01*
X149304571Y-105037000D01*
X149352190Y-105084619D01*
X149399809Y-105179857D01*
X149399809Y-105322714D01*
X149352190Y-105417952D01*
X149304571Y-105465571D01*
X149209333Y-105513190D01*
X148828380Y-105513190D01*
X150161714Y-105465571D02*
X149828380Y-105465571D01*
X149828380Y-105989380D02*
X149828380Y-104989380D01*
X150304571Y-104989380D01*
X150447428Y-106084619D02*
X151209333Y-106084619D01*
X152018857Y-105989380D02*
X151685523Y-105513190D01*
X151447428Y-105989380D02*
X151447428Y-104989380D01*
X151828380Y-104989380D01*
X151923619Y-105037000D01*
X151971238Y-105084619D01*
X152018857Y-105179857D01*
X152018857Y-105322714D01*
X151971238Y-105417952D01*
X151923619Y-105465571D01*
X151828380Y-105513190D01*
X151447428Y-105513190D01*
X152876000Y-105322714D02*
X152876000Y-105989380D01*
X152637904Y-104941761D02*
X152399809Y-105656047D01*
X153018857Y-105656047D01*
%TO.C,RF_R1*%
X113144380Y-89995190D02*
X112668190Y-90328523D01*
X113144380Y-90566619D02*
X112144380Y-90566619D01*
X112144380Y-90185666D01*
X112192000Y-90090428D01*
X112239619Y-90042809D01*
X112334857Y-89995190D01*
X112477714Y-89995190D01*
X112572952Y-90042809D01*
X112620571Y-90090428D01*
X112668190Y-90185666D01*
X112668190Y-90566619D01*
X112620571Y-89233285D02*
X112620571Y-89566619D01*
X113144380Y-89566619D02*
X112144380Y-89566619D01*
X112144380Y-89090428D01*
X113239619Y-88947571D02*
X113239619Y-88185666D01*
X113144380Y-87376142D02*
X112668190Y-87709476D01*
X113144380Y-87947571D02*
X112144380Y-87947571D01*
X112144380Y-87566619D01*
X112192000Y-87471380D01*
X112239619Y-87423761D01*
X112334857Y-87376142D01*
X112477714Y-87376142D01*
X112572952Y-87423761D01*
X112620571Y-87471380D01*
X112668190Y-87566619D01*
X112668190Y-87947571D01*
X113144380Y-86423761D02*
X113144380Y-86995190D01*
X113144380Y-86709476D02*
X112144380Y-86709476D01*
X112287238Y-86804714D01*
X112382476Y-86899952D01*
X112430095Y-86995190D01*
%TO.C,RF_R9*%
X152936380Y-80597190D02*
X152460190Y-80930523D01*
X152936380Y-81168619D02*
X151936380Y-81168619D01*
X151936380Y-80787666D01*
X151984000Y-80692428D01*
X152031619Y-80644809D01*
X152126857Y-80597190D01*
X152269714Y-80597190D01*
X152364952Y-80644809D01*
X152412571Y-80692428D01*
X152460190Y-80787666D01*
X152460190Y-81168619D01*
X152412571Y-79835285D02*
X152412571Y-80168619D01*
X152936380Y-80168619D02*
X151936380Y-80168619D01*
X151936380Y-79692428D01*
X153031619Y-79549571D02*
X153031619Y-78787666D01*
X152936380Y-77978142D02*
X152460190Y-78311476D01*
X152936380Y-78549571D02*
X151936380Y-78549571D01*
X151936380Y-78168619D01*
X151984000Y-78073380D01*
X152031619Y-78025761D01*
X152126857Y-77978142D01*
X152269714Y-77978142D01*
X152364952Y-78025761D01*
X152412571Y-78073380D01*
X152460190Y-78168619D01*
X152460190Y-78549571D01*
X152936380Y-77501952D02*
X152936380Y-77311476D01*
X152888761Y-77216238D01*
X152841142Y-77168619D01*
X152698285Y-77073380D01*
X152507809Y-77025761D01*
X152126857Y-77025761D01*
X152031619Y-77073380D01*
X151984000Y-77121000D01*
X151936380Y-77216238D01*
X151936380Y-77406714D01*
X151984000Y-77501952D01*
X152031619Y-77549571D01*
X152126857Y-77597190D01*
X152364952Y-77597190D01*
X152460190Y-77549571D01*
X152507809Y-77501952D01*
X152555428Y-77406714D01*
X152555428Y-77216238D01*
X152507809Y-77121000D01*
X152460190Y-77073380D01*
X152364952Y-77025761D01*
%TO.C,RF_SW1*%
X140594190Y-75807380D02*
X140260857Y-75331190D01*
X140022761Y-75807380D02*
X140022761Y-74807380D01*
X140403714Y-74807380D01*
X140498952Y-74855000D01*
X140546571Y-74902619D01*
X140594190Y-74997857D01*
X140594190Y-75140714D01*
X140546571Y-75235952D01*
X140498952Y-75283571D01*
X140403714Y-75331190D01*
X140022761Y-75331190D01*
X141356095Y-75283571D02*
X141022761Y-75283571D01*
X141022761Y-75807380D02*
X141022761Y-74807380D01*
X141498952Y-74807380D01*
X141641809Y-75902619D02*
X142403714Y-75902619D01*
X142594190Y-75759761D02*
X142737047Y-75807380D01*
X142975142Y-75807380D01*
X143070380Y-75759761D01*
X143118000Y-75712142D01*
X143165619Y-75616904D01*
X143165619Y-75521666D01*
X143118000Y-75426428D01*
X143070380Y-75378809D01*
X142975142Y-75331190D01*
X142784666Y-75283571D01*
X142689428Y-75235952D01*
X142641809Y-75188333D01*
X142594190Y-75093095D01*
X142594190Y-74997857D01*
X142641809Y-74902619D01*
X142689428Y-74855000D01*
X142784666Y-74807380D01*
X143022761Y-74807380D01*
X143165619Y-74855000D01*
X143498952Y-74807380D02*
X143737047Y-75807380D01*
X143927523Y-75093095D01*
X144118000Y-75807380D01*
X144356095Y-74807380D01*
X145260857Y-75807380D02*
X144689428Y-75807380D01*
X144975142Y-75807380D02*
X144975142Y-74807380D01*
X144879904Y-74950238D01*
X144784666Y-75045476D01*
X144689428Y-75093095D01*
%TO.C,RF_R10*%
X142319619Y-78303380D02*
X141986285Y-77827190D01*
X141748190Y-78303380D02*
X141748190Y-77303380D01*
X142129142Y-77303380D01*
X142224380Y-77351000D01*
X142272000Y-77398619D01*
X142319619Y-77493857D01*
X142319619Y-77636714D01*
X142272000Y-77731952D01*
X142224380Y-77779571D01*
X142129142Y-77827190D01*
X141748190Y-77827190D01*
X143081523Y-77779571D02*
X142748190Y-77779571D01*
X142748190Y-78303380D02*
X142748190Y-77303380D01*
X143224380Y-77303380D01*
X143367238Y-78398619D02*
X144129142Y-78398619D01*
X144938666Y-78303380D02*
X144605333Y-77827190D01*
X144367238Y-78303380D02*
X144367238Y-77303380D01*
X144748190Y-77303380D01*
X144843428Y-77351000D01*
X144891047Y-77398619D01*
X144938666Y-77493857D01*
X144938666Y-77636714D01*
X144891047Y-77731952D01*
X144843428Y-77779571D01*
X144748190Y-77827190D01*
X144367238Y-77827190D01*
X145891047Y-78303380D02*
X145319619Y-78303380D01*
X145605333Y-78303380D02*
X145605333Y-77303380D01*
X145510095Y-77446238D01*
X145414857Y-77541476D01*
X145319619Y-77589095D01*
X146510095Y-77303380D02*
X146605333Y-77303380D01*
X146700571Y-77351000D01*
X146748190Y-77398619D01*
X146795809Y-77493857D01*
X146843428Y-77684333D01*
X146843428Y-77922428D01*
X146795809Y-78112904D01*
X146748190Y-78208142D01*
X146700571Y-78255761D01*
X146605333Y-78303380D01*
X146510095Y-78303380D01*
X146414857Y-78255761D01*
X146367238Y-78208142D01*
X146319619Y-78112904D01*
X146272000Y-77922428D01*
X146272000Y-77684333D01*
X146319619Y-77493857D01*
X146367238Y-77398619D01*
X146414857Y-77351000D01*
X146510095Y-77303380D01*
%TO.C,RF_L1*%
X167021047Y-93289380D02*
X166687714Y-92813190D01*
X166449619Y-93289380D02*
X166449619Y-92289380D01*
X166830571Y-92289380D01*
X166925809Y-92337000D01*
X166973428Y-92384619D01*
X167021047Y-92479857D01*
X167021047Y-92622714D01*
X166973428Y-92717952D01*
X166925809Y-92765571D01*
X166830571Y-92813190D01*
X166449619Y-92813190D01*
X167782952Y-92765571D02*
X167449619Y-92765571D01*
X167449619Y-93289380D02*
X167449619Y-92289380D01*
X167925809Y-92289380D01*
X168068666Y-93384619D02*
X168830571Y-93384619D01*
X169544857Y-93289380D02*
X169068666Y-93289380D01*
X169068666Y-92289380D01*
X170402000Y-93289380D02*
X169830571Y-93289380D01*
X170116285Y-93289380D02*
X170116285Y-92289380D01*
X170021047Y-92432238D01*
X169925809Y-92527476D01*
X169830571Y-92575095D01*
%TO.C,RF_C3*%
X134818380Y-104981190D02*
X134342190Y-105314523D01*
X134818380Y-105552619D02*
X133818380Y-105552619D01*
X133818380Y-105171666D01*
X133866000Y-105076428D01*
X133913619Y-105028809D01*
X134008857Y-104981190D01*
X134151714Y-104981190D01*
X134246952Y-105028809D01*
X134294571Y-105076428D01*
X134342190Y-105171666D01*
X134342190Y-105552619D01*
X134294571Y-104219285D02*
X134294571Y-104552619D01*
X134818380Y-104552619D02*
X133818380Y-104552619D01*
X133818380Y-104076428D01*
X134913619Y-103933571D02*
X134913619Y-103171666D01*
X134723142Y-102362142D02*
X134770761Y-102409761D01*
X134818380Y-102552619D01*
X134818380Y-102647857D01*
X134770761Y-102790714D01*
X134675523Y-102885952D01*
X134580285Y-102933571D01*
X134389809Y-102981190D01*
X134246952Y-102981190D01*
X134056476Y-102933571D01*
X133961238Y-102885952D01*
X133866000Y-102790714D01*
X133818380Y-102647857D01*
X133818380Y-102552619D01*
X133866000Y-102409761D01*
X133913619Y-102362142D01*
X133818380Y-102028809D02*
X133818380Y-101409761D01*
X134199333Y-101743095D01*
X134199333Y-101600238D01*
X134246952Y-101505000D01*
X134294571Y-101457380D01*
X134389809Y-101409761D01*
X134627904Y-101409761D01*
X134723142Y-101457380D01*
X134770761Y-101505000D01*
X134818380Y-101600238D01*
X134818380Y-101885952D01*
X134770761Y-101981190D01*
X134723142Y-102028809D01*
%TO.C,RF_R12*%
X146248380Y-85645380D02*
X145772190Y-85978714D01*
X146248380Y-86216809D02*
X145248380Y-86216809D01*
X145248380Y-85835857D01*
X145296000Y-85740619D01*
X145343619Y-85693000D01*
X145438857Y-85645380D01*
X145581714Y-85645380D01*
X145676952Y-85693000D01*
X145724571Y-85740619D01*
X145772190Y-85835857D01*
X145772190Y-86216809D01*
X145724571Y-84883476D02*
X145724571Y-85216809D01*
X146248380Y-85216809D02*
X145248380Y-85216809D01*
X145248380Y-84740619D01*
X146343619Y-84597761D02*
X146343619Y-83835857D01*
X146248380Y-83026333D02*
X145772190Y-83359666D01*
X146248380Y-83597761D02*
X145248380Y-83597761D01*
X145248380Y-83216809D01*
X145296000Y-83121571D01*
X145343619Y-83073952D01*
X145438857Y-83026333D01*
X145581714Y-83026333D01*
X145676952Y-83073952D01*
X145724571Y-83121571D01*
X145772190Y-83216809D01*
X145772190Y-83597761D01*
X146248380Y-82073952D02*
X146248380Y-82645380D01*
X146248380Y-82359666D02*
X145248380Y-82359666D01*
X145391238Y-82454904D01*
X145486476Y-82550142D01*
X145534095Y-82645380D01*
X145343619Y-81693000D02*
X145296000Y-81645380D01*
X145248380Y-81550142D01*
X145248380Y-81312047D01*
X145296000Y-81216809D01*
X145343619Y-81169190D01*
X145438857Y-81121571D01*
X145534095Y-81121571D01*
X145676952Y-81169190D01*
X146248380Y-81740619D01*
X146248380Y-81121571D01*
%TO.C,RF_L2*%
X164282380Y-103107952D02*
X163806190Y-103441285D01*
X164282380Y-103679380D02*
X163282380Y-103679380D01*
X163282380Y-103298428D01*
X163330000Y-103203190D01*
X163377619Y-103155571D01*
X163472857Y-103107952D01*
X163615714Y-103107952D01*
X163710952Y-103155571D01*
X163758571Y-103203190D01*
X163806190Y-103298428D01*
X163806190Y-103679380D01*
X163758571Y-102346047D02*
X163758571Y-102679380D01*
X164282380Y-102679380D02*
X163282380Y-102679380D01*
X163282380Y-102203190D01*
X164377619Y-102060333D02*
X164377619Y-101298428D01*
X164282380Y-100584142D02*
X164282380Y-101060333D01*
X163282380Y-101060333D01*
X163377619Y-100298428D02*
X163330000Y-100250809D01*
X163282380Y-100155571D01*
X163282380Y-99917476D01*
X163330000Y-99822238D01*
X163377619Y-99774619D01*
X163472857Y-99727000D01*
X163568095Y-99727000D01*
X163710952Y-99774619D01*
X164282380Y-100346047D01*
X164282380Y-99727000D01*
D13*
%TO.C,RF_C10*%
X165544000Y-93753000D02*
X165544000Y-96493000D01*
X172784000Y-93753000D02*
X172784000Y-96493000D01*
X165544000Y-96493000D02*
X172784000Y-96493000D01*
X165544000Y-93753000D02*
X172784000Y-93753000D01*
%TO.C,RF_JP1*%
X125830000Y-91027000D02*
X125830000Y-84487000D01*
X125830000Y-84487000D02*
X123090000Y-84487000D01*
X123090000Y-84487000D02*
X123090000Y-91027000D01*
X123090000Y-91027000D02*
X125830000Y-91027000D01*
X124460000Y-81177000D02*
X124460000Y-84487000D01*
X124460000Y-94337000D02*
X124460000Y-91027000D01*
%TO.C,RF_C6*%
X140398000Y-108739000D02*
X147638000Y-108739000D01*
X147638000Y-108739000D02*
X147638000Y-111479000D01*
X140398000Y-111479000D02*
X147638000Y-111479000D01*
X140398000Y-108739000D02*
X140398000Y-111479000D01*
%TO.C,RF_C5*%
X133794000Y-89889000D02*
X141034000Y-89889000D01*
X141034000Y-87149000D02*
X141034000Y-89889000D01*
X133794000Y-87149000D02*
X133794000Y-89889000D01*
X133794000Y-87149000D02*
X141034000Y-87149000D01*
%TO.C,RF_R11*%
X135414000Y-82955000D02*
X135414000Y-83285000D01*
X135414000Y-80875000D02*
X135414000Y-80545000D01*
X135414000Y-80545000D02*
X141954000Y-80545000D01*
X141954000Y-80545000D02*
X141954000Y-80875000D01*
X141954000Y-83285000D02*
X141954000Y-82955000D01*
X135414000Y-83285000D02*
X141954000Y-83285000D01*
%TO.C,RF_C12*%
X153900000Y-106399000D02*
X153900000Y-103659000D01*
X161140000Y-103659000D02*
X153900000Y-103659000D01*
X161140000Y-106399000D02*
X161140000Y-103659000D01*
X161140000Y-106399000D02*
X153900000Y-106399000D01*
%TO.C,RF_R6*%
X157634000Y-79343000D02*
X157634000Y-72803000D01*
X160044000Y-79343000D02*
X160374000Y-79343000D01*
X157964000Y-79343000D02*
X157634000Y-79343000D01*
X160374000Y-79343000D02*
X160374000Y-72803000D01*
X160374000Y-72803000D02*
X160044000Y-72803000D01*
X157634000Y-72803000D02*
X157964000Y-72803000D01*
%TO.C,RF_C2*%
X126900000Y-86677000D02*
X126900000Y-93917000D01*
X129640000Y-93917000D02*
X126900000Y-93917000D01*
X129640000Y-86677000D02*
X129640000Y-93917000D01*
X129640000Y-86677000D02*
X126900000Y-86677000D01*
%TO.C,RF_C13*%
X123334328Y-111460000D02*
X123334328Y-114346000D01*
X122534328Y-113943000D02*
X122534328Y-115103000D01*
X121333328Y-110327000D02*
X121333328Y-111863000D01*
X122654328Y-113943000D02*
X122654328Y-115025000D01*
X123614328Y-111988000D02*
X123614328Y-113818000D01*
X121533328Y-110347000D02*
X121533328Y-111863000D01*
X123134328Y-113943000D02*
X123134328Y-114602000D01*
X121693328Y-110375000D02*
X121693328Y-111863000D01*
X121413328Y-113943000D02*
X121413328Y-115472000D01*
X122574328Y-113943000D02*
X122574328Y-115078000D01*
X122054328Y-110475000D02*
X122054328Y-111863000D01*
X121613328Y-110360000D02*
X121613328Y-111863000D01*
X122414328Y-113943000D02*
X122414328Y-115171000D01*
X122054328Y-113943000D02*
X122054328Y-115331000D01*
X121173328Y-113943000D02*
X121173328Y-115483000D01*
X122254328Y-113943000D02*
X122254328Y-115251000D01*
X122854328Y-110932000D02*
X122854328Y-111863000D01*
X123534328Y-111805000D02*
X123534328Y-114001000D01*
X121853328Y-113943000D02*
X121853328Y-115394000D01*
X123014328Y-113943000D02*
X123014328Y-114729000D01*
X123734328Y-112385000D02*
X123734328Y-113421000D01*
X121974328Y-113943000D02*
X121974328Y-115358000D01*
X123454328Y-111652000D02*
X123454328Y-114154000D01*
X118368553Y-111428000D02*
X118868553Y-111428000D01*
X122134328Y-113943000D02*
X122134328Y-115301000D01*
X121293328Y-110325000D02*
X121293328Y-111863000D01*
X122214328Y-110538000D02*
X122214328Y-111863000D01*
X122654328Y-110781000D02*
X122654328Y-111863000D01*
X122934328Y-111002000D02*
X122934328Y-111863000D01*
X122094328Y-110489000D02*
X122094328Y-111863000D01*
X121773328Y-113943000D02*
X121773328Y-115414000D01*
X121813328Y-113943000D02*
X121813328Y-115404000D01*
X121253328Y-113943000D02*
X121253328Y-115482000D01*
X123374328Y-111520000D02*
X123374328Y-114286000D01*
X122614328Y-113943000D02*
X122614328Y-115052000D01*
X121653328Y-113943000D02*
X121653328Y-115439000D01*
X122574328Y-110728000D02*
X122574328Y-111863000D01*
X122294328Y-113943000D02*
X122294328Y-115232000D01*
X122374328Y-110613000D02*
X122374328Y-111863000D01*
X122694328Y-113943000D02*
X122694328Y-114998000D01*
X121813328Y-110402000D02*
X121813328Y-111863000D01*
X123774328Y-112619000D02*
X123774328Y-113187000D01*
X123694328Y-112226000D02*
X123694328Y-113580000D01*
X122454328Y-110656000D02*
X122454328Y-111863000D01*
X122534328Y-110703000D02*
X122534328Y-111863000D01*
X122174328Y-110521000D02*
X122174328Y-111863000D01*
X121213328Y-110323000D02*
X121213328Y-111863000D01*
X121653328Y-110367000D02*
X121653328Y-111863000D01*
X122934328Y-113943000D02*
X122934328Y-114804000D01*
X122454328Y-113943000D02*
X122454328Y-115150000D01*
X121453328Y-110338000D02*
X121453328Y-111863000D01*
X121173328Y-110323000D02*
X121173328Y-111863000D01*
X122854328Y-113943000D02*
X122854328Y-114874000D01*
X123094328Y-113943000D02*
X123094328Y-114646000D01*
X123414328Y-111584000D02*
X123414328Y-114222000D01*
X121493328Y-110342000D02*
X121493328Y-111863000D01*
X121733328Y-113943000D02*
X121733328Y-115423000D01*
X122174328Y-113943000D02*
X122174328Y-115285000D01*
X118618553Y-111178000D02*
X118618553Y-111678000D01*
X123054328Y-113943000D02*
X123054328Y-114688000D01*
X121853328Y-110412000D02*
X121853328Y-111863000D01*
X122494328Y-113943000D02*
X122494328Y-115127000D01*
X123014328Y-111077000D02*
X123014328Y-111863000D01*
X121894328Y-113943000D02*
X121894328Y-115383000D01*
X121573328Y-110353000D02*
X121573328Y-111863000D01*
X123174328Y-113943000D02*
X123174328Y-114556000D01*
X122094328Y-113943000D02*
X122094328Y-115317000D01*
X121373328Y-113943000D02*
X121373328Y-115476000D01*
X122414328Y-110635000D02*
X122414328Y-111863000D01*
X121453328Y-113943000D02*
X121453328Y-115468000D01*
X123254328Y-111349000D02*
X123254328Y-114457000D01*
X122814328Y-110899000D02*
X122814328Y-111863000D01*
X121213328Y-113943000D02*
X121213328Y-115483000D01*
X123494328Y-111725000D02*
X123494328Y-114081000D01*
X122334328Y-110593000D02*
X122334328Y-111863000D01*
X122734328Y-110838000D02*
X122734328Y-111863000D01*
X122894328Y-110966000D02*
X122894328Y-111863000D01*
X121974328Y-110448000D02*
X121974328Y-111863000D01*
X123174328Y-111250000D02*
X123174328Y-111863000D01*
X122134328Y-110505000D02*
X122134328Y-111863000D01*
X121293328Y-113943000D02*
X121293328Y-115481000D01*
X121934328Y-110435000D02*
X121934328Y-111863000D01*
X122214328Y-113943000D02*
X122214328Y-115268000D01*
X121413328Y-110334000D02*
X121413328Y-111863000D01*
X122974328Y-113943000D02*
X122974328Y-114767000D01*
X123294328Y-111403000D02*
X123294328Y-114403000D01*
X121934328Y-113943000D02*
X121934328Y-115371000D01*
X122814328Y-113943000D02*
X122814328Y-114907000D01*
X122254328Y-110555000D02*
X122254328Y-111863000D01*
X122774328Y-110868000D02*
X122774328Y-111863000D01*
X121613328Y-113943000D02*
X121613328Y-115446000D01*
X122294328Y-110574000D02*
X122294328Y-111863000D01*
X121894328Y-110423000D02*
X121894328Y-111863000D01*
X123054328Y-111118000D02*
X123054328Y-111863000D01*
X121693328Y-113943000D02*
X121693328Y-115431000D01*
X122014328Y-110461000D02*
X122014328Y-111863000D01*
X123574328Y-111892000D02*
X123574328Y-113914000D01*
X121773328Y-110392000D02*
X121773328Y-111863000D01*
X121733328Y-110383000D02*
X121733328Y-111863000D01*
X121373328Y-110330000D02*
X121373328Y-111863000D01*
X123654328Y-112098000D02*
X123654328Y-113708000D01*
X121573328Y-113943000D02*
X121573328Y-115453000D01*
X122974328Y-111039000D02*
X122974328Y-111863000D01*
X123134328Y-111204000D02*
X123134328Y-111863000D01*
X121533328Y-113943000D02*
X121533328Y-115459000D01*
X123094328Y-111160000D02*
X123094328Y-111863000D01*
X122334328Y-113943000D02*
X122334328Y-115213000D01*
X122374328Y-113943000D02*
X122374328Y-115193000D01*
X122894328Y-113943000D02*
X122894328Y-114840000D01*
X122014328Y-113943000D02*
X122014328Y-115345000D01*
X122734328Y-113943000D02*
X122734328Y-114968000D01*
X123214328Y-111298000D02*
X123214328Y-114508000D01*
X121493328Y-113943000D02*
X121493328Y-115464000D01*
X122694328Y-110808000D02*
X122694328Y-111863000D01*
X121333328Y-113943000D02*
X121333328Y-115479000D01*
X122774328Y-113943000D02*
X122774328Y-114938000D01*
X122614328Y-110754000D02*
X122614328Y-111863000D01*
X121253328Y-110324000D02*
X121253328Y-111863000D01*
X122494328Y-110679000D02*
X122494328Y-111863000D01*
X123793328Y-112903000D02*
G75*
G03*
X123793328Y-112903000I-2620000J0D01*
G01*
%TO.C,RF_R3*%
X129572000Y-111533000D02*
X136112000Y-111533000D01*
X129572000Y-113943000D02*
X129572000Y-114273000D01*
X129572000Y-114273000D02*
X136112000Y-114273000D01*
X136112000Y-114273000D02*
X136112000Y-113943000D01*
X129572000Y-111863000D02*
X129572000Y-111533000D01*
X136112000Y-111533000D02*
X136112000Y-111863000D01*
%TO.C,RF_L3*%
X149112348Y-113701000D02*
G75*
G03*
X156195652Y-113701000I3541652J1560000D01*
G01*
X156195652Y-110581000D02*
G75*
G03*
X149112348Y-110581000I-3541652J-1560000D01*
G01*
%TO.C,RF_C11*%
X173382000Y-91885000D02*
X176122000Y-91885000D01*
X176122000Y-91885000D02*
X176122000Y-84645000D01*
X173382000Y-91885000D02*
X173382000Y-84645000D01*
X173382000Y-84645000D02*
X176122000Y-84645000D01*
%TO.C,RF_D1*%
X124206000Y-107037000D02*
X124206000Y-105117000D01*
X123086000Y-104277000D02*
X125326000Y-104277000D01*
X123086000Y-105117000D02*
X125326000Y-105117000D01*
X124206000Y-98957000D02*
X124206000Y-100877000D01*
X123086000Y-100877000D02*
X123086000Y-105117000D01*
X125326000Y-105117000D02*
X125326000Y-100877000D01*
X123086000Y-104397000D02*
X125326000Y-104397000D01*
X125326000Y-100877000D02*
X123086000Y-100877000D01*
X123086000Y-104517000D02*
X125326000Y-104517000D01*
%TO.C,RF_D2*%
X131572000Y-83717000D02*
X131572000Y-85637000D01*
X132692000Y-86237000D02*
X130452000Y-86237000D01*
X130452000Y-89877000D02*
X132692000Y-89877000D01*
X131572000Y-91797000D02*
X131572000Y-89877000D01*
X132692000Y-86357000D02*
X130452000Y-86357000D01*
X132692000Y-89877000D02*
X132692000Y-85637000D01*
X132692000Y-86477000D02*
X130452000Y-86477000D01*
X130452000Y-85637000D02*
X130452000Y-89877000D01*
X132692000Y-85637000D02*
X130452000Y-85637000D01*
%TO.C,RF_C1*%
X130910000Y-77193000D02*
X130910000Y-69953000D01*
X128170000Y-77193000D02*
X128170000Y-69953000D01*
X128170000Y-77193000D02*
X130910000Y-77193000D01*
X128170000Y-69953000D02*
X130910000Y-69953000D01*
%TO.C,S5*%
G36*
X110236000Y-74396600D02*
G01*
X110240689Y-74316167D01*
X110506118Y-74316167D01*
X110528736Y-74428467D01*
X110678524Y-74464078D01*
X110701666Y-74464334D01*
X110865871Y-74435078D01*
X110899780Y-74331502D01*
X110897215Y-74316167D01*
X110801341Y-74194250D01*
X110701666Y-74168000D01*
X110551871Y-74232225D01*
X110506118Y-74316167D01*
X110240689Y-74316167D01*
X110252601Y-74111815D01*
X110295451Y-73890601D01*
X110337599Y-73803934D01*
X110530036Y-73713951D01*
X110763015Y-73723933D01*
X110927283Y-73815050D01*
X111020819Y-73871606D01*
X111150639Y-73837050D01*
X111323436Y-73730384D01*
X111559834Y-73583692D01*
X111693425Y-73546526D01*
X111750852Y-73619246D01*
X111760000Y-73736304D01*
X111693915Y-73927492D01*
X111481529Y-74103754D01*
X111463666Y-74114449D01*
X111277061Y-74244209D01*
X111174280Y-74353890D01*
X111167333Y-74376812D01*
X111241752Y-74434658D01*
X111424746Y-74463577D01*
X111463666Y-74464334D01*
X111664064Y-74480148D01*
X111746104Y-74551313D01*
X111760000Y-74676000D01*
X111753932Y-74776200D01*
X111714006Y-74838413D01*
X111607636Y-74871693D01*
X111402237Y-74885091D01*
X111065223Y-74887657D01*
X110998000Y-74887667D01*
X110236000Y-74887667D01*
X110236000Y-74396600D01*
G37*
G36*
X111704236Y-72299741D02*
G01*
X111743829Y-72431023D01*
X111759070Y-72688435D01*
X111760000Y-72813334D01*
X111760000Y-73363667D01*
X110236000Y-73363667D01*
X110236000Y-72813334D01*
X110244478Y-72504644D01*
X110274774Y-72333072D01*
X110334177Y-72267030D01*
X110363000Y-72263000D01*
X110451306Y-72318924D01*
X110487695Y-72504303D01*
X110490000Y-72601667D01*
X110504200Y-72823235D01*
X110561594Y-72921160D01*
X110659333Y-72940334D01*
X110776041Y-72907186D01*
X110823131Y-72777778D01*
X110828666Y-72644000D01*
X110856206Y-72424827D01*
X110944100Y-72348203D01*
X110955666Y-72347667D01*
X111049598Y-72411927D01*
X111082437Y-72617012D01*
X111082666Y-72644000D01*
X111098480Y-72844399D01*
X111169646Y-72926438D01*
X111294333Y-72940334D01*
X111430706Y-72921849D01*
X111491319Y-72834659D01*
X111505924Y-72631160D01*
X111506000Y-72601667D01*
X111526971Y-72366182D01*
X111596488Y-72269147D01*
X111633000Y-72263000D01*
X111704236Y-72299741D01*
G37*
G36*
X110929561Y-70834614D02*
G01*
X111299631Y-70970186D01*
X111539476Y-71065425D01*
X111677271Y-71139865D01*
X111741189Y-71213037D01*
X111759405Y-71304475D01*
X111760000Y-71410352D01*
X111747302Y-71533758D01*
X111687432Y-71626060D01*
X111547724Y-71711016D01*
X111295513Y-71812382D01*
X111120580Y-71875375D01*
X110803246Y-71988453D01*
X110539031Y-72083370D01*
X110375968Y-72142851D01*
X110358580Y-72149412D01*
X110264052Y-72134404D01*
X110236000Y-71980274D01*
X110256236Y-71854946D01*
X110340520Y-71758613D01*
X110524213Y-71663827D01*
X110761230Y-71572588D01*
X111286461Y-71381079D01*
X110761230Y-71213071D01*
X110475922Y-71114857D01*
X110317645Y-71032626D01*
X110249860Y-70938563D01*
X110236000Y-70813279D01*
X110236000Y-70581496D01*
X110929561Y-70834614D01*
G37*
G36*
X111588884Y-75943494D02*
G01*
X111619877Y-75973834D01*
X111701326Y-76141154D01*
X111751008Y-76385812D01*
X111762277Y-76637163D01*
X111728486Y-76824560D01*
X111703555Y-76863223D01*
X111576002Y-76915359D01*
X111525043Y-76919667D01*
X111442046Y-76867516D01*
X111454412Y-76714728D01*
X111471574Y-76456883D01*
X111386346Y-76289064D01*
X111252000Y-76242334D01*
X111094367Y-76312320D01*
X111027381Y-76499744D01*
X111049587Y-76714728D01*
X111068988Y-76834971D01*
X111023365Y-76895682D01*
X110875013Y-76917138D01*
X110668511Y-76919667D01*
X110236000Y-76919667D01*
X110236000Y-76411667D01*
X110245753Y-76116695D01*
X110280328Y-75958325D01*
X110347697Y-75904669D01*
X110363000Y-75903667D01*
X110451306Y-75959590D01*
X110487695Y-76144970D01*
X110490000Y-76242334D01*
X110510971Y-76477819D01*
X110580488Y-76574854D01*
X110617000Y-76581000D01*
X110718001Y-76505568D01*
X110743999Y-76333048D01*
X110788045Y-76105095D01*
X110877047Y-75952048D01*
X111096010Y-75838854D01*
X111360128Y-75836789D01*
X111588884Y-75943494D01*
G37*
G36*
X111588884Y-80007494D02*
G01*
X111619877Y-80037834D01*
X111701326Y-80205154D01*
X111751008Y-80449812D01*
X111762277Y-80701163D01*
X111728486Y-80888560D01*
X111703555Y-80927223D01*
X111576002Y-80979359D01*
X111525043Y-80983667D01*
X111442046Y-80931516D01*
X111454412Y-80778728D01*
X111471574Y-80520883D01*
X111386346Y-80353064D01*
X111252000Y-80306334D01*
X111094367Y-80376320D01*
X111027381Y-80563744D01*
X111049587Y-80778728D01*
X111068988Y-80898971D01*
X111023365Y-80959682D01*
X110875013Y-80981138D01*
X110668511Y-80983667D01*
X110236000Y-80983667D01*
X110236000Y-80475667D01*
X110245753Y-80180695D01*
X110280328Y-80022325D01*
X110347697Y-79968669D01*
X110363000Y-79967667D01*
X110451306Y-80023590D01*
X110487695Y-80208970D01*
X110490000Y-80306334D01*
X110510971Y-80541819D01*
X110580488Y-80638854D01*
X110617000Y-80645000D01*
X110718001Y-80569568D01*
X110743999Y-80397048D01*
X110788045Y-80169095D01*
X110877047Y-80016048D01*
X111096010Y-79902854D01*
X111360128Y-79900789D01*
X111588884Y-80007494D01*
G37*
G36*
X110464767Y-78559505D02*
G01*
X110699092Y-78642439D01*
X111000880Y-78761263D01*
X111102688Y-78803500D01*
X111425906Y-78944639D01*
X111621769Y-79050327D01*
X111721463Y-79144605D01*
X111756171Y-79251513D01*
X111758894Y-79309363D01*
X111760000Y-79540059D01*
X111125000Y-79250680D01*
X110489999Y-78961301D01*
X110489999Y-79337484D01*
X110472963Y-79586855D01*
X110415177Y-79699370D01*
X110363000Y-79713667D01*
X110293998Y-79678813D01*
X110254507Y-79553487D01*
X110237851Y-79306546D01*
X110236000Y-79121000D01*
X110247295Y-78776708D01*
X110283070Y-78584503D01*
X110341794Y-78528334D01*
X110464767Y-78559505D01*
G37*
G36*
X111704236Y-68743741D02*
G01*
X111743829Y-68875023D01*
X111759070Y-69132435D01*
X111760000Y-69257334D01*
X111760000Y-69807667D01*
X110236000Y-69807667D01*
X110236000Y-69257334D01*
X110244478Y-68948644D01*
X110274774Y-68777072D01*
X110334177Y-68711030D01*
X110363000Y-68707000D01*
X110451306Y-68762924D01*
X110487695Y-68948303D01*
X110490000Y-69045667D01*
X110504200Y-69267235D01*
X110561594Y-69365160D01*
X110659333Y-69384334D01*
X110776041Y-69351186D01*
X110823131Y-69221778D01*
X110828666Y-69088000D01*
X110856206Y-68868827D01*
X110944100Y-68792203D01*
X110955666Y-68791667D01*
X111049598Y-68855927D01*
X111082437Y-69061012D01*
X111082666Y-69088000D01*
X111098480Y-69288399D01*
X111169646Y-69370438D01*
X111294333Y-69384334D01*
X111430706Y-69365849D01*
X111491319Y-69278659D01*
X111505924Y-69075160D01*
X111506000Y-69045667D01*
X111526971Y-68810182D01*
X111596488Y-68713147D01*
X111633000Y-68707000D01*
X111704236Y-68743741D01*
G37*
G36*
X110464767Y-81268839D02*
G01*
X110699092Y-81351773D01*
X111000880Y-81470597D01*
X111102688Y-81512834D01*
X111425906Y-81653972D01*
X111621769Y-81759660D01*
X111721463Y-81853938D01*
X111756171Y-81960847D01*
X111758894Y-82018696D01*
X111760000Y-82249392D01*
X111125000Y-81960013D01*
X110489999Y-81670634D01*
X110489999Y-82046817D01*
X110472963Y-82296189D01*
X110415177Y-82408703D01*
X110363000Y-82423000D01*
X110293998Y-82388146D01*
X110254507Y-82262820D01*
X110237851Y-82015880D01*
X110236000Y-81830334D01*
X110247295Y-81486041D01*
X110283070Y-81293836D01*
X110341794Y-81237667D01*
X110464767Y-81268839D01*
G37*
G36*
X110916866Y-78206361D02*
G01*
X110695626Y-78083834D01*
X110434108Y-77911382D01*
X110293786Y-77772697D01*
X110262395Y-77687301D01*
X110701666Y-77687301D01*
X110901546Y-77853817D01*
X111102189Y-77993130D01*
X111214742Y-77996263D01*
X111251891Y-77863112D01*
X111252000Y-77851000D01*
X111216551Y-77731463D01*
X111080287Y-77687149D01*
X110976833Y-77684484D01*
X110701666Y-77687301D01*
X110262395Y-77687301D01*
X110241797Y-77631264D01*
X110238401Y-77575834D01*
X110245395Y-77446930D01*
X110296237Y-77377347D01*
X110430618Y-77348808D01*
X110688231Y-77343033D01*
X110744000Y-77343000D01*
X111038972Y-77333247D01*
X111197341Y-77298672D01*
X111250998Y-77231303D01*
X111252000Y-77216000D01*
X111319772Y-77103752D01*
X111379000Y-77089000D01*
X111491248Y-77156773D01*
X111506000Y-77216000D01*
X111573772Y-77328249D01*
X111633000Y-77343000D01*
X111736428Y-77413587D01*
X111760000Y-77512334D01*
X111707060Y-77650238D01*
X111633000Y-77681667D01*
X111544693Y-77737590D01*
X111508304Y-77922970D01*
X111506000Y-78020334D01*
X111492487Y-78240860D01*
X111436053Y-78338554D01*
X111328224Y-78359000D01*
X111214742Y-78329755D01*
X111163459Y-78316539D01*
X110916866Y-78206361D01*
G37*
%TO.C,RF_R2*%
X127484000Y-97949000D02*
X127154000Y-97949000D01*
X129894000Y-97949000D02*
X129894000Y-104489000D01*
X129894000Y-104489000D02*
X129564000Y-104489000D01*
X127154000Y-104489000D02*
X127484000Y-104489000D01*
X129564000Y-97949000D02*
X129894000Y-97949000D01*
X127154000Y-97949000D02*
X127154000Y-104489000D01*
%TO.C,RF_U1*%
X135322000Y-99913000D02*
X158302000Y-99913000D01*
X158302000Y-95413000D02*
X135322000Y-95413000D01*
X158302000Y-99913000D02*
X158302000Y-95413000D01*
X135322000Y-98663000D02*
X135322000Y-99913000D01*
X135322000Y-95413000D02*
X135322000Y-96663000D01*
X135322000Y-98663000D02*
G75*
G03*
X135322000Y-96663000I0J1000000D01*
G01*
%TO.C,RF_C7*%
X145732000Y-86641000D02*
X152972000Y-86641000D01*
X145732000Y-89381000D02*
X152972000Y-89381000D01*
X152972000Y-86641000D02*
X152972000Y-89381000D01*
X145732000Y-86641000D02*
X145732000Y-89381000D01*
%TO.C,RF_VL1*%
X125984000Y-68199000D02*
X115824000Y-68199000D01*
X125984000Y-78359000D02*
X125984000Y-75057000D01*
X115824000Y-75057000D02*
X115824000Y-78359000D01*
X115824000Y-78359000D02*
X125984000Y-78359000D01*
X125984000Y-71501000D02*
X125984000Y-68199000D01*
X115824000Y-68199000D02*
X115824000Y-71501000D01*
%TO.C,RF_C4*%
X137224000Y-107977000D02*
X129984000Y-107977000D01*
X129984000Y-110717000D02*
X129984000Y-107977000D01*
X137224000Y-110717000D02*
X137224000Y-107977000D01*
X137224000Y-110717000D02*
X129984000Y-110717000D01*
%TO.C,RF_R5*%
X169056000Y-112295000D02*
X162516000Y-112295000D01*
X169056000Y-112625000D02*
X169056000Y-112295000D01*
X162516000Y-112295000D02*
X162516000Y-112625000D01*
X169056000Y-114705000D02*
X169056000Y-115035000D01*
X162516000Y-115035000D02*
X162516000Y-114705000D01*
X169056000Y-115035000D02*
X162516000Y-115035000D01*
%TO.C,J4B1*%
X120456000Y-87757000D02*
X120456000Y-105597000D01*
X120456000Y-85157000D02*
X120456000Y-86487000D01*
X117796000Y-105597000D02*
X120456000Y-105597000D01*
X117796000Y-87757000D02*
X120456000Y-87757000D01*
X117796000Y-87757000D02*
X117796000Y-105597000D01*
X119126000Y-85157000D02*
X120456000Y-85157000D01*
%TO.C,RF_R7*%
X159790000Y-89249000D02*
X160120000Y-89249000D01*
X160120000Y-82709000D02*
X159790000Y-82709000D01*
X157380000Y-89249000D02*
X157380000Y-82709000D01*
X160120000Y-89249000D02*
X160120000Y-82709000D01*
X157380000Y-82709000D02*
X157710000Y-82709000D01*
X157710000Y-89249000D02*
X157380000Y-89249000D01*
%TO.C,RF_R8*%
X169132000Y-110971000D02*
X169132000Y-110641000D01*
X162592000Y-110641000D02*
X162592000Y-110971000D01*
X162592000Y-110971000D02*
X169132000Y-110971000D01*
X162592000Y-108561000D02*
X162592000Y-108231000D01*
X169132000Y-108231000D02*
X169132000Y-108561000D01*
X162592000Y-108231000D02*
X169132000Y-108231000D01*
D14*
%TO.C,RF_J1*%
X172434000Y-71499500D02*
X168434000Y-71499500D01*
X167934000Y-81499500D02*
X165434000Y-81499500D01*
X172934000Y-81499500D02*
X175434000Y-81499500D01*
X165434000Y-81499500D02*
X165434000Y-73999500D01*
X175434000Y-81499500D02*
X175434000Y-73999500D01*
D15*
X176034000Y-75399500D02*
X176034000Y-75399500D01*
X176234000Y-75399500D02*
X176234000Y-75399500D01*
X176234000Y-75399500D02*
G75*
G03*
X176034000Y-75399500I-100000J0D01*
G01*
X176034000Y-75399500D02*
G75*
G03*
X176234000Y-75399500I100000J0D01*
G01*
D13*
%TO.C,RF_C8*%
X153316000Y-71985000D02*
X156056000Y-71985000D01*
X156056000Y-79225000D02*
X156056000Y-71985000D01*
X153316000Y-79225000D02*
X153316000Y-71985000D01*
X153316000Y-79225000D02*
X156056000Y-79225000D01*
%TO.C,RF_C9*%
X160682000Y-91377000D02*
X160682000Y-84137000D01*
X160682000Y-91377000D02*
X163422000Y-91377000D01*
X163422000Y-91377000D02*
X163422000Y-84137000D01*
X160682000Y-84137000D02*
X163422000Y-84137000D01*
%TO.C,RF_R4*%
X147034000Y-106907000D02*
X140494000Y-106907000D01*
X147034000Y-104497000D02*
X147034000Y-104167000D01*
X147034000Y-104167000D02*
X140494000Y-104167000D01*
X147034000Y-106577000D02*
X147034000Y-106907000D01*
X140494000Y-106907000D02*
X140494000Y-106577000D01*
X140494000Y-104167000D02*
X140494000Y-104497000D01*
%TO.C,RF_R1*%
X114022000Y-91789000D02*
X113692000Y-91789000D01*
X113692000Y-91789000D02*
X113692000Y-85249000D01*
X113692000Y-85249000D02*
X114022000Y-85249000D01*
X116102000Y-91789000D02*
X116432000Y-91789000D01*
X116432000Y-85249000D02*
X116102000Y-85249000D01*
X116432000Y-91789000D02*
X116432000Y-85249000D01*
%TO.C,RF_R9*%
X151484000Y-75851000D02*
X151484000Y-82391000D01*
X151484000Y-82391000D02*
X151154000Y-82391000D01*
X151154000Y-75851000D02*
X151484000Y-75851000D01*
X149074000Y-75851000D02*
X148744000Y-75851000D01*
X148744000Y-82391000D02*
X149074000Y-82391000D01*
X148744000Y-75851000D02*
X148744000Y-82391000D01*
D11*
%TO.C,RF_SW1*%
X140018000Y-69455000D02*
X137718000Y-69455000D01*
X146318000Y-69455000D02*
X144118000Y-69455000D01*
X146318000Y-74055000D02*
X137718000Y-74055000D01*
D13*
%TO.C,RF_R10*%
X139668000Y-79729000D02*
X133128000Y-79729000D01*
X133128000Y-76989000D02*
X133128000Y-77319000D01*
X139668000Y-76989000D02*
X133128000Y-76989000D01*
X133128000Y-79729000D02*
X133128000Y-79399000D01*
X139668000Y-79399000D02*
X139668000Y-79729000D01*
X139668000Y-77319000D02*
X139668000Y-76989000D01*
%TO.C,RF_L1*%
X169962000Y-91552652D02*
G75*
G03*
X169962000Y-84469348I-1560000J3541652D01*
G01*
X166842000Y-84469348D02*
G75*
G03*
X166842000Y-91552652I1560000J-3541652D01*
G01*
%TO.C,RF_C3*%
X133450000Y-107379000D02*
X130710000Y-107379000D01*
X133450000Y-100139000D02*
X133450000Y-107379000D01*
X133450000Y-100139000D02*
X130710000Y-100139000D01*
X130710000Y-100139000D02*
X130710000Y-107379000D01*
%TO.C,RF_R12*%
X136938000Y-86587000D02*
X136938000Y-86257000D01*
X143478000Y-83847000D02*
X136938000Y-83847000D01*
X143478000Y-84177000D02*
X143478000Y-83847000D01*
X143478000Y-86587000D02*
X136938000Y-86587000D01*
X136938000Y-83847000D02*
X136938000Y-84177000D01*
X143478000Y-86257000D02*
X143478000Y-86587000D01*
%TO.C,RF_L2*%
X172451652Y-100167000D02*
G75*
G03*
X165368348Y-100167000I-3541652J-1560000D01*
G01*
X165368348Y-103287000D02*
G75*
G03*
X172451652Y-103287000I3541652J1560000D01*
G01*
%TD*%
M02*
