%TF.GenerationSoftware,KiCad,Pcbnew,6.0.11-2627ca5db0~126~ubuntu22.04.1*%
%TF.CreationDate,2023-04-14T09:26:24-04:00*%
%TF.ProjectId,sub_rf_mod,7375625f-7266-45f6-9d6f-642e6b696361,rev?*%
%TF.SameCoordinates,Original*%
%TF.FileFunction,Copper,L2,Bot*%
%TF.FilePolarity,Positive*%
%FSLAX46Y46*%
G04 Gerber Fmt 4.6, Leading zero omitted, Abs format (unit mm)*
G04 Created by KiCad (PCBNEW 6.0.11-2627ca5db0~126~ubuntu22.04.1) date 2023-04-14 09:26:24*
%MOMM*%
%LPD*%
G01*
G04 APERTURE LIST*
%TA.AperFunction,Profile*%
%ADD10C,0.100000*%
%TD*%
%TA.AperFunction,ComponentPad*%
%ADD11C,1.600000*%
%TD*%
%TA.AperFunction,ComponentPad*%
%ADD12O,1.600000X1.600000*%
%TD*%
%TA.AperFunction,ComponentPad*%
%ADD13R,1.600000X1.600000*%
%TD*%
%TA.AperFunction,ComponentPad*%
%ADD14C,2.600000*%
%TD*%
%TA.AperFunction,ComponentPad*%
%ADD15R,1.600000X2.400000*%
%TD*%
%TA.AperFunction,ComponentPad*%
%ADD16O,1.600000X2.400000*%
%TD*%
%TA.AperFunction,ComponentPad*%
%ADD17C,3.800000*%
%TD*%
%TA.AperFunction,ComponentPad*%
%ADD18C,1.700000*%
%TD*%
%TA.AperFunction,ComponentPad*%
%ADD19C,3.000000*%
%TD*%
%TA.AperFunction,ComponentPad*%
%ADD20R,1.700000X1.700000*%
%TD*%
%TA.AperFunction,ComponentPad*%
%ADD21O,1.700000X1.700000*%
%TD*%
%TA.AperFunction,ComponentPad*%
%ADD22C,4.227000*%
%TD*%
%TA.AperFunction,ComponentPad*%
%ADD23C,4.039000*%
%TD*%
%TA.AperFunction,ComponentPad*%
%ADD24C,2.775000*%
%TD*%
%TA.AperFunction,Conductor*%
%ADD25C,0.304800*%
%TD*%
%TA.AperFunction,Conductor*%
%ADD26C,1.016000*%
%TD*%
G04 APERTURE END LIST*
D10*
X107950000Y-64008000D02*
X176022000Y-64008000D01*
X107950000Y-64008000D02*
X107442000Y-64516000D01*
X176530000Y-113538000D02*
X176530000Y-64516000D01*
X176022000Y-64008000D02*
X176530000Y-64516000D01*
X107442000Y-113538000D02*
X107950000Y-114046000D01*
X107442000Y-113538000D02*
X107442000Y-64516000D01*
X176022000Y-114046000D02*
X176530000Y-113538000D01*
X107950000Y-114046000D02*
X176022000Y-114046000D01*
D11*
%TO.P,RF_C10,1*%
%TO.N,N/C*%
X170180000Y-98512000D03*
%TO.P,RF_C10,2*%
X170180000Y-93512000D03*
%TD*%
%TO.P,RF_JP1,1,A*%
%TO.N,N/C*%
X123444000Y-76962000D03*
D12*
%TO.P,RF_JP1,2,B*%
X123444000Y-92202000D03*
%TD*%
D11*
%TO.P,RF_C6,1*%
%TO.N,N/C*%
X157734000Y-105704000D03*
%TO.P,RF_C6,2*%
X157734000Y-110704000D03*
%TD*%
%TO.P,RF_C5,1*%
%TO.N,N/C*%
X133898000Y-88900000D03*
%TO.P,RF_C5,2*%
X138898000Y-88900000D03*
%TD*%
%TO.P,RF_R11,1*%
%TO.N,N/C*%
X133604000Y-82804000D03*
D12*
%TO.P,RF_R11,2*%
X141224000Y-82804000D03*
%TD*%
D11*
%TO.P,RF_C12,1*%
%TO.N,N/C*%
X153376000Y-102616000D03*
%TO.P,RF_C12,2*%
X148376000Y-102616000D03*
%TD*%
%TO.P,RF_R6,1*%
%TO.N,N/C*%
X161036000Y-110490000D03*
D12*
%TO.P,RF_R6,2*%
X168656000Y-110490000D03*
%TD*%
D11*
%TO.P,RF_C2,1*%
%TO.N,N/C*%
X127254000Y-84622000D03*
%TO.P,RF_C2,2*%
X127254000Y-89622000D03*
%TD*%
D13*
%TO.P,RF_C13,1*%
%TO.N,N/C*%
X119157328Y-109728000D03*
D11*
%TO.P,RF_C13,2*%
X121157328Y-109728000D03*
%TD*%
%TO.P,RF_R3,1*%
%TO.N,N/C*%
X128016000Y-109728000D03*
D12*
%TO.P,RF_R3,2*%
X135636000Y-109728000D03*
%TD*%
D14*
%TO.P,RF_L3,1,1*%
%TO.N,N/C*%
X151384000Y-106172000D03*
%TO.P,RF_L3,2,2*%
X151384000Y-111172000D03*
%TD*%
D11*
%TO.P,RF_C11,1*%
%TO.N,N/C*%
X167680000Y-81534000D03*
%TO.P,RF_C11,2*%
X172680000Y-81534000D03*
%TD*%
D13*
%TO.P,RF_D1,1,K*%
%TO.N,N/C*%
X123190000Y-104902000D03*
D12*
%TO.P,RF_D1,2,A*%
X123190000Y-94742000D03*
%TD*%
D13*
%TO.P,RF_D2,1,K*%
%TO.N,N/C*%
X130556000Y-79502000D03*
D12*
%TO.P,RF_D2,2,A*%
X130556000Y-89662000D03*
%TD*%
D11*
%TO.P,RF_C1,1*%
%TO.N,N/C*%
X128524000Y-72898000D03*
%TO.P,RF_C1,2*%
X128524000Y-67898000D03*
%TD*%
%TO.P,RF_R10,1*%
%TO.N,N/C*%
X141224000Y-79756000D03*
D12*
%TO.P,RF_R10,2*%
X133604000Y-79756000D03*
%TD*%
D14*
%TO.P,RF_L1,1,1*%
%TO.N,N/C*%
X170434000Y-90130000D03*
%TO.P,RF_L1,2,2*%
X170434000Y-85130000D03*
%TD*%
D11*
%TO.P,RF_C3,1*%
%TO.N,N/C*%
X131064000Y-98084000D03*
%TO.P,RF_C3,2*%
X131064000Y-103084000D03*
%TD*%
%TO.P,RF_R12,1*%
%TO.N,N/C*%
X143002000Y-85852000D03*
D12*
%TO.P,RF_R12,2*%
X135382000Y-85852000D03*
%TD*%
D14*
%TO.P,RF_L2,1,1*%
%TO.N,N/C*%
X161076000Y-94742000D03*
%TO.P,RF_L2,2,2*%
X166076000Y-94742000D03*
%TD*%
D11*
%TO.P,RF_R2,1*%
%TO.N,N/C*%
X127508000Y-94742000D03*
D12*
%TO.P,RF_R2,2*%
X127508000Y-102362000D03*
%TD*%
D15*
%TO.P,RF_U1,1,CHROMA_LEAD*%
%TO.N,N/C*%
X135636000Y-99583000D03*
D16*
%TO.P,RF_U1,2,R-Y*%
X138176000Y-99583000D03*
%TO.P,RF_U1,3,CHROMA_BIAS*%
X140716000Y-99583000D03*
%TO.P,RF_U1,4,B-Y*%
X143256000Y-99583000D03*
%TO.P,RF_U1,5,GND*%
X145796000Y-99583000D03*
%TO.P,RF_U1,6,CHB_TANK1*%
X148336000Y-99583000D03*
%TO.P,RF_U1,7,CHB_TANK2*%
X150876000Y-99583000D03*
%TO.P,RF_U1,8,CHA_TANK1*%
X153416000Y-99583000D03*
%TO.P,RF_U1,9,CHA_TANK2*%
X155956000Y-99583000D03*
%TO.P,RF_U1,10,CHB_OUTPUT*%
X155956000Y-91963000D03*
%TO.P,RF_U1,11,CHA_OUTPUT*%
X153416000Y-91963000D03*
%TO.P,RF_U1,12,VIDEO_IN*%
X150876000Y-91963000D03*
%TO.P,RF_U1,13,CHROMA_SUBCAR*%
X148336000Y-91963000D03*
%TO.P,RF_U1,14,RF_SUPPLY*%
X145796000Y-91963000D03*
%TO.P,RF_U1,15,SOUND_TANK*%
X143256000Y-91963000D03*
%TO.P,RF_U1,16,CHROMA_SUPPLY*%
X140716000Y-91963000D03*
%TO.P,RF_U1,17,CHROMA_OSC*%
X138176000Y-91963000D03*
%TO.P,RF_U1,18,CHROMA_LAG*%
X135636000Y-91963000D03*
%TD*%
D11*
%TO.P,RF_C7,1*%
%TO.N,N/C*%
X146090000Y-88900000D03*
%TO.P,RF_C7,2*%
X151090000Y-88900000D03*
%TD*%
D17*
%TO.P,H17,1,1*%
%TO.N,N/C*%
X118110000Y-79248000D03*
%TD*%
D18*
%TO.P,RF_VL1,1,1*%
%TO.N,N/C*%
X116332000Y-73660000D03*
%TO.P,RF_VL1,2,2*%
X119888000Y-73660000D03*
%TO.P,RF_VL1,3,3*%
X123444000Y-73660000D03*
%TO.P,RF_VL1,4,4*%
X123444000Y-66548000D03*
%TO.P,RF_VL1,6,6*%
X116332000Y-66548000D03*
D19*
%TO.P,RF_VL1,S,S*%
X114808000Y-70104000D03*
X124968000Y-70104000D03*
%TD*%
D11*
%TO.P,RF_C4,1*%
%TO.N,N/C*%
X135088000Y-106172000D03*
%TO.P,RF_C4,2*%
X130088000Y-106172000D03*
%TD*%
%TO.P,RF_R5,1*%
%TO.N,N/C*%
X168656000Y-106680000D03*
D12*
%TO.P,RF_R5,2*%
X161036000Y-106680000D03*
%TD*%
D20*
%TO.P,J4B1,1,Pin_1*%
%TO.N,N/C*%
X118110000Y-83312000D03*
D21*
%TO.P,J4B1,2,Pin_2*%
X118110000Y-85852000D03*
%TO.P,J4B1,3,Pin_3*%
X118110000Y-88392000D03*
%TO.P,J4B1,4,Pin_4*%
X118110000Y-90932000D03*
%TO.P,J4B1,5,Pin_5*%
X118110000Y-93472000D03*
%TO.P,J4B1,6,Pin_6*%
X118110000Y-96012000D03*
%TO.P,J4B1,7,Pin_7*%
X118110000Y-98552000D03*
%TO.P,J4B1,8,Pin_8*%
X118110000Y-101092000D03*
%TD*%
D11*
%TO.P,RF_R7,1*%
%TO.N,N/C*%
X160020000Y-87884000D03*
D12*
%TO.P,RF_R7,2*%
X160020000Y-80264000D03*
%TD*%
D11*
%TO.P,RF_R8,1*%
%TO.N,N/C*%
X155702000Y-87884000D03*
D12*
%TO.P,RF_R8,2*%
X155702000Y-80264000D03*
%TD*%
D22*
%TO.P,RF_J1,S*%
%TO.N,N/C*%
X169418000Y-72324500D03*
D23*
%TO.P,RF_J1,T*%
X169418000Y-76824500D03*
%TD*%
D11*
%TO.P,RF_C8,1*%
%TO.N,N/C*%
X155488000Y-74930000D03*
%TO.P,RF_C8,2*%
X160488000Y-74930000D03*
%TD*%
%TO.P,RF_C9,1*%
%TO.N,N/C*%
X163322000Y-87082000D03*
%TO.P,RF_C9,2*%
X163322000Y-82082000D03*
%TD*%
D17*
%TO.P,H16,1,1*%
%TO.N,N/C*%
X118110000Y-105156000D03*
%TD*%
D11*
%TO.P,RF_R4,1*%
%TO.N,N/C*%
X138684000Y-109982000D03*
D12*
%TO.P,RF_R4,2*%
X138684000Y-102362000D03*
%TD*%
D11*
%TO.P,RF_R1,1*%
%TO.N,N/C*%
X114046000Y-89154000D03*
D12*
%TO.P,RF_R1,2*%
X114046000Y-81534000D03*
%TD*%
D11*
%TO.P,RF_R9,1*%
%TO.N,N/C*%
X152400000Y-74930000D03*
D12*
%TO.P,RF_R9,2*%
X152400000Y-82550000D03*
%TD*%
D24*
%TO.P,RF_SW1,1,A*%
%TO.N,N/C*%
X146432500Y-75765000D03*
%TO.P,RF_SW1,2,B*%
X141732500Y-75765000D03*
%TO.P,RF_SW1,3,C*%
X137032500Y-75765000D03*
%TO.P,RF_SW1,4*%
X148337500Y-66235000D03*
X135127500Y-66235000D03*
%TD*%
D25*
%TO.N,*%
X157520000Y-105918000D02*
X157734000Y-105704000D01*
X157734000Y-110704000D02*
X151852000Y-110704000D01*
X133604000Y-86360000D02*
X136144000Y-88900000D01*
X152908000Y-80010000D02*
X149098000Y-80010000D01*
X151384000Y-106172000D02*
X151638000Y-105918000D01*
X148376000Y-108164000D02*
X148376000Y-102616000D01*
X154698800Y-89928800D02*
X154444800Y-89674800D01*
D26*
X141224000Y-79756000D02*
X138938000Y-82042000D01*
D25*
X146432500Y-77344500D02*
X146432500Y-75765000D01*
X151852000Y-110704000D02*
X151384000Y-111172000D01*
X138430000Y-85852000D02*
X135382000Y-85852000D01*
X153376000Y-102616000D02*
X155662000Y-102616000D01*
X155662000Y-102616000D02*
X157734000Y-100544000D01*
X157734000Y-100544000D02*
X157734000Y-96012000D01*
X149098000Y-80010000D02*
X146432500Y-77344500D01*
X143256000Y-90678000D02*
X138430000Y-85852000D01*
D26*
X140716000Y-91963000D02*
X140716000Y-93379000D01*
X142079000Y-94742000D02*
X144272000Y-94742000D01*
X140716000Y-93379000D02*
X142079000Y-94742000D01*
X145796000Y-93218000D02*
X145796000Y-91963000D01*
D25*
X143256000Y-91963000D02*
X143256000Y-90678000D01*
X148376000Y-102616000D02*
X148376000Y-99623000D01*
D26*
X138938000Y-82042000D02*
X138938000Y-84328000D01*
X138938000Y-84328000D02*
X145796000Y-91186000D01*
D25*
X154444800Y-89674800D02*
X154444800Y-81546800D01*
X133604000Y-82804000D02*
X133604000Y-86360000D01*
X136144000Y-88900000D02*
X138898000Y-88900000D01*
D26*
X144272000Y-94742000D02*
X145796000Y-93218000D01*
D25*
X154444800Y-81546800D02*
X152908000Y-80010000D01*
X160060000Y-105704000D02*
X161036000Y-106680000D01*
X151384000Y-100091000D02*
X150876000Y-99583000D01*
X161036000Y-110490000D02*
X157948000Y-110490000D01*
X154698800Y-92976800D02*
X154698800Y-89928800D01*
X157734000Y-96012000D02*
X154698800Y-92976800D01*
X148376000Y-99623000D02*
X148336000Y-99583000D01*
X151384000Y-111172000D02*
X148376000Y-108164000D01*
X158297000Y-91963000D02*
X161076000Y-94742000D01*
X155956000Y-91963000D02*
X158297000Y-91963000D01*
X155702000Y-87884000D02*
X155702000Y-91709000D01*
X155702000Y-91709000D02*
X155956000Y-91963000D01*
X130556000Y-79248000D02*
X131826000Y-77978000D01*
X135382000Y-78994000D02*
X135382000Y-85852000D01*
X123190000Y-79502000D02*
X117348000Y-73660000D01*
X131826000Y-77978000D02*
X134366000Y-77978000D01*
X134366000Y-77978000D02*
X135382000Y-78994000D01*
X117348000Y-73660000D02*
X116332000Y-73660000D01*
X130556000Y-79502000D02*
X130556000Y-79248000D01*
X130556000Y-79502000D02*
X123190000Y-79502000D01*
X167680000Y-81534000D02*
X167680000Y-78562500D01*
X170434000Y-84288000D02*
X170434000Y-85130000D01*
X167680000Y-81534000D02*
X170434000Y-84288000D01*
X167680000Y-78562500D02*
X169418000Y-76824500D01*
X166076000Y-94742000D02*
X169846000Y-98512000D01*
X169846000Y-98512000D02*
X170180000Y-98512000D01*
X170434000Y-90130000D02*
X166370000Y-90130000D01*
X170180000Y-90384000D02*
X170434000Y-90130000D01*
X170180000Y-93512000D02*
X170180000Y-90384000D01*
X166370000Y-90130000D02*
X163322000Y-87082000D01*
X160020000Y-87884000D02*
X162520000Y-87884000D01*
X162520000Y-87884000D02*
X163322000Y-87082000D01*
X150836000Y-91923000D02*
X150876000Y-91963000D01*
X152146000Y-82804000D02*
X152400000Y-82550000D01*
X152400000Y-87590000D02*
X150836000Y-89154000D01*
X152400000Y-82550000D02*
X152400000Y-87590000D01*
X150836000Y-89154000D02*
X150836000Y-91923000D01*
X141224000Y-82804000D02*
X152146000Y-82804000D01*
X143002000Y-86066000D02*
X143002000Y-85852000D01*
X145836000Y-88900000D02*
X143002000Y-86066000D01*
X152146000Y-94742000D02*
X152146000Y-89621950D01*
X153670000Y-82042050D02*
X152653950Y-81026000D01*
X141732500Y-77470500D02*
X141732500Y-75765000D01*
X150876000Y-96012000D02*
X152146000Y-94742000D01*
X152146000Y-89621950D02*
X153670000Y-88097950D01*
X153670000Y-88097950D02*
X153670000Y-82042050D01*
X150876000Y-99583000D02*
X150876000Y-96012000D01*
X152653950Y-81026000D02*
X145288000Y-81026000D01*
X145288000Y-81026000D02*
X141732500Y-77470500D01*
X135636000Y-91963000D02*
X135636000Y-90638000D01*
X135636000Y-90638000D02*
X133898000Y-88900000D01*
X131572000Y-94742000D02*
X134351000Y-91963000D01*
X134734200Y-103619200D02*
X139458800Y-103619200D01*
X131699000Y-100584000D02*
X134734200Y-103619200D01*
X139458800Y-103619200D02*
X141998800Y-101079200D01*
X129032000Y-100584000D02*
X131699000Y-100584000D01*
X141998800Y-101079200D02*
X141998800Y-98662251D01*
X141998800Y-98662251D02*
X148336000Y-92325051D01*
X121666000Y-99568000D02*
X128016000Y-99568000D01*
X118110000Y-96012000D02*
X121666000Y-99568000D01*
X128016000Y-99568000D02*
X129032000Y-100584000D01*
X148336000Y-92325051D02*
X148336000Y-91963000D01*
X134351000Y-91963000D02*
X135636000Y-91963000D01*
X127508000Y-94742000D02*
X131572000Y-94742000D01*
X134152000Y-106172000D02*
X131064000Y-103084000D01*
X135088000Y-106172000D02*
X135088000Y-109180000D01*
X135088000Y-106172000D02*
X134152000Y-106172000D01*
X135088000Y-109180000D02*
X135636000Y-109728000D01*
X134381000Y-99583000D02*
X132882000Y-98084000D01*
X132882000Y-98084000D02*
X131064000Y-98084000D01*
X135636000Y-99583000D02*
X134381000Y-99583000D01*
D26*
X152400000Y-74930000D02*
X155488000Y-74930000D01*
X168656000Y-106680000D02*
X168656000Y-110414000D01*
X141224000Y-79756000D02*
X137657805Y-79756000D01*
X163576000Y-101600000D02*
X168656000Y-106680000D01*
X163576000Y-93726000D02*
X163576000Y-101600000D01*
X123444000Y-73660000D02*
X127762000Y-73660000D01*
X123444000Y-76962000D02*
X123444000Y-73660000D01*
X155702000Y-85090000D02*
X155702000Y-80264000D01*
X157480000Y-86868000D02*
X155702000Y-85090000D01*
X163576000Y-93726000D02*
X157480000Y-87630000D01*
X130799805Y-72898000D02*
X128524000Y-72898000D01*
X150368000Y-72898000D02*
X152400000Y-74930000D01*
X152400000Y-76962000D02*
X155702000Y-80264000D01*
X157480000Y-87630000D02*
X157480000Y-86868000D01*
X128524000Y-72898000D02*
X150368000Y-72898000D01*
X168656000Y-110414000D02*
X168580000Y-110490000D01*
X137657805Y-79756000D02*
X130799805Y-72898000D01*
X127762000Y-73660000D02*
X128524000Y-72898000D01*
X152400000Y-74930000D02*
X152400000Y-76962000D01*
D25*
X121412000Y-85852000D02*
X118110000Y-85852000D01*
X131826000Y-88392000D02*
X131826000Y-81534000D01*
X131826000Y-88392000D02*
X130556000Y-89662000D01*
X114046000Y-81534000D02*
X114046000Y-81788000D01*
X131826000Y-81534000D02*
X133604000Y-79756000D01*
X127294000Y-89662000D02*
X127254000Y-89622000D01*
X127254000Y-89622000D02*
X125182000Y-89622000D01*
X125182000Y-89622000D02*
X121412000Y-85852000D01*
X130556000Y-89662000D02*
X127294000Y-89662000D01*
X114046000Y-81788000D02*
X118110000Y-85852000D01*
X138684000Y-102362000D02*
X140716000Y-100330000D01*
X121920000Y-93472000D02*
X123190000Y-94742000D01*
X118110000Y-93472000D02*
X121920000Y-93472000D01*
X139433200Y-96253200D02*
X139433200Y-89435200D01*
X132080000Y-99568000D02*
X129286000Y-99568000D01*
X140716000Y-99583000D02*
X140716000Y-97536000D01*
X138684000Y-102362000D02*
X138430000Y-102616000D01*
X138430000Y-102616000D02*
X135128000Y-102616000D01*
X140716000Y-97536000D02*
X139433200Y-96253200D01*
X129286000Y-99568000D02*
X128270000Y-98552000D01*
X114046000Y-89408000D02*
X114046000Y-89154000D01*
X135128000Y-102616000D02*
X132080000Y-99568000D01*
X118110000Y-93472000D02*
X114046000Y-89408000D01*
X139433200Y-89435200D02*
X138898000Y-88900000D01*
X128270000Y-98552000D02*
X127000000Y-98552000D01*
X127000000Y-98552000D02*
X123190000Y-94742000D01*
X140716000Y-100330000D02*
X140716000Y-99583000D01*
X130088000Y-106172000D02*
X130088000Y-104942000D01*
X119380000Y-102362000D02*
X118110000Y-101092000D01*
X127508000Y-102362000D02*
X119380000Y-102362000D01*
X130088000Y-104942000D02*
X127508000Y-102362000D01*
X127762000Y-100584000D02*
X128778000Y-101600000D01*
X131357950Y-101600000D02*
X134405950Y-104648000D01*
X118110000Y-98552000D02*
X120142000Y-100584000D01*
X143256000Y-101346000D02*
X143256000Y-99583000D01*
X139954000Y-104648000D02*
X143256000Y-101346000D01*
X134405950Y-104648000D02*
X139954000Y-104648000D01*
X128778000Y-101600000D02*
X131357950Y-101600000D01*
X120142000Y-100584000D02*
X127762000Y-100584000D01*
X125222000Y-94996000D02*
X125222000Y-91186000D01*
X126492000Y-96266000D02*
X125222000Y-94996000D01*
X136848800Y-96266000D02*
X126492000Y-96266000D01*
X138176000Y-97593200D02*
X138176000Y-99583000D01*
X122428000Y-88392000D02*
X118110000Y-88392000D01*
X125222000Y-91186000D02*
X122428000Y-88392000D01*
X136848800Y-96266000D02*
X138176000Y-97593200D01*
D26*
X119380000Y-92202000D02*
X118110000Y-90932000D01*
X112268000Y-88138000D02*
X112268000Y-89916000D01*
X114554000Y-87376000D02*
X113030000Y-87376000D01*
X123190000Y-104902000D02*
X123190000Y-105156000D01*
X123190000Y-105156000D02*
X119157328Y-109188672D01*
X119157328Y-109188672D02*
X119157328Y-109728000D01*
X115062000Y-92710000D02*
X115062000Y-106172000D01*
X118110000Y-90932000D02*
X114554000Y-87376000D01*
X113030000Y-87376000D02*
X112268000Y-88138000D01*
X112268000Y-89916000D02*
X115062000Y-92710000D01*
X123444000Y-92202000D02*
X119380000Y-92202000D01*
X118618000Y-109728000D02*
X119157328Y-109728000D01*
X115062000Y-106172000D02*
X118618000Y-109728000D01*
X169418000Y-72324500D02*
X171130500Y-72324500D01*
D25*
X157948000Y-110490000D02*
X157734000Y-110704000D01*
X151384000Y-106172000D02*
X151384000Y-100091000D01*
X157734000Y-105704000D02*
X160060000Y-105704000D01*
X151638000Y-105918000D02*
X157520000Y-105918000D01*
D26*
X145796000Y-91186000D02*
X145796000Y-91963000D01*
%TD*%
%TA.AperFunction,NonConductor*%
G36*
X133946208Y-64536502D02*
G01*
X133992701Y-64590158D01*
X134002805Y-64660432D01*
X133973311Y-64725012D01*
X133951345Y-64745015D01*
X133919478Y-64767787D01*
X133919474Y-64767790D01*
X133915857Y-64770375D01*
X133721577Y-64955709D01*
X133555350Y-65166568D01*
X133420491Y-65398745D01*
X133418823Y-65402862D01*
X133418820Y-65402869D01*
X133321365Y-65643474D01*
X133319691Y-65647607D01*
X133254962Y-65908190D01*
X133227595Y-66175293D01*
X133227770Y-66179745D01*
X133232405Y-66297707D01*
X133238136Y-66443588D01*
X133240131Y-66454510D01*
X133275459Y-66647947D01*
X133286375Y-66707720D01*
X133371350Y-66962421D01*
X133417336Y-67054453D01*
X133473583Y-67167020D01*
X133491365Y-67202608D01*
X133644024Y-67423488D01*
X133648195Y-67428000D01*
X133820126Y-67613994D01*
X133826283Y-67620655D01*
X133829737Y-67623467D01*
X134031048Y-67787360D01*
X134031052Y-67787363D01*
X134034505Y-67790174D01*
X134264535Y-67928664D01*
X134511784Y-68033360D01*
X134516077Y-68034498D01*
X134516082Y-68034500D01*
X134644097Y-68068442D01*
X134771318Y-68102174D01*
X135037958Y-68133733D01*
X135306385Y-68127407D01*
X135310779Y-68126676D01*
X135310786Y-68126675D01*
X135566841Y-68084056D01*
X135566845Y-68084055D01*
X135571243Y-68083323D01*
X135827247Y-68002359D01*
X135831258Y-68000433D01*
X135831263Y-68000431D01*
X136065270Y-67888062D01*
X136065271Y-67888061D01*
X136069289Y-67886132D01*
X136076419Y-67881368D01*
X136288832Y-67739439D01*
X136288836Y-67739436D01*
X136292540Y-67736961D01*
X136492545Y-67557821D01*
X136665314Y-67352287D01*
X136729059Y-67250077D01*
X136805042Y-67128242D01*
X136805042Y-67128241D01*
X136807400Y-67124461D01*
X136915967Y-66878888D01*
X136988849Y-66620467D01*
X136990088Y-66611240D01*
X137024165Y-66357537D01*
X137024166Y-66357529D01*
X137024592Y-66354355D01*
X137026690Y-66287588D01*
X137028242Y-66238222D01*
X137028242Y-66238217D01*
X137028343Y-66235000D01*
X137009380Y-65967169D01*
X137005583Y-65949530D01*
X136953804Y-65709029D01*
X136953804Y-65709027D01*
X136952868Y-65704682D01*
X136859935Y-65452776D01*
X136827206Y-65392118D01*
X136734548Y-65220393D01*
X136732435Y-65216477D01*
X136572912Y-65000501D01*
X136384550Y-64809157D01*
X136381010Y-64806456D01*
X136381004Y-64806450D01*
X136297422Y-64742663D01*
X136255405Y-64685435D01*
X136250997Y-64614575D01*
X136285599Y-64552581D01*
X136348225Y-64519136D01*
X136373864Y-64516500D01*
X147088087Y-64516500D01*
X147156208Y-64536502D01*
X147202701Y-64590158D01*
X147212805Y-64660432D01*
X147183311Y-64725012D01*
X147161345Y-64745015D01*
X147129478Y-64767787D01*
X147129474Y-64767790D01*
X147125857Y-64770375D01*
X146931577Y-64955709D01*
X146765350Y-65166568D01*
X146630491Y-65398745D01*
X146628823Y-65402862D01*
X146628820Y-65402869D01*
X146531365Y-65643474D01*
X146529691Y-65647607D01*
X146464962Y-65908190D01*
X146437595Y-66175293D01*
X146437770Y-66179745D01*
X146442405Y-66297707D01*
X146448136Y-66443588D01*
X146450131Y-66454510D01*
X146485459Y-66647947D01*
X146496375Y-66707720D01*
X146581350Y-66962421D01*
X146627336Y-67054453D01*
X146683583Y-67167020D01*
X146701365Y-67202608D01*
X146854024Y-67423488D01*
X146858195Y-67428000D01*
X147030126Y-67613994D01*
X147036283Y-67620655D01*
X147039737Y-67623467D01*
X147241048Y-67787360D01*
X147241052Y-67787363D01*
X147244505Y-67790174D01*
X147474535Y-67928664D01*
X147721784Y-68033360D01*
X147726077Y-68034498D01*
X147726082Y-68034500D01*
X147854097Y-68068442D01*
X147981318Y-68102174D01*
X148247958Y-68133733D01*
X148516385Y-68127407D01*
X148520779Y-68126676D01*
X148520786Y-68126675D01*
X148776841Y-68084056D01*
X148776845Y-68084055D01*
X148781243Y-68083323D01*
X149037247Y-68002359D01*
X149041258Y-68000433D01*
X149041263Y-68000431D01*
X149275270Y-67888062D01*
X149275271Y-67888061D01*
X149279289Y-67886132D01*
X149286419Y-67881368D01*
X149498832Y-67739439D01*
X149498836Y-67739436D01*
X149502540Y-67736961D01*
X149702545Y-67557821D01*
X149875314Y-67352287D01*
X149939059Y-67250077D01*
X150015042Y-67128242D01*
X150015042Y-67128241D01*
X150017400Y-67124461D01*
X150125967Y-66878888D01*
X150198849Y-66620467D01*
X150200088Y-66611240D01*
X150234165Y-66357537D01*
X150234166Y-66357529D01*
X150234592Y-66354355D01*
X150236690Y-66287588D01*
X150238242Y-66238222D01*
X150238242Y-66238217D01*
X150238343Y-66235000D01*
X150219380Y-65967169D01*
X150215583Y-65949530D01*
X150163804Y-65709029D01*
X150163804Y-65709027D01*
X150162868Y-65704682D01*
X150069935Y-65452776D01*
X150037206Y-65392118D01*
X149944548Y-65220393D01*
X149942435Y-65216477D01*
X149782912Y-65000501D01*
X149594550Y-64809157D01*
X149591010Y-64806456D01*
X149591004Y-64806450D01*
X149507422Y-64742663D01*
X149465405Y-64685435D01*
X149460997Y-64614575D01*
X149495599Y-64552581D01*
X149558225Y-64519136D01*
X149583864Y-64516500D01*
X175759182Y-64516500D01*
X175827303Y-64536502D01*
X175848278Y-64553405D01*
X175984596Y-64689724D01*
X176018621Y-64752036D01*
X176021500Y-64778819D01*
X176021500Y-113275181D01*
X176001498Y-113343302D01*
X175984596Y-113364276D01*
X175848278Y-113500595D01*
X175785966Y-113534620D01*
X175759182Y-113537500D01*
X108212819Y-113537500D01*
X108144698Y-113517498D01*
X108123724Y-113500596D01*
X107987405Y-113364278D01*
X107953380Y-113301966D01*
X107950500Y-113275182D01*
X107950500Y-88134435D01*
X111246588Y-88134435D01*
X111250941Y-88180485D01*
X111251500Y-88192343D01*
X111251500Y-89853724D01*
X111250763Y-89867332D01*
X111247714Y-89895402D01*
X111246638Y-89905304D01*
X111249575Y-89938870D01*
X111251046Y-89955690D01*
X111251375Y-89960518D01*
X111251500Y-89963073D01*
X111251500Y-89966157D01*
X111251801Y-89969224D01*
X111255722Y-90009219D01*
X111255844Y-90010532D01*
X111258206Y-90037523D01*
X111264012Y-90103892D01*
X111265511Y-90109052D01*
X111266035Y-90114394D01*
X111291802Y-90199737D01*
X111293098Y-90204031D01*
X111293455Y-90205236D01*
X111319628Y-90295322D01*
X111322100Y-90300090D01*
X111323652Y-90305232D01*
X111326547Y-90310677D01*
X111326550Y-90310684D01*
X111367633Y-90387950D01*
X111368213Y-90389054D01*
X111411366Y-90472304D01*
X111414718Y-90476503D01*
X111417239Y-90481244D01*
X111421131Y-90486016D01*
X111476438Y-90553829D01*
X111477266Y-90554855D01*
X111495681Y-90577922D01*
X111508768Y-90594316D01*
X111511263Y-90596811D01*
X111511973Y-90597605D01*
X111515693Y-90601960D01*
X111539337Y-90630951D01*
X111539340Y-90630954D01*
X111543232Y-90635726D01*
X111547980Y-90639654D01*
X111547981Y-90639655D01*
X111578873Y-90665211D01*
X111587652Y-90673200D01*
X114008595Y-93094143D01*
X114042621Y-93156455D01*
X114045500Y-93183238D01*
X114045500Y-106109724D01*
X114044763Y-106123332D01*
X114040638Y-106161304D01*
X114041175Y-106167439D01*
X114045046Y-106211690D01*
X114045375Y-106216518D01*
X114045500Y-106219073D01*
X114045500Y-106222157D01*
X114045801Y-106225224D01*
X114049722Y-106265219D01*
X114049844Y-106266532D01*
X114058012Y-106359892D01*
X114059511Y-106365052D01*
X114060035Y-106370394D01*
X114086302Y-106457393D01*
X114087098Y-106460031D01*
X114087455Y-106461236D01*
X114113628Y-106551322D01*
X114116100Y-106556090D01*
X114117652Y-106561232D01*
X114120547Y-106566677D01*
X114120550Y-106566684D01*
X114161633Y-106643950D01*
X114162213Y-106645054D01*
X114205366Y-106728304D01*
X114208718Y-106732503D01*
X114211239Y-106737244D01*
X114215131Y-106742016D01*
X114270438Y-106809829D01*
X114271266Y-106810855D01*
X114297605Y-106843849D01*
X114302768Y-106850316D01*
X114305263Y-106852811D01*
X114305973Y-106853605D01*
X114309693Y-106857960D01*
X114333337Y-106886951D01*
X114333340Y-106886954D01*
X114337232Y-106891726D01*
X114341980Y-106895654D01*
X114341981Y-106895655D01*
X114372873Y-106921211D01*
X114381652Y-106929200D01*
X117811923Y-110359471D01*
X117845949Y-110421783D01*
X117848828Y-110448566D01*
X117848828Y-110576134D01*
X117855583Y-110638316D01*
X117906713Y-110774705D01*
X117994067Y-110891261D01*
X118110623Y-110978615D01*
X118247012Y-111029745D01*
X118309194Y-111036500D01*
X120005462Y-111036500D01*
X120067644Y-111029745D01*
X120204033Y-110978615D01*
X120320589Y-110891261D01*
X120407943Y-110774705D01*
X120459073Y-110638316D01*
X120465828Y-110576134D01*
X120465828Y-109369910D01*
X120485830Y-109301789D01*
X120502733Y-109280815D01*
X123536143Y-106247405D01*
X123598455Y-106213379D01*
X123625238Y-106210500D01*
X124038134Y-106210500D01*
X124100316Y-106203745D01*
X124236705Y-106152615D01*
X124353261Y-106065261D01*
X124440615Y-105948705D01*
X124491745Y-105812316D01*
X124498500Y-105750134D01*
X124498500Y-104053866D01*
X124491745Y-103991684D01*
X124440615Y-103855295D01*
X124353261Y-103738739D01*
X124236705Y-103651385D01*
X124100316Y-103600255D01*
X124038134Y-103593500D01*
X122341866Y-103593500D01*
X122279684Y-103600255D01*
X122143295Y-103651385D01*
X122026739Y-103738739D01*
X121939385Y-103855295D01*
X121888255Y-103991684D01*
X121881500Y-104053866D01*
X121881500Y-104974761D01*
X121861498Y-105042882D01*
X121844595Y-105063856D01*
X120251796Y-106656656D01*
X118707095Y-108201357D01*
X118644783Y-108235383D01*
X118573968Y-108230318D01*
X118528905Y-108201357D01*
X116115405Y-105787857D01*
X116081379Y-105725545D01*
X116078500Y-105698762D01*
X116078500Y-92772276D01*
X116079237Y-92758668D01*
X116082697Y-92726821D01*
X116082697Y-92726817D01*
X116083362Y-92720696D01*
X116082825Y-92714557D01*
X116080871Y-92692215D01*
X116094861Y-92622611D01*
X116144262Y-92571619D01*
X116213388Y-92555430D01*
X116280293Y-92579184D01*
X116295487Y-92592141D01*
X116751364Y-93048018D01*
X116785390Y-93110330D01*
X116783686Y-93170785D01*
X116772370Y-93211588D01*
X116772369Y-93211596D01*
X116770989Y-93216570D01*
X116770441Y-93221700D01*
X116770440Y-93221704D01*
X116762006Y-93300631D01*
X116747251Y-93438695D01*
X116747548Y-93443848D01*
X116747548Y-93443851D01*
X116759730Y-93655118D01*
X116760110Y-93661715D01*
X116761247Y-93666761D01*
X116761248Y-93666767D01*
X116776537Y-93734607D01*
X116809222Y-93879639D01*
X116893266Y-94086616D01*
X116927037Y-94141726D01*
X116967284Y-94207402D01*
X117009987Y-94277088D01*
X117156250Y-94445938D01*
X117328126Y-94588632D01*
X117398595Y-94629811D01*
X117401445Y-94631476D01*
X117450169Y-94683114D01*
X117463240Y-94752897D01*
X117436509Y-94818669D01*
X117396055Y-94852027D01*
X117383607Y-94858507D01*
X117379474Y-94861610D01*
X117379471Y-94861612D01*
X117238303Y-94967604D01*
X117204965Y-94992635D01*
X117050629Y-95154138D01*
X117047715Y-95158410D01*
X117047714Y-95158411D01*
X116994982Y-95235713D01*
X116924743Y-95338680D01*
X116888512Y-95416733D01*
X116853412Y-95492351D01*
X116830688Y-95541305D01*
X116770989Y-95756570D01*
X116747251Y-95978695D01*
X116747548Y-95983848D01*
X116747548Y-95983851D01*
X116755459Y-96121050D01*
X116760110Y-96201715D01*
X116761247Y-96206761D01*
X116761248Y-96206767D01*
X116766535Y-96230225D01*
X116809222Y-96419639D01*
X116893266Y-96626616D01*
X117009987Y-96817088D01*
X117156250Y-96985938D01*
X117328126Y-97128632D01*
X117364685Y-97149995D01*
X117401445Y-97171476D01*
X117450169Y-97223114D01*
X117463240Y-97292897D01*
X117436509Y-97358669D01*
X117396055Y-97392027D01*
X117383607Y-97398507D01*
X117379474Y-97401610D01*
X117379471Y-97401612D01*
X117229069Y-97514537D01*
X117204965Y-97532635D01*
X117050629Y-97694138D01*
X116924743Y-97878680D01*
X116895117Y-97942505D01*
X116839298Y-98062757D01*
X116830688Y-98081305D01*
X116770989Y-98296570D01*
X116747251Y-98518695D01*
X116747548Y-98523848D01*
X116747548Y-98523851D01*
X116753202Y-98621908D01*
X116760110Y-98741715D01*
X116761247Y-98746761D01*
X116761248Y-98746767D01*
X116772804Y-98798042D01*
X116809222Y-98959639D01*
X116857678Y-99078973D01*
X116874322Y-99119961D01*
X116893266Y-99166616D01*
X116895965Y-99171020D01*
X117006740Y-99351789D01*
X117009987Y-99357088D01*
X117156250Y-99525938D01*
X117328126Y-99668632D01*
X117395505Y-99708005D01*
X117401445Y-99711476D01*
X117450169Y-99763114D01*
X117463240Y-99832897D01*
X117436509Y-99898669D01*
X117396055Y-99932027D01*
X117383607Y-99938507D01*
X117379474Y-99941610D01*
X117379471Y-99941612D01*
X117209100Y-100069530D01*
X117204965Y-100072635D01*
X117201393Y-100076373D01*
X117060996Y-100223290D01*
X117050629Y-100234138D01*
X116924743Y-100418680D01*
X116916135Y-100437225D01*
X116836290Y-100609237D01*
X116830688Y-100621305D01*
X116770989Y-100836570D01*
X116747251Y-101058695D01*
X116747548Y-101063842D01*
X116747548Y-101063851D01*
X116753131Y-101160669D01*
X116760110Y-101281715D01*
X116761247Y-101286761D01*
X116761248Y-101286767D01*
X116783391Y-101385019D01*
X116809222Y-101499639D01*
X116893266Y-101706616D01*
X116895965Y-101711020D01*
X117000956Y-101882350D01*
X117009987Y-101897088D01*
X117156250Y-102065938D01*
X117328126Y-102208632D01*
X117521000Y-102321338D01*
X117525825Y-102323180D01*
X117525826Y-102323181D01*
X117593992Y-102349211D01*
X117729692Y-102401030D01*
X117734760Y-102402061D01*
X117734763Y-102402062D01*
X117824834Y-102420387D01*
X117948597Y-102445567D01*
X117953772Y-102445757D01*
X117953774Y-102445757D01*
X118166673Y-102453564D01*
X118166677Y-102453564D01*
X118171837Y-102453753D01*
X118176957Y-102453097D01*
X118176959Y-102453097D01*
X118246153Y-102444233D01*
X118393416Y-102425368D01*
X118398369Y-102423882D01*
X118398374Y-102423881D01*
X118410019Y-102420387D01*
X118481014Y-102419969D01*
X118535323Y-102451977D01*
X118893393Y-102810047D01*
X118899246Y-102816312D01*
X118934524Y-102856752D01*
X118940742Y-102861122D01*
X118983084Y-102890880D01*
X118988380Y-102894813D01*
X119035121Y-102931463D01*
X119042045Y-102934589D01*
X119048176Y-102938302D01*
X119052796Y-102940938D01*
X119059178Y-102944360D01*
X119065397Y-102948731D01*
X119072476Y-102951491D01*
X119120713Y-102970298D01*
X119126792Y-102972854D01*
X119180912Y-102997289D01*
X119188388Y-102998675D01*
X119195266Y-103000830D01*
X119200391Y-103002290D01*
X119207355Y-103004078D01*
X119214434Y-103006838D01*
X119221966Y-103007830D01*
X119221968Y-103007830D01*
X119247196Y-103011151D01*
X119273300Y-103014587D01*
X119279798Y-103015616D01*
X119338197Y-103026440D01*
X119345777Y-103026003D01*
X119345778Y-103026003D01*
X119395967Y-103023109D01*
X119403220Y-103022900D01*
X126307792Y-103022900D01*
X126375913Y-103042902D01*
X126411005Y-103076629D01*
X126498643Y-103201789D01*
X126501802Y-103206300D01*
X126663700Y-103368198D01*
X126668208Y-103371355D01*
X126668211Y-103371357D01*
X126671760Y-103373842D01*
X126851251Y-103499523D01*
X126856233Y-103501846D01*
X126856238Y-103501849D01*
X127053578Y-103593869D01*
X127058757Y-103596284D01*
X127064065Y-103597706D01*
X127064067Y-103597707D01*
X127274598Y-103654119D01*
X127274600Y-103654119D01*
X127279913Y-103655543D01*
X127508000Y-103675498D01*
X127736087Y-103655543D01*
X127741398Y-103654120D01*
X127741409Y-103654118D01*
X127768980Y-103646730D01*
X127839956Y-103648419D01*
X127890687Y-103679341D01*
X129221329Y-105009983D01*
X129255355Y-105072295D01*
X129250290Y-105143110D01*
X129221329Y-105188173D01*
X129081802Y-105327700D01*
X129078645Y-105332208D01*
X129078643Y-105332211D01*
X129046305Y-105378395D01*
X128950477Y-105515251D01*
X128948154Y-105520233D01*
X128948151Y-105520238D01*
X128912569Y-105596545D01*
X128853716Y-105722757D01*
X128852294Y-105728065D01*
X128852293Y-105728067D01*
X128827736Y-105819715D01*
X128794457Y-105943913D01*
X128774502Y-106172000D01*
X128794457Y-106400087D01*
X128795881Y-106405400D01*
X128795881Y-106405402D01*
X128834981Y-106551322D01*
X128853716Y-106621243D01*
X128856039Y-106626224D01*
X128856039Y-106626225D01*
X128948151Y-106823762D01*
X128948154Y-106823767D01*
X128950477Y-106828749D01*
X128991231Y-106886951D01*
X129069004Y-106998022D01*
X129081802Y-107016300D01*
X129243700Y-107178198D01*
X129248208Y-107181355D01*
X129248211Y-107181357D01*
X129326389Y-107236098D01*
X129431251Y-107309523D01*
X129436233Y-107311846D01*
X129436238Y-107311849D01*
X129550428Y-107365096D01*
X129638757Y-107406284D01*
X129644065Y-107407706D01*
X129644067Y-107407707D01*
X129854598Y-107464119D01*
X129854600Y-107464119D01*
X129859913Y-107465543D01*
X130088000Y-107485498D01*
X130316087Y-107465543D01*
X130321400Y-107464119D01*
X130321402Y-107464119D01*
X130531933Y-107407707D01*
X130531935Y-107407706D01*
X130537243Y-107406284D01*
X130625572Y-107365096D01*
X130739762Y-107311849D01*
X130739767Y-107311846D01*
X130744749Y-107309523D01*
X130849611Y-107236098D01*
X130927789Y-107181357D01*
X130927792Y-107181355D01*
X130932300Y-107178198D01*
X131094198Y-107016300D01*
X131106997Y-106998022D01*
X131184769Y-106886951D01*
X131225523Y-106828749D01*
X131227846Y-106823767D01*
X131227849Y-106823762D01*
X131319961Y-106626225D01*
X131319961Y-106626224D01*
X131322284Y-106621243D01*
X131341020Y-106551322D01*
X131380119Y-106405402D01*
X131380119Y-106405400D01*
X131381543Y-106400087D01*
X131401498Y-106172000D01*
X131381543Y-105943913D01*
X131348264Y-105819715D01*
X131323707Y-105728067D01*
X131323706Y-105728065D01*
X131322284Y-105722757D01*
X131263431Y-105596545D01*
X131227849Y-105520238D01*
X131227846Y-105520233D01*
X131225523Y-105515251D01*
X131129695Y-105378395D01*
X131097357Y-105332211D01*
X131097355Y-105332208D01*
X131094198Y-105327700D01*
X130932300Y-105165802D01*
X130927792Y-105162645D01*
X130927789Y-105162643D01*
X130802629Y-105075005D01*
X130758301Y-105019548D01*
X130748900Y-104971792D01*
X130748900Y-104969263D01*
X130749192Y-104960692D01*
X130750359Y-104943569D01*
X130752842Y-104907157D01*
X130742631Y-104848653D01*
X130741669Y-104842131D01*
X130735450Y-104790738D01*
X130735450Y-104790736D01*
X130734537Y-104783195D01*
X130731851Y-104776087D01*
X130730140Y-104769121D01*
X130728721Y-104763932D01*
X130726644Y-104757053D01*
X130725339Y-104749576D01*
X130701471Y-104695205D01*
X130698986Y-104689114D01*
X130680679Y-104640664D01*
X130680678Y-104640662D01*
X130677994Y-104633559D01*
X130673691Y-104627298D01*
X130670385Y-104620974D01*
X130667729Y-104616202D01*
X130664094Y-104610056D01*
X130661042Y-104603104D01*
X130624898Y-104555999D01*
X130621037Y-104550686D01*
X130620139Y-104549380D01*
X130598025Y-104481916D01*
X130615896Y-104413205D01*
X130668077Y-104365063D01*
X130738002Y-104352775D01*
X130756576Y-104356285D01*
X130830591Y-104376118D01*
X130830602Y-104376120D01*
X130835913Y-104377543D01*
X131064000Y-104397498D01*
X131292087Y-104377543D01*
X131297398Y-104376120D01*
X131297409Y-104376118D01*
X131324980Y-104368730D01*
X131395956Y-104370419D01*
X131446687Y-104401341D01*
X133665393Y-106620047D01*
X133671246Y-106626312D01*
X133706524Y-106666752D01*
X133712735Y-106671117D01*
X133712738Y-106671120D01*
X133755107Y-106700897D01*
X133760402Y-106704830D01*
X133807121Y-106741462D01*
X133814046Y-106744589D01*
X133820223Y-106748330D01*
X133824802Y-106750942D01*
X133831180Y-106754362D01*
X133837397Y-106758731D01*
X133890648Y-106779492D01*
X133946848Y-106822873D01*
X133950006Y-106827738D01*
X133950477Y-106828749D01*
X133953005Y-106832359D01*
X133953008Y-106832364D01*
X134069004Y-106998022D01*
X134081802Y-107016300D01*
X134243700Y-107178198D01*
X134248208Y-107181355D01*
X134248211Y-107181357D01*
X134373371Y-107268995D01*
X134417699Y-107324452D01*
X134427100Y-107372208D01*
X134427100Y-109152737D01*
X134426808Y-109161309D01*
X134423322Y-109212434D01*
X134411809Y-109257111D01*
X134404041Y-109273770D01*
X134401716Y-109278757D01*
X134400294Y-109284065D01*
X134400293Y-109284067D01*
X134343881Y-109494598D01*
X134342457Y-109499913D01*
X134322502Y-109728000D01*
X134342457Y-109956087D01*
X134401716Y-110177243D01*
X134404039Y-110182224D01*
X134404039Y-110182225D01*
X134496151Y-110379762D01*
X134496154Y-110379767D01*
X134498477Y-110384749D01*
X134545054Y-110451268D01*
X134597926Y-110526776D01*
X134629802Y-110572300D01*
X134791700Y-110734198D01*
X134796208Y-110737355D01*
X134796211Y-110737357D01*
X134837542Y-110766297D01*
X134979251Y-110865523D01*
X134984233Y-110867846D01*
X134984238Y-110867849D01*
X135137345Y-110939243D01*
X135186757Y-110962284D01*
X135192065Y-110963706D01*
X135192067Y-110963707D01*
X135402598Y-111020119D01*
X135402600Y-111020119D01*
X135407913Y-111021543D01*
X135636000Y-111041498D01*
X135864087Y-111021543D01*
X135869400Y-111020119D01*
X135869402Y-111020119D01*
X136079933Y-110963707D01*
X136079935Y-110963706D01*
X136085243Y-110962284D01*
X136134655Y-110939243D01*
X136287762Y-110867849D01*
X136287767Y-110867846D01*
X136292749Y-110865523D01*
X136434458Y-110766297D01*
X136475789Y-110737357D01*
X136475792Y-110737355D01*
X136480300Y-110734198D01*
X136642198Y-110572300D01*
X136674075Y-110526776D01*
X136726946Y-110451268D01*
X136773523Y-110384749D01*
X136775846Y-110379767D01*
X136775849Y-110379762D01*
X136867961Y-110182225D01*
X136867961Y-110182224D01*
X136870284Y-110177243D01*
X136929543Y-109956087D01*
X136949498Y-109728000D01*
X136929543Y-109499913D01*
X136928119Y-109494598D01*
X136871707Y-109284067D01*
X136871706Y-109284065D01*
X136870284Y-109278757D01*
X136860623Y-109258039D01*
X136775849Y-109076238D01*
X136775846Y-109076233D01*
X136773523Y-109071251D01*
X136642198Y-108883700D01*
X136480300Y-108721802D01*
X136475792Y-108718645D01*
X136475789Y-108718643D01*
X136367428Y-108642768D01*
X136292749Y-108590477D01*
X136287767Y-108588154D01*
X136287762Y-108588151D01*
X136090225Y-108496039D01*
X136090224Y-108496039D01*
X136085243Y-108493716D01*
X136079935Y-108492294D01*
X136079933Y-108492293D01*
X135979328Y-108465336D01*
X135864087Y-108434457D01*
X135858598Y-108433977D01*
X135853194Y-108433024D01*
X135853646Y-108430458D01*
X135797675Y-108408482D01*
X135756108Y-108350926D01*
X135748900Y-108308922D01*
X135748900Y-107372208D01*
X135768902Y-107304087D01*
X135802629Y-107268995D01*
X135927789Y-107181357D01*
X135927792Y-107181355D01*
X135932300Y-107178198D01*
X136094198Y-107016300D01*
X136106997Y-106998022D01*
X136184769Y-106886951D01*
X136225523Y-106828749D01*
X136227846Y-106823767D01*
X136227849Y-106823762D01*
X136319961Y-106626225D01*
X136319961Y-106626224D01*
X136322284Y-106621243D01*
X136341020Y-106551322D01*
X136380119Y-106405402D01*
X136380119Y-106405400D01*
X136381543Y-106400087D01*
X136401498Y-106172000D01*
X136381543Y-105943913D01*
X136348264Y-105819715D01*
X136323707Y-105728067D01*
X136323706Y-105728065D01*
X136322284Y-105722757D01*
X136263431Y-105596545D01*
X136227849Y-105520238D01*
X136227846Y-105520233D01*
X136225523Y-105515251D01*
X136219867Y-105507173D01*
X136197177Y-105439900D01*
X136214460Y-105371039D01*
X136266229Y-105322454D01*
X136323078Y-105308900D01*
X139926737Y-105308900D01*
X139935308Y-105309192D01*
X139988843Y-105312842D01*
X139996320Y-105311537D01*
X139996321Y-105311537D01*
X140021626Y-105307121D01*
X140047347Y-105302631D01*
X140053865Y-105301670D01*
X140072223Y-105299448D01*
X140105262Y-105295450D01*
X140105264Y-105295450D01*
X140112805Y-105294537D01*
X140119913Y-105291851D01*
X140126879Y-105290140D01*
X140132068Y-105288721D01*
X140138947Y-105286644D01*
X140146424Y-105285339D01*
X140200795Y-105261471D01*
X140206886Y-105258986D01*
X140211878Y-105257100D01*
X140231475Y-105249695D01*
X140255336Y-105240679D01*
X140255338Y-105240678D01*
X140262441Y-105237994D01*
X140268702Y-105233691D01*
X140275026Y-105230385D01*
X140279798Y-105227729D01*
X140285944Y-105224094D01*
X140292896Y-105221042D01*
X140340001Y-105184898D01*
X140345334Y-105181023D01*
X140356699Y-105173212D01*
X140394271Y-105147389D01*
X140432769Y-105104180D01*
X140437749Y-105098905D01*
X143704047Y-101832607D01*
X143710313Y-101826753D01*
X143745025Y-101796472D01*
X143750752Y-101791476D01*
X143784882Y-101742913D01*
X143788814Y-101737618D01*
X143816877Y-101701829D01*
X143825463Y-101690879D01*
X143828589Y-101683955D01*
X143832302Y-101677824D01*
X143834938Y-101673204D01*
X143838360Y-101666822D01*
X143842731Y-101660603D01*
X143864299Y-101605286D01*
X143866854Y-101599207D01*
X143888161Y-101552015D01*
X143891289Y-101545088D01*
X143892675Y-101537612D01*
X143894830Y-101530734D01*
X143896290Y-101525609D01*
X143898078Y-101518645D01*
X143900838Y-101511566D01*
X143908587Y-101452700D01*
X143909618Y-101446189D01*
X143920440Y-101387803D01*
X143919766Y-101376104D01*
X143917109Y-101330033D01*
X143916900Y-101322780D01*
X143916900Y-101183208D01*
X143936902Y-101115087D01*
X143970629Y-101079995D01*
X144095789Y-100992357D01*
X144095792Y-100992355D01*
X144100300Y-100989198D01*
X144262198Y-100827300D01*
X144393523Y-100639749D01*
X144395846Y-100634767D01*
X144395849Y-100634762D01*
X144487961Y-100437225D01*
X144487961Y-100437224D01*
X144490284Y-100432243D01*
X144543367Y-100234138D01*
X144548119Y-100216402D01*
X144548119Y-100216400D01*
X144549543Y-100211087D01*
X144564500Y-100040127D01*
X144564500Y-99125873D01*
X144549543Y-98954913D01*
X144543594Y-98932711D01*
X144491707Y-98739067D01*
X144491706Y-98739065D01*
X144490284Y-98733757D01*
X144445727Y-98638203D01*
X144395849Y-98531238D01*
X144395846Y-98531233D01*
X144393523Y-98526251D01*
X144293507Y-98383414D01*
X144265357Y-98343211D01*
X144265355Y-98343208D01*
X144262198Y-98338700D01*
X144100300Y-98176802D01*
X144095792Y-98173645D01*
X144095789Y-98173643D01*
X144007399Y-98111752D01*
X143912749Y-98045477D01*
X143907761Y-98043151D01*
X143907758Y-98043149D01*
X143828602Y-98006239D01*
X143775317Y-97959323D01*
X143755855Y-97891045D01*
X143776396Y-97823085D01*
X143792756Y-97802949D01*
X147923383Y-93672322D01*
X147985695Y-93638296D01*
X148045088Y-93639710D01*
X148085046Y-93650416D01*
X148107913Y-93656543D01*
X148336000Y-93676498D01*
X148564087Y-93656543D01*
X148569400Y-93655119D01*
X148569402Y-93655119D01*
X148779933Y-93598707D01*
X148779935Y-93598706D01*
X148785243Y-93597284D01*
X148845142Y-93569353D01*
X148987762Y-93502849D01*
X148987767Y-93502846D01*
X148992749Y-93500523D01*
X149101606Y-93424300D01*
X149175789Y-93372357D01*
X149175792Y-93372355D01*
X149180300Y-93369198D01*
X149342198Y-93207300D01*
X149359047Y-93183238D01*
X149410097Y-93110330D01*
X149473523Y-93019749D01*
X149475846Y-93014767D01*
X149475849Y-93014762D01*
X149491805Y-92980543D01*
X149538722Y-92927258D01*
X149606999Y-92907797D01*
X149674959Y-92928339D01*
X149720195Y-92980543D01*
X149736151Y-93014762D01*
X149736154Y-93014767D01*
X149738477Y-93019749D01*
X149801903Y-93110330D01*
X149852954Y-93183238D01*
X149869802Y-93207300D01*
X150031700Y-93369198D01*
X150036208Y-93372355D01*
X150036211Y-93372357D01*
X150110394Y-93424300D01*
X150219251Y-93500523D01*
X150224233Y-93502846D01*
X150224238Y-93502849D01*
X150366858Y-93569353D01*
X150426757Y-93597284D01*
X150432065Y-93598706D01*
X150432067Y-93598707D01*
X150642598Y-93655119D01*
X150642600Y-93655119D01*
X150647913Y-93656543D01*
X150876000Y-93676498D01*
X151104087Y-93656543D01*
X151109400Y-93655119D01*
X151109402Y-93655119D01*
X151325243Y-93597284D01*
X151325842Y-93599520D01*
X151386816Y-93595623D01*
X151448869Y-93630120D01*
X151482420Y-93692688D01*
X151485100Y-93718537D01*
X151485100Y-94416056D01*
X151465098Y-94484177D01*
X151448195Y-94505151D01*
X150427961Y-95525386D01*
X150421696Y-95531239D01*
X150381248Y-95566524D01*
X150348597Y-95612982D01*
X150347109Y-95615099D01*
X150343177Y-95620393D01*
X150306537Y-95667121D01*
X150303411Y-95674045D01*
X150299698Y-95680176D01*
X150297062Y-95684796D01*
X150293640Y-95691178D01*
X150289269Y-95697397D01*
X150272424Y-95740603D01*
X150267702Y-95752713D01*
X150265146Y-95758792D01*
X150240711Y-95812912D01*
X150239325Y-95820388D01*
X150237170Y-95827266D01*
X150235710Y-95832391D01*
X150233922Y-95839355D01*
X150231162Y-95846434D01*
X150230170Y-95853966D01*
X150230170Y-95853968D01*
X150223414Y-95905292D01*
X150222384Y-95911798D01*
X150211560Y-95970197D01*
X150211997Y-95977777D01*
X150211997Y-95977778D01*
X150214891Y-96027967D01*
X150215100Y-96035220D01*
X150215100Y-97982792D01*
X150195098Y-98050913D01*
X150161371Y-98086005D01*
X150036211Y-98173643D01*
X150036208Y-98173645D01*
X150031700Y-98176802D01*
X149869802Y-98338700D01*
X149866645Y-98343208D01*
X149866643Y-98343211D01*
X149838493Y-98383414D01*
X149738477Y-98526251D01*
X149736154Y-98531233D01*
X149736151Y-98531238D01*
X149720195Y-98565457D01*
X149673278Y-98618742D01*
X149605001Y-98638203D01*
X149537041Y-98617661D01*
X149491805Y-98565457D01*
X149475849Y-98531238D01*
X149475846Y-98531233D01*
X149473523Y-98526251D01*
X149373507Y-98383414D01*
X149345357Y-98343211D01*
X149345355Y-98343208D01*
X149342198Y-98338700D01*
X149180300Y-98176802D01*
X149175792Y-98173645D01*
X149175789Y-98173643D01*
X149087399Y-98111752D01*
X148992749Y-98045477D01*
X148987767Y-98043154D01*
X148987762Y-98043151D01*
X148790225Y-97951039D01*
X148790224Y-97951039D01*
X148785243Y-97948716D01*
X148779935Y-97947294D01*
X148779933Y-97947293D01*
X148569402Y-97890881D01*
X148569400Y-97890881D01*
X148564087Y-97889457D01*
X148336000Y-97869502D01*
X148107913Y-97889457D01*
X148102600Y-97890881D01*
X148102598Y-97890881D01*
X147892067Y-97947293D01*
X147892065Y-97947294D01*
X147886757Y-97948716D01*
X147881776Y-97951039D01*
X147881775Y-97951039D01*
X147684238Y-98043151D01*
X147684233Y-98043154D01*
X147679251Y-98045477D01*
X147584601Y-98111752D01*
X147496211Y-98173643D01*
X147496208Y-98173645D01*
X147491700Y-98176802D01*
X147329802Y-98338700D01*
X147326645Y-98343208D01*
X147326643Y-98343211D01*
X147298493Y-98383414D01*
X147198477Y-98526251D01*
X147196154Y-98531233D01*
X147196151Y-98531238D01*
X147146273Y-98638203D01*
X147101716Y-98733757D01*
X147100294Y-98739065D01*
X147100293Y-98739067D01*
X147048406Y-98932711D01*
X147042457Y-98954913D01*
X147027500Y-99125873D01*
X147027500Y-100040127D01*
X147042457Y-100211087D01*
X147043881Y-100216400D01*
X147043881Y-100216402D01*
X147048634Y-100234138D01*
X147101716Y-100432243D01*
X147104039Y-100437224D01*
X147104039Y-100437225D01*
X147196151Y-100634762D01*
X147196154Y-100634767D01*
X147198477Y-100639749D01*
X147329802Y-100827300D01*
X147491700Y-100989198D01*
X147496208Y-100992355D01*
X147496211Y-100992357D01*
X147661371Y-101108003D01*
X147705699Y-101163460D01*
X147715100Y-101211216D01*
X147715100Y-101415792D01*
X147695098Y-101483913D01*
X147661371Y-101519005D01*
X147536211Y-101606643D01*
X147536208Y-101606645D01*
X147531700Y-101609802D01*
X147369802Y-101771700D01*
X147366645Y-101776208D01*
X147366643Y-101776211D01*
X147327154Y-101832607D01*
X147238477Y-101959251D01*
X147236154Y-101964233D01*
X147236151Y-101964238D01*
X147146652Y-102156171D01*
X147141716Y-102166757D01*
X147140294Y-102172065D01*
X147140293Y-102172067D01*
X147089400Y-102362000D01*
X147082457Y-102387913D01*
X147062502Y-102616000D01*
X147082457Y-102844087D01*
X147083881Y-102849400D01*
X147083881Y-102849402D01*
X147131202Y-103026003D01*
X147141716Y-103065243D01*
X147144039Y-103070224D01*
X147144039Y-103070225D01*
X147236151Y-103267762D01*
X147236154Y-103267767D01*
X147238477Y-103272749D01*
X147369802Y-103460300D01*
X147531700Y-103622198D01*
X147536208Y-103625355D01*
X147536211Y-103625357D01*
X147661371Y-103712995D01*
X147705699Y-103768452D01*
X147715100Y-103816208D01*
X147715100Y-108136737D01*
X147714808Y-108145308D01*
X147711158Y-108198843D01*
X147712463Y-108206320D01*
X147712463Y-108206321D01*
X147721368Y-108257343D01*
X147722330Y-108263865D01*
X147729463Y-108322805D01*
X147732149Y-108329913D01*
X147733860Y-108336879D01*
X147735279Y-108342068D01*
X147737356Y-108348947D01*
X147738661Y-108356424D01*
X147762529Y-108410795D01*
X147765012Y-108416881D01*
X147786006Y-108472441D01*
X147790309Y-108478702D01*
X147793615Y-108485026D01*
X147796271Y-108489798D01*
X147799906Y-108495944D01*
X147802958Y-108502896D01*
X147807580Y-108508919D01*
X147839102Y-108550001D01*
X147842973Y-108555328D01*
X147876611Y-108604271D01*
X147882287Y-108609328D01*
X147919819Y-108642768D01*
X147925095Y-108647749D01*
X149666302Y-110388956D01*
X149700328Y-110451268D01*
X149693405Y-110526774D01*
X149664148Y-110596545D01*
X149597981Y-110857077D01*
X149571050Y-111124526D01*
X149571274Y-111129192D01*
X149571274Y-111129197D01*
X149574898Y-111204629D01*
X149583947Y-111393019D01*
X149636388Y-111656656D01*
X149727220Y-111909646D01*
X149729432Y-111913762D01*
X149729433Y-111913765D01*
X149742608Y-111938284D01*
X149854450Y-112146431D01*
X149857241Y-112150168D01*
X149857245Y-112150175D01*
X149938887Y-112259506D01*
X150015281Y-112361810D01*
X150018590Y-112365090D01*
X150018595Y-112365096D01*
X150202863Y-112547762D01*
X150206180Y-112551050D01*
X150209942Y-112553808D01*
X150209945Y-112553811D01*
X150322299Y-112636192D01*
X150422954Y-112709995D01*
X150427089Y-112712171D01*
X150427093Y-112712173D01*
X150656698Y-112832975D01*
X150660840Y-112835154D01*
X150914613Y-112923775D01*
X150919206Y-112924647D01*
X151174109Y-112973042D01*
X151174112Y-112973042D01*
X151178698Y-112973913D01*
X151306370Y-112978929D01*
X151442625Y-112984283D01*
X151442630Y-112984283D01*
X151447293Y-112984466D01*
X151551607Y-112973042D01*
X151709844Y-112955713D01*
X151709850Y-112955712D01*
X151714497Y-112955203D01*
X151719021Y-112954012D01*
X151969918Y-112887956D01*
X151969920Y-112887955D01*
X151974441Y-112886765D01*
X151978738Y-112884919D01*
X152217120Y-112782502D01*
X152217122Y-112782501D01*
X152221414Y-112780657D01*
X152340071Y-112707230D01*
X152446017Y-112641669D01*
X152446021Y-112641666D01*
X152449990Y-112639210D01*
X152655149Y-112465530D01*
X152832382Y-112263434D01*
X152977797Y-112037361D01*
X153088199Y-111792278D01*
X153161163Y-111533568D01*
X153168614Y-111474998D01*
X153197053Y-111409947D01*
X153256147Y-111370597D01*
X153293607Y-111364900D01*
X156533792Y-111364900D01*
X156601913Y-111384902D01*
X156637005Y-111418629D01*
X156724643Y-111543789D01*
X156727802Y-111548300D01*
X156889700Y-111710198D01*
X156894208Y-111713355D01*
X156894211Y-111713357D01*
X156911849Y-111725707D01*
X157077251Y-111841523D01*
X157082233Y-111843846D01*
X157082238Y-111843849D01*
X157223342Y-111909646D01*
X157284757Y-111938284D01*
X157290065Y-111939706D01*
X157290067Y-111939707D01*
X157500598Y-111996119D01*
X157500600Y-111996119D01*
X157505913Y-111997543D01*
X157734000Y-112017498D01*
X157962087Y-111997543D01*
X157967400Y-111996119D01*
X157967402Y-111996119D01*
X158177933Y-111939707D01*
X158177935Y-111939706D01*
X158183243Y-111938284D01*
X158244658Y-111909646D01*
X158385762Y-111843849D01*
X158385767Y-111843846D01*
X158390749Y-111841523D01*
X158556151Y-111725707D01*
X158573789Y-111713357D01*
X158573792Y-111713355D01*
X158578300Y-111710198D01*
X158740198Y-111548300D01*
X158747366Y-111538064D01*
X158837074Y-111409947D01*
X158871523Y-111360749D01*
X158873846Y-111355767D01*
X158873849Y-111355762D01*
X158935453Y-111223650D01*
X158982370Y-111170365D01*
X159049648Y-111150900D01*
X159835792Y-111150900D01*
X159903913Y-111170902D01*
X159939005Y-111204629D01*
X160029802Y-111334300D01*
X160191700Y-111496198D01*
X160196208Y-111499355D01*
X160196211Y-111499357D01*
X160238457Y-111528938D01*
X160379251Y-111627523D01*
X160384233Y-111629846D01*
X160384238Y-111629849D01*
X160581775Y-111721961D01*
X160586757Y-111724284D01*
X160592065Y-111725706D01*
X160592067Y-111725707D01*
X160802598Y-111782119D01*
X160802600Y-111782119D01*
X160807913Y-111783543D01*
X161036000Y-111803498D01*
X161264087Y-111783543D01*
X161269400Y-111782119D01*
X161269402Y-111782119D01*
X161479933Y-111725707D01*
X161479935Y-111725706D01*
X161485243Y-111724284D01*
X161490225Y-111721961D01*
X161687762Y-111629849D01*
X161687767Y-111629846D01*
X161692749Y-111627523D01*
X161833543Y-111528938D01*
X161875789Y-111499357D01*
X161875792Y-111499355D01*
X161880300Y-111496198D01*
X162042198Y-111334300D01*
X162173523Y-111146749D01*
X162175846Y-111141767D01*
X162175849Y-111141762D01*
X162267961Y-110944225D01*
X162267961Y-110944224D01*
X162270284Y-110939243D01*
X162290038Y-110865523D01*
X162328119Y-110723402D01*
X162328119Y-110723400D01*
X162329543Y-110718087D01*
X162349498Y-110490000D01*
X162329543Y-110261913D01*
X162270284Y-110040757D01*
X162248997Y-109995106D01*
X162175849Y-109838238D01*
X162175846Y-109838233D01*
X162173523Y-109833251D01*
X162078680Y-109697802D01*
X162045357Y-109650211D01*
X162045355Y-109650208D01*
X162042198Y-109645700D01*
X161880300Y-109483802D01*
X161875792Y-109480645D01*
X161875789Y-109480643D01*
X161772812Y-109408538D01*
X161692749Y-109352477D01*
X161687767Y-109350154D01*
X161687762Y-109350151D01*
X161490225Y-109258039D01*
X161490224Y-109258039D01*
X161485243Y-109255716D01*
X161479935Y-109254294D01*
X161479933Y-109254293D01*
X161269402Y-109197881D01*
X161269400Y-109197881D01*
X161264087Y-109196457D01*
X161036000Y-109176502D01*
X160807913Y-109196457D01*
X160802600Y-109197881D01*
X160802598Y-109197881D01*
X160592067Y-109254293D01*
X160592065Y-109254294D01*
X160586757Y-109255716D01*
X160581776Y-109258039D01*
X160581775Y-109258039D01*
X160384238Y-109350151D01*
X160384233Y-109350154D01*
X160379251Y-109352477D01*
X160299188Y-109408538D01*
X160196211Y-109480643D01*
X160196208Y-109480645D01*
X160191700Y-109483802D01*
X160029802Y-109645700D01*
X160026645Y-109650208D01*
X160026643Y-109650211D01*
X159939005Y-109775371D01*
X159883548Y-109819699D01*
X159835792Y-109829100D01*
X158761788Y-109829100D01*
X158693667Y-109809098D01*
X158672693Y-109792195D01*
X158578300Y-109697802D01*
X158573792Y-109694645D01*
X158573789Y-109694643D01*
X158452012Y-109609374D01*
X158390749Y-109566477D01*
X158385767Y-109564154D01*
X158385762Y-109564151D01*
X158188225Y-109472039D01*
X158188224Y-109472039D01*
X158183243Y-109469716D01*
X158177935Y-109468294D01*
X158177933Y-109468293D01*
X157967402Y-109411881D01*
X157967400Y-109411881D01*
X157962087Y-109410457D01*
X157734000Y-109390502D01*
X157505913Y-109410457D01*
X157500600Y-109411881D01*
X157500598Y-109411881D01*
X157290067Y-109468293D01*
X157290065Y-109468294D01*
X157284757Y-109469716D01*
X157279776Y-109472039D01*
X157279775Y-109472039D01*
X157082238Y-109564151D01*
X157082233Y-109564154D01*
X157077251Y-109566477D01*
X157015988Y-109609374D01*
X156894211Y-109694643D01*
X156894208Y-109694645D01*
X156889700Y-109697802D01*
X156727802Y-109859700D01*
X156724645Y-109864208D01*
X156724643Y-109864211D01*
X156637005Y-109989371D01*
X156581548Y-110033699D01*
X156533792Y-110043100D01*
X152858161Y-110043100D01*
X152790040Y-110023098D01*
X152759211Y-109995106D01*
X152723997Y-109950437D01*
X152723994Y-109950434D01*
X152721105Y-109946769D01*
X152525317Y-109762591D01*
X152304457Y-109609374D01*
X152300264Y-109607306D01*
X152067564Y-109492551D01*
X152067561Y-109492550D01*
X152063376Y-109490486D01*
X152054670Y-109487699D01*
X151942733Y-109451868D01*
X151807370Y-109408538D01*
X151802763Y-109407788D01*
X151802760Y-109407787D01*
X151546674Y-109366081D01*
X151546675Y-109366081D01*
X151542063Y-109365330D01*
X151411719Y-109363624D01*
X151277961Y-109361873D01*
X151277958Y-109361873D01*
X151273284Y-109361812D01*
X151006937Y-109398060D01*
X151002451Y-109399368D01*
X151002449Y-109399368D01*
X150959519Y-109411881D01*
X150748874Y-109473278D01*
X150741832Y-109476524D01*
X150740364Y-109477201D01*
X150670126Y-109487553D01*
X150605441Y-109458289D01*
X150598521Y-109451868D01*
X149073805Y-107927152D01*
X149039779Y-107864840D01*
X149036900Y-107838057D01*
X149036900Y-103816208D01*
X149056902Y-103748087D01*
X149090629Y-103712995D01*
X149215789Y-103625357D01*
X149215792Y-103625355D01*
X149220300Y-103622198D01*
X149382198Y-103460300D01*
X149513523Y-103272749D01*
X149515846Y-103267767D01*
X149515849Y-103267762D01*
X149607961Y-103070225D01*
X149607961Y-103070224D01*
X149610284Y-103065243D01*
X149620799Y-103026003D01*
X149668119Y-102849402D01*
X149668119Y-102849400D01*
X149669543Y-102844087D01*
X149689498Y-102616000D01*
X149669543Y-102387913D01*
X149662600Y-102362000D01*
X149611707Y-102172067D01*
X149611706Y-102172065D01*
X149610284Y-102166757D01*
X149605348Y-102156171D01*
X149515849Y-101964238D01*
X149515846Y-101964233D01*
X149513523Y-101959251D01*
X149424846Y-101832607D01*
X149385357Y-101776211D01*
X149385355Y-101776208D01*
X149382198Y-101771700D01*
X149220300Y-101609802D01*
X149215792Y-101606645D01*
X149215789Y-101606643D01*
X149090629Y-101519005D01*
X149046301Y-101463548D01*
X149036900Y-101415792D01*
X149036900Y-101155199D01*
X149056902Y-101087078D01*
X149090630Y-101051986D01*
X149175784Y-100992361D01*
X149175790Y-100992356D01*
X149180300Y-100989198D01*
X149342198Y-100827300D01*
X149473523Y-100639749D01*
X149475846Y-100634767D01*
X149475849Y-100634762D01*
X149491805Y-100600543D01*
X149538722Y-100547258D01*
X149606999Y-100527797D01*
X149674959Y-100548339D01*
X149720195Y-100600543D01*
X149736151Y-100634762D01*
X149736154Y-100634767D01*
X149738477Y-100639749D01*
X149869802Y-100827300D01*
X150031700Y-100989198D01*
X150036208Y-100992355D01*
X150036211Y-100992357D01*
X150097222Y-101035077D01*
X150219251Y-101120523D01*
X150224233Y-101122846D01*
X150224238Y-101122849D01*
X150413744Y-101211216D01*
X150426757Y-101217284D01*
X150434244Y-101219290D01*
X150629712Y-101271666D01*
X150690334Y-101308618D01*
X150721356Y-101372479D01*
X150723100Y-101393373D01*
X150723100Y-104404502D01*
X150703098Y-104472623D01*
X150649851Y-104518928D01*
X150588276Y-104547315D01*
X150504763Y-104585815D01*
X150478393Y-104603104D01*
X150283881Y-104730631D01*
X150283876Y-104730635D01*
X150279968Y-104733197D01*
X150243443Y-104765797D01*
X150085063Y-104907157D01*
X150079426Y-104912188D01*
X149907544Y-105118854D01*
X149905121Y-105122847D01*
X149826189Y-105252923D01*
X149768096Y-105348656D01*
X149766287Y-105352970D01*
X149766285Y-105352974D01*
X149698237Y-105515251D01*
X149664148Y-105596545D01*
X149597981Y-105857077D01*
X149571050Y-106124526D01*
X149571274Y-106129192D01*
X149571274Y-106129197D01*
X149573067Y-106166525D01*
X149583947Y-106393019D01*
X149636388Y-106656656D01*
X149727220Y-106909646D01*
X149729432Y-106913762D01*
X149729433Y-106913765D01*
X149793555Y-107033100D01*
X149854450Y-107146431D01*
X149857241Y-107150168D01*
X149857245Y-107150175D01*
X149880530Y-107181357D01*
X150015281Y-107361810D01*
X150018590Y-107365090D01*
X150018595Y-107365096D01*
X150202863Y-107547762D01*
X150206180Y-107551050D01*
X150209942Y-107553808D01*
X150209945Y-107553811D01*
X150322299Y-107636192D01*
X150422954Y-107709995D01*
X150427089Y-107712171D01*
X150427093Y-107712173D01*
X150627329Y-107817523D01*
X150660840Y-107835154D01*
X150669153Y-107838057D01*
X150891510Y-107915707D01*
X150914613Y-107923775D01*
X150919206Y-107924647D01*
X151174109Y-107973042D01*
X151174112Y-107973042D01*
X151178698Y-107973913D01*
X151306370Y-107978929D01*
X151442625Y-107984283D01*
X151442630Y-107984283D01*
X151447293Y-107984466D01*
X151541983Y-107974096D01*
X151709844Y-107955713D01*
X151709850Y-107955712D01*
X151714497Y-107955203D01*
X151719021Y-107954012D01*
X151969918Y-107887956D01*
X151969920Y-107887955D01*
X151974441Y-107886765D01*
X152087812Y-107838057D01*
X152217120Y-107782502D01*
X152217122Y-107782501D01*
X152221414Y-107780657D01*
X152340071Y-107707230D01*
X152446017Y-107641669D01*
X152446021Y-107641666D01*
X152449990Y-107639210D01*
X152655149Y-107465530D01*
X152832382Y-107263434D01*
X152977797Y-107037361D01*
X153088199Y-106792278D01*
X153090671Y-106783515D01*
X153122488Y-106670699D01*
X153160229Y-106610565D01*
X153224491Y-106580382D01*
X153243757Y-106578900D01*
X156706212Y-106578900D01*
X156774333Y-106598902D01*
X156795307Y-106615805D01*
X156889700Y-106710198D01*
X156894208Y-106713355D01*
X156894211Y-106713357D01*
X156944158Y-106748330D01*
X157077251Y-106841523D01*
X157082233Y-106843846D01*
X157082238Y-106843849D01*
X157256258Y-106924995D01*
X157284757Y-106938284D01*
X157290065Y-106939706D01*
X157290067Y-106939707D01*
X157500598Y-106996119D01*
X157500600Y-106996119D01*
X157505913Y-106997543D01*
X157734000Y-107017498D01*
X157962087Y-106997543D01*
X157967400Y-106996119D01*
X157967402Y-106996119D01*
X158177933Y-106939707D01*
X158177935Y-106939706D01*
X158183243Y-106938284D01*
X158211742Y-106924995D01*
X158385762Y-106843849D01*
X158385767Y-106843846D01*
X158390749Y-106841523D01*
X158523842Y-106748330D01*
X158573789Y-106713357D01*
X158573792Y-106713355D01*
X158578300Y-106710198D01*
X158740198Y-106548300D01*
X158807689Y-106451913D01*
X158830995Y-106418629D01*
X158886452Y-106374301D01*
X158934208Y-106364900D01*
X159612564Y-106364900D01*
X159680685Y-106384902D01*
X159727178Y-106438558D01*
X159738085Y-106501881D01*
X159727481Y-106623085D01*
X159722502Y-106680000D01*
X159742457Y-106908087D01*
X159743881Y-106913400D01*
X159743881Y-106913402D01*
X159750930Y-106939707D01*
X159801716Y-107129243D01*
X159804039Y-107134224D01*
X159804039Y-107134225D01*
X159896151Y-107331762D01*
X159896154Y-107331767D01*
X159898477Y-107336749D01*
X160029802Y-107524300D01*
X160191700Y-107686198D01*
X160196208Y-107689355D01*
X160196211Y-107689357D01*
X160228796Y-107712173D01*
X160379251Y-107817523D01*
X160384233Y-107819846D01*
X160384238Y-107819849D01*
X160530296Y-107887956D01*
X160586757Y-107914284D01*
X160592065Y-107915706D01*
X160592067Y-107915707D01*
X160802598Y-107972119D01*
X160802600Y-107972119D01*
X160807913Y-107973543D01*
X161036000Y-107993498D01*
X161264087Y-107973543D01*
X161269400Y-107972119D01*
X161269402Y-107972119D01*
X161479933Y-107915707D01*
X161479935Y-107915706D01*
X161485243Y-107914284D01*
X161541704Y-107887956D01*
X161687762Y-107819849D01*
X161687767Y-107819846D01*
X161692749Y-107817523D01*
X161843204Y-107712173D01*
X161875789Y-107689357D01*
X161875792Y-107689355D01*
X161880300Y-107686198D01*
X162042198Y-107524300D01*
X162173523Y-107336749D01*
X162175846Y-107331767D01*
X162175849Y-107331762D01*
X162267961Y-107134225D01*
X162267961Y-107134224D01*
X162270284Y-107129243D01*
X162321071Y-106939707D01*
X162328119Y-106913402D01*
X162328119Y-106913400D01*
X162329543Y-106908087D01*
X162349498Y-106680000D01*
X162329543Y-106451913D01*
X162306415Y-106365597D01*
X162271707Y-106236067D01*
X162271706Y-106236065D01*
X162270284Y-106230757D01*
X162256395Y-106200971D01*
X162175849Y-106028238D01*
X162175846Y-106028233D01*
X162173523Y-106023251D01*
X162060428Y-105861735D01*
X162045357Y-105840211D01*
X162045355Y-105840208D01*
X162042198Y-105835700D01*
X161880300Y-105673802D01*
X161875792Y-105670645D01*
X161875789Y-105670643D01*
X161763805Y-105592231D01*
X161692749Y-105542477D01*
X161687767Y-105540154D01*
X161687762Y-105540151D01*
X161490225Y-105448039D01*
X161490224Y-105448039D01*
X161485243Y-105445716D01*
X161479935Y-105444294D01*
X161479933Y-105444293D01*
X161269402Y-105387881D01*
X161269400Y-105387881D01*
X161264087Y-105386457D01*
X161036000Y-105366502D01*
X160807913Y-105386457D01*
X160802600Y-105387881D01*
X160802598Y-105387881D01*
X160775018Y-105395271D01*
X160704041Y-105393581D01*
X160653312Y-105362659D01*
X160546614Y-105255961D01*
X160540760Y-105249695D01*
X160523915Y-105230385D01*
X160505476Y-105209248D01*
X160456898Y-105175107D01*
X160451604Y-105171175D01*
X160439804Y-105161922D01*
X160404879Y-105134537D01*
X160397955Y-105131411D01*
X160391824Y-105127698D01*
X160387204Y-105125062D01*
X160380822Y-105121640D01*
X160374603Y-105117269D01*
X160319286Y-105095701D01*
X160313207Y-105093146D01*
X160259088Y-105068711D01*
X160251612Y-105067325D01*
X160244734Y-105065170D01*
X160239609Y-105063710D01*
X160232645Y-105061922D01*
X160225566Y-105059162D01*
X160218034Y-105058170D01*
X160218032Y-105058170D01*
X160192804Y-105054849D01*
X160166700Y-105051413D01*
X160160202Y-105050384D01*
X160101803Y-105039560D01*
X160094223Y-105039997D01*
X160094222Y-105039997D01*
X160044033Y-105042891D01*
X160036780Y-105043100D01*
X158934208Y-105043100D01*
X158866087Y-105023098D01*
X158830995Y-104989371D01*
X158743357Y-104864211D01*
X158743355Y-104864208D01*
X158740198Y-104859700D01*
X158578300Y-104697802D01*
X158573792Y-104694645D01*
X158573789Y-104694643D01*
X158486552Y-104633559D01*
X158390749Y-104566477D01*
X158385767Y-104564154D01*
X158385762Y-104564151D01*
X158188225Y-104472039D01*
X158188224Y-104472039D01*
X158183243Y-104469716D01*
X158177935Y-104468294D01*
X158177933Y-104468293D01*
X157967402Y-104411881D01*
X157967400Y-104411881D01*
X157962087Y-104410457D01*
X157734000Y-104390502D01*
X157505913Y-104410457D01*
X157500600Y-104411881D01*
X157500598Y-104411881D01*
X157290067Y-104468293D01*
X157290065Y-104468294D01*
X157284757Y-104469716D01*
X157279776Y-104472039D01*
X157279775Y-104472039D01*
X157082238Y-104564151D01*
X157082233Y-104564154D01*
X157077251Y-104566477D01*
X156981448Y-104633559D01*
X156894211Y-104694643D01*
X156894208Y-104694645D01*
X156889700Y-104697802D01*
X156727802Y-104859700D01*
X156596477Y-105047251D01*
X156594154Y-105052233D01*
X156594151Y-105052238D01*
X156532547Y-105184350D01*
X156485630Y-105237635D01*
X156418352Y-105257100D01*
X153017349Y-105257100D01*
X152949228Y-105237098D01*
X152907956Y-105193623D01*
X152889837Y-105161922D01*
X152887518Y-105157864D01*
X152882653Y-105151692D01*
X152795346Y-105040944D01*
X152721105Y-104946769D01*
X152525317Y-104762591D01*
X152349561Y-104640664D01*
X152308299Y-104612039D01*
X152308296Y-104612037D01*
X152304457Y-104609374D01*
X152279530Y-104597081D01*
X152115172Y-104516029D01*
X152062923Y-104467961D01*
X152044900Y-104403023D01*
X152044900Y-103395913D01*
X152064902Y-103327792D01*
X152118558Y-103281299D01*
X152188832Y-103271195D01*
X152253412Y-103300689D01*
X152274112Y-103323641D01*
X152369802Y-103460300D01*
X152531700Y-103622198D01*
X152536208Y-103625355D01*
X152536211Y-103625357D01*
X152581075Y-103656771D01*
X152719251Y-103753523D01*
X152724233Y-103755846D01*
X152724238Y-103755849D01*
X152853680Y-103816208D01*
X152926757Y-103850284D01*
X152932065Y-103851706D01*
X152932067Y-103851707D01*
X153142598Y-103908119D01*
X153142600Y-103908119D01*
X153147913Y-103909543D01*
X153376000Y-103929498D01*
X153604087Y-103909543D01*
X153609400Y-103908119D01*
X153609402Y-103908119D01*
X153819933Y-103851707D01*
X153819935Y-103851706D01*
X153825243Y-103850284D01*
X153898320Y-103816208D01*
X154027762Y-103755849D01*
X154027767Y-103755846D01*
X154032749Y-103753523D01*
X154170925Y-103656771D01*
X154215789Y-103625357D01*
X154215792Y-103625355D01*
X154220300Y-103622198D01*
X154382198Y-103460300D01*
X154393039Y-103444818D01*
X154472995Y-103330629D01*
X154528452Y-103286301D01*
X154576208Y-103276900D01*
X155634737Y-103276900D01*
X155643308Y-103277192D01*
X155696843Y-103280842D01*
X155704320Y-103279537D01*
X155704321Y-103279537D01*
X155729626Y-103275121D01*
X155755347Y-103270631D01*
X155761865Y-103269670D01*
X155780223Y-103267448D01*
X155813262Y-103263450D01*
X155813264Y-103263450D01*
X155820805Y-103262537D01*
X155827913Y-103259851D01*
X155834879Y-103258140D01*
X155840068Y-103256721D01*
X155846947Y-103254644D01*
X155854424Y-103253339D01*
X155908795Y-103229471D01*
X155914886Y-103226986D01*
X155963336Y-103208679D01*
X155963338Y-103208678D01*
X155970441Y-103205994D01*
X155976702Y-103201691D01*
X155983026Y-103198385D01*
X155987798Y-103195729D01*
X155993944Y-103192094D01*
X156000896Y-103189042D01*
X156048001Y-103152898D01*
X156053334Y-103149023D01*
X156102271Y-103115389D01*
X156140769Y-103072180D01*
X156145749Y-103066905D01*
X158182047Y-101030607D01*
X158188313Y-101024753D01*
X158223025Y-100994472D01*
X158228752Y-100989476D01*
X158262892Y-100940900D01*
X158266818Y-100935614D01*
X158298774Y-100894858D01*
X158303463Y-100888878D01*
X158306591Y-100881950D01*
X158310319Y-100875794D01*
X158312954Y-100871175D01*
X158316362Y-100864819D01*
X158320731Y-100858603D01*
X158334694Y-100822789D01*
X158342292Y-100803302D01*
X158344848Y-100797221D01*
X158366166Y-100750007D01*
X158369290Y-100743088D01*
X158370673Y-100735625D01*
X158372810Y-100728807D01*
X158374287Y-100723622D01*
X158376078Y-100716645D01*
X158378838Y-100709566D01*
X158386589Y-100650692D01*
X158387620Y-100644183D01*
X158397056Y-100593269D01*
X158398440Y-100585802D01*
X158395109Y-100528031D01*
X158394900Y-100520779D01*
X158394900Y-96039263D01*
X158395192Y-96030692D01*
X158398325Y-95984733D01*
X158398842Y-95977157D01*
X158397072Y-95967012D01*
X158388632Y-95918657D01*
X158387669Y-95912131D01*
X158381450Y-95860738D01*
X158381450Y-95860736D01*
X158380537Y-95853195D01*
X158377851Y-95846087D01*
X158376140Y-95839121D01*
X158374721Y-95833932D01*
X158372644Y-95827053D01*
X158371339Y-95819576D01*
X158347471Y-95765205D01*
X158344986Y-95759114D01*
X158342628Y-95752872D01*
X158336671Y-95737109D01*
X158326679Y-95710664D01*
X158326678Y-95710662D01*
X158323994Y-95703559D01*
X158319691Y-95697298D01*
X158316385Y-95690974D01*
X158313729Y-95686202D01*
X158310094Y-95680056D01*
X158307042Y-95673104D01*
X158277851Y-95635061D01*
X158270898Y-95625999D01*
X158267023Y-95620666D01*
X158233389Y-95571729D01*
X158190180Y-95533231D01*
X158184905Y-95528251D01*
X157308503Y-94651849D01*
X156429296Y-93772643D01*
X156395271Y-93710331D01*
X156400335Y-93639516D01*
X156442882Y-93582680D01*
X156465142Y-93569353D01*
X156607758Y-93502851D01*
X156607764Y-93502847D01*
X156612749Y-93500523D01*
X156721606Y-93424300D01*
X156795789Y-93372357D01*
X156795792Y-93372355D01*
X156800300Y-93369198D01*
X156962198Y-93207300D01*
X156979047Y-93183238D01*
X157030097Y-93110330D01*
X157093523Y-93019749D01*
X157095846Y-93014767D01*
X157095849Y-93014762D01*
X157154997Y-92887916D01*
X157190284Y-92812243D01*
X157215727Y-92717288D01*
X157252679Y-92656666D01*
X157316539Y-92625645D01*
X157337434Y-92623900D01*
X157971056Y-92623900D01*
X158039177Y-92643902D01*
X158060151Y-92660805D01*
X159358302Y-93958956D01*
X159392328Y-94021268D01*
X159385405Y-94096774D01*
X159356148Y-94166545D01*
X159289981Y-94427077D01*
X159263050Y-94694526D01*
X159263274Y-94699192D01*
X159263274Y-94699197D01*
X159265854Y-94752897D01*
X159275947Y-94963019D01*
X159328388Y-95226656D01*
X159419220Y-95479646D01*
X159421432Y-95483762D01*
X159421433Y-95483765D01*
X159497859Y-95625999D01*
X159546450Y-95716431D01*
X159549241Y-95720168D01*
X159549245Y-95720175D01*
X159638067Y-95839121D01*
X159707281Y-95931810D01*
X159710590Y-95935090D01*
X159710595Y-95935096D01*
X159858695Y-96081908D01*
X159898180Y-96121050D01*
X159901942Y-96123808D01*
X159901945Y-96123811D01*
X160001145Y-96196547D01*
X160114954Y-96279995D01*
X160119089Y-96282171D01*
X160119093Y-96282173D01*
X160342597Y-96399765D01*
X160352840Y-96405154D01*
X160606613Y-96493775D01*
X160611206Y-96494647D01*
X160866109Y-96543042D01*
X160866112Y-96543042D01*
X160870698Y-96543913D01*
X160998370Y-96548929D01*
X161134625Y-96554283D01*
X161134630Y-96554283D01*
X161139293Y-96554466D01*
X161243607Y-96543042D01*
X161401844Y-96525713D01*
X161401850Y-96525712D01*
X161406497Y-96525203D01*
X161490837Y-96502998D01*
X161661918Y-96457956D01*
X161661920Y-96457955D01*
X161666441Y-96456765D01*
X161670738Y-96454919D01*
X161909120Y-96352502D01*
X161909122Y-96352501D01*
X161913414Y-96350657D01*
X162032071Y-96277230D01*
X162138017Y-96211669D01*
X162138021Y-96211666D01*
X162141990Y-96209210D01*
X162347149Y-96035530D01*
X162347379Y-96035802D01*
X162407786Y-96003495D01*
X162478555Y-96009174D01*
X162535020Y-96052212D01*
X162559252Y-96118945D01*
X162559500Y-96126843D01*
X162559500Y-101537724D01*
X162558763Y-101551332D01*
X162554638Y-101589304D01*
X162555768Y-101602217D01*
X162559046Y-101639690D01*
X162559375Y-101644518D01*
X162559500Y-101647073D01*
X162559500Y-101650157D01*
X162559801Y-101653224D01*
X162563722Y-101693219D01*
X162563844Y-101694532D01*
X162565218Y-101710238D01*
X162572012Y-101787892D01*
X162573511Y-101793052D01*
X162574035Y-101798394D01*
X162599383Y-101882350D01*
X162601098Y-101888031D01*
X162601455Y-101889236D01*
X162627628Y-101979322D01*
X162630100Y-101984090D01*
X162631652Y-101989232D01*
X162634547Y-101994677D01*
X162634550Y-101994684D01*
X162675633Y-102071950D01*
X162676213Y-102073054D01*
X162719366Y-102156304D01*
X162722718Y-102160503D01*
X162725239Y-102165244D01*
X162729131Y-102170016D01*
X162784438Y-102237829D01*
X162785266Y-102238855D01*
X162802865Y-102260900D01*
X162816768Y-102278316D01*
X162819263Y-102280811D01*
X162819973Y-102281605D01*
X162823693Y-102285960D01*
X162847337Y-102314951D01*
X162847340Y-102314954D01*
X162851232Y-102319726D01*
X162855980Y-102323654D01*
X162855981Y-102323655D01*
X162886873Y-102349211D01*
X162895652Y-102357200D01*
X167321967Y-106783515D01*
X167355993Y-106845827D01*
X167358392Y-106861627D01*
X167362457Y-106908087D01*
X167421716Y-107129243D01*
X167424039Y-107134224D01*
X167424039Y-107134225D01*
X167516151Y-107331762D01*
X167516154Y-107331767D01*
X167518477Y-107336749D01*
X167521634Y-107341257D01*
X167616713Y-107477044D01*
X167639500Y-107549315D01*
X167639500Y-109620685D01*
X167616713Y-109692956D01*
X167518477Y-109833251D01*
X167516154Y-109838233D01*
X167516151Y-109838238D01*
X167443003Y-109995106D01*
X167421716Y-110040757D01*
X167362457Y-110261913D01*
X167342502Y-110490000D01*
X167362457Y-110718087D01*
X167363881Y-110723400D01*
X167363881Y-110723402D01*
X167401963Y-110865523D01*
X167421716Y-110939243D01*
X167424039Y-110944224D01*
X167424039Y-110944225D01*
X167516151Y-111141762D01*
X167516154Y-111141767D01*
X167518477Y-111146749D01*
X167649802Y-111334300D01*
X167811700Y-111496198D01*
X167816208Y-111499355D01*
X167816211Y-111499357D01*
X167858457Y-111528938D01*
X167999251Y-111627523D01*
X168004233Y-111629846D01*
X168004238Y-111629849D01*
X168201775Y-111721961D01*
X168206757Y-111724284D01*
X168212065Y-111725706D01*
X168212067Y-111725707D01*
X168422598Y-111782119D01*
X168422600Y-111782119D01*
X168427913Y-111783543D01*
X168656000Y-111803498D01*
X168884087Y-111783543D01*
X168889400Y-111782119D01*
X168889402Y-111782119D01*
X169099933Y-111725707D01*
X169099935Y-111725706D01*
X169105243Y-111724284D01*
X169110225Y-111721961D01*
X169307762Y-111629849D01*
X169307767Y-111629846D01*
X169312749Y-111627523D01*
X169453543Y-111528938D01*
X169495789Y-111499357D01*
X169495792Y-111499355D01*
X169500300Y-111496198D01*
X169662198Y-111334300D01*
X169793523Y-111146749D01*
X169795846Y-111141767D01*
X169795849Y-111141762D01*
X169887961Y-110944225D01*
X169887961Y-110944224D01*
X169890284Y-110939243D01*
X169910038Y-110865523D01*
X169948119Y-110723402D01*
X169948119Y-110723400D01*
X169949543Y-110718087D01*
X169969498Y-110490000D01*
X169949543Y-110261913D01*
X169890284Y-110040757D01*
X169868997Y-109995106D01*
X169795849Y-109838238D01*
X169795846Y-109838233D01*
X169793523Y-109833251D01*
X169695287Y-109692956D01*
X169672500Y-109620685D01*
X169672500Y-107549315D01*
X169695287Y-107477044D01*
X169790366Y-107341257D01*
X169793523Y-107336749D01*
X169795846Y-107331767D01*
X169795849Y-107331762D01*
X169887961Y-107134225D01*
X169887961Y-107134224D01*
X169890284Y-107129243D01*
X169941071Y-106939707D01*
X169948119Y-106913402D01*
X169948119Y-106913400D01*
X169949543Y-106908087D01*
X169969498Y-106680000D01*
X169949543Y-106451913D01*
X169926415Y-106365597D01*
X169891707Y-106236067D01*
X169891706Y-106236065D01*
X169890284Y-106230757D01*
X169876395Y-106200971D01*
X169795849Y-106028238D01*
X169795846Y-106028233D01*
X169793523Y-106023251D01*
X169680428Y-105861735D01*
X169665357Y-105840211D01*
X169665355Y-105840208D01*
X169662198Y-105835700D01*
X169500300Y-105673802D01*
X169495792Y-105670645D01*
X169495789Y-105670643D01*
X169383805Y-105592231D01*
X169312749Y-105542477D01*
X169307767Y-105540154D01*
X169307762Y-105540151D01*
X169110225Y-105448039D01*
X169110224Y-105448039D01*
X169105243Y-105445716D01*
X169099935Y-105444294D01*
X169099933Y-105444293D01*
X169021748Y-105423343D01*
X168884087Y-105386457D01*
X168854272Y-105383848D01*
X168837627Y-105382392D01*
X168771509Y-105356529D01*
X168759515Y-105345967D01*
X164629405Y-101215857D01*
X164595379Y-101153545D01*
X164592500Y-101126762D01*
X164592500Y-96120350D01*
X164612502Y-96052229D01*
X164666158Y-96005736D01*
X164736432Y-95995632D01*
X164801012Y-96025126D01*
X164807197Y-96030857D01*
X164898180Y-96121050D01*
X164901942Y-96123808D01*
X164901945Y-96123811D01*
X165001145Y-96196547D01*
X165114954Y-96279995D01*
X165119089Y-96282171D01*
X165119093Y-96282173D01*
X165342597Y-96399765D01*
X165352840Y-96405154D01*
X165606613Y-96493775D01*
X165611206Y-96494647D01*
X165866109Y-96543042D01*
X165866112Y-96543042D01*
X165870698Y-96543913D01*
X165998370Y-96548929D01*
X166134625Y-96554283D01*
X166134630Y-96554283D01*
X166139293Y-96554466D01*
X166243607Y-96543042D01*
X166401844Y-96525713D01*
X166401850Y-96525712D01*
X166406497Y-96525203D01*
X166490837Y-96502998D01*
X166661918Y-96457956D01*
X166661920Y-96457955D01*
X166666441Y-96456765D01*
X166670738Y-96454919D01*
X166670744Y-96454917D01*
X166720657Y-96433472D01*
X166791142Y-96424959D01*
X166859491Y-96460144D01*
X168830076Y-98430729D01*
X168864102Y-98493041D01*
X168866143Y-98512031D01*
X168866502Y-98512000D01*
X168886457Y-98740087D01*
X168887881Y-98745400D01*
X168887881Y-98745402D01*
X168921320Y-98870195D01*
X168945716Y-98961243D01*
X168948039Y-98966224D01*
X168948039Y-98966225D01*
X169040151Y-99163762D01*
X169040154Y-99163767D01*
X169042477Y-99168749D01*
X169173802Y-99356300D01*
X169335700Y-99518198D01*
X169340208Y-99521355D01*
X169340211Y-99521357D01*
X169418389Y-99576098D01*
X169523251Y-99649523D01*
X169528233Y-99651846D01*
X169528238Y-99651849D01*
X169725775Y-99743961D01*
X169730757Y-99746284D01*
X169736065Y-99747706D01*
X169736067Y-99747707D01*
X169946598Y-99804119D01*
X169946600Y-99804119D01*
X169951913Y-99805543D01*
X170180000Y-99825498D01*
X170408087Y-99805543D01*
X170413400Y-99804119D01*
X170413402Y-99804119D01*
X170623933Y-99747707D01*
X170623935Y-99747706D01*
X170629243Y-99746284D01*
X170634225Y-99743961D01*
X170831762Y-99651849D01*
X170831767Y-99651846D01*
X170836749Y-99649523D01*
X170941611Y-99576098D01*
X171019789Y-99521357D01*
X171019792Y-99521355D01*
X171024300Y-99518198D01*
X171186198Y-99356300D01*
X171317523Y-99168749D01*
X171319846Y-99163767D01*
X171319849Y-99163762D01*
X171411961Y-98966225D01*
X171411961Y-98966224D01*
X171414284Y-98961243D01*
X171438681Y-98870195D01*
X171472119Y-98745402D01*
X171472119Y-98745400D01*
X171473543Y-98740087D01*
X171493498Y-98512000D01*
X171473543Y-98283913D01*
X171468552Y-98265285D01*
X171415707Y-98068067D01*
X171415706Y-98068065D01*
X171414284Y-98062757D01*
X171408761Y-98050913D01*
X171319849Y-97860238D01*
X171319846Y-97860233D01*
X171317523Y-97855251D01*
X171204710Y-97694138D01*
X171189357Y-97672211D01*
X171189355Y-97672208D01*
X171186198Y-97667700D01*
X171024300Y-97505802D01*
X171019792Y-97502645D01*
X171019789Y-97502643D01*
X170924813Y-97436140D01*
X170836749Y-97374477D01*
X170831767Y-97372154D01*
X170831762Y-97372151D01*
X170634225Y-97280039D01*
X170634224Y-97280039D01*
X170629243Y-97277716D01*
X170623935Y-97276294D01*
X170623933Y-97276293D01*
X170413402Y-97219881D01*
X170413400Y-97219881D01*
X170408087Y-97218457D01*
X170180000Y-97198502D01*
X169951913Y-97218457D01*
X169946600Y-97219881D01*
X169946598Y-97219881D01*
X169736067Y-97276293D01*
X169736065Y-97276294D01*
X169730757Y-97277716D01*
X169725773Y-97280040D01*
X169725765Y-97280043D01*
X169684964Y-97299068D01*
X169614773Y-97309729D01*
X169549960Y-97280748D01*
X169542621Y-97273968D01*
X167795362Y-95526709D01*
X167761336Y-95464397D01*
X167766401Y-95393582D01*
X167769574Y-95385865D01*
X167772128Y-95380194D01*
X167780199Y-95362278D01*
X167782117Y-95355479D01*
X167851893Y-95108072D01*
X167851894Y-95108069D01*
X167853163Y-95103568D01*
X167871043Y-94963019D01*
X167886688Y-94840045D01*
X167886688Y-94840041D01*
X167887086Y-94836915D01*
X167887398Y-94825019D01*
X167888675Y-94776222D01*
X167889571Y-94742000D01*
X167881357Y-94631476D01*
X167869996Y-94478592D01*
X167869996Y-94478591D01*
X167869650Y-94473937D01*
X167868619Y-94469379D01*
X167811361Y-94216331D01*
X167811360Y-94216326D01*
X167810327Y-94211763D01*
X167712902Y-93961238D01*
X167579518Y-93727864D01*
X167572166Y-93718537D01*
X167480414Y-93602151D01*
X167413105Y-93516769D01*
X167217317Y-93332591D01*
X167052857Y-93218500D01*
X167000299Y-93182039D01*
X167000296Y-93182037D01*
X166996457Y-93179374D01*
X166992264Y-93177306D01*
X166759564Y-93062551D01*
X166759561Y-93062550D01*
X166755376Y-93060486D01*
X166746214Y-93057553D01*
X166612534Y-93014762D01*
X166499370Y-92978538D01*
X166494763Y-92977788D01*
X166494760Y-92977787D01*
X166238674Y-92936081D01*
X166238675Y-92936081D01*
X166234063Y-92935330D01*
X166103719Y-92933624D01*
X165969961Y-92931873D01*
X165969958Y-92931873D01*
X165965284Y-92931812D01*
X165698937Y-92968060D01*
X165694451Y-92969368D01*
X165694449Y-92969368D01*
X165668989Y-92976789D01*
X165440874Y-93043278D01*
X165436621Y-93045238D01*
X165436620Y-93045239D01*
X165430592Y-93048018D01*
X165196763Y-93155815D01*
X165175591Y-93169696D01*
X164975881Y-93300631D01*
X164975876Y-93300635D01*
X164971968Y-93303197D01*
X164902387Y-93365301D01*
X164807621Y-93449883D01*
X164771426Y-93482188D01*
X164768433Y-93485786D01*
X164765189Y-93489146D01*
X164764211Y-93488202D01*
X164710295Y-93524421D01*
X164639313Y-93525865D01*
X164578819Y-93488704D01*
X164551730Y-93440710D01*
X164551568Y-93440174D01*
X164550886Y-93437916D01*
X164550527Y-93436704D01*
X164550405Y-93436284D01*
X164524372Y-93346678D01*
X164521900Y-93341910D01*
X164520348Y-93336768D01*
X164517453Y-93331323D01*
X164517450Y-93331316D01*
X164476367Y-93254050D01*
X164475753Y-93252882D01*
X164468863Y-93239588D01*
X164432634Y-93169696D01*
X164429282Y-93165497D01*
X164426761Y-93160756D01*
X164418391Y-93150493D01*
X164367562Y-93088171D01*
X164366734Y-93087145D01*
X164337429Y-93050436D01*
X164337428Y-93050435D01*
X164335232Y-93047684D01*
X164332737Y-93045189D01*
X164332027Y-93044395D01*
X164328307Y-93040040D01*
X164304663Y-93011049D01*
X164304660Y-93011046D01*
X164300768Y-93006274D01*
X164265127Y-92976789D01*
X164256348Y-92968800D01*
X160553239Y-89265691D01*
X160519213Y-89203379D01*
X160524278Y-89132564D01*
X160566825Y-89075728D01*
X160589085Y-89062401D01*
X160671758Y-89023851D01*
X160671764Y-89023847D01*
X160676749Y-89021523D01*
X160782649Y-88947371D01*
X160859789Y-88893357D01*
X160859792Y-88893355D01*
X160864300Y-88890198D01*
X161026198Y-88728300D01*
X161029357Y-88723789D01*
X161116995Y-88598629D01*
X161172452Y-88554301D01*
X161220208Y-88544900D01*
X162492737Y-88544900D01*
X162501308Y-88545192D01*
X162554843Y-88548842D01*
X162562320Y-88547537D01*
X162562321Y-88547537D01*
X162587626Y-88543121D01*
X162613347Y-88538631D01*
X162619865Y-88537670D01*
X162638223Y-88535448D01*
X162671262Y-88531450D01*
X162671264Y-88531450D01*
X162678805Y-88530537D01*
X162685913Y-88527851D01*
X162692879Y-88526140D01*
X162698068Y-88524721D01*
X162704947Y-88522644D01*
X162712424Y-88521339D01*
X162766795Y-88497471D01*
X162772886Y-88494986D01*
X162821336Y-88476679D01*
X162821338Y-88476678D01*
X162828441Y-88473994D01*
X162834702Y-88469691D01*
X162841026Y-88466385D01*
X162845798Y-88463729D01*
X162851944Y-88460094D01*
X162858896Y-88457042D01*
X162906001Y-88420898D01*
X162911334Y-88417023D01*
X162958101Y-88384880D01*
X163025568Y-88362780D01*
X163062081Y-88367014D01*
X163088594Y-88374119D01*
X163088608Y-88374121D01*
X163093913Y-88375543D01*
X163322000Y-88395498D01*
X163550087Y-88375543D01*
X163555398Y-88374120D01*
X163555409Y-88374118D01*
X163582980Y-88366730D01*
X163653956Y-88368419D01*
X163704687Y-88399341D01*
X165883386Y-90578039D01*
X165889239Y-90584304D01*
X165924524Y-90624752D01*
X165945729Y-90639655D01*
X165973099Y-90658891D01*
X165978393Y-90662823D01*
X166025121Y-90699463D01*
X166032047Y-90702590D01*
X166038176Y-90706302D01*
X166042815Y-90708949D01*
X166049182Y-90712363D01*
X166055397Y-90716731D01*
X166062472Y-90719490D01*
X166062475Y-90719491D01*
X166110703Y-90738294D01*
X166116781Y-90740849D01*
X166170912Y-90765290D01*
X166178380Y-90766674D01*
X166185196Y-90768810D01*
X166190368Y-90770284D01*
X166197353Y-90772077D01*
X166204434Y-90774838D01*
X166211971Y-90775830D01*
X166211970Y-90775830D01*
X166263289Y-90782586D01*
X166269805Y-90783618D01*
X166320728Y-90793056D01*
X166320730Y-90793056D01*
X166328197Y-90794440D01*
X166335777Y-90794003D01*
X166335778Y-90794003D01*
X166385968Y-90791109D01*
X166393221Y-90790900D01*
X168661605Y-90790900D01*
X168729726Y-90810902D01*
X168776356Y-90865240D01*
X168777220Y-90867646D01*
X168779433Y-90871765D01*
X168779435Y-90871769D01*
X168845844Y-90995361D01*
X168904450Y-91104431D01*
X168907241Y-91108168D01*
X168907245Y-91108175D01*
X168988887Y-91217506D01*
X169065281Y-91319810D01*
X169068590Y-91323090D01*
X169068595Y-91323096D01*
X169210615Y-91463881D01*
X169256180Y-91509050D01*
X169259942Y-91511808D01*
X169259945Y-91511811D01*
X169467605Y-91664073D01*
X169510713Y-91720484D01*
X169519100Y-91765685D01*
X169519100Y-92311792D01*
X169499098Y-92379913D01*
X169465371Y-92415005D01*
X169340211Y-92502643D01*
X169340208Y-92502645D01*
X169335700Y-92505802D01*
X169173802Y-92667700D01*
X169170645Y-92672208D01*
X169170643Y-92672211D01*
X169156636Y-92692215D01*
X169042477Y-92855251D01*
X169040154Y-92860233D01*
X169040151Y-92860238D01*
X168952589Y-93048018D01*
X168945716Y-93062757D01*
X168944294Y-93068065D01*
X168944293Y-93068067D01*
X168898334Y-93239588D01*
X168886457Y-93283913D01*
X168866502Y-93512000D01*
X168886457Y-93740087D01*
X168887881Y-93745400D01*
X168887881Y-93745402D01*
X168928690Y-93897700D01*
X168945716Y-93961243D01*
X168948039Y-93966224D01*
X168948039Y-93966225D01*
X169040151Y-94163762D01*
X169040154Y-94163767D01*
X169042477Y-94168749D01*
X169115257Y-94272689D01*
X169129309Y-94292757D01*
X169173802Y-94356300D01*
X169335700Y-94518198D01*
X169340208Y-94521355D01*
X169340211Y-94521357D01*
X169418389Y-94576098D01*
X169523251Y-94649523D01*
X169528233Y-94651846D01*
X169528238Y-94651849D01*
X169725775Y-94743961D01*
X169730757Y-94746284D01*
X169736065Y-94747706D01*
X169736067Y-94747707D01*
X169946598Y-94804119D01*
X169946600Y-94804119D01*
X169951913Y-94805543D01*
X170180000Y-94825498D01*
X170408087Y-94805543D01*
X170413400Y-94804119D01*
X170413402Y-94804119D01*
X170623933Y-94747707D01*
X170623935Y-94747706D01*
X170629243Y-94746284D01*
X170634225Y-94743961D01*
X170831762Y-94651849D01*
X170831767Y-94651846D01*
X170836749Y-94649523D01*
X170941611Y-94576098D01*
X171019789Y-94521357D01*
X171019792Y-94521355D01*
X171024300Y-94518198D01*
X171186198Y-94356300D01*
X171230692Y-94292757D01*
X171244743Y-94272689D01*
X171317523Y-94168749D01*
X171319846Y-94163767D01*
X171319849Y-94163762D01*
X171411961Y-93966225D01*
X171411961Y-93966224D01*
X171414284Y-93961243D01*
X171431311Y-93897700D01*
X171472119Y-93745402D01*
X171472119Y-93745400D01*
X171473543Y-93740087D01*
X171493498Y-93512000D01*
X171473543Y-93283913D01*
X171461666Y-93239588D01*
X171415707Y-93068067D01*
X171415706Y-93068065D01*
X171414284Y-93062757D01*
X171407411Y-93048018D01*
X171319849Y-92860238D01*
X171319846Y-92860233D01*
X171317523Y-92855251D01*
X171203364Y-92692215D01*
X171189357Y-92672211D01*
X171189355Y-92672208D01*
X171186198Y-92667700D01*
X171024300Y-92505802D01*
X171019792Y-92502645D01*
X171019789Y-92502643D01*
X170894629Y-92415005D01*
X170850301Y-92359548D01*
X170840900Y-92311792D01*
X170840900Y-91990209D01*
X170860902Y-91922088D01*
X170914558Y-91875595D01*
X170934819Y-91868361D01*
X171019921Y-91845955D01*
X171024441Y-91844765D01*
X171271414Y-91738657D01*
X171391941Y-91664073D01*
X171496017Y-91599669D01*
X171496021Y-91599666D01*
X171499990Y-91597210D01*
X171705149Y-91423530D01*
X171882382Y-91221434D01*
X171887636Y-91213267D01*
X172007321Y-91027195D01*
X172027797Y-90995361D01*
X172138199Y-90750278D01*
X172150602Y-90706302D01*
X172209893Y-90496072D01*
X172209894Y-90496069D01*
X172211163Y-90491568D01*
X172223982Y-90390801D01*
X172244688Y-90228045D01*
X172244688Y-90228041D01*
X172245086Y-90224915D01*
X172245285Y-90217341D01*
X172247089Y-90148398D01*
X172247571Y-90130000D01*
X172246462Y-90115071D01*
X172227996Y-89866592D01*
X172227996Y-89866591D01*
X172227650Y-89861937D01*
X172225598Y-89852868D01*
X172169361Y-89604331D01*
X172169360Y-89604326D01*
X172168327Y-89599763D01*
X172070902Y-89349238D01*
X171937518Y-89115864D01*
X171929249Y-89105374D01*
X171860657Y-89018366D01*
X171771105Y-88904769D01*
X171575317Y-88720591D01*
X171397007Y-88596892D01*
X171358299Y-88570039D01*
X171358296Y-88570037D01*
X171354457Y-88567374D01*
X171350264Y-88565306D01*
X171117564Y-88450551D01*
X171117561Y-88450550D01*
X171113376Y-88448486D01*
X171065745Y-88433239D01*
X170959847Y-88399341D01*
X170857370Y-88366538D01*
X170852763Y-88365788D01*
X170852760Y-88365787D01*
X170596674Y-88324081D01*
X170596675Y-88324081D01*
X170592063Y-88323330D01*
X170461719Y-88321624D01*
X170327961Y-88319873D01*
X170327958Y-88319873D01*
X170323284Y-88319812D01*
X170056937Y-88356060D01*
X170052451Y-88357368D01*
X170052449Y-88357368D01*
X170000849Y-88372408D01*
X169798874Y-88431278D01*
X169554763Y-88543815D01*
X169550854Y-88546378D01*
X169333881Y-88688631D01*
X169333876Y-88688635D01*
X169329968Y-88691197D01*
X169282071Y-88733947D01*
X169166077Y-88837476D01*
X169129426Y-88870188D01*
X168957544Y-89076854D01*
X168955121Y-89080847D01*
X168839556Y-89271292D01*
X168818096Y-89306656D01*
X168816287Y-89310970D01*
X168816285Y-89310974D01*
X168782382Y-89391825D01*
X168737594Y-89446911D01*
X168666185Y-89469100D01*
X166695944Y-89469100D01*
X166627823Y-89449098D01*
X166606849Y-89432195D01*
X165623140Y-88448486D01*
X164639341Y-87464688D01*
X164605316Y-87402376D01*
X164606729Y-87342982D01*
X164614119Y-87315402D01*
X164614119Y-87315400D01*
X164615543Y-87310087D01*
X164635498Y-87082000D01*
X164615543Y-86853913D01*
X164598679Y-86790975D01*
X164557707Y-86638067D01*
X164557706Y-86638065D01*
X164556284Y-86632757D01*
X164552897Y-86625493D01*
X164461849Y-86430238D01*
X164461846Y-86430233D01*
X164459523Y-86425251D01*
X164373377Y-86302222D01*
X164331357Y-86242211D01*
X164331355Y-86242208D01*
X164328198Y-86237700D01*
X164166300Y-86075802D01*
X164161792Y-86072645D01*
X164161789Y-86072643D01*
X164057031Y-85999291D01*
X163978749Y-85944477D01*
X163973767Y-85942154D01*
X163973762Y-85942151D01*
X163776225Y-85850039D01*
X163776224Y-85850039D01*
X163771243Y-85847716D01*
X163765935Y-85846294D01*
X163765933Y-85846293D01*
X163555402Y-85789881D01*
X163555400Y-85789881D01*
X163550087Y-85788457D01*
X163322000Y-85768502D01*
X163093913Y-85788457D01*
X163088600Y-85789881D01*
X163088598Y-85789881D01*
X162878067Y-85846293D01*
X162878065Y-85846294D01*
X162872757Y-85847716D01*
X162867776Y-85850039D01*
X162867775Y-85850039D01*
X162670238Y-85942151D01*
X162670233Y-85942154D01*
X162665251Y-85944477D01*
X162586969Y-85999291D01*
X162482211Y-86072643D01*
X162482208Y-86072645D01*
X162477700Y-86075802D01*
X162315802Y-86237700D01*
X162312645Y-86242208D01*
X162312643Y-86242211D01*
X162270623Y-86302222D01*
X162184477Y-86425251D01*
X162182154Y-86430233D01*
X162182151Y-86430238D01*
X162091103Y-86625493D01*
X162087716Y-86632757D01*
X162086294Y-86638065D01*
X162086293Y-86638067D01*
X162045321Y-86790975D01*
X162028457Y-86853913D01*
X162008502Y-87082000D01*
X162008981Y-87087475D01*
X162008981Y-87092982D01*
X162007484Y-87092982D01*
X161994869Y-87155731D01*
X161945466Y-87206720D01*
X161883341Y-87223100D01*
X161220208Y-87223100D01*
X161152087Y-87203098D01*
X161116995Y-87169371D01*
X161029357Y-87044211D01*
X161029355Y-87044208D01*
X161026198Y-87039700D01*
X160864300Y-86877802D01*
X160859792Y-86874645D01*
X160859789Y-86874643D01*
X160760797Y-86805328D01*
X160676749Y-86746477D01*
X160671767Y-86744154D01*
X160671762Y-86744151D01*
X160474225Y-86652039D01*
X160474224Y-86652039D01*
X160469243Y-86649716D01*
X160463935Y-86648294D01*
X160463933Y-86648293D01*
X160253402Y-86591881D01*
X160253400Y-86591881D01*
X160248087Y-86590457D01*
X160020000Y-86570502D01*
X159791913Y-86590457D01*
X159786600Y-86591881D01*
X159786598Y-86591881D01*
X159576067Y-86648293D01*
X159576065Y-86648294D01*
X159570757Y-86649716D01*
X159565776Y-86652039D01*
X159565775Y-86652039D01*
X159368238Y-86744151D01*
X159368233Y-86744154D01*
X159363251Y-86746477D01*
X159279203Y-86805328D01*
X159180211Y-86874643D01*
X159180208Y-86874645D01*
X159175700Y-86877802D01*
X159013802Y-87039700D01*
X159010645Y-87044208D01*
X159010643Y-87044211D01*
X158984183Y-87082000D01*
X158882477Y-87227251D01*
X158880153Y-87232236D01*
X158880149Y-87232242D01*
X158841599Y-87314915D01*
X158794683Y-87368200D01*
X158726405Y-87387662D01*
X158658445Y-87367121D01*
X158638309Y-87350761D01*
X158533405Y-87245857D01*
X158499379Y-87183545D01*
X158496500Y-87156762D01*
X158496500Y-86930274D01*
X158497237Y-86916666D01*
X158500697Y-86884820D01*
X158500697Y-86884817D01*
X158501362Y-86878696D01*
X158496954Y-86828310D01*
X158496625Y-86823482D01*
X158496500Y-86820927D01*
X158496500Y-86817843D01*
X158494777Y-86800271D01*
X158492278Y-86774781D01*
X158492156Y-86773468D01*
X158487328Y-86718289D01*
X158483988Y-86680108D01*
X158482489Y-86674948D01*
X158481965Y-86669606D01*
X158454883Y-86579904D01*
X158454527Y-86578704D01*
X158428372Y-86488678D01*
X158425900Y-86483910D01*
X158424348Y-86478768D01*
X158421453Y-86473323D01*
X158421450Y-86473316D01*
X158380367Y-86396050D01*
X158379753Y-86394882D01*
X158370434Y-86376902D01*
X158336634Y-86311696D01*
X158333282Y-86307497D01*
X158330761Y-86302756D01*
X158299499Y-86264425D01*
X158271562Y-86230171D01*
X158270734Y-86229145D01*
X158241429Y-86192436D01*
X158241428Y-86192435D01*
X158239232Y-86189684D01*
X158236737Y-86187189D01*
X158236027Y-86186395D01*
X158232307Y-86182040D01*
X158208663Y-86153049D01*
X158208660Y-86153046D01*
X158204768Y-86148274D01*
X158169127Y-86118789D01*
X158160348Y-86110800D01*
X156755405Y-84705857D01*
X156721379Y-84643545D01*
X156718500Y-84616762D01*
X156718500Y-81534000D01*
X166366502Y-81534000D01*
X166386457Y-81762087D01*
X166387881Y-81767400D01*
X166387881Y-81767402D01*
X166444293Y-81977931D01*
X166445716Y-81983243D01*
X166448039Y-81988224D01*
X166448039Y-81988225D01*
X166540151Y-82185762D01*
X166540154Y-82185767D01*
X166542477Y-82190749D01*
X166673802Y-82378300D01*
X166835700Y-82540198D01*
X166840208Y-82543355D01*
X166840211Y-82543357D01*
X166918389Y-82598098D01*
X167023251Y-82671523D01*
X167028233Y-82673846D01*
X167028238Y-82673849D01*
X167225775Y-82765961D01*
X167230757Y-82768284D01*
X167236065Y-82769706D01*
X167236067Y-82769707D01*
X167446598Y-82826119D01*
X167446600Y-82826119D01*
X167451913Y-82827543D01*
X167680000Y-82847498D01*
X167908087Y-82827543D01*
X167913398Y-82826120D01*
X167913409Y-82826118D01*
X167940980Y-82818730D01*
X168011956Y-82820419D01*
X168062687Y-82851341D01*
X169026396Y-83815050D01*
X169060422Y-83877362D01*
X169055357Y-83948177D01*
X169034177Y-83984712D01*
X168957544Y-84076854D01*
X168818096Y-84306656D01*
X168816287Y-84310970D01*
X168816285Y-84310974D01*
X168726137Y-84525955D01*
X168714148Y-84554545D01*
X168647981Y-84815077D01*
X168621050Y-85082526D01*
X168621274Y-85087192D01*
X168621274Y-85087197D01*
X168625432Y-85173755D01*
X168633947Y-85351019D01*
X168686388Y-85614656D01*
X168777220Y-85867646D01*
X168904450Y-86104431D01*
X168907241Y-86108168D01*
X168907245Y-86108175D01*
X169007335Y-86242211D01*
X169065281Y-86319810D01*
X169068590Y-86323090D01*
X169068595Y-86323096D01*
X169236837Y-86489875D01*
X169256180Y-86509050D01*
X169259942Y-86511808D01*
X169259945Y-86511811D01*
X169450092Y-86651232D01*
X169472954Y-86667995D01*
X169477089Y-86670171D01*
X169477093Y-86670173D01*
X169673423Y-86773468D01*
X169710840Y-86793154D01*
X169964613Y-86881775D01*
X169969206Y-86882647D01*
X170224109Y-86931042D01*
X170224112Y-86931042D01*
X170228698Y-86931913D01*
X170356370Y-86936929D01*
X170492625Y-86942283D01*
X170492630Y-86942283D01*
X170497293Y-86942466D01*
X170608620Y-86930274D01*
X170759844Y-86913713D01*
X170759850Y-86913712D01*
X170764497Y-86913203D01*
X170854417Y-86889529D01*
X171019918Y-86845956D01*
X171019920Y-86845955D01*
X171024441Y-86844765D01*
X171032788Y-86841179D01*
X171267120Y-86740502D01*
X171267122Y-86740501D01*
X171271414Y-86738657D01*
X171382083Y-86670173D01*
X171496017Y-86599669D01*
X171496021Y-86599666D01*
X171499990Y-86597210D01*
X171705149Y-86423530D01*
X171882382Y-86221434D01*
X171902805Y-86189684D01*
X172025269Y-85999291D01*
X172027797Y-85995361D01*
X172138199Y-85750278D01*
X172175337Y-85618598D01*
X172209893Y-85496072D01*
X172209894Y-85496069D01*
X172211163Y-85491568D01*
X172228460Y-85355604D01*
X172244688Y-85228045D01*
X172244688Y-85228041D01*
X172245086Y-85224915D01*
X172245385Y-85213521D01*
X172247488Y-85133160D01*
X172247571Y-85130000D01*
X172238482Y-85007700D01*
X172227996Y-84866592D01*
X172227996Y-84866591D01*
X172227650Y-84861937D01*
X172223999Y-84845802D01*
X172169361Y-84604331D01*
X172169360Y-84604326D01*
X172168327Y-84599763D01*
X172070902Y-84349238D01*
X171937518Y-84115864D01*
X171921953Y-84096119D01*
X171800079Y-83941523D01*
X171771105Y-83904769D01*
X171575317Y-83720591D01*
X171354457Y-83567374D01*
X171350264Y-83565306D01*
X171117564Y-83450551D01*
X171117561Y-83450550D01*
X171113376Y-83448486D01*
X170857370Y-83366538D01*
X170852763Y-83365788D01*
X170852760Y-83365787D01*
X170596674Y-83324081D01*
X170596675Y-83324081D01*
X170592063Y-83323330D01*
X170537660Y-83322618D01*
X170452711Y-83321506D01*
X170384858Y-83300614D01*
X170365265Y-83284612D01*
X168997341Y-81916688D01*
X168963315Y-81854376D01*
X168964729Y-81794982D01*
X168972119Y-81767402D01*
X168972119Y-81767400D01*
X168973543Y-81762087D01*
X168993498Y-81534000D01*
X168973543Y-81305913D01*
X168950361Y-81219397D01*
X168915707Y-81090067D01*
X168915706Y-81090065D01*
X168914284Y-81084757D01*
X168899759Y-81053608D01*
X168819849Y-80882238D01*
X168819846Y-80882233D01*
X168817523Y-80877251D01*
X168711878Y-80726375D01*
X168689357Y-80694211D01*
X168689355Y-80694208D01*
X168686198Y-80689700D01*
X168524300Y-80527802D01*
X168519792Y-80524645D01*
X168519789Y-80524643D01*
X168394629Y-80437005D01*
X168350301Y-80381548D01*
X168340900Y-80333792D01*
X168340900Y-79302382D01*
X168360902Y-79234261D01*
X168414558Y-79187768D01*
X168484832Y-79177664D01*
X168513283Y-79185230D01*
X168570500Y-79207883D01*
X168635261Y-79233524D01*
X168639096Y-79234509D01*
X168639100Y-79234510D01*
X168789313Y-79273078D01*
X168943364Y-79312632D01*
X168947292Y-79313128D01*
X168947296Y-79313129D01*
X169072276Y-79328917D01*
X169258952Y-79352500D01*
X169577048Y-79352500D01*
X169763724Y-79328917D01*
X169888704Y-79313129D01*
X169888708Y-79313128D01*
X169892636Y-79312632D01*
X170053653Y-79271290D01*
X170196896Y-79234511D01*
X170196900Y-79234510D01*
X170200739Y-79233524D01*
X170204419Y-79232067D01*
X170204422Y-79232066D01*
X170419337Y-79146975D01*
X170496498Y-79116425D01*
X170499960Y-79114522D01*
X170771776Y-78965090D01*
X170771779Y-78965088D01*
X170775248Y-78963181D01*
X170778452Y-78960853D01*
X170778457Y-78960850D01*
X171029390Y-78778537D01*
X171029392Y-78778536D01*
X171032594Y-78776209D01*
X171060715Y-78749802D01*
X171197199Y-78621634D01*
X171264476Y-78558456D01*
X171446242Y-78338739D01*
X171464716Y-78316408D01*
X171464719Y-78316404D01*
X171467238Y-78313359D01*
X171591836Y-78117024D01*
X171635559Y-78048128D01*
X171635559Y-78048127D01*
X171637683Y-78044781D01*
X171639367Y-78041202D01*
X171639371Y-78041195D01*
X171771433Y-77760549D01*
X171771435Y-77760545D01*
X171773122Y-77756959D01*
X171784031Y-77723386D01*
X171837719Y-77558149D01*
X171871419Y-77454431D01*
X171931025Y-77141969D01*
X171950998Y-76824500D01*
X171931025Y-76507031D01*
X171871419Y-76194569D01*
X171773122Y-75892041D01*
X171771003Y-75887537D01*
X171639371Y-75607805D01*
X171639367Y-75607798D01*
X171637683Y-75604219D01*
X171467238Y-75335641D01*
X171264476Y-75090544D01*
X171159413Y-74991883D01*
X171035480Y-74875501D01*
X171035479Y-74875500D01*
X171032594Y-74872791D01*
X171029390Y-74870463D01*
X170778457Y-74688150D01*
X170778452Y-74688147D01*
X170775248Y-74685819D01*
X170765932Y-74680697D01*
X170499960Y-74534478D01*
X170499957Y-74534477D01*
X170496498Y-74532575D01*
X170210226Y-74419232D01*
X170204422Y-74416934D01*
X170204419Y-74416933D01*
X170200739Y-74415476D01*
X170196900Y-74414490D01*
X170196896Y-74414489D01*
X169992765Y-74362077D01*
X169892636Y-74336368D01*
X169888708Y-74335872D01*
X169888704Y-74335871D01*
X169763723Y-74320083D01*
X169577048Y-74296500D01*
X169258952Y-74296500D01*
X169072277Y-74320083D01*
X168947296Y-74335871D01*
X168947292Y-74335872D01*
X168943364Y-74336368D01*
X168843235Y-74362077D01*
X168639104Y-74414489D01*
X168639100Y-74414490D01*
X168635261Y-74415476D01*
X168631581Y-74416933D01*
X168631578Y-74416934D01*
X168625774Y-74419232D01*
X168339502Y-74532575D01*
X168336043Y-74534477D01*
X168336040Y-74534478D01*
X168070069Y-74680697D01*
X168060752Y-74685819D01*
X168057548Y-74688147D01*
X168057543Y-74688150D01*
X167806610Y-74870463D01*
X167803406Y-74872791D01*
X167800521Y-74875500D01*
X167800520Y-74875501D01*
X167676587Y-74991883D01*
X167571524Y-75090544D01*
X167368762Y-75335641D01*
X167198317Y-75604219D01*
X167196633Y-75607798D01*
X167196629Y-75607805D01*
X167064997Y-75887537D01*
X167062878Y-75892041D01*
X166964581Y-76194569D01*
X166904975Y-76507031D01*
X166885002Y-76824500D01*
X166904975Y-77141969D01*
X166964581Y-77454431D01*
X166998281Y-77558149D01*
X167051970Y-77723386D01*
X167062878Y-77756959D01*
X167064565Y-77760545D01*
X167064567Y-77760549D01*
X167182276Y-78010693D01*
X167193182Y-78080847D01*
X167171355Y-78136792D01*
X167151109Y-78165599D01*
X167147177Y-78170893D01*
X167110537Y-78217621D01*
X167107411Y-78224545D01*
X167103698Y-78230676D01*
X167101062Y-78235296D01*
X167097640Y-78241678D01*
X167093269Y-78247897D01*
X167090509Y-78254976D01*
X167071702Y-78303213D01*
X167069146Y-78309292D01*
X167044711Y-78363412D01*
X167043325Y-78370888D01*
X167041170Y-78377766D01*
X167039710Y-78382891D01*
X167037922Y-78389855D01*
X167035162Y-78396934D01*
X167034170Y-78404466D01*
X167034170Y-78404468D01*
X167027414Y-78455792D01*
X167026384Y-78462298D01*
X167015560Y-78520697D01*
X167015997Y-78528277D01*
X167015997Y-78528278D01*
X167018891Y-78578467D01*
X167019100Y-78585720D01*
X167019100Y-80333792D01*
X166999098Y-80401913D01*
X166965371Y-80437005D01*
X166840211Y-80524643D01*
X166840208Y-80524645D01*
X166835700Y-80527802D01*
X166673802Y-80689700D01*
X166670645Y-80694208D01*
X166670643Y-80694211D01*
X166648122Y-80726375D01*
X166542477Y-80877251D01*
X166540154Y-80882233D01*
X166540151Y-80882238D01*
X166460241Y-81053608D01*
X166445716Y-81084757D01*
X166444294Y-81090065D01*
X166444293Y-81090067D01*
X166409639Y-81219397D01*
X166386457Y-81305913D01*
X166366502Y-81534000D01*
X156718500Y-81534000D01*
X156718500Y-81133315D01*
X156741287Y-81061044D01*
X156792460Y-80987961D01*
X156839523Y-80920749D01*
X156841846Y-80915767D01*
X156841849Y-80915762D01*
X156933961Y-80718225D01*
X156933961Y-80718224D01*
X156936284Y-80713243D01*
X156942593Y-80689700D01*
X156994119Y-80497402D01*
X156994119Y-80497400D01*
X156995543Y-80492087D01*
X157015498Y-80264000D01*
X156995543Y-80035913D01*
X156994119Y-80030598D01*
X156937707Y-79820067D01*
X156937706Y-79820065D01*
X156936284Y-79814757D01*
X156914583Y-79768219D01*
X156841849Y-79612238D01*
X156841846Y-79612233D01*
X156839523Y-79607251D01*
X156749869Y-79479212D01*
X156711357Y-79424211D01*
X156711355Y-79424208D01*
X156708198Y-79419700D01*
X156546300Y-79257802D01*
X156541792Y-79254645D01*
X156541789Y-79254643D01*
X156388023Y-79146975D01*
X156358749Y-79126477D01*
X156353767Y-79124154D01*
X156353762Y-79124151D01*
X156156225Y-79032039D01*
X156156224Y-79032039D01*
X156151243Y-79029716D01*
X156145935Y-79028294D01*
X156145933Y-79028293D01*
X156067748Y-79007343D01*
X155930087Y-78970457D01*
X155900272Y-78967848D01*
X155883627Y-78966392D01*
X155817509Y-78940529D01*
X155805515Y-78929967D01*
X153453405Y-76577857D01*
X153419379Y-76515545D01*
X153416500Y-76488762D01*
X153416500Y-76072500D01*
X153436502Y-76004379D01*
X153490158Y-75957886D01*
X153542500Y-75946500D01*
X154618685Y-75946500D01*
X154690956Y-75969287D01*
X154703354Y-75977968D01*
X154831251Y-76067523D01*
X154836233Y-76069846D01*
X154836238Y-76069849D01*
X155033775Y-76161961D01*
X155038757Y-76164284D01*
X155044065Y-76165706D01*
X155044067Y-76165707D01*
X155254598Y-76222119D01*
X155254600Y-76222119D01*
X155259913Y-76223543D01*
X155488000Y-76243498D01*
X155716087Y-76223543D01*
X155721400Y-76222119D01*
X155721402Y-76222119D01*
X155931933Y-76165707D01*
X155931935Y-76165706D01*
X155937243Y-76164284D01*
X155942225Y-76161961D01*
X156139762Y-76069849D01*
X156139767Y-76069846D01*
X156144749Y-76067523D01*
X156249611Y-75994098D01*
X156327789Y-75939357D01*
X156327792Y-75939355D01*
X156332300Y-75936198D01*
X156494198Y-75774300D01*
X156502966Y-75761779D01*
X156615634Y-75600872D01*
X156625523Y-75586749D01*
X156627846Y-75581767D01*
X156627849Y-75581762D01*
X156719961Y-75384225D01*
X156719961Y-75384224D01*
X156722284Y-75379243D01*
X156759855Y-75239029D01*
X156780119Y-75163402D01*
X156780119Y-75163400D01*
X156781543Y-75158087D01*
X156801498Y-74930000D01*
X156781543Y-74701913D01*
X156777855Y-74688150D01*
X156723707Y-74486067D01*
X156723706Y-74486065D01*
X156722284Y-74480757D01*
X156719961Y-74475775D01*
X156627849Y-74278238D01*
X156627846Y-74278233D01*
X156625523Y-74273251D01*
X156494198Y-74085700D01*
X156332300Y-73923802D01*
X156327792Y-73920645D01*
X156327789Y-73920643D01*
X156219112Y-73844547D01*
X156144749Y-73792477D01*
X156139767Y-73790154D01*
X156139762Y-73790151D01*
X155942225Y-73698039D01*
X155942224Y-73698039D01*
X155937243Y-73695716D01*
X155931935Y-73694294D01*
X155931933Y-73694293D01*
X155721402Y-73637881D01*
X155721400Y-73637881D01*
X155716087Y-73636457D01*
X155488000Y-73616502D01*
X155259913Y-73636457D01*
X155254600Y-73637881D01*
X155254598Y-73637881D01*
X155044067Y-73694293D01*
X155044065Y-73694294D01*
X155038757Y-73695716D01*
X155033776Y-73698039D01*
X155033775Y-73698039D01*
X154836238Y-73790151D01*
X154836233Y-73790154D01*
X154831251Y-73792477D01*
X154756888Y-73844547D01*
X154690956Y-73890713D01*
X154618685Y-73913500D01*
X153269315Y-73913500D01*
X153197044Y-73890713D01*
X153131112Y-73844547D01*
X153056749Y-73792477D01*
X153051767Y-73790154D01*
X153051762Y-73790151D01*
X152854225Y-73698039D01*
X152854224Y-73698039D01*
X152849243Y-73695716D01*
X152843935Y-73694294D01*
X152843933Y-73694293D01*
X152715950Y-73660000D01*
X152628087Y-73636457D01*
X152598272Y-73633848D01*
X152581627Y-73632392D01*
X152515509Y-73606529D01*
X152503515Y-73595967D01*
X151130815Y-72223267D01*
X151121713Y-72213124D01*
X151101634Y-72188151D01*
X151097775Y-72183351D01*
X151058998Y-72150813D01*
X151055371Y-72147649D01*
X151053502Y-72145954D01*
X151051308Y-72143760D01*
X151017742Y-72116188D01*
X151016945Y-72115526D01*
X150945067Y-72055214D01*
X150940361Y-72052627D01*
X150936211Y-72049218D01*
X150930787Y-72046310D01*
X150930777Y-72046303D01*
X150853632Y-72004939D01*
X150852472Y-72004310D01*
X150834972Y-71994689D01*
X150770379Y-71959179D01*
X150765259Y-71957555D01*
X150760526Y-71955017D01*
X150671007Y-71927648D01*
X150669748Y-71927256D01*
X150586239Y-71900765D01*
X150586235Y-71900764D01*
X150580365Y-71898902D01*
X150575027Y-71898303D01*
X150569891Y-71896733D01*
X150563760Y-71896110D01*
X150563759Y-71896110D01*
X150544456Y-71894149D01*
X150476569Y-71887254D01*
X150475449Y-71887134D01*
X150425216Y-71881500D01*
X150421711Y-71881500D01*
X150420603Y-71881438D01*
X150414908Y-71880990D01*
X150377695Y-71877210D01*
X150377688Y-71877210D01*
X150371565Y-71876588D01*
X150325515Y-71880941D01*
X150313657Y-71881500D01*
X130858111Y-71881500D01*
X130845378Y-71880855D01*
X130809498Y-71877210D01*
X130809493Y-71877210D01*
X130803370Y-71876588D01*
X130757320Y-71880941D01*
X130745462Y-71881500D01*
X129393315Y-71881500D01*
X129321044Y-71858713D01*
X129308371Y-71849839D01*
X129180749Y-71760477D01*
X129175767Y-71758154D01*
X129175762Y-71758151D01*
X128978225Y-71666039D01*
X128978224Y-71666039D01*
X128973243Y-71663716D01*
X128967935Y-71662294D01*
X128967933Y-71662293D01*
X128757402Y-71605881D01*
X128757400Y-71605881D01*
X128752087Y-71604457D01*
X128524000Y-71584502D01*
X128295913Y-71604457D01*
X128290600Y-71605881D01*
X128290598Y-71605881D01*
X128080067Y-71662293D01*
X128080065Y-71662294D01*
X128074757Y-71663716D01*
X128069776Y-71666039D01*
X128069775Y-71666039D01*
X127872238Y-71758151D01*
X127872233Y-71758154D01*
X127867251Y-71760477D01*
X127762389Y-71833902D01*
X127684211Y-71888643D01*
X127684208Y-71888645D01*
X127679700Y-71891802D01*
X127517802Y-72053700D01*
X127514645Y-72058208D01*
X127514643Y-72058211D01*
X127474542Y-72115482D01*
X127386477Y-72241251D01*
X127384154Y-72246233D01*
X127384151Y-72246238D01*
X127339465Y-72342069D01*
X127289716Y-72448757D01*
X127288292Y-72454070D01*
X127288292Y-72454071D01*
X127262558Y-72550111D01*
X127225606Y-72610734D01*
X127161746Y-72641755D01*
X127140851Y-72643500D01*
X124392669Y-72643500D01*
X124324548Y-72623498D01*
X124314577Y-72616382D01*
X124202414Y-72527800D01*
X124202410Y-72527798D01*
X124198359Y-72524598D01*
X124166305Y-72506903D01*
X124121709Y-72482285D01*
X124002789Y-72416638D01*
X123997920Y-72414914D01*
X123997916Y-72414912D01*
X123797087Y-72343795D01*
X123797083Y-72343794D01*
X123792212Y-72342069D01*
X123787119Y-72341162D01*
X123787116Y-72341161D01*
X123577373Y-72303800D01*
X123577367Y-72303799D01*
X123572284Y-72302894D01*
X123498452Y-72301992D01*
X123354081Y-72300228D01*
X123354079Y-72300228D01*
X123348911Y-72300165D01*
X123128091Y-72333955D01*
X122915756Y-72403357D01*
X122717607Y-72506507D01*
X122713474Y-72509610D01*
X122713471Y-72509612D01*
X122578789Y-72610734D01*
X122538965Y-72640635D01*
X122384629Y-72802138D01*
X122258743Y-72986680D01*
X122229117Y-73050505D01*
X122191702Y-73131109D01*
X122164688Y-73189305D01*
X122104989Y-73404570D01*
X122081251Y-73626695D01*
X122081548Y-73631848D01*
X122081548Y-73631851D01*
X122087011Y-73726590D01*
X122094110Y-73849715D01*
X122095247Y-73854761D01*
X122095248Y-73854767D01*
X122113218Y-73934502D01*
X122143222Y-74067639D01*
X122227266Y-74274616D01*
X122268766Y-74342338D01*
X122335434Y-74451130D01*
X122343987Y-74465088D01*
X122391094Y-74519469D01*
X122396737Y-74525984D01*
X122426220Y-74590570D01*
X122427500Y-74608482D01*
X122427500Y-76092685D01*
X122404713Y-76164956D01*
X122306477Y-76305251D01*
X122304154Y-76310233D01*
X122304151Y-76310238D01*
X122256247Y-76412970D01*
X122209716Y-76512757D01*
X122150457Y-76733913D01*
X122130502Y-76962000D01*
X122150457Y-77190087D01*
X122151881Y-77195402D01*
X122151882Y-77195407D01*
X122152362Y-77197198D01*
X122152343Y-77198018D01*
X122152836Y-77200817D01*
X122152274Y-77200916D01*
X122150675Y-77268175D01*
X122110883Y-77326972D01*
X122045620Y-77354922D01*
X121975606Y-77343152D01*
X121941562Y-77318909D01*
X119859273Y-75236620D01*
X119825247Y-75174308D01*
X119830312Y-75103493D01*
X119872859Y-75046657D01*
X119942657Y-75021654D01*
X119944659Y-75021563D01*
X119949837Y-75021753D01*
X120121145Y-74999808D01*
X120166288Y-74994025D01*
X120166289Y-74994025D01*
X120171416Y-74993368D01*
X120181032Y-74990483D01*
X120380429Y-74930661D01*
X120380434Y-74930659D01*
X120385384Y-74929174D01*
X120585994Y-74830896D01*
X120767860Y-74701173D01*
X120775990Y-74693072D01*
X120863292Y-74606074D01*
X120926096Y-74543489D01*
X120933939Y-74532575D01*
X121053435Y-74366277D01*
X121056453Y-74362077D01*
X121065114Y-74344554D01*
X121153136Y-74166453D01*
X121153137Y-74166451D01*
X121155430Y-74161811D01*
X121220370Y-73948069D01*
X121249529Y-73726590D01*
X121250227Y-73698039D01*
X121251074Y-73663365D01*
X121251074Y-73663361D01*
X121251156Y-73660000D01*
X121232852Y-73437361D01*
X121178431Y-73220702D01*
X121089354Y-73015840D01*
X120968014Y-72828277D01*
X120817670Y-72663051D01*
X120799594Y-72648775D01*
X120758532Y-72590858D01*
X120755301Y-72519935D01*
X120790926Y-72458524D01*
X120824036Y-72435888D01*
X121098869Y-72306562D01*
X121365375Y-72137432D01*
X121525531Y-72004939D01*
X121605530Y-71938758D01*
X121605531Y-71938757D01*
X121608582Y-71936233D01*
X121824654Y-71706140D01*
X122010184Y-71450779D01*
X122162247Y-71174179D01*
X122278443Y-70880702D01*
X122356940Y-70574975D01*
X122396500Y-70261821D01*
X122396500Y-69946179D01*
X122356940Y-69633025D01*
X122278443Y-69327298D01*
X122260279Y-69281420D01*
X163419870Y-69281420D01*
X163454875Y-69538636D01*
X163456184Y-69543126D01*
X163456185Y-69543132D01*
X163469205Y-69587801D01*
X163527515Y-69787852D01*
X163636194Y-70023594D01*
X163638754Y-70027499D01*
X163638757Y-70027504D01*
X163775957Y-70236770D01*
X163775961Y-70236775D01*
X163778523Y-70240683D01*
X163951377Y-70434350D01*
X164150959Y-70600339D01*
X164372882Y-70735006D01*
X164377196Y-70736815D01*
X164377200Y-70736817D01*
X164425279Y-70756978D01*
X164612274Y-70835391D01*
X164863873Y-70899289D01*
X165079481Y-70921000D01*
X165233896Y-70921000D01*
X165236221Y-70920827D01*
X165236227Y-70920827D01*
X165422221Y-70907005D01*
X165422225Y-70907004D01*
X165426873Y-70906659D01*
X165680059Y-70849369D01*
X165713044Y-70836542D01*
X165917643Y-70756978D01*
X165917645Y-70756977D01*
X165921996Y-70755285D01*
X165954309Y-70736817D01*
X166004956Y-70707869D01*
X166147369Y-70626474D01*
X166351227Y-70465765D01*
X166529091Y-70276690D01*
X166677055Y-70063401D01*
X166679123Y-70059208D01*
X166789802Y-69834773D01*
X166789803Y-69834770D01*
X166791867Y-69830585D01*
X166871006Y-69583356D01*
X166912732Y-69327144D01*
X166913331Y-69281420D01*
X171919870Y-69281420D01*
X171954875Y-69538636D01*
X171956184Y-69543126D01*
X171956185Y-69543132D01*
X171969205Y-69587801D01*
X172027515Y-69787852D01*
X172136194Y-70023594D01*
X172138754Y-70027499D01*
X172138757Y-70027504D01*
X172275957Y-70236770D01*
X172275961Y-70236775D01*
X172278523Y-70240683D01*
X172451377Y-70434350D01*
X172650959Y-70600339D01*
X172872882Y-70735006D01*
X172877196Y-70736815D01*
X172877200Y-70736817D01*
X172925279Y-70756978D01*
X173112274Y-70835391D01*
X173363873Y-70899289D01*
X173579481Y-70921000D01*
X173733896Y-70921000D01*
X173736221Y-70920827D01*
X173736227Y-70920827D01*
X173922221Y-70907005D01*
X173922225Y-70907004D01*
X173926873Y-70906659D01*
X174180059Y-70849369D01*
X174213044Y-70836542D01*
X174417643Y-70756978D01*
X174417645Y-70756977D01*
X174421996Y-70755285D01*
X174454309Y-70736817D01*
X174504956Y-70707869D01*
X174647369Y-70626474D01*
X174851227Y-70465765D01*
X175029091Y-70276690D01*
X175177055Y-70063401D01*
X175179123Y-70059208D01*
X175289802Y-69834773D01*
X175289803Y-69834770D01*
X175291867Y-69830585D01*
X175371006Y-69583356D01*
X175412732Y-69327144D01*
X175416130Y-69067580D01*
X175381125Y-68810364D01*
X175368091Y-68765644D01*
X175348951Y-68699980D01*
X175308485Y-68561148D01*
X175199806Y-68325406D01*
X175171189Y-68281757D01*
X175060043Y-68112230D01*
X175060039Y-68112225D01*
X175057477Y-68108317D01*
X174961185Y-68000431D01*
X174887740Y-67918142D01*
X174887738Y-67918140D01*
X174884623Y-67914650D01*
X174685041Y-67748661D01*
X174463118Y-67613994D01*
X174458804Y-67612185D01*
X174458800Y-67612183D01*
X174228040Y-67515418D01*
X174223726Y-67513609D01*
X173972127Y-67449711D01*
X173756519Y-67428000D01*
X173602104Y-67428000D01*
X173599779Y-67428173D01*
X173599773Y-67428173D01*
X173413779Y-67441995D01*
X173413775Y-67441996D01*
X173409127Y-67442341D01*
X173155941Y-67499631D01*
X173151589Y-67501323D01*
X173151587Y-67501324D01*
X172918357Y-67592022D01*
X172918355Y-67592023D01*
X172914004Y-67593715D01*
X172909950Y-67596032D01*
X172909948Y-67596033D01*
X172878523Y-67613994D01*
X172688631Y-67722526D01*
X172484773Y-67883235D01*
X172306909Y-68072310D01*
X172304241Y-68076156D01*
X172168541Y-68271767D01*
X172158945Y-68285599D01*
X172156878Y-68289789D01*
X172156877Y-68289792D01*
X172141243Y-68321496D01*
X172044133Y-68518415D01*
X171964994Y-68765644D01*
X171923268Y-69021856D01*
X171919870Y-69281420D01*
X166913331Y-69281420D01*
X166916130Y-69067580D01*
X166881125Y-68810364D01*
X166868091Y-68765644D01*
X166848951Y-68699980D01*
X166808485Y-68561148D01*
X166699806Y-68325406D01*
X166671189Y-68281757D01*
X166560043Y-68112230D01*
X166560039Y-68112225D01*
X166557477Y-68108317D01*
X166461185Y-68000431D01*
X166387740Y-67918142D01*
X166387738Y-67918140D01*
X166384623Y-67914650D01*
X166185041Y-67748661D01*
X165963118Y-67613994D01*
X165958804Y-67612185D01*
X165958800Y-67612183D01*
X165728040Y-67515418D01*
X165723726Y-67513609D01*
X165472127Y-67449711D01*
X165256519Y-67428000D01*
X165102104Y-67428000D01*
X165099779Y-67428173D01*
X165099773Y-67428173D01*
X164913779Y-67441995D01*
X164913775Y-67441996D01*
X164909127Y-67442341D01*
X164655941Y-67499631D01*
X164651589Y-67501323D01*
X164651587Y-67501324D01*
X164418357Y-67592022D01*
X164418355Y-67592023D01*
X164414004Y-67593715D01*
X164409950Y-67596032D01*
X164409948Y-67596033D01*
X164378523Y-67613994D01*
X164188631Y-67722526D01*
X163984773Y-67883235D01*
X163806909Y-68072310D01*
X163804241Y-68076156D01*
X163668541Y-68271767D01*
X163658945Y-68285599D01*
X163656878Y-68289789D01*
X163656877Y-68289792D01*
X163641243Y-68321496D01*
X163544133Y-68518415D01*
X163464994Y-68765644D01*
X163423268Y-69021856D01*
X163419870Y-69281420D01*
X122260279Y-69281420D01*
X122162247Y-69033821D01*
X122010184Y-68757221D01*
X121824654Y-68501860D01*
X121608582Y-68271767D01*
X121365375Y-68070568D01*
X121098869Y-67901438D01*
X121095290Y-67899754D01*
X121095283Y-67899750D01*
X120816856Y-67768733D01*
X120816852Y-67768731D01*
X120813266Y-67767044D01*
X120513072Y-67669505D01*
X120240139Y-67617440D01*
X120176973Y-67585028D01*
X120141357Y-67523611D01*
X120144601Y-67452688D01*
X120185673Y-67394778D01*
X120224812Y-67373839D01*
X120251785Y-67365075D01*
X120280167Y-67348689D01*
X120407994Y-67274888D01*
X120413715Y-67271585D01*
X120418623Y-67267166D01*
X120547766Y-67150885D01*
X120547767Y-67150883D01*
X120552669Y-67146470D01*
X120662573Y-66995200D01*
X120738625Y-66824385D01*
X120777500Y-66641490D01*
X120777500Y-66514695D01*
X122081251Y-66514695D01*
X122081548Y-66519848D01*
X122081548Y-66519851D01*
X122092624Y-66711943D01*
X122094110Y-66737715D01*
X122095247Y-66742761D01*
X122095248Y-66742767D01*
X122112187Y-66817928D01*
X122143222Y-66955639D01*
X122181461Y-67049811D01*
X122222503Y-67150885D01*
X122227266Y-67162616D01*
X122229965Y-67167020D01*
X122341182Y-67348510D01*
X122343987Y-67353088D01*
X122347367Y-67356990D01*
X122356138Y-67367116D01*
X122490250Y-67521938D01*
X122662126Y-67664632D01*
X122855000Y-67777338D01*
X123063692Y-67857030D01*
X123068760Y-67858061D01*
X123068763Y-67858062D01*
X123176017Y-67879883D01*
X123282597Y-67901567D01*
X123287772Y-67901757D01*
X123287774Y-67901757D01*
X123500673Y-67909564D01*
X123500677Y-67909564D01*
X123505837Y-67909753D01*
X123510957Y-67909097D01*
X123510959Y-67909097D01*
X123722288Y-67882025D01*
X123722289Y-67882025D01*
X123727416Y-67881368D01*
X123732366Y-67879883D01*
X123936429Y-67818661D01*
X123936434Y-67818659D01*
X123941384Y-67817174D01*
X124141994Y-67718896D01*
X124323860Y-67589173D01*
X124352340Y-67560793D01*
X124478435Y-67435137D01*
X124482096Y-67431489D01*
X124508476Y-67394778D01*
X124609435Y-67254277D01*
X124612453Y-67250077D01*
X124635914Y-67202608D01*
X124709136Y-67054453D01*
X124709137Y-67054451D01*
X124711430Y-67049811D01*
X124763361Y-66878888D01*
X124774865Y-66841023D01*
X124774865Y-66841021D01*
X124776370Y-66836069D01*
X124805529Y-66614590D01*
X124807156Y-66548000D01*
X124788852Y-66325361D01*
X124734431Y-66108702D01*
X124645354Y-65903840D01*
X124535628Y-65734229D01*
X124526822Y-65720617D01*
X124526820Y-65720614D01*
X124524014Y-65716277D01*
X124373670Y-65551051D01*
X124369619Y-65547852D01*
X124369615Y-65547848D01*
X124202414Y-65415800D01*
X124202410Y-65415798D01*
X124198359Y-65412598D01*
X124002789Y-65304638D01*
X123997920Y-65302914D01*
X123997916Y-65302912D01*
X123797087Y-65231795D01*
X123797083Y-65231794D01*
X123792212Y-65230069D01*
X123787119Y-65229162D01*
X123787116Y-65229161D01*
X123577373Y-65191800D01*
X123577367Y-65191799D01*
X123572284Y-65190894D01*
X123498452Y-65189992D01*
X123354081Y-65188228D01*
X123354079Y-65188228D01*
X123348911Y-65188165D01*
X123128091Y-65221955D01*
X122915756Y-65291357D01*
X122717607Y-65394507D01*
X122713474Y-65397610D01*
X122713471Y-65397612D01*
X122543100Y-65525530D01*
X122538965Y-65528635D01*
X122384629Y-65690138D01*
X122258743Y-65874680D01*
X122164688Y-66077305D01*
X122104989Y-66292570D01*
X122081251Y-66514695D01*
X120777500Y-66514695D01*
X120777500Y-66454510D01*
X120776110Y-66447968D01*
X120739997Y-66278072D01*
X120738625Y-66271615D01*
X120735940Y-66265584D01*
X120665258Y-66106830D01*
X120665257Y-66106828D01*
X120662573Y-66100800D01*
X120552669Y-65949530D01*
X120506757Y-65908190D01*
X120418623Y-65828834D01*
X120418622Y-65828833D01*
X120413715Y-65824415D01*
X120251785Y-65730925D01*
X120114754Y-65686401D01*
X120080235Y-65675185D01*
X120080234Y-65675185D01*
X120073956Y-65673145D01*
X120067393Y-65672455D01*
X120067392Y-65672455D01*
X120044803Y-65670081D01*
X119934620Y-65658500D01*
X119841380Y-65658500D01*
X119731197Y-65670081D01*
X119708608Y-65672455D01*
X119708607Y-65672455D01*
X119702044Y-65673145D01*
X119695766Y-65675185D01*
X119695765Y-65675185D01*
X119661246Y-65686401D01*
X119524215Y-65730925D01*
X119362285Y-65824415D01*
X119357378Y-65828833D01*
X119357377Y-65828834D01*
X119269244Y-65908190D01*
X119223331Y-65949530D01*
X119113427Y-66100800D01*
X119110743Y-66106828D01*
X119110742Y-66106830D01*
X119040060Y-66265584D01*
X119037375Y-66271615D01*
X119036003Y-66278072D01*
X118999891Y-66447968D01*
X118998500Y-66454510D01*
X118998500Y-66641490D01*
X119037375Y-66824385D01*
X119113427Y-66995200D01*
X119223331Y-67146470D01*
X119228233Y-67150883D01*
X119228234Y-67150885D01*
X119357377Y-67267166D01*
X119362285Y-67271585D01*
X119368006Y-67274888D01*
X119495834Y-67348689D01*
X119524215Y-67365075D01*
X119551188Y-67373839D01*
X119609794Y-67413913D01*
X119637430Y-67479310D01*
X119625323Y-67549267D01*
X119577316Y-67601573D01*
X119535862Y-67617440D01*
X119262928Y-67669505D01*
X118962734Y-67767044D01*
X118959148Y-67768731D01*
X118959144Y-67768733D01*
X118680717Y-67899750D01*
X118680710Y-67899754D01*
X118677131Y-67901438D01*
X118410625Y-68070568D01*
X118167418Y-68271767D01*
X117951346Y-68501860D01*
X117765816Y-68757221D01*
X117613753Y-69033821D01*
X117497557Y-69327298D01*
X117419060Y-69633025D01*
X117379500Y-69946179D01*
X117379500Y-70261821D01*
X117419060Y-70574975D01*
X117497557Y-70880702D01*
X117613753Y-71174179D01*
X117765816Y-71450779D01*
X117951346Y-71706140D01*
X118167418Y-71936233D01*
X118170469Y-71938757D01*
X118170470Y-71938758D01*
X118250469Y-72004939D01*
X118410625Y-72137432D01*
X118677131Y-72306562D01*
X118950468Y-72435184D01*
X119003588Y-72482285D01*
X119022811Y-72550630D01*
X119002032Y-72618518D01*
X118982918Y-72640590D01*
X118982965Y-72640635D01*
X118828629Y-72802138D01*
X118702743Y-72986680D01*
X118673117Y-73050505D01*
X118635702Y-73131109D01*
X118608688Y-73189305D01*
X118548989Y-73404570D01*
X118527407Y-73606529D01*
X118526621Y-73613880D01*
X118499493Y-73679489D01*
X118441201Y-73720018D01*
X118370251Y-73722597D01*
X118312239Y-73689586D01*
X117834614Y-73211961D01*
X117828760Y-73205695D01*
X117798470Y-73170973D01*
X117793476Y-73165248D01*
X117744898Y-73131107D01*
X117739604Y-73127175D01*
X117698855Y-73095223D01*
X117698856Y-73095223D01*
X117692879Y-73090537D01*
X117685955Y-73087411D01*
X117679824Y-73083698D01*
X117675204Y-73081062D01*
X117668822Y-73077640D01*
X117662603Y-73073269D01*
X117607286Y-73051701D01*
X117601207Y-73049146D01*
X117569593Y-73034872D01*
X117515651Y-72988475D01*
X117414822Y-72832617D01*
X117414820Y-72832614D01*
X117412014Y-72828277D01*
X117261670Y-72663051D01*
X117257619Y-72659852D01*
X117257615Y-72659848D01*
X117090414Y-72527800D01*
X117090410Y-72527798D01*
X117086359Y-72524598D01*
X117054305Y-72506903D01*
X117009709Y-72482285D01*
X116890789Y-72416638D01*
X116885920Y-72414914D01*
X116885916Y-72414912D01*
X116685087Y-72343795D01*
X116685083Y-72343794D01*
X116680212Y-72342069D01*
X116675119Y-72341162D01*
X116675116Y-72341161D01*
X116465373Y-72303800D01*
X116465367Y-72303799D01*
X116460284Y-72302894D01*
X116386452Y-72301992D01*
X116242081Y-72300228D01*
X116242079Y-72300228D01*
X116236911Y-72300165D01*
X116016091Y-72333955D01*
X115803756Y-72403357D01*
X115605607Y-72506507D01*
X115601474Y-72509610D01*
X115601471Y-72509612D01*
X115466789Y-72610734D01*
X115426965Y-72640635D01*
X115272629Y-72802138D01*
X115146743Y-72986680D01*
X115117117Y-73050505D01*
X115079702Y-73131109D01*
X115052688Y-73189305D01*
X114992989Y-73404570D01*
X114969251Y-73626695D01*
X114969548Y-73631848D01*
X114969548Y-73631851D01*
X114975011Y-73726590D01*
X114982110Y-73849715D01*
X114983247Y-73854761D01*
X114983248Y-73854767D01*
X115001218Y-73934502D01*
X115031222Y-74067639D01*
X115115266Y-74274616D01*
X115128981Y-74296997D01*
X115223434Y-74451130D01*
X115231987Y-74465088D01*
X115378250Y-74633938D01*
X115550126Y-74776632D01*
X115743000Y-74889338D01*
X115951692Y-74969030D01*
X115956760Y-74970061D01*
X115956763Y-74970062D01*
X116057136Y-74990483D01*
X116170597Y-75013567D01*
X116175772Y-75013757D01*
X116175774Y-75013757D01*
X116388673Y-75021564D01*
X116388677Y-75021564D01*
X116393837Y-75021753D01*
X116398957Y-75021097D01*
X116398959Y-75021097D01*
X116610288Y-74994025D01*
X116610289Y-74994025D01*
X116615416Y-74993368D01*
X116625032Y-74990483D01*
X116824429Y-74930661D01*
X116824434Y-74930659D01*
X116829384Y-74929174D01*
X117029994Y-74830896D01*
X117211860Y-74701173D01*
X117219990Y-74693072D01*
X117244305Y-74668841D01*
X117306676Y-74634923D01*
X117377483Y-74640111D01*
X117422341Y-74668995D01*
X122703393Y-79950047D01*
X122709246Y-79956312D01*
X122744524Y-79996752D01*
X122793093Y-80030887D01*
X122798386Y-80034818D01*
X122845122Y-80071463D01*
X122852050Y-80074591D01*
X122858206Y-80078319D01*
X122862825Y-80080954D01*
X122869181Y-80084362D01*
X122875397Y-80088731D01*
X122882476Y-80091491D01*
X122930698Y-80110292D01*
X122936779Y-80112848D01*
X122990912Y-80137290D01*
X122998375Y-80138673D01*
X123005193Y-80140810D01*
X123010378Y-80142287D01*
X123017355Y-80144078D01*
X123024434Y-80146838D01*
X123031967Y-80147830D01*
X123031968Y-80147830D01*
X123055152Y-80150882D01*
X123083308Y-80154589D01*
X123089805Y-80155618D01*
X123148198Y-80166440D01*
X123155779Y-80166003D01*
X123155780Y-80166003D01*
X123205968Y-80163109D01*
X123213221Y-80162900D01*
X129121500Y-80162900D01*
X129189621Y-80182902D01*
X129236114Y-80236558D01*
X129247500Y-80288900D01*
X129247500Y-80350134D01*
X129254255Y-80412316D01*
X129305385Y-80548705D01*
X129392739Y-80665261D01*
X129509295Y-80752615D01*
X129645684Y-80803745D01*
X129707866Y-80810500D01*
X131310657Y-80810500D01*
X131378778Y-80830502D01*
X131425271Y-80884158D01*
X131435375Y-80954432D01*
X131405881Y-81019012D01*
X131399752Y-81025595D01*
X131377961Y-81047386D01*
X131371696Y-81053239D01*
X131331248Y-81088524D01*
X131326881Y-81094738D01*
X131297109Y-81137099D01*
X131293177Y-81142393D01*
X131256537Y-81189121D01*
X131253411Y-81196045D01*
X131249698Y-81202176D01*
X131247062Y-81206796D01*
X131243640Y-81213178D01*
X131239269Y-81219397D01*
X131236509Y-81226476D01*
X131217702Y-81274713D01*
X131215146Y-81280792D01*
X131190711Y-81334912D01*
X131189325Y-81342388D01*
X131187170Y-81349266D01*
X131185710Y-81354391D01*
X131183922Y-81361355D01*
X131181162Y-81368434D01*
X131180170Y-81375966D01*
X131180170Y-81375968D01*
X131173414Y-81427292D01*
X131172384Y-81433798D01*
X131161560Y-81492197D01*
X131161997Y-81499777D01*
X131161997Y-81499778D01*
X131164891Y-81549967D01*
X131165100Y-81557220D01*
X131165100Y-88066056D01*
X131145098Y-88134177D01*
X131128195Y-88155151D01*
X130938687Y-88344659D01*
X130876375Y-88378685D01*
X130816980Y-88377270D01*
X130789409Y-88369882D01*
X130789398Y-88369880D01*
X130784087Y-88368457D01*
X130556000Y-88348502D01*
X130327913Y-88368457D01*
X130322600Y-88369881D01*
X130322598Y-88369881D01*
X130112067Y-88426293D01*
X130112065Y-88426294D01*
X130106757Y-88427716D01*
X130101776Y-88430039D01*
X130101775Y-88430039D01*
X129904238Y-88522151D01*
X129904233Y-88522154D01*
X129899251Y-88524477D01*
X129804121Y-88591088D01*
X129716211Y-88652643D01*
X129716208Y-88652645D01*
X129711700Y-88655802D01*
X129549802Y-88817700D01*
X129546645Y-88822208D01*
X129546643Y-88822211D01*
X129459005Y-88947371D01*
X129403548Y-88991699D01*
X129355792Y-89001100D01*
X128482216Y-89001100D01*
X128414095Y-88981098D01*
X128379003Y-88947371D01*
X128263357Y-88782211D01*
X128263355Y-88782208D01*
X128260198Y-88777700D01*
X128098300Y-88615802D01*
X128093792Y-88612645D01*
X128093789Y-88612643D01*
X128000808Y-88547537D01*
X127910749Y-88484477D01*
X127905767Y-88482154D01*
X127905762Y-88482151D01*
X127708225Y-88390039D01*
X127708224Y-88390039D01*
X127703243Y-88387716D01*
X127697935Y-88386294D01*
X127697933Y-88386293D01*
X127487402Y-88329881D01*
X127487400Y-88329881D01*
X127482087Y-88328457D01*
X127254000Y-88308502D01*
X127025913Y-88328457D01*
X127020600Y-88329881D01*
X127020598Y-88329881D01*
X126810067Y-88386293D01*
X126810065Y-88386294D01*
X126804757Y-88387716D01*
X126799776Y-88390039D01*
X126799775Y-88390039D01*
X126602238Y-88482151D01*
X126602233Y-88482154D01*
X126597251Y-88484477D01*
X126507192Y-88547537D01*
X126414211Y-88612643D01*
X126414208Y-88612645D01*
X126409700Y-88615802D01*
X126247802Y-88777700D01*
X126244645Y-88782208D01*
X126244643Y-88782211D01*
X126157005Y-88907371D01*
X126101548Y-88951699D01*
X126053792Y-88961100D01*
X125507944Y-88961100D01*
X125439823Y-88941098D01*
X125418849Y-88924195D01*
X121898614Y-85403961D01*
X121892760Y-85397695D01*
X121862470Y-85362973D01*
X121857476Y-85357248D01*
X121808898Y-85323107D01*
X121803604Y-85319175D01*
X121762855Y-85287223D01*
X121762856Y-85287223D01*
X121756879Y-85282537D01*
X121749955Y-85279411D01*
X121743824Y-85275698D01*
X121739204Y-85273062D01*
X121732822Y-85269640D01*
X121726603Y-85265269D01*
X121671286Y-85243701D01*
X121665207Y-85241146D01*
X121611088Y-85216711D01*
X121603612Y-85215325D01*
X121596734Y-85213170D01*
X121591609Y-85211710D01*
X121584645Y-85209922D01*
X121577566Y-85207162D01*
X121570034Y-85206170D01*
X121570032Y-85206170D01*
X121544804Y-85202849D01*
X121518700Y-85199413D01*
X121512202Y-85198384D01*
X121453803Y-85187560D01*
X121446223Y-85187997D01*
X121446222Y-85187997D01*
X121396033Y-85190891D01*
X121388780Y-85191100D01*
X119369079Y-85191100D01*
X119300958Y-85171098D01*
X119263287Y-85133540D01*
X119192822Y-85024617D01*
X119192820Y-85024614D01*
X119190014Y-85020277D01*
X119039670Y-84855051D01*
X119035619Y-84851852D01*
X119035615Y-84851848D01*
X118868414Y-84719800D01*
X118868410Y-84719798D01*
X118864359Y-84716598D01*
X118857235Y-84712665D01*
X118778048Y-84668952D01*
X118668789Y-84608638D01*
X118663920Y-84606914D01*
X118663916Y-84606912D01*
X118463087Y-84535795D01*
X118463083Y-84535794D01*
X118458212Y-84534069D01*
X118453119Y-84533162D01*
X118453116Y-84533161D01*
X118243373Y-84495800D01*
X118243367Y-84495799D01*
X118238284Y-84494894D01*
X118164452Y-84493992D01*
X118020081Y-84492228D01*
X118020079Y-84492228D01*
X118014911Y-84492165D01*
X117794091Y-84525955D01*
X117793806Y-84524093D01*
X117731055Y-84520829D01*
X117683689Y-84491035D01*
X116513490Y-83320836D01*
X115308815Y-82116162D01*
X115274790Y-82053850D01*
X115279434Y-81985065D01*
X115280284Y-81983243D01*
X115323017Y-81823761D01*
X115338119Y-81767402D01*
X115338119Y-81767400D01*
X115339543Y-81762087D01*
X115359498Y-81534000D01*
X115339543Y-81305913D01*
X115316361Y-81219397D01*
X115281707Y-81090067D01*
X115281706Y-81090065D01*
X115280284Y-81084757D01*
X115265759Y-81053608D01*
X115185849Y-80882238D01*
X115185846Y-80882233D01*
X115183523Y-80877251D01*
X115077878Y-80726375D01*
X115055357Y-80694211D01*
X115055355Y-80694208D01*
X115052198Y-80689700D01*
X114890300Y-80527802D01*
X114885792Y-80524645D01*
X114885789Y-80524643D01*
X114735936Y-80419715D01*
X114702749Y-80396477D01*
X114697767Y-80394154D01*
X114697762Y-80394151D01*
X114500225Y-80302039D01*
X114500224Y-80302039D01*
X114495243Y-80299716D01*
X114489935Y-80298294D01*
X114489933Y-80298293D01*
X114279402Y-80241881D01*
X114279400Y-80241881D01*
X114274087Y-80240457D01*
X114046000Y-80220502D01*
X113817913Y-80240457D01*
X113812600Y-80241881D01*
X113812598Y-80241881D01*
X113602067Y-80298293D01*
X113602065Y-80298294D01*
X113596757Y-80299716D01*
X113591776Y-80302039D01*
X113591775Y-80302039D01*
X113394238Y-80394151D01*
X113394233Y-80394154D01*
X113389251Y-80396477D01*
X113356064Y-80419715D01*
X113206211Y-80524643D01*
X113206208Y-80524645D01*
X113201700Y-80527802D01*
X113039802Y-80689700D01*
X113036645Y-80694208D01*
X113036643Y-80694211D01*
X113014122Y-80726375D01*
X112908477Y-80877251D01*
X112906154Y-80882233D01*
X112906151Y-80882238D01*
X112826241Y-81053608D01*
X112811716Y-81084757D01*
X112810294Y-81090065D01*
X112810293Y-81090067D01*
X112775639Y-81219397D01*
X112752457Y-81305913D01*
X112732502Y-81534000D01*
X112752457Y-81762087D01*
X112753881Y-81767400D01*
X112753881Y-81767402D01*
X112810293Y-81977931D01*
X112811716Y-81983243D01*
X112814039Y-81988224D01*
X112814039Y-81988225D01*
X112906151Y-82185762D01*
X112906154Y-82185767D01*
X112908477Y-82190749D01*
X113039802Y-82378300D01*
X113201700Y-82540198D01*
X113206208Y-82543355D01*
X113206211Y-82543357D01*
X113284389Y-82598098D01*
X113389251Y-82671523D01*
X113394233Y-82673846D01*
X113394238Y-82673849D01*
X113591775Y-82765961D01*
X113596757Y-82768284D01*
X113602065Y-82769706D01*
X113602067Y-82769707D01*
X113812598Y-82826119D01*
X113812600Y-82826119D01*
X113817913Y-82827543D01*
X114046000Y-82847498D01*
X114051475Y-82847019D01*
X114102270Y-82842575D01*
X114171875Y-82856564D01*
X114202347Y-82879001D01*
X116751365Y-85428018D01*
X116785390Y-85490330D01*
X116783687Y-85550783D01*
X116770989Y-85596570D01*
X116770441Y-85601700D01*
X116770440Y-85601704D01*
X116768067Y-85623913D01*
X116747251Y-85818695D01*
X116747548Y-85823848D01*
X116747548Y-85823851D01*
X116754369Y-85942151D01*
X116760110Y-86041715D01*
X116761247Y-86046761D01*
X116761248Y-86046767D01*
X116777938Y-86120824D01*
X116809222Y-86259639D01*
X116868423Y-86405435D01*
X116882519Y-86440148D01*
X116893266Y-86466616D01*
X116930355Y-86527140D01*
X117004012Y-86647337D01*
X117009987Y-86657088D01*
X117156250Y-86825938D01*
X117328126Y-86968632D01*
X117398595Y-87009811D01*
X117401445Y-87011476D01*
X117450169Y-87063114D01*
X117463240Y-87132897D01*
X117436509Y-87198669D01*
X117396055Y-87232027D01*
X117383607Y-87238507D01*
X117379474Y-87241610D01*
X117379471Y-87241612D01*
X117209100Y-87369530D01*
X117204965Y-87372635D01*
X117201393Y-87376373D01*
X117076890Y-87506658D01*
X117050629Y-87534138D01*
X117047715Y-87538410D01*
X117047714Y-87538411D01*
X116994319Y-87616685D01*
X116924743Y-87718680D01*
X116905493Y-87760151D01*
X116870753Y-87834993D01*
X116830688Y-87921305D01*
X116829305Y-87926291D01*
X116829303Y-87926297D01*
X116824629Y-87943151D01*
X116787149Y-88003447D01*
X116723019Y-88033909D01*
X116652601Y-88024863D01*
X116614118Y-87998570D01*
X115316815Y-86701267D01*
X115307713Y-86691124D01*
X115290412Y-86669606D01*
X115283775Y-86661351D01*
X115244998Y-86628813D01*
X115241371Y-86625649D01*
X115239502Y-86623954D01*
X115237308Y-86621760D01*
X115203742Y-86594188D01*
X115202945Y-86593526D01*
X115131067Y-86533214D01*
X115126361Y-86530627D01*
X115122211Y-86527218D01*
X115116787Y-86524310D01*
X115116777Y-86524303D01*
X115039632Y-86482939D01*
X115038472Y-86482310D01*
X115017935Y-86471020D01*
X114956379Y-86437179D01*
X114951259Y-86435555D01*
X114946526Y-86433017D01*
X114857007Y-86405648D01*
X114855748Y-86405256D01*
X114772239Y-86378765D01*
X114772235Y-86378764D01*
X114766365Y-86376902D01*
X114761027Y-86376303D01*
X114755891Y-86374733D01*
X114749760Y-86374110D01*
X114749759Y-86374110D01*
X114729103Y-86372012D01*
X114662569Y-86365254D01*
X114661449Y-86365134D01*
X114611216Y-86359500D01*
X114607711Y-86359500D01*
X114606603Y-86359438D01*
X114600908Y-86358990D01*
X114563695Y-86355210D01*
X114563688Y-86355210D01*
X114557565Y-86354588D01*
X114513398Y-86358763D01*
X114511515Y-86358941D01*
X114499657Y-86359500D01*
X113092276Y-86359500D01*
X113078668Y-86358763D01*
X113046821Y-86355303D01*
X113046817Y-86355303D01*
X113040696Y-86354638D01*
X113003828Y-86357863D01*
X112990310Y-86359046D01*
X112985482Y-86359375D01*
X112982927Y-86359500D01*
X112979843Y-86359500D01*
X112964469Y-86361008D01*
X112936781Y-86363722D01*
X112935468Y-86363844D01*
X112895371Y-86367352D01*
X112842108Y-86372012D01*
X112836948Y-86373511D01*
X112831606Y-86374035D01*
X112741904Y-86401117D01*
X112740764Y-86401455D01*
X112650678Y-86427628D01*
X112645910Y-86430100D01*
X112640768Y-86431652D01*
X112635323Y-86434547D01*
X112635316Y-86434550D01*
X112558050Y-86475633D01*
X112556946Y-86476213D01*
X112473696Y-86519366D01*
X112469497Y-86522718D01*
X112464756Y-86525239D01*
X112459984Y-86529131D01*
X112392171Y-86584438D01*
X112391145Y-86585266D01*
X112360415Y-86609798D01*
X112351684Y-86616768D01*
X112349189Y-86619263D01*
X112348395Y-86619973D01*
X112344040Y-86623693D01*
X112315049Y-86647337D01*
X112315046Y-86647340D01*
X112310274Y-86651232D01*
X112306346Y-86655980D01*
X112306345Y-86655981D01*
X112280789Y-86686873D01*
X112272800Y-86695652D01*
X111593267Y-87375185D01*
X111583125Y-87384286D01*
X111553351Y-87408225D01*
X111520813Y-87447002D01*
X111517649Y-87450629D01*
X111515954Y-87452498D01*
X111513760Y-87454692D01*
X111486188Y-87488258D01*
X111485526Y-87489055D01*
X111425214Y-87560933D01*
X111422627Y-87565639D01*
X111419218Y-87569789D01*
X111416310Y-87575213D01*
X111416303Y-87575223D01*
X111374939Y-87652368D01*
X111374310Y-87653528D01*
X111329179Y-87735621D01*
X111327555Y-87740741D01*
X111325017Y-87745474D01*
X111300790Y-87824716D01*
X111297648Y-87834993D01*
X111297256Y-87836252D01*
X111280002Y-87890643D01*
X111268902Y-87925635D01*
X111268303Y-87930973D01*
X111266733Y-87936109D01*
X111260389Y-87998570D01*
X111257263Y-88029343D01*
X111257134Y-88030551D01*
X111251500Y-88080784D01*
X111251500Y-88084289D01*
X111251438Y-88085397D01*
X111250990Y-88091092D01*
X111247210Y-88128305D01*
X111247210Y-88128312D01*
X111246588Y-88134435D01*
X107950500Y-88134435D01*
X107950500Y-66514695D01*
X114969251Y-66514695D01*
X114969548Y-66519848D01*
X114969548Y-66519851D01*
X114980624Y-66711943D01*
X114982110Y-66737715D01*
X114983247Y-66742761D01*
X114983248Y-66742767D01*
X115000187Y-66817928D01*
X115031222Y-66955639D01*
X115069461Y-67049811D01*
X115110503Y-67150885D01*
X115115266Y-67162616D01*
X115117965Y-67167020D01*
X115229182Y-67348510D01*
X115231987Y-67353088D01*
X115235367Y-67356990D01*
X115244138Y-67367116D01*
X115378250Y-67521938D01*
X115550126Y-67664632D01*
X115743000Y-67777338D01*
X115951692Y-67857030D01*
X115956760Y-67858061D01*
X115956763Y-67858062D01*
X116064017Y-67879883D01*
X116170597Y-67901567D01*
X116175772Y-67901757D01*
X116175774Y-67901757D01*
X116388673Y-67909564D01*
X116388677Y-67909564D01*
X116393837Y-67909753D01*
X116398957Y-67909097D01*
X116398959Y-67909097D01*
X116610288Y-67882025D01*
X116610289Y-67882025D01*
X116615416Y-67881368D01*
X116620366Y-67879883D01*
X116824429Y-67818661D01*
X116824434Y-67818659D01*
X116829384Y-67817174D01*
X117029994Y-67718896D01*
X117211860Y-67589173D01*
X117240340Y-67560793D01*
X117366435Y-67435137D01*
X117370096Y-67431489D01*
X117396476Y-67394778D01*
X117497435Y-67254277D01*
X117500453Y-67250077D01*
X117523914Y-67202608D01*
X117597136Y-67054453D01*
X117597137Y-67054451D01*
X117599430Y-67049811D01*
X117651361Y-66878888D01*
X117662865Y-66841023D01*
X117662865Y-66841021D01*
X117664370Y-66836069D01*
X117693529Y-66614590D01*
X117695156Y-66548000D01*
X117676852Y-66325361D01*
X117622431Y-66108702D01*
X117533354Y-65903840D01*
X117423628Y-65734229D01*
X117414822Y-65720617D01*
X117414820Y-65720614D01*
X117412014Y-65716277D01*
X117261670Y-65551051D01*
X117257619Y-65547852D01*
X117257615Y-65547848D01*
X117090414Y-65415800D01*
X117090410Y-65415798D01*
X117086359Y-65412598D01*
X116890789Y-65304638D01*
X116885920Y-65302914D01*
X116885916Y-65302912D01*
X116685087Y-65231795D01*
X116685083Y-65231794D01*
X116680212Y-65230069D01*
X116675119Y-65229162D01*
X116675116Y-65229161D01*
X116465373Y-65191800D01*
X116465367Y-65191799D01*
X116460284Y-65190894D01*
X116386452Y-65189992D01*
X116242081Y-65188228D01*
X116242079Y-65188228D01*
X116236911Y-65188165D01*
X116016091Y-65221955D01*
X115803756Y-65291357D01*
X115605607Y-65394507D01*
X115601474Y-65397610D01*
X115601471Y-65397612D01*
X115431100Y-65525530D01*
X115426965Y-65528635D01*
X115272629Y-65690138D01*
X115146743Y-65874680D01*
X115052688Y-66077305D01*
X114992989Y-66292570D01*
X114969251Y-66514695D01*
X107950500Y-66514695D01*
X107950500Y-64778818D01*
X107970502Y-64710697D01*
X107987405Y-64689722D01*
X108123724Y-64553404D01*
X108186036Y-64519379D01*
X108212819Y-64516500D01*
X133878087Y-64516500D01*
X133946208Y-64536502D01*
G37*
%TD.AperFunction*%
M02*
