M48
; DRILL file {KiCad 6.0.11-2627ca5db0~126~ubuntu22.04.1} date Sat 08 Apr 2023 09:16:00 PM EDT
; FORMAT={-:-/ absolute / metric / decimal}
; #@! TF.CreationDate,2023-04-08T21:16:00-04:00
; #@! TF.GenerationSoftware,Kicad,Pcbnew,6.0.11-2627ca5db0~126~ubuntu22.04.1
; #@! TF.FileFunction,Plated,1,2,PTH
FMAT,2
METRIC
; #@! TA.AperFunction,Plated,PTH,ComponentDrill
T1C0.762
; #@! TA.AperFunction,Plated,PTH,ComponentDrill
T2C0.800
; #@! TA.AperFunction,Plated,PTH,ComponentDrill
T3C0.900
; #@! TA.AperFunction,Plated,PTH,ComponentDrill
T4C1.000
; #@! TA.AperFunction,Plated,PTH,ComponentDrill
T5C1.250
; #@! TA.AperFunction,Plated,PTH,ComponentDrill
T6C1.300
; #@! TA.AperFunction,Plated,PTH,ComponentDrill
T7C2.000
; #@! TA.AperFunction,Plated,PTH,ComponentDrill
T8C2.200
; #@! TA.AperFunction,Plated,PTH,ComponentDrill
T9C2.693
; #@! TA.AperFunction,Plated,PTH,ComponentDrill
T10C2.818
; #@! TA.AperFunction,Plated,PTH,ComponentDrill
T11C4.000
%
G90
G05
T1
X119.126Y-73.914
X119.126Y-81.026
X122.682Y-73.914
X122.682Y-81.026
X126.238Y-73.914
X126.238Y-81.026
T2
X116.84Y-88.9
X116.84Y-96.52
X121.951Y-117.094
X123.951Y-117.094
X125.984Y-102.108
X125.984Y-112.268
X126.238Y-84.328
X126.238Y-99.568
X130.048Y-91.988
X130.048Y-96.988
X130.302Y-101.6
X130.302Y-109.22
X130.81Y-117.094
X131.318Y-75.264
X131.318Y-80.264
X132.882Y-113.538
X133.35Y-86.868
X133.35Y-97.028
X133.858Y-105.45
X133.858Y-110.45
X134.366Y-82.55
X136.652Y-86.106
X136.692Y-92.71
X137.882Y-113.538
X138.176Y-89.408
X138.43Y-98.044
X138.43Y-105.664
X138.43Y-117.094
X140.97Y-98.044
X140.97Y-105.664
X141.692Y-92.71
X141.732Y-109.728
X141.986Y-82.55
X143.296Y-114.3
X143.51Y-98.044
X143.51Y-105.664
X144.272Y-86.106
X145.796Y-89.408
X146.05Y-98.044
X146.05Y-105.664
X148.296Y-114.3
X148.59Y-98.044
X148.59Y-105.664
X148.63Y-92.202
X149.352Y-109.728
X151.13Y-98.044
X151.13Y-105.664
X151.892Y-79.502
X151.892Y-87.122
X153.63Y-92.202
X153.67Y-98.044
X153.67Y-105.664
X156.21Y-98.044
X156.21Y-105.664
X156.464Y-77.296
X156.464Y-82.296
X156.798Y-109.22
X158.75Y-98.044
X158.75Y-105.664
X160.528Y-86.36
X160.528Y-93.98
X160.782Y-76.454
X160.782Y-84.074
X161.798Y-109.22
X163.754Y-117.856
X163.83Y-89.448
X163.83Y-94.448
X163.83Y-113.792
X168.442Y-99.314
X171.374Y-117.856
X171.45Y-113.792
X173.442Y-99.314
X176.53Y-89.956
X176.53Y-94.956
T3
X141.796Y-75.946
X143.796Y-75.946
X145.796Y-75.946
T4
X120.904Y-90.678
X120.904Y-93.218
X120.904Y-95.758
X120.904Y-98.298
X120.904Y-100.838
X120.904Y-103.378
X120.904Y-105.918
X120.904Y-108.458
T5
X139.696Y-75.946
X147.896Y-75.946
T6
X151.932Y-116.332
X156.932Y-116.332
X168.188Y-105.918
X170.18Y-89.702
X170.18Y-94.702
X173.188Y-105.918
T7
X117.602Y-77.47
X127.762Y-77.47
T8
X120.904Y-86.614
X120.904Y-112.522
T9
X172.212Y-84.191
T10
X172.212Y-79.691
T11
X122.682Y-77.47
T0
M30
