%TF.GenerationSoftware,KiCad,Pcbnew,6.0.11-2627ca5db0~126~ubuntu22.04.1*%
%TF.CreationDate,2023-05-01T09:38:35-04:00*%
%TF.ProjectId,sub_rf_mod,7375625f-7266-45f6-9d6f-642e6b696361,rev?*%
%TF.SameCoordinates,Original*%
%TF.FileFunction,Legend,Top*%
%TF.FilePolarity,Positive*%
%FSLAX46Y46*%
G04 Gerber Fmt 4.6, Leading zero omitted, Abs format (unit mm)*
G04 Created by KiCad (PCBNEW 6.0.11-2627ca5db0~126~ubuntu22.04.1) date 2023-05-01 09:38:35*
%MOMM*%
%LPD*%
G01*
G04 APERTURE LIST*
%TA.AperFunction,Profile*%
%ADD10C,0.100000*%
%TD*%
%ADD11C,0.150000*%
%ADD12C,0.254000*%
%ADD13C,0.120000*%
%ADD14C,0.200000*%
%ADD15C,0.100000*%
G04 APERTURE END LIST*
D10*
X111633000Y-57023000D02*
X179705000Y-57023000D01*
X111633000Y-57023000D02*
X111125000Y-57531000D01*
X180213000Y-106553000D02*
X180213000Y-57531000D01*
X179705000Y-57023000D02*
X180213000Y-57531000D01*
X111125000Y-106553000D02*
X111633000Y-107061000D01*
X111125000Y-106553000D02*
X111125000Y-57531000D01*
X179705000Y-107061000D02*
X180213000Y-106553000D01*
X111633000Y-107061000D02*
X179705000Y-107061000D01*
D11*
%TO.C,RF_C10*%
X178379380Y-91487380D02*
X177903190Y-91820714D01*
X178379380Y-92058809D02*
X177379380Y-92058809D01*
X177379380Y-91677857D01*
X177427000Y-91582619D01*
X177474619Y-91535000D01*
X177569857Y-91487380D01*
X177712714Y-91487380D01*
X177807952Y-91535000D01*
X177855571Y-91582619D01*
X177903190Y-91677857D01*
X177903190Y-92058809D01*
X177855571Y-90725476D02*
X177855571Y-91058809D01*
X178379380Y-91058809D02*
X177379380Y-91058809D01*
X177379380Y-90582619D01*
X178474619Y-90439761D02*
X178474619Y-89677857D01*
X178284142Y-88868333D02*
X178331761Y-88915952D01*
X178379380Y-89058809D01*
X178379380Y-89154047D01*
X178331761Y-89296904D01*
X178236523Y-89392142D01*
X178141285Y-89439761D01*
X177950809Y-89487380D01*
X177807952Y-89487380D01*
X177617476Y-89439761D01*
X177522238Y-89392142D01*
X177427000Y-89296904D01*
X177379380Y-89154047D01*
X177379380Y-89058809D01*
X177427000Y-88915952D01*
X177474619Y-88868333D01*
X178379380Y-87915952D02*
X178379380Y-88487380D01*
X178379380Y-88201666D02*
X177379380Y-88201666D01*
X177522238Y-88296904D01*
X177617476Y-88392142D01*
X177665095Y-88487380D01*
X177379380Y-87296904D02*
X177379380Y-87201666D01*
X177427000Y-87106428D01*
X177474619Y-87058809D01*
X177569857Y-87011190D01*
X177760333Y-86963571D01*
X177998428Y-86963571D01*
X178188904Y-87011190D01*
X178284142Y-87058809D01*
X178331761Y-87106428D01*
X178379380Y-87201666D01*
X178379380Y-87296904D01*
X178331761Y-87392142D01*
X178284142Y-87439761D01*
X178188904Y-87487380D01*
X177998428Y-87535000D01*
X177760333Y-87535000D01*
X177569857Y-87487380D01*
X177474619Y-87439761D01*
X177427000Y-87392142D01*
X177379380Y-87296904D01*
%TO.C,RF_JP1*%
X125293380Y-75898142D02*
X124817190Y-76231476D01*
X125293380Y-76469571D02*
X124293380Y-76469571D01*
X124293380Y-76088619D01*
X124341000Y-75993380D01*
X124388619Y-75945761D01*
X124483857Y-75898142D01*
X124626714Y-75898142D01*
X124721952Y-75945761D01*
X124769571Y-75993380D01*
X124817190Y-76088619D01*
X124817190Y-76469571D01*
X124769571Y-75136238D02*
X124769571Y-75469571D01*
X125293380Y-75469571D02*
X124293380Y-75469571D01*
X124293380Y-74993380D01*
X125388619Y-74850523D02*
X125388619Y-74088619D01*
X124293380Y-73564809D02*
X125007666Y-73564809D01*
X125150523Y-73612428D01*
X125245761Y-73707666D01*
X125293380Y-73850523D01*
X125293380Y-73945761D01*
X125293380Y-73088619D02*
X124293380Y-73088619D01*
X124293380Y-72707666D01*
X124341000Y-72612428D01*
X124388619Y-72564809D01*
X124483857Y-72517190D01*
X124626714Y-72517190D01*
X124721952Y-72564809D01*
X124769571Y-72612428D01*
X124817190Y-72707666D01*
X124817190Y-73088619D01*
X125293380Y-71564809D02*
X125293380Y-72136238D01*
X125293380Y-71850523D02*
X124293380Y-71850523D01*
X124436238Y-71945761D01*
X124531476Y-72041000D01*
X124579095Y-72136238D01*
%TO.C,RF_C6*%
X159940809Y-97099380D02*
X159607476Y-96623190D01*
X159369380Y-97099380D02*
X159369380Y-96099380D01*
X159750333Y-96099380D01*
X159845571Y-96147000D01*
X159893190Y-96194619D01*
X159940809Y-96289857D01*
X159940809Y-96432714D01*
X159893190Y-96527952D01*
X159845571Y-96575571D01*
X159750333Y-96623190D01*
X159369380Y-96623190D01*
X160702714Y-96575571D02*
X160369380Y-96575571D01*
X160369380Y-97099380D02*
X160369380Y-96099380D01*
X160845571Y-96099380D01*
X160988428Y-97194619D02*
X161750333Y-97194619D01*
X162559857Y-97004142D02*
X162512238Y-97051761D01*
X162369380Y-97099380D01*
X162274142Y-97099380D01*
X162131285Y-97051761D01*
X162036047Y-96956523D01*
X161988428Y-96861285D01*
X161940809Y-96670809D01*
X161940809Y-96527952D01*
X161988428Y-96337476D01*
X162036047Y-96242238D01*
X162131285Y-96147000D01*
X162274142Y-96099380D01*
X162369380Y-96099380D01*
X162512238Y-96147000D01*
X162559857Y-96194619D01*
X163417000Y-96099380D02*
X163226523Y-96099380D01*
X163131285Y-96147000D01*
X163083666Y-96194619D01*
X162988428Y-96337476D01*
X162940809Y-96527952D01*
X162940809Y-96908904D01*
X162988428Y-97004142D01*
X163036047Y-97051761D01*
X163131285Y-97099380D01*
X163321761Y-97099380D01*
X163417000Y-97051761D01*
X163464619Y-97004142D01*
X163512238Y-96908904D01*
X163512238Y-96670809D01*
X163464619Y-96575571D01*
X163417000Y-96527952D01*
X163321761Y-96480333D01*
X163131285Y-96480333D01*
X163036047Y-96527952D01*
X162988428Y-96575571D01*
X162940809Y-96670809D01*
%TO.C,RF_C5*%
X144700809Y-83129380D02*
X144367476Y-82653190D01*
X144129380Y-83129380D02*
X144129380Y-82129380D01*
X144510333Y-82129380D01*
X144605571Y-82177000D01*
X144653190Y-82224619D01*
X144700809Y-82319857D01*
X144700809Y-82462714D01*
X144653190Y-82557952D01*
X144605571Y-82605571D01*
X144510333Y-82653190D01*
X144129380Y-82653190D01*
X145462714Y-82605571D02*
X145129380Y-82605571D01*
X145129380Y-83129380D02*
X145129380Y-82129380D01*
X145605571Y-82129380D01*
X145748428Y-83224619D02*
X146510333Y-83224619D01*
X147319857Y-83034142D02*
X147272238Y-83081761D01*
X147129380Y-83129380D01*
X147034142Y-83129380D01*
X146891285Y-83081761D01*
X146796047Y-82986523D01*
X146748428Y-82891285D01*
X146700809Y-82700809D01*
X146700809Y-82557952D01*
X146748428Y-82367476D01*
X146796047Y-82272238D01*
X146891285Y-82177000D01*
X147034142Y-82129380D01*
X147129380Y-82129380D01*
X147272238Y-82177000D01*
X147319857Y-82224619D01*
X148224619Y-82129380D02*
X147748428Y-82129380D01*
X147700809Y-82605571D01*
X147748428Y-82557952D01*
X147843666Y-82510333D01*
X148081761Y-82510333D01*
X148177000Y-82557952D01*
X148224619Y-82605571D01*
X148272238Y-82700809D01*
X148272238Y-82938904D01*
X148224619Y-83034142D01*
X148177000Y-83081761D01*
X148081761Y-83129380D01*
X147843666Y-83129380D01*
X147748428Y-83081761D01*
X147700809Y-83034142D01*
%TO.C,RF_R11*%
X147018619Y-77033380D02*
X146685285Y-76557190D01*
X146447190Y-77033380D02*
X146447190Y-76033380D01*
X146828142Y-76033380D01*
X146923380Y-76081000D01*
X146971000Y-76128619D01*
X147018619Y-76223857D01*
X147018619Y-76366714D01*
X146971000Y-76461952D01*
X146923380Y-76509571D01*
X146828142Y-76557190D01*
X146447190Y-76557190D01*
X147780523Y-76509571D02*
X147447190Y-76509571D01*
X147447190Y-77033380D02*
X147447190Y-76033380D01*
X147923380Y-76033380D01*
X148066238Y-77128619D02*
X148828142Y-77128619D01*
X149637666Y-77033380D02*
X149304333Y-76557190D01*
X149066238Y-77033380D02*
X149066238Y-76033380D01*
X149447190Y-76033380D01*
X149542428Y-76081000D01*
X149590047Y-76128619D01*
X149637666Y-76223857D01*
X149637666Y-76366714D01*
X149590047Y-76461952D01*
X149542428Y-76509571D01*
X149447190Y-76557190D01*
X149066238Y-76557190D01*
X150590047Y-77033380D02*
X150018619Y-77033380D01*
X150304333Y-77033380D02*
X150304333Y-76033380D01*
X150209095Y-76176238D01*
X150113857Y-76271476D01*
X150018619Y-76319095D01*
X151542428Y-77033380D02*
X150971000Y-77033380D01*
X151256714Y-77033380D02*
X151256714Y-76033380D01*
X151161476Y-76176238D01*
X151066238Y-76271476D01*
X150971000Y-76319095D01*
%TO.C,RF_C12*%
X159170619Y-95321380D02*
X158837285Y-94845190D01*
X158599190Y-95321380D02*
X158599190Y-94321380D01*
X158980142Y-94321380D01*
X159075380Y-94369000D01*
X159123000Y-94416619D01*
X159170619Y-94511857D01*
X159170619Y-94654714D01*
X159123000Y-94749952D01*
X159075380Y-94797571D01*
X158980142Y-94845190D01*
X158599190Y-94845190D01*
X159932523Y-94797571D02*
X159599190Y-94797571D01*
X159599190Y-95321380D02*
X159599190Y-94321380D01*
X160075380Y-94321380D01*
X160218238Y-95416619D02*
X160980142Y-95416619D01*
X161789666Y-95226142D02*
X161742047Y-95273761D01*
X161599190Y-95321380D01*
X161503952Y-95321380D01*
X161361095Y-95273761D01*
X161265857Y-95178523D01*
X161218238Y-95083285D01*
X161170619Y-94892809D01*
X161170619Y-94749952D01*
X161218238Y-94559476D01*
X161265857Y-94464238D01*
X161361095Y-94369000D01*
X161503952Y-94321380D01*
X161599190Y-94321380D01*
X161742047Y-94369000D01*
X161789666Y-94416619D01*
X162742047Y-95321380D02*
X162170619Y-95321380D01*
X162456333Y-95321380D02*
X162456333Y-94321380D01*
X162361095Y-94464238D01*
X162265857Y-94559476D01*
X162170619Y-94607095D01*
X163123000Y-94416619D02*
X163170619Y-94369000D01*
X163265857Y-94321380D01*
X163503952Y-94321380D01*
X163599190Y-94369000D01*
X163646809Y-94416619D01*
X163694428Y-94511857D01*
X163694428Y-94607095D01*
X163646809Y-94749952D01*
X163075380Y-95321380D01*
X163694428Y-95321380D01*
%TO.C,RF_R6*%
X174418809Y-103957380D02*
X174085476Y-103481190D01*
X173847380Y-103957380D02*
X173847380Y-102957380D01*
X174228333Y-102957380D01*
X174323571Y-103005000D01*
X174371190Y-103052619D01*
X174418809Y-103147857D01*
X174418809Y-103290714D01*
X174371190Y-103385952D01*
X174323571Y-103433571D01*
X174228333Y-103481190D01*
X173847380Y-103481190D01*
X175180714Y-103433571D02*
X174847380Y-103433571D01*
X174847380Y-103957380D02*
X174847380Y-102957380D01*
X175323571Y-102957380D01*
X175466428Y-104052619D02*
X176228333Y-104052619D01*
X177037857Y-103957380D02*
X176704523Y-103481190D01*
X176466428Y-103957380D02*
X176466428Y-102957380D01*
X176847380Y-102957380D01*
X176942619Y-103005000D01*
X176990238Y-103052619D01*
X177037857Y-103147857D01*
X177037857Y-103290714D01*
X176990238Y-103385952D01*
X176942619Y-103433571D01*
X176847380Y-103481190D01*
X176466428Y-103481190D01*
X177895000Y-102957380D02*
X177704523Y-102957380D01*
X177609285Y-103005000D01*
X177561666Y-103052619D01*
X177466428Y-103195476D01*
X177418809Y-103385952D01*
X177418809Y-103766904D01*
X177466428Y-103862142D01*
X177514047Y-103909761D01*
X177609285Y-103957380D01*
X177799761Y-103957380D01*
X177895000Y-103909761D01*
X177942619Y-103862142D01*
X177990238Y-103766904D01*
X177990238Y-103528809D01*
X177942619Y-103433571D01*
X177895000Y-103385952D01*
X177799761Y-103338333D01*
X177609285Y-103338333D01*
X177514047Y-103385952D01*
X177466428Y-103433571D01*
X177418809Y-103528809D01*
%TO.C,RF_C2*%
X130373380Y-75517190D02*
X129897190Y-75850523D01*
X130373380Y-76088619D02*
X129373380Y-76088619D01*
X129373380Y-75707666D01*
X129421000Y-75612428D01*
X129468619Y-75564809D01*
X129563857Y-75517190D01*
X129706714Y-75517190D01*
X129801952Y-75564809D01*
X129849571Y-75612428D01*
X129897190Y-75707666D01*
X129897190Y-76088619D01*
X129849571Y-74755285D02*
X129849571Y-75088619D01*
X130373380Y-75088619D02*
X129373380Y-75088619D01*
X129373380Y-74612428D01*
X130468619Y-74469571D02*
X130468619Y-73707666D01*
X130278142Y-72898142D02*
X130325761Y-72945761D01*
X130373380Y-73088619D01*
X130373380Y-73183857D01*
X130325761Y-73326714D01*
X130230523Y-73421952D01*
X130135285Y-73469571D01*
X129944809Y-73517190D01*
X129801952Y-73517190D01*
X129611476Y-73469571D01*
X129516238Y-73421952D01*
X129421000Y-73326714D01*
X129373380Y-73183857D01*
X129373380Y-73088619D01*
X129421000Y-72945761D01*
X129468619Y-72898142D01*
X129468619Y-72517190D02*
X129421000Y-72469571D01*
X129373380Y-72374333D01*
X129373380Y-72136238D01*
X129421000Y-72041000D01*
X129468619Y-71993380D01*
X129563857Y-71945761D01*
X129659095Y-71945761D01*
X129801952Y-71993380D01*
X130373380Y-72564809D01*
X130373380Y-71945761D01*
%TO.C,RF_C13*%
X116120395Y-103449380D02*
X115787061Y-102973190D01*
X115548966Y-103449380D02*
X115548966Y-102449380D01*
X115929918Y-102449380D01*
X116025156Y-102497000D01*
X116072776Y-102544619D01*
X116120395Y-102639857D01*
X116120395Y-102782714D01*
X116072776Y-102877952D01*
X116025156Y-102925571D01*
X115929918Y-102973190D01*
X115548966Y-102973190D01*
X116882299Y-102925571D02*
X116548966Y-102925571D01*
X116548966Y-103449380D02*
X116548966Y-102449380D01*
X117025156Y-102449380D01*
X117168014Y-103544619D02*
X117929918Y-103544619D01*
X118739442Y-103354142D02*
X118691823Y-103401761D01*
X118548966Y-103449380D01*
X118453728Y-103449380D01*
X118310871Y-103401761D01*
X118215633Y-103306523D01*
X118168014Y-103211285D01*
X118120395Y-103020809D01*
X118120395Y-102877952D01*
X118168014Y-102687476D01*
X118215633Y-102592238D01*
X118310871Y-102497000D01*
X118453728Y-102449380D01*
X118548966Y-102449380D01*
X118691823Y-102497000D01*
X118739442Y-102544619D01*
X119691823Y-103449380D02*
X119120395Y-103449380D01*
X119406109Y-103449380D02*
X119406109Y-102449380D01*
X119310871Y-102592238D01*
X119215633Y-102687476D01*
X119120395Y-102735095D01*
X120025156Y-102449380D02*
X120644204Y-102449380D01*
X120310871Y-102830333D01*
X120453728Y-102830333D01*
X120548966Y-102877952D01*
X120596585Y-102925571D01*
X120644204Y-103020809D01*
X120644204Y-103258904D01*
X120596585Y-103354142D01*
X120548966Y-103401761D01*
X120453728Y-103449380D01*
X120168014Y-103449380D01*
X120072776Y-103401761D01*
X120025156Y-103354142D01*
%TO.C,RF_R3*%
X137080809Y-97353380D02*
X136747476Y-96877190D01*
X136509380Y-97353380D02*
X136509380Y-96353380D01*
X136890333Y-96353380D01*
X136985571Y-96401000D01*
X137033190Y-96448619D01*
X137080809Y-96543857D01*
X137080809Y-96686714D01*
X137033190Y-96781952D01*
X136985571Y-96829571D01*
X136890333Y-96877190D01*
X136509380Y-96877190D01*
X137842714Y-96829571D02*
X137509380Y-96829571D01*
X137509380Y-97353380D02*
X137509380Y-96353380D01*
X137985571Y-96353380D01*
X138128428Y-97448619D02*
X138890333Y-97448619D01*
X139699857Y-97353380D02*
X139366523Y-96877190D01*
X139128428Y-97353380D02*
X139128428Y-96353380D01*
X139509380Y-96353380D01*
X139604619Y-96401000D01*
X139652238Y-96448619D01*
X139699857Y-96543857D01*
X139699857Y-96686714D01*
X139652238Y-96781952D01*
X139604619Y-96829571D01*
X139509380Y-96877190D01*
X139128428Y-96877190D01*
X140033190Y-96353380D02*
X140652238Y-96353380D01*
X140318904Y-96734333D01*
X140461761Y-96734333D01*
X140557000Y-96781952D01*
X140604619Y-96829571D01*
X140652238Y-96924809D01*
X140652238Y-97162904D01*
X140604619Y-97258142D01*
X140557000Y-97305761D01*
X140461761Y-97353380D01*
X140176047Y-97353380D01*
X140080809Y-97305761D01*
X140033190Y-97258142D01*
%TO.C,RF_L3*%
X147082047Y-102179380D02*
X146748714Y-101703190D01*
X146510619Y-102179380D02*
X146510619Y-101179380D01*
X146891571Y-101179380D01*
X146986809Y-101227000D01*
X147034428Y-101274619D01*
X147082047Y-101369857D01*
X147082047Y-101512714D01*
X147034428Y-101607952D01*
X146986809Y-101655571D01*
X146891571Y-101703190D01*
X146510619Y-101703190D01*
X147843952Y-101655571D02*
X147510619Y-101655571D01*
X147510619Y-102179380D02*
X147510619Y-101179380D01*
X147986809Y-101179380D01*
X148129666Y-102274619D02*
X148891571Y-102274619D01*
X149605857Y-102179380D02*
X149129666Y-102179380D01*
X149129666Y-101179380D01*
X149843952Y-101179380D02*
X150463000Y-101179380D01*
X150129666Y-101560333D01*
X150272523Y-101560333D01*
X150367761Y-101607952D01*
X150415380Y-101655571D01*
X150463000Y-101750809D01*
X150463000Y-101988904D01*
X150415380Y-102084142D01*
X150367761Y-102131761D01*
X150272523Y-102179380D01*
X149986809Y-102179380D01*
X149891571Y-102131761D01*
X149843952Y-102084142D01*
%TO.C,RF_C11*%
X179141380Y-78025380D02*
X178665190Y-78358714D01*
X179141380Y-78596809D02*
X178141380Y-78596809D01*
X178141380Y-78215857D01*
X178189000Y-78120619D01*
X178236619Y-78073000D01*
X178331857Y-78025380D01*
X178474714Y-78025380D01*
X178569952Y-78073000D01*
X178617571Y-78120619D01*
X178665190Y-78215857D01*
X178665190Y-78596809D01*
X178617571Y-77263476D02*
X178617571Y-77596809D01*
X179141380Y-77596809D02*
X178141380Y-77596809D01*
X178141380Y-77120619D01*
X179236619Y-76977761D02*
X179236619Y-76215857D01*
X179046142Y-75406333D02*
X179093761Y-75453952D01*
X179141380Y-75596809D01*
X179141380Y-75692047D01*
X179093761Y-75834904D01*
X178998523Y-75930142D01*
X178903285Y-75977761D01*
X178712809Y-76025380D01*
X178569952Y-76025380D01*
X178379476Y-75977761D01*
X178284238Y-75930142D01*
X178189000Y-75834904D01*
X178141380Y-75692047D01*
X178141380Y-75596809D01*
X178189000Y-75453952D01*
X178236619Y-75406333D01*
X179141380Y-74453952D02*
X179141380Y-75025380D01*
X179141380Y-74739666D02*
X178141380Y-74739666D01*
X178284238Y-74834904D01*
X178379476Y-74930142D01*
X178427095Y-75025380D01*
X179141380Y-73501571D02*
X179141380Y-74073000D01*
X179141380Y-73787285D02*
X178141380Y-73787285D01*
X178284238Y-73882523D01*
X178379476Y-73977761D01*
X178427095Y-74073000D01*
%TO.C,RF_D1*%
X125205380Y-94313190D02*
X124729190Y-94646523D01*
X125205380Y-94884619D02*
X124205380Y-94884619D01*
X124205380Y-94503666D01*
X124253000Y-94408428D01*
X124300619Y-94360809D01*
X124395857Y-94313190D01*
X124538714Y-94313190D01*
X124633952Y-94360809D01*
X124681571Y-94408428D01*
X124729190Y-94503666D01*
X124729190Y-94884619D01*
X124681571Y-93551285D02*
X124681571Y-93884619D01*
X125205380Y-93884619D02*
X124205380Y-93884619D01*
X124205380Y-93408428D01*
X125300619Y-93265571D02*
X125300619Y-92503666D01*
X125205380Y-92265571D02*
X124205380Y-92265571D01*
X124205380Y-92027476D01*
X124253000Y-91884619D01*
X124348238Y-91789380D01*
X124443476Y-91741761D01*
X124633952Y-91694142D01*
X124776809Y-91694142D01*
X124967285Y-91741761D01*
X125062523Y-91789380D01*
X125157761Y-91884619D01*
X125205380Y-92027476D01*
X125205380Y-92265571D01*
X125205380Y-90741761D02*
X125205380Y-91313190D01*
X125205380Y-91027476D02*
X124205380Y-91027476D01*
X124348238Y-91122714D01*
X124443476Y-91217952D01*
X124491095Y-91313190D01*
X125525380Y-98178904D02*
X124525380Y-98178904D01*
X125525380Y-97607476D02*
X124953952Y-98036047D01*
X124525380Y-97607476D02*
X125096809Y-98178904D01*
%TO.C,RF_D2*%
X132659380Y-75517190D02*
X132183190Y-75850523D01*
X132659380Y-76088619D02*
X131659380Y-76088619D01*
X131659380Y-75707666D01*
X131707000Y-75612428D01*
X131754619Y-75564809D01*
X131849857Y-75517190D01*
X131992714Y-75517190D01*
X132087952Y-75564809D01*
X132135571Y-75612428D01*
X132183190Y-75707666D01*
X132183190Y-76088619D01*
X132135571Y-74755285D02*
X132135571Y-75088619D01*
X132659380Y-75088619D02*
X131659380Y-75088619D01*
X131659380Y-74612428D01*
X132754619Y-74469571D02*
X132754619Y-73707666D01*
X132659380Y-73469571D02*
X131659380Y-73469571D01*
X131659380Y-73231476D01*
X131707000Y-73088619D01*
X131802238Y-72993380D01*
X131897476Y-72945761D01*
X132087952Y-72898142D01*
X132230809Y-72898142D01*
X132421285Y-72945761D01*
X132516523Y-72993380D01*
X132611761Y-73088619D01*
X132659380Y-73231476D01*
X132659380Y-73469571D01*
X131754619Y-72517190D02*
X131707000Y-72469571D01*
X131659380Y-72374333D01*
X131659380Y-72136238D01*
X131707000Y-72041000D01*
X131754619Y-71993380D01*
X131849857Y-71945761D01*
X131945095Y-71945761D01*
X132087952Y-71993380D01*
X132659380Y-72564809D01*
X132659380Y-71945761D01*
X134691380Y-71000904D02*
X133691380Y-71000904D01*
X134691380Y-70429476D02*
X134119952Y-70858047D01*
X133691380Y-70429476D02*
X134262809Y-71000904D01*
%TO.C,RF_C1*%
X135199380Y-64341190D02*
X134723190Y-64674523D01*
X135199380Y-64912619D02*
X134199380Y-64912619D01*
X134199380Y-64531666D01*
X134247000Y-64436428D01*
X134294619Y-64388809D01*
X134389857Y-64341190D01*
X134532714Y-64341190D01*
X134627952Y-64388809D01*
X134675571Y-64436428D01*
X134723190Y-64531666D01*
X134723190Y-64912619D01*
X134675571Y-63579285D02*
X134675571Y-63912619D01*
X135199380Y-63912619D02*
X134199380Y-63912619D01*
X134199380Y-63436428D01*
X135294619Y-63293571D02*
X135294619Y-62531666D01*
X135104142Y-61722142D02*
X135151761Y-61769761D01*
X135199380Y-61912619D01*
X135199380Y-62007857D01*
X135151761Y-62150714D01*
X135056523Y-62245952D01*
X134961285Y-62293571D01*
X134770809Y-62341190D01*
X134627952Y-62341190D01*
X134437476Y-62293571D01*
X134342238Y-62245952D01*
X134247000Y-62150714D01*
X134199380Y-62007857D01*
X134199380Y-61912619D01*
X134247000Y-61769761D01*
X134294619Y-61722142D01*
X135199380Y-60769761D02*
X135199380Y-61341190D01*
X135199380Y-61055476D02*
X134199380Y-61055476D01*
X134342238Y-61150714D01*
X134437476Y-61245952D01*
X134485095Y-61341190D01*
D12*
%TO.C,RF_SW1*%
X155798761Y-60137523D02*
X155375428Y-59532761D01*
X155073047Y-60137523D02*
X155073047Y-58867523D01*
X155556857Y-58867523D01*
X155677809Y-58928000D01*
X155738285Y-58988476D01*
X155798761Y-59109428D01*
X155798761Y-59290857D01*
X155738285Y-59411809D01*
X155677809Y-59472285D01*
X155556857Y-59532761D01*
X155073047Y-59532761D01*
X156766380Y-59472285D02*
X156343047Y-59472285D01*
X156343047Y-60137523D02*
X156343047Y-58867523D01*
X156947809Y-58867523D01*
X157129238Y-60258476D02*
X158096857Y-60258476D01*
X158338761Y-60077047D02*
X158520190Y-60137523D01*
X158822571Y-60137523D01*
X158943523Y-60077047D01*
X159004000Y-60016571D01*
X159064476Y-59895619D01*
X159064476Y-59774666D01*
X159004000Y-59653714D01*
X158943523Y-59593238D01*
X158822571Y-59532761D01*
X158580666Y-59472285D01*
X158459714Y-59411809D01*
X158399238Y-59351333D01*
X158338761Y-59230380D01*
X158338761Y-59109428D01*
X158399238Y-58988476D01*
X158459714Y-58928000D01*
X158580666Y-58867523D01*
X158883047Y-58867523D01*
X159064476Y-58928000D01*
X159487809Y-58867523D02*
X159790190Y-60137523D01*
X160032095Y-59230380D01*
X160274000Y-60137523D01*
X160576380Y-58867523D01*
X161725428Y-60137523D02*
X160999714Y-60137523D01*
X161362571Y-60137523D02*
X161362571Y-58867523D01*
X161241619Y-59048952D01*
X161120666Y-59169904D01*
X160999714Y-59230380D01*
D11*
%TO.C,RF_R10*%
X146764619Y-73985380D02*
X146431285Y-73509190D01*
X146193190Y-73985380D02*
X146193190Y-72985380D01*
X146574142Y-72985380D01*
X146669380Y-73033000D01*
X146717000Y-73080619D01*
X146764619Y-73175857D01*
X146764619Y-73318714D01*
X146717000Y-73413952D01*
X146669380Y-73461571D01*
X146574142Y-73509190D01*
X146193190Y-73509190D01*
X147526523Y-73461571D02*
X147193190Y-73461571D01*
X147193190Y-73985380D02*
X147193190Y-72985380D01*
X147669380Y-72985380D01*
X147812238Y-74080619D02*
X148574142Y-74080619D01*
X149383666Y-73985380D02*
X149050333Y-73509190D01*
X148812238Y-73985380D02*
X148812238Y-72985380D01*
X149193190Y-72985380D01*
X149288428Y-73033000D01*
X149336047Y-73080619D01*
X149383666Y-73175857D01*
X149383666Y-73318714D01*
X149336047Y-73413952D01*
X149288428Y-73461571D01*
X149193190Y-73509190D01*
X148812238Y-73509190D01*
X150336047Y-73985380D02*
X149764619Y-73985380D01*
X150050333Y-73985380D02*
X150050333Y-72985380D01*
X149955095Y-73128238D01*
X149859857Y-73223476D01*
X149764619Y-73271095D01*
X150955095Y-72985380D02*
X151050333Y-72985380D01*
X151145571Y-73033000D01*
X151193190Y-73080619D01*
X151240809Y-73175857D01*
X151288428Y-73366333D01*
X151288428Y-73604428D01*
X151240809Y-73794904D01*
X151193190Y-73890142D01*
X151145571Y-73937761D01*
X151050333Y-73985380D01*
X150955095Y-73985380D01*
X150859857Y-73937761D01*
X150812238Y-73890142D01*
X150764619Y-73794904D01*
X150717000Y-73604428D01*
X150717000Y-73366333D01*
X150764619Y-73175857D01*
X150812238Y-73080619D01*
X150859857Y-73033000D01*
X150955095Y-72985380D01*
%TO.C,RF_L1*%
X176292047Y-85923380D02*
X175958714Y-85447190D01*
X175720619Y-85923380D02*
X175720619Y-84923380D01*
X176101571Y-84923380D01*
X176196809Y-84971000D01*
X176244428Y-85018619D01*
X176292047Y-85113857D01*
X176292047Y-85256714D01*
X176244428Y-85351952D01*
X176196809Y-85399571D01*
X176101571Y-85447190D01*
X175720619Y-85447190D01*
X177053952Y-85399571D02*
X176720619Y-85399571D01*
X176720619Y-85923380D02*
X176720619Y-84923380D01*
X177196809Y-84923380D01*
X177339666Y-86018619D02*
X178101571Y-86018619D01*
X178815857Y-85923380D02*
X178339666Y-85923380D01*
X178339666Y-84923380D01*
X179673000Y-85923380D02*
X179101571Y-85923380D01*
X179387285Y-85923380D02*
X179387285Y-84923380D01*
X179292047Y-85066238D01*
X179196809Y-85161476D01*
X179101571Y-85209095D01*
%TO.C,RF_C3*%
X137485380Y-94821190D02*
X137009190Y-95154523D01*
X137485380Y-95392619D02*
X136485380Y-95392619D01*
X136485380Y-95011666D01*
X136533000Y-94916428D01*
X136580619Y-94868809D01*
X136675857Y-94821190D01*
X136818714Y-94821190D01*
X136913952Y-94868809D01*
X136961571Y-94916428D01*
X137009190Y-95011666D01*
X137009190Y-95392619D01*
X136961571Y-94059285D02*
X136961571Y-94392619D01*
X137485380Y-94392619D02*
X136485380Y-94392619D01*
X136485380Y-93916428D01*
X137580619Y-93773571D02*
X137580619Y-93011666D01*
X137390142Y-92202142D02*
X137437761Y-92249761D01*
X137485380Y-92392619D01*
X137485380Y-92487857D01*
X137437761Y-92630714D01*
X137342523Y-92725952D01*
X137247285Y-92773571D01*
X137056809Y-92821190D01*
X136913952Y-92821190D01*
X136723476Y-92773571D01*
X136628238Y-92725952D01*
X136533000Y-92630714D01*
X136485380Y-92487857D01*
X136485380Y-92392619D01*
X136533000Y-92249761D01*
X136580619Y-92202142D01*
X136485380Y-91868809D02*
X136485380Y-91249761D01*
X136866333Y-91583095D01*
X136866333Y-91440238D01*
X136913952Y-91345000D01*
X136961571Y-91297380D01*
X137056809Y-91249761D01*
X137294904Y-91249761D01*
X137390142Y-91297380D01*
X137437761Y-91345000D01*
X137485380Y-91440238D01*
X137485380Y-91725952D01*
X137437761Y-91821190D01*
X137390142Y-91868809D01*
%TO.C,RF_R12*%
X148542619Y-78557380D02*
X148209285Y-78081190D01*
X147971190Y-78557380D02*
X147971190Y-77557380D01*
X148352142Y-77557380D01*
X148447380Y-77605000D01*
X148495000Y-77652619D01*
X148542619Y-77747857D01*
X148542619Y-77890714D01*
X148495000Y-77985952D01*
X148447380Y-78033571D01*
X148352142Y-78081190D01*
X147971190Y-78081190D01*
X149304523Y-78033571D02*
X148971190Y-78033571D01*
X148971190Y-78557380D02*
X148971190Y-77557380D01*
X149447380Y-77557380D01*
X149590238Y-78652619D02*
X150352142Y-78652619D01*
X151161666Y-78557380D02*
X150828333Y-78081190D01*
X150590238Y-78557380D02*
X150590238Y-77557380D01*
X150971190Y-77557380D01*
X151066428Y-77605000D01*
X151114047Y-77652619D01*
X151161666Y-77747857D01*
X151161666Y-77890714D01*
X151114047Y-77985952D01*
X151066428Y-78033571D01*
X150971190Y-78081190D01*
X150590238Y-78081190D01*
X152114047Y-78557380D02*
X151542619Y-78557380D01*
X151828333Y-78557380D02*
X151828333Y-77557380D01*
X151733095Y-77700238D01*
X151637857Y-77795476D01*
X151542619Y-77843095D01*
X152495000Y-77652619D02*
X152542619Y-77605000D01*
X152637857Y-77557380D01*
X152875952Y-77557380D01*
X152971190Y-77605000D01*
X153018809Y-77652619D01*
X153066428Y-77747857D01*
X153066428Y-77843095D01*
X153018809Y-77985952D01*
X152447380Y-78557380D01*
X153066428Y-78557380D01*
%TO.C,RF_L2*%
X163592047Y-83129380D02*
X163258714Y-82653190D01*
X163020619Y-83129380D02*
X163020619Y-82129380D01*
X163401571Y-82129380D01*
X163496809Y-82177000D01*
X163544428Y-82224619D01*
X163592047Y-82319857D01*
X163592047Y-82462714D01*
X163544428Y-82557952D01*
X163496809Y-82605571D01*
X163401571Y-82653190D01*
X163020619Y-82653190D01*
X164353952Y-82605571D02*
X164020619Y-82605571D01*
X164020619Y-83129380D02*
X164020619Y-82129380D01*
X164496809Y-82129380D01*
X164639666Y-83224619D02*
X165401571Y-83224619D01*
X166115857Y-83129380D02*
X165639666Y-83129380D01*
X165639666Y-82129380D01*
X166401571Y-82224619D02*
X166449190Y-82177000D01*
X166544428Y-82129380D01*
X166782523Y-82129380D01*
X166877761Y-82177000D01*
X166925380Y-82224619D01*
X166973000Y-82319857D01*
X166973000Y-82415095D01*
X166925380Y-82557952D01*
X166353952Y-83129380D01*
X166973000Y-83129380D01*
%TO.C,RF_R2*%
X134013380Y-88725190D02*
X133537190Y-89058523D01*
X134013380Y-89296619D02*
X133013380Y-89296619D01*
X133013380Y-88915666D01*
X133061000Y-88820428D01*
X133108619Y-88772809D01*
X133203857Y-88725190D01*
X133346714Y-88725190D01*
X133441952Y-88772809D01*
X133489571Y-88820428D01*
X133537190Y-88915666D01*
X133537190Y-89296619D01*
X133489571Y-87963285D02*
X133489571Y-88296619D01*
X134013380Y-88296619D02*
X133013380Y-88296619D01*
X133013380Y-87820428D01*
X134108619Y-87677571D02*
X134108619Y-86915666D01*
X134013380Y-86106142D02*
X133537190Y-86439476D01*
X134013380Y-86677571D02*
X133013380Y-86677571D01*
X133013380Y-86296619D01*
X133061000Y-86201380D01*
X133108619Y-86153761D01*
X133203857Y-86106142D01*
X133346714Y-86106142D01*
X133441952Y-86153761D01*
X133489571Y-86201380D01*
X133537190Y-86296619D01*
X133537190Y-86677571D01*
X133108619Y-85725190D02*
X133061000Y-85677571D01*
X133013380Y-85582333D01*
X133013380Y-85344238D01*
X133061000Y-85249000D01*
X133108619Y-85201380D01*
X133203857Y-85153761D01*
X133299095Y-85153761D01*
X133441952Y-85201380D01*
X134013380Y-85772809D01*
X134013380Y-85153761D01*
%TO.C,RF_U1*%
X137441380Y-90288000D02*
X136965190Y-90621333D01*
X137441380Y-90859428D02*
X136441380Y-90859428D01*
X136441380Y-90478476D01*
X136489000Y-90383238D01*
X136536619Y-90335619D01*
X136631857Y-90288000D01*
X136774714Y-90288000D01*
X136869952Y-90335619D01*
X136917571Y-90383238D01*
X136965190Y-90478476D01*
X136965190Y-90859428D01*
X136917571Y-89526095D02*
X136917571Y-89859428D01*
X137441380Y-89859428D02*
X136441380Y-89859428D01*
X136441380Y-89383238D01*
X137536619Y-89240380D02*
X137536619Y-88478476D01*
X136441380Y-88240380D02*
X137250904Y-88240380D01*
X137346142Y-88192761D01*
X137393761Y-88145142D01*
X137441380Y-88049904D01*
X137441380Y-87859428D01*
X137393761Y-87764190D01*
X137346142Y-87716571D01*
X137250904Y-87668952D01*
X136441380Y-87668952D01*
X137441380Y-86668952D02*
X137441380Y-87240380D01*
X137441380Y-86954666D02*
X136441380Y-86954666D01*
X136584238Y-87049904D01*
X136679476Y-87145142D01*
X136727095Y-87240380D01*
%TO.C,RF_C7*%
X144700809Y-81605380D02*
X144367476Y-81129190D01*
X144129380Y-81605380D02*
X144129380Y-80605380D01*
X144510333Y-80605380D01*
X144605571Y-80653000D01*
X144653190Y-80700619D01*
X144700809Y-80795857D01*
X144700809Y-80938714D01*
X144653190Y-81033952D01*
X144605571Y-81081571D01*
X144510333Y-81129190D01*
X144129380Y-81129190D01*
X145462714Y-81081571D02*
X145129380Y-81081571D01*
X145129380Y-81605380D02*
X145129380Y-80605380D01*
X145605571Y-80605380D01*
X145748428Y-81700619D02*
X146510333Y-81700619D01*
X147319857Y-81510142D02*
X147272238Y-81557761D01*
X147129380Y-81605380D01*
X147034142Y-81605380D01*
X146891285Y-81557761D01*
X146796047Y-81462523D01*
X146748428Y-81367285D01*
X146700809Y-81176809D01*
X146700809Y-81033952D01*
X146748428Y-80843476D01*
X146796047Y-80748238D01*
X146891285Y-80653000D01*
X147034142Y-80605380D01*
X147129380Y-80605380D01*
X147272238Y-80653000D01*
X147319857Y-80700619D01*
X147653190Y-80605380D02*
X148319857Y-80605380D01*
X147891285Y-81605380D01*
%TO.C,H17*%
X116490904Y-72715380D02*
X116490904Y-71715380D01*
X116490904Y-72191571D02*
X117062333Y-72191571D01*
X117062333Y-72715380D02*
X117062333Y-71715380D01*
X118062333Y-72715380D02*
X117490904Y-72715380D01*
X117776619Y-72715380D02*
X117776619Y-71715380D01*
X117681380Y-71858238D01*
X117586142Y-71953476D01*
X117490904Y-72001095D01*
X118395666Y-71715380D02*
X119062333Y-71715380D01*
X118633761Y-72715380D01*
%TO.C,RF_VL1*%
X124872523Y-68762619D02*
X125205857Y-69238809D01*
X125443952Y-68762619D02*
X125443952Y-69762619D01*
X125063000Y-69762619D01*
X124967761Y-69715000D01*
X124920142Y-69667380D01*
X124872523Y-69572142D01*
X124872523Y-69429285D01*
X124920142Y-69334047D01*
X124967761Y-69286428D01*
X125063000Y-69238809D01*
X125443952Y-69238809D01*
X124110619Y-69286428D02*
X124443952Y-69286428D01*
X124443952Y-68762619D02*
X124443952Y-69762619D01*
X123967761Y-69762619D01*
X123824904Y-68667380D02*
X123063000Y-68667380D01*
X122967761Y-69762619D02*
X122634428Y-68762619D01*
X122301095Y-69762619D01*
X121491571Y-68762619D02*
X121967761Y-68762619D01*
X121967761Y-69762619D01*
X120634428Y-68762619D02*
X121205857Y-68762619D01*
X120920142Y-68762619D02*
X120920142Y-69762619D01*
X121015380Y-69619761D01*
X121110619Y-69524523D01*
X121205857Y-69476904D01*
%TO.C,RF_C4*%
X128698809Y-100401380D02*
X128365476Y-99925190D01*
X128127380Y-100401380D02*
X128127380Y-99401380D01*
X128508333Y-99401380D01*
X128603571Y-99449000D01*
X128651190Y-99496619D01*
X128698809Y-99591857D01*
X128698809Y-99734714D01*
X128651190Y-99829952D01*
X128603571Y-99877571D01*
X128508333Y-99925190D01*
X128127380Y-99925190D01*
X129460714Y-99877571D02*
X129127380Y-99877571D01*
X129127380Y-100401380D02*
X129127380Y-99401380D01*
X129603571Y-99401380D01*
X129746428Y-100496619D02*
X130508333Y-100496619D01*
X131317857Y-100306142D02*
X131270238Y-100353761D01*
X131127380Y-100401380D01*
X131032142Y-100401380D01*
X130889285Y-100353761D01*
X130794047Y-100258523D01*
X130746428Y-100163285D01*
X130698809Y-99972809D01*
X130698809Y-99829952D01*
X130746428Y-99639476D01*
X130794047Y-99544238D01*
X130889285Y-99449000D01*
X131032142Y-99401380D01*
X131127380Y-99401380D01*
X131270238Y-99449000D01*
X131317857Y-99496619D01*
X132175000Y-99734714D02*
X132175000Y-100401380D01*
X131936904Y-99353761D02*
X131698809Y-100068047D01*
X132317857Y-100068047D01*
%TO.C,RF_R5*%
X174494809Y-99893380D02*
X174161476Y-99417190D01*
X173923380Y-99893380D02*
X173923380Y-98893380D01*
X174304333Y-98893380D01*
X174399571Y-98941000D01*
X174447190Y-98988619D01*
X174494809Y-99083857D01*
X174494809Y-99226714D01*
X174447190Y-99321952D01*
X174399571Y-99369571D01*
X174304333Y-99417190D01*
X173923380Y-99417190D01*
X175256714Y-99369571D02*
X174923380Y-99369571D01*
X174923380Y-99893380D02*
X174923380Y-98893380D01*
X175399571Y-98893380D01*
X175542428Y-99988619D02*
X176304333Y-99988619D01*
X177113857Y-99893380D02*
X176780523Y-99417190D01*
X176542428Y-99893380D02*
X176542428Y-98893380D01*
X176923380Y-98893380D01*
X177018619Y-98941000D01*
X177066238Y-98988619D01*
X177113857Y-99083857D01*
X177113857Y-99226714D01*
X177066238Y-99321952D01*
X177018619Y-99369571D01*
X176923380Y-99417190D01*
X176542428Y-99417190D01*
X178018619Y-98893380D02*
X177542428Y-98893380D01*
X177494809Y-99369571D01*
X177542428Y-99321952D01*
X177637666Y-99274333D01*
X177875761Y-99274333D01*
X177971000Y-99321952D01*
X178018619Y-99369571D01*
X178066238Y-99464809D01*
X178066238Y-99702904D01*
X178018619Y-99798142D01*
X177971000Y-99845761D01*
X177875761Y-99893380D01*
X177637666Y-99893380D01*
X177542428Y-99845761D01*
X177494809Y-99798142D01*
%TO.C,J4B1*%
X123785380Y-87542523D02*
X124499666Y-87542523D01*
X124642523Y-87590142D01*
X124737761Y-87685380D01*
X124785380Y-87828238D01*
X124785380Y-87923476D01*
X124118714Y-86637761D02*
X124785380Y-86637761D01*
X123737761Y-86875857D02*
X124452047Y-87113952D01*
X124452047Y-86494904D01*
X124261571Y-85780619D02*
X124309190Y-85637761D01*
X124356809Y-85590142D01*
X124452047Y-85542523D01*
X124594904Y-85542523D01*
X124690142Y-85590142D01*
X124737761Y-85637761D01*
X124785380Y-85733000D01*
X124785380Y-86113952D01*
X123785380Y-86113952D01*
X123785380Y-85780619D01*
X123833000Y-85685380D01*
X123880619Y-85637761D01*
X123975857Y-85590142D01*
X124071095Y-85590142D01*
X124166333Y-85637761D01*
X124213952Y-85685380D01*
X124261571Y-85780619D01*
X124261571Y-86113952D01*
X124785380Y-84590142D02*
X124785380Y-85161571D01*
X124785380Y-84875857D02*
X123785380Y-84875857D01*
X123928238Y-84971095D01*
X124023476Y-85066333D01*
X124071095Y-85161571D01*
%TO.C,RF_R7*%
X162226809Y-71953380D02*
X161893476Y-71477190D01*
X161655380Y-71953380D02*
X161655380Y-70953380D01*
X162036333Y-70953380D01*
X162131571Y-71001000D01*
X162179190Y-71048619D01*
X162226809Y-71143857D01*
X162226809Y-71286714D01*
X162179190Y-71381952D01*
X162131571Y-71429571D01*
X162036333Y-71477190D01*
X161655380Y-71477190D01*
X162988714Y-71429571D02*
X162655380Y-71429571D01*
X162655380Y-71953380D02*
X162655380Y-70953380D01*
X163131571Y-70953380D01*
X163274428Y-72048619D02*
X164036333Y-72048619D01*
X164845857Y-71953380D02*
X164512523Y-71477190D01*
X164274428Y-71953380D02*
X164274428Y-70953380D01*
X164655380Y-70953380D01*
X164750619Y-71001000D01*
X164798238Y-71048619D01*
X164845857Y-71143857D01*
X164845857Y-71286714D01*
X164798238Y-71381952D01*
X164750619Y-71429571D01*
X164655380Y-71477190D01*
X164274428Y-71477190D01*
X165179190Y-70953380D02*
X165845857Y-70953380D01*
X165417285Y-71953380D01*
%TO.C,RF_R8*%
X157551380Y-80597190D02*
X157075190Y-80930523D01*
X157551380Y-81168619D02*
X156551380Y-81168619D01*
X156551380Y-80787666D01*
X156599000Y-80692428D01*
X156646619Y-80644809D01*
X156741857Y-80597190D01*
X156884714Y-80597190D01*
X156979952Y-80644809D01*
X157027571Y-80692428D01*
X157075190Y-80787666D01*
X157075190Y-81168619D01*
X157027571Y-79835285D02*
X157027571Y-80168619D01*
X157551380Y-80168619D02*
X156551380Y-80168619D01*
X156551380Y-79692428D01*
X157646619Y-79549571D02*
X157646619Y-78787666D01*
X157551380Y-77978142D02*
X157075190Y-78311476D01*
X157551380Y-78549571D02*
X156551380Y-78549571D01*
X156551380Y-78168619D01*
X156599000Y-78073380D01*
X156646619Y-78025761D01*
X156741857Y-77978142D01*
X156884714Y-77978142D01*
X156979952Y-78025761D01*
X157027571Y-78073380D01*
X157075190Y-78168619D01*
X157075190Y-78549571D01*
X156979952Y-77406714D02*
X156932333Y-77501952D01*
X156884714Y-77549571D01*
X156789476Y-77597190D01*
X156741857Y-77597190D01*
X156646619Y-77549571D01*
X156599000Y-77501952D01*
X156551380Y-77406714D01*
X156551380Y-77216238D01*
X156599000Y-77121000D01*
X156646619Y-77073380D01*
X156741857Y-77025761D01*
X156789476Y-77025761D01*
X156884714Y-77073380D01*
X156932333Y-77121000D01*
X156979952Y-77216238D01*
X156979952Y-77406714D01*
X157027571Y-77501952D01*
X157075190Y-77549571D01*
X157170428Y-77597190D01*
X157360904Y-77597190D01*
X157456142Y-77549571D01*
X157503761Y-77501952D01*
X157551380Y-77406714D01*
X157551380Y-77216238D01*
X157503761Y-77121000D01*
X157456142Y-77073380D01*
X157360904Y-77025761D01*
X157170428Y-77025761D01*
X157075190Y-77073380D01*
X157027571Y-77121000D01*
X156979952Y-77216238D01*
D12*
%TO.C,RF_J1*%
X166309523Y-62302571D02*
X165704761Y-62725904D01*
X166309523Y-63028285D02*
X165039523Y-63028285D01*
X165039523Y-62544476D01*
X165100000Y-62423523D01*
X165160476Y-62363047D01*
X165281428Y-62302571D01*
X165462857Y-62302571D01*
X165583809Y-62363047D01*
X165644285Y-62423523D01*
X165704761Y-62544476D01*
X165704761Y-63028285D01*
X165644285Y-61334952D02*
X165644285Y-61758285D01*
X166309523Y-61758285D02*
X165039523Y-61758285D01*
X165039523Y-61153523D01*
X166430476Y-60972095D02*
X166430476Y-60004476D01*
X165039523Y-59339238D02*
X165946666Y-59339238D01*
X166128095Y-59399714D01*
X166249047Y-59520666D01*
X166309523Y-59702095D01*
X166309523Y-59823047D01*
X166309523Y-58069238D02*
X166309523Y-58794952D01*
X166309523Y-58432095D02*
X165039523Y-58432095D01*
X165220952Y-58553047D01*
X165341904Y-58674000D01*
X165402380Y-58794952D01*
D11*
%TO.C,RF_C8*%
X160234809Y-66111380D02*
X159901476Y-65635190D01*
X159663380Y-66111380D02*
X159663380Y-65111380D01*
X160044333Y-65111380D01*
X160139571Y-65159000D01*
X160187190Y-65206619D01*
X160234809Y-65301857D01*
X160234809Y-65444714D01*
X160187190Y-65539952D01*
X160139571Y-65587571D01*
X160044333Y-65635190D01*
X159663380Y-65635190D01*
X160996714Y-65587571D02*
X160663380Y-65587571D01*
X160663380Y-66111380D02*
X160663380Y-65111380D01*
X161139571Y-65111380D01*
X161282428Y-66206619D02*
X162044333Y-66206619D01*
X162853857Y-66016142D02*
X162806238Y-66063761D01*
X162663380Y-66111380D01*
X162568142Y-66111380D01*
X162425285Y-66063761D01*
X162330047Y-65968523D01*
X162282428Y-65873285D01*
X162234809Y-65682809D01*
X162234809Y-65539952D01*
X162282428Y-65349476D01*
X162330047Y-65254238D01*
X162425285Y-65159000D01*
X162568142Y-65111380D01*
X162663380Y-65111380D01*
X162806238Y-65159000D01*
X162853857Y-65206619D01*
X163425285Y-65539952D02*
X163330047Y-65492333D01*
X163282428Y-65444714D01*
X163234809Y-65349476D01*
X163234809Y-65301857D01*
X163282428Y-65206619D01*
X163330047Y-65159000D01*
X163425285Y-65111380D01*
X163615761Y-65111380D01*
X163711000Y-65159000D01*
X163758619Y-65206619D01*
X163806238Y-65301857D01*
X163806238Y-65349476D01*
X163758619Y-65444714D01*
X163711000Y-65492333D01*
X163615761Y-65539952D01*
X163425285Y-65539952D01*
X163330047Y-65587571D01*
X163282428Y-65635190D01*
X163234809Y-65730428D01*
X163234809Y-65920904D01*
X163282428Y-66016142D01*
X163330047Y-66063761D01*
X163425285Y-66111380D01*
X163615761Y-66111380D01*
X163711000Y-66063761D01*
X163758619Y-66016142D01*
X163806238Y-65920904D01*
X163806238Y-65730428D01*
X163758619Y-65635190D01*
X163711000Y-65587571D01*
X163615761Y-65539952D01*
%TO.C,RF_C9*%
X169743380Y-77041190D02*
X169267190Y-77374523D01*
X169743380Y-77612619D02*
X168743380Y-77612619D01*
X168743380Y-77231666D01*
X168791000Y-77136428D01*
X168838619Y-77088809D01*
X168933857Y-77041190D01*
X169076714Y-77041190D01*
X169171952Y-77088809D01*
X169219571Y-77136428D01*
X169267190Y-77231666D01*
X169267190Y-77612619D01*
X169219571Y-76279285D02*
X169219571Y-76612619D01*
X169743380Y-76612619D02*
X168743380Y-76612619D01*
X168743380Y-76136428D01*
X169838619Y-75993571D02*
X169838619Y-75231666D01*
X169648142Y-74422142D02*
X169695761Y-74469761D01*
X169743380Y-74612619D01*
X169743380Y-74707857D01*
X169695761Y-74850714D01*
X169600523Y-74945952D01*
X169505285Y-74993571D01*
X169314809Y-75041190D01*
X169171952Y-75041190D01*
X168981476Y-74993571D01*
X168886238Y-74945952D01*
X168791000Y-74850714D01*
X168743380Y-74707857D01*
X168743380Y-74612619D01*
X168791000Y-74469761D01*
X168838619Y-74422142D01*
X169743380Y-73945952D02*
X169743380Y-73755476D01*
X169695761Y-73660238D01*
X169648142Y-73612619D01*
X169505285Y-73517380D01*
X169314809Y-73469761D01*
X168933857Y-73469761D01*
X168838619Y-73517380D01*
X168791000Y-73565000D01*
X168743380Y-73660238D01*
X168743380Y-73850714D01*
X168791000Y-73945952D01*
X168838619Y-73993571D01*
X168933857Y-74041190D01*
X169171952Y-74041190D01*
X169267190Y-73993571D01*
X169314809Y-73945952D01*
X169362428Y-73850714D01*
X169362428Y-73660238D01*
X169314809Y-73565000D01*
X169267190Y-73517380D01*
X169171952Y-73469761D01*
%TO.C,H16*%
X116490904Y-98623380D02*
X116490904Y-97623380D01*
X116490904Y-98099571D02*
X117062333Y-98099571D01*
X117062333Y-98623380D02*
X117062333Y-97623380D01*
X118062333Y-98623380D02*
X117490904Y-98623380D01*
X117776619Y-98623380D02*
X117776619Y-97623380D01*
X117681380Y-97766238D01*
X117586142Y-97861476D01*
X117490904Y-97909095D01*
X118919476Y-97623380D02*
X118729000Y-97623380D01*
X118633761Y-97671000D01*
X118586142Y-97718619D01*
X118490904Y-97861476D01*
X118443285Y-98051952D01*
X118443285Y-98432904D01*
X118490904Y-98528142D01*
X118538523Y-98575761D01*
X118633761Y-98623380D01*
X118824238Y-98623380D01*
X118919476Y-98575761D01*
X118967095Y-98528142D01*
X119014714Y-98432904D01*
X119014714Y-98194809D01*
X118967095Y-98099571D01*
X118919476Y-98051952D01*
X118824238Y-98004333D01*
X118633761Y-98004333D01*
X118538523Y-98051952D01*
X118490904Y-98099571D01*
X118443285Y-98194809D01*
%TO.C,RF_R4*%
X140890809Y-105735380D02*
X140557476Y-105259190D01*
X140319380Y-105735380D02*
X140319380Y-104735380D01*
X140700333Y-104735380D01*
X140795571Y-104783000D01*
X140843190Y-104830619D01*
X140890809Y-104925857D01*
X140890809Y-105068714D01*
X140843190Y-105163952D01*
X140795571Y-105211571D01*
X140700333Y-105259190D01*
X140319380Y-105259190D01*
X141652714Y-105211571D02*
X141319380Y-105211571D01*
X141319380Y-105735380D02*
X141319380Y-104735380D01*
X141795571Y-104735380D01*
X141938428Y-105830619D02*
X142700333Y-105830619D01*
X143509857Y-105735380D02*
X143176523Y-105259190D01*
X142938428Y-105735380D02*
X142938428Y-104735380D01*
X143319380Y-104735380D01*
X143414619Y-104783000D01*
X143462238Y-104830619D01*
X143509857Y-104925857D01*
X143509857Y-105068714D01*
X143462238Y-105163952D01*
X143414619Y-105211571D01*
X143319380Y-105259190D01*
X142938428Y-105259190D01*
X144367000Y-105068714D02*
X144367000Y-105735380D01*
X144128904Y-104687761D02*
X143890809Y-105402047D01*
X144509857Y-105402047D01*
%TO.C,RF_R1*%
X115811380Y-79835190D02*
X115335190Y-80168523D01*
X115811380Y-80406619D02*
X114811380Y-80406619D01*
X114811380Y-80025666D01*
X114859000Y-79930428D01*
X114906619Y-79882809D01*
X115001857Y-79835190D01*
X115144714Y-79835190D01*
X115239952Y-79882809D01*
X115287571Y-79930428D01*
X115335190Y-80025666D01*
X115335190Y-80406619D01*
X115287571Y-79073285D02*
X115287571Y-79406619D01*
X115811380Y-79406619D02*
X114811380Y-79406619D01*
X114811380Y-78930428D01*
X115906619Y-78787571D02*
X115906619Y-78025666D01*
X115811380Y-77216142D02*
X115335190Y-77549476D01*
X115811380Y-77787571D02*
X114811380Y-77787571D01*
X114811380Y-77406619D01*
X114859000Y-77311380D01*
X114906619Y-77263761D01*
X115001857Y-77216142D01*
X115144714Y-77216142D01*
X115239952Y-77263761D01*
X115287571Y-77311380D01*
X115335190Y-77406619D01*
X115335190Y-77787571D01*
X115811380Y-76263761D02*
X115811380Y-76835190D01*
X115811380Y-76549476D02*
X114811380Y-76549476D01*
X114954238Y-76644714D01*
X115049476Y-76739952D01*
X115097095Y-76835190D01*
%TO.C,RF_R9*%
X154249380Y-76025190D02*
X153773190Y-76358523D01*
X154249380Y-76596619D02*
X153249380Y-76596619D01*
X153249380Y-76215666D01*
X153297000Y-76120428D01*
X153344619Y-76072809D01*
X153439857Y-76025190D01*
X153582714Y-76025190D01*
X153677952Y-76072809D01*
X153725571Y-76120428D01*
X153773190Y-76215666D01*
X153773190Y-76596619D01*
X153725571Y-75263285D02*
X153725571Y-75596619D01*
X154249380Y-75596619D02*
X153249380Y-75596619D01*
X153249380Y-75120428D01*
X154344619Y-74977571D02*
X154344619Y-74215666D01*
X154249380Y-73406142D02*
X153773190Y-73739476D01*
X154249380Y-73977571D02*
X153249380Y-73977571D01*
X153249380Y-73596619D01*
X153297000Y-73501380D01*
X153344619Y-73453761D01*
X153439857Y-73406142D01*
X153582714Y-73406142D01*
X153677952Y-73453761D01*
X153725571Y-73501380D01*
X153773190Y-73596619D01*
X153773190Y-73977571D01*
X154249380Y-72929952D02*
X154249380Y-72739476D01*
X154201761Y-72644238D01*
X154154142Y-72596619D01*
X154011285Y-72501380D01*
X153820809Y-72453761D01*
X153439857Y-72453761D01*
X153344619Y-72501380D01*
X153297000Y-72549000D01*
X153249380Y-72644238D01*
X153249380Y-72834714D01*
X153297000Y-72929952D01*
X153344619Y-72977571D01*
X153439857Y-73025190D01*
X153677952Y-73025190D01*
X153773190Y-72977571D01*
X153820809Y-72929952D01*
X153868428Y-72834714D01*
X153868428Y-72644238D01*
X153820809Y-72549000D01*
X153773190Y-72501380D01*
X153677952Y-72453761D01*
D13*
%TO.C,RF_C10*%
X172493000Y-92647000D02*
X172493000Y-85407000D01*
X172493000Y-85407000D02*
X175233000Y-85407000D01*
X172493000Y-92647000D02*
X175233000Y-92647000D01*
X175233000Y-92647000D02*
X175233000Y-85407000D01*
%TO.C,RF_JP1*%
X128497000Y-74327000D02*
X125757000Y-74327000D01*
X125757000Y-74327000D02*
X125757000Y-80867000D01*
X127127000Y-84177000D02*
X127127000Y-80867000D01*
X128497000Y-80867000D02*
X128497000Y-74327000D01*
X127127000Y-71017000D02*
X127127000Y-74327000D01*
X125757000Y-80867000D02*
X128497000Y-80867000D01*
%TO.C,RF_C6*%
X162787000Y-97599000D02*
X160047000Y-97599000D01*
X160047000Y-97599000D02*
X160047000Y-104839000D01*
X162787000Y-104839000D02*
X160047000Y-104839000D01*
X162787000Y-97599000D02*
X162787000Y-104839000D01*
%TO.C,RF_C5*%
X136461000Y-83285000D02*
X143701000Y-83285000D01*
X136461000Y-80545000D02*
X136461000Y-83285000D01*
X143701000Y-80545000D02*
X143701000Y-83285000D01*
X136461000Y-80545000D02*
X143701000Y-80545000D01*
%TO.C,RF_R11*%
X137827000Y-74449000D02*
X144367000Y-74449000D01*
X144367000Y-77189000D02*
X144367000Y-76859000D01*
X137827000Y-77189000D02*
X144367000Y-77189000D01*
X137827000Y-76859000D02*
X137827000Y-77189000D01*
X137827000Y-74779000D02*
X137827000Y-74449000D01*
X144367000Y-74449000D02*
X144367000Y-74779000D01*
%TO.C,RF_C12*%
X150939000Y-97001000D02*
X150939000Y-94261000D01*
X158179000Y-97001000D02*
X150939000Y-97001000D01*
X158179000Y-94261000D02*
X150939000Y-94261000D01*
X158179000Y-97001000D02*
X158179000Y-94261000D01*
%TO.C,RF_R6*%
X171799000Y-102135000D02*
X171799000Y-102465000D01*
X165259000Y-104875000D02*
X171799000Y-104875000D01*
X165259000Y-102465000D02*
X165259000Y-102135000D01*
X165259000Y-104545000D02*
X165259000Y-104875000D01*
X171799000Y-104875000D02*
X171799000Y-104545000D01*
X165259000Y-102135000D02*
X171799000Y-102135000D01*
%TO.C,RF_C2*%
X132307000Y-76517000D02*
X129567000Y-76517000D01*
X132307000Y-76517000D02*
X132307000Y-83757000D01*
X132307000Y-83757000D02*
X129567000Y-83757000D01*
X129567000Y-76517000D02*
X129567000Y-83757000D01*
%TO.C,RF_C13*%
X124200328Y-103783000D02*
X124200328Y-105299000D01*
X124240328Y-100193000D02*
X124240328Y-101703000D01*
X125721328Y-103783000D02*
X125721328Y-104528000D01*
X124681328Y-100301000D02*
X124681328Y-101703000D01*
X124200328Y-100187000D02*
X124200328Y-101703000D01*
X124080328Y-103783000D02*
X124080328Y-105312000D01*
X126041328Y-101360000D02*
X126041328Y-104126000D01*
X124761328Y-100329000D02*
X124761328Y-101703000D01*
X123960328Y-100165000D02*
X123960328Y-101703000D01*
X126361328Y-102066000D02*
X126361328Y-103420000D01*
X121035553Y-101268000D02*
X121535553Y-101268000D01*
X125361328Y-100648000D02*
X125361328Y-101703000D01*
X125161328Y-103783000D02*
X125161328Y-104967000D01*
X124160328Y-100182000D02*
X124160328Y-101703000D01*
X121285553Y-101018000D02*
X121285553Y-101518000D01*
X126001328Y-101300000D02*
X126001328Y-104186000D01*
X125401328Y-100678000D02*
X125401328Y-101703000D01*
X125681328Y-103783000D02*
X125681328Y-104569000D01*
X124080328Y-100174000D02*
X124080328Y-101703000D01*
X126201328Y-101645000D02*
X126201328Y-103841000D01*
X124601328Y-103783000D02*
X124601328Y-105211000D01*
X125321328Y-100621000D02*
X125321328Y-101703000D01*
X124360328Y-103783000D02*
X124360328Y-105271000D01*
X124160328Y-103783000D02*
X124160328Y-105304000D01*
X125161328Y-100519000D02*
X125161328Y-101703000D01*
X125001328Y-103783000D02*
X125001328Y-105053000D01*
X124641328Y-103783000D02*
X124641328Y-105198000D01*
X125361328Y-103783000D02*
X125361328Y-104838000D01*
X124921328Y-100395000D02*
X124921328Y-101703000D01*
X124721328Y-103783000D02*
X124721328Y-105171000D01*
X126441328Y-102459000D02*
X126441328Y-103027000D01*
X124841328Y-103783000D02*
X124841328Y-105125000D01*
X123840328Y-100163000D02*
X123840328Y-101703000D01*
X125521328Y-103783000D02*
X125521328Y-104714000D01*
X126321328Y-101938000D02*
X126321328Y-103548000D01*
X125521328Y-100772000D02*
X125521328Y-101703000D01*
X125961328Y-101243000D02*
X125961328Y-104243000D01*
X124400328Y-100223000D02*
X124400328Y-101703000D01*
X124961328Y-100414000D02*
X124961328Y-101703000D01*
X124601328Y-100275000D02*
X124601328Y-101703000D01*
X125001328Y-100433000D02*
X125001328Y-101703000D01*
X126121328Y-101492000D02*
X126121328Y-103994000D01*
X124280328Y-100200000D02*
X124280328Y-101703000D01*
X124641328Y-100288000D02*
X124641328Y-101703000D01*
X123880328Y-100163000D02*
X123880328Y-101703000D01*
X124841328Y-100361000D02*
X124841328Y-101703000D01*
X125241328Y-100568000D02*
X125241328Y-101703000D01*
X124881328Y-100378000D02*
X124881328Y-101703000D01*
X125241328Y-103783000D02*
X125241328Y-104918000D01*
X126401328Y-102225000D02*
X126401328Y-103261000D01*
X125561328Y-100806000D02*
X125561328Y-101703000D01*
X125801328Y-103783000D02*
X125801328Y-104442000D01*
X125121328Y-103783000D02*
X125121328Y-104990000D01*
X125281328Y-100594000D02*
X125281328Y-101703000D01*
X123960328Y-103783000D02*
X123960328Y-105321000D01*
X124801328Y-103783000D02*
X124801328Y-105141000D01*
X125041328Y-100453000D02*
X125041328Y-101703000D01*
X125081328Y-103783000D02*
X125081328Y-105011000D01*
X125721328Y-100958000D02*
X125721328Y-101703000D01*
X125481328Y-100739000D02*
X125481328Y-101703000D01*
X124280328Y-103783000D02*
X124280328Y-105286000D01*
X124440328Y-100232000D02*
X124440328Y-101703000D01*
X125401328Y-103783000D02*
X125401328Y-104808000D01*
X124120328Y-103783000D02*
X124120328Y-105308000D01*
X123840328Y-103783000D02*
X123840328Y-105323000D01*
X124520328Y-103783000D02*
X124520328Y-105234000D01*
X124000328Y-103783000D02*
X124000328Y-105319000D01*
X124440328Y-103783000D02*
X124440328Y-105254000D01*
X125801328Y-101044000D02*
X125801328Y-101703000D01*
X124360328Y-100215000D02*
X124360328Y-101703000D01*
X124000328Y-100167000D02*
X124000328Y-101703000D01*
X125641328Y-100879000D02*
X125641328Y-101703000D01*
X126241328Y-101732000D02*
X126241328Y-103754000D01*
X124801328Y-100345000D02*
X124801328Y-101703000D01*
X125081328Y-100475000D02*
X125081328Y-101703000D01*
X124240328Y-103783000D02*
X124240328Y-105293000D01*
X123920328Y-100164000D02*
X123920328Y-101703000D01*
X124040328Y-100170000D02*
X124040328Y-101703000D01*
X124681328Y-103783000D02*
X124681328Y-105185000D01*
X124561328Y-103783000D02*
X124561328Y-105223000D01*
X125841328Y-101090000D02*
X125841328Y-101703000D01*
X125761328Y-101000000D02*
X125761328Y-101703000D01*
X126161328Y-101565000D02*
X126161328Y-103921000D01*
X125441328Y-103783000D02*
X125441328Y-104778000D01*
X125041328Y-103783000D02*
X125041328Y-105033000D01*
X123920328Y-103783000D02*
X123920328Y-105322000D01*
X124921328Y-103783000D02*
X124921328Y-105091000D01*
X125201328Y-100543000D02*
X125201328Y-101703000D01*
X124881328Y-103783000D02*
X124881328Y-105108000D01*
X125601328Y-103783000D02*
X125601328Y-104644000D01*
X124480328Y-100242000D02*
X124480328Y-101703000D01*
X125121328Y-100496000D02*
X125121328Y-101703000D01*
X124761328Y-103783000D02*
X124761328Y-105157000D01*
X124961328Y-103783000D02*
X124961328Y-105072000D01*
X124561328Y-100263000D02*
X124561328Y-101703000D01*
X125881328Y-101138000D02*
X125881328Y-104348000D01*
X125561328Y-103783000D02*
X125561328Y-104680000D01*
X124040328Y-103783000D02*
X124040328Y-105316000D01*
X125761328Y-103783000D02*
X125761328Y-104486000D01*
X126081328Y-101424000D02*
X126081328Y-104062000D01*
X124320328Y-100207000D02*
X124320328Y-101703000D01*
X125921328Y-101189000D02*
X125921328Y-104297000D01*
X124120328Y-100178000D02*
X124120328Y-101703000D01*
X124400328Y-103783000D02*
X124400328Y-105263000D01*
X125281328Y-103783000D02*
X125281328Y-104892000D01*
X125641328Y-103783000D02*
X125641328Y-104607000D01*
X123880328Y-103783000D02*
X123880328Y-105323000D01*
X125441328Y-100708000D02*
X125441328Y-101703000D01*
X126281328Y-101828000D02*
X126281328Y-103658000D01*
X125601328Y-100842000D02*
X125601328Y-101703000D01*
X125321328Y-103783000D02*
X125321328Y-104865000D01*
X124320328Y-103783000D02*
X124320328Y-105279000D01*
X125681328Y-100917000D02*
X125681328Y-101703000D01*
X125201328Y-103783000D02*
X125201328Y-104943000D01*
X124721328Y-100315000D02*
X124721328Y-101703000D01*
X124480328Y-103783000D02*
X124480328Y-105244000D01*
X125481328Y-103783000D02*
X125481328Y-104747000D01*
X125841328Y-103783000D02*
X125841328Y-104396000D01*
X124520328Y-100252000D02*
X124520328Y-101703000D01*
X126460328Y-102743000D02*
G75*
G03*
X126460328Y-102743000I-2620000J0D01*
G01*
%TO.C,RF_R3*%
X132239000Y-103783000D02*
X132239000Y-104113000D01*
X132239000Y-101703000D02*
X132239000Y-101373000D01*
X138779000Y-104113000D02*
X138779000Y-103783000D01*
X132239000Y-104113000D02*
X138779000Y-104113000D01*
X138779000Y-101373000D02*
X138779000Y-101703000D01*
X132239000Y-101373000D02*
X138779000Y-101373000D01*
%TO.C,RF_L3*%
X153507000Y-98145348D02*
G75*
G03*
X153507000Y-105228652I1560000J-3541652D01*
G01*
X156627000Y-105228652D02*
G75*
G03*
X156627000Y-98145348I-1560000J3541652D01*
G01*
%TO.C,RF_C11*%
X177483000Y-73179000D02*
X177483000Y-75919000D01*
X170243000Y-73179000D02*
X177483000Y-73179000D01*
X170243000Y-75919000D02*
X177483000Y-75919000D01*
X170243000Y-73179000D02*
X170243000Y-75919000D01*
%TO.C,RF_D1*%
X125753000Y-94357000D02*
X127993000Y-94357000D01*
X126873000Y-96877000D02*
X126873000Y-94957000D01*
X127993000Y-94957000D02*
X127993000Y-90717000D01*
X125753000Y-90717000D02*
X125753000Y-94957000D01*
X127993000Y-90717000D02*
X125753000Y-90717000D01*
X125753000Y-94237000D02*
X127993000Y-94237000D01*
X126873000Y-88797000D02*
X126873000Y-90717000D01*
X125753000Y-94957000D02*
X127993000Y-94957000D01*
X125753000Y-94117000D02*
X127993000Y-94117000D01*
%TO.C,RF_D2*%
X135359000Y-76077000D02*
X133119000Y-76077000D01*
X133119000Y-75477000D02*
X133119000Y-79717000D01*
X135359000Y-75477000D02*
X133119000Y-75477000D01*
X134239000Y-73557000D02*
X134239000Y-75477000D01*
X134239000Y-81637000D02*
X134239000Y-79717000D01*
X135359000Y-79717000D02*
X135359000Y-75477000D01*
X135359000Y-76317000D02*
X133119000Y-76317000D01*
X133119000Y-79717000D02*
X135359000Y-79717000D01*
X135359000Y-76197000D02*
X133119000Y-76197000D01*
%TO.C,RF_C1*%
X130837000Y-59793000D02*
X133577000Y-59793000D01*
X130837000Y-67033000D02*
X133577000Y-67033000D01*
X130837000Y-67033000D02*
X130837000Y-59793000D01*
X133577000Y-67033000D02*
X133577000Y-59793000D01*
%TO.C,S5*%
G36*
X113583866Y-68046361D02*
G01*
X113362626Y-67923834D01*
X113101108Y-67751382D01*
X112960786Y-67612697D01*
X112929395Y-67527301D01*
X113368666Y-67527301D01*
X113568546Y-67693817D01*
X113769189Y-67833130D01*
X113881742Y-67836263D01*
X113918891Y-67703112D01*
X113919000Y-67691000D01*
X113883551Y-67571463D01*
X113747287Y-67527149D01*
X113643833Y-67524484D01*
X113368666Y-67527301D01*
X112929395Y-67527301D01*
X112908797Y-67471264D01*
X112905401Y-67415834D01*
X112912395Y-67286930D01*
X112963237Y-67217347D01*
X113097618Y-67188808D01*
X113355231Y-67183033D01*
X113411000Y-67183000D01*
X113705972Y-67173247D01*
X113864341Y-67138672D01*
X113917998Y-67071303D01*
X113919000Y-67056000D01*
X113986772Y-66943752D01*
X114046000Y-66929000D01*
X114158248Y-66996773D01*
X114173000Y-67056000D01*
X114240772Y-67168249D01*
X114300000Y-67183000D01*
X114403428Y-67253587D01*
X114427000Y-67352334D01*
X114374060Y-67490238D01*
X114300000Y-67521667D01*
X114211693Y-67577590D01*
X114175304Y-67762970D01*
X114173000Y-67860334D01*
X114159487Y-68080860D01*
X114103053Y-68178554D01*
X113995224Y-68199000D01*
X113881742Y-68169755D01*
X113830459Y-68156539D01*
X113583866Y-68046361D01*
G37*
G36*
X114255884Y-69847494D02*
G01*
X114286877Y-69877834D01*
X114368326Y-70045154D01*
X114418008Y-70289812D01*
X114429277Y-70541163D01*
X114395486Y-70728560D01*
X114370555Y-70767223D01*
X114243002Y-70819359D01*
X114192043Y-70823667D01*
X114109046Y-70771516D01*
X114121412Y-70618728D01*
X114138574Y-70360883D01*
X114053346Y-70193064D01*
X113919000Y-70146334D01*
X113761367Y-70216320D01*
X113694381Y-70403744D01*
X113716587Y-70618728D01*
X113735988Y-70738971D01*
X113690365Y-70799682D01*
X113542013Y-70821138D01*
X113335511Y-70823667D01*
X112903000Y-70823667D01*
X112903000Y-70315667D01*
X112912753Y-70020695D01*
X112947328Y-69862325D01*
X113014697Y-69808669D01*
X113030000Y-69807667D01*
X113118306Y-69863590D01*
X113154695Y-70048970D01*
X113157000Y-70146334D01*
X113177971Y-70381819D01*
X113247488Y-70478854D01*
X113284000Y-70485000D01*
X113385001Y-70409568D01*
X113410999Y-70237048D01*
X113455045Y-70009095D01*
X113544047Y-69856048D01*
X113763010Y-69742854D01*
X114027128Y-69740789D01*
X114255884Y-69847494D01*
G37*
G36*
X114255884Y-65783494D02*
G01*
X114286877Y-65813834D01*
X114368326Y-65981154D01*
X114418008Y-66225812D01*
X114429277Y-66477163D01*
X114395486Y-66664560D01*
X114370555Y-66703223D01*
X114243002Y-66755359D01*
X114192043Y-66759667D01*
X114109046Y-66707516D01*
X114121412Y-66554728D01*
X114138574Y-66296883D01*
X114053346Y-66129064D01*
X113919000Y-66082334D01*
X113761367Y-66152320D01*
X113694381Y-66339744D01*
X113716587Y-66554728D01*
X113735988Y-66674971D01*
X113690365Y-66735682D01*
X113542013Y-66757138D01*
X113335511Y-66759667D01*
X112903000Y-66759667D01*
X112903000Y-66251667D01*
X112912753Y-65956695D01*
X112947328Y-65798325D01*
X113014697Y-65744669D01*
X113030000Y-65743667D01*
X113118306Y-65799590D01*
X113154695Y-65984970D01*
X113157000Y-66082334D01*
X113177971Y-66317819D01*
X113247488Y-66414854D01*
X113284000Y-66421000D01*
X113385001Y-66345568D01*
X113410999Y-66173048D01*
X113455045Y-65945095D01*
X113544047Y-65792048D01*
X113763010Y-65678854D01*
X114027128Y-65676789D01*
X114255884Y-65783494D01*
G37*
G36*
X112903000Y-64236600D02*
G01*
X112907689Y-64156167D01*
X113173118Y-64156167D01*
X113195736Y-64268467D01*
X113345524Y-64304078D01*
X113368666Y-64304334D01*
X113532871Y-64275078D01*
X113566780Y-64171502D01*
X113564215Y-64156167D01*
X113468341Y-64034250D01*
X113368666Y-64008000D01*
X113218871Y-64072225D01*
X113173118Y-64156167D01*
X112907689Y-64156167D01*
X112919601Y-63951815D01*
X112962451Y-63730601D01*
X113004599Y-63643934D01*
X113197036Y-63553951D01*
X113430015Y-63563933D01*
X113594283Y-63655050D01*
X113687819Y-63711606D01*
X113817639Y-63677050D01*
X113990436Y-63570384D01*
X114226834Y-63423692D01*
X114360425Y-63386526D01*
X114417852Y-63459246D01*
X114427000Y-63576304D01*
X114360915Y-63767492D01*
X114148529Y-63943754D01*
X114130666Y-63954449D01*
X113944061Y-64084209D01*
X113841280Y-64193890D01*
X113834333Y-64216812D01*
X113908752Y-64274658D01*
X114091746Y-64303577D01*
X114130666Y-64304334D01*
X114331064Y-64320148D01*
X114413104Y-64391313D01*
X114427000Y-64516000D01*
X114420932Y-64616200D01*
X114381006Y-64678413D01*
X114274636Y-64711693D01*
X114069237Y-64725091D01*
X113732223Y-64727657D01*
X113665000Y-64727667D01*
X112903000Y-64727667D01*
X112903000Y-64236600D01*
G37*
G36*
X114371236Y-58583741D02*
G01*
X114410829Y-58715023D01*
X114426070Y-58972435D01*
X114427000Y-59097334D01*
X114427000Y-59647667D01*
X112903000Y-59647667D01*
X112903000Y-59097334D01*
X112911478Y-58788644D01*
X112941774Y-58617072D01*
X113001177Y-58551030D01*
X113030000Y-58547000D01*
X113118306Y-58602924D01*
X113154695Y-58788303D01*
X113157000Y-58885667D01*
X113171200Y-59107235D01*
X113228594Y-59205160D01*
X113326333Y-59224334D01*
X113443041Y-59191186D01*
X113490131Y-59061778D01*
X113495666Y-58928000D01*
X113523206Y-58708827D01*
X113611100Y-58632203D01*
X113622666Y-58631667D01*
X113716598Y-58695927D01*
X113749437Y-58901012D01*
X113749666Y-58928000D01*
X113765480Y-59128399D01*
X113836646Y-59210438D01*
X113961333Y-59224334D01*
X114097706Y-59205849D01*
X114158319Y-59118659D01*
X114172924Y-58915160D01*
X114173000Y-58885667D01*
X114193971Y-58650182D01*
X114263488Y-58553147D01*
X114300000Y-58547000D01*
X114371236Y-58583741D01*
G37*
G36*
X113596561Y-60674614D02*
G01*
X113966631Y-60810186D01*
X114206476Y-60905425D01*
X114344271Y-60979865D01*
X114408189Y-61053037D01*
X114426405Y-61144475D01*
X114427000Y-61250352D01*
X114414302Y-61373758D01*
X114354432Y-61466060D01*
X114214724Y-61551016D01*
X113962513Y-61652382D01*
X113787580Y-61715375D01*
X113470246Y-61828453D01*
X113206031Y-61923370D01*
X113042968Y-61982851D01*
X113025580Y-61989412D01*
X112931052Y-61974404D01*
X112903000Y-61820274D01*
X112923236Y-61694946D01*
X113007520Y-61598613D01*
X113191213Y-61503827D01*
X113428230Y-61412588D01*
X113953461Y-61221079D01*
X113428230Y-61053071D01*
X113142922Y-60954857D01*
X112984645Y-60872626D01*
X112916860Y-60778563D01*
X112903000Y-60653279D01*
X112903000Y-60421496D01*
X113596561Y-60674614D01*
G37*
G36*
X114371236Y-62139741D02*
G01*
X114410829Y-62271023D01*
X114426070Y-62528435D01*
X114427000Y-62653334D01*
X114427000Y-63203667D01*
X112903000Y-63203667D01*
X112903000Y-62653334D01*
X112911478Y-62344644D01*
X112941774Y-62173072D01*
X113001177Y-62107030D01*
X113030000Y-62103000D01*
X113118306Y-62158924D01*
X113154695Y-62344303D01*
X113157000Y-62441667D01*
X113171200Y-62663235D01*
X113228594Y-62761160D01*
X113326333Y-62780334D01*
X113443041Y-62747186D01*
X113490131Y-62617778D01*
X113495666Y-62484000D01*
X113523206Y-62264827D01*
X113611100Y-62188203D01*
X113622666Y-62187667D01*
X113716598Y-62251927D01*
X113749437Y-62457012D01*
X113749666Y-62484000D01*
X113765480Y-62684399D01*
X113836646Y-62766438D01*
X113961333Y-62780334D01*
X114097706Y-62761849D01*
X114158319Y-62674659D01*
X114172924Y-62471160D01*
X114173000Y-62441667D01*
X114193971Y-62206182D01*
X114263488Y-62109147D01*
X114300000Y-62103000D01*
X114371236Y-62139741D01*
G37*
G36*
X113131767Y-68399505D02*
G01*
X113366092Y-68482439D01*
X113667880Y-68601263D01*
X113769688Y-68643500D01*
X114092906Y-68784639D01*
X114288769Y-68890327D01*
X114388463Y-68984605D01*
X114423171Y-69091513D01*
X114425894Y-69149363D01*
X114427000Y-69380059D01*
X113792000Y-69090680D01*
X113156999Y-68801301D01*
X113156999Y-69177484D01*
X113139963Y-69426855D01*
X113082177Y-69539370D01*
X113030000Y-69553667D01*
X112960998Y-69518813D01*
X112921507Y-69393487D01*
X112904851Y-69146546D01*
X112903000Y-68961000D01*
X112914295Y-68616708D01*
X112950070Y-68424503D01*
X113008794Y-68368334D01*
X113131767Y-68399505D01*
G37*
G36*
X113131767Y-71108839D02*
G01*
X113366092Y-71191773D01*
X113667880Y-71310597D01*
X113769688Y-71352834D01*
X114092906Y-71493972D01*
X114288769Y-71599660D01*
X114388463Y-71693938D01*
X114423171Y-71800847D01*
X114425894Y-71858696D01*
X114427000Y-72089392D01*
X113792000Y-71800013D01*
X113156999Y-71510634D01*
X113156999Y-71886817D01*
X113139963Y-72136189D01*
X113082177Y-72248703D01*
X113030000Y-72263000D01*
X112960998Y-72228146D01*
X112921507Y-72102820D01*
X112904851Y-71855880D01*
X112903000Y-71670334D01*
X112914295Y-71326041D01*
X112950070Y-71133836D01*
X113008794Y-71077667D01*
X113131767Y-71108839D01*
G37*
D14*
%TO.C,RF_SW1*%
X138915500Y-68680000D02*
X138915500Y-68680000D01*
D15*
X139065500Y-64600000D02*
X139065500Y-61250000D01*
D14*
X138915500Y-68880000D02*
X138915500Y-68880000D01*
D15*
X151765500Y-64600000D02*
X139065500Y-64600000D01*
X150415500Y-58250000D02*
X140415500Y-58250000D01*
X151765500Y-61250000D02*
X151765500Y-64600000D01*
D14*
X138915500Y-68880000D02*
G75*
G03*
X138915500Y-68680000I0J100000D01*
G01*
X138915500Y-68680000D02*
G75*
G03*
X138915500Y-68880000I0J-100000D01*
G01*
D13*
%TO.C,RF_R10*%
X144367000Y-71731000D02*
X144367000Y-71401000D01*
X137827000Y-74141000D02*
X137827000Y-73811000D01*
X144367000Y-74141000D02*
X137827000Y-74141000D01*
X137827000Y-71401000D02*
X137827000Y-71731000D01*
X144367000Y-71401000D02*
X137827000Y-71401000D01*
X144367000Y-73811000D02*
X144367000Y-74141000D01*
%TO.C,RF_L1*%
X172557000Y-77103348D02*
G75*
G03*
X172557000Y-84186652I1560000J-3541652D01*
G01*
X175677000Y-84186652D02*
G75*
G03*
X175677000Y-77103348I-1560000J3541652D01*
G01*
%TO.C,RF_C3*%
X136117000Y-89979000D02*
X136117000Y-97219000D01*
X133377000Y-89979000D02*
X133377000Y-97219000D01*
X136117000Y-89979000D02*
X133377000Y-89979000D01*
X136117000Y-97219000D02*
X133377000Y-97219000D01*
%TO.C,RF_R12*%
X139605000Y-77497000D02*
X139605000Y-77827000D01*
X146145000Y-77497000D02*
X139605000Y-77497000D01*
X146145000Y-77827000D02*
X146145000Y-77497000D01*
X139605000Y-80237000D02*
X139605000Y-79907000D01*
X146145000Y-80237000D02*
X139605000Y-80237000D01*
X146145000Y-79907000D02*
X146145000Y-80237000D01*
%TO.C,RF_L2*%
X170800652Y-86197000D02*
G75*
G03*
X163717348Y-86197000I-3541652J-1560000D01*
G01*
X163717348Y-89317000D02*
G75*
G03*
X170800652Y-89317000I3541652J1560000D01*
G01*
%TO.C,RF_R2*%
X132231000Y-88297000D02*
X132561000Y-88297000D01*
X130151000Y-88297000D02*
X129821000Y-88297000D01*
X129821000Y-88297000D02*
X129821000Y-94837000D01*
X132561000Y-88297000D02*
X132561000Y-94837000D01*
X132561000Y-94837000D02*
X132231000Y-94837000D01*
X129821000Y-94837000D02*
X130151000Y-94837000D01*
%TO.C,RF_U1*%
X160969000Y-86538000D02*
X137989000Y-86538000D01*
X137989000Y-91038000D02*
X160969000Y-91038000D01*
X137989000Y-86538000D02*
X137989000Y-87788000D01*
X160969000Y-91038000D02*
X160969000Y-86538000D01*
X137989000Y-89788000D02*
X137989000Y-91038000D01*
X137989000Y-89788000D02*
G75*
G03*
X137989000Y-87788000I0J1000000D01*
G01*
%TO.C,RF_C7*%
X148653000Y-80545000D02*
X148653000Y-83285000D01*
X155893000Y-80545000D02*
X155893000Y-83285000D01*
X148653000Y-80545000D02*
X155893000Y-80545000D01*
X148653000Y-83285000D02*
X155893000Y-83285000D01*
%TO.C,RF_VL1*%
X128651000Y-68199000D02*
X128651000Y-64897000D01*
X118491000Y-64897000D02*
X118491000Y-68199000D01*
X128651000Y-58039000D02*
X118491000Y-58039000D01*
X118491000Y-58039000D02*
X118491000Y-61341000D01*
X118491000Y-68199000D02*
X128651000Y-68199000D01*
X128651000Y-61341000D02*
X128651000Y-58039000D01*
%TO.C,RF_C4*%
X139891000Y-97817000D02*
X132651000Y-97817000D01*
X139891000Y-100557000D02*
X132651000Y-100557000D01*
X132651000Y-100557000D02*
X132651000Y-97817000D01*
X139891000Y-100557000D02*
X139891000Y-97817000D01*
%TO.C,RF_R5*%
X171799000Y-100735000D02*
X171799000Y-101065000D01*
X165259000Y-98325000D02*
X165259000Y-98655000D01*
X171799000Y-98655000D02*
X171799000Y-98325000D01*
X165259000Y-101065000D02*
X165259000Y-100735000D01*
X171799000Y-98325000D02*
X165259000Y-98325000D01*
X171799000Y-101065000D02*
X165259000Y-101065000D01*
%TO.C,J4B1*%
X120463000Y-77597000D02*
X123123000Y-77597000D01*
X123123000Y-74997000D02*
X123123000Y-76327000D01*
X120463000Y-77597000D02*
X120463000Y-95437000D01*
X120463000Y-95437000D02*
X123123000Y-95437000D01*
X121793000Y-74997000D02*
X123123000Y-74997000D01*
X123123000Y-77597000D02*
X123123000Y-95437000D01*
%TO.C,RF_R7*%
X165073000Y-73819000D02*
X164743000Y-73819000D01*
X162333000Y-80359000D02*
X162333000Y-73819000D01*
X162663000Y-80359000D02*
X162333000Y-80359000D01*
X164743000Y-80359000D02*
X165073000Y-80359000D01*
X165073000Y-80359000D02*
X165073000Y-73819000D01*
X162333000Y-73819000D02*
X162663000Y-73819000D01*
%TO.C,RF_R8*%
X160755000Y-80359000D02*
X160755000Y-73819000D01*
X160755000Y-73819000D02*
X160425000Y-73819000D01*
X158345000Y-80359000D02*
X158015000Y-80359000D01*
X160425000Y-80359000D02*
X160755000Y-80359000D01*
X158015000Y-73819000D02*
X158345000Y-73819000D01*
X158015000Y-80359000D02*
X158015000Y-73819000D01*
D14*
%TO.C,RF_J1*%
X178701000Y-65239500D02*
X178701000Y-65239500D01*
D15*
X168101000Y-71339500D02*
X168101000Y-63839500D01*
X175101000Y-61339500D02*
X171101000Y-61339500D01*
X175601000Y-71339500D02*
X178101000Y-71339500D01*
X178101000Y-71339500D02*
X178101000Y-63839500D01*
D14*
X178901000Y-65239500D02*
X178901000Y-65239500D01*
D15*
X170601000Y-71339500D02*
X168101000Y-71339500D01*
D14*
X178701000Y-65239500D02*
G75*
G03*
X178901000Y-65239500I100000J0D01*
G01*
X178901000Y-65239500D02*
G75*
G03*
X178701000Y-65239500I-100000J0D01*
G01*
D13*
%TO.C,RF_C8*%
X158051000Y-66575000D02*
X165291000Y-66575000D01*
X158051000Y-69315000D02*
X165291000Y-69315000D01*
X158051000Y-66575000D02*
X158051000Y-69315000D01*
X165291000Y-66575000D02*
X165291000Y-69315000D01*
%TO.C,RF_C9*%
X165635000Y-81217000D02*
X168375000Y-81217000D01*
X165635000Y-73977000D02*
X168375000Y-73977000D01*
X165635000Y-81217000D02*
X165635000Y-73977000D01*
X168375000Y-81217000D02*
X168375000Y-73977000D01*
%TO.C,RF_R4*%
X140997000Y-102457000D02*
X140997000Y-95917000D01*
X140997000Y-95917000D02*
X141327000Y-95917000D01*
X143407000Y-102457000D02*
X143737000Y-102457000D01*
X143737000Y-102457000D02*
X143737000Y-95917000D01*
X141327000Y-102457000D02*
X140997000Y-102457000D01*
X143737000Y-95917000D02*
X143407000Y-95917000D01*
%TO.C,RF_R1*%
X116359000Y-75089000D02*
X116689000Y-75089000D01*
X116359000Y-81629000D02*
X116359000Y-75089000D01*
X119099000Y-81629000D02*
X119099000Y-75089000D01*
X119099000Y-75089000D02*
X118769000Y-75089000D01*
X116689000Y-81629000D02*
X116359000Y-81629000D01*
X118769000Y-81629000D02*
X119099000Y-81629000D01*
%TO.C,RF_R9*%
X154713000Y-75025000D02*
X155043000Y-75025000D01*
X154713000Y-68485000D02*
X154713000Y-75025000D01*
X155043000Y-68485000D02*
X154713000Y-68485000D01*
X157453000Y-68485000D02*
X157453000Y-75025000D01*
X157123000Y-68485000D02*
X157453000Y-68485000D01*
X157453000Y-75025000D02*
X157123000Y-75025000D01*
%TD*%
M02*
