%TF.GenerationSoftware,KiCad,Pcbnew,6.0.11-2627ca5db0~126~ubuntu22.04.1*%
%TF.CreationDate,2023-04-08T12:37:41-04:00*%
%TF.ProjectId,sub_rf_mod,7375625f-7266-45f6-9d6f-642e6b696361,rev?*%
%TF.SameCoordinates,Original*%
%TF.FileFunction,Copper,L1,Top*%
%TF.FilePolarity,Positive*%
%FSLAX46Y46*%
G04 Gerber Fmt 4.6, Leading zero omitted, Abs format (unit mm)*
G04 Created by KiCad (PCBNEW 6.0.11-2627ca5db0~126~ubuntu22.04.1) date 2023-04-08 12:37:41*
%MOMM*%
%LPD*%
G01*
G04 APERTURE LIST*
%TA.AperFunction,Profile*%
%ADD10C,0.100000*%
%TD*%
%TA.AperFunction,ComponentPad*%
%ADD11C,1.600000*%
%TD*%
%TA.AperFunction,ComponentPad*%
%ADD12O,1.600000X1.600000*%
%TD*%
%TA.AperFunction,ComponentPad*%
%ADD13R,1.600000X1.600000*%
%TD*%
%TA.AperFunction,ComponentPad*%
%ADD14C,2.600000*%
%TD*%
%TA.AperFunction,ComponentPad*%
%ADD15R,1.600000X2.400000*%
%TD*%
%TA.AperFunction,ComponentPad*%
%ADD16O,1.600000X2.400000*%
%TD*%
%TA.AperFunction,ComponentPad*%
%ADD17C,3.800000*%
%TD*%
%TA.AperFunction,ComponentPad*%
%ADD18C,1.524000*%
%TD*%
%TA.AperFunction,ComponentPad*%
%ADD19C,3.000000*%
%TD*%
%TA.AperFunction,ComponentPad*%
%ADD20R,1.700000X1.700000*%
%TD*%
%TA.AperFunction,ComponentPad*%
%ADD21O,1.700000X1.700000*%
%TD*%
%TA.AperFunction,ComponentPad*%
%ADD22C,4.227000*%
%TD*%
%TA.AperFunction,ComponentPad*%
%ADD23C,4.039000*%
%TD*%
%TA.AperFunction,ComponentPad*%
%ADD24O,1.800000X3.000000*%
%TD*%
%TA.AperFunction,ComponentPad*%
%ADD25R,1.500000X2.500000*%
%TD*%
%TA.AperFunction,ComponentPad*%
%ADD26O,1.500000X2.500000*%
%TD*%
G04 APERTURE END LIST*
D10*
X108966000Y-67183000D02*
X177038000Y-67183000D01*
X108966000Y-67183000D02*
X108458000Y-67691000D01*
X177546000Y-116713000D02*
X177546000Y-67691000D01*
X177038000Y-67183000D02*
X177546000Y-67691000D01*
X108458000Y-116713000D02*
X108966000Y-117221000D01*
X108458000Y-116713000D02*
X108458000Y-67691000D01*
X177038000Y-117221000D02*
X177546000Y-116713000D01*
X108966000Y-117221000D02*
X177038000Y-117221000D01*
D11*
%TO.P,RF_C10,1*%
%TO.N,N/C*%
X166664000Y-95123000D03*
%TO.P,RF_C10,2*%
X171664000Y-95123000D03*
%TD*%
%TO.P,RF_JP1,1,A*%
%TO.N,N/C*%
X124460000Y-80137000D03*
D12*
%TO.P,RF_JP1,2,B*%
X124460000Y-95377000D03*
%TD*%
D11*
%TO.P,RF_C6,1*%
%TO.N,N/C*%
X141518000Y-110109000D03*
%TO.P,RF_C6,2*%
X146518000Y-110109000D03*
%TD*%
%TO.P,RF_C5,1*%
%TO.N,N/C*%
X134914000Y-88519000D03*
%TO.P,RF_C5,2*%
X139914000Y-88519000D03*
%TD*%
%TO.P,RF_R11,1*%
%TO.N,N/C*%
X134874000Y-81915000D03*
D12*
%TO.P,RF_R11,2*%
X142494000Y-81915000D03*
%TD*%
D11*
%TO.P,RF_C12,1*%
%TO.N,N/C*%
X160020000Y-105029000D03*
%TO.P,RF_C12,2*%
X155020000Y-105029000D03*
%TD*%
%TO.P,RF_R6,1*%
%TO.N,N/C*%
X159004000Y-79883000D03*
D12*
%TO.P,RF_R6,2*%
X159004000Y-72263000D03*
%TD*%
D11*
%TO.P,RF_C2,1*%
%TO.N,N/C*%
X128270000Y-87797000D03*
%TO.P,RF_C2,2*%
X128270000Y-92797000D03*
%TD*%
D13*
%TO.P,RF_C13,1*%
%TO.N,N/C*%
X120173328Y-112903000D03*
D11*
%TO.P,RF_C13,2*%
X122173328Y-112903000D03*
%TD*%
%TO.P,RF_R3,1*%
%TO.N,N/C*%
X129032000Y-112903000D03*
D12*
%TO.P,RF_R3,2*%
X136652000Y-112903000D03*
%TD*%
D14*
%TO.P,RF_L3,1,1*%
%TO.N,N/C*%
X150154000Y-112141000D03*
%TO.P,RF_L3,2,2*%
X155154000Y-112141000D03*
%TD*%
D11*
%TO.P,RF_C11,1*%
%TO.N,N/C*%
X174752000Y-90765000D03*
%TO.P,RF_C11,2*%
X174752000Y-85765000D03*
%TD*%
D13*
%TO.P,RF_D1,1,K*%
%TO.N,N/C*%
X124206000Y-108077000D03*
D12*
%TO.P,RF_D1,2,A*%
X124206000Y-97917000D03*
%TD*%
D13*
%TO.P,RF_D2,1,K*%
%TO.N,N/C*%
X131572000Y-82677000D03*
D12*
%TO.P,RF_D2,2,A*%
X131572000Y-92837000D03*
%TD*%
D11*
%TO.P,RF_C1,1*%
%TO.N,N/C*%
X129540000Y-76073000D03*
%TO.P,RF_C1,2*%
X129540000Y-71073000D03*
%TD*%
%TO.P,RF_R2,1*%
%TO.N,N/C*%
X128524000Y-97409000D03*
D12*
%TO.P,RF_R2,2*%
X128524000Y-105029000D03*
%TD*%
D15*
%TO.P,RF_U1,1,CHROMA_LEAD*%
%TO.N,N/C*%
X136652000Y-101473000D03*
D16*
%TO.P,RF_U1,2,R-Y*%
X139192000Y-101473000D03*
%TO.P,RF_U1,3,CHROMA_BIAS*%
X141732000Y-101473000D03*
%TO.P,RF_U1,4,B-Y*%
X144272000Y-101473000D03*
%TO.P,RF_U1,5,GND*%
X146812000Y-101473000D03*
%TO.P,RF_U1,6,CHB_TANK1*%
X149352000Y-101473000D03*
%TO.P,RF_U1,7,CHB_TANK2*%
X151892000Y-101473000D03*
%TO.P,RF_U1,8,CHA_TANK1*%
X154432000Y-101473000D03*
%TO.P,RF_U1,9,CHA_TANK2*%
X156972000Y-101473000D03*
%TO.P,RF_U1,10,CHB_OUTPUT*%
X156972000Y-93853000D03*
%TO.P,RF_U1,11,CHA_OUTPUT*%
X154432000Y-93853000D03*
%TO.P,RF_U1,12,VIDEO_IN*%
X151892000Y-93853000D03*
%TO.P,RF_U1,13,CHROMA_SUBCAR*%
X149352000Y-93853000D03*
%TO.P,RF_U1,14,RF_SUPPLY*%
X146812000Y-93853000D03*
%TO.P,RF_U1,15,SOUND_TANK*%
X144272000Y-93853000D03*
%TO.P,RF_U1,16,CHROMA_SUPPLY*%
X141732000Y-93853000D03*
%TO.P,RF_U1,17,CHROMA_OSC*%
X139192000Y-93853000D03*
%TO.P,RF_U1,18,CHROMA_LAG*%
X136652000Y-93853000D03*
%TD*%
D11*
%TO.P,RF_C7,1*%
%TO.N,N/C*%
X146852000Y-88011000D03*
%TO.P,RF_C7,2*%
X151852000Y-88011000D03*
%TD*%
D17*
%TO.P,H17,1,1*%
%TO.N,N/C*%
X119126000Y-82423000D03*
%TD*%
D18*
%TO.P,RF_VL1,1,1*%
%TO.N,N/C*%
X117348000Y-76835000D03*
%TO.P,RF_VL1,2,2*%
X120904000Y-76835000D03*
%TO.P,RF_VL1,3,3*%
X124460000Y-76835000D03*
%TO.P,RF_VL1,4,4*%
X124460000Y-69723000D03*
%TO.P,RF_VL1,6,6*%
X117348000Y-69723000D03*
D19*
%TO.P,RF_VL1,S,S*%
X115824000Y-73279000D03*
X125984000Y-73279000D03*
%TD*%
D11*
%TO.P,RF_C4,1*%
%TO.N,N/C*%
X136104000Y-109347000D03*
%TO.P,RF_C4,2*%
X131104000Y-109347000D03*
%TD*%
%TO.P,RF_R5,1*%
%TO.N,N/C*%
X169596000Y-113665000D03*
D12*
%TO.P,RF_R5,2*%
X161976000Y-113665000D03*
%TD*%
D20*
%TO.P,J4B1,1,Pin_1*%
%TO.N,N/C*%
X119126000Y-86487000D03*
D21*
%TO.P,J4B1,2,Pin_2*%
X119126000Y-89027000D03*
%TO.P,J4B1,3,Pin_3*%
X119126000Y-91567000D03*
%TO.P,J4B1,4,Pin_4*%
X119126000Y-94107000D03*
%TO.P,J4B1,5,Pin_5*%
X119126000Y-96647000D03*
%TO.P,J4B1,6,Pin_6*%
X119126000Y-99187000D03*
%TO.P,J4B1,7,Pin_7*%
X119126000Y-101727000D03*
%TO.P,J4B1,8,Pin_8*%
X119126000Y-104267000D03*
%TD*%
D11*
%TO.P,RF_R7,1*%
%TO.N,N/C*%
X158750000Y-89789000D03*
D12*
%TO.P,RF_R7,2*%
X158750000Y-82169000D03*
%TD*%
D11*
%TO.P,RF_R8,1*%
%TO.N,N/C*%
X162052000Y-109601000D03*
D12*
%TO.P,RF_R8,2*%
X169672000Y-109601000D03*
%TD*%
D22*
%TO.P,RF_J1,S*%
%TO.N,N/C*%
X170434000Y-75499500D03*
D23*
%TO.P,RF_J1,T*%
X170434000Y-79999500D03*
%TD*%
D11*
%TO.P,RF_C8,1*%
%TO.N,N/C*%
X154686000Y-78105000D03*
%TO.P,RF_C8,2*%
X154686000Y-73105000D03*
%TD*%
%TO.P,RF_C9,1*%
%TO.N,N/C*%
X162052000Y-90257000D03*
%TO.P,RF_C9,2*%
X162052000Y-85257000D03*
%TD*%
D17*
%TO.P,H16,1,1*%
%TO.N,N/C*%
X119126000Y-108331000D03*
%TD*%
D11*
%TO.P,RF_R4,1*%
%TO.N,N/C*%
X147574000Y-105537000D03*
D12*
%TO.P,RF_R4,2*%
X139954000Y-105537000D03*
%TD*%
D11*
%TO.P,RF_R1,1*%
%TO.N,N/C*%
X115062000Y-92329000D03*
D12*
%TO.P,RF_R1,2*%
X115062000Y-84709000D03*
%TD*%
D11*
%TO.P,RF_R9,1*%
%TO.N,N/C*%
X150114000Y-75311000D03*
D12*
%TO.P,RF_R9,2*%
X150114000Y-82931000D03*
%TD*%
D24*
%TO.P,RF_SW1,*%
%TO.N,*%
X137918000Y-71755000D03*
X146118000Y-71755000D03*
D25*
%TO.P,RF_SW1,1,A*%
%TO.N,N/C*%
X144018000Y-71755000D03*
D26*
%TO.P,RF_SW1,2,B*%
X142018000Y-71755000D03*
%TO.P,RF_SW1,3,C*%
X140018000Y-71755000D03*
%TD*%
D11*
%TO.P,RF_R10,1*%
%TO.N,N/C*%
X140208000Y-78359000D03*
D12*
%TO.P,RF_R10,2*%
X132588000Y-78359000D03*
%TD*%
D14*
%TO.P,RF_L1,1,1*%
%TO.N,N/C*%
X168402000Y-90511000D03*
%TO.P,RF_L1,2,2*%
X168402000Y-85511000D03*
%TD*%
D11*
%TO.P,RF_C3,1*%
%TO.N,N/C*%
X132080000Y-101259000D03*
%TO.P,RF_C3,2*%
X132080000Y-106259000D03*
%TD*%
%TO.P,RF_R12,1*%
%TO.N,N/C*%
X144018000Y-85217000D03*
D12*
%TO.P,RF_R12,2*%
X136398000Y-85217000D03*
%TD*%
D14*
%TO.P,RF_L2,1,1*%
%TO.N,N/C*%
X166410000Y-101727000D03*
%TO.P,RF_L2,2,2*%
X171410000Y-101727000D03*
%TD*%
M02*
