%TF.GenerationSoftware,KiCad,Pcbnew,6.0.11-2627ca5db0~126~ubuntu22.04.1*%
%TF.CreationDate,2023-04-10T22:07:41-04:00*%
%TF.ProjectId,sub_rf_mod,7375625f-7266-45f6-9d6f-642e6b696361,rev?*%
%TF.SameCoordinates,Original*%
%TF.FileFunction,Copper,L2,Bot*%
%TF.FilePolarity,Positive*%
%FSLAX46Y46*%
G04 Gerber Fmt 4.6, Leading zero omitted, Abs format (unit mm)*
G04 Created by KiCad (PCBNEW 6.0.11-2627ca5db0~126~ubuntu22.04.1) date 2023-04-10 22:07:41*
%MOMM*%
%LPD*%
G01*
G04 APERTURE LIST*
%TA.AperFunction,Profile*%
%ADD10C,0.100000*%
%TD*%
%TA.AperFunction,ComponentPad*%
%ADD11C,1.600000*%
%TD*%
%TA.AperFunction,ComponentPad*%
%ADD12O,1.600000X1.600000*%
%TD*%
%TA.AperFunction,ComponentPad*%
%ADD13R,1.600000X1.600000*%
%TD*%
%TA.AperFunction,ComponentPad*%
%ADD14C,2.600000*%
%TD*%
%TA.AperFunction,ComponentPad*%
%ADD15R,1.600000X2.400000*%
%TD*%
%TA.AperFunction,ComponentPad*%
%ADD16O,1.600000X2.400000*%
%TD*%
%TA.AperFunction,ComponentPad*%
%ADD17C,3.800000*%
%TD*%
%TA.AperFunction,ComponentPad*%
%ADD18C,1.524000*%
%TD*%
%TA.AperFunction,ComponentPad*%
%ADD19C,3.000000*%
%TD*%
%TA.AperFunction,ComponentPad*%
%ADD20R,1.700000X1.700000*%
%TD*%
%TA.AperFunction,ComponentPad*%
%ADD21O,1.700000X1.700000*%
%TD*%
%TA.AperFunction,ComponentPad*%
%ADD22C,4.227000*%
%TD*%
%TA.AperFunction,ComponentPad*%
%ADD23C,4.039000*%
%TD*%
%TA.AperFunction,ComponentPad*%
%ADD24O,1.800000X3.000000*%
%TD*%
%TA.AperFunction,ComponentPad*%
%ADD25R,1.500000X2.500000*%
%TD*%
%TA.AperFunction,ComponentPad*%
%ADD26O,1.500000X2.500000*%
%TD*%
%TA.AperFunction,Conductor*%
%ADD27C,0.304800*%
%TD*%
%TA.AperFunction,Conductor*%
%ADD28C,1.016000*%
%TD*%
G04 APERTURE END LIST*
D10*
X110022000Y-70612000D02*
X178094000Y-70612000D01*
X110022000Y-70612000D02*
X109514000Y-71120000D01*
X178602000Y-120142000D02*
X178602000Y-71120000D01*
X178094000Y-70612000D02*
X178602000Y-71120000D01*
X109514000Y-120142000D02*
X110022000Y-120650000D01*
X109514000Y-120142000D02*
X109514000Y-71120000D01*
X178094000Y-120650000D02*
X178602000Y-120142000D01*
X110022000Y-120650000D02*
X178094000Y-120650000D01*
D11*
%TO.P,RF_C10,1*%
%TO.N,N/C*%
X172252000Y-105116000D03*
%TO.P,RF_C10,2*%
X172252000Y-100116000D03*
%TD*%
%TO.P,RF_JP1,1,A*%
%TO.N,N/C*%
X125516000Y-83566000D03*
D12*
%TO.P,RF_JP1,2,B*%
X125516000Y-98806000D03*
%TD*%
D11*
%TO.P,RF_C6,1*%
%TO.N,N/C*%
X159806000Y-117308000D03*
%TO.P,RF_C6,2*%
X159806000Y-112308000D03*
%TD*%
%TO.P,RF_C5,1*%
%TO.N,N/C*%
X135970000Y-91948000D03*
%TO.P,RF_C5,2*%
X140970000Y-91948000D03*
%TD*%
%TO.P,RF_R11,1*%
%TO.N,N/C*%
X135930000Y-85344000D03*
D12*
%TO.P,RF_R11,2*%
X143550000Y-85344000D03*
%TD*%
D11*
%TO.P,RF_C12,1*%
%TO.N,N/C*%
X158496000Y-108458000D03*
%TO.P,RF_C12,2*%
X153496000Y-108458000D03*
%TD*%
%TO.P,RF_R6,1*%
%TO.N,N/C*%
X163108000Y-113284000D03*
D12*
%TO.P,RF_R6,2*%
X170728000Y-113284000D03*
%TD*%
D11*
%TO.P,RF_C2,1*%
%TO.N,N/C*%
X129326000Y-91226000D03*
%TO.P,RF_C2,2*%
X129326000Y-96226000D03*
%TD*%
D13*
%TO.P,RF_C13,1*%
%TO.N,N/C*%
X121229328Y-116332000D03*
D11*
%TO.P,RF_C13,2*%
X123229328Y-116332000D03*
%TD*%
%TO.P,RF_R3,1*%
%TO.N,N/C*%
X130088000Y-116332000D03*
D12*
%TO.P,RF_R3,2*%
X137708000Y-116332000D03*
%TD*%
D14*
%TO.P,RF_L3,1,1*%
%TO.N,N/C*%
X153456000Y-117308000D03*
%TO.P,RF_L3,2,2*%
X153456000Y-112308000D03*
%TD*%
D11*
%TO.P,RF_C11,1*%
%TO.N,N/C*%
X169752000Y-88138000D03*
%TO.P,RF_C11,2*%
X174752000Y-88138000D03*
%TD*%
D13*
%TO.P,RF_D1,1,K*%
%TO.N,N/C*%
X125262000Y-111506000D03*
D12*
%TO.P,RF_D1,2,A*%
X125262000Y-101346000D03*
%TD*%
D13*
%TO.P,RF_D2,1,K*%
%TO.N,N/C*%
X132628000Y-86106000D03*
D12*
%TO.P,RF_D2,2,A*%
X132628000Y-96266000D03*
%TD*%
D11*
%TO.P,RF_C1,1*%
%TO.N,N/C*%
X130596000Y-79502000D03*
%TO.P,RF_C1,2*%
X130596000Y-74502000D03*
%TD*%
%TO.P,RF_R2,1*%
%TO.N,N/C*%
X129580000Y-101346000D03*
D12*
%TO.P,RF_R2,2*%
X129580000Y-108966000D03*
%TD*%
D15*
%TO.P,RF_U1,1,CHROMA_LEAD*%
%TO.N,N/C*%
X137708000Y-104902000D03*
D16*
%TO.P,RF_U1,2,R-Y*%
X140248000Y-104902000D03*
%TO.P,RF_U1,3,CHROMA_BIAS*%
X142788000Y-104902000D03*
%TO.P,RF_U1,4,B-Y*%
X145328000Y-104902000D03*
%TO.P,RF_U1,5,GND*%
X147868000Y-104902000D03*
%TO.P,RF_U1,6,CHB_TANK1*%
X150408000Y-104902000D03*
%TO.P,RF_U1,7,CHB_TANK2*%
X152948000Y-104902000D03*
%TO.P,RF_U1,8,CHA_TANK1*%
X155488000Y-104902000D03*
%TO.P,RF_U1,9,CHA_TANK2*%
X158028000Y-104902000D03*
%TO.P,RF_U1,10,CHB_OUTPUT*%
X158028000Y-97282000D03*
%TO.P,RF_U1,11,CHA_OUTPUT*%
X155488000Y-97282000D03*
%TO.P,RF_U1,12,VIDEO_IN*%
X152948000Y-97282000D03*
%TO.P,RF_U1,13,CHROMA_SUBCAR*%
X150408000Y-97282000D03*
%TO.P,RF_U1,14,RF_SUPPLY*%
X147868000Y-97282000D03*
%TO.P,RF_U1,15,SOUND_TANK*%
X145328000Y-97282000D03*
%TO.P,RF_U1,16,CHROMA_SUPPLY*%
X142788000Y-97282000D03*
%TO.P,RF_U1,17,CHROMA_OSC*%
X140248000Y-97282000D03*
%TO.P,RF_U1,18,CHROMA_LAG*%
X137708000Y-97282000D03*
%TD*%
D11*
%TO.P,RF_C7,1*%
%TO.N,N/C*%
X147908000Y-91948000D03*
%TO.P,RF_C7,2*%
X152908000Y-91948000D03*
%TD*%
D17*
%TO.P,H17,1,1*%
%TO.N,N/C*%
X120182000Y-85852000D03*
%TD*%
D18*
%TO.P,RF_VL1,1,1*%
%TO.N,N/C*%
X118404000Y-80264000D03*
%TO.P,RF_VL1,2,2*%
X121960000Y-80264000D03*
%TO.P,RF_VL1,3,3*%
X125516000Y-80264000D03*
%TO.P,RF_VL1,4,4*%
X125516000Y-73152000D03*
%TO.P,RF_VL1,6,6*%
X118404000Y-73152000D03*
D19*
%TO.P,RF_VL1,S,S*%
X116880000Y-76708000D03*
X127040000Y-76708000D03*
%TD*%
D11*
%TO.P,RF_C4,1*%
%TO.N,N/C*%
X137160000Y-112776000D03*
%TO.P,RF_C4,2*%
X132160000Y-112776000D03*
%TD*%
%TO.P,RF_R5,1*%
%TO.N,N/C*%
X170652000Y-117094000D03*
D12*
%TO.P,RF_R5,2*%
X163032000Y-117094000D03*
%TD*%
D20*
%TO.P,J4B1,1,Pin_1*%
%TO.N,N/C*%
X120182000Y-89916000D03*
D21*
%TO.P,J4B1,2,Pin_2*%
X120182000Y-92456000D03*
%TO.P,J4B1,3,Pin_3*%
X120182000Y-94996000D03*
%TO.P,J4B1,4,Pin_4*%
X120182000Y-97536000D03*
%TO.P,J4B1,5,Pin_5*%
X120182000Y-100076000D03*
%TO.P,J4B1,6,Pin_6*%
X120182000Y-102616000D03*
%TO.P,J4B1,7,Pin_7*%
X120182000Y-105156000D03*
%TO.P,J4B1,8,Pin_8*%
X120182000Y-107696000D03*
%TD*%
D11*
%TO.P,RF_R7,1*%
%TO.N,N/C*%
X162092000Y-94488000D03*
D12*
%TO.P,RF_R7,2*%
X162092000Y-86868000D03*
%TD*%
D11*
%TO.P,RF_R8,1*%
%TO.N,N/C*%
X156758000Y-94488000D03*
D12*
%TO.P,RF_R8,2*%
X156758000Y-86868000D03*
%TD*%
D22*
%TO.P,RF_J1,S*%
%TO.N,N/C*%
X171490000Y-78928500D03*
D23*
%TO.P,RF_J1,T*%
X171490000Y-83428500D03*
%TD*%
D11*
%TO.P,RF_C8,1*%
%TO.N,N/C*%
X155742000Y-81534000D03*
%TO.P,RF_C8,2*%
X160742000Y-81534000D03*
%TD*%
%TO.P,RF_C9,1*%
%TO.N,N/C*%
X165394000Y-93686000D03*
%TO.P,RF_C9,2*%
X165394000Y-88686000D03*
%TD*%
D17*
%TO.P,H16,1,1*%
%TO.N,N/C*%
X120182000Y-111760000D03*
%TD*%
D11*
%TO.P,RF_R4,1*%
%TO.N,N/C*%
X140756000Y-116586000D03*
D12*
%TO.P,RF_R4,2*%
X140756000Y-108966000D03*
%TD*%
D11*
%TO.P,RF_R1,1*%
%TO.N,N/C*%
X116118000Y-95758000D03*
D12*
%TO.P,RF_R1,2*%
X116118000Y-88138000D03*
%TD*%
D11*
%TO.P,RF_R9,1*%
%TO.N,N/C*%
X152948000Y-81534000D03*
D12*
%TO.P,RF_R9,2*%
X152948000Y-89154000D03*
%TD*%
D24*
%TO.P,RF_SW1,*%
%TO.N,*%
X138974000Y-75184000D03*
X147174000Y-75184000D03*
D25*
%TO.P,RF_SW1,1,A*%
%TO.N,N/C*%
X145074000Y-75184000D03*
D26*
%TO.P,RF_SW1,2,B*%
X143074000Y-75184000D03*
%TO.P,RF_SW1,3,C*%
X141074000Y-75184000D03*
%TD*%
D11*
%TO.P,RF_R10,1*%
%TO.N,N/C*%
X141264000Y-81788000D03*
D12*
%TO.P,RF_R10,2*%
X133644000Y-81788000D03*
%TD*%
D14*
%TO.P,RF_L1,1,1*%
%TO.N,N/C*%
X172506000Y-96734000D03*
%TO.P,RF_L1,2,2*%
X172506000Y-91734000D03*
%TD*%
D11*
%TO.P,RF_C3,1*%
%TO.N,N/C*%
X133136000Y-104688000D03*
%TO.P,RF_C3,2*%
X133136000Y-109688000D03*
%TD*%
%TO.P,RF_R12,1*%
%TO.N,N/C*%
X145074000Y-88646000D03*
D12*
%TO.P,RF_R12,2*%
X137454000Y-88646000D03*
%TD*%
D14*
%TO.P,RF_L2,1,1*%
%TO.N,N/C*%
X163148000Y-101346000D03*
%TO.P,RF_L2,2,2*%
X168148000Y-101346000D03*
%TD*%
D27*
%TO.N,*%
X145328000Y-107950000D02*
X145328000Y-104902000D01*
X140756000Y-108966000D02*
X140502000Y-109220000D01*
X131358000Y-106172000D02*
X130342000Y-105156000D01*
X131104000Y-107188000D02*
X133771000Y-107188000D01*
X136806200Y-110223200D02*
X141530800Y-110223200D01*
X121452000Y-108966000D02*
X120182000Y-107696000D01*
X129580000Y-108966000D02*
X121452000Y-108966000D01*
X141530800Y-110223200D02*
X144070800Y-107683200D01*
X142788000Y-107569000D02*
X141391000Y-108966000D01*
X142788000Y-104902000D02*
X142788000Y-107569000D01*
X129072000Y-105156000D02*
X125262000Y-101346000D01*
X134152000Y-106172000D02*
X131358000Y-106172000D01*
X120182000Y-102616000D02*
X123738000Y-106172000D01*
X123738000Y-106172000D02*
X130088000Y-106172000D01*
X144070800Y-103619200D02*
X150408000Y-97282000D01*
X144070800Y-107683200D02*
X144070800Y-103619200D01*
X130342000Y-105156000D02*
X129072000Y-105156000D01*
X129580000Y-101346000D02*
X133644000Y-101346000D01*
X133644000Y-101346000D02*
X137708000Y-97282000D01*
X132160000Y-111546000D02*
X129580000Y-108966000D01*
X127294000Y-101600000D02*
X127294000Y-97790000D01*
X140248000Y-104197200D02*
X138920800Y-102870000D01*
X128564000Y-102870000D02*
X127294000Y-101600000D01*
X124500000Y-94996000D02*
X120182000Y-94996000D01*
X140248000Y-104902000D02*
X140248000Y-104197200D01*
X138920800Y-102870000D02*
X128564000Y-102870000D01*
X127294000Y-97790000D02*
X124500000Y-94996000D01*
X129834000Y-107188000D02*
X130850000Y-108204000D01*
X137200000Y-109220000D02*
X134152000Y-106172000D01*
X130088000Y-106172000D02*
X131104000Y-107188000D01*
X120182000Y-105156000D02*
X122214000Y-107188000D01*
X142026000Y-111252000D02*
X145328000Y-107950000D01*
X136477950Y-111252000D02*
X142026000Y-111252000D01*
X122214000Y-107188000D02*
X129834000Y-107188000D01*
X133429950Y-108204000D02*
X136477950Y-111252000D01*
X130850000Y-108204000D02*
X133429950Y-108204000D01*
X132160000Y-112776000D02*
X132160000Y-111546000D01*
X133771000Y-107188000D02*
X136806200Y-110223200D01*
X158028000Y-97282000D02*
X159084000Y-97282000D01*
X158028000Y-95250000D02*
X158028000Y-97282000D01*
X159084000Y-97282000D02*
X163148000Y-101346000D01*
X156758000Y-94488000D02*
X157266000Y-94488000D01*
X157266000Y-94488000D02*
X158028000Y-95250000D01*
X139486000Y-88646000D02*
X145328000Y-94488000D01*
X137454000Y-83312000D02*
X137454000Y-88646000D01*
X125262000Y-86106000D02*
X119420000Y-80264000D01*
X132628000Y-86106000D02*
X132120000Y-85598000D01*
X132120000Y-85598000D02*
X132120000Y-81280000D01*
X133136000Y-80264000D02*
X134406000Y-80264000D01*
X132120000Y-81280000D02*
X133136000Y-80264000D01*
X119420000Y-80264000D02*
X118404000Y-80264000D01*
X134406000Y-80264000D02*
X137454000Y-83312000D01*
X145328000Y-94488000D02*
X145328000Y-97282000D01*
X132628000Y-86106000D02*
X125262000Y-86106000D01*
X137454000Y-88646000D02*
X139486000Y-88646000D01*
X155234000Y-94850051D02*
X156745200Y-96361251D01*
X156745200Y-96361251D02*
X156745200Y-99301200D01*
X145074000Y-74898000D02*
X145074000Y-76708000D01*
X159806000Y-107148000D02*
X158496000Y-108458000D01*
X156745200Y-99301200D02*
X159806000Y-102362000D01*
X159806000Y-102362000D02*
X159806000Y-107148000D01*
X155234000Y-86868000D02*
X155234000Y-94850051D01*
X145074000Y-76708000D02*
X155234000Y-86868000D01*
X169752000Y-88138000D02*
X169752000Y-85166500D01*
X172506000Y-90892000D02*
X172506000Y-91734000D01*
X169752000Y-88138000D02*
X172506000Y-90892000D01*
X169752000Y-85166500D02*
X171490000Y-83428500D01*
X168148000Y-101346000D02*
X171918000Y-105116000D01*
X171918000Y-105116000D02*
X172252000Y-105116000D01*
X172506000Y-96734000D02*
X168442000Y-96734000D01*
X172252000Y-96988000D02*
X172506000Y-96734000D01*
X172252000Y-100116000D02*
X172252000Y-96988000D01*
X168442000Y-96734000D02*
X165394000Y-93686000D01*
X162092000Y-94488000D02*
X164592000Y-94488000D01*
X164592000Y-94488000D02*
X165394000Y-93686000D01*
X152948000Y-91908000D02*
X152908000Y-91948000D01*
X152908000Y-97242000D02*
X152948000Y-97282000D01*
X152908000Y-91948000D02*
X152908000Y-97242000D01*
X152948000Y-89154000D02*
X152948000Y-91908000D01*
X143550000Y-85344000D02*
X149138000Y-85344000D01*
X149138000Y-85344000D02*
X152948000Y-89154000D01*
X145074000Y-89114000D02*
X145074000Y-88646000D01*
X147908000Y-91948000D02*
X145074000Y-89114000D01*
X163108000Y-113284000D02*
X160782000Y-113284000D01*
X150408000Y-105370000D02*
X153496000Y-108458000D01*
X153496000Y-108458000D02*
X153496000Y-112268000D01*
X160782000Y-113284000D02*
X159806000Y-112308000D01*
X159806000Y-112308000D02*
X153456000Y-112308000D01*
X150408000Y-104902000D02*
X150408000Y-105370000D01*
X153496000Y-112268000D02*
X153456000Y-112308000D01*
X150408000Y-107950000D02*
X149150800Y-106692800D01*
X154218000Y-103632000D02*
X154218000Y-87630000D01*
X160020000Y-117094000D02*
X159806000Y-117308000D01*
X150008051Y-103124000D02*
X151170000Y-103124000D01*
X149150800Y-103981251D02*
X150008051Y-103124000D01*
X143074000Y-76486000D02*
X143074000Y-74898000D01*
X150408000Y-107950000D02*
X150408000Y-114260000D01*
X163032000Y-117094000D02*
X160020000Y-117094000D01*
X159806000Y-117308000D02*
X153456000Y-117308000D01*
X154218000Y-87630000D02*
X143074000Y-76486000D01*
X152948000Y-104902000D02*
X154218000Y-103632000D01*
X151170000Y-103124000D02*
X152948000Y-104902000D01*
X150408000Y-114260000D02*
X153456000Y-117308000D01*
X149150800Y-106692800D02*
X149150800Y-103981251D01*
X137708000Y-97282000D02*
X137708000Y-93686000D01*
X137708000Y-93686000D02*
X135970000Y-91948000D01*
X136224000Y-112776000D02*
X133136000Y-109688000D01*
X137160000Y-112776000D02*
X137160000Y-115784000D01*
X137160000Y-112776000D02*
X136224000Y-112776000D01*
X137160000Y-115784000D02*
X137708000Y-116332000D01*
X133350000Y-104902000D02*
X133136000Y-104688000D01*
X137708000Y-104902000D02*
X133350000Y-104902000D01*
D28*
X148281811Y-72830308D02*
X137267692Y-72830308D01*
X147868000Y-97790000D02*
X146363200Y-99294800D01*
X146363200Y-99294800D02*
X144292800Y-99294800D01*
X142788000Y-97790000D02*
X142788000Y-97282000D01*
X170728000Y-113284000D02*
X170728000Y-117018000D01*
X136057000Y-76581000D02*
X141264000Y-81788000D01*
X133517000Y-76581000D02*
X136057000Y-76581000D01*
X141264000Y-86106000D02*
X142788000Y-87630000D01*
X137267692Y-72830308D02*
X133517000Y-76581000D01*
X165648000Y-108204000D02*
X170728000Y-113284000D01*
X165648000Y-100330000D02*
X165648000Y-108204000D01*
X155742000Y-81534000D02*
X152948000Y-81534000D01*
X152948000Y-81534000D02*
X151170000Y-79756000D01*
X125516000Y-80264000D02*
X129834000Y-80264000D01*
X125516000Y-83566000D02*
X125516000Y-80264000D01*
X142788000Y-89916000D02*
X147868000Y-94996000D01*
X147868000Y-94996000D02*
X147868000Y-97282000D01*
X156758000Y-91440000D02*
X165648000Y-100330000D01*
X141264000Y-81788000D02*
X141264000Y-86106000D01*
X151170000Y-79756000D02*
X151170000Y-75718497D01*
X170728000Y-117018000D02*
X170652000Y-117094000D01*
X156758000Y-86868000D02*
X156758000Y-82550000D01*
X142788000Y-87630000D02*
X142788000Y-89916000D01*
X133517000Y-76581000D02*
X130596000Y-79502000D01*
X151170000Y-75718497D02*
X148281811Y-72830308D01*
X144292800Y-99294800D02*
X142788000Y-97790000D01*
X129834000Y-80264000D02*
X130596000Y-79502000D01*
X147868000Y-97282000D02*
X147868000Y-97790000D01*
X156758000Y-86868000D02*
X156758000Y-91440000D01*
X156758000Y-82550000D02*
X155742000Y-81534000D01*
D27*
X123484000Y-92456000D02*
X120182000Y-92456000D01*
X133644000Y-81788000D02*
X133898000Y-82042000D01*
X133898000Y-94996000D02*
X132628000Y-96266000D01*
X133898000Y-82042000D02*
X133898000Y-94996000D01*
X116118000Y-88138000D02*
X116118000Y-88392000D01*
X129366000Y-96266000D02*
X129326000Y-96226000D01*
X129326000Y-96226000D02*
X127254000Y-96226000D01*
X127254000Y-96226000D02*
X123484000Y-92456000D01*
X132628000Y-96266000D02*
X129366000Y-96266000D01*
X116118000Y-88392000D02*
X120182000Y-92456000D01*
X123992000Y-100076000D02*
X125262000Y-101346000D01*
X120182000Y-100076000D02*
X123992000Y-100076000D01*
X142788000Y-104902000D02*
X141518000Y-103632000D01*
X140970000Y-91948000D02*
X138216000Y-91948000D01*
X138216000Y-91948000D02*
X135930000Y-89662000D01*
X116118000Y-96012000D02*
X116118000Y-95758000D01*
X141518000Y-92496000D02*
X140970000Y-91948000D01*
X135930000Y-89662000D02*
X135930000Y-85344000D01*
X141518000Y-103632000D02*
X141518000Y-92496000D01*
X120182000Y-100076000D02*
X116118000Y-96012000D01*
D28*
X121452000Y-98806000D02*
X120182000Y-97536000D01*
X114340000Y-94742000D02*
X114340000Y-96520000D01*
X125262000Y-111506000D02*
X121229328Y-115538672D01*
X121229328Y-115538672D02*
X121229328Y-116332000D01*
X115102000Y-93980000D02*
X114340000Y-94742000D01*
X120182000Y-97536000D02*
X116626000Y-93980000D01*
X114340000Y-96520000D02*
X117388000Y-99568000D01*
X117388000Y-99568000D02*
X117388000Y-112802479D01*
X121229328Y-116332000D02*
X120917521Y-116332000D01*
X116626000Y-93980000D02*
X115102000Y-93980000D01*
X125516000Y-98806000D02*
X121452000Y-98806000D01*
X120917521Y-116332000D02*
X117388000Y-112802479D01*
X171490000Y-78928500D02*
X173202500Y-78928500D01*
D27*
X140502000Y-109220000D02*
X137200000Y-109220000D01*
%TD*%
%TA.AperFunction,NonConductor*%
G36*
X177899303Y-71140502D02*
G01*
X177920278Y-71157405D01*
X178056596Y-71293724D01*
X178090621Y-71356036D01*
X178093500Y-71382819D01*
X178093500Y-119879181D01*
X178073498Y-119947302D01*
X178056596Y-119968276D01*
X177920278Y-120104595D01*
X177857966Y-120138620D01*
X177831182Y-120141500D01*
X110284819Y-120141500D01*
X110216698Y-120121498D01*
X110195724Y-120104596D01*
X110059405Y-119968278D01*
X110025380Y-119905966D01*
X110022500Y-119879182D01*
X110022500Y-94738435D01*
X113318588Y-94738435D01*
X113320949Y-94763414D01*
X113322941Y-94784485D01*
X113323500Y-94796343D01*
X113323500Y-96457724D01*
X113322763Y-96471332D01*
X113319714Y-96499402D01*
X113318638Y-96509304D01*
X113321575Y-96542870D01*
X113323046Y-96559690D01*
X113323375Y-96564518D01*
X113323500Y-96567073D01*
X113323500Y-96570157D01*
X113323801Y-96573224D01*
X113327722Y-96613219D01*
X113327844Y-96614532D01*
X113336012Y-96707892D01*
X113337511Y-96713052D01*
X113338035Y-96718394D01*
X113360552Y-96792973D01*
X113365098Y-96808031D01*
X113365455Y-96809236D01*
X113391628Y-96899322D01*
X113394100Y-96904090D01*
X113395652Y-96909232D01*
X113398547Y-96914677D01*
X113398550Y-96914684D01*
X113439633Y-96991950D01*
X113440213Y-96993054D01*
X113483366Y-97076304D01*
X113486718Y-97080503D01*
X113489239Y-97085244D01*
X113493131Y-97090016D01*
X113548438Y-97157829D01*
X113549266Y-97158855D01*
X113567774Y-97182039D01*
X113580768Y-97198316D01*
X113583263Y-97200811D01*
X113583973Y-97201605D01*
X113587693Y-97205960D01*
X113611337Y-97234951D01*
X113611340Y-97234954D01*
X113615232Y-97239726D01*
X113619980Y-97243654D01*
X113619981Y-97243655D01*
X113650873Y-97269211D01*
X113659652Y-97277200D01*
X116334595Y-99952143D01*
X116368621Y-100014455D01*
X116371500Y-100041238D01*
X116371500Y-112740203D01*
X116370763Y-112753811D01*
X116367758Y-112781475D01*
X116366638Y-112791783D01*
X116368877Y-112817379D01*
X116371046Y-112842169D01*
X116371375Y-112846997D01*
X116371500Y-112849552D01*
X116371500Y-112852636D01*
X116371801Y-112855703D01*
X116375722Y-112895698D01*
X116375844Y-112897011D01*
X116384012Y-112990371D01*
X116385511Y-112995531D01*
X116386035Y-113000873D01*
X116402653Y-113055913D01*
X116413098Y-113090510D01*
X116413455Y-113091715D01*
X116439628Y-113181801D01*
X116442100Y-113186569D01*
X116443652Y-113191711D01*
X116446547Y-113197156D01*
X116446550Y-113197163D01*
X116487633Y-113274429D01*
X116488213Y-113275533D01*
X116531366Y-113358783D01*
X116534718Y-113362982D01*
X116537239Y-113367723D01*
X116541131Y-113372495D01*
X116596438Y-113440308D01*
X116597266Y-113441334D01*
X116626571Y-113478043D01*
X116628768Y-113480795D01*
X116631263Y-113483290D01*
X116631973Y-113484084D01*
X116635693Y-113488439D01*
X116659337Y-113517430D01*
X116659340Y-113517433D01*
X116663232Y-113522205D01*
X116667980Y-113526133D01*
X116667981Y-113526134D01*
X116698873Y-113551690D01*
X116707652Y-113559679D01*
X119883923Y-116735950D01*
X119917949Y-116798262D01*
X119920828Y-116825045D01*
X119920828Y-117180134D01*
X119927583Y-117242316D01*
X119978713Y-117378705D01*
X120066067Y-117495261D01*
X120182623Y-117582615D01*
X120319012Y-117633745D01*
X120381194Y-117640500D01*
X122077462Y-117640500D01*
X122139644Y-117633745D01*
X122276033Y-117582615D01*
X122392589Y-117495261D01*
X122479943Y-117378705D01*
X122531073Y-117242316D01*
X122537828Y-117180134D01*
X122537828Y-115719910D01*
X122557830Y-115651789D01*
X122574733Y-115630815D01*
X125354143Y-112851405D01*
X125416455Y-112817379D01*
X125443238Y-112814500D01*
X126110134Y-112814500D01*
X126172316Y-112807745D01*
X126308705Y-112756615D01*
X126425261Y-112669261D01*
X126512615Y-112552705D01*
X126563745Y-112416316D01*
X126570500Y-112354134D01*
X126570500Y-110657866D01*
X126563745Y-110595684D01*
X126512615Y-110459295D01*
X126425261Y-110342739D01*
X126308705Y-110255385D01*
X126172316Y-110204255D01*
X126110134Y-110197500D01*
X124413866Y-110197500D01*
X124351684Y-110204255D01*
X124215295Y-110255385D01*
X124098739Y-110342739D01*
X124011385Y-110459295D01*
X123960255Y-110595684D01*
X123953500Y-110657866D01*
X123953500Y-111324761D01*
X123933498Y-111392882D01*
X123916595Y-111413856D01*
X122321050Y-113009402D01*
X120765856Y-114564596D01*
X120703544Y-114598622D01*
X120632729Y-114593557D01*
X120587666Y-114564596D01*
X118441405Y-112418336D01*
X118407380Y-112356024D01*
X118404500Y-112329241D01*
X118404500Y-99630276D01*
X118405237Y-99616668D01*
X118408697Y-99584821D01*
X118408697Y-99584817D01*
X118409362Y-99578696D01*
X118408825Y-99572554D01*
X118406871Y-99550219D01*
X118420858Y-99480614D01*
X118470257Y-99429621D01*
X118539383Y-99413430D01*
X118606289Y-99437181D01*
X118621486Y-99450140D01*
X118823364Y-99652017D01*
X118857389Y-99714329D01*
X118855686Y-99774785D01*
X118844370Y-99815588D01*
X118844369Y-99815596D01*
X118842989Y-99820570D01*
X118842441Y-99825700D01*
X118842440Y-99825704D01*
X118834006Y-99904631D01*
X118819251Y-100042695D01*
X118819548Y-100047848D01*
X118819548Y-100047851D01*
X118830603Y-100239586D01*
X118832110Y-100265715D01*
X118833247Y-100270761D01*
X118833248Y-100270767D01*
X118848537Y-100338607D01*
X118881222Y-100483639D01*
X118965266Y-100690616D01*
X118999037Y-100745726D01*
X119039284Y-100811402D01*
X119081987Y-100881088D01*
X119228250Y-101049938D01*
X119400126Y-101192632D01*
X119470595Y-101233811D01*
X119473445Y-101235476D01*
X119522169Y-101287114D01*
X119535240Y-101356897D01*
X119508509Y-101422669D01*
X119468055Y-101456027D01*
X119455607Y-101462507D01*
X119451474Y-101465610D01*
X119451471Y-101465612D01*
X119310303Y-101571604D01*
X119276965Y-101596635D01*
X119122629Y-101758138D01*
X119119715Y-101762410D01*
X119119714Y-101762411D01*
X119066982Y-101839713D01*
X118996743Y-101942680D01*
X118902688Y-102145305D01*
X118842989Y-102360570D01*
X118819251Y-102582695D01*
X118819548Y-102587848D01*
X118819548Y-102587851D01*
X118827459Y-102725050D01*
X118832110Y-102805715D01*
X118833247Y-102810761D01*
X118833248Y-102810767D01*
X118833799Y-102813210D01*
X118881222Y-103023639D01*
X118935895Y-103158283D01*
X118952196Y-103198427D01*
X118965266Y-103230616D01*
X119081987Y-103421088D01*
X119228250Y-103589938D01*
X119400126Y-103732632D01*
X119411729Y-103739412D01*
X119473445Y-103775476D01*
X119522169Y-103827114D01*
X119535240Y-103896897D01*
X119508509Y-103962669D01*
X119468055Y-103996027D01*
X119455607Y-104002507D01*
X119451474Y-104005610D01*
X119451471Y-104005612D01*
X119281100Y-104133530D01*
X119276965Y-104136635D01*
X119122629Y-104298138D01*
X118996743Y-104482680D01*
X118967117Y-104546505D01*
X118911298Y-104666757D01*
X118902688Y-104685305D01*
X118842989Y-104900570D01*
X118819251Y-105122695D01*
X118819548Y-105127848D01*
X118819548Y-105127851D01*
X118825011Y-105222590D01*
X118832110Y-105345715D01*
X118833247Y-105350761D01*
X118833248Y-105350767D01*
X118835746Y-105361851D01*
X118881222Y-105563639D01*
X118931264Y-105686878D01*
X118959824Y-105757213D01*
X118965266Y-105770616D01*
X118967965Y-105775020D01*
X119078740Y-105955789D01*
X119081987Y-105961088D01*
X119228250Y-106129938D01*
X119400126Y-106272632D01*
X119454321Y-106304301D01*
X119473445Y-106315476D01*
X119522169Y-106367114D01*
X119535240Y-106436897D01*
X119508509Y-106502669D01*
X119468055Y-106536027D01*
X119460404Y-106540010D01*
X119455607Y-106542507D01*
X119451474Y-106545610D01*
X119451471Y-106545612D01*
X119291746Y-106665537D01*
X119276965Y-106676635D01*
X119122629Y-106838138D01*
X118996743Y-107022680D01*
X118994564Y-107027375D01*
X118918102Y-107192099D01*
X118902688Y-107225305D01*
X118842989Y-107440570D01*
X118819251Y-107662695D01*
X118819548Y-107667842D01*
X118819548Y-107667851D01*
X118825870Y-107777491D01*
X118832110Y-107885715D01*
X118833247Y-107890761D01*
X118833248Y-107890767D01*
X118848806Y-107959802D01*
X118881222Y-108103639D01*
X118965266Y-108310616D01*
X118967965Y-108315020D01*
X119072956Y-108486350D01*
X119081987Y-108501088D01*
X119228250Y-108669938D01*
X119400126Y-108812632D01*
X119593000Y-108925338D01*
X119597825Y-108927180D01*
X119597826Y-108927181D01*
X119665992Y-108953211D01*
X119801692Y-109005030D01*
X119806760Y-109006061D01*
X119806763Y-109006062D01*
X119896834Y-109024387D01*
X120020597Y-109049567D01*
X120025772Y-109049757D01*
X120025774Y-109049757D01*
X120238673Y-109057564D01*
X120238677Y-109057564D01*
X120243837Y-109057753D01*
X120248957Y-109057097D01*
X120248959Y-109057097D01*
X120318153Y-109048233D01*
X120465416Y-109029368D01*
X120470369Y-109027882D01*
X120470374Y-109027881D01*
X120482019Y-109024387D01*
X120553014Y-109023969D01*
X120607323Y-109055977D01*
X120965393Y-109414047D01*
X120971246Y-109420312D01*
X121006524Y-109460752D01*
X121012742Y-109465122D01*
X121055084Y-109494880D01*
X121060380Y-109498813D01*
X121107121Y-109535463D01*
X121114045Y-109538589D01*
X121120176Y-109542302D01*
X121124796Y-109544938D01*
X121131178Y-109548360D01*
X121137397Y-109552731D01*
X121144476Y-109555491D01*
X121192713Y-109574298D01*
X121198792Y-109576854D01*
X121252912Y-109601289D01*
X121260388Y-109602675D01*
X121267266Y-109604830D01*
X121272391Y-109606290D01*
X121279355Y-109608078D01*
X121286434Y-109610838D01*
X121293966Y-109611830D01*
X121293968Y-109611830D01*
X121319196Y-109615151D01*
X121345300Y-109618587D01*
X121351798Y-109619616D01*
X121410197Y-109630440D01*
X121417777Y-109630003D01*
X121417778Y-109630003D01*
X121467967Y-109627109D01*
X121475220Y-109626900D01*
X128379792Y-109626900D01*
X128447913Y-109646902D01*
X128483005Y-109680629D01*
X128570643Y-109805789D01*
X128573802Y-109810300D01*
X128735700Y-109972198D01*
X128740208Y-109975355D01*
X128740211Y-109975357D01*
X128743760Y-109977842D01*
X128923251Y-110103523D01*
X128928233Y-110105846D01*
X128928238Y-110105849D01*
X129125578Y-110197869D01*
X129130757Y-110200284D01*
X129136065Y-110201706D01*
X129136067Y-110201707D01*
X129346598Y-110258119D01*
X129346600Y-110258119D01*
X129351913Y-110259543D01*
X129580000Y-110279498D01*
X129808087Y-110259543D01*
X129813398Y-110258120D01*
X129813409Y-110258118D01*
X129840980Y-110250730D01*
X129911956Y-110252419D01*
X129962687Y-110283341D01*
X131293329Y-111613983D01*
X131327355Y-111676295D01*
X131322290Y-111747110D01*
X131293329Y-111792173D01*
X131153802Y-111931700D01*
X131150645Y-111936208D01*
X131150643Y-111936211D01*
X131118305Y-111982395D01*
X131022477Y-112119251D01*
X131020154Y-112124233D01*
X131020151Y-112124238D01*
X130950017Y-112274643D01*
X130925716Y-112326757D01*
X130924294Y-112332065D01*
X130924293Y-112332067D01*
X130901177Y-112418336D01*
X130866457Y-112547913D01*
X130846502Y-112776000D01*
X130866457Y-113004087D01*
X130867881Y-113009400D01*
X130867881Y-113009402D01*
X130916630Y-113191332D01*
X130925716Y-113225243D01*
X130928039Y-113230224D01*
X130928039Y-113230225D01*
X131020151Y-113427762D01*
X131020154Y-113427767D01*
X131022477Y-113432749D01*
X131085115Y-113522205D01*
X131142774Y-113604550D01*
X131153802Y-113620300D01*
X131315700Y-113782198D01*
X131320208Y-113785355D01*
X131320211Y-113785357D01*
X131365159Y-113816830D01*
X131503251Y-113913523D01*
X131508233Y-113915846D01*
X131508238Y-113915849D01*
X131705775Y-114007961D01*
X131710757Y-114010284D01*
X131716065Y-114011706D01*
X131716067Y-114011707D01*
X131926598Y-114068119D01*
X131926600Y-114068119D01*
X131931913Y-114069543D01*
X132160000Y-114089498D01*
X132388087Y-114069543D01*
X132393400Y-114068119D01*
X132393402Y-114068119D01*
X132603933Y-114011707D01*
X132603935Y-114011706D01*
X132609243Y-114010284D01*
X132614225Y-114007961D01*
X132811762Y-113915849D01*
X132811767Y-113915846D01*
X132816749Y-113913523D01*
X132954841Y-113816830D01*
X132999789Y-113785357D01*
X132999792Y-113785355D01*
X133004300Y-113782198D01*
X133166198Y-113620300D01*
X133177227Y-113604550D01*
X133234885Y-113522205D01*
X133297523Y-113432749D01*
X133299846Y-113427767D01*
X133299849Y-113427762D01*
X133391961Y-113230225D01*
X133391961Y-113230224D01*
X133394284Y-113225243D01*
X133403371Y-113191332D01*
X133452119Y-113009402D01*
X133452119Y-113009400D01*
X133453543Y-113004087D01*
X133473498Y-112776000D01*
X133453543Y-112547913D01*
X133418823Y-112418336D01*
X133395707Y-112332067D01*
X133395706Y-112332065D01*
X133394284Y-112326757D01*
X133369983Y-112274643D01*
X133299849Y-112124238D01*
X133299846Y-112124233D01*
X133297523Y-112119251D01*
X133201695Y-111982395D01*
X133169357Y-111936211D01*
X133169355Y-111936208D01*
X133166198Y-111931700D01*
X133004300Y-111769802D01*
X132999792Y-111766645D01*
X132999789Y-111766643D01*
X132874629Y-111679005D01*
X132830301Y-111623548D01*
X132820900Y-111575792D01*
X132820900Y-111573263D01*
X132821192Y-111564692D01*
X132824842Y-111511157D01*
X132814631Y-111452653D01*
X132813669Y-111446131D01*
X132807450Y-111394738D01*
X132807450Y-111394736D01*
X132806537Y-111387195D01*
X132803851Y-111380087D01*
X132802140Y-111373121D01*
X132800721Y-111367932D01*
X132798644Y-111361053D01*
X132797339Y-111353576D01*
X132773471Y-111299205D01*
X132770986Y-111293114D01*
X132752679Y-111244664D01*
X132752678Y-111244662D01*
X132749994Y-111237559D01*
X132745691Y-111231298D01*
X132742385Y-111224974D01*
X132739729Y-111220202D01*
X132736094Y-111214056D01*
X132733042Y-111207104D01*
X132696898Y-111159999D01*
X132693037Y-111154686D01*
X132692139Y-111153380D01*
X132670025Y-111085916D01*
X132687896Y-111017205D01*
X132740077Y-110969063D01*
X132810002Y-110956775D01*
X132828576Y-110960285D01*
X132902591Y-110980118D01*
X132902602Y-110980120D01*
X132907913Y-110981543D01*
X133136000Y-111001498D01*
X133364087Y-110981543D01*
X133369398Y-110980120D01*
X133369409Y-110980118D01*
X133396980Y-110972730D01*
X133467956Y-110974419D01*
X133518687Y-111005341D01*
X135737393Y-113224047D01*
X135743246Y-113230312D01*
X135778524Y-113270752D01*
X135784735Y-113275117D01*
X135784738Y-113275120D01*
X135827107Y-113304897D01*
X135832402Y-113308830D01*
X135879121Y-113345462D01*
X135886046Y-113348589D01*
X135892223Y-113352330D01*
X135896802Y-113354942D01*
X135903180Y-113358362D01*
X135909397Y-113362731D01*
X135962648Y-113383492D01*
X136018848Y-113426873D01*
X136022006Y-113431738D01*
X136022477Y-113432749D01*
X136025005Y-113436359D01*
X136025008Y-113436364D01*
X136142774Y-113604550D01*
X136153802Y-113620300D01*
X136315700Y-113782198D01*
X136320208Y-113785355D01*
X136320211Y-113785357D01*
X136445371Y-113872995D01*
X136489699Y-113928452D01*
X136499100Y-113976208D01*
X136499100Y-115756737D01*
X136498808Y-115765309D01*
X136495322Y-115816434D01*
X136483809Y-115861111D01*
X136476041Y-115877770D01*
X136473716Y-115882757D01*
X136472294Y-115888065D01*
X136472293Y-115888067D01*
X136419620Y-116084643D01*
X136414457Y-116103913D01*
X136394502Y-116332000D01*
X136414457Y-116560087D01*
X136415881Y-116565400D01*
X136415881Y-116565402D01*
X136461882Y-116737077D01*
X136473716Y-116781243D01*
X136476039Y-116786224D01*
X136476039Y-116786225D01*
X136568151Y-116983762D01*
X136568154Y-116983767D01*
X136570477Y-116988749D01*
X136701802Y-117176300D01*
X136863700Y-117338198D01*
X136868208Y-117341355D01*
X136868211Y-117341357D01*
X136909542Y-117370297D01*
X137051251Y-117469523D01*
X137056233Y-117471846D01*
X137056238Y-117471849D01*
X137209345Y-117543243D01*
X137258757Y-117566284D01*
X137264065Y-117567706D01*
X137264067Y-117567707D01*
X137474598Y-117624119D01*
X137474600Y-117624119D01*
X137479913Y-117625543D01*
X137708000Y-117645498D01*
X137936087Y-117625543D01*
X137941400Y-117624119D01*
X137941402Y-117624119D01*
X138151933Y-117567707D01*
X138151935Y-117567706D01*
X138157243Y-117566284D01*
X138206655Y-117543243D01*
X138359762Y-117471849D01*
X138359767Y-117471846D01*
X138364749Y-117469523D01*
X138506458Y-117370297D01*
X138547789Y-117341357D01*
X138547792Y-117341355D01*
X138552300Y-117338198D01*
X138714198Y-117176300D01*
X138845523Y-116988749D01*
X138847846Y-116983767D01*
X138847849Y-116983762D01*
X138939961Y-116786225D01*
X138939961Y-116786224D01*
X138942284Y-116781243D01*
X138954119Y-116737077D01*
X139000119Y-116565402D01*
X139000119Y-116565400D01*
X139001543Y-116560087D01*
X139021498Y-116332000D01*
X139001543Y-116103913D01*
X138996380Y-116084643D01*
X138943707Y-115888067D01*
X138943706Y-115888065D01*
X138942284Y-115882757D01*
X138932623Y-115862039D01*
X138847849Y-115680238D01*
X138847846Y-115680233D01*
X138845523Y-115675251D01*
X138723699Y-115501269D01*
X138717357Y-115492211D01*
X138717355Y-115492208D01*
X138714198Y-115487700D01*
X138552300Y-115325802D01*
X138547792Y-115322645D01*
X138547789Y-115322643D01*
X138469611Y-115267902D01*
X138364749Y-115194477D01*
X138359767Y-115192154D01*
X138359762Y-115192151D01*
X138162225Y-115100039D01*
X138162224Y-115100039D01*
X138157243Y-115097716D01*
X138151935Y-115096294D01*
X138151933Y-115096293D01*
X138073748Y-115075343D01*
X137936087Y-115038457D01*
X137930598Y-115037977D01*
X137925194Y-115037024D01*
X137925646Y-115034458D01*
X137869675Y-115012482D01*
X137828108Y-114954926D01*
X137820900Y-114912922D01*
X137820900Y-113976208D01*
X137840902Y-113908087D01*
X137874629Y-113872995D01*
X137999789Y-113785357D01*
X137999792Y-113785355D01*
X138004300Y-113782198D01*
X138166198Y-113620300D01*
X138177227Y-113604550D01*
X138234885Y-113522205D01*
X138297523Y-113432749D01*
X138299846Y-113427767D01*
X138299849Y-113427762D01*
X138391961Y-113230225D01*
X138391961Y-113230224D01*
X138394284Y-113225243D01*
X138403371Y-113191332D01*
X138452119Y-113009402D01*
X138452119Y-113009400D01*
X138453543Y-113004087D01*
X138473498Y-112776000D01*
X138453543Y-112547913D01*
X138418823Y-112418336D01*
X138395707Y-112332067D01*
X138395706Y-112332065D01*
X138394284Y-112326757D01*
X138369983Y-112274643D01*
X138299849Y-112124238D01*
X138299846Y-112124233D01*
X138297523Y-112119251D01*
X138291867Y-112111173D01*
X138269177Y-112043900D01*
X138286460Y-111975039D01*
X138338229Y-111926454D01*
X138395078Y-111912900D01*
X141998737Y-111912900D01*
X142007308Y-111913192D01*
X142060843Y-111916842D01*
X142068320Y-111915537D01*
X142068321Y-111915537D01*
X142093626Y-111911121D01*
X142119347Y-111906631D01*
X142125865Y-111905670D01*
X142144223Y-111903448D01*
X142177262Y-111899450D01*
X142177264Y-111899450D01*
X142184805Y-111898537D01*
X142191913Y-111895851D01*
X142198879Y-111894140D01*
X142204068Y-111892721D01*
X142210947Y-111890644D01*
X142218424Y-111889339D01*
X142272795Y-111865471D01*
X142278886Y-111862986D01*
X142327336Y-111844679D01*
X142327338Y-111844678D01*
X142334441Y-111841994D01*
X142340702Y-111837691D01*
X142347026Y-111834385D01*
X142351798Y-111831729D01*
X142357944Y-111828094D01*
X142364896Y-111825042D01*
X142412001Y-111788898D01*
X142417334Y-111785023D01*
X142433810Y-111773699D01*
X142466271Y-111751389D01*
X142504769Y-111708180D01*
X142509749Y-111702905D01*
X145776047Y-108436607D01*
X145782313Y-108430753D01*
X145817025Y-108400472D01*
X145822752Y-108395476D01*
X145856882Y-108346913D01*
X145860814Y-108341618D01*
X145888877Y-108305829D01*
X145897463Y-108294879D01*
X145900589Y-108287955D01*
X145904302Y-108281824D01*
X145906938Y-108277204D01*
X145910360Y-108270822D01*
X145914731Y-108264603D01*
X145936299Y-108209286D01*
X145938854Y-108203207D01*
X145960161Y-108156015D01*
X145963289Y-108149088D01*
X145964675Y-108141612D01*
X145966830Y-108134734D01*
X145968290Y-108129609D01*
X145970078Y-108122645D01*
X145972838Y-108115566D01*
X145980587Y-108056700D01*
X145981618Y-108050189D01*
X145988313Y-108014067D01*
X145992440Y-107991803D01*
X145989109Y-107934032D01*
X145988900Y-107926780D01*
X145988900Y-106502208D01*
X146008902Y-106434087D01*
X146042629Y-106398995D01*
X146167789Y-106311357D01*
X146167792Y-106311355D01*
X146172300Y-106308198D01*
X146334198Y-106146300D01*
X146348863Y-106125357D01*
X146462366Y-105963257D01*
X146465523Y-105958749D01*
X146467846Y-105953767D01*
X146467849Y-105953762D01*
X146559961Y-105756225D01*
X146559961Y-105756224D01*
X146562284Y-105751243D01*
X146566011Y-105737336D01*
X146620119Y-105535402D01*
X146620119Y-105535400D01*
X146621543Y-105530087D01*
X146630375Y-105429132D01*
X146636262Y-105361851D01*
X146636262Y-105361844D01*
X146636500Y-105359127D01*
X146636500Y-104444873D01*
X146621543Y-104273913D01*
X146578989Y-104115100D01*
X146563707Y-104058067D01*
X146563706Y-104058065D01*
X146562284Y-104052757D01*
X146527647Y-103978477D01*
X146467849Y-103850238D01*
X146467846Y-103850233D01*
X146465523Y-103845251D01*
X146352392Y-103683683D01*
X146337357Y-103662211D01*
X146337355Y-103662208D01*
X146334198Y-103657700D01*
X146172300Y-103495802D01*
X146167792Y-103492645D01*
X146167789Y-103492643D01*
X146071170Y-103424990D01*
X145984749Y-103364477D01*
X145979767Y-103362154D01*
X145979762Y-103362151D01*
X145782225Y-103270039D01*
X145782224Y-103270039D01*
X145777243Y-103267716D01*
X145656560Y-103235379D01*
X145595938Y-103198427D01*
X145564916Y-103134566D01*
X145573345Y-103064072D01*
X145600077Y-103024577D01*
X149725611Y-98899043D01*
X149787923Y-98865017D01*
X149858738Y-98870082D01*
X149867955Y-98873943D01*
X149953768Y-98913958D01*
X149953772Y-98913959D01*
X149958757Y-98916284D01*
X150069335Y-98945914D01*
X150174598Y-98974119D01*
X150174600Y-98974119D01*
X150179913Y-98975543D01*
X150408000Y-98995498D01*
X150636087Y-98975543D01*
X150641400Y-98974119D01*
X150641402Y-98974119D01*
X150851933Y-98917707D01*
X150851935Y-98917706D01*
X150857243Y-98916284D01*
X150894217Y-98899043D01*
X151059762Y-98821849D01*
X151059767Y-98821846D01*
X151064749Y-98819523D01*
X151169611Y-98746098D01*
X151247789Y-98691357D01*
X151247792Y-98691355D01*
X151252300Y-98688198D01*
X151414198Y-98526300D01*
X151467656Y-98449955D01*
X151472098Y-98443611D01*
X151545523Y-98338749D01*
X151547846Y-98333767D01*
X151547849Y-98333762D01*
X151563805Y-98299543D01*
X151610722Y-98246258D01*
X151678999Y-98226797D01*
X151746959Y-98247339D01*
X151792195Y-98299543D01*
X151808151Y-98333762D01*
X151808154Y-98333767D01*
X151810477Y-98338749D01*
X151883902Y-98443611D01*
X151888345Y-98449955D01*
X151941802Y-98526300D01*
X152103700Y-98688198D01*
X152108208Y-98691355D01*
X152108211Y-98691357D01*
X152186389Y-98746098D01*
X152291251Y-98819523D01*
X152296233Y-98821846D01*
X152296238Y-98821849D01*
X152461783Y-98899043D01*
X152498757Y-98916284D01*
X152504065Y-98917706D01*
X152504067Y-98917707D01*
X152714598Y-98974119D01*
X152714600Y-98974119D01*
X152719913Y-98975543D01*
X152948000Y-98995498D01*
X153176087Y-98975543D01*
X153181400Y-98974119D01*
X153181402Y-98974119D01*
X153397243Y-98916284D01*
X153397842Y-98918520D01*
X153458816Y-98914623D01*
X153520869Y-98949120D01*
X153554420Y-99011688D01*
X153557100Y-99037537D01*
X153557100Y-103146463D01*
X153537098Y-103214584D01*
X153483442Y-103261077D01*
X153413168Y-103271181D01*
X153397378Y-103267214D01*
X153397243Y-103267716D01*
X153181402Y-103209881D01*
X153181400Y-103209881D01*
X153176087Y-103208457D01*
X152948000Y-103188502D01*
X152719913Y-103208457D01*
X152714600Y-103209881D01*
X152714598Y-103209881D01*
X152504067Y-103266293D01*
X152504065Y-103266294D01*
X152498757Y-103267716D01*
X152493775Y-103270039D01*
X152493770Y-103270041D01*
X152407954Y-103310057D01*
X152337763Y-103320718D01*
X152272950Y-103291738D01*
X152265610Y-103284957D01*
X151656614Y-102675961D01*
X151650760Y-102669695D01*
X151645217Y-102663341D01*
X151615476Y-102629248D01*
X151566898Y-102595107D01*
X151561604Y-102591175D01*
X151561352Y-102590977D01*
X151514879Y-102554537D01*
X151507955Y-102551411D01*
X151501824Y-102547698D01*
X151497204Y-102545062D01*
X151490822Y-102541640D01*
X151484603Y-102537269D01*
X151429286Y-102515701D01*
X151423207Y-102513146D01*
X151417393Y-102510521D01*
X151369088Y-102488711D01*
X151361612Y-102487325D01*
X151354734Y-102485170D01*
X151349609Y-102483710D01*
X151342645Y-102481922D01*
X151335566Y-102479162D01*
X151328034Y-102478170D01*
X151328032Y-102478170D01*
X151302804Y-102474849D01*
X151276700Y-102471413D01*
X151270202Y-102470384D01*
X151211803Y-102459560D01*
X151204223Y-102459997D01*
X151204222Y-102459997D01*
X151154033Y-102462891D01*
X151146780Y-102463100D01*
X150035314Y-102463100D01*
X150026743Y-102462808D01*
X149973208Y-102459158D01*
X149965731Y-102460463D01*
X149965730Y-102460463D01*
X149952294Y-102462808D01*
X149914704Y-102469369D01*
X149908186Y-102470330D01*
X149902802Y-102470982D01*
X149856789Y-102476550D01*
X149856787Y-102476550D01*
X149849246Y-102477463D01*
X149842138Y-102480149D01*
X149835172Y-102481860D01*
X149829983Y-102483279D01*
X149823104Y-102485356D01*
X149815627Y-102486661D01*
X149761256Y-102510529D01*
X149755170Y-102513012D01*
X149751219Y-102514505D01*
X149706715Y-102531321D01*
X149706713Y-102531322D01*
X149699610Y-102534006D01*
X149693349Y-102538309D01*
X149687025Y-102541615D01*
X149682253Y-102544271D01*
X149676107Y-102547906D01*
X149669155Y-102550958D01*
X149658384Y-102559223D01*
X149622050Y-102587102D01*
X149616723Y-102590973D01*
X149567780Y-102624611D01*
X149539609Y-102656229D01*
X149529291Y-102667810D01*
X149524311Y-102673086D01*
X148702754Y-103494644D01*
X148696488Y-103500497D01*
X148656048Y-103535775D01*
X148651681Y-103541989D01*
X148621909Y-103584350D01*
X148617977Y-103589644D01*
X148581337Y-103636372D01*
X148578211Y-103643296D01*
X148574498Y-103649427D01*
X148571862Y-103654047D01*
X148568440Y-103660429D01*
X148564069Y-103666648D01*
X148561309Y-103673727D01*
X148542502Y-103721964D01*
X148539946Y-103728043D01*
X148515511Y-103782163D01*
X148514125Y-103789639D01*
X148511970Y-103796517D01*
X148510510Y-103801642D01*
X148508722Y-103808606D01*
X148505962Y-103815685D01*
X148504970Y-103823217D01*
X148504970Y-103823219D01*
X148498214Y-103874543D01*
X148497184Y-103881049D01*
X148486360Y-103939448D01*
X148486797Y-103947028D01*
X148486797Y-103947029D01*
X148489691Y-103997218D01*
X148489900Y-104004471D01*
X148489900Y-106665537D01*
X148489608Y-106674108D01*
X148485958Y-106727643D01*
X148487263Y-106735120D01*
X148487263Y-106735121D01*
X148496168Y-106786143D01*
X148497130Y-106792665D01*
X148504263Y-106851605D01*
X148506949Y-106858713D01*
X148508660Y-106865679D01*
X148510079Y-106870868D01*
X148512156Y-106877747D01*
X148513461Y-106885224D01*
X148537329Y-106939595D01*
X148539812Y-106945681D01*
X148560806Y-107001241D01*
X148565109Y-107007502D01*
X148568415Y-107013826D01*
X148571071Y-107018598D01*
X148574706Y-107024744D01*
X148577758Y-107031696D01*
X148582380Y-107037719D01*
X148613902Y-107078801D01*
X148617773Y-107084128D01*
X148651411Y-107133071D01*
X148686100Y-107163978D01*
X148694619Y-107171568D01*
X148699895Y-107176549D01*
X149710195Y-108186849D01*
X149744221Y-108249161D01*
X149747100Y-108275944D01*
X149747100Y-114232737D01*
X149746808Y-114241308D01*
X149743158Y-114294843D01*
X149744463Y-114302320D01*
X149744463Y-114302321D01*
X149753368Y-114353343D01*
X149754330Y-114359865D01*
X149761463Y-114418805D01*
X149764149Y-114425913D01*
X149765860Y-114432879D01*
X149767279Y-114438068D01*
X149769356Y-114444947D01*
X149770661Y-114452424D01*
X149794529Y-114506795D01*
X149797012Y-114512881D01*
X149818006Y-114568441D01*
X149822309Y-114574702D01*
X149825615Y-114581026D01*
X149828271Y-114585798D01*
X149831906Y-114591944D01*
X149834958Y-114598896D01*
X149839580Y-114604919D01*
X149871102Y-114646001D01*
X149874973Y-114651328D01*
X149908611Y-114700271D01*
X149914287Y-114705328D01*
X149951819Y-114738768D01*
X149957095Y-114743749D01*
X151738302Y-116524956D01*
X151772328Y-116587268D01*
X151765405Y-116662774D01*
X151736148Y-116732545D01*
X151669981Y-116993077D01*
X151643050Y-117260526D01*
X151655947Y-117529019D01*
X151708388Y-117792656D01*
X151799220Y-118045646D01*
X151801432Y-118049762D01*
X151801433Y-118049765D01*
X151865552Y-118169095D01*
X151926450Y-118282431D01*
X151929241Y-118286168D01*
X151929245Y-118286175D01*
X152003877Y-118386119D01*
X152087281Y-118497810D01*
X152090590Y-118501090D01*
X152090595Y-118501096D01*
X152211570Y-118621019D01*
X152278180Y-118687050D01*
X152281942Y-118689808D01*
X152281945Y-118689811D01*
X152394299Y-118772192D01*
X152494954Y-118845995D01*
X152499089Y-118848171D01*
X152499093Y-118848173D01*
X152728698Y-118968975D01*
X152732840Y-118971154D01*
X152986613Y-119059775D01*
X152991206Y-119060647D01*
X153246109Y-119109042D01*
X153246112Y-119109042D01*
X153250698Y-119109913D01*
X153378370Y-119114929D01*
X153514625Y-119120283D01*
X153514630Y-119120283D01*
X153519293Y-119120466D01*
X153623607Y-119109042D01*
X153781844Y-119091713D01*
X153781850Y-119091712D01*
X153786497Y-119091203D01*
X153791021Y-119090012D01*
X154041918Y-119023956D01*
X154041920Y-119023955D01*
X154046441Y-119022765D01*
X154050738Y-119020919D01*
X154289120Y-118918502D01*
X154289122Y-118918501D01*
X154293414Y-118916657D01*
X154412071Y-118843230D01*
X154518017Y-118777669D01*
X154518021Y-118777666D01*
X154521990Y-118775210D01*
X154727149Y-118601530D01*
X154904382Y-118399434D01*
X154911723Y-118388022D01*
X155047269Y-118177291D01*
X155049797Y-118173361D01*
X155059285Y-118152300D01*
X155108453Y-118043150D01*
X155154668Y-117989255D01*
X155223335Y-117968900D01*
X158605792Y-117968900D01*
X158673913Y-117988902D01*
X158709005Y-118022629D01*
X158796643Y-118147789D01*
X158799802Y-118152300D01*
X158961700Y-118314198D01*
X158966208Y-118317355D01*
X158966211Y-118317357D01*
X158983849Y-118329707D01*
X159149251Y-118445523D01*
X159154233Y-118447846D01*
X159154238Y-118447849D01*
X159268428Y-118501096D01*
X159356757Y-118542284D01*
X159362065Y-118543706D01*
X159362067Y-118543707D01*
X159572598Y-118600119D01*
X159572600Y-118600119D01*
X159577913Y-118601543D01*
X159806000Y-118621498D01*
X160034087Y-118601543D01*
X160039400Y-118600119D01*
X160039402Y-118600119D01*
X160249933Y-118543707D01*
X160249935Y-118543706D01*
X160255243Y-118542284D01*
X160343572Y-118501096D01*
X160457762Y-118447849D01*
X160457767Y-118447846D01*
X160462749Y-118445523D01*
X160628151Y-118329707D01*
X160645789Y-118317357D01*
X160645792Y-118317355D01*
X160650300Y-118314198D01*
X160812198Y-118152300D01*
X160846469Y-118103357D01*
X160902995Y-118022629D01*
X160943523Y-117964749D01*
X160945846Y-117959767D01*
X160945849Y-117959762D01*
X161007453Y-117827650D01*
X161054370Y-117774365D01*
X161121648Y-117754900D01*
X161831792Y-117754900D01*
X161899913Y-117774902D01*
X161935005Y-117808629D01*
X162025802Y-117938300D01*
X162187700Y-118100198D01*
X162192208Y-118103355D01*
X162192211Y-118103357D01*
X162255667Y-118147789D01*
X162375251Y-118231523D01*
X162380233Y-118233846D01*
X162380238Y-118233849D01*
X162577775Y-118325961D01*
X162582757Y-118328284D01*
X162588065Y-118329706D01*
X162588067Y-118329707D01*
X162798598Y-118386119D01*
X162798600Y-118386119D01*
X162803913Y-118387543D01*
X163032000Y-118407498D01*
X163260087Y-118387543D01*
X163265400Y-118386119D01*
X163265402Y-118386119D01*
X163475933Y-118329707D01*
X163475935Y-118329706D01*
X163481243Y-118328284D01*
X163486225Y-118325961D01*
X163683762Y-118233849D01*
X163683767Y-118233846D01*
X163688749Y-118231523D01*
X163808333Y-118147789D01*
X163871789Y-118103357D01*
X163871792Y-118103355D01*
X163876300Y-118100198D01*
X164038198Y-117938300D01*
X164169523Y-117750749D01*
X164171846Y-117745767D01*
X164171849Y-117745762D01*
X164263961Y-117548225D01*
X164263961Y-117548224D01*
X164266284Y-117543243D01*
X164270096Y-117529019D01*
X164324119Y-117327402D01*
X164324119Y-117327400D01*
X164325543Y-117322087D01*
X164345498Y-117094000D01*
X164325543Y-116865913D01*
X164324119Y-116860598D01*
X164267707Y-116650067D01*
X164267706Y-116650065D01*
X164266284Y-116644757D01*
X164258050Y-116627098D01*
X164171849Y-116442238D01*
X164171846Y-116442233D01*
X164169523Y-116437251D01*
X164074680Y-116301802D01*
X164041357Y-116254211D01*
X164041355Y-116254208D01*
X164038198Y-116249700D01*
X163876300Y-116087802D01*
X163871792Y-116084645D01*
X163871789Y-116084643D01*
X163743054Y-115994502D01*
X163688749Y-115956477D01*
X163683767Y-115954154D01*
X163683762Y-115954151D01*
X163486225Y-115862039D01*
X163486224Y-115862039D01*
X163481243Y-115859716D01*
X163475935Y-115858294D01*
X163475933Y-115858293D01*
X163265402Y-115801881D01*
X163265400Y-115801881D01*
X163260087Y-115800457D01*
X163032000Y-115780502D01*
X162803913Y-115800457D01*
X162798600Y-115801881D01*
X162798598Y-115801881D01*
X162588067Y-115858293D01*
X162588065Y-115858294D01*
X162582757Y-115859716D01*
X162577776Y-115862039D01*
X162577775Y-115862039D01*
X162380238Y-115954151D01*
X162380233Y-115954154D01*
X162375251Y-115956477D01*
X162320946Y-115994502D01*
X162192211Y-116084643D01*
X162192208Y-116084645D01*
X162187700Y-116087802D01*
X162025802Y-116249700D01*
X162022645Y-116254208D01*
X162022643Y-116254211D01*
X161935005Y-116379371D01*
X161879548Y-116423699D01*
X161831792Y-116433100D01*
X160833788Y-116433100D01*
X160765667Y-116413098D01*
X160744693Y-116396195D01*
X160650300Y-116301802D01*
X160645792Y-116298645D01*
X160645789Y-116298643D01*
X160504816Y-116199933D01*
X160462749Y-116170477D01*
X160457767Y-116168154D01*
X160457762Y-116168151D01*
X160260225Y-116076039D01*
X160260224Y-116076039D01*
X160255243Y-116073716D01*
X160249935Y-116072294D01*
X160249933Y-116072293D01*
X160039402Y-116015881D01*
X160039400Y-116015881D01*
X160034087Y-116014457D01*
X159806000Y-115994502D01*
X159577913Y-116014457D01*
X159572600Y-116015881D01*
X159572598Y-116015881D01*
X159362067Y-116072293D01*
X159362065Y-116072294D01*
X159356757Y-116073716D01*
X159351776Y-116076039D01*
X159351775Y-116076039D01*
X159154238Y-116168151D01*
X159154233Y-116168154D01*
X159149251Y-116170477D01*
X159107184Y-116199933D01*
X158966211Y-116298643D01*
X158966208Y-116298645D01*
X158961700Y-116301802D01*
X158799802Y-116463700D01*
X158796645Y-116468208D01*
X158796643Y-116468211D01*
X158709005Y-116593371D01*
X158653548Y-116637699D01*
X158605792Y-116647100D01*
X155225707Y-116647100D01*
X155157586Y-116627098D01*
X155111093Y-116573442D01*
X155108274Y-116566767D01*
X155094595Y-116531591D01*
X155094594Y-116531589D01*
X155092902Y-116527238D01*
X154959518Y-116293864D01*
X154793105Y-116082769D01*
X154597317Y-115898591D01*
X154427784Y-115780981D01*
X154380299Y-115748039D01*
X154380296Y-115748037D01*
X154376457Y-115745374D01*
X154372264Y-115743306D01*
X154139564Y-115628551D01*
X154139561Y-115628550D01*
X154135376Y-115626486D01*
X154126214Y-115623553D01*
X154014733Y-115587868D01*
X153879370Y-115544538D01*
X153874763Y-115543788D01*
X153874760Y-115543787D01*
X153618674Y-115502081D01*
X153618675Y-115502081D01*
X153614063Y-115501330D01*
X153483719Y-115499624D01*
X153349961Y-115497873D01*
X153349958Y-115497873D01*
X153345284Y-115497812D01*
X153078937Y-115534060D01*
X152820874Y-115609278D01*
X152813832Y-115612524D01*
X152812364Y-115613201D01*
X152742126Y-115623553D01*
X152677441Y-115594289D01*
X152670521Y-115587868D01*
X151105805Y-114023152D01*
X151071779Y-113960840D01*
X151068900Y-113934057D01*
X151068900Y-107977252D01*
X151069192Y-107968682D01*
X151072325Y-107922732D01*
X151072325Y-107922728D01*
X151072841Y-107915156D01*
X151062632Y-107856662D01*
X151061670Y-107850140D01*
X151055450Y-107798737D01*
X151055449Y-107798734D01*
X151054537Y-107791195D01*
X151051851Y-107784087D01*
X151050140Y-107777121D01*
X151048721Y-107771932D01*
X151046644Y-107765053D01*
X151045339Y-107757576D01*
X151033363Y-107730293D01*
X151021478Y-107703220D01*
X151018985Y-107697111D01*
X151015210Y-107687119D01*
X151007929Y-107667851D01*
X151000679Y-107648664D01*
X151000678Y-107648662D01*
X150997994Y-107641559D01*
X150993694Y-107635302D01*
X150990360Y-107628925D01*
X150987760Y-107624255D01*
X150984095Y-107618058D01*
X150981042Y-107611103D01*
X150944894Y-107563995D01*
X150941016Y-107558657D01*
X150911691Y-107515988D01*
X150911689Y-107515986D01*
X150907389Y-107509729D01*
X150864190Y-107471240D01*
X150858914Y-107466260D01*
X150214604Y-106821950D01*
X150180579Y-106759638D01*
X150185643Y-106688823D01*
X150228190Y-106631987D01*
X150294710Y-106607176D01*
X150314680Y-106607334D01*
X150402524Y-106615019D01*
X150402525Y-106615019D01*
X150408000Y-106615498D01*
X150635307Y-106595611D01*
X150704911Y-106609600D01*
X150735383Y-106632037D01*
X152178659Y-108075313D01*
X152212685Y-108137625D01*
X152211270Y-108197020D01*
X152203882Y-108224591D01*
X152203881Y-108224598D01*
X152202457Y-108229913D01*
X152182502Y-108458000D01*
X152202457Y-108686087D01*
X152203881Y-108691400D01*
X152203881Y-108691402D01*
X152224613Y-108768772D01*
X152261716Y-108907243D01*
X152264039Y-108912224D01*
X152264039Y-108912225D01*
X152356151Y-109109762D01*
X152356154Y-109109767D01*
X152358477Y-109114749D01*
X152414030Y-109194087D01*
X152486265Y-109297248D01*
X152489802Y-109302300D01*
X152651700Y-109464198D01*
X152656208Y-109467355D01*
X152656211Y-109467357D01*
X152781371Y-109554995D01*
X152825699Y-109610452D01*
X152835100Y-109658208D01*
X152835100Y-110522062D01*
X152815098Y-110590183D01*
X152761851Y-110636488D01*
X152744918Y-110644294D01*
X152576763Y-110721815D01*
X152572854Y-110724378D01*
X152355881Y-110866631D01*
X152355876Y-110866635D01*
X152351968Y-110869197D01*
X152348476Y-110872314D01*
X152203738Y-111001498D01*
X152151426Y-111048188D01*
X151979544Y-111254854D01*
X151840096Y-111484656D01*
X151838287Y-111488970D01*
X151838285Y-111488974D01*
X151771978Y-111647100D01*
X151736148Y-111732545D01*
X151669981Y-111993077D01*
X151643050Y-112260526D01*
X151643274Y-112265192D01*
X151643274Y-112265197D01*
X151648858Y-112381431D01*
X151655947Y-112529019D01*
X151708388Y-112792656D01*
X151799220Y-113045646D01*
X151801432Y-113049762D01*
X151801433Y-113049765D01*
X151865552Y-113169095D01*
X151926450Y-113282431D01*
X151929241Y-113286168D01*
X151929245Y-113286175D01*
X152003413Y-113385497D01*
X152087281Y-113497810D01*
X152090590Y-113501090D01*
X152090595Y-113501096D01*
X152211570Y-113621019D01*
X152278180Y-113687050D01*
X152281942Y-113689808D01*
X152281945Y-113689811D01*
X152347974Y-113738225D01*
X152494954Y-113845995D01*
X152499089Y-113848171D01*
X152499093Y-113848173D01*
X152689668Y-113948440D01*
X152732840Y-113971154D01*
X152986613Y-114059775D01*
X152991206Y-114060647D01*
X153246109Y-114109042D01*
X153246112Y-114109042D01*
X153250698Y-114109913D01*
X153378370Y-114114929D01*
X153514625Y-114120283D01*
X153514630Y-114120283D01*
X153519293Y-114120466D01*
X153623607Y-114109042D01*
X153781844Y-114091713D01*
X153781850Y-114091712D01*
X153786497Y-114091203D01*
X153792973Y-114089498D01*
X154041918Y-114023956D01*
X154041920Y-114023955D01*
X154046441Y-114022765D01*
X154050738Y-114020919D01*
X154289120Y-113918502D01*
X154289122Y-113918501D01*
X154293414Y-113916657D01*
X154458031Y-113814789D01*
X154518017Y-113777669D01*
X154518021Y-113777666D01*
X154521990Y-113775210D01*
X154727149Y-113601530D01*
X154904382Y-113399434D01*
X154914637Y-113383492D01*
X155047269Y-113177291D01*
X155049797Y-113173361D01*
X155059285Y-113152300D01*
X155108453Y-113043150D01*
X155154668Y-112989255D01*
X155223335Y-112968900D01*
X158605792Y-112968900D01*
X158673913Y-112988902D01*
X158709005Y-113022629D01*
X158732311Y-113055913D01*
X158799802Y-113152300D01*
X158961700Y-113314198D01*
X158966208Y-113317355D01*
X158966211Y-113317357D01*
X159032032Y-113363445D01*
X159149251Y-113445523D01*
X159154233Y-113447846D01*
X159154238Y-113447849D01*
X159303397Y-113517402D01*
X159356757Y-113542284D01*
X159362065Y-113543706D01*
X159362067Y-113543707D01*
X159572598Y-113600119D01*
X159572600Y-113600119D01*
X159577913Y-113601543D01*
X159806000Y-113621498D01*
X160034087Y-113601543D01*
X160039398Y-113600120D01*
X160039409Y-113600118D01*
X160066980Y-113592730D01*
X160137956Y-113594419D01*
X160188687Y-113625341D01*
X160295393Y-113732047D01*
X160301246Y-113738312D01*
X160336524Y-113778752D01*
X160342735Y-113783117D01*
X160342738Y-113783120D01*
X160385107Y-113812897D01*
X160390402Y-113816830D01*
X160437121Y-113853462D01*
X160444046Y-113856589D01*
X160450223Y-113860330D01*
X160454802Y-113862942D01*
X160461180Y-113866362D01*
X160467397Y-113870731D01*
X160522711Y-113892297D01*
X160528780Y-113894847D01*
X160582912Y-113919289D01*
X160590384Y-113920674D01*
X160597255Y-113922827D01*
X160602391Y-113924290D01*
X160609355Y-113926078D01*
X160616434Y-113928838D01*
X160623966Y-113929830D01*
X160623968Y-113929830D01*
X160649196Y-113933151D01*
X160675300Y-113936587D01*
X160681798Y-113937616D01*
X160740197Y-113948440D01*
X160747777Y-113948003D01*
X160747778Y-113948003D01*
X160797967Y-113945109D01*
X160805220Y-113944900D01*
X161907792Y-113944900D01*
X161975913Y-113964902D01*
X162011005Y-113998629D01*
X162098643Y-114123789D01*
X162101802Y-114128300D01*
X162263700Y-114290198D01*
X162268208Y-114293355D01*
X162268211Y-114293357D01*
X162281013Y-114302321D01*
X162451251Y-114421523D01*
X162456233Y-114423846D01*
X162456238Y-114423849D01*
X162647181Y-114512886D01*
X162658757Y-114518284D01*
X162664065Y-114519706D01*
X162664067Y-114519707D01*
X162874598Y-114576119D01*
X162874600Y-114576119D01*
X162879913Y-114577543D01*
X163108000Y-114597498D01*
X163336087Y-114577543D01*
X163341400Y-114576119D01*
X163341402Y-114576119D01*
X163551933Y-114519707D01*
X163551935Y-114519706D01*
X163557243Y-114518284D01*
X163568819Y-114512886D01*
X163759762Y-114423849D01*
X163759767Y-114423846D01*
X163764749Y-114421523D01*
X163934987Y-114302321D01*
X163947789Y-114293357D01*
X163947792Y-114293355D01*
X163952300Y-114290198D01*
X164114198Y-114128300D01*
X164119684Y-114120466D01*
X164189387Y-114020919D01*
X164245523Y-113940749D01*
X164247846Y-113935767D01*
X164247849Y-113935762D01*
X164339961Y-113738225D01*
X164339961Y-113738224D01*
X164342284Y-113733243D01*
X164354662Y-113687050D01*
X164400119Y-113517402D01*
X164400119Y-113517400D01*
X164401543Y-113512087D01*
X164421498Y-113284000D01*
X164401543Y-113055913D01*
X164389080Y-113009402D01*
X164343707Y-112840067D01*
X164343706Y-112840065D01*
X164342284Y-112834757D01*
X164319389Y-112785658D01*
X164247849Y-112632238D01*
X164247846Y-112632233D01*
X164245523Y-112627251D01*
X164114198Y-112439700D01*
X163952300Y-112277802D01*
X163947792Y-112274645D01*
X163947789Y-112274643D01*
X163869611Y-112219902D01*
X163764749Y-112146477D01*
X163759767Y-112144154D01*
X163759762Y-112144151D01*
X163562225Y-112052039D01*
X163562224Y-112052039D01*
X163557243Y-112049716D01*
X163551935Y-112048294D01*
X163551933Y-112048293D01*
X163341402Y-111991881D01*
X163341400Y-111991881D01*
X163336087Y-111990457D01*
X163108000Y-111970502D01*
X162879913Y-111990457D01*
X162874600Y-111991881D01*
X162874598Y-111991881D01*
X162664067Y-112048293D01*
X162664065Y-112048294D01*
X162658757Y-112049716D01*
X162653776Y-112052039D01*
X162653775Y-112052039D01*
X162456238Y-112144151D01*
X162456233Y-112144154D01*
X162451251Y-112146477D01*
X162346389Y-112219902D01*
X162268211Y-112274643D01*
X162268208Y-112274645D01*
X162263700Y-112277802D01*
X162101802Y-112439700D01*
X162098645Y-112444208D01*
X162098643Y-112444211D01*
X162011005Y-112569371D01*
X161955548Y-112613699D01*
X161907792Y-112623100D01*
X161229436Y-112623100D01*
X161161315Y-112603098D01*
X161114822Y-112549442D01*
X161103915Y-112486119D01*
X161119019Y-112313476D01*
X161119019Y-112313475D01*
X161119498Y-112308000D01*
X161099543Y-112079913D01*
X161091452Y-112049716D01*
X161041707Y-111864067D01*
X161041706Y-111864065D01*
X161040284Y-111858757D01*
X161037961Y-111853775D01*
X160945849Y-111656238D01*
X160945846Y-111656233D01*
X160943523Y-111651251D01*
X160812198Y-111463700D01*
X160650300Y-111301802D01*
X160645792Y-111298645D01*
X160645789Y-111298643D01*
X160558552Y-111237559D01*
X160462749Y-111170477D01*
X160457767Y-111168154D01*
X160457762Y-111168151D01*
X160260225Y-111076039D01*
X160260224Y-111076039D01*
X160255243Y-111073716D01*
X160249935Y-111072294D01*
X160249933Y-111072293D01*
X160039402Y-111015881D01*
X160039400Y-111015881D01*
X160034087Y-111014457D01*
X159806000Y-110994502D01*
X159577913Y-111014457D01*
X159572600Y-111015881D01*
X159572598Y-111015881D01*
X159362067Y-111072293D01*
X159362065Y-111072294D01*
X159356757Y-111073716D01*
X159351776Y-111076039D01*
X159351775Y-111076039D01*
X159154238Y-111168151D01*
X159154233Y-111168154D01*
X159149251Y-111170477D01*
X159053448Y-111237559D01*
X158966211Y-111298643D01*
X158966208Y-111298645D01*
X158961700Y-111301802D01*
X158799802Y-111463700D01*
X158796645Y-111468208D01*
X158796643Y-111468211D01*
X158709005Y-111593371D01*
X158653548Y-111637699D01*
X158605792Y-111647100D01*
X155225707Y-111647100D01*
X155157586Y-111627098D01*
X155111093Y-111573442D01*
X155108274Y-111566767D01*
X155094595Y-111531591D01*
X155094594Y-111531589D01*
X155092902Y-111527238D01*
X155068565Y-111484656D01*
X155004817Y-111373121D01*
X154959518Y-111293864D01*
X154793105Y-111082769D01*
X154597317Y-110898591D01*
X154376457Y-110745374D01*
X154328685Y-110721815D01*
X154227171Y-110671754D01*
X154174923Y-110623685D01*
X154156900Y-110558748D01*
X154156900Y-109658208D01*
X154176902Y-109590087D01*
X154210629Y-109554995D01*
X154335789Y-109467357D01*
X154335792Y-109467355D01*
X154340300Y-109464198D01*
X154502198Y-109302300D01*
X154505736Y-109297248D01*
X154577970Y-109194087D01*
X154633523Y-109114749D01*
X154635846Y-109109767D01*
X154635849Y-109109762D01*
X154727961Y-108912225D01*
X154727961Y-108912224D01*
X154730284Y-108907243D01*
X154767388Y-108768772D01*
X154788119Y-108691402D01*
X154788119Y-108691400D01*
X154789543Y-108686087D01*
X154809498Y-108458000D01*
X154789543Y-108229913D01*
X154782387Y-108203207D01*
X154731707Y-108014067D01*
X154731706Y-108014065D01*
X154730284Y-108008757D01*
X154690089Y-107922558D01*
X154635849Y-107806238D01*
X154635846Y-107806233D01*
X154633523Y-107801251D01*
X154519967Y-107639077D01*
X154505357Y-107618211D01*
X154505355Y-107618208D01*
X154502198Y-107613700D01*
X154340300Y-107451802D01*
X154335792Y-107448645D01*
X154335789Y-107448643D01*
X154257611Y-107393902D01*
X154152749Y-107320477D01*
X154147767Y-107318154D01*
X154147762Y-107318151D01*
X153950225Y-107226039D01*
X153950224Y-107226039D01*
X153945243Y-107223716D01*
X153939935Y-107222294D01*
X153939933Y-107222293D01*
X153729402Y-107165881D01*
X153729400Y-107165881D01*
X153724087Y-107164457D01*
X153496000Y-107144502D01*
X153267913Y-107164457D01*
X153262602Y-107165880D01*
X153262591Y-107165882D01*
X153235020Y-107173270D01*
X153164044Y-107171581D01*
X153113313Y-107140659D01*
X152798439Y-106825785D01*
X152764413Y-106763473D01*
X152769478Y-106692658D01*
X152812025Y-106635822D01*
X152878545Y-106611011D01*
X152898515Y-106611169D01*
X152942524Y-106615019D01*
X152942525Y-106615019D01*
X152948000Y-106615498D01*
X153176087Y-106595543D01*
X153181400Y-106594119D01*
X153181402Y-106594119D01*
X153391933Y-106537707D01*
X153391935Y-106537706D01*
X153397243Y-106536284D01*
X153402225Y-106533961D01*
X153599762Y-106441849D01*
X153599767Y-106441846D01*
X153604749Y-106439523D01*
X153781906Y-106315476D01*
X153787789Y-106311357D01*
X153787792Y-106311355D01*
X153792300Y-106308198D01*
X153954198Y-106146300D01*
X153968863Y-106125357D01*
X154082366Y-105963257D01*
X154085523Y-105958749D01*
X154087846Y-105953767D01*
X154087849Y-105953762D01*
X154103805Y-105919543D01*
X154150722Y-105866258D01*
X154218999Y-105846797D01*
X154286959Y-105867339D01*
X154332195Y-105919543D01*
X154348151Y-105953762D01*
X154348154Y-105953767D01*
X154350477Y-105958749D01*
X154353634Y-105963257D01*
X154467138Y-106125357D01*
X154481802Y-106146300D01*
X154643700Y-106308198D01*
X154648208Y-106311355D01*
X154648211Y-106311357D01*
X154654094Y-106315476D01*
X154831251Y-106439523D01*
X154836233Y-106441846D01*
X154836238Y-106441849D01*
X155033775Y-106533961D01*
X155038757Y-106536284D01*
X155044065Y-106537706D01*
X155044067Y-106537707D01*
X155254598Y-106594119D01*
X155254600Y-106594119D01*
X155259913Y-106595543D01*
X155488000Y-106615498D01*
X155716087Y-106595543D01*
X155721400Y-106594119D01*
X155721402Y-106594119D01*
X155931933Y-106537707D01*
X155931935Y-106537706D01*
X155937243Y-106536284D01*
X155942225Y-106533961D01*
X156139762Y-106441849D01*
X156139767Y-106441846D01*
X156144749Y-106439523D01*
X156321906Y-106315476D01*
X156327789Y-106311357D01*
X156327792Y-106311355D01*
X156332300Y-106308198D01*
X156494198Y-106146300D01*
X156508863Y-106125357D01*
X156622366Y-105963257D01*
X156625523Y-105958749D01*
X156627846Y-105953767D01*
X156627849Y-105953762D01*
X156643805Y-105919543D01*
X156690722Y-105866258D01*
X156758999Y-105846797D01*
X156826959Y-105867339D01*
X156872195Y-105919543D01*
X156888151Y-105953762D01*
X156888154Y-105953767D01*
X156890477Y-105958749D01*
X156893634Y-105963257D01*
X157007138Y-106125357D01*
X157021802Y-106146300D01*
X157183700Y-106308198D01*
X157188208Y-106311355D01*
X157188211Y-106311357D01*
X157194094Y-106315476D01*
X157371251Y-106439523D01*
X157376233Y-106441846D01*
X157376238Y-106441849D01*
X157573775Y-106533961D01*
X157578757Y-106536284D01*
X157584065Y-106537706D01*
X157584067Y-106537707D01*
X157794598Y-106594119D01*
X157794600Y-106594119D01*
X157799913Y-106595543D01*
X158028000Y-106615498D01*
X158256087Y-106595543D01*
X158261400Y-106594119D01*
X158261402Y-106594119D01*
X158471933Y-106537707D01*
X158471935Y-106537706D01*
X158477243Y-106536284D01*
X158482225Y-106533961D01*
X158679762Y-106441849D01*
X158679767Y-106441846D01*
X158684749Y-106439523D01*
X158861906Y-106315476D01*
X158867789Y-106311357D01*
X158867792Y-106311355D01*
X158872300Y-106308198D01*
X158930005Y-106250493D01*
X158992317Y-106216467D01*
X159063132Y-106221532D01*
X159119968Y-106264079D01*
X159144779Y-106330599D01*
X159145100Y-106339588D01*
X159145100Y-106822057D01*
X159125098Y-106890178D01*
X159108195Y-106911152D01*
X158878688Y-107140659D01*
X158816376Y-107174685D01*
X158756982Y-107173271D01*
X158729402Y-107165881D01*
X158729400Y-107165881D01*
X158724087Y-107164457D01*
X158496000Y-107144502D01*
X158267913Y-107164457D01*
X158262600Y-107165881D01*
X158262598Y-107165881D01*
X158052067Y-107222293D01*
X158052065Y-107222294D01*
X158046757Y-107223716D01*
X158041776Y-107226039D01*
X158041775Y-107226039D01*
X157844238Y-107318151D01*
X157844233Y-107318154D01*
X157839251Y-107320477D01*
X157734389Y-107393902D01*
X157656211Y-107448643D01*
X157656208Y-107448645D01*
X157651700Y-107451802D01*
X157489802Y-107613700D01*
X157486645Y-107618208D01*
X157486643Y-107618211D01*
X157472033Y-107639077D01*
X157358477Y-107801251D01*
X157356154Y-107806233D01*
X157356151Y-107806238D01*
X157301911Y-107922558D01*
X157261716Y-108008757D01*
X157260294Y-108014065D01*
X157260293Y-108014067D01*
X157209613Y-108203207D01*
X157202457Y-108229913D01*
X157182502Y-108458000D01*
X157202457Y-108686087D01*
X157203881Y-108691400D01*
X157203881Y-108691402D01*
X157224613Y-108768772D01*
X157261716Y-108907243D01*
X157264039Y-108912224D01*
X157264039Y-108912225D01*
X157356151Y-109109762D01*
X157356154Y-109109767D01*
X157358477Y-109114749D01*
X157414030Y-109194087D01*
X157486265Y-109297248D01*
X157489802Y-109302300D01*
X157651700Y-109464198D01*
X157656208Y-109467355D01*
X157656211Y-109467357D01*
X157734389Y-109522098D01*
X157839251Y-109595523D01*
X157844233Y-109597846D01*
X157844238Y-109597849D01*
X158037570Y-109688000D01*
X158046757Y-109692284D01*
X158052065Y-109693706D01*
X158052067Y-109693707D01*
X158262598Y-109750119D01*
X158262600Y-109750119D01*
X158267913Y-109751543D01*
X158496000Y-109771498D01*
X158724087Y-109751543D01*
X158729400Y-109750119D01*
X158729402Y-109750119D01*
X158939933Y-109693707D01*
X158939935Y-109693706D01*
X158945243Y-109692284D01*
X158954430Y-109688000D01*
X159147762Y-109597849D01*
X159147767Y-109597846D01*
X159152749Y-109595523D01*
X159257611Y-109522098D01*
X159335789Y-109467357D01*
X159335792Y-109467355D01*
X159340300Y-109464198D01*
X159502198Y-109302300D01*
X159505736Y-109297248D01*
X159577970Y-109194087D01*
X159633523Y-109114749D01*
X159635846Y-109109767D01*
X159635849Y-109109762D01*
X159727961Y-108912225D01*
X159727961Y-108912224D01*
X159730284Y-108907243D01*
X159767388Y-108768772D01*
X159788119Y-108691402D01*
X159788119Y-108691400D01*
X159789543Y-108686087D01*
X159809498Y-108458000D01*
X159789543Y-108229913D01*
X159788119Y-108224598D01*
X159788118Y-108224591D01*
X159780730Y-108197020D01*
X159782419Y-108126044D01*
X159813341Y-108075313D01*
X160254047Y-107634607D01*
X160260313Y-107628753D01*
X160295025Y-107598472D01*
X160300752Y-107593476D01*
X160334892Y-107544900D01*
X160338818Y-107539614D01*
X160370774Y-107498858D01*
X160375463Y-107492878D01*
X160378591Y-107485950D01*
X160382319Y-107479794D01*
X160384954Y-107475175D01*
X160388362Y-107468819D01*
X160392731Y-107462603D01*
X160414292Y-107407302D01*
X160416848Y-107401221D01*
X160419284Y-107395826D01*
X160441290Y-107347088D01*
X160442675Y-107339614D01*
X160444817Y-107332780D01*
X160446284Y-107327632D01*
X160448077Y-107320647D01*
X160450838Y-107313566D01*
X160458586Y-107254711D01*
X160459618Y-107248195D01*
X160469056Y-107197272D01*
X160469056Y-107197270D01*
X160470440Y-107189803D01*
X160467461Y-107138128D01*
X160467109Y-107132032D01*
X160466900Y-107124779D01*
X160466900Y-102389263D01*
X160467192Y-102380692D01*
X160468564Y-102360570D01*
X160470842Y-102327157D01*
X160460630Y-102268648D01*
X160459669Y-102262132D01*
X160453450Y-102210737D01*
X160453449Y-102210734D01*
X160452537Y-102203195D01*
X160449852Y-102196089D01*
X160448144Y-102189136D01*
X160446729Y-102183963D01*
X160444645Y-102177061D01*
X160443339Y-102169577D01*
X160440287Y-102162624D01*
X160440285Y-102162618D01*
X160419480Y-102115224D01*
X160416987Y-102109115D01*
X160398681Y-102060669D01*
X160398680Y-102060667D01*
X160395994Y-102053559D01*
X160391690Y-102047297D01*
X160388364Y-102040935D01*
X160385754Y-102036247D01*
X160382095Y-102030060D01*
X160379042Y-102023104D01*
X160342898Y-101975999D01*
X160339023Y-101970666D01*
X160337003Y-101967727D01*
X160305389Y-101921729D01*
X160262180Y-101883231D01*
X160256905Y-101878251D01*
X158898466Y-100519812D01*
X157523560Y-99144907D01*
X157489534Y-99082595D01*
X157494599Y-99011780D01*
X157537146Y-98954944D01*
X157603666Y-98930133D01*
X157645265Y-98934105D01*
X157799913Y-98975543D01*
X158028000Y-98995498D01*
X158256087Y-98975543D01*
X158261400Y-98974119D01*
X158261402Y-98974119D01*
X158471933Y-98917707D01*
X158471935Y-98917706D01*
X158477243Y-98916284D01*
X158514217Y-98899043D01*
X158679762Y-98821849D01*
X158679767Y-98821846D01*
X158684749Y-98819523D01*
X158789611Y-98746098D01*
X158867789Y-98691357D01*
X158867792Y-98691355D01*
X158872300Y-98688198D01*
X159034198Y-98526300D01*
X159054653Y-98497088D01*
X159096104Y-98437890D01*
X159151562Y-98393562D01*
X159222181Y-98386253D01*
X159288412Y-98421066D01*
X161430302Y-100562956D01*
X161464328Y-100625268D01*
X161457405Y-100700774D01*
X161428148Y-100770545D01*
X161361981Y-101031077D01*
X161335050Y-101298526D01*
X161335274Y-101303192D01*
X161335274Y-101303197D01*
X161337854Y-101356897D01*
X161347947Y-101567019D01*
X161400388Y-101830656D01*
X161491220Y-102083646D01*
X161493432Y-102087762D01*
X161493433Y-102087765D01*
X161570488Y-102231170D01*
X161618450Y-102320431D01*
X161621241Y-102324168D01*
X161621245Y-102324175D01*
X161669849Y-102389263D01*
X161779281Y-102535810D01*
X161782590Y-102539090D01*
X161782595Y-102539096D01*
X161966863Y-102721762D01*
X161970180Y-102725050D01*
X161973942Y-102727808D01*
X161973945Y-102727811D01*
X162073145Y-102800547D01*
X162186954Y-102883995D01*
X162191089Y-102886171D01*
X162191093Y-102886173D01*
X162414597Y-103003765D01*
X162424840Y-103009154D01*
X162678613Y-103097775D01*
X162683206Y-103098647D01*
X162938109Y-103147042D01*
X162938112Y-103147042D01*
X162942698Y-103147913D01*
X163069933Y-103152912D01*
X163206625Y-103158283D01*
X163206630Y-103158283D01*
X163211293Y-103158466D01*
X163320894Y-103146463D01*
X163473844Y-103129713D01*
X163473850Y-103129712D01*
X163478497Y-103129203D01*
X163483021Y-103128012D01*
X163733918Y-103061956D01*
X163733920Y-103061955D01*
X163738441Y-103060765D01*
X163742738Y-103058919D01*
X163981120Y-102956502D01*
X163981122Y-102956501D01*
X163985414Y-102954657D01*
X164104071Y-102881230D01*
X164210017Y-102815669D01*
X164210021Y-102815666D01*
X164213990Y-102813210D01*
X164419149Y-102639530D01*
X164419379Y-102639802D01*
X164479786Y-102607495D01*
X164550555Y-102613174D01*
X164607020Y-102656212D01*
X164631252Y-102722945D01*
X164631500Y-102730843D01*
X164631500Y-108141724D01*
X164630763Y-108155332D01*
X164626638Y-108193304D01*
X164627768Y-108206217D01*
X164631046Y-108243690D01*
X164631375Y-108248518D01*
X164631500Y-108251073D01*
X164631500Y-108254157D01*
X164631801Y-108257224D01*
X164635722Y-108297219D01*
X164635844Y-108298532D01*
X164637218Y-108314238D01*
X164644012Y-108391892D01*
X164645511Y-108397052D01*
X164646035Y-108402394D01*
X164671383Y-108486350D01*
X164673098Y-108492031D01*
X164673455Y-108493236D01*
X164699628Y-108583322D01*
X164702100Y-108588090D01*
X164703652Y-108593232D01*
X164706547Y-108598677D01*
X164706550Y-108598684D01*
X164747633Y-108675950D01*
X164748213Y-108677054D01*
X164791366Y-108760304D01*
X164794718Y-108764503D01*
X164797239Y-108769244D01*
X164801131Y-108774016D01*
X164856438Y-108841829D01*
X164857266Y-108842855D01*
X164874865Y-108864900D01*
X164888768Y-108882316D01*
X164891263Y-108884811D01*
X164891973Y-108885605D01*
X164895693Y-108889960D01*
X164919337Y-108918951D01*
X164919340Y-108918954D01*
X164923232Y-108923726D01*
X164927980Y-108927654D01*
X164927981Y-108927655D01*
X164958873Y-108953211D01*
X164967652Y-108961200D01*
X169393967Y-113387515D01*
X169427993Y-113449827D01*
X169430392Y-113465627D01*
X169434457Y-113512087D01*
X169463774Y-113621498D01*
X169481339Y-113687050D01*
X169493716Y-113733243D01*
X169496039Y-113738224D01*
X169496039Y-113738225D01*
X169588151Y-113935762D01*
X169588154Y-113935767D01*
X169590477Y-113940749D01*
X169672741Y-114058233D01*
X169688713Y-114081044D01*
X169711500Y-114153315D01*
X169711500Y-116131812D01*
X169691498Y-116199933D01*
X169674595Y-116220907D01*
X169645802Y-116249700D01*
X169642645Y-116254208D01*
X169642643Y-116254211D01*
X169609320Y-116301802D01*
X169514477Y-116437251D01*
X169512154Y-116442233D01*
X169512151Y-116442238D01*
X169425950Y-116627098D01*
X169417716Y-116644757D01*
X169416294Y-116650065D01*
X169416293Y-116650067D01*
X169359881Y-116860598D01*
X169358457Y-116865913D01*
X169338502Y-117094000D01*
X169358457Y-117322087D01*
X169359881Y-117327400D01*
X169359881Y-117327402D01*
X169413905Y-117529019D01*
X169417716Y-117543243D01*
X169420039Y-117548224D01*
X169420039Y-117548225D01*
X169512151Y-117745762D01*
X169512154Y-117745767D01*
X169514477Y-117750749D01*
X169645802Y-117938300D01*
X169807700Y-118100198D01*
X169812208Y-118103355D01*
X169812211Y-118103357D01*
X169875667Y-118147789D01*
X169995251Y-118231523D01*
X170000233Y-118233846D01*
X170000238Y-118233849D01*
X170197775Y-118325961D01*
X170202757Y-118328284D01*
X170208065Y-118329706D01*
X170208067Y-118329707D01*
X170418598Y-118386119D01*
X170418600Y-118386119D01*
X170423913Y-118387543D01*
X170652000Y-118407498D01*
X170880087Y-118387543D01*
X170885400Y-118386119D01*
X170885402Y-118386119D01*
X171095933Y-118329707D01*
X171095935Y-118329706D01*
X171101243Y-118328284D01*
X171106225Y-118325961D01*
X171303762Y-118233849D01*
X171303767Y-118233846D01*
X171308749Y-118231523D01*
X171428333Y-118147789D01*
X171491789Y-118103357D01*
X171491792Y-118103355D01*
X171496300Y-118100198D01*
X171658198Y-117938300D01*
X171789523Y-117750749D01*
X171791846Y-117745767D01*
X171791849Y-117745762D01*
X171883961Y-117548225D01*
X171883961Y-117548224D01*
X171886284Y-117543243D01*
X171890096Y-117529019D01*
X171944119Y-117327402D01*
X171944119Y-117327400D01*
X171945543Y-117322087D01*
X171965498Y-117094000D01*
X171945543Y-116865913D01*
X171944119Y-116860598D01*
X171887707Y-116650067D01*
X171887706Y-116650065D01*
X171886284Y-116644757D01*
X171878050Y-116627098D01*
X171791849Y-116442238D01*
X171791846Y-116442233D01*
X171789523Y-116437251D01*
X171767287Y-116405495D01*
X171744500Y-116333224D01*
X171744500Y-114153315D01*
X171767287Y-114081044D01*
X171783259Y-114058233D01*
X171865523Y-113940749D01*
X171867846Y-113935767D01*
X171867849Y-113935762D01*
X171959961Y-113738225D01*
X171959961Y-113738224D01*
X171962284Y-113733243D01*
X171974662Y-113687050D01*
X172020119Y-113517402D01*
X172020119Y-113517400D01*
X172021543Y-113512087D01*
X172041498Y-113284000D01*
X172021543Y-113055913D01*
X172009080Y-113009402D01*
X171963707Y-112840067D01*
X171963706Y-112840065D01*
X171962284Y-112834757D01*
X171939389Y-112785658D01*
X171867849Y-112632238D01*
X171867846Y-112632233D01*
X171865523Y-112627251D01*
X171734198Y-112439700D01*
X171572300Y-112277802D01*
X171567792Y-112274645D01*
X171567789Y-112274643D01*
X171489611Y-112219902D01*
X171384749Y-112146477D01*
X171379767Y-112144154D01*
X171379762Y-112144151D01*
X171182225Y-112052039D01*
X171182224Y-112052039D01*
X171177243Y-112049716D01*
X171171935Y-112048294D01*
X171171933Y-112048293D01*
X171093748Y-112027343D01*
X170956087Y-111990457D01*
X170926272Y-111987848D01*
X170909627Y-111986392D01*
X170843509Y-111960529D01*
X170831515Y-111949967D01*
X166701405Y-107819857D01*
X166667379Y-107757545D01*
X166664500Y-107730762D01*
X166664500Y-102724350D01*
X166684502Y-102656229D01*
X166738158Y-102609736D01*
X166808432Y-102599632D01*
X166873012Y-102629126D01*
X166879197Y-102634857D01*
X166970180Y-102725050D01*
X166973942Y-102727808D01*
X166973945Y-102727811D01*
X167073145Y-102800547D01*
X167186954Y-102883995D01*
X167191089Y-102886171D01*
X167191093Y-102886173D01*
X167414597Y-103003765D01*
X167424840Y-103009154D01*
X167678613Y-103097775D01*
X167683206Y-103098647D01*
X167938109Y-103147042D01*
X167938112Y-103147042D01*
X167942698Y-103147913D01*
X168069933Y-103152912D01*
X168206625Y-103158283D01*
X168206630Y-103158283D01*
X168211293Y-103158466D01*
X168320894Y-103146463D01*
X168473844Y-103129713D01*
X168473850Y-103129712D01*
X168478497Y-103129203D01*
X168483021Y-103128012D01*
X168733918Y-103061956D01*
X168733920Y-103061955D01*
X168738441Y-103060765D01*
X168742738Y-103058919D01*
X168742744Y-103058917D01*
X168792657Y-103037472D01*
X168863142Y-103028959D01*
X168931491Y-103064144D01*
X170902076Y-105034729D01*
X170936102Y-105097041D01*
X170938143Y-105116031D01*
X170938502Y-105116000D01*
X170958457Y-105344087D01*
X170959881Y-105349400D01*
X170959881Y-105349402D01*
X171006828Y-105524607D01*
X171017716Y-105565243D01*
X171020039Y-105570224D01*
X171020039Y-105570225D01*
X171112151Y-105767762D01*
X171112154Y-105767767D01*
X171114477Y-105772749D01*
X171166326Y-105846797D01*
X171217264Y-105919543D01*
X171245802Y-105960300D01*
X171407700Y-106122198D01*
X171412208Y-106125355D01*
X171412211Y-106125357D01*
X171452448Y-106153531D01*
X171595251Y-106253523D01*
X171600233Y-106255846D01*
X171600238Y-106255849D01*
X171797775Y-106347961D01*
X171802757Y-106350284D01*
X171808065Y-106351706D01*
X171808067Y-106351707D01*
X172018598Y-106408119D01*
X172018600Y-106408119D01*
X172023913Y-106409543D01*
X172252000Y-106429498D01*
X172480087Y-106409543D01*
X172485400Y-106408119D01*
X172485402Y-106408119D01*
X172695933Y-106351707D01*
X172695935Y-106351706D01*
X172701243Y-106350284D01*
X172706225Y-106347961D01*
X172903762Y-106255849D01*
X172903767Y-106255846D01*
X172908749Y-106253523D01*
X173051552Y-106153531D01*
X173091789Y-106125357D01*
X173091792Y-106125355D01*
X173096300Y-106122198D01*
X173258198Y-105960300D01*
X173286737Y-105919543D01*
X173337674Y-105846797D01*
X173389523Y-105772749D01*
X173391846Y-105767767D01*
X173391849Y-105767762D01*
X173483961Y-105570225D01*
X173483961Y-105570224D01*
X173486284Y-105565243D01*
X173497173Y-105524607D01*
X173544119Y-105349402D01*
X173544119Y-105349400D01*
X173545543Y-105344087D01*
X173565498Y-105116000D01*
X173545543Y-104887913D01*
X173486284Y-104666757D01*
X173467796Y-104627109D01*
X173391849Y-104464238D01*
X173391846Y-104464233D01*
X173389523Y-104459251D01*
X173276710Y-104298138D01*
X173261357Y-104276211D01*
X173261355Y-104276208D01*
X173258198Y-104271700D01*
X173096300Y-104109802D01*
X173091792Y-104106645D01*
X173091789Y-104106643D01*
X173013611Y-104051902D01*
X172908749Y-103978477D01*
X172903767Y-103976154D01*
X172903762Y-103976151D01*
X172706225Y-103884039D01*
X172706224Y-103884039D01*
X172701243Y-103881716D01*
X172695935Y-103880294D01*
X172695933Y-103880293D01*
X172485402Y-103823881D01*
X172485400Y-103823881D01*
X172480087Y-103822457D01*
X172252000Y-103802502D01*
X172023913Y-103822457D01*
X172018600Y-103823881D01*
X172018598Y-103823881D01*
X171808067Y-103880293D01*
X171808065Y-103880294D01*
X171802757Y-103881716D01*
X171797773Y-103884040D01*
X171797765Y-103884043D01*
X171756964Y-103903068D01*
X171686773Y-103913729D01*
X171621960Y-103884748D01*
X171614621Y-103877968D01*
X169867362Y-102130709D01*
X169833336Y-102068397D01*
X169838401Y-101997582D01*
X169841574Y-101989865D01*
X169844128Y-101984194D01*
X169852199Y-101966278D01*
X169854117Y-101959479D01*
X169923893Y-101712072D01*
X169923894Y-101712069D01*
X169925163Y-101707568D01*
X169943043Y-101567019D01*
X169958688Y-101444045D01*
X169958688Y-101444041D01*
X169959086Y-101440915D01*
X169959398Y-101429019D01*
X169960477Y-101387779D01*
X169961571Y-101346000D01*
X169953357Y-101235476D01*
X169941996Y-101082592D01*
X169941996Y-101082591D01*
X169941650Y-101077937D01*
X169930020Y-101026538D01*
X169883361Y-100820331D01*
X169883360Y-100820326D01*
X169882327Y-100815763D01*
X169784902Y-100565238D01*
X169651518Y-100331864D01*
X169635748Y-100311859D01*
X169538483Y-100188479D01*
X169485105Y-100120769D01*
X169289317Y-99936591D01*
X169124857Y-99822500D01*
X169072299Y-99786039D01*
X169072296Y-99786037D01*
X169068457Y-99783374D01*
X169064264Y-99781306D01*
X168831564Y-99666551D01*
X168831561Y-99666550D01*
X168827376Y-99664486D01*
X168818214Y-99661553D01*
X168701119Y-99624071D01*
X168571370Y-99582538D01*
X168566763Y-99581788D01*
X168566760Y-99581787D01*
X168310674Y-99540081D01*
X168310675Y-99540081D01*
X168306063Y-99539330D01*
X168175719Y-99537624D01*
X168041961Y-99535873D01*
X168041958Y-99535873D01*
X168037284Y-99535812D01*
X167770937Y-99572060D01*
X167766451Y-99573368D01*
X167766449Y-99573368D01*
X167740989Y-99580789D01*
X167512874Y-99647278D01*
X167508621Y-99649238D01*
X167508620Y-99649239D01*
X167502594Y-99652017D01*
X167268763Y-99759815D01*
X167253030Y-99770130D01*
X167047881Y-99904631D01*
X167047876Y-99904635D01*
X167043968Y-99907197D01*
X166988620Y-99956597D01*
X166885046Y-100049041D01*
X166843426Y-100086188D01*
X166840433Y-100089786D01*
X166837189Y-100093146D01*
X166836216Y-100092206D01*
X166782268Y-100128430D01*
X166711285Y-100129858D01*
X166650799Y-100092683D01*
X166623723Y-100044689D01*
X166622870Y-100041863D01*
X166622519Y-100040678D01*
X166598092Y-99956597D01*
X166598090Y-99956591D01*
X166596372Y-99950679D01*
X166593901Y-99945912D01*
X166592348Y-99940768D01*
X166548328Y-99857978D01*
X166547762Y-99856900D01*
X166540862Y-99843588D01*
X166504634Y-99773696D01*
X166501282Y-99769497D01*
X166498761Y-99764756D01*
X166490391Y-99754493D01*
X166439562Y-99692171D01*
X166438734Y-99691145D01*
X166409429Y-99654436D01*
X166409428Y-99654435D01*
X166407232Y-99651684D01*
X166404737Y-99649189D01*
X166404027Y-99648395D01*
X166400307Y-99644040D01*
X166376663Y-99615049D01*
X166376660Y-99615046D01*
X166372768Y-99610274D01*
X166363415Y-99602536D01*
X166337127Y-99580789D01*
X166328348Y-99572800D01*
X162625239Y-95869691D01*
X162591213Y-95807379D01*
X162596278Y-95736564D01*
X162638825Y-95679728D01*
X162661085Y-95666401D01*
X162743758Y-95627851D01*
X162743764Y-95627847D01*
X162748749Y-95625523D01*
X162854649Y-95551371D01*
X162931789Y-95497357D01*
X162931792Y-95497355D01*
X162936300Y-95494198D01*
X163098198Y-95332300D01*
X163105464Y-95321923D01*
X163188995Y-95202629D01*
X163244452Y-95158301D01*
X163292208Y-95148900D01*
X164564737Y-95148900D01*
X164573308Y-95149192D01*
X164626843Y-95152842D01*
X164634320Y-95151537D01*
X164634321Y-95151537D01*
X164659626Y-95147121D01*
X164685347Y-95142631D01*
X164691865Y-95141670D01*
X164710223Y-95139448D01*
X164743262Y-95135450D01*
X164743264Y-95135450D01*
X164750805Y-95134537D01*
X164757913Y-95131851D01*
X164764879Y-95130140D01*
X164770068Y-95128721D01*
X164776947Y-95126644D01*
X164784424Y-95125339D01*
X164838795Y-95101471D01*
X164844886Y-95098986D01*
X164852289Y-95096189D01*
X164878854Y-95086151D01*
X164893336Y-95080679D01*
X164893338Y-95080678D01*
X164900441Y-95077994D01*
X164906702Y-95073691D01*
X164913026Y-95070385D01*
X164917798Y-95067729D01*
X164923944Y-95064094D01*
X164930896Y-95061042D01*
X164978001Y-95024898D01*
X164983334Y-95021023D01*
X165030101Y-94988880D01*
X165097568Y-94966780D01*
X165134081Y-94971014D01*
X165160594Y-94978119D01*
X165160608Y-94978121D01*
X165165913Y-94979543D01*
X165394000Y-94999498D01*
X165622087Y-94979543D01*
X165627398Y-94978120D01*
X165627409Y-94978118D01*
X165654980Y-94970730D01*
X165725956Y-94972419D01*
X165776687Y-95003341D01*
X167955386Y-97182039D01*
X167961239Y-97188304D01*
X167996524Y-97228752D01*
X168017729Y-97243655D01*
X168045099Y-97262891D01*
X168050393Y-97266823D01*
X168097121Y-97303463D01*
X168104047Y-97306590D01*
X168110176Y-97310302D01*
X168114815Y-97312949D01*
X168121182Y-97316363D01*
X168127397Y-97320731D01*
X168134472Y-97323490D01*
X168134475Y-97323491D01*
X168182703Y-97342294D01*
X168188781Y-97344849D01*
X168242912Y-97369290D01*
X168250380Y-97370674D01*
X168257196Y-97372810D01*
X168262368Y-97374284D01*
X168269353Y-97376077D01*
X168276434Y-97378838D01*
X168283971Y-97379830D01*
X168283970Y-97379830D01*
X168335289Y-97386586D01*
X168341805Y-97387618D01*
X168392728Y-97397056D01*
X168392730Y-97397056D01*
X168400197Y-97398440D01*
X168407777Y-97398003D01*
X168407778Y-97398003D01*
X168457968Y-97395109D01*
X168465221Y-97394900D01*
X170733605Y-97394900D01*
X170801726Y-97414902D01*
X170848356Y-97469240D01*
X170849220Y-97471646D01*
X170851433Y-97475765D01*
X170851435Y-97475769D01*
X170917844Y-97599361D01*
X170976450Y-97708431D01*
X170979241Y-97712168D01*
X170979245Y-97712175D01*
X171060887Y-97821506D01*
X171137281Y-97923810D01*
X171140590Y-97927090D01*
X171140595Y-97927096D01*
X171278452Y-98063754D01*
X171328180Y-98113050D01*
X171331942Y-98115808D01*
X171331945Y-98115811D01*
X171539605Y-98268073D01*
X171582713Y-98324484D01*
X171591100Y-98369685D01*
X171591100Y-98915792D01*
X171571098Y-98983913D01*
X171537371Y-99019005D01*
X171412211Y-99106643D01*
X171412208Y-99106645D01*
X171407700Y-99109802D01*
X171245802Y-99271700D01*
X171114477Y-99459251D01*
X171112154Y-99464233D01*
X171112151Y-99464238D01*
X171024589Y-99652017D01*
X171017716Y-99666757D01*
X171016294Y-99672065D01*
X171016293Y-99672067D01*
X170966454Y-99858068D01*
X170958457Y-99887913D01*
X170938502Y-100116000D01*
X170958457Y-100344087D01*
X170959881Y-100349400D01*
X170959881Y-100349402D01*
X171007307Y-100526395D01*
X171017716Y-100565243D01*
X171020039Y-100570224D01*
X171020039Y-100570225D01*
X171112151Y-100767762D01*
X171112154Y-100767767D01*
X171114477Y-100772749D01*
X171187257Y-100876689D01*
X171201309Y-100896757D01*
X171245802Y-100960300D01*
X171407700Y-101122198D01*
X171412208Y-101125355D01*
X171412211Y-101125357D01*
X171490389Y-101180098D01*
X171595251Y-101253523D01*
X171600233Y-101255846D01*
X171600238Y-101255849D01*
X171797775Y-101347961D01*
X171802757Y-101350284D01*
X171808065Y-101351706D01*
X171808067Y-101351707D01*
X172018598Y-101408119D01*
X172018600Y-101408119D01*
X172023913Y-101409543D01*
X172252000Y-101429498D01*
X172480087Y-101409543D01*
X172485400Y-101408119D01*
X172485402Y-101408119D01*
X172695933Y-101351707D01*
X172695935Y-101351706D01*
X172701243Y-101350284D01*
X172706225Y-101347961D01*
X172903762Y-101255849D01*
X172903767Y-101255846D01*
X172908749Y-101253523D01*
X173013611Y-101180098D01*
X173091789Y-101125357D01*
X173091792Y-101125355D01*
X173096300Y-101122198D01*
X173258198Y-100960300D01*
X173302692Y-100896757D01*
X173316743Y-100876689D01*
X173389523Y-100772749D01*
X173391846Y-100767767D01*
X173391849Y-100767762D01*
X173483961Y-100570225D01*
X173483961Y-100570224D01*
X173486284Y-100565243D01*
X173496694Y-100526395D01*
X173544119Y-100349402D01*
X173544119Y-100349400D01*
X173545543Y-100344087D01*
X173565498Y-100116000D01*
X173545543Y-99887913D01*
X173537546Y-99858068D01*
X173487707Y-99672067D01*
X173487706Y-99672065D01*
X173486284Y-99666757D01*
X173479411Y-99652017D01*
X173391849Y-99464238D01*
X173391846Y-99464233D01*
X173389523Y-99459251D01*
X173258198Y-99271700D01*
X173096300Y-99109802D01*
X173091792Y-99106645D01*
X173091789Y-99106643D01*
X172966629Y-99019005D01*
X172922301Y-98963548D01*
X172912900Y-98915792D01*
X172912900Y-98594209D01*
X172932902Y-98526088D01*
X172986558Y-98479595D01*
X173006819Y-98472361D01*
X173091921Y-98449955D01*
X173096441Y-98448765D01*
X173100738Y-98446919D01*
X173339120Y-98344502D01*
X173339122Y-98344501D01*
X173343414Y-98342657D01*
X173463941Y-98268073D01*
X173568017Y-98203669D01*
X173568021Y-98203666D01*
X173571990Y-98201210D01*
X173777149Y-98027530D01*
X173954382Y-97825434D01*
X173959636Y-97817267D01*
X174079321Y-97631195D01*
X174099797Y-97599361D01*
X174210199Y-97354278D01*
X174222602Y-97310302D01*
X174281893Y-97100072D01*
X174281894Y-97100069D01*
X174283163Y-97095568D01*
X174290273Y-97039683D01*
X174316688Y-96832045D01*
X174316688Y-96832041D01*
X174317086Y-96828915D01*
X174319571Y-96734000D01*
X174299650Y-96465937D01*
X174293343Y-96438064D01*
X174241361Y-96208331D01*
X174241360Y-96208326D01*
X174240327Y-96203763D01*
X174142902Y-95953238D01*
X174009518Y-95719864D01*
X174001249Y-95709374D01*
X173907048Y-95589881D01*
X173843105Y-95508769D01*
X173647317Y-95324591D01*
X173470626Y-95202015D01*
X173430299Y-95174039D01*
X173430296Y-95174037D01*
X173426457Y-95171374D01*
X173422264Y-95169306D01*
X173189564Y-95054551D01*
X173189561Y-95054550D01*
X173185376Y-95052486D01*
X173163243Y-95045401D01*
X173023162Y-95000561D01*
X172929370Y-94970538D01*
X172924763Y-94969788D01*
X172924760Y-94969787D01*
X172668674Y-94928081D01*
X172668675Y-94928081D01*
X172664063Y-94927330D01*
X172533719Y-94925624D01*
X172399961Y-94923873D01*
X172399958Y-94923873D01*
X172395284Y-94923812D01*
X172128937Y-94960060D01*
X172124451Y-94961368D01*
X172124449Y-94961368D01*
X172079989Y-94974327D01*
X171870874Y-95035278D01*
X171866621Y-95037238D01*
X171866620Y-95037239D01*
X171836634Y-95051063D01*
X171626763Y-95147815D01*
X171613286Y-95156651D01*
X171405881Y-95292631D01*
X171405876Y-95292635D01*
X171401968Y-95295197D01*
X171350786Y-95340879D01*
X171238077Y-95441476D01*
X171201426Y-95474188D01*
X171122986Y-95568502D01*
X171055173Y-95650039D01*
X171029544Y-95680854D01*
X171027121Y-95684847D01*
X170911556Y-95875292D01*
X170890096Y-95910656D01*
X170888287Y-95914970D01*
X170888285Y-95914974D01*
X170854382Y-95995825D01*
X170809594Y-96050911D01*
X170738185Y-96073100D01*
X168767944Y-96073100D01*
X168699823Y-96053098D01*
X168678849Y-96036195D01*
X167695140Y-95052486D01*
X166711341Y-94068688D01*
X166677316Y-94006376D01*
X166678729Y-93946982D01*
X166686119Y-93919402D01*
X166686119Y-93919400D01*
X166687543Y-93914087D01*
X166707498Y-93686000D01*
X166687543Y-93457913D01*
X166661720Y-93361540D01*
X166629707Y-93242067D01*
X166629706Y-93242065D01*
X166628284Y-93236757D01*
X166624897Y-93229493D01*
X166533849Y-93034238D01*
X166533846Y-93034233D01*
X166531523Y-93029251D01*
X166400198Y-92841700D01*
X166238300Y-92679802D01*
X166233792Y-92676645D01*
X166233789Y-92676643D01*
X166140121Y-92611056D01*
X166050749Y-92548477D01*
X166045767Y-92546154D01*
X166045762Y-92546151D01*
X165848225Y-92454039D01*
X165848224Y-92454039D01*
X165843243Y-92451716D01*
X165837935Y-92450294D01*
X165837933Y-92450293D01*
X165627402Y-92393881D01*
X165627400Y-92393881D01*
X165622087Y-92392457D01*
X165394000Y-92372502D01*
X165165913Y-92392457D01*
X165160600Y-92393881D01*
X165160598Y-92393881D01*
X164950067Y-92450293D01*
X164950065Y-92450294D01*
X164944757Y-92451716D01*
X164939776Y-92454039D01*
X164939775Y-92454039D01*
X164742238Y-92546151D01*
X164742233Y-92546154D01*
X164737251Y-92548477D01*
X164647879Y-92611056D01*
X164554211Y-92676643D01*
X164554208Y-92676645D01*
X164549700Y-92679802D01*
X164387802Y-92841700D01*
X164256477Y-93029251D01*
X164254154Y-93034233D01*
X164254151Y-93034238D01*
X164163103Y-93229493D01*
X164159716Y-93236757D01*
X164158294Y-93242065D01*
X164158293Y-93242067D01*
X164126280Y-93361540D01*
X164100457Y-93457913D01*
X164080502Y-93686000D01*
X164080981Y-93691475D01*
X164080981Y-93696982D01*
X164079484Y-93696982D01*
X164066869Y-93759731D01*
X164017466Y-93810720D01*
X163955341Y-93827100D01*
X163292208Y-93827100D01*
X163224087Y-93807098D01*
X163188995Y-93773371D01*
X163101357Y-93648211D01*
X163101355Y-93648208D01*
X163098198Y-93643700D01*
X162936300Y-93481802D01*
X162931792Y-93478645D01*
X162931789Y-93478643D01*
X162853611Y-93423902D01*
X162748749Y-93350477D01*
X162743767Y-93348154D01*
X162743762Y-93348151D01*
X162546225Y-93256039D01*
X162546224Y-93256039D01*
X162541243Y-93253716D01*
X162535935Y-93252294D01*
X162535933Y-93252293D01*
X162325402Y-93195881D01*
X162325400Y-93195881D01*
X162320087Y-93194457D01*
X162092000Y-93174502D01*
X161863913Y-93194457D01*
X161858600Y-93195881D01*
X161858598Y-93195881D01*
X161648067Y-93252293D01*
X161648065Y-93252294D01*
X161642757Y-93253716D01*
X161637776Y-93256039D01*
X161637775Y-93256039D01*
X161440238Y-93348151D01*
X161440233Y-93348154D01*
X161435251Y-93350477D01*
X161330389Y-93423902D01*
X161252211Y-93478643D01*
X161252208Y-93478645D01*
X161247700Y-93481802D01*
X161085802Y-93643700D01*
X161082645Y-93648208D01*
X161082643Y-93648211D01*
X161056183Y-93686000D01*
X160954477Y-93831251D01*
X160952153Y-93836236D01*
X160952149Y-93836242D01*
X160913599Y-93918915D01*
X160866683Y-93972200D01*
X160798405Y-93991662D01*
X160730445Y-93971121D01*
X160710309Y-93954761D01*
X157811405Y-91055857D01*
X157777379Y-90993545D01*
X157774500Y-90966762D01*
X157774500Y-88138000D01*
X168438502Y-88138000D01*
X168458457Y-88366087D01*
X168459881Y-88371400D01*
X168459881Y-88371402D01*
X168516293Y-88581931D01*
X168517716Y-88587243D01*
X168520039Y-88592224D01*
X168520039Y-88592225D01*
X168612151Y-88789762D01*
X168612154Y-88789767D01*
X168614477Y-88794749D01*
X168745802Y-88982300D01*
X168907700Y-89144198D01*
X168912208Y-89147355D01*
X168912211Y-89147357D01*
X168990389Y-89202098D01*
X169095251Y-89275523D01*
X169100233Y-89277846D01*
X169100238Y-89277849D01*
X169297775Y-89369961D01*
X169302757Y-89372284D01*
X169308065Y-89373706D01*
X169308067Y-89373707D01*
X169518598Y-89430119D01*
X169518600Y-89430119D01*
X169523913Y-89431543D01*
X169752000Y-89451498D01*
X169980087Y-89431543D01*
X169985398Y-89430120D01*
X169985409Y-89430118D01*
X170012980Y-89422730D01*
X170083956Y-89424419D01*
X170134687Y-89455341D01*
X171098396Y-90419050D01*
X171132422Y-90481362D01*
X171127357Y-90552177D01*
X171106177Y-90588712D01*
X171029544Y-90680854D01*
X170890096Y-90910656D01*
X170888287Y-90914970D01*
X170888285Y-90914974D01*
X170798137Y-91129955D01*
X170786148Y-91158545D01*
X170719981Y-91419077D01*
X170693050Y-91686526D01*
X170693274Y-91691192D01*
X170693274Y-91691197D01*
X170698095Y-91791560D01*
X170705947Y-91955019D01*
X170758388Y-92218656D01*
X170849220Y-92471646D01*
X170851432Y-92475762D01*
X170851433Y-92475765D01*
X170924128Y-92611056D01*
X170976450Y-92708431D01*
X170979241Y-92712168D01*
X170979245Y-92712175D01*
X171079335Y-92846211D01*
X171137281Y-92923810D01*
X171140590Y-92927090D01*
X171140595Y-92927096D01*
X171324863Y-93109762D01*
X171328180Y-93113050D01*
X171331942Y-93115808D01*
X171331945Y-93115811D01*
X171522092Y-93255232D01*
X171544954Y-93271995D01*
X171549089Y-93274171D01*
X171549093Y-93274173D01*
X171778698Y-93394975D01*
X171782840Y-93397154D01*
X172036613Y-93485775D01*
X172041206Y-93486647D01*
X172296109Y-93535042D01*
X172296112Y-93535042D01*
X172300698Y-93535913D01*
X172428370Y-93540929D01*
X172564625Y-93546283D01*
X172564630Y-93546283D01*
X172569293Y-93546466D01*
X172676392Y-93534737D01*
X172831844Y-93517713D01*
X172831850Y-93517712D01*
X172836497Y-93517203D01*
X172841021Y-93516012D01*
X173091918Y-93449956D01*
X173091920Y-93449955D01*
X173096441Y-93448765D01*
X173125689Y-93436199D01*
X173339120Y-93344502D01*
X173339122Y-93344501D01*
X173343414Y-93342657D01*
X173457603Y-93271995D01*
X173568017Y-93203669D01*
X173568021Y-93203666D01*
X173571990Y-93201210D01*
X173777149Y-93027530D01*
X173954382Y-92825434D01*
X173975695Y-92792300D01*
X174091665Y-92612003D01*
X174099797Y-92599361D01*
X174210199Y-92354278D01*
X174247209Y-92223051D01*
X174281893Y-92100072D01*
X174281894Y-92100069D01*
X174283163Y-92095568D01*
X174300460Y-91959604D01*
X174316688Y-91832045D01*
X174316688Y-91832041D01*
X174317086Y-91828915D01*
X174317385Y-91817521D01*
X174319488Y-91737160D01*
X174319571Y-91734000D01*
X174299650Y-91465937D01*
X174297367Y-91455848D01*
X174241361Y-91208331D01*
X174241360Y-91208326D01*
X174240327Y-91203763D01*
X174142902Y-90953238D01*
X174009518Y-90719864D01*
X174004672Y-90713716D01*
X173906128Y-90588714D01*
X173843105Y-90508769D01*
X173647317Y-90324591D01*
X173490751Y-90215976D01*
X173430299Y-90174039D01*
X173430296Y-90174037D01*
X173426457Y-90171374D01*
X173422264Y-90169306D01*
X173189564Y-90054551D01*
X173189561Y-90054550D01*
X173185376Y-90052486D01*
X173149232Y-90040916D01*
X173028273Y-90002197D01*
X172929370Y-89970538D01*
X172924763Y-89969788D01*
X172924760Y-89969787D01*
X172668674Y-89928081D01*
X172668675Y-89928081D01*
X172664063Y-89927330D01*
X172609660Y-89926618D01*
X172524711Y-89925506D01*
X172456858Y-89904614D01*
X172437265Y-89888612D01*
X171069341Y-88520688D01*
X171035315Y-88458376D01*
X171036729Y-88398982D01*
X171044119Y-88371402D01*
X171044119Y-88371400D01*
X171045543Y-88366087D01*
X171065498Y-88138000D01*
X171045543Y-87909913D01*
X171044119Y-87904598D01*
X170987707Y-87694067D01*
X170987706Y-87694065D01*
X170986284Y-87688757D01*
X170965273Y-87643699D01*
X170891849Y-87486238D01*
X170891846Y-87486233D01*
X170889523Y-87481251D01*
X170798480Y-87351229D01*
X170761357Y-87298211D01*
X170761355Y-87298208D01*
X170758198Y-87293700D01*
X170596300Y-87131802D01*
X170591792Y-87128645D01*
X170591789Y-87128643D01*
X170466629Y-87041005D01*
X170422301Y-86985548D01*
X170412900Y-86937792D01*
X170412900Y-85906382D01*
X170432902Y-85838261D01*
X170486558Y-85791768D01*
X170556832Y-85781664D01*
X170585283Y-85789230D01*
X170595419Y-85793243D01*
X170707261Y-85837524D01*
X170711096Y-85838509D01*
X170711100Y-85838510D01*
X170861313Y-85877078D01*
X171015364Y-85916632D01*
X171019292Y-85917128D01*
X171019296Y-85917129D01*
X171144276Y-85932917D01*
X171330952Y-85956500D01*
X171649048Y-85956500D01*
X171835724Y-85932917D01*
X171960704Y-85917129D01*
X171960708Y-85917128D01*
X171964636Y-85916632D01*
X172125653Y-85875290D01*
X172268896Y-85838511D01*
X172268900Y-85838510D01*
X172272739Y-85837524D01*
X172276419Y-85836067D01*
X172276422Y-85836066D01*
X172413826Y-85781664D01*
X172568498Y-85720425D01*
X172617620Y-85693420D01*
X172843776Y-85569090D01*
X172843779Y-85569088D01*
X172847248Y-85567181D01*
X172850452Y-85564853D01*
X172850457Y-85564850D01*
X173101390Y-85382537D01*
X173101392Y-85382536D01*
X173104594Y-85380209D01*
X173143153Y-85344000D01*
X173333589Y-85165167D01*
X173336476Y-85162456D01*
X173503561Y-84960485D01*
X173536716Y-84920408D01*
X173536719Y-84920404D01*
X173539238Y-84917359D01*
X173671650Y-84708711D01*
X173707559Y-84652128D01*
X173707559Y-84652127D01*
X173709683Y-84648781D01*
X173711367Y-84645202D01*
X173711371Y-84645195D01*
X173843433Y-84364549D01*
X173843435Y-84364545D01*
X173845122Y-84360959D01*
X173943419Y-84058431D01*
X174003025Y-83745969D01*
X174022998Y-83428500D01*
X174003025Y-83111031D01*
X173943419Y-82798569D01*
X173845122Y-82496041D01*
X173826648Y-82456781D01*
X173711371Y-82211805D01*
X173711367Y-82211798D01*
X173709683Y-82208219D01*
X173539238Y-81939641D01*
X173526252Y-81923943D01*
X173445511Y-81826345D01*
X173336476Y-81694544D01*
X173104594Y-81476791D01*
X173086800Y-81463863D01*
X172850457Y-81292150D01*
X172850452Y-81292147D01*
X172847248Y-81289819D01*
X172837932Y-81284697D01*
X172571960Y-81138478D01*
X172571957Y-81138477D01*
X172568498Y-81136575D01*
X172361791Y-81054734D01*
X172276422Y-81020934D01*
X172276419Y-81020933D01*
X172272739Y-81019476D01*
X172268900Y-81018490D01*
X172268896Y-81018489D01*
X172089687Y-80972476D01*
X171964636Y-80940368D01*
X171960708Y-80939872D01*
X171960704Y-80939871D01*
X171835723Y-80924083D01*
X171649048Y-80900500D01*
X171330952Y-80900500D01*
X171144277Y-80924083D01*
X171019296Y-80939871D01*
X171019292Y-80939872D01*
X171015364Y-80940368D01*
X170890313Y-80972476D01*
X170711104Y-81018489D01*
X170711100Y-81018490D01*
X170707261Y-81019476D01*
X170703581Y-81020933D01*
X170703578Y-81020934D01*
X170618209Y-81054734D01*
X170411502Y-81136575D01*
X170408043Y-81138477D01*
X170408040Y-81138478D01*
X170142069Y-81284697D01*
X170132752Y-81289819D01*
X170129548Y-81292147D01*
X170129543Y-81292150D01*
X169893200Y-81463863D01*
X169875406Y-81476791D01*
X169643524Y-81694544D01*
X169534489Y-81826345D01*
X169453749Y-81923943D01*
X169440762Y-81939641D01*
X169270317Y-82208219D01*
X169268633Y-82211798D01*
X169268629Y-82211805D01*
X169153352Y-82456781D01*
X169134878Y-82496041D01*
X169036581Y-82798569D01*
X168976975Y-83111031D01*
X168957002Y-83428500D01*
X168976975Y-83745969D01*
X169036581Y-84058431D01*
X169134878Y-84360959D01*
X169136565Y-84364545D01*
X169136567Y-84364549D01*
X169254276Y-84614693D01*
X169265182Y-84684847D01*
X169243355Y-84740792D01*
X169223109Y-84769599D01*
X169219177Y-84774893D01*
X169182537Y-84821621D01*
X169179411Y-84828545D01*
X169175698Y-84834676D01*
X169173062Y-84839296D01*
X169169640Y-84845678D01*
X169165269Y-84851897D01*
X169162509Y-84858976D01*
X169143702Y-84907213D01*
X169141146Y-84913292D01*
X169116711Y-84967412D01*
X169115325Y-84974888D01*
X169113170Y-84981766D01*
X169111710Y-84986891D01*
X169109922Y-84993855D01*
X169107162Y-85000934D01*
X169106170Y-85008466D01*
X169106170Y-85008468D01*
X169099414Y-85059792D01*
X169098384Y-85066298D01*
X169087560Y-85124697D01*
X169087997Y-85132277D01*
X169087997Y-85132278D01*
X169090891Y-85182467D01*
X169091100Y-85189720D01*
X169091100Y-86937792D01*
X169071098Y-87005913D01*
X169037371Y-87041005D01*
X168912211Y-87128643D01*
X168912208Y-87128645D01*
X168907700Y-87131802D01*
X168745802Y-87293700D01*
X168742645Y-87298208D01*
X168742643Y-87298211D01*
X168705520Y-87351229D01*
X168614477Y-87481251D01*
X168612154Y-87486233D01*
X168612151Y-87486238D01*
X168538727Y-87643699D01*
X168517716Y-87688757D01*
X168516294Y-87694065D01*
X168516293Y-87694067D01*
X168459881Y-87904598D01*
X168458457Y-87909913D01*
X168438502Y-88138000D01*
X157774500Y-88138000D01*
X157774500Y-87737315D01*
X157797287Y-87665044D01*
X157849595Y-87590341D01*
X157895523Y-87524749D01*
X157897846Y-87519767D01*
X157897849Y-87519762D01*
X157989961Y-87322225D01*
X157989961Y-87322224D01*
X157992284Y-87317243D01*
X157998593Y-87293700D01*
X158050119Y-87101402D01*
X158050119Y-87101400D01*
X158051543Y-87096087D01*
X158071498Y-86868000D01*
X158051543Y-86639913D01*
X158035092Y-86578517D01*
X157993707Y-86424067D01*
X157993706Y-86424065D01*
X157992284Y-86418757D01*
X157960315Y-86350198D01*
X157897849Y-86216238D01*
X157897846Y-86216233D01*
X157895523Y-86211251D01*
X157797287Y-86070956D01*
X157774500Y-85998685D01*
X157774500Y-82612276D01*
X157775237Y-82598668D01*
X157778697Y-82566821D01*
X157778697Y-82566817D01*
X157779362Y-82560696D01*
X157774954Y-82510310D01*
X157774625Y-82505482D01*
X157774500Y-82502927D01*
X157774500Y-82499843D01*
X157772992Y-82484469D01*
X157770278Y-82456781D01*
X157770156Y-82455468D01*
X157766648Y-82415371D01*
X157761988Y-82362108D01*
X157760489Y-82356948D01*
X157759965Y-82351606D01*
X157732872Y-82261870D01*
X157732516Y-82260667D01*
X157708094Y-82176605D01*
X157708094Y-82176604D01*
X157706372Y-82170678D01*
X157703900Y-82165910D01*
X157702348Y-82160768D01*
X157699453Y-82155323D01*
X157699450Y-82155316D01*
X157658367Y-82078050D01*
X157657753Y-82076882D01*
X157623604Y-82011000D01*
X157614634Y-81993696D01*
X157611282Y-81989497D01*
X157608761Y-81984756D01*
X157559163Y-81923943D01*
X157549562Y-81912171D01*
X157548734Y-81911145D01*
X157519429Y-81874436D01*
X157519428Y-81874435D01*
X157517232Y-81871684D01*
X157514737Y-81869189D01*
X157514027Y-81868395D01*
X157510307Y-81864040D01*
X157486663Y-81835049D01*
X157486660Y-81835046D01*
X157482768Y-81830274D01*
X157447127Y-81800789D01*
X157438348Y-81792800D01*
X157076033Y-81430485D01*
X157042007Y-81368173D01*
X157039608Y-81352373D01*
X157036023Y-81311400D01*
X157035543Y-81305913D01*
X156976284Y-81084757D01*
X156973961Y-81079775D01*
X156881849Y-80882238D01*
X156881846Y-80882233D01*
X156879523Y-80877251D01*
X156759036Y-80705178D01*
X156751357Y-80694211D01*
X156751355Y-80694208D01*
X156748198Y-80689700D01*
X156586300Y-80527802D01*
X156581792Y-80524645D01*
X156581789Y-80524643D01*
X156458137Y-80438061D01*
X156398749Y-80396477D01*
X156393767Y-80394154D01*
X156393762Y-80394151D01*
X156196225Y-80302039D01*
X156196224Y-80302039D01*
X156191243Y-80299716D01*
X156185935Y-80298294D01*
X156185933Y-80298293D01*
X155975402Y-80241881D01*
X155975400Y-80241881D01*
X155970087Y-80240457D01*
X155742000Y-80220502D01*
X155513913Y-80240457D01*
X155508600Y-80241881D01*
X155508598Y-80241881D01*
X155298067Y-80298293D01*
X155298065Y-80298294D01*
X155292757Y-80299716D01*
X155287776Y-80302039D01*
X155287775Y-80302039D01*
X155090238Y-80394151D01*
X155090233Y-80394154D01*
X155085251Y-80396477D01*
X155020295Y-80441960D01*
X154944956Y-80494713D01*
X154872685Y-80517500D01*
X153817315Y-80517500D01*
X153745044Y-80494713D01*
X153669705Y-80441960D01*
X153604749Y-80396477D01*
X153599767Y-80394154D01*
X153599762Y-80394151D01*
X153402225Y-80302039D01*
X153402224Y-80302039D01*
X153397243Y-80299716D01*
X153391935Y-80298294D01*
X153391933Y-80298293D01*
X153243517Y-80258525D01*
X153176087Y-80240457D01*
X153146272Y-80237848D01*
X153129627Y-80236392D01*
X153063509Y-80210529D01*
X153051515Y-80199967D01*
X152223405Y-79371857D01*
X152189379Y-79309545D01*
X152186500Y-79282762D01*
X152186500Y-75885420D01*
X165491870Y-75885420D01*
X165526875Y-76142636D01*
X165528184Y-76147126D01*
X165528185Y-76147132D01*
X165541186Y-76191735D01*
X165599515Y-76391852D01*
X165708194Y-76627594D01*
X165710754Y-76631499D01*
X165710757Y-76631504D01*
X165847957Y-76840770D01*
X165847961Y-76840775D01*
X165850523Y-76844683D01*
X166023377Y-77038350D01*
X166222959Y-77204339D01*
X166444882Y-77339006D01*
X166449196Y-77340815D01*
X166449200Y-77340817D01*
X166497279Y-77360978D01*
X166684274Y-77439391D01*
X166935873Y-77503289D01*
X167151481Y-77525000D01*
X167305896Y-77525000D01*
X167308221Y-77524827D01*
X167308227Y-77524827D01*
X167494221Y-77511005D01*
X167494225Y-77511004D01*
X167498873Y-77510659D01*
X167752059Y-77453369D01*
X167785044Y-77440542D01*
X167989643Y-77360978D01*
X167989645Y-77360977D01*
X167993996Y-77359285D01*
X168026309Y-77340817D01*
X168131801Y-77280523D01*
X168219369Y-77230474D01*
X168423227Y-77069765D01*
X168601091Y-76880690D01*
X168665279Y-76788164D01*
X168746390Y-76671243D01*
X168746392Y-76671240D01*
X168749055Y-76667401D01*
X168765921Y-76633201D01*
X168861802Y-76438773D01*
X168861803Y-76438770D01*
X168863867Y-76434585D01*
X168943006Y-76187356D01*
X168984732Y-75931144D01*
X168985331Y-75885420D01*
X173991870Y-75885420D01*
X174026875Y-76142636D01*
X174028184Y-76147126D01*
X174028185Y-76147132D01*
X174041186Y-76191735D01*
X174099515Y-76391852D01*
X174208194Y-76627594D01*
X174210754Y-76631499D01*
X174210757Y-76631504D01*
X174347957Y-76840770D01*
X174347961Y-76840775D01*
X174350523Y-76844683D01*
X174523377Y-77038350D01*
X174722959Y-77204339D01*
X174944882Y-77339006D01*
X174949196Y-77340815D01*
X174949200Y-77340817D01*
X174997279Y-77360978D01*
X175184274Y-77439391D01*
X175435873Y-77503289D01*
X175651481Y-77525000D01*
X175805896Y-77525000D01*
X175808221Y-77524827D01*
X175808227Y-77524827D01*
X175994221Y-77511005D01*
X175994225Y-77511004D01*
X175998873Y-77510659D01*
X176252059Y-77453369D01*
X176285044Y-77440542D01*
X176489643Y-77360978D01*
X176489645Y-77360977D01*
X176493996Y-77359285D01*
X176526309Y-77340817D01*
X176631801Y-77280523D01*
X176719369Y-77230474D01*
X176923227Y-77069765D01*
X177101091Y-76880690D01*
X177165279Y-76788164D01*
X177246390Y-76671243D01*
X177246392Y-76671240D01*
X177249055Y-76667401D01*
X177265921Y-76633201D01*
X177361802Y-76438773D01*
X177361803Y-76438770D01*
X177363867Y-76434585D01*
X177443006Y-76187356D01*
X177484732Y-75931144D01*
X177487206Y-75742176D01*
X177488069Y-75676257D01*
X177488069Y-75676254D01*
X177488130Y-75671580D01*
X177453125Y-75414364D01*
X177440091Y-75369644D01*
X177420951Y-75303980D01*
X177380485Y-75165148D01*
X177377480Y-75158628D01*
X177303784Y-74998771D01*
X177271806Y-74929406D01*
X177243189Y-74885757D01*
X177132043Y-74716230D01*
X177132039Y-74716225D01*
X177129477Y-74712317D01*
X176956623Y-74518650D01*
X176757041Y-74352661D01*
X176535118Y-74217994D01*
X176530804Y-74216185D01*
X176530800Y-74216183D01*
X176300040Y-74119418D01*
X176295726Y-74117609D01*
X176044127Y-74053711D01*
X175828519Y-74032000D01*
X175674104Y-74032000D01*
X175671779Y-74032173D01*
X175671773Y-74032173D01*
X175485779Y-74045995D01*
X175485775Y-74045996D01*
X175481127Y-74046341D01*
X175227941Y-74103631D01*
X175223589Y-74105323D01*
X175223587Y-74105324D01*
X174990357Y-74196022D01*
X174990355Y-74196023D01*
X174986004Y-74197715D01*
X174981950Y-74200032D01*
X174981948Y-74200033D01*
X174950523Y-74217994D01*
X174760631Y-74326526D01*
X174556773Y-74487235D01*
X174378909Y-74676310D01*
X174376241Y-74680156D01*
X174240541Y-74875767D01*
X174230945Y-74889599D01*
X174228878Y-74893789D01*
X174228877Y-74893792D01*
X174174753Y-75003546D01*
X174116133Y-75122415D01*
X174114711Y-75126858D01*
X174114710Y-75126860D01*
X174104892Y-75157531D01*
X174036994Y-75369644D01*
X174036244Y-75374250D01*
X173997809Y-75610256D01*
X173995268Y-75625856D01*
X173994459Y-75687635D01*
X173992120Y-75866351D01*
X173991870Y-75885420D01*
X168985331Y-75885420D01*
X168987206Y-75742176D01*
X168988069Y-75676257D01*
X168988069Y-75676254D01*
X168988130Y-75671580D01*
X168953125Y-75414364D01*
X168940091Y-75369644D01*
X168920951Y-75303980D01*
X168880485Y-75165148D01*
X168877480Y-75158628D01*
X168803784Y-74998771D01*
X168771806Y-74929406D01*
X168743189Y-74885757D01*
X168632043Y-74716230D01*
X168632039Y-74716225D01*
X168629477Y-74712317D01*
X168456623Y-74518650D01*
X168257041Y-74352661D01*
X168035118Y-74217994D01*
X168030804Y-74216185D01*
X168030800Y-74216183D01*
X167800040Y-74119418D01*
X167795726Y-74117609D01*
X167544127Y-74053711D01*
X167328519Y-74032000D01*
X167174104Y-74032000D01*
X167171779Y-74032173D01*
X167171773Y-74032173D01*
X166985779Y-74045995D01*
X166985775Y-74045996D01*
X166981127Y-74046341D01*
X166727941Y-74103631D01*
X166723589Y-74105323D01*
X166723587Y-74105324D01*
X166490357Y-74196022D01*
X166490355Y-74196023D01*
X166486004Y-74197715D01*
X166481950Y-74200032D01*
X166481948Y-74200033D01*
X166450523Y-74217994D01*
X166260631Y-74326526D01*
X166056773Y-74487235D01*
X165878909Y-74676310D01*
X165876241Y-74680156D01*
X165740541Y-74875767D01*
X165730945Y-74889599D01*
X165728878Y-74893789D01*
X165728877Y-74893792D01*
X165674753Y-75003546D01*
X165616133Y-75122415D01*
X165614711Y-75126858D01*
X165614710Y-75126860D01*
X165604892Y-75157531D01*
X165536994Y-75369644D01*
X165536244Y-75374250D01*
X165497809Y-75610256D01*
X165495268Y-75625856D01*
X165494459Y-75687635D01*
X165492120Y-75866351D01*
X165491870Y-75885420D01*
X152186500Y-75885420D01*
X152186500Y-75780773D01*
X152187237Y-75767165D01*
X152190697Y-75735318D01*
X152190697Y-75735314D01*
X152191362Y-75729193D01*
X152186954Y-75678807D01*
X152186625Y-75673979D01*
X152186500Y-75671424D01*
X152186500Y-75668340D01*
X152184226Y-75645148D01*
X152182278Y-75625278D01*
X152182156Y-75623965D01*
X152178187Y-75578602D01*
X152173988Y-75530605D01*
X152172489Y-75525445D01*
X152171965Y-75520103D01*
X152144883Y-75430401D01*
X152144527Y-75429201D01*
X152142668Y-75422802D01*
X152118372Y-75339175D01*
X152115900Y-75334407D01*
X152114348Y-75329265D01*
X152111453Y-75323820D01*
X152111450Y-75323813D01*
X152070367Y-75246547D01*
X152069753Y-75245379D01*
X152030495Y-75169641D01*
X152026634Y-75162193D01*
X152023282Y-75157994D01*
X152020761Y-75153253D01*
X151979754Y-75102974D01*
X151961562Y-75080668D01*
X151960734Y-75079642D01*
X151931429Y-75042933D01*
X151931428Y-75042932D01*
X151929232Y-75040181D01*
X151926737Y-75037686D01*
X151926027Y-75036892D01*
X151922307Y-75032537D01*
X151898663Y-75003546D01*
X151898660Y-75003543D01*
X151894768Y-74998771D01*
X151859127Y-74969286D01*
X151850348Y-74961297D01*
X149044626Y-72155575D01*
X149035524Y-72145432D01*
X149015445Y-72120459D01*
X149011586Y-72115659D01*
X148972809Y-72083121D01*
X148969182Y-72079957D01*
X148967313Y-72078262D01*
X148965119Y-72076068D01*
X148931553Y-72048496D01*
X148930756Y-72047834D01*
X148858878Y-71987522D01*
X148854172Y-71984935D01*
X148850022Y-71981526D01*
X148844598Y-71978618D01*
X148844588Y-71978611D01*
X148767443Y-71937247D01*
X148766283Y-71936618D01*
X148692439Y-71896022D01*
X148684190Y-71891487D01*
X148679070Y-71889863D01*
X148674337Y-71887325D01*
X148584818Y-71859956D01*
X148583559Y-71859564D01*
X148500050Y-71833073D01*
X148500046Y-71833072D01*
X148494176Y-71831210D01*
X148488838Y-71830611D01*
X148483702Y-71829041D01*
X148477571Y-71828418D01*
X148477570Y-71828418D01*
X148456924Y-71826321D01*
X148390380Y-71819562D01*
X148389260Y-71819442D01*
X148339027Y-71813808D01*
X148335522Y-71813808D01*
X148334414Y-71813746D01*
X148328719Y-71813298D01*
X148291506Y-71809518D01*
X148291499Y-71809518D01*
X148285376Y-71808896D01*
X148241209Y-71813071D01*
X148239326Y-71813249D01*
X148227468Y-71813808D01*
X137329965Y-71813808D01*
X137316357Y-71813071D01*
X137278387Y-71808946D01*
X137272249Y-71809483D01*
X137272247Y-71809483D01*
X137256164Y-71810890D01*
X137228014Y-71813353D01*
X137223199Y-71813682D01*
X137220623Y-71813808D01*
X137217535Y-71813808D01*
X137198623Y-71815662D01*
X137174357Y-71818041D01*
X137173046Y-71818162D01*
X137085937Y-71825784D01*
X137079800Y-71826321D01*
X137074645Y-71827819D01*
X137069298Y-71828343D01*
X136979463Y-71855466D01*
X136978307Y-71855808D01*
X136894288Y-71880217D01*
X136894282Y-71880219D01*
X136888370Y-71881937D01*
X136883606Y-71884406D01*
X136878460Y-71885960D01*
X136795636Y-71929998D01*
X136794594Y-71930545D01*
X136750193Y-71953560D01*
X136711387Y-71973675D01*
X136707189Y-71977026D01*
X136702448Y-71979547D01*
X136697671Y-71983443D01*
X136629925Y-72038695D01*
X136628900Y-72039523D01*
X136589375Y-72071076D01*
X136586879Y-72073572D01*
X136586075Y-72074291D01*
X136581720Y-72078011D01*
X136552741Y-72101645D01*
X136552738Y-72101648D01*
X136547966Y-72105540D01*
X136544038Y-72110288D01*
X136544037Y-72110289D01*
X136518486Y-72141175D01*
X136510497Y-72149954D01*
X132839458Y-75820994D01*
X132829999Y-75829542D01*
X132802049Y-75852337D01*
X132802046Y-75852340D01*
X132797274Y-75856232D01*
X132793346Y-75860980D01*
X132793345Y-75860981D01*
X132767789Y-75891873D01*
X132759800Y-75900652D01*
X130492485Y-78167967D01*
X130430173Y-78201993D01*
X130414373Y-78204392D01*
X130397728Y-78205848D01*
X130367913Y-78208457D01*
X130230252Y-78245343D01*
X130152067Y-78266293D01*
X130152065Y-78266294D01*
X130146757Y-78267716D01*
X130141776Y-78270039D01*
X130141775Y-78270039D01*
X129944238Y-78362151D01*
X129944233Y-78362154D01*
X129939251Y-78364477D01*
X129834389Y-78437902D01*
X129756211Y-78492643D01*
X129756208Y-78492645D01*
X129751700Y-78495802D01*
X129589802Y-78657700D01*
X129458477Y-78845251D01*
X129456154Y-78850233D01*
X129456151Y-78850238D01*
X129428022Y-78910562D01*
X129361716Y-79052757D01*
X129337671Y-79142495D01*
X129334558Y-79154111D01*
X129297606Y-79214734D01*
X129233746Y-79245755D01*
X129212851Y-79247500D01*
X126319064Y-79247500D01*
X126246793Y-79224713D01*
X126232542Y-79214734D01*
X126153677Y-79159512D01*
X126148695Y-79157189D01*
X126148690Y-79157186D01*
X125957178Y-79067883D01*
X125957177Y-79067882D01*
X125952196Y-79065560D01*
X125946888Y-79064138D01*
X125946886Y-79064137D01*
X125868998Y-79043267D01*
X125737463Y-79008022D01*
X125516000Y-78988647D01*
X125294537Y-79008022D01*
X125163002Y-79043267D01*
X125085114Y-79064137D01*
X125085112Y-79064138D01*
X125079804Y-79065560D01*
X125074823Y-79067882D01*
X125074822Y-79067883D01*
X124883311Y-79157186D01*
X124883306Y-79157189D01*
X124878324Y-79159512D01*
X124873817Y-79162668D01*
X124873815Y-79162669D01*
X124700730Y-79283864D01*
X124700727Y-79283866D01*
X124696219Y-79287023D01*
X124539023Y-79444219D01*
X124535866Y-79448727D01*
X124535864Y-79448730D01*
X124417683Y-79617511D01*
X124411512Y-79626324D01*
X124409189Y-79631306D01*
X124409186Y-79631311D01*
X124319883Y-79822822D01*
X124317560Y-79827804D01*
X124260022Y-80042537D01*
X124240647Y-80264000D01*
X124260022Y-80485463D01*
X124278933Y-80556039D01*
X124314748Y-80689700D01*
X124317560Y-80700196D01*
X124319882Y-80705177D01*
X124319883Y-80705178D01*
X124409186Y-80896689D01*
X124409189Y-80896694D01*
X124411512Y-80901676D01*
X124414669Y-80906184D01*
X124414672Y-80906190D01*
X124476713Y-80994794D01*
X124499500Y-81067064D01*
X124499500Y-82696685D01*
X124476713Y-82768956D01*
X124378477Y-82909251D01*
X124376154Y-82914233D01*
X124376151Y-82914238D01*
X124310503Y-83055022D01*
X124281716Y-83116757D01*
X124280294Y-83122065D01*
X124280293Y-83122067D01*
X124224392Y-83330692D01*
X124222457Y-83337913D01*
X124202502Y-83566000D01*
X124222457Y-83794087D01*
X124223881Y-83799402D01*
X124223882Y-83799407D01*
X124224362Y-83801198D01*
X124224343Y-83802018D01*
X124224836Y-83804817D01*
X124224274Y-83804916D01*
X124222675Y-83872175D01*
X124182883Y-83930972D01*
X124117620Y-83958922D01*
X124047606Y-83947152D01*
X124013562Y-83922909D01*
X121843155Y-81752502D01*
X121809129Y-81690190D01*
X121814194Y-81619375D01*
X121856741Y-81562539D01*
X121923261Y-81537728D01*
X121943231Y-81537886D01*
X121954525Y-81538874D01*
X121960000Y-81539353D01*
X122181463Y-81519978D01*
X122356185Y-81473161D01*
X122390886Y-81463863D01*
X122390888Y-81463862D01*
X122396196Y-81462440D01*
X122464724Y-81430485D01*
X122592690Y-81370814D01*
X122592695Y-81370811D01*
X122597677Y-81368488D01*
X122723158Y-81280625D01*
X122775270Y-81244136D01*
X122775273Y-81244134D01*
X122779781Y-81240977D01*
X122936977Y-81083781D01*
X122943837Y-81073985D01*
X123061331Y-80906185D01*
X123061332Y-80906183D01*
X123064488Y-80901676D01*
X123066811Y-80896694D01*
X123066814Y-80896689D01*
X123156117Y-80705178D01*
X123156118Y-80705177D01*
X123158440Y-80700196D01*
X123161253Y-80689700D01*
X123197067Y-80556039D01*
X123215978Y-80485463D01*
X123235353Y-80264000D01*
X123215978Y-80042537D01*
X123158440Y-79827804D01*
X123156117Y-79822822D01*
X123066814Y-79631311D01*
X123066811Y-79631306D01*
X123064488Y-79626324D01*
X123058317Y-79617511D01*
X122940136Y-79448730D01*
X122940134Y-79448727D01*
X122936977Y-79444219D01*
X122779781Y-79287023D01*
X122775276Y-79283868D01*
X122774857Y-79283517D01*
X122735532Y-79224406D01*
X122734408Y-79153418D01*
X122771841Y-79093092D01*
X122816914Y-79067165D01*
X122844902Y-79058071D01*
X122885266Y-79044956D01*
X122888852Y-79043269D01*
X122888856Y-79043267D01*
X123167283Y-78912250D01*
X123167290Y-78912246D01*
X123170869Y-78910562D01*
X123437375Y-78741432D01*
X123680582Y-78540233D01*
X123896654Y-78310140D01*
X124082184Y-78054779D01*
X124234247Y-77778179D01*
X124350443Y-77484702D01*
X124428940Y-77178975D01*
X124468500Y-76865821D01*
X124468500Y-76550179D01*
X124428940Y-76237025D01*
X124350443Y-75931298D01*
X124338309Y-75900652D01*
X124235702Y-75641495D01*
X124235700Y-75641490D01*
X124234247Y-75637821D01*
X124227669Y-75625856D01*
X124084093Y-75364693D01*
X124084091Y-75364690D01*
X124082184Y-75361221D01*
X123896654Y-75105860D01*
X123680582Y-74875767D01*
X123437375Y-74674568D01*
X123170869Y-74505438D01*
X123167290Y-74503754D01*
X123167283Y-74503750D01*
X122888856Y-74372733D01*
X122888852Y-74372731D01*
X122885266Y-74371044D01*
X122821854Y-74350440D01*
X122588848Y-74274732D01*
X122588850Y-74274732D01*
X122585072Y-74273505D01*
X122312139Y-74221440D01*
X122248973Y-74189028D01*
X122213357Y-74127611D01*
X122216601Y-74056688D01*
X122257673Y-73998778D01*
X122296812Y-73977839D01*
X122323785Y-73969075D01*
X122485715Y-73875585D01*
X122576119Y-73794185D01*
X122619766Y-73754885D01*
X122619767Y-73754883D01*
X122624669Y-73750470D01*
X122734573Y-73599200D01*
X122739473Y-73588196D01*
X122807940Y-73434416D01*
X122807940Y-73434414D01*
X122810625Y-73428385D01*
X122849500Y-73245490D01*
X122849500Y-73152000D01*
X124240647Y-73152000D01*
X124260022Y-73373463D01*
X124317560Y-73588196D01*
X124319882Y-73593177D01*
X124319883Y-73593178D01*
X124409186Y-73784689D01*
X124409189Y-73784694D01*
X124411512Y-73789676D01*
X124414668Y-73794183D01*
X124414669Y-73794185D01*
X124534815Y-73965771D01*
X124539023Y-73971781D01*
X124696219Y-74128977D01*
X124700727Y-74132134D01*
X124700730Y-74132136D01*
X124741621Y-74160768D01*
X124878323Y-74256488D01*
X124883305Y-74258811D01*
X124883310Y-74258814D01*
X125023547Y-74324207D01*
X125079804Y-74350440D01*
X125085112Y-74351862D01*
X125085114Y-74351863D01*
X125150949Y-74369503D01*
X125294537Y-74407978D01*
X125516000Y-74427353D01*
X125737463Y-74407978D01*
X125881051Y-74369503D01*
X125946886Y-74351863D01*
X125946888Y-74351862D01*
X125952196Y-74350440D01*
X126008453Y-74324207D01*
X126148690Y-74258814D01*
X126148695Y-74258811D01*
X126153677Y-74256488D01*
X126290379Y-74160768D01*
X126331270Y-74132136D01*
X126331273Y-74132134D01*
X126335781Y-74128977D01*
X126492977Y-73971781D01*
X126497186Y-73965771D01*
X126617331Y-73794185D01*
X126617332Y-73794183D01*
X126620488Y-73789676D01*
X126622811Y-73784694D01*
X126622814Y-73784689D01*
X126712117Y-73593178D01*
X126712118Y-73593177D01*
X126714440Y-73588196D01*
X126771978Y-73373463D01*
X126791353Y-73152000D01*
X126771978Y-72930537D01*
X126714440Y-72715804D01*
X126641260Y-72558869D01*
X126622814Y-72519311D01*
X126622811Y-72519306D01*
X126620488Y-72514324D01*
X126617331Y-72509815D01*
X126496136Y-72336730D01*
X126496134Y-72336727D01*
X126492977Y-72332219D01*
X126335781Y-72175023D01*
X126331273Y-72171866D01*
X126331270Y-72171864D01*
X126245348Y-72111701D01*
X126153677Y-72047512D01*
X126148695Y-72045189D01*
X126148690Y-72045186D01*
X125957178Y-71955883D01*
X125957177Y-71955882D01*
X125952196Y-71953560D01*
X125946888Y-71952138D01*
X125946886Y-71952137D01*
X125881051Y-71934497D01*
X125737463Y-71896022D01*
X125516000Y-71876647D01*
X125294537Y-71896022D01*
X125150949Y-71934497D01*
X125085114Y-71952137D01*
X125085112Y-71952138D01*
X125079804Y-71953560D01*
X125074823Y-71955882D01*
X125074822Y-71955883D01*
X124883311Y-72045186D01*
X124883306Y-72045189D01*
X124878324Y-72047512D01*
X124873817Y-72050668D01*
X124873815Y-72050669D01*
X124700730Y-72171864D01*
X124700727Y-72171866D01*
X124696219Y-72175023D01*
X124539023Y-72332219D01*
X124535866Y-72336727D01*
X124535864Y-72336730D01*
X124414669Y-72509815D01*
X124411512Y-72514324D01*
X124409189Y-72519306D01*
X124409186Y-72519311D01*
X124390740Y-72558869D01*
X124317560Y-72715804D01*
X124260022Y-72930537D01*
X124240647Y-73152000D01*
X122849500Y-73152000D01*
X122849500Y-73058510D01*
X122810625Y-72875615D01*
X122807940Y-72869584D01*
X122737258Y-72710830D01*
X122737257Y-72710828D01*
X122734573Y-72704800D01*
X122624669Y-72553530D01*
X122581127Y-72514324D01*
X122490623Y-72432834D01*
X122490622Y-72432833D01*
X122485715Y-72428415D01*
X122323785Y-72334925D01*
X122249722Y-72310861D01*
X122152235Y-72279185D01*
X122152234Y-72279185D01*
X122145956Y-72277145D01*
X122139393Y-72276455D01*
X122139392Y-72276455D01*
X122116803Y-72274081D01*
X122006620Y-72262500D01*
X121913380Y-72262500D01*
X121803197Y-72274081D01*
X121780608Y-72276455D01*
X121780607Y-72276455D01*
X121774044Y-72277145D01*
X121767766Y-72279185D01*
X121767765Y-72279185D01*
X121670278Y-72310861D01*
X121596215Y-72334925D01*
X121434285Y-72428415D01*
X121429378Y-72432833D01*
X121429377Y-72432834D01*
X121338874Y-72514324D01*
X121295331Y-72553530D01*
X121185427Y-72704800D01*
X121182743Y-72710828D01*
X121182742Y-72710830D01*
X121112060Y-72869584D01*
X121109375Y-72875615D01*
X121070500Y-73058510D01*
X121070500Y-73245490D01*
X121109375Y-73428385D01*
X121112060Y-73434414D01*
X121112060Y-73434416D01*
X121180528Y-73588196D01*
X121185427Y-73599200D01*
X121295331Y-73750470D01*
X121300233Y-73754883D01*
X121300234Y-73754885D01*
X121343881Y-73794185D01*
X121434285Y-73875585D01*
X121596215Y-73969075D01*
X121623188Y-73977839D01*
X121681794Y-74017913D01*
X121709430Y-74083310D01*
X121697323Y-74153267D01*
X121649316Y-74205573D01*
X121607862Y-74221440D01*
X121334928Y-74273505D01*
X121331150Y-74274732D01*
X121331152Y-74274732D01*
X121098147Y-74350440D01*
X121034734Y-74371044D01*
X121031148Y-74372731D01*
X121031144Y-74372733D01*
X120752717Y-74503750D01*
X120752710Y-74503754D01*
X120749131Y-74505438D01*
X120482625Y-74674568D01*
X120239418Y-74875767D01*
X120023346Y-75105860D01*
X119837816Y-75361221D01*
X119835909Y-75364690D01*
X119835907Y-75364693D01*
X119692331Y-75625856D01*
X119685753Y-75637821D01*
X119684300Y-75641490D01*
X119684298Y-75641495D01*
X119581691Y-75900652D01*
X119569557Y-75931298D01*
X119491060Y-76237025D01*
X119451500Y-76550179D01*
X119451500Y-76865821D01*
X119491060Y-77178975D01*
X119569557Y-77484702D01*
X119685753Y-77778179D01*
X119837816Y-78054779D01*
X120023346Y-78310140D01*
X120239418Y-78540233D01*
X120482625Y-78741432D01*
X120749131Y-78910562D01*
X120752710Y-78912246D01*
X120752717Y-78912250D01*
X121031144Y-79043267D01*
X121031148Y-79043269D01*
X121034734Y-79044956D01*
X121075098Y-79058071D01*
X121103086Y-79067165D01*
X121161691Y-79107239D01*
X121189328Y-79172636D01*
X121177221Y-79242592D01*
X121145143Y-79283517D01*
X121144724Y-79283868D01*
X121140219Y-79287023D01*
X120983023Y-79444219D01*
X120979866Y-79448727D01*
X120979864Y-79448730D01*
X120861683Y-79617511D01*
X120855512Y-79626324D01*
X120853189Y-79631306D01*
X120853186Y-79631311D01*
X120763883Y-79822822D01*
X120761560Y-79827804D01*
X120704022Y-80042537D01*
X120684647Y-80264000D01*
X120685126Y-80269475D01*
X120686114Y-80280769D01*
X120672124Y-80350374D01*
X120622725Y-80401366D01*
X120553599Y-80417556D01*
X120486693Y-80393803D01*
X120471498Y-80380845D01*
X119906614Y-79815961D01*
X119900760Y-79809695D01*
X119900349Y-79809224D01*
X119865476Y-79769248D01*
X119816898Y-79735107D01*
X119811604Y-79731175D01*
X119811352Y-79730977D01*
X119764879Y-79694537D01*
X119757955Y-79691411D01*
X119751824Y-79687698D01*
X119747204Y-79685062D01*
X119740822Y-79681640D01*
X119734603Y-79677269D01*
X119679286Y-79655701D01*
X119673207Y-79653146D01*
X119639537Y-79637944D01*
X119619088Y-79628711D01*
X119611612Y-79627325D01*
X119604734Y-79625170D01*
X119599609Y-79623710D01*
X119592645Y-79621922D01*
X119585566Y-79619162D01*
X119578034Y-79618170D01*
X119578032Y-79618170D01*
X119550106Y-79614494D01*
X119485178Y-79585773D01*
X119463337Y-79561842D01*
X119384136Y-79448731D01*
X119380977Y-79444219D01*
X119223781Y-79287023D01*
X119219273Y-79283866D01*
X119219270Y-79283864D01*
X119120542Y-79214734D01*
X119041677Y-79159512D01*
X119036695Y-79157189D01*
X119036690Y-79157186D01*
X118845178Y-79067883D01*
X118845177Y-79067882D01*
X118840196Y-79065560D01*
X118834888Y-79064138D01*
X118834886Y-79064137D01*
X118756998Y-79043267D01*
X118625463Y-79008022D01*
X118404000Y-78988647D01*
X118182537Y-79008022D01*
X118051002Y-79043267D01*
X117973114Y-79064137D01*
X117973112Y-79064138D01*
X117967804Y-79065560D01*
X117962823Y-79067882D01*
X117962822Y-79067883D01*
X117771311Y-79157186D01*
X117771306Y-79157189D01*
X117766324Y-79159512D01*
X117761817Y-79162668D01*
X117761815Y-79162669D01*
X117588730Y-79283864D01*
X117588727Y-79283866D01*
X117584219Y-79287023D01*
X117427023Y-79444219D01*
X117423866Y-79448727D01*
X117423864Y-79448730D01*
X117305683Y-79617511D01*
X117299512Y-79626324D01*
X117297189Y-79631306D01*
X117297186Y-79631311D01*
X117207883Y-79822822D01*
X117205560Y-79827804D01*
X117148022Y-80042537D01*
X117128647Y-80264000D01*
X117148022Y-80485463D01*
X117166933Y-80556039D01*
X117202748Y-80689700D01*
X117205560Y-80700196D01*
X117207882Y-80705177D01*
X117207883Y-80705178D01*
X117297186Y-80896689D01*
X117297189Y-80896694D01*
X117299512Y-80901676D01*
X117302668Y-80906183D01*
X117302669Y-80906185D01*
X117420164Y-81073985D01*
X117427023Y-81083781D01*
X117584219Y-81240977D01*
X117588727Y-81244134D01*
X117588730Y-81244136D01*
X117640842Y-81280625D01*
X117766323Y-81368488D01*
X117771305Y-81370811D01*
X117771310Y-81370814D01*
X117899276Y-81430485D01*
X117967804Y-81462440D01*
X117973112Y-81463862D01*
X117973114Y-81463863D01*
X118007815Y-81473161D01*
X118182537Y-81519978D01*
X118404000Y-81539353D01*
X118625463Y-81519978D01*
X118800185Y-81473161D01*
X118834886Y-81463863D01*
X118834888Y-81463862D01*
X118840196Y-81462440D01*
X118908724Y-81430485D01*
X119036690Y-81370814D01*
X119036695Y-81370811D01*
X119041677Y-81368488D01*
X119167158Y-81280625D01*
X119219270Y-81244136D01*
X119219273Y-81244134D01*
X119223781Y-81240977D01*
X119253957Y-81210801D01*
X119316269Y-81176775D01*
X119387084Y-81181840D01*
X119432147Y-81210801D01*
X124775393Y-86554047D01*
X124781246Y-86560312D01*
X124816524Y-86600752D01*
X124865093Y-86634887D01*
X124870386Y-86638818D01*
X124917122Y-86675463D01*
X124924050Y-86678591D01*
X124930206Y-86682319D01*
X124934825Y-86684954D01*
X124941181Y-86688362D01*
X124947397Y-86692731D01*
X124954476Y-86695491D01*
X125002698Y-86714292D01*
X125008779Y-86716848D01*
X125062912Y-86741290D01*
X125070375Y-86742673D01*
X125077193Y-86744810D01*
X125082378Y-86746287D01*
X125089355Y-86748078D01*
X125096434Y-86750838D01*
X125103967Y-86751830D01*
X125103968Y-86751830D01*
X125127152Y-86754882D01*
X125155308Y-86758589D01*
X125161805Y-86759618D01*
X125220198Y-86770440D01*
X125227779Y-86770003D01*
X125227780Y-86770003D01*
X125277968Y-86767109D01*
X125285221Y-86766900D01*
X131193500Y-86766900D01*
X131261621Y-86786902D01*
X131308114Y-86840558D01*
X131319500Y-86892900D01*
X131319500Y-86954134D01*
X131326255Y-87016316D01*
X131377385Y-87152705D01*
X131464739Y-87269261D01*
X131581295Y-87356615D01*
X131717684Y-87407745D01*
X131779866Y-87414500D01*
X133111100Y-87414500D01*
X133179221Y-87434502D01*
X133225714Y-87488158D01*
X133237100Y-87540500D01*
X133237100Y-94670056D01*
X133217098Y-94738177D01*
X133200195Y-94759151D01*
X133010687Y-94948659D01*
X132948375Y-94982685D01*
X132888980Y-94981270D01*
X132861409Y-94973882D01*
X132861398Y-94973880D01*
X132856087Y-94972457D01*
X132628000Y-94952502D01*
X132399913Y-94972457D01*
X132394600Y-94973881D01*
X132394598Y-94973881D01*
X132184067Y-95030293D01*
X132184065Y-95030294D01*
X132178757Y-95031716D01*
X132173776Y-95034039D01*
X132173775Y-95034039D01*
X131976238Y-95126151D01*
X131976233Y-95126154D01*
X131971251Y-95128477D01*
X131876121Y-95195088D01*
X131788211Y-95256643D01*
X131788208Y-95256645D01*
X131783700Y-95259802D01*
X131621802Y-95421700D01*
X131618645Y-95426208D01*
X131618643Y-95426211D01*
X131531005Y-95551371D01*
X131475548Y-95595699D01*
X131427792Y-95605100D01*
X130554216Y-95605100D01*
X130486095Y-95585098D01*
X130451003Y-95551371D01*
X130335357Y-95386211D01*
X130335355Y-95386208D01*
X130332198Y-95381700D01*
X130170300Y-95219802D01*
X130165792Y-95216645D01*
X130165789Y-95216643D01*
X130072808Y-95151537D01*
X129982749Y-95088477D01*
X129977767Y-95086154D01*
X129977762Y-95086151D01*
X129780225Y-94994039D01*
X129780224Y-94994039D01*
X129775243Y-94991716D01*
X129769935Y-94990294D01*
X129769933Y-94990293D01*
X129559402Y-94933881D01*
X129559400Y-94933881D01*
X129554087Y-94932457D01*
X129326000Y-94912502D01*
X129097913Y-94932457D01*
X129092600Y-94933881D01*
X129092598Y-94933881D01*
X128882067Y-94990293D01*
X128882065Y-94990294D01*
X128876757Y-94991716D01*
X128871776Y-94994039D01*
X128871775Y-94994039D01*
X128674238Y-95086151D01*
X128674233Y-95086154D01*
X128669251Y-95088477D01*
X128579192Y-95151537D01*
X128486211Y-95216643D01*
X128486208Y-95216645D01*
X128481700Y-95219802D01*
X128319802Y-95381700D01*
X128316645Y-95386208D01*
X128316643Y-95386211D01*
X128229005Y-95511371D01*
X128173548Y-95555699D01*
X128125792Y-95565100D01*
X127579944Y-95565100D01*
X127511823Y-95545098D01*
X127490849Y-95528195D01*
X123970614Y-92007961D01*
X123964760Y-92001695D01*
X123934470Y-91966973D01*
X123929476Y-91961248D01*
X123880898Y-91927107D01*
X123875604Y-91923175D01*
X123834855Y-91891223D01*
X123834856Y-91891223D01*
X123828879Y-91886537D01*
X123821955Y-91883411D01*
X123815824Y-91879698D01*
X123811204Y-91877062D01*
X123804822Y-91873640D01*
X123798603Y-91869269D01*
X123743286Y-91847701D01*
X123737207Y-91845146D01*
X123683088Y-91820711D01*
X123675612Y-91819325D01*
X123668734Y-91817170D01*
X123663609Y-91815710D01*
X123656645Y-91813922D01*
X123649566Y-91811162D01*
X123642034Y-91810170D01*
X123642032Y-91810170D01*
X123616804Y-91806849D01*
X123590700Y-91803413D01*
X123584202Y-91802384D01*
X123525803Y-91791560D01*
X123518223Y-91791997D01*
X123518222Y-91791997D01*
X123468033Y-91794891D01*
X123460780Y-91795100D01*
X121441079Y-91795100D01*
X121372958Y-91775098D01*
X121335287Y-91737540D01*
X121264822Y-91628617D01*
X121264820Y-91628614D01*
X121262014Y-91624277D01*
X121111670Y-91459051D01*
X121107619Y-91455852D01*
X121107615Y-91455848D01*
X120940414Y-91323800D01*
X120940410Y-91323798D01*
X120936359Y-91320598D01*
X120740789Y-91212638D01*
X120735920Y-91210914D01*
X120735916Y-91210912D01*
X120535087Y-91139795D01*
X120535083Y-91139794D01*
X120530212Y-91138069D01*
X120525119Y-91137162D01*
X120525116Y-91137161D01*
X120315373Y-91099800D01*
X120315367Y-91099799D01*
X120310284Y-91098894D01*
X120236452Y-91097992D01*
X120092081Y-91096228D01*
X120092079Y-91096228D01*
X120086911Y-91096165D01*
X119866091Y-91129955D01*
X119865806Y-91128093D01*
X119803055Y-91124829D01*
X119755689Y-91095035D01*
X118569430Y-89908776D01*
X117380815Y-88720162D01*
X117346790Y-88657850D01*
X117351434Y-88589065D01*
X117352284Y-88587243D01*
X117411543Y-88366087D01*
X117431498Y-88138000D01*
X117411543Y-87909913D01*
X117410119Y-87904598D01*
X117353707Y-87694067D01*
X117353706Y-87694065D01*
X117352284Y-87688757D01*
X117331273Y-87643699D01*
X117257849Y-87486238D01*
X117257846Y-87486233D01*
X117255523Y-87481251D01*
X117164480Y-87351229D01*
X117127357Y-87298211D01*
X117127355Y-87298208D01*
X117124198Y-87293700D01*
X116962300Y-87131802D01*
X116957792Y-87128645D01*
X116957789Y-87128643D01*
X116879315Y-87073695D01*
X116774749Y-87000477D01*
X116769767Y-86998154D01*
X116769762Y-86998151D01*
X116572225Y-86906039D01*
X116572224Y-86906039D01*
X116567243Y-86903716D01*
X116561935Y-86902294D01*
X116561933Y-86902293D01*
X116351402Y-86845881D01*
X116351400Y-86845881D01*
X116346087Y-86844457D01*
X116118000Y-86824502D01*
X115889913Y-86844457D01*
X115884600Y-86845881D01*
X115884598Y-86845881D01*
X115674067Y-86902293D01*
X115674065Y-86902294D01*
X115668757Y-86903716D01*
X115663776Y-86906039D01*
X115663775Y-86906039D01*
X115466238Y-86998151D01*
X115466233Y-86998154D01*
X115461251Y-87000477D01*
X115356685Y-87073695D01*
X115278211Y-87128643D01*
X115278208Y-87128645D01*
X115273700Y-87131802D01*
X115111802Y-87293700D01*
X115108645Y-87298208D01*
X115108643Y-87298211D01*
X115071520Y-87351229D01*
X114980477Y-87481251D01*
X114978154Y-87486233D01*
X114978151Y-87486238D01*
X114904727Y-87643699D01*
X114883716Y-87688757D01*
X114882294Y-87694065D01*
X114882293Y-87694067D01*
X114825881Y-87904598D01*
X114824457Y-87909913D01*
X114804502Y-88138000D01*
X114824457Y-88366087D01*
X114825881Y-88371400D01*
X114825881Y-88371402D01*
X114882293Y-88581931D01*
X114883716Y-88587243D01*
X114886039Y-88592224D01*
X114886039Y-88592225D01*
X114978151Y-88789762D01*
X114978154Y-88789767D01*
X114980477Y-88794749D01*
X115111802Y-88982300D01*
X115273700Y-89144198D01*
X115278208Y-89147355D01*
X115278211Y-89147357D01*
X115356389Y-89202098D01*
X115461251Y-89275523D01*
X115466233Y-89277846D01*
X115466238Y-89277849D01*
X115663775Y-89369961D01*
X115668757Y-89372284D01*
X115674065Y-89373706D01*
X115674067Y-89373707D01*
X115884598Y-89430119D01*
X115884600Y-89430119D01*
X115889913Y-89431543D01*
X116118000Y-89451498D01*
X116123475Y-89451019D01*
X116174270Y-89446575D01*
X116243875Y-89460564D01*
X116274347Y-89483001D01*
X117549849Y-90758502D01*
X118823365Y-92032018D01*
X118857390Y-92094330D01*
X118855687Y-92154783D01*
X118842989Y-92200570D01*
X118842441Y-92205700D01*
X118842440Y-92205704D01*
X118837651Y-92250517D01*
X118819251Y-92422695D01*
X118819548Y-92427848D01*
X118819548Y-92427851D01*
X118828715Y-92586830D01*
X118832110Y-92645715D01*
X118833247Y-92650761D01*
X118833248Y-92650767D01*
X118857304Y-92757508D01*
X118881222Y-92863639D01*
X118940423Y-93009435D01*
X118954519Y-93044148D01*
X118965266Y-93070616D01*
X119002355Y-93131140D01*
X119076411Y-93251988D01*
X119081987Y-93261088D01*
X119228250Y-93429938D01*
X119400126Y-93572632D01*
X119428869Y-93589428D01*
X119473445Y-93615476D01*
X119522169Y-93667114D01*
X119535240Y-93736897D01*
X119508509Y-93802669D01*
X119468055Y-93836027D01*
X119455607Y-93842507D01*
X119451474Y-93845610D01*
X119451471Y-93845612D01*
X119281100Y-93973530D01*
X119276965Y-93976635D01*
X119122629Y-94138138D01*
X119119715Y-94142410D01*
X119119714Y-94142411D01*
X119097493Y-94174986D01*
X118996743Y-94322680D01*
X118980745Y-94357145D01*
X118941872Y-94440891D01*
X118902688Y-94525305D01*
X118901305Y-94530291D01*
X118901303Y-94530297D01*
X118896629Y-94547151D01*
X118859149Y-94607447D01*
X118795019Y-94637909D01*
X118724601Y-94628863D01*
X118686118Y-94602570D01*
X117388815Y-93305267D01*
X117379713Y-93295124D01*
X117359634Y-93270151D01*
X117355775Y-93265351D01*
X117316998Y-93232813D01*
X117313371Y-93229649D01*
X117311502Y-93227954D01*
X117309308Y-93225760D01*
X117275742Y-93198188D01*
X117274945Y-93197526D01*
X117203067Y-93137214D01*
X117198361Y-93134627D01*
X117194211Y-93131218D01*
X117188787Y-93128310D01*
X117188777Y-93128303D01*
X117111632Y-93086939D01*
X117110472Y-93086310D01*
X117089935Y-93075020D01*
X117028379Y-93041179D01*
X117023259Y-93039555D01*
X117018526Y-93037017D01*
X116929007Y-93009648D01*
X116927748Y-93009256D01*
X116844239Y-92982765D01*
X116844235Y-92982764D01*
X116838365Y-92980902D01*
X116833027Y-92980303D01*
X116827891Y-92978733D01*
X116821760Y-92978110D01*
X116821759Y-92978110D01*
X116801103Y-92976012D01*
X116734569Y-92969254D01*
X116733449Y-92969134D01*
X116683216Y-92963500D01*
X116679711Y-92963500D01*
X116678603Y-92963438D01*
X116672908Y-92962990D01*
X116635695Y-92959210D01*
X116635688Y-92959210D01*
X116629565Y-92958588D01*
X116585398Y-92962763D01*
X116583515Y-92962941D01*
X116571657Y-92963500D01*
X115164276Y-92963500D01*
X115150668Y-92962763D01*
X115118821Y-92959303D01*
X115118817Y-92959303D01*
X115112696Y-92958638D01*
X115075828Y-92961863D01*
X115062310Y-92963046D01*
X115057482Y-92963375D01*
X115054927Y-92963500D01*
X115051843Y-92963500D01*
X115036469Y-92965008D01*
X115008781Y-92967722D01*
X115007468Y-92967844D01*
X114967371Y-92971352D01*
X114914108Y-92976012D01*
X114908948Y-92977511D01*
X114903606Y-92978035D01*
X114813904Y-93005117D01*
X114812764Y-93005455D01*
X114722678Y-93031628D01*
X114717910Y-93034100D01*
X114712768Y-93035652D01*
X114707323Y-93038547D01*
X114707316Y-93038550D01*
X114630050Y-93079633D01*
X114628946Y-93080213D01*
X114545696Y-93123366D01*
X114541497Y-93126718D01*
X114536756Y-93129239D01*
X114531984Y-93133131D01*
X114464171Y-93188438D01*
X114463145Y-93189266D01*
X114443660Y-93204821D01*
X114423684Y-93220768D01*
X114421189Y-93223263D01*
X114420395Y-93223973D01*
X114416040Y-93227693D01*
X114387049Y-93251337D01*
X114387046Y-93251340D01*
X114382274Y-93255232D01*
X114378346Y-93259980D01*
X114378345Y-93259981D01*
X114352789Y-93290873D01*
X114344800Y-93299652D01*
X113665267Y-93979185D01*
X113655125Y-93988286D01*
X113625351Y-94012225D01*
X113592813Y-94051002D01*
X113589649Y-94054629D01*
X113587954Y-94056498D01*
X113585760Y-94058692D01*
X113558188Y-94092258D01*
X113557526Y-94093055D01*
X113497214Y-94164933D01*
X113494627Y-94169639D01*
X113491218Y-94173789D01*
X113488310Y-94179213D01*
X113488303Y-94179223D01*
X113446939Y-94256368D01*
X113446310Y-94257528D01*
X113401179Y-94339621D01*
X113399555Y-94344741D01*
X113397017Y-94349474D01*
X113373625Y-94425984D01*
X113369648Y-94438993D01*
X113369256Y-94440252D01*
X113342765Y-94523761D01*
X113340902Y-94529635D01*
X113340303Y-94534973D01*
X113338733Y-94540109D01*
X113330354Y-94622603D01*
X113329263Y-94633343D01*
X113329134Y-94634551D01*
X113323500Y-94684784D01*
X113323500Y-94688289D01*
X113323438Y-94689397D01*
X113322990Y-94695092D01*
X113319210Y-94732305D01*
X113319210Y-94732312D01*
X113318588Y-94738435D01*
X110022500Y-94738435D01*
X110022500Y-73152000D01*
X117128647Y-73152000D01*
X117148022Y-73373463D01*
X117205560Y-73588196D01*
X117207882Y-73593177D01*
X117207883Y-73593178D01*
X117297186Y-73784689D01*
X117297189Y-73784694D01*
X117299512Y-73789676D01*
X117302668Y-73794183D01*
X117302669Y-73794185D01*
X117422815Y-73965771D01*
X117427023Y-73971781D01*
X117584219Y-74128977D01*
X117588727Y-74132134D01*
X117588730Y-74132136D01*
X117629621Y-74160768D01*
X117766323Y-74256488D01*
X117771305Y-74258811D01*
X117771310Y-74258814D01*
X117911547Y-74324207D01*
X117967804Y-74350440D01*
X117973112Y-74351862D01*
X117973114Y-74351863D01*
X118038949Y-74369503D01*
X118182537Y-74407978D01*
X118404000Y-74427353D01*
X118625463Y-74407978D01*
X118769051Y-74369503D01*
X118834886Y-74351863D01*
X118834888Y-74351862D01*
X118840196Y-74350440D01*
X118896453Y-74324207D01*
X119036690Y-74258814D01*
X119036695Y-74258811D01*
X119041677Y-74256488D01*
X119178379Y-74160768D01*
X119219270Y-74132136D01*
X119219273Y-74132134D01*
X119223781Y-74128977D01*
X119380977Y-73971781D01*
X119385186Y-73965771D01*
X119505331Y-73794185D01*
X119505332Y-73794183D01*
X119508488Y-73789676D01*
X119510811Y-73784694D01*
X119510814Y-73784689D01*
X119600117Y-73593178D01*
X119600118Y-73593177D01*
X119602440Y-73588196D01*
X119659978Y-73373463D01*
X119679353Y-73152000D01*
X119659978Y-72930537D01*
X119602440Y-72715804D01*
X119529260Y-72558869D01*
X119510814Y-72519311D01*
X119510811Y-72519306D01*
X119508488Y-72514324D01*
X119505331Y-72509815D01*
X119384136Y-72336730D01*
X119384134Y-72336727D01*
X119380977Y-72332219D01*
X119223781Y-72175023D01*
X119219273Y-72171866D01*
X119219270Y-72171864D01*
X119133348Y-72111701D01*
X119041677Y-72047512D01*
X119036695Y-72045189D01*
X119036690Y-72045186D01*
X118845178Y-71955883D01*
X118845177Y-71955882D01*
X118840196Y-71953560D01*
X118834888Y-71952138D01*
X118834886Y-71952137D01*
X118769051Y-71934497D01*
X118625463Y-71896022D01*
X118404000Y-71876647D01*
X118182537Y-71896022D01*
X118038949Y-71934497D01*
X117973114Y-71952137D01*
X117973112Y-71952138D01*
X117967804Y-71953560D01*
X117962823Y-71955882D01*
X117962822Y-71955883D01*
X117771311Y-72045186D01*
X117771306Y-72045189D01*
X117766324Y-72047512D01*
X117761817Y-72050668D01*
X117761815Y-72050669D01*
X117588730Y-72171864D01*
X117588727Y-72171866D01*
X117584219Y-72175023D01*
X117427023Y-72332219D01*
X117423866Y-72336727D01*
X117423864Y-72336730D01*
X117302669Y-72509815D01*
X117299512Y-72514324D01*
X117297189Y-72519306D01*
X117297186Y-72519311D01*
X117278740Y-72558869D01*
X117205560Y-72715804D01*
X117148022Y-72930537D01*
X117128647Y-73152000D01*
X110022500Y-73152000D01*
X110022500Y-71382818D01*
X110042502Y-71314697D01*
X110059405Y-71293722D01*
X110195724Y-71157404D01*
X110258036Y-71123379D01*
X110284819Y-71120500D01*
X177831182Y-71120500D01*
X177899303Y-71140502D01*
G37*
%TD.AperFunction*%
M02*
