%TF.GenerationSoftware,KiCad,Pcbnew,6.0.11-2627ca5db0~126~ubuntu22.04.1*%
%TF.CreationDate,2023-04-08T21:15:58-04:00*%
%TF.ProjectId,sub_rf_mod,7375625f-7266-45f6-9d6f-642e6b696361,rev?*%
%TF.SameCoordinates,Original*%
%TF.FileFunction,Legend,Top*%
%TF.FilePolarity,Positive*%
%FSLAX46Y46*%
G04 Gerber Fmt 4.6, Leading zero omitted, Abs format (unit mm)*
G04 Created by KiCad (PCBNEW 6.0.11-2627ca5db0~126~ubuntu22.04.1) date 2023-04-08 21:15:58*
%MOMM*%
%LPD*%
G01*
G04 APERTURE LIST*
%TA.AperFunction,Profile*%
%ADD10C,0.100000*%
%TD*%
%ADD11C,0.150000*%
%ADD12C,0.254000*%
%ADD13C,0.120000*%
%ADD14C,0.100000*%
%ADD15C,0.200000*%
G04 APERTURE END LIST*
D10*
X110744000Y-71374000D02*
X178816000Y-71374000D01*
X110744000Y-71374000D02*
X110236000Y-71882000D01*
X179324000Y-120904000D02*
X179324000Y-71882000D01*
X178816000Y-71374000D02*
X179324000Y-71882000D01*
X110236000Y-120904000D02*
X110744000Y-121412000D01*
X110236000Y-120904000D02*
X110236000Y-71882000D01*
X178816000Y-121412000D02*
X179324000Y-120904000D01*
X110744000Y-121412000D02*
X178816000Y-121412000D01*
D11*
%TO.C,RF_C10*%
X162385619Y-99766380D02*
X162052285Y-99290190D01*
X161814190Y-99766380D02*
X161814190Y-98766380D01*
X162195142Y-98766380D01*
X162290380Y-98814000D01*
X162338000Y-98861619D01*
X162385619Y-98956857D01*
X162385619Y-99099714D01*
X162338000Y-99194952D01*
X162290380Y-99242571D01*
X162195142Y-99290190D01*
X161814190Y-99290190D01*
X163147523Y-99242571D02*
X162814190Y-99242571D01*
X162814190Y-99766380D02*
X162814190Y-98766380D01*
X163290380Y-98766380D01*
X163433238Y-99861619D02*
X164195142Y-99861619D01*
X165004666Y-99671142D02*
X164957047Y-99718761D01*
X164814190Y-99766380D01*
X164718952Y-99766380D01*
X164576095Y-99718761D01*
X164480857Y-99623523D01*
X164433238Y-99528285D01*
X164385619Y-99337809D01*
X164385619Y-99194952D01*
X164433238Y-99004476D01*
X164480857Y-98909238D01*
X164576095Y-98814000D01*
X164718952Y-98766380D01*
X164814190Y-98766380D01*
X164957047Y-98814000D01*
X165004666Y-98861619D01*
X165957047Y-99766380D02*
X165385619Y-99766380D01*
X165671333Y-99766380D02*
X165671333Y-98766380D01*
X165576095Y-98909238D01*
X165480857Y-99004476D01*
X165385619Y-99052095D01*
X166576095Y-98766380D02*
X166671333Y-98766380D01*
X166766571Y-98814000D01*
X166814190Y-98861619D01*
X166861809Y-98956857D01*
X166909428Y-99147333D01*
X166909428Y-99385428D01*
X166861809Y-99575904D01*
X166814190Y-99671142D01*
X166766571Y-99718761D01*
X166671333Y-99766380D01*
X166576095Y-99766380D01*
X166480857Y-99718761D01*
X166433238Y-99671142D01*
X166385619Y-99575904D01*
X166338000Y-99385428D01*
X166338000Y-99147333D01*
X166385619Y-98956857D01*
X166433238Y-98861619D01*
X166480857Y-98814000D01*
X166576095Y-98766380D01*
%TO.C,RF_JP1*%
X124404380Y-90249142D02*
X123928190Y-90582476D01*
X124404380Y-90820571D02*
X123404380Y-90820571D01*
X123404380Y-90439619D01*
X123452000Y-90344380D01*
X123499619Y-90296761D01*
X123594857Y-90249142D01*
X123737714Y-90249142D01*
X123832952Y-90296761D01*
X123880571Y-90344380D01*
X123928190Y-90439619D01*
X123928190Y-90820571D01*
X123880571Y-89487238D02*
X123880571Y-89820571D01*
X124404380Y-89820571D02*
X123404380Y-89820571D01*
X123404380Y-89344380D01*
X124499619Y-89201523D02*
X124499619Y-88439619D01*
X123404380Y-87915809D02*
X124118666Y-87915809D01*
X124261523Y-87963428D01*
X124356761Y-88058666D01*
X124404380Y-88201523D01*
X124404380Y-88296761D01*
X124404380Y-87439619D02*
X123404380Y-87439619D01*
X123404380Y-87058666D01*
X123452000Y-86963428D01*
X123499619Y-86915809D01*
X123594857Y-86868190D01*
X123737714Y-86868190D01*
X123832952Y-86915809D01*
X123880571Y-86963428D01*
X123928190Y-87058666D01*
X123928190Y-87439619D01*
X124404380Y-85915809D02*
X124404380Y-86487238D01*
X124404380Y-86201523D02*
X123404380Y-86201523D01*
X123547238Y-86296761D01*
X123642476Y-86392000D01*
X123690095Y-86487238D01*
%TO.C,RF_C6*%
X144065809Y-112466380D02*
X143732476Y-111990190D01*
X143494380Y-112466380D02*
X143494380Y-111466380D01*
X143875333Y-111466380D01*
X143970571Y-111514000D01*
X144018190Y-111561619D01*
X144065809Y-111656857D01*
X144065809Y-111799714D01*
X144018190Y-111894952D01*
X143970571Y-111942571D01*
X143875333Y-111990190D01*
X143494380Y-111990190D01*
X144827714Y-111942571D02*
X144494380Y-111942571D01*
X144494380Y-112466380D02*
X144494380Y-111466380D01*
X144970571Y-111466380D01*
X145113428Y-112561619D02*
X145875333Y-112561619D01*
X146684857Y-112371142D02*
X146637238Y-112418761D01*
X146494380Y-112466380D01*
X146399142Y-112466380D01*
X146256285Y-112418761D01*
X146161047Y-112323523D01*
X146113428Y-112228285D01*
X146065809Y-112037809D01*
X146065809Y-111894952D01*
X146113428Y-111704476D01*
X146161047Y-111609238D01*
X146256285Y-111514000D01*
X146399142Y-111466380D01*
X146494380Y-111466380D01*
X146637238Y-111514000D01*
X146684857Y-111561619D01*
X147542000Y-111466380D02*
X147351523Y-111466380D01*
X147256285Y-111514000D01*
X147208666Y-111561619D01*
X147113428Y-111704476D01*
X147065809Y-111894952D01*
X147065809Y-112275904D01*
X147113428Y-112371142D01*
X147161047Y-112418761D01*
X147256285Y-112466380D01*
X147446761Y-112466380D01*
X147542000Y-112418761D01*
X147589619Y-112371142D01*
X147637238Y-112275904D01*
X147637238Y-112037809D01*
X147589619Y-111942571D01*
X147542000Y-111894952D01*
X147446761Y-111847333D01*
X147256285Y-111847333D01*
X147161047Y-111894952D01*
X147113428Y-111942571D01*
X147065809Y-112037809D01*
%TO.C,RF_C5*%
X142033809Y-95702380D02*
X141700476Y-95226190D01*
X141462380Y-95702380D02*
X141462380Y-94702380D01*
X141843333Y-94702380D01*
X141938571Y-94750000D01*
X141986190Y-94797619D01*
X142033809Y-94892857D01*
X142033809Y-95035714D01*
X141986190Y-95130952D01*
X141938571Y-95178571D01*
X141843333Y-95226190D01*
X141462380Y-95226190D01*
X142795714Y-95178571D02*
X142462380Y-95178571D01*
X142462380Y-95702380D02*
X142462380Y-94702380D01*
X142938571Y-94702380D01*
X143081428Y-95797619D02*
X143843333Y-95797619D01*
X144652857Y-95607142D02*
X144605238Y-95654761D01*
X144462380Y-95702380D01*
X144367142Y-95702380D01*
X144224285Y-95654761D01*
X144129047Y-95559523D01*
X144081428Y-95464285D01*
X144033809Y-95273809D01*
X144033809Y-95130952D01*
X144081428Y-94940476D01*
X144129047Y-94845238D01*
X144224285Y-94750000D01*
X144367142Y-94702380D01*
X144462380Y-94702380D01*
X144605238Y-94750000D01*
X144652857Y-94797619D01*
X145557619Y-94702380D02*
X145081428Y-94702380D01*
X145033809Y-95178571D01*
X145081428Y-95130952D01*
X145176666Y-95083333D01*
X145414761Y-95083333D01*
X145510000Y-95130952D01*
X145557619Y-95178571D01*
X145605238Y-95273809D01*
X145605238Y-95511904D01*
X145557619Y-95607142D01*
X145510000Y-95654761D01*
X145414761Y-95702380D01*
X145176666Y-95702380D01*
X145081428Y-95654761D01*
X145033809Y-95607142D01*
%TO.C,RF_R11*%
X144097619Y-84272380D02*
X143764285Y-83796190D01*
X143526190Y-84272380D02*
X143526190Y-83272380D01*
X143907142Y-83272380D01*
X144002380Y-83320000D01*
X144050000Y-83367619D01*
X144097619Y-83462857D01*
X144097619Y-83605714D01*
X144050000Y-83700952D01*
X144002380Y-83748571D01*
X143907142Y-83796190D01*
X143526190Y-83796190D01*
X144859523Y-83748571D02*
X144526190Y-83748571D01*
X144526190Y-84272380D02*
X144526190Y-83272380D01*
X145002380Y-83272380D01*
X145145238Y-84367619D02*
X145907142Y-84367619D01*
X146716666Y-84272380D02*
X146383333Y-83796190D01*
X146145238Y-84272380D02*
X146145238Y-83272380D01*
X146526190Y-83272380D01*
X146621428Y-83320000D01*
X146669047Y-83367619D01*
X146716666Y-83462857D01*
X146716666Y-83605714D01*
X146669047Y-83700952D01*
X146621428Y-83748571D01*
X146526190Y-83796190D01*
X146145238Y-83796190D01*
X147669047Y-84272380D02*
X147097619Y-84272380D01*
X147383333Y-84272380D02*
X147383333Y-83272380D01*
X147288095Y-83415238D01*
X147192857Y-83510476D01*
X147097619Y-83558095D01*
X148621428Y-84272380D02*
X148050000Y-84272380D01*
X148335714Y-84272380D02*
X148335714Y-83272380D01*
X148240476Y-83415238D01*
X148145238Y-83510476D01*
X148050000Y-83558095D01*
%TO.C,RF_C12*%
X157345619Y-112172380D02*
X157012285Y-111696190D01*
X156774190Y-112172380D02*
X156774190Y-111172380D01*
X157155142Y-111172380D01*
X157250380Y-111220000D01*
X157298000Y-111267619D01*
X157345619Y-111362857D01*
X157345619Y-111505714D01*
X157298000Y-111600952D01*
X157250380Y-111648571D01*
X157155142Y-111696190D01*
X156774190Y-111696190D01*
X158107523Y-111648571D02*
X157774190Y-111648571D01*
X157774190Y-112172380D02*
X157774190Y-111172380D01*
X158250380Y-111172380D01*
X158393238Y-112267619D02*
X159155142Y-112267619D01*
X159964666Y-112077142D02*
X159917047Y-112124761D01*
X159774190Y-112172380D01*
X159678952Y-112172380D01*
X159536095Y-112124761D01*
X159440857Y-112029523D01*
X159393238Y-111934285D01*
X159345619Y-111743809D01*
X159345619Y-111600952D01*
X159393238Y-111410476D01*
X159440857Y-111315238D01*
X159536095Y-111220000D01*
X159678952Y-111172380D01*
X159774190Y-111172380D01*
X159917047Y-111220000D01*
X159964666Y-111267619D01*
X160917047Y-112172380D02*
X160345619Y-112172380D01*
X160631333Y-112172380D02*
X160631333Y-111172380D01*
X160536095Y-111315238D01*
X160440857Y-111410476D01*
X160345619Y-111458095D01*
X161298000Y-111267619D02*
X161345619Y-111220000D01*
X161440857Y-111172380D01*
X161678952Y-111172380D01*
X161774190Y-111220000D01*
X161821809Y-111267619D01*
X161869428Y-111362857D01*
X161869428Y-111458095D01*
X161821809Y-111600952D01*
X161250380Y-112172380D01*
X161869428Y-112172380D01*
%TO.C,RF_R6*%
X163520380Y-77574190D02*
X163044190Y-77907523D01*
X163520380Y-78145619D02*
X162520380Y-78145619D01*
X162520380Y-77764666D01*
X162568000Y-77669428D01*
X162615619Y-77621809D01*
X162710857Y-77574190D01*
X162853714Y-77574190D01*
X162948952Y-77621809D01*
X162996571Y-77669428D01*
X163044190Y-77764666D01*
X163044190Y-78145619D01*
X162996571Y-76812285D02*
X162996571Y-77145619D01*
X163520380Y-77145619D02*
X162520380Y-77145619D01*
X162520380Y-76669428D01*
X163615619Y-76526571D02*
X163615619Y-75764666D01*
X163520380Y-74955142D02*
X163044190Y-75288476D01*
X163520380Y-75526571D02*
X162520380Y-75526571D01*
X162520380Y-75145619D01*
X162568000Y-75050380D01*
X162615619Y-75002761D01*
X162710857Y-74955142D01*
X162853714Y-74955142D01*
X162948952Y-75002761D01*
X162996571Y-75050380D01*
X163044190Y-75145619D01*
X163044190Y-75526571D01*
X162520380Y-74098000D02*
X162520380Y-74288476D01*
X162568000Y-74383714D01*
X162615619Y-74431333D01*
X162758476Y-74526571D01*
X162948952Y-74574190D01*
X163329904Y-74574190D01*
X163425142Y-74526571D01*
X163472761Y-74478952D01*
X163520380Y-74383714D01*
X163520380Y-74193238D01*
X163472761Y-74098000D01*
X163425142Y-74050380D01*
X163329904Y-74002761D01*
X163091809Y-74002761D01*
X162996571Y-74050380D01*
X162948952Y-74098000D01*
X162901333Y-74193238D01*
X162901333Y-74383714D01*
X162948952Y-74478952D01*
X162996571Y-74526571D01*
X163091809Y-74574190D01*
%TO.C,RF_C2*%
X129484380Y-89868190D02*
X129008190Y-90201523D01*
X129484380Y-90439619D02*
X128484380Y-90439619D01*
X128484380Y-90058666D01*
X128532000Y-89963428D01*
X128579619Y-89915809D01*
X128674857Y-89868190D01*
X128817714Y-89868190D01*
X128912952Y-89915809D01*
X128960571Y-89963428D01*
X129008190Y-90058666D01*
X129008190Y-90439619D01*
X128960571Y-89106285D02*
X128960571Y-89439619D01*
X129484380Y-89439619D02*
X128484380Y-89439619D01*
X128484380Y-88963428D01*
X129579619Y-88820571D02*
X129579619Y-88058666D01*
X129389142Y-87249142D02*
X129436761Y-87296761D01*
X129484380Y-87439619D01*
X129484380Y-87534857D01*
X129436761Y-87677714D01*
X129341523Y-87772952D01*
X129246285Y-87820571D01*
X129055809Y-87868190D01*
X128912952Y-87868190D01*
X128722476Y-87820571D01*
X128627238Y-87772952D01*
X128532000Y-87677714D01*
X128484380Y-87534857D01*
X128484380Y-87439619D01*
X128532000Y-87296761D01*
X128579619Y-87249142D01*
X128579619Y-86868190D02*
X128532000Y-86820571D01*
X128484380Y-86725333D01*
X128484380Y-86487238D01*
X128532000Y-86392000D01*
X128579619Y-86344380D01*
X128674857Y-86296761D01*
X128770095Y-86296761D01*
X128912952Y-86344380D01*
X129484380Y-86915809D01*
X129484380Y-86296761D01*
%TO.C,RF_C13*%
X115231395Y-117800380D02*
X114898061Y-117324190D01*
X114659966Y-117800380D02*
X114659966Y-116800380D01*
X115040918Y-116800380D01*
X115136156Y-116848000D01*
X115183776Y-116895619D01*
X115231395Y-116990857D01*
X115231395Y-117133714D01*
X115183776Y-117228952D01*
X115136156Y-117276571D01*
X115040918Y-117324190D01*
X114659966Y-117324190D01*
X115993299Y-117276571D02*
X115659966Y-117276571D01*
X115659966Y-117800380D02*
X115659966Y-116800380D01*
X116136156Y-116800380D01*
X116279014Y-117895619D02*
X117040918Y-117895619D01*
X117850442Y-117705142D02*
X117802823Y-117752761D01*
X117659966Y-117800380D01*
X117564728Y-117800380D01*
X117421871Y-117752761D01*
X117326633Y-117657523D01*
X117279014Y-117562285D01*
X117231395Y-117371809D01*
X117231395Y-117228952D01*
X117279014Y-117038476D01*
X117326633Y-116943238D01*
X117421871Y-116848000D01*
X117564728Y-116800380D01*
X117659966Y-116800380D01*
X117802823Y-116848000D01*
X117850442Y-116895619D01*
X118802823Y-117800380D02*
X118231395Y-117800380D01*
X118517109Y-117800380D02*
X118517109Y-116800380D01*
X118421871Y-116943238D01*
X118326633Y-117038476D01*
X118231395Y-117086095D01*
X119136156Y-116800380D02*
X119755204Y-116800380D01*
X119421871Y-117181333D01*
X119564728Y-117181333D01*
X119659966Y-117228952D01*
X119707585Y-117276571D01*
X119755204Y-117371809D01*
X119755204Y-117609904D01*
X119707585Y-117705142D01*
X119659966Y-117752761D01*
X119564728Y-117800380D01*
X119279014Y-117800380D01*
X119183776Y-117752761D01*
X119136156Y-117705142D01*
%TO.C,RF_R3*%
X136191809Y-111704380D02*
X135858476Y-111228190D01*
X135620380Y-111704380D02*
X135620380Y-110704380D01*
X136001333Y-110704380D01*
X136096571Y-110752000D01*
X136144190Y-110799619D01*
X136191809Y-110894857D01*
X136191809Y-111037714D01*
X136144190Y-111132952D01*
X136096571Y-111180571D01*
X136001333Y-111228190D01*
X135620380Y-111228190D01*
X136953714Y-111180571D02*
X136620380Y-111180571D01*
X136620380Y-111704380D02*
X136620380Y-110704380D01*
X137096571Y-110704380D01*
X137239428Y-111799619D02*
X138001333Y-111799619D01*
X138810857Y-111704380D02*
X138477523Y-111228190D01*
X138239428Y-111704380D02*
X138239428Y-110704380D01*
X138620380Y-110704380D01*
X138715619Y-110752000D01*
X138763238Y-110799619D01*
X138810857Y-110894857D01*
X138810857Y-111037714D01*
X138763238Y-111132952D01*
X138715619Y-111180571D01*
X138620380Y-111228190D01*
X138239428Y-111228190D01*
X139144190Y-110704380D02*
X139763238Y-110704380D01*
X139429904Y-111085333D01*
X139572761Y-111085333D01*
X139668000Y-111132952D01*
X139715619Y-111180571D01*
X139763238Y-111275809D01*
X139763238Y-111513904D01*
X139715619Y-111609142D01*
X139668000Y-111656761D01*
X139572761Y-111704380D01*
X139287047Y-111704380D01*
X139191809Y-111656761D01*
X139144190Y-111609142D01*
%TO.C,RF_L3*%
X146955047Y-119324380D02*
X146621714Y-118848190D01*
X146383619Y-119324380D02*
X146383619Y-118324380D01*
X146764571Y-118324380D01*
X146859809Y-118372000D01*
X146907428Y-118419619D01*
X146955047Y-118514857D01*
X146955047Y-118657714D01*
X146907428Y-118752952D01*
X146859809Y-118800571D01*
X146764571Y-118848190D01*
X146383619Y-118848190D01*
X147716952Y-118800571D02*
X147383619Y-118800571D01*
X147383619Y-119324380D02*
X147383619Y-118324380D01*
X147859809Y-118324380D01*
X148002666Y-119419619D02*
X148764571Y-119419619D01*
X149478857Y-119324380D02*
X149002666Y-119324380D01*
X149002666Y-118324380D01*
X149716952Y-118324380D02*
X150336000Y-118324380D01*
X150002666Y-118705333D01*
X150145523Y-118705333D01*
X150240761Y-118752952D01*
X150288380Y-118800571D01*
X150336000Y-118895809D01*
X150336000Y-119133904D01*
X150288380Y-119229142D01*
X150240761Y-119276761D01*
X150145523Y-119324380D01*
X149859809Y-119324380D01*
X149764571Y-119276761D01*
X149716952Y-119229142D01*
%TO.C,RF_C11*%
X176982380Y-101012380D02*
X176506190Y-101345714D01*
X176982380Y-101583809D02*
X175982380Y-101583809D01*
X175982380Y-101202857D01*
X176030000Y-101107619D01*
X176077619Y-101060000D01*
X176172857Y-101012380D01*
X176315714Y-101012380D01*
X176410952Y-101060000D01*
X176458571Y-101107619D01*
X176506190Y-101202857D01*
X176506190Y-101583809D01*
X176458571Y-100250476D02*
X176458571Y-100583809D01*
X176982380Y-100583809D02*
X175982380Y-100583809D01*
X175982380Y-100107619D01*
X177077619Y-99964761D02*
X177077619Y-99202857D01*
X176887142Y-98393333D02*
X176934761Y-98440952D01*
X176982380Y-98583809D01*
X176982380Y-98679047D01*
X176934761Y-98821904D01*
X176839523Y-98917142D01*
X176744285Y-98964761D01*
X176553809Y-99012380D01*
X176410952Y-99012380D01*
X176220476Y-98964761D01*
X176125238Y-98917142D01*
X176030000Y-98821904D01*
X175982380Y-98679047D01*
X175982380Y-98583809D01*
X176030000Y-98440952D01*
X176077619Y-98393333D01*
X176982380Y-97440952D02*
X176982380Y-98012380D01*
X176982380Y-97726666D02*
X175982380Y-97726666D01*
X176125238Y-97821904D01*
X176220476Y-97917142D01*
X176268095Y-98012380D01*
X176982380Y-96488571D02*
X176982380Y-97060000D01*
X176982380Y-96774285D02*
X175982380Y-96774285D01*
X176125238Y-96869523D01*
X176220476Y-96964761D01*
X176268095Y-97060000D01*
%TO.C,RF_D1*%
X124316380Y-108664190D02*
X123840190Y-108997523D01*
X124316380Y-109235619D02*
X123316380Y-109235619D01*
X123316380Y-108854666D01*
X123364000Y-108759428D01*
X123411619Y-108711809D01*
X123506857Y-108664190D01*
X123649714Y-108664190D01*
X123744952Y-108711809D01*
X123792571Y-108759428D01*
X123840190Y-108854666D01*
X123840190Y-109235619D01*
X123792571Y-107902285D02*
X123792571Y-108235619D01*
X124316380Y-108235619D02*
X123316380Y-108235619D01*
X123316380Y-107759428D01*
X124411619Y-107616571D02*
X124411619Y-106854666D01*
X124316380Y-106616571D02*
X123316380Y-106616571D01*
X123316380Y-106378476D01*
X123364000Y-106235619D01*
X123459238Y-106140380D01*
X123554476Y-106092761D01*
X123744952Y-106045142D01*
X123887809Y-106045142D01*
X124078285Y-106092761D01*
X124173523Y-106140380D01*
X124268761Y-106235619D01*
X124316380Y-106378476D01*
X124316380Y-106616571D01*
X124316380Y-105092761D02*
X124316380Y-105664190D01*
X124316380Y-105378476D02*
X123316380Y-105378476D01*
X123459238Y-105473714D01*
X123554476Y-105568952D01*
X123602095Y-105664190D01*
X124636380Y-112529904D02*
X123636380Y-112529904D01*
X124636380Y-111958476D02*
X124064952Y-112387047D01*
X123636380Y-111958476D02*
X124207809Y-112529904D01*
%TO.C,RF_D2*%
X131770380Y-89868190D02*
X131294190Y-90201523D01*
X131770380Y-90439619D02*
X130770380Y-90439619D01*
X130770380Y-90058666D01*
X130818000Y-89963428D01*
X130865619Y-89915809D01*
X130960857Y-89868190D01*
X131103714Y-89868190D01*
X131198952Y-89915809D01*
X131246571Y-89963428D01*
X131294190Y-90058666D01*
X131294190Y-90439619D01*
X131246571Y-89106285D02*
X131246571Y-89439619D01*
X131770380Y-89439619D02*
X130770380Y-89439619D01*
X130770380Y-88963428D01*
X131865619Y-88820571D02*
X131865619Y-88058666D01*
X131770380Y-87820571D02*
X130770380Y-87820571D01*
X130770380Y-87582476D01*
X130818000Y-87439619D01*
X130913238Y-87344380D01*
X131008476Y-87296761D01*
X131198952Y-87249142D01*
X131341809Y-87249142D01*
X131532285Y-87296761D01*
X131627523Y-87344380D01*
X131722761Y-87439619D01*
X131770380Y-87582476D01*
X131770380Y-87820571D01*
X130865619Y-86868190D02*
X130818000Y-86820571D01*
X130770380Y-86725333D01*
X130770380Y-86487238D01*
X130818000Y-86392000D01*
X130865619Y-86344380D01*
X130960857Y-86296761D01*
X131056095Y-86296761D01*
X131198952Y-86344380D01*
X131770380Y-86915809D01*
X131770380Y-86296761D01*
X133802380Y-85351904D02*
X132802380Y-85351904D01*
X133802380Y-84780476D02*
X133230952Y-85209047D01*
X132802380Y-84780476D02*
X133373809Y-85351904D01*
%TO.C,RF_C1*%
X115260380Y-78692190D02*
X114784190Y-79025523D01*
X115260380Y-79263619D02*
X114260380Y-79263619D01*
X114260380Y-78882666D01*
X114308000Y-78787428D01*
X114355619Y-78739809D01*
X114450857Y-78692190D01*
X114593714Y-78692190D01*
X114688952Y-78739809D01*
X114736571Y-78787428D01*
X114784190Y-78882666D01*
X114784190Y-79263619D01*
X114736571Y-77930285D02*
X114736571Y-78263619D01*
X115260380Y-78263619D02*
X114260380Y-78263619D01*
X114260380Y-77787428D01*
X115355619Y-77644571D02*
X115355619Y-76882666D01*
X115165142Y-76073142D02*
X115212761Y-76120761D01*
X115260380Y-76263619D01*
X115260380Y-76358857D01*
X115212761Y-76501714D01*
X115117523Y-76596952D01*
X115022285Y-76644571D01*
X114831809Y-76692190D01*
X114688952Y-76692190D01*
X114498476Y-76644571D01*
X114403238Y-76596952D01*
X114308000Y-76501714D01*
X114260380Y-76358857D01*
X114260380Y-76263619D01*
X114308000Y-76120761D01*
X114355619Y-76073142D01*
X115260380Y-75120761D02*
X115260380Y-75692190D01*
X115260380Y-75406476D02*
X114260380Y-75406476D01*
X114403238Y-75501714D01*
X114498476Y-75596952D01*
X114546095Y-75692190D01*
%TO.C,RF_R2*%
X133124380Y-103330190D02*
X132648190Y-103663523D01*
X133124380Y-103901619D02*
X132124380Y-103901619D01*
X132124380Y-103520666D01*
X132172000Y-103425428D01*
X132219619Y-103377809D01*
X132314857Y-103330190D01*
X132457714Y-103330190D01*
X132552952Y-103377809D01*
X132600571Y-103425428D01*
X132648190Y-103520666D01*
X132648190Y-103901619D01*
X132600571Y-102568285D02*
X132600571Y-102901619D01*
X133124380Y-102901619D02*
X132124380Y-102901619D01*
X132124380Y-102425428D01*
X133219619Y-102282571D02*
X133219619Y-101520666D01*
X133124380Y-100711142D02*
X132648190Y-101044476D01*
X133124380Y-101282571D02*
X132124380Y-101282571D01*
X132124380Y-100901619D01*
X132172000Y-100806380D01*
X132219619Y-100758761D01*
X132314857Y-100711142D01*
X132457714Y-100711142D01*
X132552952Y-100758761D01*
X132600571Y-100806380D01*
X132648190Y-100901619D01*
X132648190Y-101282571D01*
X132219619Y-100330190D02*
X132172000Y-100282571D01*
X132124380Y-100187333D01*
X132124380Y-99949238D01*
X132172000Y-99854000D01*
X132219619Y-99806380D01*
X132314857Y-99758761D01*
X132410095Y-99758761D01*
X132552952Y-99806380D01*
X133124380Y-100377809D01*
X133124380Y-99758761D01*
%TO.C,RF_U1*%
X136552380Y-103354000D02*
X136076190Y-103687333D01*
X136552380Y-103925428D02*
X135552380Y-103925428D01*
X135552380Y-103544476D01*
X135600000Y-103449238D01*
X135647619Y-103401619D01*
X135742857Y-103354000D01*
X135885714Y-103354000D01*
X135980952Y-103401619D01*
X136028571Y-103449238D01*
X136076190Y-103544476D01*
X136076190Y-103925428D01*
X136028571Y-102592095D02*
X136028571Y-102925428D01*
X136552380Y-102925428D02*
X135552380Y-102925428D01*
X135552380Y-102449238D01*
X136647619Y-102306380D02*
X136647619Y-101544476D01*
X135552380Y-101306380D02*
X136361904Y-101306380D01*
X136457142Y-101258761D01*
X136504761Y-101211142D01*
X136552380Y-101115904D01*
X136552380Y-100925428D01*
X136504761Y-100830190D01*
X136457142Y-100782571D01*
X136361904Y-100734952D01*
X135552380Y-100734952D01*
X136552380Y-99734952D02*
X136552380Y-100306380D01*
X136552380Y-100020666D02*
X135552380Y-100020666D01*
X135695238Y-100115904D01*
X135790476Y-100211142D01*
X135838095Y-100306380D01*
%TO.C,RF_C7*%
X149653809Y-90154380D02*
X149320476Y-89678190D01*
X149082380Y-90154380D02*
X149082380Y-89154380D01*
X149463333Y-89154380D01*
X149558571Y-89202000D01*
X149606190Y-89249619D01*
X149653809Y-89344857D01*
X149653809Y-89487714D01*
X149606190Y-89582952D01*
X149558571Y-89630571D01*
X149463333Y-89678190D01*
X149082380Y-89678190D01*
X150415714Y-89630571D02*
X150082380Y-89630571D01*
X150082380Y-90154380D02*
X150082380Y-89154380D01*
X150558571Y-89154380D01*
X150701428Y-90249619D02*
X151463333Y-90249619D01*
X152272857Y-90059142D02*
X152225238Y-90106761D01*
X152082380Y-90154380D01*
X151987142Y-90154380D01*
X151844285Y-90106761D01*
X151749047Y-90011523D01*
X151701428Y-89916285D01*
X151653809Y-89725809D01*
X151653809Y-89582952D01*
X151701428Y-89392476D01*
X151749047Y-89297238D01*
X151844285Y-89202000D01*
X151987142Y-89154380D01*
X152082380Y-89154380D01*
X152225238Y-89202000D01*
X152272857Y-89249619D01*
X152606190Y-89154380D02*
X153272857Y-89154380D01*
X152844285Y-90154380D01*
%TO.C,H17*%
X115601904Y-87066380D02*
X115601904Y-86066380D01*
X115601904Y-86542571D02*
X116173333Y-86542571D01*
X116173333Y-87066380D02*
X116173333Y-86066380D01*
X117173333Y-87066380D02*
X116601904Y-87066380D01*
X116887619Y-87066380D02*
X116887619Y-86066380D01*
X116792380Y-86209238D01*
X116697142Y-86304476D01*
X116601904Y-86352095D01*
X117506666Y-86066380D02*
X118173333Y-86066380D01*
X117744761Y-87066380D01*
%TO.C,RF_VL1*%
X123983523Y-83113619D02*
X124316857Y-83589809D01*
X124554952Y-83113619D02*
X124554952Y-84113619D01*
X124174000Y-84113619D01*
X124078761Y-84066000D01*
X124031142Y-84018380D01*
X123983523Y-83923142D01*
X123983523Y-83780285D01*
X124031142Y-83685047D01*
X124078761Y-83637428D01*
X124174000Y-83589809D01*
X124554952Y-83589809D01*
X123221619Y-83637428D02*
X123554952Y-83637428D01*
X123554952Y-83113619D02*
X123554952Y-84113619D01*
X123078761Y-84113619D01*
X122935904Y-83018380D02*
X122174000Y-83018380D01*
X122078761Y-84113619D02*
X121745428Y-83113619D01*
X121412095Y-84113619D01*
X120602571Y-83113619D02*
X121078761Y-83113619D01*
X121078761Y-84113619D01*
X119745428Y-83113619D02*
X120316857Y-83113619D01*
X120031142Y-83113619D02*
X120031142Y-84113619D01*
X120126380Y-83970761D01*
X120221619Y-83875523D01*
X120316857Y-83827904D01*
%TO.C,RF_C4*%
X140255809Y-117546380D02*
X139922476Y-117070190D01*
X139684380Y-117546380D02*
X139684380Y-116546380D01*
X140065333Y-116546380D01*
X140160571Y-116594000D01*
X140208190Y-116641619D01*
X140255809Y-116736857D01*
X140255809Y-116879714D01*
X140208190Y-116974952D01*
X140160571Y-117022571D01*
X140065333Y-117070190D01*
X139684380Y-117070190D01*
X141017714Y-117022571D02*
X140684380Y-117022571D01*
X140684380Y-117546380D02*
X140684380Y-116546380D01*
X141160571Y-116546380D01*
X141303428Y-117641619D02*
X142065333Y-117641619D01*
X142874857Y-117451142D02*
X142827238Y-117498761D01*
X142684380Y-117546380D01*
X142589142Y-117546380D01*
X142446285Y-117498761D01*
X142351047Y-117403523D01*
X142303428Y-117308285D01*
X142255809Y-117117809D01*
X142255809Y-116974952D01*
X142303428Y-116784476D01*
X142351047Y-116689238D01*
X142446285Y-116594000D01*
X142589142Y-116546380D01*
X142684380Y-116546380D01*
X142827238Y-116594000D01*
X142874857Y-116641619D01*
X143732000Y-116879714D02*
X143732000Y-117546380D01*
X143493904Y-116498761D02*
X143255809Y-117213047D01*
X143874857Y-117213047D01*
%TO.C,RF_R5*%
X166087809Y-120678380D02*
X165754476Y-120202190D01*
X165516380Y-120678380D02*
X165516380Y-119678380D01*
X165897333Y-119678380D01*
X165992571Y-119726000D01*
X166040190Y-119773619D01*
X166087809Y-119868857D01*
X166087809Y-120011714D01*
X166040190Y-120106952D01*
X165992571Y-120154571D01*
X165897333Y-120202190D01*
X165516380Y-120202190D01*
X166849714Y-120154571D02*
X166516380Y-120154571D01*
X166516380Y-120678380D02*
X166516380Y-119678380D01*
X166992571Y-119678380D01*
X167135428Y-120773619D02*
X167897333Y-120773619D01*
X168706857Y-120678380D02*
X168373523Y-120202190D01*
X168135428Y-120678380D02*
X168135428Y-119678380D01*
X168516380Y-119678380D01*
X168611619Y-119726000D01*
X168659238Y-119773619D01*
X168706857Y-119868857D01*
X168706857Y-120011714D01*
X168659238Y-120106952D01*
X168611619Y-120154571D01*
X168516380Y-120202190D01*
X168135428Y-120202190D01*
X169611619Y-119678380D02*
X169135428Y-119678380D01*
X169087809Y-120154571D01*
X169135428Y-120106952D01*
X169230666Y-120059333D01*
X169468761Y-120059333D01*
X169564000Y-120106952D01*
X169611619Y-120154571D01*
X169659238Y-120249809D01*
X169659238Y-120487904D01*
X169611619Y-120583142D01*
X169564000Y-120630761D01*
X169468761Y-120678380D01*
X169230666Y-120678380D01*
X169135428Y-120630761D01*
X169087809Y-120583142D01*
%TO.C,J4B1*%
X122896380Y-101893523D02*
X123610666Y-101893523D01*
X123753523Y-101941142D01*
X123848761Y-102036380D01*
X123896380Y-102179238D01*
X123896380Y-102274476D01*
X123229714Y-100988761D02*
X123896380Y-100988761D01*
X122848761Y-101226857D02*
X123563047Y-101464952D01*
X123563047Y-100845904D01*
X123372571Y-100131619D02*
X123420190Y-99988761D01*
X123467809Y-99941142D01*
X123563047Y-99893523D01*
X123705904Y-99893523D01*
X123801142Y-99941142D01*
X123848761Y-99988761D01*
X123896380Y-100084000D01*
X123896380Y-100464952D01*
X122896380Y-100464952D01*
X122896380Y-100131619D01*
X122944000Y-100036380D01*
X122991619Y-99988761D01*
X123086857Y-99941142D01*
X123182095Y-99941142D01*
X123277333Y-99988761D01*
X123324952Y-100036380D01*
X123372571Y-100131619D01*
X123372571Y-100464952D01*
X123896380Y-98941142D02*
X123896380Y-99512571D01*
X123896380Y-99226857D02*
X122896380Y-99226857D01*
X123039238Y-99322095D01*
X123134476Y-99417333D01*
X123182095Y-99512571D01*
%TO.C,RF_R7*%
X158610380Y-91646190D02*
X158134190Y-91979523D01*
X158610380Y-92217619D02*
X157610380Y-92217619D01*
X157610380Y-91836666D01*
X157658000Y-91741428D01*
X157705619Y-91693809D01*
X157800857Y-91646190D01*
X157943714Y-91646190D01*
X158038952Y-91693809D01*
X158086571Y-91741428D01*
X158134190Y-91836666D01*
X158134190Y-92217619D01*
X158086571Y-90884285D02*
X158086571Y-91217619D01*
X158610380Y-91217619D02*
X157610380Y-91217619D01*
X157610380Y-90741428D01*
X158705619Y-90598571D02*
X158705619Y-89836666D01*
X158610380Y-89027142D02*
X158134190Y-89360476D01*
X158610380Y-89598571D02*
X157610380Y-89598571D01*
X157610380Y-89217619D01*
X157658000Y-89122380D01*
X157705619Y-89074761D01*
X157800857Y-89027142D01*
X157943714Y-89027142D01*
X158038952Y-89074761D01*
X158086571Y-89122380D01*
X158134190Y-89217619D01*
X158134190Y-89598571D01*
X157610380Y-88693809D02*
X157610380Y-88027142D01*
X158610380Y-88455714D01*
%TO.C,RF_R8*%
X166163809Y-111874380D02*
X165830476Y-111398190D01*
X165592380Y-111874380D02*
X165592380Y-110874380D01*
X165973333Y-110874380D01*
X166068571Y-110922000D01*
X166116190Y-110969619D01*
X166163809Y-111064857D01*
X166163809Y-111207714D01*
X166116190Y-111302952D01*
X166068571Y-111350571D01*
X165973333Y-111398190D01*
X165592380Y-111398190D01*
X166925714Y-111350571D02*
X166592380Y-111350571D01*
X166592380Y-111874380D02*
X166592380Y-110874380D01*
X167068571Y-110874380D01*
X167211428Y-111969619D02*
X167973333Y-111969619D01*
X168782857Y-111874380D02*
X168449523Y-111398190D01*
X168211428Y-111874380D02*
X168211428Y-110874380D01*
X168592380Y-110874380D01*
X168687619Y-110922000D01*
X168735238Y-110969619D01*
X168782857Y-111064857D01*
X168782857Y-111207714D01*
X168735238Y-111302952D01*
X168687619Y-111350571D01*
X168592380Y-111398190D01*
X168211428Y-111398190D01*
X169354285Y-111302952D02*
X169259047Y-111255333D01*
X169211428Y-111207714D01*
X169163809Y-111112476D01*
X169163809Y-111064857D01*
X169211428Y-110969619D01*
X169259047Y-110922000D01*
X169354285Y-110874380D01*
X169544761Y-110874380D01*
X169640000Y-110922000D01*
X169687619Y-110969619D01*
X169735238Y-111064857D01*
X169735238Y-111112476D01*
X169687619Y-111207714D01*
X169640000Y-111255333D01*
X169544761Y-111302952D01*
X169354285Y-111302952D01*
X169259047Y-111350571D01*
X169211428Y-111398190D01*
X169163809Y-111493428D01*
X169163809Y-111683904D01*
X169211428Y-111779142D01*
X169259047Y-111826761D01*
X169354285Y-111874380D01*
X169544761Y-111874380D01*
X169640000Y-111826761D01*
X169687619Y-111779142D01*
X169735238Y-111683904D01*
X169735238Y-111493428D01*
X169687619Y-111398190D01*
X169640000Y-111350571D01*
X169544761Y-111302952D01*
D12*
%TO.C,RF_J1*%
X165420523Y-76653571D02*
X164815761Y-77076904D01*
X165420523Y-77379285D02*
X164150523Y-77379285D01*
X164150523Y-76895476D01*
X164211000Y-76774523D01*
X164271476Y-76714047D01*
X164392428Y-76653571D01*
X164573857Y-76653571D01*
X164694809Y-76714047D01*
X164755285Y-76774523D01*
X164815761Y-76895476D01*
X164815761Y-77379285D01*
X164755285Y-75685952D02*
X164755285Y-76109285D01*
X165420523Y-76109285D02*
X164150523Y-76109285D01*
X164150523Y-75504523D01*
X165541476Y-75323095D02*
X165541476Y-74355476D01*
X164150523Y-73690238D02*
X165057666Y-73690238D01*
X165239095Y-73750714D01*
X165360047Y-73871666D01*
X165420523Y-74053095D01*
X165420523Y-74174047D01*
X165420523Y-72420238D02*
X165420523Y-73145952D01*
X165420523Y-72783095D02*
X164150523Y-72783095D01*
X164331952Y-72904047D01*
X164452904Y-73025000D01*
X164513380Y-73145952D01*
D11*
%TO.C,RF_C8*%
X159202380Y-76914190D02*
X158726190Y-77247523D01*
X159202380Y-77485619D02*
X158202380Y-77485619D01*
X158202380Y-77104666D01*
X158250000Y-77009428D01*
X158297619Y-76961809D01*
X158392857Y-76914190D01*
X158535714Y-76914190D01*
X158630952Y-76961809D01*
X158678571Y-77009428D01*
X158726190Y-77104666D01*
X158726190Y-77485619D01*
X158678571Y-76152285D02*
X158678571Y-76485619D01*
X159202380Y-76485619D02*
X158202380Y-76485619D01*
X158202380Y-76009428D01*
X159297619Y-75866571D02*
X159297619Y-75104666D01*
X159107142Y-74295142D02*
X159154761Y-74342761D01*
X159202380Y-74485619D01*
X159202380Y-74580857D01*
X159154761Y-74723714D01*
X159059523Y-74818952D01*
X158964285Y-74866571D01*
X158773809Y-74914190D01*
X158630952Y-74914190D01*
X158440476Y-74866571D01*
X158345238Y-74818952D01*
X158250000Y-74723714D01*
X158202380Y-74580857D01*
X158202380Y-74485619D01*
X158250000Y-74342761D01*
X158297619Y-74295142D01*
X158630952Y-73723714D02*
X158583333Y-73818952D01*
X158535714Y-73866571D01*
X158440476Y-73914190D01*
X158392857Y-73914190D01*
X158297619Y-73866571D01*
X158250000Y-73818952D01*
X158202380Y-73723714D01*
X158202380Y-73533238D01*
X158250000Y-73438000D01*
X158297619Y-73390380D01*
X158392857Y-73342761D01*
X158440476Y-73342761D01*
X158535714Y-73390380D01*
X158583333Y-73438000D01*
X158630952Y-73533238D01*
X158630952Y-73723714D01*
X158678571Y-73818952D01*
X158726190Y-73866571D01*
X158821428Y-73914190D01*
X159011904Y-73914190D01*
X159107142Y-73866571D01*
X159154761Y-73818952D01*
X159202380Y-73723714D01*
X159202380Y-73533238D01*
X159154761Y-73438000D01*
X159107142Y-73390380D01*
X159011904Y-73342761D01*
X158821428Y-73342761D01*
X158726190Y-73390380D01*
X158678571Y-73438000D01*
X158630952Y-73533238D01*
%TO.C,RF_C9*%
X164282380Y-87328190D02*
X163806190Y-87661523D01*
X164282380Y-87899619D02*
X163282380Y-87899619D01*
X163282380Y-87518666D01*
X163330000Y-87423428D01*
X163377619Y-87375809D01*
X163472857Y-87328190D01*
X163615714Y-87328190D01*
X163710952Y-87375809D01*
X163758571Y-87423428D01*
X163806190Y-87518666D01*
X163806190Y-87899619D01*
X163758571Y-86566285D02*
X163758571Y-86899619D01*
X164282380Y-86899619D02*
X163282380Y-86899619D01*
X163282380Y-86423428D01*
X164377619Y-86280571D02*
X164377619Y-85518666D01*
X164187142Y-84709142D02*
X164234761Y-84756761D01*
X164282380Y-84899619D01*
X164282380Y-84994857D01*
X164234761Y-85137714D01*
X164139523Y-85232952D01*
X164044285Y-85280571D01*
X163853809Y-85328190D01*
X163710952Y-85328190D01*
X163520476Y-85280571D01*
X163425238Y-85232952D01*
X163330000Y-85137714D01*
X163282380Y-84994857D01*
X163282380Y-84899619D01*
X163330000Y-84756761D01*
X163377619Y-84709142D01*
X164282380Y-84232952D02*
X164282380Y-84042476D01*
X164234761Y-83947238D01*
X164187142Y-83899619D01*
X164044285Y-83804380D01*
X163853809Y-83756761D01*
X163472857Y-83756761D01*
X163377619Y-83804380D01*
X163330000Y-83852000D01*
X163282380Y-83947238D01*
X163282380Y-84137714D01*
X163330000Y-84232952D01*
X163377619Y-84280571D01*
X163472857Y-84328190D01*
X163710952Y-84328190D01*
X163806190Y-84280571D01*
X163853809Y-84232952D01*
X163901428Y-84137714D01*
X163901428Y-83947238D01*
X163853809Y-83852000D01*
X163806190Y-83804380D01*
X163710952Y-83756761D01*
%TO.C,H16*%
X115601904Y-112974380D02*
X115601904Y-111974380D01*
X115601904Y-112450571D02*
X116173333Y-112450571D01*
X116173333Y-112974380D02*
X116173333Y-111974380D01*
X117173333Y-112974380D02*
X116601904Y-112974380D01*
X116887619Y-112974380D02*
X116887619Y-111974380D01*
X116792380Y-112117238D01*
X116697142Y-112212476D01*
X116601904Y-112260095D01*
X118030476Y-111974380D02*
X117840000Y-111974380D01*
X117744761Y-112022000D01*
X117697142Y-112069619D01*
X117601904Y-112212476D01*
X117554285Y-112402952D01*
X117554285Y-112783904D01*
X117601904Y-112879142D01*
X117649523Y-112926761D01*
X117744761Y-112974380D01*
X117935238Y-112974380D01*
X118030476Y-112926761D01*
X118078095Y-112879142D01*
X118125714Y-112783904D01*
X118125714Y-112545809D01*
X118078095Y-112450571D01*
X118030476Y-112402952D01*
X117935238Y-112355333D01*
X117744761Y-112355333D01*
X117649523Y-112402952D01*
X117601904Y-112450571D01*
X117554285Y-112545809D01*
%TO.C,RF_R4*%
X151177809Y-110180380D02*
X150844476Y-109704190D01*
X150606380Y-110180380D02*
X150606380Y-109180380D01*
X150987333Y-109180380D01*
X151082571Y-109228000D01*
X151130190Y-109275619D01*
X151177809Y-109370857D01*
X151177809Y-109513714D01*
X151130190Y-109608952D01*
X151082571Y-109656571D01*
X150987333Y-109704190D01*
X150606380Y-109704190D01*
X151939714Y-109656571D02*
X151606380Y-109656571D01*
X151606380Y-110180380D02*
X151606380Y-109180380D01*
X152082571Y-109180380D01*
X152225428Y-110275619D02*
X152987333Y-110275619D01*
X153796857Y-110180380D02*
X153463523Y-109704190D01*
X153225428Y-110180380D02*
X153225428Y-109180380D01*
X153606380Y-109180380D01*
X153701619Y-109228000D01*
X153749238Y-109275619D01*
X153796857Y-109370857D01*
X153796857Y-109513714D01*
X153749238Y-109608952D01*
X153701619Y-109656571D01*
X153606380Y-109704190D01*
X153225428Y-109704190D01*
X154654000Y-109513714D02*
X154654000Y-110180380D01*
X154415904Y-109132761D02*
X154177809Y-109847047D01*
X154796857Y-109847047D01*
%TO.C,RF_R1*%
X114922380Y-94186190D02*
X114446190Y-94519523D01*
X114922380Y-94757619D02*
X113922380Y-94757619D01*
X113922380Y-94376666D01*
X113970000Y-94281428D01*
X114017619Y-94233809D01*
X114112857Y-94186190D01*
X114255714Y-94186190D01*
X114350952Y-94233809D01*
X114398571Y-94281428D01*
X114446190Y-94376666D01*
X114446190Y-94757619D01*
X114398571Y-93424285D02*
X114398571Y-93757619D01*
X114922380Y-93757619D02*
X113922380Y-93757619D01*
X113922380Y-93281428D01*
X115017619Y-93138571D02*
X115017619Y-92376666D01*
X114922380Y-91567142D02*
X114446190Y-91900476D01*
X114922380Y-92138571D02*
X113922380Y-92138571D01*
X113922380Y-91757619D01*
X113970000Y-91662380D01*
X114017619Y-91614761D01*
X114112857Y-91567142D01*
X114255714Y-91567142D01*
X114350952Y-91614761D01*
X114398571Y-91662380D01*
X114446190Y-91757619D01*
X114446190Y-92138571D01*
X114922380Y-90614761D02*
X114922380Y-91186190D01*
X114922380Y-90900476D02*
X113922380Y-90900476D01*
X114065238Y-90995714D01*
X114160476Y-91090952D01*
X114208095Y-91186190D01*
%TO.C,RF_R9*%
X154714380Y-84788190D02*
X154238190Y-85121523D01*
X154714380Y-85359619D02*
X153714380Y-85359619D01*
X153714380Y-84978666D01*
X153762000Y-84883428D01*
X153809619Y-84835809D01*
X153904857Y-84788190D01*
X154047714Y-84788190D01*
X154142952Y-84835809D01*
X154190571Y-84883428D01*
X154238190Y-84978666D01*
X154238190Y-85359619D01*
X154190571Y-84026285D02*
X154190571Y-84359619D01*
X154714380Y-84359619D02*
X153714380Y-84359619D01*
X153714380Y-83883428D01*
X154809619Y-83740571D02*
X154809619Y-82978666D01*
X154714380Y-82169142D02*
X154238190Y-82502476D01*
X154714380Y-82740571D02*
X153714380Y-82740571D01*
X153714380Y-82359619D01*
X153762000Y-82264380D01*
X153809619Y-82216761D01*
X153904857Y-82169142D01*
X154047714Y-82169142D01*
X154142952Y-82216761D01*
X154190571Y-82264380D01*
X154238190Y-82359619D01*
X154238190Y-82740571D01*
X154714380Y-81692952D02*
X154714380Y-81502476D01*
X154666761Y-81407238D01*
X154619142Y-81359619D01*
X154476285Y-81264380D01*
X154285809Y-81216761D01*
X153904857Y-81216761D01*
X153809619Y-81264380D01*
X153762000Y-81312000D01*
X153714380Y-81407238D01*
X153714380Y-81597714D01*
X153762000Y-81692952D01*
X153809619Y-81740571D01*
X153904857Y-81788190D01*
X154142952Y-81788190D01*
X154238190Y-81740571D01*
X154285809Y-81692952D01*
X154333428Y-81597714D01*
X154333428Y-81407238D01*
X154285809Y-81312000D01*
X154238190Y-81264380D01*
X154142952Y-81216761D01*
%TO.C,RF_SW1*%
X142372190Y-79998380D02*
X142038857Y-79522190D01*
X141800761Y-79998380D02*
X141800761Y-78998380D01*
X142181714Y-78998380D01*
X142276952Y-79046000D01*
X142324571Y-79093619D01*
X142372190Y-79188857D01*
X142372190Y-79331714D01*
X142324571Y-79426952D01*
X142276952Y-79474571D01*
X142181714Y-79522190D01*
X141800761Y-79522190D01*
X143134095Y-79474571D02*
X142800761Y-79474571D01*
X142800761Y-79998380D02*
X142800761Y-78998380D01*
X143276952Y-78998380D01*
X143419809Y-80093619D02*
X144181714Y-80093619D01*
X144372190Y-79950761D02*
X144515047Y-79998380D01*
X144753142Y-79998380D01*
X144848380Y-79950761D01*
X144896000Y-79903142D01*
X144943619Y-79807904D01*
X144943619Y-79712666D01*
X144896000Y-79617428D01*
X144848380Y-79569809D01*
X144753142Y-79522190D01*
X144562666Y-79474571D01*
X144467428Y-79426952D01*
X144419809Y-79379333D01*
X144372190Y-79284095D01*
X144372190Y-79188857D01*
X144419809Y-79093619D01*
X144467428Y-79046000D01*
X144562666Y-78998380D01*
X144800761Y-78998380D01*
X144943619Y-79046000D01*
X145276952Y-78998380D02*
X145515047Y-79998380D01*
X145705523Y-79284095D01*
X145896000Y-79998380D01*
X146134095Y-78998380D01*
X147038857Y-79998380D02*
X146467428Y-79998380D01*
X146753142Y-79998380D02*
X146753142Y-78998380D01*
X146657904Y-79141238D01*
X146562666Y-79236476D01*
X146467428Y-79284095D01*
%TO.C,RF_R10*%
X144097619Y-82494380D02*
X143764285Y-82018190D01*
X143526190Y-82494380D02*
X143526190Y-81494380D01*
X143907142Y-81494380D01*
X144002380Y-81542000D01*
X144050000Y-81589619D01*
X144097619Y-81684857D01*
X144097619Y-81827714D01*
X144050000Y-81922952D01*
X144002380Y-81970571D01*
X143907142Y-82018190D01*
X143526190Y-82018190D01*
X144859523Y-81970571D02*
X144526190Y-81970571D01*
X144526190Y-82494380D02*
X144526190Y-81494380D01*
X145002380Y-81494380D01*
X145145238Y-82589619D02*
X145907142Y-82589619D01*
X146716666Y-82494380D02*
X146383333Y-82018190D01*
X146145238Y-82494380D02*
X146145238Y-81494380D01*
X146526190Y-81494380D01*
X146621428Y-81542000D01*
X146669047Y-81589619D01*
X146716666Y-81684857D01*
X146716666Y-81827714D01*
X146669047Y-81922952D01*
X146621428Y-81970571D01*
X146526190Y-82018190D01*
X146145238Y-82018190D01*
X147669047Y-82494380D02*
X147097619Y-82494380D01*
X147383333Y-82494380D02*
X147383333Y-81494380D01*
X147288095Y-81637238D01*
X147192857Y-81732476D01*
X147097619Y-81780095D01*
X148288095Y-81494380D02*
X148383333Y-81494380D01*
X148478571Y-81542000D01*
X148526190Y-81589619D01*
X148573809Y-81684857D01*
X148621428Y-81875333D01*
X148621428Y-82113428D01*
X148573809Y-82303904D01*
X148526190Y-82399142D01*
X148478571Y-82446761D01*
X148383333Y-82494380D01*
X148288095Y-82494380D01*
X148192857Y-82446761D01*
X148145238Y-82399142D01*
X148097619Y-82303904D01*
X148050000Y-82113428D01*
X148050000Y-81875333D01*
X148097619Y-81684857D01*
X148145238Y-81589619D01*
X148192857Y-81542000D01*
X148288095Y-81494380D01*
%TO.C,RF_L1*%
X168799047Y-97480380D02*
X168465714Y-97004190D01*
X168227619Y-97480380D02*
X168227619Y-96480380D01*
X168608571Y-96480380D01*
X168703809Y-96528000D01*
X168751428Y-96575619D01*
X168799047Y-96670857D01*
X168799047Y-96813714D01*
X168751428Y-96908952D01*
X168703809Y-96956571D01*
X168608571Y-97004190D01*
X168227619Y-97004190D01*
X169560952Y-96956571D02*
X169227619Y-96956571D01*
X169227619Y-97480380D02*
X169227619Y-96480380D01*
X169703809Y-96480380D01*
X169846666Y-97575619D02*
X170608571Y-97575619D01*
X171322857Y-97480380D02*
X170846666Y-97480380D01*
X170846666Y-96480380D01*
X172180000Y-97480380D02*
X171608571Y-97480380D01*
X171894285Y-97480380D02*
X171894285Y-96480380D01*
X171799047Y-96623238D01*
X171703809Y-96718476D01*
X171608571Y-96766095D01*
%TO.C,RF_C3*%
X136596380Y-109172190D02*
X136120190Y-109505523D01*
X136596380Y-109743619D02*
X135596380Y-109743619D01*
X135596380Y-109362666D01*
X135644000Y-109267428D01*
X135691619Y-109219809D01*
X135786857Y-109172190D01*
X135929714Y-109172190D01*
X136024952Y-109219809D01*
X136072571Y-109267428D01*
X136120190Y-109362666D01*
X136120190Y-109743619D01*
X136072571Y-108410285D02*
X136072571Y-108743619D01*
X136596380Y-108743619D02*
X135596380Y-108743619D01*
X135596380Y-108267428D01*
X136691619Y-108124571D02*
X136691619Y-107362666D01*
X136501142Y-106553142D02*
X136548761Y-106600761D01*
X136596380Y-106743619D01*
X136596380Y-106838857D01*
X136548761Y-106981714D01*
X136453523Y-107076952D01*
X136358285Y-107124571D01*
X136167809Y-107172190D01*
X136024952Y-107172190D01*
X135834476Y-107124571D01*
X135739238Y-107076952D01*
X135644000Y-106981714D01*
X135596380Y-106838857D01*
X135596380Y-106743619D01*
X135644000Y-106600761D01*
X135691619Y-106553142D01*
X135596380Y-106219809D02*
X135596380Y-105600761D01*
X135977333Y-105934095D01*
X135977333Y-105791238D01*
X136024952Y-105696000D01*
X136072571Y-105648380D01*
X136167809Y-105600761D01*
X136405904Y-105600761D01*
X136501142Y-105648380D01*
X136548761Y-105696000D01*
X136596380Y-105791238D01*
X136596380Y-106076952D01*
X136548761Y-106172190D01*
X136501142Y-106219809D01*
%TO.C,RF_R12*%
X148026380Y-89836380D02*
X147550190Y-90169714D01*
X148026380Y-90407809D02*
X147026380Y-90407809D01*
X147026380Y-90026857D01*
X147074000Y-89931619D01*
X147121619Y-89884000D01*
X147216857Y-89836380D01*
X147359714Y-89836380D01*
X147454952Y-89884000D01*
X147502571Y-89931619D01*
X147550190Y-90026857D01*
X147550190Y-90407809D01*
X147502571Y-89074476D02*
X147502571Y-89407809D01*
X148026380Y-89407809D02*
X147026380Y-89407809D01*
X147026380Y-88931619D01*
X148121619Y-88788761D02*
X148121619Y-88026857D01*
X148026380Y-87217333D02*
X147550190Y-87550666D01*
X148026380Y-87788761D02*
X147026380Y-87788761D01*
X147026380Y-87407809D01*
X147074000Y-87312571D01*
X147121619Y-87264952D01*
X147216857Y-87217333D01*
X147359714Y-87217333D01*
X147454952Y-87264952D01*
X147502571Y-87312571D01*
X147550190Y-87407809D01*
X147550190Y-87788761D01*
X148026380Y-86264952D02*
X148026380Y-86836380D01*
X148026380Y-86550666D02*
X147026380Y-86550666D01*
X147169238Y-86645904D01*
X147264476Y-86741142D01*
X147312095Y-86836380D01*
X147121619Y-85884000D02*
X147074000Y-85836380D01*
X147026380Y-85741142D01*
X147026380Y-85503047D01*
X147074000Y-85407809D01*
X147121619Y-85360190D01*
X147216857Y-85312571D01*
X147312095Y-85312571D01*
X147454952Y-85360190D01*
X148026380Y-85931619D01*
X148026380Y-85312571D01*
%TO.C,RF_L2*%
X166060380Y-107298952D02*
X165584190Y-107632285D01*
X166060380Y-107870380D02*
X165060380Y-107870380D01*
X165060380Y-107489428D01*
X165108000Y-107394190D01*
X165155619Y-107346571D01*
X165250857Y-107298952D01*
X165393714Y-107298952D01*
X165488952Y-107346571D01*
X165536571Y-107394190D01*
X165584190Y-107489428D01*
X165584190Y-107870380D01*
X165536571Y-106537047D02*
X165536571Y-106870380D01*
X166060380Y-106870380D02*
X165060380Y-106870380D01*
X165060380Y-106394190D01*
X166155619Y-106251333D02*
X166155619Y-105489428D01*
X166060380Y-104775142D02*
X166060380Y-105251333D01*
X165060380Y-105251333D01*
X165155619Y-104489428D02*
X165108000Y-104441809D01*
X165060380Y-104346571D01*
X165060380Y-104108476D01*
X165108000Y-104013238D01*
X165155619Y-103965619D01*
X165250857Y-103918000D01*
X165346095Y-103918000D01*
X165488952Y-103965619D01*
X166060380Y-104537047D01*
X166060380Y-103918000D01*
D13*
%TO.C,RF_C10*%
X167322000Y-97944000D02*
X167322000Y-100684000D01*
X174562000Y-97944000D02*
X174562000Y-100684000D01*
X167322000Y-100684000D02*
X174562000Y-100684000D01*
X167322000Y-97944000D02*
X174562000Y-97944000D01*
%TO.C,RF_JP1*%
X127608000Y-95218000D02*
X127608000Y-88678000D01*
X127608000Y-88678000D02*
X124868000Y-88678000D01*
X124868000Y-88678000D02*
X124868000Y-95218000D01*
X124868000Y-95218000D02*
X127608000Y-95218000D01*
X126238000Y-85368000D02*
X126238000Y-88678000D01*
X126238000Y-98528000D02*
X126238000Y-95218000D01*
%TO.C,RF_C6*%
X142176000Y-112930000D02*
X149416000Y-112930000D01*
X149416000Y-112930000D02*
X149416000Y-115670000D01*
X142176000Y-115670000D02*
X149416000Y-115670000D01*
X142176000Y-112930000D02*
X142176000Y-115670000D01*
%TO.C,RF_C5*%
X135572000Y-94080000D02*
X142812000Y-94080000D01*
X142812000Y-91340000D02*
X142812000Y-94080000D01*
X135572000Y-91340000D02*
X135572000Y-94080000D01*
X135572000Y-91340000D02*
X142812000Y-91340000D01*
%TO.C,RF_R11*%
X137192000Y-87146000D02*
X137192000Y-87476000D01*
X137192000Y-85066000D02*
X137192000Y-84736000D01*
X137192000Y-84736000D02*
X143732000Y-84736000D01*
X143732000Y-84736000D02*
X143732000Y-85066000D01*
X143732000Y-87476000D02*
X143732000Y-87146000D01*
X137192000Y-87476000D02*
X143732000Y-87476000D01*
%TO.C,RF_C12*%
X155678000Y-110590000D02*
X155678000Y-107850000D01*
X162918000Y-107850000D02*
X155678000Y-107850000D01*
X162918000Y-110590000D02*
X162918000Y-107850000D01*
X162918000Y-110590000D02*
X155678000Y-110590000D01*
%TO.C,RF_R6*%
X159412000Y-83534000D02*
X159412000Y-76994000D01*
X161822000Y-83534000D02*
X162152000Y-83534000D01*
X159742000Y-83534000D02*
X159412000Y-83534000D01*
X162152000Y-83534000D02*
X162152000Y-76994000D01*
X162152000Y-76994000D02*
X161822000Y-76994000D01*
X159412000Y-76994000D02*
X159742000Y-76994000D01*
%TO.C,RF_C2*%
X128678000Y-90868000D02*
X128678000Y-98108000D01*
X131418000Y-98108000D02*
X128678000Y-98108000D01*
X131418000Y-90868000D02*
X131418000Y-98108000D01*
X131418000Y-90868000D02*
X128678000Y-90868000D01*
%TO.C,RF_C13*%
X125112328Y-115651000D02*
X125112328Y-118537000D01*
X124312328Y-118134000D02*
X124312328Y-119294000D01*
X123111328Y-114518000D02*
X123111328Y-116054000D01*
X124432328Y-118134000D02*
X124432328Y-119216000D01*
X125392328Y-116179000D02*
X125392328Y-118009000D01*
X123311328Y-114538000D02*
X123311328Y-116054000D01*
X124912328Y-118134000D02*
X124912328Y-118793000D01*
X123471328Y-114566000D02*
X123471328Y-116054000D01*
X123191328Y-118134000D02*
X123191328Y-119663000D01*
X124352328Y-118134000D02*
X124352328Y-119269000D01*
X123832328Y-114666000D02*
X123832328Y-116054000D01*
X123391328Y-114551000D02*
X123391328Y-116054000D01*
X124192328Y-118134000D02*
X124192328Y-119362000D01*
X123832328Y-118134000D02*
X123832328Y-119522000D01*
X122951328Y-118134000D02*
X122951328Y-119674000D01*
X124032328Y-118134000D02*
X124032328Y-119442000D01*
X124632328Y-115123000D02*
X124632328Y-116054000D01*
X125312328Y-115996000D02*
X125312328Y-118192000D01*
X123631328Y-118134000D02*
X123631328Y-119585000D01*
X124792328Y-118134000D02*
X124792328Y-118920000D01*
X125512328Y-116576000D02*
X125512328Y-117612000D01*
X123752328Y-118134000D02*
X123752328Y-119549000D01*
X125232328Y-115843000D02*
X125232328Y-118345000D01*
X120146553Y-115619000D02*
X120646553Y-115619000D01*
X123912328Y-118134000D02*
X123912328Y-119492000D01*
X123071328Y-114516000D02*
X123071328Y-116054000D01*
X123992328Y-114729000D02*
X123992328Y-116054000D01*
X124432328Y-114972000D02*
X124432328Y-116054000D01*
X124712328Y-115193000D02*
X124712328Y-116054000D01*
X123872328Y-114680000D02*
X123872328Y-116054000D01*
X123551328Y-118134000D02*
X123551328Y-119605000D01*
X123591328Y-118134000D02*
X123591328Y-119595000D01*
X123031328Y-118134000D02*
X123031328Y-119673000D01*
X125152328Y-115711000D02*
X125152328Y-118477000D01*
X124392328Y-118134000D02*
X124392328Y-119243000D01*
X123431328Y-118134000D02*
X123431328Y-119630000D01*
X124352328Y-114919000D02*
X124352328Y-116054000D01*
X124072328Y-118134000D02*
X124072328Y-119423000D01*
X124152328Y-114804000D02*
X124152328Y-116054000D01*
X124472328Y-118134000D02*
X124472328Y-119189000D01*
X123591328Y-114593000D02*
X123591328Y-116054000D01*
X125552328Y-116810000D02*
X125552328Y-117378000D01*
X125472328Y-116417000D02*
X125472328Y-117771000D01*
X124232328Y-114847000D02*
X124232328Y-116054000D01*
X124312328Y-114894000D02*
X124312328Y-116054000D01*
X123952328Y-114712000D02*
X123952328Y-116054000D01*
X122991328Y-114514000D02*
X122991328Y-116054000D01*
X123431328Y-114558000D02*
X123431328Y-116054000D01*
X124712328Y-118134000D02*
X124712328Y-118995000D01*
X124232328Y-118134000D02*
X124232328Y-119341000D01*
X123231328Y-114529000D02*
X123231328Y-116054000D01*
X122951328Y-114514000D02*
X122951328Y-116054000D01*
X124632328Y-118134000D02*
X124632328Y-119065000D01*
X124872328Y-118134000D02*
X124872328Y-118837000D01*
X125192328Y-115775000D02*
X125192328Y-118413000D01*
X123271328Y-114533000D02*
X123271328Y-116054000D01*
X123511328Y-118134000D02*
X123511328Y-119614000D01*
X123952328Y-118134000D02*
X123952328Y-119476000D01*
X120396553Y-115369000D02*
X120396553Y-115869000D01*
X124832328Y-118134000D02*
X124832328Y-118879000D01*
X123631328Y-114603000D02*
X123631328Y-116054000D01*
X124272328Y-118134000D02*
X124272328Y-119318000D01*
X124792328Y-115268000D02*
X124792328Y-116054000D01*
X123672328Y-118134000D02*
X123672328Y-119574000D01*
X123351328Y-114544000D02*
X123351328Y-116054000D01*
X124952328Y-118134000D02*
X124952328Y-118747000D01*
X123872328Y-118134000D02*
X123872328Y-119508000D01*
X123151328Y-118134000D02*
X123151328Y-119667000D01*
X124192328Y-114826000D02*
X124192328Y-116054000D01*
X123231328Y-118134000D02*
X123231328Y-119659000D01*
X125032328Y-115540000D02*
X125032328Y-118648000D01*
X124592328Y-115090000D02*
X124592328Y-116054000D01*
X122991328Y-118134000D02*
X122991328Y-119674000D01*
X125272328Y-115916000D02*
X125272328Y-118272000D01*
X124112328Y-114784000D02*
X124112328Y-116054000D01*
X124512328Y-115029000D02*
X124512328Y-116054000D01*
X124672328Y-115157000D02*
X124672328Y-116054000D01*
X123752328Y-114639000D02*
X123752328Y-116054000D01*
X124952328Y-115441000D02*
X124952328Y-116054000D01*
X123912328Y-114696000D02*
X123912328Y-116054000D01*
X123071328Y-118134000D02*
X123071328Y-119672000D01*
X123712328Y-114626000D02*
X123712328Y-116054000D01*
X123992328Y-118134000D02*
X123992328Y-119459000D01*
X123191328Y-114525000D02*
X123191328Y-116054000D01*
X124752328Y-118134000D02*
X124752328Y-118958000D01*
X125072328Y-115594000D02*
X125072328Y-118594000D01*
X123712328Y-118134000D02*
X123712328Y-119562000D01*
X124592328Y-118134000D02*
X124592328Y-119098000D01*
X124032328Y-114746000D02*
X124032328Y-116054000D01*
X124552328Y-115059000D02*
X124552328Y-116054000D01*
X123391328Y-118134000D02*
X123391328Y-119637000D01*
X124072328Y-114765000D02*
X124072328Y-116054000D01*
X123672328Y-114614000D02*
X123672328Y-116054000D01*
X124832328Y-115309000D02*
X124832328Y-116054000D01*
X123471328Y-118134000D02*
X123471328Y-119622000D01*
X123792328Y-114652000D02*
X123792328Y-116054000D01*
X125352328Y-116083000D02*
X125352328Y-118105000D01*
X123551328Y-114583000D02*
X123551328Y-116054000D01*
X123511328Y-114574000D02*
X123511328Y-116054000D01*
X123151328Y-114521000D02*
X123151328Y-116054000D01*
X125432328Y-116289000D02*
X125432328Y-117899000D01*
X123351328Y-118134000D02*
X123351328Y-119644000D01*
X124752328Y-115230000D02*
X124752328Y-116054000D01*
X124912328Y-115395000D02*
X124912328Y-116054000D01*
X123311328Y-118134000D02*
X123311328Y-119650000D01*
X124872328Y-115351000D02*
X124872328Y-116054000D01*
X124112328Y-118134000D02*
X124112328Y-119404000D01*
X124152328Y-118134000D02*
X124152328Y-119384000D01*
X124672328Y-118134000D02*
X124672328Y-119031000D01*
X123792328Y-118134000D02*
X123792328Y-119536000D01*
X124512328Y-118134000D02*
X124512328Y-119159000D01*
X124992328Y-115489000D02*
X124992328Y-118699000D01*
X123271328Y-118134000D02*
X123271328Y-119655000D01*
X124472328Y-114999000D02*
X124472328Y-116054000D01*
X123111328Y-118134000D02*
X123111328Y-119670000D01*
X124552328Y-118134000D02*
X124552328Y-119129000D01*
X124392328Y-114945000D02*
X124392328Y-116054000D01*
X123031328Y-114515000D02*
X123031328Y-116054000D01*
X124272328Y-114870000D02*
X124272328Y-116054000D01*
X125571328Y-117094000D02*
G75*
G03*
X125571328Y-117094000I-2620000J0D01*
G01*
%TO.C,RF_R3*%
X131350000Y-115724000D02*
X137890000Y-115724000D01*
X131350000Y-118134000D02*
X131350000Y-118464000D01*
X131350000Y-118464000D02*
X137890000Y-118464000D01*
X137890000Y-118464000D02*
X137890000Y-118134000D01*
X131350000Y-116054000D02*
X131350000Y-115724000D01*
X137890000Y-115724000D02*
X137890000Y-116054000D01*
%TO.C,RF_L3*%
X150890348Y-117892000D02*
G75*
G03*
X157973652Y-117892000I3541652J1560000D01*
G01*
X157973652Y-114772000D02*
G75*
G03*
X150890348Y-114772000I-3541652J-1560000D01*
G01*
%TO.C,RF_C11*%
X175160000Y-96076000D02*
X177900000Y-96076000D01*
X177900000Y-96076000D02*
X177900000Y-88836000D01*
X175160000Y-96076000D02*
X175160000Y-88836000D01*
X175160000Y-88836000D02*
X177900000Y-88836000D01*
%TO.C,RF_D1*%
X125984000Y-111228000D02*
X125984000Y-109308000D01*
X124864000Y-108468000D02*
X127104000Y-108468000D01*
X124864000Y-109308000D02*
X127104000Y-109308000D01*
X125984000Y-103148000D02*
X125984000Y-105068000D01*
X124864000Y-105068000D02*
X124864000Y-109308000D01*
X127104000Y-109308000D02*
X127104000Y-105068000D01*
X124864000Y-108588000D02*
X127104000Y-108588000D01*
X127104000Y-105068000D02*
X124864000Y-105068000D01*
X124864000Y-108708000D02*
X127104000Y-108708000D01*
%TO.C,RF_D2*%
X133350000Y-87908000D02*
X133350000Y-89828000D01*
X134470000Y-90428000D02*
X132230000Y-90428000D01*
X132230000Y-94068000D02*
X134470000Y-94068000D01*
X133350000Y-95988000D02*
X133350000Y-94068000D01*
X134470000Y-90548000D02*
X132230000Y-90548000D01*
X134470000Y-94068000D02*
X134470000Y-89828000D01*
X134470000Y-90668000D02*
X132230000Y-90668000D01*
X132230000Y-89828000D02*
X132230000Y-94068000D01*
X134470000Y-89828000D02*
X132230000Y-89828000D01*
%TO.C,RF_C1*%
X132688000Y-81384000D02*
X132688000Y-74144000D01*
X129948000Y-81384000D02*
X129948000Y-74144000D01*
X129948000Y-81384000D02*
X132688000Y-81384000D01*
X129948000Y-74144000D02*
X132688000Y-74144000D01*
%TO.C,S5*%
G36*
X112014000Y-78587600D02*
G01*
X112018689Y-78507167D01*
X112284118Y-78507167D01*
X112306736Y-78619467D01*
X112456524Y-78655078D01*
X112479666Y-78655334D01*
X112643871Y-78626078D01*
X112677780Y-78522502D01*
X112675215Y-78507167D01*
X112579341Y-78385250D01*
X112479666Y-78359000D01*
X112329871Y-78423225D01*
X112284118Y-78507167D01*
X112018689Y-78507167D01*
X112030601Y-78302815D01*
X112073451Y-78081601D01*
X112115599Y-77994934D01*
X112308036Y-77904951D01*
X112541015Y-77914933D01*
X112705283Y-78006050D01*
X112798819Y-78062606D01*
X112928639Y-78028050D01*
X113101436Y-77921384D01*
X113337834Y-77774692D01*
X113471425Y-77737526D01*
X113528852Y-77810246D01*
X113538000Y-77927304D01*
X113471915Y-78118492D01*
X113259529Y-78294754D01*
X113241666Y-78305449D01*
X113055061Y-78435209D01*
X112952280Y-78544890D01*
X112945333Y-78567812D01*
X113019752Y-78625658D01*
X113202746Y-78654577D01*
X113241666Y-78655334D01*
X113442064Y-78671148D01*
X113524104Y-78742313D01*
X113538000Y-78867000D01*
X113531932Y-78967200D01*
X113492006Y-79029413D01*
X113385636Y-79062693D01*
X113180237Y-79076091D01*
X112843223Y-79078657D01*
X112776000Y-79078667D01*
X112014000Y-79078667D01*
X112014000Y-78587600D01*
G37*
G36*
X113482236Y-76490741D02*
G01*
X113521829Y-76622023D01*
X113537070Y-76879435D01*
X113538000Y-77004334D01*
X113538000Y-77554667D01*
X112014000Y-77554667D01*
X112014000Y-77004334D01*
X112022478Y-76695644D01*
X112052774Y-76524072D01*
X112112177Y-76458030D01*
X112141000Y-76454000D01*
X112229306Y-76509924D01*
X112265695Y-76695303D01*
X112268000Y-76792667D01*
X112282200Y-77014235D01*
X112339594Y-77112160D01*
X112437333Y-77131334D01*
X112554041Y-77098186D01*
X112601131Y-76968778D01*
X112606666Y-76835000D01*
X112634206Y-76615827D01*
X112722100Y-76539203D01*
X112733666Y-76538667D01*
X112827598Y-76602927D01*
X112860437Y-76808012D01*
X112860666Y-76835000D01*
X112876480Y-77035399D01*
X112947646Y-77117438D01*
X113072333Y-77131334D01*
X113208706Y-77112849D01*
X113269319Y-77025659D01*
X113283924Y-76822160D01*
X113284000Y-76792667D01*
X113304971Y-76557182D01*
X113374488Y-76460147D01*
X113411000Y-76454000D01*
X113482236Y-76490741D01*
G37*
G36*
X112707561Y-75025614D02*
G01*
X113077631Y-75161186D01*
X113317476Y-75256425D01*
X113455271Y-75330865D01*
X113519189Y-75404037D01*
X113537405Y-75495475D01*
X113538000Y-75601352D01*
X113525302Y-75724758D01*
X113465432Y-75817060D01*
X113325724Y-75902016D01*
X113073513Y-76003382D01*
X112898580Y-76066375D01*
X112581246Y-76179453D01*
X112317031Y-76274370D01*
X112153968Y-76333851D01*
X112136580Y-76340412D01*
X112042052Y-76325404D01*
X112014000Y-76171274D01*
X112034236Y-76045946D01*
X112118520Y-75949613D01*
X112302213Y-75854827D01*
X112539230Y-75763588D01*
X113064461Y-75572079D01*
X112539230Y-75404071D01*
X112253922Y-75305857D01*
X112095645Y-75223626D01*
X112027860Y-75129563D01*
X112014000Y-75004279D01*
X112014000Y-74772496D01*
X112707561Y-75025614D01*
G37*
G36*
X113366884Y-80134494D02*
G01*
X113397877Y-80164834D01*
X113479326Y-80332154D01*
X113529008Y-80576812D01*
X113540277Y-80828163D01*
X113506486Y-81015560D01*
X113481555Y-81054223D01*
X113354002Y-81106359D01*
X113303043Y-81110667D01*
X113220046Y-81058516D01*
X113232412Y-80905728D01*
X113249574Y-80647883D01*
X113164346Y-80480064D01*
X113030000Y-80433334D01*
X112872367Y-80503320D01*
X112805381Y-80690744D01*
X112827587Y-80905728D01*
X112846988Y-81025971D01*
X112801365Y-81086682D01*
X112653013Y-81108138D01*
X112446511Y-81110667D01*
X112014000Y-81110667D01*
X112014000Y-80602667D01*
X112023753Y-80307695D01*
X112058328Y-80149325D01*
X112125697Y-80095669D01*
X112141000Y-80094667D01*
X112229306Y-80150590D01*
X112265695Y-80335970D01*
X112268000Y-80433334D01*
X112288971Y-80668819D01*
X112358488Y-80765854D01*
X112395000Y-80772000D01*
X112496001Y-80696568D01*
X112521999Y-80524048D01*
X112566045Y-80296095D01*
X112655047Y-80143048D01*
X112874010Y-80029854D01*
X113138128Y-80027789D01*
X113366884Y-80134494D01*
G37*
G36*
X113366884Y-84198494D02*
G01*
X113397877Y-84228834D01*
X113479326Y-84396154D01*
X113529008Y-84640812D01*
X113540277Y-84892163D01*
X113506486Y-85079560D01*
X113481555Y-85118223D01*
X113354002Y-85170359D01*
X113303043Y-85174667D01*
X113220046Y-85122516D01*
X113232412Y-84969728D01*
X113249574Y-84711883D01*
X113164346Y-84544064D01*
X113030000Y-84497334D01*
X112872367Y-84567320D01*
X112805381Y-84754744D01*
X112827587Y-84969728D01*
X112846988Y-85089971D01*
X112801365Y-85150682D01*
X112653013Y-85172138D01*
X112446511Y-85174667D01*
X112014000Y-85174667D01*
X112014000Y-84666667D01*
X112023753Y-84371695D01*
X112058328Y-84213325D01*
X112125697Y-84159669D01*
X112141000Y-84158667D01*
X112229306Y-84214590D01*
X112265695Y-84399970D01*
X112268000Y-84497334D01*
X112288971Y-84732819D01*
X112358488Y-84829854D01*
X112395000Y-84836000D01*
X112496001Y-84760568D01*
X112521999Y-84588048D01*
X112566045Y-84360095D01*
X112655047Y-84207048D01*
X112874010Y-84093854D01*
X113138128Y-84091789D01*
X113366884Y-84198494D01*
G37*
G36*
X112242767Y-82750505D02*
G01*
X112477092Y-82833439D01*
X112778880Y-82952263D01*
X112880688Y-82994500D01*
X113203906Y-83135639D01*
X113399769Y-83241327D01*
X113499463Y-83335605D01*
X113534171Y-83442513D01*
X113536894Y-83500363D01*
X113538000Y-83731059D01*
X112903000Y-83441680D01*
X112267999Y-83152301D01*
X112267999Y-83528484D01*
X112250963Y-83777855D01*
X112193177Y-83890370D01*
X112141000Y-83904667D01*
X112071998Y-83869813D01*
X112032507Y-83744487D01*
X112015851Y-83497546D01*
X112014000Y-83312000D01*
X112025295Y-82967708D01*
X112061070Y-82775503D01*
X112119794Y-82719334D01*
X112242767Y-82750505D01*
G37*
G36*
X113482236Y-72934741D02*
G01*
X113521829Y-73066023D01*
X113537070Y-73323435D01*
X113538000Y-73448334D01*
X113538000Y-73998667D01*
X112014000Y-73998667D01*
X112014000Y-73448334D01*
X112022478Y-73139644D01*
X112052774Y-72968072D01*
X112112177Y-72902030D01*
X112141000Y-72898000D01*
X112229306Y-72953924D01*
X112265695Y-73139303D01*
X112268000Y-73236667D01*
X112282200Y-73458235D01*
X112339594Y-73556160D01*
X112437333Y-73575334D01*
X112554041Y-73542186D01*
X112601131Y-73412778D01*
X112606666Y-73279000D01*
X112634206Y-73059827D01*
X112722100Y-72983203D01*
X112733666Y-72982667D01*
X112827598Y-73046927D01*
X112860437Y-73252012D01*
X112860666Y-73279000D01*
X112876480Y-73479399D01*
X112947646Y-73561438D01*
X113072333Y-73575334D01*
X113208706Y-73556849D01*
X113269319Y-73469659D01*
X113283924Y-73266160D01*
X113284000Y-73236667D01*
X113304971Y-73001182D01*
X113374488Y-72904147D01*
X113411000Y-72898000D01*
X113482236Y-72934741D01*
G37*
G36*
X112242767Y-85459839D02*
G01*
X112477092Y-85542773D01*
X112778880Y-85661597D01*
X112880688Y-85703834D01*
X113203906Y-85844972D01*
X113399769Y-85950660D01*
X113499463Y-86044938D01*
X113534171Y-86151847D01*
X113536894Y-86209696D01*
X113538000Y-86440392D01*
X112903000Y-86151013D01*
X112267999Y-85861634D01*
X112267999Y-86237817D01*
X112250963Y-86487189D01*
X112193177Y-86599703D01*
X112141000Y-86614000D01*
X112071998Y-86579146D01*
X112032507Y-86453820D01*
X112015851Y-86206880D01*
X112014000Y-86021334D01*
X112025295Y-85677041D01*
X112061070Y-85484836D01*
X112119794Y-85428667D01*
X112242767Y-85459839D01*
G37*
G36*
X112694866Y-82397361D02*
G01*
X112473626Y-82274834D01*
X112212108Y-82102382D01*
X112071786Y-81963697D01*
X112040395Y-81878301D01*
X112479666Y-81878301D01*
X112679546Y-82044817D01*
X112880189Y-82184130D01*
X112992742Y-82187263D01*
X113029891Y-82054112D01*
X113030000Y-82042000D01*
X112994551Y-81922463D01*
X112858287Y-81878149D01*
X112754833Y-81875484D01*
X112479666Y-81878301D01*
X112040395Y-81878301D01*
X112019797Y-81822264D01*
X112016401Y-81766834D01*
X112023395Y-81637930D01*
X112074237Y-81568347D01*
X112208618Y-81539808D01*
X112466231Y-81534033D01*
X112522000Y-81534000D01*
X112816972Y-81524247D01*
X112975341Y-81489672D01*
X113028998Y-81422303D01*
X113030000Y-81407000D01*
X113097772Y-81294752D01*
X113157000Y-81280000D01*
X113269248Y-81347773D01*
X113284000Y-81407000D01*
X113351772Y-81519249D01*
X113411000Y-81534000D01*
X113514428Y-81604587D01*
X113538000Y-81703334D01*
X113485060Y-81841238D01*
X113411000Y-81872667D01*
X113322693Y-81928590D01*
X113286304Y-82113970D01*
X113284000Y-82211334D01*
X113270487Y-82431860D01*
X113214053Y-82529554D01*
X113106224Y-82550000D01*
X112992742Y-82520755D01*
X112941459Y-82507539D01*
X112694866Y-82397361D01*
G37*
%TO.C,RF_R2*%
X129262000Y-102140000D02*
X128932000Y-102140000D01*
X131672000Y-102140000D02*
X131672000Y-108680000D01*
X131672000Y-108680000D02*
X131342000Y-108680000D01*
X128932000Y-108680000D02*
X129262000Y-108680000D01*
X131342000Y-102140000D02*
X131672000Y-102140000D01*
X128932000Y-102140000D02*
X128932000Y-108680000D01*
%TO.C,RF_U1*%
X137100000Y-104104000D02*
X160080000Y-104104000D01*
X160080000Y-99604000D02*
X137100000Y-99604000D01*
X160080000Y-104104000D02*
X160080000Y-99604000D01*
X137100000Y-102854000D02*
X137100000Y-104104000D01*
X137100000Y-99604000D02*
X137100000Y-100854000D01*
X137100000Y-102854000D02*
G75*
G03*
X137100000Y-100854000I0J1000000D01*
G01*
%TO.C,RF_C7*%
X147510000Y-90832000D02*
X154750000Y-90832000D01*
X147510000Y-93572000D02*
X154750000Y-93572000D01*
X154750000Y-90832000D02*
X154750000Y-93572000D01*
X147510000Y-90832000D02*
X147510000Y-93572000D01*
%TO.C,RF_VL1*%
X127762000Y-72390000D02*
X117602000Y-72390000D01*
X127762000Y-82550000D02*
X127762000Y-79248000D01*
X117602000Y-79248000D02*
X117602000Y-82550000D01*
X117602000Y-82550000D02*
X127762000Y-82550000D01*
X127762000Y-75692000D02*
X127762000Y-72390000D01*
X117602000Y-72390000D02*
X117602000Y-75692000D01*
%TO.C,RF_C4*%
X139002000Y-112168000D02*
X131762000Y-112168000D01*
X131762000Y-114908000D02*
X131762000Y-112168000D01*
X139002000Y-114908000D02*
X139002000Y-112168000D01*
X139002000Y-114908000D02*
X131762000Y-114908000D01*
%TO.C,RF_R5*%
X170834000Y-116486000D02*
X164294000Y-116486000D01*
X170834000Y-116816000D02*
X170834000Y-116486000D01*
X164294000Y-116486000D02*
X164294000Y-116816000D01*
X170834000Y-118896000D02*
X170834000Y-119226000D01*
X164294000Y-119226000D02*
X164294000Y-118896000D01*
X170834000Y-119226000D02*
X164294000Y-119226000D01*
%TO.C,J4B1*%
X122234000Y-91948000D02*
X122234000Y-109788000D01*
X122234000Y-89348000D02*
X122234000Y-90678000D01*
X119574000Y-109788000D02*
X122234000Y-109788000D01*
X119574000Y-91948000D02*
X122234000Y-91948000D01*
X119574000Y-91948000D02*
X119574000Y-109788000D01*
X120904000Y-89348000D02*
X122234000Y-89348000D01*
%TO.C,RF_R7*%
X161568000Y-93440000D02*
X161898000Y-93440000D01*
X161898000Y-86900000D02*
X161568000Y-86900000D01*
X159158000Y-93440000D02*
X159158000Y-86900000D01*
X161898000Y-93440000D02*
X161898000Y-86900000D01*
X159158000Y-86900000D02*
X159488000Y-86900000D01*
X159488000Y-93440000D02*
X159158000Y-93440000D01*
%TO.C,RF_R8*%
X170910000Y-115162000D02*
X170910000Y-114832000D01*
X164370000Y-114832000D02*
X164370000Y-115162000D01*
X164370000Y-115162000D02*
X170910000Y-115162000D01*
X164370000Y-112752000D02*
X164370000Y-112422000D01*
X170910000Y-112422000D02*
X170910000Y-112752000D01*
X164370000Y-112422000D02*
X170910000Y-112422000D01*
D14*
%TO.C,RF_J1*%
X174212000Y-75690500D02*
X170212000Y-75690500D01*
X169712000Y-85690500D02*
X167212000Y-85690500D01*
X174712000Y-85690500D02*
X177212000Y-85690500D01*
X167212000Y-85690500D02*
X167212000Y-78190500D01*
X177212000Y-85690500D02*
X177212000Y-78190500D01*
D15*
X177812000Y-79590500D02*
X177812000Y-79590500D01*
X178012000Y-79590500D02*
X178012000Y-79590500D01*
X178012000Y-79590500D02*
G75*
G03*
X177812000Y-79590500I-100000J0D01*
G01*
X177812000Y-79590500D02*
G75*
G03*
X178012000Y-79590500I100000J0D01*
G01*
D13*
%TO.C,RF_C8*%
X155094000Y-76176000D02*
X157834000Y-76176000D01*
X157834000Y-83416000D02*
X157834000Y-76176000D01*
X155094000Y-83416000D02*
X155094000Y-76176000D01*
X155094000Y-83416000D02*
X157834000Y-83416000D01*
%TO.C,RF_C9*%
X162460000Y-95568000D02*
X162460000Y-88328000D01*
X162460000Y-95568000D02*
X165200000Y-95568000D01*
X165200000Y-95568000D02*
X165200000Y-88328000D01*
X162460000Y-88328000D02*
X165200000Y-88328000D01*
%TO.C,RF_R4*%
X148812000Y-111098000D02*
X142272000Y-111098000D01*
X148812000Y-108688000D02*
X148812000Y-108358000D01*
X148812000Y-108358000D02*
X142272000Y-108358000D01*
X148812000Y-110768000D02*
X148812000Y-111098000D01*
X142272000Y-111098000D02*
X142272000Y-110768000D01*
X142272000Y-108358000D02*
X142272000Y-108688000D01*
%TO.C,RF_R1*%
X115800000Y-95980000D02*
X115470000Y-95980000D01*
X115470000Y-95980000D02*
X115470000Y-89440000D01*
X115470000Y-89440000D02*
X115800000Y-89440000D01*
X117880000Y-95980000D02*
X118210000Y-95980000D01*
X118210000Y-89440000D02*
X117880000Y-89440000D01*
X118210000Y-95980000D02*
X118210000Y-89440000D01*
%TO.C,RF_R9*%
X153262000Y-80042000D02*
X153262000Y-86582000D01*
X153262000Y-86582000D02*
X152932000Y-86582000D01*
X152932000Y-80042000D02*
X153262000Y-80042000D01*
X150852000Y-80042000D02*
X150522000Y-80042000D01*
X150522000Y-86582000D02*
X150852000Y-86582000D01*
X150522000Y-80042000D02*
X150522000Y-86582000D01*
D11*
%TO.C,RF_SW1*%
X141796000Y-73646000D02*
X139496000Y-73646000D01*
X148096000Y-73646000D02*
X145896000Y-73646000D01*
X148096000Y-78246000D02*
X139496000Y-78246000D01*
D13*
%TO.C,RF_R10*%
X141446000Y-83920000D02*
X134906000Y-83920000D01*
X134906000Y-81180000D02*
X134906000Y-81510000D01*
X141446000Y-81180000D02*
X134906000Y-81180000D01*
X134906000Y-83920000D02*
X134906000Y-83590000D01*
X141446000Y-83590000D02*
X141446000Y-83920000D01*
X141446000Y-81510000D02*
X141446000Y-81180000D01*
%TO.C,RF_L1*%
X171740000Y-95743652D02*
G75*
G03*
X171740000Y-88660348I-1560000J3541652D01*
G01*
X168620000Y-88660348D02*
G75*
G03*
X168620000Y-95743652I1560000J-3541652D01*
G01*
%TO.C,RF_C3*%
X135228000Y-111570000D02*
X132488000Y-111570000D01*
X135228000Y-104330000D02*
X135228000Y-111570000D01*
X135228000Y-104330000D02*
X132488000Y-104330000D01*
X132488000Y-104330000D02*
X132488000Y-111570000D01*
%TO.C,RF_R12*%
X138716000Y-90778000D02*
X138716000Y-90448000D01*
X145256000Y-88038000D02*
X138716000Y-88038000D01*
X145256000Y-88368000D02*
X145256000Y-88038000D01*
X145256000Y-90778000D02*
X138716000Y-90778000D01*
X138716000Y-88038000D02*
X138716000Y-88368000D01*
X145256000Y-90448000D02*
X145256000Y-90778000D01*
%TO.C,RF_L2*%
X174229652Y-104358000D02*
G75*
G03*
X167146348Y-104358000I-3541652J-1560000D01*
G01*
X167146348Y-107478000D02*
G75*
G03*
X174229652Y-107478000I3541652J1560000D01*
G01*
%TD*%
M02*
