%TF.GenerationSoftware,KiCad,Pcbnew,6.0.11-2627ca5db0~126~ubuntu22.04.1*%
%TF.CreationDate,2023-04-09T20:53:47-04:00*%
%TF.ProjectId,sub_rf_mod,7375625f-7266-45f6-9d6f-642e6b696361,rev?*%
%TF.SameCoordinates,Original*%
%TF.FileFunction,Copper,L2,Bot*%
%TF.FilePolarity,Positive*%
%FSLAX46Y46*%
G04 Gerber Fmt 4.6, Leading zero omitted, Abs format (unit mm)*
G04 Created by KiCad (PCBNEW 6.0.11-2627ca5db0~126~ubuntu22.04.1) date 2023-04-09 20:53:47*
%MOMM*%
%LPD*%
G01*
G04 APERTURE LIST*
%TA.AperFunction,Profile*%
%ADD10C,0.100000*%
%TD*%
%TA.AperFunction,ComponentPad*%
%ADD11C,1.600000*%
%TD*%
%TA.AperFunction,ComponentPad*%
%ADD12O,1.600000X1.600000*%
%TD*%
%TA.AperFunction,ComponentPad*%
%ADD13O,1.800000X3.000000*%
%TD*%
%TA.AperFunction,ComponentPad*%
%ADD14R,1.500000X2.500000*%
%TD*%
%TA.AperFunction,ComponentPad*%
%ADD15O,1.500000X2.500000*%
%TD*%
%TA.AperFunction,ComponentPad*%
%ADD16C,2.600000*%
%TD*%
%TA.AperFunction,ComponentPad*%
%ADD17R,1.700000X1.700000*%
%TD*%
%TA.AperFunction,ComponentPad*%
%ADD18O,1.700000X1.700000*%
%TD*%
%TA.AperFunction,ComponentPad*%
%ADD19C,4.227000*%
%TD*%
%TA.AperFunction,ComponentPad*%
%ADD20C,4.039000*%
%TD*%
%TA.AperFunction,ComponentPad*%
%ADD21C,3.800000*%
%TD*%
%TA.AperFunction,ComponentPad*%
%ADD22R,1.600000X1.600000*%
%TD*%
%TA.AperFunction,ComponentPad*%
%ADD23R,1.600000X2.400000*%
%TD*%
%TA.AperFunction,ComponentPad*%
%ADD24O,1.600000X2.400000*%
%TD*%
%TA.AperFunction,ComponentPad*%
%ADD25C,1.524000*%
%TD*%
%TA.AperFunction,ComponentPad*%
%ADD26C,3.000000*%
%TD*%
%TA.AperFunction,Conductor*%
%ADD27C,0.304800*%
%TD*%
%TA.AperFunction,Conductor*%
%ADD28C,1.016000*%
%TD*%
G04 APERTURE END LIST*
D10*
X173736000Y-120128760D02*
X174244000Y-119620760D01*
X105664000Y-120128760D02*
X173736000Y-120128760D01*
X105664000Y-70090760D02*
X173736000Y-70090760D01*
X105664000Y-70090760D02*
X105156000Y-70598760D01*
X174244000Y-119620760D02*
X174244000Y-70598760D01*
X173736000Y-70090760D02*
X174244000Y-70598760D01*
X105156000Y-119620760D02*
X105664000Y-120128760D01*
X105156000Y-119620760D02*
X105156000Y-70598760D01*
D11*
%TO.P,RF_R4,1*%
%TO.N,N/C*%
X136398000Y-116064760D03*
D12*
%TO.P,RF_R4,2*%
X136398000Y-108444760D03*
%TD*%
D11*
%TO.P,RF_R1,1*%
%TO.N,N/C*%
X111760000Y-95236760D03*
D12*
%TO.P,RF_R1,2*%
X111760000Y-87616760D03*
%TD*%
D11*
%TO.P,RF_R9,1*%
%TO.N,N/C*%
X148590000Y-81012760D03*
D12*
%TO.P,RF_R9,2*%
X148590000Y-88632760D03*
%TD*%
D13*
%TO.P,RF_SW1,*%
%TO.N,*%
X134616000Y-74662760D03*
X142816000Y-74662760D03*
D14*
%TO.P,RF_SW1,1,A*%
%TO.N,N/C*%
X140716000Y-74662760D03*
D15*
%TO.P,RF_SW1,2,B*%
X138716000Y-74662760D03*
%TO.P,RF_SW1,3,C*%
X136716000Y-74662760D03*
%TD*%
D11*
%TO.P,RF_R10,1*%
%TO.N,N/C*%
X136906000Y-81266760D03*
D12*
%TO.P,RF_R10,2*%
X129286000Y-81266760D03*
%TD*%
D16*
%TO.P,RF_L1,1,1*%
%TO.N,N/C*%
X165100000Y-93418760D03*
%TO.P,RF_L1,2,2*%
X165100000Y-88418760D03*
%TD*%
D11*
%TO.P,RF_C3,1*%
%TO.N,N/C*%
X128778000Y-104166760D03*
%TO.P,RF_C3,2*%
X128778000Y-109166760D03*
%TD*%
%TO.P,RF_R12,1*%
%TO.N,N/C*%
X140716000Y-88124760D03*
D12*
%TO.P,RF_R12,2*%
X133096000Y-88124760D03*
%TD*%
D16*
%TO.P,RF_L2,1,1*%
%TO.N,N/C*%
X158790000Y-100824760D03*
%TO.P,RF_L2,2,2*%
X163790000Y-100824760D03*
%TD*%
D11*
%TO.P,RF_C4,1*%
%TO.N,N/C*%
X132802000Y-112254760D03*
%TO.P,RF_C4,2*%
X127802000Y-112254760D03*
%TD*%
%TO.P,RF_R5,1*%
%TO.N,N/C*%
X166294000Y-116572760D03*
D12*
%TO.P,RF_R5,2*%
X158674000Y-116572760D03*
%TD*%
D17*
%TO.P,J4B1,1,Pin_1*%
%TO.N,N/C*%
X115824000Y-89394760D03*
D18*
%TO.P,J4B1,2,Pin_2*%
X115824000Y-91934760D03*
%TO.P,J4B1,3,Pin_3*%
X115824000Y-94474760D03*
%TO.P,J4B1,4,Pin_4*%
X115824000Y-97014760D03*
%TO.P,J4B1,5,Pin_5*%
X115824000Y-99554760D03*
%TO.P,J4B1,6,Pin_6*%
X115824000Y-102094760D03*
%TO.P,J4B1,7,Pin_7*%
X115824000Y-104634760D03*
%TO.P,J4B1,8,Pin_8*%
X115824000Y-107174760D03*
%TD*%
D11*
%TO.P,RF_R7,1*%
%TO.N,N/C*%
X155448000Y-93966760D03*
D12*
%TO.P,RF_R7,2*%
X155448000Y-86346760D03*
%TD*%
D11*
%TO.P,RF_R8,1*%
%TO.N,N/C*%
X152400000Y-93966760D03*
D12*
%TO.P,RF_R8,2*%
X152400000Y-86346760D03*
%TD*%
D19*
%TO.P,RF_J1,S*%
%TO.N,N/C*%
X167132000Y-78407260D03*
D20*
%TO.P,RF_J1,T*%
X167132000Y-82907260D03*
%TD*%
D11*
%TO.P,RF_C8,1*%
%TO.N,N/C*%
X151384000Y-81012760D03*
%TO.P,RF_C8,2*%
X156384000Y-81012760D03*
%TD*%
%TO.P,RF_C9,1*%
%TO.N,N/C*%
X158750000Y-93164760D03*
%TO.P,RF_C9,2*%
X158750000Y-88164760D03*
%TD*%
D21*
%TO.P,H16,1,1*%
%TO.N,N/C*%
X115824000Y-111238760D03*
%TD*%
D22*
%TO.P,RF_C13,1*%
%TO.N,N/C*%
X116871328Y-115810760D03*
D11*
%TO.P,RF_C13,2*%
X118871328Y-115810760D03*
%TD*%
%TO.P,RF_R3,1*%
%TO.N,N/C*%
X125730000Y-115810760D03*
D12*
%TO.P,RF_R3,2*%
X133350000Y-115810760D03*
%TD*%
D16*
%TO.P,RF_L3,1,1*%
%TO.N,N/C*%
X149098000Y-116786760D03*
%TO.P,RF_L3,2,2*%
X149098000Y-111786760D03*
%TD*%
D11*
%TO.P,RF_C11,1*%
%TO.N,N/C*%
X171704000Y-88418760D03*
%TO.P,RF_C11,2*%
X171704000Y-93418760D03*
%TD*%
D22*
%TO.P,RF_D1,1,K*%
%TO.N,N/C*%
X120904000Y-110984760D03*
D12*
%TO.P,RF_D1,2,A*%
X120904000Y-100824760D03*
%TD*%
D22*
%TO.P,RF_D2,1,K*%
%TO.N,N/C*%
X128270000Y-85584760D03*
D12*
%TO.P,RF_D2,2,A*%
X128270000Y-95744760D03*
%TD*%
D11*
%TO.P,RF_C1,1*%
%TO.N,N/C*%
X126238000Y-78980760D03*
%TO.P,RF_C1,2*%
X126238000Y-73980760D03*
%TD*%
%TO.P,RF_R2,1*%
%TO.N,N/C*%
X125222000Y-100316760D03*
D12*
%TO.P,RF_R2,2*%
X125222000Y-107936760D03*
%TD*%
D23*
%TO.P,RF_U1,1,CHROMA_LEAD*%
%TO.N,N/C*%
X133350000Y-104380760D03*
D24*
%TO.P,RF_U1,2,R-Y*%
X135890000Y-104380760D03*
%TO.P,RF_U1,3,CHROMA_BIAS*%
X138430000Y-104380760D03*
%TO.P,RF_U1,4,B-Y*%
X140970000Y-104380760D03*
%TO.P,RF_U1,5,GND*%
X143510000Y-104380760D03*
%TO.P,RF_U1,6,CHB_TANK1*%
X146050000Y-104380760D03*
%TO.P,RF_U1,7,CHB_TANK2*%
X148590000Y-104380760D03*
%TO.P,RF_U1,8,CHA_TANK1*%
X151130000Y-104380760D03*
%TO.P,RF_U1,9,CHA_TANK2*%
X153670000Y-104380760D03*
%TO.P,RF_U1,10,CHB_OUTPUT*%
X153670000Y-96760760D03*
%TO.P,RF_U1,11,CHA_OUTPUT*%
X151130000Y-96760760D03*
%TO.P,RF_U1,12,VIDEO_IN*%
X148590000Y-96760760D03*
%TO.P,RF_U1,13,CHROMA_SUBCAR*%
X146050000Y-96760760D03*
%TO.P,RF_U1,14,RF_SUPPLY*%
X143510000Y-96760760D03*
%TO.P,RF_U1,15,SOUND_TANK*%
X140970000Y-96760760D03*
%TO.P,RF_U1,16,CHROMA_SUPPLY*%
X138430000Y-96760760D03*
%TO.P,RF_U1,17,CHROMA_OSC*%
X135890000Y-96760760D03*
%TO.P,RF_U1,18,CHROMA_LAG*%
X133350000Y-96760760D03*
%TD*%
D11*
%TO.P,RF_C7,1*%
%TO.N,N/C*%
X143550000Y-91426760D03*
%TO.P,RF_C7,2*%
X148550000Y-91426760D03*
%TD*%
D21*
%TO.P,H17,1,1*%
%TO.N,N/C*%
X115824000Y-85330760D03*
%TD*%
D25*
%TO.P,RF_VL1,1,1*%
%TO.N,N/C*%
X114046000Y-79742760D03*
%TO.P,RF_VL1,2,2*%
X117602000Y-79742760D03*
%TO.P,RF_VL1,3,3*%
X121158000Y-79742760D03*
%TO.P,RF_VL1,4,4*%
X121158000Y-72630760D03*
%TO.P,RF_VL1,6,6*%
X114046000Y-72630760D03*
D26*
%TO.P,RF_VL1,S,S*%
X112522000Y-76186760D03*
X122682000Y-76186760D03*
%TD*%
D11*
%TO.P,RF_C10,1*%
%TO.N,N/C*%
X167640000Y-101800760D03*
%TO.P,RF_C10,2*%
X167640000Y-96800760D03*
%TD*%
%TO.P,RF_JP1,1,A*%
%TO.N,N/C*%
X121158000Y-83044760D03*
D12*
%TO.P,RF_JP1,2,B*%
X121158000Y-98284760D03*
%TD*%
D11*
%TO.P,RF_C6,1*%
%TO.N,N/C*%
X155448000Y-116786760D03*
%TO.P,RF_C6,2*%
X155448000Y-111786760D03*
%TD*%
%TO.P,RF_C5,1*%
%TO.N,N/C*%
X131612000Y-91426760D03*
%TO.P,RF_C5,2*%
X136612000Y-91426760D03*
%TD*%
%TO.P,RF_R11,1*%
%TO.N,N/C*%
X131572000Y-84822760D03*
D12*
%TO.P,RF_R11,2*%
X139192000Y-84822760D03*
%TD*%
D11*
%TO.P,RF_C12,1*%
%TO.N,N/C*%
X154138000Y-107936760D03*
%TO.P,RF_C12,2*%
X149138000Y-107936760D03*
%TD*%
%TO.P,RF_R6,1*%
%TO.N,N/C*%
X158750000Y-112762760D03*
D12*
%TO.P,RF_R6,2*%
X166370000Y-112762760D03*
%TD*%
D11*
%TO.P,RF_C2,1*%
%TO.N,N/C*%
X124968000Y-90704760D03*
%TO.P,RF_C2,2*%
X124968000Y-95704760D03*
%TD*%
D27*
%TO.N,*%
X148550000Y-96720760D02*
X148590000Y-96760760D01*
D28*
X166370000Y-112762760D02*
X170220800Y-108911960D01*
X165200751Y-90531560D02*
X154044800Y-90531560D01*
X154044800Y-90531560D02*
X152400000Y-88886760D01*
X132909692Y-72309068D02*
X129159000Y-76059760D01*
D27*
X144780000Y-84822760D02*
X148590000Y-88632760D01*
X131865950Y-110476760D02*
X137541000Y-110476760D01*
X115824000Y-104634760D02*
X125730000Y-104634760D01*
X125730000Y-104634760D02*
X129004800Y-107909560D01*
X129004800Y-107909560D02*
X129298750Y-107909560D01*
X137541000Y-110476760D02*
X140970000Y-107047760D01*
X146050000Y-104848760D02*
X149138000Y-107936760D01*
X129298750Y-107909560D02*
X131865950Y-110476760D01*
X140970000Y-107047760D02*
X140970000Y-104380760D01*
X149138000Y-111746760D02*
X149098000Y-111786760D01*
D28*
X136906000Y-85584760D02*
X138430000Y-87108760D01*
X136906000Y-81266760D02*
X136906000Y-85584760D01*
X152400000Y-88886760D02*
X152400000Y-86346760D01*
X152400000Y-86346760D02*
X152400000Y-82028760D01*
D27*
X120904000Y-85584760D02*
X115062000Y-79742760D01*
D28*
X170220800Y-108911960D02*
X170220800Y-95551609D01*
D27*
X139192000Y-84822760D02*
X144780000Y-84822760D01*
D28*
X170220800Y-95551609D02*
X165200751Y-90531560D01*
D27*
X165100000Y-94260760D02*
X165100000Y-93418760D01*
X146050000Y-104380760D02*
X146050000Y-104848760D01*
X155448000Y-116786760D02*
X149098000Y-116786760D01*
D28*
X139934800Y-98773560D02*
X138430000Y-97268760D01*
D27*
X155662000Y-116572760D02*
X155448000Y-116786760D01*
X152908000Y-93966760D02*
X153670000Y-94728760D01*
X152400000Y-93966760D02*
X152908000Y-93966760D01*
D28*
X143510000Y-97268760D02*
X142005200Y-98773560D01*
D27*
X155448000Y-106626760D02*
X154138000Y-107936760D01*
X153670000Y-94728760D02*
X153670000Y-96760760D01*
X129551047Y-107300459D02*
X129257097Y-107300459D01*
X129257097Y-107300459D02*
X125575398Y-103618760D01*
X144792800Y-103460011D02*
X145650051Y-102602760D01*
X144792800Y-106171560D02*
X144792800Y-103460011D01*
X131952548Y-109701960D02*
X129551047Y-107300459D01*
X131572000Y-108444760D02*
X129818598Y-106691358D01*
X129524648Y-106691358D02*
X125436050Y-102602760D01*
X140716000Y-74376760D02*
X140716000Y-76186760D01*
X152387200Y-98779960D02*
X155448000Y-101840760D01*
X140716000Y-76186760D02*
X150876000Y-86346760D01*
X137172800Y-109701960D02*
X131952548Y-109701960D01*
X145650051Y-102602760D02*
X146812000Y-102602760D01*
D28*
X152400000Y-82028760D02*
X151384000Y-81012760D01*
X138430000Y-87108760D02*
X138430000Y-89394760D01*
D27*
X155448000Y-111786760D02*
X149098000Y-111786760D01*
X154726000Y-96760760D02*
X158790000Y-100824760D01*
X129818598Y-106691358D02*
X129524648Y-106691358D01*
X148550000Y-91426760D02*
X148550000Y-96720760D01*
X148590000Y-88632760D02*
X148590000Y-91386760D01*
X136652000Y-108444760D02*
X131572000Y-108444760D01*
D28*
X143923811Y-72309068D02*
X132909692Y-72309068D01*
X146812000Y-75197257D02*
X143923811Y-72309068D01*
X138430000Y-89394760D02*
X143510000Y-94474760D01*
D27*
X146050000Y-107428760D02*
X146050000Y-113738760D01*
X146050000Y-113738760D02*
X149098000Y-116786760D01*
X163790000Y-100824760D02*
X166664000Y-100824760D01*
X153670000Y-96760760D02*
X154726000Y-96760760D01*
X139712800Y-107161960D02*
X137172800Y-109701960D01*
X149138000Y-107936760D02*
X149138000Y-111746760D01*
X135128000Y-88124760D02*
X140970000Y-93966760D01*
X133096000Y-82790760D02*
X133096000Y-88124760D01*
X128270000Y-85584760D02*
X127762000Y-85076760D01*
X127762000Y-85076760D02*
X127762000Y-80758760D01*
X128778000Y-79742760D02*
X130048000Y-79742760D01*
X127762000Y-80758760D02*
X128778000Y-79742760D01*
X130048000Y-79742760D02*
X133096000Y-82790760D01*
X140970000Y-93966760D02*
X140970000Y-96760760D01*
X133096000Y-88124760D02*
X135128000Y-88124760D01*
X165100000Y-84939260D02*
X167132000Y-82907260D01*
X165100000Y-88418760D02*
X171704000Y-88418760D01*
X165100000Y-88418760D02*
X165100000Y-84939260D01*
X165100000Y-93418760D02*
X159004000Y-93418760D01*
X155448000Y-93966760D02*
X157948000Y-93966760D01*
X159004000Y-93418760D02*
X158750000Y-93164760D01*
X157948000Y-93966760D02*
X158750000Y-93164760D01*
X149860000Y-103110760D02*
X149860000Y-87108760D01*
X138716000Y-75964760D02*
X138716000Y-74376760D01*
X149860000Y-87108760D02*
X138716000Y-75964760D01*
X148590000Y-104380760D02*
X149860000Y-103110760D01*
X133350000Y-96760760D02*
X133350000Y-93164760D01*
X133350000Y-93164760D02*
X131612000Y-91426760D01*
X125222000Y-100316760D02*
X129794000Y-100316760D01*
X129794000Y-100316760D02*
X133350000Y-96760760D01*
X131866000Y-112254760D02*
X128778000Y-109166760D01*
X132802000Y-112254760D02*
X132802000Y-115262760D01*
X132802000Y-112254760D02*
X131866000Y-112254760D01*
X132802000Y-115262760D02*
X133350000Y-115810760D01*
X128992000Y-104380760D02*
X128778000Y-104166760D01*
X133350000Y-104380760D02*
X128992000Y-104380760D01*
D28*
X166370000Y-112762760D02*
X166370000Y-116496760D01*
X131699000Y-76059760D02*
X136906000Y-81266760D01*
X129159000Y-76059760D02*
X131699000Y-76059760D01*
X121158000Y-79742760D02*
X125476000Y-79742760D01*
X121158000Y-83044760D02*
X121158000Y-79742760D01*
X166370000Y-116496760D02*
X166294000Y-116572760D01*
X129159000Y-76059760D02*
X126238000Y-78980760D01*
X125476000Y-79742760D02*
X126238000Y-78980760D01*
D27*
X140716000Y-88592760D02*
X140716000Y-88124760D01*
X167640000Y-96800760D02*
X165100000Y-94260760D01*
D28*
X151384000Y-81012760D02*
X148590000Y-81012760D01*
D27*
X128270000Y-85584760D02*
X120904000Y-85584760D01*
X148590000Y-91386760D02*
X148550000Y-91426760D01*
X156424000Y-112762760D02*
X155448000Y-111786760D01*
D28*
X142005200Y-98773560D02*
X139934800Y-98773560D01*
X146812000Y-79234760D02*
X146812000Y-75197257D01*
D27*
X146050000Y-96760760D02*
X139712800Y-103097960D01*
X125575398Y-103618760D02*
X117348000Y-103618760D01*
X139712800Y-103097960D02*
X139712800Y-107161960D01*
X125436050Y-102602760D02*
X122682000Y-102602760D01*
D28*
X143510000Y-96760760D02*
X143510000Y-97268760D01*
X138430000Y-97268760D02*
X138430000Y-96760760D01*
D27*
X166664000Y-100824760D02*
X167640000Y-101800760D01*
X119126000Y-91934760D02*
X115824000Y-91934760D01*
X129286000Y-81266760D02*
X129540000Y-81520760D01*
X129540000Y-94474760D02*
X128270000Y-95744760D01*
X129540000Y-81520760D02*
X129540000Y-94474760D01*
X111760000Y-87616760D02*
X111760000Y-87870760D01*
X125008000Y-95744760D02*
X124968000Y-95704760D01*
X124968000Y-95704760D02*
X122896000Y-95704760D01*
X122896000Y-95704760D02*
X119126000Y-91934760D01*
X128270000Y-95744760D02*
X125008000Y-95744760D01*
X111760000Y-87870760D02*
X115824000Y-91934760D01*
X137033000Y-108444760D02*
X138430000Y-107047760D01*
X119634000Y-99554760D02*
X120904000Y-100824760D01*
X115824000Y-99554760D02*
X119634000Y-99554760D01*
X138430000Y-104380760D02*
X137160000Y-103110760D01*
X136612000Y-91426760D02*
X133858000Y-91426760D01*
X133858000Y-91426760D02*
X131572000Y-89140760D01*
X111760000Y-95490760D02*
X111760000Y-95236760D01*
X137160000Y-91974760D02*
X136612000Y-91426760D01*
X131572000Y-89140760D02*
X131572000Y-84822760D01*
X137160000Y-103110760D02*
X137160000Y-91974760D01*
X115824000Y-99554760D02*
X111760000Y-95490760D01*
X138430000Y-107047760D02*
X138430000Y-104380760D01*
X136652000Y-108444760D02*
X137033000Y-108444760D01*
X125222000Y-109674760D02*
X127802000Y-112254760D01*
X124460000Y-107174760D02*
X125222000Y-107936760D01*
X115824000Y-107174760D02*
X124460000Y-107174760D01*
X125222000Y-107936760D02*
X125222000Y-109674760D01*
X122936000Y-97268760D02*
X120142000Y-94474760D01*
X135890000Y-103675960D02*
X134054800Y-101840760D01*
X123698000Y-101840760D02*
X122936000Y-101078760D01*
X134054800Y-101840760D02*
X123698000Y-101840760D01*
X122936000Y-101078760D02*
X122936000Y-97268760D01*
X120142000Y-94474760D02*
X115824000Y-94474760D01*
X135890000Y-104380760D02*
X135890000Y-103675960D01*
X158750000Y-112762760D02*
X156424000Y-112762760D01*
D28*
X117094000Y-98284760D02*
X115824000Y-97014760D01*
X109982000Y-94220760D02*
X109982000Y-95998760D01*
X120904000Y-110984760D02*
X116871328Y-115017432D01*
X116871328Y-115017432D02*
X116871328Y-115810760D01*
X110744000Y-93458760D02*
X109982000Y-94220760D01*
X115824000Y-97014760D02*
X112268000Y-93458760D01*
X109982000Y-95998760D02*
X113030000Y-99046760D01*
X113030000Y-99046760D02*
X113030000Y-112281239D01*
X116871328Y-115810760D02*
X116559521Y-115810760D01*
X112268000Y-93458760D02*
X110744000Y-93458760D01*
X121158000Y-98284760D02*
X117094000Y-98284760D01*
X116559521Y-115810760D02*
X113030000Y-112281239D01*
D27*
X158674000Y-116572760D02*
X155662000Y-116572760D01*
D28*
X148590000Y-81012760D02*
X146812000Y-79234760D01*
D27*
X115062000Y-79742760D02*
X114046000Y-79742760D01*
D28*
X167132000Y-78407260D02*
X168844500Y-78407260D01*
D27*
X150876000Y-86346760D02*
X150876000Y-94328811D01*
X152387200Y-95840011D02*
X152387200Y-98779960D01*
X150876000Y-94328811D02*
X152387200Y-95840011D01*
X155448000Y-101840760D02*
X155448000Y-106626760D01*
X122682000Y-102602760D02*
X120904000Y-100824760D01*
X117348000Y-103618760D02*
X115824000Y-102094760D01*
X143550000Y-91426760D02*
X140716000Y-88592760D01*
X146050000Y-107428760D02*
X144792800Y-106171560D01*
D28*
X143510000Y-94474760D02*
X143510000Y-96760760D01*
D27*
X146812000Y-102602760D02*
X148590000Y-104380760D01*
%TD*%
%TA.AperFunction,NonConductor*%
G36*
X173541303Y-70619262D02*
G01*
X173562278Y-70636165D01*
X173698596Y-70772484D01*
X173732621Y-70834796D01*
X173735500Y-70861579D01*
X173735500Y-119357941D01*
X173715498Y-119426062D01*
X173698596Y-119447036D01*
X173562278Y-119583355D01*
X173499966Y-119617380D01*
X173473182Y-119620260D01*
X105926819Y-119620260D01*
X105858698Y-119600258D01*
X105837724Y-119583356D01*
X105701405Y-119447038D01*
X105667380Y-119384726D01*
X105664500Y-119357942D01*
X105664500Y-94217195D01*
X108960588Y-94217195D01*
X108962949Y-94242174D01*
X108964941Y-94263245D01*
X108965500Y-94275103D01*
X108965500Y-95936484D01*
X108964763Y-95950092D01*
X108961714Y-95978162D01*
X108960638Y-95988064D01*
X108963575Y-96021630D01*
X108965046Y-96038450D01*
X108965375Y-96043278D01*
X108965500Y-96045833D01*
X108965500Y-96048917D01*
X108965801Y-96051984D01*
X108969722Y-96091979D01*
X108969844Y-96093292D01*
X108978012Y-96186652D01*
X108979511Y-96191812D01*
X108980035Y-96197154D01*
X109002552Y-96271733D01*
X109007098Y-96286791D01*
X109007455Y-96287996D01*
X109033628Y-96378082D01*
X109036100Y-96382850D01*
X109037652Y-96387992D01*
X109040547Y-96393437D01*
X109040550Y-96393444D01*
X109081633Y-96470710D01*
X109082213Y-96471814D01*
X109125366Y-96555064D01*
X109128718Y-96559263D01*
X109131239Y-96564004D01*
X109135131Y-96568776D01*
X109190438Y-96636589D01*
X109191266Y-96637615D01*
X109220571Y-96674324D01*
X109222768Y-96677076D01*
X109225263Y-96679571D01*
X109225973Y-96680365D01*
X109229693Y-96684720D01*
X109253337Y-96713711D01*
X109253340Y-96713714D01*
X109257232Y-96718486D01*
X109261980Y-96722414D01*
X109261981Y-96722415D01*
X109292873Y-96747971D01*
X109301652Y-96755960D01*
X111976595Y-99430903D01*
X112010621Y-99493215D01*
X112013500Y-99519998D01*
X112013500Y-112218963D01*
X112012763Y-112232571D01*
X112009758Y-112260235D01*
X112008638Y-112270543D01*
X112010877Y-112296139D01*
X112013046Y-112320929D01*
X112013375Y-112325757D01*
X112013500Y-112328312D01*
X112013500Y-112331396D01*
X112013801Y-112334463D01*
X112017722Y-112374458D01*
X112017844Y-112375771D01*
X112026012Y-112469131D01*
X112027511Y-112474291D01*
X112028035Y-112479633D01*
X112044653Y-112534673D01*
X112055098Y-112569270D01*
X112055455Y-112570475D01*
X112081628Y-112660561D01*
X112084100Y-112665329D01*
X112085652Y-112670471D01*
X112088547Y-112675916D01*
X112088550Y-112675923D01*
X112129633Y-112753189D01*
X112130213Y-112754293D01*
X112173366Y-112837543D01*
X112176718Y-112841742D01*
X112179239Y-112846483D01*
X112183131Y-112851255D01*
X112238438Y-112919068D01*
X112239266Y-112920094D01*
X112268571Y-112956803D01*
X112270768Y-112959555D01*
X112273263Y-112962050D01*
X112273973Y-112962844D01*
X112277693Y-112967199D01*
X112301337Y-112996190D01*
X112301340Y-112996193D01*
X112305232Y-113000965D01*
X112309980Y-113004893D01*
X112309981Y-113004894D01*
X112340873Y-113030450D01*
X112349652Y-113038439D01*
X115525923Y-116214710D01*
X115559949Y-116277022D01*
X115562828Y-116303805D01*
X115562828Y-116658894D01*
X115569583Y-116721076D01*
X115620713Y-116857465D01*
X115708067Y-116974021D01*
X115824623Y-117061375D01*
X115961012Y-117112505D01*
X116023194Y-117119260D01*
X117719462Y-117119260D01*
X117781644Y-117112505D01*
X117918033Y-117061375D01*
X118034589Y-116974021D01*
X118121943Y-116857465D01*
X118173073Y-116721076D01*
X118179828Y-116658894D01*
X118179828Y-115198670D01*
X118199830Y-115130549D01*
X118216733Y-115109575D01*
X120996143Y-112330165D01*
X121058455Y-112296139D01*
X121085238Y-112293260D01*
X121752134Y-112293260D01*
X121814316Y-112286505D01*
X121950705Y-112235375D01*
X122067261Y-112148021D01*
X122154615Y-112031465D01*
X122205745Y-111895076D01*
X122212500Y-111832894D01*
X122212500Y-110136626D01*
X122205745Y-110074444D01*
X122154615Y-109938055D01*
X122067261Y-109821499D01*
X121950705Y-109734145D01*
X121814316Y-109683015D01*
X121752134Y-109676260D01*
X120055866Y-109676260D01*
X119993684Y-109683015D01*
X119857295Y-109734145D01*
X119740739Y-109821499D01*
X119653385Y-109938055D01*
X119602255Y-110074444D01*
X119595500Y-110136626D01*
X119595500Y-110803521D01*
X119575498Y-110871642D01*
X119558595Y-110892616D01*
X117963050Y-112488162D01*
X116407856Y-114043356D01*
X116345544Y-114077382D01*
X116274729Y-114072317D01*
X116229666Y-114043356D01*
X114083405Y-111897096D01*
X114049380Y-111834784D01*
X114046500Y-111808001D01*
X114046500Y-99109036D01*
X114047237Y-99095428D01*
X114050697Y-99063581D01*
X114050697Y-99063577D01*
X114051362Y-99057456D01*
X114050825Y-99051314D01*
X114048871Y-99028979D01*
X114062858Y-98959374D01*
X114112257Y-98908381D01*
X114181383Y-98892190D01*
X114248289Y-98915941D01*
X114263486Y-98928900D01*
X114465364Y-99130777D01*
X114499389Y-99193089D01*
X114497686Y-99253545D01*
X114486370Y-99294348D01*
X114486369Y-99294356D01*
X114484989Y-99299330D01*
X114484441Y-99304460D01*
X114484440Y-99304464D01*
X114483372Y-99314459D01*
X114461251Y-99521455D01*
X114461548Y-99526608D01*
X114461548Y-99526611D01*
X114472603Y-99718346D01*
X114474110Y-99744475D01*
X114475247Y-99749521D01*
X114475248Y-99749527D01*
X114490806Y-99818562D01*
X114523222Y-99962399D01*
X114607266Y-100169376D01*
X114653603Y-100244991D01*
X114694228Y-100311285D01*
X114723987Y-100359848D01*
X114870250Y-100528698D01*
X114954846Y-100598931D01*
X115029502Y-100660911D01*
X115042126Y-100671392D01*
X115112595Y-100712571D01*
X115115445Y-100714236D01*
X115164169Y-100765874D01*
X115177240Y-100835657D01*
X115150509Y-100901429D01*
X115110055Y-100934787D01*
X115097607Y-100941267D01*
X115093474Y-100944370D01*
X115093471Y-100944372D01*
X114923100Y-101072290D01*
X114918965Y-101075395D01*
X114915393Y-101079133D01*
X114804735Y-101194930D01*
X114764629Y-101236898D01*
X114761715Y-101241170D01*
X114761714Y-101241171D01*
X114693178Y-101341641D01*
X114638743Y-101421440D01*
X114604209Y-101495838D01*
X114566000Y-101578153D01*
X114544688Y-101624065D01*
X114484989Y-101839330D01*
X114461251Y-102061455D01*
X114461548Y-102066608D01*
X114461548Y-102066611D01*
X114467011Y-102161350D01*
X114474110Y-102284475D01*
X114475247Y-102289521D01*
X114475248Y-102289527D01*
X114475799Y-102291970D01*
X114523222Y-102502399D01*
X114581150Y-102645060D01*
X114594196Y-102677187D01*
X114607266Y-102709376D01*
X114652601Y-102783357D01*
X114707668Y-102873217D01*
X114723987Y-102899848D01*
X114870250Y-103068698D01*
X115042126Y-103211392D01*
X115112595Y-103252571D01*
X115115445Y-103254236D01*
X115164169Y-103305874D01*
X115177240Y-103375657D01*
X115150509Y-103441429D01*
X115110055Y-103474787D01*
X115097607Y-103481267D01*
X115093474Y-103484370D01*
X115093471Y-103484372D01*
X114947247Y-103594160D01*
X114918965Y-103615395D01*
X114764629Y-103776898D01*
X114638743Y-103961440D01*
X114544688Y-104164065D01*
X114484989Y-104379330D01*
X114461251Y-104601455D01*
X114474110Y-104824475D01*
X114475247Y-104829521D01*
X114475248Y-104829527D01*
X114477746Y-104840611D01*
X114523222Y-105042399D01*
X114552831Y-105115318D01*
X114601824Y-105235973D01*
X114607266Y-105249376D01*
X114609965Y-105253780D01*
X114719498Y-105432522D01*
X114723987Y-105439848D01*
X114870250Y-105608698D01*
X115042126Y-105751392D01*
X115096321Y-105783061D01*
X115115445Y-105794236D01*
X115164169Y-105845874D01*
X115177240Y-105915657D01*
X115150509Y-105981429D01*
X115110055Y-106014787D01*
X115102404Y-106018770D01*
X115097607Y-106021267D01*
X115093474Y-106024370D01*
X115093471Y-106024372D01*
X114933746Y-106144297D01*
X114918965Y-106155395D01*
X114764629Y-106316898D01*
X114638743Y-106501440D01*
X114609117Y-106565265D01*
X114560102Y-106670859D01*
X114544688Y-106704065D01*
X114484989Y-106919330D01*
X114461251Y-107141455D01*
X114461548Y-107146608D01*
X114461548Y-107146611D01*
X114468660Y-107269955D01*
X114474110Y-107364475D01*
X114475247Y-107369521D01*
X114475248Y-107369527D01*
X114490806Y-107438562D01*
X114523222Y-107582399D01*
X114607266Y-107789376D01*
X114609965Y-107793780D01*
X114694228Y-107931285D01*
X114723987Y-107979848D01*
X114870250Y-108148698D01*
X115042126Y-108291392D01*
X115235000Y-108404098D01*
X115443692Y-108483790D01*
X115448760Y-108484821D01*
X115448763Y-108484822D01*
X115550414Y-108505503D01*
X115662597Y-108528327D01*
X115667772Y-108528517D01*
X115667774Y-108528517D01*
X115880673Y-108536324D01*
X115880677Y-108536324D01*
X115885837Y-108536513D01*
X115890957Y-108535857D01*
X115890959Y-108535857D01*
X116102288Y-108508785D01*
X116102289Y-108508785D01*
X116107416Y-108508128D01*
X116116166Y-108505503D01*
X116316429Y-108445421D01*
X116316434Y-108445419D01*
X116321384Y-108443934D01*
X116521994Y-108345656D01*
X116703860Y-108215933D01*
X116862096Y-108058249D01*
X116984336Y-107888133D01*
X117040330Y-107844486D01*
X117086658Y-107835660D01*
X123784199Y-107835660D01*
X123852320Y-107855662D01*
X123898813Y-107909318D01*
X123909720Y-107950679D01*
X123927977Y-108159366D01*
X123927978Y-108159371D01*
X123928457Y-108164847D01*
X123929881Y-108170160D01*
X123929881Y-108170162D01*
X123970690Y-108322460D01*
X123987716Y-108386003D01*
X123990039Y-108390984D01*
X123990039Y-108390985D01*
X124082151Y-108588522D01*
X124082154Y-108588527D01*
X124084477Y-108593509D01*
X124087634Y-108598017D01*
X124171309Y-108717517D01*
X124215802Y-108781060D01*
X124377700Y-108942958D01*
X124382208Y-108946115D01*
X124382211Y-108946117D01*
X124507371Y-109033755D01*
X124551699Y-109089212D01*
X124561100Y-109136968D01*
X124561100Y-109647497D01*
X124560808Y-109656068D01*
X124557158Y-109709603D01*
X124558463Y-109717080D01*
X124558463Y-109717081D01*
X124567368Y-109768103D01*
X124568331Y-109774629D01*
X124573643Y-109818522D01*
X124575463Y-109833565D01*
X124578149Y-109840673D01*
X124579860Y-109847639D01*
X124581279Y-109852828D01*
X124583356Y-109859707D01*
X124584661Y-109867184D01*
X124608529Y-109921555D01*
X124611012Y-109927641D01*
X124632006Y-109983201D01*
X124636309Y-109989462D01*
X124639615Y-109995786D01*
X124642271Y-110000558D01*
X124645906Y-110006704D01*
X124648958Y-110013656D01*
X124653580Y-110019679D01*
X124685102Y-110060761D01*
X124688973Y-110066088D01*
X124722611Y-110115031D01*
X124728287Y-110120088D01*
X124765819Y-110153528D01*
X124771095Y-110158509D01*
X125635386Y-111022799D01*
X126484659Y-111872072D01*
X126518684Y-111934384D01*
X126517271Y-111993778D01*
X126512291Y-112012364D01*
X126508457Y-112026673D01*
X126488502Y-112254760D01*
X126508457Y-112482847D01*
X126509881Y-112488160D01*
X126509881Y-112488162D01*
X126558630Y-112670092D01*
X126567716Y-112704003D01*
X126570039Y-112708984D01*
X126570039Y-112708985D01*
X126662151Y-112906522D01*
X126662154Y-112906527D01*
X126664477Y-112911509D01*
X126727115Y-113000965D01*
X126784774Y-113083310D01*
X126795802Y-113099060D01*
X126957700Y-113260958D01*
X126962208Y-113264115D01*
X126962211Y-113264117D01*
X127007159Y-113295590D01*
X127145251Y-113392283D01*
X127150233Y-113394606D01*
X127150238Y-113394609D01*
X127347775Y-113486721D01*
X127352757Y-113489044D01*
X127358065Y-113490466D01*
X127358067Y-113490467D01*
X127568598Y-113546879D01*
X127568600Y-113546879D01*
X127573913Y-113548303D01*
X127802000Y-113568258D01*
X128030087Y-113548303D01*
X128035400Y-113546879D01*
X128035402Y-113546879D01*
X128245933Y-113490467D01*
X128245935Y-113490466D01*
X128251243Y-113489044D01*
X128256225Y-113486721D01*
X128453762Y-113394609D01*
X128453767Y-113394606D01*
X128458749Y-113392283D01*
X128596841Y-113295590D01*
X128641789Y-113264117D01*
X128641792Y-113264115D01*
X128646300Y-113260958D01*
X128808198Y-113099060D01*
X128819227Y-113083310D01*
X128876885Y-113000965D01*
X128939523Y-112911509D01*
X128941846Y-112906527D01*
X128941849Y-112906522D01*
X129033961Y-112708985D01*
X129033961Y-112708984D01*
X129036284Y-112704003D01*
X129045371Y-112670092D01*
X129094119Y-112488162D01*
X129094119Y-112488160D01*
X129095543Y-112482847D01*
X129115498Y-112254760D01*
X129095543Y-112026673D01*
X129060823Y-111897096D01*
X129037707Y-111810827D01*
X129037706Y-111810825D01*
X129036284Y-111805517D01*
X129011983Y-111753403D01*
X128941849Y-111602998D01*
X128941846Y-111602993D01*
X128939523Y-111598011D01*
X128808198Y-111410460D01*
X128646300Y-111248562D01*
X128641792Y-111245405D01*
X128641789Y-111245403D01*
X128523808Y-111162792D01*
X128458749Y-111117237D01*
X128453767Y-111114914D01*
X128453762Y-111114911D01*
X128256225Y-111022799D01*
X128256224Y-111022799D01*
X128251243Y-111020476D01*
X128245935Y-111019054D01*
X128245933Y-111019053D01*
X128035402Y-110962641D01*
X128035400Y-110962641D01*
X128030087Y-110961217D01*
X127802000Y-110941262D01*
X127573913Y-110961217D01*
X127568602Y-110962640D01*
X127568591Y-110962642D01*
X127541020Y-110970030D01*
X127470044Y-110968341D01*
X127419313Y-110937419D01*
X125919805Y-109437912D01*
X125885780Y-109375600D01*
X125882900Y-109348817D01*
X125882900Y-109136968D01*
X125902902Y-109068847D01*
X125936629Y-109033755D01*
X126061789Y-108946117D01*
X126061792Y-108946115D01*
X126066300Y-108942958D01*
X126228198Y-108781060D01*
X126272692Y-108717517D01*
X126356366Y-108598017D01*
X126359523Y-108593509D01*
X126361846Y-108588527D01*
X126361849Y-108588522D01*
X126453961Y-108390985D01*
X126453961Y-108390984D01*
X126456284Y-108386003D01*
X126473311Y-108322460D01*
X126514119Y-108170162D01*
X126514119Y-108170160D01*
X126515543Y-108164847D01*
X126535498Y-107936760D01*
X126515543Y-107708673D01*
X126481708Y-107582399D01*
X126457707Y-107492827D01*
X126457706Y-107492825D01*
X126456284Y-107487517D01*
X126414829Y-107398615D01*
X126361849Y-107284998D01*
X126361846Y-107284993D01*
X126359523Y-107280011D01*
X126247705Y-107120319D01*
X126231357Y-107096971D01*
X126231355Y-107096968D01*
X126228198Y-107092460D01*
X126066300Y-106930562D01*
X126061792Y-106927405D01*
X126061789Y-106927403D01*
X125983611Y-106872662D01*
X125878749Y-106799237D01*
X125873767Y-106796914D01*
X125873762Y-106796911D01*
X125676225Y-106704799D01*
X125676224Y-106704799D01*
X125671243Y-106702476D01*
X125665935Y-106701054D01*
X125665933Y-106701053D01*
X125455402Y-106644641D01*
X125455400Y-106644641D01*
X125450087Y-106643217D01*
X125222000Y-106623262D01*
X124993913Y-106643217D01*
X124988595Y-106644642D01*
X124949880Y-106655015D01*
X124878904Y-106653325D01*
X124839523Y-106632461D01*
X124810859Y-106609986D01*
X124804879Y-106605297D01*
X124797953Y-106602170D01*
X124791824Y-106598458D01*
X124787204Y-106595822D01*
X124780822Y-106592400D01*
X124774603Y-106588029D01*
X124719286Y-106566461D01*
X124713207Y-106563906D01*
X124710966Y-106562894D01*
X124659088Y-106539471D01*
X124651612Y-106538085D01*
X124644734Y-106535930D01*
X124639609Y-106534470D01*
X124632645Y-106532682D01*
X124625566Y-106529922D01*
X124618034Y-106528930D01*
X124618032Y-106528930D01*
X124592804Y-106525609D01*
X124566700Y-106522173D01*
X124560202Y-106521144D01*
X124501803Y-106510320D01*
X124494223Y-106510757D01*
X124494222Y-106510757D01*
X124444033Y-106513651D01*
X124436780Y-106513860D01*
X117083079Y-106513860D01*
X117014958Y-106493858D01*
X116977287Y-106456300D01*
X116906822Y-106347377D01*
X116906820Y-106347374D01*
X116904014Y-106343037D01*
X116753670Y-106177811D01*
X116749619Y-106174612D01*
X116749615Y-106174608D01*
X116582414Y-106042560D01*
X116582410Y-106042558D01*
X116578359Y-106039358D01*
X116537053Y-106016556D01*
X116487084Y-105966124D01*
X116472312Y-105896681D01*
X116497428Y-105830276D01*
X116524780Y-105803669D01*
X116568603Y-105772410D01*
X116703860Y-105675933D01*
X116751001Y-105628957D01*
X116858435Y-105521897D01*
X116862096Y-105518249D01*
X116984336Y-105348133D01*
X117040330Y-105304486D01*
X117086658Y-105295660D01*
X125404056Y-105295660D01*
X125472177Y-105315662D01*
X125493151Y-105332565D01*
X128055403Y-107894817D01*
X128089429Y-107957129D01*
X128084364Y-108027944D01*
X128038579Y-108087125D01*
X127938211Y-108157403D01*
X127938208Y-108157405D01*
X127933700Y-108160562D01*
X127771802Y-108322460D01*
X127768645Y-108326968D01*
X127768643Y-108326971D01*
X127723820Y-108390985D01*
X127640477Y-108510011D01*
X127638154Y-108514993D01*
X127638151Y-108514998D01*
X127628207Y-108536324D01*
X127543716Y-108717517D01*
X127542294Y-108722825D01*
X127542293Y-108722827D01*
X127489017Y-108921655D01*
X127484457Y-108938673D01*
X127464502Y-109166760D01*
X127484457Y-109394847D01*
X127485881Y-109400160D01*
X127485881Y-109400162D01*
X127509693Y-109489027D01*
X127543716Y-109616003D01*
X127546039Y-109620984D01*
X127546039Y-109620985D01*
X127638151Y-109818522D01*
X127638154Y-109818527D01*
X127640477Y-109823509D01*
X127671059Y-109867184D01*
X127726571Y-109946463D01*
X127771802Y-110011060D01*
X127933700Y-110172958D01*
X127938208Y-110176115D01*
X127938211Y-110176117D01*
X128006787Y-110224134D01*
X128121251Y-110304283D01*
X128126233Y-110306606D01*
X128126238Y-110306609D01*
X128284822Y-110380557D01*
X128328757Y-110401044D01*
X128334065Y-110402466D01*
X128334067Y-110402467D01*
X128544598Y-110458879D01*
X128544600Y-110458879D01*
X128549913Y-110460303D01*
X128778000Y-110480258D01*
X129006087Y-110460303D01*
X129011398Y-110458880D01*
X129011409Y-110458878D01*
X129038980Y-110451490D01*
X129109956Y-110453179D01*
X129160687Y-110484101D01*
X131379393Y-112702807D01*
X131385246Y-112709072D01*
X131420524Y-112749512D01*
X131426735Y-112753877D01*
X131426738Y-112753880D01*
X131469107Y-112783657D01*
X131474402Y-112787590D01*
X131521121Y-112824222D01*
X131528046Y-112827349D01*
X131534223Y-112831090D01*
X131538802Y-112833702D01*
X131545180Y-112837122D01*
X131551397Y-112841491D01*
X131604648Y-112862252D01*
X131660848Y-112905633D01*
X131664006Y-112910498D01*
X131664477Y-112911509D01*
X131667005Y-112915119D01*
X131667008Y-112915124D01*
X131784774Y-113083310D01*
X131795802Y-113099060D01*
X131957700Y-113260958D01*
X131962208Y-113264115D01*
X131962211Y-113264117D01*
X132087371Y-113351755D01*
X132131699Y-113407212D01*
X132141100Y-113454968D01*
X132141100Y-115235497D01*
X132140808Y-115244069D01*
X132137322Y-115295194D01*
X132125809Y-115339871D01*
X132118041Y-115356530D01*
X132115716Y-115361517D01*
X132114294Y-115366825D01*
X132114293Y-115366827D01*
X132061620Y-115563403D01*
X132056457Y-115582673D01*
X132036502Y-115810760D01*
X132056457Y-116038847D01*
X132057881Y-116044160D01*
X132057881Y-116044162D01*
X132103882Y-116215837D01*
X132115716Y-116260003D01*
X132118039Y-116264984D01*
X132118039Y-116264985D01*
X132210151Y-116462522D01*
X132210154Y-116462527D01*
X132212477Y-116467509D01*
X132343802Y-116655060D01*
X132505700Y-116816958D01*
X132510208Y-116820115D01*
X132510211Y-116820117D01*
X132551542Y-116849057D01*
X132693251Y-116948283D01*
X132698233Y-116950606D01*
X132698238Y-116950609D01*
X132851345Y-117022003D01*
X132900757Y-117045044D01*
X132906065Y-117046466D01*
X132906067Y-117046467D01*
X133116598Y-117102879D01*
X133116600Y-117102879D01*
X133121913Y-117104303D01*
X133350000Y-117124258D01*
X133578087Y-117104303D01*
X133583400Y-117102879D01*
X133583402Y-117102879D01*
X133793933Y-117046467D01*
X133793935Y-117046466D01*
X133799243Y-117045044D01*
X133848655Y-117022003D01*
X134001762Y-116950609D01*
X134001767Y-116950606D01*
X134006749Y-116948283D01*
X134148458Y-116849057D01*
X134189789Y-116820117D01*
X134189792Y-116820115D01*
X134194300Y-116816958D01*
X134356198Y-116655060D01*
X134487523Y-116467509D01*
X134489846Y-116462527D01*
X134489849Y-116462522D01*
X134581961Y-116264985D01*
X134581961Y-116264984D01*
X134584284Y-116260003D01*
X134596119Y-116215837D01*
X134642119Y-116044162D01*
X134642119Y-116044160D01*
X134643543Y-116038847D01*
X134663498Y-115810760D01*
X134643543Y-115582673D01*
X134638380Y-115563403D01*
X134585707Y-115366827D01*
X134585706Y-115366825D01*
X134584284Y-115361517D01*
X134574623Y-115340799D01*
X134489849Y-115158998D01*
X134489846Y-115158993D01*
X134487523Y-115154011D01*
X134365699Y-114980029D01*
X134359357Y-114970971D01*
X134359355Y-114970968D01*
X134356198Y-114966460D01*
X134194300Y-114804562D01*
X134189792Y-114801405D01*
X134189789Y-114801403D01*
X134111611Y-114746662D01*
X134006749Y-114673237D01*
X134001767Y-114670914D01*
X134001762Y-114670911D01*
X133804225Y-114578799D01*
X133804224Y-114578799D01*
X133799243Y-114576476D01*
X133793935Y-114575054D01*
X133793933Y-114575053D01*
X133715748Y-114554103D01*
X133578087Y-114517217D01*
X133572598Y-114516737D01*
X133567194Y-114515784D01*
X133567646Y-114513218D01*
X133511675Y-114491242D01*
X133470108Y-114433686D01*
X133462900Y-114391682D01*
X133462900Y-113454968D01*
X133482902Y-113386847D01*
X133516629Y-113351755D01*
X133641789Y-113264117D01*
X133641792Y-113264115D01*
X133646300Y-113260958D01*
X133808198Y-113099060D01*
X133819227Y-113083310D01*
X133876885Y-113000965D01*
X133939523Y-112911509D01*
X133941846Y-112906527D01*
X133941849Y-112906522D01*
X134033961Y-112708985D01*
X134033961Y-112708984D01*
X134036284Y-112704003D01*
X134045371Y-112670092D01*
X134094119Y-112488162D01*
X134094119Y-112488160D01*
X134095543Y-112482847D01*
X134115498Y-112254760D01*
X134095543Y-112026673D01*
X134060823Y-111897096D01*
X134037707Y-111810827D01*
X134037706Y-111810825D01*
X134036284Y-111805517D01*
X134011983Y-111753403D01*
X133941849Y-111602998D01*
X133941846Y-111602993D01*
X133939523Y-111598011D01*
X133808198Y-111410460D01*
X133750493Y-111352755D01*
X133716467Y-111290443D01*
X133721532Y-111219628D01*
X133764079Y-111162792D01*
X133830599Y-111137981D01*
X133839588Y-111137660D01*
X137513737Y-111137660D01*
X137522308Y-111137952D01*
X137575843Y-111141602D01*
X137583320Y-111140297D01*
X137583321Y-111140297D01*
X137613682Y-111134998D01*
X137634347Y-111131391D01*
X137640865Y-111130430D01*
X137659223Y-111128208D01*
X137692262Y-111124210D01*
X137692264Y-111124210D01*
X137699805Y-111123297D01*
X137706913Y-111120611D01*
X137713879Y-111118900D01*
X137719068Y-111117481D01*
X137725947Y-111115404D01*
X137733424Y-111114099D01*
X137787795Y-111090231D01*
X137793886Y-111087746D01*
X137842336Y-111069439D01*
X137842338Y-111069438D01*
X137849441Y-111066754D01*
X137855702Y-111062451D01*
X137862026Y-111059145D01*
X137866798Y-111056489D01*
X137872944Y-111052854D01*
X137879896Y-111049802D01*
X137927001Y-111013658D01*
X137932334Y-111009783D01*
X137937841Y-111005998D01*
X137981271Y-110976149D01*
X138019769Y-110932940D01*
X138024749Y-110927665D01*
X141418047Y-107534367D01*
X141424313Y-107528513D01*
X141459025Y-107498232D01*
X141464752Y-107493236D01*
X141498882Y-107444673D01*
X141502814Y-107439378D01*
X141534777Y-107398615D01*
X141539463Y-107392639D01*
X141542589Y-107385715D01*
X141546302Y-107379584D01*
X141548938Y-107374964D01*
X141552360Y-107368582D01*
X141556731Y-107362363D01*
X141578299Y-107307046D01*
X141580854Y-107300967D01*
X141594856Y-107269955D01*
X141605289Y-107246848D01*
X141606675Y-107239372D01*
X141608830Y-107232494D01*
X141610290Y-107227369D01*
X141612078Y-107220405D01*
X141614838Y-107213326D01*
X141622587Y-107154460D01*
X141623618Y-107147949D01*
X141626711Y-107131262D01*
X141634440Y-107089563D01*
X141631109Y-107031792D01*
X141630900Y-107024540D01*
X141630900Y-105980968D01*
X141650902Y-105912847D01*
X141684629Y-105877755D01*
X141809789Y-105790117D01*
X141809792Y-105790115D01*
X141814300Y-105786958D01*
X141976198Y-105625060D01*
X142107523Y-105437509D01*
X142109846Y-105432527D01*
X142109849Y-105432522D01*
X142201961Y-105234985D01*
X142201961Y-105234984D01*
X142204284Y-105230003D01*
X142208011Y-105216096D01*
X142262119Y-105014162D01*
X142262119Y-105014160D01*
X142263543Y-105008847D01*
X142278500Y-104837887D01*
X142278500Y-103923633D01*
X142263543Y-103752673D01*
X142235257Y-103647110D01*
X142205707Y-103536827D01*
X142205706Y-103536825D01*
X142204284Y-103531517D01*
X142154933Y-103425682D01*
X142109849Y-103328998D01*
X142109846Y-103328993D01*
X142107523Y-103324011D01*
X141995803Y-103164459D01*
X141979357Y-103140971D01*
X141979355Y-103140968D01*
X141976198Y-103136460D01*
X141814300Y-102974562D01*
X141809792Y-102971405D01*
X141809789Y-102971403D01*
X141713170Y-102903750D01*
X141626749Y-102843237D01*
X141621767Y-102840914D01*
X141621762Y-102840911D01*
X141424225Y-102748799D01*
X141424224Y-102748799D01*
X141419243Y-102746476D01*
X141298560Y-102714139D01*
X141237938Y-102677187D01*
X141206916Y-102613326D01*
X141215345Y-102542832D01*
X141242077Y-102503337D01*
X145367611Y-98377803D01*
X145429923Y-98343777D01*
X145500738Y-98348842D01*
X145509955Y-98352703D01*
X145595768Y-98392718D01*
X145595772Y-98392719D01*
X145600757Y-98395044D01*
X145711335Y-98424674D01*
X145816598Y-98452879D01*
X145816600Y-98452879D01*
X145821913Y-98454303D01*
X146050000Y-98474258D01*
X146278087Y-98454303D01*
X146283400Y-98452879D01*
X146283402Y-98452879D01*
X146493933Y-98396467D01*
X146493935Y-98396466D01*
X146499243Y-98395044D01*
X146536217Y-98377803D01*
X146701762Y-98300609D01*
X146701767Y-98300606D01*
X146706749Y-98298283D01*
X146811611Y-98224858D01*
X146889789Y-98170117D01*
X146889792Y-98170115D01*
X146894300Y-98166958D01*
X147056198Y-98005060D01*
X147105167Y-97935126D01*
X147114098Y-97922371D01*
X147187523Y-97817509D01*
X147189846Y-97812527D01*
X147189849Y-97812522D01*
X147205805Y-97778303D01*
X147252722Y-97725018D01*
X147320999Y-97705557D01*
X147388959Y-97726099D01*
X147434195Y-97778303D01*
X147450151Y-97812522D01*
X147450154Y-97812527D01*
X147452477Y-97817509D01*
X147525902Y-97922371D01*
X147534834Y-97935126D01*
X147583802Y-98005060D01*
X147745700Y-98166958D01*
X147750208Y-98170115D01*
X147750211Y-98170117D01*
X147828389Y-98224858D01*
X147933251Y-98298283D01*
X147938233Y-98300606D01*
X147938238Y-98300609D01*
X148103783Y-98377803D01*
X148140757Y-98395044D01*
X148146065Y-98396466D01*
X148146067Y-98396467D01*
X148356598Y-98452879D01*
X148356600Y-98452879D01*
X148361913Y-98454303D01*
X148590000Y-98474258D01*
X148818087Y-98454303D01*
X148823400Y-98452879D01*
X148823402Y-98452879D01*
X149039243Y-98395044D01*
X149039842Y-98397280D01*
X149100816Y-98393383D01*
X149162869Y-98427880D01*
X149196420Y-98490448D01*
X149199100Y-98516297D01*
X149199100Y-102625223D01*
X149179098Y-102693344D01*
X149125442Y-102739837D01*
X149055168Y-102749941D01*
X149039378Y-102745974D01*
X149039243Y-102746476D01*
X148823402Y-102688641D01*
X148823400Y-102688641D01*
X148818087Y-102687217D01*
X148590000Y-102667262D01*
X148361913Y-102687217D01*
X148356600Y-102688641D01*
X148356598Y-102688641D01*
X148146067Y-102745053D01*
X148146065Y-102745054D01*
X148140757Y-102746476D01*
X148135775Y-102748799D01*
X148135770Y-102748801D01*
X148049954Y-102788817D01*
X147979763Y-102799478D01*
X147914950Y-102770498D01*
X147907610Y-102763717D01*
X147298614Y-102154721D01*
X147292760Y-102148455D01*
X147287217Y-102142101D01*
X147257476Y-102108008D01*
X147208898Y-102073867D01*
X147203604Y-102069935D01*
X147203352Y-102069737D01*
X147156879Y-102033297D01*
X147149955Y-102030171D01*
X147143824Y-102026458D01*
X147139204Y-102023822D01*
X147132822Y-102020400D01*
X147126603Y-102016029D01*
X147071286Y-101994461D01*
X147065207Y-101991906D01*
X147059393Y-101989281D01*
X147011088Y-101967471D01*
X147003612Y-101966085D01*
X146996734Y-101963930D01*
X146991609Y-101962470D01*
X146984645Y-101960682D01*
X146977566Y-101957922D01*
X146970034Y-101956930D01*
X146970032Y-101956930D01*
X146944804Y-101953609D01*
X146918700Y-101950173D01*
X146912202Y-101949144D01*
X146853803Y-101938320D01*
X146846223Y-101938757D01*
X146846222Y-101938757D01*
X146796033Y-101941651D01*
X146788780Y-101941860D01*
X145677314Y-101941860D01*
X145668743Y-101941568D01*
X145615208Y-101937918D01*
X145607731Y-101939223D01*
X145607730Y-101939223D01*
X145594294Y-101941568D01*
X145556704Y-101948129D01*
X145550186Y-101949090D01*
X145544802Y-101949742D01*
X145498789Y-101955310D01*
X145498787Y-101955310D01*
X145491246Y-101956223D01*
X145484138Y-101958909D01*
X145477172Y-101960620D01*
X145471983Y-101962039D01*
X145465104Y-101964116D01*
X145457627Y-101965421D01*
X145403256Y-101989289D01*
X145397170Y-101991772D01*
X145393219Y-101993265D01*
X145348715Y-102010081D01*
X145348713Y-102010082D01*
X145341610Y-102012766D01*
X145335349Y-102017069D01*
X145329025Y-102020375D01*
X145324253Y-102023031D01*
X145318107Y-102026666D01*
X145311155Y-102029718D01*
X145300384Y-102037983D01*
X145264050Y-102065862D01*
X145258723Y-102069733D01*
X145209780Y-102103371D01*
X145204723Y-102109047D01*
X145171291Y-102146570D01*
X145166311Y-102151846D01*
X144344754Y-102973404D01*
X144338488Y-102979257D01*
X144298048Y-103014535D01*
X144285267Y-103032721D01*
X144263909Y-103063110D01*
X144259977Y-103068404D01*
X144223337Y-103115132D01*
X144220211Y-103122056D01*
X144216498Y-103128187D01*
X144213862Y-103132807D01*
X144210440Y-103139189D01*
X144206069Y-103145408D01*
X144203309Y-103152487D01*
X144184502Y-103200724D01*
X144181946Y-103206803D01*
X144157511Y-103260923D01*
X144156125Y-103268399D01*
X144153970Y-103275277D01*
X144152510Y-103280402D01*
X144150722Y-103287366D01*
X144147962Y-103294445D01*
X144146970Y-103301977D01*
X144146970Y-103301979D01*
X144140214Y-103353303D01*
X144139184Y-103359809D01*
X144128360Y-103418208D01*
X144128797Y-103425788D01*
X144128797Y-103425789D01*
X144131691Y-103475978D01*
X144131900Y-103483231D01*
X144131900Y-106144297D01*
X144131608Y-106152868D01*
X144127958Y-106206403D01*
X144129263Y-106213880D01*
X144129263Y-106213881D01*
X144138168Y-106264903D01*
X144139130Y-106271425D01*
X144146263Y-106330365D01*
X144148949Y-106337473D01*
X144150660Y-106344439D01*
X144152079Y-106349628D01*
X144154156Y-106356507D01*
X144155461Y-106363984D01*
X144179329Y-106418355D01*
X144181812Y-106424441D01*
X144202806Y-106480001D01*
X144207109Y-106486262D01*
X144210415Y-106492586D01*
X144213071Y-106497358D01*
X144216706Y-106503504D01*
X144219758Y-106510456D01*
X144234695Y-106529922D01*
X144255902Y-106557561D01*
X144259773Y-106562888D01*
X144293411Y-106611831D01*
X144316566Y-106632461D01*
X144336619Y-106650328D01*
X144341895Y-106655309D01*
X145352195Y-107665609D01*
X145386221Y-107727921D01*
X145389100Y-107754704D01*
X145389100Y-113711497D01*
X145388808Y-113720068D01*
X145385158Y-113773603D01*
X145386463Y-113781080D01*
X145386463Y-113781081D01*
X145395368Y-113832103D01*
X145396330Y-113838625D01*
X145403463Y-113897565D01*
X145406149Y-113904673D01*
X145407860Y-113911639D01*
X145409279Y-113916828D01*
X145411356Y-113923707D01*
X145412661Y-113931184D01*
X145436529Y-113985555D01*
X145439012Y-113991641D01*
X145460006Y-114047201D01*
X145464309Y-114053462D01*
X145467615Y-114059786D01*
X145470271Y-114064558D01*
X145473906Y-114070704D01*
X145476958Y-114077656D01*
X145481580Y-114083679D01*
X145513102Y-114124761D01*
X145516973Y-114130088D01*
X145550611Y-114179031D01*
X145556287Y-114184088D01*
X145593819Y-114217528D01*
X145599095Y-114222509D01*
X147380302Y-116003716D01*
X147414328Y-116066028D01*
X147407405Y-116141534D01*
X147378148Y-116211305D01*
X147311981Y-116471837D01*
X147285050Y-116739286D01*
X147297947Y-117007779D01*
X147350388Y-117271416D01*
X147441220Y-117524406D01*
X147443432Y-117528522D01*
X147443433Y-117528525D01*
X147507552Y-117647855D01*
X147568450Y-117761191D01*
X147571241Y-117764928D01*
X147571245Y-117764935D01*
X147645877Y-117864879D01*
X147729281Y-117976570D01*
X147732590Y-117979850D01*
X147732595Y-117979856D01*
X147853570Y-118099779D01*
X147920180Y-118165810D01*
X147923942Y-118168568D01*
X147923945Y-118168571D01*
X148036299Y-118250952D01*
X148136954Y-118324755D01*
X148141089Y-118326931D01*
X148141093Y-118326933D01*
X148370698Y-118447735D01*
X148374840Y-118449914D01*
X148628613Y-118538535D01*
X148633206Y-118539407D01*
X148888109Y-118587802D01*
X148888112Y-118587802D01*
X148892698Y-118588673D01*
X149020370Y-118593689D01*
X149156625Y-118599043D01*
X149156630Y-118599043D01*
X149161293Y-118599226D01*
X149265607Y-118587802D01*
X149423844Y-118570473D01*
X149423850Y-118570472D01*
X149428497Y-118569963D01*
X149433021Y-118568772D01*
X149683918Y-118502716D01*
X149683920Y-118502715D01*
X149688441Y-118501525D01*
X149692738Y-118499679D01*
X149931120Y-118397262D01*
X149931122Y-118397261D01*
X149935414Y-118395417D01*
X150054071Y-118321990D01*
X150160017Y-118256429D01*
X150160021Y-118256426D01*
X150163990Y-118253970D01*
X150369149Y-118080290D01*
X150546382Y-117878194D01*
X150553723Y-117866782D01*
X150689269Y-117656051D01*
X150691797Y-117652121D01*
X150701285Y-117631060D01*
X150750453Y-117521910D01*
X150796668Y-117468015D01*
X150865335Y-117447660D01*
X154247792Y-117447660D01*
X154315913Y-117467662D01*
X154351005Y-117501389D01*
X154438643Y-117626549D01*
X154441802Y-117631060D01*
X154603700Y-117792958D01*
X154608208Y-117796115D01*
X154608211Y-117796117D01*
X154625849Y-117808467D01*
X154791251Y-117924283D01*
X154796233Y-117926606D01*
X154796238Y-117926609D01*
X154910428Y-117979856D01*
X154998757Y-118021044D01*
X155004065Y-118022466D01*
X155004067Y-118022467D01*
X155214598Y-118078879D01*
X155214600Y-118078879D01*
X155219913Y-118080303D01*
X155448000Y-118100258D01*
X155676087Y-118080303D01*
X155681400Y-118078879D01*
X155681402Y-118078879D01*
X155891933Y-118022467D01*
X155891935Y-118022466D01*
X155897243Y-118021044D01*
X155985572Y-117979856D01*
X156099762Y-117926609D01*
X156099767Y-117926606D01*
X156104749Y-117924283D01*
X156270151Y-117808467D01*
X156287789Y-117796117D01*
X156287792Y-117796115D01*
X156292300Y-117792958D01*
X156454198Y-117631060D01*
X156488469Y-117582117D01*
X156544995Y-117501389D01*
X156585523Y-117443509D01*
X156587846Y-117438527D01*
X156587849Y-117438522D01*
X156649453Y-117306410D01*
X156696370Y-117253125D01*
X156763648Y-117233660D01*
X157473792Y-117233660D01*
X157541913Y-117253662D01*
X157577005Y-117287389D01*
X157667802Y-117417060D01*
X157829700Y-117578958D01*
X157834208Y-117582115D01*
X157834211Y-117582117D01*
X157897667Y-117626549D01*
X158017251Y-117710283D01*
X158022233Y-117712606D01*
X158022238Y-117712609D01*
X158219775Y-117804721D01*
X158224757Y-117807044D01*
X158230065Y-117808466D01*
X158230067Y-117808467D01*
X158440598Y-117864879D01*
X158440600Y-117864879D01*
X158445913Y-117866303D01*
X158674000Y-117886258D01*
X158902087Y-117866303D01*
X158907400Y-117864879D01*
X158907402Y-117864879D01*
X159117933Y-117808467D01*
X159117935Y-117808466D01*
X159123243Y-117807044D01*
X159128225Y-117804721D01*
X159325762Y-117712609D01*
X159325767Y-117712606D01*
X159330749Y-117710283D01*
X159450333Y-117626549D01*
X159513789Y-117582117D01*
X159513792Y-117582115D01*
X159518300Y-117578958D01*
X159680198Y-117417060D01*
X159811523Y-117229509D01*
X159813846Y-117224527D01*
X159813849Y-117224522D01*
X159905961Y-117026985D01*
X159905961Y-117026984D01*
X159908284Y-117022003D01*
X159912096Y-117007779D01*
X159966119Y-116806162D01*
X159966119Y-116806160D01*
X159967543Y-116800847D01*
X159987498Y-116572760D01*
X159967543Y-116344673D01*
X159966119Y-116339358D01*
X159909707Y-116128827D01*
X159909706Y-116128825D01*
X159908284Y-116123517D01*
X159900050Y-116105858D01*
X159813849Y-115920998D01*
X159813846Y-115920993D01*
X159811523Y-115916011D01*
X159716680Y-115780562D01*
X159683357Y-115732971D01*
X159683355Y-115732968D01*
X159680198Y-115728460D01*
X159518300Y-115566562D01*
X159513792Y-115563405D01*
X159513789Y-115563403D01*
X159385054Y-115473262D01*
X159330749Y-115435237D01*
X159325767Y-115432914D01*
X159325762Y-115432911D01*
X159128225Y-115340799D01*
X159128224Y-115340799D01*
X159123243Y-115338476D01*
X159117935Y-115337054D01*
X159117933Y-115337053D01*
X158907402Y-115280641D01*
X158907400Y-115280641D01*
X158902087Y-115279217D01*
X158674000Y-115259262D01*
X158445913Y-115279217D01*
X158440600Y-115280641D01*
X158440598Y-115280641D01*
X158230067Y-115337053D01*
X158230065Y-115337054D01*
X158224757Y-115338476D01*
X158219776Y-115340799D01*
X158219775Y-115340799D01*
X158022238Y-115432911D01*
X158022233Y-115432914D01*
X158017251Y-115435237D01*
X157962946Y-115473262D01*
X157834211Y-115563403D01*
X157834208Y-115563405D01*
X157829700Y-115566562D01*
X157667802Y-115728460D01*
X157664645Y-115732968D01*
X157664643Y-115732971D01*
X157577005Y-115858131D01*
X157521548Y-115902459D01*
X157473792Y-115911860D01*
X156475788Y-115911860D01*
X156407667Y-115891858D01*
X156386693Y-115874955D01*
X156292300Y-115780562D01*
X156287792Y-115777405D01*
X156287789Y-115777403D01*
X156146816Y-115678693D01*
X156104749Y-115649237D01*
X156099767Y-115646914D01*
X156099762Y-115646911D01*
X155902225Y-115554799D01*
X155902224Y-115554799D01*
X155897243Y-115552476D01*
X155891935Y-115551054D01*
X155891933Y-115551053D01*
X155681402Y-115494641D01*
X155681400Y-115494641D01*
X155676087Y-115493217D01*
X155448000Y-115473262D01*
X155219913Y-115493217D01*
X155214600Y-115494641D01*
X155214598Y-115494641D01*
X155004067Y-115551053D01*
X155004065Y-115551054D01*
X154998757Y-115552476D01*
X154993776Y-115554799D01*
X154993775Y-115554799D01*
X154796238Y-115646911D01*
X154796233Y-115646914D01*
X154791251Y-115649237D01*
X154749184Y-115678693D01*
X154608211Y-115777403D01*
X154608208Y-115777405D01*
X154603700Y-115780562D01*
X154441802Y-115942460D01*
X154438645Y-115946968D01*
X154438643Y-115946971D01*
X154351005Y-116072131D01*
X154295548Y-116116459D01*
X154247792Y-116125860D01*
X150867707Y-116125860D01*
X150799586Y-116105858D01*
X150753093Y-116052202D01*
X150750274Y-116045527D01*
X150736595Y-116010351D01*
X150736594Y-116010349D01*
X150734902Y-116005998D01*
X150601518Y-115772624D01*
X150435105Y-115561529D01*
X150239317Y-115377351D01*
X150069784Y-115259741D01*
X150022299Y-115226799D01*
X150022296Y-115226797D01*
X150018457Y-115224134D01*
X150014264Y-115222066D01*
X149781564Y-115107311D01*
X149781561Y-115107310D01*
X149777376Y-115105246D01*
X149768214Y-115102313D01*
X149656733Y-115066628D01*
X149521370Y-115023298D01*
X149516763Y-115022548D01*
X149516760Y-115022547D01*
X149260674Y-114980841D01*
X149260675Y-114980841D01*
X149256063Y-114980090D01*
X149125719Y-114978384D01*
X148991961Y-114976633D01*
X148991958Y-114976633D01*
X148987284Y-114976572D01*
X148720937Y-115012820D01*
X148462874Y-115088038D01*
X148455832Y-115091284D01*
X148454364Y-115091961D01*
X148384126Y-115102313D01*
X148319441Y-115073049D01*
X148312521Y-115066628D01*
X146747805Y-113501912D01*
X146713779Y-113439600D01*
X146710900Y-113412817D01*
X146710900Y-107456012D01*
X146711192Y-107447442D01*
X146714325Y-107401492D01*
X146714325Y-107401488D01*
X146714841Y-107393916D01*
X146711534Y-107374964D01*
X146705622Y-107341095D01*
X146704632Y-107335422D01*
X146703670Y-107328900D01*
X146697450Y-107277497D01*
X146697449Y-107277494D01*
X146696537Y-107269955D01*
X146693851Y-107262847D01*
X146692140Y-107255881D01*
X146690721Y-107250692D01*
X146688644Y-107243813D01*
X146687339Y-107236336D01*
X146675363Y-107209053D01*
X146663478Y-107181980D01*
X146660985Y-107175871D01*
X146642679Y-107127424D01*
X146642678Y-107127422D01*
X146639994Y-107120319D01*
X146635694Y-107114062D01*
X146632360Y-107107685D01*
X146629760Y-107103015D01*
X146626095Y-107096818D01*
X146623042Y-107089863D01*
X146586894Y-107042755D01*
X146583016Y-107037417D01*
X146553691Y-106994748D01*
X146553689Y-106994746D01*
X146549389Y-106988489D01*
X146506190Y-106950000D01*
X146500914Y-106945020D01*
X145856604Y-106300710D01*
X145822579Y-106238398D01*
X145827643Y-106167583D01*
X145870190Y-106110747D01*
X145936710Y-106085936D01*
X145956680Y-106086094D01*
X146044524Y-106093779D01*
X146044525Y-106093779D01*
X146050000Y-106094258D01*
X146277307Y-106074371D01*
X146346911Y-106088360D01*
X146377383Y-106110797D01*
X147820659Y-107554073D01*
X147854685Y-107616385D01*
X147853270Y-107675780D01*
X147845882Y-107703351D01*
X147845881Y-107703358D01*
X147844457Y-107708673D01*
X147824502Y-107936760D01*
X147844457Y-108164847D01*
X147845881Y-108170160D01*
X147845881Y-108170162D01*
X147886690Y-108322460D01*
X147903716Y-108386003D01*
X147906039Y-108390984D01*
X147906039Y-108390985D01*
X147998151Y-108588522D01*
X147998154Y-108588527D01*
X148000477Y-108593509D01*
X148003634Y-108598017D01*
X148087309Y-108717517D01*
X148131802Y-108781060D01*
X148293700Y-108942958D01*
X148298208Y-108946115D01*
X148298211Y-108946117D01*
X148423371Y-109033755D01*
X148467699Y-109089212D01*
X148477100Y-109136968D01*
X148477100Y-110000822D01*
X148457098Y-110068943D01*
X148403851Y-110115248D01*
X148393352Y-110120088D01*
X148218763Y-110200575D01*
X148214854Y-110203138D01*
X147997881Y-110345391D01*
X147997876Y-110345395D01*
X147993968Y-110347957D01*
X147990476Y-110351074D01*
X147845738Y-110480258D01*
X147793426Y-110526948D01*
X147621544Y-110733614D01*
X147482096Y-110963416D01*
X147480287Y-110967730D01*
X147480285Y-110967734D01*
X147407545Y-111141200D01*
X147378148Y-111211305D01*
X147311981Y-111471837D01*
X147285050Y-111739286D01*
X147285274Y-111743952D01*
X147285274Y-111743957D01*
X147290858Y-111860191D01*
X147297947Y-112007779D01*
X147350388Y-112271416D01*
X147441220Y-112524406D01*
X147443432Y-112528522D01*
X147443433Y-112528525D01*
X147507552Y-112647855D01*
X147568450Y-112761191D01*
X147571241Y-112764928D01*
X147571245Y-112764935D01*
X147645413Y-112864257D01*
X147729281Y-112976570D01*
X147732590Y-112979850D01*
X147732595Y-112979856D01*
X147853570Y-113099779D01*
X147920180Y-113165810D01*
X147923942Y-113168568D01*
X147923945Y-113168571D01*
X147989974Y-113216985D01*
X148136954Y-113324755D01*
X148141089Y-113326931D01*
X148141093Y-113326933D01*
X148331668Y-113427200D01*
X148374840Y-113449914D01*
X148628613Y-113538535D01*
X148633206Y-113539407D01*
X148888109Y-113587802D01*
X148888112Y-113587802D01*
X148892698Y-113588673D01*
X149020370Y-113593689D01*
X149156625Y-113599043D01*
X149156630Y-113599043D01*
X149161293Y-113599226D01*
X149265607Y-113587802D01*
X149423844Y-113570473D01*
X149423850Y-113570472D01*
X149428497Y-113569963D01*
X149434973Y-113568258D01*
X149683918Y-113502716D01*
X149683920Y-113502715D01*
X149688441Y-113501525D01*
X149692738Y-113499679D01*
X149931120Y-113397262D01*
X149931122Y-113397261D01*
X149935414Y-113395417D01*
X150100031Y-113293549D01*
X150160017Y-113256429D01*
X150160021Y-113256426D01*
X150163990Y-113253970D01*
X150369149Y-113080290D01*
X150546382Y-112878194D01*
X150556637Y-112862252D01*
X150689269Y-112656051D01*
X150691797Y-112652121D01*
X150701285Y-112631060D01*
X150750453Y-112521910D01*
X150796668Y-112468015D01*
X150865335Y-112447660D01*
X154247792Y-112447660D01*
X154315913Y-112467662D01*
X154351005Y-112501389D01*
X154374311Y-112534673D01*
X154441802Y-112631060D01*
X154603700Y-112792958D01*
X154608208Y-112796115D01*
X154608211Y-112796117D01*
X154674032Y-112842205D01*
X154791251Y-112924283D01*
X154796233Y-112926606D01*
X154796238Y-112926609D01*
X154945397Y-112996162D01*
X154998757Y-113021044D01*
X155004065Y-113022466D01*
X155004067Y-113022467D01*
X155214598Y-113078879D01*
X155214600Y-113078879D01*
X155219913Y-113080303D01*
X155448000Y-113100258D01*
X155676087Y-113080303D01*
X155681398Y-113078880D01*
X155681409Y-113078878D01*
X155708980Y-113071490D01*
X155779956Y-113073179D01*
X155830687Y-113104101D01*
X155937393Y-113210807D01*
X155943246Y-113217072D01*
X155978524Y-113257512D01*
X155984735Y-113261877D01*
X155984738Y-113261880D01*
X156027107Y-113291657D01*
X156032402Y-113295590D01*
X156079121Y-113332222D01*
X156086046Y-113335349D01*
X156092223Y-113339090D01*
X156096802Y-113341702D01*
X156103180Y-113345122D01*
X156109397Y-113349491D01*
X156164711Y-113371057D01*
X156170780Y-113373607D01*
X156224912Y-113398049D01*
X156232384Y-113399434D01*
X156239255Y-113401587D01*
X156244391Y-113403050D01*
X156251355Y-113404838D01*
X156258434Y-113407598D01*
X156265966Y-113408590D01*
X156265968Y-113408590D01*
X156291196Y-113411911D01*
X156317300Y-113415347D01*
X156323798Y-113416376D01*
X156382197Y-113427200D01*
X156389777Y-113426763D01*
X156389778Y-113426763D01*
X156439967Y-113423869D01*
X156447220Y-113423660D01*
X157549792Y-113423660D01*
X157617913Y-113443662D01*
X157653005Y-113477389D01*
X157740643Y-113602549D01*
X157743802Y-113607060D01*
X157905700Y-113768958D01*
X157910208Y-113772115D01*
X157910211Y-113772117D01*
X157923013Y-113781081D01*
X158093251Y-113900283D01*
X158098233Y-113902606D01*
X158098238Y-113902609D01*
X158289181Y-113991646D01*
X158300757Y-113997044D01*
X158306065Y-113998466D01*
X158306067Y-113998467D01*
X158516598Y-114054879D01*
X158516600Y-114054879D01*
X158521913Y-114056303D01*
X158750000Y-114076258D01*
X158978087Y-114056303D01*
X158983400Y-114054879D01*
X158983402Y-114054879D01*
X159193933Y-113998467D01*
X159193935Y-113998466D01*
X159199243Y-113997044D01*
X159210819Y-113991646D01*
X159401762Y-113902609D01*
X159401767Y-113902606D01*
X159406749Y-113900283D01*
X159576987Y-113781081D01*
X159589789Y-113772117D01*
X159589792Y-113772115D01*
X159594300Y-113768958D01*
X159756198Y-113607060D01*
X159761684Y-113599226D01*
X159831387Y-113499679D01*
X159887523Y-113419509D01*
X159889846Y-113414527D01*
X159889849Y-113414522D01*
X159981961Y-113216985D01*
X159981961Y-113216984D01*
X159984284Y-113212003D01*
X159996662Y-113165810D01*
X160042119Y-112996162D01*
X160042119Y-112996160D01*
X160043543Y-112990847D01*
X160063498Y-112762760D01*
X160043543Y-112534673D01*
X160031080Y-112488162D01*
X159985707Y-112318827D01*
X159985706Y-112318825D01*
X159984284Y-112313517D01*
X159961389Y-112264418D01*
X159889849Y-112110998D01*
X159889846Y-112110993D01*
X159887523Y-112106011D01*
X159767348Y-111934384D01*
X159759357Y-111922971D01*
X159759355Y-111922968D01*
X159756198Y-111918460D01*
X159594300Y-111756562D01*
X159589792Y-111753405D01*
X159589789Y-111753403D01*
X159511611Y-111698662D01*
X159406749Y-111625237D01*
X159401767Y-111622914D01*
X159401762Y-111622911D01*
X159204225Y-111530799D01*
X159204224Y-111530799D01*
X159199243Y-111528476D01*
X159193935Y-111527054D01*
X159193933Y-111527053D01*
X158983402Y-111470641D01*
X158983400Y-111470641D01*
X158978087Y-111469217D01*
X158750000Y-111449262D01*
X158521913Y-111469217D01*
X158516600Y-111470641D01*
X158516598Y-111470641D01*
X158306067Y-111527053D01*
X158306065Y-111527054D01*
X158300757Y-111528476D01*
X158295776Y-111530799D01*
X158295775Y-111530799D01*
X158098238Y-111622911D01*
X158098233Y-111622914D01*
X158093251Y-111625237D01*
X157988389Y-111698662D01*
X157910211Y-111753403D01*
X157910208Y-111753405D01*
X157905700Y-111756562D01*
X157743802Y-111918460D01*
X157740645Y-111922968D01*
X157740643Y-111922971D01*
X157653005Y-112048131D01*
X157597548Y-112092459D01*
X157549792Y-112101860D01*
X156871436Y-112101860D01*
X156803315Y-112081858D01*
X156756822Y-112028202D01*
X156745915Y-111964879D01*
X156761019Y-111792236D01*
X156761019Y-111792235D01*
X156761498Y-111786760D01*
X156741543Y-111558673D01*
X156733452Y-111528476D01*
X156683707Y-111342827D01*
X156683706Y-111342825D01*
X156682284Y-111337517D01*
X156623431Y-111211305D01*
X156587849Y-111134998D01*
X156587846Y-111134993D01*
X156585523Y-111130011D01*
X156486687Y-110988859D01*
X156457357Y-110946971D01*
X156457355Y-110946968D01*
X156454198Y-110942460D01*
X156292300Y-110780562D01*
X156287792Y-110777405D01*
X156287789Y-110777403D01*
X156209611Y-110722662D01*
X156104749Y-110649237D01*
X156099767Y-110646914D01*
X156099762Y-110646911D01*
X155902225Y-110554799D01*
X155902224Y-110554799D01*
X155897243Y-110552476D01*
X155891935Y-110551054D01*
X155891933Y-110551053D01*
X155681402Y-110494641D01*
X155681400Y-110494641D01*
X155676087Y-110493217D01*
X155448000Y-110473262D01*
X155219913Y-110493217D01*
X155214600Y-110494641D01*
X155214598Y-110494641D01*
X155004067Y-110551053D01*
X155004065Y-110551054D01*
X154998757Y-110552476D01*
X154993776Y-110554799D01*
X154993775Y-110554799D01*
X154796238Y-110646911D01*
X154796233Y-110646914D01*
X154791251Y-110649237D01*
X154686389Y-110722662D01*
X154608211Y-110777403D01*
X154608208Y-110777405D01*
X154603700Y-110780562D01*
X154441802Y-110942460D01*
X154438645Y-110946968D01*
X154438643Y-110946971D01*
X154351005Y-111072131D01*
X154295548Y-111116459D01*
X154247792Y-111125860D01*
X150867707Y-111125860D01*
X150799586Y-111105858D01*
X150753093Y-111052202D01*
X150750274Y-111045527D01*
X150736595Y-111010351D01*
X150736594Y-111010349D01*
X150734902Y-111005998D01*
X150710565Y-110963416D01*
X150603837Y-110776682D01*
X150601518Y-110772624D01*
X150435105Y-110561529D01*
X150239317Y-110377351D01*
X150018457Y-110224134D01*
X149970685Y-110200575D01*
X149869171Y-110150514D01*
X149816923Y-110102445D01*
X149798900Y-110037508D01*
X149798900Y-109136968D01*
X149818902Y-109068847D01*
X149852629Y-109033755D01*
X149977789Y-108946117D01*
X149977792Y-108946115D01*
X149982300Y-108942958D01*
X150144198Y-108781060D01*
X150188692Y-108717517D01*
X150272366Y-108598017D01*
X150275523Y-108593509D01*
X150277846Y-108588527D01*
X150277849Y-108588522D01*
X150369961Y-108390985D01*
X150369961Y-108390984D01*
X150372284Y-108386003D01*
X150389311Y-108322460D01*
X150430119Y-108170162D01*
X150430119Y-108170160D01*
X150431543Y-108164847D01*
X150451498Y-107936760D01*
X150431543Y-107708673D01*
X150397708Y-107582399D01*
X150373707Y-107492827D01*
X150373706Y-107492825D01*
X150372284Y-107487517D01*
X150330829Y-107398615D01*
X150277849Y-107284998D01*
X150277846Y-107284993D01*
X150275523Y-107280011D01*
X150163705Y-107120319D01*
X150147357Y-107096971D01*
X150147355Y-107096968D01*
X150144198Y-107092460D01*
X149982300Y-106930562D01*
X149977792Y-106927405D01*
X149977789Y-106927403D01*
X149899611Y-106872662D01*
X149794749Y-106799237D01*
X149789767Y-106796914D01*
X149789762Y-106796911D01*
X149592225Y-106704799D01*
X149592224Y-106704799D01*
X149587243Y-106702476D01*
X149581935Y-106701054D01*
X149581933Y-106701053D01*
X149371402Y-106644641D01*
X149371400Y-106644641D01*
X149366087Y-106643217D01*
X149138000Y-106623262D01*
X148909913Y-106643217D01*
X148904602Y-106644640D01*
X148904591Y-106644642D01*
X148877020Y-106652030D01*
X148806044Y-106650341D01*
X148755313Y-106619419D01*
X148440439Y-106304545D01*
X148406413Y-106242233D01*
X148411478Y-106171418D01*
X148454025Y-106114582D01*
X148520545Y-106089771D01*
X148540515Y-106089929D01*
X148584524Y-106093779D01*
X148584525Y-106093779D01*
X148590000Y-106094258D01*
X148818087Y-106074303D01*
X148823400Y-106072879D01*
X148823402Y-106072879D01*
X149033933Y-106016467D01*
X149033935Y-106016466D01*
X149039243Y-106015044D01*
X149091786Y-105990543D01*
X149241762Y-105920609D01*
X149241767Y-105920606D01*
X149246749Y-105918283D01*
X149407597Y-105805656D01*
X149429789Y-105790117D01*
X149429792Y-105790115D01*
X149434300Y-105786958D01*
X149596198Y-105625060D01*
X149727523Y-105437509D01*
X149729846Y-105432527D01*
X149729849Y-105432522D01*
X149745805Y-105398303D01*
X149792722Y-105345018D01*
X149860999Y-105325557D01*
X149928959Y-105346099D01*
X149974195Y-105398303D01*
X149990151Y-105432522D01*
X149990154Y-105432527D01*
X149992477Y-105437509D01*
X150123802Y-105625060D01*
X150285700Y-105786958D01*
X150290208Y-105790115D01*
X150290211Y-105790117D01*
X150312403Y-105805656D01*
X150473251Y-105918283D01*
X150478233Y-105920606D01*
X150478238Y-105920609D01*
X150628214Y-105990543D01*
X150680757Y-106015044D01*
X150686065Y-106016466D01*
X150686067Y-106016467D01*
X150896598Y-106072879D01*
X150896600Y-106072879D01*
X150901913Y-106074303D01*
X151130000Y-106094258D01*
X151358087Y-106074303D01*
X151363400Y-106072879D01*
X151363402Y-106072879D01*
X151573933Y-106016467D01*
X151573935Y-106016466D01*
X151579243Y-106015044D01*
X151631786Y-105990543D01*
X151781762Y-105920609D01*
X151781767Y-105920606D01*
X151786749Y-105918283D01*
X151947597Y-105805656D01*
X151969789Y-105790117D01*
X151969792Y-105790115D01*
X151974300Y-105786958D01*
X152136198Y-105625060D01*
X152267523Y-105437509D01*
X152269846Y-105432527D01*
X152269849Y-105432522D01*
X152285805Y-105398303D01*
X152332722Y-105345018D01*
X152400999Y-105325557D01*
X152468959Y-105346099D01*
X152514195Y-105398303D01*
X152530151Y-105432522D01*
X152530154Y-105432527D01*
X152532477Y-105437509D01*
X152663802Y-105625060D01*
X152825700Y-105786958D01*
X152830208Y-105790115D01*
X152830211Y-105790117D01*
X152852403Y-105805656D01*
X153013251Y-105918283D01*
X153018233Y-105920606D01*
X153018238Y-105920609D01*
X153168214Y-105990543D01*
X153220757Y-106015044D01*
X153226065Y-106016466D01*
X153226067Y-106016467D01*
X153436598Y-106072879D01*
X153436600Y-106072879D01*
X153441913Y-106074303D01*
X153670000Y-106094258D01*
X153898087Y-106074303D01*
X153903400Y-106072879D01*
X153903402Y-106072879D01*
X154113933Y-106016467D01*
X154113935Y-106016466D01*
X154119243Y-106015044D01*
X154171786Y-105990543D01*
X154321762Y-105920609D01*
X154321767Y-105920606D01*
X154326749Y-105918283D01*
X154487597Y-105805656D01*
X154509789Y-105790117D01*
X154509792Y-105790115D01*
X154514300Y-105786958D01*
X154572005Y-105729253D01*
X154634317Y-105695227D01*
X154705132Y-105700292D01*
X154761968Y-105742839D01*
X154786779Y-105809359D01*
X154787100Y-105818348D01*
X154787100Y-106300817D01*
X154767098Y-106368938D01*
X154750195Y-106389912D01*
X154520688Y-106619419D01*
X154458376Y-106653445D01*
X154398982Y-106652031D01*
X154371402Y-106644641D01*
X154371400Y-106644641D01*
X154366087Y-106643217D01*
X154138000Y-106623262D01*
X153909913Y-106643217D01*
X153904600Y-106644641D01*
X153904598Y-106644641D01*
X153694067Y-106701053D01*
X153694065Y-106701054D01*
X153688757Y-106702476D01*
X153683776Y-106704799D01*
X153683775Y-106704799D01*
X153486238Y-106796911D01*
X153486233Y-106796914D01*
X153481251Y-106799237D01*
X153376389Y-106872662D01*
X153298211Y-106927403D01*
X153298208Y-106927405D01*
X153293700Y-106930562D01*
X153131802Y-107092460D01*
X153128645Y-107096968D01*
X153128643Y-107096971D01*
X153112295Y-107120319D01*
X153000477Y-107280011D01*
X152998154Y-107284993D01*
X152998151Y-107284998D01*
X152945171Y-107398615D01*
X152903716Y-107487517D01*
X152902294Y-107492825D01*
X152902293Y-107492827D01*
X152878292Y-107582399D01*
X152844457Y-107708673D01*
X152824502Y-107936760D01*
X152844457Y-108164847D01*
X152845881Y-108170160D01*
X152845881Y-108170162D01*
X152886690Y-108322460D01*
X152903716Y-108386003D01*
X152906039Y-108390984D01*
X152906039Y-108390985D01*
X152998151Y-108588522D01*
X152998154Y-108588527D01*
X153000477Y-108593509D01*
X153003634Y-108598017D01*
X153087309Y-108717517D01*
X153131802Y-108781060D01*
X153293700Y-108942958D01*
X153298208Y-108946115D01*
X153298211Y-108946117D01*
X153376389Y-109000858D01*
X153481251Y-109074283D01*
X153486233Y-109076606D01*
X153486238Y-109076609D01*
X153679570Y-109166760D01*
X153688757Y-109171044D01*
X153694065Y-109172466D01*
X153694067Y-109172467D01*
X153904598Y-109228879D01*
X153904600Y-109228879D01*
X153909913Y-109230303D01*
X154138000Y-109250258D01*
X154366087Y-109230303D01*
X154371400Y-109228879D01*
X154371402Y-109228879D01*
X154581933Y-109172467D01*
X154581935Y-109172466D01*
X154587243Y-109171044D01*
X154596430Y-109166760D01*
X154789762Y-109076609D01*
X154789767Y-109076606D01*
X154794749Y-109074283D01*
X154899611Y-109000858D01*
X154977789Y-108946117D01*
X154977792Y-108946115D01*
X154982300Y-108942958D01*
X155144198Y-108781060D01*
X155188692Y-108717517D01*
X155272366Y-108598017D01*
X155275523Y-108593509D01*
X155277846Y-108588527D01*
X155277849Y-108588522D01*
X155369961Y-108390985D01*
X155369961Y-108390984D01*
X155372284Y-108386003D01*
X155389311Y-108322460D01*
X155430119Y-108170162D01*
X155430119Y-108170160D01*
X155431543Y-108164847D01*
X155451498Y-107936760D01*
X155431543Y-107708673D01*
X155430119Y-107703358D01*
X155430118Y-107703351D01*
X155422730Y-107675780D01*
X155424419Y-107604804D01*
X155455341Y-107554073D01*
X155896047Y-107113367D01*
X155902313Y-107107513D01*
X155937025Y-107077232D01*
X155942752Y-107072236D01*
X155976892Y-107023660D01*
X155980818Y-107018374D01*
X156012774Y-106977618D01*
X156017463Y-106971638D01*
X156020591Y-106964710D01*
X156024319Y-106958554D01*
X156026954Y-106953935D01*
X156030362Y-106947579D01*
X156034731Y-106941363D01*
X156056292Y-106886062D01*
X156058848Y-106879981D01*
X156061284Y-106874586D01*
X156083290Y-106825848D01*
X156084675Y-106818374D01*
X156086817Y-106811540D01*
X156088284Y-106806392D01*
X156090077Y-106799407D01*
X156092838Y-106792326D01*
X156100586Y-106733471D01*
X156101618Y-106726955D01*
X156111056Y-106676032D01*
X156111056Y-106676030D01*
X156112440Y-106668563D01*
X156109461Y-106616888D01*
X156109109Y-106610792D01*
X156108900Y-106603539D01*
X156108900Y-101868023D01*
X156109192Y-101859452D01*
X156110564Y-101839330D01*
X156112842Y-101805917D01*
X156102630Y-101747408D01*
X156101669Y-101740892D01*
X156095450Y-101689497D01*
X156095449Y-101689494D01*
X156094537Y-101681955D01*
X156091852Y-101674849D01*
X156090144Y-101667896D01*
X156088729Y-101662723D01*
X156086645Y-101655821D01*
X156085339Y-101648337D01*
X156082287Y-101641384D01*
X156082285Y-101641378D01*
X156061480Y-101593984D01*
X156058987Y-101587875D01*
X156040681Y-101539429D01*
X156040680Y-101539427D01*
X156037994Y-101532319D01*
X156033690Y-101526057D01*
X156030364Y-101519695D01*
X156027754Y-101515007D01*
X156024095Y-101508820D01*
X156021042Y-101501864D01*
X155984898Y-101454759D01*
X155981023Y-101449426D01*
X155980938Y-101449302D01*
X155947389Y-101400489D01*
X155904180Y-101361991D01*
X155898905Y-101357011D01*
X154539312Y-99997418D01*
X153165560Y-98623667D01*
X153131534Y-98561355D01*
X153136599Y-98490540D01*
X153179146Y-98433704D01*
X153245666Y-98408893D01*
X153287265Y-98412865D01*
X153441913Y-98454303D01*
X153670000Y-98474258D01*
X153898087Y-98454303D01*
X153903400Y-98452879D01*
X153903402Y-98452879D01*
X154113933Y-98396467D01*
X154113935Y-98396466D01*
X154119243Y-98395044D01*
X154156217Y-98377803D01*
X154321762Y-98300609D01*
X154321767Y-98300606D01*
X154326749Y-98298283D01*
X154431611Y-98224858D01*
X154509789Y-98170117D01*
X154509792Y-98170115D01*
X154514300Y-98166958D01*
X154676198Y-98005060D01*
X154679357Y-98000549D01*
X154738104Y-97916650D01*
X154793562Y-97872322D01*
X154864181Y-97865013D01*
X154930412Y-97899826D01*
X157072302Y-100041716D01*
X157106328Y-100104028D01*
X157099405Y-100179534D01*
X157070148Y-100249305D01*
X157003981Y-100509837D01*
X156977050Y-100777286D01*
X156977274Y-100781952D01*
X156977274Y-100781957D01*
X156982233Y-100885180D01*
X156989947Y-101045779D01*
X157042388Y-101309416D01*
X157133220Y-101562406D01*
X157135432Y-101566522D01*
X157135433Y-101566525D01*
X157197456Y-101681955D01*
X157260450Y-101799191D01*
X157263241Y-101802928D01*
X157263245Y-101802935D01*
X157311849Y-101868023D01*
X157421281Y-102014570D01*
X157424590Y-102017850D01*
X157424595Y-102017856D01*
X157608863Y-102200522D01*
X157612180Y-102203810D01*
X157615942Y-102206568D01*
X157615945Y-102206571D01*
X157667937Y-102244693D01*
X157828954Y-102362755D01*
X157833089Y-102364931D01*
X157833093Y-102364933D01*
X158062698Y-102485735D01*
X158066840Y-102487914D01*
X158320613Y-102576535D01*
X158325206Y-102577407D01*
X158580109Y-102625802D01*
X158580112Y-102625802D01*
X158584698Y-102626673D01*
X158711933Y-102631672D01*
X158848625Y-102637043D01*
X158848630Y-102637043D01*
X158853293Y-102637226D01*
X158962894Y-102625223D01*
X159115844Y-102608473D01*
X159115850Y-102608472D01*
X159120497Y-102607963D01*
X159125021Y-102606772D01*
X159375918Y-102540716D01*
X159375920Y-102540715D01*
X159380441Y-102539525D01*
X159410078Y-102526792D01*
X159623120Y-102435262D01*
X159623122Y-102435261D01*
X159627414Y-102433417D01*
X159746071Y-102359990D01*
X159852017Y-102294429D01*
X159852021Y-102294426D01*
X159855990Y-102291970D01*
X160061149Y-102118290D01*
X160238382Y-101916194D01*
X160284519Y-101844467D01*
X160381269Y-101694051D01*
X160383797Y-101690121D01*
X160494199Y-101445038D01*
X160510721Y-101386455D01*
X160565893Y-101190832D01*
X160565894Y-101190829D01*
X160567163Y-101186328D01*
X160582460Y-101066088D01*
X160600688Y-100922805D01*
X160600688Y-100922801D01*
X160601086Y-100919675D01*
X160601425Y-100906754D01*
X160602867Y-100851652D01*
X160603571Y-100824760D01*
X160600043Y-100777286D01*
X161977050Y-100777286D01*
X161977274Y-100781952D01*
X161977274Y-100781957D01*
X161982233Y-100885180D01*
X161989947Y-101045779D01*
X162042388Y-101309416D01*
X162133220Y-101562406D01*
X162135432Y-101566522D01*
X162135433Y-101566525D01*
X162197456Y-101681955D01*
X162260450Y-101799191D01*
X162263241Y-101802928D01*
X162263245Y-101802935D01*
X162311849Y-101868023D01*
X162421281Y-102014570D01*
X162424590Y-102017850D01*
X162424595Y-102017856D01*
X162608863Y-102200522D01*
X162612180Y-102203810D01*
X162615942Y-102206568D01*
X162615945Y-102206571D01*
X162667937Y-102244693D01*
X162828954Y-102362755D01*
X162833089Y-102364931D01*
X162833093Y-102364933D01*
X163062698Y-102485735D01*
X163066840Y-102487914D01*
X163320613Y-102576535D01*
X163325206Y-102577407D01*
X163580109Y-102625802D01*
X163580112Y-102625802D01*
X163584698Y-102626673D01*
X163711933Y-102631672D01*
X163848625Y-102637043D01*
X163848630Y-102637043D01*
X163853293Y-102637226D01*
X163962894Y-102625223D01*
X164115844Y-102608473D01*
X164115850Y-102608472D01*
X164120497Y-102607963D01*
X164125021Y-102606772D01*
X164375918Y-102540716D01*
X164375920Y-102540715D01*
X164380441Y-102539525D01*
X164410078Y-102526792D01*
X164623120Y-102435262D01*
X164623122Y-102435261D01*
X164627414Y-102433417D01*
X164746071Y-102359990D01*
X164852017Y-102294429D01*
X164852021Y-102294426D01*
X164855990Y-102291970D01*
X165061149Y-102118290D01*
X165238382Y-101916194D01*
X165284519Y-101844467D01*
X165381269Y-101694051D01*
X165383797Y-101690121D01*
X165393285Y-101669060D01*
X165442453Y-101559910D01*
X165488668Y-101506015D01*
X165557335Y-101485660D01*
X166216564Y-101485660D01*
X166284685Y-101505662D01*
X166331178Y-101559318D01*
X166342085Y-101622641D01*
X166335838Y-101694051D01*
X166326502Y-101800760D01*
X166346457Y-102028847D01*
X166347881Y-102034160D01*
X166347881Y-102034162D01*
X166393339Y-102203810D01*
X166405716Y-102250003D01*
X166408039Y-102254984D01*
X166408039Y-102254985D01*
X166500151Y-102452522D01*
X166500154Y-102452527D01*
X166502477Y-102457509D01*
X166547398Y-102521662D01*
X166628317Y-102637226D01*
X166633802Y-102645060D01*
X166795700Y-102806958D01*
X166800208Y-102810115D01*
X166800211Y-102810117D01*
X166852020Y-102846394D01*
X166983251Y-102938283D01*
X166988233Y-102940606D01*
X166988238Y-102940609D01*
X167185074Y-103032394D01*
X167190757Y-103035044D01*
X167196065Y-103036466D01*
X167196067Y-103036467D01*
X167406598Y-103092879D01*
X167406600Y-103092879D01*
X167411913Y-103094303D01*
X167640000Y-103114258D01*
X167868087Y-103094303D01*
X167873400Y-103092879D01*
X167873402Y-103092879D01*
X168083933Y-103036467D01*
X168083935Y-103036466D01*
X168089243Y-103035044D01*
X168094926Y-103032394D01*
X168291762Y-102940609D01*
X168291767Y-102940606D01*
X168296749Y-102938283D01*
X168427980Y-102846394D01*
X168479789Y-102810117D01*
X168479792Y-102810115D01*
X168484300Y-102806958D01*
X168646198Y-102645060D01*
X168651684Y-102637226D01*
X168732602Y-102521662D01*
X168777523Y-102457509D01*
X168779846Y-102452527D01*
X168779849Y-102452522D01*
X168871961Y-102254985D01*
X168871961Y-102254984D01*
X168874284Y-102250003D01*
X168886662Y-102203810D01*
X168932119Y-102034162D01*
X168932119Y-102034160D01*
X168933543Y-102028847D01*
X168952779Y-101808978D01*
X168954871Y-101803630D01*
X168952779Y-101792542D01*
X168943764Y-101689497D01*
X168933543Y-101572673D01*
X168922730Y-101532319D01*
X168875707Y-101356827D01*
X168875706Y-101356825D01*
X168874284Y-101351517D01*
X168855796Y-101311869D01*
X168779849Y-101148998D01*
X168779846Y-101148993D01*
X168777523Y-101144011D01*
X168701842Y-101035928D01*
X168649357Y-100960971D01*
X168649355Y-100960968D01*
X168646198Y-100956460D01*
X168484300Y-100794562D01*
X168479792Y-100791405D01*
X168479789Y-100791403D01*
X168385892Y-100725656D01*
X168296749Y-100663237D01*
X168291767Y-100660914D01*
X168291762Y-100660911D01*
X168094225Y-100568799D01*
X168094224Y-100568799D01*
X168089243Y-100566476D01*
X168083935Y-100565054D01*
X168083933Y-100565053D01*
X167873402Y-100508641D01*
X167873400Y-100508641D01*
X167868087Y-100507217D01*
X167640000Y-100487262D01*
X167411913Y-100507217D01*
X167406600Y-100508641D01*
X167406598Y-100508641D01*
X167379018Y-100516031D01*
X167308041Y-100514341D01*
X167257312Y-100483419D01*
X167150614Y-100376721D01*
X167144760Y-100370455D01*
X167135507Y-100359848D01*
X167109476Y-100330008D01*
X167060898Y-100295867D01*
X167055604Y-100291935D01*
X167014855Y-100259983D01*
X167014856Y-100259983D01*
X167008879Y-100255297D01*
X167001955Y-100252171D01*
X166995824Y-100248458D01*
X166991204Y-100245822D01*
X166984822Y-100242400D01*
X166978603Y-100238029D01*
X166923286Y-100216461D01*
X166917207Y-100213906D01*
X166863088Y-100189471D01*
X166855612Y-100188085D01*
X166848734Y-100185930D01*
X166843609Y-100184470D01*
X166836645Y-100182682D01*
X166829566Y-100179922D01*
X166822034Y-100178930D01*
X166822032Y-100178930D01*
X166796804Y-100175609D01*
X166770700Y-100172173D01*
X166764202Y-100171144D01*
X166705803Y-100160320D01*
X166698223Y-100160757D01*
X166698222Y-100160757D01*
X166648033Y-100163651D01*
X166640780Y-100163860D01*
X165559707Y-100163860D01*
X165491586Y-100143858D01*
X165445093Y-100090202D01*
X165442274Y-100083527D01*
X165428595Y-100048351D01*
X165428594Y-100048349D01*
X165426902Y-100043998D01*
X165404702Y-100005155D01*
X165326035Y-99867517D01*
X165293518Y-99810624D01*
X165277748Y-99790619D01*
X165180483Y-99667239D01*
X165127105Y-99599529D01*
X164931317Y-99415351D01*
X164766857Y-99301260D01*
X164714299Y-99264799D01*
X164714296Y-99264797D01*
X164710457Y-99262134D01*
X164706264Y-99260066D01*
X164473564Y-99145311D01*
X164473561Y-99145310D01*
X164469376Y-99143246D01*
X164460214Y-99140313D01*
X164343119Y-99102831D01*
X164213370Y-99061298D01*
X164208763Y-99060548D01*
X164208760Y-99060547D01*
X163952674Y-99018841D01*
X163952675Y-99018841D01*
X163948063Y-99018090D01*
X163817719Y-99016384D01*
X163683961Y-99014633D01*
X163683958Y-99014633D01*
X163679284Y-99014572D01*
X163412937Y-99050820D01*
X163408451Y-99052128D01*
X163408449Y-99052128D01*
X163379565Y-99060547D01*
X163154874Y-99126038D01*
X162910763Y-99238575D01*
X162906854Y-99241138D01*
X162689881Y-99383391D01*
X162689876Y-99383395D01*
X162685968Y-99385957D01*
X162616127Y-99448293D01*
X162527046Y-99527801D01*
X162485426Y-99564948D01*
X162365275Y-99709414D01*
X162331914Y-99749527D01*
X162313544Y-99771614D01*
X162174096Y-100001416D01*
X162172287Y-100005730D01*
X162172285Y-100005734D01*
X162084992Y-100213906D01*
X162070148Y-100249305D01*
X162003981Y-100509837D01*
X161977050Y-100777286D01*
X160600043Y-100777286D01*
X160599328Y-100767665D01*
X160583996Y-100561352D01*
X160583996Y-100561351D01*
X160583650Y-100556697D01*
X160582619Y-100552139D01*
X160525361Y-100299091D01*
X160525360Y-100299086D01*
X160524327Y-100294523D01*
X160426902Y-100043998D01*
X160293518Y-99810624D01*
X160277748Y-99790619D01*
X160180483Y-99667239D01*
X160127105Y-99599529D01*
X159931317Y-99415351D01*
X159766857Y-99301260D01*
X159714299Y-99264799D01*
X159714296Y-99264797D01*
X159710457Y-99262134D01*
X159706264Y-99260066D01*
X159473564Y-99145311D01*
X159473561Y-99145310D01*
X159469376Y-99143246D01*
X159460214Y-99140313D01*
X159343119Y-99102831D01*
X159213370Y-99061298D01*
X159208763Y-99060548D01*
X159208760Y-99060547D01*
X158952674Y-99018841D01*
X158952675Y-99018841D01*
X158948063Y-99018090D01*
X158817719Y-99016384D01*
X158683961Y-99014633D01*
X158683958Y-99014633D01*
X158679284Y-99014572D01*
X158412937Y-99050820D01*
X158408451Y-99052128D01*
X158408449Y-99052128D01*
X158379565Y-99060547D01*
X158154874Y-99126038D01*
X158148319Y-99129060D01*
X158146364Y-99129961D01*
X158076126Y-99140313D01*
X158011441Y-99111049D01*
X158004521Y-99104628D01*
X155212614Y-96312721D01*
X155206760Y-96306455D01*
X155171476Y-96266008D01*
X155122898Y-96231867D01*
X155117604Y-96227935D01*
X155078349Y-96197154D01*
X155070879Y-96191297D01*
X155063955Y-96188171D01*
X155057824Y-96184458D01*
X155053204Y-96181822D01*
X155046823Y-96178400D01*
X155040603Y-96174029D01*
X155031804Y-96170599D01*
X155026354Y-96168473D01*
X154970153Y-96125091D01*
X154950419Y-96083693D01*
X154905706Y-95916824D01*
X154904284Y-95911517D01*
X154850148Y-95795421D01*
X154809849Y-95708998D01*
X154809846Y-95708993D01*
X154807523Y-95704011D01*
X154709287Y-95563716D01*
X154679357Y-95520971D01*
X154679355Y-95520968D01*
X154676198Y-95516460D01*
X154514300Y-95354562D01*
X154509792Y-95351405D01*
X154509789Y-95351403D01*
X154384629Y-95263765D01*
X154340301Y-95208308D01*
X154330900Y-95160552D01*
X154330900Y-95004348D01*
X154350902Y-94936227D01*
X154404558Y-94889734D01*
X154474832Y-94879630D01*
X154539412Y-94909124D01*
X154545995Y-94915253D01*
X154603700Y-94972958D01*
X154608208Y-94976115D01*
X154608211Y-94976117D01*
X154685351Y-95030131D01*
X154791251Y-95104283D01*
X154796233Y-95106606D01*
X154796238Y-95106609D01*
X154949778Y-95178205D01*
X154998757Y-95201044D01*
X155004065Y-95202466D01*
X155004067Y-95202467D01*
X155214598Y-95258879D01*
X155214600Y-95258879D01*
X155219913Y-95260303D01*
X155448000Y-95280258D01*
X155676087Y-95260303D01*
X155681400Y-95258879D01*
X155681402Y-95258879D01*
X155891933Y-95202467D01*
X155891935Y-95202466D01*
X155897243Y-95201044D01*
X155946222Y-95178205D01*
X156099762Y-95106609D01*
X156099767Y-95106606D01*
X156104749Y-95104283D01*
X156210649Y-95030131D01*
X156287789Y-94976117D01*
X156287792Y-94976115D01*
X156292300Y-94972958D01*
X156454198Y-94811060D01*
X156459365Y-94803681D01*
X156544995Y-94681389D01*
X156600452Y-94637061D01*
X156648208Y-94627660D01*
X157920737Y-94627660D01*
X157929308Y-94627952D01*
X157982843Y-94631602D01*
X157990320Y-94630297D01*
X157990321Y-94630297D01*
X158015626Y-94625881D01*
X158041347Y-94621391D01*
X158047865Y-94620430D01*
X158066223Y-94618208D01*
X158099262Y-94614210D01*
X158099264Y-94614210D01*
X158106805Y-94613297D01*
X158113913Y-94610611D01*
X158120879Y-94608900D01*
X158126068Y-94607481D01*
X158132947Y-94605404D01*
X158140424Y-94604099D01*
X158194795Y-94580231D01*
X158200886Y-94577746D01*
X158208289Y-94574949D01*
X158234854Y-94564911D01*
X158249336Y-94559439D01*
X158249338Y-94559438D01*
X158256441Y-94556754D01*
X158262702Y-94552451D01*
X158269026Y-94549145D01*
X158273798Y-94546489D01*
X158279944Y-94542854D01*
X158286896Y-94539802D01*
X158327062Y-94508982D01*
X158334001Y-94503658D01*
X158339334Y-94499783D01*
X158386101Y-94467640D01*
X158453568Y-94445540D01*
X158490081Y-94449774D01*
X158516594Y-94456879D01*
X158516608Y-94456881D01*
X158521913Y-94458303D01*
X158750000Y-94478258D01*
X158978087Y-94458303D01*
X158983400Y-94456879D01*
X158983402Y-94456879D01*
X159193933Y-94400467D01*
X159193935Y-94400466D01*
X159199243Y-94399044D01*
X159211795Y-94393191D01*
X159401762Y-94304609D01*
X159401767Y-94304606D01*
X159406749Y-94302283D01*
X159534715Y-94212680D01*
X159589789Y-94174117D01*
X159589792Y-94174115D01*
X159594300Y-94170958D01*
X159648693Y-94116565D01*
X159711005Y-94082539D01*
X159737788Y-94079660D01*
X163327605Y-94079660D01*
X163395726Y-94099662D01*
X163442356Y-94154000D01*
X163443220Y-94156406D01*
X163445433Y-94160525D01*
X163445435Y-94160529D01*
X163510953Y-94282462D01*
X163570450Y-94393191D01*
X163573241Y-94396928D01*
X163573245Y-94396935D01*
X163684923Y-94546489D01*
X163731281Y-94608570D01*
X163734590Y-94611850D01*
X163734595Y-94611856D01*
X163875706Y-94751740D01*
X163922180Y-94797810D01*
X163925942Y-94800568D01*
X163925945Y-94800571D01*
X164079616Y-94913247D01*
X164138954Y-94956755D01*
X164143089Y-94958931D01*
X164143093Y-94958933D01*
X164372698Y-95079735D01*
X164376840Y-95081914D01*
X164498044Y-95124240D01*
X164620144Y-95166879D01*
X164630613Y-95170535D01*
X164635206Y-95171407D01*
X164890109Y-95219802D01*
X164890112Y-95219802D01*
X164894698Y-95220673D01*
X165079682Y-95227941D01*
X165085412Y-95228166D01*
X165152695Y-95250827D01*
X165169560Y-95264974D01*
X166322659Y-96418073D01*
X166356685Y-96480385D01*
X166355270Y-96539780D01*
X166347882Y-96567351D01*
X166347881Y-96567358D01*
X166346457Y-96572673D01*
X166326502Y-96800760D01*
X166346457Y-97028847D01*
X166347881Y-97034160D01*
X166347881Y-97034162D01*
X166379026Y-97150394D01*
X166405716Y-97250003D01*
X166408039Y-97254984D01*
X166408039Y-97254985D01*
X166500151Y-97452522D01*
X166500154Y-97452527D01*
X166502477Y-97457509D01*
X166633802Y-97645060D01*
X166795700Y-97806958D01*
X166800208Y-97810115D01*
X166800211Y-97810117D01*
X166803646Y-97812522D01*
X166983251Y-97938283D01*
X166988233Y-97940606D01*
X166988238Y-97940609D01*
X167185775Y-98032721D01*
X167190757Y-98035044D01*
X167196065Y-98036466D01*
X167196067Y-98036467D01*
X167406598Y-98092879D01*
X167406600Y-98092879D01*
X167411913Y-98094303D01*
X167640000Y-98114258D01*
X167868087Y-98094303D01*
X167873400Y-98092879D01*
X167873402Y-98092879D01*
X168083933Y-98036467D01*
X168083935Y-98036466D01*
X168089243Y-98035044D01*
X168094225Y-98032721D01*
X168291762Y-97940609D01*
X168291767Y-97940606D01*
X168296749Y-97938283D01*
X168476354Y-97812522D01*
X168479789Y-97810117D01*
X168479792Y-97810115D01*
X168484300Y-97806958D01*
X168646198Y-97645060D01*
X168777523Y-97457509D01*
X168779846Y-97452527D01*
X168779849Y-97452522D01*
X168871961Y-97254985D01*
X168871961Y-97254984D01*
X168874284Y-97250003D01*
X168900975Y-97150394D01*
X168932119Y-97034162D01*
X168932119Y-97034160D01*
X168933543Y-97028847D01*
X168952779Y-96808978D01*
X168954871Y-96803630D01*
X168952779Y-96792542D01*
X168951818Y-96781560D01*
X168933543Y-96572673D01*
X168928789Y-96554931D01*
X168875707Y-96356827D01*
X168875706Y-96356825D01*
X168874284Y-96351517D01*
X168854777Y-96309683D01*
X168779849Y-96148998D01*
X168779846Y-96148993D01*
X168777523Y-96144011D01*
X168672623Y-95994199D01*
X168649357Y-95960971D01*
X168649355Y-95960968D01*
X168646198Y-95956460D01*
X168484300Y-95794562D01*
X168479792Y-95791405D01*
X168479789Y-95791403D01*
X168329262Y-95686003D01*
X168296749Y-95663237D01*
X168291767Y-95660914D01*
X168291762Y-95660911D01*
X168094225Y-95568799D01*
X168094224Y-95568799D01*
X168089243Y-95566476D01*
X168083935Y-95565054D01*
X168083933Y-95565053D01*
X167873402Y-95508641D01*
X167873400Y-95508641D01*
X167868087Y-95507217D01*
X167640000Y-95487262D01*
X167411913Y-95507217D01*
X167406606Y-95508639D01*
X167406595Y-95508641D01*
X167379022Y-95516030D01*
X167308046Y-95514342D01*
X167257314Y-95483420D01*
X166888059Y-95114165D01*
X166508344Y-94734451D01*
X166474319Y-94672138D01*
X166479383Y-94601323D01*
X166502707Y-94562278D01*
X166545294Y-94513716D01*
X166545298Y-94513710D01*
X166548382Y-94510194D01*
X166553877Y-94501652D01*
X166691269Y-94288051D01*
X166693797Y-94284121D01*
X166804199Y-94039038D01*
X166838207Y-93918456D01*
X166848466Y-93882080D01*
X166886208Y-93821947D01*
X166950469Y-93791764D01*
X167020847Y-93801114D01*
X167058830Y-93827187D01*
X169167395Y-95935752D01*
X169201421Y-95998064D01*
X169204300Y-96024847D01*
X169204300Y-96781560D01*
X169200858Y-96793284D01*
X169201830Y-96795134D01*
X169204300Y-96819960D01*
X169204300Y-101781560D01*
X169200858Y-101793284D01*
X169201830Y-101795134D01*
X169204300Y-101819960D01*
X169204300Y-108438722D01*
X169184298Y-108506843D01*
X169167395Y-108527817D01*
X166266485Y-111428727D01*
X166204173Y-111462753D01*
X166188373Y-111465152D01*
X166171728Y-111466608D01*
X166141913Y-111469217D01*
X166004252Y-111506103D01*
X165926067Y-111527053D01*
X165926065Y-111527054D01*
X165920757Y-111528476D01*
X165915776Y-111530799D01*
X165915775Y-111530799D01*
X165718238Y-111622911D01*
X165718233Y-111622914D01*
X165713251Y-111625237D01*
X165608389Y-111698662D01*
X165530211Y-111753403D01*
X165530208Y-111753405D01*
X165525700Y-111756562D01*
X165363802Y-111918460D01*
X165360645Y-111922968D01*
X165360643Y-111922971D01*
X165352652Y-111934384D01*
X165232477Y-112106011D01*
X165230154Y-112110993D01*
X165230151Y-112110998D01*
X165158611Y-112264418D01*
X165135716Y-112313517D01*
X165134294Y-112318825D01*
X165134293Y-112318827D01*
X165088920Y-112488162D01*
X165076457Y-112534673D01*
X165056502Y-112762760D01*
X165076457Y-112990847D01*
X165077881Y-112996160D01*
X165077881Y-112996162D01*
X165123339Y-113165810D01*
X165135716Y-113212003D01*
X165138039Y-113216984D01*
X165138039Y-113216985D01*
X165230151Y-113414522D01*
X165230154Y-113414527D01*
X165232477Y-113419509D01*
X165314741Y-113536993D01*
X165330713Y-113559804D01*
X165353500Y-113632075D01*
X165353500Y-115610572D01*
X165333498Y-115678693D01*
X165316595Y-115699667D01*
X165287802Y-115728460D01*
X165284645Y-115732968D01*
X165284643Y-115732971D01*
X165251320Y-115780562D01*
X165156477Y-115916011D01*
X165154154Y-115920993D01*
X165154151Y-115920998D01*
X165067950Y-116105858D01*
X165059716Y-116123517D01*
X165058294Y-116128825D01*
X165058293Y-116128827D01*
X165001881Y-116339358D01*
X165000457Y-116344673D01*
X164980502Y-116572760D01*
X165000457Y-116800847D01*
X165001881Y-116806160D01*
X165001881Y-116806162D01*
X165055905Y-117007779D01*
X165059716Y-117022003D01*
X165062039Y-117026984D01*
X165062039Y-117026985D01*
X165154151Y-117224522D01*
X165154154Y-117224527D01*
X165156477Y-117229509D01*
X165287802Y-117417060D01*
X165449700Y-117578958D01*
X165454208Y-117582115D01*
X165454211Y-117582117D01*
X165517667Y-117626549D01*
X165637251Y-117710283D01*
X165642233Y-117712606D01*
X165642238Y-117712609D01*
X165839775Y-117804721D01*
X165844757Y-117807044D01*
X165850065Y-117808466D01*
X165850067Y-117808467D01*
X166060598Y-117864879D01*
X166060600Y-117864879D01*
X166065913Y-117866303D01*
X166294000Y-117886258D01*
X166522087Y-117866303D01*
X166527400Y-117864879D01*
X166527402Y-117864879D01*
X166737933Y-117808467D01*
X166737935Y-117808466D01*
X166743243Y-117807044D01*
X166748225Y-117804721D01*
X166945762Y-117712609D01*
X166945767Y-117712606D01*
X166950749Y-117710283D01*
X167070333Y-117626549D01*
X167133789Y-117582117D01*
X167133792Y-117582115D01*
X167138300Y-117578958D01*
X167300198Y-117417060D01*
X167431523Y-117229509D01*
X167433846Y-117224527D01*
X167433849Y-117224522D01*
X167525961Y-117026985D01*
X167525961Y-117026984D01*
X167528284Y-117022003D01*
X167532096Y-117007779D01*
X167586119Y-116806162D01*
X167586119Y-116806160D01*
X167587543Y-116800847D01*
X167607498Y-116572760D01*
X167587543Y-116344673D01*
X167586119Y-116339358D01*
X167529707Y-116128827D01*
X167529706Y-116128825D01*
X167528284Y-116123517D01*
X167520050Y-116105858D01*
X167433849Y-115920998D01*
X167433846Y-115920993D01*
X167431523Y-115916011D01*
X167409287Y-115884255D01*
X167386500Y-115811984D01*
X167386500Y-113632075D01*
X167409287Y-113559804D01*
X167425259Y-113536993D01*
X167507523Y-113419509D01*
X167509846Y-113414527D01*
X167509849Y-113414522D01*
X167601961Y-113216985D01*
X167601961Y-113216984D01*
X167604284Y-113212003D01*
X167616662Y-113165810D01*
X167634226Y-113100258D01*
X167663543Y-112990847D01*
X167667608Y-112944387D01*
X167693471Y-112878269D01*
X167704033Y-112866275D01*
X170895533Y-109674775D01*
X170905676Y-109665673D01*
X170922949Y-109651785D01*
X170935449Y-109641735D01*
X170967965Y-109602984D01*
X170971147Y-109599336D01*
X170972850Y-109597458D01*
X170975041Y-109595267D01*
X171002541Y-109561788D01*
X171003377Y-109560781D01*
X171059626Y-109493747D01*
X171059628Y-109493743D01*
X171063586Y-109489027D01*
X171066175Y-109484318D01*
X171069582Y-109480170D01*
X171072490Y-109474746D01*
X171072493Y-109474742D01*
X171113850Y-109397611D01*
X171114479Y-109396452D01*
X171115362Y-109394847D01*
X171159621Y-109314339D01*
X171161244Y-109309223D01*
X171163784Y-109304486D01*
X171191184Y-109214864D01*
X171191567Y-109213634D01*
X171204700Y-109172235D01*
X171219898Y-109124325D01*
X171220497Y-109118987D01*
X171222067Y-109113851D01*
X171231546Y-109020529D01*
X171231666Y-109019409D01*
X171237300Y-108969176D01*
X171237300Y-108965671D01*
X171237362Y-108964563D01*
X171237810Y-108958868D01*
X171241590Y-108921655D01*
X171241590Y-108921648D01*
X171242212Y-108915525D01*
X171237859Y-108869474D01*
X171237300Y-108857617D01*
X171237300Y-95613882D01*
X171238037Y-95600274D01*
X171241496Y-95568430D01*
X171242162Y-95562304D01*
X171237755Y-95511931D01*
X171237426Y-95507116D01*
X171237300Y-95504540D01*
X171237300Y-95501452D01*
X171233067Y-95458274D01*
X171232946Y-95456963D01*
X171225324Y-95369854D01*
X171224787Y-95363717D01*
X171223289Y-95358562D01*
X171222765Y-95353215D01*
X171195642Y-95263380D01*
X171195300Y-95262224D01*
X171170891Y-95178205D01*
X171170889Y-95178199D01*
X171169171Y-95172287D01*
X171166702Y-95167523D01*
X171165148Y-95162377D01*
X171121110Y-95079553D01*
X171120563Y-95078511D01*
X171080271Y-95000779D01*
X171080271Y-95000778D01*
X171077433Y-94995304D01*
X171074082Y-94991106D01*
X171071561Y-94986365D01*
X171067667Y-94981591D01*
X171067664Y-94981586D01*
X171012312Y-94913717D01*
X171011485Y-94912692D01*
X170982233Y-94876050D01*
X170982232Y-94876049D01*
X170980032Y-94873293D01*
X170977540Y-94870801D01*
X170976822Y-94869998D01*
X170973110Y-94865652D01*
X170949464Y-94836660D01*
X170945568Y-94831883D01*
X170937992Y-94825615D01*
X170909927Y-94802398D01*
X170901148Y-94794409D01*
X166168956Y-90062217D01*
X166134930Y-89999905D01*
X166139995Y-89929090D01*
X166176639Y-89876955D01*
X166285010Y-89785212D01*
X166371149Y-89712290D01*
X166548382Y-89510194D01*
X166565026Y-89484319D01*
X166691269Y-89288051D01*
X166693797Y-89284121D01*
X166703285Y-89263060D01*
X166752453Y-89153910D01*
X166798668Y-89100015D01*
X166867335Y-89079660D01*
X170503792Y-89079660D01*
X170571913Y-89099662D01*
X170607005Y-89133389D01*
X170694643Y-89258549D01*
X170697802Y-89263060D01*
X170859700Y-89424958D01*
X170864208Y-89428115D01*
X170864211Y-89428117D01*
X170917238Y-89465247D01*
X171047251Y-89556283D01*
X171052233Y-89558606D01*
X171052238Y-89558609D01*
X171249775Y-89650721D01*
X171254757Y-89653044D01*
X171260065Y-89654466D01*
X171260067Y-89654467D01*
X171470598Y-89710879D01*
X171470600Y-89710879D01*
X171475913Y-89712303D01*
X171704000Y-89732258D01*
X171932087Y-89712303D01*
X171937400Y-89710879D01*
X171937402Y-89710879D01*
X172147933Y-89654467D01*
X172147935Y-89654466D01*
X172153243Y-89653044D01*
X172158225Y-89650721D01*
X172355762Y-89558609D01*
X172355767Y-89558606D01*
X172360749Y-89556283D01*
X172490762Y-89465247D01*
X172543789Y-89428117D01*
X172543792Y-89428115D01*
X172548300Y-89424958D01*
X172710198Y-89263060D01*
X172725905Y-89240629D01*
X172814923Y-89113497D01*
X172841523Y-89075509D01*
X172843846Y-89070527D01*
X172843849Y-89070522D01*
X172935961Y-88872985D01*
X172935961Y-88872984D01*
X172938284Y-88868003D01*
X172940202Y-88860847D01*
X172996119Y-88652162D01*
X172996119Y-88652160D01*
X172997543Y-88646847D01*
X173017498Y-88418760D01*
X172997543Y-88190673D01*
X172973059Y-88099298D01*
X172939707Y-87974827D01*
X172939706Y-87974825D01*
X172938284Y-87969517D01*
X172901838Y-87891358D01*
X172843849Y-87766998D01*
X172843846Y-87766993D01*
X172841523Y-87762011D01*
X172749093Y-87630008D01*
X172713357Y-87578971D01*
X172713355Y-87578968D01*
X172710198Y-87574460D01*
X172548300Y-87412562D01*
X172543792Y-87409405D01*
X172543789Y-87409403D01*
X172415054Y-87319262D01*
X172360749Y-87281237D01*
X172355767Y-87278914D01*
X172355762Y-87278911D01*
X172158225Y-87186799D01*
X172158224Y-87186799D01*
X172153243Y-87184476D01*
X172147935Y-87183054D01*
X172147933Y-87183053D01*
X171937402Y-87126641D01*
X171937400Y-87126641D01*
X171932087Y-87125217D01*
X171704000Y-87105262D01*
X171475913Y-87125217D01*
X171470600Y-87126641D01*
X171470598Y-87126641D01*
X171260067Y-87183053D01*
X171260065Y-87183054D01*
X171254757Y-87184476D01*
X171249776Y-87186799D01*
X171249775Y-87186799D01*
X171052238Y-87278911D01*
X171052233Y-87278914D01*
X171047251Y-87281237D01*
X170992946Y-87319262D01*
X170864211Y-87409403D01*
X170864208Y-87409405D01*
X170859700Y-87412562D01*
X170697802Y-87574460D01*
X170694645Y-87578968D01*
X170694643Y-87578971D01*
X170607005Y-87704131D01*
X170551548Y-87748459D01*
X170503792Y-87757860D01*
X166869707Y-87757860D01*
X166801586Y-87737858D01*
X166755093Y-87684202D01*
X166752274Y-87677527D01*
X166738595Y-87642351D01*
X166738594Y-87642349D01*
X166736902Y-87637998D01*
X166732336Y-87630008D01*
X166675066Y-87529808D01*
X166603518Y-87404624D01*
X166598672Y-87398476D01*
X166506248Y-87281237D01*
X166437105Y-87193529D01*
X166241317Y-87009351D01*
X166073309Y-86892799D01*
X166024299Y-86858799D01*
X166024296Y-86858797D01*
X166020457Y-86856134D01*
X165977882Y-86835138D01*
X165831172Y-86762789D01*
X165778923Y-86714721D01*
X165760900Y-86649783D01*
X165760900Y-85265204D01*
X165780902Y-85197083D01*
X165797805Y-85176109D01*
X165806725Y-85167189D01*
X165869037Y-85133163D01*
X165939852Y-85138228D01*
X165956519Y-85145868D01*
X166053502Y-85199185D01*
X166214735Y-85263021D01*
X166345578Y-85314826D01*
X166345581Y-85314827D01*
X166349261Y-85316284D01*
X166353100Y-85317270D01*
X166353104Y-85317271D01*
X166496347Y-85354050D01*
X166657364Y-85395392D01*
X166661292Y-85395888D01*
X166661296Y-85395889D01*
X166786276Y-85411677D01*
X166972952Y-85435260D01*
X167291048Y-85435260D01*
X167477724Y-85411677D01*
X167602704Y-85395889D01*
X167602708Y-85395888D01*
X167606636Y-85395392D01*
X167767653Y-85354050D01*
X167910896Y-85317271D01*
X167910900Y-85317270D01*
X167914739Y-85316284D01*
X167918419Y-85314827D01*
X167918422Y-85314826D01*
X168049265Y-85263021D01*
X168210498Y-85199185D01*
X168214322Y-85197083D01*
X168485776Y-85047850D01*
X168485779Y-85047848D01*
X168489248Y-85045941D01*
X168492452Y-85043613D01*
X168492457Y-85043610D01*
X168743390Y-84861297D01*
X168743392Y-84861296D01*
X168746594Y-84858969D01*
X168785153Y-84822760D01*
X168975589Y-84643927D01*
X168978476Y-84641216D01*
X169134475Y-84452646D01*
X169178716Y-84399168D01*
X169178719Y-84399164D01*
X169181238Y-84396119D01*
X169313650Y-84187471D01*
X169349559Y-84130888D01*
X169349559Y-84130887D01*
X169351683Y-84127541D01*
X169353367Y-84123962D01*
X169353371Y-84123955D01*
X169485433Y-83843309D01*
X169485435Y-83843305D01*
X169487122Y-83839719D01*
X169585419Y-83537191D01*
X169645025Y-83224729D01*
X169664998Y-82907260D01*
X169645025Y-82589791D01*
X169585419Y-82277329D01*
X169487122Y-81974801D01*
X169468648Y-81935541D01*
X169353371Y-81690565D01*
X169353367Y-81690558D01*
X169351683Y-81686979D01*
X169181238Y-81418401D01*
X169168252Y-81402703D01*
X169087511Y-81305105D01*
X168978476Y-81173304D01*
X168746594Y-80955551D01*
X168728800Y-80942623D01*
X168492457Y-80770910D01*
X168492452Y-80770907D01*
X168489248Y-80768579D01*
X168479932Y-80763457D01*
X168213960Y-80617238D01*
X168213957Y-80617237D01*
X168210498Y-80615335D01*
X168003791Y-80533494D01*
X167918422Y-80499694D01*
X167918419Y-80499693D01*
X167914739Y-80498236D01*
X167910900Y-80497250D01*
X167910896Y-80497249D01*
X167731687Y-80451236D01*
X167606636Y-80419128D01*
X167602708Y-80418632D01*
X167602704Y-80418631D01*
X167477723Y-80402843D01*
X167291048Y-80379260D01*
X166972952Y-80379260D01*
X166786277Y-80402843D01*
X166661296Y-80418631D01*
X166661292Y-80418632D01*
X166657364Y-80419128D01*
X166532313Y-80451236D01*
X166353104Y-80497249D01*
X166353100Y-80497250D01*
X166349261Y-80498236D01*
X166345581Y-80499693D01*
X166345578Y-80499694D01*
X166260209Y-80533494D01*
X166053502Y-80615335D01*
X166050043Y-80617237D01*
X166050040Y-80617238D01*
X165784069Y-80763457D01*
X165774752Y-80768579D01*
X165771548Y-80770907D01*
X165771543Y-80770910D01*
X165535200Y-80942623D01*
X165517406Y-80955551D01*
X165285524Y-81173304D01*
X165176489Y-81305105D01*
X165095749Y-81402703D01*
X165082762Y-81418401D01*
X164912317Y-81686979D01*
X164910633Y-81690558D01*
X164910629Y-81690565D01*
X164795352Y-81935541D01*
X164776878Y-81974801D01*
X164678581Y-82277329D01*
X164618975Y-82589791D01*
X164599002Y-82907260D01*
X164618975Y-83224729D01*
X164678581Y-83537191D01*
X164776878Y-83839719D01*
X164895332Y-84091447D01*
X164906238Y-84161598D01*
X164877485Y-84226512D01*
X164870419Y-84234188D01*
X164651961Y-84452646D01*
X164645696Y-84458499D01*
X164605248Y-84493784D01*
X164600881Y-84499998D01*
X164571109Y-84542359D01*
X164567177Y-84547653D01*
X164530537Y-84594381D01*
X164527411Y-84601305D01*
X164523698Y-84607436D01*
X164521062Y-84612056D01*
X164517640Y-84618438D01*
X164513269Y-84624657D01*
X164510509Y-84631736D01*
X164491702Y-84679973D01*
X164489146Y-84686052D01*
X164464711Y-84740172D01*
X164463325Y-84747648D01*
X164461170Y-84754526D01*
X164459710Y-84759651D01*
X164457922Y-84766615D01*
X164455162Y-84773694D01*
X164454170Y-84781226D01*
X164454170Y-84781228D01*
X164447414Y-84832552D01*
X164446384Y-84839058D01*
X164435560Y-84897457D01*
X164435997Y-84905037D01*
X164435997Y-84905038D01*
X164438891Y-84955227D01*
X164439100Y-84962480D01*
X164439100Y-86651262D01*
X164419098Y-86719383D01*
X164365851Y-86765688D01*
X164359615Y-86768563D01*
X164220763Y-86832575D01*
X164211685Y-86838527D01*
X163999881Y-86977391D01*
X163999876Y-86977395D01*
X163995968Y-86979957D01*
X163956887Y-87014838D01*
X163827499Y-87130322D01*
X163795426Y-87158948D01*
X163691094Y-87284394D01*
X163643520Y-87341596D01*
X163623544Y-87365614D01*
X163621121Y-87369607D01*
X163514191Y-87545822D01*
X163484096Y-87595416D01*
X163482287Y-87599730D01*
X163482285Y-87599734D01*
X163415978Y-87757860D01*
X163380148Y-87843305D01*
X163313981Y-88103837D01*
X163287050Y-88371286D01*
X163287274Y-88375952D01*
X163287274Y-88375957D01*
X163293930Y-88514517D01*
X163299947Y-88639779D01*
X163352388Y-88903416D01*
X163443220Y-89156406D01*
X163445432Y-89160522D01*
X163445433Y-89160525D01*
X163536185Y-89329421D01*
X163550809Y-89398896D01*
X163525550Y-89465247D01*
X163468429Y-89507410D01*
X163425193Y-89515060D01*
X154518039Y-89515060D01*
X154449918Y-89495058D01*
X154428949Y-89478160D01*
X153453404Y-88502616D01*
X153419380Y-88440305D01*
X153416500Y-88413522D01*
X153416500Y-87216075D01*
X153439287Y-87143804D01*
X153491595Y-87069101D01*
X153537523Y-87003509D01*
X153539846Y-86998527D01*
X153539849Y-86998522D01*
X153631961Y-86800985D01*
X153631961Y-86800984D01*
X153634284Y-86796003D01*
X153640593Y-86772460D01*
X153692119Y-86580162D01*
X153692119Y-86580160D01*
X153693543Y-86574847D01*
X153713498Y-86346760D01*
X153693543Y-86118673D01*
X153677092Y-86057277D01*
X153635707Y-85902827D01*
X153635706Y-85902825D01*
X153634284Y-85897517D01*
X153602315Y-85828958D01*
X153539849Y-85694998D01*
X153539846Y-85694993D01*
X153537523Y-85690011D01*
X153439287Y-85549716D01*
X153416500Y-85477445D01*
X153416500Y-82091036D01*
X153417237Y-82077428D01*
X153420697Y-82045581D01*
X153420697Y-82045577D01*
X153421362Y-82039456D01*
X153416954Y-81989070D01*
X153416625Y-81984242D01*
X153416500Y-81981687D01*
X153416500Y-81978603D01*
X153414992Y-81963229D01*
X153412278Y-81935541D01*
X153412156Y-81934228D01*
X153408648Y-81894131D01*
X153403988Y-81840868D01*
X153402489Y-81835708D01*
X153401965Y-81830366D01*
X153374872Y-81740630D01*
X153374516Y-81739427D01*
X153350094Y-81655365D01*
X153350094Y-81655364D01*
X153348372Y-81649438D01*
X153345900Y-81644670D01*
X153344348Y-81639528D01*
X153341453Y-81634083D01*
X153341450Y-81634076D01*
X153300367Y-81556810D01*
X153299753Y-81555642D01*
X153265604Y-81489760D01*
X153256634Y-81472456D01*
X153253282Y-81468257D01*
X153250761Y-81463516D01*
X153201163Y-81402703D01*
X153191562Y-81390931D01*
X153190734Y-81389905D01*
X153161429Y-81353196D01*
X153161428Y-81353195D01*
X153159232Y-81350444D01*
X153156737Y-81347949D01*
X153156027Y-81347155D01*
X153152307Y-81342800D01*
X153128663Y-81313809D01*
X153128660Y-81313806D01*
X153124768Y-81309034D01*
X153089127Y-81279549D01*
X153080348Y-81271560D01*
X152718033Y-80909245D01*
X152684007Y-80846933D01*
X152681608Y-80831133D01*
X152678023Y-80790160D01*
X152677543Y-80784673D01*
X152618284Y-80563517D01*
X152615961Y-80558535D01*
X152523849Y-80360998D01*
X152523846Y-80360993D01*
X152521523Y-80356011D01*
X152401036Y-80183938D01*
X152393357Y-80172971D01*
X152393355Y-80172968D01*
X152390198Y-80168460D01*
X152228300Y-80006562D01*
X152223792Y-80003405D01*
X152223789Y-80003403D01*
X152100137Y-79916821D01*
X152040749Y-79875237D01*
X152035767Y-79872914D01*
X152035762Y-79872911D01*
X151838225Y-79780799D01*
X151838224Y-79780799D01*
X151833243Y-79778476D01*
X151827935Y-79777054D01*
X151827933Y-79777053D01*
X151617402Y-79720641D01*
X151617400Y-79720641D01*
X151612087Y-79719217D01*
X151384000Y-79699262D01*
X151155913Y-79719217D01*
X151150600Y-79720641D01*
X151150598Y-79720641D01*
X150940067Y-79777053D01*
X150940065Y-79777054D01*
X150934757Y-79778476D01*
X150929776Y-79780799D01*
X150929775Y-79780799D01*
X150732238Y-79872911D01*
X150732233Y-79872914D01*
X150727251Y-79875237D01*
X150662295Y-79920720D01*
X150586956Y-79973473D01*
X150514685Y-79996260D01*
X149459315Y-79996260D01*
X149387044Y-79973473D01*
X149311705Y-79920720D01*
X149246749Y-79875237D01*
X149241767Y-79872914D01*
X149241762Y-79872911D01*
X149044225Y-79780799D01*
X149044224Y-79780799D01*
X149039243Y-79778476D01*
X149033935Y-79777054D01*
X149033933Y-79777053D01*
X148885517Y-79737285D01*
X148818087Y-79719217D01*
X148788272Y-79716608D01*
X148771627Y-79715152D01*
X148705509Y-79689289D01*
X148693515Y-79678727D01*
X147865405Y-78850617D01*
X147831379Y-78788305D01*
X147828500Y-78761522D01*
X147828500Y-75364180D01*
X161133870Y-75364180D01*
X161168875Y-75621396D01*
X161170184Y-75625886D01*
X161170185Y-75625892D01*
X161183186Y-75670495D01*
X161241515Y-75870612D01*
X161350194Y-76106354D01*
X161352754Y-76110259D01*
X161352757Y-76110264D01*
X161489957Y-76319530D01*
X161489961Y-76319535D01*
X161492523Y-76323443D01*
X161665377Y-76517110D01*
X161864959Y-76683099D01*
X162086882Y-76817766D01*
X162091196Y-76819575D01*
X162091200Y-76819577D01*
X162139279Y-76839738D01*
X162326274Y-76918151D01*
X162577873Y-76982049D01*
X162793481Y-77003760D01*
X162947896Y-77003760D01*
X162950221Y-77003587D01*
X162950227Y-77003587D01*
X163136221Y-76989765D01*
X163136225Y-76989764D01*
X163140873Y-76989419D01*
X163394059Y-76932129D01*
X163427044Y-76919302D01*
X163631643Y-76839738D01*
X163631645Y-76839737D01*
X163635996Y-76838045D01*
X163668309Y-76819577D01*
X163773801Y-76759283D01*
X163861369Y-76709234D01*
X164065227Y-76548525D01*
X164243091Y-76359450D01*
X164307279Y-76266924D01*
X164388390Y-76150003D01*
X164388392Y-76150000D01*
X164391055Y-76146161D01*
X164407921Y-76111961D01*
X164503802Y-75917533D01*
X164503803Y-75917530D01*
X164505867Y-75913345D01*
X164585006Y-75666116D01*
X164626732Y-75409904D01*
X164627331Y-75364180D01*
X169633870Y-75364180D01*
X169668875Y-75621396D01*
X169670184Y-75625886D01*
X169670185Y-75625892D01*
X169683186Y-75670495D01*
X169741515Y-75870612D01*
X169850194Y-76106354D01*
X169852754Y-76110259D01*
X169852757Y-76110264D01*
X169989957Y-76319530D01*
X169989961Y-76319535D01*
X169992523Y-76323443D01*
X170165377Y-76517110D01*
X170364959Y-76683099D01*
X170586882Y-76817766D01*
X170591196Y-76819575D01*
X170591200Y-76819577D01*
X170639279Y-76839738D01*
X170826274Y-76918151D01*
X171077873Y-76982049D01*
X171293481Y-77003760D01*
X171447896Y-77003760D01*
X171450221Y-77003587D01*
X171450227Y-77003587D01*
X171636221Y-76989765D01*
X171636225Y-76989764D01*
X171640873Y-76989419D01*
X171894059Y-76932129D01*
X171927044Y-76919302D01*
X172131643Y-76839738D01*
X172131645Y-76839737D01*
X172135996Y-76838045D01*
X172168309Y-76819577D01*
X172273801Y-76759283D01*
X172361369Y-76709234D01*
X172565227Y-76548525D01*
X172743091Y-76359450D01*
X172807279Y-76266924D01*
X172888390Y-76150003D01*
X172888392Y-76150000D01*
X172891055Y-76146161D01*
X172907921Y-76111961D01*
X173003802Y-75917533D01*
X173003803Y-75917530D01*
X173005867Y-75913345D01*
X173085006Y-75666116D01*
X173126732Y-75409904D01*
X173129206Y-75220936D01*
X173130069Y-75155017D01*
X173130069Y-75155014D01*
X173130130Y-75150340D01*
X173095125Y-74893124D01*
X173082091Y-74848404D01*
X173062951Y-74782740D01*
X173022485Y-74643908D01*
X173019480Y-74637388D01*
X172945784Y-74477531D01*
X172913806Y-74408166D01*
X172885189Y-74364517D01*
X172774043Y-74194990D01*
X172774039Y-74194985D01*
X172771477Y-74191077D01*
X172598623Y-73997410D01*
X172399041Y-73831421D01*
X172177118Y-73696754D01*
X172172804Y-73694945D01*
X172172800Y-73694943D01*
X171942040Y-73598178D01*
X171937726Y-73596369D01*
X171686127Y-73532471D01*
X171470519Y-73510760D01*
X171316104Y-73510760D01*
X171313779Y-73510933D01*
X171313773Y-73510933D01*
X171127779Y-73524755D01*
X171127775Y-73524756D01*
X171123127Y-73525101D01*
X170869941Y-73582391D01*
X170865589Y-73584083D01*
X170865587Y-73584084D01*
X170632357Y-73674782D01*
X170632355Y-73674783D01*
X170628004Y-73676475D01*
X170623950Y-73678792D01*
X170623948Y-73678793D01*
X170592523Y-73696754D01*
X170402631Y-73805286D01*
X170198773Y-73965995D01*
X170020909Y-74155070D01*
X170018241Y-74158916D01*
X169882541Y-74354527D01*
X169872945Y-74368359D01*
X169870878Y-74372549D01*
X169870877Y-74372552D01*
X169816753Y-74482306D01*
X169758133Y-74601175D01*
X169756711Y-74605618D01*
X169756710Y-74605620D01*
X169746892Y-74636291D01*
X169678994Y-74848404D01*
X169678244Y-74853010D01*
X169639809Y-75089016D01*
X169637268Y-75104616D01*
X169636459Y-75166395D01*
X169634120Y-75345111D01*
X169633870Y-75364180D01*
X164627331Y-75364180D01*
X164629206Y-75220936D01*
X164630069Y-75155017D01*
X164630069Y-75155014D01*
X164630130Y-75150340D01*
X164595125Y-74893124D01*
X164582091Y-74848404D01*
X164562951Y-74782740D01*
X164522485Y-74643908D01*
X164519480Y-74637388D01*
X164445784Y-74477531D01*
X164413806Y-74408166D01*
X164385189Y-74364517D01*
X164274043Y-74194990D01*
X164274039Y-74194985D01*
X164271477Y-74191077D01*
X164098623Y-73997410D01*
X163899041Y-73831421D01*
X163677118Y-73696754D01*
X163672804Y-73694945D01*
X163672800Y-73694943D01*
X163442040Y-73598178D01*
X163437726Y-73596369D01*
X163186127Y-73532471D01*
X162970519Y-73510760D01*
X162816104Y-73510760D01*
X162813779Y-73510933D01*
X162813773Y-73510933D01*
X162627779Y-73524755D01*
X162627775Y-73524756D01*
X162623127Y-73525101D01*
X162369941Y-73582391D01*
X162365589Y-73584083D01*
X162365587Y-73584084D01*
X162132357Y-73674782D01*
X162132355Y-73674783D01*
X162128004Y-73676475D01*
X162123950Y-73678792D01*
X162123948Y-73678793D01*
X162092523Y-73696754D01*
X161902631Y-73805286D01*
X161698773Y-73965995D01*
X161520909Y-74155070D01*
X161518241Y-74158916D01*
X161382541Y-74354527D01*
X161372945Y-74368359D01*
X161370878Y-74372549D01*
X161370877Y-74372552D01*
X161316753Y-74482306D01*
X161258133Y-74601175D01*
X161256711Y-74605618D01*
X161256710Y-74605620D01*
X161246892Y-74636291D01*
X161178994Y-74848404D01*
X161178244Y-74853010D01*
X161139809Y-75089016D01*
X161137268Y-75104616D01*
X161136459Y-75166395D01*
X161134120Y-75345111D01*
X161133870Y-75364180D01*
X147828500Y-75364180D01*
X147828500Y-75259533D01*
X147829237Y-75245925D01*
X147832697Y-75214078D01*
X147832697Y-75214074D01*
X147833362Y-75207953D01*
X147828954Y-75157567D01*
X147828625Y-75152739D01*
X147828500Y-75150184D01*
X147828500Y-75147100D01*
X147826226Y-75123908D01*
X147824278Y-75104038D01*
X147824156Y-75102725D01*
X147820187Y-75057362D01*
X147815988Y-75009365D01*
X147814489Y-75004205D01*
X147813965Y-74998863D01*
X147786883Y-74909161D01*
X147786527Y-74907961D01*
X147784668Y-74901562D01*
X147760372Y-74817935D01*
X147757900Y-74813167D01*
X147756348Y-74808025D01*
X147753453Y-74802580D01*
X147753450Y-74802573D01*
X147712367Y-74725307D01*
X147711753Y-74724139D01*
X147672495Y-74648401D01*
X147668634Y-74640953D01*
X147665282Y-74636754D01*
X147662761Y-74632013D01*
X147621754Y-74581734D01*
X147603562Y-74559428D01*
X147602734Y-74558402D01*
X147573429Y-74521693D01*
X147573428Y-74521692D01*
X147571232Y-74518941D01*
X147568737Y-74516446D01*
X147568027Y-74515652D01*
X147564307Y-74511297D01*
X147540663Y-74482306D01*
X147540660Y-74482303D01*
X147536768Y-74477531D01*
X147501127Y-74448046D01*
X147492348Y-74440057D01*
X144686626Y-71634335D01*
X144677524Y-71624192D01*
X144657445Y-71599219D01*
X144653586Y-71594419D01*
X144614809Y-71561881D01*
X144611182Y-71558717D01*
X144609313Y-71557022D01*
X144607119Y-71554828D01*
X144573553Y-71527256D01*
X144572756Y-71526594D01*
X144500878Y-71466282D01*
X144496172Y-71463695D01*
X144492022Y-71460286D01*
X144486598Y-71457378D01*
X144486588Y-71457371D01*
X144409443Y-71416007D01*
X144408283Y-71415378D01*
X144334439Y-71374782D01*
X144326190Y-71370247D01*
X144321070Y-71368623D01*
X144316337Y-71366085D01*
X144226818Y-71338716D01*
X144225559Y-71338324D01*
X144142050Y-71311833D01*
X144142046Y-71311832D01*
X144136176Y-71309970D01*
X144130838Y-71309371D01*
X144125702Y-71307801D01*
X144119571Y-71307178D01*
X144119570Y-71307178D01*
X144098924Y-71305081D01*
X144032380Y-71298322D01*
X144031260Y-71298202D01*
X143981027Y-71292568D01*
X143977522Y-71292568D01*
X143976414Y-71292506D01*
X143970719Y-71292058D01*
X143933506Y-71288278D01*
X143933499Y-71288278D01*
X143927376Y-71287656D01*
X143883209Y-71291831D01*
X143881326Y-71292009D01*
X143869468Y-71292568D01*
X132971965Y-71292568D01*
X132958357Y-71291831D01*
X132920387Y-71287706D01*
X132914249Y-71288243D01*
X132914247Y-71288243D01*
X132898164Y-71289650D01*
X132870014Y-71292113D01*
X132865199Y-71292442D01*
X132862623Y-71292568D01*
X132859535Y-71292568D01*
X132840623Y-71294422D01*
X132816357Y-71296801D01*
X132815046Y-71296922D01*
X132727937Y-71304544D01*
X132721800Y-71305081D01*
X132716645Y-71306579D01*
X132711298Y-71307103D01*
X132621463Y-71334226D01*
X132620307Y-71334568D01*
X132536288Y-71358977D01*
X132536282Y-71358979D01*
X132530370Y-71360697D01*
X132525606Y-71363166D01*
X132520460Y-71364720D01*
X132437636Y-71408758D01*
X132436594Y-71409305D01*
X132392193Y-71432320D01*
X132353387Y-71452435D01*
X132349189Y-71455786D01*
X132344448Y-71458307D01*
X132339671Y-71462203D01*
X132271925Y-71517455D01*
X132270900Y-71518283D01*
X132231375Y-71549836D01*
X132228879Y-71552332D01*
X132228075Y-71553051D01*
X132223720Y-71556771D01*
X132194741Y-71580405D01*
X132194738Y-71580408D01*
X132189966Y-71584300D01*
X132186038Y-71589048D01*
X132186037Y-71589049D01*
X132160486Y-71619935D01*
X132152497Y-71628714D01*
X128481458Y-75299754D01*
X128471999Y-75308302D01*
X128444049Y-75331097D01*
X128444046Y-75331100D01*
X128439274Y-75334992D01*
X128435346Y-75339740D01*
X128435345Y-75339741D01*
X128409789Y-75370633D01*
X128401800Y-75379412D01*
X126134485Y-77646727D01*
X126072173Y-77680753D01*
X126056373Y-77683152D01*
X126039728Y-77684608D01*
X126009913Y-77687217D01*
X125872252Y-77724103D01*
X125794067Y-77745053D01*
X125794065Y-77745054D01*
X125788757Y-77746476D01*
X125783776Y-77748799D01*
X125783775Y-77748799D01*
X125586238Y-77840911D01*
X125586233Y-77840914D01*
X125581251Y-77843237D01*
X125476389Y-77916662D01*
X125398211Y-77971403D01*
X125398208Y-77971405D01*
X125393700Y-77974562D01*
X125231802Y-78136460D01*
X125100477Y-78324011D01*
X125098154Y-78328993D01*
X125098151Y-78328998D01*
X125070022Y-78389322D01*
X125003716Y-78531517D01*
X124979671Y-78621255D01*
X124976558Y-78632871D01*
X124939606Y-78693494D01*
X124875746Y-78724515D01*
X124854851Y-78726260D01*
X121961064Y-78726260D01*
X121888793Y-78703473D01*
X121874542Y-78693494D01*
X121795677Y-78638272D01*
X121790695Y-78635949D01*
X121790690Y-78635946D01*
X121599178Y-78546643D01*
X121599177Y-78546642D01*
X121594196Y-78544320D01*
X121588888Y-78542898D01*
X121588886Y-78542897D01*
X121510998Y-78522027D01*
X121379463Y-78486782D01*
X121158000Y-78467407D01*
X120936537Y-78486782D01*
X120805002Y-78522027D01*
X120727114Y-78542897D01*
X120727112Y-78542898D01*
X120721804Y-78544320D01*
X120716823Y-78546642D01*
X120716822Y-78546643D01*
X120525311Y-78635946D01*
X120525306Y-78635949D01*
X120520324Y-78638272D01*
X120515817Y-78641428D01*
X120515815Y-78641429D01*
X120342730Y-78762624D01*
X120342727Y-78762626D01*
X120338219Y-78765783D01*
X120181023Y-78922979D01*
X120177866Y-78927487D01*
X120177864Y-78927490D01*
X120059683Y-79096271D01*
X120053512Y-79105084D01*
X120051189Y-79110066D01*
X120051186Y-79110071D01*
X119961883Y-79301582D01*
X119959560Y-79306564D01*
X119902022Y-79521297D01*
X119882647Y-79742760D01*
X119902022Y-79964223D01*
X119920933Y-80034799D01*
X119956748Y-80168460D01*
X119959560Y-80178956D01*
X119961882Y-80183937D01*
X119961883Y-80183938D01*
X120051186Y-80375449D01*
X120051189Y-80375454D01*
X120053512Y-80380436D01*
X120056669Y-80384944D01*
X120056672Y-80384950D01*
X120118713Y-80473554D01*
X120141500Y-80545824D01*
X120141500Y-82175445D01*
X120118713Y-82247716D01*
X120020477Y-82388011D01*
X120018154Y-82392993D01*
X120018151Y-82392998D01*
X119952503Y-82533782D01*
X119923716Y-82595517D01*
X119922294Y-82600825D01*
X119922293Y-82600827D01*
X119866392Y-82809452D01*
X119864457Y-82816673D01*
X119844502Y-83044760D01*
X119864457Y-83272847D01*
X119865881Y-83278162D01*
X119865882Y-83278167D01*
X119866362Y-83279958D01*
X119866343Y-83280778D01*
X119866836Y-83283577D01*
X119866274Y-83283676D01*
X119864675Y-83350935D01*
X119824883Y-83409732D01*
X119759620Y-83437682D01*
X119689606Y-83425912D01*
X119655562Y-83401669D01*
X117485155Y-81231262D01*
X117451129Y-81168950D01*
X117456194Y-81098135D01*
X117498741Y-81041299D01*
X117565261Y-81016488D01*
X117585231Y-81016646D01*
X117596525Y-81017634D01*
X117602000Y-81018113D01*
X117823463Y-80998738D01*
X117998185Y-80951921D01*
X118032886Y-80942623D01*
X118032888Y-80942622D01*
X118038196Y-80941200D01*
X118106724Y-80909245D01*
X118234690Y-80849574D01*
X118234695Y-80849571D01*
X118239677Y-80847248D01*
X118365158Y-80759385D01*
X118417270Y-80722896D01*
X118417273Y-80722894D01*
X118421781Y-80719737D01*
X118578977Y-80562541D01*
X118585837Y-80552745D01*
X118703331Y-80384945D01*
X118703332Y-80384943D01*
X118706488Y-80380436D01*
X118708811Y-80375454D01*
X118708814Y-80375449D01*
X118798117Y-80183938D01*
X118798118Y-80183937D01*
X118800440Y-80178956D01*
X118803253Y-80168460D01*
X118839067Y-80034799D01*
X118857978Y-79964223D01*
X118877353Y-79742760D01*
X118857978Y-79521297D01*
X118800440Y-79306564D01*
X118798117Y-79301582D01*
X118708814Y-79110071D01*
X118708811Y-79110066D01*
X118706488Y-79105084D01*
X118700317Y-79096271D01*
X118582136Y-78927490D01*
X118582134Y-78927487D01*
X118578977Y-78922979D01*
X118421781Y-78765783D01*
X118417276Y-78762628D01*
X118416857Y-78762277D01*
X118377532Y-78703166D01*
X118376408Y-78632178D01*
X118413841Y-78571852D01*
X118458914Y-78545925D01*
X118486902Y-78536831D01*
X118527266Y-78523716D01*
X118530852Y-78522029D01*
X118530856Y-78522027D01*
X118809283Y-78391010D01*
X118809290Y-78391006D01*
X118812869Y-78389322D01*
X119079375Y-78220192D01*
X119322582Y-78018993D01*
X119538654Y-77788900D01*
X119724184Y-77533539D01*
X119876247Y-77256939D01*
X119992443Y-76963462D01*
X120070940Y-76657735D01*
X120110500Y-76344581D01*
X120110500Y-76028939D01*
X120070940Y-75715785D01*
X119992443Y-75410058D01*
X119980309Y-75379412D01*
X119877702Y-75120255D01*
X119877700Y-75120250D01*
X119876247Y-75116581D01*
X119869669Y-75104616D01*
X119726093Y-74843453D01*
X119726091Y-74843450D01*
X119724184Y-74839981D01*
X119538654Y-74584620D01*
X119322582Y-74354527D01*
X119079375Y-74153328D01*
X118812869Y-73984198D01*
X118809290Y-73982514D01*
X118809283Y-73982510D01*
X118530856Y-73851493D01*
X118530852Y-73851491D01*
X118527266Y-73849804D01*
X118463854Y-73829200D01*
X118230848Y-73753492D01*
X118230850Y-73753492D01*
X118227072Y-73752265D01*
X117954139Y-73700200D01*
X117890973Y-73667788D01*
X117855357Y-73606371D01*
X117858601Y-73535448D01*
X117899673Y-73477538D01*
X117938812Y-73456599D01*
X117965785Y-73447835D01*
X118127715Y-73354345D01*
X118218119Y-73272945D01*
X118261766Y-73233645D01*
X118261767Y-73233643D01*
X118266669Y-73229230D01*
X118376573Y-73077960D01*
X118381473Y-73066956D01*
X118449940Y-72913176D01*
X118449940Y-72913174D01*
X118452625Y-72907145D01*
X118491500Y-72724250D01*
X118491500Y-72630760D01*
X119882647Y-72630760D01*
X119902022Y-72852223D01*
X119959560Y-73066956D01*
X119961882Y-73071937D01*
X119961883Y-73071938D01*
X120051186Y-73263449D01*
X120051189Y-73263454D01*
X120053512Y-73268436D01*
X120056668Y-73272943D01*
X120056669Y-73272945D01*
X120176815Y-73444531D01*
X120181023Y-73450541D01*
X120338219Y-73607737D01*
X120342727Y-73610894D01*
X120342730Y-73610896D01*
X120383621Y-73639528D01*
X120520323Y-73735248D01*
X120525305Y-73737571D01*
X120525310Y-73737574D01*
X120665547Y-73802967D01*
X120721804Y-73829200D01*
X120727112Y-73830622D01*
X120727114Y-73830623D01*
X120792949Y-73848263D01*
X120936537Y-73886738D01*
X121158000Y-73906113D01*
X121379463Y-73886738D01*
X121523051Y-73848263D01*
X121588886Y-73830623D01*
X121588888Y-73830622D01*
X121594196Y-73829200D01*
X121650453Y-73802967D01*
X121790690Y-73737574D01*
X121790695Y-73737571D01*
X121795677Y-73735248D01*
X121932379Y-73639528D01*
X121973270Y-73610896D01*
X121973273Y-73610894D01*
X121977781Y-73607737D01*
X122134977Y-73450541D01*
X122139186Y-73444531D01*
X122259331Y-73272945D01*
X122259332Y-73272943D01*
X122262488Y-73268436D01*
X122264811Y-73263454D01*
X122264814Y-73263449D01*
X122354117Y-73071938D01*
X122354118Y-73071937D01*
X122356440Y-73066956D01*
X122413978Y-72852223D01*
X122433353Y-72630760D01*
X122413978Y-72409297D01*
X122356440Y-72194564D01*
X122283260Y-72037629D01*
X122264814Y-71998071D01*
X122264811Y-71998066D01*
X122262488Y-71993084D01*
X122259331Y-71988575D01*
X122138136Y-71815490D01*
X122138134Y-71815487D01*
X122134977Y-71810979D01*
X121977781Y-71653783D01*
X121973273Y-71650626D01*
X121973270Y-71650624D01*
X121887348Y-71590461D01*
X121795677Y-71526272D01*
X121790695Y-71523949D01*
X121790690Y-71523946D01*
X121599178Y-71434643D01*
X121599177Y-71434642D01*
X121594196Y-71432320D01*
X121588888Y-71430898D01*
X121588886Y-71430897D01*
X121523051Y-71413257D01*
X121379463Y-71374782D01*
X121158000Y-71355407D01*
X120936537Y-71374782D01*
X120792949Y-71413257D01*
X120727114Y-71430897D01*
X120727112Y-71430898D01*
X120721804Y-71432320D01*
X120716823Y-71434642D01*
X120716822Y-71434643D01*
X120525311Y-71523946D01*
X120525306Y-71523949D01*
X120520324Y-71526272D01*
X120515817Y-71529428D01*
X120515815Y-71529429D01*
X120342730Y-71650624D01*
X120342727Y-71650626D01*
X120338219Y-71653783D01*
X120181023Y-71810979D01*
X120177866Y-71815487D01*
X120177864Y-71815490D01*
X120056669Y-71988575D01*
X120053512Y-71993084D01*
X120051189Y-71998066D01*
X120051186Y-71998071D01*
X120032740Y-72037629D01*
X119959560Y-72194564D01*
X119902022Y-72409297D01*
X119882647Y-72630760D01*
X118491500Y-72630760D01*
X118491500Y-72537270D01*
X118452625Y-72354375D01*
X118449940Y-72348344D01*
X118379258Y-72189590D01*
X118379257Y-72189588D01*
X118376573Y-72183560D01*
X118266669Y-72032290D01*
X118223127Y-71993084D01*
X118132623Y-71911594D01*
X118132622Y-71911593D01*
X118127715Y-71907175D01*
X117965785Y-71813685D01*
X117891722Y-71789621D01*
X117794235Y-71757945D01*
X117794234Y-71757945D01*
X117787956Y-71755905D01*
X117781393Y-71755215D01*
X117781392Y-71755215D01*
X117758803Y-71752841D01*
X117648620Y-71741260D01*
X117555380Y-71741260D01*
X117445197Y-71752841D01*
X117422608Y-71755215D01*
X117422607Y-71755215D01*
X117416044Y-71755905D01*
X117409766Y-71757945D01*
X117409765Y-71757945D01*
X117312278Y-71789621D01*
X117238215Y-71813685D01*
X117076285Y-71907175D01*
X117071378Y-71911593D01*
X117071377Y-71911594D01*
X116980874Y-71993084D01*
X116937331Y-72032290D01*
X116827427Y-72183560D01*
X116824743Y-72189588D01*
X116824742Y-72189590D01*
X116754060Y-72348344D01*
X116751375Y-72354375D01*
X116712500Y-72537270D01*
X116712500Y-72724250D01*
X116751375Y-72907145D01*
X116754060Y-72913174D01*
X116754060Y-72913176D01*
X116822528Y-73066956D01*
X116827427Y-73077960D01*
X116937331Y-73229230D01*
X116942233Y-73233643D01*
X116942234Y-73233645D01*
X116985881Y-73272945D01*
X117076285Y-73354345D01*
X117238215Y-73447835D01*
X117265188Y-73456599D01*
X117323794Y-73496673D01*
X117351430Y-73562070D01*
X117339323Y-73632027D01*
X117291316Y-73684333D01*
X117249862Y-73700200D01*
X116976928Y-73752265D01*
X116973150Y-73753492D01*
X116973152Y-73753492D01*
X116740147Y-73829200D01*
X116676734Y-73849804D01*
X116673148Y-73851491D01*
X116673144Y-73851493D01*
X116394717Y-73982510D01*
X116394710Y-73982514D01*
X116391131Y-73984198D01*
X116124625Y-74153328D01*
X115881418Y-74354527D01*
X115665346Y-74584620D01*
X115479816Y-74839981D01*
X115477909Y-74843450D01*
X115477907Y-74843453D01*
X115334331Y-75104616D01*
X115327753Y-75116581D01*
X115326300Y-75120250D01*
X115326298Y-75120255D01*
X115223691Y-75379412D01*
X115211557Y-75410058D01*
X115133060Y-75715785D01*
X115093500Y-76028939D01*
X115093500Y-76344581D01*
X115133060Y-76657735D01*
X115211557Y-76963462D01*
X115327753Y-77256939D01*
X115479816Y-77533539D01*
X115665346Y-77788900D01*
X115881418Y-78018993D01*
X116124625Y-78220192D01*
X116391131Y-78389322D01*
X116394710Y-78391006D01*
X116394717Y-78391010D01*
X116673144Y-78522027D01*
X116673148Y-78522029D01*
X116676734Y-78523716D01*
X116717098Y-78536831D01*
X116745086Y-78545925D01*
X116803691Y-78585999D01*
X116831328Y-78651396D01*
X116819221Y-78721352D01*
X116787143Y-78762277D01*
X116786724Y-78762628D01*
X116782219Y-78765783D01*
X116625023Y-78922979D01*
X116621866Y-78927487D01*
X116621864Y-78927490D01*
X116503683Y-79096271D01*
X116497512Y-79105084D01*
X116495189Y-79110066D01*
X116495186Y-79110071D01*
X116405883Y-79301582D01*
X116403560Y-79306564D01*
X116346022Y-79521297D01*
X116326647Y-79742760D01*
X116327126Y-79748235D01*
X116328114Y-79759529D01*
X116314124Y-79829134D01*
X116264725Y-79880126D01*
X116195599Y-79896316D01*
X116128693Y-79872563D01*
X116113498Y-79859605D01*
X115548614Y-79294721D01*
X115542760Y-79288455D01*
X115542349Y-79287984D01*
X115507476Y-79248008D01*
X115458898Y-79213867D01*
X115453604Y-79209935D01*
X115453352Y-79209737D01*
X115406879Y-79173297D01*
X115399955Y-79170171D01*
X115393824Y-79166458D01*
X115389204Y-79163822D01*
X115382822Y-79160400D01*
X115376603Y-79156029D01*
X115321286Y-79134461D01*
X115315207Y-79131906D01*
X115281537Y-79116704D01*
X115261088Y-79107471D01*
X115253612Y-79106085D01*
X115246734Y-79103930D01*
X115241609Y-79102470D01*
X115234645Y-79100682D01*
X115227566Y-79097922D01*
X115220034Y-79096930D01*
X115220032Y-79096930D01*
X115192106Y-79093254D01*
X115127178Y-79064533D01*
X115105337Y-79040602D01*
X115026136Y-78927491D01*
X115022977Y-78922979D01*
X114865781Y-78765783D01*
X114861273Y-78762626D01*
X114861270Y-78762624D01*
X114762542Y-78693494D01*
X114683677Y-78638272D01*
X114678695Y-78635949D01*
X114678690Y-78635946D01*
X114487178Y-78546643D01*
X114487177Y-78546642D01*
X114482196Y-78544320D01*
X114476888Y-78542898D01*
X114476886Y-78542897D01*
X114398998Y-78522027D01*
X114267463Y-78486782D01*
X114046000Y-78467407D01*
X113824537Y-78486782D01*
X113693002Y-78522027D01*
X113615114Y-78542897D01*
X113615112Y-78542898D01*
X113609804Y-78544320D01*
X113604823Y-78546642D01*
X113604822Y-78546643D01*
X113413311Y-78635946D01*
X113413306Y-78635949D01*
X113408324Y-78638272D01*
X113403817Y-78641428D01*
X113403815Y-78641429D01*
X113230730Y-78762624D01*
X113230727Y-78762626D01*
X113226219Y-78765783D01*
X113069023Y-78922979D01*
X113065866Y-78927487D01*
X113065864Y-78927490D01*
X112947683Y-79096271D01*
X112941512Y-79105084D01*
X112939189Y-79110066D01*
X112939186Y-79110071D01*
X112849883Y-79301582D01*
X112847560Y-79306564D01*
X112790022Y-79521297D01*
X112770647Y-79742760D01*
X112790022Y-79964223D01*
X112808933Y-80034799D01*
X112844748Y-80168460D01*
X112847560Y-80178956D01*
X112849882Y-80183937D01*
X112849883Y-80183938D01*
X112939186Y-80375449D01*
X112939189Y-80375454D01*
X112941512Y-80380436D01*
X112944668Y-80384943D01*
X112944669Y-80384945D01*
X113062164Y-80552745D01*
X113069023Y-80562541D01*
X113226219Y-80719737D01*
X113230727Y-80722894D01*
X113230730Y-80722896D01*
X113282842Y-80759385D01*
X113408323Y-80847248D01*
X113413305Y-80849571D01*
X113413310Y-80849574D01*
X113541276Y-80909245D01*
X113609804Y-80941200D01*
X113615112Y-80942622D01*
X113615114Y-80942623D01*
X113649815Y-80951921D01*
X113824537Y-80998738D01*
X114046000Y-81018113D01*
X114267463Y-80998738D01*
X114442185Y-80951921D01*
X114476886Y-80942623D01*
X114476888Y-80942622D01*
X114482196Y-80941200D01*
X114550724Y-80909245D01*
X114678690Y-80849574D01*
X114678695Y-80849571D01*
X114683677Y-80847248D01*
X114809158Y-80759385D01*
X114861270Y-80722896D01*
X114861273Y-80722894D01*
X114865781Y-80719737D01*
X114895957Y-80689561D01*
X114958269Y-80655535D01*
X115029084Y-80660600D01*
X115074147Y-80689561D01*
X120417393Y-86032807D01*
X120423246Y-86039072D01*
X120458524Y-86079512D01*
X120507093Y-86113647D01*
X120512386Y-86117578D01*
X120559122Y-86154223D01*
X120566050Y-86157351D01*
X120572206Y-86161079D01*
X120576825Y-86163714D01*
X120583181Y-86167122D01*
X120589397Y-86171491D01*
X120596476Y-86174251D01*
X120644698Y-86193052D01*
X120650779Y-86195608D01*
X120704912Y-86220050D01*
X120712375Y-86221433D01*
X120719193Y-86223570D01*
X120724378Y-86225047D01*
X120731355Y-86226838D01*
X120738434Y-86229598D01*
X120745967Y-86230590D01*
X120745968Y-86230590D01*
X120769152Y-86233642D01*
X120797308Y-86237349D01*
X120803805Y-86238378D01*
X120862198Y-86249200D01*
X120869779Y-86248763D01*
X120869780Y-86248763D01*
X120919968Y-86245869D01*
X120927221Y-86245660D01*
X126835500Y-86245660D01*
X126903621Y-86265662D01*
X126950114Y-86319318D01*
X126961500Y-86371660D01*
X126961500Y-86432894D01*
X126968255Y-86495076D01*
X127019385Y-86631465D01*
X127106739Y-86748021D01*
X127223295Y-86835375D01*
X127359684Y-86886505D01*
X127421866Y-86893260D01*
X128753100Y-86893260D01*
X128821221Y-86913262D01*
X128867714Y-86966918D01*
X128879100Y-87019260D01*
X128879100Y-94148816D01*
X128859098Y-94216937D01*
X128842195Y-94237911D01*
X128652687Y-94427419D01*
X128590375Y-94461445D01*
X128530980Y-94460030D01*
X128503409Y-94452642D01*
X128503398Y-94452640D01*
X128498087Y-94451217D01*
X128270000Y-94431262D01*
X128041913Y-94451217D01*
X128036600Y-94452641D01*
X128036598Y-94452641D01*
X127826067Y-94509053D01*
X127826065Y-94509054D01*
X127820757Y-94510476D01*
X127815776Y-94512799D01*
X127815775Y-94512799D01*
X127618238Y-94604911D01*
X127618233Y-94604914D01*
X127613251Y-94607237D01*
X127520563Y-94672138D01*
X127430211Y-94735403D01*
X127430208Y-94735405D01*
X127425700Y-94738562D01*
X127263802Y-94900460D01*
X127260645Y-94904968D01*
X127260643Y-94904971D01*
X127173005Y-95030131D01*
X127117548Y-95074459D01*
X127069792Y-95083860D01*
X126196216Y-95083860D01*
X126128095Y-95063858D01*
X126093003Y-95030131D01*
X126066108Y-94991720D01*
X126011160Y-94913247D01*
X125977357Y-94864971D01*
X125977355Y-94864968D01*
X125974198Y-94860460D01*
X125812300Y-94698562D01*
X125807792Y-94695405D01*
X125807789Y-94695403D01*
X125686383Y-94610394D01*
X125624749Y-94567237D01*
X125619767Y-94564914D01*
X125619762Y-94564911D01*
X125422225Y-94472799D01*
X125422224Y-94472799D01*
X125417243Y-94470476D01*
X125411935Y-94469054D01*
X125411933Y-94469053D01*
X125201402Y-94412641D01*
X125201400Y-94412641D01*
X125196087Y-94411217D01*
X124968000Y-94391262D01*
X124739913Y-94411217D01*
X124734600Y-94412641D01*
X124734598Y-94412641D01*
X124524067Y-94469053D01*
X124524065Y-94469054D01*
X124518757Y-94470476D01*
X124513776Y-94472799D01*
X124513775Y-94472799D01*
X124316238Y-94564911D01*
X124316233Y-94564914D01*
X124311251Y-94567237D01*
X124249617Y-94610394D01*
X124128211Y-94695403D01*
X124128208Y-94695405D01*
X124123700Y-94698562D01*
X123961802Y-94860460D01*
X123958645Y-94864968D01*
X123958643Y-94864971D01*
X123871005Y-94990131D01*
X123815548Y-95034459D01*
X123767792Y-95043860D01*
X123221944Y-95043860D01*
X123153823Y-95023858D01*
X123132849Y-95006955D01*
X119612614Y-91486721D01*
X119606760Y-91480455D01*
X119571476Y-91440008D01*
X119522898Y-91405867D01*
X119517604Y-91401935D01*
X119485719Y-91376933D01*
X119470879Y-91365297D01*
X119463955Y-91362171D01*
X119457824Y-91358458D01*
X119453204Y-91355822D01*
X119446822Y-91352400D01*
X119440603Y-91348029D01*
X119385286Y-91326461D01*
X119379207Y-91323906D01*
X119325088Y-91299471D01*
X119317612Y-91298085D01*
X119310734Y-91295930D01*
X119305609Y-91294470D01*
X119298645Y-91292682D01*
X119291566Y-91289922D01*
X119284034Y-91288930D01*
X119284032Y-91288930D01*
X119258804Y-91285609D01*
X119232700Y-91282173D01*
X119226202Y-91281144D01*
X119167803Y-91270320D01*
X119160223Y-91270757D01*
X119160222Y-91270757D01*
X119110033Y-91273651D01*
X119102780Y-91273860D01*
X117083079Y-91273860D01*
X117014958Y-91253858D01*
X116977287Y-91216300D01*
X116906822Y-91107377D01*
X116906820Y-91107374D01*
X116904014Y-91103037D01*
X116753670Y-90937811D01*
X116749619Y-90934612D01*
X116749615Y-90934608D01*
X116582414Y-90802560D01*
X116582410Y-90802558D01*
X116578359Y-90799358D01*
X116382789Y-90691398D01*
X116377920Y-90689674D01*
X116377916Y-90689672D01*
X116177087Y-90618555D01*
X116177083Y-90618554D01*
X116172212Y-90616829D01*
X116167119Y-90615922D01*
X116167116Y-90615921D01*
X115957373Y-90578560D01*
X115957367Y-90578559D01*
X115952284Y-90577654D01*
X115878452Y-90576752D01*
X115734081Y-90574988D01*
X115734079Y-90574988D01*
X115728911Y-90574925D01*
X115508091Y-90608715D01*
X115507806Y-90606853D01*
X115445055Y-90603589D01*
X115397689Y-90573795D01*
X114211430Y-89387536D01*
X113022815Y-88198922D01*
X112988790Y-88136610D01*
X112993434Y-88067825D01*
X112994284Y-88066003D01*
X113053543Y-87844847D01*
X113073498Y-87616760D01*
X113053543Y-87388673D01*
X113052119Y-87383358D01*
X112995707Y-87172827D01*
X112995706Y-87172825D01*
X112994284Y-87167517D01*
X112976940Y-87130322D01*
X112899849Y-86964998D01*
X112899846Y-86964993D01*
X112897523Y-86960011D01*
X112806480Y-86829989D01*
X112769357Y-86776971D01*
X112769355Y-86776968D01*
X112766198Y-86772460D01*
X112604300Y-86610562D01*
X112599792Y-86607405D01*
X112599789Y-86607403D01*
X112521315Y-86552455D01*
X112416749Y-86479237D01*
X112411767Y-86476914D01*
X112411762Y-86476911D01*
X112214225Y-86384799D01*
X112214224Y-86384799D01*
X112209243Y-86382476D01*
X112203935Y-86381054D01*
X112203933Y-86381053D01*
X111993402Y-86324641D01*
X111993400Y-86324641D01*
X111988087Y-86323217D01*
X111760000Y-86303262D01*
X111531913Y-86323217D01*
X111526600Y-86324641D01*
X111526598Y-86324641D01*
X111316067Y-86381053D01*
X111316065Y-86381054D01*
X111310757Y-86382476D01*
X111305776Y-86384799D01*
X111305775Y-86384799D01*
X111108238Y-86476911D01*
X111108233Y-86476914D01*
X111103251Y-86479237D01*
X110998685Y-86552455D01*
X110920211Y-86607403D01*
X110920208Y-86607405D01*
X110915700Y-86610562D01*
X110753802Y-86772460D01*
X110750645Y-86776968D01*
X110750643Y-86776971D01*
X110713520Y-86829989D01*
X110622477Y-86960011D01*
X110620154Y-86964993D01*
X110620151Y-86964998D01*
X110543060Y-87130322D01*
X110525716Y-87167517D01*
X110524294Y-87172825D01*
X110524293Y-87172827D01*
X110467881Y-87383358D01*
X110466457Y-87388673D01*
X110446502Y-87616760D01*
X110466457Y-87844847D01*
X110467881Y-87850160D01*
X110467881Y-87850162D01*
X110524293Y-88060691D01*
X110525716Y-88066003D01*
X110528039Y-88070984D01*
X110528039Y-88070985D01*
X110620151Y-88268522D01*
X110620154Y-88268527D01*
X110622477Y-88273509D01*
X110753802Y-88461060D01*
X110915700Y-88622958D01*
X110920208Y-88626115D01*
X110920211Y-88626117D01*
X110998389Y-88680858D01*
X111103251Y-88754283D01*
X111108233Y-88756606D01*
X111108238Y-88756609D01*
X111305775Y-88848721D01*
X111310757Y-88851044D01*
X111316065Y-88852466D01*
X111316067Y-88852467D01*
X111526598Y-88908879D01*
X111526600Y-88908879D01*
X111531913Y-88910303D01*
X111760000Y-88930258D01*
X111765475Y-88929779D01*
X111816270Y-88925335D01*
X111885875Y-88939324D01*
X111916347Y-88961761D01*
X113191849Y-90237262D01*
X114465365Y-91510778D01*
X114499390Y-91573090D01*
X114497687Y-91633543D01*
X114484989Y-91679330D01*
X114484441Y-91684460D01*
X114484440Y-91684464D01*
X114477743Y-91747135D01*
X114461251Y-91901455D01*
X114461548Y-91906608D01*
X114461548Y-91906611D01*
X114470715Y-92065590D01*
X114474110Y-92124475D01*
X114475247Y-92129521D01*
X114475248Y-92129527D01*
X114481080Y-92155403D01*
X114523222Y-92342399D01*
X114582423Y-92488195D01*
X114596519Y-92522908D01*
X114607266Y-92549376D01*
X114644355Y-92609900D01*
X114718411Y-92730748D01*
X114723987Y-92739848D01*
X114870250Y-92908698D01*
X115042126Y-93051392D01*
X115070869Y-93068188D01*
X115115445Y-93094236D01*
X115164169Y-93145874D01*
X115177240Y-93215657D01*
X115150509Y-93281429D01*
X115110055Y-93314787D01*
X115097607Y-93321267D01*
X115093474Y-93324370D01*
X115093471Y-93324372D01*
X115069247Y-93342560D01*
X114918965Y-93455395D01*
X114764629Y-93616898D01*
X114761715Y-93621170D01*
X114761714Y-93621171D01*
X114739493Y-93653746D01*
X114638743Y-93801440D01*
X114622745Y-93835905D01*
X114583872Y-93919651D01*
X114544688Y-94004065D01*
X114543305Y-94009051D01*
X114543303Y-94009057D01*
X114538629Y-94025911D01*
X114501149Y-94086207D01*
X114437019Y-94116669D01*
X114366601Y-94107623D01*
X114328118Y-94081330D01*
X113030815Y-92784027D01*
X113021713Y-92773884D01*
X113001634Y-92748911D01*
X112997775Y-92744111D01*
X112958998Y-92711573D01*
X112955371Y-92708409D01*
X112953502Y-92706714D01*
X112951308Y-92704520D01*
X112917742Y-92676948D01*
X112916945Y-92676286D01*
X112845067Y-92615974D01*
X112840361Y-92613387D01*
X112836211Y-92609978D01*
X112830787Y-92607070D01*
X112830777Y-92607063D01*
X112753632Y-92565699D01*
X112752472Y-92565070D01*
X112731935Y-92553780D01*
X112670379Y-92519939D01*
X112665259Y-92518315D01*
X112660526Y-92515777D01*
X112571007Y-92488408D01*
X112569748Y-92488016D01*
X112486239Y-92461525D01*
X112486235Y-92461524D01*
X112480365Y-92459662D01*
X112475027Y-92459063D01*
X112469891Y-92457493D01*
X112463760Y-92456870D01*
X112463759Y-92456870D01*
X112443103Y-92454772D01*
X112376569Y-92448014D01*
X112375449Y-92447894D01*
X112325216Y-92442260D01*
X112321711Y-92442260D01*
X112320603Y-92442198D01*
X112314908Y-92441750D01*
X112277695Y-92437970D01*
X112277688Y-92437970D01*
X112271565Y-92437348D01*
X112227398Y-92441523D01*
X112225515Y-92441701D01*
X112213657Y-92442260D01*
X110806276Y-92442260D01*
X110792668Y-92441523D01*
X110760821Y-92438063D01*
X110760817Y-92438063D01*
X110754696Y-92437398D01*
X110717828Y-92440623D01*
X110704310Y-92441806D01*
X110699482Y-92442135D01*
X110696927Y-92442260D01*
X110693843Y-92442260D01*
X110678469Y-92443768D01*
X110650781Y-92446482D01*
X110649468Y-92446604D01*
X110609371Y-92450112D01*
X110556108Y-92454772D01*
X110550948Y-92456271D01*
X110545606Y-92456795D01*
X110455904Y-92483877D01*
X110454764Y-92484215D01*
X110364678Y-92510388D01*
X110359910Y-92512860D01*
X110354768Y-92514412D01*
X110349323Y-92517307D01*
X110349316Y-92517310D01*
X110272050Y-92558393D01*
X110270946Y-92558973D01*
X110187696Y-92602126D01*
X110183497Y-92605478D01*
X110178756Y-92607999D01*
X110173984Y-92611891D01*
X110106171Y-92667198D01*
X110105145Y-92668026D01*
X110085660Y-92683581D01*
X110065684Y-92699528D01*
X110063189Y-92702023D01*
X110062395Y-92702733D01*
X110058040Y-92706453D01*
X110029049Y-92730097D01*
X110029046Y-92730100D01*
X110024274Y-92733992D01*
X110020346Y-92738740D01*
X110020345Y-92738741D01*
X109994789Y-92769633D01*
X109986800Y-92778412D01*
X109307267Y-93457945D01*
X109297125Y-93467046D01*
X109267351Y-93490985D01*
X109234813Y-93529762D01*
X109231649Y-93533389D01*
X109229954Y-93535258D01*
X109227760Y-93537452D01*
X109200188Y-93571018D01*
X109199526Y-93571815D01*
X109139214Y-93643693D01*
X109136627Y-93648399D01*
X109133218Y-93652549D01*
X109130310Y-93657973D01*
X109130303Y-93657983D01*
X109088939Y-93735128D01*
X109088310Y-93736288D01*
X109043179Y-93818381D01*
X109041555Y-93823501D01*
X109039017Y-93828234D01*
X109022555Y-93882080D01*
X109011648Y-93917753D01*
X109011256Y-93919012D01*
X108984765Y-94002521D01*
X108982902Y-94008395D01*
X108982303Y-94013733D01*
X108980733Y-94018869D01*
X108972354Y-94101363D01*
X108971263Y-94112103D01*
X108971134Y-94113311D01*
X108965500Y-94163544D01*
X108965500Y-94167049D01*
X108965438Y-94168157D01*
X108964990Y-94173852D01*
X108961210Y-94211065D01*
X108961210Y-94211072D01*
X108960588Y-94217195D01*
X105664500Y-94217195D01*
X105664500Y-72630760D01*
X112770647Y-72630760D01*
X112790022Y-72852223D01*
X112847560Y-73066956D01*
X112849882Y-73071937D01*
X112849883Y-73071938D01*
X112939186Y-73263449D01*
X112939189Y-73263454D01*
X112941512Y-73268436D01*
X112944668Y-73272943D01*
X112944669Y-73272945D01*
X113064815Y-73444531D01*
X113069023Y-73450541D01*
X113226219Y-73607737D01*
X113230727Y-73610894D01*
X113230730Y-73610896D01*
X113271621Y-73639528D01*
X113408323Y-73735248D01*
X113413305Y-73737571D01*
X113413310Y-73737574D01*
X113553547Y-73802967D01*
X113609804Y-73829200D01*
X113615112Y-73830622D01*
X113615114Y-73830623D01*
X113680949Y-73848263D01*
X113824537Y-73886738D01*
X114046000Y-73906113D01*
X114267463Y-73886738D01*
X114411051Y-73848263D01*
X114476886Y-73830623D01*
X114476888Y-73830622D01*
X114482196Y-73829200D01*
X114538453Y-73802967D01*
X114678690Y-73737574D01*
X114678695Y-73737571D01*
X114683677Y-73735248D01*
X114820379Y-73639528D01*
X114861270Y-73610896D01*
X114861273Y-73610894D01*
X114865781Y-73607737D01*
X115022977Y-73450541D01*
X115027186Y-73444531D01*
X115147331Y-73272945D01*
X115147332Y-73272943D01*
X115150488Y-73268436D01*
X115152811Y-73263454D01*
X115152814Y-73263449D01*
X115242117Y-73071938D01*
X115242118Y-73071937D01*
X115244440Y-73066956D01*
X115301978Y-72852223D01*
X115321353Y-72630760D01*
X115301978Y-72409297D01*
X115244440Y-72194564D01*
X115171260Y-72037629D01*
X115152814Y-71998071D01*
X115152811Y-71998066D01*
X115150488Y-71993084D01*
X115147331Y-71988575D01*
X115026136Y-71815490D01*
X115026134Y-71815487D01*
X115022977Y-71810979D01*
X114865781Y-71653783D01*
X114861273Y-71650626D01*
X114861270Y-71650624D01*
X114775348Y-71590461D01*
X114683677Y-71526272D01*
X114678695Y-71523949D01*
X114678690Y-71523946D01*
X114487178Y-71434643D01*
X114487177Y-71434642D01*
X114482196Y-71432320D01*
X114476888Y-71430898D01*
X114476886Y-71430897D01*
X114411051Y-71413257D01*
X114267463Y-71374782D01*
X114046000Y-71355407D01*
X113824537Y-71374782D01*
X113680949Y-71413257D01*
X113615114Y-71430897D01*
X113615112Y-71430898D01*
X113609804Y-71432320D01*
X113604823Y-71434642D01*
X113604822Y-71434643D01*
X113413311Y-71523946D01*
X113413306Y-71523949D01*
X113408324Y-71526272D01*
X113403817Y-71529428D01*
X113403815Y-71529429D01*
X113230730Y-71650624D01*
X113230727Y-71650626D01*
X113226219Y-71653783D01*
X113069023Y-71810979D01*
X113065866Y-71815487D01*
X113065864Y-71815490D01*
X112944669Y-71988575D01*
X112941512Y-71993084D01*
X112939189Y-71998066D01*
X112939186Y-71998071D01*
X112920740Y-72037629D01*
X112847560Y-72194564D01*
X112790022Y-72409297D01*
X112770647Y-72630760D01*
X105664500Y-72630760D01*
X105664500Y-70861578D01*
X105684502Y-70793457D01*
X105701405Y-70772482D01*
X105837724Y-70636164D01*
X105900036Y-70602139D01*
X105926819Y-70599260D01*
X173473182Y-70599260D01*
X173541303Y-70619262D01*
G37*
%TD.AperFunction*%
M02*
