M48
; DRILL file {KiCad 6.0.11-2627ca5db0~126~ubuntu22.04.1} date Mon 20 Mar 2023 07:53:03 AM EDT
; FORMAT={-:-/ absolute / metric / decimal}
; #@! TF.CreationDate,2023-03-20T07:53:03-04:00
; #@! TF.GenerationSoftware,Kicad,Pcbnew,6.0.11-2627ca5db0~126~ubuntu22.04.1
; #@! TF.FileFunction,MixedPlating,1,2
FMAT,2
METRIC
; #@! TA.AperFunction,Plated,PTH,ComponentDrill
T1C0.800
; #@! TA.AperFunction,Plated,PTH,ViaDrill
T2C0.813
; #@! TA.AperFunction,Plated,PTH,ComponentDrill
T3C1.000
; #@! TA.AperFunction,Plated,PTH,ComponentDrill
T4C1.100
; #@! TA.AperFunction,Plated,PTH,ComponentDrill
T5C1.700
; #@! TA.AperFunction,Plated,PTH,ComponentDrill
T6C2.000
; #@! TA.AperFunction,Plated,PTH,ComponentDrill
T7C2.250
; #@! TA.AperFunction,Plated,PTH,ComponentDrill
T8C3.200
; #@! TA.AperFunction,Plated,PTH,ComponentDrill
T9C3.250
; #@! TA.AperFunction,Plated,PTH,ComponentDrill
T10C5.300
%
G90
G05
T1
X31.242Y-85.483
X31.242Y-93.103
X31.242Y-108.343
X31.242Y-115.963
X31.496Y-72.021
X31.496Y-82.181
X33.782Y-85.483
X33.782Y-93.103
X33.782Y-108.343
X33.782Y-115.963
X34.036Y-120.789
X35.052Y-72.021
X35.052Y-82.181
X36.068Y-173.915
X36.068Y-178.915
X36.322Y-85.483
X36.322Y-93.103
X36.322Y-108.343
X36.322Y-115.963
X36.576Y-120.789
X38.862Y-85.483
X38.862Y-93.103
X38.862Y-108.343
X38.862Y-115.963
X39.116Y-120.789
X39.116Y-166.549
X39.116Y-171.549
X39.116Y-176.201
X39.116Y-181.201
X40.386Y-63.903
X40.386Y-66.443
X40.386Y-68.983
X40.386Y-71.523
X40.386Y-74.063
X40.386Y-76.603
X40.386Y-79.143
X40.386Y-81.683
X41.402Y-85.483
X41.402Y-93.103
X41.402Y-108.343
X41.402Y-115.963
X41.656Y-120.789
X43.942Y-85.483
X43.942Y-93.103
X43.942Y-108.343
X43.942Y-115.963
X44.196Y-120.789
X46.482Y-85.483
X46.482Y-93.103
X46.482Y-108.343
X46.482Y-115.963
X46.482Y-155.373
X46.482Y-160.373
X46.736Y-120.789
X49.022Y-85.483
X49.022Y-93.103
X49.022Y-108.343
X49.022Y-115.963
X49.276Y-120.789
X51.562Y-85.483
X51.562Y-93.103
X51.562Y-108.343
X51.562Y-115.963
X51.816Y-120.789
X52.364Y-152.539
X53.848Y-158.127
X53.848Y-165.747
X54.102Y-85.483
X54.102Y-93.103
X54.102Y-108.343
X54.102Y-115.963
X54.864Y-126.417
X54.864Y-131.417
X55.626Y-141.363
X55.626Y-146.363
X55.626Y-180.225
X55.626Y-185.225
X55.626Y-188.901
X55.626Y-193.901
X55.626Y-197.751
X55.626Y-202.751
X56.388Y-158.127
X56.388Y-165.747
X57.364Y-152.539
X57.658Y-169.597
X57.658Y-174.597
X58.928Y-126.417
X58.928Y-131.417
X58.928Y-158.127
X58.928Y-165.747
X59.436Y-87.809
X59.436Y-92.809
X59.944Y-182.765
X59.944Y-192.925
X60.706Y-109.693
X60.706Y-114.693
X61.214Y-48.145
X61.214Y-58.305
X61.468Y-158.127
X61.468Y-165.747
X61.468Y-169.303
X61.468Y-179.463
X61.722Y-139.839
X61.722Y-149.999
X62.992Y-96.405
X62.992Y-106.565
X62.992Y-119.265
X62.992Y-129.425
X63.246Y-69.227
X63.246Y-72.275
X63.246Y-186.615
X63.246Y-191.615
X64.008Y-84.761
X64.008Y-89.761
X64.008Y-158.127
X64.008Y-165.747
X64.77Y-60.845
X65.278Y-169.303
X65.278Y-179.463
X65.278Y-203.339
X65.786Y-137.045
X65.786Y-147.205
X66.299Y-49.4
X66.299Y-57.02
X66.374Y-114.693
X66.533Y-186.56
X66.533Y-194.18
X66.548Y-158.127
X66.548Y-165.747
X66.802Y-95.135
X66.802Y-105.295
X66.802Y-119.265
X66.802Y-129.425
X68.072Y-84.721
X68.072Y-89.721
X68.839Y-49.4
X68.839Y-57.02
X69.073Y-186.56
X69.073Y-194.18
X69.088Y-30.619
X69.088Y-40.779
X69.088Y-158.127
X69.088Y-165.747
X69.163Y-64.655
X69.342Y-139.839
X69.342Y-149.999
X69.342Y-208.419
X70.612Y-95.135
X70.612Y-105.295
X70.612Y-119.265
X70.612Y-129.425
X71.374Y-114.693
X71.379Y-49.4
X71.379Y-57.02
X71.613Y-186.56
X71.613Y-194.18
X71.89Y-34.937
X72.879Y-43.319
X72.898Y-168.795
X72.898Y-178.955
X73.406Y-69.227
X73.406Y-72.275
X73.914Y-137.553
X73.914Y-147.713
X73.919Y-49.4
X73.919Y-57.02
X74.153Y-186.56
X74.153Y-194.18
X74.163Y-64.655
X74.168Y-84.975
X74.168Y-90.055
X74.422Y-95.135
X74.422Y-105.295
X74.422Y-119.265
X74.422Y-129.425
X74.43Y-32.397
X74.43Y-37.477
X74.93Y-60.845
X75.438Y-203.339
X76.459Y-49.4
X76.459Y-57.02
X76.693Y-186.56
X76.693Y-194.18
X76.708Y-87.515
X76.788Y-199.275
X77.879Y-43.319
X78.486Y-161.937
X78.74Y-135.521
X78.74Y-145.681
X78.986Y-61.353
X78.986Y-66.433
X78.999Y-49.4
X78.999Y-57.02
X79.233Y-186.56
X79.233Y-194.18
X79.494Y-152.793
X79.494Y-157.873
X79.502Y-208.419
X80.772Y-34.723
X80.772Y-39.723
X81.526Y-63.893
X81.539Y-49.4
X81.539Y-57.02
X81.773Y-186.56
X81.773Y-194.18
X81.788Y-199.275
X82.034Y-155.333
X82.042Y-83.197
X82.296Y-87.261
X82.296Y-102.501
X84.313Y-186.56
X84.313Y-194.18
X85.344Y-31.635
X85.344Y-41.795
X85.344Y-109.75
X85.344Y-114.75
X86.106Y-87.261
X86.106Y-102.501
X86.106Y-152.833
X86.106Y-157.833
X86.614Y-47.383
X86.614Y-57.543
X87.042Y-83.197
X88.646Y-34.215
X88.646Y-39.215
X88.646Y-161.937
X90.21Y-46.367
X90.922Y-123.324
X90.922Y-138.564
X91.186Y-109.399
X91.186Y-114.399
X91.44Y-50.939
X91.44Y-61.099
X91.694Y-30.365
X91.694Y-40.525
X92.197Y-186.595
X92.197Y-201.835
X93.462Y-123.324
X93.462Y-138.564
X94.737Y-186.595
X94.737Y-201.835
X94.996Y-70.283
X94.996Y-75.283
X95.011Y-106.58
X95.011Y-114.2
X95.036Y-40.779
X95.036Y-60.591
X95.21Y-46.367
X96.002Y-123.324
X96.002Y-138.564
X97.277Y-186.595
X97.277Y-201.835
X97.551Y-106.58
X97.551Y-114.2
X97.79Y-81.535
X97.79Y-86.535
X98.542Y-123.324
X98.542Y-138.564
X99.817Y-186.595
X99.817Y-201.835
X100.036Y-40.779
X100.036Y-60.591
X100.091Y-106.58
X100.091Y-114.2
X100.584Y-73.291
X101.082Y-123.324
X101.082Y-138.564
X102.108Y-142.633
X102.357Y-186.595
X102.357Y-201.835
X102.631Y-106.58
X102.631Y-114.2
X103.622Y-123.324
X103.622Y-138.564
X104.897Y-186.595
X104.897Y-201.835
X105.171Y-106.58
X105.171Y-114.2
X105.41Y-146.951
X106.162Y-123.324
X106.162Y-138.564
X106.426Y-83.833
X106.426Y-88.833
X107.437Y-186.595
X107.437Y-201.835
X107.711Y-106.58
X107.711Y-114.2
X107.806Y-58.813
X108.702Y-123.324
X108.702Y-138.564
X108.966Y-47.931
X108.966Y-52.931
X109.728Y-64.949
X109.728Y-69.949
X109.977Y-186.595
X109.977Y-201.835
X110.251Y-106.58
X110.251Y-114.2
X110.306Y-58.813
X110.744Y-73.291
X111.242Y-123.324
X111.242Y-138.564
X112.268Y-84.213
X112.268Y-89.213
X112.517Y-186.595
X112.517Y-201.835
X112.791Y-106.58
X112.791Y-114.2
X113.782Y-123.324
X113.782Y-138.564
X115.057Y-186.595
X115.057Y-201.835
X116.078Y-84.253
X116.078Y-89.253
X116.322Y-123.324
X116.322Y-138.564
X117.348Y-142.633
X117.597Y-186.595
X117.597Y-201.835
X118.862Y-123.324
X118.862Y-138.564
X119.634Y-46.915
X119.634Y-51.915
X119.634Y-59.321
X119.634Y-64.321
X119.634Y-71.807
X119.634Y-76.807
X119.888Y-84.253
X119.888Y-89.253
X120.137Y-186.595
X120.137Y-201.835
X120.65Y-146.951
X121.402Y-123.324
X121.402Y-138.564
X121.412Y-214.007
X122.677Y-186.595
X122.677Y-201.835
X123.738Y-28.841
X123.942Y-123.324
X123.942Y-138.564
X124.191Y-44.574
X124.191Y-52.194
X124.191Y-57.025
X124.191Y-64.645
X124.191Y-69.476
X124.191Y-77.096
X124.191Y-81.927
X124.191Y-89.547
X125.217Y-186.595
X125.217Y-201.835
X126.487Y-97.929
X126.487Y-113.169
X126.731Y-44.574
X126.731Y-52.194
X126.731Y-57.025
X126.731Y-64.645
X126.731Y-69.476
X126.731Y-77.096
X126.731Y-81.927
X126.731Y-89.547
X127.0Y-155.119
X127.0Y-160.119
X127.757Y-186.595
X127.757Y-201.835
X128.738Y-28.841
X129.027Y-97.929
X129.027Y-113.169
X129.271Y-44.574
X129.271Y-52.194
X129.271Y-57.025
X129.271Y-64.645
X129.271Y-69.476
X129.271Y-77.096
X129.271Y-81.927
X129.271Y-89.547
X130.297Y-186.595
X130.297Y-201.835
X131.054Y-123.06
X131.054Y-130.68
X131.054Y-136.522
X131.054Y-144.142
X131.064Y-155.119
X131.064Y-160.119
X131.567Y-97.929
X131.567Y-113.169
X131.572Y-214.007
X131.811Y-44.574
X131.811Y-52.194
X131.811Y-57.025
X131.811Y-64.645
X131.811Y-69.476
X131.811Y-77.096
X131.811Y-81.927
X131.811Y-89.547
X132.837Y-186.595
X132.837Y-201.835
X133.594Y-123.06
X133.594Y-130.68
X133.594Y-136.522
X133.594Y-144.142
X134.107Y-97.929
X134.107Y-113.169
X134.351Y-44.574
X134.351Y-52.194
X134.351Y-57.025
X134.351Y-64.645
X134.351Y-69.476
X134.351Y-77.096
X134.351Y-81.927
X134.351Y-89.547
X135.133Y-152.524
X135.133Y-160.144
X135.377Y-186.595
X135.377Y-201.835
X136.134Y-123.06
X136.134Y-130.68
X136.134Y-136.522
X136.134Y-144.142
X136.647Y-97.929
X136.647Y-113.169
X136.891Y-44.574
X136.891Y-52.194
X136.891Y-57.025
X136.891Y-64.645
X136.891Y-69.476
X136.891Y-77.096
X136.891Y-81.927
X136.891Y-89.547
X137.673Y-152.524
X137.673Y-160.144
X137.917Y-186.595
X137.917Y-201.835
X138.674Y-123.06
X138.674Y-130.68
X138.674Y-136.522
X138.674Y-144.142
X139.187Y-97.929
X139.187Y-113.169
X139.431Y-44.574
X139.431Y-52.194
X139.431Y-57.025
X139.431Y-64.645
X139.431Y-69.476
X139.431Y-77.096
X139.431Y-81.927
X139.431Y-89.547
X140.213Y-152.524
X140.213Y-160.144
X140.457Y-186.595
X140.457Y-201.835
X141.214Y-123.06
X141.214Y-130.68
X141.214Y-136.522
X141.214Y-144.142
X141.727Y-97.929
X141.727Y-113.169
X141.971Y-44.574
X141.971Y-52.194
X141.971Y-57.025
X141.971Y-64.645
X141.971Y-69.476
X141.971Y-77.096
X141.971Y-81.927
X141.971Y-89.547
X142.753Y-152.524
X142.753Y-160.144
X143.754Y-123.06
X143.754Y-130.68
X143.754Y-136.522
X143.754Y-144.142
X144.267Y-97.929
X144.267Y-113.169
X145.293Y-152.524
X145.293Y-160.144
X146.294Y-123.06
X146.294Y-130.68
X146.294Y-136.522
X146.294Y-144.142
X146.304Y-47.383
X146.304Y-52.383
X146.304Y-84.721
X146.304Y-89.721
X146.558Y-59.869
X146.558Y-64.869
X146.558Y-72.315
X146.558Y-77.315
X146.807Y-97.929
X146.807Y-113.169
X147.066Y-163.207
X147.833Y-152.524
X147.833Y-160.144
X148.834Y-123.06
X148.834Y-130.68
X148.834Y-136.522
X148.834Y-144.142
X149.347Y-97.929
X149.347Y-113.169
X150.373Y-152.524
X150.373Y-160.144
X150.876Y-44.589
X150.876Y-49.589
X150.876Y-57.075
X150.876Y-62.075
X150.876Y-69.521
X150.876Y-74.521
X150.876Y-81.967
X150.876Y-86.967
X150.876Y-188.607
X150.876Y-198.767
X151.374Y-123.06
X151.374Y-130.68
X151.374Y-136.522
X151.374Y-144.142
X151.887Y-97.929
X151.887Y-113.169
X154.178Y-93.611
X154.427Y-97.929
X154.427Y-113.169
X155.194Y-187.591
X155.194Y-197.751
X155.941Y-121.536
X155.941Y-129.156
X156.21Y-81.927
X156.21Y-89.547
X156.225Y-44.574
X156.225Y-52.194
X156.225Y-57.025
X156.225Y-64.645
X156.225Y-69.476
X156.225Y-77.096
X156.967Y-97.929
X156.967Y-113.169
X156.972Y-139.371
X156.972Y-144.371
X158.481Y-121.536
X158.481Y-129.156
X158.75Y-81.927
X158.75Y-89.547
X158.75Y-182.003
X158.75Y-192.163
X158.75Y-197.497
X158.75Y-207.657
X158.765Y-44.574
X158.765Y-52.194
X158.765Y-57.025
X158.765Y-64.645
X158.765Y-69.476
X158.765Y-77.096
X159.258Y-150.253
X159.258Y-160.413
X159.507Y-97.929
X159.507Y-113.169
X160.782Y-137.299
X161.021Y-121.536
X161.021Y-129.156
X161.29Y-81.927
X161.29Y-89.547
X161.298Y-145.427
X161.305Y-44.574
X161.305Y-52.194
X161.305Y-57.025
X161.305Y-64.645
X161.305Y-69.476
X161.305Y-77.096
X161.798Y-168.795
X161.798Y-173.795
X162.047Y-97.929
X162.047Y-113.169
X162.306Y-163.207
X162.346Y-158.381
X162.386Y-154.825
X162.814Y-197.497
X162.814Y-207.657
X163.383Y-213.245
X163.561Y-121.536
X163.561Y-129.156
X163.576Y-184.035
X163.576Y-191.655
X163.83Y-81.927
X163.83Y-89.547
X163.838Y-142.887
X163.838Y-147.967
X163.845Y-44.574
X163.845Y-52.194
X163.845Y-57.025
X163.845Y-64.645
X163.845Y-69.476
X163.845Y-77.096
X164.338Y-93.611
X164.587Y-97.929
X164.587Y-113.169
X164.846Y-177.939
X165.862Y-180.987
X165.867Y-161.668
X165.867Y-169.288
X166.101Y-121.536
X166.101Y-129.156
X166.116Y-184.035
X166.116Y-191.655
X166.37Y-81.927
X166.37Y-89.547
X166.385Y-44.574
X166.385Y-52.194
X166.385Y-57.025
X166.385Y-64.645
X166.385Y-69.476
X166.385Y-77.096
X167.127Y-97.929
X167.127Y-113.169
X167.132Y-149.999
X167.132Y-197.497
X167.132Y-207.657
X167.346Y-158.381
X167.386Y-140.347
X167.386Y-154.825
X167.586Y-173.621
X168.148Y-146.443
X168.383Y-213.245
X168.407Y-161.668
X168.407Y-169.288
X168.641Y-121.536
X168.641Y-129.156
X168.656Y-184.035
X168.656Y-191.655
X168.91Y-81.927
X168.91Y-89.547
X168.925Y-44.574
X168.925Y-52.194
X168.925Y-57.025
X168.925Y-64.645
X168.925Y-69.476
X168.925Y-77.096
X169.667Y-97.929
X169.667Y-113.169
X170.289Y-117.233
X170.688Y-143.395
X170.942Y-137.299
X170.947Y-161.668
X170.947Y-169.288
X171.181Y-121.536
X171.181Y-129.156
X171.196Y-184.035
X171.196Y-191.655
X171.45Y-81.927
X171.45Y-89.547
X171.465Y-44.574
X171.465Y-52.194
X171.465Y-57.025
X171.465Y-64.645
X171.465Y-69.476
X171.465Y-77.096
X171.704Y-194.703
X172.207Y-97.929
X172.207Y-113.169
X172.466Y-173.621
X172.789Y-117.233
X173.268Y-158.381
X173.487Y-161.668
X173.487Y-169.288
X173.721Y-121.536
X173.721Y-129.156
X173.736Y-184.035
X173.736Y-191.655
X173.736Y-203.085
X173.736Y-213.245
X173.99Y-81.927
X173.99Y-89.547
X174.005Y-44.574
X174.005Y-52.194
X174.005Y-57.025
X174.005Y-64.645
X174.005Y-69.476
X174.005Y-77.096
X174.747Y-97.929
X174.747Y-113.169
X174.752Y-197.751
X175.006Y-177.939
X175.688Y-143.395
X176.022Y-180.987
X176.027Y-161.668
X176.027Y-169.288
X176.276Y-184.035
X176.276Y-191.655
X176.784Y-137.299
X177.292Y-149.999
X177.546Y-140.347
X178.268Y-158.381
X178.308Y-146.443
X178.567Y-161.668
X178.567Y-169.288
X178.816Y-174.169
X178.816Y-179.169
X178.816Y-184.035
X178.816Y-191.655
X179.07Y-47.169
X179.07Y-52.169
X179.07Y-59.615
X179.07Y-64.615
X179.07Y-72.061
X179.07Y-77.061
X179.07Y-84.507
X179.07Y-89.507
X179.578Y-119.265
X179.578Y-129.425
X181.107Y-161.668
X181.107Y-169.288
X181.784Y-137.299
X181.864Y-194.703
X183.134Y-101.485
X183.134Y-111.645
X183.388Y-185.345
X183.388Y-190.345
X183.642Y-118.757
X183.642Y-128.917
X184.912Y-197.751
T2
X28.956Y-147.967
X29.972Y-56.273
X30.632Y-127.901
X33.782Y-125.615
X36.068Y-125.615
X38.862Y-125.615
X40.386Y-140.347
X42.418Y-61.607
X42.418Y-137.553
X42.456Y-125.767
X50.8Y-192.925
X53.34Y-144.157
X55.626Y-138.823
X57.848Y-84.67
X57.912Y-128.663
X58.674Y-206.387
X60.198Y-206.387
X65.024Y-126.377
X65.786Y-144.919
X67.026Y-177.025
X67.24Y-174.647
X68.422Y-126.409
X69.825Y-175.581
X69.896Y-146.393
X72.898Y-82.435
X72.898Y-97.167
X73.406Y-207.149
X74.676Y-210.959
X74.93Y-111.137
X74.93Y-113.169
X76.454Y-121.297
X76.454Y-140.5
X76.547Y-176.986
X78.232Y-84.975
X80.264Y-89.039
X80.264Y-91.325
X81.026Y-93.611
X81.28Y-162.445
X81.788Y-170.369
X82.042Y-72.021
X83.058Y-53.987
X83.82Y-144.411
X85.954Y-162.699
X86.36Y-97.675
X87.884Y-98.945
X87.948Y-181.305
X88.211Y-196.05
X88.646Y-164.477
X88.837Y-194.386
X89.664Y-208.457
X90.424Y-217.817
X91.05Y-116.412
X91.186Y-132.727
X91.694Y-84.213
X91.772Y-190.053
X92.202Y-87.007
X92.456Y-211.975
X93.218Y-217.817
X94.234Y-129.679
X94.234Y-149.491
X94.996Y-182.003
X95.424Y-126.971
X96.012Y-169.303
X96.266Y-110.121
X96.266Y-157.873
X96.75Y-117.081
X97.028Y-154.825
X98.234Y-215.849
X98.298Y-179.717
X98.616Y-208.355
X99.822Y-218.833
X99.966Y-213.77
X101.092Y-129.679
X102.108Y-182.003
X103.632Y-130.441
X103.886Y-219.341
X105.918Y-91.579
X105.918Y-189.32
X108.356Y-181.241
X109.22Y-189.32
X109.474Y-36.207
X109.474Y-37.985
X109.474Y-39.763
X109.474Y-41.795
X109.825Y-177.991
X110.046Y-213.435
X110.617Y-215.404
X115.316Y-179.209
X115.57Y-213.499
X115.57Y-215.277
X117.602Y-98.437
X120.142Y-114.337
X120.709Y-140.989
X122.696Y-212.723
X123.298Y-111.212
X123.952Y-99.961
X126.492Y-109.613
X126.492Y-212.737
X127.577Y-153.344
X129.032Y-109.613
X130.556Y-216.039
X130.81Y-152.285
X131.572Y-109.613
X131.826Y-93.611
X132.804Y-181.343
X133.223Y-194.576
X135.382Y-166.357
X135.636Y-109.105
X136.652Y-106.565
X136.71Y-217.26
X137.16Y-194.957
X137.884Y-181.343
X138.176Y-93.357
X138.176Y-168.795
X139.954Y-196.481
X139.954Y-217.309
X140.462Y-93.357
X141.478Y-119.011
X143.256Y-167.271
X143.295Y-178.335
X143.764Y-119.773
X145.034Y-196.481
X145.168Y-181.672
X145.338Y-62.623
X145.796Y-50.177
X145.796Y-105.041
X146.304Y-125.615
X146.558Y-169.811
X146.558Y-185.228
X146.66Y-199.524
X146.812Y-176.923
X147.574Y-120.027
X147.574Y-140.093
X147.828Y-201.561
X148.844Y-195.211
X150.077Y-211.265
X150.368Y-107.835
X150.876Y-166.001
X150.876Y-180.225
X151.638Y-115.455
X153.518Y-192.925
X153.924Y-131.45
X154.178Y-109.359
X154.94Y-132.981
X156.21Y-206.641
X156.678Y-146.977
X157.715Y-209.21
X157.988Y-173.367
X159.402Y-109.088
X159.766Y-212.737
X160.884Y-193.179
X162.069Y-108.699
X162.661Y-201.27
X162.803Y-205.219
X163.292Y-150.665
X164.163Y-108.699
X164.338Y-136.029
X165.283Y-201.207
X165.862Y-203.847
X166.37Y-152.285
X168.148Y-136.029
X168.148Y-180.733
X170.18Y-147.205
X171.704Y-105.549
X171.866Y-187.811
X172.156Y-179.534
X172.72Y-150.761
X173.736Y-148.798
X175.514Y-146.697
X177.038Y-56.273
X177.546Y-87.007
X178.054Y-68.465
X178.816Y-81.673
X179.07Y-110.883
X181.102Y-187.845
X181.762Y-125.107
X183.286Y-95.897
X183.286Y-98.475
T3
X32.176Y-48.298
X32.176Y-51.068
X32.176Y-53.838
X32.176Y-56.608
X32.176Y-139.23
X32.176Y-142.0
X32.176Y-144.77
X32.176Y-147.54
X35.016Y-46.913
X35.016Y-49.683
X35.016Y-52.453
X35.016Y-55.223
X35.016Y-57.993
X35.016Y-137.845
X35.016Y-140.615
X35.016Y-143.385
X35.016Y-146.155
X35.016Y-148.925
X43.292Y-171.589
X50.912Y-171.589
X90.424Y-90.929
X90.424Y-98.549
X95.504Y-90.929
X95.504Y-98.549
X99.822Y-47.525
X99.822Y-55.145
X100.696Y-93.865
X104.394Y-46.636
X104.394Y-49.176
X104.394Y-51.716
X104.394Y-54.256
X104.394Y-56.796
X104.394Y-59.336
X104.394Y-61.876
X104.394Y-64.416
X108.316Y-93.865
X112.126Y-93.865
X119.746Y-93.865
X131.206Y-35.445
X138.826Y-35.445
X146.67Y-30.111
X154.29Y-30.111
X168.29Y-133.235
X170.068Y-154.063
X175.91Y-133.235
X177.688Y-154.063
X179.832Y-203.815
X179.832Y-205.847
X179.832Y-207.879
X182.372Y-203.815
X182.372Y-207.879
X184.912Y-203.815
X184.912Y-205.847
X184.912Y-207.879
T4
X43.942Y-177.177
X43.942Y-202.577
X50.546Y-177.177
X50.546Y-202.577
X98.298Y-170.573
X98.298Y-175.399
X100.838Y-170.573
X100.838Y-175.399
X103.378Y-170.573
X103.378Y-175.399
X105.918Y-170.573
X105.918Y-175.399
X108.458Y-170.573
X108.458Y-175.399
X110.998Y-170.573
X110.998Y-175.399
X113.538Y-170.573
X113.538Y-175.399
X116.078Y-170.573
X116.078Y-175.399
X118.618Y-170.573
X118.618Y-175.399
X121.158Y-170.573
X121.158Y-175.399
X123.698Y-170.573
X123.698Y-175.399
X126.238Y-170.573
X126.238Y-175.399
X128.778Y-170.573
X128.778Y-175.399
X131.318Y-170.573
X131.318Y-175.399
X133.858Y-170.573
X133.858Y-175.399
T5
X28.851Y-167.935
X28.851Y-171.895
X28.851Y-175.855
X28.851Y-179.815
T6
X28.067Y-204.768
X36.703Y-204.768
T7
X177.546Y-205.847
X187.198Y-205.847
T8
X33.596Y-39.953
X33.596Y-64.953
X33.596Y-130.885
X33.596Y-155.885
T9
X89.728Y-172.974
X142.428Y-172.974
T10
X37.592Y-30.365
X51.816Y-214.261
X116.332Y-159.143
X182.88Y-33.413
X182.88Y-220.865
T6
G00X28.067Y-199.41
M15
G01X28.067Y-196.41
M16
G05
G00X28.067Y-213.126
M15
G01X28.067Y-210.126
M16
G05
G00X30.512Y-188.861
M15
G01X34.512Y-188.861
M16
G05
G00X30.512Y-220.611
M15
G01X34.512Y-220.611
M16
G05
G00X36.703Y-199.41
M15
G01X36.703Y-196.41
M16
G05
G00X36.703Y-213.126
M15
G01X36.703Y-210.126
M16
G05
G00X44.468Y-44.049
M15
G01X44.468Y-40.049
M16
G05
G00X52.102Y-79.151
M15
G01X56.102Y-79.151
M16
G05
G00X103.918Y-26.065
M15
G01X107.918Y-26.065
M16
G05
G00X103.918Y-79.133
M15
G01X107.918Y-79.133
M16
G05
G00X115.316Y-65.639
M15
G01X115.316Y-61.639
M16
G05
T0
M30
