%TF.GenerationSoftware,KiCad,Pcbnew,6.0.11-2627ca5db0~126~ubuntu22.04.1*%
%TF.CreationDate,2023-04-08T12:33:41-04:00*%
%TF.ProjectId,coleco_original_main_only,636f6c65-636f-45f6-9f72-6967696e616c,DEV*%
%TF.SameCoordinates,Original*%
%TF.FileFunction,Other,User*%
%FSLAX46Y46*%
G04 Gerber Fmt 4.6, Leading zero omitted, Abs format (unit mm)*
G04 Created by KiCad (PCBNEW 6.0.11-2627ca5db0~126~ubuntu22.04.1) date 2023-04-08 12:33:41*
%MOMM*%
%LPD*%
G01*
G04 APERTURE LIST*
%ADD10C,0.800000*%
G04 APERTURE END LIST*
D10*
X67352849Y-16477849D02*
X23410849Y-16477849D01*
X167174849Y-231361849D02*
X192828849Y-231361849D01*
X156760849Y-218153849D02*
X166158849Y-218153849D01*
X77512849Y-218407849D02*
X77512849Y-230345849D01*
X192828849Y-22319849D02*
X192828849Y-16477849D01*
X23410849Y-16477849D02*
X23444849Y-229803849D01*
X168444849Y-16477849D02*
X95292849Y-16477849D01*
X192828849Y-22319849D02*
X189780849Y-22319849D01*
X155778849Y-231327849D02*
X156760849Y-230345849D01*
X78562849Y-231327849D02*
X77512849Y-230345849D01*
X168698849Y-16477849D02*
X168698849Y-21811849D01*
X168952849Y-16477849D02*
X168698849Y-16477849D01*
X67352849Y-23047849D02*
X67352849Y-16477849D01*
X67860849Y-230599849D02*
X67860849Y-218407849D01*
X156760849Y-230345849D02*
X156760849Y-218153849D01*
X95292849Y-23047849D02*
X67352849Y-23047849D01*
X166158849Y-218153849D02*
X166158849Y-230091849D01*
X166158849Y-230091849D02*
X166158849Y-230345849D01*
X95292849Y-16477849D02*
X95292849Y-23047849D01*
X168444849Y-21811849D02*
X168444849Y-16731849D01*
X191084849Y-16477849D02*
X168952849Y-16477849D01*
X23410849Y-231361849D02*
X67098849Y-231361849D01*
X168698849Y-21811849D02*
X168444849Y-21811849D01*
X67860849Y-218407849D02*
X77512849Y-218407849D01*
X78562849Y-231327849D02*
X155778849Y-231327849D01*
X166158849Y-230345849D02*
X167174849Y-231361849D01*
X77512849Y-230091849D02*
X77512849Y-230345849D01*
X192828849Y-231361849D02*
X192828849Y-22319849D01*
X67098849Y-231361849D02*
X67860849Y-230599849D01*
M02*
