%TF.GenerationSoftware,KiCad,Pcbnew,6.0.11-2627ca5db0~126~ubuntu22.04.1*%
%TF.CreationDate,2023-04-12T15:51:28-04:00*%
%TF.ProjectId,coleco_original_main_only,636f6c65-636f-45f6-9f72-6967696e616c,DEV*%
%TF.SameCoordinates,Original*%
%TF.FileFunction,Other,User*%
%FSLAX46Y46*%
G04 Gerber Fmt 4.6, Leading zero omitted, Abs format (unit mm)*
G04 Created by KiCad (PCBNEW 6.0.11-2627ca5db0~126~ubuntu22.04.1) date 2023-04-12 15:51:28*
%MOMM*%
%LPD*%
G01*
G04 APERTURE LIST*
%ADD10C,0.800000*%
G04 APERTURE END LIST*
D10*
X165862000Y-219087000D02*
X165862000Y-231025000D01*
X165862000Y-231025000D02*
X165862000Y-231279000D01*
X168148000Y-22745000D02*
X168148000Y-17665000D01*
X168402000Y-22745000D02*
X168148000Y-22745000D01*
X67564000Y-231533000D02*
X67564000Y-219341000D01*
X67564000Y-219341000D02*
X77216000Y-219341000D01*
X67056000Y-17411000D02*
X23114000Y-17411000D01*
X156464000Y-231279000D02*
X156464000Y-219087000D01*
X94996000Y-23981000D02*
X67056000Y-23981000D01*
X77216000Y-219341000D02*
X77216000Y-231279000D01*
X77216000Y-231025000D02*
X77216000Y-231279000D01*
X190788000Y-17411000D02*
X168656000Y-17411000D01*
X67056000Y-23981000D02*
X67056000Y-17411000D01*
X66802000Y-232295000D02*
X67564000Y-231533000D01*
X156464000Y-219087000D02*
X165862000Y-219087000D01*
X94996000Y-17411000D02*
X94996000Y-23981000D01*
X168402000Y-17411000D02*
X168402000Y-22745000D01*
X192532000Y-23253000D02*
X192532000Y-17411000D01*
X155482000Y-232261000D02*
X156464000Y-231279000D01*
X165862000Y-231279000D02*
X166878000Y-232295000D01*
X168656000Y-17411000D02*
X168402000Y-17411000D01*
X192532000Y-23253000D02*
X189484000Y-23253000D01*
X166878000Y-232295000D02*
X192532000Y-232295000D01*
X23114000Y-17411000D02*
X23148000Y-230737000D01*
X23114000Y-232295000D02*
X66802000Y-232295000D01*
X168148000Y-17411000D02*
X94996000Y-17411000D01*
X78266000Y-232261000D02*
X77216000Y-231279000D01*
X192532000Y-232295000D02*
X192532000Y-23253000D01*
X78266000Y-232261000D02*
X155482000Y-232261000D01*
M02*
