M48
; DRILL file {KiCad 6.0.11-2627ca5db0~126~ubuntu22.04.1} date Mon 01 May 2023 09:37:51 AM EDT
; FORMAT={-:-/ absolute / metric / decimal}
; #@! TF.CreationDate,2023-05-01T09:37:51-04:00
; #@! TF.GenerationSoftware,Kicad,Pcbnew,6.0.11-2627ca5db0~126~ubuntu22.04.1
; #@! TF.FileFunction,MixedPlating,1,2
FMAT,2
METRIC
; #@! TA.AperFunction,Plated,PTH,ViaDrill
T1C0.559
; #@! TA.AperFunction,Plated,PTH,ComponentDrill
T2C0.800
; #@! TA.AperFunction,Plated,PTH,ViaDrill
T3C0.813
; #@! TA.AperFunction,Plated,PTH,ComponentDrill
T4C1.000
; #@! TA.AperFunction,Plated,PTH,ComponentDrill
T5C1.100
; #@! TA.AperFunction,Plated,PTH,ComponentDrill
T6C1.500
; #@! TA.AperFunction,Plated,PTH,ComponentDrill
T7C1.700
; #@! TA.AperFunction,Plated,PTH,ComponentDrill
T8C2.200
; #@! TA.AperFunction,Plated,PTH,ComponentDrill
T9C2.250
; #@! TA.AperFunction,Plated,PTH,ComponentDrill
T10C3.200
; #@! TA.AperFunction,Plated,PTH,ComponentDrill
T11C3.250
; #@! TA.AperFunction,Plated,PTH,ComponentDrill
T12C4.300
; #@! TA.AperFunction,Plated,PTH,ComponentDrill
T13C7.000
%
G90
G05
T1
X25.654Y-125.903
X26.45Y-69.735
X27.72Y-68.719
X28.05Y-125.851
X30.233Y-123.837
X33.562Y-125.107
X35.814Y-125.141
X37.88Y-60.591
X38.608Y-125.141
X38.642Y-135.775
X38.642Y-145.681
X42.164Y-61.133
X42.202Y-125.293
X46.516Y-140.855
X46.516Y-146.951
X51.342Y-146.951
X53.086Y-143.683
X56.676Y-128.189
X58.2Y-176.415
X64.804Y-125.615
X67.564Y-176.449
X67.918Y-173.501
X68.36Y-125.615
X70.104Y-174.671
X70.392Y-143.649
X71.193Y-81.634
X72.642Y-205.589
X72.644Y-96.693
X73.152Y-110.155
X73.186Y-112.153
X74.422Y-210.485
X76.2Y-120.823
X76.367Y-140.16
X77.111Y-176.554
X78.638Y-89.534
X78.74Y-91.359
X78.749Y-87.709
X81.06Y-171.081
X82.804Y-53.513
X87.73Y-180.987
X87.756Y-98.629
X87.93Y-195.642
X88.619Y-193.948
X89.264Y-207.983
X90.712Y-133.489
X90.722Y-216.791
X90.796Y-115.938
X91.237Y-189.802
X91.44Y-83.739
X92.964Y-215.311
X92.964Y-217.343
X93.218Y-149.271
X93.472Y-128.121
X94.522Y-158.889
X94.742Y-180.987
X95.25Y-127.313
X95.97Y-166.839
X96.012Y-109.647
X96.046Y-155.079
X96.046Y-56.019
X96.305Y-116.818
X98.154Y-215.68
X98.198Y-207.133
X99.612Y-218.315
X99.627Y-213.242
X100.11Y-130.949
X101.854Y-180.987
X102.111Y-132.25
X103.596Y-218.903
X105.664Y-91.105
X105.918Y-188.387
X108.253Y-181.021
X108.712Y-188.387
X109.215Y-37.561
X109.22Y-35.733
X109.22Y-41.321
X109.22Y-39.39
X109.571Y-177.466
X109.792Y-212.961
X110.59Y-214.703
X115.062Y-178.684
X115.316Y-213.025
X115.316Y-215.311
X116.586Y-97.201
X119.888Y-113.914
X121.209Y-140.635
X122.423Y-210.959
X123.052Y-110.746
X123.952Y-97.963
X126.238Y-109.139
X126.238Y-211.179
X127.511Y-152.637
X128.778Y-109.139
X130.302Y-215.565
X130.556Y-151.811
X131.318Y-109.139
X131.572Y-93.137
X132.514Y-180.882
X132.969Y-194.102
X134.4Y-109.105
X135.67Y-166.763
X136.398Y-106.091
X136.601Y-216.786
X136.906Y-194.483
X137.448Y-166.763
X137.63Y-180.869
X137.922Y-92.883
X139.497Y-216.84
X139.7Y-196.007
X140.208Y-92.883
X140.843Y-165.146
X141.224Y-118.537
X143.041Y-177.861
X143.51Y-119.299
X144.78Y-196.007
X144.914Y-181.198
X145.034Y-61.871
X145.542Y-49.703
X145.542Y-104.567
X146.304Y-184.754
X146.355Y-199.05
X146.542Y-176.449
X147.245Y-115.564
X147.32Y-139.619
X147.371Y-201.025
X147.674Y-169.237
X148.387Y-194.637
X148.624Y-108.597
X150.368Y-209.012
X153.162Y-191.96
X153.67Y-130.475
X154.024Y-108.597
X155.482Y-131.711
X155.956Y-206.167
X156.464Y-147.493
X157.277Y-172.893
X157.461Y-208.736
X159.214Y-108.605
X159.476Y-212.227
X160.562Y-204.863
X160.63Y-192.705
X161.578Y-108.597
X163.038Y-150.191
X163.72Y-134.649
X163.909Y-108.597
X164.626Y-200.8
X164.753Y-204.228
X166.116Y-151.811
X167.928Y-177.761
X168.097Y-134.759
X169.071Y-198.894
X171.45Y-105.075
X171.484Y-186.575
X172.764Y-151.787
X173.085Y-136.791
X176.784Y-55.799
X177.241Y-86.569
X177.8Y-67.991
X178.562Y-81.199
X178.816Y-110.409
X180.848Y-187.371
X181.559Y-124.633
X183.032Y-95.423
X183.032Y-98.001
T2
X30.988Y-85.009
X30.988Y-92.629
X30.988Y-107.869
X30.988Y-115.489
X31.242Y-71.547
X31.242Y-81.707
X33.528Y-85.009
X33.528Y-92.629
X33.528Y-107.869
X33.528Y-115.489
X33.782Y-120.315
X34.798Y-71.547
X34.798Y-81.707
X35.814Y-173.441
X35.814Y-178.441
X36.068Y-85.009
X36.068Y-92.629
X36.068Y-107.869
X36.068Y-115.489
X36.322Y-120.315
X38.608Y-85.009
X38.608Y-92.629
X38.608Y-107.869
X38.608Y-115.489
X38.862Y-120.315
X38.862Y-166.075
X38.862Y-171.075
X38.862Y-175.727
X38.862Y-180.727
X40.132Y-63.429
X40.132Y-65.969
X40.132Y-68.509
X40.132Y-71.049
X40.132Y-73.589
X40.132Y-76.129
X40.132Y-78.669
X40.132Y-81.209
X41.148Y-85.009
X41.148Y-92.629
X41.148Y-107.869
X41.148Y-115.489
X41.402Y-120.315
X43.688Y-85.009
X43.688Y-92.629
X43.688Y-107.869
X43.688Y-115.489
X43.942Y-120.315
X46.228Y-85.009
X46.228Y-92.629
X46.228Y-107.869
X46.228Y-115.489
X46.228Y-154.899
X46.228Y-159.899
X46.482Y-120.315
X48.768Y-85.009
X48.768Y-92.629
X48.768Y-107.869
X48.768Y-115.489
X49.022Y-120.315
X51.308Y-85.009
X51.308Y-92.629
X51.308Y-107.869
X51.308Y-115.489
X51.562Y-120.315
X52.11Y-152.065
X53.594Y-157.653
X53.594Y-165.273
X53.848Y-85.009
X53.848Y-92.629
X53.848Y-107.869
X53.848Y-115.489
X54.61Y-125.943
X54.61Y-130.943
X55.372Y-140.889
X55.372Y-145.889
X55.372Y-179.751
X55.372Y-184.751
X55.372Y-188.427
X55.372Y-193.427
X55.372Y-197.277
X55.372Y-202.277
X56.134Y-157.653
X56.134Y-165.273
X57.11Y-152.065
X57.404Y-168.581
X57.404Y-173.581
X58.674Y-125.943
X58.674Y-130.943
X58.674Y-157.653
X58.674Y-165.273
X59.182Y-87.335
X59.182Y-92.335
X59.69Y-182.291
X59.69Y-192.451
X60.452Y-109.219
X60.452Y-114.219
X60.96Y-47.671
X60.96Y-57.831
X61.214Y-157.653
X61.214Y-165.273
X61.214Y-168.829
X61.214Y-178.989
X61.468Y-139.365
X61.468Y-149.525
X62.738Y-95.931
X62.738Y-106.091
X62.738Y-118.791
X62.738Y-128.951
X62.992Y-71.801
X62.992Y-186.141
X62.992Y-191.141
X63.026Y-68.719
X63.754Y-84.287
X63.754Y-89.287
X63.754Y-157.653
X63.754Y-165.273
X64.516Y-60.371
X65.024Y-168.829
X65.024Y-178.989
X65.024Y-202.865
X65.532Y-136.571
X65.532Y-146.731
X66.045Y-48.926
X66.045Y-56.546
X66.12Y-114.219
X66.279Y-186.086
X66.279Y-193.706
X66.294Y-157.653
X66.294Y-165.273
X66.548Y-94.661
X66.548Y-104.821
X66.548Y-118.791
X66.548Y-128.951
X67.818Y-84.247
X67.818Y-89.247
X68.585Y-48.926
X68.585Y-56.546
X68.819Y-186.086
X68.819Y-193.706
X68.834Y-30.145
X68.834Y-40.305
X68.834Y-157.653
X68.834Y-165.273
X68.909Y-64.181
X69.088Y-139.365
X69.088Y-149.525
X69.088Y-207.945
X70.358Y-94.661
X70.358Y-104.821
X70.358Y-118.791
X70.358Y-128.951
X71.12Y-114.219
X71.125Y-48.926
X71.125Y-56.546
X71.359Y-186.086
X71.359Y-193.706
X71.636Y-34.463
X72.625Y-42.845
X72.644Y-168.287
X72.644Y-178.447
X73.152Y-71.801
X73.186Y-68.719
X73.66Y-137.079
X73.66Y-147.239
X73.665Y-48.926
X73.665Y-56.546
X73.899Y-186.086
X73.899Y-193.706
X73.909Y-64.181
X73.914Y-84.501
X73.914Y-89.581
X74.168Y-94.661
X74.168Y-104.821
X74.168Y-118.791
X74.168Y-128.951
X74.176Y-31.923
X74.176Y-37.003
X74.676Y-60.371
X75.184Y-202.865
X76.205Y-48.926
X76.205Y-56.546
X76.439Y-186.086
X76.439Y-193.706
X76.454Y-87.041
X76.534Y-198.801
X77.625Y-42.845
X78.232Y-161.463
X78.486Y-135.047
X78.486Y-145.207
X78.732Y-60.879
X78.732Y-65.959
X78.745Y-48.926
X78.745Y-56.546
X78.979Y-186.086
X78.979Y-193.706
X79.24Y-152.319
X79.24Y-157.399
X79.248Y-207.945
X80.518Y-34.249
X80.518Y-39.249
X81.066Y-82.723
X81.272Y-63.419
X81.285Y-48.926
X81.285Y-56.546
X81.519Y-186.086
X81.519Y-193.706
X81.534Y-198.801
X81.78Y-154.859
X82.042Y-86.787
X82.042Y-102.027
X84.059Y-186.086
X84.059Y-193.706
X85.09Y-31.161
X85.09Y-41.321
X85.09Y-109.276
X85.09Y-114.276
X85.852Y-86.787
X85.852Y-102.027
X86.066Y-82.723
X86.36Y-46.909
X86.36Y-57.069
X86.36Y-152.359
X86.36Y-157.359
X88.392Y-33.741
X88.392Y-38.741
X88.392Y-161.463
X89.956Y-45.893
X90.668Y-122.85
X90.668Y-138.09
X90.932Y-108.925
X90.932Y-113.925
X91.186Y-50.465
X91.186Y-60.625
X91.44Y-29.891
X91.44Y-40.051
X91.943Y-186.121
X91.943Y-201.361
X93.208Y-122.85
X93.208Y-138.09
X94.483Y-186.121
X94.483Y-201.361
X94.742Y-69.809
X94.742Y-74.809
X94.757Y-106.106
X94.757Y-113.726
X94.782Y-40.305
X94.782Y-60.117
X94.956Y-45.893
X95.748Y-122.85
X95.748Y-138.09
X97.023Y-186.121
X97.023Y-201.361
X97.297Y-106.106
X97.297Y-113.726
X97.536Y-81.061
X97.536Y-86.061
X98.288Y-122.85
X98.288Y-138.09
X99.563Y-186.121
X99.563Y-201.361
X99.782Y-40.305
X99.782Y-60.117
X99.837Y-106.106
X99.837Y-113.726
X100.33Y-72.817
X100.828Y-122.85
X100.828Y-138.09
X101.854Y-142.159
X102.103Y-186.121
X102.103Y-201.361
X102.377Y-106.106
X102.377Y-113.726
X103.368Y-122.85
X103.368Y-138.09
X104.643Y-186.121
X104.643Y-201.361
X104.917Y-106.106
X104.917Y-113.726
X105.156Y-146.477
X105.908Y-122.85
X105.908Y-138.09
X106.172Y-83.359
X106.172Y-88.359
X107.183Y-186.121
X107.183Y-201.361
X107.457Y-106.106
X107.457Y-113.726
X107.552Y-58.339
X108.448Y-122.85
X108.448Y-138.09
X108.712Y-47.457
X108.712Y-52.457
X109.474Y-64.475
X109.474Y-69.475
X109.723Y-186.121
X109.723Y-201.361
X109.997Y-106.106
X109.997Y-113.726
X110.052Y-58.339
X110.49Y-72.817
X110.988Y-122.85
X110.988Y-138.09
X112.014Y-83.739
X112.014Y-88.739
X112.263Y-186.121
X112.263Y-201.361
X112.537Y-106.106
X112.537Y-113.726
X113.528Y-122.85
X113.528Y-138.09
X114.803Y-186.121
X114.803Y-201.361
X115.824Y-83.779
X115.824Y-88.779
X116.068Y-122.85
X116.068Y-138.09
X117.094Y-142.159
X117.343Y-186.121
X117.343Y-201.361
X118.608Y-122.85
X118.608Y-138.09
X119.38Y-46.441
X119.38Y-51.441
X119.38Y-58.847
X119.38Y-63.847
X119.38Y-71.333
X119.38Y-76.333
X119.634Y-83.779
X119.634Y-88.779
X119.883Y-186.121
X119.883Y-201.361
X120.396Y-146.477
X121.148Y-122.85
X121.148Y-138.09
X121.158Y-213.533
X122.423Y-186.121
X122.423Y-201.361
X123.484Y-28.367
X123.688Y-122.85
X123.688Y-138.09
X123.937Y-44.1
X123.937Y-51.72
X123.937Y-56.551
X123.937Y-64.171
X123.937Y-69.002
X123.937Y-76.622
X123.937Y-81.453
X123.937Y-89.073
X124.963Y-186.121
X124.963Y-201.361
X126.233Y-97.455
X126.233Y-112.695
X126.477Y-44.1
X126.477Y-51.72
X126.477Y-56.551
X126.477Y-64.171
X126.477Y-69.002
X126.477Y-76.622
X126.477Y-81.453
X126.477Y-89.073
X127.503Y-186.121
X127.503Y-201.361
X127.796Y-154.645
X127.796Y-159.645
X128.484Y-28.367
X128.773Y-97.455
X128.773Y-112.695
X129.017Y-44.1
X129.017Y-51.72
X129.017Y-56.551
X129.017Y-64.171
X129.017Y-69.002
X129.017Y-76.622
X129.017Y-81.453
X129.017Y-89.073
X130.043Y-186.121
X130.043Y-201.361
X130.8Y-122.586
X130.8Y-130.206
X130.8Y-136.048
X130.8Y-143.668
X131.098Y-154.645
X131.098Y-159.645
X131.313Y-97.455
X131.313Y-112.695
X131.318Y-213.533
X131.557Y-44.1
X131.557Y-51.72
X131.557Y-56.551
X131.557Y-64.171
X131.557Y-69.002
X131.557Y-76.622
X131.557Y-81.453
X131.557Y-89.073
X132.583Y-186.121
X132.583Y-201.361
X133.34Y-122.586
X133.34Y-130.206
X133.34Y-136.048
X133.34Y-143.668
X133.853Y-97.455
X133.853Y-112.695
X134.097Y-44.1
X134.097Y-51.72
X134.097Y-56.551
X134.097Y-64.171
X134.097Y-69.002
X134.097Y-76.622
X134.097Y-81.453
X134.097Y-89.073
X134.879Y-152.05
X134.879Y-159.67
X135.123Y-186.121
X135.123Y-201.361
X135.88Y-122.586
X135.88Y-130.206
X135.88Y-136.048
X135.88Y-143.668
X136.393Y-97.455
X136.393Y-112.695
X136.637Y-44.1
X136.637Y-51.72
X136.637Y-56.551
X136.637Y-64.171
X136.637Y-69.002
X136.637Y-76.622
X136.637Y-81.453
X136.637Y-89.073
X137.419Y-152.05
X137.419Y-159.67
X137.663Y-186.121
X137.663Y-201.361
X138.42Y-122.586
X138.42Y-130.206
X138.42Y-136.048
X138.42Y-143.668
X138.933Y-97.455
X138.933Y-112.695
X139.177Y-44.1
X139.177Y-51.72
X139.177Y-56.551
X139.177Y-64.171
X139.177Y-69.002
X139.177Y-76.622
X139.177Y-81.453
X139.177Y-89.073
X139.959Y-152.05
X139.959Y-159.67
X140.203Y-186.121
X140.203Y-201.361
X140.96Y-122.586
X140.96Y-130.206
X140.96Y-136.048
X140.96Y-143.668
X141.473Y-97.455
X141.473Y-112.695
X141.717Y-44.1
X141.717Y-51.72
X141.717Y-56.551
X141.717Y-64.171
X141.717Y-69.002
X141.717Y-76.622
X141.717Y-81.453
X141.717Y-89.073
X142.499Y-152.05
X142.499Y-159.67
X143.5Y-122.586
X143.5Y-130.206
X143.5Y-136.048
X143.5Y-143.668
X144.013Y-97.455
X144.013Y-112.695
X145.039Y-152.05
X145.039Y-159.67
X146.04Y-122.586
X146.04Y-130.206
X146.04Y-136.048
X146.04Y-143.668
X146.05Y-46.909
X146.05Y-51.909
X146.304Y-59.395
X146.304Y-64.395
X146.304Y-71.841
X146.304Y-76.841
X146.338Y-84.247
X146.338Y-89.247
X146.553Y-97.455
X146.553Y-112.695
X146.812Y-162.733
X147.579Y-152.05
X147.579Y-159.67
X148.58Y-122.586
X148.58Y-130.206
X148.58Y-136.048
X148.58Y-143.668
X149.093Y-97.455
X149.093Y-112.695
X150.119Y-152.05
X150.119Y-159.67
X150.622Y-44.115
X150.622Y-49.115
X150.622Y-56.601
X150.622Y-61.601
X150.622Y-69.047
X150.622Y-74.047
X150.622Y-81.493
X150.622Y-86.493
X150.622Y-188.133
X150.622Y-198.293
X151.12Y-122.586
X151.12Y-130.206
X151.12Y-136.048
X151.12Y-143.668
X151.633Y-97.455
X151.633Y-112.695
X153.924Y-93.137
X154.173Y-97.455
X154.173Y-112.695
X154.94Y-187.117
X154.94Y-197.277
X155.687Y-121.062
X155.687Y-128.682
X155.956Y-81.453
X155.956Y-89.073
X155.971Y-44.1
X155.971Y-51.72
X155.971Y-56.551
X155.971Y-64.171
X155.971Y-69.002
X155.971Y-76.622
X156.713Y-97.455
X156.713Y-112.695
X156.718Y-138.897
X156.718Y-143.897
X158.227Y-121.062
X158.227Y-128.682
X158.496Y-81.453
X158.496Y-89.073
X158.496Y-181.529
X158.496Y-191.689
X158.496Y-197.023
X158.496Y-207.183
X158.511Y-44.1
X158.511Y-51.72
X158.511Y-56.551
X158.511Y-64.171
X158.511Y-69.002
X158.511Y-76.622
X159.004Y-149.779
X159.004Y-159.939
X159.253Y-97.455
X159.253Y-112.695
X160.528Y-136.825
X160.767Y-121.062
X160.767Y-128.682
X161.036Y-81.453
X161.036Y-89.073
X161.044Y-144.953
X161.051Y-44.1
X161.051Y-51.72
X161.051Y-56.551
X161.051Y-64.171
X161.051Y-69.002
X161.051Y-76.622
X161.544Y-168.321
X161.544Y-173.321
X161.793Y-97.455
X161.793Y-112.695
X162.052Y-162.733
X162.092Y-157.907
X162.132Y-154.351
X162.56Y-197.023
X162.56Y-207.183
X163.129Y-212.771
X163.307Y-121.062
X163.307Y-128.682
X163.322Y-183.561
X163.322Y-191.181
X163.576Y-81.453
X163.576Y-89.073
X163.584Y-142.413
X163.584Y-147.493
X163.591Y-44.1
X163.591Y-51.72
X163.591Y-56.551
X163.591Y-64.171
X163.591Y-69.002
X163.591Y-76.622
X164.084Y-93.137
X164.333Y-97.455
X164.333Y-112.695
X164.592Y-177.465
X165.613Y-161.194
X165.613Y-168.814
X165.642Y-180.513
X165.847Y-121.062
X165.847Y-128.682
X165.862Y-183.561
X165.862Y-191.181
X166.116Y-81.453
X166.116Y-89.073
X166.131Y-44.1
X166.131Y-51.72
X166.131Y-56.551
X166.131Y-64.171
X166.131Y-69.002
X166.131Y-76.622
X166.873Y-97.455
X166.873Y-112.695
X166.878Y-149.525
X166.878Y-197.023
X166.878Y-207.183
X167.092Y-157.907
X167.132Y-139.873
X167.132Y-154.351
X167.53Y-173.147
X167.894Y-145.969
X168.129Y-212.771
X168.153Y-161.194
X168.153Y-168.814
X168.387Y-121.062
X168.387Y-128.682
X168.402Y-183.561
X168.402Y-191.181
X168.656Y-81.453
X168.656Y-89.073
X168.671Y-44.1
X168.671Y-51.72
X168.671Y-56.551
X168.671Y-64.171
X168.671Y-69.002
X168.671Y-76.622
X169.413Y-97.455
X169.413Y-112.695
X170.035Y-116.759
X170.434Y-142.921
X170.688Y-136.825
X170.693Y-161.194
X170.693Y-168.814
X170.927Y-121.062
X170.927Y-128.682
X170.942Y-183.561
X170.942Y-191.181
X171.196Y-81.453
X171.196Y-89.073
X171.211Y-44.1
X171.211Y-51.72
X171.211Y-56.551
X171.211Y-64.171
X171.211Y-69.002
X171.211Y-76.622
X171.45Y-194.229
X171.953Y-97.455
X171.953Y-112.695
X172.41Y-173.147
X172.535Y-116.759
X173.014Y-157.907
X173.233Y-161.194
X173.233Y-168.814
X173.467Y-121.062
X173.467Y-128.682
X173.482Y-183.561
X173.482Y-191.181
X173.482Y-202.611
X173.482Y-212.771
X173.736Y-81.453
X173.736Y-89.073
X173.751Y-44.1
X173.751Y-51.72
X173.751Y-56.551
X173.751Y-64.171
X173.751Y-69.002
X173.751Y-76.622
X174.493Y-97.455
X174.493Y-112.695
X174.498Y-197.277
X174.752Y-177.465
X175.434Y-142.921
X175.773Y-161.194
X175.773Y-168.814
X175.802Y-180.513
X176.022Y-183.561
X176.022Y-191.181
X176.53Y-136.825
X177.038Y-149.525
X177.292Y-139.873
X178.014Y-157.907
X178.054Y-145.969
X178.313Y-161.194
X178.313Y-168.814
X178.562Y-173.695
X178.562Y-178.695
X178.562Y-183.561
X178.562Y-191.181
X178.816Y-46.695
X178.816Y-51.695
X178.816Y-59.141
X178.816Y-64.141
X178.816Y-71.587
X178.816Y-76.587
X178.816Y-84.033
X178.816Y-89.033
X179.324Y-118.791
X179.324Y-128.951
X180.853Y-161.194
X180.853Y-168.814
X181.53Y-136.825
X181.61Y-194.229
X182.88Y-101.011
X182.88Y-111.171
X183.134Y-184.871
X183.134Y-189.871
X183.422Y-118.757
X183.422Y-128.917
X184.658Y-197.277
T3
X50.546Y-192.451
X57.594Y-84.196
X58.42Y-205.913
X59.944Y-205.913
X65.532Y-144.445
X76.234Y-162.445
X79.917Y-93.23
X81.788Y-71.547
X83.566Y-143.937
X87.664Y-96.151
X88.392Y-164.003
X88.68Y-86.499
X98.044Y-179.243
X150.402Y-165.29
X150.402Y-179.463
X172.026Y-147.747
T4
X31.922Y-47.824
X31.922Y-50.594
X31.922Y-53.364
X31.922Y-56.134
X31.922Y-138.756
X31.922Y-141.526
X31.922Y-144.296
X31.922Y-147.066
X34.762Y-46.439
X34.762Y-49.209
X34.762Y-51.979
X34.762Y-54.749
X34.762Y-57.519
X34.762Y-137.371
X34.762Y-140.141
X34.762Y-142.911
X34.762Y-145.681
X34.762Y-148.451
X43.038Y-171.115
X50.658Y-171.115
X90.17Y-90.455
X90.17Y-98.075
X95.25Y-90.455
X95.25Y-98.075
X99.568Y-47.051
X99.568Y-54.671
X100.442Y-93.391
X104.14Y-46.162
X104.14Y-48.702
X104.14Y-51.242
X104.14Y-53.782
X104.14Y-56.322
X104.14Y-58.862
X104.14Y-61.402
X104.14Y-63.942
X108.062Y-93.391
X111.872Y-93.391
X119.492Y-93.391
X130.952Y-34.971
X138.572Y-34.971
X146.416Y-29.637
X154.036Y-29.637
X168.036Y-132.761
X169.814Y-153.589
X175.656Y-132.761
X177.434Y-153.589
X179.578Y-203.341
X179.578Y-205.373
X179.578Y-207.405
X184.658Y-203.341
X184.658Y-205.373
X184.658Y-207.405
T5
X43.688Y-176.703
X43.688Y-202.103
X50.292Y-176.703
X50.292Y-202.103
X98.044Y-170.099
X98.044Y-174.925
X100.584Y-170.099
X100.584Y-174.925
X103.124Y-170.099
X103.124Y-174.925
X105.664Y-170.099
X105.664Y-174.925
X108.204Y-170.099
X108.204Y-174.925
X110.744Y-170.099
X110.744Y-174.925
X113.284Y-170.099
X113.284Y-174.925
X115.824Y-170.099
X115.824Y-174.925
X118.364Y-170.099
X118.364Y-174.925
X120.904Y-170.099
X120.904Y-174.925
X123.444Y-170.099
X123.444Y-174.925
X125.984Y-170.099
X125.984Y-174.925
X128.524Y-170.099
X128.524Y-174.925
X131.064Y-170.099
X131.064Y-174.925
X133.604Y-170.099
X133.604Y-174.925
T6
X27.813Y-204.294
X36.449Y-204.294
X182.118Y-203.341
X182.118Y-207.405
T7
X28.597Y-167.461
X28.597Y-171.421
X28.597Y-175.381
X28.597Y-179.341
T8
X104.174Y-42.049
X104.174Y-67.957
T9
X177.292Y-205.373
X186.944Y-205.373
T10
X33.342Y-39.479
X33.342Y-64.479
X33.342Y-130.411
X33.342Y-155.411
T11
X89.474Y-172.5
X142.174Y-172.5
T12
X50.834Y-72.021
T13
X37.338Y-29.891
X51.562Y-213.787
X115.858Y-158.889
X181.898Y-220.103
X183.168Y-33.413
T2
G00X27.813Y-199.536
M15
G01X27.813Y-195.336
M16
G05
G00X27.813Y-213.252
M15
G01X27.813Y-209.052
M16
G05
G00X29.658Y-188.387
M15
G01X34.858Y-188.387
M16
G05
G00X29.658Y-220.137
M15
G01X34.858Y-220.137
M16
G05
G00X36.449Y-199.536
M15
G01X36.449Y-195.336
M16
G05
G00X36.449Y-213.252
M15
G01X36.449Y-209.052
M16
G05
G00X44.214Y-44.175
M15
G01X44.214Y-38.975
M16
G05
G00X51.248Y-78.677
M15
G01X56.448Y-78.677
M16
G05
G00X103.064Y-25.591
M15
G01X108.264Y-25.591
M16
G05
G00X103.064Y-78.659
M15
G01X108.264Y-78.659
M16
G05
G00X115.062Y-65.765
M15
G01X115.062Y-60.565
M16
G05
T0
M30
