M48
; DRILL file {KiCad 6.0.11-2627ca5db0~126~ubuntu22.04.1} date Wed 12 Apr 2023 03:51:29 PM EDT
; FORMAT={-:-/ absolute / metric / decimal}
; #@! TF.CreationDate,2023-04-12T15:51:29-04:00
; #@! TF.GenerationSoftware,Kicad,Pcbnew,6.0.11-2627ca5db0~126~ubuntu22.04.1
; #@! TF.FileFunction,Plated,1,2,PTH
FMAT,2
METRIC
; #@! TA.AperFunction,Plated,PTH,ViaDrill
T1C0.559
; #@! TA.AperFunction,Plated,PTH,ComponentDrill
T2C0.800
; #@! TA.AperFunction,Plated,PTH,ViaDrill
T3C0.813
; #@! TA.AperFunction,Plated,PTH,ComponentDrill
T4C1.000
; #@! TA.AperFunction,Plated,PTH,ComponentDrill
T5C1.100
; #@! TA.AperFunction,Plated,PTH,ComponentDrill
T6C1.500
; #@! TA.AperFunction,Plated,PTH,ComponentDrill
T7C1.700
; #@! TA.AperFunction,Plated,PTH,ComponentDrill
T8C2.000
; #@! TA.AperFunction,Plated,PTH,ComponentDrill
T9C2.200
; #@! TA.AperFunction,Plated,PTH,ComponentDrill
T10C2.250
; #@! TA.AperFunction,Plated,PTH,ComponentDrill
T11C3.200
; #@! TA.AperFunction,Plated,PTH,ComponentDrill
T12C3.250
; #@! TA.AperFunction,Plated,PTH,ComponentDrill
T13C4.300
; #@! TA.AperFunction,Plated,PTH,ComponentDrill
T14C6.400
%
G90
G05
T1
X25.908Y-126.885
X26.704Y-70.717
X27.974Y-69.701
X28.304Y-126.833
X30.487Y-124.819
X33.816Y-126.089
X36.068Y-126.123
X38.134Y-61.573
X38.862Y-126.123
X38.896Y-136.757
X38.896Y-146.663
X42.418Y-62.115
X42.456Y-126.275
X46.77Y-141.837
X46.77Y-147.933
X51.596Y-147.933
X53.34Y-144.665
X56.93Y-129.171
X65.058Y-126.597
X67.818Y-177.431
X68.172Y-174.483
X68.614Y-126.597
X70.358Y-175.653
X70.646Y-144.631
X71.447Y-82.616
X72.898Y-97.675
X73.406Y-111.137
X73.406Y-207.657
X73.44Y-113.135
X74.676Y-211.467
X76.454Y-121.805
X76.621Y-141.142
X77.008Y-177.178
X78.892Y-90.516
X78.994Y-92.341
X79.003Y-88.691
X81.314Y-172.063
X83.058Y-54.495
X85.903Y-162.919
X87.984Y-181.969
X88.01Y-99.611
X88.184Y-196.624
X88.873Y-194.93
X89.459Y-208.965
X90.905Y-217.844
X90.98Y-130.187
X91.05Y-116.92
X91.491Y-190.784
X91.694Y-84.721
X93.218Y-216.293
X93.218Y-218.325
X93.472Y-150.253
X93.726Y-130.187
X94.996Y-181.969
X95.424Y-127.479
X96.266Y-110.629
X96.266Y-158.381
X96.3Y-57.001
X96.559Y-117.8
X97.028Y-155.333
X97.536Y-167.821
X98.296Y-216.662
X98.452Y-208.115
X99.822Y-219.341
X99.881Y-214.224
X101.092Y-130.187
X102.108Y-181.969
X103.024Y-131.557
X103.85Y-219.885
X105.918Y-92.087
X106.172Y-189.369
X108.507Y-182.003
X108.966Y-189.369
X109.469Y-38.543
X109.474Y-36.715
X109.474Y-42.303
X109.474Y-40.372
X109.825Y-178.448
X110.046Y-213.943
X110.844Y-215.685
X115.316Y-179.666
X115.57Y-214.007
X115.57Y-216.293
X116.84Y-98.183
X120.142Y-114.896
X121.463Y-141.617
X122.677Y-212.986
X123.306Y-111.728
X124.206Y-98.945
X126.492Y-110.121
X126.492Y-213.245
X127.765Y-153.619
X129.032Y-110.121
X130.556Y-216.547
X130.81Y-152.793
X131.572Y-110.121
X131.826Y-94.119
X132.768Y-181.864
X133.223Y-195.084
X134.654Y-110.087
X135.924Y-167.745
X136.652Y-107.073
X136.855Y-217.768
X137.16Y-195.465
X137.702Y-167.745
X137.884Y-181.851
X138.176Y-93.865
X139.751Y-217.822
X139.954Y-196.989
X140.462Y-93.865
X141.097Y-166.128
X141.478Y-119.519
X143.295Y-178.843
X143.764Y-120.281
X145.034Y-196.989
X145.168Y-182.18
X145.288Y-62.853
X145.796Y-50.685
X145.796Y-105.549
X146.304Y-125.92
X146.558Y-185.736
X146.609Y-200.032
X146.796Y-177.431
X147.574Y-120.535
X147.574Y-140.601
X147.625Y-202.007
X147.928Y-170.219
X148.641Y-195.619
X148.878Y-109.579
X150.622Y-209.994
X151.291Y-116.818
X153.416Y-192.942
X153.924Y-131.457
X154.278Y-109.579
X155.736Y-132.693
X156.21Y-207.149
X156.718Y-148.475
X157.531Y-173.875
X157.715Y-209.718
X159.469Y-109.587
X159.73Y-213.209
X160.816Y-205.845
X160.884Y-193.687
X161.832Y-109.579
X162.697Y-201.782
X163.292Y-151.173
X163.974Y-135.631
X164.163Y-109.579
X165.007Y-205.21
X165.134Y-201.527
X166.37Y-152.793
X168.182Y-178.743
X168.351Y-135.741
X169.96Y-147.171
X171.704Y-106.057
X171.738Y-187.557
X173.008Y-152.759
X175.514Y-147.205
X177.038Y-56.781
X177.495Y-87.551
X178.054Y-68.973
X178.816Y-82.181
X179.07Y-111.391
X181.102Y-188.353
X181.813Y-125.615
X183.286Y-96.405
X183.286Y-98.983
T2
X31.242Y-85.991
X31.242Y-93.611
X31.242Y-108.851
X31.242Y-116.471
X31.496Y-72.529
X31.496Y-82.689
X33.782Y-85.991
X33.782Y-93.611
X33.782Y-108.851
X33.782Y-116.471
X34.036Y-121.297
X35.052Y-72.529
X35.052Y-82.689
X36.068Y-174.423
X36.068Y-179.423
X36.322Y-85.991
X36.322Y-93.611
X36.322Y-108.851
X36.322Y-116.471
X36.576Y-121.297
X38.862Y-85.991
X38.862Y-93.611
X38.862Y-108.851
X38.862Y-116.471
X39.116Y-121.297
X39.116Y-167.057
X39.116Y-172.057
X39.116Y-176.709
X39.116Y-181.709
X40.386Y-64.411
X40.386Y-66.951
X40.386Y-69.491
X40.386Y-72.031
X40.386Y-74.571
X40.386Y-77.111
X40.386Y-79.651
X40.386Y-82.191
X41.402Y-85.991
X41.402Y-93.611
X41.402Y-108.851
X41.402Y-116.471
X41.656Y-121.297
X43.942Y-85.991
X43.942Y-93.611
X43.942Y-108.851
X43.942Y-116.471
X44.196Y-121.297
X46.482Y-85.991
X46.482Y-93.611
X46.482Y-108.851
X46.482Y-116.471
X46.482Y-155.881
X46.482Y-160.881
X46.736Y-121.297
X49.022Y-85.991
X49.022Y-93.611
X49.022Y-108.851
X49.022Y-116.471
X49.276Y-121.297
X51.562Y-85.991
X51.562Y-93.611
X51.562Y-108.851
X51.562Y-116.471
X51.816Y-121.297
X52.364Y-153.047
X53.848Y-158.635
X53.848Y-166.255
X54.102Y-85.991
X54.102Y-93.611
X54.102Y-108.851
X54.102Y-116.471
X54.864Y-126.925
X54.864Y-131.925
X55.626Y-141.871
X55.626Y-146.871
X55.626Y-180.733
X55.626Y-185.733
X55.626Y-189.409
X55.626Y-194.409
X55.626Y-198.259
X55.626Y-203.259
X56.388Y-158.635
X56.388Y-166.255
X57.364Y-153.047
X57.658Y-169.563
X57.658Y-174.563
X58.928Y-126.925
X58.928Y-131.925
X58.928Y-158.635
X58.928Y-166.255
X59.436Y-88.317
X59.436Y-93.317
X59.944Y-183.273
X59.944Y-193.433
X60.706Y-110.201
X60.706Y-115.201
X61.214Y-48.653
X61.214Y-58.813
X61.468Y-158.635
X61.468Y-166.255
X61.468Y-169.811
X61.468Y-179.971
X61.722Y-140.347
X61.722Y-150.507
X62.992Y-96.913
X62.992Y-107.073
X62.992Y-119.773
X62.992Y-129.933
X63.246Y-72.783
X63.246Y-187.123
X63.246Y-192.123
X63.28Y-69.701
X64.008Y-85.269
X64.008Y-90.269
X64.008Y-158.635
X64.008Y-166.255
X64.77Y-61.353
X65.278Y-169.811
X65.278Y-179.971
X65.278Y-203.847
X65.786Y-137.553
X65.786Y-147.713
X66.299Y-49.908
X66.299Y-57.528
X66.374Y-115.201
X66.533Y-187.068
X66.533Y-194.688
X66.548Y-158.635
X66.548Y-166.255
X66.802Y-95.643
X66.802Y-105.803
X66.802Y-119.773
X66.802Y-129.933
X68.072Y-85.229
X68.072Y-90.229
X68.839Y-49.908
X68.839Y-57.528
X69.073Y-187.068
X69.073Y-194.688
X69.088Y-31.127
X69.088Y-41.287
X69.088Y-158.635
X69.088Y-166.255
X69.163Y-65.163
X69.342Y-140.347
X69.342Y-150.507
X69.342Y-208.927
X70.612Y-95.643
X70.612Y-105.803
X70.612Y-119.773
X70.612Y-129.933
X71.374Y-115.201
X71.379Y-49.908
X71.379Y-57.528
X71.613Y-187.068
X71.613Y-194.688
X71.89Y-35.445
X72.879Y-43.827
X72.898Y-169.269
X72.898Y-179.429
X73.406Y-72.783
X73.44Y-69.701
X73.914Y-138.061
X73.914Y-148.221
X73.919Y-49.908
X73.919Y-57.528
X74.153Y-187.068
X74.153Y-194.688
X74.163Y-65.163
X74.168Y-85.483
X74.168Y-90.563
X74.422Y-95.643
X74.422Y-105.803
X74.422Y-119.773
X74.422Y-129.933
X74.43Y-32.905
X74.43Y-37.985
X74.93Y-61.353
X75.438Y-203.847
X76.459Y-49.908
X76.459Y-57.528
X76.693Y-187.068
X76.693Y-194.688
X76.708Y-88.023
X76.788Y-199.783
X77.879Y-43.827
X78.486Y-162.445
X78.74Y-136.029
X78.74Y-146.189
X78.986Y-61.861
X78.986Y-66.941
X78.999Y-49.908
X78.999Y-57.528
X79.233Y-187.068
X79.233Y-194.688
X79.494Y-153.301
X79.494Y-158.381
X79.502Y-208.927
X80.772Y-35.231
X80.772Y-40.231
X81.32Y-83.705
X81.526Y-64.401
X81.539Y-49.908
X81.539Y-57.528
X81.773Y-187.068
X81.773Y-194.688
X81.788Y-199.783
X82.034Y-155.841
X82.296Y-87.769
X82.296Y-103.009
X84.313Y-187.068
X84.313Y-194.688
X85.344Y-32.143
X85.344Y-42.303
X85.344Y-110.258
X85.344Y-115.258
X86.106Y-87.769
X86.106Y-103.009
X86.32Y-83.705
X86.614Y-47.891
X86.614Y-58.051
X86.614Y-153.341
X86.614Y-158.341
X88.646Y-34.723
X88.646Y-39.723
X88.646Y-162.445
X90.21Y-46.875
X90.922Y-123.832
X90.922Y-139.072
X91.186Y-109.907
X91.186Y-114.907
X91.44Y-51.447
X91.44Y-61.607
X91.694Y-30.873
X91.694Y-41.033
X92.197Y-187.103
X92.197Y-202.343
X93.462Y-123.832
X93.462Y-139.072
X94.737Y-187.103
X94.737Y-202.343
X94.996Y-70.791
X94.996Y-75.791
X95.011Y-107.088
X95.011Y-114.708
X95.036Y-41.287
X95.036Y-61.099
X95.21Y-46.875
X96.002Y-123.832
X96.002Y-139.072
X97.277Y-187.103
X97.277Y-202.343
X97.551Y-107.088
X97.551Y-114.708
X97.79Y-82.043
X97.79Y-87.043
X98.542Y-123.832
X98.542Y-139.072
X99.817Y-187.103
X99.817Y-202.343
X100.036Y-41.287
X100.036Y-61.099
X100.091Y-107.088
X100.091Y-114.708
X100.584Y-73.799
X101.082Y-123.832
X101.082Y-139.072
X102.108Y-143.141
X102.357Y-187.103
X102.357Y-202.343
X102.631Y-107.088
X102.631Y-114.708
X103.622Y-123.832
X103.622Y-139.072
X104.897Y-187.103
X104.897Y-202.343
X105.171Y-107.088
X105.171Y-114.708
X105.41Y-147.459
X106.162Y-123.832
X106.162Y-139.072
X106.426Y-84.341
X106.426Y-89.341
X107.437Y-187.103
X107.437Y-202.343
X107.711Y-107.088
X107.711Y-114.708
X107.806Y-59.321
X108.702Y-123.832
X108.702Y-139.072
X108.966Y-48.439
X108.966Y-53.439
X109.728Y-65.457
X109.728Y-70.457
X109.977Y-187.103
X109.977Y-202.343
X110.251Y-107.088
X110.251Y-114.708
X110.306Y-59.321
X110.744Y-73.799
X111.242Y-123.832
X111.242Y-139.072
X112.268Y-84.721
X112.268Y-89.721
X112.517Y-187.103
X112.517Y-202.343
X112.791Y-107.088
X112.791Y-114.708
X113.782Y-123.832
X113.782Y-139.072
X115.057Y-187.103
X115.057Y-202.343
X116.078Y-84.761
X116.078Y-89.761
X116.322Y-123.832
X116.322Y-139.072
X117.348Y-143.141
X117.597Y-187.103
X117.597Y-202.343
X118.862Y-123.832
X118.862Y-139.072
X119.634Y-47.423
X119.634Y-52.423
X119.634Y-59.829
X119.634Y-64.829
X119.634Y-72.315
X119.634Y-77.315
X119.888Y-84.761
X119.888Y-89.761
X120.137Y-187.103
X120.137Y-202.343
X120.65Y-147.459
X121.402Y-123.832
X121.402Y-139.072
X121.412Y-214.515
X122.677Y-187.103
X122.677Y-202.343
X123.738Y-29.349
X123.942Y-123.832
X123.942Y-139.072
X124.191Y-45.082
X124.191Y-52.702
X124.191Y-57.533
X124.191Y-65.153
X124.191Y-69.984
X124.191Y-77.604
X124.191Y-82.435
X124.191Y-90.055
X125.217Y-187.103
X125.217Y-202.343
X126.487Y-98.437
X126.487Y-113.677
X126.731Y-45.082
X126.731Y-52.702
X126.731Y-57.533
X126.731Y-65.153
X126.731Y-69.984
X126.731Y-77.604
X126.731Y-82.435
X126.731Y-90.055
X127.757Y-187.103
X127.757Y-202.343
X128.05Y-155.627
X128.05Y-160.627
X128.738Y-29.349
X129.027Y-98.437
X129.027Y-113.677
X129.271Y-45.082
X129.271Y-52.702
X129.271Y-57.533
X129.271Y-65.153
X129.271Y-69.984
X129.271Y-77.604
X129.271Y-82.435
X129.271Y-90.055
X130.297Y-187.103
X130.297Y-202.343
X131.054Y-123.568
X131.054Y-131.188
X131.054Y-137.03
X131.054Y-144.65
X131.352Y-155.627
X131.352Y-160.627
X131.567Y-98.437
X131.567Y-113.677
X131.572Y-214.515
X131.811Y-45.082
X131.811Y-52.702
X131.811Y-57.533
X131.811Y-65.153
X131.811Y-69.984
X131.811Y-77.604
X131.811Y-82.435
X131.811Y-90.055
X132.837Y-187.103
X132.837Y-202.343
X133.594Y-123.568
X133.594Y-131.188
X133.594Y-137.03
X133.594Y-144.65
X134.107Y-98.437
X134.107Y-113.677
X134.351Y-45.082
X134.351Y-52.702
X134.351Y-57.533
X134.351Y-65.153
X134.351Y-69.984
X134.351Y-77.604
X134.351Y-82.435
X134.351Y-90.055
X135.133Y-153.032
X135.133Y-160.652
X135.377Y-187.103
X135.377Y-202.343
X136.134Y-123.568
X136.134Y-131.188
X136.134Y-137.03
X136.134Y-144.65
X136.647Y-98.437
X136.647Y-113.677
X136.891Y-45.082
X136.891Y-52.702
X136.891Y-57.533
X136.891Y-65.153
X136.891Y-69.984
X136.891Y-77.604
X136.891Y-82.435
X136.891Y-90.055
X137.673Y-153.032
X137.673Y-160.652
X137.917Y-187.103
X137.917Y-202.343
X138.674Y-123.568
X138.674Y-131.188
X138.674Y-137.03
X138.674Y-144.65
X139.187Y-98.437
X139.187Y-113.677
X139.431Y-45.082
X139.431Y-52.702
X139.431Y-57.533
X139.431Y-65.153
X139.431Y-69.984
X139.431Y-77.604
X139.431Y-82.435
X139.431Y-90.055
X140.213Y-153.032
X140.213Y-160.652
X140.457Y-187.103
X140.457Y-202.343
X141.214Y-123.568
X141.214Y-131.188
X141.214Y-137.03
X141.214Y-144.65
X141.727Y-98.437
X141.727Y-113.677
X141.971Y-45.082
X141.971Y-52.702
X141.971Y-57.533
X141.971Y-65.153
X141.971Y-69.984
X141.971Y-77.604
X141.971Y-82.435
X141.971Y-90.055
X142.753Y-153.032
X142.753Y-160.652
X143.754Y-123.568
X143.754Y-131.188
X143.754Y-137.03
X143.754Y-144.65
X144.267Y-98.437
X144.267Y-113.677
X145.293Y-153.032
X145.293Y-160.652
X146.294Y-123.568
X146.294Y-131.188
X146.294Y-137.03
X146.294Y-144.65
X146.304Y-47.891
X146.304Y-52.891
X146.558Y-60.377
X146.558Y-65.377
X146.558Y-72.823
X146.558Y-77.823
X146.592Y-85.229
X146.592Y-90.229
X146.807Y-98.437
X146.807Y-113.677
X147.066Y-163.715
X147.833Y-153.032
X147.833Y-160.652
X148.834Y-123.568
X148.834Y-131.188
X148.834Y-137.03
X148.834Y-144.65
X149.347Y-98.437
X149.347Y-113.677
X150.373Y-153.032
X150.373Y-160.652
X150.876Y-45.097
X150.876Y-50.097
X150.876Y-57.583
X150.876Y-62.583
X150.876Y-70.029
X150.876Y-75.029
X150.876Y-82.475
X150.876Y-87.475
X150.876Y-189.115
X150.876Y-199.275
X151.374Y-123.568
X151.374Y-131.188
X151.374Y-137.03
X151.374Y-144.65
X151.887Y-98.437
X151.887Y-113.677
X154.178Y-94.119
X154.427Y-98.437
X154.427Y-113.677
X155.194Y-188.099
X155.194Y-198.259
X155.941Y-122.044
X155.941Y-129.664
X156.21Y-82.435
X156.21Y-90.055
X156.225Y-45.082
X156.225Y-52.702
X156.225Y-57.533
X156.225Y-65.153
X156.225Y-69.984
X156.225Y-77.604
X156.967Y-98.437
X156.967Y-113.677
X156.972Y-139.879
X156.972Y-144.879
X158.481Y-122.044
X158.481Y-129.664
X158.75Y-82.435
X158.75Y-90.055
X158.75Y-182.511
X158.75Y-192.671
X158.75Y-198.005
X158.75Y-208.165
X158.765Y-45.082
X158.765Y-52.702
X158.765Y-57.533
X158.765Y-65.153
X158.765Y-69.984
X158.765Y-77.604
X159.258Y-150.761
X159.258Y-160.921
X159.507Y-98.437
X159.507Y-113.677
X160.782Y-137.807
X161.021Y-122.044
X161.021Y-129.664
X161.29Y-82.435
X161.29Y-90.055
X161.298Y-145.935
X161.305Y-45.082
X161.305Y-52.702
X161.305Y-57.533
X161.305Y-65.153
X161.305Y-69.984
X161.305Y-77.604
X161.798Y-169.303
X161.798Y-174.303
X162.047Y-98.437
X162.047Y-113.677
X162.306Y-163.715
X162.346Y-158.889
X162.386Y-155.333
X162.814Y-198.005
X162.814Y-208.165
X163.383Y-213.753
X163.561Y-122.044
X163.561Y-129.664
X163.576Y-184.543
X163.576Y-192.163
X163.83Y-82.435
X163.83Y-90.055
X163.838Y-143.395
X163.838Y-148.475
X163.845Y-45.082
X163.845Y-52.702
X163.845Y-57.533
X163.845Y-65.153
X163.845Y-69.984
X163.845Y-77.604
X164.338Y-94.119
X164.587Y-98.437
X164.587Y-113.677
X164.846Y-178.447
X165.867Y-162.176
X165.867Y-169.796
X165.896Y-181.495
X166.101Y-122.044
X166.101Y-129.664
X166.116Y-184.543
X166.116Y-192.163
X166.37Y-82.435
X166.37Y-90.055
X166.385Y-45.082
X166.385Y-52.702
X166.385Y-57.533
X166.385Y-65.153
X166.385Y-69.984
X166.385Y-77.604
X167.127Y-98.437
X167.127Y-113.677
X167.132Y-150.507
X167.132Y-198.005
X167.132Y-208.165
X167.346Y-158.889
X167.386Y-140.855
X167.386Y-155.333
X167.784Y-174.129
X168.148Y-146.951
X168.383Y-213.753
X168.407Y-162.176
X168.407Y-169.796
X168.641Y-122.044
X168.641Y-129.664
X168.656Y-184.543
X168.656Y-192.163
X168.91Y-82.435
X168.91Y-90.055
X168.925Y-45.082
X168.925Y-52.702
X168.925Y-57.533
X168.925Y-65.153
X168.925Y-69.984
X168.925Y-77.604
X169.667Y-98.437
X169.667Y-113.677
X170.289Y-117.741
X170.688Y-143.903
X170.942Y-137.807
X170.947Y-162.176
X170.947Y-169.796
X171.181Y-122.044
X171.181Y-129.664
X171.196Y-184.543
X171.196Y-192.163
X171.45Y-82.435
X171.45Y-90.055
X171.465Y-45.082
X171.465Y-52.702
X171.465Y-57.533
X171.465Y-65.153
X171.465Y-69.984
X171.465Y-77.604
X171.704Y-195.211
X172.207Y-98.437
X172.207Y-113.677
X172.664Y-174.129
X172.789Y-117.741
X173.268Y-158.889
X173.487Y-162.176
X173.487Y-169.796
X173.721Y-122.044
X173.721Y-129.664
X173.736Y-184.543
X173.736Y-192.163
X173.736Y-203.593
X173.736Y-213.753
X173.99Y-82.435
X173.99Y-90.055
X174.005Y-45.082
X174.005Y-52.702
X174.005Y-57.533
X174.005Y-65.153
X174.005Y-69.984
X174.005Y-77.604
X174.747Y-98.437
X174.747Y-113.677
X174.752Y-198.259
X175.006Y-178.447
X175.688Y-143.903
X176.027Y-162.176
X176.027Y-169.796
X176.056Y-181.495
X176.276Y-184.543
X176.276Y-192.163
X176.784Y-137.807
X177.292Y-150.507
X177.546Y-140.855
X178.268Y-158.889
X178.308Y-146.951
X178.567Y-162.176
X178.567Y-169.796
X178.816Y-174.677
X178.816Y-179.677
X178.816Y-184.543
X178.816Y-192.163
X179.07Y-47.677
X179.07Y-52.677
X179.07Y-60.123
X179.07Y-65.123
X179.07Y-72.569
X179.07Y-77.569
X179.07Y-85.015
X179.07Y-90.015
X179.578Y-119.773
X179.578Y-129.933
X181.107Y-162.176
X181.107Y-169.796
X181.784Y-137.807
X181.864Y-195.211
X183.134Y-101.993
X183.134Y-112.153
X183.388Y-185.853
X183.388Y-190.853
X183.642Y-119.265
X183.642Y-129.425
X184.912Y-198.259
T3
X50.8Y-193.433
X57.848Y-85.178
X58.674Y-206.895
X60.198Y-206.895
X65.786Y-145.427
X80.171Y-94.212
X81.28Y-162.953
X82.042Y-72.529
X83.82Y-144.919
X87.918Y-97.133
X88.646Y-164.985
X88.934Y-87.481
X98.298Y-180.225
X150.656Y-180.445
X150.876Y-166.052
X173.066Y-148.637
T4
X32.176Y-48.806
X32.176Y-51.576
X32.176Y-54.346
X32.176Y-57.116
X32.176Y-139.738
X32.176Y-142.508
X32.176Y-145.278
X32.176Y-148.048
X35.016Y-47.421
X35.016Y-50.191
X35.016Y-52.961
X35.016Y-55.731
X35.016Y-58.501
X35.016Y-138.353
X35.016Y-141.123
X35.016Y-143.893
X35.016Y-146.663
X35.016Y-149.433
X43.292Y-172.097
X50.912Y-172.097
X90.424Y-91.437
X90.424Y-99.057
X95.504Y-91.437
X95.504Y-99.057
X99.822Y-48.033
X99.822Y-55.653
X100.696Y-94.373
X104.394Y-47.144
X104.394Y-49.684
X104.394Y-52.224
X104.394Y-54.764
X104.394Y-57.304
X104.394Y-59.844
X104.394Y-62.384
X104.394Y-64.924
X108.316Y-94.373
X112.126Y-94.373
X119.746Y-94.373
X131.206Y-35.953
X138.826Y-35.953
X146.67Y-30.619
X154.29Y-30.619
X168.29Y-133.743
X170.068Y-154.571
X175.91Y-133.743
X177.688Y-154.571
X179.832Y-204.323
X179.832Y-206.355
X179.832Y-208.387
X184.912Y-204.323
X184.912Y-206.355
X184.912Y-208.387
T5
X43.942Y-177.685
X43.942Y-203.085
X50.546Y-177.685
X50.546Y-203.085
X98.298Y-171.081
X98.298Y-175.907
X100.838Y-171.081
X100.838Y-175.907
X103.378Y-171.081
X103.378Y-175.907
X105.918Y-171.081
X105.918Y-175.907
X108.458Y-171.081
X108.458Y-175.907
X110.998Y-171.081
X110.998Y-175.907
X113.538Y-171.081
X113.538Y-175.907
X116.078Y-171.081
X116.078Y-175.907
X118.618Y-171.081
X118.618Y-175.907
X121.158Y-171.081
X121.158Y-175.907
X123.698Y-171.081
X123.698Y-175.907
X126.238Y-171.081
X126.238Y-175.907
X128.778Y-171.081
X128.778Y-175.907
X131.318Y-171.081
X131.318Y-175.907
X133.858Y-171.081
X133.858Y-175.907
T6
X182.372Y-204.323
X182.372Y-208.387
T7
X28.851Y-168.443
X28.851Y-172.403
X28.851Y-176.363
X28.851Y-180.323
T8
X28.067Y-205.276
X36.703Y-205.276
T9
X104.428Y-43.031
X104.428Y-68.939
T10
X177.546Y-206.355
X187.198Y-206.355
T11
X33.596Y-40.461
X33.596Y-65.461
X33.596Y-131.393
X33.596Y-156.393
T12
X89.728Y-173.482
X142.428Y-173.482
T13
X51.088Y-73.003
T14
X37.592Y-30.873
X51.816Y-214.769
X116.62Y-159.871
X182.152Y-221.085
X182.914Y-33.887
T8
G00X28.067Y-199.918
M15
G01X28.067Y-196.918
M16
G05
G00X28.067Y-213.634
M15
G01X28.067Y-210.634
M16
G05
G00X30.512Y-189.369
M15
G01X34.512Y-189.369
M16
G05
G00X30.512Y-221.119
M15
G01X34.512Y-221.119
M16
G05
G00X36.703Y-199.918
M15
G01X36.703Y-196.918
M16
G05
G00X36.703Y-213.634
M15
G01X36.703Y-210.634
M16
G05
G00X44.468Y-44.557
M15
G01X44.468Y-40.557
M16
G05
G00X52.102Y-79.659
M15
G01X56.102Y-79.659
M16
G05
G00X103.918Y-26.573
M15
G01X107.918Y-26.573
M16
G05
G00X103.918Y-79.641
M15
G01X107.918Y-79.641
M16
G05
G00X115.316Y-66.147
M15
G01X115.316Y-62.147
M16
G05
T0
M30
