%TF.GenerationSoftware,KiCad,Pcbnew,6.0.11-2627ca5db0~126~ubuntu22.04.1*%
%TF.CreationDate,2023-03-20T07:52:56-04:00*%
%TF.ProjectId,coleco_original_main_only,636f6c65-636f-45f6-9f72-6967696e616c,DEV*%
%TF.SameCoordinates,Original*%
%TF.FileFunction,Other,User*%
%FSLAX46Y46*%
G04 Gerber Fmt 4.6, Leading zero omitted, Abs format (unit mm)*
G04 Created by KiCad (PCBNEW 6.0.11-2627ca5db0~126~ubuntu22.04.1) date 2023-03-20 07:52:56*
%MOMM*%
%LPD*%
G01*
G04 APERTURE LIST*
%ADD10C,0.800000*%
G04 APERTURE END LIST*
D10*
X23114000Y-16903000D02*
X23114000Y-231533000D01*
X168402000Y-22237000D02*
X168148000Y-22237000D01*
X94996000Y-16903000D02*
X94996000Y-24015000D01*
X23114000Y-231787000D02*
X66802000Y-231787000D01*
X165862000Y-230517000D02*
X165862000Y-230771000D01*
X168656000Y-16903000D02*
X168402000Y-16903000D01*
X77216000Y-218833000D02*
X77216000Y-230771000D01*
X192532000Y-16903000D02*
X168656000Y-16903000D01*
X77216000Y-230517000D02*
X77216000Y-230771000D01*
X66802000Y-231787000D02*
X67564000Y-231025000D01*
X67564000Y-218833000D02*
X77216000Y-218833000D01*
X192532000Y-231787000D02*
X192532000Y-22745000D01*
X165862000Y-230771000D02*
X166878000Y-231787000D01*
X155702000Y-231533000D02*
X156464000Y-230771000D01*
X192532000Y-22745000D02*
X189484000Y-22745000D01*
X77978000Y-231533000D02*
X77216000Y-230771000D01*
X77978000Y-231533000D02*
X155702000Y-231533000D01*
X168402000Y-16903000D02*
X168402000Y-22237000D01*
X67564000Y-231025000D02*
X67564000Y-218833000D01*
X94996000Y-24015000D02*
X67056000Y-24015000D01*
X67056000Y-24015000D02*
X67056000Y-16903000D01*
X166878000Y-231787000D02*
X192532000Y-231787000D01*
X156464000Y-230771000D02*
X156464000Y-218579000D01*
X165862000Y-218579000D02*
X165862000Y-230517000D01*
X67056000Y-16903000D02*
X23114000Y-16903000D01*
X168148000Y-22237000D02*
X168148000Y-17157000D01*
X156464000Y-218579000D02*
X165862000Y-218579000D01*
X168148000Y-16903000D02*
X94996000Y-16903000D01*
X192532000Y-22745000D02*
X192532000Y-16903000D01*
M02*
