%TF.GenerationSoftware,KiCad,Pcbnew,6.0.11-2627ca5db0~126~ubuntu22.04.1*%
%TF.CreationDate,2023-05-01T09:37:44-04:00*%
%TF.ProjectId,coleco_original_main_only,636f6c65-636f-45f6-9f72-6967696e616c,DEV*%
%TF.SameCoordinates,Original*%
%TF.FileFunction,Other,User*%
%FSLAX46Y46*%
G04 Gerber Fmt 4.6, Leading zero omitted, Abs format (unit mm)*
G04 Created by KiCad (PCBNEW 6.0.11-2627ca5db0~126~ubuntu22.04.1) date 2023-05-01 09:37:44*
%MOMM*%
%LPD*%
G01*
G04 APERTURE LIST*
%ADD10C,0.800000*%
G04 APERTURE END LIST*
D10*
X165608000Y-218105000D02*
X165608000Y-230043000D01*
X165608000Y-230043000D02*
X165608000Y-230297000D01*
X167894000Y-21763000D02*
X167894000Y-16683000D01*
X168148000Y-21763000D02*
X167894000Y-21763000D01*
X67310000Y-230551000D02*
X67310000Y-218359000D01*
X67310000Y-218359000D02*
X76962000Y-218359000D01*
X66802000Y-16429000D02*
X22860000Y-16429000D01*
X156210000Y-230297000D02*
X156210000Y-218105000D01*
X94742000Y-22999000D02*
X66802000Y-22999000D01*
X76962000Y-218359000D02*
X76962000Y-230297000D01*
X76962000Y-230043000D02*
X76962000Y-230297000D01*
X190534000Y-16429000D02*
X168402000Y-16429000D01*
X66802000Y-22999000D02*
X66802000Y-16429000D01*
X66548000Y-231313000D02*
X67310000Y-230551000D01*
X156210000Y-218105000D02*
X165608000Y-218105000D01*
X94742000Y-16429000D02*
X94742000Y-22999000D01*
X168148000Y-16429000D02*
X168148000Y-21763000D01*
X192278000Y-22271000D02*
X192278000Y-16429000D01*
X155228000Y-231279000D02*
X156210000Y-230297000D01*
X165608000Y-230297000D02*
X166624000Y-231313000D01*
X168402000Y-16429000D02*
X168148000Y-16429000D01*
X192278000Y-22271000D02*
X189230000Y-22271000D01*
X166624000Y-231313000D02*
X192278000Y-231313000D01*
X22860000Y-16429000D02*
X22894000Y-229755000D01*
X22860000Y-231313000D02*
X66548000Y-231313000D01*
X167894000Y-16429000D02*
X94742000Y-16429000D01*
X78012000Y-231279000D02*
X76962000Y-230297000D01*
X192278000Y-231313000D02*
X192278000Y-22271000D01*
X78012000Y-231279000D02*
X155228000Y-231279000D01*
M02*
