%TF.GenerationSoftware,KiCad,Pcbnew,6.0.11-2627ca5db0~126~ubuntu22.04.1*%
%TF.CreationDate,2023-05-04T20:32:20-04:00*%
%TF.ProjectId,coleco_original_main_only,636f6c65-636f-45f6-9f72-6967696e616c,DEV*%
%TF.SameCoordinates,Original*%
%TF.FileFunction,Profile,NP*%
%FSLAX46Y46*%
G04 Gerber Fmt 4.6, Leading zero omitted, Abs format (unit mm)*
G04 Created by KiCad (PCBNEW 6.0.11-2627ca5db0~126~ubuntu22.04.1) date 2023-05-04 20:32:20*
%MOMM*%
%LPD*%
G01*
G04 APERTURE LIST*
%TA.AperFunction,Profile*%
%ADD10C,0.100000*%
%TD*%
G04 APERTURE END LIST*
D10*
X24560666Y-231499000D02*
G75*
G03*
X24560666Y-231499000I-1666666J0D01*
G01*
X20394000Y-231499000D02*
X25394000Y-231499000D01*
X22894000Y-228999000D02*
X22894000Y-233999000D01*
X166878000Y-229755000D02*
X167386000Y-230263000D01*
X24130000Y-230263000D02*
X67056000Y-230263000D01*
X67056000Y-16395000D02*
X24130000Y-16395000D01*
X67818000Y-217309000D02*
X77978000Y-217309000D01*
X169418000Y-21729000D02*
X168148000Y-21729000D01*
X96012000Y-16395000D02*
X96012000Y-22999000D01*
X156718000Y-217055000D02*
X166624000Y-217055000D01*
X168148000Y-21729000D02*
X168148000Y-16395000D01*
X166624000Y-217055000D02*
X166878000Y-217309000D01*
X192532000Y-16395000D02*
X169418000Y-16395000D01*
X24130000Y-16395000D02*
X24130000Y-230263000D01*
X189484000Y-21221000D02*
X192532000Y-21221000D01*
X67056000Y-22999000D02*
X67056000Y-16395000D01*
X189484000Y-22237000D02*
X189484000Y-21221000D01*
X167386000Y-230263000D02*
X192532000Y-230263000D01*
X169418000Y-16395000D02*
X169418000Y-21729000D01*
X192532000Y-21221000D02*
X192532000Y-16395000D01*
X67564000Y-229755000D02*
X67564000Y-217563000D01*
X192532000Y-230263000D02*
X192532000Y-22237000D01*
X78232000Y-217563000D02*
X78232000Y-220230000D01*
X96012000Y-22999000D02*
X67056000Y-22999000D01*
X77978000Y-217309000D02*
X78232000Y-217563000D01*
X192532000Y-22237000D02*
X189484000Y-22237000D01*
X168148000Y-16395000D02*
X96012000Y-16395000D01*
X156464000Y-220230000D02*
X156464000Y-217309000D01*
X156464000Y-217309000D02*
X156718000Y-217055000D01*
X166878000Y-217309000D02*
X166878000Y-229755000D01*
X67564000Y-217563000D02*
X67818000Y-217309000D01*
X67056000Y-230263000D02*
X67564000Y-229755000D01*
%TO.C,J2*%
X155956000Y-230390000D02*
X78740000Y-230390000D01*
X78232000Y-229628000D02*
X78232000Y-220230000D01*
X78740000Y-230390000D02*
X78232000Y-229628000D01*
X156464000Y-220230000D02*
X156464000Y-229628000D01*
X156464000Y-229628000D02*
X155956000Y-230390000D01*
%TD*%
M02*
