%TF.GenerationSoftware,KiCad,Pcbnew,6.0.11-2627ca5db0~126~ubuntu22.04.1*%
%TF.CreationDate,2023-04-08T12:33:41-04:00*%
%TF.ProjectId,coleco_original_main_only,636f6c65-636f-45f6-9f72-6967696e616c,DEV*%
%TF.SameCoordinates,Original*%
%TF.FileFunction,Profile,NP*%
%FSLAX46Y46*%
G04 Gerber Fmt 4.6, Leading zero omitted, Abs format (unit mm)*
G04 Created by KiCad (PCBNEW 6.0.11-2627ca5db0~126~ubuntu22.04.1) date 2023-04-08 12:33:41*
%MOMM*%
%LPD*%
G01*
G04 APERTURE LIST*
%TA.AperFunction,Profile*%
%ADD10C,0.100000*%
%TD*%
G04 APERTURE END LIST*
D10*
X166666849Y-217899849D02*
X166666849Y-230345849D01*
X67352849Y-230345849D02*
X67352849Y-218153849D01*
X67606849Y-217899849D02*
X77766849Y-217899849D01*
X189272849Y-22827849D02*
X189272849Y-21811849D01*
X78020849Y-218153849D02*
X78020849Y-220820849D01*
X23918849Y-230853849D02*
X66844849Y-230853849D01*
X167936849Y-16985849D02*
X95800849Y-16985849D01*
X192320849Y-16985849D02*
X169206849Y-16985849D01*
X156252849Y-217899849D02*
X156506849Y-217645849D01*
X192320849Y-22827849D02*
X189272849Y-22827849D01*
X169206849Y-22319849D02*
X167936849Y-22319849D01*
X66844849Y-230853849D02*
X67352849Y-230345849D01*
X167174849Y-230853849D02*
X192320849Y-230853849D01*
X95800849Y-23589849D02*
X66844849Y-23589849D01*
X192320849Y-21811849D02*
X192320849Y-16985849D01*
X192320849Y-230853849D02*
X192320849Y-22827849D01*
X166666849Y-230345849D02*
X167174849Y-230853849D01*
X166412849Y-217645849D02*
X166666849Y-217899849D01*
X167936849Y-22319849D02*
X167936849Y-16985849D01*
X156506849Y-217645849D02*
X166412849Y-217645849D01*
X23918849Y-16985849D02*
X23918849Y-230853849D01*
X66844849Y-23589849D02*
X66844849Y-16985849D01*
X156252849Y-220820849D02*
X156252849Y-217899849D01*
X67352849Y-218153849D02*
X67606849Y-217899849D01*
X169206849Y-16985849D02*
X169206849Y-22319849D01*
X189272849Y-21811849D02*
X192320849Y-21811849D01*
X95800849Y-16985849D02*
X95800849Y-23589849D01*
X77766849Y-217899849D02*
X78020849Y-218153849D01*
X66844849Y-16985849D02*
X23918849Y-16985849D01*
X24349515Y-232089849D02*
G75*
G03*
X24349515Y-232089849I-1666666J0D01*
G01*
X20182849Y-232089849D02*
X25182849Y-232089849D01*
X22682849Y-229589849D02*
X22682849Y-234589849D01*
%TO.C,J2*%
X78528849Y-230980849D02*
X78020849Y-230218849D01*
X78020849Y-230218849D02*
X78020849Y-220820849D01*
X156252849Y-220820849D02*
X156252849Y-230218849D01*
X155744849Y-230980849D02*
X78528849Y-230980849D01*
X156252849Y-230218849D02*
X155744849Y-230980849D01*
%TD*%
M02*
