M48
; DRILL file {KiCad 6.0.11-2627ca5db0~126~ubuntu22.04.1} date Thu 04 May 2023 08:32:24 PM EDT
; FORMAT={-:-/ absolute / metric / decimal}
; #@! TF.CreationDate,2023-05-04T20:32:24-04:00
; #@! TF.GenerationSoftware,Kicad,Pcbnew,6.0.11-2627ca5db0~126~ubuntu22.04.1
; #@! TF.FileFunction,MixedPlating,1,2
FMAT,2
METRIC
; #@! TA.AperFunction,Plated,PTH,ViaDrill
T1C0.559
; #@! TA.AperFunction,Plated,PTH,ComponentDrill
T2C0.800
; #@! TA.AperFunction,Plated,PTH,ViaDrill
T3C0.813
; #@! TA.AperFunction,Plated,PTH,ComponentDrill
T4C1.000
; #@! TA.AperFunction,Plated,PTH,ComponentDrill
T5C1.100
; #@! TA.AperFunction,Plated,PTH,ComponentDrill
T6C1.500
; #@! TA.AperFunction,Plated,PTH,ComponentDrill
T7C1.700
; #@! TA.AperFunction,Plated,PTH,ComponentDrill
T8C2.200
; #@! TA.AperFunction,Plated,PTH,ComponentDrill
T9C2.250
; #@! TA.AperFunction,Plated,PTH,ComponentDrill
T10C3.200
; #@! TA.AperFunction,Plated,PTH,ComponentDrill
T11C3.250
; #@! TA.AperFunction,Plated,PTH,ComponentDrill
T12C4.300
; #@! TA.AperFunction,Plated,PTH,ComponentDrill
T13C7.000
%
G90
G05
T1
X26.416Y-125.361
X27.212Y-69.193
X28.482Y-68.177
X28.812Y-125.309
X30.995Y-123.295
X34.324Y-124.565
X36.576Y-124.599
X38.642Y-60.049
X39.37Y-124.599
X39.404Y-135.233
X39.404Y-145.139
X42.926Y-60.591
X42.964Y-124.751
X47.278Y-140.313
X47.278Y-146.409
X52.104Y-146.409
X53.848Y-143.141
X57.438Y-127.647
X58.962Y-175.873
X65.566Y-125.073
X68.326Y-175.907
X68.68Y-172.959
X69.122Y-125.073
X70.866Y-174.129
X71.154Y-143.107
X71.955Y-81.092
X73.404Y-205.047
X73.406Y-96.151
X73.914Y-109.613
X73.948Y-111.611
X75.184Y-209.943
X76.962Y-120.281
X77.129Y-139.618
X77.873Y-176.012
X79.4Y-88.992
X79.502Y-90.817
X79.511Y-87.167
X81.822Y-170.539
X83.566Y-52.971
X88.492Y-180.445
X88.518Y-98.087
X88.692Y-195.1
X89.381Y-193.406
X90.026Y-207.441
X91.474Y-132.947
X91.484Y-216.249
X91.558Y-115.396
X91.999Y-189.26
X92.202Y-83.197
X93.726Y-214.769
X93.726Y-216.801
X93.98Y-148.729
X94.234Y-127.579
X95.284Y-158.347
X95.504Y-180.445
X96.012Y-126.771
X96.732Y-166.297
X96.774Y-109.105
X96.808Y-154.537
X96.808Y-55.477
X97.067Y-116.276
X98.916Y-215.138
X98.96Y-206.591
X100.374Y-217.773
X100.389Y-212.7
X100.872Y-130.407
X102.616Y-180.445
X102.873Y-131.708
X104.358Y-218.361
X106.426Y-90.563
X106.68Y-187.845
X109.015Y-180.479
X109.474Y-187.845
X109.977Y-37.019
X109.982Y-35.191
X109.982Y-40.779
X109.982Y-38.848
X110.333Y-176.924
X110.554Y-212.419
X111.352Y-214.161
X115.824Y-178.142
X116.078Y-212.483
X116.078Y-214.769
X117.348Y-96.659
X120.65Y-113.372
X121.971Y-140.093
X123.185Y-210.417
X123.814Y-110.204
X124.714Y-97.421
X127.0Y-108.597
X127.0Y-210.637
X128.273Y-152.095
X129.54Y-108.597
X131.064Y-215.023
X131.318Y-151.269
X132.08Y-108.597
X132.334Y-92.595
X133.276Y-180.34
X133.731Y-193.56
X135.162Y-108.563
X136.432Y-166.221
X137.16Y-105.549
X137.363Y-216.244
X137.668Y-193.941
X138.21Y-166.221
X138.392Y-180.327
X138.684Y-92.341
X140.259Y-216.298
X140.462Y-195.465
X140.97Y-92.341
X141.605Y-164.604
X141.986Y-117.995
X143.803Y-177.319
X144.272Y-118.757
X145.542Y-195.465
X145.676Y-180.656
X145.796Y-61.329
X146.304Y-49.161
X146.304Y-104.025
X147.066Y-184.212
X147.117Y-198.508
X147.304Y-175.907
X148.007Y-115.022
X148.082Y-139.077
X148.133Y-200.483
X148.436Y-168.695
X149.149Y-194.095
X149.386Y-108.055
X151.13Y-208.47
X153.924Y-191.418
X154.432Y-129.933
X154.786Y-108.055
X156.244Y-131.169
X156.718Y-205.625
X157.226Y-146.951
X158.039Y-172.351
X158.223Y-208.194
X159.976Y-108.063
X160.238Y-211.685
X161.324Y-204.321
X161.392Y-192.163
X162.34Y-108.055
X163.8Y-149.649
X164.482Y-134.107
X164.671Y-108.055
X165.388Y-200.258
X165.515Y-203.686
X166.878Y-151.269
X168.69Y-177.219
X168.859Y-134.217
X169.833Y-198.352
X172.212Y-104.533
X172.246Y-186.033
X173.526Y-151.245
X173.847Y-136.249
X177.546Y-55.257
X178.003Y-86.027
X178.562Y-67.449
X179.324Y-80.657
X179.578Y-109.867
X181.61Y-186.829
X182.321Y-124.091
X183.794Y-94.881
X183.794Y-97.459
T2
X31.75Y-84.467
X31.75Y-92.087
X31.75Y-107.327
X31.75Y-114.947
X32.004Y-71.005
X32.004Y-81.165
X34.29Y-84.467
X34.29Y-92.087
X34.29Y-107.327
X34.29Y-114.947
X34.544Y-119.773
X35.56Y-71.005
X35.56Y-81.165
X36.576Y-172.899
X36.576Y-177.899
X36.83Y-84.467
X36.83Y-92.087
X36.83Y-107.327
X36.83Y-114.947
X37.084Y-119.773
X39.37Y-84.467
X39.37Y-92.087
X39.37Y-107.327
X39.37Y-114.947
X39.624Y-119.773
X39.624Y-165.533
X39.624Y-170.533
X39.624Y-175.185
X39.624Y-180.185
X40.894Y-62.887
X40.894Y-65.427
X40.894Y-67.967
X40.894Y-70.507
X40.894Y-73.047
X40.894Y-75.587
X40.894Y-78.127
X40.894Y-80.667
X41.91Y-84.467
X41.91Y-92.087
X41.91Y-107.327
X41.91Y-114.947
X42.164Y-119.773
X44.45Y-84.467
X44.45Y-92.087
X44.45Y-107.327
X44.45Y-114.947
X44.704Y-119.773
X46.99Y-84.467
X46.99Y-92.087
X46.99Y-107.327
X46.99Y-114.947
X46.99Y-154.357
X46.99Y-159.357
X47.244Y-119.773
X49.53Y-84.467
X49.53Y-92.087
X49.53Y-107.327
X49.53Y-114.947
X49.784Y-119.773
X52.07Y-84.467
X52.07Y-92.087
X52.07Y-107.327
X52.07Y-114.947
X52.324Y-119.773
X52.872Y-151.523
X54.356Y-157.111
X54.356Y-164.731
X54.61Y-84.467
X54.61Y-92.087
X54.61Y-107.327
X54.61Y-114.947
X55.372Y-125.401
X55.372Y-130.401
X56.134Y-140.347
X56.134Y-145.347
X56.134Y-179.209
X56.134Y-184.209
X56.134Y-187.885
X56.134Y-192.885
X56.134Y-196.735
X56.134Y-201.735
X56.896Y-157.111
X56.896Y-164.731
X57.872Y-151.523
X58.166Y-168.039
X58.166Y-173.039
X59.436Y-125.401
X59.436Y-130.401
X59.436Y-157.111
X59.436Y-164.731
X59.944Y-86.793
X59.944Y-91.793
X60.452Y-181.749
X60.452Y-191.909
X61.214Y-108.677
X61.214Y-113.677
X61.722Y-47.129
X61.722Y-57.289
X61.976Y-157.111
X61.976Y-164.731
X61.976Y-168.287
X61.976Y-178.447
X62.23Y-138.823
X62.23Y-148.983
X63.5Y-95.389
X63.5Y-105.549
X63.5Y-118.249
X63.5Y-128.409
X63.754Y-71.259
X63.754Y-185.599
X63.754Y-190.599
X63.788Y-68.177
X64.516Y-83.745
X64.516Y-88.745
X64.516Y-157.111
X64.516Y-164.731
X65.278Y-59.829
X65.786Y-168.287
X65.786Y-178.447
X65.786Y-202.323
X66.294Y-136.029
X66.294Y-146.189
X66.807Y-48.384
X66.807Y-56.004
X66.882Y-113.677
X67.041Y-185.544
X67.041Y-193.164
X67.056Y-157.111
X67.056Y-164.731
X67.31Y-94.119
X67.31Y-104.279
X67.31Y-118.249
X67.31Y-128.409
X68.58Y-83.705
X68.58Y-88.705
X69.347Y-48.384
X69.347Y-56.004
X69.581Y-185.544
X69.581Y-193.164
X69.596Y-29.603
X69.596Y-39.763
X69.596Y-157.111
X69.596Y-164.731
X69.671Y-63.639
X69.85Y-138.823
X69.85Y-148.983
X69.85Y-207.403
X71.12Y-94.119
X71.12Y-104.279
X71.12Y-118.249
X71.12Y-128.409
X71.882Y-113.677
X71.887Y-48.384
X71.887Y-56.004
X72.121Y-185.544
X72.121Y-193.164
X72.398Y-33.921
X73.387Y-42.303
X73.406Y-167.745
X73.406Y-177.905
X73.914Y-71.259
X73.948Y-68.177
X74.422Y-136.537
X74.422Y-146.697
X74.427Y-48.384
X74.427Y-56.004
X74.661Y-185.544
X74.661Y-193.164
X74.671Y-63.639
X74.676Y-83.959
X74.676Y-89.039
X74.93Y-94.119
X74.93Y-104.279
X74.93Y-118.249
X74.93Y-128.409
X74.938Y-31.381
X74.938Y-36.461
X75.438Y-59.829
X75.946Y-202.323
X76.967Y-48.384
X76.967Y-56.004
X77.201Y-185.544
X77.201Y-193.164
X77.216Y-86.499
X77.296Y-198.259
X78.387Y-42.303
X78.994Y-160.921
X79.248Y-134.505
X79.248Y-144.665
X79.494Y-60.337
X79.494Y-65.417
X79.507Y-48.384
X79.507Y-56.004
X79.741Y-185.544
X79.741Y-193.164
X80.002Y-151.777
X80.002Y-156.857
X80.01Y-207.403
X81.28Y-33.707
X81.28Y-38.707
X81.828Y-82.181
X82.034Y-62.877
X82.047Y-48.384
X82.047Y-56.004
X82.281Y-185.544
X82.281Y-193.164
X82.296Y-198.259
X82.542Y-154.317
X82.804Y-86.245
X82.804Y-101.485
X84.821Y-185.544
X84.821Y-193.164
X85.852Y-30.619
X85.852Y-40.779
X85.852Y-108.734
X85.852Y-113.734
X86.614Y-86.245
X86.614Y-101.485
X86.828Y-82.181
X87.122Y-46.367
X87.122Y-56.527
X87.122Y-151.817
X87.122Y-156.817
X89.154Y-33.199
X89.154Y-38.199
X89.154Y-160.921
X90.718Y-45.351
X91.43Y-122.308
X91.43Y-137.548
X91.694Y-108.383
X91.694Y-113.383
X91.948Y-49.923
X91.948Y-60.083
X92.202Y-29.349
X92.202Y-39.509
X92.705Y-185.579
X92.705Y-200.819
X93.97Y-122.308
X93.97Y-137.548
X95.245Y-185.579
X95.245Y-200.819
X95.504Y-69.267
X95.504Y-74.267
X95.519Y-105.564
X95.519Y-113.184
X95.544Y-39.763
X95.544Y-59.575
X95.718Y-45.351
X96.51Y-122.308
X96.51Y-137.548
X97.785Y-185.579
X97.785Y-200.819
X98.059Y-105.564
X98.059Y-113.184
X98.298Y-80.519
X98.298Y-85.519
X99.05Y-122.308
X99.05Y-137.548
X100.325Y-185.579
X100.325Y-200.819
X100.544Y-39.763
X100.544Y-59.575
X100.599Y-105.564
X100.599Y-113.184
X101.092Y-72.275
X101.59Y-122.308
X101.59Y-137.548
X102.616Y-141.617
X102.865Y-185.579
X102.865Y-200.819
X103.139Y-105.564
X103.139Y-113.184
X104.13Y-122.308
X104.13Y-137.548
X105.405Y-185.579
X105.405Y-200.819
X105.679Y-105.564
X105.679Y-113.184
X105.918Y-145.935
X106.67Y-122.308
X106.67Y-137.548
X106.934Y-82.817
X106.934Y-87.817
X107.945Y-185.579
X107.945Y-200.819
X108.219Y-105.564
X108.219Y-113.184
X108.314Y-57.797
X109.21Y-122.308
X109.21Y-137.548
X109.474Y-46.915
X109.474Y-51.915
X110.236Y-63.933
X110.236Y-68.933
X110.485Y-185.579
X110.485Y-200.819
X110.759Y-105.564
X110.759Y-113.184
X110.814Y-57.797
X111.252Y-72.275
X111.75Y-122.308
X111.75Y-137.548
X112.776Y-83.197
X112.776Y-88.197
X113.025Y-185.579
X113.025Y-200.819
X113.299Y-105.564
X113.299Y-113.184
X114.29Y-122.308
X114.29Y-137.548
X115.565Y-185.579
X115.565Y-200.819
X116.586Y-83.237
X116.586Y-88.237
X116.83Y-122.308
X116.83Y-137.548
X117.856Y-141.617
X118.105Y-185.579
X118.105Y-200.819
X119.37Y-122.308
X119.37Y-137.548
X120.142Y-45.899
X120.142Y-50.899
X120.142Y-58.305
X120.142Y-63.305
X120.142Y-70.791
X120.142Y-75.791
X120.396Y-83.237
X120.396Y-88.237
X120.645Y-185.579
X120.645Y-200.819
X121.158Y-145.935
X121.91Y-122.308
X121.91Y-137.548
X121.92Y-212.991
X123.185Y-185.579
X123.185Y-200.819
X124.246Y-27.825
X124.45Y-122.308
X124.45Y-137.548
X124.699Y-43.558
X124.699Y-51.178
X124.699Y-56.009
X124.699Y-63.629
X124.699Y-68.46
X124.699Y-76.08
X124.699Y-80.911
X124.699Y-88.531
X125.725Y-185.579
X125.725Y-200.819
X126.995Y-96.913
X126.995Y-112.153
X127.239Y-43.558
X127.239Y-51.178
X127.239Y-56.009
X127.239Y-63.629
X127.239Y-68.46
X127.239Y-76.08
X127.239Y-80.911
X127.239Y-88.531
X128.265Y-185.579
X128.265Y-200.819
X128.558Y-154.103
X128.558Y-159.103
X129.246Y-27.825
X129.535Y-96.913
X129.535Y-112.153
X129.779Y-43.558
X129.779Y-51.178
X129.779Y-56.009
X129.779Y-63.629
X129.779Y-68.46
X129.779Y-76.08
X129.779Y-80.911
X129.779Y-88.531
X130.805Y-185.579
X130.805Y-200.819
X131.562Y-122.044
X131.562Y-129.664
X131.562Y-135.506
X131.562Y-143.126
X131.86Y-154.103
X131.86Y-159.103
X132.075Y-96.913
X132.075Y-112.153
X132.08Y-212.991
X132.319Y-43.558
X132.319Y-51.178
X132.319Y-56.009
X132.319Y-63.629
X132.319Y-68.46
X132.319Y-76.08
X132.319Y-80.911
X132.319Y-88.531
X133.345Y-185.579
X133.345Y-200.819
X134.102Y-122.044
X134.102Y-129.664
X134.102Y-135.506
X134.102Y-143.126
X134.615Y-96.913
X134.615Y-112.153
X134.859Y-43.558
X134.859Y-51.178
X134.859Y-56.009
X134.859Y-63.629
X134.859Y-68.46
X134.859Y-76.08
X134.859Y-80.911
X134.859Y-88.531
X135.641Y-151.508
X135.641Y-159.128
X135.885Y-185.579
X135.885Y-200.819
X136.642Y-122.044
X136.642Y-129.664
X136.642Y-135.506
X136.642Y-143.126
X137.155Y-96.913
X137.155Y-112.153
X137.399Y-43.558
X137.399Y-51.178
X137.399Y-56.009
X137.399Y-63.629
X137.399Y-68.46
X137.399Y-76.08
X137.399Y-80.911
X137.399Y-88.531
X138.181Y-151.508
X138.181Y-159.128
X138.425Y-185.579
X138.425Y-200.819
X139.182Y-122.044
X139.182Y-129.664
X139.182Y-135.506
X139.182Y-143.126
X139.695Y-96.913
X139.695Y-112.153
X139.939Y-43.558
X139.939Y-51.178
X139.939Y-56.009
X139.939Y-63.629
X139.939Y-68.46
X139.939Y-76.08
X139.939Y-80.911
X139.939Y-88.531
X140.721Y-151.508
X140.721Y-159.128
X140.965Y-185.579
X140.965Y-200.819
X141.722Y-122.044
X141.722Y-129.664
X141.722Y-135.506
X141.722Y-143.126
X142.235Y-96.913
X142.235Y-112.153
X142.479Y-43.558
X142.479Y-51.178
X142.479Y-56.009
X142.479Y-63.629
X142.479Y-68.46
X142.479Y-76.08
X142.479Y-80.911
X142.479Y-88.531
X143.261Y-151.508
X143.261Y-159.128
X144.262Y-122.044
X144.262Y-129.664
X144.262Y-135.506
X144.262Y-143.126
X144.775Y-96.913
X144.775Y-112.153
X145.801Y-151.508
X145.801Y-159.128
X146.802Y-122.044
X146.802Y-129.664
X146.802Y-135.506
X146.802Y-143.126
X146.812Y-46.367
X146.812Y-51.367
X147.066Y-58.853
X147.066Y-63.853
X147.066Y-71.299
X147.066Y-76.299
X147.1Y-83.705
X147.1Y-88.705
X147.315Y-96.913
X147.315Y-112.153
X147.574Y-162.191
X148.341Y-151.508
X148.341Y-159.128
X149.342Y-122.044
X149.342Y-129.664
X149.342Y-135.506
X149.342Y-143.126
X149.855Y-96.913
X149.855Y-112.153
X150.881Y-151.508
X150.881Y-159.128
X151.384Y-43.573
X151.384Y-48.573
X151.384Y-56.059
X151.384Y-61.059
X151.384Y-68.505
X151.384Y-73.505
X151.384Y-80.951
X151.384Y-85.951
X151.384Y-187.591
X151.384Y-197.751
X151.882Y-122.044
X151.882Y-129.664
X151.882Y-135.506
X151.882Y-143.126
X152.395Y-96.913
X152.395Y-112.153
X154.686Y-92.595
X154.935Y-96.913
X154.935Y-112.153
X155.702Y-186.575
X155.702Y-196.735
X156.449Y-120.52
X156.449Y-128.14
X156.718Y-80.911
X156.718Y-88.531
X156.733Y-43.558
X156.733Y-51.178
X156.733Y-56.009
X156.733Y-63.629
X156.733Y-68.46
X156.733Y-76.08
X157.475Y-96.913
X157.475Y-112.153
X157.48Y-138.355
X157.48Y-143.355
X158.989Y-120.52
X158.989Y-128.14
X159.258Y-80.911
X159.258Y-88.531
X159.258Y-180.987
X159.258Y-191.147
X159.258Y-196.481
X159.258Y-206.641
X159.273Y-43.558
X159.273Y-51.178
X159.273Y-56.009
X159.273Y-63.629
X159.273Y-68.46
X159.273Y-76.08
X159.766Y-149.237
X159.766Y-159.397
X160.015Y-96.913
X160.015Y-112.153
X161.29Y-136.283
X161.529Y-120.52
X161.529Y-128.14
X161.798Y-80.911
X161.798Y-88.531
X161.806Y-144.411
X161.813Y-43.558
X161.813Y-51.178
X161.813Y-56.009
X161.813Y-63.629
X161.813Y-68.46
X161.813Y-76.08
X162.306Y-167.779
X162.306Y-172.779
X162.555Y-96.913
X162.555Y-112.153
X162.814Y-162.191
X162.854Y-157.365
X162.894Y-153.809
X163.322Y-196.481
X163.322Y-206.641
X163.891Y-212.229
X164.069Y-120.52
X164.069Y-128.14
X164.084Y-183.019
X164.084Y-190.639
X164.338Y-80.911
X164.338Y-88.531
X164.346Y-141.871
X164.346Y-146.951
X164.353Y-43.558
X164.353Y-51.178
X164.353Y-56.009
X164.353Y-63.629
X164.353Y-68.46
X164.353Y-76.08
X164.846Y-92.595
X165.095Y-96.913
X165.095Y-112.153
X165.354Y-176.923
X166.375Y-160.652
X166.375Y-168.272
X166.404Y-179.971
X166.609Y-120.52
X166.609Y-128.14
X166.624Y-183.019
X166.624Y-190.639
X166.878Y-80.911
X166.878Y-88.531
X166.893Y-43.558
X166.893Y-51.178
X166.893Y-56.009
X166.893Y-63.629
X166.893Y-68.46
X166.893Y-76.08
X167.635Y-96.913
X167.635Y-112.153
X167.64Y-148.983
X167.64Y-196.481
X167.64Y-206.641
X167.854Y-157.365
X167.894Y-139.331
X167.894Y-153.809
X168.292Y-172.605
X168.656Y-145.427
X168.891Y-212.229
X168.915Y-160.652
X168.915Y-168.272
X169.149Y-120.52
X169.149Y-128.14
X169.164Y-183.019
X169.164Y-190.639
X169.418Y-80.911
X169.418Y-88.531
X169.433Y-43.558
X169.433Y-51.178
X169.433Y-56.009
X169.433Y-63.629
X169.433Y-68.46
X169.433Y-76.08
X170.175Y-96.913
X170.175Y-112.153
X170.797Y-116.217
X171.196Y-142.379
X171.45Y-136.283
X171.455Y-160.652
X171.455Y-168.272
X171.689Y-120.52
X171.689Y-128.14
X171.704Y-183.019
X171.704Y-190.639
X171.958Y-80.911
X171.958Y-88.531
X171.973Y-43.558
X171.973Y-51.178
X171.973Y-56.009
X171.973Y-63.629
X171.973Y-68.46
X171.973Y-76.08
X172.212Y-193.687
X172.715Y-96.913
X172.715Y-112.153
X173.172Y-172.605
X173.297Y-116.217
X173.776Y-157.365
X173.995Y-160.652
X173.995Y-168.272
X174.229Y-120.52
X174.229Y-128.14
X174.244Y-183.019
X174.244Y-190.639
X174.244Y-202.069
X174.244Y-212.229
X174.498Y-80.911
X174.498Y-88.531
X174.513Y-43.558
X174.513Y-51.178
X174.513Y-56.009
X174.513Y-63.629
X174.513Y-68.46
X174.513Y-76.08
X175.255Y-96.913
X175.255Y-112.153
X175.26Y-196.735
X175.514Y-176.923
X176.196Y-142.379
X176.535Y-160.652
X176.535Y-168.272
X176.564Y-179.971
X176.784Y-183.019
X176.784Y-190.639
X177.292Y-136.283
X177.8Y-148.983
X178.054Y-139.331
X178.776Y-157.365
X178.816Y-145.427
X179.075Y-160.652
X179.075Y-168.272
X179.324Y-173.153
X179.324Y-178.153
X179.324Y-183.019
X179.324Y-190.639
X179.578Y-46.153
X179.578Y-51.153
X179.578Y-58.599
X179.578Y-63.599
X179.578Y-71.045
X179.578Y-76.045
X179.578Y-83.491
X179.578Y-88.491
X180.086Y-118.249
X180.086Y-128.409
X181.615Y-160.652
X181.615Y-168.272
X182.292Y-136.283
X182.372Y-193.687
X183.642Y-100.469
X183.642Y-110.629
X183.896Y-184.329
X183.896Y-189.329
X184.184Y-118.215
X184.184Y-128.375
X185.42Y-196.735
T3
X51.308Y-191.909
X58.356Y-83.654
X59.182Y-205.371
X60.706Y-205.371
X66.294Y-143.903
X76.996Y-161.903
X80.679Y-92.688
X82.55Y-71.005
X84.328Y-143.395
X88.426Y-95.609
X89.154Y-163.461
X89.442Y-85.957
X98.806Y-178.701
X151.164Y-164.748
X151.164Y-178.921
X172.788Y-147.205
T4
X32.684Y-47.282
X32.684Y-50.052
X32.684Y-52.822
X32.684Y-55.592
X32.684Y-138.214
X32.684Y-140.984
X32.684Y-143.754
X32.684Y-146.524
X35.524Y-45.897
X35.524Y-48.667
X35.524Y-51.437
X35.524Y-54.207
X35.524Y-56.977
X35.524Y-136.829
X35.524Y-139.599
X35.524Y-142.369
X35.524Y-145.139
X35.524Y-147.909
X43.8Y-170.573
X51.42Y-170.573
X90.932Y-89.913
X90.932Y-97.533
X96.012Y-89.913
X96.012Y-97.533
X100.33Y-46.509
X100.33Y-54.129
X101.204Y-92.849
X104.902Y-45.62
X104.902Y-48.16
X104.902Y-50.7
X104.902Y-53.24
X104.902Y-55.78
X104.902Y-58.32
X104.902Y-60.86
X104.902Y-63.4
X108.824Y-92.849
X112.634Y-92.849
X120.254Y-92.849
X131.714Y-34.429
X139.334Y-34.429
X147.178Y-29.095
X154.798Y-29.095
X168.798Y-132.219
X170.576Y-153.047
X176.418Y-132.219
X178.196Y-153.047
X180.34Y-202.799
X180.34Y-204.831
X180.34Y-206.863
X185.42Y-202.799
X185.42Y-204.831
X185.42Y-206.863
T5
X44.45Y-176.161
X44.45Y-201.561
X51.054Y-176.161
X51.054Y-201.561
X98.806Y-169.557
X98.806Y-174.383
X101.346Y-169.557
X101.346Y-174.383
X103.886Y-169.557
X103.886Y-174.383
X106.426Y-169.557
X106.426Y-174.383
X108.966Y-169.557
X108.966Y-174.383
X111.506Y-169.557
X111.506Y-174.383
X114.046Y-169.557
X114.046Y-174.383
X116.586Y-169.557
X116.586Y-174.383
X119.126Y-169.557
X119.126Y-174.383
X121.666Y-169.557
X121.666Y-174.383
X124.206Y-169.557
X124.206Y-174.383
X126.746Y-169.557
X126.746Y-174.383
X129.286Y-169.557
X129.286Y-174.383
X131.826Y-169.557
X131.826Y-174.383
X134.366Y-169.557
X134.366Y-174.383
T6
X28.575Y-203.752
X37.211Y-203.752
X182.88Y-202.799
X182.88Y-206.863
T7
X29.359Y-166.919
X29.359Y-170.879
X29.359Y-174.839
X29.359Y-178.799
T8
X104.936Y-41.507
X104.936Y-67.415
T9
X178.054Y-204.831
X187.706Y-204.831
T10
X34.104Y-38.937
X34.104Y-63.937
X34.104Y-129.869
X34.104Y-154.869
T11
X90.236Y-171.958
X142.936Y-171.958
T12
X51.596Y-71.479
T13
X38.1Y-29.349
X52.324Y-213.245
X116.62Y-158.347
X182.66Y-219.561
X183.93Y-32.871
T2
G00X28.575Y-198.994
M15
G01X28.575Y-194.794
M16
G05
G00X28.575Y-212.71
M15
G01X28.575Y-208.51
M16
G05
G00X30.42Y-187.845
M15
G01X35.62Y-187.845
M16
G05
G00X30.42Y-219.595
M15
G01X35.62Y-219.595
M16
G05
G00X37.211Y-198.994
M15
G01X37.211Y-194.794
M16
G05
G00X37.211Y-212.71
M15
G01X37.211Y-208.51
M16
G05
G00X44.976Y-43.633
M15
G01X44.976Y-38.433
M16
G05
G00X52.01Y-78.135
M15
G01X57.21Y-78.135
M16
G05
G00X103.826Y-25.049
M15
G01X109.026Y-25.049
M16
G05
G00X103.826Y-78.117
M15
G01X109.026Y-78.117
M16
G05
G00X115.824Y-65.223
M15
G01X115.824Y-60.023
M16
G05
T0
M30
