%TF.GenerationSoftware,KiCad,Pcbnew,6.0.11-2627ca5db0~126~ubuntu22.04.1*%
%TF.CreationDate,2023-04-01T15:20:29-04:00*%
%TF.ProjectId,coleco_original_main_only,636f6c65-636f-45f6-9f72-6967696e616c,DEV*%
%TF.SameCoordinates,Original*%
%TF.FileFunction,Legend,Bot*%
%TF.FilePolarity,Positive*%
%FSLAX46Y46*%
G04 Gerber Fmt 4.6, Leading zero omitted, Abs format (unit mm)*
G04 Created by KiCad (PCBNEW 6.0.11-2627ca5db0~126~ubuntu22.04.1) date 2023-04-01 15:20:29*
%MOMM*%
%LPD*%
G01*
G04 APERTURE LIST*
%ADD10C,0.150000*%
%ADD11C,0.120000*%
G04 APERTURE END LIST*
D10*
%TO.C,JP2*%
X121626380Y-142053666D02*
X122340666Y-142053666D01*
X122483523Y-142006047D01*
X122578761Y-141910809D01*
X122626380Y-141767952D01*
X122626380Y-141672714D01*
X122626380Y-142529857D02*
X121626380Y-142529857D01*
X121626380Y-142910809D01*
X121674000Y-143006047D01*
X121721619Y-143053666D01*
X121816857Y-143101285D01*
X121959714Y-143101285D01*
X122054952Y-143053666D01*
X122102571Y-143006047D01*
X122150190Y-142910809D01*
X122150190Y-142529857D01*
X121721619Y-143482238D02*
X121674000Y-143529857D01*
X121626380Y-143625095D01*
X121626380Y-143863190D01*
X121674000Y-143958428D01*
X121721619Y-144006047D01*
X121816857Y-144053666D01*
X121912095Y-144053666D01*
X122054952Y-144006047D01*
X122626380Y-143434619D01*
X122626380Y-144053666D01*
%TO.C,JP1*%
X100290380Y-144593666D02*
X101004666Y-144593666D01*
X101147523Y-144546047D01*
X101242761Y-144450809D01*
X101290380Y-144307952D01*
X101290380Y-144212714D01*
X101290380Y-145069857D02*
X100290380Y-145069857D01*
X100290380Y-145450809D01*
X100338000Y-145546047D01*
X100385619Y-145593666D01*
X100480857Y-145641285D01*
X100623714Y-145641285D01*
X100718952Y-145593666D01*
X100766571Y-145546047D01*
X100814190Y-145450809D01*
X100814190Y-145069857D01*
X101290380Y-146593666D02*
X101290380Y-146022238D01*
X101290380Y-146307952D02*
X100290380Y-146307952D01*
X100433238Y-146212714D01*
X100528476Y-146117476D01*
X100576095Y-146022238D01*
D11*
%TO.C,JP2*%
X119142000Y-141109000D02*
X119142000Y-144157000D01*
X121142000Y-144157000D02*
X121142000Y-141109000D01*
X119142000Y-144157000D02*
X121142000Y-144157000D01*
X121142000Y-141109000D02*
X119142000Y-141109000D01*
%TO.C,JP1*%
X102124000Y-143903000D02*
X102124000Y-146951000D01*
X102124000Y-146951000D02*
X104124000Y-146951000D01*
X104124000Y-143903000D02*
X102124000Y-143903000D01*
X104124000Y-146951000D02*
X104124000Y-143903000D01*
%TD*%
M02*
