M48
; DRILL file {KiCad 6.0.11-2627ca5db0~126~ubuntu22.04.1} date Sat 08 Apr 2023 12:33:54 PM EDT
; FORMAT={-:-/ absolute / metric / decimal}
; #@! TF.CreationDate,2023-04-08T12:33:54-04:00
; #@! TF.GenerationSoftware,Kicad,Pcbnew,6.0.11-2627ca5db0~126~ubuntu22.04.1
; #@! TF.FileFunction,Plated,1,2,PTH
FMAT,2
METRIC
; #@! TA.AperFunction,Plated,PTH,ViaDrill
T1C0.559
; #@! TA.AperFunction,Plated,PTH,ComponentDrill
T2C0.800
; #@! TA.AperFunction,Plated,PTH,ViaDrill
T3C0.813
; #@! TA.AperFunction,Plated,PTH,ComponentDrill
T4C1.000
; #@! TA.AperFunction,Plated,PTH,ComponentDrill
T5C1.100
; #@! TA.AperFunction,Plated,PTH,ComponentDrill
T6C1.500
; #@! TA.AperFunction,Plated,PTH,ComponentDrill
T7C1.700
; #@! TA.AperFunction,Plated,PTH,ComponentDrill
T8C2.000
; #@! TA.AperFunction,Plated,PTH,ComponentDrill
T9C2.200
; #@! TA.AperFunction,Plated,PTH,ComponentDrill
T10C2.250
; #@! TA.AperFunction,Plated,PTH,ComponentDrill
T11C3.200
; #@! TA.AperFunction,Plated,PTH,ComponentDrill
T12C3.250
; #@! TA.AperFunction,Plated,PTH,ComponentDrill
T13C4.300
; #@! TA.AperFunction,Plated,PTH,ComponentDrill
T14C6.400
%
G90
G05
T1
X26.205Y-125.952
X27.001Y-69.784
X28.271Y-68.768
X28.601Y-125.9
X30.784Y-123.886
X34.113Y-125.156
X36.365Y-125.19
X38.431Y-60.64
X39.159Y-125.19
X39.193Y-135.824
X39.193Y-145.73
X42.715Y-61.182
X42.753Y-125.342
X47.067Y-140.904
X47.067Y-147.0
X51.893Y-147.0
X53.637Y-143.732
X57.227Y-128.238
X65.355Y-125.664
X68.115Y-176.498
X68.469Y-173.55
X68.911Y-125.664
X70.655Y-174.72
X70.943Y-143.698
X71.744Y-81.683
X73.195Y-96.742
X73.703Y-110.204
X73.703Y-206.724
X73.737Y-112.202
X74.973Y-210.534
X76.751Y-120.872
X76.918Y-140.209
X77.305Y-176.245
X79.188Y-89.582
X79.291Y-91.408
X79.3Y-87.758
X81.611Y-171.13
X83.355Y-53.562
X86.2Y-161.986
X88.281Y-181.036
X88.307Y-98.678
X88.481Y-195.69
X89.17Y-193.997
X89.756Y-208.032
X91.202Y-216.911
X91.277Y-129.254
X91.347Y-115.987
X91.788Y-189.851
X91.991Y-83.788
X93.515Y-215.36
X93.515Y-217.392
X93.769Y-149.32
X94.023Y-129.254
X95.293Y-181.036
X95.72Y-126.545
X96.563Y-109.696
X96.563Y-157.448
X96.856Y-116.867
X97.325Y-154.4
X97.833Y-166.888
X98.593Y-215.729
X98.749Y-207.182
X100.119Y-218.408
X100.178Y-213.291
X101.389Y-129.254
X102.405Y-181.036
X103.321Y-130.624
X104.147Y-218.952
X106.215Y-91.154
X106.469Y-188.436
X108.804Y-181.07
X109.263Y-188.436
X109.766Y-37.61
X109.771Y-35.782
X109.771Y-41.37
X109.771Y-39.438
X110.122Y-177.515
X110.343Y-213.01
X111.141Y-214.752
X115.613Y-178.733
X115.867Y-213.074
X115.867Y-215.36
X117.137Y-97.25
X120.439Y-113.963
X121.76Y-140.684
X122.974Y-212.053
X123.603Y-110.795
X124.503Y-98.012
X126.789Y-109.188
X126.789Y-212.312
X128.062Y-152.685
X129.329Y-109.188
X130.853Y-215.614
X131.107Y-151.86
X131.869Y-109.188
X132.123Y-93.186
X133.065Y-180.931
X133.52Y-194.151
X134.951Y-109.154
X136.221Y-166.812
X136.949Y-106.14
X137.152Y-216.835
X137.457Y-194.532
X137.999Y-166.812
X138.181Y-180.918
X138.473Y-92.932
X140.048Y-216.889
X140.251Y-196.056
X140.759Y-92.932
X141.394Y-165.195
X141.775Y-118.586
X143.592Y-177.91
X144.061Y-119.348
X145.331Y-196.056
X145.465Y-181.247
X145.585Y-61.92
X146.093Y-49.752
X146.093Y-104.616
X146.601Y-124.987
X146.855Y-184.803
X146.906Y-199.099
X147.093Y-176.498
X147.871Y-119.602
X147.871Y-139.668
X147.922Y-201.073
X148.225Y-169.286
X148.938Y-194.686
X149.175Y-108.646
X150.919Y-209.061
X151.588Y-115.885
X153.713Y-192.009
X154.221Y-130.524
X154.575Y-108.646
X156.033Y-131.76
X156.507Y-206.216
X157.015Y-147.542
X157.828Y-172.942
X158.012Y-208.785
X159.765Y-108.654
X160.027Y-212.276
X161.113Y-204.912
X161.181Y-192.754
X162.129Y-108.646
X162.993Y-200.849
X163.588Y-150.24
X164.271Y-134.698
X164.46Y-108.646
X165.304Y-204.277
X165.431Y-200.594
X166.667Y-151.86
X168.479Y-177.734
X168.648Y-134.808
X170.257Y-146.238
X172.001Y-105.124
X172.035Y-186.624
X173.305Y-151.826
X175.811Y-146.272
X177.335Y-55.848
X177.792Y-86.618
X178.351Y-68.04
X179.113Y-81.248
X179.367Y-110.458
X181.399Y-187.42
X182.11Y-124.682
X183.583Y-95.472
X183.583Y-98.05
T2
X31.539Y-85.058
X31.539Y-92.678
X31.539Y-107.918
X31.539Y-115.538
X31.793Y-71.596
X31.793Y-81.756
X34.079Y-85.058
X34.079Y-92.678
X34.079Y-107.918
X34.079Y-115.538
X34.333Y-120.364
X35.349Y-71.596
X35.349Y-81.756
X36.365Y-173.49
X36.365Y-178.49
X36.619Y-85.058
X36.619Y-92.678
X36.619Y-107.918
X36.619Y-115.538
X36.873Y-120.364
X39.159Y-85.058
X39.159Y-92.678
X39.159Y-107.918
X39.159Y-115.538
X39.413Y-120.364
X39.413Y-166.124
X39.413Y-171.124
X39.413Y-175.776
X39.413Y-180.776
X40.683Y-63.478
X40.683Y-66.018
X40.683Y-68.558
X40.683Y-71.098
X40.683Y-73.638
X40.683Y-76.178
X40.683Y-78.718
X40.683Y-81.258
X41.699Y-85.058
X41.699Y-92.678
X41.699Y-107.918
X41.699Y-115.538
X41.953Y-120.364
X44.239Y-85.058
X44.239Y-92.678
X44.239Y-107.918
X44.239Y-115.538
X44.493Y-120.364
X46.779Y-85.058
X46.779Y-92.678
X46.779Y-107.918
X46.779Y-115.538
X46.779Y-154.948
X46.779Y-159.948
X47.033Y-120.364
X49.319Y-85.058
X49.319Y-92.678
X49.319Y-107.918
X49.319Y-115.538
X49.573Y-120.364
X51.859Y-85.058
X51.859Y-92.678
X51.859Y-107.918
X51.859Y-115.538
X52.113Y-120.364
X52.661Y-152.114
X54.145Y-157.702
X54.145Y-165.322
X54.399Y-85.058
X54.399Y-92.678
X54.399Y-107.918
X54.399Y-115.538
X55.161Y-125.992
X55.161Y-130.992
X55.923Y-140.938
X55.923Y-145.938
X55.923Y-179.8
X55.923Y-184.8
X55.923Y-188.476
X55.923Y-193.476
X55.923Y-197.326
X55.923Y-202.326
X56.685Y-157.702
X56.685Y-165.322
X57.661Y-152.114
X57.955Y-168.63
X57.955Y-173.63
X59.225Y-125.992
X59.225Y-130.992
X59.225Y-157.702
X59.225Y-165.322
X59.733Y-87.384
X59.733Y-92.384
X60.241Y-182.34
X60.241Y-192.5
X61.003Y-109.268
X61.003Y-114.268
X61.511Y-47.72
X61.511Y-57.88
X61.765Y-157.702
X61.765Y-165.322
X61.765Y-168.878
X61.765Y-179.038
X62.019Y-139.414
X62.019Y-149.574
X63.289Y-95.98
X63.289Y-106.14
X63.289Y-118.84
X63.289Y-129.0
X63.543Y-71.85
X63.543Y-186.19
X63.543Y-191.19
X63.577Y-68.768
X64.305Y-84.336
X64.305Y-89.336
X64.305Y-157.702
X64.305Y-165.322
X65.067Y-60.42
X65.575Y-168.878
X65.575Y-179.038
X65.575Y-202.914
X66.083Y-136.62
X66.083Y-146.78
X66.596Y-48.975
X66.596Y-56.595
X66.671Y-114.268
X66.83Y-186.135
X66.83Y-193.755
X66.845Y-157.702
X66.845Y-165.322
X67.099Y-94.71
X67.099Y-104.87
X67.099Y-118.84
X67.099Y-129.0
X68.369Y-84.296
X68.369Y-89.296
X69.136Y-48.975
X69.136Y-56.595
X69.37Y-186.135
X69.37Y-193.755
X69.385Y-30.194
X69.385Y-40.354
X69.385Y-157.702
X69.385Y-165.322
X69.46Y-64.23
X69.639Y-139.414
X69.639Y-149.574
X69.639Y-207.994
X70.909Y-94.71
X70.909Y-104.87
X70.909Y-118.84
X70.909Y-129.0
X71.671Y-114.268
X71.676Y-48.975
X71.676Y-56.595
X71.91Y-186.135
X71.91Y-193.755
X72.187Y-34.512
X73.176Y-42.894
X73.195Y-168.336
X73.195Y-178.496
X73.703Y-71.85
X73.737Y-68.768
X74.211Y-137.128
X74.211Y-147.288
X74.216Y-48.975
X74.216Y-56.595
X74.45Y-186.135
X74.45Y-193.755
X74.46Y-64.23
X74.465Y-84.55
X74.465Y-89.63
X74.719Y-94.71
X74.719Y-104.87
X74.719Y-118.84
X74.719Y-129.0
X74.727Y-31.972
X74.727Y-37.052
X75.227Y-60.42
X75.735Y-202.914
X76.756Y-48.975
X76.756Y-56.595
X76.99Y-186.135
X76.99Y-193.755
X77.005Y-87.09
X77.085Y-198.85
X78.176Y-42.894
X78.783Y-161.512
X79.037Y-135.096
X79.037Y-145.256
X79.283Y-60.928
X79.283Y-66.008
X79.296Y-48.975
X79.296Y-56.595
X79.53Y-186.135
X79.53Y-193.755
X79.791Y-152.368
X79.791Y-157.448
X79.799Y-207.994
X81.069Y-34.298
X81.069Y-39.298
X81.617Y-82.772
X81.823Y-63.468
X81.836Y-48.975
X81.836Y-56.595
X82.07Y-186.135
X82.07Y-193.755
X82.085Y-198.85
X82.331Y-154.908
X82.593Y-86.836
X82.593Y-102.076
X84.61Y-186.135
X84.61Y-193.755
X85.641Y-31.21
X85.641Y-41.37
X85.641Y-109.325
X85.641Y-114.325
X86.403Y-86.836
X86.403Y-102.076
X86.617Y-82.772
X86.911Y-46.958
X86.911Y-57.118
X86.911Y-152.408
X86.911Y-157.408
X88.943Y-33.79
X88.943Y-38.79
X88.943Y-161.512
X90.507Y-45.942
X91.219Y-122.899
X91.219Y-138.139
X91.483Y-108.974
X91.483Y-113.974
X91.737Y-50.514
X91.737Y-60.674
X91.991Y-29.94
X91.991Y-40.1
X92.494Y-186.17
X92.494Y-201.41
X93.759Y-122.899
X93.759Y-138.139
X95.034Y-186.17
X95.034Y-201.41
X95.293Y-69.858
X95.293Y-74.858
X95.308Y-106.155
X95.308Y-113.775
X95.333Y-40.354
X95.333Y-60.166
X95.507Y-45.942
X96.299Y-122.899
X96.299Y-138.139
X97.574Y-186.17
X97.574Y-201.41
X97.848Y-106.155
X97.848Y-113.775
X98.087Y-81.11
X98.087Y-86.11
X98.839Y-122.899
X98.839Y-138.139
X100.114Y-186.17
X100.114Y-201.41
X100.333Y-40.354
X100.333Y-60.166
X100.388Y-106.155
X100.388Y-113.775
X100.881Y-72.866
X101.379Y-122.899
X101.379Y-138.139
X102.405Y-142.208
X102.654Y-186.17
X102.654Y-201.41
X102.928Y-106.155
X102.928Y-113.775
X103.919Y-122.899
X103.919Y-138.139
X105.194Y-186.17
X105.194Y-201.41
X105.468Y-106.155
X105.468Y-113.775
X105.707Y-146.526
X106.459Y-122.899
X106.459Y-138.139
X106.723Y-83.408
X106.723Y-88.408
X107.734Y-186.17
X107.734Y-201.41
X108.008Y-106.155
X108.008Y-113.775
X108.103Y-58.388
X108.999Y-122.899
X108.999Y-138.139
X109.263Y-47.506
X109.263Y-52.506
X110.025Y-64.524
X110.025Y-69.524
X110.274Y-186.17
X110.274Y-201.41
X110.548Y-106.155
X110.548Y-113.775
X110.603Y-58.388
X111.041Y-72.866
X111.539Y-122.899
X111.539Y-138.139
X112.565Y-83.788
X112.565Y-88.788
X112.814Y-186.17
X112.814Y-201.41
X113.088Y-106.155
X113.088Y-113.775
X114.079Y-122.899
X114.079Y-138.139
X115.354Y-186.17
X115.354Y-201.41
X116.375Y-83.828
X116.375Y-88.828
X116.619Y-122.899
X116.619Y-138.139
X117.645Y-142.208
X117.894Y-186.17
X117.894Y-201.41
X119.159Y-122.899
X119.159Y-138.139
X119.931Y-46.49
X119.931Y-51.49
X119.931Y-58.896
X119.931Y-63.896
X119.931Y-71.382
X119.931Y-76.382
X120.185Y-83.828
X120.185Y-88.828
X120.434Y-186.17
X120.434Y-201.41
X120.947Y-146.526
X121.699Y-122.899
X121.699Y-138.139
X121.709Y-213.582
X122.974Y-186.17
X122.974Y-201.41
X124.035Y-28.416
X124.239Y-122.899
X124.239Y-138.139
X124.488Y-44.149
X124.488Y-51.769
X124.488Y-56.6
X124.488Y-64.22
X124.488Y-69.051
X124.488Y-76.671
X124.488Y-81.502
X124.488Y-89.122
X125.514Y-186.17
X125.514Y-201.41
X126.784Y-97.504
X126.784Y-112.744
X127.028Y-44.149
X127.028Y-51.769
X127.028Y-56.6
X127.028Y-64.22
X127.028Y-69.051
X127.028Y-76.671
X127.028Y-81.502
X127.028Y-89.122
X128.054Y-186.17
X128.054Y-201.41
X128.093Y-154.694
X128.093Y-159.694
X129.035Y-28.416
X129.324Y-97.504
X129.324Y-112.744
X129.568Y-44.149
X129.568Y-51.769
X129.568Y-56.6
X129.568Y-64.22
X129.568Y-69.051
X129.568Y-76.671
X129.568Y-81.502
X129.568Y-89.122
X130.594Y-186.17
X130.594Y-201.41
X131.351Y-122.635
X131.351Y-130.255
X131.351Y-136.097
X131.351Y-143.717
X131.361Y-154.694
X131.361Y-159.694
X131.864Y-97.504
X131.864Y-112.744
X131.869Y-213.582
X132.108Y-44.149
X132.108Y-51.769
X132.108Y-56.6
X132.108Y-64.22
X132.108Y-69.051
X132.108Y-76.671
X132.108Y-81.502
X132.108Y-89.122
X133.134Y-186.17
X133.134Y-201.41
X133.891Y-122.635
X133.891Y-130.255
X133.891Y-136.097
X133.891Y-143.717
X134.404Y-97.504
X134.404Y-112.744
X134.648Y-44.149
X134.648Y-51.769
X134.648Y-56.6
X134.648Y-64.22
X134.648Y-69.051
X134.648Y-76.671
X134.648Y-81.502
X134.648Y-89.122
X135.43Y-152.099
X135.43Y-159.719
X135.674Y-186.17
X135.674Y-201.41
X136.431Y-122.635
X136.431Y-130.255
X136.431Y-136.097
X136.431Y-143.717
X136.944Y-97.504
X136.944Y-112.744
X137.188Y-44.149
X137.188Y-51.769
X137.188Y-56.6
X137.188Y-64.22
X137.188Y-69.051
X137.188Y-76.671
X137.188Y-81.502
X137.188Y-89.122
X137.97Y-152.099
X137.97Y-159.719
X138.214Y-186.17
X138.214Y-201.41
X138.971Y-122.635
X138.971Y-130.255
X138.971Y-136.097
X138.971Y-143.717
X139.484Y-97.504
X139.484Y-112.744
X139.728Y-44.149
X139.728Y-51.769
X139.728Y-56.6
X139.728Y-64.22
X139.728Y-69.051
X139.728Y-76.671
X139.728Y-81.502
X139.728Y-89.122
X140.51Y-152.099
X140.51Y-159.719
X140.754Y-186.17
X140.754Y-201.41
X141.511Y-122.635
X141.511Y-130.255
X141.511Y-136.097
X141.511Y-143.717
X142.024Y-97.504
X142.024Y-112.744
X142.268Y-44.149
X142.268Y-51.769
X142.268Y-56.6
X142.268Y-64.22
X142.268Y-69.051
X142.268Y-76.671
X142.268Y-81.502
X142.268Y-89.122
X143.05Y-152.099
X143.05Y-159.719
X144.051Y-122.635
X144.051Y-130.255
X144.051Y-136.097
X144.051Y-143.717
X144.564Y-97.504
X144.564Y-112.744
X145.59Y-152.099
X145.59Y-159.719
X146.591Y-122.635
X146.591Y-130.255
X146.591Y-136.097
X146.591Y-143.717
X146.601Y-46.958
X146.601Y-51.958
X146.855Y-59.444
X146.855Y-64.444
X146.855Y-71.89
X146.855Y-76.89
X146.889Y-84.296
X146.889Y-89.296
X147.104Y-97.504
X147.104Y-112.744
X147.363Y-162.782
X148.13Y-152.099
X148.13Y-159.719
X149.131Y-122.635
X149.131Y-130.255
X149.131Y-136.097
X149.131Y-143.717
X149.644Y-97.504
X149.644Y-112.744
X150.67Y-152.099
X150.67Y-159.719
X151.173Y-44.164
X151.173Y-49.164
X151.173Y-56.65
X151.173Y-61.65
X151.173Y-69.096
X151.173Y-74.096
X151.173Y-81.542
X151.173Y-86.542
X151.173Y-188.182
X151.173Y-198.342
X151.671Y-122.635
X151.671Y-130.255
X151.671Y-136.097
X151.671Y-143.717
X152.184Y-97.504
X152.184Y-112.744
X154.475Y-93.186
X154.724Y-97.504
X154.724Y-112.744
X155.491Y-187.166
X155.491Y-197.326
X156.238Y-121.111
X156.238Y-128.731
X156.507Y-81.502
X156.507Y-89.122
X156.522Y-44.149
X156.522Y-51.769
X156.522Y-56.6
X156.522Y-64.22
X156.522Y-69.051
X156.522Y-76.671
X157.264Y-97.504
X157.264Y-112.744
X157.269Y-138.946
X157.269Y-143.946
X158.778Y-121.111
X158.778Y-128.731
X159.047Y-81.502
X159.047Y-89.122
X159.047Y-181.578
X159.047Y-191.738
X159.047Y-197.072
X159.047Y-207.232
X159.062Y-44.149
X159.062Y-51.769
X159.062Y-56.6
X159.062Y-64.22
X159.062Y-69.051
X159.062Y-76.671
X159.555Y-149.828
X159.555Y-159.988
X159.804Y-97.504
X159.804Y-112.744
X161.079Y-136.874
X161.318Y-121.111
X161.318Y-128.731
X161.587Y-81.502
X161.587Y-89.122
X161.595Y-145.002
X161.602Y-44.149
X161.602Y-51.769
X161.602Y-56.6
X161.602Y-64.22
X161.602Y-69.051
X161.602Y-76.671
X162.095Y-168.37
X162.095Y-173.37
X162.344Y-97.504
X162.344Y-112.744
X162.603Y-162.782
X162.643Y-157.956
X162.683Y-154.4
X163.111Y-197.072
X163.111Y-207.232
X163.68Y-212.82
X163.858Y-121.111
X163.858Y-128.731
X163.873Y-183.61
X163.873Y-191.23
X164.127Y-81.502
X164.127Y-89.122
X164.135Y-142.462
X164.135Y-147.542
X164.142Y-44.149
X164.142Y-51.769
X164.142Y-56.6
X164.142Y-64.22
X164.142Y-69.051
X164.142Y-76.671
X164.635Y-93.186
X164.884Y-97.504
X164.884Y-112.744
X165.143Y-177.514
X166.164Y-161.243
X166.164Y-168.863
X166.193Y-180.562
X166.398Y-121.111
X166.398Y-128.731
X166.413Y-183.61
X166.413Y-191.23
X166.667Y-81.502
X166.667Y-89.122
X166.682Y-44.149
X166.682Y-51.769
X166.682Y-56.6
X166.682Y-64.22
X166.682Y-69.051
X166.682Y-76.671
X167.424Y-97.504
X167.424Y-112.744
X167.429Y-149.574
X167.429Y-197.072
X167.429Y-207.232
X167.643Y-157.956
X167.683Y-139.922
X167.683Y-154.4
X168.081Y-173.196
X168.445Y-146.018
X168.68Y-212.82
X168.704Y-161.243
X168.704Y-168.863
X168.938Y-121.111
X168.938Y-128.731
X168.953Y-183.61
X168.953Y-191.23
X169.207Y-81.502
X169.207Y-89.122
X169.222Y-44.149
X169.222Y-51.769
X169.222Y-56.6
X169.222Y-64.22
X169.222Y-69.051
X169.222Y-76.671
X169.964Y-97.504
X169.964Y-112.744
X170.585Y-116.808
X170.985Y-142.97
X171.239Y-136.874
X171.244Y-161.243
X171.244Y-168.863
X171.478Y-121.111
X171.478Y-128.731
X171.493Y-183.61
X171.493Y-191.23
X171.747Y-81.502
X171.747Y-89.122
X171.762Y-44.149
X171.762Y-51.769
X171.762Y-56.6
X171.762Y-64.22
X171.762Y-69.051
X171.762Y-76.671
X172.001Y-194.278
X172.504Y-97.504
X172.504Y-112.744
X172.961Y-173.196
X173.085Y-116.808
X173.565Y-157.956
X173.784Y-161.243
X173.784Y-168.863
X174.018Y-121.111
X174.018Y-128.731
X174.033Y-183.61
X174.033Y-191.23
X174.033Y-202.66
X174.033Y-212.82
X174.287Y-81.502
X174.287Y-89.122
X174.302Y-44.149
X174.302Y-51.769
X174.302Y-56.6
X174.302Y-64.22
X174.302Y-69.051
X174.302Y-76.671
X175.044Y-97.504
X175.044Y-112.744
X175.049Y-197.326
X175.303Y-177.514
X175.985Y-142.97
X176.324Y-161.243
X176.324Y-168.863
X176.353Y-180.562
X176.573Y-183.61
X176.573Y-191.23
X177.081Y-136.874
X177.589Y-149.574
X177.843Y-139.922
X178.565Y-157.956
X178.605Y-146.018
X178.864Y-161.243
X178.864Y-168.863
X179.113Y-173.744
X179.113Y-178.744
X179.113Y-183.61
X179.113Y-191.23
X179.367Y-46.744
X179.367Y-51.744
X179.367Y-59.19
X179.367Y-64.19
X179.367Y-71.636
X179.367Y-76.636
X179.367Y-84.082
X179.367Y-89.082
X179.875Y-118.84
X179.875Y-129.0
X181.404Y-161.243
X181.404Y-168.863
X182.081Y-136.874
X182.161Y-194.278
X183.431Y-101.06
X183.431Y-111.22
X183.685Y-184.92
X183.685Y-189.92
X183.939Y-118.332
X183.939Y-128.492
X185.209Y-197.326
T3
X51.097Y-192.5
X58.145Y-84.245
X58.971Y-205.962
X60.495Y-205.962
X66.083Y-144.494
X80.468Y-93.279
X81.577Y-162.02
X82.339Y-71.596
X84.117Y-143.986
X88.215Y-96.2
X88.943Y-164.052
X89.231Y-86.548
X98.595Y-179.292
X150.953Y-179.512
X151.173Y-165.119
X173.363Y-147.703
T4
X32.473Y-47.873
X32.473Y-50.643
X32.473Y-53.413
X32.473Y-56.183
X32.473Y-138.805
X32.473Y-141.575
X32.473Y-144.345
X32.473Y-147.115
X35.313Y-46.488
X35.313Y-49.258
X35.313Y-52.028
X35.313Y-54.798
X35.313Y-57.568
X35.313Y-137.42
X35.313Y-140.19
X35.313Y-142.96
X35.313Y-145.73
X35.313Y-148.5
X43.589Y-171.164
X51.209Y-171.164
X90.721Y-90.504
X90.721Y-98.124
X95.801Y-90.504
X95.801Y-98.124
X100.119Y-47.1
X100.119Y-54.72
X100.993Y-93.44
X104.691Y-46.211
X104.691Y-48.751
X104.691Y-51.291
X104.691Y-53.831
X104.691Y-56.371
X104.691Y-58.911
X104.691Y-61.451
X104.691Y-63.991
X108.613Y-93.44
X112.423Y-93.44
X120.043Y-93.44
X131.503Y-35.02
X139.123Y-35.02
X146.967Y-29.686
X154.587Y-29.686
X168.587Y-132.81
X170.365Y-153.638
X176.207Y-132.81
X177.985Y-153.638
X180.129Y-203.39
X180.129Y-205.422
X180.129Y-207.454
X185.209Y-203.39
X185.209Y-205.422
X185.209Y-207.454
T5
X44.239Y-176.752
X44.239Y-202.152
X50.843Y-176.752
X50.843Y-202.152
X98.595Y-170.148
X98.595Y-174.974
X101.135Y-170.148
X101.135Y-174.974
X103.675Y-170.148
X103.675Y-174.974
X106.215Y-170.148
X106.215Y-174.974
X108.755Y-170.148
X108.755Y-174.974
X111.295Y-170.148
X111.295Y-174.974
X113.835Y-170.148
X113.835Y-174.974
X116.375Y-170.148
X116.375Y-174.974
X118.915Y-170.148
X118.915Y-174.974
X121.455Y-170.148
X121.455Y-174.974
X123.995Y-170.148
X123.995Y-174.974
X126.535Y-170.148
X126.535Y-174.974
X129.075Y-170.148
X129.075Y-174.974
X131.615Y-170.148
X131.615Y-174.974
X134.155Y-170.148
X134.155Y-174.974
T6
X182.669Y-203.39
X182.669Y-207.454
T7
X29.148Y-167.51
X29.148Y-171.47
X29.148Y-175.43
X29.148Y-179.39
T8
X28.364Y-204.343
X37.0Y-204.343
T9
X104.725Y-42.098
X104.725Y-68.006
T10
X177.843Y-205.422
X187.495Y-205.422
T11
X33.893Y-39.528
X33.893Y-64.528
X33.893Y-130.46
X33.893Y-155.46
T12
X90.025Y-172.549
X142.725Y-172.549
T13
X51.385Y-72.07
T14
X37.889Y-29.94
X52.113Y-213.836
X116.917Y-158.938
X182.449Y-220.152
X183.211Y-32.954
T8
G00X28.364Y-198.985
M15
G01X28.364Y-195.985
M16
G05
G00X28.364Y-212.701
M15
G01X28.364Y-209.701
M16
G05
G00X30.809Y-188.436
M15
G01X34.809Y-188.436
M16
G05
G00X30.809Y-220.186
M15
G01X34.809Y-220.186
M16
G05
G00X37.0Y-198.985
M15
G01X37.0Y-195.985
M16
G05
G00X37.0Y-212.701
M15
G01X37.0Y-209.701
M16
G05
G00X44.765Y-43.624
M15
G01X44.765Y-39.624
M16
G05
G00X52.399Y-78.726
M15
G01X56.399Y-78.726
M16
G05
G00X104.215Y-25.64
M15
G01X108.215Y-25.64
M16
G05
G00X104.215Y-78.708
M15
G01X108.215Y-78.708
M16
G05
G00X115.613Y-65.214
M15
G01X115.613Y-61.214
M16
G05
T0
M30
