%TF.GenerationSoftware,KiCad,Pcbnew,6.0.11-2627ca5db0~126~ubuntu22.04.1*%
%TF.CreationDate,2023-04-17T19:05:48-04:00*%
%TF.ProjectId,coleco_original_main_only,636f6c65-636f-45f6-9f72-6967696e616c,DEV*%
%TF.SameCoordinates,Original*%
%TF.FileFunction,Legend,Bot*%
%TF.FilePolarity,Positive*%
%FSLAX46Y46*%
G04 Gerber Fmt 4.6, Leading zero omitted, Abs format (unit mm)*
G04 Created by KiCad (PCBNEW 6.0.11-2627ca5db0~126~ubuntu22.04.1) date 2023-04-17 19:05:48*
%MOMM*%
%LPD*%
G01*
G04 APERTURE LIST*
%ADD10C,0.150000*%
%ADD11C,0.120000*%
G04 APERTURE END LIST*
D10*
%TO.C,JP2*%
X121880380Y-142307666D02*
X122594666Y-142307666D01*
X122737523Y-142260047D01*
X122832761Y-142164809D01*
X122880380Y-142021952D01*
X122880380Y-141926714D01*
X122880380Y-142783857D02*
X121880380Y-142783857D01*
X121880380Y-143164809D01*
X121928000Y-143260047D01*
X121975619Y-143307666D01*
X122070857Y-143355285D01*
X122213714Y-143355285D01*
X122308952Y-143307666D01*
X122356571Y-143260047D01*
X122404190Y-143164809D01*
X122404190Y-142783857D01*
X121975619Y-143736238D02*
X121928000Y-143783857D01*
X121880380Y-143879095D01*
X121880380Y-144117190D01*
X121928000Y-144212428D01*
X121975619Y-144260047D01*
X122070857Y-144307666D01*
X122166095Y-144307666D01*
X122308952Y-144260047D01*
X122880380Y-143688619D01*
X122880380Y-144307666D01*
%TO.C,JP1*%
X100544380Y-144847666D02*
X101258666Y-144847666D01*
X101401523Y-144800047D01*
X101496761Y-144704809D01*
X101544380Y-144561952D01*
X101544380Y-144466714D01*
X101544380Y-145323857D02*
X100544380Y-145323857D01*
X100544380Y-145704809D01*
X100592000Y-145800047D01*
X100639619Y-145847666D01*
X100734857Y-145895285D01*
X100877714Y-145895285D01*
X100972952Y-145847666D01*
X101020571Y-145800047D01*
X101068190Y-145704809D01*
X101068190Y-145323857D01*
X101544380Y-146847666D02*
X101544380Y-146276238D01*
X101544380Y-146561952D02*
X100544380Y-146561952D01*
X100687238Y-146466714D01*
X100782476Y-146371476D01*
X100830095Y-146276238D01*
D11*
%TO.C,JP2*%
X119396000Y-141363000D02*
X119396000Y-144411000D01*
X121396000Y-144411000D02*
X121396000Y-141363000D01*
X119396000Y-144411000D02*
X121396000Y-144411000D01*
X121396000Y-141363000D02*
X119396000Y-141363000D01*
%TO.C,JP1*%
X102378000Y-144157000D02*
X102378000Y-147205000D01*
X102378000Y-147205000D02*
X104378000Y-147205000D01*
X104378000Y-144157000D02*
X102378000Y-144157000D01*
X104378000Y-147205000D02*
X104378000Y-144157000D01*
%TD*%
M02*
