%TF.GenerationSoftware,KiCad,Pcbnew,6.0.11-2627ca5db0~126~ubuntu22.04.1*%
%TF.CreationDate,2023-05-01T09:37:44-04:00*%
%TF.ProjectId,coleco_original_main_only,636f6c65-636f-45f6-9f72-6967696e616c,DEV*%
%TF.SameCoordinates,Original*%
%TF.FileFunction,Profile,NP*%
%FSLAX46Y46*%
G04 Gerber Fmt 4.6, Leading zero omitted, Abs format (unit mm)*
G04 Created by KiCad (PCBNEW 6.0.11-2627ca5db0~126~ubuntu22.04.1) date 2023-05-01 09:37:44*
%MOMM*%
%LPD*%
G01*
G04 APERTURE LIST*
%TA.AperFunction,Profile*%
%ADD10C,0.100000*%
%TD*%
G04 APERTURE END LIST*
D10*
X23798666Y-232041000D02*
G75*
G03*
X23798666Y-232041000I-1666666J0D01*
G01*
X19632000Y-232041000D02*
X24632000Y-232041000D01*
X22132000Y-229541000D02*
X22132000Y-234541000D01*
X166116000Y-230297000D02*
X166624000Y-230805000D01*
X23368000Y-230805000D02*
X66294000Y-230805000D01*
X66294000Y-16937000D02*
X23368000Y-16937000D01*
X67056000Y-217851000D02*
X77216000Y-217851000D01*
X168656000Y-22271000D02*
X167386000Y-22271000D01*
X95250000Y-16937000D02*
X95250000Y-23541000D01*
X155956000Y-217597000D02*
X165862000Y-217597000D01*
X167386000Y-22271000D02*
X167386000Y-16937000D01*
X165862000Y-217597000D02*
X166116000Y-217851000D01*
X191770000Y-16937000D02*
X168656000Y-16937000D01*
X23368000Y-16937000D02*
X23368000Y-230805000D01*
X188722000Y-21763000D02*
X191770000Y-21763000D01*
X66294000Y-23541000D02*
X66294000Y-16937000D01*
X188722000Y-22779000D02*
X188722000Y-21763000D01*
X166624000Y-230805000D02*
X191770000Y-230805000D01*
X168656000Y-16937000D02*
X168656000Y-22271000D01*
X191770000Y-21763000D02*
X191770000Y-16937000D01*
X66802000Y-230297000D02*
X66802000Y-218105000D01*
X191770000Y-230805000D02*
X191770000Y-22779000D01*
X77470000Y-218105000D02*
X77470000Y-220772000D01*
X95250000Y-23541000D02*
X66294000Y-23541000D01*
X77216000Y-217851000D02*
X77470000Y-218105000D01*
X191770000Y-22779000D02*
X188722000Y-22779000D01*
X167386000Y-16937000D02*
X95250000Y-16937000D01*
X155702000Y-220772000D02*
X155702000Y-217851000D01*
X155702000Y-217851000D02*
X155956000Y-217597000D01*
X166116000Y-217851000D02*
X166116000Y-230297000D01*
X66802000Y-218105000D02*
X67056000Y-217851000D01*
X66294000Y-230805000D02*
X66802000Y-230297000D01*
%TO.C,J2*%
X155194000Y-230932000D02*
X77978000Y-230932000D01*
X77470000Y-230170000D02*
X77470000Y-220772000D01*
X77978000Y-230932000D02*
X77470000Y-230170000D01*
X155702000Y-220772000D02*
X155702000Y-230170000D01*
X155702000Y-230170000D02*
X155194000Y-230932000D01*
%TD*%
M02*
