M48
; DRILL file {KiCad 6.0.11-2627ca5db0~126~ubuntu22.04.1} date Sat 01 Apr 2023 03:20:35 PM EDT
; FORMAT={-:-/ absolute / metric / decimal}
; #@! TF.CreationDate,2023-04-01T15:20:35-04:00
; #@! TF.GenerationSoftware,Kicad,Pcbnew,6.0.11-2627ca5db0~126~ubuntu22.04.1
; #@! TF.FileFunction,Plated,1,2,PTH
FMAT,2
METRIC
; #@! TA.AperFunction,Plated,PTH,ViaDrill
T1C0.559
; #@! TA.AperFunction,Plated,PTH,ComponentDrill
T2C0.800
; #@! TA.AperFunction,Plated,PTH,ViaDrill
T3C0.813
; #@! TA.AperFunction,Plated,PTH,ComponentDrill
T4C1.000
; #@! TA.AperFunction,Plated,PTH,ComponentDrill
T5C1.100
; #@! TA.AperFunction,Plated,PTH,ComponentDrill
T6C1.500
; #@! TA.AperFunction,Plated,PTH,ComponentDrill
T7C1.700
; #@! TA.AperFunction,Plated,PTH,ComponentDrill
T8C2.000
; #@! TA.AperFunction,Plated,PTH,ComponentDrill
T9C2.250
; #@! TA.AperFunction,Plated,PTH,ComponentDrill
T10C3.200
; #@! TA.AperFunction,Plated,PTH,ComponentDrill
T11C3.250
; #@! TA.AperFunction,Plated,PTH,ComponentDrill
T12C6.400
%
G90
G05
T1
X29.21Y-147.459
X30.429Y-55.765
X30.514Y-127.105
X34.036Y-125.107
X36.322Y-125.107
X39.116Y-125.107
X40.64Y-139.839
X42.672Y-61.099
X42.672Y-137.045
X42.71Y-125.259
X53.594Y-143.649
X55.88Y-137.553
X58.166Y-128.155
X65.051Y-125.642
X67.056Y-176.415
X68.426Y-173.467
X68.698Y-125.923
X70.104Y-143.903
X70.612Y-174.637
X71.701Y-81.6
X73.152Y-96.659
X73.66Y-110.121
X73.66Y-206.641
X73.694Y-112.119
X74.93Y-210.451
X76.708Y-120.789
X76.875Y-140.126
X77.262Y-176.162
X79.146Y-89.5
X79.248Y-91.325
X79.257Y-87.675
X81.568Y-171.047
X83.312Y-53.479
X86.157Y-161.903
X88.238Y-180.953
X88.264Y-98.595
X88.438Y-195.608
X89.127Y-193.914
X89.713Y-207.95
X91.159Y-216.828
X91.234Y-129.171
X91.304Y-115.904
X91.745Y-189.768
X91.948Y-83.705
X93.472Y-215.277
X93.472Y-217.309
X93.726Y-149.237
X93.98Y-129.171
X95.25Y-180.953
X95.678Y-126.463
X96.52Y-109.613
X96.52Y-157.365
X96.987Y-116.673
X97.282Y-154.317
X97.79Y-166.805
X98.55Y-215.646
X98.706Y-207.099
X100.076Y-218.325
X100.135Y-213.208
X101.346Y-129.171
X102.362Y-180.953
X103.278Y-130.541
X104.104Y-218.869
X106.172Y-91.071
X106.426Y-188.353
X108.761Y-180.987
X109.22Y-188.353
X109.723Y-37.527
X109.728Y-35.699
X109.728Y-41.287
X109.728Y-39.356
X110.079Y-177.432
X110.3Y-212.927
X111.098Y-214.669
X115.57Y-178.65
X115.824Y-212.991
X115.824Y-215.277
X117.094Y-97.167
X120.396Y-113.88
X121.717Y-140.601
X122.931Y-211.97
X123.56Y-110.712
X124.46Y-97.929
X126.746Y-109.105
X126.746Y-212.229
X128.019Y-152.603
X129.286Y-109.105
X130.81Y-215.531
X131.064Y-151.777
X131.826Y-109.105
X132.08Y-93.103
X133.022Y-180.848
X133.477Y-194.068
X134.908Y-109.071
X136.686Y-167.237
X136.906Y-106.057
X137.109Y-216.752
X137.414Y-194.449
X138.138Y-180.835
X138.43Y-92.849
X138.43Y-168.287
X140.005Y-216.806
X140.208Y-195.973
X140.716Y-92.849
X141.351Y-165.112
X141.732Y-118.503
X143.549Y-177.827
X144.018Y-119.265
X145.288Y-195.973
X145.422Y-181.164
X145.542Y-61.837
X146.05Y-49.669
X146.05Y-104.533
X146.558Y-124.904
X146.812Y-184.72
X146.863Y-199.016
X147.05Y-176.415
X147.828Y-119.519
X147.828Y-139.585
X147.879Y-200.991
X148.182Y-169.203
X148.895Y-194.603
X149.132Y-108.563
X150.876Y-208.978
X151.545Y-115.802
X153.67Y-191.926
X154.178Y-130.441
X154.532Y-108.563
X155.99Y-131.677
X156.464Y-206.133
X156.972Y-147.459
X157.785Y-172.859
X157.969Y-208.702
X159.722Y-108.571
X159.984Y-212.193
X161.138Y-192.671
X162.086Y-108.563
X162.965Y-200.766
X163.057Y-204.66
X163.546Y-150.157
X164.417Y-108.563
X164.592Y-135.521
X166.116Y-200.545
X166.116Y-203.339
X166.624Y-151.777
X168.436Y-178.921
X168.605Y-135.521
X170.214Y-146.155
X171.958Y-105.041
X171.992Y-186.541
X172.41Y-179.026
X173.025Y-150.253
X175.768Y-146.189
X177.292Y-55.765
X177.749Y-86.535
X178.308Y-67.957
X179.07Y-81.165
X179.324Y-110.375
X181.356Y-187.337
X182.067Y-124.599
X183.54Y-95.389
X183.54Y-97.967
T2
X31.496Y-84.975
X31.496Y-92.595
X31.496Y-107.835
X31.496Y-115.455
X31.75Y-71.513
X31.75Y-81.673
X34.036Y-84.975
X34.036Y-92.595
X34.036Y-107.835
X34.036Y-115.455
X34.29Y-120.281
X35.306Y-71.513
X35.306Y-81.673
X36.322Y-173.407
X36.322Y-178.407
X36.576Y-84.975
X36.576Y-92.595
X36.576Y-107.835
X36.576Y-115.455
X36.83Y-120.281
X39.116Y-84.975
X39.116Y-92.595
X39.116Y-107.835
X39.116Y-115.455
X39.37Y-120.281
X39.37Y-166.041
X39.37Y-171.041
X39.37Y-175.693
X39.37Y-180.693
X40.64Y-63.395
X40.64Y-65.935
X40.64Y-68.475
X40.64Y-71.015
X40.64Y-73.555
X40.64Y-76.095
X40.64Y-78.635
X40.64Y-81.175
X41.656Y-84.975
X41.656Y-92.595
X41.656Y-107.835
X41.656Y-115.455
X41.91Y-120.281
X44.196Y-84.975
X44.196Y-92.595
X44.196Y-107.835
X44.196Y-115.455
X44.45Y-120.281
X46.736Y-84.975
X46.736Y-92.595
X46.736Y-107.835
X46.736Y-115.455
X46.736Y-154.865
X46.736Y-159.865
X46.99Y-120.281
X49.276Y-84.975
X49.276Y-92.595
X49.276Y-107.835
X49.276Y-115.455
X49.53Y-120.281
X51.816Y-84.975
X51.816Y-92.595
X51.816Y-107.835
X51.816Y-115.455
X52.07Y-120.281
X52.618Y-152.031
X54.102Y-157.619
X54.102Y-165.239
X54.356Y-84.975
X54.356Y-92.595
X54.356Y-107.835
X54.356Y-115.455
X55.118Y-125.909
X55.118Y-130.909
X55.88Y-140.855
X55.88Y-145.855
X55.88Y-179.717
X55.88Y-184.717
X55.88Y-188.393
X55.88Y-193.393
X55.88Y-197.243
X55.88Y-202.243
X56.642Y-157.619
X56.642Y-165.239
X57.618Y-152.031
X57.912Y-169.089
X57.912Y-174.089
X59.182Y-125.909
X59.182Y-130.909
X59.182Y-157.619
X59.182Y-165.239
X59.69Y-87.301
X59.69Y-92.301
X60.198Y-182.257
X60.198Y-192.417
X60.96Y-109.185
X60.96Y-114.185
X61.468Y-47.637
X61.468Y-57.797
X61.722Y-157.619
X61.722Y-165.239
X61.722Y-168.795
X61.722Y-178.955
X61.976Y-139.331
X61.976Y-149.491
X63.246Y-95.897
X63.246Y-106.057
X63.246Y-118.757
X63.246Y-128.917
X63.5Y-68.719
X63.5Y-71.767
X63.5Y-186.107
X63.5Y-191.107
X64.262Y-84.253
X64.262Y-89.253
X64.262Y-157.619
X64.262Y-165.239
X65.024Y-60.337
X65.532Y-168.795
X65.532Y-178.955
X65.532Y-202.831
X66.04Y-136.537
X66.04Y-146.697
X66.553Y-48.892
X66.553Y-56.512
X66.628Y-114.185
X66.787Y-186.052
X66.787Y-193.672
X66.802Y-157.619
X66.802Y-165.239
X67.056Y-94.627
X67.056Y-104.787
X67.056Y-118.757
X67.056Y-128.917
X68.326Y-84.213
X68.326Y-89.213
X69.093Y-48.892
X69.093Y-56.512
X69.327Y-186.052
X69.327Y-193.672
X69.342Y-30.111
X69.342Y-40.271
X69.342Y-157.619
X69.342Y-165.239
X69.417Y-64.147
X69.596Y-139.331
X69.596Y-149.491
X69.596Y-207.911
X70.866Y-94.627
X70.866Y-104.787
X70.866Y-118.757
X70.866Y-128.917
X71.628Y-114.185
X71.633Y-48.892
X71.633Y-56.512
X71.867Y-186.052
X71.867Y-193.672
X72.144Y-34.429
X73.133Y-42.811
X73.152Y-168.287
X73.152Y-178.447
X73.66Y-68.719
X73.66Y-71.767
X74.168Y-137.045
X74.168Y-147.205
X74.173Y-48.892
X74.173Y-56.512
X74.407Y-186.052
X74.407Y-193.672
X74.417Y-64.147
X74.422Y-84.467
X74.422Y-89.547
X74.676Y-94.627
X74.676Y-104.787
X74.676Y-118.757
X74.676Y-128.917
X74.684Y-31.889
X74.684Y-36.969
X75.184Y-60.337
X75.692Y-202.831
X76.713Y-48.892
X76.713Y-56.512
X76.947Y-186.052
X76.947Y-193.672
X76.962Y-87.007
X77.042Y-198.767
X78.133Y-42.811
X78.74Y-161.429
X78.994Y-135.013
X78.994Y-145.173
X79.24Y-60.845
X79.24Y-65.925
X79.253Y-48.892
X79.253Y-56.512
X79.487Y-186.052
X79.487Y-193.672
X79.748Y-152.285
X79.748Y-157.365
X79.756Y-207.911
X81.026Y-34.215
X81.026Y-39.215
X81.574Y-82.689
X81.78Y-63.385
X81.793Y-48.892
X81.793Y-56.512
X82.027Y-186.052
X82.027Y-193.672
X82.042Y-198.767
X82.288Y-154.825
X82.55Y-86.753
X82.55Y-101.993
X84.567Y-186.052
X84.567Y-193.672
X85.598Y-31.127
X85.598Y-41.287
X85.598Y-109.242
X85.598Y-114.242
X86.36Y-86.753
X86.36Y-101.993
X86.574Y-82.689
X86.868Y-46.875
X86.868Y-57.035
X86.868Y-152.325
X86.868Y-157.325
X88.9Y-33.707
X88.9Y-38.707
X88.9Y-161.429
X90.464Y-45.859
X91.176Y-122.816
X91.176Y-138.056
X91.44Y-108.891
X91.44Y-113.891
X91.694Y-50.431
X91.694Y-60.591
X91.948Y-29.857
X91.948Y-40.017
X92.451Y-186.087
X92.451Y-201.327
X93.716Y-122.816
X93.716Y-138.056
X94.991Y-186.087
X94.991Y-201.327
X95.25Y-69.775
X95.25Y-74.775
X95.265Y-106.072
X95.265Y-113.692
X95.29Y-40.271
X95.29Y-60.083
X95.464Y-45.859
X96.256Y-122.816
X96.256Y-138.056
X97.531Y-186.087
X97.531Y-201.327
X97.805Y-106.072
X97.805Y-113.692
X98.044Y-81.027
X98.044Y-86.027
X98.796Y-122.816
X98.796Y-138.056
X100.071Y-186.087
X100.071Y-201.327
X100.29Y-40.271
X100.29Y-60.083
X100.345Y-106.072
X100.345Y-113.692
X100.838Y-72.783
X101.336Y-122.816
X101.336Y-138.056
X102.362Y-142.125
X102.611Y-186.087
X102.611Y-201.327
X102.885Y-106.072
X102.885Y-113.692
X103.876Y-122.816
X103.876Y-138.056
X105.151Y-186.087
X105.151Y-201.327
X105.425Y-106.072
X105.425Y-113.692
X105.664Y-146.443
X106.416Y-122.816
X106.416Y-138.056
X106.68Y-83.325
X106.68Y-88.325
X107.691Y-186.087
X107.691Y-201.327
X107.965Y-106.072
X107.965Y-113.692
X108.06Y-58.305
X108.956Y-122.816
X108.956Y-138.056
X109.22Y-47.423
X109.22Y-52.423
X109.982Y-64.441
X109.982Y-69.441
X110.231Y-186.087
X110.231Y-201.327
X110.505Y-106.072
X110.505Y-113.692
X110.56Y-58.305
X110.998Y-72.783
X111.496Y-122.816
X111.496Y-138.056
X112.522Y-83.705
X112.522Y-88.705
X112.771Y-186.087
X112.771Y-201.327
X113.045Y-106.072
X113.045Y-113.692
X114.036Y-122.816
X114.036Y-138.056
X115.311Y-186.087
X115.311Y-201.327
X116.332Y-83.745
X116.332Y-88.745
X116.576Y-122.816
X116.576Y-138.056
X117.602Y-142.125
X117.851Y-186.087
X117.851Y-201.327
X119.116Y-122.816
X119.116Y-138.056
X119.888Y-46.407
X119.888Y-51.407
X119.888Y-58.813
X119.888Y-63.813
X119.888Y-71.299
X119.888Y-76.299
X120.142Y-83.745
X120.142Y-88.745
X120.391Y-186.087
X120.391Y-201.327
X120.904Y-146.443
X121.656Y-122.816
X121.656Y-138.056
X121.666Y-213.499
X122.931Y-186.087
X122.931Y-201.327
X123.992Y-28.333
X124.196Y-122.816
X124.196Y-138.056
X124.445Y-44.066
X124.445Y-51.686
X124.445Y-56.517
X124.445Y-64.137
X124.445Y-68.968
X124.445Y-76.588
X124.445Y-81.419
X124.445Y-89.039
X125.471Y-186.087
X125.471Y-201.327
X126.741Y-97.421
X126.741Y-112.661
X126.985Y-44.066
X126.985Y-51.686
X126.985Y-56.517
X126.985Y-64.137
X126.985Y-68.968
X126.985Y-76.588
X126.985Y-81.419
X126.985Y-89.039
X128.011Y-186.087
X128.011Y-201.327
X128.05Y-154.611
X128.05Y-159.611
X128.992Y-28.333
X129.281Y-97.421
X129.281Y-112.661
X129.525Y-44.066
X129.525Y-51.686
X129.525Y-56.517
X129.525Y-64.137
X129.525Y-68.968
X129.525Y-76.588
X129.525Y-81.419
X129.525Y-89.039
X130.551Y-186.087
X130.551Y-201.327
X131.308Y-122.552
X131.308Y-130.172
X131.308Y-136.014
X131.308Y-143.634
X131.318Y-154.611
X131.318Y-159.611
X131.821Y-97.421
X131.821Y-112.661
X131.826Y-213.499
X132.065Y-44.066
X132.065Y-51.686
X132.065Y-56.517
X132.065Y-64.137
X132.065Y-68.968
X132.065Y-76.588
X132.065Y-81.419
X132.065Y-89.039
X133.091Y-186.087
X133.091Y-201.327
X133.848Y-122.552
X133.848Y-130.172
X133.848Y-136.014
X133.848Y-143.634
X134.361Y-97.421
X134.361Y-112.661
X134.605Y-44.066
X134.605Y-51.686
X134.605Y-56.517
X134.605Y-64.137
X134.605Y-68.968
X134.605Y-76.588
X134.605Y-81.419
X134.605Y-89.039
X135.387Y-152.016
X135.387Y-159.636
X135.631Y-186.087
X135.631Y-201.327
X136.388Y-122.552
X136.388Y-130.172
X136.388Y-136.014
X136.388Y-143.634
X136.901Y-97.421
X136.901Y-112.661
X137.145Y-44.066
X137.145Y-51.686
X137.145Y-56.517
X137.145Y-64.137
X137.145Y-68.968
X137.145Y-76.588
X137.145Y-81.419
X137.145Y-89.039
X137.927Y-152.016
X137.927Y-159.636
X138.171Y-186.087
X138.171Y-201.327
X138.928Y-122.552
X138.928Y-130.172
X138.928Y-136.014
X138.928Y-143.634
X139.441Y-97.421
X139.441Y-112.661
X139.685Y-44.066
X139.685Y-51.686
X139.685Y-56.517
X139.685Y-64.137
X139.685Y-68.968
X139.685Y-76.588
X139.685Y-81.419
X139.685Y-89.039
X140.467Y-152.016
X140.467Y-159.636
X140.711Y-186.087
X140.711Y-201.327
X141.468Y-122.552
X141.468Y-130.172
X141.468Y-136.014
X141.468Y-143.634
X141.981Y-97.421
X141.981Y-112.661
X142.225Y-44.066
X142.225Y-51.686
X142.225Y-56.517
X142.225Y-64.137
X142.225Y-68.968
X142.225Y-76.588
X142.225Y-81.419
X142.225Y-89.039
X143.007Y-152.016
X143.007Y-159.636
X144.008Y-122.552
X144.008Y-130.172
X144.008Y-136.014
X144.008Y-143.634
X144.521Y-97.421
X144.521Y-112.661
X145.547Y-152.016
X145.547Y-159.636
X146.548Y-122.552
X146.548Y-130.172
X146.548Y-136.014
X146.548Y-143.634
X146.558Y-46.875
X146.558Y-51.875
X146.558Y-84.213
X146.558Y-89.213
X146.812Y-59.361
X146.812Y-64.361
X146.812Y-71.807
X146.812Y-76.807
X147.061Y-97.421
X147.061Y-112.661
X147.32Y-162.699
X148.087Y-152.016
X148.087Y-159.636
X149.088Y-122.552
X149.088Y-130.172
X149.088Y-136.014
X149.088Y-143.634
X149.601Y-97.421
X149.601Y-112.661
X150.627Y-152.016
X150.627Y-159.636
X151.13Y-44.081
X151.13Y-49.081
X151.13Y-56.567
X151.13Y-61.567
X151.13Y-69.013
X151.13Y-74.013
X151.13Y-81.459
X151.13Y-86.459
X151.13Y-188.099
X151.13Y-198.259
X151.628Y-122.552
X151.628Y-130.172
X151.628Y-136.014
X151.628Y-143.634
X152.141Y-97.421
X152.141Y-112.661
X154.432Y-93.103
X154.681Y-97.421
X154.681Y-112.661
X155.448Y-187.083
X155.448Y-197.243
X156.195Y-121.028
X156.195Y-128.648
X156.464Y-81.419
X156.464Y-89.039
X156.479Y-44.066
X156.479Y-51.686
X156.479Y-56.517
X156.479Y-64.137
X156.479Y-68.968
X156.479Y-76.588
X157.221Y-97.421
X157.221Y-112.661
X157.226Y-138.863
X157.226Y-143.863
X158.735Y-121.028
X158.735Y-128.648
X159.004Y-81.419
X159.004Y-89.039
X159.004Y-181.495
X159.004Y-191.655
X159.004Y-196.989
X159.004Y-207.149
X159.019Y-44.066
X159.019Y-51.686
X159.019Y-56.517
X159.019Y-64.137
X159.019Y-68.968
X159.019Y-76.588
X159.512Y-149.745
X159.512Y-159.905
X159.761Y-97.421
X159.761Y-112.661
X161.036Y-136.791
X161.275Y-121.028
X161.275Y-128.648
X161.544Y-81.419
X161.544Y-89.039
X161.552Y-144.919
X161.559Y-44.066
X161.559Y-51.686
X161.559Y-56.517
X161.559Y-64.137
X161.559Y-68.968
X161.559Y-76.588
X162.052Y-168.287
X162.052Y-173.287
X162.301Y-97.421
X162.301Y-112.661
X162.56Y-162.699
X162.6Y-157.873
X162.64Y-154.317
X163.068Y-196.989
X163.068Y-207.149
X163.637Y-212.737
X163.815Y-121.028
X163.815Y-128.648
X163.83Y-183.527
X163.83Y-191.147
X164.084Y-81.419
X164.084Y-89.039
X164.092Y-142.379
X164.092Y-147.459
X164.099Y-44.066
X164.099Y-51.686
X164.099Y-56.517
X164.099Y-64.137
X164.099Y-68.968
X164.099Y-76.588
X164.592Y-93.103
X164.841Y-97.421
X164.841Y-112.661
X165.1Y-177.431
X166.116Y-180.479
X166.121Y-161.16
X166.121Y-168.78
X166.355Y-121.028
X166.355Y-128.648
X166.37Y-183.527
X166.37Y-191.147
X166.624Y-81.419
X166.624Y-89.039
X166.639Y-44.066
X166.639Y-51.686
X166.639Y-56.517
X166.639Y-64.137
X166.639Y-68.968
X166.639Y-76.588
X167.381Y-97.421
X167.381Y-112.661
X167.386Y-149.491
X167.386Y-196.989
X167.386Y-207.149
X167.6Y-157.873
X167.64Y-139.839
X167.64Y-154.317
X167.84Y-173.113
X168.402Y-145.935
X168.637Y-212.737
X168.661Y-161.16
X168.661Y-168.78
X168.895Y-121.028
X168.895Y-128.648
X168.91Y-183.527
X168.91Y-191.147
X169.164Y-81.419
X169.164Y-89.039
X169.179Y-44.066
X169.179Y-51.686
X169.179Y-56.517
X169.179Y-64.137
X169.179Y-68.968
X169.179Y-76.588
X169.921Y-97.421
X169.921Y-112.661
X170.543Y-116.725
X170.942Y-142.887
X171.196Y-136.791
X171.201Y-161.16
X171.201Y-168.78
X171.435Y-121.028
X171.435Y-128.648
X171.45Y-183.527
X171.45Y-191.147
X171.704Y-81.419
X171.704Y-89.039
X171.719Y-44.066
X171.719Y-51.686
X171.719Y-56.517
X171.719Y-64.137
X171.719Y-68.968
X171.719Y-76.588
X171.958Y-194.195
X172.461Y-97.421
X172.461Y-112.661
X172.72Y-173.113
X173.043Y-116.725
X173.522Y-157.873
X173.741Y-161.16
X173.741Y-168.78
X173.975Y-121.028
X173.975Y-128.648
X173.99Y-183.527
X173.99Y-191.147
X173.99Y-202.577
X173.99Y-212.737
X174.244Y-81.419
X174.244Y-89.039
X174.259Y-44.066
X174.259Y-51.686
X174.259Y-56.517
X174.259Y-64.137
X174.259Y-68.968
X174.259Y-76.588
X175.001Y-97.421
X175.001Y-112.661
X175.006Y-197.243
X175.26Y-177.431
X175.942Y-142.887
X176.276Y-180.479
X176.281Y-161.16
X176.281Y-168.78
X176.53Y-183.527
X176.53Y-191.147
X177.038Y-136.791
X177.546Y-149.491
X177.8Y-139.839
X178.522Y-157.873
X178.562Y-145.935
X178.821Y-161.16
X178.821Y-168.78
X179.07Y-173.661
X179.07Y-178.661
X179.07Y-183.527
X179.07Y-191.147
X179.324Y-46.661
X179.324Y-51.661
X179.324Y-59.107
X179.324Y-64.107
X179.324Y-71.553
X179.324Y-76.553
X179.324Y-83.999
X179.324Y-88.999
X179.832Y-118.757
X179.832Y-128.917
X181.361Y-161.16
X181.361Y-168.78
X182.038Y-136.791
X182.118Y-194.195
X183.388Y-100.977
X183.388Y-111.137
X183.642Y-184.837
X183.642Y-189.837
X183.896Y-118.249
X183.896Y-128.409
X185.166Y-197.243
T3
X51.054Y-192.417
X58.102Y-84.162
X58.928Y-205.879
X60.452Y-205.879
X66.04Y-144.411
X80.425Y-93.196
X81.534Y-161.937
X82.296Y-71.513
X84.074Y-143.903
X88.172Y-96.117
X88.9Y-163.969
X89.188Y-86.465
X98.552Y-179.209
X150.91Y-179.429
X151.13Y-165.036
X173.99Y-148.29
T4
X32.43Y-47.79
X32.43Y-50.56
X32.43Y-53.33
X32.43Y-56.1
X32.43Y-138.722
X32.43Y-141.492
X32.43Y-144.262
X32.43Y-147.032
X35.27Y-46.405
X35.27Y-49.175
X35.27Y-51.945
X35.27Y-54.715
X35.27Y-57.485
X35.27Y-137.337
X35.27Y-140.107
X35.27Y-142.877
X35.27Y-145.647
X35.27Y-148.417
X43.546Y-171.081
X51.166Y-171.081
X90.678Y-90.421
X90.678Y-98.041
X95.758Y-90.421
X95.758Y-98.041
X100.076Y-47.017
X100.076Y-54.637
X100.95Y-93.357
X104.648Y-46.128
X104.648Y-48.668
X104.648Y-51.208
X104.648Y-53.748
X104.648Y-56.288
X104.648Y-58.828
X104.648Y-61.368
X104.648Y-63.908
X108.57Y-93.357
X112.38Y-93.357
X120.0Y-93.357
X131.46Y-34.937
X139.08Y-34.937
X146.924Y-29.603
X154.544Y-29.603
X168.544Y-132.727
X170.322Y-153.555
X176.164Y-132.727
X177.942Y-153.555
X180.086Y-203.307
X180.086Y-205.339
X180.086Y-207.371
X185.166Y-203.307
X185.166Y-205.339
X185.166Y-207.371
T5
X44.196Y-176.669
X44.196Y-202.069
X50.8Y-176.669
X50.8Y-202.069
X98.552Y-170.065
X98.552Y-174.891
X101.092Y-170.065
X101.092Y-174.891
X103.632Y-170.065
X103.632Y-174.891
X106.172Y-170.065
X106.172Y-174.891
X108.712Y-170.065
X108.712Y-174.891
X111.252Y-170.065
X111.252Y-174.891
X113.792Y-170.065
X113.792Y-174.891
X116.332Y-170.065
X116.332Y-174.891
X118.872Y-170.065
X118.872Y-174.891
X121.412Y-170.065
X121.412Y-174.891
X123.952Y-170.065
X123.952Y-174.891
X126.492Y-170.065
X126.492Y-174.891
X129.032Y-170.065
X129.032Y-174.891
X131.572Y-170.065
X131.572Y-174.891
X134.112Y-170.065
X134.112Y-174.891
T6
X182.626Y-203.307
X182.626Y-207.371
T7
X29.105Y-167.427
X29.105Y-171.387
X29.105Y-175.347
X29.105Y-179.307
T8
X28.321Y-204.26
X36.957Y-204.26
T9
X177.8Y-205.339
X187.452Y-205.339
T10
X33.85Y-39.445
X33.85Y-64.445
X33.85Y-130.377
X33.85Y-155.377
T11
X89.982Y-172.466
X142.682Y-172.466
T12
X37.846Y-29.857
X52.07Y-213.753
X116.874Y-158.855
X182.406Y-220.069
X183.168Y-32.871
T8
G00X28.321Y-198.902
M15
G01X28.321Y-195.902
M16
G05
G00X28.321Y-212.618
M15
G01X28.321Y-209.618
M16
G05
G00X30.766Y-188.353
M15
G01X34.766Y-188.353
M16
G05
G00X30.766Y-220.103
M15
G01X34.766Y-220.103
M16
G05
G00X36.957Y-198.902
M15
G01X36.957Y-195.902
M16
G05
G00X36.957Y-212.618
M15
G01X36.957Y-209.618
M16
G05
G00X44.722Y-43.541
M15
G01X44.722Y-39.541
M16
G05
G00X52.356Y-78.643
M15
G01X56.356Y-78.643
M16
G05
G00X104.172Y-25.557
M15
G01X108.172Y-25.557
M16
G05
G00X104.172Y-78.625
M15
G01X108.172Y-78.625
M16
G05
G00X115.57Y-65.131
M15
G01X115.57Y-61.131
M16
G05
T0
M30
