M48
; DRILL file {KiCad 6.0.11-2627ca5db0~126~ubuntu22.04.1} date Mon 17 Apr 2023 07:05:51 PM EDT
; FORMAT={-:-/ absolute / metric / decimal}
; #@! TF.CreationDate,2023-04-17T19:05:51-04:00
; #@! TF.GenerationSoftware,Kicad,Pcbnew,6.0.11-2627ca5db0~126~ubuntu22.04.1
; #@! TF.FileFunction,Plated,1,2,PTH
FMAT,2
METRIC
; #@! TA.AperFunction,Plated,PTH,ViaDrill
T1C0.559
; #@! TA.AperFunction,Plated,PTH,ComponentDrill
T2C0.800
; #@! TA.AperFunction,Plated,PTH,ViaDrill
T3C0.813
; #@! TA.AperFunction,Plated,PTH,ComponentDrill
T4C1.000
; #@! TA.AperFunction,Plated,PTH,ComponentDrill
T5C1.100
; #@! TA.AperFunction,Plated,PTH,ComponentDrill
T6C1.500
; #@! TA.AperFunction,Plated,PTH,ComponentDrill
T7C1.700
; #@! TA.AperFunction,Plated,PTH,ComponentDrill
T8C2.000
; #@! TA.AperFunction,Plated,PTH,ComponentDrill
T9C2.200
; #@! TA.AperFunction,Plated,PTH,ComponentDrill
T10C2.250
; #@! TA.AperFunction,Plated,PTH,ComponentDrill
T11C3.200
; #@! TA.AperFunction,Plated,PTH,ComponentDrill
T12C3.250
; #@! TA.AperFunction,Plated,PTH,ComponentDrill
T13C4.300
; #@! TA.AperFunction,Plated,PTH,ComponentDrill
T14C6.400
%
G90
G05
T1
X26.416Y-126.123
X27.212Y-69.955
X28.482Y-68.939
X28.812Y-126.071
X30.995Y-124.057
X34.324Y-125.327
X36.576Y-125.361
X38.642Y-60.811
X39.37Y-125.361
X39.404Y-135.995
X39.404Y-145.901
X42.926Y-61.353
X42.964Y-125.513
X47.278Y-141.075
X47.278Y-147.171
X52.104Y-147.171
X53.848Y-143.903
X57.438Y-128.409
X65.566Y-125.835
X68.326Y-176.669
X68.68Y-173.721
X69.122Y-125.835
X70.866Y-174.891
X71.154Y-143.869
X71.955Y-81.854
X73.406Y-96.913
X73.914Y-110.375
X73.914Y-206.895
X73.948Y-112.373
X75.184Y-210.705
X76.962Y-121.043
X77.129Y-140.38
X77.516Y-176.416
X79.4Y-89.754
X79.502Y-91.579
X79.511Y-87.929
X81.822Y-171.301
X83.566Y-53.733
X86.411Y-162.157
X88.492Y-181.207
X88.518Y-98.849
X88.692Y-195.862
X89.381Y-194.168
X90.026Y-208.203
X91.484Y-217.011
X91.488Y-129.425
X91.558Y-116.158
X91.999Y-190.022
X92.202Y-83.959
X93.726Y-215.531
X93.726Y-217.563
X93.98Y-149.491
X94.234Y-129.425
X95.504Y-181.207
X95.932Y-126.717
X96.774Y-109.867
X96.774Y-157.619
X96.808Y-56.239
X97.067Y-117.038
X97.536Y-154.571
X98.044Y-167.059
X98.916Y-215.9
X98.96Y-207.353
X100.33Y-218.579
X100.389Y-213.462
X101.6Y-129.425
X102.616Y-181.207
X103.532Y-130.795
X104.358Y-219.123
X106.426Y-91.325
X106.68Y-188.607
X109.015Y-181.241
X109.474Y-188.607
X109.977Y-37.781
X109.982Y-35.953
X109.982Y-41.541
X109.982Y-39.61
X110.333Y-177.686
X110.554Y-213.181
X111.352Y-214.923
X115.824Y-178.904
X116.078Y-213.245
X116.078Y-215.531
X117.348Y-97.421
X120.65Y-114.134
X121.971Y-140.855
X123.185Y-212.224
X123.814Y-110.966
X124.714Y-98.183
X127.0Y-109.359
X127.0Y-212.483
X128.273Y-152.857
X129.54Y-109.359
X131.064Y-215.785
X131.318Y-152.031
X132.08Y-109.359
X132.334Y-93.357
X133.276Y-181.102
X133.731Y-194.322
X135.162Y-109.325
X136.432Y-166.983
X137.16Y-106.311
X137.363Y-217.006
X137.668Y-194.703
X138.21Y-166.983
X138.392Y-181.089
X138.684Y-93.103
X140.259Y-217.06
X140.462Y-196.227
X140.97Y-93.103
X141.605Y-165.366
X141.986Y-118.757
X143.803Y-178.081
X144.272Y-119.519
X145.542Y-196.227
X145.676Y-181.418
X145.796Y-62.091
X146.304Y-49.923
X146.304Y-104.787
X146.812Y-125.158
X147.066Y-184.974
X147.117Y-199.27
X147.304Y-176.669
X148.082Y-119.773
X148.082Y-139.839
X148.133Y-201.245
X148.436Y-169.457
X149.149Y-194.857
X149.386Y-108.817
X151.13Y-209.232
X151.799Y-116.056
X153.924Y-192.18
X154.432Y-130.695
X154.786Y-108.817
X156.244Y-131.931
X156.718Y-206.387
X157.226Y-147.713
X158.039Y-173.113
X158.223Y-208.956
X159.976Y-108.825
X160.238Y-212.447
X161.324Y-205.083
X161.392Y-192.925
X162.34Y-108.817
X163.205Y-201.02
X163.8Y-150.411
X164.482Y-134.869
X164.671Y-108.817
X165.515Y-204.448
X165.642Y-200.765
X166.878Y-152.031
X168.69Y-177.981
X168.859Y-134.979
X170.468Y-146.409
X172.212Y-105.295
X172.246Y-186.795
X173.516Y-151.997
X176.022Y-146.443
X177.546Y-56.019
X178.003Y-86.789
X178.562Y-68.211
X179.324Y-81.419
X179.578Y-110.629
X181.61Y-187.591
X182.321Y-124.853
X183.794Y-95.643
X183.794Y-98.221
T2
X31.75Y-85.229
X31.75Y-92.849
X31.75Y-108.089
X31.75Y-115.709
X32.004Y-71.767
X32.004Y-81.927
X34.29Y-85.229
X34.29Y-92.849
X34.29Y-108.089
X34.29Y-115.709
X34.544Y-120.535
X35.56Y-71.767
X35.56Y-81.927
X36.576Y-173.661
X36.576Y-178.661
X36.83Y-85.229
X36.83Y-92.849
X36.83Y-108.089
X36.83Y-115.709
X37.084Y-120.535
X39.37Y-85.229
X39.37Y-92.849
X39.37Y-108.089
X39.37Y-115.709
X39.624Y-120.535
X39.624Y-166.295
X39.624Y-171.295
X39.624Y-175.947
X39.624Y-180.947
X40.894Y-63.649
X40.894Y-66.189
X40.894Y-68.729
X40.894Y-71.269
X40.894Y-73.809
X40.894Y-76.349
X40.894Y-78.889
X40.894Y-81.429
X41.91Y-85.229
X41.91Y-92.849
X41.91Y-108.089
X41.91Y-115.709
X42.164Y-120.535
X44.45Y-85.229
X44.45Y-92.849
X44.45Y-108.089
X44.45Y-115.709
X44.704Y-120.535
X46.99Y-85.229
X46.99Y-92.849
X46.99Y-108.089
X46.99Y-115.709
X46.99Y-155.119
X46.99Y-160.119
X47.244Y-120.535
X49.53Y-85.229
X49.53Y-92.849
X49.53Y-108.089
X49.53Y-115.709
X49.784Y-120.535
X52.07Y-85.229
X52.07Y-92.849
X52.07Y-108.089
X52.07Y-115.709
X52.324Y-120.535
X52.872Y-152.285
X54.356Y-157.873
X54.356Y-165.493
X54.61Y-85.229
X54.61Y-92.849
X54.61Y-108.089
X54.61Y-115.709
X55.372Y-126.163
X55.372Y-131.163
X56.134Y-141.109
X56.134Y-146.109
X56.134Y-179.971
X56.134Y-184.971
X56.134Y-188.647
X56.134Y-193.647
X56.134Y-197.497
X56.134Y-202.497
X56.896Y-157.873
X56.896Y-165.493
X57.872Y-152.285
X58.166Y-168.801
X58.166Y-173.801
X59.436Y-126.163
X59.436Y-131.163
X59.436Y-157.873
X59.436Y-165.493
X59.944Y-87.555
X59.944Y-92.555
X60.452Y-182.511
X60.452Y-192.671
X61.214Y-109.439
X61.214Y-114.439
X61.722Y-47.891
X61.722Y-58.051
X61.976Y-157.873
X61.976Y-165.493
X61.976Y-169.049
X61.976Y-179.209
X62.23Y-139.585
X62.23Y-149.745
X63.5Y-96.151
X63.5Y-106.311
X63.5Y-119.011
X63.5Y-129.171
X63.754Y-72.021
X63.754Y-186.361
X63.754Y-191.361
X63.788Y-68.939
X64.516Y-84.507
X64.516Y-89.507
X64.516Y-157.873
X64.516Y-165.493
X65.278Y-60.591
X65.786Y-169.049
X65.786Y-179.209
X65.786Y-203.085
X66.294Y-136.791
X66.294Y-146.951
X66.807Y-49.146
X66.807Y-56.766
X66.882Y-114.439
X67.041Y-186.306
X67.041Y-193.926
X67.056Y-157.873
X67.056Y-165.493
X67.31Y-94.881
X67.31Y-105.041
X67.31Y-119.011
X67.31Y-129.171
X68.58Y-84.467
X68.58Y-89.467
X69.347Y-49.146
X69.347Y-56.766
X69.581Y-186.306
X69.581Y-193.926
X69.596Y-30.365
X69.596Y-40.525
X69.596Y-157.873
X69.596Y-165.493
X69.671Y-64.401
X69.85Y-139.585
X69.85Y-149.745
X69.85Y-208.165
X71.12Y-94.881
X71.12Y-105.041
X71.12Y-119.011
X71.12Y-129.171
X71.882Y-114.439
X71.887Y-49.146
X71.887Y-56.766
X72.121Y-186.306
X72.121Y-193.926
X72.398Y-34.683
X73.387Y-43.065
X73.406Y-168.507
X73.406Y-178.667
X73.914Y-72.021
X73.948Y-68.939
X74.422Y-137.299
X74.422Y-147.459
X74.427Y-49.146
X74.427Y-56.766
X74.661Y-186.306
X74.661Y-193.926
X74.671Y-64.401
X74.676Y-84.721
X74.676Y-89.801
X74.93Y-94.881
X74.93Y-105.041
X74.93Y-119.011
X74.93Y-129.171
X74.938Y-32.143
X74.938Y-37.223
X75.438Y-60.591
X75.946Y-203.085
X76.967Y-49.146
X76.967Y-56.766
X77.201Y-186.306
X77.201Y-193.926
X77.216Y-87.261
X77.296Y-199.021
X78.387Y-43.065
X78.994Y-161.683
X79.248Y-135.267
X79.248Y-145.427
X79.494Y-61.099
X79.494Y-66.179
X79.507Y-49.146
X79.507Y-56.766
X79.741Y-186.306
X79.741Y-193.926
X80.002Y-152.539
X80.002Y-157.619
X80.01Y-208.165
X81.28Y-34.469
X81.28Y-39.469
X81.828Y-82.943
X82.034Y-63.639
X82.047Y-49.146
X82.047Y-56.766
X82.281Y-186.306
X82.281Y-193.926
X82.296Y-199.021
X82.542Y-155.079
X82.804Y-87.007
X82.804Y-102.247
X84.821Y-186.306
X84.821Y-193.926
X85.852Y-31.381
X85.852Y-41.541
X85.852Y-109.496
X85.852Y-114.496
X86.614Y-87.007
X86.614Y-102.247
X86.828Y-82.943
X87.122Y-47.129
X87.122Y-57.289
X87.122Y-152.579
X87.122Y-157.579
X89.154Y-33.961
X89.154Y-38.961
X89.154Y-161.683
X90.718Y-46.113
X91.43Y-123.07
X91.43Y-138.31
X91.694Y-109.145
X91.694Y-114.145
X91.948Y-50.685
X91.948Y-60.845
X92.202Y-30.111
X92.202Y-40.271
X92.705Y-186.341
X92.705Y-201.581
X93.97Y-123.07
X93.97Y-138.31
X95.245Y-186.341
X95.245Y-201.581
X95.504Y-70.029
X95.504Y-75.029
X95.519Y-106.326
X95.519Y-113.946
X95.544Y-40.525
X95.544Y-60.337
X95.718Y-46.113
X96.51Y-123.07
X96.51Y-138.31
X97.785Y-186.341
X97.785Y-201.581
X98.059Y-106.326
X98.059Y-113.946
X98.298Y-81.281
X98.298Y-86.281
X99.05Y-123.07
X99.05Y-138.31
X100.325Y-186.341
X100.325Y-201.581
X100.544Y-40.525
X100.544Y-60.337
X100.599Y-106.326
X100.599Y-113.946
X101.092Y-73.037
X101.59Y-123.07
X101.59Y-138.31
X102.616Y-142.379
X102.865Y-186.341
X102.865Y-201.581
X103.139Y-106.326
X103.139Y-113.946
X104.13Y-123.07
X104.13Y-138.31
X105.405Y-186.341
X105.405Y-201.581
X105.679Y-106.326
X105.679Y-113.946
X105.918Y-146.697
X106.67Y-123.07
X106.67Y-138.31
X106.934Y-83.579
X106.934Y-88.579
X107.945Y-186.341
X107.945Y-201.581
X108.219Y-106.326
X108.219Y-113.946
X108.314Y-58.559
X109.21Y-123.07
X109.21Y-138.31
X109.474Y-47.677
X109.474Y-52.677
X110.236Y-64.695
X110.236Y-69.695
X110.485Y-186.341
X110.485Y-201.581
X110.759Y-106.326
X110.759Y-113.946
X110.814Y-58.559
X111.252Y-73.037
X111.75Y-123.07
X111.75Y-138.31
X112.776Y-83.959
X112.776Y-88.959
X113.025Y-186.341
X113.025Y-201.581
X113.299Y-106.326
X113.299Y-113.946
X114.29Y-123.07
X114.29Y-138.31
X115.565Y-186.341
X115.565Y-201.581
X116.586Y-83.999
X116.586Y-88.999
X116.83Y-123.07
X116.83Y-138.31
X117.856Y-142.379
X118.105Y-186.341
X118.105Y-201.581
X119.37Y-123.07
X119.37Y-138.31
X120.142Y-46.661
X120.142Y-51.661
X120.142Y-59.067
X120.142Y-64.067
X120.142Y-71.553
X120.142Y-76.553
X120.396Y-83.999
X120.396Y-88.999
X120.645Y-186.341
X120.645Y-201.581
X121.158Y-146.697
X121.91Y-123.07
X121.91Y-138.31
X121.92Y-213.753
X123.185Y-186.341
X123.185Y-201.581
X124.246Y-28.587
X124.45Y-123.07
X124.45Y-138.31
X124.699Y-44.32
X124.699Y-51.94
X124.699Y-56.771
X124.699Y-64.391
X124.699Y-69.222
X124.699Y-76.842
X124.699Y-81.673
X124.699Y-89.293
X125.725Y-186.341
X125.725Y-201.581
X126.995Y-97.675
X126.995Y-112.915
X127.239Y-44.32
X127.239Y-51.94
X127.239Y-56.771
X127.239Y-64.391
X127.239Y-69.222
X127.239Y-76.842
X127.239Y-81.673
X127.239Y-89.293
X128.265Y-186.341
X128.265Y-201.581
X128.558Y-154.865
X128.558Y-159.865
X129.246Y-28.587
X129.535Y-97.675
X129.535Y-112.915
X129.779Y-44.32
X129.779Y-51.94
X129.779Y-56.771
X129.779Y-64.391
X129.779Y-69.222
X129.779Y-76.842
X129.779Y-81.673
X129.779Y-89.293
X130.805Y-186.341
X130.805Y-201.581
X131.562Y-122.806
X131.562Y-130.426
X131.562Y-136.268
X131.562Y-143.888
X131.86Y-154.865
X131.86Y-159.865
X132.075Y-97.675
X132.075Y-112.915
X132.08Y-213.753
X132.319Y-44.32
X132.319Y-51.94
X132.319Y-56.771
X132.319Y-64.391
X132.319Y-69.222
X132.319Y-76.842
X132.319Y-81.673
X132.319Y-89.293
X133.345Y-186.341
X133.345Y-201.581
X134.102Y-122.806
X134.102Y-130.426
X134.102Y-136.268
X134.102Y-143.888
X134.615Y-97.675
X134.615Y-112.915
X134.859Y-44.32
X134.859Y-51.94
X134.859Y-56.771
X134.859Y-64.391
X134.859Y-69.222
X134.859Y-76.842
X134.859Y-81.673
X134.859Y-89.293
X135.641Y-152.27
X135.641Y-159.89
X135.885Y-186.341
X135.885Y-201.581
X136.642Y-122.806
X136.642Y-130.426
X136.642Y-136.268
X136.642Y-143.888
X137.155Y-97.675
X137.155Y-112.915
X137.399Y-44.32
X137.399Y-51.94
X137.399Y-56.771
X137.399Y-64.391
X137.399Y-69.222
X137.399Y-76.842
X137.399Y-81.673
X137.399Y-89.293
X138.181Y-152.27
X138.181Y-159.89
X138.425Y-186.341
X138.425Y-201.581
X139.182Y-122.806
X139.182Y-130.426
X139.182Y-136.268
X139.182Y-143.888
X139.695Y-97.675
X139.695Y-112.915
X139.939Y-44.32
X139.939Y-51.94
X139.939Y-56.771
X139.939Y-64.391
X139.939Y-69.222
X139.939Y-76.842
X139.939Y-81.673
X139.939Y-89.293
X140.721Y-152.27
X140.721Y-159.89
X140.965Y-186.341
X140.965Y-201.581
X141.722Y-122.806
X141.722Y-130.426
X141.722Y-136.268
X141.722Y-143.888
X142.235Y-97.675
X142.235Y-112.915
X142.479Y-44.32
X142.479Y-51.94
X142.479Y-56.771
X142.479Y-64.391
X142.479Y-69.222
X142.479Y-76.842
X142.479Y-81.673
X142.479Y-89.293
X143.261Y-152.27
X143.261Y-159.89
X144.262Y-122.806
X144.262Y-130.426
X144.262Y-136.268
X144.262Y-143.888
X144.775Y-97.675
X144.775Y-112.915
X145.801Y-152.27
X145.801Y-159.89
X146.802Y-122.806
X146.802Y-130.426
X146.802Y-136.268
X146.802Y-143.888
X146.812Y-47.129
X146.812Y-52.129
X147.066Y-59.615
X147.066Y-64.615
X147.066Y-72.061
X147.066Y-77.061
X147.1Y-84.467
X147.1Y-89.467
X147.315Y-97.675
X147.315Y-112.915
X147.574Y-162.953
X148.341Y-152.27
X148.341Y-159.89
X149.342Y-122.806
X149.342Y-130.426
X149.342Y-136.268
X149.342Y-143.888
X149.855Y-97.675
X149.855Y-112.915
X150.881Y-152.27
X150.881Y-159.89
X151.384Y-44.335
X151.384Y-49.335
X151.384Y-56.821
X151.384Y-61.821
X151.384Y-69.267
X151.384Y-74.267
X151.384Y-81.713
X151.384Y-86.713
X151.384Y-188.353
X151.384Y-198.513
X151.882Y-122.806
X151.882Y-130.426
X151.882Y-136.268
X151.882Y-143.888
X152.395Y-97.675
X152.395Y-112.915
X154.686Y-93.357
X154.935Y-97.675
X154.935Y-112.915
X155.702Y-187.337
X155.702Y-197.497
X156.449Y-121.282
X156.449Y-128.902
X156.718Y-81.673
X156.718Y-89.293
X156.733Y-44.32
X156.733Y-51.94
X156.733Y-56.771
X156.733Y-64.391
X156.733Y-69.222
X156.733Y-76.842
X157.475Y-97.675
X157.475Y-112.915
X157.48Y-139.117
X157.48Y-144.117
X158.989Y-121.282
X158.989Y-128.902
X159.258Y-81.673
X159.258Y-89.293
X159.258Y-181.749
X159.258Y-191.909
X159.258Y-197.243
X159.258Y-207.403
X159.273Y-44.32
X159.273Y-51.94
X159.273Y-56.771
X159.273Y-64.391
X159.273Y-69.222
X159.273Y-76.842
X159.766Y-149.999
X159.766Y-160.159
X160.015Y-97.675
X160.015Y-112.915
X161.29Y-137.045
X161.529Y-121.282
X161.529Y-128.902
X161.798Y-81.673
X161.798Y-89.293
X161.806Y-145.173
X161.813Y-44.32
X161.813Y-51.94
X161.813Y-56.771
X161.813Y-64.391
X161.813Y-69.222
X161.813Y-76.842
X162.306Y-168.541
X162.306Y-173.541
X162.555Y-97.675
X162.555Y-112.915
X162.814Y-162.953
X162.854Y-158.127
X162.894Y-154.571
X163.322Y-197.243
X163.322Y-207.403
X163.891Y-212.991
X164.069Y-121.282
X164.069Y-128.902
X164.084Y-183.781
X164.084Y-191.401
X164.338Y-81.673
X164.338Y-89.293
X164.346Y-142.633
X164.346Y-147.713
X164.353Y-44.32
X164.353Y-51.94
X164.353Y-56.771
X164.353Y-64.391
X164.353Y-69.222
X164.353Y-76.842
X164.846Y-93.357
X165.095Y-97.675
X165.095Y-112.915
X165.354Y-177.685
X166.375Y-161.414
X166.375Y-169.034
X166.404Y-180.733
X166.609Y-121.282
X166.609Y-128.902
X166.624Y-183.781
X166.624Y-191.401
X166.878Y-81.673
X166.878Y-89.293
X166.893Y-44.32
X166.893Y-51.94
X166.893Y-56.771
X166.893Y-64.391
X166.893Y-69.222
X166.893Y-76.842
X167.635Y-97.675
X167.635Y-112.915
X167.64Y-149.745
X167.64Y-197.243
X167.64Y-207.403
X167.854Y-158.127
X167.894Y-140.093
X167.894Y-154.571
X168.292Y-173.367
X168.656Y-146.189
X168.891Y-212.991
X168.915Y-161.414
X168.915Y-169.034
X169.149Y-121.282
X169.149Y-128.902
X169.164Y-183.781
X169.164Y-191.401
X169.418Y-81.673
X169.418Y-89.293
X169.433Y-44.32
X169.433Y-51.94
X169.433Y-56.771
X169.433Y-64.391
X169.433Y-69.222
X169.433Y-76.842
X170.175Y-97.675
X170.175Y-112.915
X170.797Y-116.979
X171.196Y-143.141
X171.45Y-137.045
X171.455Y-161.414
X171.455Y-169.034
X171.689Y-121.282
X171.689Y-128.902
X171.704Y-183.781
X171.704Y-191.401
X171.958Y-81.673
X171.958Y-89.293
X171.973Y-44.32
X171.973Y-51.94
X171.973Y-56.771
X171.973Y-64.391
X171.973Y-69.222
X171.973Y-76.842
X172.212Y-194.449
X172.715Y-97.675
X172.715Y-112.915
X173.172Y-173.367
X173.297Y-116.979
X173.776Y-158.127
X173.995Y-161.414
X173.995Y-169.034
X174.229Y-121.282
X174.229Y-128.902
X174.244Y-183.781
X174.244Y-191.401
X174.244Y-202.831
X174.244Y-212.991
X174.498Y-81.673
X174.498Y-89.293
X174.513Y-44.32
X174.513Y-51.94
X174.513Y-56.771
X174.513Y-64.391
X174.513Y-69.222
X174.513Y-76.842
X175.255Y-97.675
X175.255Y-112.915
X175.26Y-197.497
X175.514Y-177.685
X176.196Y-143.141
X176.535Y-161.414
X176.535Y-169.034
X176.564Y-180.733
X176.784Y-183.781
X176.784Y-191.401
X177.292Y-137.045
X177.8Y-149.745
X178.054Y-140.093
X178.776Y-158.127
X178.816Y-146.189
X179.075Y-161.414
X179.075Y-169.034
X179.324Y-173.915
X179.324Y-178.915
X179.324Y-183.781
X179.324Y-191.401
X179.578Y-46.915
X179.578Y-51.915
X179.578Y-59.361
X179.578Y-64.361
X179.578Y-71.807
X179.578Y-76.807
X179.578Y-84.253
X179.578Y-89.253
X180.086Y-119.011
X180.086Y-129.171
X181.615Y-161.414
X181.615Y-169.034
X182.292Y-137.045
X182.372Y-194.449
X183.642Y-101.231
X183.642Y-111.391
X183.896Y-185.091
X183.896Y-190.091
X184.15Y-118.503
X184.15Y-128.663
X185.42Y-197.497
T3
X51.308Y-192.671
X58.356Y-84.416
X59.182Y-206.133
X60.706Y-206.133
X66.294Y-144.665
X80.679Y-93.45
X81.788Y-162.191
X82.55Y-71.767
X84.328Y-144.157
X88.426Y-96.371
X89.154Y-164.223
X89.442Y-86.719
X98.806Y-179.463
X151.164Y-179.683
X151.384Y-165.29
X173.574Y-147.875
T4
X32.684Y-48.044
X32.684Y-50.814
X32.684Y-53.584
X32.684Y-56.354
X32.684Y-138.976
X32.684Y-141.746
X32.684Y-144.516
X32.684Y-147.286
X35.524Y-46.659
X35.524Y-49.429
X35.524Y-52.199
X35.524Y-54.969
X35.524Y-57.739
X35.524Y-137.591
X35.524Y-140.361
X35.524Y-143.131
X35.524Y-145.901
X35.524Y-148.671
X43.8Y-171.335
X51.42Y-171.335
X90.932Y-90.675
X90.932Y-98.295
X96.012Y-90.675
X96.012Y-98.295
X100.33Y-47.271
X100.33Y-54.891
X101.204Y-93.611
X104.902Y-46.382
X104.902Y-48.922
X104.902Y-51.462
X104.902Y-54.002
X104.902Y-56.542
X104.902Y-59.082
X104.902Y-61.622
X104.902Y-64.162
X108.824Y-93.611
X112.634Y-93.611
X120.254Y-93.611
X131.714Y-35.191
X139.334Y-35.191
X147.178Y-29.857
X154.798Y-29.857
X168.798Y-132.981
X170.576Y-153.809
X176.418Y-132.981
X178.196Y-153.809
X180.34Y-203.561
X180.34Y-205.593
X180.34Y-207.625
X185.42Y-203.561
X185.42Y-205.593
X185.42Y-207.625
T5
X44.45Y-176.923
X44.45Y-202.323
X51.054Y-176.923
X51.054Y-202.323
X98.806Y-170.319
X98.806Y-175.145
X101.346Y-170.319
X101.346Y-175.145
X103.886Y-170.319
X103.886Y-175.145
X106.426Y-170.319
X106.426Y-175.145
X108.966Y-170.319
X108.966Y-175.145
X111.506Y-170.319
X111.506Y-175.145
X114.046Y-170.319
X114.046Y-175.145
X116.586Y-170.319
X116.586Y-175.145
X119.126Y-170.319
X119.126Y-175.145
X121.666Y-170.319
X121.666Y-175.145
X124.206Y-170.319
X124.206Y-175.145
X126.746Y-170.319
X126.746Y-175.145
X129.286Y-170.319
X129.286Y-175.145
X131.826Y-170.319
X131.826Y-175.145
X134.366Y-170.319
X134.366Y-175.145
T6
X182.88Y-203.561
X182.88Y-207.625
T7
X29.359Y-167.681
X29.359Y-171.641
X29.359Y-175.601
X29.359Y-179.561
T8
X28.575Y-204.514
X37.211Y-204.514
T9
X104.936Y-42.269
X104.936Y-68.177
T10
X178.054Y-205.593
X187.706Y-205.593
T11
X34.104Y-39.699
X34.104Y-64.699
X34.104Y-130.631
X34.104Y-155.631
T12
X90.236Y-172.72
X142.936Y-172.72
T13
X51.596Y-72.241
T14
X38.1Y-30.111
X52.324Y-214.007
X117.128Y-159.109
X182.66Y-220.323
X183.422Y-33.125
T8
G00X28.575Y-199.156
M15
G01X28.575Y-196.156
M16
G05
G00X28.575Y-212.872
M15
G01X28.575Y-209.872
M16
G05
G00X31.02Y-188.607
M15
G01X35.02Y-188.607
M16
G05
G00X31.02Y-220.357
M15
G01X35.02Y-220.357
M16
G05
G00X37.211Y-199.156
M15
G01X37.211Y-196.156
M16
G05
G00X37.211Y-212.872
M15
G01X37.211Y-209.872
M16
G05
G00X44.976Y-43.795
M15
G01X44.976Y-39.795
M16
G05
G00X52.61Y-78.897
M15
G01X56.61Y-78.897
M16
G05
G00X104.426Y-25.811
M15
G01X108.426Y-25.811
M16
G05
G00X104.426Y-78.879
M15
G01X108.426Y-78.879
M16
G05
G00X115.824Y-65.385
M15
G01X115.824Y-61.385
M16
G05
T0
M30
