%TF.GenerationSoftware,KiCad,Pcbnew,6.0.11-2627ca5db0~126~ubuntu22.04.1*%
%TF.CreationDate,2023-04-12T15:51:28-04:00*%
%TF.ProjectId,coleco_original_main_only,636f6c65-636f-45f6-9f72-6967696e616c,DEV*%
%TF.SameCoordinates,Original*%
%TF.FileFunction,Legend,Bot*%
%TF.FilePolarity,Positive*%
%FSLAX46Y46*%
G04 Gerber Fmt 4.6, Leading zero omitted, Abs format (unit mm)*
G04 Created by KiCad (PCBNEW 6.0.11-2627ca5db0~126~ubuntu22.04.1) date 2023-04-12 15:51:28*
%MOMM*%
%LPD*%
G01*
G04 APERTURE LIST*
%ADD10C,0.150000*%
%ADD11C,0.120000*%
G04 APERTURE END LIST*
D10*
%TO.C,JP2*%
X121372380Y-143069666D02*
X122086666Y-143069666D01*
X122229523Y-143022047D01*
X122324761Y-142926809D01*
X122372380Y-142783952D01*
X122372380Y-142688714D01*
X122372380Y-143545857D02*
X121372380Y-143545857D01*
X121372380Y-143926809D01*
X121420000Y-144022047D01*
X121467619Y-144069666D01*
X121562857Y-144117285D01*
X121705714Y-144117285D01*
X121800952Y-144069666D01*
X121848571Y-144022047D01*
X121896190Y-143926809D01*
X121896190Y-143545857D01*
X121467619Y-144498238D02*
X121420000Y-144545857D01*
X121372380Y-144641095D01*
X121372380Y-144879190D01*
X121420000Y-144974428D01*
X121467619Y-145022047D01*
X121562857Y-145069666D01*
X121658095Y-145069666D01*
X121800952Y-145022047D01*
X122372380Y-144450619D01*
X122372380Y-145069666D01*
%TO.C,JP1*%
X100036380Y-145609666D02*
X100750666Y-145609666D01*
X100893523Y-145562047D01*
X100988761Y-145466809D01*
X101036380Y-145323952D01*
X101036380Y-145228714D01*
X101036380Y-146085857D02*
X100036380Y-146085857D01*
X100036380Y-146466809D01*
X100084000Y-146562047D01*
X100131619Y-146609666D01*
X100226857Y-146657285D01*
X100369714Y-146657285D01*
X100464952Y-146609666D01*
X100512571Y-146562047D01*
X100560190Y-146466809D01*
X100560190Y-146085857D01*
X101036380Y-147609666D02*
X101036380Y-147038238D01*
X101036380Y-147323952D02*
X100036380Y-147323952D01*
X100179238Y-147228714D01*
X100274476Y-147133476D01*
X100322095Y-147038238D01*
D11*
%TO.C,JP2*%
X118888000Y-142125000D02*
X118888000Y-145173000D01*
X120888000Y-145173000D02*
X120888000Y-142125000D01*
X118888000Y-145173000D02*
X120888000Y-145173000D01*
X120888000Y-142125000D02*
X118888000Y-142125000D01*
%TO.C,JP1*%
X101870000Y-144919000D02*
X101870000Y-147967000D01*
X101870000Y-147967000D02*
X103870000Y-147967000D01*
X103870000Y-144919000D02*
X101870000Y-144919000D01*
X103870000Y-147967000D02*
X103870000Y-144919000D01*
%TD*%
M02*
