%TF.GenerationSoftware,KiCad,Pcbnew,6.0.11-2627ca5db0~126~ubuntu22.04.1*%
%TF.CreationDate,2023-04-17T19:05:48-04:00*%
%TF.ProjectId,coleco_original_main_only,636f6c65-636f-45f6-9f72-6967696e616c,DEV*%
%TF.SameCoordinates,Original*%
%TF.FileFunction,Other,User*%
%FSLAX46Y46*%
G04 Gerber Fmt 4.6, Leading zero omitted, Abs format (unit mm)*
G04 Created by KiCad (PCBNEW 6.0.11-2627ca5db0~126~ubuntu22.04.1) date 2023-04-17 19:05:48*
%MOMM*%
%LPD*%
G01*
G04 APERTURE LIST*
%ADD10C,0.800000*%
G04 APERTURE END LIST*
D10*
X166370000Y-218325000D02*
X166370000Y-230263000D01*
X166370000Y-230263000D02*
X166370000Y-230517000D01*
X168656000Y-21983000D02*
X168656000Y-16903000D01*
X168910000Y-21983000D02*
X168656000Y-21983000D01*
X68072000Y-230771000D02*
X68072000Y-218579000D01*
X68072000Y-218579000D02*
X77724000Y-218579000D01*
X67564000Y-16649000D02*
X23622000Y-16649000D01*
X156972000Y-230517000D02*
X156972000Y-218325000D01*
X95504000Y-23219000D02*
X67564000Y-23219000D01*
X77724000Y-218579000D02*
X77724000Y-230517000D01*
X77724000Y-230263000D02*
X77724000Y-230517000D01*
X191296000Y-16649000D02*
X169164000Y-16649000D01*
X67564000Y-23219000D02*
X67564000Y-16649000D01*
X67310000Y-231533000D02*
X68072000Y-230771000D01*
X156972000Y-218325000D02*
X166370000Y-218325000D01*
X95504000Y-16649000D02*
X95504000Y-23219000D01*
X168910000Y-16649000D02*
X168910000Y-21983000D01*
X193040000Y-22491000D02*
X193040000Y-16649000D01*
X155990000Y-231499000D02*
X156972000Y-230517000D01*
X166370000Y-230517000D02*
X167386000Y-231533000D01*
X169164000Y-16649000D02*
X168910000Y-16649000D01*
X193040000Y-22491000D02*
X189992000Y-22491000D01*
X167386000Y-231533000D02*
X193040000Y-231533000D01*
X23622000Y-16649000D02*
X23656000Y-229975000D01*
X23622000Y-231533000D02*
X67310000Y-231533000D01*
X168656000Y-16649000D02*
X95504000Y-16649000D01*
X78774000Y-231499000D02*
X77724000Y-230517000D01*
X193040000Y-231533000D02*
X193040000Y-22491000D01*
X78774000Y-231499000D02*
X155990000Y-231499000D01*
M02*
