M48
; DRILL file {KiCad 6.0.11-2627ca5db0~126~ubuntu22.04.1} date Fri 24 Mar 2023 03:20:54 PM EDT
; FORMAT={-:-/ absolute / metric / decimal}
; #@! TF.CreationDate,2023-03-24T15:20:54-04:00
; #@! TF.GenerationSoftware,Kicad,Pcbnew,6.0.11-2627ca5db0~126~ubuntu22.04.1
; #@! TF.FileFunction,MixedPlating,1,2
FMAT,2
METRIC
; #@! TA.AperFunction,Plated,PTH,ComponentDrill
T1C0.800
; #@! TA.AperFunction,Plated,PTH,ViaDrill
T2C0.813
; #@! TA.AperFunction,Plated,PTH,ComponentDrill
T3C1.000
; #@! TA.AperFunction,Plated,PTH,ComponentDrill
T4C1.100
; #@! TA.AperFunction,Plated,PTH,ComponentDrill
T5C1.700
; #@! TA.AperFunction,Plated,PTH,ComponentDrill
T6C2.000
; #@! TA.AperFunction,Plated,PTH,ComponentDrill
T7C2.250
; #@! TA.AperFunction,Plated,PTH,ComponentDrill
T8C3.200
; #@! TA.AperFunction,Plated,PTH,ComponentDrill
T9C3.250
; #@! TA.AperFunction,Plated,PTH,ComponentDrill
T10C5.300
%
G90
G05
T1
X30.734Y-85.991
X30.734Y-93.611
X30.734Y-108.851
X30.734Y-116.471
X30.988Y-72.529
X30.988Y-82.689
X33.274Y-85.991
X33.274Y-93.611
X33.274Y-108.851
X33.274Y-116.471
X33.528Y-121.297
X34.544Y-72.529
X34.544Y-82.689
X35.56Y-174.423
X35.56Y-179.423
X35.814Y-85.991
X35.814Y-93.611
X35.814Y-108.851
X35.814Y-116.471
X36.068Y-121.297
X38.354Y-85.991
X38.354Y-93.611
X38.354Y-108.851
X38.354Y-116.471
X38.608Y-121.297
X38.608Y-167.057
X38.608Y-172.057
X38.608Y-176.709
X38.608Y-181.709
X39.878Y-64.411
X39.878Y-66.951
X39.878Y-69.491
X39.878Y-72.031
X39.878Y-74.571
X39.878Y-77.111
X39.878Y-79.651
X39.878Y-82.191
X40.894Y-85.991
X40.894Y-93.611
X40.894Y-108.851
X40.894Y-116.471
X41.148Y-121.297
X43.434Y-85.991
X43.434Y-93.611
X43.434Y-108.851
X43.434Y-116.471
X43.688Y-121.297
X45.974Y-85.991
X45.974Y-93.611
X45.974Y-108.851
X45.974Y-116.471
X45.974Y-155.881
X45.974Y-160.881
X46.228Y-121.297
X48.514Y-85.991
X48.514Y-93.611
X48.514Y-108.851
X48.514Y-116.471
X48.768Y-121.297
X51.054Y-85.991
X51.054Y-93.611
X51.054Y-108.851
X51.054Y-116.471
X51.308Y-121.297
X51.856Y-153.047
X53.34Y-158.635
X53.34Y-166.255
X53.594Y-85.991
X53.594Y-93.611
X53.594Y-108.851
X53.594Y-116.471
X54.356Y-126.925
X54.356Y-131.925
X55.118Y-141.871
X55.118Y-146.871
X55.118Y-180.733
X55.118Y-185.733
X55.118Y-189.409
X55.118Y-194.409
X55.118Y-198.259
X55.118Y-203.259
X55.88Y-158.635
X55.88Y-166.255
X56.856Y-153.047
X57.15Y-170.105
X57.15Y-175.105
X58.42Y-126.925
X58.42Y-131.925
X58.42Y-158.635
X58.42Y-166.255
X58.928Y-88.317
X58.928Y-93.317
X59.436Y-183.273
X59.436Y-193.433
X60.198Y-110.201
X60.198Y-115.201
X60.706Y-48.653
X60.706Y-58.813
X60.96Y-158.635
X60.96Y-166.255
X60.96Y-169.811
X60.96Y-179.971
X61.214Y-140.347
X61.214Y-150.507
X62.484Y-96.913
X62.484Y-107.073
X62.484Y-119.773
X62.484Y-129.933
X62.738Y-69.735
X62.738Y-72.783
X62.738Y-187.123
X62.738Y-192.123
X63.5Y-85.269
X63.5Y-90.269
X63.5Y-158.635
X63.5Y-166.255
X64.262Y-61.353
X64.77Y-169.811
X64.77Y-179.971
X64.77Y-203.847
X65.278Y-137.553
X65.278Y-147.713
X65.791Y-49.908
X65.791Y-57.528
X65.866Y-115.201
X66.025Y-187.068
X66.025Y-194.688
X66.04Y-158.635
X66.04Y-166.255
X66.294Y-95.643
X66.294Y-105.803
X66.294Y-119.773
X66.294Y-129.933
X67.564Y-85.229
X67.564Y-90.229
X68.331Y-49.908
X68.331Y-57.528
X68.565Y-187.068
X68.565Y-194.688
X68.58Y-31.127
X68.58Y-41.287
X68.58Y-158.635
X68.58Y-166.255
X68.655Y-65.163
X68.834Y-140.347
X68.834Y-150.507
X68.834Y-208.927
X70.104Y-95.643
X70.104Y-105.803
X70.104Y-119.773
X70.104Y-129.933
X70.866Y-115.201
X70.871Y-49.908
X70.871Y-57.528
X71.105Y-187.068
X71.105Y-194.688
X71.382Y-35.445
X72.371Y-43.827
X72.39Y-169.303
X72.39Y-179.463
X72.898Y-69.735
X72.898Y-72.783
X73.406Y-138.061
X73.406Y-148.221
X73.411Y-49.908
X73.411Y-57.528
X73.645Y-187.068
X73.645Y-194.688
X73.655Y-65.163
X73.66Y-85.483
X73.66Y-90.563
X73.914Y-95.643
X73.914Y-105.803
X73.914Y-119.773
X73.914Y-129.933
X73.922Y-32.905
X73.922Y-37.985
X74.422Y-61.353
X74.93Y-203.847
X75.951Y-49.908
X75.951Y-57.528
X76.185Y-187.068
X76.185Y-194.688
X76.2Y-88.023
X76.28Y-199.783
X77.371Y-43.827
X77.978Y-162.445
X78.232Y-136.029
X78.232Y-146.189
X78.478Y-61.861
X78.478Y-66.941
X78.491Y-49.908
X78.491Y-57.528
X78.725Y-187.068
X78.725Y-194.688
X78.986Y-153.301
X78.986Y-158.381
X78.994Y-208.927
X80.264Y-35.231
X80.264Y-40.231
X80.812Y-83.705
X81.018Y-64.401
X81.031Y-49.908
X81.031Y-57.528
X81.265Y-187.068
X81.265Y-194.688
X81.28Y-199.783
X81.526Y-155.841
X81.788Y-87.769
X81.788Y-103.009
X83.805Y-187.068
X83.805Y-194.688
X84.836Y-32.143
X84.836Y-42.303
X84.836Y-110.258
X84.836Y-115.258
X85.598Y-87.769
X85.598Y-103.009
X85.812Y-83.705
X86.106Y-47.891
X86.106Y-58.051
X86.106Y-153.341
X86.106Y-158.341
X88.138Y-34.723
X88.138Y-39.723
X88.138Y-162.445
X89.702Y-46.875
X90.414Y-123.832
X90.414Y-139.072
X90.678Y-109.907
X90.678Y-114.907
X90.932Y-51.447
X90.932Y-61.607
X91.186Y-30.873
X91.186Y-41.033
X91.689Y-187.103
X91.689Y-202.343
X92.954Y-123.832
X92.954Y-139.072
X94.229Y-187.103
X94.229Y-202.343
X94.488Y-70.791
X94.488Y-75.791
X94.503Y-107.088
X94.503Y-114.708
X94.528Y-41.287
X94.528Y-61.099
X94.702Y-46.875
X95.494Y-123.832
X95.494Y-139.072
X96.769Y-187.103
X96.769Y-202.343
X97.043Y-107.088
X97.043Y-114.708
X97.282Y-82.043
X97.282Y-87.043
X98.034Y-123.832
X98.034Y-139.072
X99.309Y-187.103
X99.309Y-202.343
X99.528Y-41.287
X99.528Y-61.099
X99.583Y-107.088
X99.583Y-114.708
X100.076Y-73.799
X100.574Y-123.832
X100.574Y-139.072
X101.6Y-143.141
X101.849Y-187.103
X101.849Y-202.343
X102.123Y-107.088
X102.123Y-114.708
X103.114Y-123.832
X103.114Y-139.072
X104.389Y-187.103
X104.389Y-202.343
X104.663Y-107.088
X104.663Y-114.708
X104.902Y-147.459
X105.654Y-123.832
X105.654Y-139.072
X105.918Y-84.341
X105.918Y-89.341
X106.929Y-187.103
X106.929Y-202.343
X107.203Y-107.088
X107.203Y-114.708
X107.298Y-59.321
X108.194Y-123.832
X108.194Y-139.072
X108.458Y-48.439
X108.458Y-53.439
X109.22Y-65.457
X109.22Y-70.457
X109.469Y-187.103
X109.469Y-202.343
X109.743Y-107.088
X109.743Y-114.708
X109.798Y-59.321
X110.236Y-73.799
X110.734Y-123.832
X110.734Y-139.072
X111.76Y-84.721
X111.76Y-89.721
X112.009Y-187.103
X112.009Y-202.343
X112.283Y-107.088
X112.283Y-114.708
X113.274Y-123.832
X113.274Y-139.072
X114.549Y-187.103
X114.549Y-202.343
X115.57Y-84.761
X115.57Y-89.761
X115.814Y-123.832
X115.814Y-139.072
X116.84Y-143.141
X117.089Y-187.103
X117.089Y-202.343
X118.354Y-123.832
X118.354Y-139.072
X119.126Y-47.423
X119.126Y-52.423
X119.126Y-59.829
X119.126Y-64.829
X119.126Y-72.315
X119.126Y-77.315
X119.38Y-84.761
X119.38Y-89.761
X119.629Y-187.103
X119.629Y-202.343
X120.142Y-147.459
X120.894Y-123.832
X120.894Y-139.072
X120.904Y-214.515
X122.169Y-187.103
X122.169Y-202.343
X123.23Y-29.349
X123.434Y-123.832
X123.434Y-139.072
X123.683Y-45.082
X123.683Y-52.702
X123.683Y-57.533
X123.683Y-65.153
X123.683Y-69.984
X123.683Y-77.604
X123.683Y-82.435
X123.683Y-90.055
X124.709Y-187.103
X124.709Y-202.343
X125.979Y-98.437
X125.979Y-113.677
X126.223Y-45.082
X126.223Y-52.702
X126.223Y-57.533
X126.223Y-65.153
X126.223Y-69.984
X126.223Y-77.604
X126.223Y-82.435
X126.223Y-90.055
X126.492Y-155.627
X126.492Y-160.627
X127.249Y-187.103
X127.249Y-202.343
X128.23Y-29.349
X128.519Y-98.437
X128.519Y-113.677
X128.763Y-45.082
X128.763Y-52.702
X128.763Y-57.533
X128.763Y-65.153
X128.763Y-69.984
X128.763Y-77.604
X128.763Y-82.435
X128.763Y-90.055
X129.789Y-187.103
X129.789Y-202.343
X130.546Y-123.568
X130.546Y-131.188
X130.546Y-137.03
X130.546Y-144.65
X130.556Y-155.627
X130.556Y-160.627
X131.059Y-98.437
X131.059Y-113.677
X131.064Y-214.515
X131.303Y-45.082
X131.303Y-52.702
X131.303Y-57.533
X131.303Y-65.153
X131.303Y-69.984
X131.303Y-77.604
X131.303Y-82.435
X131.303Y-90.055
X132.329Y-187.103
X132.329Y-202.343
X133.086Y-123.568
X133.086Y-131.188
X133.086Y-137.03
X133.086Y-144.65
X133.599Y-98.437
X133.599Y-113.677
X133.843Y-45.082
X133.843Y-52.702
X133.843Y-57.533
X133.843Y-65.153
X133.843Y-69.984
X133.843Y-77.604
X133.843Y-82.435
X133.843Y-90.055
X134.625Y-153.032
X134.625Y-160.652
X134.869Y-187.103
X134.869Y-202.343
X135.626Y-123.568
X135.626Y-131.188
X135.626Y-137.03
X135.626Y-144.65
X136.139Y-98.437
X136.139Y-113.677
X136.383Y-45.082
X136.383Y-52.702
X136.383Y-57.533
X136.383Y-65.153
X136.383Y-69.984
X136.383Y-77.604
X136.383Y-82.435
X136.383Y-90.055
X137.165Y-153.032
X137.165Y-160.652
X137.409Y-187.103
X137.409Y-202.343
X138.166Y-123.568
X138.166Y-131.188
X138.166Y-137.03
X138.166Y-144.65
X138.679Y-98.437
X138.679Y-113.677
X138.923Y-45.082
X138.923Y-52.702
X138.923Y-57.533
X138.923Y-65.153
X138.923Y-69.984
X138.923Y-77.604
X138.923Y-82.435
X138.923Y-90.055
X139.705Y-153.032
X139.705Y-160.652
X139.949Y-187.103
X139.949Y-202.343
X140.706Y-123.568
X140.706Y-131.188
X140.706Y-137.03
X140.706Y-144.65
X141.219Y-98.437
X141.219Y-113.677
X141.463Y-45.082
X141.463Y-52.702
X141.463Y-57.533
X141.463Y-65.153
X141.463Y-69.984
X141.463Y-77.604
X141.463Y-82.435
X141.463Y-90.055
X142.245Y-153.032
X142.245Y-160.652
X143.246Y-123.568
X143.246Y-131.188
X143.246Y-137.03
X143.246Y-144.65
X143.759Y-98.437
X143.759Y-113.677
X144.785Y-153.032
X144.785Y-160.652
X145.786Y-123.568
X145.786Y-131.188
X145.786Y-137.03
X145.786Y-144.65
X145.796Y-47.891
X145.796Y-52.891
X145.796Y-85.229
X145.796Y-90.229
X146.05Y-60.377
X146.05Y-65.377
X146.05Y-72.823
X146.05Y-77.823
X146.299Y-98.437
X146.299Y-113.677
X146.558Y-163.715
X147.325Y-153.032
X147.325Y-160.652
X148.326Y-123.568
X148.326Y-131.188
X148.326Y-137.03
X148.326Y-144.65
X148.839Y-98.437
X148.839Y-113.677
X149.865Y-153.032
X149.865Y-160.652
X150.368Y-45.097
X150.368Y-50.097
X150.368Y-57.583
X150.368Y-62.583
X150.368Y-70.029
X150.368Y-75.029
X150.368Y-82.475
X150.368Y-87.475
X150.368Y-189.115
X150.368Y-199.275
X150.866Y-123.568
X150.866Y-131.188
X150.866Y-137.03
X150.866Y-144.65
X151.379Y-98.437
X151.379Y-113.677
X153.67Y-94.119
X153.919Y-98.437
X153.919Y-113.677
X154.686Y-188.099
X154.686Y-198.259
X155.433Y-122.044
X155.433Y-129.664
X155.702Y-82.435
X155.702Y-90.055
X155.717Y-45.082
X155.717Y-52.702
X155.717Y-57.533
X155.717Y-65.153
X155.717Y-69.984
X155.717Y-77.604
X156.459Y-98.437
X156.459Y-113.677
X156.464Y-139.879
X156.464Y-144.879
X157.973Y-122.044
X157.973Y-129.664
X158.242Y-82.435
X158.242Y-90.055
X158.242Y-182.511
X158.242Y-192.671
X158.242Y-198.005
X158.242Y-208.165
X158.257Y-45.082
X158.257Y-52.702
X158.257Y-57.533
X158.257Y-65.153
X158.257Y-69.984
X158.257Y-77.604
X158.75Y-150.761
X158.75Y-160.921
X158.999Y-98.437
X158.999Y-113.677
X160.274Y-137.807
X160.513Y-122.044
X160.513Y-129.664
X160.782Y-82.435
X160.782Y-90.055
X160.79Y-145.935
X160.797Y-45.082
X160.797Y-52.702
X160.797Y-57.533
X160.797Y-65.153
X160.797Y-69.984
X160.797Y-77.604
X161.29Y-169.303
X161.29Y-174.303
X161.539Y-98.437
X161.539Y-113.677
X161.798Y-163.715
X161.838Y-158.889
X161.878Y-155.333
X162.306Y-198.005
X162.306Y-208.165
X162.875Y-213.753
X163.053Y-122.044
X163.053Y-129.664
X163.068Y-184.543
X163.068Y-192.163
X163.322Y-82.435
X163.322Y-90.055
X163.33Y-143.395
X163.33Y-148.475
X163.337Y-45.082
X163.337Y-52.702
X163.337Y-57.533
X163.337Y-65.153
X163.337Y-69.984
X163.337Y-77.604
X163.83Y-94.119
X164.079Y-98.437
X164.079Y-113.677
X164.338Y-178.447
X165.354Y-181.495
X165.359Y-162.176
X165.359Y-169.796
X165.593Y-122.044
X165.593Y-129.664
X165.608Y-184.543
X165.608Y-192.163
X165.862Y-82.435
X165.862Y-90.055
X165.877Y-45.082
X165.877Y-52.702
X165.877Y-57.533
X165.877Y-65.153
X165.877Y-69.984
X165.877Y-77.604
X166.619Y-98.437
X166.619Y-113.677
X166.624Y-150.507
X166.624Y-198.005
X166.624Y-208.165
X166.838Y-158.889
X166.878Y-140.855
X166.878Y-155.333
X167.078Y-174.129
X167.64Y-146.951
X167.875Y-213.753
X167.899Y-162.176
X167.899Y-169.796
X168.133Y-122.044
X168.133Y-129.664
X168.148Y-184.543
X168.148Y-192.163
X168.402Y-82.435
X168.402Y-90.055
X168.417Y-45.082
X168.417Y-52.702
X168.417Y-57.533
X168.417Y-65.153
X168.417Y-69.984
X168.417Y-77.604
X169.159Y-98.437
X169.159Y-113.677
X169.781Y-117.741
X170.18Y-143.903
X170.434Y-137.807
X170.439Y-162.176
X170.439Y-169.796
X170.673Y-122.044
X170.673Y-129.664
X170.688Y-184.543
X170.688Y-192.163
X170.942Y-82.435
X170.942Y-90.055
X170.957Y-45.082
X170.957Y-52.702
X170.957Y-57.533
X170.957Y-65.153
X170.957Y-69.984
X170.957Y-77.604
X171.196Y-195.211
X171.699Y-98.437
X171.699Y-113.677
X171.958Y-174.129
X172.281Y-117.741
X172.76Y-158.889
X172.979Y-162.176
X172.979Y-169.796
X173.213Y-122.044
X173.213Y-129.664
X173.228Y-184.543
X173.228Y-192.163
X173.228Y-203.593
X173.228Y-213.753
X173.482Y-82.435
X173.482Y-90.055
X173.497Y-45.082
X173.497Y-52.702
X173.497Y-57.533
X173.497Y-65.153
X173.497Y-69.984
X173.497Y-77.604
X174.239Y-98.437
X174.239Y-113.677
X174.244Y-198.259
X174.498Y-178.447
X175.18Y-143.903
X175.514Y-181.495
X175.519Y-162.176
X175.519Y-169.796
X175.768Y-184.543
X175.768Y-192.163
X176.276Y-137.807
X176.784Y-150.507
X177.038Y-140.855
X177.76Y-158.889
X177.8Y-146.951
X178.059Y-162.176
X178.059Y-169.796
X178.308Y-174.677
X178.308Y-179.677
X178.308Y-184.543
X178.308Y-192.163
X178.562Y-47.677
X178.562Y-52.677
X178.562Y-60.123
X178.562Y-65.123
X178.562Y-72.569
X178.562Y-77.569
X178.562Y-85.015
X178.562Y-90.015
X179.07Y-119.773
X179.07Y-129.933
X180.599Y-162.176
X180.599Y-169.796
X181.276Y-137.807
X181.356Y-195.211
X182.626Y-101.993
X182.626Y-112.153
X182.88Y-185.853
X182.88Y-190.853
X183.134Y-119.265
X183.134Y-129.425
X184.404Y-198.259
T2
X28.448Y-148.475
X29.667Y-56.781
X30.175Y-128.409
X33.274Y-126.123
X35.56Y-126.123
X38.354Y-126.123
X39.878Y-140.855
X41.91Y-62.115
X41.91Y-138.061
X41.948Y-126.275
X50.292Y-193.433
X52.832Y-144.665
X55.118Y-138.569
X57.34Y-85.178
X57.404Y-129.171
X58.166Y-206.895
X59.69Y-206.895
X64.289Y-126.658
X65.278Y-145.427
X66.294Y-177.431
X67.31Y-174.129
X67.936Y-126.939
X69.388Y-146.901
X69.85Y-175.653
X72.39Y-82.943
X72.39Y-97.675
X72.898Y-111.137
X72.898Y-207.657
X73.425Y-113.15
X74.168Y-211.467
X75.946Y-121.805
X75.954Y-141.072
X76.5Y-177.178
X78.384Y-90.516
X78.486Y-92.341
X78.495Y-88.691
X80.264Y-93.611
X80.772Y-162.953
X81.28Y-170.877
X81.534Y-72.529
X82.55Y-54.495
X83.312Y-144.919
X85.395Y-163.207
X85.852Y-98.183
X87.376Y-99.453
X87.476Y-181.849
X87.676Y-196.624
X87.884Y-87.261
X88.138Y-164.985
X88.365Y-194.93
X88.951Y-208.965
X90.397Y-217.844
X90.472Y-130.187
X90.542Y-116.92
X90.983Y-190.784
X91.186Y-84.721
X92.71Y-216.293
X92.71Y-218.325
X92.964Y-150.253
X93.218Y-130.187
X94.488Y-182.511
X94.916Y-127.479
X95.758Y-110.629
X95.758Y-158.381
X96.225Y-117.689
X96.52Y-155.333
X97.028Y-167.779
X97.788Y-216.662
X97.79Y-180.225
X97.944Y-208.115
X99.314Y-219.341
X99.373Y-214.224
X100.584Y-130.187
X101.6Y-182.511
X102.516Y-131.557
X103.342Y-219.885
X105.41Y-92.087
X105.664Y-189.369
X107.899Y-182.104
X108.458Y-189.369
X108.961Y-38.543
X108.966Y-36.715
X108.966Y-42.303
X108.966Y-40.372
X109.317Y-178.448
X109.538Y-213.943
X110.336Y-215.685
X114.808Y-179.666
X115.062Y-214.007
X115.062Y-216.293
X116.332Y-98.183
X119.634Y-114.896
X120.955Y-141.617
X122.169Y-212.986
X122.798Y-111.728
X123.698Y-98.945
X125.984Y-110.121
X125.984Y-213.245
X127.079Y-153.841
X128.524Y-110.121
X130.048Y-216.547
X130.302Y-152.793
X131.064Y-110.121
X131.318Y-94.119
X132.26Y-181.864
X132.715Y-195.084
X134.868Y-166.916
X135.128Y-109.613
X136.144Y-107.073
X136.347Y-217.768
X136.652Y-195.465
X137.376Y-181.851
X137.668Y-93.865
X137.668Y-169.303
X139.243Y-217.822
X139.446Y-196.989
X139.954Y-93.865
X140.97Y-119.519
X142.494Y-168.033
X142.787Y-178.843
X143.256Y-120.281
X144.526Y-196.989
X144.66Y-182.18
X144.78Y-62.623
X145.288Y-50.685
X145.288Y-105.549
X145.796Y-125.92
X146.05Y-185.736
X146.101Y-200.032
X146.304Y-177.431
X147.066Y-120.535
X147.066Y-140.601
X147.117Y-202.007
X147.42Y-170.219
X148.133Y-195.619
X149.759Y-108.342
X150.114Y-209.994
X150.368Y-166.052
X150.368Y-180.733
X151.13Y-115.963
X153.01Y-193.433
X153.416Y-131.958
X153.77Y-109.967
X154.432Y-133.489
X155.702Y-207.149
X156.21Y-148.475
X157.023Y-173.875
X157.207Y-209.718
X158.96Y-109.587
X159.222Y-213.209
X160.376Y-193.687
X161.561Y-109.207
X162.203Y-201.782
X162.295Y-205.676
X162.784Y-151.173
X163.655Y-109.207
X163.83Y-136.537
X165.354Y-201.561
X165.354Y-204.355
X165.862Y-152.793
X167.64Y-181.241
X167.843Y-136.537
X169.672Y-147.713
X171.196Y-106.057
X171.358Y-188.319
X171.648Y-180.042
X172.263Y-151.269
X173.228Y-149.306
X175.006Y-147.205
X176.53Y-56.781
X176.987Y-87.551
X177.546Y-68.973
X178.308Y-82.181
X178.562Y-111.391
X180.594Y-188.353
X181.305Y-125.615
X182.778Y-96.405
X182.778Y-98.983
T3
X31.668Y-48.806
X31.668Y-51.576
X31.668Y-54.346
X31.668Y-57.116
X31.668Y-139.738
X31.668Y-142.508
X31.668Y-145.278
X31.668Y-148.048
X34.508Y-47.421
X34.508Y-50.191
X34.508Y-52.961
X34.508Y-55.731
X34.508Y-58.501
X34.508Y-138.353
X34.508Y-141.123
X34.508Y-143.893
X34.508Y-146.663
X34.508Y-149.433
X42.784Y-172.097
X50.404Y-172.097
X89.916Y-91.437
X89.916Y-99.057
X94.996Y-91.437
X94.996Y-99.057
X99.314Y-48.033
X99.314Y-55.653
X100.188Y-94.373
X103.886Y-47.144
X103.886Y-49.684
X103.886Y-52.224
X103.886Y-54.764
X103.886Y-57.304
X103.886Y-59.844
X103.886Y-62.384
X103.886Y-64.924
X107.808Y-94.373
X111.618Y-94.373
X119.238Y-94.373
X130.698Y-35.953
X138.318Y-35.953
X146.162Y-30.619
X153.782Y-30.619
X167.782Y-133.743
X169.56Y-154.571
X175.402Y-133.743
X177.18Y-154.571
X179.324Y-204.323
X179.324Y-206.355
X179.324Y-208.387
X181.864Y-204.323
X181.864Y-208.387
X184.404Y-204.323
X184.404Y-206.355
X184.404Y-208.387
T4
X43.434Y-177.685
X43.434Y-203.085
X50.038Y-177.685
X50.038Y-203.085
X97.79Y-171.081
X97.79Y-175.907
X100.33Y-171.081
X100.33Y-175.907
X102.87Y-171.081
X102.87Y-175.907
X105.41Y-171.081
X105.41Y-175.907
X107.95Y-171.081
X107.95Y-175.907
X110.49Y-171.081
X110.49Y-175.907
X113.03Y-171.081
X113.03Y-175.907
X115.57Y-171.081
X115.57Y-175.907
X118.11Y-171.081
X118.11Y-175.907
X120.65Y-171.081
X120.65Y-175.907
X123.19Y-171.081
X123.19Y-175.907
X125.73Y-171.081
X125.73Y-175.907
X128.27Y-171.081
X128.27Y-175.907
X130.81Y-171.081
X130.81Y-175.907
X133.35Y-171.081
X133.35Y-175.907
T5
X28.343Y-168.443
X28.343Y-172.403
X28.343Y-176.363
X28.343Y-180.323
T6
X27.559Y-205.276
X36.195Y-205.276
T7
X177.038Y-206.355
X186.69Y-206.355
T8
X33.088Y-40.461
X33.088Y-65.461
X33.088Y-131.393
X33.088Y-156.393
T9
X89.22Y-173.482
X141.92Y-173.482
T10
X37.084Y-30.873
X51.308Y-214.769
X115.824Y-159.651
X182.372Y-33.921
X182.372Y-221.373
T6
G00X27.559Y-199.918
M15
G01X27.559Y-196.918
M16
G05
G00X27.559Y-213.634
M15
G01X27.559Y-210.634
M16
G05
G00X30.004Y-189.369
M15
G01X34.004Y-189.369
M16
G05
G00X30.004Y-221.119
M15
G01X34.004Y-221.119
M16
G05
G00X36.195Y-199.918
M15
G01X36.195Y-196.918
M16
G05
G00X36.195Y-213.634
M15
G01X36.195Y-210.634
M16
G05
G00X43.96Y-44.557
M15
G01X43.96Y-40.557
M16
G05
G00X51.594Y-79.659
M15
G01X55.594Y-79.659
M16
G05
G00X103.41Y-26.573
M15
G01X107.41Y-26.573
M16
G05
G00X103.41Y-79.641
M15
G01X107.41Y-79.641
M16
G05
G00X114.808Y-66.147
M15
G01X114.808Y-62.147
M16
G05
T0
M30
