%TF.GenerationSoftware,KiCad,Pcbnew,6.0.11-2627ca5db0~126~ubuntu22.04.1*%
%TF.CreationDate,2023-04-17T19:05:48-04:00*%
%TF.ProjectId,coleco_original_main_only,636f6c65-636f-45f6-9f72-6967696e616c,DEV*%
%TF.SameCoordinates,Original*%
%TF.FileFunction,Profile,NP*%
%FSLAX46Y46*%
G04 Gerber Fmt 4.6, Leading zero omitted, Abs format (unit mm)*
G04 Created by KiCad (PCBNEW 6.0.11-2627ca5db0~126~ubuntu22.04.1) date 2023-04-17 19:05:48*
%MOMM*%
%LPD*%
G01*
G04 APERTURE LIST*
%TA.AperFunction,Profile*%
%ADD10C,0.100000*%
%TD*%
G04 APERTURE END LIST*
D10*
X24560666Y-232261000D02*
G75*
G03*
X24560666Y-232261000I-1666666J0D01*
G01*
X20394000Y-232261000D02*
X25394000Y-232261000D01*
X22894000Y-229761000D02*
X22894000Y-234761000D01*
X166878000Y-230517000D02*
X167386000Y-231025000D01*
X24130000Y-231025000D02*
X67056000Y-231025000D01*
X67056000Y-17157000D02*
X24130000Y-17157000D01*
X67818000Y-218071000D02*
X77978000Y-218071000D01*
X169418000Y-22491000D02*
X168148000Y-22491000D01*
X96012000Y-17157000D02*
X96012000Y-23761000D01*
X156718000Y-217817000D02*
X166624000Y-217817000D01*
X168148000Y-22491000D02*
X168148000Y-17157000D01*
X166624000Y-217817000D02*
X166878000Y-218071000D01*
X192532000Y-17157000D02*
X169418000Y-17157000D01*
X24130000Y-17157000D02*
X24130000Y-231025000D01*
X189484000Y-21983000D02*
X192532000Y-21983000D01*
X67056000Y-23761000D02*
X67056000Y-17157000D01*
X189484000Y-22999000D02*
X189484000Y-21983000D01*
X167386000Y-231025000D02*
X192532000Y-231025000D01*
X169418000Y-17157000D02*
X169418000Y-22491000D01*
X192532000Y-21983000D02*
X192532000Y-17157000D01*
X67564000Y-230517000D02*
X67564000Y-218325000D01*
X192532000Y-231025000D02*
X192532000Y-22999000D01*
X78232000Y-218325000D02*
X78232000Y-220992000D01*
X96012000Y-23761000D02*
X67056000Y-23761000D01*
X77978000Y-218071000D02*
X78232000Y-218325000D01*
X192532000Y-22999000D02*
X189484000Y-22999000D01*
X168148000Y-17157000D02*
X96012000Y-17157000D01*
X156464000Y-220992000D02*
X156464000Y-218071000D01*
X156464000Y-218071000D02*
X156718000Y-217817000D01*
X166878000Y-218071000D02*
X166878000Y-230517000D01*
X67564000Y-218325000D02*
X67818000Y-218071000D01*
X67056000Y-231025000D02*
X67564000Y-230517000D01*
%TO.C,J2*%
X78740000Y-231152000D02*
X78232000Y-230390000D01*
X78232000Y-230390000D02*
X78232000Y-220992000D01*
X156464000Y-220992000D02*
X156464000Y-230390000D01*
X155956000Y-231152000D02*
X78740000Y-231152000D01*
X156464000Y-230390000D02*
X155956000Y-231152000D01*
%TD*%
M02*
