%TF.GenerationSoftware,KiCad,Pcbnew,6.0.11-2627ca5db0~126~ubuntu22.04.1*%
%TF.CreationDate,2023-03-24T15:20:38-04:00*%
%TF.ProjectId,coleco_original_main_only,636f6c65-636f-45f6-9f72-6967696e616c,DEV*%
%TF.SameCoordinates,Original*%
%TF.FileFunction,Other,User*%
%FSLAX46Y46*%
G04 Gerber Fmt 4.6, Leading zero omitted, Abs format (unit mm)*
G04 Created by KiCad (PCBNEW 6.0.11-2627ca5db0~126~ubuntu22.04.1) date 2023-03-24 15:20:38*
%MOMM*%
%LPD*%
G01*
G04 APERTURE LIST*
%ADD10C,0.800000*%
G04 APERTURE END LIST*
D10*
X77470000Y-232041000D02*
X76708000Y-231279000D01*
X67056000Y-231533000D02*
X67056000Y-219341000D01*
X155194000Y-232041000D02*
X155956000Y-231279000D01*
X167894000Y-17411000D02*
X167894000Y-22745000D01*
X66294000Y-232295000D02*
X67056000Y-231533000D01*
X66548000Y-24523000D02*
X66548000Y-17411000D01*
X167640000Y-17411000D02*
X94488000Y-17411000D01*
X22606000Y-17411000D02*
X22606000Y-232041000D01*
X192024000Y-232295000D02*
X192024000Y-23253000D01*
X94488000Y-17411000D02*
X94488000Y-24523000D01*
X165354000Y-231025000D02*
X165354000Y-231279000D01*
X94488000Y-24523000D02*
X66548000Y-24523000D01*
X66548000Y-17411000D02*
X22606000Y-17411000D01*
X192024000Y-17411000D02*
X168148000Y-17411000D01*
X76708000Y-219341000D02*
X76708000Y-231279000D01*
X167894000Y-22745000D02*
X167640000Y-22745000D01*
X167640000Y-22745000D02*
X167640000Y-17665000D01*
X77470000Y-232041000D02*
X155194000Y-232041000D01*
X192024000Y-23253000D02*
X188976000Y-23253000D01*
X67056000Y-219341000D02*
X76708000Y-219341000D01*
X192024000Y-23253000D02*
X192024000Y-17411000D01*
X155956000Y-219087000D02*
X165354000Y-219087000D01*
X165354000Y-219087000D02*
X165354000Y-231025000D01*
X22606000Y-232295000D02*
X66294000Y-232295000D01*
X165354000Y-231279000D02*
X166370000Y-232295000D01*
X166370000Y-232295000D02*
X192024000Y-232295000D01*
X168148000Y-17411000D02*
X167894000Y-17411000D01*
X76708000Y-231025000D02*
X76708000Y-231279000D01*
X155956000Y-231279000D02*
X155956000Y-219087000D01*
M02*
