M48
; DRILL file {KiCad 6.0.10-86aedd382b~118~ubuntu22.04.1} date Sat 04 Feb 2023 03:51:56 PM EST
; FORMAT={-:-/ absolute / metric / decimal}
; #@! TF.CreationDate,2023-02-04T15:51:56-05:00
; #@! TF.GenerationSoftware,Kicad,Pcbnew,6.0.10-86aedd382b~118~ubuntu22.04.1
; #@! TF.FileFunction,MixedPlating,1,2
FMAT,2
METRIC
; #@! TA.AperFunction,Plated,PTH,ComponentDrill
T1C0.700
; #@! TA.AperFunction,Plated,PTH,ComponentDrill
T2C0.762
; #@! TA.AperFunction,Plated,PTH,ComponentDrill
T3C0.800
; #@! TA.AperFunction,Plated,PTH,ComponentDrill
T4C0.900
; #@! TA.AperFunction,Plated,PTH,ComponentDrill
T5C1.000
; #@! TA.AperFunction,Plated,PTH,ComponentDrill
T6C1.100
; #@! TA.AperFunction,Plated,PTH,ComponentDrill
T7C1.200
; #@! TA.AperFunction,Plated,PTH,ComponentDrill
T8C1.300
; #@! TA.AperFunction,Plated,PTH,ComponentDrill
T9C1.500
; #@! TA.AperFunction,Plated,PTH,ComponentDrill
T10C1.700
; #@! TA.AperFunction,Plated,PTH,ComponentDrill
T11C2.000
; #@! TA.AperFunction,Plated,PTH,ComponentDrill
T12C2.693
; #@! TA.AperFunction,Plated,PTH,ComponentDrill
T13C2.818
; #@! TA.AperFunction,Plated,PTH,ComponentDrill
T14C3.250
; #@! TA.AperFunction,Plated,PTH,ComponentDrill
T15C5.300
; #@! TA.AperFunction,NonPlated,NPTH,ComponentDrill
T16C2.476
%
G90
G05
T1
X-88.869Y-173.742
X-81.249Y-173.742
X325.405Y-89.995
X333.025Y-89.995
X393.535Y-89.995
X393.535Y-96.345
X401.155Y-89.995
X401.155Y-96.345
X478.455Y-62.465
X486.075Y-62.465
X496.855Y-49.765
X504.475Y-49.765
T2
X-60.485Y-137.807
X-60.485Y-144.919
X-56.929Y-137.807
X-53.373Y-137.807
X-53.373Y-144.919
T3
X-94.768Y-50.094
X-94.768Y-54.444
X-93.718Y-58.644
X-93.718Y-62.694
X-92.228Y-50.094
X-92.228Y-54.444
X-89.688Y-50.094
X-89.688Y-54.444
X-89.569Y-178.942
X-89.169Y-134.122
X-89.169Y-136.662
X-89.169Y-139.202
X-89.169Y-141.742
X-89.169Y-144.282
X-89.169Y-146.822
X-89.169Y-149.362
X-89.169Y-151.902
X-89.169Y-154.442
X-88.718Y-58.644
X-88.718Y-62.694
X-87.148Y-50.094
X-87.148Y-54.444
X-84.608Y-50.094
X-84.608Y-54.444
X-82.168Y-58.644
X-82.168Y-62.694
X-82.068Y-50.094
X-82.068Y-54.444
X-81.949Y-178.942
X-81.549Y-134.122
X-81.549Y-136.662
X-81.549Y-139.202
X-81.549Y-141.742
X-81.549Y-144.282
X-81.549Y-146.822
X-81.549Y-149.362
X-81.549Y-151.902
X-81.549Y-154.442
X-79.528Y-50.094
X-79.528Y-54.444
X-78.799Y-178.942
X-77.168Y-58.644
X-77.168Y-62.694
X-76.988Y-50.094
X-76.988Y-54.444
X-73.319Y-133.822
X-73.319Y-148.072
X-72.318Y-57.034
X-72.318Y-61.084
X-71.468Y-52.984
X-71.179Y-178.942
X-69.719Y-172.592
X-67.829Y-176.642
X-67.829Y-180.692
X-66.468Y-52.984
X-66.459Y-152.122
X-66.459Y-156.172
X-66.459Y-160.222
X-66.259Y-164.272
X-66.259Y-168.322
X-65.699Y-148.072
X-64.698Y-57.034
X-64.698Y-61.084
X-63.159Y-133.822
X-62.829Y-176.642
X-62.829Y-180.692
X-62.099Y-172.592
X-62.068Y-6.634
X-62.068Y-9.174
X-62.068Y-11.714
X-62.068Y-14.254
X-62.068Y-16.794
X-62.068Y-19.334
X-62.068Y-21.874
X-62.068Y-24.414
X-62.068Y-26.954
X-62.068Y-29.494
X-62.068Y-33.634
X-62.068Y-36.174
X-62.068Y-38.714
X-62.068Y-41.254
X-62.068Y-43.794
X-62.068Y-46.334
X-62.068Y-48.874
X-61.618Y-52.984
X-61.348Y-57.034
X-61.259Y-164.272
X-61.259Y-168.322
X-60.009Y-133.822
X-58.839Y-152.122
X-58.839Y-156.172
X-58.839Y-160.222
X-58.749Y-172.372
X-58.749Y-176.422
X-57.709Y-166.752
X-56.348Y-57.034
X-55.689Y-148.902
X-55.689Y-152.952
X-54.448Y-6.634
X-54.448Y-9.174
X-54.448Y-11.714
X-54.448Y-14.254
X-54.448Y-16.794
X-54.448Y-19.334
X-54.448Y-21.874
X-54.448Y-24.414
X-54.448Y-26.954
X-54.448Y-29.494
X-54.448Y-33.634
X-54.448Y-36.174
X-54.448Y-38.714
X-54.448Y-41.254
X-54.448Y-43.794
X-54.448Y-46.334
X-54.448Y-48.874
X-53.998Y-52.984
X-53.749Y-172.372
X-53.749Y-176.422
X-52.709Y-166.752
X-51.738Y-75.79
X-50.868Y-37.634
X-50.868Y-41.684
X-50.868Y-45.734
X-50.468Y-6.634
X-50.468Y-9.174
X-50.468Y-11.714
X-50.468Y-14.254
X-50.468Y-16.794
X-50.468Y-19.334
X-50.468Y-21.874
X-50.468Y-24.414
X-50.468Y-26.954
X-50.468Y-29.494
X-49.849Y-133.822
X-49.589Y-137.622
X-49.589Y-141.672
X-49.168Y-33.584
X-48.069Y-148.902
X-48.069Y-152.952
X-45.739Y-159.522
X-44.719Y-155.472
X-44.168Y-33.584
X-44.118Y-75.79
X-43.248Y-37.634
X-43.248Y-41.684
X-43.248Y-45.734
X-42.848Y-6.634
X-42.848Y-9.174
X-42.848Y-11.714
X-42.848Y-14.254
X-42.848Y-16.794
X-42.848Y-19.334
X-42.848Y-21.874
X-42.848Y-24.414
X-42.848Y-26.954
X-42.848Y-29.494
X-41.969Y-137.622
X-41.969Y-141.672
X-40.739Y-159.522
X-40.098Y-37.634
X-39.719Y-155.472
X-39.318Y-33.584
X-39.268Y-18.734
X-39.268Y-22.534
X-39.268Y-26.334
X-38.819Y-134.072
X-38.619Y-138.122
X-37.568Y-6.584
X-37.568Y-10.634
X-37.568Y-14.684
X-34.969Y-143.822
X-34.969Y-147.872
X-34.798Y-64.77
X-33.619Y-138.122
X-32.568Y-6.584
X-32.568Y-10.634
X-32.568Y-14.684
X-32.478Y-37.634
X-31.698Y-33.584
X-31.648Y-18.734
X-31.648Y-22.534
X-31.648Y-26.334
X-31.199Y-134.072
X-29.969Y-143.822
X-29.969Y-147.872
X-28.538Y-28.884
X-28.498Y-18.734
X-28.298Y-22.784
X-27.718Y-10.634
X-27.718Y-14.684
X-27.178Y-64.77
X-26.018Y-6.584
X-25.998Y-26.344
X-23.458Y-28.884
X-23.298Y-22.784
X-21.018Y-6.584
X-20.878Y-18.734
X-20.098Y-10.634
X-20.098Y-14.684
X-17.768Y-20.784
X-17.509Y-135.322
X-16.948Y-10.634
X-16.948Y-14.434
X-16.168Y-6.584
X-15.509Y-135.322
X-15.228Y-18.244
X-12.688Y-20.784
X-9.328Y-10.634
X-9.328Y-14.434
X-8.548Y-6.584
X325.105Y-95.245
X325.105Y-97.785
X325.105Y-100.325
X325.105Y-102.865
X325.105Y-105.405
X325.105Y-107.945
X325.105Y-110.485
X325.105Y-114.645
X325.105Y-117.185
X325.105Y-119.725
X325.105Y-122.265
X325.105Y-124.805
X325.105Y-127.345
X325.105Y-129.885
X326.405Y-133.995
X328.677Y-186.619
X328.677Y-189.159
X328.677Y-191.699
X328.677Y-194.239
X328.677Y-196.779
X328.677Y-199.319
X328.677Y-201.859
X329.945Y-76.565
X330.395Y-24.215
X330.395Y-26.755
X330.395Y-29.295
X330.395Y-31.835
X330.395Y-34.375
X330.395Y-36.915
X330.395Y-39.455
X330.395Y-41.995
X330.395Y-44.535
X330.395Y-47.075
X330.395Y-49.615
X330.395Y-52.155
X330.395Y-54.695
X330.395Y-57.235
X330.395Y-59.775
X330.395Y-62.315
X330.395Y-64.855
X330.395Y-67.395
X330.395Y-69.935
X330.395Y-72.475
X331.405Y-133.995
X332.725Y-95.245
X332.725Y-97.785
X332.725Y-100.325
X332.725Y-102.865
X332.725Y-105.405
X332.725Y-107.945
X332.725Y-110.485
X332.725Y-114.645
X332.725Y-117.185
X332.725Y-119.725
X332.725Y-122.265
X332.725Y-124.805
X332.725Y-127.345
X332.725Y-129.885
X333.717Y-180.119
X335.717Y-180.119
X336.255Y-133.995
X336.265Y-97.245
X336.297Y-186.619
X336.297Y-189.159
X336.297Y-191.699
X336.297Y-194.239
X336.297Y-196.779
X336.297Y-199.319
X336.297Y-201.859
X336.305Y-115.595
X336.305Y-119.645
X336.305Y-123.695
X336.305Y-127.745
X337.565Y-76.565
X338.805Y-94.705
X339.877Y-188.469
X339.877Y-192.519
X339.877Y-196.569
X339.877Y-200.619
X341.345Y-97.245
X341.647Y-204.669
X342.237Y-209.969
X343.875Y-133.995
X343.925Y-115.595
X343.925Y-119.645
X343.925Y-123.695
X343.925Y-127.745
X344.237Y-209.969
X344.955Y-88.895
X344.955Y-91.435
X344.955Y-93.975
X344.955Y-96.515
X344.955Y-99.055
X344.955Y-101.595
X344.955Y-104.135
X345.635Y-24.215
X345.635Y-26.755
X345.635Y-29.295
X345.635Y-31.835
X345.635Y-34.375
X345.635Y-36.915
X345.635Y-39.455
X345.635Y-41.995
X345.635Y-44.535
X345.635Y-47.075
X345.635Y-49.615
X345.635Y-52.155
X345.635Y-54.695
X345.635Y-57.235
X345.635Y-59.775
X345.635Y-62.315
X345.635Y-64.855
X345.635Y-67.395
X345.635Y-69.935
X345.635Y-72.475
X346.647Y-204.669
X347.025Y-131.795
X347.075Y-115.595
X347.075Y-119.645
X347.075Y-123.695
X347.075Y-127.745
X347.497Y-188.469
X347.497Y-192.519
X347.497Y-196.569
X347.497Y-200.619
X347.797Y-171.519
X349.475Y-108.245
X349.595Y-24.215
X349.595Y-26.755
X349.595Y-29.295
X349.595Y-31.835
X349.595Y-34.375
X349.595Y-36.915
X349.595Y-39.455
X349.595Y-41.995
X349.595Y-46.115
X349.595Y-48.655
X349.595Y-51.195
X349.595Y-53.735
X349.595Y-56.275
X349.595Y-58.815
X349.595Y-61.355
X349.595Y-63.895
X350.607Y-198.619
X350.647Y-188.469
X350.847Y-192.519
X352.575Y-88.895
X352.575Y-91.435
X352.575Y-93.975
X352.575Y-96.515
X352.575Y-99.055
X352.575Y-101.595
X352.575Y-104.135
X352.797Y-171.519
X353.047Y-176.319
X353.047Y-180.369
X353.047Y-184.419
X353.147Y-196.079
X354.645Y-131.795
X354.695Y-115.595
X354.695Y-119.645
X354.695Y-123.695
X354.695Y-127.745
X355.687Y-198.619
X355.847Y-192.519
X356.155Y-99.545
X356.155Y-103.595
X357.095Y-108.245
X357.215Y-24.215
X357.215Y-26.755
X357.215Y-29.295
X357.215Y-31.835
X357.215Y-34.375
X357.215Y-36.915
X357.215Y-39.455
X357.215Y-41.995
X357.215Y-46.115
X357.215Y-48.655
X357.215Y-51.195
X357.215Y-53.735
X357.215Y-56.275
X357.215Y-58.815
X357.215Y-61.355
X357.215Y-63.895
X357.845Y-112.295
X357.845Y-116.345
X357.845Y-120.395
X357.855Y-95.495
X358.267Y-188.469
X358.605Y-90.145
X358.635Y-125.695
X359.347Y-172.269
X359.987Y-193.769
X360.245Y-107.645
X360.635Y-125.695
X360.667Y-176.319
X360.667Y-180.369
X360.667Y-184.419
X360.967Y-164.169
X360.967Y-168.219
X361.195Y-24.215
X361.195Y-26.755
X361.195Y-29.295
X361.195Y-31.835
X361.195Y-34.375
X361.195Y-36.915
X361.195Y-39.455
X361.195Y-41.995
X361.195Y-46.115
X361.195Y-48.655
X361.195Y-51.195
X361.195Y-53.735
X361.195Y-56.275
X361.195Y-58.815
X361.195Y-61.355
X361.195Y-63.895
X361.987Y-193.769
X362.855Y-95.495
X363.485Y-90.145
X363.775Y-99.545
X363.775Y-103.595
X363.777Y-186.469
X363.817Y-176.319
X364.017Y-180.369
X364.347Y-172.269
X365.465Y-112.295
X365.465Y-116.345
X365.465Y-120.395
X365.967Y-164.169
X365.967Y-168.219
X366.317Y-183.929
X366.925Y-100.995
X367.705Y-96.945
X367.865Y-107.645
X368.615Y-111.695
X368.815Y-24.215
X368.815Y-26.755
X368.815Y-29.295
X368.815Y-31.835
X368.815Y-34.375
X368.815Y-36.915
X368.815Y-39.455
X368.815Y-41.995
X368.815Y-46.115
X368.815Y-48.655
X368.815Y-51.195
X368.815Y-53.735
X368.815Y-56.275
X368.815Y-58.815
X368.815Y-61.355
X368.815Y-63.895
X368.815Y-115.745
X368.857Y-186.469
X369.017Y-180.369
X369.105Y-92.895
X369.197Y-172.269
X370.805Y-88.845
X371.215Y-105.045
X371.437Y-176.319
X372.517Y-164.169
X372.517Y-168.219
X372.795Y-24.215
X372.795Y-26.755
X372.795Y-29.295
X372.795Y-31.835
X372.795Y-34.375
X372.795Y-36.915
X372.795Y-39.455
X372.795Y-41.995
X372.795Y-46.115
X372.795Y-48.655
X372.795Y-51.195
X372.795Y-53.735
X372.795Y-56.275
X372.795Y-58.815
X372.795Y-61.355
X372.795Y-63.895
X373.815Y-115.745
X374.545Y-100.995
X375.325Y-96.945
X375.805Y-88.845
X376.215Y-105.045
X376.235Y-111.695
X376.725Y-92.895
X376.817Y-172.269
X377.517Y-164.169
X377.517Y-168.219
X377.895Y-100.995
X379.765Y-105.045
X380.415Y-24.215
X380.415Y-26.755
X380.415Y-29.295
X380.415Y-31.835
X380.415Y-34.375
X380.415Y-36.915
X380.415Y-39.455
X380.415Y-41.995
X380.415Y-46.115
X380.415Y-48.655
X380.415Y-51.195
X380.415Y-53.735
X380.415Y-56.275
X380.415Y-58.815
X380.415Y-61.355
X380.415Y-63.895
X380.855Y-88.845
X382.895Y-100.995
X384.395Y-24.215
X384.395Y-26.755
X384.395Y-29.295
X384.395Y-31.835
X384.395Y-34.375
X384.395Y-36.915
X384.395Y-39.455
X384.395Y-41.995
X384.765Y-105.045
X385.855Y-88.845
X389.367Y-153.939
X389.367Y-156.479
X389.367Y-159.019
X389.367Y-161.559
X389.367Y-164.099
X389.367Y-166.639
X389.367Y-169.179
X389.367Y-171.719
X392.015Y-24.215
X392.015Y-26.755
X392.015Y-29.295
X392.015Y-31.835
X392.015Y-34.375
X392.015Y-36.915
X392.015Y-39.455
X392.015Y-41.995
X394.535Y-127.505
X394.535Y-131.555
X395.995Y-24.215
X395.995Y-26.755
X395.995Y-29.295
X395.995Y-31.835
X395.995Y-34.375
X395.995Y-36.915
X395.995Y-39.455
X395.995Y-41.995
X396.987Y-153.939
X396.987Y-156.479
X396.987Y-159.019
X396.987Y-161.559
X396.987Y-164.099
X396.987Y-166.639
X396.987Y-169.179
X396.987Y-171.719
X399.535Y-127.505
X399.535Y-131.555
X403.615Y-24.215
X403.615Y-26.755
X403.615Y-29.295
X403.615Y-31.835
X403.615Y-34.375
X403.615Y-36.915
X403.615Y-39.455
X403.615Y-41.995
X406.795Y-125.455
X407.705Y-120.155
X408.795Y-125.455
X412.285Y-110.095
X412.285Y-114.145
X412.705Y-120.155
X417.285Y-110.095
X417.285Y-114.145
X421.805Y-76.565
X422.255Y-24.215
X422.255Y-26.755
X422.255Y-29.295
X422.255Y-31.835
X422.255Y-34.375
X422.255Y-36.915
X422.255Y-39.455
X422.255Y-41.995
X422.255Y-44.535
X422.255Y-47.075
X422.255Y-49.615
X422.255Y-52.155
X422.255Y-54.695
X422.255Y-57.235
X422.255Y-59.775
X422.255Y-62.315
X422.255Y-64.855
X422.255Y-67.395
X422.255Y-69.935
X422.255Y-72.475
X427.555Y-96.195
X427.555Y-100.245
X429.425Y-76.565
X432.555Y-96.195
X432.555Y-100.245
X437.495Y-24.215
X437.495Y-26.755
X437.495Y-29.295
X437.495Y-31.835
X437.495Y-34.375
X437.495Y-36.915
X437.495Y-39.455
X437.495Y-41.995
X437.495Y-44.535
X437.495Y-47.075
X437.495Y-49.615
X437.495Y-52.155
X437.495Y-54.695
X437.495Y-57.235
X437.495Y-59.775
X437.495Y-62.315
X437.495Y-64.855
X437.495Y-67.395
X437.495Y-69.935
X437.495Y-72.475
X438.195Y-97.445
X440.195Y-97.445
X441.055Y-24.165
X448.675Y-24.165
X449.295Y-88.895
X449.295Y-91.435
X449.295Y-93.975
X449.295Y-96.515
X449.295Y-99.055
X449.295Y-101.595
X449.295Y-104.135
X449.295Y-106.675
X449.295Y-110.795
X449.295Y-113.335
X449.295Y-115.875
X449.295Y-118.415
X449.295Y-120.955
X449.295Y-123.495
X449.295Y-126.035
X449.295Y-128.575
X456.915Y-88.895
X456.915Y-91.435
X456.915Y-93.975
X456.915Y-96.515
X456.915Y-99.055
X456.915Y-101.595
X456.915Y-104.135
X456.915Y-106.675
X456.915Y-110.795
X456.915Y-113.335
X456.915Y-115.875
X456.915Y-118.415
X456.915Y-120.955
X456.915Y-123.495
X456.915Y-126.035
X456.915Y-128.575
X477.755Y-24.215
X477.755Y-26.755
X477.755Y-29.295
X477.755Y-31.835
X477.755Y-34.375
X477.755Y-36.915
X477.755Y-39.455
X477.755Y-41.995
X477.755Y-44.535
X477.755Y-47.075
X477.755Y-49.615
X477.755Y-52.155
X477.755Y-54.695
X477.755Y-57.235
X492.995Y-24.215
X492.995Y-26.755
X492.995Y-29.295
X492.995Y-31.835
X492.995Y-34.375
X492.995Y-36.915
X492.995Y-39.455
X492.995Y-41.995
X492.995Y-44.535
X492.995Y-47.075
X492.995Y-49.615
X492.995Y-52.155
X492.995Y-54.695
X492.995Y-57.235
X496.555Y-24.215
X496.555Y-26.755
X496.555Y-29.295
X496.555Y-31.835
X496.555Y-34.375
X496.555Y-36.915
X496.555Y-39.455
X496.555Y-41.995
X496.555Y-44.535
X504.175Y-24.215
X504.175Y-26.755
X504.175Y-29.295
X504.175Y-31.835
X504.175Y-34.375
X504.175Y-36.915
X504.175Y-39.455
X504.175Y-41.995
X504.175Y-44.535
X508.155Y-24.215
X508.155Y-26.755
X508.155Y-29.295
X508.155Y-31.835
X508.155Y-34.375
X508.155Y-36.915
X508.155Y-39.455
X508.155Y-41.995
X508.155Y-44.535
X515.775Y-24.215
X515.775Y-26.755
X515.775Y-29.295
X515.775Y-31.835
X515.775Y-34.375
X515.775Y-36.915
X515.775Y-39.455
X515.775Y-41.995
X515.775Y-44.535
T4
X-70.669Y-138.822
X-68.669Y-138.822
X-66.669Y-138.822
T5
X-77.219Y-134.372
X-77.219Y-136.912
X-77.219Y-139.452
X-77.219Y-141.992
X-77.219Y-144.532
X-77.219Y-147.072
X-77.219Y-149.612
X-77.219Y-152.152
X34.438Y-47.79
X34.438Y-50.56
X34.438Y-53.33
X34.438Y-56.1
X34.438Y-140.246
X34.438Y-143.016
X34.438Y-145.786
X34.438Y-148.556
X36.978Y-46.405
X36.978Y-49.175
X36.978Y-51.945
X36.978Y-54.715
X36.978Y-57.485
X36.978Y-138.861
X36.978Y-141.631
X36.978Y-144.401
X36.978Y-147.171
X36.978Y-149.941
X183.388Y-203.561
X183.388Y-207.625
X329.027Y-164.469
X329.027Y-167.009
X329.027Y-169.549
X329.027Y-172.089
X329.027Y-174.629
X329.027Y-177.169
X329.027Y-179.709
X329.027Y-182.249
T6
X99.06Y-170.942
X99.06Y-175.792
X101.6Y-170.942
X101.6Y-175.792
X104.14Y-170.942
X104.14Y-175.792
X106.68Y-170.942
X106.68Y-175.792
X109.22Y-170.942
X109.22Y-175.792
X111.76Y-170.942
X111.76Y-175.792
X114.3Y-170.942
X114.3Y-175.792
X116.84Y-170.942
X116.84Y-175.792
X119.38Y-170.942
X119.38Y-175.792
X121.92Y-170.942
X121.92Y-175.792
X124.46Y-170.942
X124.46Y-175.792
X127.0Y-170.942
X127.0Y-175.792
X129.54Y-170.942
X129.54Y-175.792
X132.08Y-170.942
X132.08Y-175.792
X134.62Y-170.942
X134.62Y-175.792
X330.377Y-207.619
X335.027Y-165.819
X335.027Y-173.169
X337.997Y-207.619
X338.405Y-109.895
X341.977Y-180.519
X342.647Y-165.819
X342.647Y-173.169
X346.025Y-109.895
X348.197Y-165.819
X349.597Y-180.519
X355.817Y-165.819
X394.935Y-121.805
X402.555Y-121.805
X414.125Y-104.395
X414.785Y-97.045
X421.745Y-104.395
X422.405Y-97.045
X433.975Y-90.495
X441.595Y-90.495
T7
X393.235Y-102.795
X408.475Y-102.795
X413.085Y-90.095
X428.325Y-90.095
T8
X-54.889Y-159.852
X-49.889Y-159.852
X-44.119Y-148.572
X-39.119Y-148.572
X-27.249Y-136.922
X-22.249Y-136.922
T9
X-72.769Y-138.822
X-64.569Y-138.822
X178.562Y-205.593
X188.214Y-205.593
T10
X30.375Y-168.443
X30.375Y-172.403
X30.375Y-176.363
X30.375Y-180.323
T11
X29.083Y-195.624
X29.083Y-203.498
X29.083Y-211.372
X37.719Y-195.624
X37.719Y-203.498
X37.719Y-211.372
T12
X-87.575Y-163.535
T13
X-83.075Y-163.535
T14
X90.49Y-173.367
X143.19Y-173.367
T15
X38.354Y-30.873
X52.07Y-214.769
X117.094Y-159.651
X183.642Y-221.373
X184.15Y-33.921
T16
X-79.925Y-159.285
X-79.925Y-167.785
T0
M30
