%TF.GenerationSoftware,KiCad,Pcbnew,6.0.11-2627ca5db0~126~ubuntu22.04.1*%
%TF.CreationDate,2023-05-13T09:43:47-04:00*%
%TF.ProjectId,coleco_original_main_only,636f6c65-636f-45f6-9f72-6967696e616c,DEV*%
%TF.SameCoordinates,Original*%
%TF.FileFunction,Profile,NP*%
%FSLAX46Y46*%
G04 Gerber Fmt 4.6, Leading zero omitted, Abs format (unit mm)*
G04 Created by KiCad (PCBNEW 6.0.11-2627ca5db0~126~ubuntu22.04.1) date 2023-05-13 09:43:47*
%MOMM*%
%LPD*%
G01*
G04 APERTURE LIST*
%TA.AperFunction,Profile*%
%ADD10C,0.100000*%
%TD*%
G04 APERTURE END LIST*
D10*
X166370000Y-217309000D02*
X166370000Y-229755000D01*
X67056000Y-217563000D02*
X67310000Y-217309000D01*
X66548000Y-230263000D02*
X67056000Y-229755000D01*
X24052666Y-231499000D02*
G75*
G03*
X24052666Y-231499000I-1666666J0D01*
G01*
X19886000Y-231499000D02*
X24886000Y-231499000D01*
X22386000Y-228999000D02*
X22386000Y-233999000D01*
X166370000Y-229755000D02*
X166878000Y-230263000D01*
X23622000Y-230263000D02*
X66548000Y-230263000D01*
X66548000Y-16395000D02*
X23622000Y-16395000D01*
X67310000Y-217309000D02*
X77470000Y-217309000D01*
X168910000Y-21729000D02*
X167640000Y-21729000D01*
X95504000Y-16395000D02*
X95504000Y-22999000D01*
X156210000Y-217055000D02*
X166116000Y-217055000D01*
X167640000Y-21729000D02*
X167640000Y-16395000D01*
X166116000Y-217055000D02*
X166370000Y-217309000D01*
X192024000Y-16395000D02*
X168910000Y-16395000D01*
X23622000Y-16395000D02*
X23622000Y-230263000D01*
X188976000Y-21221000D02*
X192024000Y-21221000D01*
X66548000Y-22999000D02*
X66548000Y-16395000D01*
X188976000Y-22237000D02*
X188976000Y-21221000D01*
X166878000Y-230263000D02*
X192024000Y-230263000D01*
X168910000Y-16395000D02*
X168910000Y-21729000D01*
X192024000Y-21221000D02*
X192024000Y-16395000D01*
X67056000Y-229755000D02*
X67056000Y-217563000D01*
X192024000Y-230263000D02*
X192024000Y-22237000D01*
X77724000Y-217563000D02*
X77724000Y-220230000D01*
X95504000Y-22999000D02*
X66548000Y-22999000D01*
X77470000Y-217309000D02*
X77724000Y-217563000D01*
X192024000Y-22237000D02*
X188976000Y-22237000D01*
X167640000Y-16395000D02*
X95504000Y-16395000D01*
X155956000Y-220230000D02*
X155956000Y-217309000D01*
X155956000Y-217309000D02*
X156210000Y-217055000D01*
%TO.C,J2*%
X155448000Y-230390000D02*
X78232000Y-230390000D01*
X77724000Y-229628000D02*
X77724000Y-220230000D01*
X78232000Y-230390000D02*
X77724000Y-229628000D01*
X155956000Y-220230000D02*
X155956000Y-229628000D01*
X155956000Y-229628000D02*
X155448000Y-230390000D01*
%TD*%
M02*
