%TF.GenerationSoftware,KiCad,Pcbnew,6.0.11-2627ca5db0~126~ubuntu22.04.1*%
%TF.CreationDate,2023-05-22T11:13:13-04:00*%
%TF.ProjectId,coleco_original_main_only,636f6c65-636f-45f6-9f72-6967696e616c,DEV*%
%TF.SameCoordinates,Original*%
%TF.FileFunction,Other,User*%
%FSLAX46Y46*%
G04 Gerber Fmt 4.6, Leading zero omitted, Abs format (unit mm)*
G04 Created by KiCad (PCBNEW 6.0.11-2627ca5db0~126~ubuntu22.04.1) date 2023-05-22 11:13:13*
%MOMM*%
%LPD*%
G01*
G04 APERTURE LIST*
%ADD10C,0.800000*%
G04 APERTURE END LIST*
D10*
X66548000Y-231025000D02*
X67310000Y-230263000D01*
X155228000Y-230991000D02*
X156210000Y-230009000D01*
X66802000Y-16141000D02*
X22860000Y-16141000D01*
X76962000Y-229755000D02*
X76962000Y-230009000D01*
X165608000Y-229755000D02*
X165608000Y-230009000D01*
X192278000Y-231025000D02*
X192278000Y-21983000D01*
X192278000Y-21983000D02*
X189230000Y-21983000D01*
X22860000Y-231025000D02*
X66548000Y-231025000D01*
X94742000Y-16141000D02*
X94742000Y-22711000D01*
X168148000Y-21475000D02*
X167894000Y-21475000D01*
X166624000Y-231025000D02*
X192278000Y-231025000D01*
X66802000Y-22711000D02*
X66802000Y-16141000D01*
X156210000Y-217817000D02*
X165608000Y-217817000D01*
X78012000Y-230991000D02*
X76962000Y-230009000D01*
X165608000Y-230009000D02*
X166624000Y-231025000D01*
X190534000Y-16141000D02*
X168402000Y-16141000D01*
X67310000Y-230263000D02*
X67310000Y-218071000D01*
X167894000Y-16141000D02*
X94742000Y-16141000D01*
X192278000Y-21983000D02*
X192278000Y-16141000D01*
X94742000Y-22711000D02*
X66802000Y-22711000D01*
X67310000Y-218071000D02*
X76962000Y-218071000D01*
X168402000Y-16141000D02*
X168148000Y-16141000D01*
X78012000Y-230991000D02*
X155228000Y-230991000D01*
X168148000Y-16141000D02*
X168148000Y-21475000D01*
X165608000Y-217817000D02*
X165608000Y-229755000D01*
X22860000Y-16141000D02*
X22894000Y-229467000D01*
X156210000Y-230009000D02*
X156210000Y-217817000D01*
X167894000Y-21475000D02*
X167894000Y-16395000D01*
X76962000Y-218071000D02*
X76962000Y-230009000D01*
M02*
