M48
; DRILL file {KiCad 6.0.11-2627ca5db0~126~ubuntu22.04.1} date Tue 23 May 2023 06:06:31 PM EDT
; FORMAT={-:-/ absolute / metric / decimal}
; #@! TF.CreationDate,2023-05-23T18:06:31-04:00
; #@! TF.GenerationSoftware,Kicad,Pcbnew,6.0.11-2627ca5db0~126~ubuntu22.04.1
; #@! TF.FileFunction,Plated,1,2,PTH
FMAT,2
METRIC
; #@! TA.AperFunction,Plated,PTH,ViaDrill
T1C0.559
; #@! TA.AperFunction,Plated,PTH,ComponentDrill
T2C0.800
; #@! TA.AperFunction,Plated,PTH,ViaDrill
T3C0.813
; #@! TA.AperFunction,Plated,PTH,ComponentDrill
T4C1.000
; #@! TA.AperFunction,Plated,PTH,ComponentDrill
T5C1.100
; #@! TA.AperFunction,Plated,PTH,ComponentDrill
T6C1.500
; #@! TA.AperFunction,Plated,PTH,ComponentDrill
T7C1.700
; #@! TA.AperFunction,Plated,PTH,ComponentDrill
T8C2.000
; #@! TA.AperFunction,Plated,PTH,ComponentDrill
T9C2.200
; #@! TA.AperFunction,Plated,PTH,ComponentDrill
T10C3.200
; #@! TA.AperFunction,Plated,PTH,ComponentDrill
T11C3.250
; #@! TA.AperFunction,Plated,PTH,ComponentDrill
T12C4.300
; #@! TA.AperFunction,Plated,PTH,ComponentDrill
T13C7.000
%
G90
G05
T1
X26.162Y-126.377
X26.958Y-70.209
X28.228Y-69.193
X28.558Y-126.325
X30.741Y-124.311
X34.07Y-125.581
X36.322Y-125.615
X38.388Y-61.065
X39.116Y-125.615
X39.15Y-136.249
X39.15Y-146.155
X42.672Y-61.607
X42.71Y-125.767
X47.024Y-141.329
X47.024Y-147.425
X51.85Y-147.425
X53.594Y-144.157
X57.184Y-128.663
X58.708Y-176.889
X65.312Y-126.089
X68.072Y-176.923
X68.426Y-173.975
X68.868Y-126.089
X70.612Y-175.145
X70.9Y-144.123
X71.701Y-82.108
X73.15Y-206.063
X73.152Y-97.167
X73.66Y-110.629
X73.694Y-112.627
X74.93Y-210.959
X76.708Y-121.297
X76.875Y-140.634
X77.619Y-177.028
X79.146Y-90.008
X79.248Y-91.833
X79.257Y-88.183
X81.568Y-171.555
X83.312Y-53.987
X88.238Y-181.461
X88.264Y-99.103
X88.438Y-196.116
X89.127Y-194.422
X89.772Y-208.457
X91.22Y-133.963
X91.23Y-217.265
X91.304Y-116.412
X91.745Y-190.276
X91.948Y-84.213
X93.472Y-215.785
X93.472Y-217.817
X93.726Y-149.745
X93.98Y-128.595
X95.03Y-159.363
X95.25Y-181.461
X95.758Y-127.787
X96.478Y-167.313
X96.52Y-110.121
X96.554Y-155.553
X96.554Y-56.493
X96.813Y-117.292
X98.662Y-216.154
X98.706Y-207.607
X100.12Y-218.789
X100.135Y-213.716
X100.618Y-131.423
X102.362Y-181.461
X102.619Y-132.724
X104.104Y-219.377
X106.172Y-91.579
X106.426Y-188.861
X108.761Y-181.495
X109.22Y-188.861
X109.723Y-38.035
X109.728Y-36.207
X109.728Y-41.795
X109.728Y-39.864
X110.079Y-177.94
X110.3Y-213.435
X111.098Y-215.177
X115.57Y-179.158
X115.824Y-213.499
X115.824Y-215.785
X117.094Y-97.675
X120.396Y-114.388
X121.717Y-141.109
X122.931Y-211.433
X123.56Y-111.22
X124.46Y-98.437
X126.746Y-109.613
X126.746Y-211.653
X128.019Y-153.111
X129.286Y-109.613
X130.354Y-151.979
X130.81Y-216.039
X131.826Y-109.613
X132.08Y-93.611
X133.022Y-181.356
X133.477Y-194.576
X134.908Y-109.579
X136.178Y-167.237
X136.906Y-106.565
X137.109Y-217.26
X137.414Y-194.957
X137.956Y-167.237
X138.138Y-181.343
X138.43Y-93.357
X140.005Y-217.314
X140.208Y-196.481
X140.716Y-93.357
X141.351Y-165.62
X141.732Y-119.011
X143.549Y-178.335
X144.018Y-119.773
X145.288Y-196.481
X145.422Y-181.672
X145.542Y-62.345
X146.05Y-50.177
X146.05Y-105.041
X146.812Y-185.228
X146.863Y-199.524
X147.05Y-176.923
X147.753Y-116.038
X147.828Y-140.093
X147.879Y-201.499
X148.182Y-169.711
X148.895Y-195.111
X149.132Y-109.071
X150.876Y-209.486
X153.67Y-192.434
X154.178Y-130.949
X154.532Y-109.071
X155.99Y-132.185
X156.464Y-206.641
X156.972Y-147.967
X157.785Y-173.367
X157.969Y-209.21
X159.722Y-109.079
X159.984Y-212.701
X161.07Y-205.337
X161.138Y-193.179
X162.086Y-109.071
X163.546Y-150.665
X164.228Y-135.123
X164.417Y-109.071
X165.134Y-201.274
X165.261Y-204.702
X166.624Y-152.285
X168.436Y-178.235
X168.605Y-135.233
X169.579Y-199.368
X171.958Y-105.549
X171.992Y-187.049
X173.272Y-152.261
X173.593Y-137.265
X177.292Y-56.273
X177.749Y-87.043
X178.308Y-68.465
X179.07Y-81.673
X179.324Y-110.883
X181.356Y-187.845
X182.067Y-125.107
X183.54Y-95.897
X183.54Y-98.475
T2
X31.496Y-85.483
X31.496Y-93.103
X31.496Y-108.343
X31.496Y-115.963
X31.75Y-72.021
X31.75Y-82.181
X34.036Y-85.483
X34.036Y-93.103
X34.036Y-108.343
X34.036Y-115.963
X34.29Y-120.789
X35.306Y-72.021
X35.306Y-82.181
X36.322Y-173.915
X36.322Y-178.915
X36.576Y-85.483
X36.576Y-93.103
X36.576Y-108.343
X36.576Y-115.963
X36.83Y-120.789
X39.116Y-85.483
X39.116Y-93.103
X39.116Y-108.343
X39.116Y-115.963
X39.37Y-120.789
X39.37Y-166.549
X39.37Y-171.549
X39.37Y-176.201
X39.37Y-181.201
X40.64Y-63.903
X40.64Y-66.443
X40.64Y-68.983
X40.64Y-71.523
X40.64Y-74.063
X40.64Y-76.603
X40.64Y-79.143
X40.64Y-81.683
X41.656Y-85.483
X41.656Y-93.103
X41.656Y-108.343
X41.656Y-115.963
X41.91Y-120.789
X44.196Y-85.483
X44.196Y-93.103
X44.196Y-108.343
X44.196Y-115.963
X44.45Y-120.789
X46.736Y-85.483
X46.736Y-93.103
X46.736Y-108.343
X46.736Y-115.963
X46.736Y-155.373
X46.736Y-160.373
X46.99Y-120.789
X49.276Y-85.483
X49.276Y-93.103
X49.276Y-108.343
X49.276Y-115.963
X49.53Y-120.789
X51.816Y-85.483
X51.816Y-93.103
X51.816Y-108.343
X51.816Y-115.963
X52.07Y-120.789
X52.618Y-152.539
X54.102Y-158.127
X54.102Y-165.747
X54.356Y-85.483
X54.356Y-93.103
X54.356Y-108.343
X54.356Y-115.963
X55.118Y-126.417
X55.118Y-131.417
X55.88Y-141.363
X55.88Y-146.363
X55.88Y-180.225
X55.88Y-185.225
X55.88Y-188.901
X55.88Y-193.901
X55.88Y-197.751
X55.88Y-202.751
X56.642Y-158.127
X56.642Y-165.747
X57.618Y-152.539
X57.912Y-169.055
X57.912Y-174.055
X59.182Y-126.417
X59.182Y-131.417
X59.182Y-158.127
X59.182Y-165.747
X59.69Y-87.809
X59.69Y-92.809
X60.198Y-182.765
X60.198Y-192.925
X60.96Y-109.693
X60.96Y-114.693
X61.468Y-48.145
X61.468Y-58.305
X61.722Y-158.127
X61.722Y-165.747
X61.722Y-169.303
X61.722Y-179.463
X61.976Y-139.839
X61.976Y-149.999
X63.246Y-96.405
X63.246Y-106.565
X63.246Y-119.265
X63.246Y-129.425
X63.5Y-72.275
X63.5Y-186.615
X63.5Y-191.615
X63.534Y-69.193
X64.262Y-84.761
X64.262Y-89.761
X64.262Y-158.127
X64.262Y-165.747
X65.024Y-60.845
X65.532Y-169.303
X65.532Y-179.463
X65.532Y-203.339
X66.04Y-137.045
X66.04Y-147.205
X66.553Y-49.4
X66.553Y-57.02
X66.628Y-114.693
X66.787Y-186.56
X66.787Y-194.18
X66.802Y-158.127
X66.802Y-165.747
X67.056Y-95.135
X67.056Y-105.295
X67.056Y-119.265
X67.056Y-129.425
X68.326Y-84.721
X68.326Y-89.721
X69.093Y-49.4
X69.093Y-57.02
X69.327Y-186.56
X69.327Y-194.18
X69.342Y-30.619
X69.342Y-40.779
X69.342Y-158.127
X69.342Y-165.747
X69.417Y-64.655
X69.596Y-139.839
X69.596Y-149.999
X69.596Y-208.419
X70.866Y-95.135
X70.866Y-105.295
X70.866Y-119.265
X70.866Y-129.425
X71.628Y-114.693
X71.633Y-49.4
X71.633Y-57.02
X71.867Y-186.56
X71.867Y-194.18
X72.144Y-34.937
X73.133Y-43.319
X73.152Y-168.761
X73.152Y-178.921
X73.66Y-72.275
X73.694Y-69.193
X74.168Y-137.553
X74.168Y-147.713
X74.173Y-49.4
X74.173Y-57.02
X74.407Y-186.56
X74.407Y-194.18
X74.417Y-64.655
X74.422Y-84.975
X74.422Y-90.055
X74.676Y-95.135
X74.676Y-105.295
X74.676Y-119.265
X74.676Y-129.425
X74.684Y-32.397
X74.684Y-37.477
X75.184Y-60.845
X75.692Y-203.339
X76.713Y-49.4
X76.713Y-57.02
X76.947Y-186.56
X76.947Y-194.18
X76.962Y-87.515
X77.042Y-199.275
X78.133Y-43.319
X78.74Y-161.937
X78.994Y-135.521
X78.994Y-145.681
X79.24Y-61.353
X79.24Y-66.433
X79.253Y-49.4
X79.253Y-57.02
X79.487Y-186.56
X79.487Y-194.18
X79.748Y-152.793
X79.748Y-157.873
X79.756Y-208.419
X81.026Y-34.723
X81.026Y-39.723
X81.574Y-83.197
X81.78Y-63.893
X81.793Y-49.4
X81.793Y-57.02
X82.027Y-186.56
X82.027Y-194.18
X82.042Y-199.275
X82.288Y-155.333
X82.55Y-87.261
X82.55Y-102.501
X84.567Y-186.56
X84.567Y-194.18
X85.598Y-31.635
X85.598Y-41.795
X85.598Y-109.75
X85.598Y-114.75
X86.36Y-87.261
X86.36Y-102.501
X86.574Y-83.197
X86.868Y-47.383
X86.868Y-57.543
X86.868Y-152.833
X86.868Y-157.833
X88.9Y-34.215
X88.9Y-39.215
X88.9Y-161.937
X90.464Y-46.367
X91.176Y-123.324
X91.176Y-138.564
X91.44Y-109.399
X91.44Y-114.399
X91.694Y-50.939
X91.694Y-61.099
X91.948Y-30.365
X91.948Y-40.525
X92.451Y-186.595
X92.451Y-201.835
X93.716Y-123.324
X93.716Y-138.564
X94.991Y-186.595
X94.991Y-201.835
X95.25Y-70.283
X95.25Y-75.283
X95.265Y-106.58
X95.265Y-114.2
X95.29Y-40.779
X95.29Y-60.591
X95.464Y-46.367
X96.256Y-123.324
X96.256Y-138.564
X97.531Y-186.595
X97.531Y-201.835
X97.805Y-106.58
X97.805Y-114.2
X98.044Y-81.535
X98.044Y-86.535
X98.796Y-123.324
X98.796Y-138.564
X100.071Y-186.595
X100.071Y-201.835
X100.29Y-40.779
X100.29Y-60.591
X100.345Y-106.58
X100.345Y-114.2
X100.838Y-73.291
X101.336Y-123.324
X101.336Y-138.564
X102.362Y-142.633
X102.611Y-186.595
X102.611Y-201.835
X102.885Y-106.58
X102.885Y-114.2
X103.876Y-123.324
X103.876Y-138.564
X105.151Y-186.595
X105.151Y-201.835
X105.425Y-106.58
X105.425Y-114.2
X105.664Y-146.951
X106.416Y-123.324
X106.416Y-138.564
X106.68Y-83.833
X106.68Y-88.833
X107.691Y-186.595
X107.691Y-201.835
X107.965Y-106.58
X107.965Y-114.2
X108.06Y-58.813
X108.956Y-123.324
X108.956Y-138.564
X109.22Y-47.931
X109.22Y-52.931
X109.982Y-64.949
X109.982Y-69.949
X110.231Y-186.595
X110.231Y-201.835
X110.505Y-106.58
X110.505Y-114.2
X110.56Y-58.813
X110.998Y-73.291
X111.496Y-123.324
X111.496Y-138.564
X112.522Y-84.213
X112.522Y-89.213
X112.771Y-186.595
X112.771Y-201.835
X113.045Y-106.58
X113.045Y-114.2
X114.036Y-123.324
X114.036Y-138.564
X115.311Y-186.595
X115.311Y-201.835
X116.332Y-84.253
X116.332Y-89.253
X116.576Y-123.324
X116.576Y-138.564
X117.602Y-142.633
X117.851Y-186.595
X117.851Y-201.835
X119.116Y-123.324
X119.116Y-138.564
X119.888Y-46.915
X119.888Y-51.915
X119.888Y-59.321
X119.888Y-64.321
X119.888Y-71.807
X119.888Y-76.807
X120.142Y-84.253
X120.142Y-89.253
X120.391Y-186.595
X120.391Y-201.835
X120.904Y-146.951
X121.656Y-123.324
X121.656Y-138.564
X121.666Y-214.007
X122.931Y-186.595
X122.931Y-201.835
X123.992Y-28.841
X124.196Y-123.324
X124.196Y-138.564
X124.445Y-44.574
X124.445Y-52.194
X124.445Y-57.025
X124.445Y-64.645
X124.445Y-69.476
X124.445Y-77.096
X124.445Y-81.927
X124.445Y-89.547
X125.471Y-186.595
X125.471Y-201.835
X126.741Y-97.929
X126.741Y-113.169
X126.985Y-44.574
X126.985Y-52.194
X126.985Y-57.025
X126.985Y-64.645
X126.985Y-69.476
X126.985Y-77.096
X126.985Y-81.927
X126.985Y-89.547
X128.011Y-186.595
X128.011Y-201.835
X128.304Y-155.119
X128.304Y-160.119
X128.992Y-28.841
X129.281Y-97.929
X129.281Y-113.169
X129.525Y-44.574
X129.525Y-52.194
X129.525Y-57.025
X129.525Y-64.645
X129.525Y-69.476
X129.525Y-77.096
X129.525Y-81.927
X129.525Y-89.547
X130.551Y-186.595
X130.551Y-201.835
X131.308Y-123.06
X131.308Y-130.68
X131.308Y-136.522
X131.308Y-144.142
X131.606Y-155.119
X131.606Y-160.119
X131.821Y-97.929
X131.821Y-113.169
X131.826Y-214.007
X132.065Y-44.574
X132.065Y-52.194
X132.065Y-57.025
X132.065Y-64.645
X132.065Y-69.476
X132.065Y-77.096
X132.065Y-81.927
X132.065Y-89.547
X133.091Y-186.595
X133.091Y-201.835
X133.848Y-123.06
X133.848Y-130.68
X133.848Y-136.522
X133.848Y-144.142
X134.361Y-97.929
X134.361Y-113.169
X134.605Y-44.574
X134.605Y-52.194
X134.605Y-57.025
X134.605Y-64.645
X134.605Y-69.476
X134.605Y-77.096
X134.605Y-81.927
X134.605Y-89.547
X135.387Y-152.524
X135.387Y-160.144
X135.631Y-186.595
X135.631Y-201.835
X136.388Y-123.06
X136.388Y-130.68
X136.388Y-136.522
X136.388Y-144.142
X136.901Y-97.929
X136.901Y-113.169
X137.145Y-44.574
X137.145Y-52.194
X137.145Y-57.025
X137.145Y-64.645
X137.145Y-69.476
X137.145Y-77.096
X137.145Y-81.927
X137.145Y-89.547
X137.927Y-152.524
X137.927Y-160.144
X138.171Y-186.595
X138.171Y-201.835
X138.928Y-123.06
X138.928Y-130.68
X138.928Y-136.522
X138.928Y-144.142
X139.441Y-97.929
X139.441Y-113.169
X139.685Y-44.574
X139.685Y-52.194
X139.685Y-57.025
X139.685Y-64.645
X139.685Y-69.476
X139.685Y-77.096
X139.685Y-81.927
X139.685Y-89.547
X140.467Y-152.524
X140.467Y-160.144
X140.711Y-186.595
X140.711Y-201.835
X141.468Y-123.06
X141.468Y-130.68
X141.468Y-136.522
X141.468Y-144.142
X141.981Y-97.929
X141.981Y-113.169
X142.225Y-44.574
X142.225Y-52.194
X142.225Y-57.025
X142.225Y-64.645
X142.225Y-69.476
X142.225Y-77.096
X142.225Y-81.927
X142.225Y-89.547
X143.007Y-152.524
X143.007Y-160.144
X144.008Y-123.06
X144.008Y-130.68
X144.008Y-136.522
X144.008Y-144.142
X144.521Y-97.929
X144.521Y-113.169
X145.547Y-152.524
X145.547Y-160.144
X146.548Y-123.06
X146.548Y-130.68
X146.548Y-136.522
X146.548Y-144.142
X146.558Y-47.383
X146.558Y-52.383
X146.812Y-59.869
X146.812Y-64.869
X146.812Y-72.315
X146.812Y-77.315
X146.846Y-84.721
X146.846Y-89.721
X147.061Y-97.929
X147.061Y-113.169
X147.32Y-163.207
X148.087Y-152.524
X148.087Y-160.144
X149.088Y-123.06
X149.088Y-130.68
X149.088Y-136.522
X149.088Y-144.142
X149.601Y-97.929
X149.601Y-113.169
X150.627Y-152.524
X150.627Y-160.144
X151.13Y-44.589
X151.13Y-49.589
X151.13Y-57.075
X151.13Y-62.075
X151.13Y-69.521
X151.13Y-74.521
X151.13Y-81.967
X151.13Y-86.967
X151.13Y-188.607
X151.13Y-198.767
X151.628Y-123.06
X151.628Y-130.68
X151.628Y-136.522
X151.628Y-144.142
X152.141Y-97.929
X152.141Y-113.169
X154.432Y-93.611
X154.681Y-97.929
X154.681Y-113.169
X155.448Y-187.591
X155.448Y-197.751
X156.195Y-121.536
X156.195Y-129.156
X156.464Y-81.927
X156.464Y-89.547
X156.479Y-44.574
X156.479Y-52.194
X156.479Y-57.025
X156.479Y-64.645
X156.479Y-69.476
X156.479Y-77.096
X157.221Y-97.929
X157.221Y-113.169
X157.226Y-139.371
X157.226Y-144.371
X158.735Y-121.536
X158.735Y-129.156
X159.004Y-81.927
X159.004Y-89.547
X159.004Y-182.003
X159.004Y-192.163
X159.004Y-197.497
X159.004Y-207.657
X159.019Y-44.574
X159.019Y-52.194
X159.019Y-57.025
X159.019Y-64.645
X159.019Y-69.476
X159.019Y-77.096
X159.512Y-150.253
X159.512Y-160.413
X159.761Y-97.929
X159.761Y-113.169
X161.036Y-137.299
X161.275Y-121.536
X161.275Y-129.156
X161.544Y-81.927
X161.544Y-89.547
X161.552Y-145.427
X161.559Y-44.574
X161.559Y-52.194
X161.559Y-57.025
X161.559Y-64.645
X161.559Y-69.476
X161.559Y-77.096
X162.052Y-168.795
X162.052Y-173.795
X162.301Y-97.929
X162.301Y-113.169
X162.56Y-163.207
X162.6Y-158.381
X162.64Y-154.825
X163.068Y-197.497
X163.068Y-207.657
X163.637Y-213.245
X163.815Y-121.536
X163.815Y-129.156
X163.83Y-184.035
X163.83Y-191.655
X164.084Y-81.927
X164.084Y-89.547
X164.092Y-142.887
X164.092Y-147.967
X164.099Y-44.574
X164.099Y-52.194
X164.099Y-57.025
X164.099Y-64.645
X164.099Y-69.476
X164.099Y-77.096
X164.592Y-93.611
X164.841Y-97.929
X164.841Y-113.169
X165.1Y-177.939
X166.121Y-161.668
X166.121Y-169.288
X166.15Y-180.987
X166.355Y-121.536
X166.355Y-129.156
X166.37Y-184.035
X166.37Y-191.655
X166.624Y-81.927
X166.624Y-89.547
X166.639Y-44.574
X166.639Y-52.194
X166.639Y-57.025
X166.639Y-64.645
X166.639Y-69.476
X166.639Y-77.096
X167.381Y-97.929
X167.381Y-113.169
X167.386Y-149.999
X167.386Y-197.497
X167.386Y-207.657
X167.6Y-158.381
X167.64Y-140.347
X167.64Y-154.825
X168.038Y-173.621
X168.402Y-146.443
X168.637Y-213.245
X168.661Y-161.668
X168.661Y-169.288
X168.895Y-121.536
X168.895Y-129.156
X168.91Y-184.035
X168.91Y-191.655
X169.164Y-81.927
X169.164Y-89.547
X169.179Y-44.574
X169.179Y-52.194
X169.179Y-57.025
X169.179Y-64.645
X169.179Y-69.476
X169.179Y-77.096
X169.921Y-97.929
X169.921Y-113.169
X170.543Y-117.233
X170.942Y-143.395
X171.196Y-137.299
X171.201Y-161.668
X171.201Y-169.288
X171.435Y-121.536
X171.435Y-129.156
X171.45Y-184.035
X171.45Y-191.655
X171.704Y-81.927
X171.704Y-89.547
X171.719Y-44.574
X171.719Y-52.194
X171.719Y-57.025
X171.719Y-64.645
X171.719Y-69.476
X171.719Y-77.096
X171.958Y-194.703
X172.461Y-97.929
X172.461Y-113.169
X172.918Y-173.621
X173.043Y-117.233
X173.522Y-158.381
X173.741Y-161.668
X173.741Y-169.288
X173.975Y-121.536
X173.975Y-129.156
X173.99Y-184.035
X173.99Y-191.655
X173.99Y-203.085
X173.99Y-213.245
X174.244Y-81.927
X174.244Y-89.547
X174.259Y-44.574
X174.259Y-52.194
X174.259Y-57.025
X174.259Y-64.645
X174.259Y-69.476
X174.259Y-77.096
X175.001Y-97.929
X175.001Y-113.169
X175.006Y-197.751
X175.26Y-177.939
X175.942Y-143.395
X176.281Y-161.668
X176.281Y-169.288
X176.31Y-180.987
X176.53Y-184.035
X176.53Y-191.655
X177.038Y-137.299
X177.546Y-149.999
X177.8Y-140.347
X178.522Y-158.381
X178.562Y-146.443
X178.821Y-161.668
X178.821Y-169.288
X179.07Y-174.169
X179.07Y-179.169
X179.07Y-184.035
X179.07Y-191.655
X179.324Y-47.169
X179.324Y-52.169
X179.324Y-59.615
X179.324Y-64.615
X179.324Y-72.061
X179.324Y-77.061
X179.324Y-84.507
X179.324Y-89.507
X179.832Y-119.265
X179.832Y-129.425
X181.361Y-161.668
X181.361Y-169.288
X182.038Y-137.299
X182.118Y-194.703
X183.388Y-101.485
X183.388Y-111.645
X183.642Y-185.345
X183.642Y-190.345
X183.93Y-119.231
X183.93Y-129.391
X185.166Y-197.751
T3
X51.054Y-192.925
X58.102Y-84.67
X58.928Y-206.387
X60.452Y-206.387
X67.937Y-145.502
X76.742Y-162.919
X80.425Y-93.704
X82.296Y-72.021
X84.074Y-144.411
X88.172Y-96.625
X88.9Y-164.477
X89.188Y-86.973
X98.552Y-179.717
X150.91Y-165.764
X150.91Y-179.937
X172.534Y-148.221
T4
X32.43Y-48.298
X32.43Y-51.068
X32.43Y-53.838
X32.43Y-56.608
X32.43Y-139.23
X32.43Y-142.0
X32.43Y-144.77
X32.43Y-147.54
X35.27Y-46.913
X35.27Y-49.683
X35.27Y-52.453
X35.27Y-55.223
X35.27Y-57.993
X35.27Y-137.845
X35.27Y-140.615
X35.27Y-143.385
X35.27Y-146.155
X35.27Y-148.925
X43.546Y-171.589
X51.166Y-171.589
X90.678Y-90.929
X90.678Y-98.549
X95.758Y-90.929
X95.758Y-98.549
X100.076Y-47.525
X100.076Y-55.145
X100.95Y-93.865
X104.648Y-46.636
X104.648Y-49.176
X104.648Y-51.716
X104.648Y-54.256
X104.648Y-56.796
X104.648Y-59.336
X104.648Y-61.876
X104.648Y-64.416
X108.57Y-93.865
X112.38Y-93.865
X120.0Y-93.865
X131.46Y-35.445
X139.08Y-35.445
X146.924Y-30.111
X154.544Y-30.111
X168.544Y-133.235
X170.322Y-154.063
X176.164Y-133.235
X177.942Y-154.063
X180.086Y-203.815
X180.086Y-205.847
X180.086Y-207.879
X185.166Y-203.815
X185.166Y-205.847
X185.166Y-207.879
T5
X44.196Y-177.177
X44.196Y-202.577
X50.8Y-177.177
X50.8Y-202.577
X98.552Y-170.573
X98.552Y-175.399
X101.092Y-170.573
X101.092Y-175.399
X103.632Y-170.573
X103.632Y-175.399
X106.172Y-170.573
X106.172Y-175.399
X108.712Y-170.573
X108.712Y-175.399
X111.252Y-170.573
X111.252Y-175.399
X113.792Y-170.573
X113.792Y-175.399
X116.332Y-170.573
X116.332Y-175.399
X118.872Y-170.573
X118.872Y-175.399
X121.412Y-170.573
X121.412Y-175.399
X123.952Y-170.573
X123.952Y-175.399
X126.492Y-170.573
X126.492Y-175.399
X129.032Y-170.573
X129.032Y-175.399
X131.572Y-170.573
X131.572Y-175.399
X134.112Y-170.573
X134.112Y-175.399
T6
X182.626Y-203.815
X182.626Y-207.879
T7
X29.105Y-167.935
X29.105Y-171.895
X29.105Y-175.855
X29.105Y-179.815
T8
X28.321Y-204.768
X36.957Y-204.768
T9
X104.682Y-42.523
X104.682Y-68.431
T10
X33.85Y-39.953
X33.85Y-64.953
X33.85Y-130.885
X33.85Y-155.885
T11
X89.982Y-172.974
X142.682Y-172.974
T12
X51.342Y-72.495
T13
X37.846Y-30.365
X52.07Y-214.261
X116.366Y-159.363
X182.406Y-220.577
X183.676Y-33.887
T2
G00X28.321Y-200.01
M15
G01X28.321Y-195.81
M16
G05
G00X28.321Y-213.726
M15
G01X28.321Y-209.526
M16
G05
G00X30.166Y-188.861
M15
G01X35.366Y-188.861
M16
G05
G00X30.166Y-220.611
M15
G01X35.366Y-220.611
M16
G05
G00X36.957Y-200.01
M15
G01X36.957Y-195.81
M16
G05
G00X36.957Y-213.726
M15
G01X36.957Y-209.526
M16
G05
G00X44.722Y-44.649
M15
G01X44.722Y-39.449
M16
G05
G00X51.756Y-79.151
M15
G01X56.956Y-79.151
M16
G05
G00X103.572Y-26.065
M15
G01X108.772Y-26.065
M16
G05
G00X103.572Y-79.133
M15
G01X108.772Y-79.133
M16
G05
G00X115.57Y-66.239
M15
G01X115.57Y-61.039
M16
G05
T0
M30
