M48
; DRILL file {KiCad 6.0.11-2627ca5db0~126~ubuntu22.04.1} date Mon 22 May 2023 11:13:16 AM EDT
; FORMAT={-:-/ absolute / metric / decimal}
; #@! TF.CreationDate,2023-05-22T11:13:16-04:00
; #@! TF.GenerationSoftware,Kicad,Pcbnew,6.0.11-2627ca5db0~126~ubuntu22.04.1
; #@! TF.FileFunction,MixedPlating,1,2
FMAT,2
METRIC
; #@! TA.AperFunction,Plated,PTH,ViaDrill
T1C0.559
; #@! TA.AperFunction,Plated,PTH,ComponentDrill
T2C0.800
; #@! TA.AperFunction,Plated,PTH,ViaDrill
T3C0.813
; #@! TA.AperFunction,Plated,PTH,ComponentDrill
T4C1.000
; #@! TA.AperFunction,Plated,PTH,ComponentDrill
T5C1.100
; #@! TA.AperFunction,Plated,PTH,ComponentDrill
T6C1.500
; #@! TA.AperFunction,Plated,PTH,ComponentDrill
T7C1.700
; #@! TA.AperFunction,Plated,PTH,ComponentDrill
T8C2.000
; #@! TA.AperFunction,Plated,PTH,ComponentDrill
T9C2.200
; #@! TA.AperFunction,Plated,PTH,ComponentDrill
T10C3.200
; #@! TA.AperFunction,Plated,PTH,ComponentDrill
T11C3.250
; #@! TA.AperFunction,Plated,PTH,ComponentDrill
T12C4.300
; #@! TA.AperFunction,Plated,PTH,ComponentDrill
T13C7.000
; #@! TA.AperFunction,NonPlated,NPTH,ComponentDrill
T14C2.050
%
G90
G05
T1
X25.654Y-125.615
X26.45Y-69.447
X27.72Y-68.431
X28.05Y-125.563
X30.233Y-123.549
X33.562Y-124.819
X35.814Y-124.853
X37.88Y-60.303
X38.608Y-124.853
X38.642Y-135.487
X38.642Y-145.393
X42.164Y-60.845
X42.202Y-125.005
X46.516Y-140.567
X46.516Y-146.663
X51.342Y-146.663
X53.086Y-143.395
X56.676Y-127.901
X58.2Y-176.127
X64.804Y-125.327
X67.564Y-176.161
X67.918Y-173.213
X68.36Y-125.327
X70.104Y-174.383
X70.392Y-143.361
X71.193Y-81.346
X72.642Y-205.301
X72.644Y-96.405
X73.152Y-109.867
X73.186Y-111.865
X74.422Y-210.197
X76.2Y-120.535
X76.367Y-139.872
X77.111Y-176.266
X78.638Y-89.246
X78.74Y-91.071
X78.749Y-87.421
X81.06Y-170.793
X82.804Y-53.225
X87.73Y-180.699
X87.756Y-98.341
X87.93Y-195.354
X88.619Y-193.66
X89.264Y-207.695
X90.712Y-133.201
X90.722Y-216.503
X90.796Y-115.65
X91.237Y-189.514
X91.44Y-83.451
X92.964Y-215.023
X92.964Y-217.055
X93.218Y-148.983
X93.472Y-127.833
X94.522Y-158.601
X94.742Y-180.699
X95.25Y-127.025
X95.97Y-166.551
X96.012Y-109.359
X96.046Y-154.791
X96.046Y-55.731
X96.305Y-116.53
X98.154Y-215.392
X98.198Y-206.845
X99.612Y-218.027
X99.627Y-212.954
X100.11Y-130.661
X101.854Y-180.699
X102.111Y-131.962
X103.596Y-218.615
X105.664Y-90.817
X105.918Y-188.099
X108.253Y-180.733
X108.712Y-188.099
X109.215Y-37.273
X109.22Y-35.445
X109.22Y-41.033
X109.22Y-39.102
X109.571Y-177.178
X109.792Y-212.673
X110.59Y-214.415
X115.062Y-178.396
X115.316Y-212.737
X115.316Y-215.023
X116.586Y-96.913
X119.888Y-113.626
X121.209Y-140.347
X122.423Y-210.671
X123.052Y-110.458
X123.952Y-97.675
X126.238Y-108.851
X126.238Y-210.891
X127.511Y-152.349
X128.778Y-108.851
X129.846Y-151.217
X130.302Y-215.277
X131.318Y-108.851
X131.572Y-92.849
X132.514Y-180.594
X132.969Y-193.814
X134.4Y-108.817
X135.67Y-166.475
X136.398Y-105.803
X136.601Y-216.498
X136.906Y-194.195
X137.448Y-166.475
X137.63Y-180.581
X137.922Y-92.595
X139.497Y-216.552
X139.7Y-195.719
X140.208Y-92.595
X140.843Y-164.858
X141.224Y-118.249
X143.041Y-177.573
X143.51Y-119.011
X144.78Y-195.719
X144.914Y-180.91
X145.034Y-61.583
X145.542Y-49.415
X145.542Y-104.279
X146.304Y-184.466
X146.355Y-198.762
X146.542Y-176.161
X147.245Y-115.276
X147.32Y-139.331
X147.371Y-200.737
X147.674Y-168.949
X148.387Y-194.349
X148.624Y-108.309
X150.368Y-208.724
X153.162Y-191.672
X153.67Y-130.187
X154.024Y-108.309
X155.482Y-131.423
X155.956Y-205.879
X156.464Y-147.205
X157.277Y-172.605
X157.461Y-208.448
X159.214Y-108.317
X159.476Y-211.939
X160.562Y-204.575
X160.63Y-192.417
X161.578Y-108.309
X163.038Y-149.903
X163.72Y-134.361
X163.909Y-108.309
X164.626Y-200.512
X164.753Y-203.94
X166.116Y-151.523
X167.928Y-177.473
X168.097Y-134.471
X169.071Y-198.606
X171.45Y-104.787
X171.484Y-186.287
X172.764Y-151.499
X173.085Y-136.503
X176.784Y-55.511
X177.241Y-86.281
X177.8Y-67.703
X178.562Y-80.911
X178.816Y-110.121
X180.848Y-187.083
X181.559Y-124.345
X183.032Y-95.135
X183.032Y-97.713
T2
X30.988Y-84.721
X30.988Y-92.341
X30.988Y-107.581
X30.988Y-115.201
X31.242Y-71.259
X31.242Y-81.419
X33.528Y-84.721
X33.528Y-92.341
X33.528Y-107.581
X33.528Y-115.201
X33.782Y-120.027
X34.798Y-71.259
X34.798Y-81.419
X35.814Y-173.153
X35.814Y-178.153
X36.068Y-84.721
X36.068Y-92.341
X36.068Y-107.581
X36.068Y-115.201
X36.322Y-120.027
X38.608Y-84.721
X38.608Y-92.341
X38.608Y-107.581
X38.608Y-115.201
X38.862Y-120.027
X38.862Y-165.787
X38.862Y-170.787
X38.862Y-175.439
X38.862Y-180.439
X40.132Y-63.141
X40.132Y-65.681
X40.132Y-68.221
X40.132Y-70.761
X40.132Y-73.301
X40.132Y-75.841
X40.132Y-78.381
X40.132Y-80.921
X41.148Y-84.721
X41.148Y-92.341
X41.148Y-107.581
X41.148Y-115.201
X41.402Y-120.027
X43.688Y-84.721
X43.688Y-92.341
X43.688Y-107.581
X43.688Y-115.201
X43.942Y-120.027
X46.228Y-84.721
X46.228Y-92.341
X46.228Y-107.581
X46.228Y-115.201
X46.228Y-154.611
X46.228Y-159.611
X46.482Y-120.027
X48.768Y-84.721
X48.768Y-92.341
X48.768Y-107.581
X48.768Y-115.201
X49.022Y-120.027
X51.308Y-84.721
X51.308Y-92.341
X51.308Y-107.581
X51.308Y-115.201
X51.562Y-120.027
X52.11Y-151.777
X53.594Y-157.365
X53.594Y-164.985
X53.848Y-84.721
X53.848Y-92.341
X53.848Y-107.581
X53.848Y-115.201
X54.61Y-125.655
X54.61Y-130.655
X55.372Y-140.601
X55.372Y-145.601
X55.372Y-179.463
X55.372Y-184.463
X55.372Y-188.139
X55.372Y-193.139
X55.372Y-196.989
X55.372Y-201.989
X56.134Y-157.365
X56.134Y-164.985
X57.11Y-151.777
X57.404Y-168.293
X57.404Y-173.293
X58.674Y-125.655
X58.674Y-130.655
X58.674Y-157.365
X58.674Y-164.985
X59.182Y-87.047
X59.182Y-92.047
X59.69Y-182.003
X59.69Y-192.163
X60.452Y-108.931
X60.452Y-113.931
X60.96Y-47.383
X60.96Y-57.543
X61.214Y-157.365
X61.214Y-164.985
X61.214Y-168.541
X61.214Y-178.701
X61.468Y-139.077
X61.468Y-149.237
X62.738Y-95.643
X62.738Y-105.803
X62.738Y-118.503
X62.738Y-128.663
X62.992Y-71.513
X62.992Y-185.853
X62.992Y-190.853
X63.026Y-68.431
X63.754Y-83.999
X63.754Y-88.999
X63.754Y-157.365
X63.754Y-164.985
X64.516Y-60.083
X65.024Y-168.541
X65.024Y-178.701
X65.024Y-202.577
X65.532Y-136.283
X65.532Y-146.443
X66.045Y-48.638
X66.045Y-56.258
X66.12Y-113.931
X66.279Y-185.798
X66.279Y-193.418
X66.294Y-157.365
X66.294Y-164.985
X66.548Y-94.373
X66.548Y-104.533
X66.548Y-118.503
X66.548Y-128.663
X67.818Y-83.959
X67.818Y-88.959
X68.585Y-48.638
X68.585Y-56.258
X68.819Y-185.798
X68.819Y-193.418
X68.834Y-29.857
X68.834Y-40.017
X68.834Y-157.365
X68.834Y-164.985
X68.909Y-63.893
X69.088Y-139.077
X69.088Y-149.237
X69.088Y-207.657
X70.358Y-94.373
X70.358Y-104.533
X70.358Y-118.503
X70.358Y-128.663
X71.12Y-113.931
X71.125Y-48.638
X71.125Y-56.258
X71.359Y-185.798
X71.359Y-193.418
X71.636Y-34.175
X72.625Y-42.557
X72.644Y-167.999
X72.644Y-178.159
X73.152Y-71.513
X73.186Y-68.431
X73.66Y-136.791
X73.66Y-146.951
X73.665Y-48.638
X73.665Y-56.258
X73.899Y-185.798
X73.899Y-193.418
X73.909Y-63.893
X73.914Y-84.213
X73.914Y-89.293
X74.168Y-94.373
X74.168Y-104.533
X74.168Y-118.503
X74.168Y-128.663
X74.176Y-31.635
X74.176Y-36.715
X74.676Y-60.083
X75.184Y-202.577
X76.205Y-48.638
X76.205Y-56.258
X76.439Y-185.798
X76.439Y-193.418
X76.454Y-86.753
X76.534Y-198.513
X77.625Y-42.557
X78.232Y-161.175
X78.486Y-134.759
X78.486Y-144.919
X78.732Y-60.591
X78.732Y-65.671
X78.745Y-48.638
X78.745Y-56.258
X78.979Y-185.798
X78.979Y-193.418
X79.24Y-152.031
X79.24Y-157.111
X79.248Y-207.657
X80.518Y-33.961
X80.518Y-38.961
X81.066Y-82.435
X81.272Y-63.131
X81.285Y-48.638
X81.285Y-56.258
X81.519Y-185.798
X81.519Y-193.418
X81.534Y-198.513
X81.78Y-154.571
X82.042Y-86.499
X82.042Y-101.739
X84.059Y-185.798
X84.059Y-193.418
X85.09Y-30.873
X85.09Y-41.033
X85.09Y-108.988
X85.09Y-113.988
X85.852Y-86.499
X85.852Y-101.739
X86.066Y-82.435
X86.36Y-46.621
X86.36Y-56.781
X86.36Y-152.071
X86.36Y-157.071
X88.392Y-33.453
X88.392Y-38.453
X88.392Y-161.175
X89.956Y-45.605
X90.668Y-122.562
X90.668Y-137.802
X90.932Y-108.637
X90.932Y-113.637
X91.186Y-50.177
X91.186Y-60.337
X91.44Y-29.603
X91.44Y-39.763
X91.943Y-185.833
X91.943Y-201.073
X93.208Y-122.562
X93.208Y-137.802
X94.483Y-185.833
X94.483Y-201.073
X94.742Y-69.521
X94.742Y-74.521
X94.757Y-105.818
X94.757Y-113.438
X94.782Y-40.017
X94.782Y-59.829
X94.956Y-45.605
X95.748Y-122.562
X95.748Y-137.802
X97.023Y-185.833
X97.023Y-201.073
X97.297Y-105.818
X97.297Y-113.438
X97.536Y-80.773
X97.536Y-85.773
X98.288Y-122.562
X98.288Y-137.802
X99.563Y-185.833
X99.563Y-201.073
X99.782Y-40.017
X99.782Y-59.829
X99.837Y-105.818
X99.837Y-113.438
X100.33Y-72.529
X100.828Y-122.562
X100.828Y-137.802
X101.854Y-141.871
X102.103Y-185.833
X102.103Y-201.073
X102.377Y-105.818
X102.377Y-113.438
X103.368Y-122.562
X103.368Y-137.802
X104.643Y-185.833
X104.643Y-201.073
X104.917Y-105.818
X104.917Y-113.438
X105.156Y-146.189
X105.908Y-122.562
X105.908Y-137.802
X106.172Y-83.071
X106.172Y-88.071
X107.183Y-185.833
X107.183Y-201.073
X107.457Y-105.818
X107.457Y-113.438
X107.552Y-58.051
X108.448Y-122.562
X108.448Y-137.802
X108.712Y-47.169
X108.712Y-52.169
X109.474Y-64.187
X109.474Y-69.187
X109.723Y-185.833
X109.723Y-201.073
X109.997Y-105.818
X109.997Y-113.438
X110.052Y-58.051
X110.49Y-72.529
X110.988Y-122.562
X110.988Y-137.802
X112.014Y-83.451
X112.014Y-88.451
X112.263Y-185.833
X112.263Y-201.073
X112.537Y-105.818
X112.537Y-113.438
X113.528Y-122.562
X113.528Y-137.802
X114.803Y-185.833
X114.803Y-201.073
X115.824Y-83.491
X115.824Y-88.491
X116.068Y-122.562
X116.068Y-137.802
X117.094Y-141.871
X117.343Y-185.833
X117.343Y-201.073
X118.608Y-122.562
X118.608Y-137.802
X119.38Y-46.153
X119.38Y-51.153
X119.38Y-58.559
X119.38Y-63.559
X119.38Y-71.045
X119.38Y-76.045
X119.634Y-83.491
X119.634Y-88.491
X119.883Y-185.833
X119.883Y-201.073
X120.396Y-146.189
X121.148Y-122.562
X121.148Y-137.802
X121.158Y-213.245
X122.423Y-185.833
X122.423Y-201.073
X123.484Y-28.079
X123.688Y-122.562
X123.688Y-137.802
X123.937Y-43.812
X123.937Y-51.432
X123.937Y-56.263
X123.937Y-63.883
X123.937Y-68.714
X123.937Y-76.334
X123.937Y-81.165
X123.937Y-88.785
X124.963Y-185.833
X124.963Y-201.073
X126.233Y-97.167
X126.233Y-112.407
X126.477Y-43.812
X126.477Y-51.432
X126.477Y-56.263
X126.477Y-63.883
X126.477Y-68.714
X126.477Y-76.334
X126.477Y-81.165
X126.477Y-88.785
X127.503Y-185.833
X127.503Y-201.073
X127.796Y-154.357
X127.796Y-159.357
X128.484Y-28.079
X128.773Y-97.167
X128.773Y-112.407
X129.017Y-43.812
X129.017Y-51.432
X129.017Y-56.263
X129.017Y-63.883
X129.017Y-68.714
X129.017Y-76.334
X129.017Y-81.165
X129.017Y-88.785
X130.043Y-185.833
X130.043Y-201.073
X130.8Y-122.298
X130.8Y-129.918
X130.8Y-135.76
X130.8Y-143.38
X131.098Y-154.357
X131.098Y-159.357
X131.313Y-97.167
X131.313Y-112.407
X131.318Y-213.245
X131.557Y-43.812
X131.557Y-51.432
X131.557Y-56.263
X131.557Y-63.883
X131.557Y-68.714
X131.557Y-76.334
X131.557Y-81.165
X131.557Y-88.785
X132.583Y-185.833
X132.583Y-201.073
X133.34Y-122.298
X133.34Y-129.918
X133.34Y-135.76
X133.34Y-143.38
X133.853Y-97.167
X133.853Y-112.407
X134.097Y-43.812
X134.097Y-51.432
X134.097Y-56.263
X134.097Y-63.883
X134.097Y-68.714
X134.097Y-76.334
X134.097Y-81.165
X134.097Y-88.785
X134.879Y-151.762
X134.879Y-159.382
X135.123Y-185.833
X135.123Y-201.073
X135.88Y-122.298
X135.88Y-129.918
X135.88Y-135.76
X135.88Y-143.38
X136.393Y-97.167
X136.393Y-112.407
X136.637Y-43.812
X136.637Y-51.432
X136.637Y-56.263
X136.637Y-63.883
X136.637Y-68.714
X136.637Y-76.334
X136.637Y-81.165
X136.637Y-88.785
X137.419Y-151.762
X137.419Y-159.382
X137.663Y-185.833
X137.663Y-201.073
X138.42Y-122.298
X138.42Y-129.918
X138.42Y-135.76
X138.42Y-143.38
X138.933Y-97.167
X138.933Y-112.407
X139.177Y-43.812
X139.177Y-51.432
X139.177Y-56.263
X139.177Y-63.883
X139.177Y-68.714
X139.177Y-76.334
X139.177Y-81.165
X139.177Y-88.785
X139.959Y-151.762
X139.959Y-159.382
X140.203Y-185.833
X140.203Y-201.073
X140.96Y-122.298
X140.96Y-129.918
X140.96Y-135.76
X140.96Y-143.38
X141.473Y-97.167
X141.473Y-112.407
X141.717Y-43.812
X141.717Y-51.432
X141.717Y-56.263
X141.717Y-63.883
X141.717Y-68.714
X141.717Y-76.334
X141.717Y-81.165
X141.717Y-88.785
X142.499Y-151.762
X142.499Y-159.382
X143.5Y-122.298
X143.5Y-129.918
X143.5Y-135.76
X143.5Y-143.38
X144.013Y-97.167
X144.013Y-112.407
X145.039Y-151.762
X145.039Y-159.382
X146.04Y-122.298
X146.04Y-129.918
X146.04Y-135.76
X146.04Y-143.38
X146.05Y-46.621
X146.05Y-51.621
X146.304Y-59.107
X146.304Y-64.107
X146.304Y-71.553
X146.304Y-76.553
X146.338Y-83.959
X146.338Y-88.959
X146.553Y-97.167
X146.553Y-112.407
X146.812Y-162.445
X147.579Y-151.762
X147.579Y-159.382
X148.58Y-122.298
X148.58Y-129.918
X148.58Y-135.76
X148.58Y-143.38
X149.093Y-97.167
X149.093Y-112.407
X150.119Y-151.762
X150.119Y-159.382
X150.622Y-43.827
X150.622Y-48.827
X150.622Y-56.313
X150.622Y-61.313
X150.622Y-68.759
X150.622Y-73.759
X150.622Y-81.205
X150.622Y-86.205
X150.622Y-187.845
X150.622Y-198.005
X151.12Y-122.298
X151.12Y-129.918
X151.12Y-135.76
X151.12Y-143.38
X151.633Y-97.167
X151.633Y-112.407
X153.924Y-92.849
X154.173Y-97.167
X154.173Y-112.407
X154.94Y-186.829
X154.94Y-196.989
X155.687Y-120.774
X155.687Y-128.394
X155.956Y-81.165
X155.956Y-88.785
X155.971Y-43.812
X155.971Y-51.432
X155.971Y-56.263
X155.971Y-63.883
X155.971Y-68.714
X155.971Y-76.334
X156.713Y-97.167
X156.713Y-112.407
X156.718Y-138.609
X156.718Y-143.609
X158.227Y-120.774
X158.227Y-128.394
X158.496Y-81.165
X158.496Y-88.785
X158.496Y-181.241
X158.496Y-191.401
X158.496Y-196.735
X158.496Y-206.895
X158.511Y-43.812
X158.511Y-51.432
X158.511Y-56.263
X158.511Y-63.883
X158.511Y-68.714
X158.511Y-76.334
X159.004Y-149.491
X159.004Y-159.651
X159.253Y-97.167
X159.253Y-112.407
X160.528Y-136.537
X160.767Y-120.774
X160.767Y-128.394
X161.036Y-81.165
X161.036Y-88.785
X161.044Y-144.665
X161.051Y-43.812
X161.051Y-51.432
X161.051Y-56.263
X161.051Y-63.883
X161.051Y-68.714
X161.051Y-76.334
X161.544Y-168.033
X161.544Y-173.033
X161.793Y-97.167
X161.793Y-112.407
X162.052Y-162.445
X162.092Y-157.619
X162.132Y-154.063
X162.56Y-196.735
X162.56Y-206.895
X163.129Y-212.483
X163.307Y-120.774
X163.307Y-128.394
X163.322Y-183.273
X163.322Y-190.893
X163.576Y-81.165
X163.576Y-88.785
X163.584Y-142.125
X163.584Y-147.205
X163.591Y-43.812
X163.591Y-51.432
X163.591Y-56.263
X163.591Y-63.883
X163.591Y-68.714
X163.591Y-76.334
X164.084Y-92.849
X164.333Y-97.167
X164.333Y-112.407
X164.592Y-177.177
X165.613Y-160.906
X165.613Y-168.526
X165.642Y-180.225
X165.847Y-120.774
X165.847Y-128.394
X165.862Y-183.273
X165.862Y-190.893
X166.116Y-81.165
X166.116Y-88.785
X166.131Y-43.812
X166.131Y-51.432
X166.131Y-56.263
X166.131Y-63.883
X166.131Y-68.714
X166.131Y-76.334
X166.873Y-97.167
X166.873Y-112.407
X166.878Y-149.237
X166.878Y-196.735
X166.878Y-206.895
X167.092Y-157.619
X167.132Y-139.585
X167.132Y-154.063
X167.53Y-172.859
X167.894Y-145.681
X168.129Y-212.483
X168.153Y-160.906
X168.153Y-168.526
X168.387Y-120.774
X168.387Y-128.394
X168.402Y-183.273
X168.402Y-190.893
X168.656Y-81.165
X168.656Y-88.785
X168.671Y-43.812
X168.671Y-51.432
X168.671Y-56.263
X168.671Y-63.883
X168.671Y-68.714
X168.671Y-76.334
X169.413Y-97.167
X169.413Y-112.407
X170.035Y-116.471
X170.434Y-142.633
X170.688Y-136.537
X170.693Y-160.906
X170.693Y-168.526
X170.927Y-120.774
X170.927Y-128.394
X170.942Y-183.273
X170.942Y-190.893
X171.196Y-81.165
X171.196Y-88.785
X171.211Y-43.812
X171.211Y-51.432
X171.211Y-56.263
X171.211Y-63.883
X171.211Y-68.714
X171.211Y-76.334
X171.45Y-193.941
X171.953Y-97.167
X171.953Y-112.407
X172.41Y-172.859
X172.535Y-116.471
X173.014Y-157.619
X173.233Y-160.906
X173.233Y-168.526
X173.467Y-120.774
X173.467Y-128.394
X173.482Y-183.273
X173.482Y-190.893
X173.482Y-202.323
X173.482Y-212.483
X173.736Y-81.165
X173.736Y-88.785
X173.751Y-43.812
X173.751Y-51.432
X173.751Y-56.263
X173.751Y-63.883
X173.751Y-68.714
X173.751Y-76.334
X174.493Y-97.167
X174.493Y-112.407
X174.498Y-196.989
X174.752Y-177.177
X175.434Y-142.633
X175.773Y-160.906
X175.773Y-168.526
X175.802Y-180.225
X176.022Y-183.273
X176.022Y-190.893
X176.53Y-136.537
X177.038Y-149.237
X177.292Y-139.585
X178.014Y-157.619
X178.054Y-145.681
X178.313Y-160.906
X178.313Y-168.526
X178.562Y-173.407
X178.562Y-178.407
X178.562Y-183.273
X178.562Y-190.893
X178.816Y-46.407
X178.816Y-51.407
X178.816Y-58.853
X178.816Y-63.853
X178.816Y-71.299
X178.816Y-76.299
X178.816Y-83.745
X178.816Y-88.745
X179.324Y-118.503
X179.324Y-128.663
X180.853Y-160.906
X180.853Y-168.526
X181.53Y-136.537
X181.61Y-193.941
X182.88Y-100.723
X182.88Y-110.883
X183.134Y-184.583
X183.134Y-189.583
X183.422Y-118.469
X183.422Y-128.629
X184.658Y-196.989
T3
X50.546Y-192.163
X57.594Y-83.908
X58.42Y-205.625
X59.944Y-205.625
X67.429Y-144.74
X76.234Y-162.157
X79.917Y-92.942
X81.788Y-71.259
X83.566Y-143.649
X87.664Y-95.863
X88.392Y-163.715
X88.68Y-86.211
X98.044Y-178.955
X150.402Y-165.002
X150.402Y-179.175
X172.026Y-147.459
T4
X31.922Y-47.536
X31.922Y-50.306
X31.922Y-53.076
X31.922Y-55.846
X31.922Y-138.468
X31.922Y-141.238
X31.922Y-144.008
X31.922Y-146.778
X34.762Y-46.151
X34.762Y-48.921
X34.762Y-51.691
X34.762Y-54.461
X34.762Y-57.231
X34.762Y-137.083
X34.762Y-139.853
X34.762Y-142.623
X34.762Y-145.393
X34.762Y-148.163
X43.038Y-170.827
X50.658Y-170.827
X90.17Y-90.167
X90.17Y-97.787
X95.25Y-90.167
X95.25Y-97.787
X99.568Y-46.763
X99.568Y-54.383
X100.442Y-93.103
X104.14Y-45.874
X104.14Y-48.414
X104.14Y-50.954
X104.14Y-53.494
X104.14Y-56.034
X104.14Y-58.574
X104.14Y-61.114
X104.14Y-63.654
X108.062Y-93.103
X111.872Y-93.103
X119.492Y-93.103
X130.952Y-34.683
X138.572Y-34.683
X146.416Y-29.349
X154.036Y-29.349
X168.036Y-132.473
X169.814Y-153.301
X175.656Y-132.473
X177.434Y-153.301
X179.578Y-203.053
X179.578Y-205.085
X179.578Y-207.117
X184.658Y-203.053
X184.658Y-205.085
X184.658Y-207.117
T5
X43.688Y-176.415
X43.688Y-201.815
X50.292Y-176.415
X50.292Y-201.815
X98.044Y-169.811
X98.044Y-174.637
X100.584Y-169.811
X100.584Y-174.637
X103.124Y-169.811
X103.124Y-174.637
X105.664Y-169.811
X105.664Y-174.637
X108.204Y-169.811
X108.204Y-174.637
X110.744Y-169.811
X110.744Y-174.637
X113.284Y-169.811
X113.284Y-174.637
X115.824Y-169.811
X115.824Y-174.637
X118.364Y-169.811
X118.364Y-174.637
X120.904Y-169.811
X120.904Y-174.637
X123.444Y-169.811
X123.444Y-174.637
X125.984Y-169.811
X125.984Y-174.637
X128.524Y-169.811
X128.524Y-174.637
X131.064Y-169.811
X131.064Y-174.637
X133.604Y-169.811
X133.604Y-174.637
T6
X182.118Y-203.053
X182.118Y-207.117
T7
X28.597Y-167.173
X28.597Y-171.133
X28.597Y-175.093
X28.597Y-179.053
T8
X27.813Y-204.006
X36.449Y-204.006
T9
X104.174Y-41.761
X104.174Y-67.669
T10
X33.342Y-39.191
X33.342Y-64.191
X33.342Y-130.123
X33.342Y-155.123
T11
X89.474Y-172.212
X142.174Y-172.212
T12
X50.834Y-71.733
T13
X37.338Y-29.603
X51.562Y-213.499
X115.858Y-158.601
X181.898Y-219.815
X183.168Y-33.125
T14
X177.292Y-205.085
X186.944Y-205.085
T2
G00X27.813Y-199.248
M15
G01X27.813Y-195.048
M16
G05
G00X27.813Y-212.964
M15
G01X27.813Y-208.764
M16
G05
G00X29.658Y-188.099
M15
G01X34.858Y-188.099
M16
G05
G00X29.658Y-219.849
M15
G01X34.858Y-219.849
M16
G05
G00X36.449Y-199.248
M15
G01X36.449Y-195.048
M16
G05
G00X36.449Y-212.964
M15
G01X36.449Y-208.764
M16
G05
G00X44.214Y-43.887
M15
G01X44.214Y-38.687
M16
G05
G00X51.248Y-78.389
M15
G01X56.448Y-78.389
M16
G05
G00X103.064Y-25.303
M15
G01X108.264Y-25.303
M16
G05
G00X103.064Y-78.371
M15
G01X108.264Y-78.371
M16
G05
G00X115.062Y-65.477
M15
G01X115.062Y-60.277
M16
G05
T0
M30
