%TF.GenerationSoftware,KiCad,Pcbnew,6.0.11-2627ca5db0~126~ubuntu22.04.1*%
%TF.CreationDate,2023-05-22T21:48:10-04:00*%
%TF.ProjectId,coleco_original_main_only,636f6c65-636f-45f6-9f72-6967696e616c,DEV*%
%TF.SameCoordinates,Original*%
%TF.FileFunction,Legend,Bot*%
%TF.FilePolarity,Positive*%
%FSLAX46Y46*%
G04 Gerber Fmt 4.6, Leading zero omitted, Abs format (unit mm)*
G04 Created by KiCad (PCBNEW 6.0.11-2627ca5db0~126~ubuntu22.04.1) date 2023-05-22 21:48:10*
%MOMM*%
%LPD*%
G01*
G04 APERTURE LIST*
%ADD10C,0.150000*%
%ADD11C,0.120000*%
G04 APERTURE END LIST*
D10*
%TO.C,JP2*%
X120864380Y-142561666D02*
X121578666Y-142561666D01*
X121721523Y-142514047D01*
X121816761Y-142418809D01*
X121864380Y-142275952D01*
X121864380Y-142180714D01*
X121864380Y-143037857D02*
X120864380Y-143037857D01*
X120864380Y-143418809D01*
X120912000Y-143514047D01*
X120959619Y-143561666D01*
X121054857Y-143609285D01*
X121197714Y-143609285D01*
X121292952Y-143561666D01*
X121340571Y-143514047D01*
X121388190Y-143418809D01*
X121388190Y-143037857D01*
X120959619Y-143990238D02*
X120912000Y-144037857D01*
X120864380Y-144133095D01*
X120864380Y-144371190D01*
X120912000Y-144466428D01*
X120959619Y-144514047D01*
X121054857Y-144561666D01*
X121150095Y-144561666D01*
X121292952Y-144514047D01*
X121864380Y-143942619D01*
X121864380Y-144561666D01*
%TO.C,JP1*%
X99528380Y-145101666D02*
X100242666Y-145101666D01*
X100385523Y-145054047D01*
X100480761Y-144958809D01*
X100528380Y-144815952D01*
X100528380Y-144720714D01*
X100528380Y-145577857D02*
X99528380Y-145577857D01*
X99528380Y-145958809D01*
X99576000Y-146054047D01*
X99623619Y-146101666D01*
X99718857Y-146149285D01*
X99861714Y-146149285D01*
X99956952Y-146101666D01*
X100004571Y-146054047D01*
X100052190Y-145958809D01*
X100052190Y-145577857D01*
X100528380Y-147101666D02*
X100528380Y-146530238D01*
X100528380Y-146815952D02*
X99528380Y-146815952D01*
X99671238Y-146720714D01*
X99766476Y-146625476D01*
X99814095Y-146530238D01*
D11*
%TO.C,JP2*%
X120380000Y-141617000D02*
X118380000Y-141617000D01*
X120380000Y-144665000D02*
X120380000Y-141617000D01*
X118380000Y-141617000D02*
X118380000Y-144665000D01*
X118380000Y-144665000D02*
X120380000Y-144665000D01*
%TO.C,JP1*%
X101362000Y-144411000D02*
X101362000Y-147459000D01*
X103362000Y-144411000D02*
X101362000Y-144411000D01*
X103362000Y-147459000D02*
X103362000Y-144411000D01*
X101362000Y-147459000D02*
X103362000Y-147459000D01*
%TD*%
M02*
