M48
; DRILL file {KiCad 7.0.11-7.0.11~ubuntu22.04.1} date Sun 01 Dec 2024 08:45:22 PM EST
; FORMAT={-:-/ absolute / metric / decimal}
; #@! TF.CreationDate,2024-12-01T20:45:22-05:00
; #@! TF.GenerationSoftware,Kicad,Pcbnew,7.0.11-7.0.11~ubuntu22.04.1
; #@! TF.FileFunction,MixedPlating,1,2
FMAT,2
METRIC
; #@! TA.AperFunction,Plated,PTH,ViaDrill
T1C0.559
; #@! TA.AperFunction,Plated,PTH,ComponentDrill
T2C0.800
; #@! TA.AperFunction,Plated,PTH,ViaDrill
T3C0.813
; #@! TA.AperFunction,Plated,PTH,ComponentDrill
T4C1.000
; #@! TA.AperFunction,Plated,PTH,ComponentDrill
T5C1.100
; #@! TA.AperFunction,Plated,PTH,ComponentDrill
T6C1.500
; #@! TA.AperFunction,Plated,PTH,ComponentDrill
T7C1.700
; #@! TA.AperFunction,Plated,PTH,ComponentDrill
T8C2.000
; #@! TA.AperFunction,Plated,PTH,ComponentDrill
T9C2.200
; #@! TA.AperFunction,Plated,PTH,ComponentDrill
T10C3.200
; #@! TA.AperFunction,Plated,PTH,ComponentDrill
T11C3.250
; #@! TA.AperFunction,Plated,PTH,ComponentDrill
T12C3.500
; #@! TA.AperFunction,Plated,PTH,ComponentDrill
T13C7.000
; #@! TA.AperFunction,NonPlated,NPTH,ComponentDrill
T14C2.050
%
G90
G05
T1
X26.111Y-125.691
X26.907Y-69.523
X28.177Y-68.507
X28.507Y-125.639
X30.69Y-123.625
X34.019Y-124.895
X36.271Y-124.929
X38.337Y-60.379
X39.065Y-124.929
X39.099Y-135.563
X39.099Y-145.469
X42.621Y-60.921
X42.659Y-125.081
X46.973Y-140.643
X46.973Y-146.739
X51.799Y-146.739
X53.543Y-143.471
X57.133Y-127.977
X58.657Y-176.203
X65.261Y-125.403
X68.021Y-176.237
X68.375Y-173.289
X68.817Y-125.403
X70.561Y-174.459
X70.849Y-143.437
X71.65Y-81.422
X73.099Y-205.377
X73.101Y-96.481
X73.609Y-109.943
X73.643Y-111.941
X74.879Y-210.273
X76.657Y-120.611
X76.824Y-139.948
X77.569Y-176.342
X79.095Y-89.322
X79.197Y-91.147
X79.206Y-87.497
X81.517Y-170.869
X83.261Y-53.301
X88.187Y-180.775
X88.213Y-98.417
X88.388Y-195.43
X89.076Y-193.736
X89.721Y-207.772
X91.169Y-133.277
X91.179Y-216.579
X91.254Y-115.726
X91.694Y-189.59
X91.897Y-83.527
X93.421Y-215.099
X93.421Y-217.131
X93.675Y-149.059
X93.929Y-127.909
X94.979Y-158.677
X95.199Y-180.775
X95.707Y-127.101
X96.427Y-166.627
X96.469Y-109.435
X96.503Y-154.867
X96.503Y-55.807
X96.762Y-116.606
X98.611Y-215.468
X98.656Y-206.921
X100.069Y-218.103
X100.084Y-213.031
X100.567Y-130.737
X102.311Y-180.775
X102.568Y-132.038
X104.053Y-218.691
X106.121Y-90.893
X106.375Y-188.175
X108.711Y-180.809
X109.169Y-188.175
X109.673Y-37.349
X109.677Y-35.521
X109.677Y-41.109
X109.677Y-39.178
X110.028Y-177.254
X110.249Y-212.749
X111.047Y-214.491
X115.519Y-178.472
X115.773Y-212.813
X115.773Y-215.099
X117.043Y-96.989
X120.345Y-113.702
X121.666Y-140.423
X122.88Y-210.747
X123.51Y-110.534
X124.409Y-97.751
X126.695Y-108.927
X126.695Y-210.967
X127.968Y-152.425
X129.235Y-108.927
X130.303Y-151.293
X130.759Y-215.353
X131.775Y-108.927
X132.029Y-92.925
X132.972Y-180.67
X133.426Y-193.89
X134.857Y-108.893
X136.127Y-166.551
X136.855Y-105.879
X137.058Y-216.575
X137.363Y-194.271
X137.905Y-166.551
X138.087Y-180.657
X138.379Y-92.671
X139.954Y-216.629
X140.157Y-195.795
X140.665Y-92.671
X141.3Y-164.934
X141.681Y-118.325
X143.498Y-177.649
X143.967Y-119.087
X145.237Y-195.795
X145.372Y-180.986
X145.491Y-61.659
X145.999Y-49.491
X145.999Y-104.355
X146.761Y-184.542
X146.812Y-198.838
X146.999Y-176.237
X147.702Y-115.353
X147.777Y-139.407
X147.828Y-200.813
X148.131Y-169.025
X148.844Y-194.425
X149.081Y-108.385
X150.825Y-208.8
X153.619Y-191.748
X154.127Y-130.263
X154.481Y-108.385
X155.939Y-131.499
X156.413Y-205.955
X156.921Y-147.281
X157.734Y-172.681
X157.918Y-208.524
X159.672Y-108.393
X159.933Y-212.015
X161.019Y-204.651
X161.087Y-192.493
X162.035Y-108.385
X163.495Y-149.979
X164.177Y-134.437
X164.366Y-108.385
X165.083Y-200.588
X165.21Y-204.016
X166.573Y-151.599
X168.385Y-177.549
X168.554Y-134.547
X169.528Y-198.682
X171.907Y-104.863
X171.941Y-186.363
X173.221Y-151.575
X173.542Y-136.579
X177.241Y-55.587
X177.698Y-86.357
X178.257Y-67.779
X179.019Y-80.987
X179.273Y-110.197
X181.305Y-187.159
X182.016Y-124.421
X183.489Y-95.211
X183.489Y-97.789
T2
X31.445Y-84.797
X31.445Y-92.417
X31.445Y-107.657
X31.445Y-115.277
X31.699Y-71.335
X31.699Y-81.495
X33.985Y-84.797
X33.985Y-92.417
X33.985Y-107.657
X33.985Y-115.277
X34.239Y-120.103
X35.255Y-71.335
X35.255Y-81.495
X36.271Y-173.229
X36.271Y-178.229
X36.525Y-84.797
X36.525Y-92.417
X36.525Y-107.657
X36.525Y-115.277
X36.779Y-120.103
X39.065Y-84.797
X39.065Y-92.417
X39.065Y-107.657
X39.065Y-115.277
X39.319Y-120.103
X39.319Y-165.863
X39.319Y-170.863
X39.319Y-175.515
X39.319Y-180.515
X40.589Y-63.217
X40.589Y-65.757
X40.589Y-68.297
X40.589Y-70.837
X40.589Y-73.377
X40.589Y-75.917
X40.589Y-78.457
X40.589Y-80.997
X41.605Y-84.797
X41.605Y-92.417
X41.605Y-107.657
X41.605Y-115.277
X41.859Y-120.103
X44.145Y-84.797
X44.145Y-92.417
X44.145Y-107.657
X44.145Y-115.277
X44.399Y-120.103
X46.685Y-84.797
X46.685Y-92.417
X46.685Y-107.657
X46.685Y-115.277
X46.685Y-154.687
X46.685Y-159.687
X46.939Y-120.103
X49.225Y-84.797
X49.225Y-92.417
X49.225Y-107.657
X49.225Y-115.277
X49.479Y-120.103
X51.765Y-84.797
X51.765Y-92.417
X51.765Y-107.657
X51.765Y-115.277
X52.019Y-120.103
X52.567Y-151.853
X54.051Y-157.441
X54.051Y-165.061
X54.305Y-84.797
X54.305Y-92.417
X54.305Y-107.657
X54.305Y-115.277
X55.067Y-125.731
X55.067Y-130.731
X55.829Y-140.677
X55.829Y-145.677
X55.829Y-179.539
X55.829Y-184.539
X55.829Y-188.215
X55.829Y-193.215
X55.829Y-197.065
X55.829Y-202.065
X56.591Y-157.441
X56.591Y-165.061
X57.567Y-151.853
X57.861Y-168.369
X57.861Y-173.369
X59.131Y-125.731
X59.131Y-130.731
X59.131Y-157.441
X59.131Y-165.061
X59.639Y-87.123
X59.639Y-92.123
X60.147Y-182.079
X60.147Y-192.239
X60.909Y-109.007
X60.909Y-114.007
X61.417Y-47.459
X61.417Y-57.619
X61.671Y-157.441
X61.671Y-165.061
X61.671Y-168.617
X61.671Y-178.777
X61.925Y-139.153
X61.925Y-149.313
X63.195Y-95.719
X63.195Y-105.879
X63.195Y-118.579
X63.195Y-128.739
X63.449Y-71.589
X63.449Y-185.929
X63.449Y-190.929
X63.483Y-68.507
X64.211Y-84.075
X64.211Y-89.075
X64.211Y-157.441
X64.211Y-165.061
X64.973Y-60.159
X65.481Y-168.617
X65.481Y-178.777
X65.481Y-202.653
X65.989Y-136.359
X65.989Y-146.519
X66.502Y-48.714
X66.502Y-56.334
X66.577Y-114.007
X66.736Y-185.874
X66.736Y-193.494
X66.751Y-157.441
X66.751Y-165.061
X67.005Y-94.449
X67.005Y-104.609
X67.005Y-118.579
X67.005Y-128.739
X68.275Y-84.035
X68.275Y-89.035
X69.042Y-48.714
X69.042Y-56.334
X69.276Y-185.874
X69.276Y-193.494
X69.291Y-29.933
X69.291Y-40.093
X69.291Y-157.441
X69.291Y-165.061
X69.367Y-63.969
X69.545Y-139.153
X69.545Y-149.313
X69.545Y-207.733
X70.815Y-94.449
X70.815Y-104.609
X70.815Y-118.579
X70.815Y-128.739
X71.577Y-114.007
X71.582Y-48.714
X71.582Y-56.334
X71.816Y-185.874
X71.816Y-193.494
X72.093Y-34.251
X73.082Y-42.633
X73.101Y-168.075
X73.101Y-178.235
X73.609Y-71.589
X73.643Y-68.507
X74.117Y-136.867
X74.117Y-147.027
X74.122Y-48.714
X74.122Y-56.334
X74.356Y-185.874
X74.356Y-193.494
X74.367Y-63.969
X74.371Y-84.289
X74.371Y-89.369
X74.625Y-94.449
X74.625Y-104.609
X74.625Y-118.579
X74.625Y-128.739
X74.633Y-31.711
X74.633Y-36.791
X75.133Y-60.159
X75.641Y-202.653
X76.662Y-48.714
X76.662Y-56.334
X76.896Y-185.874
X76.896Y-193.494
X76.911Y-86.829
X76.991Y-198.589
X78.082Y-42.633
X78.689Y-161.251
X78.943Y-134.835
X78.943Y-144.995
X79.189Y-60.667
X79.189Y-65.747
X79.202Y-48.714
X79.202Y-56.334
X79.436Y-185.874
X79.436Y-193.494
X79.697Y-152.107
X79.697Y-157.187
X79.705Y-207.733
X80.975Y-34.037
X80.975Y-39.037
X81.523Y-82.511
X81.729Y-63.207
X81.742Y-48.714
X81.742Y-56.334
X81.976Y-185.874
X81.976Y-193.494
X81.991Y-198.589
X82.237Y-154.647
X82.499Y-86.575
X82.499Y-101.815
X84.516Y-185.874
X84.516Y-193.494
X85.547Y-30.949
X85.547Y-41.109
X85.547Y-109.065
X85.547Y-114.065
X86.309Y-86.575
X86.309Y-101.815
X86.523Y-82.511
X86.817Y-46.697
X86.817Y-56.857
X86.817Y-152.147
X86.817Y-157.147
X88.849Y-33.529
X88.849Y-38.529
X88.849Y-161.251
X90.413Y-45.681
X91.125Y-122.638
X91.125Y-137.878
X91.389Y-108.713
X91.389Y-113.713
X91.643Y-50.253
X91.643Y-60.413
X91.897Y-29.679
X91.897Y-39.839
X92.4Y-185.909
X92.4Y-201.149
X93.665Y-122.638
X93.665Y-137.878
X94.94Y-185.909
X94.94Y-201.149
X95.199Y-69.597
X95.199Y-74.597
X95.214Y-105.894
X95.214Y-113.514
X95.239Y-40.093
X95.239Y-59.905
X95.413Y-45.681
X96.205Y-122.638
X96.205Y-137.878
X97.48Y-185.909
X97.48Y-201.149
X97.754Y-105.894
X97.754Y-113.514
X97.993Y-80.849
X97.993Y-85.849
X98.745Y-122.638
X98.745Y-137.878
X100.02Y-185.909
X100.02Y-201.149
X100.239Y-40.093
X100.239Y-59.905
X100.294Y-105.894
X100.294Y-113.514
X100.787Y-72.605
X101.285Y-122.638
X101.285Y-137.878
X102.311Y-141.947
X102.56Y-185.909
X102.56Y-201.149
X102.834Y-105.894
X102.834Y-113.514
X103.825Y-122.638
X103.825Y-137.878
X105.1Y-185.909
X105.1Y-201.149
X105.374Y-105.894
X105.374Y-113.514
X105.613Y-146.265
X106.365Y-122.638
X106.365Y-137.878
X106.629Y-83.148
X106.629Y-88.148
X107.64Y-185.909
X107.64Y-201.149
X107.914Y-105.894
X107.914Y-113.514
X108.009Y-58.127
X108.905Y-122.638
X108.905Y-137.878
X109.169Y-47.245
X109.169Y-52.245
X109.931Y-64.263
X109.931Y-69.263
X110.18Y-185.909
X110.18Y-201.149
X110.454Y-105.894
X110.454Y-113.514
X110.509Y-58.127
X110.947Y-72.605
X111.445Y-122.638
X111.445Y-137.878
X112.471Y-83.527
X112.471Y-88.527
X112.72Y-185.909
X112.72Y-201.149
X112.994Y-105.894
X112.994Y-113.514
X113.985Y-122.638
X113.985Y-137.878
X115.26Y-185.909
X115.26Y-201.149
X116.281Y-83.567
X116.281Y-88.567
X116.525Y-122.638
X116.525Y-137.878
X117.551Y-141.947
X117.8Y-185.909
X117.8Y-201.149
X119.065Y-122.638
X119.065Y-137.878
X119.837Y-46.229
X119.837Y-51.229
X119.837Y-58.635
X119.837Y-63.635
X119.837Y-71.121
X119.837Y-76.121
X120.091Y-83.567
X120.091Y-88.567
X120.34Y-185.909
X120.34Y-201.149
X120.853Y-146.265
X121.605Y-122.638
X121.605Y-137.878
X121.615Y-213.321
X122.88Y-185.909
X122.88Y-201.149
X123.941Y-28.155
X124.145Y-122.638
X124.145Y-137.878
X124.394Y-43.888
X124.394Y-51.508
X124.394Y-56.339
X124.394Y-63.959
X124.394Y-68.79
X124.394Y-76.41
X124.394Y-81.241
X124.394Y-88.861
X125.42Y-185.909
X125.42Y-201.149
X126.69Y-97.243
X126.69Y-112.483
X126.934Y-43.888
X126.934Y-51.508
X126.934Y-56.339
X126.934Y-63.959
X126.934Y-68.79
X126.934Y-76.41
X126.934Y-81.241
X126.934Y-88.861
X127.96Y-185.909
X127.96Y-201.149
X128.253Y-154.433
X128.253Y-159.433
X128.941Y-28.155
X129.23Y-97.243
X129.23Y-112.483
X129.474Y-43.888
X129.474Y-51.508
X129.474Y-56.339
X129.474Y-63.959
X129.474Y-68.79
X129.474Y-76.41
X129.474Y-81.241
X129.474Y-88.861
X130.5Y-185.909
X130.5Y-201.149
X131.257Y-122.374
X131.257Y-129.994
X131.257Y-135.836
X131.257Y-143.456
X131.555Y-154.433
X131.555Y-159.433
X131.77Y-97.243
X131.77Y-112.483
X131.775Y-213.321
X132.014Y-43.888
X132.014Y-51.508
X132.014Y-56.339
X132.014Y-63.959
X132.014Y-68.79
X132.014Y-76.41
X132.014Y-81.241
X132.014Y-88.861
X133.04Y-185.909
X133.04Y-201.149
X133.797Y-122.374
X133.797Y-129.994
X133.797Y-135.836
X133.797Y-143.456
X134.31Y-97.243
X134.31Y-112.483
X134.554Y-43.888
X134.554Y-51.508
X134.554Y-56.339
X134.554Y-63.959
X134.554Y-68.79
X134.554Y-76.41
X134.554Y-81.241
X134.554Y-88.861
X135.336Y-151.838
X135.336Y-159.458
X135.58Y-185.909
X135.58Y-201.149
X136.337Y-122.374
X136.337Y-129.994
X136.337Y-135.836
X136.337Y-143.456
X136.85Y-97.243
X136.85Y-112.483
X137.094Y-43.888
X137.094Y-51.508
X137.094Y-56.339
X137.094Y-63.959
X137.094Y-68.79
X137.094Y-76.41
X137.094Y-81.241
X137.094Y-88.861
X137.876Y-151.838
X137.876Y-159.458
X138.12Y-185.909
X138.12Y-201.149
X138.877Y-122.374
X138.877Y-129.994
X138.877Y-135.836
X138.877Y-143.456
X139.39Y-97.243
X139.39Y-112.483
X139.634Y-43.888
X139.634Y-51.508
X139.634Y-56.339
X139.634Y-63.959
X139.634Y-68.79
X139.634Y-76.41
X139.634Y-81.241
X139.634Y-88.861
X140.416Y-151.838
X140.416Y-159.458
X140.66Y-185.909
X140.66Y-201.149
X141.417Y-122.374
X141.417Y-129.994
X141.417Y-135.836
X141.417Y-143.456
X141.93Y-97.243
X141.93Y-112.483
X142.174Y-43.888
X142.174Y-51.508
X142.174Y-56.339
X142.174Y-63.959
X142.174Y-68.79
X142.174Y-76.41
X142.174Y-81.241
X142.174Y-88.861
X142.956Y-151.838
X142.956Y-159.458
X143.957Y-122.374
X143.957Y-129.994
X143.957Y-135.836
X143.957Y-143.456
X144.47Y-97.243
X144.47Y-112.483
X145.496Y-151.838
X145.496Y-159.458
X146.497Y-122.374
X146.497Y-129.994
X146.497Y-135.836
X146.497Y-143.456
X146.507Y-46.697
X146.507Y-51.697
X146.761Y-59.183
X146.761Y-64.183
X146.761Y-71.629
X146.761Y-76.629
X146.795Y-84.035
X146.795Y-89.035
X147.01Y-97.243
X147.01Y-112.483
X147.269Y-162.521
X148.036Y-151.838
X148.036Y-159.458
X149.037Y-122.374
X149.037Y-129.994
X149.037Y-135.836
X149.037Y-143.456
X149.55Y-97.243
X149.55Y-112.483
X150.576Y-151.838
X150.576Y-159.458
X151.079Y-43.903
X151.079Y-48.903
X151.079Y-56.389
X151.079Y-61.389
X151.079Y-68.835
X151.079Y-73.835
X151.079Y-81.281
X151.079Y-86.281
X151.079Y-187.921
X151.079Y-198.081
X151.577Y-122.374
X151.577Y-129.994
X151.577Y-135.836
X151.577Y-143.456
X152.09Y-97.243
X152.09Y-112.483
X154.381Y-92.925
X154.63Y-97.243
X154.63Y-112.483
X155.397Y-186.905
X155.397Y-197.065
X156.144Y-120.85
X156.144Y-128.47
X156.413Y-81.241
X156.413Y-88.861
X156.428Y-43.888
X156.428Y-51.508
X156.428Y-56.339
X156.428Y-63.959
X156.428Y-68.79
X156.428Y-76.41
X157.17Y-97.243
X157.17Y-112.483
X157.175Y-138.685
X157.175Y-143.685
X158.684Y-120.85
X158.684Y-128.47
X158.953Y-81.241
X158.953Y-88.861
X158.953Y-181.317
X158.953Y-191.477
X158.953Y-196.811
X158.953Y-206.971
X158.968Y-43.888
X158.968Y-51.508
X158.968Y-56.339
X158.968Y-63.959
X158.968Y-68.79
X158.968Y-76.41
X159.461Y-149.567
X159.461Y-159.727
X159.71Y-97.243
X159.71Y-112.483
X160.985Y-136.613
X161.224Y-120.85
X161.224Y-128.47
X161.493Y-81.241
X161.493Y-88.861
X161.501Y-144.741
X161.508Y-43.888
X161.508Y-51.508
X161.508Y-56.339
X161.508Y-63.959
X161.508Y-68.79
X161.508Y-76.41
X162.001Y-168.109
X162.001Y-173.109
X162.25Y-97.243
X162.25Y-112.483
X162.509Y-162.521
X162.549Y-157.695
X162.589Y-154.139
X163.017Y-196.811
X163.017Y-206.971
X163.586Y-212.559
X163.764Y-120.85
X163.764Y-128.47
X163.779Y-183.349
X163.779Y-190.969
X164.033Y-81.241
X164.033Y-88.861
X164.041Y-142.201
X164.041Y-147.281
X164.048Y-43.888
X164.048Y-51.508
X164.048Y-56.339
X164.048Y-63.959
X164.048Y-68.79
X164.048Y-76.41
X164.541Y-92.925
X164.79Y-97.243
X164.79Y-112.483
X165.049Y-177.253
X166.07Y-160.982
X166.07Y-168.602
X166.099Y-180.301
X166.304Y-120.85
X166.304Y-128.47
X166.319Y-183.349
X166.319Y-190.969
X166.573Y-81.241
X166.573Y-88.861
X166.588Y-43.888
X166.588Y-51.508
X166.588Y-56.339
X166.588Y-63.959
X166.588Y-68.79
X166.588Y-76.41
X167.33Y-97.243
X167.33Y-112.483
X167.335Y-149.313
X167.335Y-196.811
X167.335Y-206.971
X167.549Y-157.695
X167.589Y-139.661
X167.589Y-154.139
X167.987Y-172.935
X168.351Y-145.757
X168.586Y-212.559
X168.61Y-160.982
X168.61Y-168.602
X168.844Y-120.85
X168.844Y-128.47
X168.859Y-183.349
X168.859Y-190.969
X169.113Y-81.241
X169.113Y-88.861
X169.128Y-43.888
X169.128Y-51.508
X169.128Y-56.339
X169.128Y-63.959
X169.128Y-68.79
X169.128Y-76.41
X169.87Y-97.243
X169.87Y-112.483
X170.492Y-116.547
X170.891Y-142.709
X171.145Y-136.613
X171.15Y-160.982
X171.15Y-168.602
X171.384Y-120.85
X171.384Y-128.47
X171.399Y-183.349
X171.399Y-190.969
X171.653Y-81.241
X171.653Y-88.861
X171.668Y-43.888
X171.668Y-51.508
X171.668Y-56.339
X171.668Y-63.959
X171.668Y-68.79
X171.668Y-76.41
X171.907Y-194.017
X172.41Y-97.243
X172.41Y-112.483
X172.867Y-172.935
X172.992Y-116.547
X173.471Y-157.695
X173.69Y-160.982
X173.69Y-168.602
X173.924Y-120.85
X173.924Y-128.47
X173.939Y-183.349
X173.939Y-190.969
X173.939Y-202.399
X173.939Y-212.559
X174.193Y-81.241
X174.193Y-88.861
X174.208Y-43.888
X174.208Y-51.508
X174.208Y-56.339
X174.208Y-63.959
X174.208Y-68.79
X174.208Y-76.41
X174.95Y-97.243
X174.95Y-112.483
X174.955Y-197.065
X175.209Y-177.253
X175.891Y-142.709
X176.23Y-160.982
X176.23Y-168.602
X176.259Y-180.301
X176.479Y-183.349
X176.479Y-190.969
X176.987Y-136.613
X177.495Y-149.313
X177.749Y-139.661
X178.471Y-157.695
X178.511Y-145.757
X178.77Y-160.982
X178.77Y-168.602
X179.019Y-173.483
X179.019Y-178.483
X179.019Y-183.349
X179.019Y-190.969
X179.273Y-46.483
X179.273Y-51.483
X179.273Y-58.929
X179.273Y-63.929
X179.273Y-71.375
X179.273Y-76.375
X179.273Y-83.821
X179.273Y-88.821
X179.781Y-118.579
X179.781Y-128.739
X181.31Y-160.982
X181.31Y-168.602
X181.987Y-136.613
X182.067Y-194.017
X183.337Y-100.799
X183.337Y-110.959
X183.591Y-184.659
X183.591Y-189.659
X183.879Y-118.545
X183.879Y-128.705
X185.115Y-197.065
T3
X51.003Y-192.239
X58.051Y-83.984
X58.877Y-205.701
X60.401Y-205.701
X67.886Y-144.816
X76.691Y-162.233
X80.374Y-93.018
X82.245Y-71.335
X84.023Y-143.725
X88.121Y-95.939
X88.849Y-163.791
X89.137Y-86.287
X98.501Y-179.031
X150.859Y-165.078
X150.859Y-179.251
X172.483Y-147.535
T4
X32.38Y-47.612
X32.38Y-50.382
X32.38Y-53.152
X32.38Y-55.922
X32.38Y-138.544
X32.38Y-141.314
X32.38Y-144.084
X32.38Y-146.854
X35.22Y-46.227
X35.22Y-48.997
X35.22Y-51.767
X35.22Y-54.537
X35.22Y-57.307
X35.22Y-137.159
X35.22Y-139.929
X35.22Y-142.699
X35.22Y-145.469
X35.22Y-148.239
X43.495Y-170.903
X51.115Y-170.903
X90.627Y-90.243
X90.627Y-97.863
X95.707Y-90.243
X95.707Y-97.863
X100.025Y-46.839
X100.025Y-54.459
X100.899Y-93.179
X104.597Y-45.95
X104.597Y-48.49
X104.597Y-51.03
X104.597Y-53.57
X104.597Y-56.11
X104.597Y-58.65
X104.597Y-61.19
X104.597Y-63.73
X108.519Y-93.179
X112.329Y-93.179
X119.949Y-93.179
X131.409Y-34.759
X139.029Y-34.759
X146.873Y-29.425
X154.493Y-29.425
X168.493Y-132.549
X170.271Y-153.377
X176.113Y-132.549
X177.891Y-153.377
X180.035Y-203.129
X180.035Y-205.161
X180.035Y-207.193
X185.115Y-203.129
X185.115Y-205.161
X185.115Y-207.193
T5
X44.145Y-176.491
X44.145Y-201.891
X50.749Y-176.491
X50.749Y-201.891
X98.501Y-169.887
X98.501Y-174.713
X101.041Y-169.887
X101.041Y-174.713
X103.581Y-169.887
X103.581Y-174.713
X106.121Y-169.887
X106.121Y-174.713
X108.661Y-169.887
X108.661Y-174.713
X111.201Y-169.887
X111.201Y-174.713
X113.741Y-169.887
X113.741Y-174.713
X116.281Y-169.887
X116.281Y-174.713
X118.821Y-169.887
X118.821Y-174.713
X121.361Y-169.887
X121.361Y-174.713
X123.901Y-169.887
X123.901Y-174.713
X126.441Y-169.887
X126.441Y-174.713
X128.981Y-169.887
X128.981Y-174.713
X131.521Y-169.887
X131.521Y-174.713
X134.061Y-169.887
X134.061Y-174.713
T6
X182.575Y-203.129
X182.575Y-207.193
T7
X29.054Y-167.249
X29.054Y-171.209
X29.054Y-175.169
X29.054Y-179.129
T8
X28.27Y-204.082
X36.906Y-204.082
T9
X104.631Y-41.837
X104.631Y-67.745
T10
X33.8Y-39.267
X33.8Y-64.267
X33.8Y-130.199
X33.8Y-155.199
T11
X89.931Y-172.288
X142.631Y-172.288
T12
X51.291Y-71.809
T13
X37.795Y-29.679
X52.019Y-213.575
X116.315Y-158.677
X183.117Y-219.891
X183.625Y-33.201
T14
X177.749Y-205.161
X187.401Y-205.161
T2
G00X28.27Y-199.324
M15
G01X28.27Y-195.124
M16
G05
G00X28.27Y-213.04
M15
G01X28.27Y-208.84
M16
G05
G00X30.115Y-188.175
M15
G01X35.315Y-188.175
M16
G05
G00X30.115Y-219.925
M15
G01X35.315Y-219.925
M16
G05
G00X36.906Y-199.324
M15
G01X36.906Y-195.124
M16
G05
G00X36.906Y-213.04
M15
G01X36.906Y-208.84
M16
G05
G00X44.671Y-43.963
M15
G01X44.671Y-38.763
M16
G05
G00X51.705Y-78.465
M15
G01X56.905Y-78.465
M16
G05
G00X103.521Y-25.379
M15
G01X108.721Y-25.379
M16
G05
G00X103.521Y-78.447
M15
G01X108.721Y-78.447
M16
G05
G00X115.519Y-65.553
M15
G01X115.519Y-60.353
M16
G05
M30
