%TF.GenerationSoftware,KiCad,Pcbnew,6.0.11-2627ca5db0~126~ubuntu22.04.1*%
%TF.CreationDate,2023-05-23T18:06:28-04:00*%
%TF.ProjectId,coleco_original_main_only,636f6c65-636f-45f6-9f72-6967696e616c,DEV*%
%TF.SameCoordinates,Original*%
%TF.FileFunction,Profile,NP*%
%FSLAX46Y46*%
G04 Gerber Fmt 4.6, Leading zero omitted, Abs format (unit mm)*
G04 Created by KiCad (PCBNEW 6.0.11-2627ca5db0~126~ubuntu22.04.1) date 2023-05-23 18:06:28*
%MOMM*%
%LPD*%
G01*
G04 APERTURE LIST*
%TA.AperFunction,Profile*%
%ADD10C,0.100000*%
%TD*%
G04 APERTURE END LIST*
D10*
X24306666Y-232515000D02*
G75*
G03*
X24306666Y-232515000I-1666666J0D01*
G01*
X20140000Y-232515000D02*
X25140000Y-232515000D01*
X22640000Y-230015000D02*
X22640000Y-235015000D01*
X166624000Y-230771000D02*
X167132000Y-231279000D01*
X23876000Y-231279000D02*
X66802000Y-231279000D01*
X66802000Y-17411000D02*
X23876000Y-17411000D01*
X67564000Y-218325000D02*
X77724000Y-218325000D01*
X169164000Y-22745000D02*
X167894000Y-22745000D01*
X95758000Y-17411000D02*
X95758000Y-24015000D01*
X156464000Y-218071000D02*
X166370000Y-218071000D01*
X167894000Y-22745000D02*
X167894000Y-17411000D01*
X166370000Y-218071000D02*
X166624000Y-218325000D01*
X192278000Y-17411000D02*
X169164000Y-17411000D01*
X23876000Y-17411000D02*
X23876000Y-231279000D01*
X189230000Y-22237000D02*
X192278000Y-22237000D01*
X66802000Y-24015000D02*
X66802000Y-17411000D01*
X189230000Y-23253000D02*
X189230000Y-22237000D01*
X167132000Y-231279000D02*
X192278000Y-231279000D01*
X169164000Y-17411000D02*
X169164000Y-22745000D01*
X192278000Y-22237000D02*
X192278000Y-17411000D01*
X67310000Y-230771000D02*
X67310000Y-218579000D01*
X192278000Y-231279000D02*
X192278000Y-23253000D01*
X77978000Y-218579000D02*
X77978000Y-221246000D01*
X95758000Y-24015000D02*
X66802000Y-24015000D01*
X77724000Y-218325000D02*
X77978000Y-218579000D01*
X192278000Y-23253000D02*
X189230000Y-23253000D01*
X167894000Y-17411000D02*
X95758000Y-17411000D01*
X156210000Y-221246000D02*
X156210000Y-218325000D01*
X156210000Y-218325000D02*
X156464000Y-218071000D01*
X166624000Y-218325000D02*
X166624000Y-230771000D01*
X67310000Y-218579000D02*
X67564000Y-218325000D01*
X66802000Y-231279000D02*
X67310000Y-230771000D01*
%TO.C,J2*%
X155702000Y-231406000D02*
X78486000Y-231406000D01*
X77978000Y-230644000D02*
X77978000Y-221246000D01*
X78486000Y-231406000D02*
X77978000Y-230644000D01*
X156210000Y-221246000D02*
X156210000Y-230644000D01*
X156210000Y-230644000D02*
X155702000Y-231406000D01*
%TD*%
M02*
