%TF.GenerationSoftware,KiCad,Pcbnew,7.0.11-7.0.11~ubuntu22.04.1*%
%TF.CreationDate,2024-12-01T20:45:21-05:00*%
%TF.ProjectId,coleco_original_main_only,636f6c65-636f-45f6-9f72-6967696e616c,DEV*%
%TF.SameCoordinates,Original*%
%TF.FileFunction,AssemblyDrawing,Bot*%
%FSLAX46Y46*%
G04 Gerber Fmt 4.6, Leading zero omitted, Abs format (unit mm)*
G04 Created by KiCad (PCBNEW 7.0.11-7.0.11~ubuntu22.04.1) date 2024-12-01 20:45:21*
%MOMM*%
%LPD*%
G01*
G04 APERTURE LIST*
%ADD10C,0.100000*%
%ADD11C,0.150000*%
G04 APERTURE END LIST*
D10*
X23825200Y-230593200D02*
X67259200Y-230593200D01*
X95707200Y-16725200D02*
X95707200Y-23329200D01*
X166573200Y-230593200D02*
X192227200Y-230593200D01*
X66751200Y-23329200D02*
X66751200Y-16725200D01*
X189179200Y-21551200D02*
X192227200Y-21551200D01*
X23825200Y-16725200D02*
X23825200Y-230593200D01*
X192227200Y-16725200D02*
X169113200Y-16725200D01*
X192227200Y-21551200D02*
X192227200Y-16725200D01*
X169113200Y-16725200D02*
X169113200Y-22059200D01*
X192227200Y-230593200D02*
X192227200Y-22567200D01*
X67259200Y-217639200D02*
X77927200Y-217639200D01*
X192227200Y-22567200D02*
X189179200Y-22567200D01*
X167843200Y-16725200D02*
X95707200Y-16725200D01*
X169113200Y-22059200D02*
X167843200Y-22059200D01*
X166573200Y-217385200D02*
X166573200Y-230593200D01*
X95707200Y-23329200D02*
X66751200Y-23329200D01*
X77927200Y-217639200D02*
X77927200Y-230466200D01*
X156159200Y-217385200D02*
X166573200Y-217385200D01*
X67259200Y-230593200D02*
X67259200Y-217639200D01*
X189179200Y-22567200D02*
X189179200Y-21551200D01*
X167843200Y-22059200D02*
X167843200Y-16725200D01*
X66751200Y-16725200D02*
X23825200Y-16725200D01*
X156159200Y-230466200D02*
X156159200Y-217385200D01*
D11*
X122398400Y-134479008D02*
X122446019Y-134621865D01*
X122446019Y-134621865D02*
X122446019Y-134859960D01*
X122446019Y-134859960D02*
X122398400Y-134955198D01*
X122398400Y-134955198D02*
X122350780Y-135002817D01*
X122350780Y-135002817D02*
X122255542Y-135050436D01*
X122255542Y-135050436D02*
X122160304Y-135050436D01*
X122160304Y-135050436D02*
X122065066Y-135002817D01*
X122065066Y-135002817D02*
X122017447Y-134955198D01*
X122017447Y-134955198D02*
X121969828Y-134859960D01*
X121969828Y-134859960D02*
X121922209Y-134669484D01*
X121922209Y-134669484D02*
X121874590Y-134574246D01*
X121874590Y-134574246D02*
X121826971Y-134526627D01*
X121826971Y-134526627D02*
X121731733Y-134479008D01*
X121731733Y-134479008D02*
X121636495Y-134479008D01*
X121636495Y-134479008D02*
X121541257Y-134526627D01*
X121541257Y-134526627D02*
X121493638Y-134574246D01*
X121493638Y-134574246D02*
X121446019Y-134669484D01*
X121446019Y-134669484D02*
X121446019Y-134907579D01*
X121446019Y-134907579D02*
X121493638Y-135050436D01*
X122446019Y-135621865D02*
X122398400Y-135526627D01*
X122398400Y-135526627D02*
X122350780Y-135479008D01*
X122350780Y-135479008D02*
X122255542Y-135431389D01*
X122255542Y-135431389D02*
X121969828Y-135431389D01*
X121969828Y-135431389D02*
X121874590Y-135479008D01*
X121874590Y-135479008D02*
X121826971Y-135526627D01*
X121826971Y-135526627D02*
X121779352Y-135621865D01*
X121779352Y-135621865D02*
X121779352Y-135764722D01*
X121779352Y-135764722D02*
X121826971Y-135859960D01*
X121826971Y-135859960D02*
X121874590Y-135907579D01*
X121874590Y-135907579D02*
X121969828Y-135955198D01*
X121969828Y-135955198D02*
X122255542Y-135955198D01*
X122255542Y-135955198D02*
X122350780Y-135907579D01*
X122350780Y-135907579D02*
X122398400Y-135859960D01*
X122398400Y-135859960D02*
X122446019Y-135764722D01*
X122446019Y-135764722D02*
X122446019Y-135621865D01*
X122446019Y-136526627D02*
X122398400Y-136431389D01*
X122398400Y-136431389D02*
X122303161Y-136383770D01*
X122303161Y-136383770D02*
X121446019Y-136383770D01*
X122446019Y-137336151D02*
X121446019Y-137336151D01*
X122398400Y-137336151D02*
X122446019Y-137240913D01*
X122446019Y-137240913D02*
X122446019Y-137050437D01*
X122446019Y-137050437D02*
X122398400Y-136955199D01*
X122398400Y-136955199D02*
X122350780Y-136907580D01*
X122350780Y-136907580D02*
X122255542Y-136859961D01*
X122255542Y-136859961D02*
X121969828Y-136859961D01*
X121969828Y-136859961D02*
X121874590Y-136907580D01*
X121874590Y-136907580D02*
X121826971Y-136955199D01*
X121826971Y-136955199D02*
X121779352Y-137050437D01*
X121779352Y-137050437D02*
X121779352Y-137240913D01*
X121779352Y-137240913D02*
X121826971Y-137336151D01*
X122398400Y-138193294D02*
X122446019Y-138098056D01*
X122446019Y-138098056D02*
X122446019Y-137907580D01*
X122446019Y-137907580D02*
X122398400Y-137812342D01*
X122398400Y-137812342D02*
X122303161Y-137764723D01*
X122303161Y-137764723D02*
X121922209Y-137764723D01*
X121922209Y-137764723D02*
X121826971Y-137812342D01*
X121826971Y-137812342D02*
X121779352Y-137907580D01*
X121779352Y-137907580D02*
X121779352Y-138098056D01*
X121779352Y-138098056D02*
X121826971Y-138193294D01*
X121826971Y-138193294D02*
X121922209Y-138240913D01*
X121922209Y-138240913D02*
X122017447Y-138240913D01*
X122017447Y-138240913D02*
X122112685Y-137764723D01*
X122446019Y-138669485D02*
X121779352Y-138669485D01*
X121969828Y-138669485D02*
X121874590Y-138717104D01*
X121874590Y-138717104D02*
X121826971Y-138764723D01*
X121826971Y-138764723D02*
X121779352Y-138859961D01*
X121779352Y-138859961D02*
X121779352Y-138955199D01*
X121446019Y-139574247D02*
X122160304Y-139574247D01*
X122160304Y-139574247D02*
X122303161Y-139526628D01*
X122303161Y-139526628D02*
X122398400Y-139431390D01*
X122398400Y-139431390D02*
X122446019Y-139288533D01*
X122446019Y-139288533D02*
X122446019Y-139193295D01*
X121779352Y-140479009D02*
X122446019Y-140479009D01*
X121779352Y-140050438D02*
X122303161Y-140050438D01*
X122303161Y-140050438D02*
X122398400Y-140098057D01*
X122398400Y-140098057D02*
X122446019Y-140193295D01*
X122446019Y-140193295D02*
X122446019Y-140336152D01*
X122446019Y-140336152D02*
X122398400Y-140431390D01*
X122398400Y-140431390D02*
X122350780Y-140479009D01*
X122446019Y-140955200D02*
X121779352Y-140955200D01*
X121874590Y-140955200D02*
X121826971Y-141002819D01*
X121826971Y-141002819D02*
X121779352Y-141098057D01*
X121779352Y-141098057D02*
X121779352Y-141240914D01*
X121779352Y-141240914D02*
X121826971Y-141336152D01*
X121826971Y-141336152D02*
X121922209Y-141383771D01*
X121922209Y-141383771D02*
X122446019Y-141383771D01*
X121922209Y-141383771D02*
X121826971Y-141431390D01*
X121826971Y-141431390D02*
X121779352Y-141526628D01*
X121779352Y-141526628D02*
X121779352Y-141669485D01*
X121779352Y-141669485D02*
X121826971Y-141764724D01*
X121826971Y-141764724D02*
X121922209Y-141812343D01*
X121922209Y-141812343D02*
X122446019Y-141812343D01*
X121779352Y-142288533D02*
X122779352Y-142288533D01*
X121826971Y-142288533D02*
X121779352Y-142383771D01*
X121779352Y-142383771D02*
X121779352Y-142574247D01*
X121779352Y-142574247D02*
X121826971Y-142669485D01*
X121826971Y-142669485D02*
X121874590Y-142717104D01*
X121874590Y-142717104D02*
X121969828Y-142764723D01*
X121969828Y-142764723D02*
X122255542Y-142764723D01*
X122255542Y-142764723D02*
X122350780Y-142717104D01*
X122350780Y-142717104D02*
X122398400Y-142669485D01*
X122398400Y-142669485D02*
X122446019Y-142574247D01*
X122446019Y-142574247D02*
X122446019Y-142383771D01*
X122446019Y-142383771D02*
X122398400Y-142288533D01*
X122398400Y-143574247D02*
X122446019Y-143479009D01*
X122446019Y-143479009D02*
X122446019Y-143288533D01*
X122446019Y-143288533D02*
X122398400Y-143193295D01*
X122398400Y-143193295D02*
X122303161Y-143145676D01*
X122303161Y-143145676D02*
X121922209Y-143145676D01*
X121922209Y-143145676D02*
X121826971Y-143193295D01*
X121826971Y-143193295D02*
X121779352Y-143288533D01*
X121779352Y-143288533D02*
X121779352Y-143479009D01*
X121779352Y-143479009D02*
X121826971Y-143574247D01*
X121826971Y-143574247D02*
X121922209Y-143621866D01*
X121922209Y-143621866D02*
X122017447Y-143621866D01*
X122017447Y-143621866D02*
X122112685Y-143145676D01*
X122446019Y-144050438D02*
X121779352Y-144050438D01*
X121969828Y-144050438D02*
X121874590Y-144098057D01*
X121874590Y-144098057D02*
X121826971Y-144145676D01*
X121826971Y-144145676D02*
X121779352Y-144240914D01*
X121779352Y-144240914D02*
X121779352Y-144336152D01*
X122541257Y-144431391D02*
X122541257Y-145193295D01*
X121541257Y-145383772D02*
X121493638Y-145431391D01*
X121493638Y-145431391D02*
X121446019Y-145526629D01*
X121446019Y-145526629D02*
X121446019Y-145764724D01*
X121446019Y-145764724D02*
X121493638Y-145859962D01*
X121493638Y-145859962D02*
X121541257Y-145907581D01*
X121541257Y-145907581D02*
X121636495Y-145955200D01*
X121636495Y-145955200D02*
X121731733Y-145955200D01*
X121731733Y-145955200D02*
X121874590Y-145907581D01*
X121874590Y-145907581D02*
X122446019Y-145336153D01*
X122446019Y-145336153D02*
X122446019Y-145955200D01*
X122541257Y-146145677D02*
X122541257Y-146907581D01*
X121446019Y-147336153D02*
X121446019Y-147526629D01*
X121446019Y-147526629D02*
X121493638Y-147621867D01*
X121493638Y-147621867D02*
X121588876Y-147717105D01*
X121588876Y-147717105D02*
X121779352Y-147764724D01*
X121779352Y-147764724D02*
X122112685Y-147764724D01*
X122112685Y-147764724D02*
X122303161Y-147717105D01*
X122303161Y-147717105D02*
X122398400Y-147621867D01*
X122398400Y-147621867D02*
X122446019Y-147526629D01*
X122446019Y-147526629D02*
X122446019Y-147336153D01*
X122446019Y-147336153D02*
X122398400Y-147240915D01*
X122398400Y-147240915D02*
X122303161Y-147145677D01*
X122303161Y-147145677D02*
X122112685Y-147098058D01*
X122112685Y-147098058D02*
X121779352Y-147098058D01*
X121779352Y-147098058D02*
X121588876Y-147145677D01*
X121588876Y-147145677D02*
X121493638Y-147240915D01*
X121493638Y-147240915D02*
X121446019Y-147336153D01*
X121779352Y-148193296D02*
X122779352Y-148193296D01*
X121826971Y-148193296D02*
X121779352Y-148288534D01*
X121779352Y-148288534D02*
X121779352Y-148479010D01*
X121779352Y-148479010D02*
X121826971Y-148574248D01*
X121826971Y-148574248D02*
X121874590Y-148621867D01*
X121874590Y-148621867D02*
X121969828Y-148669486D01*
X121969828Y-148669486D02*
X122255542Y-148669486D01*
X122255542Y-148669486D02*
X122350780Y-148621867D01*
X122350780Y-148621867D02*
X122398400Y-148574248D01*
X122398400Y-148574248D02*
X122446019Y-148479010D01*
X122446019Y-148479010D02*
X122446019Y-148288534D01*
X122446019Y-148288534D02*
X122398400Y-148193296D01*
X122398400Y-149479010D02*
X122446019Y-149383772D01*
X122446019Y-149383772D02*
X122446019Y-149193296D01*
X122446019Y-149193296D02*
X122398400Y-149098058D01*
X122398400Y-149098058D02*
X122303161Y-149050439D01*
X122303161Y-149050439D02*
X121922209Y-149050439D01*
X121922209Y-149050439D02*
X121826971Y-149098058D01*
X121826971Y-149098058D02*
X121779352Y-149193296D01*
X121779352Y-149193296D02*
X121779352Y-149383772D01*
X121779352Y-149383772D02*
X121826971Y-149479010D01*
X121826971Y-149479010D02*
X121922209Y-149526629D01*
X121922209Y-149526629D02*
X122017447Y-149526629D01*
X122017447Y-149526629D02*
X122112685Y-149050439D01*
X121779352Y-149955201D02*
X122446019Y-149955201D01*
X121874590Y-149955201D02*
X121826971Y-150002820D01*
X121826971Y-150002820D02*
X121779352Y-150098058D01*
X121779352Y-150098058D02*
X121779352Y-150240915D01*
X121779352Y-150240915D02*
X121826971Y-150336153D01*
X121826971Y-150336153D02*
X121922209Y-150383772D01*
X121922209Y-150383772D02*
X122446019Y-150383772D01*
X105380400Y-137273008D02*
X105428019Y-137415865D01*
X105428019Y-137415865D02*
X105428019Y-137653960D01*
X105428019Y-137653960D02*
X105380400Y-137749198D01*
X105380400Y-137749198D02*
X105332780Y-137796817D01*
X105332780Y-137796817D02*
X105237542Y-137844436D01*
X105237542Y-137844436D02*
X105142304Y-137844436D01*
X105142304Y-137844436D02*
X105047066Y-137796817D01*
X105047066Y-137796817D02*
X104999447Y-137749198D01*
X104999447Y-137749198D02*
X104951828Y-137653960D01*
X104951828Y-137653960D02*
X104904209Y-137463484D01*
X104904209Y-137463484D02*
X104856590Y-137368246D01*
X104856590Y-137368246D02*
X104808971Y-137320627D01*
X104808971Y-137320627D02*
X104713733Y-137273008D01*
X104713733Y-137273008D02*
X104618495Y-137273008D01*
X104618495Y-137273008D02*
X104523257Y-137320627D01*
X104523257Y-137320627D02*
X104475638Y-137368246D01*
X104475638Y-137368246D02*
X104428019Y-137463484D01*
X104428019Y-137463484D02*
X104428019Y-137701579D01*
X104428019Y-137701579D02*
X104475638Y-137844436D01*
X105428019Y-138415865D02*
X105380400Y-138320627D01*
X105380400Y-138320627D02*
X105332780Y-138273008D01*
X105332780Y-138273008D02*
X105237542Y-138225389D01*
X105237542Y-138225389D02*
X104951828Y-138225389D01*
X104951828Y-138225389D02*
X104856590Y-138273008D01*
X104856590Y-138273008D02*
X104808971Y-138320627D01*
X104808971Y-138320627D02*
X104761352Y-138415865D01*
X104761352Y-138415865D02*
X104761352Y-138558722D01*
X104761352Y-138558722D02*
X104808971Y-138653960D01*
X104808971Y-138653960D02*
X104856590Y-138701579D01*
X104856590Y-138701579D02*
X104951828Y-138749198D01*
X104951828Y-138749198D02*
X105237542Y-138749198D01*
X105237542Y-138749198D02*
X105332780Y-138701579D01*
X105332780Y-138701579D02*
X105380400Y-138653960D01*
X105380400Y-138653960D02*
X105428019Y-138558722D01*
X105428019Y-138558722D02*
X105428019Y-138415865D01*
X105428019Y-139320627D02*
X105380400Y-139225389D01*
X105380400Y-139225389D02*
X105285161Y-139177770D01*
X105285161Y-139177770D02*
X104428019Y-139177770D01*
X105428019Y-140130151D02*
X104428019Y-140130151D01*
X105380400Y-140130151D02*
X105428019Y-140034913D01*
X105428019Y-140034913D02*
X105428019Y-139844437D01*
X105428019Y-139844437D02*
X105380400Y-139749199D01*
X105380400Y-139749199D02*
X105332780Y-139701580D01*
X105332780Y-139701580D02*
X105237542Y-139653961D01*
X105237542Y-139653961D02*
X104951828Y-139653961D01*
X104951828Y-139653961D02*
X104856590Y-139701580D01*
X104856590Y-139701580D02*
X104808971Y-139749199D01*
X104808971Y-139749199D02*
X104761352Y-139844437D01*
X104761352Y-139844437D02*
X104761352Y-140034913D01*
X104761352Y-140034913D02*
X104808971Y-140130151D01*
X105380400Y-140987294D02*
X105428019Y-140892056D01*
X105428019Y-140892056D02*
X105428019Y-140701580D01*
X105428019Y-140701580D02*
X105380400Y-140606342D01*
X105380400Y-140606342D02*
X105285161Y-140558723D01*
X105285161Y-140558723D02*
X104904209Y-140558723D01*
X104904209Y-140558723D02*
X104808971Y-140606342D01*
X104808971Y-140606342D02*
X104761352Y-140701580D01*
X104761352Y-140701580D02*
X104761352Y-140892056D01*
X104761352Y-140892056D02*
X104808971Y-140987294D01*
X104808971Y-140987294D02*
X104904209Y-141034913D01*
X104904209Y-141034913D02*
X104999447Y-141034913D01*
X104999447Y-141034913D02*
X105094685Y-140558723D01*
X105428019Y-141463485D02*
X104761352Y-141463485D01*
X104951828Y-141463485D02*
X104856590Y-141511104D01*
X104856590Y-141511104D02*
X104808971Y-141558723D01*
X104808971Y-141558723D02*
X104761352Y-141653961D01*
X104761352Y-141653961D02*
X104761352Y-141749199D01*
X104428019Y-142368247D02*
X105142304Y-142368247D01*
X105142304Y-142368247D02*
X105285161Y-142320628D01*
X105285161Y-142320628D02*
X105380400Y-142225390D01*
X105380400Y-142225390D02*
X105428019Y-142082533D01*
X105428019Y-142082533D02*
X105428019Y-141987295D01*
X104761352Y-143273009D02*
X105428019Y-143273009D01*
X104761352Y-142844438D02*
X105285161Y-142844438D01*
X105285161Y-142844438D02*
X105380400Y-142892057D01*
X105380400Y-142892057D02*
X105428019Y-142987295D01*
X105428019Y-142987295D02*
X105428019Y-143130152D01*
X105428019Y-143130152D02*
X105380400Y-143225390D01*
X105380400Y-143225390D02*
X105332780Y-143273009D01*
X105428019Y-143749200D02*
X104761352Y-143749200D01*
X104856590Y-143749200D02*
X104808971Y-143796819D01*
X104808971Y-143796819D02*
X104761352Y-143892057D01*
X104761352Y-143892057D02*
X104761352Y-144034914D01*
X104761352Y-144034914D02*
X104808971Y-144130152D01*
X104808971Y-144130152D02*
X104904209Y-144177771D01*
X104904209Y-144177771D02*
X105428019Y-144177771D01*
X104904209Y-144177771D02*
X104808971Y-144225390D01*
X104808971Y-144225390D02*
X104761352Y-144320628D01*
X104761352Y-144320628D02*
X104761352Y-144463485D01*
X104761352Y-144463485D02*
X104808971Y-144558724D01*
X104808971Y-144558724D02*
X104904209Y-144606343D01*
X104904209Y-144606343D02*
X105428019Y-144606343D01*
X104761352Y-145082533D02*
X105761352Y-145082533D01*
X104808971Y-145082533D02*
X104761352Y-145177771D01*
X104761352Y-145177771D02*
X104761352Y-145368247D01*
X104761352Y-145368247D02*
X104808971Y-145463485D01*
X104808971Y-145463485D02*
X104856590Y-145511104D01*
X104856590Y-145511104D02*
X104951828Y-145558723D01*
X104951828Y-145558723D02*
X105237542Y-145558723D01*
X105237542Y-145558723D02*
X105332780Y-145511104D01*
X105332780Y-145511104D02*
X105380400Y-145463485D01*
X105380400Y-145463485D02*
X105428019Y-145368247D01*
X105428019Y-145368247D02*
X105428019Y-145177771D01*
X105428019Y-145177771D02*
X105380400Y-145082533D01*
X105380400Y-146368247D02*
X105428019Y-146273009D01*
X105428019Y-146273009D02*
X105428019Y-146082533D01*
X105428019Y-146082533D02*
X105380400Y-145987295D01*
X105380400Y-145987295D02*
X105285161Y-145939676D01*
X105285161Y-145939676D02*
X104904209Y-145939676D01*
X104904209Y-145939676D02*
X104808971Y-145987295D01*
X104808971Y-145987295D02*
X104761352Y-146082533D01*
X104761352Y-146082533D02*
X104761352Y-146273009D01*
X104761352Y-146273009D02*
X104808971Y-146368247D01*
X104808971Y-146368247D02*
X104904209Y-146415866D01*
X104904209Y-146415866D02*
X104999447Y-146415866D01*
X104999447Y-146415866D02*
X105094685Y-145939676D01*
X105428019Y-146844438D02*
X104761352Y-146844438D01*
X104951828Y-146844438D02*
X104856590Y-146892057D01*
X104856590Y-146892057D02*
X104808971Y-146939676D01*
X104808971Y-146939676D02*
X104761352Y-147034914D01*
X104761352Y-147034914D02*
X104761352Y-147130152D01*
X105523257Y-147225391D02*
X105523257Y-147987295D01*
X104523257Y-148177772D02*
X104475638Y-148225391D01*
X104475638Y-148225391D02*
X104428019Y-148320629D01*
X104428019Y-148320629D02*
X104428019Y-148558724D01*
X104428019Y-148558724D02*
X104475638Y-148653962D01*
X104475638Y-148653962D02*
X104523257Y-148701581D01*
X104523257Y-148701581D02*
X104618495Y-148749200D01*
X104618495Y-148749200D02*
X104713733Y-148749200D01*
X104713733Y-148749200D02*
X104856590Y-148701581D01*
X104856590Y-148701581D02*
X105428019Y-148130153D01*
X105428019Y-148130153D02*
X105428019Y-148749200D01*
X105523257Y-148939677D02*
X105523257Y-149701581D01*
X104428019Y-150130153D02*
X104428019Y-150320629D01*
X104428019Y-150320629D02*
X104475638Y-150415867D01*
X104475638Y-150415867D02*
X104570876Y-150511105D01*
X104570876Y-150511105D02*
X104761352Y-150558724D01*
X104761352Y-150558724D02*
X105094685Y-150558724D01*
X105094685Y-150558724D02*
X105285161Y-150511105D01*
X105285161Y-150511105D02*
X105380400Y-150415867D01*
X105380400Y-150415867D02*
X105428019Y-150320629D01*
X105428019Y-150320629D02*
X105428019Y-150130153D01*
X105428019Y-150130153D02*
X105380400Y-150034915D01*
X105380400Y-150034915D02*
X105285161Y-149939677D01*
X105285161Y-149939677D02*
X105094685Y-149892058D01*
X105094685Y-149892058D02*
X104761352Y-149892058D01*
X104761352Y-149892058D02*
X104570876Y-149939677D01*
X104570876Y-149939677D02*
X104475638Y-150034915D01*
X104475638Y-150034915D02*
X104428019Y-150130153D01*
X104761352Y-150987296D02*
X105761352Y-150987296D01*
X104808971Y-150987296D02*
X104761352Y-151082534D01*
X104761352Y-151082534D02*
X104761352Y-151273010D01*
X104761352Y-151273010D02*
X104808971Y-151368248D01*
X104808971Y-151368248D02*
X104856590Y-151415867D01*
X104856590Y-151415867D02*
X104951828Y-151463486D01*
X104951828Y-151463486D02*
X105237542Y-151463486D01*
X105237542Y-151463486D02*
X105332780Y-151415867D01*
X105332780Y-151415867D02*
X105380400Y-151368248D01*
X105380400Y-151368248D02*
X105428019Y-151273010D01*
X105428019Y-151273010D02*
X105428019Y-151082534D01*
X105428019Y-151082534D02*
X105380400Y-150987296D01*
X105380400Y-152273010D02*
X105428019Y-152177772D01*
X105428019Y-152177772D02*
X105428019Y-151987296D01*
X105428019Y-151987296D02*
X105380400Y-151892058D01*
X105380400Y-151892058D02*
X105285161Y-151844439D01*
X105285161Y-151844439D02*
X104904209Y-151844439D01*
X104904209Y-151844439D02*
X104808971Y-151892058D01*
X104808971Y-151892058D02*
X104761352Y-151987296D01*
X104761352Y-151987296D02*
X104761352Y-152177772D01*
X104761352Y-152177772D02*
X104808971Y-152273010D01*
X104808971Y-152273010D02*
X104904209Y-152320629D01*
X104904209Y-152320629D02*
X104999447Y-152320629D01*
X104999447Y-152320629D02*
X105094685Y-151844439D01*
X104761352Y-152749201D02*
X105428019Y-152749201D01*
X104856590Y-152749201D02*
X104808971Y-152796820D01*
X104808971Y-152796820D02*
X104761352Y-152892058D01*
X104761352Y-152892058D02*
X104761352Y-153034915D01*
X104761352Y-153034915D02*
X104808971Y-153130153D01*
X104808971Y-153130153D02*
X104904209Y-153177772D01*
X104904209Y-153177772D02*
X105428019Y-153177772D01*
D10*
%TO.C,J2*%
X77927200Y-220560200D02*
X155905200Y-220560200D01*
X77927200Y-221576200D02*
X77927200Y-220560200D01*
X77927200Y-221830200D02*
X77927200Y-230720200D01*
X77927200Y-230720200D02*
X155905200Y-230720200D01*
X155905200Y-230720200D02*
X156159200Y-230720200D01*
X156159200Y-220560200D02*
X155905200Y-220560200D01*
X156159200Y-230720200D02*
X156159200Y-220560200D01*
%TD*%
M02*
