%TF.GenerationSoftware,KiCad,Pcbnew,6.0.11-2627ca5db0~126~ubuntu22.04.1*%
%TF.CreationDate,2023-05-13T09:43:47-04:00*%
%TF.ProjectId,coleco_original_main_only,636f6c65-636f-45f6-9f72-6967696e616c,DEV*%
%TF.SameCoordinates,Original*%
%TF.FileFunction,Legend,Bot*%
%TF.FilePolarity,Positive*%
%FSLAX46Y46*%
G04 Gerber Fmt 4.6, Leading zero omitted, Abs format (unit mm)*
G04 Created by KiCad (PCBNEW 6.0.11-2627ca5db0~126~ubuntu22.04.1) date 2023-05-13 09:43:47*
%MOMM*%
%LPD*%
G01*
G04 APERTURE LIST*
%ADD10C,0.150000*%
%ADD11C,0.120000*%
G04 APERTURE END LIST*
D10*
%TO.C,JP2*%
X121372380Y-141545666D02*
X122086666Y-141545666D01*
X122229523Y-141498047D01*
X122324761Y-141402809D01*
X122372380Y-141259952D01*
X122372380Y-141164714D01*
X122372380Y-142021857D02*
X121372380Y-142021857D01*
X121372380Y-142402809D01*
X121420000Y-142498047D01*
X121467619Y-142545666D01*
X121562857Y-142593285D01*
X121705714Y-142593285D01*
X121800952Y-142545666D01*
X121848571Y-142498047D01*
X121896190Y-142402809D01*
X121896190Y-142021857D01*
X121467619Y-142974238D02*
X121420000Y-143021857D01*
X121372380Y-143117095D01*
X121372380Y-143355190D01*
X121420000Y-143450428D01*
X121467619Y-143498047D01*
X121562857Y-143545666D01*
X121658095Y-143545666D01*
X121800952Y-143498047D01*
X122372380Y-142926619D01*
X122372380Y-143545666D01*
%TO.C,JP1*%
X100036380Y-144085666D02*
X100750666Y-144085666D01*
X100893523Y-144038047D01*
X100988761Y-143942809D01*
X101036380Y-143799952D01*
X101036380Y-143704714D01*
X101036380Y-144561857D02*
X100036380Y-144561857D01*
X100036380Y-144942809D01*
X100084000Y-145038047D01*
X100131619Y-145085666D01*
X100226857Y-145133285D01*
X100369714Y-145133285D01*
X100464952Y-145085666D01*
X100512571Y-145038047D01*
X100560190Y-144942809D01*
X100560190Y-144561857D01*
X101036380Y-146085666D02*
X101036380Y-145514238D01*
X101036380Y-145799952D02*
X100036380Y-145799952D01*
X100179238Y-145704714D01*
X100274476Y-145609476D01*
X100322095Y-145514238D01*
D11*
%TO.C,JP2*%
X120888000Y-140601000D02*
X118888000Y-140601000D01*
X120888000Y-143649000D02*
X120888000Y-140601000D01*
X118888000Y-140601000D02*
X118888000Y-143649000D01*
X118888000Y-143649000D02*
X120888000Y-143649000D01*
%TO.C,JP1*%
X101870000Y-143395000D02*
X101870000Y-146443000D01*
X103870000Y-143395000D02*
X101870000Y-143395000D01*
X103870000Y-146443000D02*
X103870000Y-143395000D01*
X101870000Y-146443000D02*
X103870000Y-146443000D01*
%TD*%
M02*
