%TF.GenerationSoftware,KiCad,Pcbnew,7.0.11-7.0.11~ubuntu22.04.1*%
%TF.CreationDate,2024-12-01T20:45:21-05:00*%
%TF.ProjectId,coleco_original_main_only,636f6c65-636f-45f6-9f72-6967696e616c,DEV*%
%TF.SameCoordinates,Original*%
%TF.FileFunction,Profile,NP*%
%FSLAX46Y46*%
G04 Gerber Fmt 4.6, Leading zero omitted, Abs format (unit mm)*
G04 Created by KiCad (PCBNEW 7.0.11-7.0.11~ubuntu22.04.1) date 2024-12-01 20:45:21*
%MOMM*%
%LPD*%
G01*
G04 APERTURE LIST*
%TA.AperFunction,Profile*%
%ADD10C,0.100000*%
%TD*%
G04 APERTURE END LIST*
D10*
X156159200Y-220560200D02*
X156159200Y-217639200D01*
X67259200Y-217893200D02*
X67513200Y-217639200D01*
X66751200Y-230593200D02*
X67259200Y-230085200D01*
X167843200Y-16725200D02*
X95707200Y-16725200D01*
X166573200Y-230085200D02*
X167081200Y-230593200D01*
X23825200Y-230593200D02*
X66751200Y-230593200D01*
X66751200Y-16725200D02*
X23825200Y-16725200D01*
X67513200Y-217639200D02*
X77673200Y-217639200D01*
X169113200Y-22059200D02*
X167843200Y-22059200D01*
X95707200Y-16725200D02*
X95707200Y-23329200D01*
X156413200Y-217385200D02*
X166319200Y-217385200D01*
X167843200Y-22059200D02*
X167843200Y-16725200D01*
X166319200Y-217385200D02*
X166573200Y-217639200D01*
X166573200Y-217639200D02*
X166573200Y-230085200D01*
X192227200Y-16725200D02*
X169113200Y-16725200D01*
X23825200Y-16725200D02*
X23825200Y-230593200D01*
X189179200Y-21551200D02*
X192227200Y-21551200D01*
X66751200Y-23329200D02*
X66751200Y-16725200D01*
X189179200Y-22567200D02*
X189179200Y-21551200D01*
X167081200Y-230593200D02*
X192227200Y-230593200D01*
X169113200Y-16725200D02*
X169113200Y-22059200D01*
X192227200Y-21551200D02*
X192227200Y-16725200D01*
X67259200Y-230085200D02*
X67259200Y-217893200D01*
X192227200Y-230593200D02*
X192227200Y-22567200D01*
X77927200Y-217893200D02*
X77927200Y-220560200D01*
X24255866Y-231829200D02*
G75*
G03*
X20922534Y-231829200I-1666666J0D01*
G01*
X20922534Y-231829200D02*
G75*
G03*
X24255866Y-231829200I1666666J0D01*
G01*
X20089200Y-231829200D02*
X25089200Y-231829200D01*
X22589200Y-229329200D02*
X22589200Y-234329200D01*
X156159200Y-217639200D02*
X156413200Y-217385200D01*
X192227200Y-22567200D02*
X189179200Y-22567200D01*
X77673200Y-217639200D02*
X77927200Y-217893200D01*
X95707200Y-23329200D02*
X66751200Y-23329200D01*
%TO.C,J2*%
X77927200Y-229958200D02*
X77927200Y-220560200D01*
X78435200Y-230720200D02*
X77927200Y-229958200D01*
X155651200Y-230720200D02*
X78435200Y-230720200D01*
X156159200Y-220560200D02*
X156159200Y-229958200D01*
X156159200Y-229958200D02*
X155651200Y-230720200D01*
%TD*%
M02*
