%TF.GenerationSoftware,KiCad,Pcbnew,6.0.11-2627ca5db0~126~ubuntu22.04.1*%
%TF.CreationDate,2023-05-22T21:48:10-04:00*%
%TF.ProjectId,coleco_original_main_only,636f6c65-636f-45f6-9f72-6967696e616c,DEV*%
%TF.SameCoordinates,Original*%
%TF.FileFunction,Other,User*%
%FSLAX46Y46*%
G04 Gerber Fmt 4.6, Leading zero omitted, Abs format (unit mm)*
G04 Created by KiCad (PCBNEW 6.0.11-2627ca5db0~126~ubuntu22.04.1) date 2023-05-22 21:48:10*
%MOMM*%
%LPD*%
G01*
G04 APERTURE LIST*
%ADD10C,0.800000*%
G04 APERTURE END LIST*
D10*
X165354000Y-218579000D02*
X165354000Y-230517000D01*
X165354000Y-230517000D02*
X165354000Y-230771000D01*
X167640000Y-22237000D02*
X167640000Y-17157000D01*
X67056000Y-231025000D02*
X67056000Y-218833000D01*
X67056000Y-218833000D02*
X76708000Y-218833000D01*
X66548000Y-16903000D02*
X22606000Y-16903000D01*
X155956000Y-230771000D02*
X155956000Y-218579000D01*
X94488000Y-23473000D02*
X66548000Y-23473000D01*
X76708000Y-218833000D02*
X76708000Y-230771000D01*
X76708000Y-230517000D02*
X76708000Y-230771000D01*
X190280000Y-16903000D02*
X167640000Y-16903000D01*
X66548000Y-23473000D02*
X66548000Y-16903000D01*
X66294000Y-231787000D02*
X67056000Y-231025000D01*
X155956000Y-218579000D02*
X165354000Y-218579000D01*
X94488000Y-16903000D02*
X94488000Y-23473000D01*
X167896470Y-17157000D02*
X167894000Y-22237000D01*
X192024000Y-22745000D02*
X192024000Y-16903000D01*
X154974000Y-231753000D02*
X155956000Y-230771000D01*
X165354000Y-230771000D02*
X166370000Y-231787000D01*
X192024000Y-22745000D02*
X188976000Y-22745000D01*
X166370000Y-231787000D02*
X192024000Y-231787000D01*
X22606000Y-16903000D02*
X22640000Y-230229000D01*
X22606000Y-231787000D02*
X66294000Y-231787000D01*
X167640000Y-16903000D02*
X94488000Y-16903000D01*
X77758000Y-231753000D02*
X76708000Y-230771000D01*
X192024000Y-231787000D02*
X192024000Y-22745000D01*
X77758000Y-231753000D02*
X154974000Y-231753000D01*
M02*
