%TF.GenerationSoftware,KiCad,Pcbnew,7.0.11-7.0.11~ubuntu22.04.1*%
%TF.CreationDate,2024-10-09T20:20:13-04:00*%
%TF.ProjectId,coleco_original_main_only,636f6c65-636f-45f6-9f72-6967696e616c,DEV*%
%TF.SameCoordinates,Original*%
%TF.FileFunction,Other,User*%
%FSLAX46Y46*%
G04 Gerber Fmt 4.6, Leading zero omitted, Abs format (unit mm)*
G04 Created by KiCad (PCBNEW 7.0.11-7.0.11~ubuntu22.04.1) date 2024-10-09 20:20:13*
%MOMM*%
%LPD*%
G01*
G04 APERTURE LIST*
%ADD10C,0.050000*%
%ADD11C,0.100000*%
G04 APERTURE END LIST*
D10*
%TO.C,C46*%
X40362000Y-164537000D02*
X37362000Y-164537000D01*
X37362000Y-164537000D02*
X37362000Y-172037000D01*
X40362000Y-172037000D02*
X40362000Y-164537000D01*
X37362000Y-172037000D02*
X40362000Y-172037000D01*
%TO.C,CR1*%
X59964000Y-179751000D02*
X62464000Y-179751000D01*
X62464000Y-179751000D02*
X62464000Y-167491000D01*
X59964000Y-167491000D02*
X59964000Y-179751000D01*
X62464000Y-167491000D02*
X59964000Y-167491000D01*
%TO.C,R23*%
X75160000Y-135741000D02*
X72160000Y-135741000D01*
X72160000Y-135741000D02*
X72160000Y-148001000D01*
X75160000Y-148001000D02*
X75160000Y-135741000D01*
X72160000Y-148001000D02*
X75160000Y-148001000D01*
%TO.C,U1*%
X141753000Y-184333000D02*
X90403000Y-184333000D01*
X90403000Y-184333000D02*
X90403000Y-202533000D01*
X141753000Y-202533000D02*
X141753000Y-184333000D01*
X90403000Y-202533000D02*
X141753000Y-202533000D01*
%TO.C,C92*%
X171764000Y-156119000D02*
X171764000Y-159119000D01*
X171764000Y-159119000D02*
X179264000Y-159119000D01*
X179264000Y-156119000D02*
X171764000Y-156119000D01*
X179264000Y-159119000D02*
X179264000Y-156119000D01*
%TO.C,C103*%
X87860000Y-150821000D02*
X84860000Y-150821000D01*
X84860000Y-150821000D02*
X84860000Y-158321000D01*
X87860000Y-158321000D02*
X87860000Y-150821000D01*
X84860000Y-158321000D02*
X87860000Y-158321000D01*
%TO.C,R39*%
X159478000Y-135037000D02*
X159478000Y-138037000D01*
X159478000Y-138037000D02*
X171738000Y-138037000D01*
X171738000Y-135037000D02*
X159478000Y-135037000D01*
X171738000Y-138037000D02*
X171738000Y-135037000D01*
%TO.C,C49*%
X56872000Y-195739000D02*
X53872000Y-195739000D01*
X53872000Y-195739000D02*
X53872000Y-203239000D01*
X56872000Y-203239000D02*
X56872000Y-195739000D01*
X53872000Y-203239000D02*
X56872000Y-203239000D01*
%TO.C,C31*%
X152122000Y-67509000D02*
X149122000Y-67509000D01*
X149122000Y-67509000D02*
X149122000Y-75009000D01*
X152122000Y-75009000D02*
X152122000Y-67509000D01*
X149122000Y-75009000D02*
X152122000Y-75009000D01*
%TO.C,H14*%
X106324000Y-67669000D02*
G75*
G03*
X102024000Y-67669000I-2150000J0D01*
G01*
X102024000Y-67669000D02*
G75*
G03*
X106324000Y-67669000I2150000J0D01*
G01*
%TO.C,R13*%
X166082000Y-138085000D02*
X166082000Y-141085000D01*
X166082000Y-141085000D02*
X178342000Y-141085000D01*
X178342000Y-138085000D02*
X166082000Y-138085000D01*
X178342000Y-141085000D02*
X178342000Y-138085000D01*
%TO.C,C90*%
X160882000Y-152563000D02*
X160882000Y-155563000D01*
X160882000Y-155563000D02*
X168382000Y-155563000D01*
X168382000Y-152563000D02*
X160882000Y-152563000D01*
X168382000Y-155563000D02*
X168382000Y-152563000D01*
%TO.C,Q4*%
X77464000Y-83203000D02*
X71904000Y-83203000D01*
X77464000Y-83203000D02*
X77464000Y-90303000D01*
X71904000Y-90303000D02*
X71904000Y-83203000D01*
X71904000Y-90303000D02*
X77464000Y-90303000D01*
%TO.C,C1*%
X180062000Y-172157000D02*
X177062000Y-172157000D01*
X177062000Y-172157000D02*
X177062000Y-179657000D01*
X180062000Y-179657000D02*
X180062000Y-172157000D01*
X177062000Y-179657000D02*
X180062000Y-179657000D01*
%TO.C,C91*%
X160842000Y-156119000D02*
X160842000Y-159119000D01*
X160842000Y-159119000D02*
X168342000Y-159119000D01*
X168342000Y-156119000D02*
X160842000Y-156119000D01*
X168342000Y-159119000D02*
X168342000Y-156119000D01*
%TO.C,C65*%
X58360000Y-153277000D02*
X58360000Y-150277000D01*
X58360000Y-150277000D02*
X50860000Y-150277000D01*
X50860000Y-153277000D02*
X58360000Y-153277000D01*
X50860000Y-150277000D02*
X50860000Y-153277000D01*
%TO.C,U2*%
X125238000Y-121512000D02*
X89138000Y-121512000D01*
X89138000Y-121512000D02*
X89138000Y-138862000D01*
X125238000Y-138862000D02*
X125238000Y-121512000D01*
X89138000Y-138862000D02*
X125238000Y-138862000D01*
%TO.C,C8*%
X64492000Y-184603000D02*
X61492000Y-184603000D01*
X61492000Y-184603000D02*
X61492000Y-192103000D01*
X64492000Y-192103000D02*
X64492000Y-184603000D01*
X61492000Y-192103000D02*
X64492000Y-192103000D01*
%TO.C,L17*%
X178156000Y-134973000D02*
X178156000Y-129973000D01*
X178156000Y-129973000D02*
X166776000Y-129973000D01*
X166776000Y-134973000D02*
X178156000Y-134973000D01*
X166776000Y-129973000D02*
X166776000Y-134973000D01*
%TO.C,J5*%
X37112331Y-35751000D02*
X17312331Y-35751000D01*
X17312331Y-35751000D02*
X17312331Y-67651000D01*
X37112331Y-67651000D02*
X37112331Y-35751000D01*
X17312331Y-67651000D02*
X37112331Y-67651000D01*
%TO.C,C36*%
X101786000Y-83273094D02*
G75*
G03*
X93286000Y-83273094I-4250000J0D01*
G01*
X93286000Y-83273094D02*
G75*
G03*
X101786000Y-83273094I4250000J0D01*
G01*
%TO.C,UR25*%
X38482000Y-82621000D02*
X41782000Y-82621000D01*
X41782000Y-82621000D02*
X41782000Y-61421000D01*
X38482000Y-61421000D02*
X38482000Y-82621000D01*
X41782000Y-61421000D02*
X38482000Y-61421000D01*
%TO.C,C48*%
X40362000Y-174189000D02*
X37362000Y-174189000D01*
X37362000Y-174189000D02*
X37362000Y-181689000D01*
X40362000Y-181689000D02*
X40362000Y-174189000D01*
X37362000Y-181689000D02*
X40362000Y-181689000D01*
%TO.C,R8*%
X164060000Y-195685000D02*
X161060000Y-195685000D01*
X161060000Y-195685000D02*
X161060000Y-207945000D01*
X164060000Y-207945000D02*
X164060000Y-195685000D01*
X161060000Y-207945000D02*
X164060000Y-207945000D01*
%TO.C,R67*%
X29742000Y-82469000D02*
X32742000Y-82469000D01*
X32742000Y-82469000D02*
X32742000Y-70209000D01*
X29742000Y-70209000D02*
X29742000Y-82469000D01*
X32742000Y-70209000D02*
X29742000Y-70209000D01*
%TO.C,R34*%
X72668000Y-105583000D02*
X75668000Y-105583000D01*
X75668000Y-105583000D02*
X75668000Y-93323000D01*
X72668000Y-93323000D02*
X72668000Y-105583000D01*
X75668000Y-93323000D02*
X72668000Y-93323000D01*
%TO.C,C4*%
X169184000Y-141133000D02*
X169184000Y-144133000D01*
X169184000Y-144133000D02*
X176684000Y-144133000D01*
X176684000Y-141133000D02*
X169184000Y-141133000D01*
X176684000Y-144133000D02*
X176684000Y-141133000D01*
%TO.C,C11*%
X181634000Y-190833000D02*
X184634000Y-190833000D01*
X184634000Y-190833000D02*
X184634000Y-183333000D01*
X181634000Y-183333000D02*
X181634000Y-190833000D01*
X184634000Y-183333000D02*
X181634000Y-183333000D01*
%TO.C,C50*%
X56872000Y-178213000D02*
X53872000Y-178213000D01*
X53872000Y-178213000D02*
X53872000Y-185713000D01*
X56872000Y-185713000D02*
X56872000Y-178213000D01*
X53872000Y-185713000D02*
X56872000Y-185713000D01*
%TO.C,R48*%
X61976000Y-66931000D02*
X61976000Y-69931000D01*
X61976000Y-69931000D02*
X74236000Y-69931000D01*
X74236000Y-66931000D02*
X61976000Y-66931000D01*
X74236000Y-69931000D02*
X74236000Y-66931000D01*
%TO.C,R35*%
X156996000Y-192451000D02*
X159996000Y-192451000D01*
X159996000Y-192451000D02*
X159996000Y-180191000D01*
X156996000Y-180191000D02*
X156996000Y-192451000D01*
X159996000Y-180191000D02*
X156996000Y-180191000D01*
%TO.C,C100*%
X93532000Y-38517000D02*
X93532000Y-41517000D01*
X93532000Y-41517000D02*
X101032000Y-41517000D01*
X101032000Y-38517000D02*
X93532000Y-38517000D01*
X101032000Y-41517000D02*
X101032000Y-38517000D01*
%TO.C,C40*%
X120880000Y-69795000D02*
X117880000Y-69795000D01*
X117880000Y-69795000D02*
X117880000Y-77295000D01*
X120880000Y-77295000D02*
X120880000Y-69795000D01*
X117880000Y-77295000D02*
X120880000Y-77295000D01*
%TO.C,R72*%
X64238000Y-94593000D02*
X61238000Y-94593000D01*
X61238000Y-94593000D02*
X61238000Y-106853000D01*
X64238000Y-106853000D02*
X64238000Y-94593000D01*
X61238000Y-106853000D02*
X64238000Y-106853000D01*
%TO.C,U24*%
X70384000Y-155915000D02*
X52034000Y-155915000D01*
X52034000Y-155915000D02*
X52034000Y-166465000D01*
X70384000Y-166465000D02*
X70384000Y-155915000D01*
X52034000Y-166465000D02*
X70384000Y-166465000D01*
%TO.C,U7*%
X180112000Y-181823000D02*
X161762000Y-181823000D01*
X161762000Y-181823000D02*
X161762000Y-192373000D01*
X180112000Y-192373000D02*
X180112000Y-181823000D01*
X161762000Y-192373000D02*
X180112000Y-192373000D01*
%TO.C,U6*%
X175017000Y-119324000D02*
X154167000Y-119324000D01*
X154167000Y-119324000D02*
X154167000Y-129874000D01*
X175017000Y-129874000D02*
X175017000Y-119324000D01*
X154167000Y-129874000D02*
X175017000Y-129874000D01*
%TO.C,C2*%
X82784000Y-200013000D02*
X82784000Y-197013000D01*
X82784000Y-197013000D02*
X75284000Y-197013000D01*
X75284000Y-200013000D02*
X82784000Y-200013000D01*
X75284000Y-197013000D02*
X75284000Y-200013000D01*
%TO.C,L9*%
X141072000Y-37183000D02*
X141072000Y-32183000D01*
X141072000Y-32183000D02*
X129692000Y-32183000D01*
X129692000Y-37183000D02*
X141072000Y-37183000D01*
X129692000Y-32183000D02*
X129692000Y-37183000D01*
%TO.C,H5*%
X121608000Y-158601000D02*
G75*
G03*
X110108000Y-158601000I-5750000J0D01*
G01*
X110108000Y-158601000D02*
G75*
G03*
X121608000Y-158601000I5750000J0D01*
G01*
%TO.C,C60*%
X79816000Y-80935000D02*
X79816000Y-83935000D01*
X79816000Y-83935000D02*
X87316000Y-83935000D01*
X87316000Y-80935000D02*
X79816000Y-80935000D01*
X87316000Y-83935000D02*
X87316000Y-80935000D01*
%TO.C,R14*%
X80298000Y-209157000D02*
X80298000Y-206157000D01*
X80298000Y-206157000D02*
X68038000Y-206157000D01*
X68038000Y-209157000D02*
X80298000Y-209157000D01*
X68038000Y-206157000D02*
X68038000Y-209157000D01*
%TO.C,R49*%
X74202000Y-73013000D02*
X74202000Y-70013000D01*
X74202000Y-70013000D02*
X61942000Y-70013000D01*
X61942000Y-73013000D02*
X74202000Y-73013000D01*
X61942000Y-70013000D02*
X61942000Y-73013000D01*
%TO.C,U22*%
X182403000Y-159456000D02*
X164053000Y-159456000D01*
X164053000Y-159456000D02*
X164053000Y-170006000D01*
X182403000Y-170006000D02*
X182403000Y-159456000D01*
X164053000Y-170006000D02*
X182403000Y-170006000D01*
%TO.C,C26*%
X180316000Y-57603000D02*
X177316000Y-57603000D01*
X177316000Y-57603000D02*
X177316000Y-65103000D01*
X180316000Y-65103000D02*
X180316000Y-57603000D01*
X177316000Y-65103000D02*
X180316000Y-65103000D01*
%TO.C,R19*%
X71858000Y-93323000D02*
X68858000Y-93323000D01*
X68858000Y-93323000D02*
X68858000Y-105583000D01*
X71858000Y-105583000D02*
X71858000Y-93323000D01*
X68858000Y-105583000D02*
X71858000Y-105583000D01*
%TO.C,L5*%
X47142000Y-203165000D02*
X53442000Y-203165000D01*
X53442000Y-203165000D02*
X53442000Y-175065000D01*
X47142000Y-175065000D02*
X47142000Y-203165000D01*
X53442000Y-175065000D02*
X47142000Y-175065000D01*
%TO.C,R25*%
X72668000Y-129713000D02*
X75668000Y-129713000D01*
X75668000Y-129713000D02*
X75668000Y-117453000D01*
X72668000Y-117453000D02*
X72668000Y-129713000D01*
X75668000Y-117453000D02*
X72668000Y-117453000D01*
%TO.C,C32*%
X120880000Y-44903000D02*
X117880000Y-44903000D01*
X117880000Y-44903000D02*
X117880000Y-52403000D01*
X120880000Y-52403000D02*
X120880000Y-44903000D01*
X117880000Y-52403000D02*
X120880000Y-52403000D01*
%TO.C,H13*%
X54584000Y-71733000D02*
G75*
G03*
X47084000Y-71733000I-3750000J0D01*
G01*
X47084000Y-71733000D02*
G75*
G03*
X54584000Y-71733000I3750000J0D01*
G01*
%TO.C,C28*%
X152122000Y-55063000D02*
X149122000Y-55063000D01*
X149122000Y-55063000D02*
X149122000Y-62563000D01*
X152122000Y-62563000D02*
X152122000Y-55063000D01*
X149122000Y-62563000D02*
X152122000Y-62563000D01*
%TO.C,R12*%
X76234000Y-204077000D02*
X76234000Y-201077000D01*
X76234000Y-201077000D02*
X63974000Y-201077000D01*
X63974000Y-204077000D02*
X76234000Y-204077000D01*
X63974000Y-201077000D02*
X63974000Y-204077000D01*
%TO.C,C64*%
X79018000Y-40211000D02*
X82018000Y-40211000D01*
X82018000Y-40211000D02*
X82018000Y-32711000D01*
X79018000Y-32711000D02*
X79018000Y-40211000D01*
X82018000Y-32711000D02*
X79018000Y-32711000D01*
%TO.C,C37*%
X120880000Y-57309000D02*
X117880000Y-57309000D01*
X117880000Y-57309000D02*
X117880000Y-64809000D01*
X120880000Y-64809000D02*
X120880000Y-57309000D01*
X117880000Y-64809000D02*
X120880000Y-64809000D01*
%TO.C,H1*%
X57312000Y-213499000D02*
G75*
G03*
X45812000Y-213499000I-5750000J0D01*
G01*
X45812000Y-213499000D02*
G75*
G03*
X57312000Y-213499000I5750000J0D01*
G01*
%TO.C,L2*%
X97942000Y-90603000D02*
X97942000Y-95603000D01*
X97942000Y-95603000D02*
X109322000Y-95603000D01*
X109322000Y-90603000D02*
X97942000Y-90603000D01*
X109322000Y-95603000D02*
X109322000Y-90603000D01*
%TO.C,C87*%
X111551774Y-58051000D02*
G75*
G03*
X106051774Y-58051000I-2750000J0D01*
G01*
X106051774Y-58051000D02*
G75*
G03*
X111551774Y-58051000I2750000J0D01*
G01*
%TO.C,R62*%
X160504000Y-148441000D02*
X157504000Y-148441000D01*
X157504000Y-148441000D02*
X157504000Y-160701000D01*
X160504000Y-160701000D02*
X160504000Y-148441000D01*
X157504000Y-160701000D02*
X160504000Y-160701000D01*
%TO.C,Q6*%
X70626000Y-37725000D02*
X76186000Y-37725000D01*
X70626000Y-37725000D02*
X70626000Y-30625000D01*
X76186000Y-30625000D02*
X76186000Y-37725000D01*
X76186000Y-30625000D02*
X70626000Y-30625000D01*
%TO.C,R75*%
X175802000Y-178677000D02*
X175802000Y-175677000D01*
X175802000Y-175677000D02*
X163542000Y-175677000D01*
X163542000Y-178677000D02*
X175802000Y-178677000D01*
X163542000Y-175677000D02*
X163542000Y-178677000D01*
%TO.C,J6*%
X37112331Y-126683000D02*
X17312331Y-126683000D01*
X17312331Y-126683000D02*
X17312331Y-158583000D01*
X37112331Y-158583000D02*
X37112331Y-126683000D01*
X17312331Y-158583000D02*
X37112331Y-158583000D01*
%TO.C,R26*%
X132368000Y-214745000D02*
X132368000Y-211745000D01*
X132368000Y-211745000D02*
X120108000Y-211745000D01*
X120108000Y-214745000D02*
X132368000Y-214745000D01*
X120108000Y-211745000D02*
X120108000Y-214745000D01*
%TO.C,C102*%
X69318000Y-82709000D02*
X66318000Y-82709000D01*
X66318000Y-82709000D02*
X66318000Y-90209000D01*
X69318000Y-90209000D02*
X69318000Y-82709000D01*
X66318000Y-90209000D02*
X69318000Y-90209000D01*
%TO.C,L3*%
X109372000Y-90603000D02*
X109372000Y-95603000D01*
X109372000Y-95603000D02*
X120752000Y-95603000D01*
X120752000Y-90603000D02*
X109372000Y-90603000D01*
X120752000Y-95603000D02*
X120752000Y-90603000D01*
%TO.C,U8*%
X151669000Y-150312000D02*
X133319000Y-150312000D01*
X133319000Y-150312000D02*
X133319000Y-160862000D01*
X151669000Y-160862000D02*
X151669000Y-150312000D01*
X133319000Y-160862000D02*
X151669000Y-160862000D01*
%TO.C,R55*%
X59460000Y-58593000D02*
X62460000Y-58593000D01*
X62460000Y-58593000D02*
X62460000Y-46333000D01*
X59460000Y-46333000D02*
X59460000Y-58593000D01*
X62460000Y-46333000D02*
X59460000Y-46333000D01*
%TO.C,R43*%
X70334000Y-28807000D02*
X67334000Y-28807000D01*
X67334000Y-28807000D02*
X67334000Y-41067000D01*
X70334000Y-41067000D02*
X70334000Y-28807000D01*
X67334000Y-41067000D02*
X70334000Y-41067000D01*
%TO.C,C34*%
X110422000Y-85571423D02*
G75*
G03*
X101922000Y-85571423I-4250000J0D01*
G01*
X101922000Y-85571423D02*
G75*
G03*
X110422000Y-85571423I4250000J0D01*
G01*
%TO.C,WJ3*%
X83542000Y-85449000D02*
X80542000Y-85449000D01*
X80542000Y-85449000D02*
X80542000Y-102789000D01*
X83542000Y-102789000D02*
X83542000Y-85449000D01*
X80542000Y-102789000D02*
X83542000Y-102789000D01*
%TO.C,R60*%
X177824000Y-129713000D02*
X180824000Y-129713000D01*
X180824000Y-129713000D02*
X180824000Y-117453000D01*
X177824000Y-117453000D02*
X177824000Y-129713000D01*
X180824000Y-117453000D02*
X177824000Y-117453000D01*
%TO.C,C24*%
X147804000Y-57857000D02*
X144804000Y-57857000D01*
X144804000Y-57857000D02*
X144804000Y-65357000D01*
X147804000Y-65357000D02*
X147804000Y-57857000D01*
X144804000Y-65357000D02*
X147804000Y-65357000D01*
%TO.C,R71*%
X79986000Y-133709000D02*
X76986000Y-133709000D01*
X76986000Y-133709000D02*
X76986000Y-145969000D01*
X79986000Y-145969000D02*
X79986000Y-133709000D01*
X76986000Y-145969000D02*
X79986000Y-145969000D01*
%TO.C,U4*%
X152670000Y-134310000D02*
X129270000Y-134310000D01*
X129270000Y-134310000D02*
X129270000Y-144860000D01*
X152670000Y-144860000D02*
X152670000Y-134310000D01*
X129270000Y-144860000D02*
X152670000Y-144860000D01*
%TO.C,R17*%
X153440000Y-198039000D02*
X156440000Y-198039000D01*
X156440000Y-198039000D02*
X156440000Y-185779000D01*
X153440000Y-185779000D02*
X153440000Y-198039000D01*
X156440000Y-185779000D02*
X153440000Y-185779000D01*
%TO.C,C22*%
X152122000Y-42577000D02*
X149122000Y-42577000D01*
X149122000Y-42577000D02*
X149122000Y-50077000D01*
X152122000Y-50077000D02*
X152122000Y-42577000D01*
X149122000Y-50077000D02*
X152122000Y-50077000D01*
%TO.C,R69*%
X65048000Y-105583000D02*
X68048000Y-105583000D01*
X68048000Y-105583000D02*
X68048000Y-93323000D01*
X65048000Y-93323000D02*
X65048000Y-105583000D01*
X68048000Y-93323000D02*
X65048000Y-93323000D01*
%TO.C,C68*%
X79374698Y-42557000D02*
G75*
G03*
X70874698Y-42557000I-4250000J0D01*
G01*
X70874698Y-42557000D02*
G75*
G03*
X79374698Y-42557000I4250000J0D01*
G01*
%TO.C,C29*%
X180316000Y-70049000D02*
X177316000Y-70049000D01*
X177316000Y-70049000D02*
X177316000Y-77549000D01*
X180316000Y-77549000D02*
X180316000Y-70049000D01*
X177316000Y-77549000D02*
X180316000Y-77549000D01*
%TO.C,C42*%
X114324000Y-89741000D02*
X117324000Y-89741000D01*
X117324000Y-89741000D02*
X117324000Y-82241000D01*
X114324000Y-82241000D02*
X114324000Y-89741000D01*
X117324000Y-82241000D02*
X114324000Y-82241000D01*
%TO.C,U20*%
X93207000Y-114888000D02*
X114057000Y-114888000D01*
X114057000Y-114888000D02*
X114057000Y-104338000D01*
X93207000Y-104338000D02*
X93207000Y-114888000D01*
X114057000Y-104338000D02*
X93207000Y-104338000D01*
%TO.C,R22*%
X68048000Y-117453000D02*
X65048000Y-117453000D01*
X65048000Y-117453000D02*
X65048000Y-129713000D01*
X68048000Y-129713000D02*
X68048000Y-117453000D01*
X65048000Y-129713000D02*
X68048000Y-129713000D01*
%TO.C,U3*%
X152670000Y-120848000D02*
X129270000Y-120848000D01*
X129270000Y-120848000D02*
X129270000Y-131398000D01*
X152670000Y-131398000D02*
X152670000Y-120848000D01*
X129270000Y-131398000D02*
X152670000Y-131398000D01*
%TO.C,U19*%
X55398000Y-83271000D02*
X29448000Y-83271000D01*
X29448000Y-83271000D02*
X29448000Y-93821000D01*
X55398000Y-93821000D02*
X55398000Y-83271000D01*
X29448000Y-93821000D02*
X55398000Y-93821000D01*
%TO.C,Y1*%
X175910000Y-175659000D02*
X175910000Y-170059000D01*
X175910000Y-170059000D02*
X164010000Y-170059000D01*
X164010000Y-175659000D02*
X175910000Y-175659000D01*
X164010000Y-170059000D02*
X164010000Y-175659000D01*
%TO.C,C41*%
X113514000Y-82201000D02*
X110514000Y-82201000D01*
X110514000Y-82201000D02*
X110514000Y-89701000D01*
X113514000Y-89701000D02*
X113514000Y-82201000D01*
X110514000Y-89701000D02*
X113514000Y-89701000D01*
%TO.C,R5*%
X164592000Y-178725000D02*
X164592000Y-181725000D01*
X164592000Y-181725000D02*
X176852000Y-181725000D01*
X176852000Y-178725000D02*
X164592000Y-178725000D01*
X176852000Y-181725000D02*
X176852000Y-178725000D01*
%TO.C,R79*%
X75726000Y-61583000D02*
X75726000Y-58583000D01*
X75726000Y-58583000D02*
X63466000Y-58583000D01*
X63466000Y-61583000D02*
X75726000Y-61583000D01*
X63466000Y-58583000D02*
X63466000Y-61583000D01*
%TO.C,C21*%
X147550000Y-45371000D02*
X144550000Y-45371000D01*
X144550000Y-45371000D02*
X144550000Y-52871000D01*
X147550000Y-52871000D02*
X147550000Y-45371000D01*
X144550000Y-52871000D02*
X147550000Y-52871000D01*
%TO.C,C99*%
X56872000Y-139351000D02*
X53872000Y-139351000D01*
X53872000Y-139351000D02*
X53872000Y-146851000D01*
X56872000Y-146851000D02*
X56872000Y-139351000D01*
X53872000Y-146851000D02*
X56872000Y-146851000D01*
%TO.C,C13*%
X158218000Y-137359000D02*
X155218000Y-137359000D01*
X155218000Y-137359000D02*
X155218000Y-144859000D01*
X158218000Y-144859000D02*
X158218000Y-137359000D01*
X155218000Y-144859000D02*
X158218000Y-144859000D01*
%TO.C,C57*%
X107212000Y-53419000D02*
X110212000Y-53419000D01*
X110212000Y-53419000D02*
X110212000Y-45919000D01*
X107212000Y-45919000D02*
X107212000Y-53419000D01*
X110212000Y-45919000D02*
X107212000Y-45919000D01*
%TO.C,Q3*%
X82282000Y-59581000D02*
X76722000Y-59581000D01*
X82282000Y-59581000D02*
X82282000Y-66681000D01*
X76722000Y-66681000D02*
X76722000Y-59581000D01*
X76722000Y-66681000D02*
X82282000Y-66681000D01*
%TO.C,C30*%
X147838000Y-82709000D02*
X144838000Y-82709000D01*
X144838000Y-82709000D02*
X144838000Y-90209000D01*
X147838000Y-90209000D02*
X147838000Y-82709000D01*
X144838000Y-90209000D02*
X147838000Y-90209000D01*
%TO.C,R10*%
X156996000Y-207945000D02*
X159996000Y-207945000D01*
X159996000Y-207945000D02*
X159996000Y-195685000D01*
X156996000Y-195685000D02*
X156996000Y-207945000D01*
X159996000Y-195685000D02*
X156996000Y-195685000D01*
%TO.C,R15*%
X152122000Y-186795000D02*
X149122000Y-186795000D01*
X149122000Y-186795000D02*
X149122000Y-199055000D01*
X152122000Y-199055000D02*
X152122000Y-186795000D01*
X149122000Y-199055000D02*
X152122000Y-199055000D01*
%TO.C,R76*%
X87860000Y-45571000D02*
X84860000Y-45571000D01*
X84860000Y-45571000D02*
X84860000Y-57831000D01*
X87860000Y-57831000D02*
X87860000Y-45571000D01*
X84860000Y-57831000D02*
X87860000Y-57831000D01*
%TO.C,R21*%
X68858000Y-129713000D02*
X71858000Y-129713000D01*
X71858000Y-129713000D02*
X71858000Y-117453000D01*
X68858000Y-117453000D02*
X68858000Y-129713000D01*
X71858000Y-117453000D02*
X68858000Y-117453000D01*
%TO.C,C70*%
X163044000Y-166783000D02*
X160044000Y-166783000D01*
X160044000Y-166783000D02*
X160044000Y-174283000D01*
X163044000Y-174283000D02*
X163044000Y-166783000D01*
X160044000Y-174283000D02*
X163044000Y-174283000D01*
%TO.C,H15*%
X106324000Y-41761000D02*
G75*
G03*
X102024000Y-41761000I-2150000J0D01*
G01*
X102024000Y-41761000D02*
G75*
G03*
X106324000Y-41761000I2150000J0D01*
G01*
%TO.C,UR26*%
X53262000Y-121677000D02*
X53262000Y-118377000D01*
X53262000Y-118377000D02*
X32062000Y-118377000D01*
X32062000Y-121677000D02*
X53262000Y-121677000D01*
X32062000Y-118377000D02*
X32062000Y-121677000D01*
%TO.C,U23*%
X82835000Y-47188000D02*
X64485000Y-47188000D01*
X64485000Y-47188000D02*
X64485000Y-57738000D01*
X82835000Y-57738000D02*
X82835000Y-47188000D01*
X64485000Y-57738000D02*
X82835000Y-57738000D01*
%TO.C,U18*%
X29438000Y-116651000D02*
X55388000Y-116651000D01*
X55388000Y-116651000D02*
X55388000Y-106101000D01*
X29438000Y-106101000D02*
X29438000Y-116651000D01*
X55388000Y-106101000D02*
X29438000Y-106101000D01*
%TO.C,U10*%
X175301000Y-54813000D02*
X154451000Y-54813000D01*
X154451000Y-54813000D02*
X154451000Y-65363000D01*
X175301000Y-65363000D02*
X175301000Y-54813000D01*
X154451000Y-65363000D02*
X175301000Y-65363000D01*
%TO.C,H2*%
X43088000Y-29603000D02*
G75*
G03*
X31588000Y-29603000I-5750000J0D01*
G01*
X31588000Y-29603000D02*
G75*
G03*
X43088000Y-29603000I5750000J0D01*
G01*
%TO.C,J0*%
X34207000Y-164763000D02*
X23197000Y-164763000D01*
X23197000Y-164763000D02*
X23197000Y-181463000D01*
X34207000Y-181463000D02*
X34207000Y-164763000D01*
X23197000Y-181463000D02*
X34207000Y-181463000D01*
%TO.C,C10*%
X57682000Y-93297000D02*
X60682000Y-93297000D01*
X60682000Y-93297000D02*
X60682000Y-85797000D01*
X57682000Y-85797000D02*
X57682000Y-93297000D01*
X60682000Y-85797000D02*
X57682000Y-85797000D01*
%TO.C,L14*%
X179934000Y-155801000D02*
X179934000Y-150801000D01*
X179934000Y-150801000D02*
X168554000Y-150801000D01*
X168554000Y-155801000D02*
X179934000Y-155801000D01*
X168554000Y-150801000D02*
X168554000Y-155801000D01*
%TO.C,C104*%
X44728000Y-160861000D02*
X47728000Y-160861000D01*
X47728000Y-160861000D02*
X47728000Y-153361000D01*
X44728000Y-153361000D02*
X44728000Y-160861000D01*
X47728000Y-153361000D02*
X44728000Y-153361000D01*
%TO.C,CR2*%
X67838000Y-150287000D02*
X70338000Y-150287000D01*
X70338000Y-150287000D02*
X70338000Y-138027000D01*
X67838000Y-138027000D02*
X67838000Y-150287000D01*
X70338000Y-138027000D02*
X67838000Y-138027000D01*
%TO.C,C88*%
X129734000Y-29579000D02*
X129734000Y-26579000D01*
X129734000Y-26579000D02*
X122234000Y-26579000D01*
X122234000Y-29579000D02*
X129734000Y-29579000D01*
X122234000Y-26579000D02*
X122234000Y-29579000D01*
%TO.C,R78*%
X185708000Y-198489000D02*
X185708000Y-195489000D01*
X185708000Y-195489000D02*
X173448000Y-195489000D01*
X173448000Y-198489000D02*
X185708000Y-198489000D01*
X173448000Y-195489000D02*
X173448000Y-198489000D01*
%TO.C,U15*%
X143267000Y-42362000D02*
X122417000Y-42362000D01*
X122417000Y-42362000D02*
X122417000Y-52912000D01*
X143267000Y-52912000D02*
X143267000Y-42362000D01*
X122417000Y-52912000D02*
X143267000Y-52912000D01*
%TO.C,R20*%
X61238000Y-129713000D02*
X64238000Y-129713000D01*
X64238000Y-129713000D02*
X64238000Y-117453000D01*
X61238000Y-117453000D02*
X61238000Y-129713000D01*
X64238000Y-117453000D02*
X61238000Y-117453000D01*
%TO.C,R41*%
X99280000Y-71029000D02*
X99280000Y-74029000D01*
X99280000Y-74029000D02*
X111540000Y-74029000D01*
X111540000Y-71029000D02*
X99280000Y-71029000D01*
X111540000Y-74029000D02*
X111540000Y-71029000D01*
%TO.C,WJ2*%
X84352000Y-102789000D02*
X87352000Y-102789000D01*
X87352000Y-102789000D02*
X87352000Y-85449000D01*
X84352000Y-85449000D02*
X84352000Y-102789000D01*
X87352000Y-85449000D02*
X84352000Y-85449000D01*
%TO.C,R1*%
X63524000Y-179751000D02*
X66524000Y-179751000D01*
X66524000Y-179751000D02*
X66524000Y-167491000D01*
X63524000Y-167491000D02*
X63524000Y-179751000D01*
X66524000Y-167491000D02*
X63524000Y-167491000D01*
%TO.C,C12*%
X61952000Y-107681000D02*
X58952000Y-107681000D01*
X58952000Y-107681000D02*
X58952000Y-115181000D01*
X61952000Y-115181000D02*
X61952000Y-107681000D01*
X58952000Y-115181000D02*
X61952000Y-115181000D01*
%TO.C,R11*%
X166844000Y-144181000D02*
X166844000Y-147181000D01*
X166844000Y-147181000D02*
X179104000Y-147181000D01*
X179104000Y-144181000D02*
X166844000Y-144181000D01*
X179104000Y-147181000D02*
X179104000Y-144181000D01*
%TO.C,C23*%
X180316000Y-45157000D02*
X177316000Y-45157000D01*
X177316000Y-45157000D02*
X177316000Y-52657000D01*
X180316000Y-52657000D02*
X180316000Y-45157000D01*
X177316000Y-52657000D02*
X180316000Y-52657000D01*
%TO.C,C17*%
X64870000Y-112431000D02*
X64870000Y-115431000D01*
X64870000Y-115431000D02*
X72370000Y-115431000D01*
X72370000Y-112431000D02*
X64870000Y-112431000D01*
X72370000Y-115431000D02*
X72370000Y-112431000D01*
%TO.C,C44*%
X180316000Y-82495000D02*
X177316000Y-82495000D01*
X177316000Y-82495000D02*
X177316000Y-89995000D01*
X180316000Y-89995000D02*
X180316000Y-82495000D01*
X177316000Y-89995000D02*
X180316000Y-89995000D01*
%TO.C,C89*%
X92432000Y-107387000D02*
X89432000Y-107387000D01*
X89432000Y-107387000D02*
X89432000Y-114887000D01*
X92432000Y-114887000D02*
X92432000Y-107387000D01*
X89432000Y-114887000D02*
X92432000Y-114887000D01*
%TO.C,R18*%
X92686000Y-49127000D02*
X89686000Y-49127000D01*
X89686000Y-49127000D02*
X89686000Y-61387000D01*
X92686000Y-61387000D02*
X92686000Y-49127000D01*
X89686000Y-61387000D02*
X92686000Y-61387000D01*
%TO.C,Q2*%
X160034000Y-148215000D02*
X165594000Y-148215000D01*
X160034000Y-148215000D02*
X160034000Y-141115000D01*
X165594000Y-141115000D02*
X165594000Y-148215000D01*
X165594000Y-141115000D02*
X160034000Y-141115000D01*
%TO.C,R24*%
X67032000Y-135233000D02*
X64032000Y-135233000D01*
X64032000Y-135233000D02*
X64032000Y-147493000D01*
X67032000Y-147493000D02*
X67032000Y-135233000D01*
X64032000Y-147493000D02*
X67032000Y-147493000D01*
%TO.C,C61*%
X58904000Y-167043000D02*
X55904000Y-167043000D01*
X55904000Y-167043000D02*
X55904000Y-174543000D01*
X58904000Y-174543000D02*
X58904000Y-167043000D01*
X55904000Y-174543000D02*
X58904000Y-174543000D01*
%TO.C,C9*%
X132598000Y-153107000D02*
X129598000Y-153107000D01*
X129598000Y-153107000D02*
X129598000Y-160607000D01*
X132598000Y-160607000D02*
X132598000Y-153107000D01*
X129598000Y-160607000D02*
X132598000Y-160607000D01*
%TO.C,C66*%
X88706000Y-44105000D02*
X88706000Y-47105000D01*
X88706000Y-47105000D02*
X96206000Y-47105000D01*
X96206000Y-44105000D02*
X88706000Y-44105000D01*
X96206000Y-47105000D02*
X96206000Y-44105000D01*
%TO.C,C69*%
X67659328Y-62393000D02*
X67659328Y-65393000D01*
X67659328Y-65393000D02*
X75159328Y-65393000D01*
X75159328Y-62393000D02*
X67659328Y-62393000D01*
X75159328Y-65393000D02*
X75159328Y-62393000D01*
%TO.C,U16*%
X143267000Y-79715000D02*
X122417000Y-79715000D01*
X122417000Y-79715000D02*
X122417000Y-90265000D01*
X143267000Y-90265000D02*
X143267000Y-79715000D01*
X122417000Y-90265000D02*
X143267000Y-90265000D01*
%TO.C,U5*%
X85609000Y-184348000D02*
X64759000Y-184348000D01*
X64759000Y-184348000D02*
X64759000Y-194898000D01*
X85609000Y-194898000D02*
X85609000Y-184348000D01*
X64759000Y-194898000D02*
X85609000Y-194898000D01*
%TO.C,WJ1*%
X145762000Y-160945000D02*
X145762000Y-163945000D01*
X145762000Y-163945000D02*
X163102000Y-163945000D01*
X163102000Y-160945000D02*
X145762000Y-160945000D01*
X163102000Y-163945000D02*
X163102000Y-160945000D01*
%TO.C,L8*%
X92670000Y-87667000D02*
X87670000Y-87667000D01*
X87670000Y-87667000D02*
X87670000Y-99047000D01*
X92670000Y-99047000D02*
X92670000Y-87667000D01*
X87670000Y-99047000D02*
X92670000Y-99047000D01*
%TO.C,R16*%
X74144000Y-166949000D02*
X71144000Y-166949000D01*
X71144000Y-166949000D02*
X71144000Y-179209000D01*
X74144000Y-179209000D02*
X74144000Y-166949000D01*
X71144000Y-179209000D02*
X74144000Y-179209000D01*
%TO.C,H4*%
X188918000Y-33125000D02*
G75*
G03*
X177418000Y-33125000I-5750000J0D01*
G01*
X177418000Y-33125000D02*
G75*
G03*
X188918000Y-33125000I5750000J0D01*
G01*
%TO.C,C16*%
X89340000Y-111488349D02*
G75*
G03*
X80840000Y-111488349I-4250000J0D01*
G01*
X80840000Y-111488349D02*
G75*
G03*
X89340000Y-111488349I4250000J0D01*
G01*
%TO.C,C45*%
X152122000Y-79955000D02*
X149122000Y-79955000D01*
X149122000Y-79955000D02*
X149122000Y-87455000D01*
X152122000Y-87455000D02*
X152122000Y-79955000D01*
X149122000Y-87455000D02*
X152122000Y-87455000D01*
%TO.C,R37*%
X58190000Y-193213000D02*
X61190000Y-193213000D01*
X61190000Y-193213000D02*
X61190000Y-180953000D01*
X58190000Y-180953000D02*
X58190000Y-193213000D01*
X61190000Y-180953000D02*
X58190000Y-180953000D01*
%TO.C,L15*%
X97750000Y-87667000D02*
X92750000Y-87667000D01*
X92750000Y-87667000D02*
X92750000Y-99047000D01*
X97750000Y-99047000D02*
X97750000Y-87667000D01*
X92750000Y-99047000D02*
X97750000Y-99047000D01*
D11*
%TO.C,J1*%
X146479000Y-177887000D02*
X85169000Y-177887000D01*
X146479000Y-166537000D02*
X146479000Y-177887000D01*
X85169000Y-177887000D02*
X85169000Y-166537000D01*
X85169000Y-166537000D02*
X146479000Y-166537000D01*
D10*
%TO.C,R9*%
X174982000Y-201273000D02*
X171982000Y-201273000D01*
X171982000Y-201273000D02*
X171982000Y-213533000D01*
X174982000Y-213533000D02*
X174982000Y-201273000D01*
X171982000Y-213533000D02*
X174982000Y-213533000D01*
%TO.C,U9*%
X176043000Y-95667000D02*
X124693000Y-95667000D01*
X124693000Y-95667000D02*
X124693000Y-113867000D01*
X176043000Y-113867000D02*
X176043000Y-95667000D01*
X124693000Y-113867000D02*
X176043000Y-113867000D01*
%TO.C,C3*%
X169879255Y-212483000D02*
G75*
G03*
X161379255Y-212483000I-4250000J0D01*
G01*
X161379255Y-212483000D02*
G75*
G03*
X169879255Y-212483000I4250000J0D01*
G01*
%TO.C,R65*%
X33298000Y-82469000D02*
X36298000Y-82469000D01*
X36298000Y-82469000D02*
X36298000Y-70209000D01*
X33298000Y-70209000D02*
X33298000Y-82469000D01*
X36298000Y-70209000D02*
X33298000Y-70209000D01*
%TO.C,R61*%
X184922000Y-117419000D02*
X181922000Y-117419000D01*
X181922000Y-117419000D02*
X181922000Y-129679000D01*
X184922000Y-129679000D02*
X184922000Y-117419000D01*
X181922000Y-129679000D02*
X184922000Y-129679000D01*
%TO.C,C27*%
X147804000Y-70303000D02*
X144804000Y-70303000D01*
X144804000Y-70303000D02*
X144804000Y-77803000D01*
X147804000Y-77803000D02*
X147804000Y-70303000D01*
X144804000Y-77803000D02*
X147804000Y-77803000D01*
%TO.C,L6*%
X40538000Y-203165000D02*
X46838000Y-203165000D01*
X46838000Y-203165000D02*
X46838000Y-175065000D01*
X40538000Y-175065000D02*
X40538000Y-203165000D01*
X46838000Y-175065000D02*
X40538000Y-175065000D01*
%TO.C,U12*%
X175286000Y-79715000D02*
X154436000Y-79715000D01*
X154436000Y-79715000D02*
X154436000Y-90265000D01*
X175286000Y-90265000D02*
X175286000Y-79715000D01*
X154436000Y-90265000D02*
X175286000Y-90265000D01*
%TO.C,U13*%
X143267000Y-54813000D02*
X122417000Y-54813000D01*
X122417000Y-54813000D02*
X122417000Y-65363000D01*
X143267000Y-65363000D02*
X143267000Y-54813000D01*
X122417000Y-65363000D02*
X143267000Y-65363000D01*
%TO.C,L10*%
X97068000Y-56883000D02*
X102068000Y-56883000D01*
X102068000Y-56883000D02*
X102068000Y-45503000D01*
X97068000Y-45503000D02*
X97068000Y-56883000D01*
X102068000Y-45503000D02*
X97068000Y-45503000D01*
%TO.C,C43*%
X121134000Y-82241000D02*
X118134000Y-82241000D01*
X118134000Y-82241000D02*
X118134000Y-89741000D01*
X121134000Y-89741000D02*
X121134000Y-82241000D01*
X118134000Y-89741000D02*
X121134000Y-89741000D01*
%TO.C,L7*%
X143916000Y-26849000D02*
X143916000Y-31849000D01*
X143916000Y-31849000D02*
X155296000Y-31849000D01*
X155296000Y-26849000D02*
X143916000Y-26849000D01*
X155296000Y-31849000D02*
X155296000Y-26849000D01*
%TO.C,R70*%
X89442000Y-162675000D02*
X89442000Y-159675000D01*
X89442000Y-159675000D02*
X77182000Y-159675000D01*
X77182000Y-162675000D02*
X89442000Y-162675000D01*
X77182000Y-159675000D02*
X77182000Y-162675000D01*
%TO.C,R7*%
X168378000Y-195685000D02*
X165378000Y-195685000D01*
X165378000Y-195685000D02*
X165378000Y-207945000D01*
X168378000Y-207945000D02*
X168378000Y-195685000D01*
X165378000Y-207945000D02*
X168378000Y-207945000D01*
%TO.C,J4A1*%
X102340000Y-44074000D02*
X102340000Y-65424000D01*
X102340000Y-65424000D02*
X105940000Y-65424000D01*
X105940000Y-44074000D02*
X102340000Y-44074000D01*
X105940000Y-65424000D02*
X105940000Y-44074000D01*
%TO.C,C7*%
X129296000Y-153107000D02*
X126296000Y-153107000D01*
X126296000Y-153107000D02*
X126296000Y-160607000D01*
X129296000Y-160607000D02*
X129296000Y-153107000D01*
X126296000Y-160607000D02*
X129296000Y-160607000D01*
%TO.C,R77*%
X182660000Y-195441000D02*
X182660000Y-192441000D01*
X182660000Y-192441000D02*
X170400000Y-192441000D01*
X170400000Y-195441000D02*
X182660000Y-195441000D01*
X170400000Y-192441000D02*
X170400000Y-195441000D01*
%TO.C,R42*%
X83590000Y-42083000D02*
X86590000Y-42083000D01*
X86590000Y-42083000D02*
X86590000Y-29823000D01*
X83590000Y-29823000D02*
X83590000Y-42083000D01*
X86590000Y-29823000D02*
X83590000Y-29823000D01*
%TO.C,C101*%
X62254000Y-90249000D02*
X65254000Y-90249000D01*
X65254000Y-90249000D02*
X65254000Y-82749000D01*
X62254000Y-82749000D02*
X62254000Y-90249000D01*
X65254000Y-82749000D02*
X62254000Y-82749000D01*
%TO.C,C67*%
X93532000Y-58329000D02*
X93532000Y-61329000D01*
X93532000Y-61329000D02*
X101032000Y-61329000D01*
X101032000Y-58329000D02*
X93532000Y-58329000D01*
X101032000Y-61329000D02*
X101032000Y-58329000D01*
%TO.C,U11*%
X143267000Y-67264000D02*
X122417000Y-67264000D01*
X122417000Y-67264000D02*
X122417000Y-77814000D01*
X143267000Y-77814000D02*
X143267000Y-67264000D01*
X122417000Y-77814000D02*
X143267000Y-77814000D01*
%TO.C,C51*%
X53872000Y-194389000D02*
X56872000Y-194389000D01*
X56872000Y-194389000D02*
X56872000Y-186889000D01*
X53872000Y-186889000D02*
X53872000Y-194389000D01*
X56872000Y-186889000D02*
X53872000Y-186889000D01*
%TO.C,R6*%
X165828000Y-147737000D02*
X165828000Y-150737000D01*
X165828000Y-150737000D02*
X178088000Y-150737000D01*
X178088000Y-147737000D02*
X165828000Y-147737000D01*
X178088000Y-150737000D02*
X178088000Y-147737000D01*
%TO.C,C5*%
X175280000Y-135037000D02*
X175280000Y-138037000D01*
X175280000Y-138037000D02*
X182780000Y-138037000D01*
X182780000Y-135037000D02*
X175280000Y-135037000D01*
X182780000Y-138037000D02*
X182780000Y-135037000D01*
%TO.C,C19*%
X57174000Y-131905000D02*
X60174000Y-131905000D01*
X60174000Y-131905000D02*
X60174000Y-124405000D01*
X57174000Y-124405000D02*
X57174000Y-131905000D01*
X60174000Y-124405000D02*
X57174000Y-124405000D01*
%TO.C,L4*%
X40538000Y-168327000D02*
X40538000Y-173327000D01*
X40538000Y-173327000D02*
X51918000Y-173327000D01*
X51918000Y-168327000D02*
X40538000Y-168327000D01*
X51918000Y-173327000D02*
X51918000Y-168327000D01*
%TO.C,R27*%
X59968000Y-150287000D02*
X62968000Y-150287000D01*
X62968000Y-150287000D02*
X62968000Y-138027000D01*
X59968000Y-138027000D02*
X59968000Y-150287000D01*
X62968000Y-138027000D02*
X59968000Y-138027000D01*
%TO.C,R40*%
X89940000Y-40813000D02*
X92940000Y-40813000D01*
X92940000Y-40813000D02*
X92940000Y-28553000D01*
X89940000Y-28553000D02*
X89940000Y-40813000D01*
X92940000Y-28553000D02*
X89940000Y-28553000D01*
%TO.C,C98*%
X56110000Y-124405000D02*
X53110000Y-124405000D01*
X53110000Y-124405000D02*
X53110000Y-131905000D01*
X56110000Y-131905000D02*
X56110000Y-124405000D01*
X53110000Y-131905000D02*
X56110000Y-131905000D01*
%TO.C,C63*%
X96242000Y-68271000D02*
X93242000Y-68271000D01*
X93242000Y-68271000D02*
X93242000Y-75771000D01*
X96242000Y-75771000D02*
X96242000Y-68271000D01*
X93242000Y-75771000D02*
X96242000Y-75771000D01*
%TO.C,C78*%
X110974000Y-62937000D02*
X107974000Y-62937000D01*
X107974000Y-62937000D02*
X107974000Y-70437000D01*
X110974000Y-70437000D02*
X110974000Y-62937000D01*
X107974000Y-70437000D02*
X110974000Y-70437000D01*
%TO.C,R73*%
X184380000Y-99673000D02*
X181380000Y-99673000D01*
X181380000Y-99673000D02*
X181380000Y-111933000D01*
X184380000Y-111933000D02*
X184380000Y-99673000D01*
X181380000Y-111933000D02*
X184380000Y-111933000D01*
%TO.C,U17*%
X175301000Y-42362000D02*
X154451000Y-42362000D01*
X154451000Y-42362000D02*
X154451000Y-52912000D01*
X175301000Y-52912000D02*
X175301000Y-42362000D01*
X154451000Y-52912000D02*
X175301000Y-52912000D01*
%TO.C,H3*%
X188410000Y-219815000D02*
G75*
G03*
X176910000Y-219815000I-5750000J0D01*
G01*
X176910000Y-219815000D02*
G75*
G03*
X188410000Y-219815000I5750000J0D01*
G01*
%TO.C,C62*%
X86892000Y-39703000D02*
X89892000Y-39703000D01*
X89892000Y-39703000D02*
X89892000Y-32203000D01*
X86892000Y-32203000D02*
X86892000Y-39703000D01*
X89892000Y-32203000D02*
X86892000Y-32203000D01*
%TO.C,U14*%
X175301000Y-67264000D02*
X154451000Y-67264000D01*
X154451000Y-67264000D02*
X154451000Y-77814000D01*
X175301000Y-77814000D02*
X175301000Y-67264000D01*
X154451000Y-77814000D02*
X175301000Y-77814000D01*
%TO.C,C106*%
X173814584Y-116471000D02*
G75*
G03*
X168754584Y-116471000I-2530000J0D01*
G01*
X168754584Y-116471000D02*
G75*
G03*
X173814584Y-116471000I2530000J0D01*
G01*
%TO.C,WJ5*%
X104106000Y-144689000D02*
X104106000Y-147689000D01*
X104106000Y-147689000D02*
X121446000Y-147689000D01*
X121446000Y-144689000D02*
X104106000Y-144689000D01*
X121446000Y-147689000D02*
X121446000Y-144689000D01*
%TO.C,R64*%
X165134000Y-94349000D02*
X165134000Y-91349000D01*
X165134000Y-91349000D02*
X152874000Y-91349000D01*
X152874000Y-94349000D02*
X165134000Y-94349000D01*
X152874000Y-91349000D02*
X152874000Y-94349000D01*
%TO.C,C47*%
X37314000Y-171903000D02*
X34314000Y-171903000D01*
X34314000Y-171903000D02*
X34314000Y-179403000D01*
X37314000Y-179403000D02*
X37314000Y-171903000D01*
X34314000Y-179403000D02*
X37314000Y-179403000D01*
%TO.C,WJ4*%
X100804000Y-140371000D02*
X100804000Y-143371000D01*
X100804000Y-143371000D02*
X118144000Y-143371000D01*
X118144000Y-140371000D02*
X100804000Y-140371000D01*
X118144000Y-143371000D02*
X118144000Y-140371000D01*
%TO.C,Q5*%
X82790000Y-151021000D02*
X77230000Y-151021000D01*
X82790000Y-151021000D02*
X82790000Y-158121000D01*
X77230000Y-158121000D02*
X77230000Y-151021000D01*
X77230000Y-158121000D02*
X82790000Y-158121000D01*
%TD*%
M02*
