%TF.GenerationSoftware,KiCad,Pcbnew,6.0.11-2627ca5db0~126~ubuntu22.04.1*%
%TF.CreationDate,2023-05-13T09:43:47-04:00*%
%TF.ProjectId,coleco_original_main_only,636f6c65-636f-45f6-9f72-6967696e616c,DEV*%
%TF.SameCoordinates,Original*%
%TF.FileFunction,Other,User*%
%FSLAX46Y46*%
G04 Gerber Fmt 4.6, Leading zero omitted, Abs format (unit mm)*
G04 Created by KiCad (PCBNEW 6.0.11-2627ca5db0~126~ubuntu22.04.1) date 2023-05-13 09:43:47*
%MOMM*%
%LPD*%
G01*
G04 APERTURE LIST*
%ADD10C,0.800000*%
G04 APERTURE END LIST*
D10*
X165862000Y-217563000D02*
X165862000Y-229501000D01*
X165862000Y-229501000D02*
X165862000Y-229755000D01*
X168148000Y-21221000D02*
X168148000Y-16141000D01*
X168402000Y-21221000D02*
X168148000Y-21221000D01*
X67564000Y-230009000D02*
X67564000Y-217817000D01*
X67564000Y-217817000D02*
X77216000Y-217817000D01*
X67056000Y-15887000D02*
X23114000Y-15887000D01*
X156464000Y-229755000D02*
X156464000Y-217563000D01*
X94996000Y-22457000D02*
X67056000Y-22457000D01*
X77216000Y-217817000D02*
X77216000Y-229755000D01*
X77216000Y-229501000D02*
X77216000Y-229755000D01*
X190788000Y-15887000D02*
X168656000Y-15887000D01*
X67056000Y-22457000D02*
X67056000Y-15887000D01*
X66802000Y-230771000D02*
X67564000Y-230009000D01*
X156464000Y-217563000D02*
X165862000Y-217563000D01*
X94996000Y-15887000D02*
X94996000Y-22457000D01*
X168402000Y-15887000D02*
X168402000Y-21221000D01*
X192532000Y-21729000D02*
X192532000Y-15887000D01*
X155482000Y-230737000D02*
X156464000Y-229755000D01*
X165862000Y-229755000D02*
X166878000Y-230771000D01*
X168656000Y-15887000D02*
X168402000Y-15887000D01*
X192532000Y-21729000D02*
X189484000Y-21729000D01*
X166878000Y-230771000D02*
X192532000Y-230771000D01*
X23114000Y-15887000D02*
X23148000Y-229213000D01*
X23114000Y-230771000D02*
X66802000Y-230771000D01*
X168148000Y-15887000D02*
X94996000Y-15887000D01*
X78266000Y-230737000D02*
X77216000Y-229755000D01*
X192532000Y-230771000D02*
X192532000Y-21729000D01*
X78266000Y-230737000D02*
X155482000Y-230737000D01*
M02*
