%TF.GenerationSoftware,KiCad,Pcbnew,7.0.11-7.0.11~ubuntu22.04.1*%
%TF.CreationDate,2024-10-09T20:20:14-04:00*%
%TF.ProjectId,coleco_original_main_only,636f6c65-636f-45f6-9f72-6967696e616c,DEV*%
%TF.SameCoordinates,Original*%
%TF.FileFunction,AssemblyDrawing,Bot*%
%FSLAX46Y46*%
G04 Gerber Fmt 4.6, Leading zero omitted, Abs format (unit mm)*
G04 Created by KiCad (PCBNEW 7.0.11-7.0.11~ubuntu22.04.1) date 2024-10-09 20:20:14*
%MOMM*%
%LPD*%
G01*
G04 APERTURE LIST*
%ADD10C,0.100000*%
%ADD11C,0.150000*%
G04 APERTURE END LIST*
D10*
X166116000Y-230517000D02*
X191770000Y-230517000D01*
X191770000Y-21475000D02*
X191770000Y-16649000D01*
X95250000Y-16649000D02*
X95250000Y-23253000D01*
X95250000Y-23253000D02*
X66294000Y-23253000D01*
X66294000Y-23253000D02*
X66294000Y-16649000D01*
X191770000Y-16649000D02*
X168656000Y-16649000D01*
X191770000Y-230517000D02*
X191770000Y-22491000D01*
X188722000Y-21475000D02*
X191770000Y-21475000D01*
X166116000Y-217309000D02*
X166116000Y-230517000D01*
X191770000Y-22491000D02*
X188722000Y-22491000D01*
X167386000Y-16649000D02*
X95250000Y-16649000D01*
X66802000Y-230517000D02*
X66802000Y-217563000D01*
X167386000Y-21983000D02*
X167386000Y-16649000D01*
X23368000Y-230517000D02*
X66802000Y-230517000D01*
X77470000Y-217563000D02*
X77470000Y-230390000D01*
X23368000Y-16649000D02*
X23368000Y-230517000D01*
X155702000Y-217309000D02*
X166116000Y-217309000D01*
X66802000Y-217563000D02*
X77470000Y-217563000D01*
X168656000Y-21983000D02*
X167386000Y-21983000D01*
X66294000Y-16649000D02*
X23368000Y-16649000D01*
X155702000Y-230390000D02*
X155702000Y-217309000D01*
X188722000Y-22491000D02*
X188722000Y-21475000D01*
X168656000Y-16649000D02*
X168656000Y-21983000D01*
D11*
X104923200Y-137196808D02*
X104970819Y-137339665D01*
X104970819Y-137339665D02*
X104970819Y-137577760D01*
X104970819Y-137577760D02*
X104923200Y-137672998D01*
X104923200Y-137672998D02*
X104875580Y-137720617D01*
X104875580Y-137720617D02*
X104780342Y-137768236D01*
X104780342Y-137768236D02*
X104685104Y-137768236D01*
X104685104Y-137768236D02*
X104589866Y-137720617D01*
X104589866Y-137720617D02*
X104542247Y-137672998D01*
X104542247Y-137672998D02*
X104494628Y-137577760D01*
X104494628Y-137577760D02*
X104447009Y-137387284D01*
X104447009Y-137387284D02*
X104399390Y-137292046D01*
X104399390Y-137292046D02*
X104351771Y-137244427D01*
X104351771Y-137244427D02*
X104256533Y-137196808D01*
X104256533Y-137196808D02*
X104161295Y-137196808D01*
X104161295Y-137196808D02*
X104066057Y-137244427D01*
X104066057Y-137244427D02*
X104018438Y-137292046D01*
X104018438Y-137292046D02*
X103970819Y-137387284D01*
X103970819Y-137387284D02*
X103970819Y-137625379D01*
X103970819Y-137625379D02*
X104018438Y-137768236D01*
X104970819Y-138339665D02*
X104923200Y-138244427D01*
X104923200Y-138244427D02*
X104875580Y-138196808D01*
X104875580Y-138196808D02*
X104780342Y-138149189D01*
X104780342Y-138149189D02*
X104494628Y-138149189D01*
X104494628Y-138149189D02*
X104399390Y-138196808D01*
X104399390Y-138196808D02*
X104351771Y-138244427D01*
X104351771Y-138244427D02*
X104304152Y-138339665D01*
X104304152Y-138339665D02*
X104304152Y-138482522D01*
X104304152Y-138482522D02*
X104351771Y-138577760D01*
X104351771Y-138577760D02*
X104399390Y-138625379D01*
X104399390Y-138625379D02*
X104494628Y-138672998D01*
X104494628Y-138672998D02*
X104780342Y-138672998D01*
X104780342Y-138672998D02*
X104875580Y-138625379D01*
X104875580Y-138625379D02*
X104923200Y-138577760D01*
X104923200Y-138577760D02*
X104970819Y-138482522D01*
X104970819Y-138482522D02*
X104970819Y-138339665D01*
X104970819Y-139244427D02*
X104923200Y-139149189D01*
X104923200Y-139149189D02*
X104827961Y-139101570D01*
X104827961Y-139101570D02*
X103970819Y-139101570D01*
X104970819Y-140053951D02*
X103970819Y-140053951D01*
X104923200Y-140053951D02*
X104970819Y-139958713D01*
X104970819Y-139958713D02*
X104970819Y-139768237D01*
X104970819Y-139768237D02*
X104923200Y-139672999D01*
X104923200Y-139672999D02*
X104875580Y-139625380D01*
X104875580Y-139625380D02*
X104780342Y-139577761D01*
X104780342Y-139577761D02*
X104494628Y-139577761D01*
X104494628Y-139577761D02*
X104399390Y-139625380D01*
X104399390Y-139625380D02*
X104351771Y-139672999D01*
X104351771Y-139672999D02*
X104304152Y-139768237D01*
X104304152Y-139768237D02*
X104304152Y-139958713D01*
X104304152Y-139958713D02*
X104351771Y-140053951D01*
X104923200Y-140911094D02*
X104970819Y-140815856D01*
X104970819Y-140815856D02*
X104970819Y-140625380D01*
X104970819Y-140625380D02*
X104923200Y-140530142D01*
X104923200Y-140530142D02*
X104827961Y-140482523D01*
X104827961Y-140482523D02*
X104447009Y-140482523D01*
X104447009Y-140482523D02*
X104351771Y-140530142D01*
X104351771Y-140530142D02*
X104304152Y-140625380D01*
X104304152Y-140625380D02*
X104304152Y-140815856D01*
X104304152Y-140815856D02*
X104351771Y-140911094D01*
X104351771Y-140911094D02*
X104447009Y-140958713D01*
X104447009Y-140958713D02*
X104542247Y-140958713D01*
X104542247Y-140958713D02*
X104637485Y-140482523D01*
X104970819Y-141387285D02*
X104304152Y-141387285D01*
X104494628Y-141387285D02*
X104399390Y-141434904D01*
X104399390Y-141434904D02*
X104351771Y-141482523D01*
X104351771Y-141482523D02*
X104304152Y-141577761D01*
X104304152Y-141577761D02*
X104304152Y-141672999D01*
X103970819Y-142292047D02*
X104685104Y-142292047D01*
X104685104Y-142292047D02*
X104827961Y-142244428D01*
X104827961Y-142244428D02*
X104923200Y-142149190D01*
X104923200Y-142149190D02*
X104970819Y-142006333D01*
X104970819Y-142006333D02*
X104970819Y-141911095D01*
X104304152Y-143196809D02*
X104970819Y-143196809D01*
X104304152Y-142768238D02*
X104827961Y-142768238D01*
X104827961Y-142768238D02*
X104923200Y-142815857D01*
X104923200Y-142815857D02*
X104970819Y-142911095D01*
X104970819Y-142911095D02*
X104970819Y-143053952D01*
X104970819Y-143053952D02*
X104923200Y-143149190D01*
X104923200Y-143149190D02*
X104875580Y-143196809D01*
X104970819Y-143673000D02*
X104304152Y-143673000D01*
X104399390Y-143673000D02*
X104351771Y-143720619D01*
X104351771Y-143720619D02*
X104304152Y-143815857D01*
X104304152Y-143815857D02*
X104304152Y-143958714D01*
X104304152Y-143958714D02*
X104351771Y-144053952D01*
X104351771Y-144053952D02*
X104447009Y-144101571D01*
X104447009Y-144101571D02*
X104970819Y-144101571D01*
X104447009Y-144101571D02*
X104351771Y-144149190D01*
X104351771Y-144149190D02*
X104304152Y-144244428D01*
X104304152Y-144244428D02*
X104304152Y-144387285D01*
X104304152Y-144387285D02*
X104351771Y-144482524D01*
X104351771Y-144482524D02*
X104447009Y-144530143D01*
X104447009Y-144530143D02*
X104970819Y-144530143D01*
X104304152Y-145006333D02*
X105304152Y-145006333D01*
X104351771Y-145006333D02*
X104304152Y-145101571D01*
X104304152Y-145101571D02*
X104304152Y-145292047D01*
X104304152Y-145292047D02*
X104351771Y-145387285D01*
X104351771Y-145387285D02*
X104399390Y-145434904D01*
X104399390Y-145434904D02*
X104494628Y-145482523D01*
X104494628Y-145482523D02*
X104780342Y-145482523D01*
X104780342Y-145482523D02*
X104875580Y-145434904D01*
X104875580Y-145434904D02*
X104923200Y-145387285D01*
X104923200Y-145387285D02*
X104970819Y-145292047D01*
X104970819Y-145292047D02*
X104970819Y-145101571D01*
X104970819Y-145101571D02*
X104923200Y-145006333D01*
X104923200Y-146292047D02*
X104970819Y-146196809D01*
X104970819Y-146196809D02*
X104970819Y-146006333D01*
X104970819Y-146006333D02*
X104923200Y-145911095D01*
X104923200Y-145911095D02*
X104827961Y-145863476D01*
X104827961Y-145863476D02*
X104447009Y-145863476D01*
X104447009Y-145863476D02*
X104351771Y-145911095D01*
X104351771Y-145911095D02*
X104304152Y-146006333D01*
X104304152Y-146006333D02*
X104304152Y-146196809D01*
X104304152Y-146196809D02*
X104351771Y-146292047D01*
X104351771Y-146292047D02*
X104447009Y-146339666D01*
X104447009Y-146339666D02*
X104542247Y-146339666D01*
X104542247Y-146339666D02*
X104637485Y-145863476D01*
X104970819Y-146768238D02*
X104304152Y-146768238D01*
X104494628Y-146768238D02*
X104399390Y-146815857D01*
X104399390Y-146815857D02*
X104351771Y-146863476D01*
X104351771Y-146863476D02*
X104304152Y-146958714D01*
X104304152Y-146958714D02*
X104304152Y-147053952D01*
X105066057Y-147149191D02*
X105066057Y-147911095D01*
X104066057Y-148101572D02*
X104018438Y-148149191D01*
X104018438Y-148149191D02*
X103970819Y-148244429D01*
X103970819Y-148244429D02*
X103970819Y-148482524D01*
X103970819Y-148482524D02*
X104018438Y-148577762D01*
X104018438Y-148577762D02*
X104066057Y-148625381D01*
X104066057Y-148625381D02*
X104161295Y-148673000D01*
X104161295Y-148673000D02*
X104256533Y-148673000D01*
X104256533Y-148673000D02*
X104399390Y-148625381D01*
X104399390Y-148625381D02*
X104970819Y-148053953D01*
X104970819Y-148053953D02*
X104970819Y-148673000D01*
X105066057Y-148863477D02*
X105066057Y-149625381D01*
X103970819Y-150053953D02*
X103970819Y-150244429D01*
X103970819Y-150244429D02*
X104018438Y-150339667D01*
X104018438Y-150339667D02*
X104113676Y-150434905D01*
X104113676Y-150434905D02*
X104304152Y-150482524D01*
X104304152Y-150482524D02*
X104637485Y-150482524D01*
X104637485Y-150482524D02*
X104827961Y-150434905D01*
X104827961Y-150434905D02*
X104923200Y-150339667D01*
X104923200Y-150339667D02*
X104970819Y-150244429D01*
X104970819Y-150244429D02*
X104970819Y-150053953D01*
X104970819Y-150053953D02*
X104923200Y-149958715D01*
X104923200Y-149958715D02*
X104827961Y-149863477D01*
X104827961Y-149863477D02*
X104637485Y-149815858D01*
X104637485Y-149815858D02*
X104304152Y-149815858D01*
X104304152Y-149815858D02*
X104113676Y-149863477D01*
X104113676Y-149863477D02*
X104018438Y-149958715D01*
X104018438Y-149958715D02*
X103970819Y-150053953D01*
X104304152Y-150911096D02*
X105304152Y-150911096D01*
X104351771Y-150911096D02*
X104304152Y-151006334D01*
X104304152Y-151006334D02*
X104304152Y-151196810D01*
X104304152Y-151196810D02*
X104351771Y-151292048D01*
X104351771Y-151292048D02*
X104399390Y-151339667D01*
X104399390Y-151339667D02*
X104494628Y-151387286D01*
X104494628Y-151387286D02*
X104780342Y-151387286D01*
X104780342Y-151387286D02*
X104875580Y-151339667D01*
X104875580Y-151339667D02*
X104923200Y-151292048D01*
X104923200Y-151292048D02*
X104970819Y-151196810D01*
X104970819Y-151196810D02*
X104970819Y-151006334D01*
X104970819Y-151006334D02*
X104923200Y-150911096D01*
X104923200Y-152196810D02*
X104970819Y-152101572D01*
X104970819Y-152101572D02*
X104970819Y-151911096D01*
X104970819Y-151911096D02*
X104923200Y-151815858D01*
X104923200Y-151815858D02*
X104827961Y-151768239D01*
X104827961Y-151768239D02*
X104447009Y-151768239D01*
X104447009Y-151768239D02*
X104351771Y-151815858D01*
X104351771Y-151815858D02*
X104304152Y-151911096D01*
X104304152Y-151911096D02*
X104304152Y-152101572D01*
X104304152Y-152101572D02*
X104351771Y-152196810D01*
X104351771Y-152196810D02*
X104447009Y-152244429D01*
X104447009Y-152244429D02*
X104542247Y-152244429D01*
X104542247Y-152244429D02*
X104637485Y-151768239D01*
X104304152Y-152673001D02*
X104970819Y-152673001D01*
X104399390Y-152673001D02*
X104351771Y-152720620D01*
X104351771Y-152720620D02*
X104304152Y-152815858D01*
X104304152Y-152815858D02*
X104304152Y-152958715D01*
X104304152Y-152958715D02*
X104351771Y-153053953D01*
X104351771Y-153053953D02*
X104447009Y-153101572D01*
X104447009Y-153101572D02*
X104970819Y-153101572D01*
X121941200Y-134402808D02*
X121988819Y-134545665D01*
X121988819Y-134545665D02*
X121988819Y-134783760D01*
X121988819Y-134783760D02*
X121941200Y-134878998D01*
X121941200Y-134878998D02*
X121893580Y-134926617D01*
X121893580Y-134926617D02*
X121798342Y-134974236D01*
X121798342Y-134974236D02*
X121703104Y-134974236D01*
X121703104Y-134974236D02*
X121607866Y-134926617D01*
X121607866Y-134926617D02*
X121560247Y-134878998D01*
X121560247Y-134878998D02*
X121512628Y-134783760D01*
X121512628Y-134783760D02*
X121465009Y-134593284D01*
X121465009Y-134593284D02*
X121417390Y-134498046D01*
X121417390Y-134498046D02*
X121369771Y-134450427D01*
X121369771Y-134450427D02*
X121274533Y-134402808D01*
X121274533Y-134402808D02*
X121179295Y-134402808D01*
X121179295Y-134402808D02*
X121084057Y-134450427D01*
X121084057Y-134450427D02*
X121036438Y-134498046D01*
X121036438Y-134498046D02*
X120988819Y-134593284D01*
X120988819Y-134593284D02*
X120988819Y-134831379D01*
X120988819Y-134831379D02*
X121036438Y-134974236D01*
X121988819Y-135545665D02*
X121941200Y-135450427D01*
X121941200Y-135450427D02*
X121893580Y-135402808D01*
X121893580Y-135402808D02*
X121798342Y-135355189D01*
X121798342Y-135355189D02*
X121512628Y-135355189D01*
X121512628Y-135355189D02*
X121417390Y-135402808D01*
X121417390Y-135402808D02*
X121369771Y-135450427D01*
X121369771Y-135450427D02*
X121322152Y-135545665D01*
X121322152Y-135545665D02*
X121322152Y-135688522D01*
X121322152Y-135688522D02*
X121369771Y-135783760D01*
X121369771Y-135783760D02*
X121417390Y-135831379D01*
X121417390Y-135831379D02*
X121512628Y-135878998D01*
X121512628Y-135878998D02*
X121798342Y-135878998D01*
X121798342Y-135878998D02*
X121893580Y-135831379D01*
X121893580Y-135831379D02*
X121941200Y-135783760D01*
X121941200Y-135783760D02*
X121988819Y-135688522D01*
X121988819Y-135688522D02*
X121988819Y-135545665D01*
X121988819Y-136450427D02*
X121941200Y-136355189D01*
X121941200Y-136355189D02*
X121845961Y-136307570D01*
X121845961Y-136307570D02*
X120988819Y-136307570D01*
X121988819Y-137259951D02*
X120988819Y-137259951D01*
X121941200Y-137259951D02*
X121988819Y-137164713D01*
X121988819Y-137164713D02*
X121988819Y-136974237D01*
X121988819Y-136974237D02*
X121941200Y-136878999D01*
X121941200Y-136878999D02*
X121893580Y-136831380D01*
X121893580Y-136831380D02*
X121798342Y-136783761D01*
X121798342Y-136783761D02*
X121512628Y-136783761D01*
X121512628Y-136783761D02*
X121417390Y-136831380D01*
X121417390Y-136831380D02*
X121369771Y-136878999D01*
X121369771Y-136878999D02*
X121322152Y-136974237D01*
X121322152Y-136974237D02*
X121322152Y-137164713D01*
X121322152Y-137164713D02*
X121369771Y-137259951D01*
X121941200Y-138117094D02*
X121988819Y-138021856D01*
X121988819Y-138021856D02*
X121988819Y-137831380D01*
X121988819Y-137831380D02*
X121941200Y-137736142D01*
X121941200Y-137736142D02*
X121845961Y-137688523D01*
X121845961Y-137688523D02*
X121465009Y-137688523D01*
X121465009Y-137688523D02*
X121369771Y-137736142D01*
X121369771Y-137736142D02*
X121322152Y-137831380D01*
X121322152Y-137831380D02*
X121322152Y-138021856D01*
X121322152Y-138021856D02*
X121369771Y-138117094D01*
X121369771Y-138117094D02*
X121465009Y-138164713D01*
X121465009Y-138164713D02*
X121560247Y-138164713D01*
X121560247Y-138164713D02*
X121655485Y-137688523D01*
X121988819Y-138593285D02*
X121322152Y-138593285D01*
X121512628Y-138593285D02*
X121417390Y-138640904D01*
X121417390Y-138640904D02*
X121369771Y-138688523D01*
X121369771Y-138688523D02*
X121322152Y-138783761D01*
X121322152Y-138783761D02*
X121322152Y-138878999D01*
X120988819Y-139498047D02*
X121703104Y-139498047D01*
X121703104Y-139498047D02*
X121845961Y-139450428D01*
X121845961Y-139450428D02*
X121941200Y-139355190D01*
X121941200Y-139355190D02*
X121988819Y-139212333D01*
X121988819Y-139212333D02*
X121988819Y-139117095D01*
X121322152Y-140402809D02*
X121988819Y-140402809D01*
X121322152Y-139974238D02*
X121845961Y-139974238D01*
X121845961Y-139974238D02*
X121941200Y-140021857D01*
X121941200Y-140021857D02*
X121988819Y-140117095D01*
X121988819Y-140117095D02*
X121988819Y-140259952D01*
X121988819Y-140259952D02*
X121941200Y-140355190D01*
X121941200Y-140355190D02*
X121893580Y-140402809D01*
X121988819Y-140879000D02*
X121322152Y-140879000D01*
X121417390Y-140879000D02*
X121369771Y-140926619D01*
X121369771Y-140926619D02*
X121322152Y-141021857D01*
X121322152Y-141021857D02*
X121322152Y-141164714D01*
X121322152Y-141164714D02*
X121369771Y-141259952D01*
X121369771Y-141259952D02*
X121465009Y-141307571D01*
X121465009Y-141307571D02*
X121988819Y-141307571D01*
X121465009Y-141307571D02*
X121369771Y-141355190D01*
X121369771Y-141355190D02*
X121322152Y-141450428D01*
X121322152Y-141450428D02*
X121322152Y-141593285D01*
X121322152Y-141593285D02*
X121369771Y-141688524D01*
X121369771Y-141688524D02*
X121465009Y-141736143D01*
X121465009Y-141736143D02*
X121988819Y-141736143D01*
X121322152Y-142212333D02*
X122322152Y-142212333D01*
X121369771Y-142212333D02*
X121322152Y-142307571D01*
X121322152Y-142307571D02*
X121322152Y-142498047D01*
X121322152Y-142498047D02*
X121369771Y-142593285D01*
X121369771Y-142593285D02*
X121417390Y-142640904D01*
X121417390Y-142640904D02*
X121512628Y-142688523D01*
X121512628Y-142688523D02*
X121798342Y-142688523D01*
X121798342Y-142688523D02*
X121893580Y-142640904D01*
X121893580Y-142640904D02*
X121941200Y-142593285D01*
X121941200Y-142593285D02*
X121988819Y-142498047D01*
X121988819Y-142498047D02*
X121988819Y-142307571D01*
X121988819Y-142307571D02*
X121941200Y-142212333D01*
X121941200Y-143498047D02*
X121988819Y-143402809D01*
X121988819Y-143402809D02*
X121988819Y-143212333D01*
X121988819Y-143212333D02*
X121941200Y-143117095D01*
X121941200Y-143117095D02*
X121845961Y-143069476D01*
X121845961Y-143069476D02*
X121465009Y-143069476D01*
X121465009Y-143069476D02*
X121369771Y-143117095D01*
X121369771Y-143117095D02*
X121322152Y-143212333D01*
X121322152Y-143212333D02*
X121322152Y-143402809D01*
X121322152Y-143402809D02*
X121369771Y-143498047D01*
X121369771Y-143498047D02*
X121465009Y-143545666D01*
X121465009Y-143545666D02*
X121560247Y-143545666D01*
X121560247Y-143545666D02*
X121655485Y-143069476D01*
X121988819Y-143974238D02*
X121322152Y-143974238D01*
X121512628Y-143974238D02*
X121417390Y-144021857D01*
X121417390Y-144021857D02*
X121369771Y-144069476D01*
X121369771Y-144069476D02*
X121322152Y-144164714D01*
X121322152Y-144164714D02*
X121322152Y-144259952D01*
X122084057Y-144355191D02*
X122084057Y-145117095D01*
X121084057Y-145307572D02*
X121036438Y-145355191D01*
X121036438Y-145355191D02*
X120988819Y-145450429D01*
X120988819Y-145450429D02*
X120988819Y-145688524D01*
X120988819Y-145688524D02*
X121036438Y-145783762D01*
X121036438Y-145783762D02*
X121084057Y-145831381D01*
X121084057Y-145831381D02*
X121179295Y-145879000D01*
X121179295Y-145879000D02*
X121274533Y-145879000D01*
X121274533Y-145879000D02*
X121417390Y-145831381D01*
X121417390Y-145831381D02*
X121988819Y-145259953D01*
X121988819Y-145259953D02*
X121988819Y-145879000D01*
X122084057Y-146069477D02*
X122084057Y-146831381D01*
X120988819Y-147259953D02*
X120988819Y-147450429D01*
X120988819Y-147450429D02*
X121036438Y-147545667D01*
X121036438Y-147545667D02*
X121131676Y-147640905D01*
X121131676Y-147640905D02*
X121322152Y-147688524D01*
X121322152Y-147688524D02*
X121655485Y-147688524D01*
X121655485Y-147688524D02*
X121845961Y-147640905D01*
X121845961Y-147640905D02*
X121941200Y-147545667D01*
X121941200Y-147545667D02*
X121988819Y-147450429D01*
X121988819Y-147450429D02*
X121988819Y-147259953D01*
X121988819Y-147259953D02*
X121941200Y-147164715D01*
X121941200Y-147164715D02*
X121845961Y-147069477D01*
X121845961Y-147069477D02*
X121655485Y-147021858D01*
X121655485Y-147021858D02*
X121322152Y-147021858D01*
X121322152Y-147021858D02*
X121131676Y-147069477D01*
X121131676Y-147069477D02*
X121036438Y-147164715D01*
X121036438Y-147164715D02*
X120988819Y-147259953D01*
X121322152Y-148117096D02*
X122322152Y-148117096D01*
X121369771Y-148117096D02*
X121322152Y-148212334D01*
X121322152Y-148212334D02*
X121322152Y-148402810D01*
X121322152Y-148402810D02*
X121369771Y-148498048D01*
X121369771Y-148498048D02*
X121417390Y-148545667D01*
X121417390Y-148545667D02*
X121512628Y-148593286D01*
X121512628Y-148593286D02*
X121798342Y-148593286D01*
X121798342Y-148593286D02*
X121893580Y-148545667D01*
X121893580Y-148545667D02*
X121941200Y-148498048D01*
X121941200Y-148498048D02*
X121988819Y-148402810D01*
X121988819Y-148402810D02*
X121988819Y-148212334D01*
X121988819Y-148212334D02*
X121941200Y-148117096D01*
X121941200Y-149402810D02*
X121988819Y-149307572D01*
X121988819Y-149307572D02*
X121988819Y-149117096D01*
X121988819Y-149117096D02*
X121941200Y-149021858D01*
X121941200Y-149021858D02*
X121845961Y-148974239D01*
X121845961Y-148974239D02*
X121465009Y-148974239D01*
X121465009Y-148974239D02*
X121369771Y-149021858D01*
X121369771Y-149021858D02*
X121322152Y-149117096D01*
X121322152Y-149117096D02*
X121322152Y-149307572D01*
X121322152Y-149307572D02*
X121369771Y-149402810D01*
X121369771Y-149402810D02*
X121465009Y-149450429D01*
X121465009Y-149450429D02*
X121560247Y-149450429D01*
X121560247Y-149450429D02*
X121655485Y-148974239D01*
X121322152Y-149879001D02*
X121988819Y-149879001D01*
X121417390Y-149879001D02*
X121369771Y-149926620D01*
X121369771Y-149926620D02*
X121322152Y-150021858D01*
X121322152Y-150021858D02*
X121322152Y-150164715D01*
X121322152Y-150164715D02*
X121369771Y-150259953D01*
X121369771Y-150259953D02*
X121465009Y-150307572D01*
X121465009Y-150307572D02*
X121988819Y-150307572D01*
D10*
%TO.C,J2*%
X77470000Y-220484000D02*
X155448000Y-220484000D01*
X77470000Y-221500000D02*
X77470000Y-220484000D01*
X77470000Y-221754000D02*
X77470000Y-230644000D01*
X77470000Y-230644000D02*
X155448000Y-230644000D01*
X155448000Y-230644000D02*
X155702000Y-230644000D01*
X155702000Y-220484000D02*
X155448000Y-220484000D01*
X155702000Y-230644000D02*
X155702000Y-220484000D01*
%TD*%
M02*
