%TF.GenerationSoftware,KiCad,Pcbnew,6.0.11-2627ca5db0~126~ubuntu22.04.1*%
%TF.CreationDate,2023-05-22T11:13:12-04:00*%
%TF.ProjectId,coleco_original_main_only,636f6c65-636f-45f6-9f72-6967696e616c,DEV*%
%TF.SameCoordinates,Original*%
%TF.FileFunction,Legend,Bot*%
%TF.FilePolarity,Positive*%
%FSLAX46Y46*%
G04 Gerber Fmt 4.6, Leading zero omitted, Abs format (unit mm)*
G04 Created by KiCad (PCBNEW 6.0.11-2627ca5db0~126~ubuntu22.04.1) date 2023-05-22 11:13:12*
%MOMM*%
%LPD*%
G01*
G04 APERTURE LIST*
%ADD10C,0.150000*%
%ADD11C,0.120000*%
G04 APERTURE END LIST*
D10*
%TO.C,JP1*%
X99782380Y-144339666D02*
X100496666Y-144339666D01*
X100639523Y-144292047D01*
X100734761Y-144196809D01*
X100782380Y-144053952D01*
X100782380Y-143958714D01*
X100782380Y-144815857D02*
X99782380Y-144815857D01*
X99782380Y-145196809D01*
X99830000Y-145292047D01*
X99877619Y-145339666D01*
X99972857Y-145387285D01*
X100115714Y-145387285D01*
X100210952Y-145339666D01*
X100258571Y-145292047D01*
X100306190Y-145196809D01*
X100306190Y-144815857D01*
X100782380Y-146339666D02*
X100782380Y-145768238D01*
X100782380Y-146053952D02*
X99782380Y-146053952D01*
X99925238Y-145958714D01*
X100020476Y-145863476D01*
X100068095Y-145768238D01*
%TO.C,JP2*%
X121118380Y-141799666D02*
X121832666Y-141799666D01*
X121975523Y-141752047D01*
X122070761Y-141656809D01*
X122118380Y-141513952D01*
X122118380Y-141418714D01*
X122118380Y-142275857D02*
X121118380Y-142275857D01*
X121118380Y-142656809D01*
X121166000Y-142752047D01*
X121213619Y-142799666D01*
X121308857Y-142847285D01*
X121451714Y-142847285D01*
X121546952Y-142799666D01*
X121594571Y-142752047D01*
X121642190Y-142656809D01*
X121642190Y-142275857D01*
X121213619Y-143228238D02*
X121166000Y-143275857D01*
X121118380Y-143371095D01*
X121118380Y-143609190D01*
X121166000Y-143704428D01*
X121213619Y-143752047D01*
X121308857Y-143799666D01*
X121404095Y-143799666D01*
X121546952Y-143752047D01*
X122118380Y-143180619D01*
X122118380Y-143799666D01*
D11*
%TO.C,JP1*%
X101616000Y-143649000D02*
X101616000Y-146697000D01*
X103616000Y-143649000D02*
X101616000Y-143649000D01*
X103616000Y-146697000D02*
X103616000Y-143649000D01*
X101616000Y-146697000D02*
X103616000Y-146697000D01*
%TO.C,JP2*%
X120634000Y-140855000D02*
X118634000Y-140855000D01*
X120634000Y-143903000D02*
X120634000Y-140855000D01*
X118634000Y-140855000D02*
X118634000Y-143903000D01*
X118634000Y-143903000D02*
X120634000Y-143903000D01*
%TD*%
M02*
