M48
; DRILL file {KiCad 6.0.11-2627ca5db0~126~ubuntu22.04.1} date Sat 13 May 2023 09:43:51 AM EDT
; FORMAT={-:-/ absolute / metric / decimal}
; #@! TF.CreationDate,2023-05-13T09:43:51-04:00
; #@! TF.GenerationSoftware,Kicad,Pcbnew,6.0.11-2627ca5db0~126~ubuntu22.04.1
; #@! TF.FileFunction,Plated,1,2,PTH
FMAT,2
METRIC
; #@! TA.AperFunction,Plated,PTH,ViaDrill
T1C0.559
; #@! TA.AperFunction,Plated,PTH,ComponentDrill
T2C0.800
; #@! TA.AperFunction,Plated,PTH,ViaDrill
T3C0.813
; #@! TA.AperFunction,Plated,PTH,ComponentDrill
T4C1.000
; #@! TA.AperFunction,Plated,PTH,ComponentDrill
T5C1.100
; #@! TA.AperFunction,Plated,PTH,ComponentDrill
T6C1.500
; #@! TA.AperFunction,Plated,PTH,ComponentDrill
T7C1.700
; #@! TA.AperFunction,Plated,PTH,ComponentDrill
T8C2.200
; #@! TA.AperFunction,Plated,PTH,ComponentDrill
T9C3.200
; #@! TA.AperFunction,Plated,PTH,ComponentDrill
T10C3.250
; #@! TA.AperFunction,Plated,PTH,ComponentDrill
T11C4.300
; #@! TA.AperFunction,Plated,PTH,ComponentDrill
T12C7.000
%
G90
G05
T1
X25.908Y-125.361
X26.704Y-69.193
X27.974Y-68.177
X28.304Y-125.309
X30.487Y-123.295
X33.816Y-124.565
X36.068Y-124.599
X38.134Y-60.049
X38.862Y-124.599
X38.896Y-135.233
X38.896Y-145.139
X42.418Y-60.591
X42.456Y-124.751
X46.77Y-140.313
X46.77Y-146.409
X51.596Y-146.409
X53.34Y-143.141
X56.93Y-127.647
X58.454Y-175.873
X65.058Y-125.073
X67.818Y-175.907
X68.172Y-172.959
X68.614Y-125.073
X70.358Y-174.129
X70.646Y-143.107
X71.447Y-81.092
X72.896Y-205.047
X72.898Y-96.151
X73.406Y-109.613
X73.44Y-111.611
X74.676Y-209.943
X76.454Y-120.281
X76.621Y-139.618
X77.365Y-176.012
X78.892Y-88.992
X78.994Y-90.817
X79.003Y-87.167
X81.314Y-170.539
X83.058Y-52.971
X87.984Y-180.445
X88.01Y-98.087
X88.184Y-195.1
X88.873Y-193.406
X89.518Y-207.441
X90.966Y-132.947
X90.976Y-216.249
X91.05Y-115.396
X91.491Y-189.26
X91.694Y-83.197
X93.218Y-214.769
X93.218Y-216.801
X93.472Y-148.729
X93.726Y-127.579
X94.776Y-158.347
X94.996Y-180.445
X95.504Y-126.771
X96.224Y-166.297
X96.266Y-109.105
X96.3Y-154.537
X96.3Y-55.477
X96.559Y-116.276
X98.408Y-215.138
X98.452Y-206.591
X99.866Y-217.773
X99.881Y-212.7
X100.364Y-130.407
X102.108Y-180.445
X102.365Y-131.708
X103.85Y-218.361
X105.918Y-90.563
X106.172Y-187.845
X108.507Y-180.479
X108.966Y-187.845
X109.469Y-37.019
X109.474Y-35.191
X109.474Y-40.779
X109.474Y-38.848
X109.825Y-176.924
X110.046Y-212.419
X110.844Y-214.161
X115.316Y-178.142
X115.57Y-212.483
X115.57Y-214.769
X116.84Y-96.659
X120.142Y-113.372
X121.463Y-140.093
X122.677Y-210.417
X123.306Y-110.204
X124.206Y-97.421
X126.492Y-108.597
X126.492Y-210.637
X127.765Y-152.095
X129.032Y-108.597
X130.1Y-150.963
X130.556Y-215.023
X131.572Y-108.597
X131.826Y-92.595
X132.768Y-180.34
X133.223Y-193.56
X134.654Y-108.563
X135.924Y-166.221
X136.652Y-105.549
X136.855Y-216.244
X137.16Y-193.941
X137.702Y-166.221
X137.884Y-180.327
X138.176Y-92.341
X139.751Y-216.298
X139.954Y-195.465
X140.462Y-92.341
X141.097Y-164.604
X141.478Y-117.995
X143.295Y-177.319
X143.764Y-118.757
X145.034Y-195.465
X145.168Y-180.656
X145.288Y-61.329
X145.796Y-49.161
X145.796Y-104.025
X146.558Y-184.212
X146.609Y-198.508
X146.796Y-175.907
X147.499Y-115.022
X147.574Y-139.077
X147.625Y-200.483
X147.928Y-168.695
X148.641Y-194.095
X148.878Y-108.055
X150.622Y-208.47
X153.416Y-191.418
X153.924Y-129.933
X154.278Y-108.055
X155.736Y-131.169
X156.21Y-205.625
X156.718Y-146.951
X157.531Y-172.351
X157.715Y-208.194
X159.469Y-108.063
X159.73Y-211.685
X160.816Y-204.321
X160.884Y-192.163
X161.832Y-108.055
X163.292Y-149.649
X163.974Y-134.107
X164.163Y-108.055
X164.88Y-200.258
X165.007Y-203.686
X166.37Y-151.269
X168.182Y-177.219
X168.351Y-134.217
X169.325Y-198.352
X171.704Y-104.533
X171.738Y-186.033
X173.018Y-151.245
X173.339Y-136.249
X177.038Y-55.257
X177.495Y-86.027
X178.054Y-67.449
X178.816Y-80.657
X179.07Y-109.867
X181.102Y-186.829
X181.813Y-124.091
X183.286Y-94.881
X183.286Y-97.459
T2
X31.242Y-84.467
X31.242Y-92.087
X31.242Y-107.327
X31.242Y-114.947
X31.496Y-71.005
X31.496Y-81.165
X33.782Y-84.467
X33.782Y-92.087
X33.782Y-107.327
X33.782Y-114.947
X34.036Y-119.773
X35.052Y-71.005
X35.052Y-81.165
X36.068Y-172.899
X36.068Y-177.899
X36.322Y-84.467
X36.322Y-92.087
X36.322Y-107.327
X36.322Y-114.947
X36.576Y-119.773
X38.862Y-84.467
X38.862Y-92.087
X38.862Y-107.327
X38.862Y-114.947
X39.116Y-119.773
X39.116Y-165.533
X39.116Y-170.533
X39.116Y-175.185
X39.116Y-180.185
X40.386Y-62.887
X40.386Y-65.427
X40.386Y-67.967
X40.386Y-70.507
X40.386Y-73.047
X40.386Y-75.587
X40.386Y-78.127
X40.386Y-80.667
X41.402Y-84.467
X41.402Y-92.087
X41.402Y-107.327
X41.402Y-114.947
X41.656Y-119.773
X43.942Y-84.467
X43.942Y-92.087
X43.942Y-107.327
X43.942Y-114.947
X44.196Y-119.773
X46.482Y-84.467
X46.482Y-92.087
X46.482Y-107.327
X46.482Y-114.947
X46.482Y-154.357
X46.482Y-159.357
X46.736Y-119.773
X49.022Y-84.467
X49.022Y-92.087
X49.022Y-107.327
X49.022Y-114.947
X49.276Y-119.773
X51.562Y-84.467
X51.562Y-92.087
X51.562Y-107.327
X51.562Y-114.947
X51.816Y-119.773
X52.364Y-151.523
X53.848Y-157.111
X53.848Y-164.731
X54.102Y-84.467
X54.102Y-92.087
X54.102Y-107.327
X54.102Y-114.947
X54.864Y-125.401
X54.864Y-130.401
X55.626Y-140.347
X55.626Y-145.347
X55.626Y-179.209
X55.626Y-184.209
X55.626Y-187.885
X55.626Y-192.885
X55.626Y-196.735
X55.626Y-201.735
X56.388Y-157.111
X56.388Y-164.731
X57.364Y-151.523
X57.658Y-168.039
X57.658Y-173.039
X58.928Y-125.401
X58.928Y-130.401
X58.928Y-157.111
X58.928Y-164.731
X59.436Y-86.793
X59.436Y-91.793
X59.944Y-181.749
X59.944Y-191.909
X60.706Y-108.677
X60.706Y-113.677
X61.214Y-47.129
X61.214Y-57.289
X61.468Y-157.111
X61.468Y-164.731
X61.468Y-168.287
X61.468Y-178.447
X61.722Y-138.823
X61.722Y-148.983
X62.992Y-95.389
X62.992Y-105.549
X62.992Y-118.249
X62.992Y-128.409
X63.246Y-71.259
X63.246Y-185.599
X63.246Y-190.599
X63.28Y-68.177
X64.008Y-83.745
X64.008Y-88.745
X64.008Y-157.111
X64.008Y-164.731
X64.77Y-59.829
X65.278Y-168.287
X65.278Y-178.447
X65.278Y-202.323
X65.786Y-136.029
X65.786Y-146.189
X66.299Y-48.384
X66.299Y-56.004
X66.374Y-113.677
X66.533Y-185.544
X66.533Y-193.164
X66.548Y-157.111
X66.548Y-164.731
X66.802Y-94.119
X66.802Y-104.279
X66.802Y-118.249
X66.802Y-128.409
X68.072Y-83.705
X68.072Y-88.705
X68.839Y-48.384
X68.839Y-56.004
X69.073Y-185.544
X69.073Y-193.164
X69.088Y-29.603
X69.088Y-39.763
X69.088Y-157.111
X69.088Y-164.731
X69.163Y-63.639
X69.342Y-138.823
X69.342Y-148.983
X69.342Y-207.403
X70.612Y-94.119
X70.612Y-104.279
X70.612Y-118.249
X70.612Y-128.409
X71.374Y-113.677
X71.379Y-48.384
X71.379Y-56.004
X71.613Y-185.544
X71.613Y-193.164
X71.89Y-33.921
X72.879Y-42.303
X72.898Y-167.745
X72.898Y-177.905
X73.406Y-71.259
X73.44Y-68.177
X73.914Y-136.537
X73.914Y-146.697
X73.919Y-48.384
X73.919Y-56.004
X74.153Y-185.544
X74.153Y-193.164
X74.163Y-63.639
X74.168Y-83.959
X74.168Y-89.039
X74.422Y-94.119
X74.422Y-104.279
X74.422Y-118.249
X74.422Y-128.409
X74.43Y-31.381
X74.43Y-36.461
X74.93Y-59.829
X75.438Y-202.323
X76.459Y-48.384
X76.459Y-56.004
X76.693Y-185.544
X76.693Y-193.164
X76.708Y-86.499
X76.788Y-198.259
X77.879Y-42.303
X78.486Y-160.921
X78.74Y-134.505
X78.74Y-144.665
X78.986Y-60.337
X78.986Y-65.417
X78.999Y-48.384
X78.999Y-56.004
X79.233Y-185.544
X79.233Y-193.164
X79.494Y-151.777
X79.494Y-156.857
X79.502Y-207.403
X80.772Y-33.707
X80.772Y-38.707
X81.32Y-82.181
X81.526Y-62.877
X81.539Y-48.384
X81.539Y-56.004
X81.773Y-185.544
X81.773Y-193.164
X81.788Y-198.259
X82.034Y-154.317
X82.296Y-86.245
X82.296Y-101.485
X84.313Y-185.544
X84.313Y-193.164
X85.344Y-30.619
X85.344Y-40.779
X85.344Y-108.734
X85.344Y-113.734
X86.106Y-86.245
X86.106Y-101.485
X86.32Y-82.181
X86.614Y-46.367
X86.614Y-56.527
X86.614Y-151.817
X86.614Y-156.817
X88.646Y-33.199
X88.646Y-38.199
X88.646Y-160.921
X90.21Y-45.351
X90.922Y-122.308
X90.922Y-137.548
X91.186Y-108.383
X91.186Y-113.383
X91.44Y-49.923
X91.44Y-60.083
X91.694Y-29.349
X91.694Y-39.509
X92.197Y-185.579
X92.197Y-200.819
X93.462Y-122.308
X93.462Y-137.548
X94.737Y-185.579
X94.737Y-200.819
X94.996Y-69.267
X94.996Y-74.267
X95.011Y-105.564
X95.011Y-113.184
X95.036Y-39.763
X95.036Y-59.575
X95.21Y-45.351
X96.002Y-122.308
X96.002Y-137.548
X97.277Y-185.579
X97.277Y-200.819
X97.551Y-105.564
X97.551Y-113.184
X97.79Y-80.519
X97.79Y-85.519
X98.542Y-122.308
X98.542Y-137.548
X99.817Y-185.579
X99.817Y-200.819
X100.036Y-39.763
X100.036Y-59.575
X100.091Y-105.564
X100.091Y-113.184
X100.584Y-72.275
X101.082Y-122.308
X101.082Y-137.548
X102.108Y-141.617
X102.357Y-185.579
X102.357Y-200.819
X102.631Y-105.564
X102.631Y-113.184
X103.622Y-122.308
X103.622Y-137.548
X104.897Y-185.579
X104.897Y-200.819
X105.171Y-105.564
X105.171Y-113.184
X105.41Y-145.935
X106.162Y-122.308
X106.162Y-137.548
X106.426Y-82.817
X106.426Y-87.817
X107.437Y-185.579
X107.437Y-200.819
X107.711Y-105.564
X107.711Y-113.184
X107.806Y-57.797
X108.702Y-122.308
X108.702Y-137.548
X108.966Y-46.915
X108.966Y-51.915
X109.728Y-63.933
X109.728Y-68.933
X109.977Y-185.579
X109.977Y-200.819
X110.251Y-105.564
X110.251Y-113.184
X110.306Y-57.797
X110.744Y-72.275
X111.242Y-122.308
X111.242Y-137.548
X112.268Y-83.197
X112.268Y-88.197
X112.517Y-185.579
X112.517Y-200.819
X112.791Y-105.564
X112.791Y-113.184
X113.782Y-122.308
X113.782Y-137.548
X115.057Y-185.579
X115.057Y-200.819
X116.078Y-83.237
X116.078Y-88.237
X116.322Y-122.308
X116.322Y-137.548
X117.348Y-141.617
X117.597Y-185.579
X117.597Y-200.819
X118.862Y-122.308
X118.862Y-137.548
X119.634Y-45.899
X119.634Y-50.899
X119.634Y-58.305
X119.634Y-63.305
X119.634Y-70.791
X119.634Y-75.791
X119.888Y-83.237
X119.888Y-88.237
X120.137Y-185.579
X120.137Y-200.819
X120.65Y-145.935
X121.402Y-122.308
X121.402Y-137.548
X121.412Y-212.991
X122.677Y-185.579
X122.677Y-200.819
X123.738Y-27.825
X123.942Y-122.308
X123.942Y-137.548
X124.191Y-43.558
X124.191Y-51.178
X124.191Y-56.009
X124.191Y-63.629
X124.191Y-68.46
X124.191Y-76.08
X124.191Y-80.911
X124.191Y-88.531
X125.217Y-185.579
X125.217Y-200.819
X126.487Y-96.913
X126.487Y-112.153
X126.731Y-43.558
X126.731Y-51.178
X126.731Y-56.009
X126.731Y-63.629
X126.731Y-68.46
X126.731Y-76.08
X126.731Y-80.911
X126.731Y-88.531
X127.757Y-185.579
X127.757Y-200.819
X128.05Y-154.103
X128.05Y-159.103
X128.738Y-27.825
X129.027Y-96.913
X129.027Y-112.153
X129.271Y-43.558
X129.271Y-51.178
X129.271Y-56.009
X129.271Y-63.629
X129.271Y-68.46
X129.271Y-76.08
X129.271Y-80.911
X129.271Y-88.531
X130.297Y-185.579
X130.297Y-200.819
X131.054Y-122.044
X131.054Y-129.664
X131.054Y-135.506
X131.054Y-143.126
X131.352Y-154.103
X131.352Y-159.103
X131.567Y-96.913
X131.567Y-112.153
X131.572Y-212.991
X131.811Y-43.558
X131.811Y-51.178
X131.811Y-56.009
X131.811Y-63.629
X131.811Y-68.46
X131.811Y-76.08
X131.811Y-80.911
X131.811Y-88.531
X132.837Y-185.579
X132.837Y-200.819
X133.594Y-122.044
X133.594Y-129.664
X133.594Y-135.506
X133.594Y-143.126
X134.107Y-96.913
X134.107Y-112.153
X134.351Y-43.558
X134.351Y-51.178
X134.351Y-56.009
X134.351Y-63.629
X134.351Y-68.46
X134.351Y-76.08
X134.351Y-80.911
X134.351Y-88.531
X135.133Y-151.508
X135.133Y-159.128
X135.377Y-185.579
X135.377Y-200.819
X136.134Y-122.044
X136.134Y-129.664
X136.134Y-135.506
X136.134Y-143.126
X136.647Y-96.913
X136.647Y-112.153
X136.891Y-43.558
X136.891Y-51.178
X136.891Y-56.009
X136.891Y-63.629
X136.891Y-68.46
X136.891Y-76.08
X136.891Y-80.911
X136.891Y-88.531
X137.673Y-151.508
X137.673Y-159.128
X137.917Y-185.579
X137.917Y-200.819
X138.674Y-122.044
X138.674Y-129.664
X138.674Y-135.506
X138.674Y-143.126
X139.187Y-96.913
X139.187Y-112.153
X139.431Y-43.558
X139.431Y-51.178
X139.431Y-56.009
X139.431Y-63.629
X139.431Y-68.46
X139.431Y-76.08
X139.431Y-80.911
X139.431Y-88.531
X140.213Y-151.508
X140.213Y-159.128
X140.457Y-185.579
X140.457Y-200.819
X141.214Y-122.044
X141.214Y-129.664
X141.214Y-135.506
X141.214Y-143.126
X141.727Y-96.913
X141.727Y-112.153
X141.971Y-43.558
X141.971Y-51.178
X141.971Y-56.009
X141.971Y-63.629
X141.971Y-68.46
X141.971Y-76.08
X141.971Y-80.911
X141.971Y-88.531
X142.753Y-151.508
X142.753Y-159.128
X143.754Y-122.044
X143.754Y-129.664
X143.754Y-135.506
X143.754Y-143.126
X144.267Y-96.913
X144.267Y-112.153
X145.293Y-151.508
X145.293Y-159.128
X146.294Y-122.044
X146.294Y-129.664
X146.294Y-135.506
X146.294Y-143.126
X146.304Y-46.367
X146.304Y-51.367
X146.558Y-58.853
X146.558Y-63.853
X146.558Y-71.299
X146.558Y-76.299
X146.592Y-83.705
X146.592Y-88.705
X146.807Y-96.913
X146.807Y-112.153
X147.066Y-162.191
X147.833Y-151.508
X147.833Y-159.128
X148.834Y-122.044
X148.834Y-129.664
X148.834Y-135.506
X148.834Y-143.126
X149.347Y-96.913
X149.347Y-112.153
X150.373Y-151.508
X150.373Y-159.128
X150.876Y-43.573
X150.876Y-48.573
X150.876Y-56.059
X150.876Y-61.059
X150.876Y-68.505
X150.876Y-73.505
X150.876Y-80.951
X150.876Y-85.951
X150.876Y-187.591
X150.876Y-197.751
X151.374Y-122.044
X151.374Y-129.664
X151.374Y-135.506
X151.374Y-143.126
X151.887Y-96.913
X151.887Y-112.153
X154.178Y-92.595
X154.427Y-96.913
X154.427Y-112.153
X155.194Y-186.575
X155.194Y-196.735
X155.941Y-120.52
X155.941Y-128.14
X156.21Y-80.911
X156.21Y-88.531
X156.225Y-43.558
X156.225Y-51.178
X156.225Y-56.009
X156.225Y-63.629
X156.225Y-68.46
X156.225Y-76.08
X156.967Y-96.913
X156.967Y-112.153
X156.972Y-138.355
X156.972Y-143.355
X158.481Y-120.52
X158.481Y-128.14
X158.75Y-80.911
X158.75Y-88.531
X158.75Y-180.987
X158.75Y-191.147
X158.75Y-196.481
X158.75Y-206.641
X158.765Y-43.558
X158.765Y-51.178
X158.765Y-56.009
X158.765Y-63.629
X158.765Y-68.46
X158.765Y-76.08
X159.258Y-149.237
X159.258Y-159.397
X159.507Y-96.913
X159.507Y-112.153
X160.782Y-136.283
X161.021Y-120.52
X161.021Y-128.14
X161.29Y-80.911
X161.29Y-88.531
X161.298Y-144.411
X161.305Y-43.558
X161.305Y-51.178
X161.305Y-56.009
X161.305Y-63.629
X161.305Y-68.46
X161.305Y-76.08
X161.798Y-167.779
X161.798Y-172.779
X162.047Y-96.913
X162.047Y-112.153
X162.306Y-162.191
X162.346Y-157.365
X162.386Y-153.809
X162.814Y-196.481
X162.814Y-206.641
X163.383Y-212.229
X163.561Y-120.52
X163.561Y-128.14
X163.576Y-183.019
X163.576Y-190.639
X163.83Y-80.911
X163.83Y-88.531
X163.838Y-141.871
X163.838Y-146.951
X163.845Y-43.558
X163.845Y-51.178
X163.845Y-56.009
X163.845Y-63.629
X163.845Y-68.46
X163.845Y-76.08
X164.338Y-92.595
X164.587Y-96.913
X164.587Y-112.153
X164.846Y-176.923
X165.867Y-160.652
X165.867Y-168.272
X165.896Y-179.971
X166.101Y-120.52
X166.101Y-128.14
X166.116Y-183.019
X166.116Y-190.639
X166.37Y-80.911
X166.37Y-88.531
X166.385Y-43.558
X166.385Y-51.178
X166.385Y-56.009
X166.385Y-63.629
X166.385Y-68.46
X166.385Y-76.08
X167.127Y-96.913
X167.127Y-112.153
X167.132Y-148.983
X167.132Y-196.481
X167.132Y-206.641
X167.346Y-157.365
X167.386Y-139.331
X167.386Y-153.809
X167.784Y-172.605
X168.148Y-145.427
X168.383Y-212.229
X168.407Y-160.652
X168.407Y-168.272
X168.641Y-120.52
X168.641Y-128.14
X168.656Y-183.019
X168.656Y-190.639
X168.91Y-80.911
X168.91Y-88.531
X168.925Y-43.558
X168.925Y-51.178
X168.925Y-56.009
X168.925Y-63.629
X168.925Y-68.46
X168.925Y-76.08
X169.667Y-96.913
X169.667Y-112.153
X170.289Y-116.217
X170.688Y-142.379
X170.942Y-136.283
X170.947Y-160.652
X170.947Y-168.272
X171.181Y-120.52
X171.181Y-128.14
X171.196Y-183.019
X171.196Y-190.639
X171.45Y-80.911
X171.45Y-88.531
X171.465Y-43.558
X171.465Y-51.178
X171.465Y-56.009
X171.465Y-63.629
X171.465Y-68.46
X171.465Y-76.08
X171.704Y-193.687
X172.207Y-96.913
X172.207Y-112.153
X172.664Y-172.605
X172.789Y-116.217
X173.268Y-157.365
X173.487Y-160.652
X173.487Y-168.272
X173.721Y-120.52
X173.721Y-128.14
X173.736Y-183.019
X173.736Y-190.639
X173.736Y-202.069
X173.736Y-212.229
X173.99Y-80.911
X173.99Y-88.531
X174.005Y-43.558
X174.005Y-51.178
X174.005Y-56.009
X174.005Y-63.629
X174.005Y-68.46
X174.005Y-76.08
X174.747Y-96.913
X174.747Y-112.153
X174.752Y-196.735
X175.006Y-176.923
X175.688Y-142.379
X176.027Y-160.652
X176.027Y-168.272
X176.056Y-179.971
X176.276Y-183.019
X176.276Y-190.639
X176.784Y-136.283
X177.292Y-148.983
X177.546Y-139.331
X178.268Y-157.365
X178.308Y-145.427
X178.567Y-160.652
X178.567Y-168.272
X178.816Y-173.153
X178.816Y-178.153
X178.816Y-183.019
X178.816Y-190.639
X179.07Y-46.153
X179.07Y-51.153
X179.07Y-58.599
X179.07Y-63.599
X179.07Y-71.045
X179.07Y-76.045
X179.07Y-83.491
X179.07Y-88.491
X179.578Y-118.249
X179.578Y-128.409
X181.107Y-160.652
X181.107Y-168.272
X181.784Y-136.283
X181.864Y-193.687
X183.134Y-100.469
X183.134Y-110.629
X183.388Y-184.329
X183.388Y-189.329
X183.676Y-118.215
X183.676Y-128.375
X184.912Y-196.735
T3
X50.8Y-191.909
X57.848Y-83.654
X58.674Y-205.371
X60.198Y-205.371
X65.786Y-143.903
X76.488Y-161.903
X80.171Y-92.688
X82.042Y-71.005
X83.82Y-143.395
X87.918Y-95.609
X88.646Y-163.461
X88.934Y-85.957
X98.298Y-178.701
X150.656Y-164.748
X150.656Y-178.921
X172.28Y-147.205
T4
X32.176Y-47.282
X32.176Y-50.052
X32.176Y-52.822
X32.176Y-55.592
X32.176Y-138.214
X32.176Y-140.984
X32.176Y-143.754
X32.176Y-146.524
X35.016Y-45.897
X35.016Y-48.667
X35.016Y-51.437
X35.016Y-54.207
X35.016Y-56.977
X35.016Y-136.829
X35.016Y-139.599
X35.016Y-142.369
X35.016Y-145.139
X35.016Y-147.909
X43.292Y-170.573
X50.912Y-170.573
X90.424Y-89.913
X90.424Y-97.533
X95.504Y-89.913
X95.504Y-97.533
X99.822Y-46.509
X99.822Y-54.129
X100.696Y-92.849
X104.394Y-45.62
X104.394Y-48.16
X104.394Y-50.7
X104.394Y-53.24
X104.394Y-55.78
X104.394Y-58.32
X104.394Y-60.86
X104.394Y-63.4
X108.316Y-92.849
X112.126Y-92.849
X119.746Y-92.849
X131.206Y-34.429
X138.826Y-34.429
X146.67Y-29.095
X154.29Y-29.095
X168.29Y-132.219
X170.068Y-153.047
X175.91Y-132.219
X177.688Y-153.047
X179.832Y-202.799
X179.832Y-204.831
X179.832Y-206.863
X184.912Y-202.799
X184.912Y-204.831
X184.912Y-206.863
T5
X43.942Y-176.161
X43.942Y-201.561
X50.546Y-176.161
X50.546Y-201.561
X98.298Y-169.557
X98.298Y-174.383
X100.838Y-169.557
X100.838Y-174.383
X103.378Y-169.557
X103.378Y-174.383
X105.918Y-169.557
X105.918Y-174.383
X108.458Y-169.557
X108.458Y-174.383
X110.998Y-169.557
X110.998Y-174.383
X113.538Y-169.557
X113.538Y-174.383
X116.078Y-169.557
X116.078Y-174.383
X118.618Y-169.557
X118.618Y-174.383
X121.158Y-169.557
X121.158Y-174.383
X123.698Y-169.557
X123.698Y-174.383
X126.238Y-169.557
X126.238Y-174.383
X128.778Y-169.557
X128.778Y-174.383
X131.318Y-169.557
X131.318Y-174.383
X133.858Y-169.557
X133.858Y-174.383
T6
X28.067Y-203.752
X36.703Y-203.752
X182.372Y-202.799
X182.372Y-206.863
T7
X28.851Y-166.919
X28.851Y-170.879
X28.851Y-174.839
X28.851Y-178.799
T8
X104.428Y-41.507
X104.428Y-67.415
T9
X33.596Y-38.937
X33.596Y-63.937
X33.596Y-129.869
X33.596Y-154.869
T10
X89.728Y-171.958
X142.428Y-171.958
T11
X51.088Y-71.479
T12
X37.592Y-29.349
X51.816Y-213.245
X116.112Y-158.347
X182.152Y-219.561
X183.422Y-32.871
T2
G00X28.067Y-198.994
M15
G01X28.067Y-194.794
M16
G05
G00X28.067Y-212.71
M15
G01X28.067Y-208.51
M16
G05
G00X29.912Y-187.845
M15
G01X35.112Y-187.845
M16
G05
G00X29.912Y-219.595
M15
G01X35.112Y-219.595
M16
G05
G00X36.703Y-198.994
M15
G01X36.703Y-194.794
M16
G05
G00X36.703Y-212.71
M15
G01X36.703Y-208.51
M16
G05
G00X44.468Y-43.633
M15
G01X44.468Y-38.433
M16
G05
G00X51.502Y-78.135
M15
G01X56.702Y-78.135
M16
G05
G00X103.318Y-25.049
M15
G01X108.518Y-25.049
M16
G05
G00X103.318Y-78.117
M15
G01X108.518Y-78.117
M16
G05
G00X115.316Y-65.223
M15
G01X115.316Y-60.023
M16
G05
T0
M30
