%TF.GenerationSoftware,KiCad,Pcbnew,6.0.11-2627ca5db0~126~ubuntu22.04.1*%
%TF.CreationDate,2023-05-23T18:06:28-04:00*%
%TF.ProjectId,coleco_original_main_only,636f6c65-636f-45f6-9f72-6967696e616c,DEV*%
%TF.SameCoordinates,Original*%
%TF.FileFunction,Other,User*%
%FSLAX46Y46*%
G04 Gerber Fmt 4.6, Leading zero omitted, Abs format (unit mm)*
G04 Created by KiCad (PCBNEW 6.0.11-2627ca5db0~126~ubuntu22.04.1) date 2023-05-23 18:06:28*
%MOMM*%
%LPD*%
G01*
G04 APERTURE LIST*
%ADD10C,0.800000*%
G04 APERTURE END LIST*
D10*
X166116000Y-218579000D02*
X166116000Y-230517000D01*
X166116000Y-230517000D02*
X166116000Y-230771000D01*
X168402000Y-22237000D02*
X168402000Y-17157000D01*
X67818000Y-231025000D02*
X67818000Y-218833000D01*
X67818000Y-218833000D02*
X77470000Y-218833000D01*
X67310000Y-16903000D02*
X23368000Y-16903000D01*
X156718000Y-230771000D02*
X156718000Y-218579000D01*
X95250000Y-23473000D02*
X67310000Y-23473000D01*
X77470000Y-218833000D02*
X77470000Y-230771000D01*
X77470000Y-230517000D02*
X77470000Y-230771000D01*
X191042000Y-16903000D02*
X168402000Y-16903000D01*
X67310000Y-23473000D02*
X67310000Y-16903000D01*
X67056000Y-231787000D02*
X67818000Y-231025000D01*
X156718000Y-218579000D02*
X166116000Y-218579000D01*
X95250000Y-16903000D02*
X95250000Y-23473000D01*
X168658470Y-17157000D02*
X168656000Y-22237000D01*
X192786000Y-22745000D02*
X192786000Y-16903000D01*
X155736000Y-231753000D02*
X156718000Y-230771000D01*
X166116000Y-230771000D02*
X167132000Y-231787000D01*
X192786000Y-22745000D02*
X189738000Y-22745000D01*
X167132000Y-231787000D02*
X192786000Y-231787000D01*
X23368000Y-16903000D02*
X23402000Y-230229000D01*
X23368000Y-231787000D02*
X67056000Y-231787000D01*
X168402000Y-16903000D02*
X95250000Y-16903000D01*
X78520000Y-231753000D02*
X77470000Y-230771000D01*
X192786000Y-231787000D02*
X192786000Y-22745000D01*
X78520000Y-231753000D02*
X155736000Y-231753000D01*
M02*
