%TF.GenerationSoftware,KiCad,Pcbnew,7.0.11-7.0.11~ubuntu22.04.1*%
%TF.CreationDate,2024-12-01T20:45:21-05:00*%
%TF.ProjectId,coleco_original_main_only,636f6c65-636f-45f6-9f72-6967696e616c,DEV*%
%TF.SameCoordinates,Original*%
%TF.FileFunction,Legend,Bot*%
%TF.FilePolarity,Positive*%
%FSLAX46Y46*%
G04 Gerber Fmt 4.6, Leading zero omitted, Abs format (unit mm)*
G04 Created by KiCad (PCBNEW 7.0.11-7.0.11~ubuntu22.04.1) date 2024-12-01 20:45:21*
%MOMM*%
%LPD*%
G01*
G04 APERTURE LIST*
%ADD10C,0.150000*%
%ADD11C,0.120000*%
G04 APERTURE END LIST*
D10*
X121578019Y-141875866D02*
X122292304Y-141875866D01*
X122292304Y-141875866D02*
X122435161Y-141828247D01*
X122435161Y-141828247D02*
X122530400Y-141733009D01*
X122530400Y-141733009D02*
X122578019Y-141590152D01*
X122578019Y-141590152D02*
X122578019Y-141494914D01*
X122578019Y-142352057D02*
X121578019Y-142352057D01*
X121578019Y-142352057D02*
X121578019Y-142733009D01*
X121578019Y-142733009D02*
X121625638Y-142828247D01*
X121625638Y-142828247D02*
X121673257Y-142875866D01*
X121673257Y-142875866D02*
X121768495Y-142923485D01*
X121768495Y-142923485D02*
X121911352Y-142923485D01*
X121911352Y-142923485D02*
X122006590Y-142875866D01*
X122006590Y-142875866D02*
X122054209Y-142828247D01*
X122054209Y-142828247D02*
X122101828Y-142733009D01*
X122101828Y-142733009D02*
X122101828Y-142352057D01*
X121673257Y-143304438D02*
X121625638Y-143352057D01*
X121625638Y-143352057D02*
X121578019Y-143447295D01*
X121578019Y-143447295D02*
X121578019Y-143685390D01*
X121578019Y-143685390D02*
X121625638Y-143780628D01*
X121625638Y-143780628D02*
X121673257Y-143828247D01*
X121673257Y-143828247D02*
X121768495Y-143875866D01*
X121768495Y-143875866D02*
X121863733Y-143875866D01*
X121863733Y-143875866D02*
X122006590Y-143828247D01*
X122006590Y-143828247D02*
X122578019Y-143256819D01*
X122578019Y-143256819D02*
X122578019Y-143875866D01*
X100242019Y-144415866D02*
X100956304Y-144415866D01*
X100956304Y-144415866D02*
X101099161Y-144368247D01*
X101099161Y-144368247D02*
X101194400Y-144273009D01*
X101194400Y-144273009D02*
X101242019Y-144130152D01*
X101242019Y-144130152D02*
X101242019Y-144034914D01*
X101242019Y-144892057D02*
X100242019Y-144892057D01*
X100242019Y-144892057D02*
X100242019Y-145273009D01*
X100242019Y-145273009D02*
X100289638Y-145368247D01*
X100289638Y-145368247D02*
X100337257Y-145415866D01*
X100337257Y-145415866D02*
X100432495Y-145463485D01*
X100432495Y-145463485D02*
X100575352Y-145463485D01*
X100575352Y-145463485D02*
X100670590Y-145415866D01*
X100670590Y-145415866D02*
X100718209Y-145368247D01*
X100718209Y-145368247D02*
X100765828Y-145273009D01*
X100765828Y-145273009D02*
X100765828Y-144892057D01*
X101242019Y-146415866D02*
X101242019Y-145844438D01*
X101242019Y-146130152D02*
X100242019Y-146130152D01*
X100242019Y-146130152D02*
X100384876Y-146034914D01*
X100384876Y-146034914D02*
X100480114Y-145939676D01*
X100480114Y-145939676D02*
X100527733Y-145844438D01*
D11*
%TO.C,JP2*%
X121091200Y-140931200D02*
X119091200Y-140931200D01*
X119091200Y-140931200D02*
X119091200Y-143979200D01*
X121091200Y-143979200D02*
X121091200Y-140931200D01*
X119091200Y-143979200D02*
X121091200Y-143979200D01*
%TO.C,JP1*%
X104073200Y-143725200D02*
X102073200Y-143725200D01*
X102073200Y-143725200D02*
X102073200Y-146773200D01*
X104073200Y-146773200D02*
X104073200Y-143725200D01*
X102073200Y-146773200D02*
X104073200Y-146773200D01*
%TD*%
M02*
