%TF.GenerationSoftware,KiCad,Pcbnew,7.0.11-7.0.11~ubuntu22.04.1*%
%TF.CreationDate,2024-11-08T14:06:27-05:00*%
%TF.ProjectId,coleco_original_main_only,636f6c65-636f-45f6-9f72-6967696e616c,DEV*%
%TF.SameCoordinates,Original*%
%TF.FileFunction,Soldermask,Top*%
%TF.FilePolarity,Negative*%
%FSLAX46Y46*%
G04 Gerber Fmt 4.6, Leading zero omitted, Abs format (unit mm)*
G04 Created by KiCad (PCBNEW 7.0.11-7.0.11~ubuntu22.04.1) date 2024-11-08 14:06:27*
%MOMM*%
%LPD*%
G01*
G04 APERTURE LIST*
G04 Aperture macros list*
%AMRoundRect*
0 Rectangle with rounded corners*
0 $1 Rounding radius*
0 $2 $3 $4 $5 $6 $7 $8 $9 X,Y pos of 4 corners*
0 Add a 4 corners polygon primitive as box body*
4,1,4,$2,$3,$4,$5,$6,$7,$8,$9,$2,$3,0*
0 Add four circle primitives for the rounded corners*
1,1,$1+$1,$2,$3*
1,1,$1+$1,$4,$5*
1,1,$1+$1,$6,$7*
1,1,$1+$1,$8,$9*
0 Add four rect primitives between the rounded corners*
20,1,$1+$1,$2,$3,$4,$5,0*
20,1,$1+$1,$4,$5,$6,$7,0*
20,1,$1+$1,$6,$7,$8,$9,0*
20,1,$1+$1,$8,$9,$2,$3,0*%
G04 Aperture macros list end*
%ADD10C,1.600000*%
%ADD11R,1.600000X1.600000*%
%ADD12O,1.600000X1.600000*%
%ADD13R,1.600000X2.400000*%
%ADD14O,1.600000X2.400000*%
%ADD15C,3.800000*%
%ADD16R,1.500000X1.500000*%
%ADD17C,1.500000*%
%ADD18O,9.000000X5.000000*%
%ADD19C,2.000000*%
%ADD20O,2.000000X2.000000*%
%ADD21C,4.000000*%
%ADD22R,2.032000X9.906000*%
%ADD23R,1.524000X9.906000*%
%ADD24C,2.300000*%
%ADD25C,2.500000*%
%ADD26C,11.000000*%
%ADD27C,2.200000*%
%ADD28O,2.200000X2.200000*%
%ADD29C,7.000000*%
%ADD30O,4.000000X7.000000*%
%ADD31C,3.500000*%
%ADD32RoundRect,0.250000X-1.800000X1.330000X-1.800000X-1.330000X1.800000X-1.330000X1.800000X1.330000X0*%
%ADD33O,4.100000X3.160000*%
%ADD34O,1.500000X2.000000*%
%ADD35C,4.875000*%
%ADD36O,5.000000X9.000000*%
%ADD37R,1.700000X1.700000*%
%ADD38O,1.700000X1.700000*%
G04 APERTURE END LIST*
D10*
%TO.C,C46*%
X38862000Y-165787000D03*
X38862000Y-170787000D03*
%TD*%
D11*
%TO.C,CR1*%
X61214000Y-178701000D03*
D12*
X61214000Y-168541000D03*
%TD*%
D10*
%TO.C,R23*%
X73660000Y-136791000D03*
D12*
X73660000Y-146951000D03*
%TD*%
D13*
%TO.C,U1*%
X140203000Y-185833000D03*
D14*
X137663000Y-185833000D03*
X135123000Y-185833000D03*
X132583000Y-185833000D03*
X130043000Y-185833000D03*
X127503000Y-185833000D03*
X124963000Y-185833000D03*
X122423000Y-185833000D03*
X119883000Y-185833000D03*
X117343000Y-185833000D03*
X114803000Y-185833000D03*
X112263000Y-185833000D03*
X109723000Y-185833000D03*
X107183000Y-185833000D03*
X104643000Y-185833000D03*
X102103000Y-185833000D03*
X99563000Y-185833000D03*
X97023000Y-185833000D03*
X94483000Y-185833000D03*
X91943000Y-185833000D03*
X91943000Y-201073000D03*
X94483000Y-201073000D03*
X97023000Y-201073000D03*
X99563000Y-201073000D03*
X102103000Y-201073000D03*
X104643000Y-201073000D03*
X107183000Y-201073000D03*
X109723000Y-201073000D03*
X112263000Y-201073000D03*
X114803000Y-201073000D03*
X117343000Y-201073000D03*
X119883000Y-201073000D03*
X122423000Y-201073000D03*
X124963000Y-201073000D03*
X127503000Y-201073000D03*
X130043000Y-201073000D03*
X132583000Y-201073000D03*
X135123000Y-201073000D03*
X137663000Y-201073000D03*
X140203000Y-201073000D03*
%TD*%
D10*
%TO.C,C92*%
X173014000Y-157619000D03*
X178014000Y-157619000D03*
%TD*%
%TO.C,C103*%
X86360000Y-152071000D03*
X86360000Y-157071000D03*
%TD*%
%TO.C,R39*%
X160528000Y-136537000D03*
D12*
X170688000Y-136537000D03*
%TD*%
D10*
%TO.C,C49*%
X55372000Y-196989000D03*
X55372000Y-201989000D03*
%TD*%
%TO.C,C31*%
X150622000Y-68759000D03*
X150622000Y-73759000D03*
%TD*%
D15*
%TO.C,H14*%
X104174000Y-67669000D03*
%TD*%
D10*
%TO.C,R13*%
X167132000Y-139585000D03*
D12*
X177292000Y-139585000D03*
%TD*%
D10*
%TO.C,C90*%
X162132000Y-154063000D03*
X167132000Y-154063000D03*
%TD*%
D16*
%TO.C,Q4*%
X73914000Y-84213000D03*
D17*
X76454000Y-86753000D03*
X73914000Y-89293000D03*
%TD*%
D10*
%TO.C,C1*%
X178562000Y-173407000D03*
X178562000Y-178407000D03*
%TD*%
%TO.C,C91*%
X162092000Y-157619000D03*
X167092000Y-157619000D03*
%TD*%
%TO.C,C65*%
X57110000Y-151777000D03*
X52110000Y-151777000D03*
%TD*%
D11*
%TO.C,U2*%
X123688000Y-122562000D03*
D12*
X121148000Y-122562000D03*
X118608000Y-122562000D03*
X116068000Y-122562000D03*
X113528000Y-122562000D03*
X110988000Y-122562000D03*
X108448000Y-122562000D03*
X105908000Y-122562000D03*
X103368000Y-122562000D03*
X100828000Y-122562000D03*
X98288000Y-122562000D03*
X95748000Y-122562000D03*
X93208000Y-122562000D03*
X90668000Y-122562000D03*
X90668000Y-137802000D03*
X93208000Y-137802000D03*
X95748000Y-137802000D03*
X98288000Y-137802000D03*
X100828000Y-137802000D03*
X103368000Y-137802000D03*
X105908000Y-137802000D03*
X108448000Y-137802000D03*
X110988000Y-137802000D03*
X113528000Y-137802000D03*
X116068000Y-137802000D03*
X118608000Y-137802000D03*
X121148000Y-137802000D03*
X123688000Y-137802000D03*
%TD*%
D10*
%TO.C,C8*%
X62992000Y-185853000D03*
X62992000Y-190853000D03*
%TD*%
D18*
%TO.C,H7*%
X32258000Y-219849000D03*
%TD*%
D19*
%TO.C,L17*%
X175656000Y-132473000D03*
D20*
X168036000Y-132473000D03*
%TD*%
D21*
%TO.C,J5*%
X33342331Y-39191000D03*
X33342331Y-64191000D03*
D11*
X34762331Y-46151000D03*
D10*
X34762331Y-48921000D03*
X34762331Y-51691000D03*
X34762331Y-54461000D03*
X34762331Y-57231000D03*
X31922331Y-47536000D03*
X31922331Y-50306000D03*
X31922331Y-53076000D03*
X31922331Y-55846000D03*
%TD*%
D18*
%TO.C,H12*%
X105664000Y-78371000D03*
%TD*%
D11*
%TO.C,C36*%
X97536000Y-80773094D03*
D10*
X97536000Y-85773094D03*
%TD*%
D11*
%TO.C,UR25*%
X40132000Y-80921000D03*
D12*
X40132000Y-78381000D03*
X40132000Y-75841000D03*
X40132000Y-73301000D03*
X40132000Y-70761000D03*
X40132000Y-68221000D03*
X40132000Y-65681000D03*
X40132000Y-63141000D03*
%TD*%
D10*
%TO.C,C48*%
X38862000Y-175439000D03*
X38862000Y-180439000D03*
%TD*%
%TO.C,R8*%
X162560000Y-196735000D03*
D12*
X162560000Y-206895000D03*
%TD*%
D10*
%TO.C,R67*%
X31242000Y-81419000D03*
D12*
X31242000Y-71259000D03*
%TD*%
D10*
%TO.C,R34*%
X74168000Y-104533000D03*
D12*
X74168000Y-94373000D03*
%TD*%
D10*
%TO.C,C4*%
X170434000Y-142633000D03*
X175434000Y-142633000D03*
%TD*%
%TO.C,C11*%
X183134000Y-189583000D03*
X183134000Y-184583000D03*
%TD*%
%TO.C,C50*%
X55372000Y-179463000D03*
X55372000Y-184463000D03*
%TD*%
%TO.C,R48*%
X63026000Y-68431000D03*
D12*
X73186000Y-68431000D03*
%TD*%
D22*
%TO.C,J2*%
X80010000Y-225437000D03*
X82042000Y-225437000D03*
D23*
X84836000Y-225437000D03*
X87376000Y-225437000D03*
X89916000Y-225437000D03*
X92456000Y-225437000D03*
X94996000Y-225437000D03*
X97536000Y-225437000D03*
X100076000Y-225437000D03*
X102616000Y-225437000D03*
X105156000Y-225437000D03*
X107696000Y-225437000D03*
X110236000Y-225437000D03*
X112776000Y-225437000D03*
X115316000Y-225437000D03*
X117856000Y-225437000D03*
X120396000Y-225437000D03*
X122936000Y-225437000D03*
X125476000Y-225437000D03*
X128016000Y-225437000D03*
X130556000Y-225437000D03*
X133096000Y-225437000D03*
X135636000Y-225437000D03*
X138176000Y-225437000D03*
X140716000Y-225437000D03*
X143256000Y-225437000D03*
X145796000Y-225437000D03*
X148336000Y-225437000D03*
X150876000Y-225437000D03*
X153416000Y-225437000D03*
%TD*%
D10*
%TO.C,R35*%
X158496000Y-191401000D03*
D12*
X158496000Y-181241000D03*
%TD*%
D10*
%TO.C,C100*%
X94782000Y-40017000D03*
X99782000Y-40017000D03*
%TD*%
%TO.C,C40*%
X119380000Y-71045000D03*
X119380000Y-76045000D03*
%TD*%
%TO.C,R72*%
X62738000Y-95643000D03*
D12*
X62738000Y-105803000D03*
%TD*%
D13*
%TO.C,U24*%
X68834000Y-157365000D03*
D14*
X66294000Y-157365000D03*
X63754000Y-157365000D03*
X61214000Y-157365000D03*
X58674000Y-157365000D03*
X56134000Y-157365000D03*
X53594000Y-157365000D03*
X53594000Y-164985000D03*
X56134000Y-164985000D03*
X58674000Y-164985000D03*
X61214000Y-164985000D03*
X63754000Y-164985000D03*
X66294000Y-164985000D03*
X68834000Y-164985000D03*
%TD*%
D13*
%TO.C,U7*%
X178562000Y-183273000D03*
D14*
X176022000Y-183273000D03*
X173482000Y-183273000D03*
X170942000Y-183273000D03*
X168402000Y-183273000D03*
X165862000Y-183273000D03*
X163322000Y-183273000D03*
X163322000Y-190893000D03*
X165862000Y-190893000D03*
X168402000Y-190893000D03*
X170942000Y-190893000D03*
X173482000Y-190893000D03*
X176022000Y-190893000D03*
X178562000Y-190893000D03*
%TD*%
D13*
%TO.C,U6*%
X173467000Y-120774000D03*
D14*
X170927000Y-120774000D03*
X168387000Y-120774000D03*
X165847000Y-120774000D03*
X163307000Y-120774000D03*
X160767000Y-120774000D03*
X158227000Y-120774000D03*
X155687000Y-120774000D03*
X155687000Y-128394000D03*
X158227000Y-128394000D03*
X160767000Y-128394000D03*
X163307000Y-128394000D03*
X165847000Y-128394000D03*
X168387000Y-128394000D03*
X170927000Y-128394000D03*
X173467000Y-128394000D03*
%TD*%
D10*
%TO.C,C2*%
X81534000Y-198513000D03*
X76534000Y-198513000D03*
%TD*%
D24*
%TO.C,S1*%
X177292000Y-205085000D03*
X186944000Y-205085000D03*
D17*
X179578000Y-203053000D03*
D25*
X182118000Y-203053000D03*
D17*
X184658000Y-203053000D03*
X179578000Y-205085000D03*
D25*
X182118000Y-207117000D03*
D17*
X184658000Y-205085000D03*
X179578000Y-207117000D03*
X184658000Y-207117000D03*
%TD*%
D19*
%TO.C,L9*%
X138572000Y-34683000D03*
D20*
X130952000Y-34683000D03*
%TD*%
D26*
%TO.C,H5*%
X115858000Y-158601000D03*
%TD*%
D10*
%TO.C,C60*%
X81066000Y-82435000D03*
X86066000Y-82435000D03*
%TD*%
%TO.C,R14*%
X79248000Y-207657000D03*
D12*
X69088000Y-207657000D03*
%TD*%
D10*
%TO.C,R49*%
X73152000Y-71513000D03*
D12*
X62992000Y-71513000D03*
%TD*%
D13*
%TO.C,U22*%
X180853000Y-160906000D03*
D14*
X178313000Y-160906000D03*
X175773000Y-160906000D03*
X173233000Y-160906000D03*
X170693000Y-160906000D03*
X168153000Y-160906000D03*
X165613000Y-160906000D03*
X165613000Y-168526000D03*
X168153000Y-168526000D03*
X170693000Y-168526000D03*
X173233000Y-168526000D03*
X175773000Y-168526000D03*
X178313000Y-168526000D03*
X180853000Y-168526000D03*
%TD*%
D10*
%TO.C,C26*%
X178816000Y-58853000D03*
X178816000Y-63853000D03*
%TD*%
%TO.C,R19*%
X70358000Y-94373000D03*
D12*
X70358000Y-104533000D03*
%TD*%
D27*
%TO.C,L5*%
X50292000Y-201815000D03*
D28*
X50292000Y-176415000D03*
%TD*%
D10*
%TO.C,R25*%
X74168000Y-128663000D03*
D12*
X74168000Y-118503000D03*
%TD*%
D10*
%TO.C,C32*%
X119380000Y-46153000D03*
X119380000Y-51153000D03*
%TD*%
D29*
%TO.C,H13*%
X50834000Y-71733000D03*
%TD*%
D10*
%TO.C,C28*%
X150622000Y-56313000D03*
X150622000Y-61313000D03*
%TD*%
%TO.C,R12*%
X75184000Y-202577000D03*
D12*
X65024000Y-202577000D03*
%TD*%
D10*
%TO.C,C64*%
X80518000Y-38961000D03*
X80518000Y-33961000D03*
%TD*%
%TO.C,C37*%
X119380000Y-58559000D03*
X119380000Y-63559000D03*
%TD*%
D26*
%TO.C,H1*%
X51562000Y-213499000D03*
%TD*%
D19*
%TO.C,L2*%
X100442000Y-93103000D03*
D20*
X108062000Y-93103000D03*
%TD*%
D18*
%TO.C,H10*%
X53848000Y-78389000D03*
%TD*%
D11*
%TO.C,C87*%
X107551774Y-58051000D03*
D10*
X110051774Y-58051000D03*
%TD*%
%TO.C,R62*%
X159004000Y-149491000D03*
D12*
X159004000Y-159651000D03*
%TD*%
D16*
%TO.C,Q6*%
X74176000Y-36715000D03*
D17*
X71636000Y-34175000D03*
X74176000Y-31635000D03*
%TD*%
D10*
%TO.C,R75*%
X174752000Y-177177000D03*
D12*
X164592000Y-177177000D03*
%TD*%
D21*
%TO.C,J6*%
X33342331Y-130123000D03*
X33342331Y-155123000D03*
D11*
X34762331Y-137083000D03*
D10*
X34762331Y-139853000D03*
X34762331Y-142623000D03*
X34762331Y-145393000D03*
X34762331Y-148163000D03*
X31922331Y-138468000D03*
X31922331Y-141238000D03*
X31922331Y-144008000D03*
X31922331Y-146778000D03*
%TD*%
%TO.C,R26*%
X131318000Y-213245000D03*
D12*
X121158000Y-213245000D03*
%TD*%
D10*
%TO.C,C102*%
X67818000Y-83959000D03*
X67818000Y-88959000D03*
%TD*%
D19*
%TO.C,L3*%
X111872000Y-93103000D03*
D20*
X119492000Y-93103000D03*
%TD*%
D13*
%TO.C,U8*%
X150119000Y-151762000D03*
D14*
X147579000Y-151762000D03*
X145039000Y-151762000D03*
X142499000Y-151762000D03*
X139959000Y-151762000D03*
X137419000Y-151762000D03*
X134879000Y-151762000D03*
X134879000Y-159382000D03*
X137419000Y-159382000D03*
X139959000Y-159382000D03*
X142499000Y-159382000D03*
X145039000Y-159382000D03*
X147579000Y-159382000D03*
X150119000Y-159382000D03*
%TD*%
D10*
%TO.C,R55*%
X60960000Y-57543000D03*
D12*
X60960000Y-47383000D03*
%TD*%
D10*
%TO.C,R43*%
X68834000Y-29857000D03*
D12*
X68834000Y-40017000D03*
%TD*%
D30*
%TO.C,S2*%
X36449000Y-210864000D03*
D31*
X36449000Y-204006000D03*
D30*
X36449000Y-197148000D03*
X27813000Y-210864000D03*
D31*
X27813000Y-204006000D03*
D30*
X27813000Y-197148000D03*
%TD*%
D11*
%TO.C,C34*%
X106172000Y-83071423D03*
D10*
X106172000Y-88071423D03*
%TD*%
%TO.C,WJ3*%
X82042000Y-86499000D03*
D12*
X82042000Y-101739000D03*
%TD*%
D10*
%TO.C,R60*%
X179324000Y-128663000D03*
D12*
X179324000Y-118503000D03*
%TD*%
D10*
%TO.C,C24*%
X146304000Y-59107000D03*
X146304000Y-64107000D03*
%TD*%
%TO.C,R71*%
X78486000Y-134759000D03*
D12*
X78486000Y-144919000D03*
%TD*%
D13*
%TO.C,U4*%
X151120000Y-135760000D03*
D14*
X148580000Y-135760000D03*
X146040000Y-135760000D03*
X143500000Y-135760000D03*
X140960000Y-135760000D03*
X138420000Y-135760000D03*
X135880000Y-135760000D03*
X133340000Y-135760000D03*
X130800000Y-135760000D03*
X130800000Y-143380000D03*
X133340000Y-143380000D03*
X135880000Y-143380000D03*
X138420000Y-143380000D03*
X140960000Y-143380000D03*
X143500000Y-143380000D03*
X146040000Y-143380000D03*
X148580000Y-143380000D03*
X151120000Y-143380000D03*
%TD*%
D10*
%TO.C,R17*%
X154940000Y-196989000D03*
D12*
X154940000Y-186829000D03*
%TD*%
D10*
%TO.C,C22*%
X150622000Y-43827000D03*
X150622000Y-48827000D03*
%TD*%
%TO.C,R69*%
X66548000Y-104533000D03*
D12*
X66548000Y-94373000D03*
%TD*%
D11*
%TO.C,C68*%
X72624698Y-42557000D03*
D10*
X77624698Y-42557000D03*
%TD*%
%TO.C,C29*%
X178816000Y-71299000D03*
X178816000Y-76299000D03*
%TD*%
%TO.C,C42*%
X115824000Y-88491000D03*
X115824000Y-83491000D03*
%TD*%
D13*
%TO.C,U20*%
X94757000Y-113438000D03*
D14*
X97297000Y-113438000D03*
X99837000Y-113438000D03*
X102377000Y-113438000D03*
X104917000Y-113438000D03*
X107457000Y-113438000D03*
X109997000Y-113438000D03*
X112537000Y-113438000D03*
X112537000Y-105818000D03*
X109997000Y-105818000D03*
X107457000Y-105818000D03*
X104917000Y-105818000D03*
X102377000Y-105818000D03*
X99837000Y-105818000D03*
X97297000Y-105818000D03*
X94757000Y-105818000D03*
%TD*%
D10*
%TO.C,R22*%
X66548000Y-118503000D03*
D12*
X66548000Y-128663000D03*
%TD*%
D13*
%TO.C,U3*%
X151120000Y-122298000D03*
D14*
X148580000Y-122298000D03*
X146040000Y-122298000D03*
X143500000Y-122298000D03*
X140960000Y-122298000D03*
X138420000Y-122298000D03*
X135880000Y-122298000D03*
X133340000Y-122298000D03*
X130800000Y-122298000D03*
X130800000Y-129918000D03*
X133340000Y-129918000D03*
X135880000Y-129918000D03*
X138420000Y-129918000D03*
X140960000Y-129918000D03*
X143500000Y-129918000D03*
X146040000Y-129918000D03*
X148580000Y-129918000D03*
X151120000Y-129918000D03*
%TD*%
D13*
%TO.C,U19*%
X53848000Y-84721000D03*
D14*
X51308000Y-84721000D03*
X48768000Y-84721000D03*
X46228000Y-84721000D03*
X43688000Y-84721000D03*
X41148000Y-84721000D03*
X38608000Y-84721000D03*
X36068000Y-84721000D03*
X33528000Y-84721000D03*
X30988000Y-84721000D03*
X30988000Y-92341000D03*
X33528000Y-92341000D03*
X36068000Y-92341000D03*
X38608000Y-92341000D03*
X41148000Y-92341000D03*
X43688000Y-92341000D03*
X46228000Y-92341000D03*
X48768000Y-92341000D03*
X51308000Y-92341000D03*
X53848000Y-92341000D03*
%TD*%
D17*
%TO.C,Y1*%
X172410000Y-172859000D03*
X167530000Y-172859000D03*
%TD*%
D10*
%TO.C,C41*%
X112014000Y-83451000D03*
X112014000Y-88451000D03*
%TD*%
%TO.C,R5*%
X165642000Y-180225000D03*
D12*
X175802000Y-180225000D03*
%TD*%
D10*
%TO.C,R79*%
X74676000Y-60083000D03*
D12*
X64516000Y-60083000D03*
%TD*%
D10*
%TO.C,C21*%
X146050000Y-46621000D03*
X146050000Y-51621000D03*
%TD*%
%TO.C,C99*%
X55372000Y-140601000D03*
X55372000Y-145601000D03*
%TD*%
%TO.C,C13*%
X156718000Y-138609000D03*
X156718000Y-143609000D03*
%TD*%
%TO.C,C57*%
X108712000Y-52169000D03*
X108712000Y-47169000D03*
%TD*%
D16*
%TO.C,Q3*%
X78732000Y-60591000D03*
D17*
X81272000Y-63131000D03*
X78732000Y-65671000D03*
%TD*%
D10*
%TO.C,C30*%
X146338000Y-83959000D03*
X146338000Y-88959000D03*
%TD*%
%TO.C,R10*%
X158496000Y-206895000D03*
D12*
X158496000Y-196735000D03*
%TD*%
D10*
%TO.C,R15*%
X150622000Y-187845000D03*
D12*
X150622000Y-198005000D03*
%TD*%
D10*
%TO.C,R76*%
X86360000Y-46621000D03*
D12*
X86360000Y-56781000D03*
%TD*%
D10*
%TO.C,R21*%
X70358000Y-128663000D03*
D12*
X70358000Y-118503000D03*
%TD*%
D10*
%TO.C,C70*%
X161544000Y-168033000D03*
X161544000Y-173033000D03*
%TD*%
D15*
%TO.C,H15*%
X104174000Y-41761000D03*
%TD*%
D11*
%TO.C,UR26*%
X51562000Y-120027000D03*
D12*
X49022000Y-120027000D03*
X46482000Y-120027000D03*
X43942000Y-120027000D03*
X41402000Y-120027000D03*
X38862000Y-120027000D03*
X36322000Y-120027000D03*
X33782000Y-120027000D03*
%TD*%
D13*
%TO.C,U23*%
X81285000Y-48638000D03*
D14*
X78745000Y-48638000D03*
X76205000Y-48638000D03*
X73665000Y-48638000D03*
X71125000Y-48638000D03*
X68585000Y-48638000D03*
X66045000Y-48638000D03*
X66045000Y-56258000D03*
X68585000Y-56258000D03*
X71125000Y-56258000D03*
X73665000Y-56258000D03*
X76205000Y-56258000D03*
X78745000Y-56258000D03*
X81285000Y-56258000D03*
%TD*%
D13*
%TO.C,U18*%
X30988000Y-115201000D03*
D14*
X33528000Y-115201000D03*
X36068000Y-115201000D03*
X38608000Y-115201000D03*
X41148000Y-115201000D03*
X43688000Y-115201000D03*
X46228000Y-115201000D03*
X48768000Y-115201000D03*
X51308000Y-115201000D03*
X53848000Y-115201000D03*
X53848000Y-107581000D03*
X51308000Y-107581000D03*
X48768000Y-107581000D03*
X46228000Y-107581000D03*
X43688000Y-107581000D03*
X41148000Y-107581000D03*
X38608000Y-107581000D03*
X36068000Y-107581000D03*
X33528000Y-107581000D03*
X30988000Y-107581000D03*
%TD*%
D13*
%TO.C,U10*%
X173751000Y-56263000D03*
D14*
X171211000Y-56263000D03*
X168671000Y-56263000D03*
X166131000Y-56263000D03*
X163591000Y-56263000D03*
X161051000Y-56263000D03*
X158511000Y-56263000D03*
X155971000Y-56263000D03*
X155971000Y-63883000D03*
X158511000Y-63883000D03*
X161051000Y-63883000D03*
X163591000Y-63883000D03*
X166131000Y-63883000D03*
X168671000Y-63883000D03*
X171211000Y-63883000D03*
X173751000Y-63883000D03*
%TD*%
D26*
%TO.C,H2*%
X37338000Y-29603000D03*
%TD*%
D32*
%TO.C,J0*%
X28597000Y-167173000D03*
D33*
X28597000Y-171133000D03*
X28597000Y-175093000D03*
X28597000Y-179053000D03*
%TD*%
D10*
%TO.C,C10*%
X59182000Y-92047000D03*
X59182000Y-87047000D03*
%TD*%
D19*
%TO.C,L14*%
X177434000Y-153301000D03*
D20*
X169814000Y-153301000D03*
%TD*%
D10*
%TO.C,C104*%
X46228000Y-159611000D03*
X46228000Y-154611000D03*
%TD*%
D11*
%TO.C,CR2*%
X69088000Y-149237000D03*
D12*
X69088000Y-139077000D03*
%TD*%
D10*
%TO.C,C88*%
X128484000Y-28079000D03*
X123484000Y-28079000D03*
%TD*%
%TO.C,R78*%
X184658000Y-196989000D03*
D12*
X174498000Y-196989000D03*
%TD*%
D13*
%TO.C,U15*%
X141717000Y-43812000D03*
D14*
X139177000Y-43812000D03*
X136637000Y-43812000D03*
X134097000Y-43812000D03*
X131557000Y-43812000D03*
X129017000Y-43812000D03*
X126477000Y-43812000D03*
X123937000Y-43812000D03*
X123937000Y-51432000D03*
X126477000Y-51432000D03*
X129017000Y-51432000D03*
X131557000Y-51432000D03*
X134097000Y-51432000D03*
X136637000Y-51432000D03*
X139177000Y-51432000D03*
X141717000Y-51432000D03*
%TD*%
D10*
%TO.C,R20*%
X62738000Y-128663000D03*
D12*
X62738000Y-118503000D03*
%TD*%
D10*
%TO.C,R41*%
X100330000Y-72529000D03*
D12*
X110490000Y-72529000D03*
%TD*%
D10*
%TO.C,WJ2*%
X85852000Y-101739000D03*
D12*
X85852000Y-86499000D03*
%TD*%
D10*
%TO.C,R1*%
X65024000Y-178701000D03*
D12*
X65024000Y-168541000D03*
%TD*%
D10*
%TO.C,C12*%
X60452000Y-108931000D03*
X60452000Y-113931000D03*
%TD*%
%TO.C,R11*%
X167894000Y-145681000D03*
D12*
X178054000Y-145681000D03*
%TD*%
D10*
%TO.C,C23*%
X178816000Y-46407000D03*
X178816000Y-51407000D03*
%TD*%
%TO.C,C17*%
X66120000Y-113931000D03*
X71120000Y-113931000D03*
%TD*%
D18*
%TO.C,H11*%
X105664000Y-25303000D03*
%TD*%
D10*
%TO.C,C44*%
X178816000Y-83745000D03*
X178816000Y-88745000D03*
%TD*%
%TO.C,C89*%
X90932000Y-108637000D03*
X90932000Y-113637000D03*
%TD*%
%TO.C,R18*%
X91186000Y-50177000D03*
D12*
X91186000Y-60337000D03*
%TD*%
D16*
%TO.C,Q2*%
X163584000Y-147205000D03*
D17*
X161044000Y-144665000D03*
X163584000Y-142125000D03*
%TD*%
D10*
%TO.C,R24*%
X65532000Y-136283000D03*
D12*
X65532000Y-146443000D03*
%TD*%
D10*
%TO.C,C61*%
X57404000Y-168293000D03*
X57404000Y-173293000D03*
%TD*%
%TO.C,C9*%
X131098000Y-154357000D03*
X131098000Y-159357000D03*
%TD*%
%TO.C,C66*%
X89956000Y-45605000D03*
X94956000Y-45605000D03*
%TD*%
%TO.C,C69*%
X68909328Y-63893000D03*
X73909328Y-63893000D03*
%TD*%
D13*
%TO.C,U16*%
X141717000Y-81165000D03*
D14*
X139177000Y-81165000D03*
X136637000Y-81165000D03*
X134097000Y-81165000D03*
X131557000Y-81165000D03*
X129017000Y-81165000D03*
X126477000Y-81165000D03*
X123937000Y-81165000D03*
X123937000Y-88785000D03*
X126477000Y-88785000D03*
X129017000Y-88785000D03*
X131557000Y-88785000D03*
X134097000Y-88785000D03*
X136637000Y-88785000D03*
X139177000Y-88785000D03*
X141717000Y-88785000D03*
%TD*%
D13*
%TO.C,U5*%
X84059000Y-185798000D03*
D14*
X81519000Y-185798000D03*
X78979000Y-185798000D03*
X76439000Y-185798000D03*
X73899000Y-185798000D03*
X71359000Y-185798000D03*
X68819000Y-185798000D03*
X66279000Y-185798000D03*
X66279000Y-193418000D03*
X68819000Y-193418000D03*
X71359000Y-193418000D03*
X73899000Y-193418000D03*
X76439000Y-193418000D03*
X78979000Y-193418000D03*
X81519000Y-193418000D03*
X84059000Y-193418000D03*
%TD*%
D10*
%TO.C,WJ1*%
X146812000Y-162445000D03*
D12*
X162052000Y-162445000D03*
%TD*%
D19*
%TO.C,L8*%
X90170000Y-90167000D03*
D20*
X90170000Y-97787000D03*
%TD*%
D10*
%TO.C,R16*%
X72644000Y-167999000D03*
D12*
X72644000Y-178159000D03*
%TD*%
D26*
%TO.C,H4*%
X183168000Y-33125000D03*
%TD*%
D11*
%TO.C,C16*%
X85090000Y-108988349D03*
D10*
X85090000Y-113988349D03*
%TD*%
%TO.C,C45*%
X150622000Y-81205000D03*
X150622000Y-86205000D03*
%TD*%
%TO.C,R37*%
X59690000Y-192163000D03*
D12*
X59690000Y-182003000D03*
%TD*%
D19*
%TO.C,L15*%
X95250000Y-90167000D03*
D20*
X95250000Y-97787000D03*
%TD*%
D34*
%TO.C,J1*%
X98044000Y-169811000D03*
X98044000Y-174637000D03*
X100584000Y-169811000D03*
X100584000Y-174637000D03*
X103124000Y-169811000D03*
X103124000Y-174637000D03*
X105664000Y-169811000D03*
X105664000Y-174637000D03*
X108204000Y-169811000D03*
X108204000Y-174637000D03*
X110744000Y-169811000D03*
X110744000Y-174637000D03*
X113284000Y-169811000D03*
X113284000Y-174637000D03*
X115824000Y-169811000D03*
X115824000Y-174637000D03*
X118364000Y-169811000D03*
X118364000Y-174637000D03*
X120904000Y-169811000D03*
X120904000Y-174637000D03*
X123444000Y-169811000D03*
X123444000Y-174637000D03*
X125984000Y-169811000D03*
X125984000Y-174637000D03*
X128524000Y-169811000D03*
X128524000Y-174637000D03*
X131064000Y-169811000D03*
X131064000Y-174637000D03*
X133604000Y-169811000D03*
X133604000Y-174637000D03*
D35*
X89474000Y-172212000D03*
X142174000Y-172212000D03*
%TD*%
D10*
%TO.C,R9*%
X173482000Y-202323000D03*
D12*
X173482000Y-212483000D03*
%TD*%
D13*
%TO.C,U9*%
X174493000Y-97167000D03*
D14*
X171953000Y-97167000D03*
X169413000Y-97167000D03*
X166873000Y-97167000D03*
X164333000Y-97167000D03*
X161793000Y-97167000D03*
X159253000Y-97167000D03*
X156713000Y-97167000D03*
X154173000Y-97167000D03*
X151633000Y-97167000D03*
X149093000Y-97167000D03*
X146553000Y-97167000D03*
X144013000Y-97167000D03*
X141473000Y-97167000D03*
X138933000Y-97167000D03*
X136393000Y-97167000D03*
X133853000Y-97167000D03*
X131313000Y-97167000D03*
X128773000Y-97167000D03*
X126233000Y-97167000D03*
X126233000Y-112407000D03*
X128773000Y-112407000D03*
X131313000Y-112407000D03*
X133853000Y-112407000D03*
X136393000Y-112407000D03*
X138933000Y-112407000D03*
X141473000Y-112407000D03*
X144013000Y-112407000D03*
X146553000Y-112407000D03*
X149093000Y-112407000D03*
X151633000Y-112407000D03*
X154173000Y-112407000D03*
X156713000Y-112407000D03*
X159253000Y-112407000D03*
X161793000Y-112407000D03*
X164333000Y-112407000D03*
X166873000Y-112407000D03*
X169413000Y-112407000D03*
X171953000Y-112407000D03*
X174493000Y-112407000D03*
%TD*%
D11*
%TO.C,C3*%
X168129255Y-212483000D03*
D10*
X163129255Y-212483000D03*
%TD*%
%TO.C,R65*%
X34798000Y-81419000D03*
D12*
X34798000Y-71259000D03*
%TD*%
D36*
%TO.C,H9*%
X44214000Y-41287000D03*
%TD*%
D10*
%TO.C,R61*%
X183422000Y-118469000D03*
D12*
X183422000Y-128629000D03*
%TD*%
D10*
%TO.C,C27*%
X146304000Y-71553000D03*
X146304000Y-76553000D03*
%TD*%
D27*
%TO.C,L6*%
X43688000Y-201815000D03*
D28*
X43688000Y-176415000D03*
%TD*%
D13*
%TO.C,U12*%
X173736000Y-81165000D03*
D14*
X171196000Y-81165000D03*
X168656000Y-81165000D03*
X166116000Y-81165000D03*
X163576000Y-81165000D03*
X161036000Y-81165000D03*
X158496000Y-81165000D03*
X155956000Y-81165000D03*
X155956000Y-88785000D03*
X158496000Y-88785000D03*
X161036000Y-88785000D03*
X163576000Y-88785000D03*
X166116000Y-88785000D03*
X168656000Y-88785000D03*
X171196000Y-88785000D03*
X173736000Y-88785000D03*
%TD*%
D13*
%TO.C,U13*%
X141717000Y-56263000D03*
D14*
X139177000Y-56263000D03*
X136637000Y-56263000D03*
X134097000Y-56263000D03*
X131557000Y-56263000D03*
X129017000Y-56263000D03*
X126477000Y-56263000D03*
X123937000Y-56263000D03*
X123937000Y-63883000D03*
X126477000Y-63883000D03*
X129017000Y-63883000D03*
X131557000Y-63883000D03*
X134097000Y-63883000D03*
X136637000Y-63883000D03*
X139177000Y-63883000D03*
X141717000Y-63883000D03*
%TD*%
D19*
%TO.C,L10*%
X99568000Y-54383000D03*
D20*
X99568000Y-46763000D03*
%TD*%
D10*
%TO.C,C43*%
X119634000Y-83491000D03*
X119634000Y-88491000D03*
%TD*%
D19*
%TO.C,L7*%
X146416000Y-29349000D03*
D20*
X154036000Y-29349000D03*
%TD*%
D10*
%TO.C,R70*%
X88392000Y-161175000D03*
D12*
X78232000Y-161175000D03*
%TD*%
D10*
%TO.C,R7*%
X166878000Y-196735000D03*
D12*
X166878000Y-206895000D03*
%TD*%
D37*
%TO.C,J4A1*%
X104140000Y-45874000D03*
D38*
X104140000Y-48414000D03*
X104140000Y-50954000D03*
X104140000Y-53494000D03*
X104140000Y-56034000D03*
X104140000Y-58574000D03*
X104140000Y-61114000D03*
X104140000Y-63654000D03*
%TD*%
D10*
%TO.C,C7*%
X127796000Y-154357000D03*
X127796000Y-159357000D03*
%TD*%
%TO.C,R77*%
X181610000Y-193941000D03*
D12*
X171450000Y-193941000D03*
%TD*%
D10*
%TO.C,R42*%
X85090000Y-41033000D03*
D12*
X85090000Y-30873000D03*
%TD*%
D10*
%TO.C,C101*%
X63754000Y-88999000D03*
X63754000Y-83999000D03*
%TD*%
%TO.C,C67*%
X94782000Y-59829000D03*
X99782000Y-59829000D03*
%TD*%
D13*
%TO.C,U11*%
X141717000Y-68714000D03*
D14*
X139177000Y-68714000D03*
X136637000Y-68714000D03*
X134097000Y-68714000D03*
X131557000Y-68714000D03*
X129017000Y-68714000D03*
X126477000Y-68714000D03*
X123937000Y-68714000D03*
X123937000Y-76334000D03*
X126477000Y-76334000D03*
X129017000Y-76334000D03*
X131557000Y-76334000D03*
X134097000Y-76334000D03*
X136637000Y-76334000D03*
X139177000Y-76334000D03*
X141717000Y-76334000D03*
%TD*%
D10*
%TO.C,C51*%
X55372000Y-193139000D03*
X55372000Y-188139000D03*
%TD*%
%TO.C,R6*%
X166878000Y-149237000D03*
D12*
X177038000Y-149237000D03*
%TD*%
D10*
%TO.C,C5*%
X176530000Y-136537000D03*
X181530000Y-136537000D03*
%TD*%
%TO.C,C19*%
X58674000Y-130655000D03*
X58674000Y-125655000D03*
%TD*%
D19*
%TO.C,L4*%
X43038000Y-170827000D03*
D20*
X50658000Y-170827000D03*
%TD*%
D10*
%TO.C,R27*%
X61468000Y-149237000D03*
D12*
X61468000Y-139077000D03*
%TD*%
D10*
%TO.C,R40*%
X91440000Y-39763000D03*
D12*
X91440000Y-29603000D03*
%TD*%
D10*
%TO.C,C98*%
X54610000Y-125655000D03*
X54610000Y-130655000D03*
%TD*%
%TO.C,C63*%
X94742000Y-69521000D03*
X94742000Y-74521000D03*
%TD*%
D36*
%TO.C,H8*%
X115062000Y-62877000D03*
%TD*%
D10*
%TO.C,C78*%
X109474000Y-64187000D03*
X109474000Y-69187000D03*
%TD*%
%TO.C,R73*%
X182880000Y-100723000D03*
D12*
X182880000Y-110883000D03*
%TD*%
D13*
%TO.C,U17*%
X173751000Y-43812000D03*
D14*
X171211000Y-43812000D03*
X168671000Y-43812000D03*
X166131000Y-43812000D03*
X163591000Y-43812000D03*
X161051000Y-43812000D03*
X158511000Y-43812000D03*
X155971000Y-43812000D03*
X155971000Y-51432000D03*
X158511000Y-51432000D03*
X161051000Y-51432000D03*
X163591000Y-51432000D03*
X166131000Y-51432000D03*
X168671000Y-51432000D03*
X171211000Y-51432000D03*
X173751000Y-51432000D03*
%TD*%
D18*
%TO.C,H6*%
X32258000Y-188099000D03*
%TD*%
D26*
%TO.C,H3*%
X182660000Y-219815000D03*
%TD*%
D10*
%TO.C,C62*%
X88392000Y-38453000D03*
X88392000Y-33453000D03*
%TD*%
D13*
%TO.C,U14*%
X173751000Y-68714000D03*
D14*
X171211000Y-68714000D03*
X168671000Y-68714000D03*
X166131000Y-68714000D03*
X163591000Y-68714000D03*
X161051000Y-68714000D03*
X158511000Y-68714000D03*
X155971000Y-68714000D03*
X155971000Y-76334000D03*
X158511000Y-76334000D03*
X161051000Y-76334000D03*
X163591000Y-76334000D03*
X166131000Y-76334000D03*
X168671000Y-76334000D03*
X171211000Y-76334000D03*
X173751000Y-76334000D03*
%TD*%
D11*
%TO.C,C106*%
X170034584Y-116471000D03*
D10*
X172534584Y-116471000D03*
%TD*%
%TO.C,WJ5*%
X105156000Y-146189000D03*
D12*
X120396000Y-146189000D03*
%TD*%
D10*
%TO.C,R64*%
X164084000Y-92849000D03*
D12*
X153924000Y-92849000D03*
%TD*%
D10*
%TO.C,C47*%
X35814000Y-173153000D03*
X35814000Y-178153000D03*
%TD*%
%TO.C,WJ4*%
X101854000Y-141871000D03*
D12*
X117094000Y-141871000D03*
%TD*%
D16*
%TO.C,Q5*%
X79240000Y-152031000D03*
D17*
X81780000Y-154571000D03*
X79240000Y-157111000D03*
%TD*%
M02*
