M48
; DRILL file {KiCad 6.0.11-2627ca5db0~126~ubuntu22.04.1} date Mon 22 May 2023 09:48:12 PM EDT
; FORMAT={-:-/ absolute / metric / decimal}
; #@! TF.CreationDate,2023-05-22T21:48:12-04:00
; #@! TF.GenerationSoftware,Kicad,Pcbnew,6.0.11-2627ca5db0~126~ubuntu22.04.1
; #@! TF.FileFunction,Plated,1,2,PTH
FMAT,2
METRIC
; #@! TA.AperFunction,Plated,PTH,ViaDrill
T1C0.559
; #@! TA.AperFunction,Plated,PTH,ComponentDrill
T2C0.800
; #@! TA.AperFunction,Plated,PTH,ViaDrill
T3C0.813
; #@! TA.AperFunction,Plated,PTH,ComponentDrill
T4C1.000
; #@! TA.AperFunction,Plated,PTH,ComponentDrill
T5C1.100
; #@! TA.AperFunction,Plated,PTH,ComponentDrill
T6C1.500
; #@! TA.AperFunction,Plated,PTH,ComponentDrill
T7C1.700
; #@! TA.AperFunction,Plated,PTH,ComponentDrill
T8C2.000
; #@! TA.AperFunction,Plated,PTH,ComponentDrill
T9C2.200
; #@! TA.AperFunction,Plated,PTH,ComponentDrill
T10C3.200
; #@! TA.AperFunction,Plated,PTH,ComponentDrill
T11C3.250
; #@! TA.AperFunction,Plated,PTH,ComponentDrill
T12C4.300
; #@! TA.AperFunction,Plated,PTH,ComponentDrill
T13C7.000
%
G90
G05
T1
X25.4Y-126.377
X26.196Y-70.209
X27.466Y-69.193
X27.796Y-126.325
X29.979Y-124.311
X33.308Y-125.581
X35.56Y-125.615
X37.626Y-61.065
X38.354Y-125.615
X38.388Y-136.249
X38.388Y-146.155
X41.91Y-61.607
X41.948Y-125.767
X46.262Y-141.329
X46.262Y-147.425
X51.088Y-147.425
X52.832Y-144.157
X56.422Y-128.663
X57.946Y-176.889
X64.55Y-126.089
X67.31Y-176.923
X67.664Y-173.975
X68.106Y-126.089
X69.85Y-175.145
X70.138Y-144.123
X70.939Y-82.108
X72.388Y-206.063
X72.39Y-97.167
X72.898Y-110.629
X72.932Y-112.627
X74.168Y-210.959
X75.946Y-121.297
X76.113Y-140.634
X76.857Y-177.028
X78.384Y-90.008
X78.486Y-91.833
X78.495Y-88.183
X80.806Y-171.555
X82.55Y-53.987
X87.476Y-181.461
X87.502Y-99.103
X87.676Y-196.116
X88.365Y-194.422
X89.01Y-208.457
X90.458Y-133.963
X90.468Y-217.265
X90.542Y-116.412
X90.983Y-190.276
X91.186Y-84.213
X92.71Y-215.785
X92.71Y-217.817
X92.964Y-149.745
X93.218Y-128.595
X94.268Y-159.363
X94.488Y-181.461
X94.996Y-127.787
X95.716Y-167.313
X95.758Y-110.121
X95.792Y-155.553
X95.792Y-56.493
X96.051Y-117.292
X97.9Y-216.154
X97.944Y-207.607
X99.358Y-218.789
X99.373Y-213.716
X99.856Y-131.423
X101.6Y-181.461
X101.857Y-132.724
X103.342Y-219.377
X105.41Y-91.579
X105.664Y-188.861
X107.999Y-181.495
X108.458Y-188.861
X108.961Y-38.035
X108.966Y-36.207
X108.966Y-41.795
X108.966Y-39.864
X109.317Y-177.94
X109.538Y-213.435
X110.336Y-215.177
X114.808Y-179.158
X115.062Y-213.499
X115.062Y-215.785
X116.332Y-97.675
X119.634Y-114.388
X120.955Y-141.109
X122.169Y-211.433
X122.798Y-111.22
X123.698Y-98.437
X125.984Y-109.613
X125.984Y-211.653
X127.257Y-153.111
X128.524Y-109.613
X129.592Y-151.979
X130.048Y-216.039
X131.064Y-109.613
X131.318Y-93.611
X132.26Y-181.356
X132.715Y-194.576
X134.146Y-109.579
X135.416Y-167.237
X136.144Y-106.565
X136.347Y-217.26
X136.652Y-194.957
X137.194Y-167.237
X137.376Y-181.343
X137.668Y-93.357
X139.243Y-217.314
X139.446Y-196.481
X139.954Y-93.357
X140.589Y-165.62
X140.97Y-119.011
X142.787Y-178.335
X143.256Y-119.773
X144.526Y-196.481
X144.66Y-181.672
X144.78Y-62.345
X145.288Y-50.177
X145.288Y-105.041
X146.05Y-185.228
X146.101Y-199.524
X146.288Y-176.923
X146.991Y-116.038
X147.066Y-140.093
X147.117Y-201.499
X147.42Y-169.711
X148.133Y-195.111
X148.37Y-109.071
X150.114Y-209.486
X152.908Y-192.434
X153.416Y-130.949
X153.77Y-109.071
X155.228Y-132.185
X155.702Y-206.641
X156.21Y-147.967
X157.023Y-173.367
X157.207Y-209.21
X158.96Y-109.079
X159.222Y-212.701
X160.308Y-205.337
X160.376Y-193.179
X161.324Y-109.071
X162.784Y-150.665
X163.466Y-135.123
X163.655Y-109.071
X164.372Y-201.274
X164.499Y-204.702
X165.862Y-152.285
X167.674Y-178.235
X167.843Y-135.233
X168.817Y-199.368
X171.196Y-105.549
X171.23Y-187.049
X172.51Y-152.261
X172.831Y-137.265
X176.53Y-56.273
X176.987Y-87.043
X177.546Y-68.465
X178.308Y-81.673
X178.562Y-110.883
X180.594Y-187.845
X181.305Y-125.107
X182.778Y-95.897
X182.778Y-98.475
T2
X30.734Y-85.483
X30.734Y-93.103
X30.734Y-108.343
X30.734Y-115.963
X30.988Y-72.021
X30.988Y-82.181
X33.274Y-85.483
X33.274Y-93.103
X33.274Y-108.343
X33.274Y-115.963
X33.528Y-120.789
X34.544Y-72.021
X34.544Y-82.181
X35.56Y-173.915
X35.56Y-178.915
X35.814Y-85.483
X35.814Y-93.103
X35.814Y-108.343
X35.814Y-115.963
X36.068Y-120.789
X38.354Y-85.483
X38.354Y-93.103
X38.354Y-108.343
X38.354Y-115.963
X38.608Y-120.789
X38.608Y-166.549
X38.608Y-171.549
X38.608Y-176.201
X38.608Y-181.201
X39.878Y-63.903
X39.878Y-66.443
X39.878Y-68.983
X39.878Y-71.523
X39.878Y-74.063
X39.878Y-76.603
X39.878Y-79.143
X39.878Y-81.683
X40.894Y-85.483
X40.894Y-93.103
X40.894Y-108.343
X40.894Y-115.963
X41.148Y-120.789
X43.434Y-85.483
X43.434Y-93.103
X43.434Y-108.343
X43.434Y-115.963
X43.688Y-120.789
X45.974Y-85.483
X45.974Y-93.103
X45.974Y-108.343
X45.974Y-115.963
X45.974Y-155.373
X45.974Y-160.373
X46.228Y-120.789
X48.514Y-85.483
X48.514Y-93.103
X48.514Y-108.343
X48.514Y-115.963
X48.768Y-120.789
X51.054Y-85.483
X51.054Y-93.103
X51.054Y-108.343
X51.054Y-115.963
X51.308Y-120.789
X51.856Y-152.539
X53.34Y-158.127
X53.34Y-165.747
X53.594Y-85.483
X53.594Y-93.103
X53.594Y-108.343
X53.594Y-115.963
X54.356Y-126.417
X54.356Y-131.417
X55.118Y-141.363
X55.118Y-146.363
X55.118Y-180.225
X55.118Y-185.225
X55.118Y-188.901
X55.118Y-193.901
X55.118Y-197.751
X55.118Y-202.751
X55.88Y-158.127
X55.88Y-165.747
X56.856Y-152.539
X57.15Y-169.055
X57.15Y-174.055
X58.42Y-126.417
X58.42Y-131.417
X58.42Y-158.127
X58.42Y-165.747
X58.928Y-87.809
X58.928Y-92.809
X59.436Y-182.765
X59.436Y-192.925
X60.198Y-109.693
X60.198Y-114.693
X60.706Y-48.145
X60.706Y-58.305
X60.96Y-158.127
X60.96Y-165.747
X60.96Y-169.303
X60.96Y-179.463
X61.214Y-139.839
X61.214Y-149.999
X62.484Y-96.405
X62.484Y-106.565
X62.484Y-119.265
X62.484Y-129.425
X62.738Y-72.275
X62.738Y-186.615
X62.738Y-191.615
X62.772Y-69.193
X63.5Y-84.761
X63.5Y-89.761
X63.5Y-158.127
X63.5Y-165.747
X64.262Y-60.845
X64.77Y-169.303
X64.77Y-179.463
X64.77Y-203.339
X65.278Y-137.045
X65.278Y-147.205
X65.791Y-49.4
X65.791Y-57.02
X65.866Y-114.693
X66.025Y-186.56
X66.025Y-194.18
X66.04Y-158.127
X66.04Y-165.747
X66.294Y-95.135
X66.294Y-105.295
X66.294Y-119.265
X66.294Y-129.425
X67.564Y-84.721
X67.564Y-89.721
X68.331Y-49.4
X68.331Y-57.02
X68.565Y-186.56
X68.565Y-194.18
X68.58Y-30.619
X68.58Y-40.779
X68.58Y-158.127
X68.58Y-165.747
X68.655Y-64.655
X68.834Y-139.839
X68.834Y-149.999
X68.834Y-208.419
X70.104Y-95.135
X70.104Y-105.295
X70.104Y-119.265
X70.104Y-129.425
X70.866Y-114.693
X70.871Y-49.4
X70.871Y-57.02
X71.105Y-186.56
X71.105Y-194.18
X71.382Y-34.937
X72.371Y-43.319
X72.39Y-168.761
X72.39Y-178.921
X72.898Y-72.275
X72.932Y-69.193
X73.406Y-137.553
X73.406Y-147.713
X73.411Y-49.4
X73.411Y-57.02
X73.645Y-186.56
X73.645Y-194.18
X73.655Y-64.655
X73.66Y-84.975
X73.66Y-90.055
X73.914Y-95.135
X73.914Y-105.295
X73.914Y-119.265
X73.914Y-129.425
X73.922Y-32.397
X73.922Y-37.477
X74.422Y-60.845
X74.93Y-203.339
X75.951Y-49.4
X75.951Y-57.02
X76.185Y-186.56
X76.185Y-194.18
X76.2Y-87.515
X76.28Y-199.275
X77.371Y-43.319
X77.978Y-161.937
X78.232Y-135.521
X78.232Y-145.681
X78.478Y-61.353
X78.478Y-66.433
X78.491Y-49.4
X78.491Y-57.02
X78.725Y-186.56
X78.725Y-194.18
X78.986Y-152.793
X78.986Y-157.873
X78.994Y-208.419
X80.264Y-34.723
X80.264Y-39.723
X80.812Y-83.197
X81.018Y-63.893
X81.031Y-49.4
X81.031Y-57.02
X81.265Y-186.56
X81.265Y-194.18
X81.28Y-199.275
X81.526Y-155.333
X81.788Y-87.261
X81.788Y-102.501
X83.805Y-186.56
X83.805Y-194.18
X84.836Y-31.635
X84.836Y-41.795
X84.836Y-109.75
X84.836Y-114.75
X85.598Y-87.261
X85.598Y-102.501
X85.812Y-83.197
X86.106Y-47.383
X86.106Y-57.543
X86.106Y-152.833
X86.106Y-157.833
X88.138Y-34.215
X88.138Y-39.215
X88.138Y-161.937
X89.702Y-46.367
X90.414Y-123.324
X90.414Y-138.564
X90.678Y-109.399
X90.678Y-114.399
X90.932Y-50.939
X90.932Y-61.099
X91.186Y-30.365
X91.186Y-40.525
X91.689Y-186.595
X91.689Y-201.835
X92.954Y-123.324
X92.954Y-138.564
X94.229Y-186.595
X94.229Y-201.835
X94.488Y-70.283
X94.488Y-75.283
X94.503Y-106.58
X94.503Y-114.2
X94.528Y-40.779
X94.528Y-60.591
X94.702Y-46.367
X95.494Y-123.324
X95.494Y-138.564
X96.769Y-186.595
X96.769Y-201.835
X97.043Y-106.58
X97.043Y-114.2
X97.282Y-81.535
X97.282Y-86.535
X98.034Y-123.324
X98.034Y-138.564
X99.309Y-186.595
X99.309Y-201.835
X99.528Y-40.779
X99.528Y-60.591
X99.583Y-106.58
X99.583Y-114.2
X100.076Y-73.291
X100.574Y-123.324
X100.574Y-138.564
X101.6Y-142.633
X101.849Y-186.595
X101.849Y-201.835
X102.123Y-106.58
X102.123Y-114.2
X103.114Y-123.324
X103.114Y-138.564
X104.389Y-186.595
X104.389Y-201.835
X104.663Y-106.58
X104.663Y-114.2
X104.902Y-146.951
X105.654Y-123.324
X105.654Y-138.564
X105.918Y-83.833
X105.918Y-88.833
X106.929Y-186.595
X106.929Y-201.835
X107.203Y-106.58
X107.203Y-114.2
X107.298Y-58.813
X108.194Y-123.324
X108.194Y-138.564
X108.458Y-47.931
X108.458Y-52.931
X109.22Y-64.949
X109.22Y-69.949
X109.469Y-186.595
X109.469Y-201.835
X109.743Y-106.58
X109.743Y-114.2
X109.798Y-58.813
X110.236Y-73.291
X110.734Y-123.324
X110.734Y-138.564
X111.76Y-84.213
X111.76Y-89.213
X112.009Y-186.595
X112.009Y-201.835
X112.283Y-106.58
X112.283Y-114.2
X113.274Y-123.324
X113.274Y-138.564
X114.549Y-186.595
X114.549Y-201.835
X115.57Y-84.253
X115.57Y-89.253
X115.814Y-123.324
X115.814Y-138.564
X116.84Y-142.633
X117.089Y-186.595
X117.089Y-201.835
X118.354Y-123.324
X118.354Y-138.564
X119.126Y-46.915
X119.126Y-51.915
X119.126Y-59.321
X119.126Y-64.321
X119.126Y-71.807
X119.126Y-76.807
X119.38Y-84.253
X119.38Y-89.253
X119.629Y-186.595
X119.629Y-201.835
X120.142Y-146.951
X120.894Y-123.324
X120.894Y-138.564
X120.904Y-214.007
X122.169Y-186.595
X122.169Y-201.835
X123.23Y-28.841
X123.434Y-123.324
X123.434Y-138.564
X123.683Y-44.574
X123.683Y-52.194
X123.683Y-57.025
X123.683Y-64.645
X123.683Y-69.476
X123.683Y-77.096
X123.683Y-81.927
X123.683Y-89.547
X124.709Y-186.595
X124.709Y-201.835
X125.979Y-97.929
X125.979Y-113.169
X126.223Y-44.574
X126.223Y-52.194
X126.223Y-57.025
X126.223Y-64.645
X126.223Y-69.476
X126.223Y-77.096
X126.223Y-81.927
X126.223Y-89.547
X127.249Y-186.595
X127.249Y-201.835
X127.542Y-155.119
X127.542Y-160.119
X128.23Y-28.841
X128.519Y-97.929
X128.519Y-113.169
X128.763Y-44.574
X128.763Y-52.194
X128.763Y-57.025
X128.763Y-64.645
X128.763Y-69.476
X128.763Y-77.096
X128.763Y-81.927
X128.763Y-89.547
X129.789Y-186.595
X129.789Y-201.835
X130.546Y-123.06
X130.546Y-130.68
X130.546Y-136.522
X130.546Y-144.142
X130.844Y-155.119
X130.844Y-160.119
X131.059Y-97.929
X131.059Y-113.169
X131.064Y-214.007
X131.303Y-44.574
X131.303Y-52.194
X131.303Y-57.025
X131.303Y-64.645
X131.303Y-69.476
X131.303Y-77.096
X131.303Y-81.927
X131.303Y-89.547
X132.329Y-186.595
X132.329Y-201.835
X133.086Y-123.06
X133.086Y-130.68
X133.086Y-136.522
X133.086Y-144.142
X133.599Y-97.929
X133.599Y-113.169
X133.843Y-44.574
X133.843Y-52.194
X133.843Y-57.025
X133.843Y-64.645
X133.843Y-69.476
X133.843Y-77.096
X133.843Y-81.927
X133.843Y-89.547
X134.625Y-152.524
X134.625Y-160.144
X134.869Y-186.595
X134.869Y-201.835
X135.626Y-123.06
X135.626Y-130.68
X135.626Y-136.522
X135.626Y-144.142
X136.139Y-97.929
X136.139Y-113.169
X136.383Y-44.574
X136.383Y-52.194
X136.383Y-57.025
X136.383Y-64.645
X136.383Y-69.476
X136.383Y-77.096
X136.383Y-81.927
X136.383Y-89.547
X137.165Y-152.524
X137.165Y-160.144
X137.409Y-186.595
X137.409Y-201.835
X138.166Y-123.06
X138.166Y-130.68
X138.166Y-136.522
X138.166Y-144.142
X138.679Y-97.929
X138.679Y-113.169
X138.923Y-44.574
X138.923Y-52.194
X138.923Y-57.025
X138.923Y-64.645
X138.923Y-69.476
X138.923Y-77.096
X138.923Y-81.927
X138.923Y-89.547
X139.705Y-152.524
X139.705Y-160.144
X139.949Y-186.595
X139.949Y-201.835
X140.706Y-123.06
X140.706Y-130.68
X140.706Y-136.522
X140.706Y-144.142
X141.219Y-97.929
X141.219Y-113.169
X141.463Y-44.574
X141.463Y-52.194
X141.463Y-57.025
X141.463Y-64.645
X141.463Y-69.476
X141.463Y-77.096
X141.463Y-81.927
X141.463Y-89.547
X142.245Y-152.524
X142.245Y-160.144
X143.246Y-123.06
X143.246Y-130.68
X143.246Y-136.522
X143.246Y-144.142
X143.759Y-97.929
X143.759Y-113.169
X144.785Y-152.524
X144.785Y-160.144
X145.786Y-123.06
X145.786Y-130.68
X145.786Y-136.522
X145.786Y-144.142
X145.796Y-47.383
X145.796Y-52.383
X146.05Y-59.869
X146.05Y-64.869
X146.05Y-72.315
X146.05Y-77.315
X146.084Y-84.721
X146.084Y-89.721
X146.299Y-97.929
X146.299Y-113.169
X146.558Y-163.207
X147.325Y-152.524
X147.325Y-160.144
X148.326Y-123.06
X148.326Y-130.68
X148.326Y-136.522
X148.326Y-144.142
X148.839Y-97.929
X148.839Y-113.169
X149.865Y-152.524
X149.865Y-160.144
X150.368Y-44.589
X150.368Y-49.589
X150.368Y-57.075
X150.368Y-62.075
X150.368Y-69.521
X150.368Y-74.521
X150.368Y-81.967
X150.368Y-86.967
X150.368Y-188.607
X150.368Y-198.767
X150.866Y-123.06
X150.866Y-130.68
X150.866Y-136.522
X150.866Y-144.142
X151.379Y-97.929
X151.379Y-113.169
X153.67Y-93.611
X153.919Y-97.929
X153.919Y-113.169
X154.686Y-187.591
X154.686Y-197.751
X155.433Y-121.536
X155.433Y-129.156
X155.702Y-81.927
X155.702Y-89.547
X155.717Y-44.574
X155.717Y-52.194
X155.717Y-57.025
X155.717Y-64.645
X155.717Y-69.476
X155.717Y-77.096
X156.459Y-97.929
X156.459Y-113.169
X156.464Y-139.371
X156.464Y-144.371
X157.973Y-121.536
X157.973Y-129.156
X158.242Y-81.927
X158.242Y-89.547
X158.242Y-182.003
X158.242Y-192.163
X158.242Y-197.497
X158.242Y-207.657
X158.257Y-44.574
X158.257Y-52.194
X158.257Y-57.025
X158.257Y-64.645
X158.257Y-69.476
X158.257Y-77.096
X158.75Y-150.253
X158.75Y-160.413
X158.999Y-97.929
X158.999Y-113.169
X160.274Y-137.299
X160.513Y-121.536
X160.513Y-129.156
X160.782Y-81.927
X160.782Y-89.547
X160.79Y-145.427
X160.797Y-44.574
X160.797Y-52.194
X160.797Y-57.025
X160.797Y-64.645
X160.797Y-69.476
X160.797Y-77.096
X161.29Y-168.795
X161.29Y-173.795
X161.539Y-97.929
X161.539Y-113.169
X161.798Y-163.207
X161.838Y-158.381
X161.878Y-154.825
X162.306Y-197.497
X162.306Y-207.657
X162.875Y-213.245
X163.053Y-121.536
X163.053Y-129.156
X163.068Y-184.035
X163.068Y-191.655
X163.322Y-81.927
X163.322Y-89.547
X163.33Y-142.887
X163.33Y-147.967
X163.337Y-44.574
X163.337Y-52.194
X163.337Y-57.025
X163.337Y-64.645
X163.337Y-69.476
X163.337Y-77.096
X163.83Y-93.611
X164.079Y-97.929
X164.079Y-113.169
X164.338Y-177.939
X165.359Y-161.668
X165.359Y-169.288
X165.388Y-180.987
X165.593Y-121.536
X165.593Y-129.156
X165.608Y-184.035
X165.608Y-191.655
X165.862Y-81.927
X165.862Y-89.547
X165.877Y-44.574
X165.877Y-52.194
X165.877Y-57.025
X165.877Y-64.645
X165.877Y-69.476
X165.877Y-77.096
X166.619Y-97.929
X166.619Y-113.169
X166.624Y-149.999
X166.624Y-197.497
X166.624Y-207.657
X166.838Y-158.381
X166.878Y-140.347
X166.878Y-154.825
X167.276Y-173.621
X167.64Y-146.443
X167.875Y-213.245
X167.899Y-161.668
X167.899Y-169.288
X168.133Y-121.536
X168.133Y-129.156
X168.148Y-184.035
X168.148Y-191.655
X168.402Y-81.927
X168.402Y-89.547
X168.417Y-44.574
X168.417Y-52.194
X168.417Y-57.025
X168.417Y-64.645
X168.417Y-69.476
X168.417Y-77.096
X169.159Y-97.929
X169.159Y-113.169
X169.781Y-117.233
X170.18Y-143.395
X170.434Y-137.299
X170.439Y-161.668
X170.439Y-169.288
X170.673Y-121.536
X170.673Y-129.156
X170.688Y-184.035
X170.688Y-191.655
X170.942Y-81.927
X170.942Y-89.547
X170.957Y-44.574
X170.957Y-52.194
X170.957Y-57.025
X170.957Y-64.645
X170.957Y-69.476
X170.957Y-77.096
X171.196Y-194.703
X171.699Y-97.929
X171.699Y-113.169
X172.156Y-173.621
X172.281Y-117.233
X172.76Y-158.381
X172.979Y-161.668
X172.979Y-169.288
X173.213Y-121.536
X173.213Y-129.156
X173.228Y-184.035
X173.228Y-191.655
X173.228Y-203.085
X173.228Y-213.245
X173.482Y-81.927
X173.482Y-89.547
X173.497Y-44.574
X173.497Y-52.194
X173.497Y-57.025
X173.497Y-64.645
X173.497Y-69.476
X173.497Y-77.096
X174.239Y-97.929
X174.239Y-113.169
X174.244Y-197.751
X174.498Y-177.939
X175.18Y-143.395
X175.519Y-161.668
X175.519Y-169.288
X175.548Y-180.987
X175.768Y-184.035
X175.768Y-191.655
X176.276Y-137.299
X176.784Y-149.999
X177.038Y-140.347
X177.76Y-158.381
X177.8Y-146.443
X178.059Y-161.668
X178.059Y-169.288
X178.308Y-174.169
X178.308Y-179.169
X178.308Y-184.035
X178.308Y-191.655
X178.562Y-47.169
X178.562Y-52.169
X178.562Y-59.615
X178.562Y-64.615
X178.562Y-72.061
X178.562Y-77.061
X178.562Y-84.507
X178.562Y-89.507
X179.07Y-119.265
X179.07Y-129.425
X180.599Y-161.668
X180.599Y-169.288
X181.276Y-137.299
X181.356Y-194.703
X182.626Y-101.485
X182.626Y-111.645
X182.88Y-185.345
X182.88Y-190.345
X183.168Y-119.231
X183.168Y-129.391
X184.404Y-197.751
T3
X50.292Y-192.925
X57.34Y-84.67
X58.166Y-206.387
X59.69Y-206.387
X67.175Y-145.502
X75.98Y-162.919
X79.663Y-93.704
X81.534Y-72.021
X83.312Y-144.411
X87.41Y-96.625
X88.138Y-164.477
X88.426Y-86.973
X97.79Y-179.717
X150.148Y-165.764
X150.148Y-179.937
X171.772Y-148.221
T4
X31.668Y-48.298
X31.668Y-51.068
X31.668Y-53.838
X31.668Y-56.608
X31.668Y-139.23
X31.668Y-142.0
X31.668Y-144.77
X31.668Y-147.54
X34.508Y-46.913
X34.508Y-49.683
X34.508Y-52.453
X34.508Y-55.223
X34.508Y-57.993
X34.508Y-137.845
X34.508Y-140.615
X34.508Y-143.385
X34.508Y-146.155
X34.508Y-148.925
X42.784Y-171.589
X50.404Y-171.589
X89.916Y-90.929
X89.916Y-98.549
X94.996Y-90.929
X94.996Y-98.549
X99.314Y-47.525
X99.314Y-55.145
X100.188Y-93.865
X103.886Y-46.636
X103.886Y-49.176
X103.886Y-51.716
X103.886Y-54.256
X103.886Y-56.796
X103.886Y-59.336
X103.886Y-61.876
X103.886Y-64.416
X107.808Y-93.865
X111.618Y-93.865
X119.238Y-93.865
X130.698Y-35.445
X138.318Y-35.445
X146.162Y-30.111
X153.782Y-30.111
X167.782Y-133.235
X169.56Y-154.063
X175.402Y-133.235
X177.18Y-154.063
X179.324Y-203.815
X179.324Y-205.847
X179.324Y-207.879
X184.404Y-203.815
X184.404Y-205.847
X184.404Y-207.879
T5
X43.434Y-177.177
X43.434Y-202.577
X50.038Y-177.177
X50.038Y-202.577
X97.79Y-170.573
X97.79Y-175.399
X100.33Y-170.573
X100.33Y-175.399
X102.87Y-170.573
X102.87Y-175.399
X105.41Y-170.573
X105.41Y-175.399
X107.95Y-170.573
X107.95Y-175.399
X110.49Y-170.573
X110.49Y-175.399
X113.03Y-170.573
X113.03Y-175.399
X115.57Y-170.573
X115.57Y-175.399
X118.11Y-170.573
X118.11Y-175.399
X120.65Y-170.573
X120.65Y-175.399
X123.19Y-170.573
X123.19Y-175.399
X125.73Y-170.573
X125.73Y-175.399
X128.27Y-170.573
X128.27Y-175.399
X130.81Y-170.573
X130.81Y-175.399
X133.35Y-170.573
X133.35Y-175.399
T6
X181.864Y-203.815
X181.864Y-207.879
T7
X28.343Y-167.935
X28.343Y-171.895
X28.343Y-175.855
X28.343Y-179.815
T8
X27.559Y-204.768
X36.195Y-204.768
T9
X103.92Y-42.523
X103.92Y-68.431
T10
X33.088Y-39.953
X33.088Y-64.953
X33.088Y-130.885
X33.088Y-155.885
T11
X89.22Y-172.974
X141.92Y-172.974
T12
X50.58Y-72.495
T13
X37.084Y-30.365
X51.308Y-214.261
X115.604Y-159.363
X181.644Y-220.577
X182.914Y-33.887
T2
G00X27.559Y-200.01
M15
G01X27.559Y-195.81
M16
G05
G00X27.559Y-213.726
M15
G01X27.559Y-209.526
M16
G05
G00X29.404Y-188.861
M15
G01X34.604Y-188.861
M16
G05
G00X29.404Y-220.611
M15
G01X34.604Y-220.611
M16
G05
G00X36.195Y-200.01
M15
G01X36.195Y-195.81
M16
G05
G00X36.195Y-213.726
M15
G01X36.195Y-209.526
M16
G05
G00X43.96Y-44.649
M15
G01X43.96Y-39.449
M16
G05
G00X50.994Y-79.151
M15
G01X56.194Y-79.151
M16
G05
G00X102.81Y-26.065
M15
G01X108.01Y-26.065
M16
G05
G00X102.81Y-79.133
M15
G01X108.01Y-79.133
M16
G05
G00X114.808Y-66.239
M15
G01X114.808Y-61.039
M16
G05
T0
M30
