%TF.GenerationSoftware,KiCad,Pcbnew,7.0.11-7.0.11~ubuntu22.04.1*%
%TF.CreationDate,2024-10-09T20:20:53-04:00*%
%TF.ProjectId,sub_rf_mod,7375625f-7266-45f6-9d6f-642e6b696361,rev?*%
%TF.SameCoordinates,Original*%
%TF.FileFunction,Other,User*%
%FSLAX46Y46*%
G04 Gerber Fmt 4.6, Leading zero omitted, Abs format (unit mm)*
G04 Created by KiCad (PCBNEW 7.0.11-7.0.11~ubuntu22.04.1) date 2024-10-09 20:20:53*
%MOMM*%
%LPD*%
G01*
G04 APERTURE LIST*
%ADD10C,0.050000*%
%ADD11C,0.100000*%
%TA.AperFunction,Profile*%
%ADD12C,0.100000*%
%TD*%
G04 APERTURE END LIST*
D10*
%TO.C,RF_D2*%
X138958000Y-77690000D02*
X138958000Y-89950000D01*
X141458000Y-89950000D02*
X141458000Y-77690000D01*
X141458000Y-77690000D02*
X138958000Y-77690000D01*
X138958000Y-89950000D02*
X141458000Y-89950000D01*
%TO.C,RF_C9*%
X174474000Y-80070000D02*
X171474000Y-80070000D01*
X174474000Y-87570000D02*
X174474000Y-80070000D01*
X171474000Y-80070000D02*
X171474000Y-87570000D01*
X171474000Y-87570000D02*
X174474000Y-87570000D01*
%TO.C,RF_C13*%
X132559328Y-108966000D02*
G75*
G03*
X127059328Y-108966000I-2750000J0D01*
G01*
X127059328Y-108966000D02*
G75*
G03*
X132559328Y-108966000I2750000J0D01*
G01*
%TO.C,RF_C3*%
X142216000Y-96072000D02*
X139216000Y-96072000D01*
X139216000Y-103572000D02*
X142216000Y-103572000D01*
X142216000Y-103572000D02*
X142216000Y-96072000D01*
X139216000Y-96072000D02*
X139216000Y-103572000D01*
%TO.C,RF_JP1*%
X134596000Y-92490000D02*
X134596000Y-75150000D01*
X134596000Y-75150000D02*
X131596000Y-75150000D01*
X131596000Y-92490000D02*
X134596000Y-92490000D01*
X131596000Y-75150000D02*
X131596000Y-92490000D01*
%TO.C,RF_R10*%
X142206000Y-80494000D02*
X151926000Y-80494000D01*
X151926000Y-80494000D02*
X151926000Y-77494000D01*
X151926000Y-77494000D02*
X142206000Y-77494000D01*
X142206000Y-77494000D02*
X142206000Y-80494000D01*
%TO.C,J4B1*%
X129512000Y-80750000D02*
X129512000Y-102100000D01*
X125962000Y-102100000D02*
X125962000Y-80750000D01*
X125962000Y-80750000D02*
X129512000Y-80750000D01*
X129512000Y-102100000D02*
X125962000Y-102100000D01*
%TO.C,RF_C2*%
X138406000Y-82610000D02*
X135406000Y-82610000D01*
X135406000Y-82610000D02*
X135406000Y-90110000D01*
X135406000Y-90110000D02*
X138406000Y-90110000D01*
X138406000Y-90110000D02*
X138406000Y-82610000D01*
%TO.C,RF_R6*%
X169638000Y-111228000D02*
X179358000Y-111228000D01*
X169638000Y-108228000D02*
X169638000Y-111228000D01*
X179358000Y-111228000D02*
X179358000Y-108228000D01*
X179358000Y-108228000D02*
X169638000Y-108228000D01*
%TO.C,RF_C10*%
X181332000Y-99000000D02*
X181332000Y-91500000D01*
X178332000Y-91500000D02*
X178332000Y-99000000D01*
X181332000Y-91500000D02*
X178332000Y-91500000D01*
X178332000Y-99000000D02*
X181332000Y-99000000D01*
%TO.C,RF_L3*%
X165386000Y-107910000D02*
G75*
G03*
X156686000Y-107910000I-4350000J0D01*
G01*
X156686000Y-107910000D02*
G75*
G03*
X165386000Y-107910000I4350000J0D01*
G01*
%TO.C,H17*%
X129912000Y-78486000D02*
G75*
G03*
X125612000Y-78486000I-2150000J0D01*
G01*
X125612000Y-78486000D02*
G75*
G03*
X129912000Y-78486000I2150000J0D01*
G01*
%TO.C,RF_U1*%
X143738000Y-100271000D02*
X167138000Y-100271000D01*
X167138000Y-100271000D02*
X167138000Y-89721000D01*
X143738000Y-89721000D02*
X143738000Y-100271000D01*
X167138000Y-89721000D02*
X143738000Y-89721000D01*
%TO.C,RF_C12*%
X156778000Y-100354000D02*
X156778000Y-103354000D01*
X156778000Y-103354000D02*
X164278000Y-103354000D01*
X164278000Y-100354000D02*
X156778000Y-100354000D01*
X164278000Y-103354000D02*
X164278000Y-100354000D01*
%TO.C,RF_R2*%
X135660000Y-92930000D02*
X135660000Y-102650000D01*
X135660000Y-102650000D02*
X138660000Y-102650000D01*
X138660000Y-102650000D02*
X138660000Y-92930000D01*
X138660000Y-92930000D02*
X135660000Y-92930000D01*
%TO.C,RF_C1*%
X136676000Y-65886000D02*
X136676000Y-73386000D01*
X139676000Y-65886000D02*
X136676000Y-65886000D01*
X136676000Y-73386000D02*
X139676000Y-73386000D01*
X139676000Y-73386000D02*
X139676000Y-65886000D01*
%TO.C,RF_C7*%
X161992000Y-89638000D02*
X161992000Y-86638000D01*
X161992000Y-86638000D02*
X154492000Y-86638000D01*
X154492000Y-89638000D02*
X161992000Y-89638000D01*
X154492000Y-86638000D02*
X154492000Y-89638000D01*
%TO.C,RF_R9*%
X160552000Y-73118000D02*
X160552000Y-82838000D01*
X160552000Y-82838000D02*
X163552000Y-82838000D01*
X163552000Y-82838000D02*
X163552000Y-73118000D01*
X163552000Y-73118000D02*
X160552000Y-73118000D01*
D11*
%TO.C,RF_SW1*%
X160376500Y-58753000D02*
X160376500Y-77391000D01*
X142391500Y-58753000D02*
X160376500Y-58753000D01*
X142391500Y-77391000D02*
X142391500Y-58753000D01*
X160376500Y-77391000D02*
X142391500Y-77391000D01*
%TO.C,RF_J1*%
X185558000Y-76099000D02*
X172582000Y-76099000D01*
X172582000Y-76099000D02*
X172582000Y-54080000D01*
X172582000Y-54080000D02*
X185558000Y-54080000D01*
X185558000Y-54080000D02*
X185558000Y-76099000D01*
D10*
%TO.C,H16*%
X129912000Y-104394000D02*
G75*
G03*
X125612000Y-104394000I-2150000J0D01*
G01*
X125612000Y-104394000D02*
G75*
G03*
X129912000Y-104394000I2150000J0D01*
G01*
%TO.C,RF_R5*%
X179358000Y-107418000D02*
X179358000Y-104418000D01*
X169638000Y-104418000D02*
X169638000Y-107418000D01*
X179358000Y-104418000D02*
X169638000Y-104418000D01*
X169638000Y-107418000D02*
X179358000Y-107418000D01*
%TO.C,RF_C6*%
X165886000Y-103692000D02*
X165886000Y-111192000D01*
X168886000Y-111192000D02*
X168886000Y-103692000D01*
X165886000Y-111192000D02*
X168886000Y-111192000D01*
X168886000Y-103692000D02*
X165886000Y-103692000D01*
%TO.C,RF_L2*%
X177578000Y-93980000D02*
G75*
G03*
X168878000Y-93980000I-4350000J0D01*
G01*
X168878000Y-93980000D02*
G75*
G03*
X177578000Y-93980000I4350000J0D01*
G01*
%TO.C,RF_C8*%
X171390000Y-75668000D02*
X171390000Y-72668000D01*
X171390000Y-72668000D02*
X163890000Y-72668000D01*
X163890000Y-75668000D02*
X171390000Y-75668000D01*
X163890000Y-72668000D02*
X163890000Y-75668000D01*
%TO.C,RF_C5*%
X149800000Y-89638000D02*
X149800000Y-86638000D01*
X142300000Y-89638000D02*
X149800000Y-89638000D01*
X142300000Y-86638000D02*
X142300000Y-89638000D01*
X149800000Y-86638000D02*
X142300000Y-86638000D01*
%TO.C,RF_D1*%
X131592000Y-92930000D02*
X131592000Y-105190000D01*
X131592000Y-105190000D02*
X134092000Y-105190000D01*
X134092000Y-105190000D02*
X134092000Y-92930000D01*
X134092000Y-92930000D02*
X131592000Y-92930000D01*
%TO.C,RF_C11*%
X183582000Y-82272000D02*
X183582000Y-79272000D01*
X183582000Y-79272000D02*
X176082000Y-79272000D01*
X176082000Y-79272000D02*
X176082000Y-82272000D01*
X176082000Y-82272000D02*
X183582000Y-82272000D01*
%TO.C,RF_C4*%
X145990000Y-103910000D02*
X138490000Y-103910000D01*
X138490000Y-106910000D02*
X145990000Y-106910000D01*
X145990000Y-106910000D02*
X145990000Y-103910000D01*
X138490000Y-103910000D02*
X138490000Y-106910000D01*
%TO.C,RF_R11*%
X142206000Y-80542000D02*
X142206000Y-83542000D01*
X151926000Y-83542000D02*
X151926000Y-80542000D01*
X151926000Y-80542000D02*
X142206000Y-80542000D01*
X142206000Y-83542000D02*
X151926000Y-83542000D01*
%TO.C,RF_R7*%
X168172000Y-78452000D02*
X168172000Y-88172000D01*
X171172000Y-88172000D02*
X171172000Y-78452000D01*
X171172000Y-78452000D02*
X168172000Y-78452000D01*
X168172000Y-88172000D02*
X171172000Y-88172000D01*
%TO.C,RF_R8*%
X167108000Y-78452000D02*
X164108000Y-78452000D01*
X164108000Y-78452000D02*
X164108000Y-88172000D01*
X167108000Y-88172000D02*
X167108000Y-78452000D01*
X164108000Y-88172000D02*
X167108000Y-88172000D01*
%TO.C,RF_R1*%
X125198000Y-89442000D02*
X125198000Y-79722000D01*
X125198000Y-79722000D02*
X122198000Y-79722000D01*
X122198000Y-89442000D02*
X125198000Y-89442000D01*
X122198000Y-79722000D02*
X122198000Y-89442000D01*
%TO.C,RF_L1*%
X184436000Y-86868000D02*
G75*
G03*
X175736000Y-86868000I-4350000J0D01*
G01*
X175736000Y-86868000D02*
G75*
G03*
X184436000Y-86868000I4350000J0D01*
G01*
%TO.C,RF_R3*%
X146338000Y-107466000D02*
X136618000Y-107466000D01*
X146338000Y-110466000D02*
X146338000Y-107466000D01*
X136618000Y-107466000D02*
X136618000Y-110466000D01*
X136618000Y-110466000D02*
X146338000Y-110466000D01*
%TO.C,RF_R4*%
X146836000Y-100550000D02*
X146836000Y-110270000D01*
X149836000Y-110270000D02*
X149836000Y-100550000D01*
X146836000Y-110270000D02*
X149836000Y-110270000D01*
X149836000Y-100550000D02*
X146836000Y-100550000D01*
%TO.C,RF_R12*%
X143984000Y-83590000D02*
X143984000Y-86590000D01*
X153704000Y-86590000D02*
X153704000Y-83590000D01*
X153704000Y-83590000D02*
X143984000Y-83590000D01*
X143984000Y-86590000D02*
X153704000Y-86590000D01*
%TD*%
D12*
X186182000Y-112776000D02*
X186182000Y-63754000D01*
X185674000Y-113284000D02*
X186182000Y-112776000D01*
X117094000Y-112776000D02*
X117094000Y-63754000D01*
X117602000Y-63246000D02*
X117094000Y-63754000D01*
X117602000Y-63246000D02*
X185674000Y-63246000D01*
X117602000Y-113284000D02*
X185674000Y-113284000D01*
X117094000Y-112776000D02*
X117602000Y-113284000D01*
X185674000Y-63246000D02*
X186182000Y-63754000D01*
M02*
