%TF.GenerationSoftware,KiCad,Pcbnew,6.0.11-2627ca5db0~126~ubuntu22.04.1*%
%TF.CreationDate,2023-05-13T09:44:54-04:00*%
%TF.ProjectId,sub_rf_mod,7375625f-7266-45f6-9d6f-642e6b696361,rev?*%
%TF.SameCoordinates,Original*%
%TF.FileFunction,Copper,L2,Bot*%
%TF.FilePolarity,Positive*%
%FSLAX46Y46*%
G04 Gerber Fmt 4.6, Leading zero omitted, Abs format (unit mm)*
G04 Created by KiCad (PCBNEW 6.0.11-2627ca5db0~126~ubuntu22.04.1) date 2023-05-13 09:44:54*
%MOMM*%
%LPD*%
G01*
G04 APERTURE LIST*
%TA.AperFunction,Profile*%
%ADD10C,0.100000*%
%TD*%
%TA.AperFunction,ComponentPad*%
%ADD11R,1.700000X1.700000*%
%TD*%
%TA.AperFunction,ComponentPad*%
%ADD12O,1.700000X1.700000*%
%TD*%
%TA.AperFunction,ComponentPad*%
%ADD13C,1.600000*%
%TD*%
%TA.AperFunction,ComponentPad*%
%ADD14O,1.600000X1.600000*%
%TD*%
%TA.AperFunction,ComponentPad*%
%ADD15C,4.227000*%
%TD*%
%TA.AperFunction,ComponentPad*%
%ADD16C,4.039000*%
%TD*%
%TA.AperFunction,ComponentPad*%
%ADD17C,3.800000*%
%TD*%
%TA.AperFunction,ComponentPad*%
%ADD18C,2.775000*%
%TD*%
%TA.AperFunction,ComponentPad*%
%ADD19C,2.600000*%
%TD*%
%TA.AperFunction,ComponentPad*%
%ADD20R,1.600000X1.600000*%
%TD*%
%TA.AperFunction,ComponentPad*%
%ADD21R,1.600000X2.400000*%
%TD*%
%TA.AperFunction,ComponentPad*%
%ADD22O,1.600000X2.400000*%
%TD*%
%TA.AperFunction,ComponentPad*%
%ADD23C,1.700000*%
%TD*%
%TA.AperFunction,ComponentPad*%
%ADD24C,3.000000*%
%TD*%
%TA.AperFunction,Conductor*%
%ADD25C,0.304800*%
%TD*%
%TA.AperFunction,Conductor*%
%ADD26C,1.016000*%
%TD*%
G04 APERTURE END LIST*
D10*
X175260000Y-118237000D02*
X175768000Y-117729000D01*
X107188000Y-118237000D02*
X175260000Y-118237000D01*
X107188000Y-68199000D02*
X175260000Y-68199000D01*
X107188000Y-68199000D02*
X106680000Y-68707000D01*
X175768000Y-117729000D02*
X175768000Y-68707000D01*
X175260000Y-68199000D02*
X175768000Y-68707000D01*
X106680000Y-117729000D02*
X107188000Y-118237000D01*
X106680000Y-117729000D02*
X106680000Y-68707000D01*
D11*
%TO.P,J4B1,1,Pin_1*%
%TO.N,N/C*%
X117348000Y-87503000D03*
D12*
%TO.P,J4B1,2,Pin_2*%
X117348000Y-90043000D03*
%TO.P,J4B1,3,Pin_3*%
X117348000Y-92583000D03*
%TO.P,J4B1,4,Pin_4*%
X117348000Y-95123000D03*
%TO.P,J4B1,5,Pin_5*%
X117348000Y-97663000D03*
%TO.P,J4B1,6,Pin_6*%
X117348000Y-100203000D03*
%TO.P,J4B1,7,Pin_7*%
X117348000Y-102743000D03*
%TO.P,J4B1,8,Pin_8*%
X117348000Y-105283000D03*
%TD*%
D13*
%TO.P,RF_R7,1*%
%TO.N,N/C*%
X159258000Y-92075000D03*
D14*
%TO.P,RF_R7,2*%
X159258000Y-84455000D03*
%TD*%
D13*
%TO.P,RF_R8,1*%
%TO.N,N/C*%
X155194000Y-92075000D03*
D14*
%TO.P,RF_R8,2*%
X155194000Y-84455000D03*
%TD*%
D15*
%TO.P,RF_J1,S*%
%TO.N,N/C*%
X168656000Y-73533000D03*
D16*
%TO.P,RF_J1,T*%
X168656000Y-78033000D03*
%TD*%
D13*
%TO.P,RF_C8,1*%
%TO.N,N/C*%
X154726000Y-79121000D03*
%TO.P,RF_C8,2*%
X159726000Y-79121000D03*
%TD*%
%TO.P,RF_C9,1*%
%TO.N,N/C*%
X162560000Y-91273000D03*
%TO.P,RF_C9,2*%
X162560000Y-86273000D03*
%TD*%
D17*
%TO.P,H16,1,1*%
%TO.N,N/C*%
X117348000Y-109347000D03*
%TD*%
D13*
%TO.P,RF_R4,1*%
%TO.N,N/C*%
X137922000Y-114173000D03*
D14*
%TO.P,RF_R4,2*%
X137922000Y-106553000D03*
%TD*%
D13*
%TO.P,RF_R1,1*%
%TO.N,N/C*%
X113284000Y-93345000D03*
D14*
%TO.P,RF_R1,2*%
X113284000Y-85725000D03*
%TD*%
D13*
%TO.P,RF_R9,1*%
%TO.N,N/C*%
X151638000Y-79121000D03*
D14*
%TO.P,RF_R9,2*%
X151638000Y-86741000D03*
%TD*%
D18*
%TO.P,RF_SW1,1,A*%
%TO.N,N/C*%
X145670500Y-79956000D03*
%TO.P,RF_SW1,2,B*%
X140970500Y-79956000D03*
%TO.P,RF_SW1,3,C*%
X136270500Y-79956000D03*
%TO.P,RF_SW1,4*%
X134365500Y-70426000D03*
X147575500Y-70426000D03*
%TD*%
D13*
%TO.P,RF_R10,1*%
%TO.N,N/C*%
X140462000Y-83947000D03*
D14*
%TO.P,RF_R10,2*%
X132842000Y-83947000D03*
%TD*%
D19*
%TO.P,RF_L1,1,1*%
%TO.N,N/C*%
X169672000Y-94321000D03*
%TO.P,RF_L1,2,2*%
X169672000Y-89321000D03*
%TD*%
D13*
%TO.P,RF_C3,1*%
%TO.N,N/C*%
X130302000Y-102275000D03*
%TO.P,RF_C3,2*%
X130302000Y-107275000D03*
%TD*%
%TO.P,RF_R12,1*%
%TO.N,N/C*%
X142240000Y-90043000D03*
D14*
%TO.P,RF_R12,2*%
X134620000Y-90043000D03*
%TD*%
D13*
%TO.P,RF_R3,1*%
%TO.N,N/C*%
X127254000Y-113919000D03*
D14*
%TO.P,RF_R3,2*%
X134874000Y-113919000D03*
%TD*%
D19*
%TO.P,RF_L3,1,1*%
%TO.N,N/C*%
X150622000Y-110363000D03*
%TO.P,RF_L3,2,2*%
X150622000Y-115363000D03*
%TD*%
D13*
%TO.P,RF_C11,1*%
%TO.N,N/C*%
X166918000Y-85725000D03*
%TO.P,RF_C11,2*%
X171918000Y-85725000D03*
%TD*%
D20*
%TO.P,RF_D1,1,K*%
%TO.N,N/C*%
X122428000Y-109093000D03*
D14*
%TO.P,RF_D1,2,A*%
X122428000Y-98933000D03*
%TD*%
D20*
%TO.P,RF_D2,1,K*%
%TO.N,N/C*%
X129794000Y-83693000D03*
D14*
%TO.P,RF_D2,2,A*%
X129794000Y-93853000D03*
%TD*%
D13*
%TO.P,RF_C1,1*%
%TO.N,N/C*%
X127762000Y-77089000D03*
%TO.P,RF_C1,2*%
X127762000Y-72089000D03*
%TD*%
%TO.P,RF_R2,1*%
%TO.N,N/C*%
X126746000Y-98933000D03*
D14*
%TO.P,RF_R2,2*%
X126746000Y-106553000D03*
%TD*%
D21*
%TO.P,RF_U1,1,CHROMA_LEAD*%
%TO.N,N/C*%
X134874000Y-103774000D03*
D22*
%TO.P,RF_U1,2,R-Y*%
X137414000Y-103774000D03*
%TO.P,RF_U1,3,CHROMA_BIAS*%
X139954000Y-103774000D03*
%TO.P,RF_U1,4,B-Y*%
X142494000Y-103774000D03*
%TO.P,RF_U1,5,GND*%
X145034000Y-103774000D03*
%TO.P,RF_U1,6,CHB_TANK1*%
X147574000Y-103774000D03*
%TO.P,RF_U1,7,CHB_TANK2*%
X150114000Y-103774000D03*
%TO.P,RF_U1,8,CHA_TANK1*%
X152654000Y-103774000D03*
%TO.P,RF_U1,9,CHA_TANK2*%
X155194000Y-103774000D03*
%TO.P,RF_U1,10,CHB_OUTPUT*%
X155194000Y-96154000D03*
%TO.P,RF_U1,11,CHA_OUTPUT*%
X152654000Y-96154000D03*
%TO.P,RF_U1,12,VIDEO_IN*%
X150114000Y-96154000D03*
%TO.P,RF_U1,13,CHROMA_SUBCAR*%
X147574000Y-96154000D03*
%TO.P,RF_U1,14,RF_SUPPLY*%
X145034000Y-96154000D03*
%TO.P,RF_U1,15,SOUND_TANK*%
X142494000Y-96154000D03*
%TO.P,RF_U1,16,CHROMA_SUPPLY*%
X139954000Y-96154000D03*
%TO.P,RF_U1,17,CHROMA_OSC*%
X137414000Y-96154000D03*
%TO.P,RF_U1,18,CHROMA_LAG*%
X134874000Y-96154000D03*
%TD*%
D13*
%TO.P,RF_C7,1*%
%TO.N,N/C*%
X145328000Y-93091000D03*
%TO.P,RF_C7,2*%
X150328000Y-93091000D03*
%TD*%
D17*
%TO.P,H17,1,1*%
%TO.N,N/C*%
X117348000Y-83439000D03*
%TD*%
D23*
%TO.P,RF_VL1,1,1*%
%TO.N,N/C*%
X115570000Y-77851000D03*
%TO.P,RF_VL1,2,2*%
X119126000Y-77851000D03*
%TO.P,RF_VL1,3,3*%
X122682000Y-77851000D03*
%TO.P,RF_VL1,4,4*%
X122682000Y-70739000D03*
%TO.P,RF_VL1,6,6*%
X115570000Y-70739000D03*
D24*
%TO.P,RF_VL1,S,S*%
X114046000Y-74295000D03*
X124206000Y-74295000D03*
%TD*%
D13*
%TO.P,RF_C4,1*%
%TO.N,N/C*%
X134326000Y-110363000D03*
%TO.P,RF_C4,2*%
X129326000Y-110363000D03*
%TD*%
%TO.P,RF_R5,1*%
%TO.N,N/C*%
X167894000Y-110871000D03*
D14*
%TO.P,RF_R5,2*%
X160274000Y-110871000D03*
%TD*%
D19*
%TO.P,RF_L2,1,1*%
%TO.N,N/C*%
X160314000Y-98933000D03*
%TO.P,RF_L2,2,2*%
X165314000Y-98933000D03*
%TD*%
D13*
%TO.P,RF_C10,1*%
%TO.N,N/C*%
X169418000Y-102703000D03*
%TO.P,RF_C10,2*%
X169418000Y-97703000D03*
%TD*%
%TO.P,RF_JP1,1,A*%
%TO.N,N/C*%
X122682000Y-81153000D03*
D14*
%TO.P,RF_JP1,2,B*%
X122682000Y-96393000D03*
%TD*%
D13*
%TO.P,RF_C6,1*%
%TO.N,N/C*%
X156972000Y-109895000D03*
%TO.P,RF_C6,2*%
X156972000Y-114895000D03*
%TD*%
%TO.P,RF_C5,1*%
%TO.N,N/C*%
X133136000Y-93091000D03*
%TO.P,RF_C5,2*%
X138136000Y-93091000D03*
%TD*%
%TO.P,RF_R11,1*%
%TO.N,N/C*%
X132842000Y-86995000D03*
D14*
%TO.P,RF_R11,2*%
X140462000Y-86995000D03*
%TD*%
D13*
%TO.P,RF_C12,1*%
%TO.N,N/C*%
X152614000Y-106807000D03*
%TO.P,RF_C12,2*%
X147614000Y-106807000D03*
%TD*%
%TO.P,RF_R6,1*%
%TO.N,N/C*%
X160274000Y-114681000D03*
D14*
%TO.P,RF_R6,2*%
X167894000Y-114681000D03*
%TD*%
D13*
%TO.P,RF_C2,1*%
%TO.N,N/C*%
X126492000Y-88813000D03*
%TO.P,RF_C2,2*%
X126492000Y-93813000D03*
%TD*%
D20*
%TO.P,RF_C13,1*%
%TO.N,N/C*%
X118395328Y-113919000D03*
D13*
%TO.P,RF_C13,2*%
X120395328Y-113919000D03*
%TD*%
D25*
%TO.N,*%
X155194000Y-92329000D02*
X155194000Y-96154000D01*
X157535000Y-96154000D02*
X160314000Y-98933000D01*
X155194000Y-96154000D02*
X157535000Y-96154000D01*
X129794000Y-83439000D02*
X131064000Y-82169000D01*
X134620000Y-83185000D02*
X134620000Y-90043000D01*
X122428000Y-83693000D02*
X116586000Y-77851000D01*
X137668000Y-90043000D02*
X134620000Y-90043000D01*
X131064000Y-82169000D02*
X133604000Y-82169000D01*
X133604000Y-82169000D02*
X134620000Y-83185000D01*
X142494000Y-96154000D02*
X142494000Y-94869000D01*
X116586000Y-77851000D02*
X115570000Y-77851000D01*
X129794000Y-83693000D02*
X129794000Y-83439000D01*
X129794000Y-83693000D02*
X122428000Y-83693000D01*
X142494000Y-94869000D02*
X137668000Y-90043000D01*
X152614000Y-106807000D02*
X154900000Y-106807000D01*
X153936800Y-85991800D02*
X152146000Y-84201000D01*
X148336000Y-84201000D02*
X145670500Y-81535500D01*
X153936800Y-97167800D02*
X153936800Y-85991800D01*
X156972000Y-100203000D02*
X153936800Y-97167800D01*
X152146000Y-84201000D02*
X148336000Y-84201000D01*
X145670500Y-81535500D02*
X145670500Y-79956000D01*
X154900000Y-106807000D02*
X156972000Y-104735000D01*
X156972000Y-104735000D02*
X156972000Y-100203000D01*
X166918000Y-79771000D02*
X168656000Y-78033000D01*
X169672000Y-88479000D02*
X169672000Y-89321000D01*
X166918000Y-85725000D02*
X169672000Y-88479000D01*
X166918000Y-85725000D02*
X166918000Y-79771000D01*
X165314000Y-98933000D02*
X169084000Y-102703000D01*
X169084000Y-102703000D02*
X169418000Y-102703000D01*
X169672000Y-94321000D02*
X165608000Y-94321000D01*
X169418000Y-94575000D02*
X169672000Y-94321000D01*
X169418000Y-97703000D02*
X169418000Y-94575000D01*
X165608000Y-94321000D02*
X162560000Y-91273000D01*
X159258000Y-92075000D02*
X161758000Y-92075000D01*
X161758000Y-92075000D02*
X162560000Y-91273000D01*
X150074000Y-96114000D02*
X150114000Y-96154000D01*
X151384000Y-86995000D02*
X151638000Y-86741000D01*
X151638000Y-91781000D02*
X150074000Y-93345000D01*
X151638000Y-86741000D02*
X151638000Y-91781000D01*
X150074000Y-93345000D02*
X150074000Y-96114000D01*
D26*
X156806800Y-91909800D02*
X156806800Y-88099800D01*
X127762000Y-77089000D02*
X149606000Y-77089000D01*
X167894000Y-114605000D02*
X167818000Y-114681000D01*
X139954000Y-97570000D02*
X141317000Y-98933000D01*
X138176000Y-88519000D02*
X145034000Y-95377000D01*
X143510000Y-98933000D02*
X145034000Y-97409000D01*
X136895805Y-83947000D02*
X130037805Y-77089000D01*
X127000000Y-77851000D02*
X127762000Y-77089000D01*
X138176000Y-86233000D02*
X138176000Y-88519000D01*
X156806800Y-88099800D02*
X155194000Y-86487000D01*
D25*
X133972200Y-107810200D02*
X138696800Y-107810200D01*
X130937000Y-104775000D02*
X133972200Y-107810200D01*
X138696800Y-107810200D02*
X141236800Y-105270200D01*
X128270000Y-104775000D02*
X130937000Y-104775000D01*
X141236800Y-105270200D02*
X141236800Y-102853251D01*
X141236800Y-102853251D02*
X147574000Y-96516051D01*
X120904000Y-103759000D02*
X127254000Y-103759000D01*
X117348000Y-100203000D02*
X120904000Y-103759000D01*
X127254000Y-103759000D02*
X128270000Y-104775000D01*
X147574000Y-96516051D02*
X147574000Y-96154000D01*
X140462000Y-86995000D02*
X151384000Y-86995000D01*
X142240000Y-90257000D02*
X142240000Y-90043000D01*
X145074000Y-93091000D02*
X142240000Y-90257000D01*
X151090000Y-114895000D02*
X150622000Y-115363000D01*
X157186000Y-114681000D02*
X156972000Y-114895000D01*
X147614000Y-103814000D02*
X147574000Y-103774000D01*
X156972000Y-114895000D02*
X151090000Y-114895000D01*
X147614000Y-106807000D02*
X147614000Y-103814000D01*
X147614000Y-112355000D02*
X147614000Y-106807000D01*
X160274000Y-114681000D02*
X157186000Y-114681000D01*
X150622000Y-115363000D02*
X147614000Y-112355000D01*
X152908000Y-92288950D02*
X152908000Y-86233050D01*
X151891950Y-85217000D02*
X144526000Y-85217000D01*
X150114000Y-100203000D02*
X151384000Y-98933000D01*
X151384000Y-93812950D02*
X152908000Y-92288950D01*
X156758000Y-110109000D02*
X156972000Y-109895000D01*
X140970500Y-81661500D02*
X140970500Y-79956000D01*
X159298000Y-109895000D02*
X160274000Y-110871000D01*
X150114000Y-103774000D02*
X150114000Y-100203000D01*
X152908000Y-86233050D02*
X151891950Y-85217000D01*
X144526000Y-85217000D02*
X140970500Y-81661500D01*
X150622000Y-110363000D02*
X150114000Y-109855000D01*
X151384000Y-98933000D02*
X151384000Y-93812950D01*
X156972000Y-109895000D02*
X159298000Y-109895000D01*
X150876000Y-110109000D02*
X156758000Y-110109000D01*
X150622000Y-110363000D02*
X150876000Y-110109000D01*
X150114000Y-109855000D02*
X150114000Y-103774000D01*
X134874000Y-96154000D02*
X134874000Y-94829000D01*
X134874000Y-94829000D02*
X133136000Y-93091000D01*
X130810000Y-98933000D02*
X133589000Y-96154000D01*
X133589000Y-96154000D02*
X134874000Y-96154000D01*
X126746000Y-98933000D02*
X130810000Y-98933000D01*
X133390000Y-110363000D02*
X130302000Y-107275000D01*
X134326000Y-110363000D02*
X134326000Y-113371000D01*
X134326000Y-110363000D02*
X133390000Y-110363000D01*
X134326000Y-113371000D02*
X134874000Y-113919000D01*
X133619000Y-103774000D02*
X132120000Y-102275000D01*
X132120000Y-102275000D02*
X130302000Y-102275000D01*
X134874000Y-103774000D02*
X133619000Y-103774000D01*
D26*
X151638000Y-79121000D02*
X154726000Y-79121000D01*
X167894000Y-110871000D02*
X162814000Y-105791000D01*
X145034000Y-95377000D02*
X145034000Y-96154000D01*
X162814000Y-105791000D02*
X162814000Y-97917000D01*
X167894000Y-110871000D02*
X167894000Y-114605000D01*
X162814000Y-97917000D02*
X156806800Y-91909800D01*
X140462000Y-83947000D02*
X136895805Y-83947000D01*
X155194000Y-82677000D02*
X151638000Y-79121000D01*
X122682000Y-77851000D02*
X127000000Y-77851000D01*
X141317000Y-98933000D02*
X143510000Y-98933000D01*
X122682000Y-81153000D02*
X122682000Y-77851000D01*
X139954000Y-96154000D02*
X139954000Y-97570000D01*
X130037805Y-77089000D02*
X127762000Y-77089000D01*
X149606000Y-77089000D02*
X151638000Y-79121000D01*
X155194000Y-86487000D02*
X155194000Y-82677000D01*
X140462000Y-83947000D02*
X138176000Y-86233000D01*
X145034000Y-97409000D02*
X145034000Y-96154000D01*
D25*
X120650000Y-90043000D02*
X117348000Y-90043000D01*
X131064000Y-92583000D02*
X131064000Y-85725000D01*
X131064000Y-92583000D02*
X129794000Y-93853000D01*
X113284000Y-85725000D02*
X113284000Y-85979000D01*
X131064000Y-85725000D02*
X132842000Y-83947000D01*
X126532000Y-93853000D02*
X126492000Y-93813000D01*
X126492000Y-93813000D02*
X124420000Y-93813000D01*
X124420000Y-93813000D02*
X120650000Y-90043000D01*
X129794000Y-93853000D02*
X126532000Y-93853000D01*
X113284000Y-85979000D02*
X117348000Y-90043000D01*
X137922000Y-106553000D02*
X139954000Y-104521000D01*
X121158000Y-97663000D02*
X122428000Y-98933000D01*
X117348000Y-97663000D02*
X121158000Y-97663000D01*
X138671200Y-100444200D02*
X138671200Y-93626200D01*
X131318000Y-103759000D02*
X128524000Y-103759000D01*
X139954000Y-103774000D02*
X139954000Y-101727000D01*
X137922000Y-106553000D02*
X137668000Y-106807000D01*
X135382000Y-93091000D02*
X138136000Y-93091000D01*
X137668000Y-106807000D02*
X134366000Y-106807000D01*
X139954000Y-101727000D02*
X138671200Y-100444200D01*
X128524000Y-103759000D02*
X127508000Y-102743000D01*
X113284000Y-93599000D02*
X113284000Y-93345000D01*
X134366000Y-106807000D02*
X131318000Y-103759000D01*
X117348000Y-97663000D02*
X113284000Y-93599000D01*
X132842000Y-86995000D02*
X132842000Y-90551000D01*
X138671200Y-93626200D02*
X138136000Y-93091000D01*
X127508000Y-102743000D02*
X126238000Y-102743000D01*
X126238000Y-102743000D02*
X122428000Y-98933000D01*
X132842000Y-90551000D02*
X135382000Y-93091000D01*
X139954000Y-104521000D02*
X139954000Y-103774000D01*
X129326000Y-110363000D02*
X129326000Y-109133000D01*
X118618000Y-106553000D02*
X117348000Y-105283000D01*
X126746000Y-106553000D02*
X118618000Y-106553000D01*
X129326000Y-109133000D02*
X126746000Y-106553000D01*
X127000000Y-104775000D02*
X128016000Y-105791000D01*
X130595950Y-105791000D02*
X133643950Y-108839000D01*
X117348000Y-102743000D02*
X119380000Y-104775000D01*
X142494000Y-105537000D02*
X142494000Y-103774000D01*
X139192000Y-108839000D02*
X142494000Y-105537000D01*
X133643950Y-108839000D02*
X139192000Y-108839000D01*
X128016000Y-105791000D02*
X130595950Y-105791000D01*
X119380000Y-104775000D02*
X127000000Y-104775000D01*
X124460000Y-99187000D02*
X124460000Y-95377000D01*
X125730000Y-100457000D02*
X124460000Y-99187000D01*
X136086800Y-100457000D02*
X125730000Y-100457000D01*
X137414000Y-101784200D02*
X137414000Y-103774000D01*
X121666000Y-92583000D02*
X117348000Y-92583000D01*
X124460000Y-95377000D02*
X121666000Y-92583000D01*
X136086800Y-100457000D02*
X137414000Y-101784200D01*
D26*
X118618000Y-96393000D02*
X117348000Y-95123000D01*
X111506000Y-92329000D02*
X111506000Y-94107000D01*
X113792000Y-91567000D02*
X112268000Y-91567000D01*
X122428000Y-109093000D02*
X122428000Y-109347000D01*
X122428000Y-109347000D02*
X118395328Y-113379672D01*
X118395328Y-113379672D02*
X118395328Y-113919000D01*
X114300000Y-96901000D02*
X114300000Y-110363000D01*
X117348000Y-95123000D02*
X113792000Y-91567000D01*
X112268000Y-91567000D02*
X111506000Y-92329000D01*
X111506000Y-94107000D02*
X114300000Y-96901000D01*
X122682000Y-96393000D02*
X118618000Y-96393000D01*
X117856000Y-113919000D02*
X118395328Y-113919000D01*
X114300000Y-110363000D02*
X117856000Y-113919000D01*
%TD*%
%TA.AperFunction,NonConductor*%
G36*
X133184208Y-68727502D02*
G01*
X133230701Y-68781158D01*
X133240805Y-68851432D01*
X133211311Y-68916012D01*
X133189345Y-68936015D01*
X133157478Y-68958787D01*
X133157474Y-68958790D01*
X133153857Y-68961375D01*
X133056717Y-69054042D01*
X132980613Y-69126642D01*
X132959577Y-69146709D01*
X132793350Y-69357568D01*
X132658491Y-69589745D01*
X132656823Y-69593862D01*
X132656820Y-69593869D01*
X132559365Y-69834474D01*
X132557691Y-69838607D01*
X132492962Y-70099190D01*
X132465595Y-70366293D01*
X132465770Y-70370745D01*
X132470405Y-70488707D01*
X132476136Y-70634588D01*
X132478131Y-70645510D01*
X132513459Y-70838947D01*
X132524375Y-70898720D01*
X132609350Y-71153421D01*
X132655336Y-71245453D01*
X132711583Y-71358020D01*
X132729365Y-71393608D01*
X132882024Y-71614488D01*
X133064283Y-71811655D01*
X133067737Y-71814467D01*
X133269048Y-71978360D01*
X133269052Y-71978363D01*
X133272505Y-71981174D01*
X133502535Y-72119664D01*
X133506630Y-72121398D01*
X133506632Y-72121399D01*
X133525764Y-72129500D01*
X133749784Y-72224360D01*
X133754077Y-72225498D01*
X133754082Y-72225500D01*
X133882097Y-72259442D01*
X134009318Y-72293174D01*
X134275958Y-72324733D01*
X134544385Y-72318407D01*
X134548779Y-72317676D01*
X134548786Y-72317675D01*
X134804841Y-72275056D01*
X134804845Y-72275055D01*
X134809243Y-72274323D01*
X135065247Y-72193359D01*
X135069258Y-72191433D01*
X135069263Y-72191431D01*
X135303270Y-72079062D01*
X135303271Y-72079061D01*
X135307289Y-72077132D01*
X135314419Y-72072368D01*
X135526832Y-71930439D01*
X135526836Y-71930436D01*
X135530540Y-71927961D01*
X135730545Y-71748821D01*
X135903314Y-71543287D01*
X135937422Y-71488598D01*
X136043042Y-71319242D01*
X136043042Y-71319241D01*
X136045400Y-71315461D01*
X136153967Y-71069888D01*
X136226849Y-70811467D01*
X136236113Y-70742496D01*
X136262165Y-70548537D01*
X136262166Y-70548529D01*
X136262592Y-70545355D01*
X136264690Y-70478588D01*
X136266242Y-70429222D01*
X136266242Y-70429217D01*
X136266343Y-70426000D01*
X136247380Y-70158169D01*
X136243583Y-70140530D01*
X136191804Y-69900029D01*
X136191804Y-69900027D01*
X136190868Y-69895682D01*
X136097935Y-69643776D01*
X136019436Y-69498292D01*
X135972548Y-69411393D01*
X135970435Y-69407477D01*
X135810912Y-69191501D01*
X135622550Y-69000157D01*
X135619010Y-68997456D01*
X135619004Y-68997450D01*
X135535422Y-68933663D01*
X135493405Y-68876435D01*
X135488997Y-68805575D01*
X135523599Y-68743581D01*
X135586225Y-68710136D01*
X135611864Y-68707500D01*
X146326087Y-68707500D01*
X146394208Y-68727502D01*
X146440701Y-68781158D01*
X146450805Y-68851432D01*
X146421311Y-68916012D01*
X146399345Y-68936015D01*
X146367478Y-68958787D01*
X146367474Y-68958790D01*
X146363857Y-68961375D01*
X146266717Y-69054042D01*
X146190613Y-69126642D01*
X146169577Y-69146709D01*
X146003350Y-69357568D01*
X145868491Y-69589745D01*
X145866823Y-69593862D01*
X145866820Y-69593869D01*
X145769365Y-69834474D01*
X145767691Y-69838607D01*
X145702962Y-70099190D01*
X145675595Y-70366293D01*
X145675770Y-70370745D01*
X145680405Y-70488707D01*
X145686136Y-70634588D01*
X145688131Y-70645510D01*
X145723459Y-70838947D01*
X145734375Y-70898720D01*
X145819350Y-71153421D01*
X145865336Y-71245453D01*
X145921583Y-71358020D01*
X145939365Y-71393608D01*
X146092024Y-71614488D01*
X146274283Y-71811655D01*
X146277737Y-71814467D01*
X146479048Y-71978360D01*
X146479052Y-71978363D01*
X146482505Y-71981174D01*
X146712535Y-72119664D01*
X146716630Y-72121398D01*
X146716632Y-72121399D01*
X146735764Y-72129500D01*
X146959784Y-72224360D01*
X146964077Y-72225498D01*
X146964082Y-72225500D01*
X147092097Y-72259442D01*
X147219318Y-72293174D01*
X147485958Y-72324733D01*
X147754385Y-72318407D01*
X147758779Y-72317676D01*
X147758786Y-72317675D01*
X148014841Y-72275056D01*
X148014845Y-72275055D01*
X148019243Y-72274323D01*
X148275247Y-72193359D01*
X148279258Y-72191433D01*
X148279263Y-72191431D01*
X148513270Y-72079062D01*
X148513271Y-72079061D01*
X148517289Y-72077132D01*
X148524419Y-72072368D01*
X148736832Y-71930439D01*
X148736836Y-71930436D01*
X148740540Y-71927961D01*
X148940545Y-71748821D01*
X149113314Y-71543287D01*
X149147422Y-71488598D01*
X149253042Y-71319242D01*
X149253042Y-71319241D01*
X149255400Y-71315461D01*
X149363967Y-71069888D01*
X149436849Y-70811467D01*
X149446113Y-70742496D01*
X149472165Y-70548537D01*
X149472166Y-70548529D01*
X149472592Y-70545355D01*
X149474690Y-70478588D01*
X149476242Y-70429222D01*
X149476242Y-70429217D01*
X149476343Y-70426000D01*
X149457380Y-70158169D01*
X149453583Y-70140530D01*
X149401804Y-69900029D01*
X149401804Y-69900027D01*
X149400868Y-69895682D01*
X149307935Y-69643776D01*
X149229436Y-69498292D01*
X149182548Y-69411393D01*
X149180435Y-69407477D01*
X149020912Y-69191501D01*
X148832550Y-69000157D01*
X148829010Y-68997456D01*
X148829004Y-68997450D01*
X148745422Y-68933663D01*
X148703405Y-68876435D01*
X148698997Y-68805575D01*
X148733599Y-68743581D01*
X148796225Y-68710136D01*
X148821864Y-68707500D01*
X163346819Y-68707500D01*
X163414940Y-68727502D01*
X163461433Y-68781158D01*
X163471537Y-68851432D01*
X163442043Y-68916012D01*
X163424827Y-68932448D01*
X163222773Y-69091735D01*
X163044909Y-69280810D01*
X163042241Y-69284656D01*
X162903433Y-69484747D01*
X162896945Y-69494099D01*
X162894878Y-69498289D01*
X162894877Y-69498292D01*
X162821073Y-69647953D01*
X162782133Y-69726915D01*
X162702994Y-69974144D01*
X162661268Y-70230356D01*
X162659569Y-70360138D01*
X162658665Y-70429222D01*
X162657870Y-70489920D01*
X162692875Y-70747136D01*
X162694184Y-70751626D01*
X162694185Y-70751632D01*
X162725049Y-70857520D01*
X162765515Y-70996352D01*
X162767473Y-71000599D01*
X162767474Y-71000602D01*
X162808600Y-71089810D01*
X162874194Y-71232094D01*
X162876754Y-71235999D01*
X162876757Y-71236004D01*
X163013957Y-71445270D01*
X163013961Y-71445275D01*
X163016523Y-71449183D01*
X163051702Y-71488598D01*
X163166981Y-71617757D01*
X163189377Y-71642850D01*
X163388959Y-71808839D01*
X163610882Y-71943506D01*
X163615196Y-71945315D01*
X163615200Y-71945317D01*
X163759663Y-72005895D01*
X163850274Y-72043891D01*
X164101873Y-72107789D01*
X164317481Y-72129500D01*
X164471896Y-72129500D01*
X164474221Y-72129327D01*
X164474227Y-72129327D01*
X164660221Y-72115505D01*
X164660225Y-72115504D01*
X164664873Y-72115159D01*
X164918059Y-72057869D01*
X164922413Y-72056176D01*
X165155643Y-71965478D01*
X165155645Y-71965477D01*
X165159996Y-71963785D01*
X165192309Y-71945317D01*
X165340699Y-71860505D01*
X165385369Y-71834974D01*
X165589227Y-71674265D01*
X165767091Y-71485190D01*
X165873272Y-71332131D01*
X165912390Y-71275743D01*
X165912392Y-71275740D01*
X165915055Y-71271901D01*
X165930387Y-71240811D01*
X166027802Y-71043273D01*
X166027803Y-71043270D01*
X166029867Y-71039085D01*
X166037454Y-71015385D01*
X166095999Y-70832490D01*
X166109006Y-70791856D01*
X166148632Y-70548537D01*
X166149981Y-70540256D01*
X166149981Y-70540255D01*
X166150732Y-70535644D01*
X166154130Y-70276080D01*
X166119125Y-70018864D01*
X166106091Y-69974144D01*
X166069760Y-69849500D01*
X166046485Y-69769648D01*
X165937806Y-69533906D01*
X165909189Y-69490257D01*
X165798043Y-69320730D01*
X165798039Y-69320725D01*
X165795477Y-69316817D01*
X165709050Y-69219983D01*
X165625740Y-69126642D01*
X165625738Y-69126640D01*
X165622623Y-69123150D01*
X165423041Y-68957161D01*
X165419049Y-68954739D01*
X165419044Y-68954735D01*
X165396769Y-68941218D01*
X165348909Y-68888779D01*
X165336998Y-68818788D01*
X165364817Y-68753469D01*
X165423534Y-68713559D01*
X165462136Y-68707500D01*
X171846819Y-68707500D01*
X171914940Y-68727502D01*
X171961433Y-68781158D01*
X171971537Y-68851432D01*
X171942043Y-68916012D01*
X171924827Y-68932448D01*
X171722773Y-69091735D01*
X171544909Y-69280810D01*
X171542241Y-69284656D01*
X171403433Y-69484747D01*
X171396945Y-69494099D01*
X171394878Y-69498289D01*
X171394877Y-69498292D01*
X171321073Y-69647953D01*
X171282133Y-69726915D01*
X171202994Y-69974144D01*
X171161268Y-70230356D01*
X171159569Y-70360138D01*
X171158665Y-70429222D01*
X171157870Y-70489920D01*
X171192875Y-70747136D01*
X171194184Y-70751626D01*
X171194185Y-70751632D01*
X171225049Y-70857520D01*
X171265515Y-70996352D01*
X171267473Y-71000599D01*
X171267474Y-71000602D01*
X171308600Y-71089810D01*
X171374194Y-71232094D01*
X171376754Y-71235999D01*
X171376757Y-71236004D01*
X171513957Y-71445270D01*
X171513961Y-71445275D01*
X171516523Y-71449183D01*
X171551702Y-71488598D01*
X171666981Y-71617757D01*
X171689377Y-71642850D01*
X171888959Y-71808839D01*
X172110882Y-71943506D01*
X172115196Y-71945315D01*
X172115200Y-71945317D01*
X172259663Y-72005895D01*
X172350274Y-72043891D01*
X172601873Y-72107789D01*
X172817481Y-72129500D01*
X172971896Y-72129500D01*
X172974221Y-72129327D01*
X172974227Y-72129327D01*
X173160221Y-72115505D01*
X173160225Y-72115504D01*
X173164873Y-72115159D01*
X173418059Y-72057869D01*
X173422413Y-72056176D01*
X173655643Y-71965478D01*
X173655645Y-71965477D01*
X173659996Y-71963785D01*
X173692309Y-71945317D01*
X173840699Y-71860505D01*
X173885369Y-71834974D01*
X174089227Y-71674265D01*
X174267091Y-71485190D01*
X174373272Y-71332131D01*
X174412390Y-71275743D01*
X174412392Y-71275740D01*
X174415055Y-71271901D01*
X174430387Y-71240811D01*
X174527802Y-71043273D01*
X174527803Y-71043270D01*
X174529867Y-71039085D01*
X174537454Y-71015385D01*
X174595999Y-70832490D01*
X174609006Y-70791856D01*
X174648632Y-70548537D01*
X174649981Y-70540256D01*
X174649981Y-70540255D01*
X174650732Y-70535644D01*
X174654130Y-70276080D01*
X174619125Y-70018864D01*
X174606091Y-69974144D01*
X174569760Y-69849500D01*
X174546485Y-69769648D01*
X174437806Y-69533906D01*
X174409189Y-69490257D01*
X174298043Y-69320730D01*
X174298039Y-69320725D01*
X174295477Y-69316817D01*
X174209050Y-69219983D01*
X174125740Y-69126642D01*
X174125738Y-69126640D01*
X174122623Y-69123150D01*
X173923041Y-68957161D01*
X173919049Y-68954739D01*
X173919044Y-68954735D01*
X173896769Y-68941218D01*
X173848909Y-68888779D01*
X173836998Y-68818788D01*
X173864817Y-68753469D01*
X173923534Y-68713559D01*
X173962136Y-68707500D01*
X174997182Y-68707500D01*
X175065303Y-68727502D01*
X175086278Y-68744405D01*
X175222596Y-68880724D01*
X175256621Y-68943036D01*
X175259500Y-68969819D01*
X175259500Y-117466181D01*
X175239498Y-117534302D01*
X175222596Y-117555276D01*
X175086278Y-117691595D01*
X175023966Y-117725620D01*
X174997182Y-117728500D01*
X107450819Y-117728500D01*
X107382698Y-117708498D01*
X107361724Y-117691596D01*
X107225405Y-117555278D01*
X107191380Y-117492966D01*
X107188500Y-117466182D01*
X107188500Y-92325435D01*
X110484588Y-92325435D01*
X110488941Y-92371485D01*
X110489500Y-92383343D01*
X110489500Y-94044724D01*
X110488763Y-94058332D01*
X110485714Y-94086402D01*
X110484638Y-94096304D01*
X110487575Y-94129870D01*
X110489046Y-94146690D01*
X110489375Y-94151518D01*
X110489500Y-94154073D01*
X110489500Y-94157157D01*
X110489801Y-94160224D01*
X110493722Y-94200219D01*
X110493844Y-94201532D01*
X110496206Y-94228523D01*
X110502012Y-94294892D01*
X110503511Y-94300052D01*
X110504035Y-94305394D01*
X110529802Y-94390737D01*
X110531098Y-94395031D01*
X110531455Y-94396236D01*
X110557628Y-94486322D01*
X110560100Y-94491090D01*
X110561652Y-94496232D01*
X110564547Y-94501677D01*
X110564550Y-94501684D01*
X110605633Y-94578950D01*
X110606213Y-94580054D01*
X110649366Y-94663304D01*
X110652718Y-94667503D01*
X110655239Y-94672244D01*
X110659131Y-94677016D01*
X110714438Y-94744829D01*
X110715266Y-94745855D01*
X110733681Y-94768922D01*
X110746768Y-94785316D01*
X110749263Y-94787811D01*
X110749973Y-94788605D01*
X110753693Y-94792960D01*
X110777337Y-94821951D01*
X110777340Y-94821954D01*
X110781232Y-94826726D01*
X110785980Y-94830654D01*
X110785981Y-94830655D01*
X110816873Y-94856211D01*
X110825652Y-94864200D01*
X113246595Y-97285143D01*
X113280621Y-97347455D01*
X113283500Y-97374238D01*
X113283500Y-110300724D01*
X113282763Y-110314332D01*
X113278638Y-110352304D01*
X113279175Y-110358439D01*
X113283046Y-110402690D01*
X113283375Y-110407518D01*
X113283500Y-110410073D01*
X113283500Y-110413157D01*
X113283801Y-110416224D01*
X113287722Y-110456219D01*
X113287844Y-110457532D01*
X113296012Y-110550892D01*
X113297511Y-110556052D01*
X113298035Y-110561394D01*
X113324302Y-110648393D01*
X113325098Y-110651031D01*
X113325455Y-110652236D01*
X113351628Y-110742322D01*
X113354100Y-110747090D01*
X113355652Y-110752232D01*
X113358547Y-110757677D01*
X113358550Y-110757684D01*
X113399633Y-110834950D01*
X113400213Y-110836054D01*
X113443366Y-110919304D01*
X113446718Y-110923503D01*
X113449239Y-110928244D01*
X113453131Y-110933016D01*
X113508438Y-111000829D01*
X113509266Y-111001855D01*
X113535605Y-111034849D01*
X113540768Y-111041316D01*
X113543263Y-111043811D01*
X113543973Y-111044605D01*
X113547693Y-111048960D01*
X113571337Y-111077951D01*
X113571340Y-111077954D01*
X113575232Y-111082726D01*
X113579980Y-111086654D01*
X113579981Y-111086655D01*
X113610873Y-111112211D01*
X113619652Y-111120200D01*
X117049923Y-114550471D01*
X117083949Y-114612783D01*
X117086828Y-114639566D01*
X117086828Y-114767134D01*
X117093583Y-114829316D01*
X117144713Y-114965705D01*
X117232067Y-115082261D01*
X117348623Y-115169615D01*
X117485012Y-115220745D01*
X117547194Y-115227500D01*
X119243462Y-115227500D01*
X119305644Y-115220745D01*
X119442033Y-115169615D01*
X119558589Y-115082261D01*
X119645943Y-114965705D01*
X119697073Y-114829316D01*
X119703828Y-114767134D01*
X119703828Y-113560910D01*
X119723830Y-113492789D01*
X119740733Y-113471815D01*
X122774143Y-110438405D01*
X122836455Y-110404379D01*
X122863238Y-110401500D01*
X123276134Y-110401500D01*
X123338316Y-110394745D01*
X123474705Y-110343615D01*
X123591261Y-110256261D01*
X123678615Y-110139705D01*
X123729745Y-110003316D01*
X123736500Y-109941134D01*
X123736500Y-108244866D01*
X123729745Y-108182684D01*
X123678615Y-108046295D01*
X123591261Y-107929739D01*
X123474705Y-107842385D01*
X123338316Y-107791255D01*
X123276134Y-107784500D01*
X121579866Y-107784500D01*
X121517684Y-107791255D01*
X121381295Y-107842385D01*
X121264739Y-107929739D01*
X121177385Y-108046295D01*
X121126255Y-108182684D01*
X121119500Y-108244866D01*
X121119500Y-109165761D01*
X121099498Y-109233882D01*
X121082595Y-109254856D01*
X119489796Y-110847656D01*
X117945095Y-112392357D01*
X117882783Y-112426383D01*
X117811968Y-112421318D01*
X117766905Y-112392357D01*
X115353405Y-109978857D01*
X115319379Y-109916545D01*
X115316500Y-109889762D01*
X115316500Y-96963276D01*
X115317237Y-96949668D01*
X115320697Y-96917821D01*
X115320697Y-96917817D01*
X115321362Y-96911696D01*
X115320825Y-96905557D01*
X115318871Y-96883215D01*
X115332861Y-96813611D01*
X115382262Y-96762619D01*
X115451388Y-96746430D01*
X115518293Y-96770184D01*
X115533487Y-96783141D01*
X115989364Y-97239018D01*
X116023390Y-97301330D01*
X116021686Y-97361785D01*
X116010370Y-97402588D01*
X116010369Y-97402596D01*
X116008989Y-97407570D01*
X116008441Y-97412700D01*
X116008440Y-97412704D01*
X116000006Y-97491631D01*
X115985251Y-97629695D01*
X115985548Y-97634848D01*
X115985548Y-97634851D01*
X115997730Y-97846118D01*
X115998110Y-97852715D01*
X115999247Y-97857761D01*
X115999248Y-97857767D01*
X116014537Y-97925607D01*
X116047222Y-98070639D01*
X116131266Y-98277616D01*
X116165037Y-98332726D01*
X116205284Y-98398402D01*
X116247987Y-98468088D01*
X116394250Y-98636938D01*
X116566126Y-98779632D01*
X116636595Y-98820811D01*
X116639445Y-98822476D01*
X116688169Y-98874114D01*
X116701240Y-98943897D01*
X116674509Y-99009669D01*
X116634055Y-99043027D01*
X116621607Y-99049507D01*
X116617474Y-99052610D01*
X116617471Y-99052612D01*
X116476303Y-99158604D01*
X116442965Y-99183635D01*
X116288629Y-99345138D01*
X116285715Y-99349410D01*
X116285714Y-99349411D01*
X116232982Y-99426713D01*
X116162743Y-99529680D01*
X116126512Y-99607733D01*
X116091412Y-99683351D01*
X116068688Y-99732305D01*
X116008989Y-99947570D01*
X115985251Y-100169695D01*
X115985548Y-100174848D01*
X115985548Y-100174851D01*
X115993459Y-100312050D01*
X115998110Y-100392715D01*
X115999247Y-100397761D01*
X115999248Y-100397767D01*
X116004535Y-100421225D01*
X116047222Y-100610639D01*
X116131266Y-100817616D01*
X116247987Y-101008088D01*
X116394250Y-101176938D01*
X116566126Y-101319632D01*
X116602685Y-101340995D01*
X116639445Y-101362476D01*
X116688169Y-101414114D01*
X116701240Y-101483897D01*
X116674509Y-101549669D01*
X116634055Y-101583027D01*
X116621607Y-101589507D01*
X116617474Y-101592610D01*
X116617471Y-101592612D01*
X116467069Y-101705537D01*
X116442965Y-101723635D01*
X116288629Y-101885138D01*
X116162743Y-102069680D01*
X116133117Y-102133505D01*
X116077298Y-102253757D01*
X116068688Y-102272305D01*
X116008989Y-102487570D01*
X115985251Y-102709695D01*
X115985548Y-102714848D01*
X115985548Y-102714851D01*
X115991202Y-102812908D01*
X115998110Y-102932715D01*
X115999247Y-102937761D01*
X115999248Y-102937767D01*
X116010804Y-102989042D01*
X116047222Y-103150639D01*
X116095678Y-103269973D01*
X116112322Y-103310961D01*
X116131266Y-103357616D01*
X116133965Y-103362020D01*
X116244740Y-103542789D01*
X116247987Y-103548088D01*
X116394250Y-103716938D01*
X116566126Y-103859632D01*
X116633505Y-103899005D01*
X116639445Y-103902476D01*
X116688169Y-103954114D01*
X116701240Y-104023897D01*
X116674509Y-104089669D01*
X116634055Y-104123027D01*
X116621607Y-104129507D01*
X116617474Y-104132610D01*
X116617471Y-104132612D01*
X116447100Y-104260530D01*
X116442965Y-104263635D01*
X116439393Y-104267373D01*
X116298996Y-104414290D01*
X116288629Y-104425138D01*
X116162743Y-104609680D01*
X116154135Y-104628225D01*
X116102558Y-104739339D01*
X116068688Y-104812305D01*
X116008989Y-105027570D01*
X115985251Y-105249695D01*
X115985548Y-105254842D01*
X115985548Y-105254851D01*
X115991131Y-105351669D01*
X115998110Y-105472715D01*
X115999247Y-105477761D01*
X115999248Y-105477767D01*
X116021391Y-105576019D01*
X116047222Y-105690639D01*
X116131266Y-105897616D01*
X116133965Y-105902020D01*
X116238956Y-106073350D01*
X116247987Y-106088088D01*
X116394250Y-106256938D01*
X116566126Y-106399632D01*
X116759000Y-106512338D01*
X116763825Y-106514180D01*
X116763826Y-106514181D01*
X116831992Y-106540211D01*
X116967692Y-106592030D01*
X116972760Y-106593061D01*
X116972763Y-106593062D01*
X117062834Y-106611387D01*
X117186597Y-106636567D01*
X117191772Y-106636757D01*
X117191774Y-106636757D01*
X117404673Y-106644564D01*
X117404677Y-106644564D01*
X117409837Y-106644753D01*
X117414957Y-106644097D01*
X117414959Y-106644097D01*
X117484153Y-106635233D01*
X117631416Y-106616368D01*
X117636369Y-106614882D01*
X117636374Y-106614881D01*
X117648019Y-106611387D01*
X117719014Y-106610969D01*
X117773323Y-106642977D01*
X118131393Y-107001047D01*
X118137246Y-107007312D01*
X118172524Y-107047752D01*
X118178742Y-107052122D01*
X118221084Y-107081880D01*
X118226380Y-107085813D01*
X118273121Y-107122463D01*
X118280045Y-107125589D01*
X118286176Y-107129302D01*
X118290796Y-107131938D01*
X118297178Y-107135360D01*
X118303397Y-107139731D01*
X118310476Y-107142491D01*
X118358713Y-107161298D01*
X118364792Y-107163854D01*
X118418912Y-107188289D01*
X118426388Y-107189675D01*
X118433266Y-107191830D01*
X118438391Y-107193290D01*
X118445355Y-107195078D01*
X118452434Y-107197838D01*
X118459966Y-107198830D01*
X118459968Y-107198830D01*
X118485196Y-107202151D01*
X118511300Y-107205587D01*
X118517798Y-107206616D01*
X118576197Y-107217440D01*
X118583777Y-107217003D01*
X118583778Y-107217003D01*
X118633967Y-107214109D01*
X118641220Y-107213900D01*
X125545792Y-107213900D01*
X125613913Y-107233902D01*
X125649005Y-107267629D01*
X125736643Y-107392789D01*
X125739802Y-107397300D01*
X125901700Y-107559198D01*
X125906208Y-107562355D01*
X125906211Y-107562357D01*
X125909760Y-107564842D01*
X126089251Y-107690523D01*
X126094233Y-107692846D01*
X126094238Y-107692849D01*
X126291578Y-107784869D01*
X126296757Y-107787284D01*
X126302065Y-107788706D01*
X126302067Y-107788707D01*
X126512598Y-107845119D01*
X126512600Y-107845119D01*
X126517913Y-107846543D01*
X126746000Y-107866498D01*
X126974087Y-107846543D01*
X126979398Y-107845120D01*
X126979409Y-107845118D01*
X127006980Y-107837730D01*
X127077956Y-107839419D01*
X127128687Y-107870341D01*
X128459329Y-109200983D01*
X128493355Y-109263295D01*
X128488290Y-109334110D01*
X128459329Y-109379173D01*
X128319802Y-109518700D01*
X128316645Y-109523208D01*
X128316643Y-109523211D01*
X128284305Y-109569395D01*
X128188477Y-109706251D01*
X128186154Y-109711233D01*
X128186151Y-109711238D01*
X128150569Y-109787545D01*
X128091716Y-109913757D01*
X128090294Y-109919065D01*
X128090293Y-109919067D01*
X128065736Y-110010715D01*
X128032457Y-110134913D01*
X128012502Y-110363000D01*
X128032457Y-110591087D01*
X128033881Y-110596400D01*
X128033881Y-110596402D01*
X128072981Y-110742322D01*
X128091716Y-110812243D01*
X128094039Y-110817224D01*
X128094039Y-110817225D01*
X128186151Y-111014762D01*
X128186154Y-111014767D01*
X128188477Y-111019749D01*
X128229231Y-111077951D01*
X128307004Y-111189022D01*
X128319802Y-111207300D01*
X128481700Y-111369198D01*
X128486208Y-111372355D01*
X128486211Y-111372357D01*
X128564389Y-111427098D01*
X128669251Y-111500523D01*
X128674233Y-111502846D01*
X128674238Y-111502849D01*
X128788428Y-111556096D01*
X128876757Y-111597284D01*
X128882065Y-111598706D01*
X128882067Y-111598707D01*
X129092598Y-111655119D01*
X129092600Y-111655119D01*
X129097913Y-111656543D01*
X129326000Y-111676498D01*
X129554087Y-111656543D01*
X129559400Y-111655119D01*
X129559402Y-111655119D01*
X129769933Y-111598707D01*
X129769935Y-111598706D01*
X129775243Y-111597284D01*
X129863572Y-111556096D01*
X129977762Y-111502849D01*
X129977767Y-111502846D01*
X129982749Y-111500523D01*
X130087611Y-111427098D01*
X130165789Y-111372357D01*
X130165792Y-111372355D01*
X130170300Y-111369198D01*
X130332198Y-111207300D01*
X130344997Y-111189022D01*
X130422769Y-111077951D01*
X130463523Y-111019749D01*
X130465846Y-111014767D01*
X130465849Y-111014762D01*
X130557961Y-110817225D01*
X130557961Y-110817224D01*
X130560284Y-110812243D01*
X130579020Y-110742322D01*
X130618119Y-110596402D01*
X130618119Y-110596400D01*
X130619543Y-110591087D01*
X130639498Y-110363000D01*
X130619543Y-110134913D01*
X130586264Y-110010715D01*
X130561707Y-109919067D01*
X130561706Y-109919065D01*
X130560284Y-109913757D01*
X130501431Y-109787545D01*
X130465849Y-109711238D01*
X130465846Y-109711233D01*
X130463523Y-109706251D01*
X130367695Y-109569395D01*
X130335357Y-109523211D01*
X130335355Y-109523208D01*
X130332198Y-109518700D01*
X130170300Y-109356802D01*
X130165792Y-109353645D01*
X130165789Y-109353643D01*
X130040629Y-109266005D01*
X129996301Y-109210548D01*
X129986900Y-109162792D01*
X129986900Y-109160263D01*
X129987192Y-109151692D01*
X129988359Y-109134569D01*
X129990842Y-109098157D01*
X129980631Y-109039653D01*
X129979669Y-109033131D01*
X129973450Y-108981738D01*
X129973450Y-108981736D01*
X129972537Y-108974195D01*
X129969851Y-108967087D01*
X129968140Y-108960121D01*
X129966721Y-108954932D01*
X129964644Y-108948053D01*
X129963339Y-108940576D01*
X129939471Y-108886205D01*
X129936986Y-108880114D01*
X129918679Y-108831664D01*
X129918678Y-108831662D01*
X129915994Y-108824559D01*
X129911691Y-108818298D01*
X129908385Y-108811974D01*
X129905729Y-108807202D01*
X129902094Y-108801056D01*
X129899042Y-108794104D01*
X129862898Y-108746999D01*
X129859037Y-108741686D01*
X129858139Y-108740380D01*
X129836025Y-108672916D01*
X129853896Y-108604205D01*
X129906077Y-108556063D01*
X129976002Y-108543775D01*
X129994576Y-108547285D01*
X130068591Y-108567118D01*
X130068602Y-108567120D01*
X130073913Y-108568543D01*
X130302000Y-108588498D01*
X130530087Y-108568543D01*
X130535398Y-108567120D01*
X130535409Y-108567118D01*
X130562980Y-108559730D01*
X130633956Y-108561419D01*
X130684687Y-108592341D01*
X132903393Y-110811047D01*
X132909246Y-110817312D01*
X132944524Y-110857752D01*
X132950735Y-110862117D01*
X132950738Y-110862120D01*
X132993107Y-110891897D01*
X132998402Y-110895830D01*
X133045121Y-110932462D01*
X133052046Y-110935589D01*
X133058223Y-110939330D01*
X133062802Y-110941942D01*
X133069180Y-110945362D01*
X133075397Y-110949731D01*
X133128648Y-110970492D01*
X133184848Y-111013873D01*
X133188006Y-111018738D01*
X133188477Y-111019749D01*
X133191005Y-111023359D01*
X133191008Y-111023364D01*
X133307004Y-111189022D01*
X133319802Y-111207300D01*
X133481700Y-111369198D01*
X133486208Y-111372355D01*
X133486211Y-111372357D01*
X133611371Y-111459995D01*
X133655699Y-111515452D01*
X133665100Y-111563208D01*
X133665100Y-113343737D01*
X133664808Y-113352309D01*
X133661322Y-113403434D01*
X133649809Y-113448111D01*
X133642041Y-113464770D01*
X133639716Y-113469757D01*
X133638294Y-113475065D01*
X133638293Y-113475067D01*
X133581881Y-113685598D01*
X133580457Y-113690913D01*
X133560502Y-113919000D01*
X133580457Y-114147087D01*
X133639716Y-114368243D01*
X133642039Y-114373224D01*
X133642039Y-114373225D01*
X133734151Y-114570762D01*
X133734154Y-114570767D01*
X133736477Y-114575749D01*
X133783054Y-114642268D01*
X133835926Y-114717776D01*
X133867802Y-114763300D01*
X134029700Y-114925198D01*
X134034208Y-114928355D01*
X134034211Y-114928357D01*
X134075542Y-114957297D01*
X134217251Y-115056523D01*
X134222233Y-115058846D01*
X134222238Y-115058849D01*
X134375345Y-115130243D01*
X134424757Y-115153284D01*
X134430065Y-115154706D01*
X134430067Y-115154707D01*
X134640598Y-115211119D01*
X134640600Y-115211119D01*
X134645913Y-115212543D01*
X134874000Y-115232498D01*
X135102087Y-115212543D01*
X135107400Y-115211119D01*
X135107402Y-115211119D01*
X135317933Y-115154707D01*
X135317935Y-115154706D01*
X135323243Y-115153284D01*
X135372655Y-115130243D01*
X135525762Y-115058849D01*
X135525767Y-115058846D01*
X135530749Y-115056523D01*
X135672458Y-114957297D01*
X135713789Y-114928357D01*
X135713792Y-114928355D01*
X135718300Y-114925198D01*
X135880198Y-114763300D01*
X135912075Y-114717776D01*
X135964946Y-114642268D01*
X136011523Y-114575749D01*
X136013846Y-114570767D01*
X136013849Y-114570762D01*
X136105961Y-114373225D01*
X136105961Y-114373224D01*
X136108284Y-114368243D01*
X136167543Y-114147087D01*
X136187498Y-113919000D01*
X136167543Y-113690913D01*
X136166119Y-113685598D01*
X136109707Y-113475067D01*
X136109706Y-113475065D01*
X136108284Y-113469757D01*
X136098623Y-113449039D01*
X136013849Y-113267238D01*
X136013846Y-113267233D01*
X136011523Y-113262251D01*
X135880198Y-113074700D01*
X135718300Y-112912802D01*
X135713792Y-112909645D01*
X135713789Y-112909643D01*
X135605428Y-112833768D01*
X135530749Y-112781477D01*
X135525767Y-112779154D01*
X135525762Y-112779151D01*
X135328225Y-112687039D01*
X135328224Y-112687039D01*
X135323243Y-112684716D01*
X135317935Y-112683294D01*
X135317933Y-112683293D01*
X135217328Y-112656336D01*
X135102087Y-112625457D01*
X135096598Y-112624977D01*
X135091194Y-112624024D01*
X135091646Y-112621458D01*
X135035675Y-112599482D01*
X134994108Y-112541926D01*
X134986900Y-112499922D01*
X134986900Y-111563208D01*
X135006902Y-111495087D01*
X135040629Y-111459995D01*
X135165789Y-111372357D01*
X135165792Y-111372355D01*
X135170300Y-111369198D01*
X135332198Y-111207300D01*
X135344997Y-111189022D01*
X135422769Y-111077951D01*
X135463523Y-111019749D01*
X135465846Y-111014767D01*
X135465849Y-111014762D01*
X135557961Y-110817225D01*
X135557961Y-110817224D01*
X135560284Y-110812243D01*
X135579020Y-110742322D01*
X135618119Y-110596402D01*
X135618119Y-110596400D01*
X135619543Y-110591087D01*
X135639498Y-110363000D01*
X135619543Y-110134913D01*
X135586264Y-110010715D01*
X135561707Y-109919067D01*
X135561706Y-109919065D01*
X135560284Y-109913757D01*
X135501431Y-109787545D01*
X135465849Y-109711238D01*
X135465846Y-109711233D01*
X135463523Y-109706251D01*
X135457867Y-109698173D01*
X135435177Y-109630900D01*
X135452460Y-109562039D01*
X135504229Y-109513454D01*
X135561078Y-109499900D01*
X139164737Y-109499900D01*
X139173308Y-109500192D01*
X139226843Y-109503842D01*
X139234320Y-109502537D01*
X139234321Y-109502537D01*
X139259626Y-109498121D01*
X139285347Y-109493631D01*
X139291865Y-109492670D01*
X139310223Y-109490448D01*
X139343262Y-109486450D01*
X139343264Y-109486450D01*
X139350805Y-109485537D01*
X139357913Y-109482851D01*
X139364879Y-109481140D01*
X139370068Y-109479721D01*
X139376947Y-109477644D01*
X139384424Y-109476339D01*
X139438795Y-109452471D01*
X139444886Y-109449986D01*
X139449878Y-109448100D01*
X139469475Y-109440695D01*
X139493336Y-109431679D01*
X139493338Y-109431678D01*
X139500441Y-109428994D01*
X139506702Y-109424691D01*
X139513026Y-109421385D01*
X139517798Y-109418729D01*
X139523944Y-109415094D01*
X139530896Y-109412042D01*
X139578001Y-109375898D01*
X139583334Y-109372023D01*
X139594699Y-109364212D01*
X139632271Y-109338389D01*
X139670769Y-109295180D01*
X139675749Y-109289905D01*
X142942047Y-106023607D01*
X142948313Y-106017753D01*
X142983025Y-105987472D01*
X142988752Y-105982476D01*
X143022882Y-105933913D01*
X143026814Y-105928618D01*
X143054877Y-105892829D01*
X143063463Y-105881879D01*
X143066589Y-105874955D01*
X143070302Y-105868824D01*
X143072938Y-105864204D01*
X143076360Y-105857822D01*
X143080731Y-105851603D01*
X143102299Y-105796286D01*
X143104854Y-105790207D01*
X143126161Y-105743015D01*
X143129289Y-105736088D01*
X143130675Y-105728612D01*
X143132830Y-105721734D01*
X143134290Y-105716609D01*
X143136078Y-105709645D01*
X143138838Y-105702566D01*
X143146587Y-105643700D01*
X143147618Y-105637189D01*
X143158440Y-105578803D01*
X143157766Y-105567104D01*
X143155109Y-105521033D01*
X143154900Y-105513780D01*
X143154900Y-105374208D01*
X143174902Y-105306087D01*
X143208629Y-105270995D01*
X143333789Y-105183357D01*
X143333792Y-105183355D01*
X143338300Y-105180198D01*
X143500198Y-105018300D01*
X143631523Y-104830749D01*
X143633846Y-104825767D01*
X143633849Y-104825762D01*
X143725961Y-104628225D01*
X143725961Y-104628224D01*
X143728284Y-104623243D01*
X143781367Y-104425138D01*
X143786119Y-104407402D01*
X143786119Y-104407400D01*
X143787543Y-104402087D01*
X143802500Y-104231127D01*
X143802500Y-103316873D01*
X143787543Y-103145913D01*
X143781594Y-103123711D01*
X143729707Y-102930067D01*
X143729706Y-102930065D01*
X143728284Y-102924757D01*
X143683727Y-102829203D01*
X143633849Y-102722238D01*
X143633846Y-102722233D01*
X143631523Y-102717251D01*
X143531507Y-102574414D01*
X143503357Y-102534211D01*
X143503355Y-102534208D01*
X143500198Y-102529700D01*
X143338300Y-102367802D01*
X143333792Y-102364645D01*
X143333789Y-102364643D01*
X143245399Y-102302752D01*
X143150749Y-102236477D01*
X143145761Y-102234151D01*
X143145758Y-102234149D01*
X143066602Y-102197239D01*
X143013317Y-102150323D01*
X142993855Y-102082045D01*
X143014396Y-102014085D01*
X143030756Y-101993949D01*
X147161383Y-97863322D01*
X147223695Y-97829296D01*
X147283088Y-97830710D01*
X147323046Y-97841416D01*
X147345913Y-97847543D01*
X147574000Y-97867498D01*
X147802087Y-97847543D01*
X147807400Y-97846119D01*
X147807402Y-97846119D01*
X148017933Y-97789707D01*
X148017935Y-97789706D01*
X148023243Y-97788284D01*
X148083142Y-97760353D01*
X148225762Y-97693849D01*
X148225767Y-97693846D01*
X148230749Y-97691523D01*
X148339606Y-97615300D01*
X148413789Y-97563357D01*
X148413792Y-97563355D01*
X148418300Y-97560198D01*
X148580198Y-97398300D01*
X148597047Y-97374238D01*
X148648097Y-97301330D01*
X148711523Y-97210749D01*
X148713846Y-97205767D01*
X148713849Y-97205762D01*
X148729805Y-97171543D01*
X148776722Y-97118258D01*
X148844999Y-97098797D01*
X148912959Y-97119339D01*
X148958195Y-97171543D01*
X148974151Y-97205762D01*
X148974154Y-97205767D01*
X148976477Y-97210749D01*
X149039903Y-97301330D01*
X149090954Y-97374238D01*
X149107802Y-97398300D01*
X149269700Y-97560198D01*
X149274208Y-97563355D01*
X149274211Y-97563357D01*
X149348394Y-97615300D01*
X149457251Y-97691523D01*
X149462233Y-97693846D01*
X149462238Y-97693849D01*
X149604858Y-97760353D01*
X149664757Y-97788284D01*
X149670065Y-97789706D01*
X149670067Y-97789707D01*
X149880598Y-97846119D01*
X149880600Y-97846119D01*
X149885913Y-97847543D01*
X150114000Y-97867498D01*
X150342087Y-97847543D01*
X150347400Y-97846119D01*
X150347402Y-97846119D01*
X150563243Y-97788284D01*
X150563842Y-97790520D01*
X150624816Y-97786623D01*
X150686869Y-97821120D01*
X150720420Y-97883688D01*
X150723100Y-97909537D01*
X150723100Y-98607056D01*
X150703098Y-98675177D01*
X150686195Y-98696151D01*
X149665961Y-99716386D01*
X149659696Y-99722239D01*
X149619248Y-99757524D01*
X149586597Y-99803982D01*
X149585109Y-99806099D01*
X149581177Y-99811393D01*
X149544537Y-99858121D01*
X149541411Y-99865045D01*
X149537698Y-99871176D01*
X149535062Y-99875796D01*
X149531640Y-99882178D01*
X149527269Y-99888397D01*
X149510424Y-99931603D01*
X149505702Y-99943713D01*
X149503146Y-99949792D01*
X149478711Y-100003912D01*
X149477325Y-100011388D01*
X149475170Y-100018266D01*
X149473710Y-100023391D01*
X149471922Y-100030355D01*
X149469162Y-100037434D01*
X149468170Y-100044966D01*
X149468170Y-100044968D01*
X149461414Y-100096292D01*
X149460384Y-100102798D01*
X149449560Y-100161197D01*
X149449997Y-100168777D01*
X149449997Y-100168778D01*
X149452891Y-100218967D01*
X149453100Y-100226220D01*
X149453100Y-102173792D01*
X149433098Y-102241913D01*
X149399371Y-102277005D01*
X149274211Y-102364643D01*
X149274208Y-102364645D01*
X149269700Y-102367802D01*
X149107802Y-102529700D01*
X149104645Y-102534208D01*
X149104643Y-102534211D01*
X149076493Y-102574414D01*
X148976477Y-102717251D01*
X148974154Y-102722233D01*
X148974151Y-102722238D01*
X148958195Y-102756457D01*
X148911278Y-102809742D01*
X148843001Y-102829203D01*
X148775041Y-102808661D01*
X148729805Y-102756457D01*
X148713849Y-102722238D01*
X148713846Y-102722233D01*
X148711523Y-102717251D01*
X148611507Y-102574414D01*
X148583357Y-102534211D01*
X148583355Y-102534208D01*
X148580198Y-102529700D01*
X148418300Y-102367802D01*
X148413792Y-102364645D01*
X148413789Y-102364643D01*
X148325399Y-102302752D01*
X148230749Y-102236477D01*
X148225767Y-102234154D01*
X148225762Y-102234151D01*
X148028225Y-102142039D01*
X148028224Y-102142039D01*
X148023243Y-102139716D01*
X148017935Y-102138294D01*
X148017933Y-102138293D01*
X147807402Y-102081881D01*
X147807400Y-102081881D01*
X147802087Y-102080457D01*
X147574000Y-102060502D01*
X147345913Y-102080457D01*
X147340600Y-102081881D01*
X147340598Y-102081881D01*
X147130067Y-102138293D01*
X147130065Y-102138294D01*
X147124757Y-102139716D01*
X147119776Y-102142039D01*
X147119775Y-102142039D01*
X146922238Y-102234151D01*
X146922233Y-102234154D01*
X146917251Y-102236477D01*
X146822601Y-102302752D01*
X146734211Y-102364643D01*
X146734208Y-102364645D01*
X146729700Y-102367802D01*
X146567802Y-102529700D01*
X146564645Y-102534208D01*
X146564643Y-102534211D01*
X146536493Y-102574414D01*
X146436477Y-102717251D01*
X146434154Y-102722233D01*
X146434151Y-102722238D01*
X146384273Y-102829203D01*
X146339716Y-102924757D01*
X146338294Y-102930065D01*
X146338293Y-102930067D01*
X146286406Y-103123711D01*
X146280457Y-103145913D01*
X146265500Y-103316873D01*
X146265500Y-104231127D01*
X146280457Y-104402087D01*
X146281881Y-104407400D01*
X146281881Y-104407402D01*
X146286634Y-104425138D01*
X146339716Y-104623243D01*
X146342039Y-104628224D01*
X146342039Y-104628225D01*
X146434151Y-104825762D01*
X146434154Y-104825767D01*
X146436477Y-104830749D01*
X146567802Y-105018300D01*
X146729700Y-105180198D01*
X146734208Y-105183355D01*
X146734211Y-105183357D01*
X146899371Y-105299003D01*
X146943699Y-105354460D01*
X146953100Y-105402216D01*
X146953100Y-105606792D01*
X146933098Y-105674913D01*
X146899371Y-105710005D01*
X146774211Y-105797643D01*
X146774208Y-105797645D01*
X146769700Y-105800802D01*
X146607802Y-105962700D01*
X146604645Y-105967208D01*
X146604643Y-105967211D01*
X146565154Y-106023607D01*
X146476477Y-106150251D01*
X146474154Y-106155233D01*
X146474151Y-106155238D01*
X146384652Y-106347171D01*
X146379716Y-106357757D01*
X146378294Y-106363065D01*
X146378293Y-106363067D01*
X146327400Y-106553000D01*
X146320457Y-106578913D01*
X146300502Y-106807000D01*
X146320457Y-107035087D01*
X146321881Y-107040400D01*
X146321881Y-107040402D01*
X146369202Y-107217003D01*
X146379716Y-107256243D01*
X146382039Y-107261224D01*
X146382039Y-107261225D01*
X146474151Y-107458762D01*
X146474154Y-107458767D01*
X146476477Y-107463749D01*
X146607802Y-107651300D01*
X146769700Y-107813198D01*
X146774208Y-107816355D01*
X146774211Y-107816357D01*
X146899371Y-107903995D01*
X146943699Y-107959452D01*
X146953100Y-108007208D01*
X146953100Y-112327737D01*
X146952808Y-112336308D01*
X146949158Y-112389843D01*
X146950463Y-112397320D01*
X146950463Y-112397321D01*
X146959368Y-112448343D01*
X146960330Y-112454865D01*
X146967463Y-112513805D01*
X146970149Y-112520913D01*
X146971860Y-112527879D01*
X146973279Y-112533068D01*
X146975356Y-112539947D01*
X146976661Y-112547424D01*
X147000529Y-112601795D01*
X147003012Y-112607881D01*
X147024006Y-112663441D01*
X147028309Y-112669702D01*
X147031615Y-112676026D01*
X147034271Y-112680798D01*
X147037906Y-112686944D01*
X147040958Y-112693896D01*
X147045580Y-112699919D01*
X147077102Y-112741001D01*
X147080973Y-112746328D01*
X147114611Y-112795271D01*
X147120287Y-112800328D01*
X147157819Y-112833768D01*
X147163095Y-112838749D01*
X148904302Y-114579956D01*
X148938328Y-114642268D01*
X148931405Y-114717774D01*
X148902148Y-114787545D01*
X148835981Y-115048077D01*
X148809050Y-115315526D01*
X148809274Y-115320192D01*
X148809274Y-115320197D01*
X148812898Y-115395629D01*
X148821947Y-115584019D01*
X148874388Y-115847656D01*
X148965220Y-116100646D01*
X148967432Y-116104762D01*
X148967433Y-116104765D01*
X148980608Y-116129284D01*
X149092450Y-116337431D01*
X149095241Y-116341168D01*
X149095245Y-116341175D01*
X149176887Y-116450506D01*
X149253281Y-116552810D01*
X149256590Y-116556090D01*
X149256595Y-116556096D01*
X149440863Y-116738762D01*
X149444180Y-116742050D01*
X149447942Y-116744808D01*
X149447945Y-116744811D01*
X149560299Y-116827192D01*
X149660954Y-116900995D01*
X149665089Y-116903171D01*
X149665093Y-116903173D01*
X149894698Y-117023975D01*
X149898840Y-117026154D01*
X150152613Y-117114775D01*
X150157206Y-117115647D01*
X150412109Y-117164042D01*
X150412112Y-117164042D01*
X150416698Y-117164913D01*
X150544370Y-117169929D01*
X150680625Y-117175283D01*
X150680630Y-117175283D01*
X150685293Y-117175466D01*
X150789607Y-117164042D01*
X150947844Y-117146713D01*
X150947850Y-117146712D01*
X150952497Y-117146203D01*
X150957021Y-117145012D01*
X151207918Y-117078956D01*
X151207920Y-117078955D01*
X151212441Y-117077765D01*
X151216738Y-117075919D01*
X151455120Y-116973502D01*
X151455122Y-116973501D01*
X151459414Y-116971657D01*
X151578071Y-116898230D01*
X151684017Y-116832669D01*
X151684021Y-116832666D01*
X151687990Y-116830210D01*
X151893149Y-116656530D01*
X152070382Y-116454434D01*
X152215797Y-116228361D01*
X152326199Y-115983278D01*
X152399163Y-115724568D01*
X152406614Y-115665998D01*
X152435053Y-115600947D01*
X152494147Y-115561597D01*
X152531607Y-115555900D01*
X155771792Y-115555900D01*
X155839913Y-115575902D01*
X155875005Y-115609629D01*
X155962643Y-115734789D01*
X155965802Y-115739300D01*
X156127700Y-115901198D01*
X156132208Y-115904355D01*
X156132211Y-115904357D01*
X156149849Y-115916707D01*
X156315251Y-116032523D01*
X156320233Y-116034846D01*
X156320238Y-116034849D01*
X156461342Y-116100646D01*
X156522757Y-116129284D01*
X156528065Y-116130706D01*
X156528067Y-116130707D01*
X156738598Y-116187119D01*
X156738600Y-116187119D01*
X156743913Y-116188543D01*
X156972000Y-116208498D01*
X157200087Y-116188543D01*
X157205400Y-116187119D01*
X157205402Y-116187119D01*
X157415933Y-116130707D01*
X157415935Y-116130706D01*
X157421243Y-116129284D01*
X157482658Y-116100646D01*
X157623762Y-116034849D01*
X157623767Y-116034846D01*
X157628749Y-116032523D01*
X157794151Y-115916707D01*
X157811789Y-115904357D01*
X157811792Y-115904355D01*
X157816300Y-115901198D01*
X157978198Y-115739300D01*
X157985366Y-115729064D01*
X158075074Y-115600947D01*
X158109523Y-115551749D01*
X158111846Y-115546767D01*
X158111849Y-115546762D01*
X158173453Y-115414650D01*
X158220370Y-115361365D01*
X158287648Y-115341900D01*
X159073792Y-115341900D01*
X159141913Y-115361902D01*
X159177005Y-115395629D01*
X159267802Y-115525300D01*
X159429700Y-115687198D01*
X159434208Y-115690355D01*
X159434211Y-115690357D01*
X159476457Y-115719938D01*
X159617251Y-115818523D01*
X159622233Y-115820846D01*
X159622238Y-115820849D01*
X159819775Y-115912961D01*
X159824757Y-115915284D01*
X159830065Y-115916706D01*
X159830067Y-115916707D01*
X160040598Y-115973119D01*
X160040600Y-115973119D01*
X160045913Y-115974543D01*
X160274000Y-115994498D01*
X160502087Y-115974543D01*
X160507400Y-115973119D01*
X160507402Y-115973119D01*
X160717933Y-115916707D01*
X160717935Y-115916706D01*
X160723243Y-115915284D01*
X160728225Y-115912961D01*
X160925762Y-115820849D01*
X160925767Y-115820846D01*
X160930749Y-115818523D01*
X161071543Y-115719938D01*
X161113789Y-115690357D01*
X161113792Y-115690355D01*
X161118300Y-115687198D01*
X161280198Y-115525300D01*
X161411523Y-115337749D01*
X161413846Y-115332767D01*
X161413849Y-115332762D01*
X161505961Y-115135225D01*
X161505961Y-115135224D01*
X161508284Y-115130243D01*
X161528038Y-115056523D01*
X161566119Y-114914402D01*
X161566119Y-114914400D01*
X161567543Y-114909087D01*
X161587498Y-114681000D01*
X161567543Y-114452913D01*
X161508284Y-114231757D01*
X161486997Y-114186106D01*
X161413849Y-114029238D01*
X161413846Y-114029233D01*
X161411523Y-114024251D01*
X161316680Y-113888802D01*
X161283357Y-113841211D01*
X161283355Y-113841208D01*
X161280198Y-113836700D01*
X161118300Y-113674802D01*
X161113792Y-113671645D01*
X161113789Y-113671643D01*
X161010812Y-113599538D01*
X160930749Y-113543477D01*
X160925767Y-113541154D01*
X160925762Y-113541151D01*
X160728225Y-113449039D01*
X160728224Y-113449039D01*
X160723243Y-113446716D01*
X160717935Y-113445294D01*
X160717933Y-113445293D01*
X160507402Y-113388881D01*
X160507400Y-113388881D01*
X160502087Y-113387457D01*
X160274000Y-113367502D01*
X160045913Y-113387457D01*
X160040600Y-113388881D01*
X160040598Y-113388881D01*
X159830067Y-113445293D01*
X159830065Y-113445294D01*
X159824757Y-113446716D01*
X159819776Y-113449039D01*
X159819775Y-113449039D01*
X159622238Y-113541151D01*
X159622233Y-113541154D01*
X159617251Y-113543477D01*
X159537188Y-113599538D01*
X159434211Y-113671643D01*
X159434208Y-113671645D01*
X159429700Y-113674802D01*
X159267802Y-113836700D01*
X159264645Y-113841208D01*
X159264643Y-113841211D01*
X159177005Y-113966371D01*
X159121548Y-114010699D01*
X159073792Y-114020100D01*
X157999788Y-114020100D01*
X157931667Y-114000098D01*
X157910693Y-113983195D01*
X157816300Y-113888802D01*
X157811792Y-113885645D01*
X157811789Y-113885643D01*
X157690012Y-113800374D01*
X157628749Y-113757477D01*
X157623767Y-113755154D01*
X157623762Y-113755151D01*
X157426225Y-113663039D01*
X157426224Y-113663039D01*
X157421243Y-113660716D01*
X157415935Y-113659294D01*
X157415933Y-113659293D01*
X157205402Y-113602881D01*
X157205400Y-113602881D01*
X157200087Y-113601457D01*
X156972000Y-113581502D01*
X156743913Y-113601457D01*
X156738600Y-113602881D01*
X156738598Y-113602881D01*
X156528067Y-113659293D01*
X156528065Y-113659294D01*
X156522757Y-113660716D01*
X156517776Y-113663039D01*
X156517775Y-113663039D01*
X156320238Y-113755151D01*
X156320233Y-113755154D01*
X156315251Y-113757477D01*
X156253988Y-113800374D01*
X156132211Y-113885643D01*
X156132208Y-113885645D01*
X156127700Y-113888802D01*
X155965802Y-114050700D01*
X155962645Y-114055208D01*
X155962643Y-114055211D01*
X155875005Y-114180371D01*
X155819548Y-114224699D01*
X155771792Y-114234100D01*
X152096161Y-114234100D01*
X152028040Y-114214098D01*
X151997211Y-114186106D01*
X151961997Y-114141437D01*
X151961994Y-114141434D01*
X151959105Y-114137769D01*
X151763317Y-113953591D01*
X151542457Y-113800374D01*
X151538264Y-113798306D01*
X151305564Y-113683551D01*
X151305561Y-113683550D01*
X151301376Y-113681486D01*
X151292670Y-113678699D01*
X151180733Y-113642868D01*
X151045370Y-113599538D01*
X151040763Y-113598788D01*
X151040760Y-113598787D01*
X150784674Y-113557081D01*
X150784675Y-113557081D01*
X150780063Y-113556330D01*
X150649719Y-113554624D01*
X150515961Y-113552873D01*
X150515958Y-113552873D01*
X150511284Y-113552812D01*
X150244937Y-113589060D01*
X150240451Y-113590368D01*
X150240449Y-113590368D01*
X150197519Y-113602881D01*
X149986874Y-113664278D01*
X149979832Y-113667524D01*
X149978364Y-113668201D01*
X149908126Y-113678553D01*
X149843441Y-113649289D01*
X149836521Y-113642868D01*
X148311805Y-112118152D01*
X148277779Y-112055840D01*
X148274900Y-112029057D01*
X148274900Y-108007208D01*
X148294902Y-107939087D01*
X148328629Y-107903995D01*
X148453789Y-107816357D01*
X148453792Y-107816355D01*
X148458300Y-107813198D01*
X148620198Y-107651300D01*
X148751523Y-107463749D01*
X148753846Y-107458767D01*
X148753849Y-107458762D01*
X148845961Y-107261225D01*
X148845961Y-107261224D01*
X148848284Y-107256243D01*
X148858799Y-107217003D01*
X148906119Y-107040402D01*
X148906119Y-107040400D01*
X148907543Y-107035087D01*
X148927498Y-106807000D01*
X148907543Y-106578913D01*
X148900600Y-106553000D01*
X148849707Y-106363067D01*
X148849706Y-106363065D01*
X148848284Y-106357757D01*
X148843348Y-106347171D01*
X148753849Y-106155238D01*
X148753846Y-106155233D01*
X148751523Y-106150251D01*
X148662846Y-106023607D01*
X148623357Y-105967211D01*
X148623355Y-105967208D01*
X148620198Y-105962700D01*
X148458300Y-105800802D01*
X148453792Y-105797645D01*
X148453789Y-105797643D01*
X148328629Y-105710005D01*
X148284301Y-105654548D01*
X148274900Y-105606792D01*
X148274900Y-105346199D01*
X148294902Y-105278078D01*
X148328630Y-105242986D01*
X148413784Y-105183361D01*
X148413790Y-105183356D01*
X148418300Y-105180198D01*
X148580198Y-105018300D01*
X148711523Y-104830749D01*
X148713846Y-104825767D01*
X148713849Y-104825762D01*
X148729805Y-104791543D01*
X148776722Y-104738258D01*
X148844999Y-104718797D01*
X148912959Y-104739339D01*
X148958195Y-104791543D01*
X148974151Y-104825762D01*
X148974154Y-104825767D01*
X148976477Y-104830749D01*
X149107802Y-105018300D01*
X149269700Y-105180198D01*
X149274208Y-105183355D01*
X149274211Y-105183357D01*
X149399371Y-105270995D01*
X149443699Y-105326452D01*
X149453100Y-105374208D01*
X149453100Y-108925666D01*
X149433098Y-108993787D01*
X149411001Y-109019669D01*
X149323063Y-109098157D01*
X149317426Y-109103188D01*
X149145544Y-109309854D01*
X149143121Y-109313847D01*
X149064189Y-109443923D01*
X149006096Y-109539656D01*
X149004287Y-109543970D01*
X149004285Y-109543974D01*
X148936237Y-109706251D01*
X148902148Y-109787545D01*
X148835981Y-110048077D01*
X148809050Y-110315526D01*
X148809274Y-110320192D01*
X148809274Y-110320197D01*
X148811067Y-110357525D01*
X148821947Y-110584019D01*
X148874388Y-110847656D01*
X148965220Y-111100646D01*
X148967432Y-111104762D01*
X148967433Y-111104765D01*
X149031555Y-111224100D01*
X149092450Y-111337431D01*
X149095241Y-111341168D01*
X149095245Y-111341175D01*
X149118530Y-111372357D01*
X149253281Y-111552810D01*
X149256590Y-111556090D01*
X149256595Y-111556096D01*
X149440863Y-111738762D01*
X149444180Y-111742050D01*
X149447942Y-111744808D01*
X149447945Y-111744811D01*
X149560299Y-111827192D01*
X149660954Y-111900995D01*
X149665089Y-111903171D01*
X149665093Y-111903173D01*
X149865329Y-112008523D01*
X149898840Y-112026154D01*
X149907153Y-112029057D01*
X150129510Y-112106707D01*
X150152613Y-112114775D01*
X150157206Y-112115647D01*
X150412109Y-112164042D01*
X150412112Y-112164042D01*
X150416698Y-112164913D01*
X150544370Y-112169929D01*
X150680625Y-112175283D01*
X150680630Y-112175283D01*
X150685293Y-112175466D01*
X150779983Y-112165096D01*
X150947844Y-112146713D01*
X150947850Y-112146712D01*
X150952497Y-112146203D01*
X150957021Y-112145012D01*
X151207918Y-112078956D01*
X151207920Y-112078955D01*
X151212441Y-112077765D01*
X151325812Y-112029057D01*
X151455120Y-111973502D01*
X151455122Y-111973501D01*
X151459414Y-111971657D01*
X151578071Y-111898230D01*
X151684017Y-111832669D01*
X151684021Y-111832666D01*
X151687990Y-111830210D01*
X151893149Y-111656530D01*
X152070382Y-111454434D01*
X152215797Y-111228361D01*
X152326199Y-110983278D01*
X152328671Y-110974515D01*
X152360488Y-110861699D01*
X152398229Y-110801565D01*
X152462491Y-110771382D01*
X152481757Y-110769900D01*
X155944212Y-110769900D01*
X156012333Y-110789902D01*
X156033307Y-110806805D01*
X156127700Y-110901198D01*
X156132208Y-110904355D01*
X156132211Y-110904357D01*
X156182158Y-110939330D01*
X156315251Y-111032523D01*
X156320233Y-111034846D01*
X156320238Y-111034849D01*
X156494258Y-111115995D01*
X156522757Y-111129284D01*
X156528065Y-111130706D01*
X156528067Y-111130707D01*
X156738598Y-111187119D01*
X156738600Y-111187119D01*
X156743913Y-111188543D01*
X156972000Y-111208498D01*
X157200087Y-111188543D01*
X157205400Y-111187119D01*
X157205402Y-111187119D01*
X157415933Y-111130707D01*
X157415935Y-111130706D01*
X157421243Y-111129284D01*
X157449742Y-111115995D01*
X157623762Y-111034849D01*
X157623767Y-111034846D01*
X157628749Y-111032523D01*
X157761842Y-110939330D01*
X157811789Y-110904357D01*
X157811792Y-110904355D01*
X157816300Y-110901198D01*
X157978198Y-110739300D01*
X158045689Y-110642913D01*
X158068995Y-110609629D01*
X158124452Y-110565301D01*
X158172208Y-110555900D01*
X158850564Y-110555900D01*
X158918685Y-110575902D01*
X158965178Y-110629558D01*
X158976085Y-110692881D01*
X158965481Y-110814085D01*
X158960502Y-110871000D01*
X158980457Y-111099087D01*
X158981881Y-111104400D01*
X158981881Y-111104402D01*
X158988930Y-111130707D01*
X159039716Y-111320243D01*
X159042039Y-111325224D01*
X159042039Y-111325225D01*
X159134151Y-111522762D01*
X159134154Y-111522767D01*
X159136477Y-111527749D01*
X159267802Y-111715300D01*
X159429700Y-111877198D01*
X159434208Y-111880355D01*
X159434211Y-111880357D01*
X159466796Y-111903173D01*
X159617251Y-112008523D01*
X159622233Y-112010846D01*
X159622238Y-112010849D01*
X159768296Y-112078956D01*
X159824757Y-112105284D01*
X159830065Y-112106706D01*
X159830067Y-112106707D01*
X160040598Y-112163119D01*
X160040600Y-112163119D01*
X160045913Y-112164543D01*
X160274000Y-112184498D01*
X160502087Y-112164543D01*
X160507400Y-112163119D01*
X160507402Y-112163119D01*
X160717933Y-112106707D01*
X160717935Y-112106706D01*
X160723243Y-112105284D01*
X160779704Y-112078956D01*
X160925762Y-112010849D01*
X160925767Y-112010846D01*
X160930749Y-112008523D01*
X161081204Y-111903173D01*
X161113789Y-111880357D01*
X161113792Y-111880355D01*
X161118300Y-111877198D01*
X161280198Y-111715300D01*
X161411523Y-111527749D01*
X161413846Y-111522767D01*
X161413849Y-111522762D01*
X161505961Y-111325225D01*
X161505961Y-111325224D01*
X161508284Y-111320243D01*
X161559071Y-111130707D01*
X161566119Y-111104402D01*
X161566119Y-111104400D01*
X161567543Y-111099087D01*
X161587498Y-110871000D01*
X161567543Y-110642913D01*
X161544415Y-110556597D01*
X161509707Y-110427067D01*
X161509706Y-110427065D01*
X161508284Y-110421757D01*
X161494395Y-110391971D01*
X161413849Y-110219238D01*
X161413846Y-110219233D01*
X161411523Y-110214251D01*
X161298428Y-110052735D01*
X161283357Y-110031211D01*
X161283355Y-110031208D01*
X161280198Y-110026700D01*
X161118300Y-109864802D01*
X161113792Y-109861645D01*
X161113789Y-109861643D01*
X161001805Y-109783231D01*
X160930749Y-109733477D01*
X160925767Y-109731154D01*
X160925762Y-109731151D01*
X160728225Y-109639039D01*
X160728224Y-109639039D01*
X160723243Y-109636716D01*
X160717935Y-109635294D01*
X160717933Y-109635293D01*
X160507402Y-109578881D01*
X160507400Y-109578881D01*
X160502087Y-109577457D01*
X160274000Y-109557502D01*
X160045913Y-109577457D01*
X160040600Y-109578881D01*
X160040598Y-109578881D01*
X160013018Y-109586271D01*
X159942041Y-109584581D01*
X159891312Y-109553659D01*
X159784614Y-109446961D01*
X159778760Y-109440695D01*
X159761915Y-109421385D01*
X159743476Y-109400248D01*
X159694898Y-109366107D01*
X159689604Y-109362175D01*
X159677804Y-109352922D01*
X159642879Y-109325537D01*
X159635955Y-109322411D01*
X159629824Y-109318698D01*
X159625204Y-109316062D01*
X159618822Y-109312640D01*
X159612603Y-109308269D01*
X159557286Y-109286701D01*
X159551207Y-109284146D01*
X159497088Y-109259711D01*
X159489612Y-109258325D01*
X159482734Y-109256170D01*
X159477609Y-109254710D01*
X159470645Y-109252922D01*
X159463566Y-109250162D01*
X159456034Y-109249170D01*
X159456032Y-109249170D01*
X159430804Y-109245849D01*
X159404700Y-109242413D01*
X159398202Y-109241384D01*
X159339803Y-109230560D01*
X159332223Y-109230997D01*
X159332222Y-109230997D01*
X159282033Y-109233891D01*
X159274780Y-109234100D01*
X158172208Y-109234100D01*
X158104087Y-109214098D01*
X158068995Y-109180371D01*
X157981357Y-109055211D01*
X157981355Y-109055208D01*
X157978198Y-109050700D01*
X157816300Y-108888802D01*
X157811792Y-108885645D01*
X157811789Y-108885643D01*
X157724552Y-108824559D01*
X157628749Y-108757477D01*
X157623767Y-108755154D01*
X157623762Y-108755151D01*
X157426225Y-108663039D01*
X157426224Y-108663039D01*
X157421243Y-108660716D01*
X157415935Y-108659294D01*
X157415933Y-108659293D01*
X157205402Y-108602881D01*
X157205400Y-108602881D01*
X157200087Y-108601457D01*
X156972000Y-108581502D01*
X156743913Y-108601457D01*
X156738600Y-108602881D01*
X156738598Y-108602881D01*
X156528067Y-108659293D01*
X156528065Y-108659294D01*
X156522757Y-108660716D01*
X156517776Y-108663039D01*
X156517775Y-108663039D01*
X156320238Y-108755151D01*
X156320233Y-108755154D01*
X156315251Y-108757477D01*
X156219448Y-108824559D01*
X156132211Y-108885643D01*
X156132208Y-108885645D01*
X156127700Y-108888802D01*
X155965802Y-109050700D01*
X155834477Y-109238251D01*
X155832154Y-109243233D01*
X155832151Y-109243238D01*
X155770547Y-109375350D01*
X155723630Y-109428635D01*
X155656352Y-109448100D01*
X152255349Y-109448100D01*
X152187228Y-109428098D01*
X152145956Y-109384623D01*
X152127837Y-109352922D01*
X152125518Y-109348864D01*
X152120653Y-109342692D01*
X152033346Y-109231944D01*
X151959105Y-109137769D01*
X151763317Y-108953591D01*
X151587561Y-108831664D01*
X151546299Y-108803039D01*
X151546296Y-108803037D01*
X151542457Y-108800374D01*
X151529743Y-108794104D01*
X151305564Y-108683551D01*
X151305561Y-108683550D01*
X151301376Y-108681486D01*
X151274604Y-108672916D01*
X151199621Y-108648914D01*
X151045370Y-108599538D01*
X151040763Y-108598788D01*
X151040760Y-108598787D01*
X150880646Y-108572711D01*
X150816627Y-108542019D01*
X150779363Y-108481587D01*
X150774900Y-108448349D01*
X150774900Y-105374208D01*
X150794902Y-105306087D01*
X150828629Y-105270995D01*
X150953789Y-105183357D01*
X150953792Y-105183355D01*
X150958300Y-105180198D01*
X151120198Y-105018300D01*
X151251523Y-104830749D01*
X151253846Y-104825767D01*
X151253849Y-104825762D01*
X151269805Y-104791543D01*
X151316722Y-104738258D01*
X151384999Y-104718797D01*
X151452959Y-104739339D01*
X151498195Y-104791543D01*
X151514151Y-104825762D01*
X151514154Y-104825767D01*
X151516477Y-104830749D01*
X151647802Y-105018300D01*
X151809700Y-105180198D01*
X151814208Y-105183355D01*
X151814211Y-105183357D01*
X151875222Y-105226077D01*
X151997251Y-105311523D01*
X152002233Y-105313846D01*
X152002238Y-105313849D01*
X152116177Y-105366979D01*
X152169462Y-105413896D01*
X152188923Y-105482173D01*
X152168381Y-105550133D01*
X152116177Y-105595369D01*
X151962238Y-105667151D01*
X151962233Y-105667154D01*
X151957251Y-105669477D01*
X151872638Y-105728724D01*
X151774211Y-105797643D01*
X151774208Y-105797645D01*
X151769700Y-105800802D01*
X151607802Y-105962700D01*
X151604645Y-105967208D01*
X151604643Y-105967211D01*
X151565154Y-106023607D01*
X151476477Y-106150251D01*
X151474154Y-106155233D01*
X151474151Y-106155238D01*
X151384652Y-106347171D01*
X151379716Y-106357757D01*
X151378294Y-106363065D01*
X151378293Y-106363067D01*
X151327400Y-106553000D01*
X151320457Y-106578913D01*
X151300502Y-106807000D01*
X151320457Y-107035087D01*
X151321881Y-107040400D01*
X151321881Y-107040402D01*
X151369202Y-107217003D01*
X151379716Y-107256243D01*
X151382039Y-107261224D01*
X151382039Y-107261225D01*
X151474151Y-107458762D01*
X151474154Y-107458767D01*
X151476477Y-107463749D01*
X151607802Y-107651300D01*
X151769700Y-107813198D01*
X151774208Y-107816355D01*
X151774211Y-107816357D01*
X151819075Y-107847771D01*
X151957251Y-107944523D01*
X151962233Y-107946846D01*
X151962238Y-107946849D01*
X152091680Y-108007208D01*
X152164757Y-108041284D01*
X152170065Y-108042706D01*
X152170067Y-108042707D01*
X152380598Y-108099119D01*
X152380600Y-108099119D01*
X152385913Y-108100543D01*
X152614000Y-108120498D01*
X152842087Y-108100543D01*
X152847400Y-108099119D01*
X152847402Y-108099119D01*
X153057933Y-108042707D01*
X153057935Y-108042706D01*
X153063243Y-108041284D01*
X153136320Y-108007208D01*
X153265762Y-107946849D01*
X153265767Y-107946846D01*
X153270749Y-107944523D01*
X153408925Y-107847771D01*
X153453789Y-107816357D01*
X153453792Y-107816355D01*
X153458300Y-107813198D01*
X153620198Y-107651300D01*
X153682477Y-107562357D01*
X153710995Y-107521629D01*
X153766452Y-107477301D01*
X153814208Y-107467900D01*
X154872737Y-107467900D01*
X154881308Y-107468192D01*
X154934843Y-107471842D01*
X154942320Y-107470537D01*
X154942321Y-107470537D01*
X154967626Y-107466121D01*
X154993347Y-107461631D01*
X154999865Y-107460670D01*
X155018223Y-107458448D01*
X155051262Y-107454450D01*
X155051264Y-107454450D01*
X155058805Y-107453537D01*
X155065913Y-107450851D01*
X155072879Y-107449140D01*
X155078068Y-107447721D01*
X155084947Y-107445644D01*
X155092424Y-107444339D01*
X155146795Y-107420471D01*
X155152886Y-107417986D01*
X155201336Y-107399679D01*
X155201338Y-107399678D01*
X155208441Y-107396994D01*
X155214702Y-107392691D01*
X155221026Y-107389385D01*
X155225798Y-107386729D01*
X155231944Y-107383094D01*
X155238896Y-107380042D01*
X155286001Y-107343898D01*
X155291334Y-107340023D01*
X155340271Y-107306389D01*
X155378769Y-107263180D01*
X155383749Y-107257905D01*
X157420047Y-105221607D01*
X157426313Y-105215753D01*
X157461025Y-105185472D01*
X157466752Y-105180476D01*
X157500892Y-105131900D01*
X157504818Y-105126614D01*
X157536774Y-105085858D01*
X157541463Y-105079878D01*
X157544591Y-105072950D01*
X157548319Y-105066794D01*
X157550954Y-105062175D01*
X157554362Y-105055819D01*
X157558731Y-105049603D01*
X157572694Y-105013789D01*
X157580292Y-104994302D01*
X157582848Y-104988221D01*
X157604166Y-104941007D01*
X157607290Y-104934088D01*
X157608673Y-104926625D01*
X157610810Y-104919807D01*
X157612287Y-104914622D01*
X157614078Y-104907645D01*
X157616838Y-104900566D01*
X157624589Y-104841692D01*
X157625620Y-104835183D01*
X157635056Y-104784269D01*
X157636440Y-104776802D01*
X157633109Y-104719031D01*
X157632900Y-104711779D01*
X157632900Y-100230263D01*
X157633192Y-100221692D01*
X157636325Y-100175733D01*
X157636842Y-100168157D01*
X157635072Y-100158012D01*
X157626632Y-100109657D01*
X157625669Y-100103131D01*
X157619450Y-100051738D01*
X157619450Y-100051736D01*
X157618537Y-100044195D01*
X157615851Y-100037087D01*
X157614140Y-100030121D01*
X157612721Y-100024932D01*
X157610644Y-100018053D01*
X157609339Y-100010576D01*
X157585471Y-99956205D01*
X157582986Y-99950114D01*
X157580628Y-99943872D01*
X157574671Y-99928109D01*
X157564679Y-99901664D01*
X157564678Y-99901662D01*
X157561994Y-99894559D01*
X157557691Y-99888298D01*
X157554385Y-99881974D01*
X157551729Y-99877202D01*
X157548094Y-99871056D01*
X157545042Y-99864104D01*
X157515851Y-99826061D01*
X157508898Y-99816999D01*
X157505023Y-99811666D01*
X157471389Y-99762729D01*
X157428180Y-99724231D01*
X157422905Y-99719251D01*
X156546503Y-98842849D01*
X155667296Y-97963643D01*
X155633271Y-97901331D01*
X155638335Y-97830516D01*
X155680882Y-97773680D01*
X155703142Y-97760353D01*
X155845758Y-97693851D01*
X155845764Y-97693847D01*
X155850749Y-97691523D01*
X155959606Y-97615300D01*
X156033789Y-97563357D01*
X156033792Y-97563355D01*
X156038300Y-97560198D01*
X156200198Y-97398300D01*
X156217047Y-97374238D01*
X156268097Y-97301330D01*
X156331523Y-97210749D01*
X156333846Y-97205767D01*
X156333849Y-97205762D01*
X156392997Y-97078916D01*
X156428284Y-97003243D01*
X156453727Y-96908288D01*
X156490679Y-96847666D01*
X156554539Y-96816645D01*
X156575434Y-96814900D01*
X157209056Y-96814900D01*
X157277177Y-96834902D01*
X157298151Y-96851805D01*
X158596302Y-98149956D01*
X158630328Y-98212268D01*
X158623405Y-98287774D01*
X158594148Y-98357545D01*
X158527981Y-98618077D01*
X158501050Y-98885526D01*
X158501274Y-98890192D01*
X158501274Y-98890197D01*
X158503854Y-98943897D01*
X158513947Y-99154019D01*
X158566388Y-99417656D01*
X158657220Y-99670646D01*
X158659432Y-99674762D01*
X158659433Y-99674765D01*
X158735859Y-99816999D01*
X158784450Y-99907431D01*
X158787241Y-99911168D01*
X158787245Y-99911175D01*
X158876067Y-100030121D01*
X158945281Y-100122810D01*
X158948590Y-100126090D01*
X158948595Y-100126096D01*
X159096695Y-100272908D01*
X159136180Y-100312050D01*
X159139942Y-100314808D01*
X159139945Y-100314811D01*
X159239145Y-100387547D01*
X159352954Y-100470995D01*
X159357089Y-100473171D01*
X159357093Y-100473173D01*
X159580597Y-100590765D01*
X159590840Y-100596154D01*
X159844613Y-100684775D01*
X159849206Y-100685647D01*
X160104109Y-100734042D01*
X160104112Y-100734042D01*
X160108698Y-100734913D01*
X160236370Y-100739929D01*
X160372625Y-100745283D01*
X160372630Y-100745283D01*
X160377293Y-100745466D01*
X160481607Y-100734042D01*
X160639844Y-100716713D01*
X160639850Y-100716712D01*
X160644497Y-100716203D01*
X160728837Y-100693998D01*
X160899918Y-100648956D01*
X160899920Y-100648955D01*
X160904441Y-100647765D01*
X160908738Y-100645919D01*
X161147120Y-100543502D01*
X161147122Y-100543501D01*
X161151414Y-100541657D01*
X161270071Y-100468230D01*
X161376017Y-100402669D01*
X161376021Y-100402666D01*
X161379990Y-100400210D01*
X161585149Y-100226530D01*
X161585379Y-100226802D01*
X161645786Y-100194495D01*
X161716555Y-100200174D01*
X161773020Y-100243212D01*
X161797252Y-100309945D01*
X161797500Y-100317843D01*
X161797500Y-105728724D01*
X161796763Y-105742332D01*
X161792638Y-105780304D01*
X161793768Y-105793217D01*
X161797046Y-105830690D01*
X161797375Y-105835518D01*
X161797500Y-105838073D01*
X161797500Y-105841157D01*
X161797801Y-105844224D01*
X161801722Y-105884219D01*
X161801844Y-105885532D01*
X161803218Y-105901238D01*
X161810012Y-105978892D01*
X161811511Y-105984052D01*
X161812035Y-105989394D01*
X161837383Y-106073350D01*
X161839098Y-106079031D01*
X161839455Y-106080236D01*
X161865628Y-106170322D01*
X161868100Y-106175090D01*
X161869652Y-106180232D01*
X161872547Y-106185677D01*
X161872550Y-106185684D01*
X161913633Y-106262950D01*
X161914213Y-106264054D01*
X161957366Y-106347304D01*
X161960718Y-106351503D01*
X161963239Y-106356244D01*
X161967131Y-106361016D01*
X162022438Y-106428829D01*
X162023266Y-106429855D01*
X162040865Y-106451900D01*
X162054768Y-106469316D01*
X162057263Y-106471811D01*
X162057973Y-106472605D01*
X162061693Y-106476960D01*
X162085337Y-106505951D01*
X162085340Y-106505954D01*
X162089232Y-106510726D01*
X162093980Y-106514654D01*
X162093981Y-106514655D01*
X162124873Y-106540211D01*
X162133652Y-106548200D01*
X166559967Y-110974515D01*
X166593993Y-111036827D01*
X166596392Y-111052627D01*
X166600457Y-111099087D01*
X166659716Y-111320243D01*
X166662039Y-111325224D01*
X166662039Y-111325225D01*
X166754151Y-111522762D01*
X166754154Y-111522767D01*
X166756477Y-111527749D01*
X166759634Y-111532257D01*
X166854713Y-111668044D01*
X166877500Y-111740315D01*
X166877500Y-113811685D01*
X166854713Y-113883956D01*
X166756477Y-114024251D01*
X166754154Y-114029233D01*
X166754151Y-114029238D01*
X166681003Y-114186106D01*
X166659716Y-114231757D01*
X166600457Y-114452913D01*
X166580502Y-114681000D01*
X166600457Y-114909087D01*
X166601881Y-114914400D01*
X166601881Y-114914402D01*
X166639963Y-115056523D01*
X166659716Y-115130243D01*
X166662039Y-115135224D01*
X166662039Y-115135225D01*
X166754151Y-115332762D01*
X166754154Y-115332767D01*
X166756477Y-115337749D01*
X166887802Y-115525300D01*
X167049700Y-115687198D01*
X167054208Y-115690355D01*
X167054211Y-115690357D01*
X167096457Y-115719938D01*
X167237251Y-115818523D01*
X167242233Y-115820846D01*
X167242238Y-115820849D01*
X167439775Y-115912961D01*
X167444757Y-115915284D01*
X167450065Y-115916706D01*
X167450067Y-115916707D01*
X167660598Y-115973119D01*
X167660600Y-115973119D01*
X167665913Y-115974543D01*
X167894000Y-115994498D01*
X168122087Y-115974543D01*
X168127400Y-115973119D01*
X168127402Y-115973119D01*
X168337933Y-115916707D01*
X168337935Y-115916706D01*
X168343243Y-115915284D01*
X168348225Y-115912961D01*
X168545762Y-115820849D01*
X168545767Y-115820846D01*
X168550749Y-115818523D01*
X168691543Y-115719938D01*
X168733789Y-115690357D01*
X168733792Y-115690355D01*
X168738300Y-115687198D01*
X168900198Y-115525300D01*
X169031523Y-115337749D01*
X169033846Y-115332767D01*
X169033849Y-115332762D01*
X169125961Y-115135225D01*
X169125961Y-115135224D01*
X169128284Y-115130243D01*
X169148038Y-115056523D01*
X169186119Y-114914402D01*
X169186119Y-114914400D01*
X169187543Y-114909087D01*
X169207498Y-114681000D01*
X169187543Y-114452913D01*
X169128284Y-114231757D01*
X169106997Y-114186106D01*
X169033849Y-114029238D01*
X169033846Y-114029233D01*
X169031523Y-114024251D01*
X168933287Y-113883956D01*
X168910500Y-113811685D01*
X168910500Y-111740315D01*
X168933287Y-111668044D01*
X169028366Y-111532257D01*
X169031523Y-111527749D01*
X169033846Y-111522767D01*
X169033849Y-111522762D01*
X169125961Y-111325225D01*
X169125961Y-111325224D01*
X169128284Y-111320243D01*
X169179071Y-111130707D01*
X169186119Y-111104402D01*
X169186119Y-111104400D01*
X169187543Y-111099087D01*
X169207498Y-110871000D01*
X169187543Y-110642913D01*
X169164415Y-110556597D01*
X169129707Y-110427067D01*
X169129706Y-110427065D01*
X169128284Y-110421757D01*
X169114395Y-110391971D01*
X169033849Y-110219238D01*
X169033846Y-110219233D01*
X169031523Y-110214251D01*
X168918428Y-110052735D01*
X168903357Y-110031211D01*
X168903355Y-110031208D01*
X168900198Y-110026700D01*
X168738300Y-109864802D01*
X168733792Y-109861645D01*
X168733789Y-109861643D01*
X168621805Y-109783231D01*
X168550749Y-109733477D01*
X168545767Y-109731154D01*
X168545762Y-109731151D01*
X168348225Y-109639039D01*
X168348224Y-109639039D01*
X168343243Y-109636716D01*
X168337935Y-109635294D01*
X168337933Y-109635293D01*
X168259748Y-109614343D01*
X168122087Y-109577457D01*
X168092272Y-109574848D01*
X168075627Y-109573392D01*
X168009509Y-109547529D01*
X167997515Y-109536967D01*
X163867405Y-105406857D01*
X163833379Y-105344545D01*
X163830500Y-105317762D01*
X163830500Y-100311350D01*
X163850502Y-100243229D01*
X163904158Y-100196736D01*
X163974432Y-100186632D01*
X164039012Y-100216126D01*
X164045197Y-100221857D01*
X164136180Y-100312050D01*
X164139942Y-100314808D01*
X164139945Y-100314811D01*
X164239145Y-100387547D01*
X164352954Y-100470995D01*
X164357089Y-100473171D01*
X164357093Y-100473173D01*
X164580597Y-100590765D01*
X164590840Y-100596154D01*
X164844613Y-100684775D01*
X164849206Y-100685647D01*
X165104109Y-100734042D01*
X165104112Y-100734042D01*
X165108698Y-100734913D01*
X165236370Y-100739929D01*
X165372625Y-100745283D01*
X165372630Y-100745283D01*
X165377293Y-100745466D01*
X165481607Y-100734042D01*
X165639844Y-100716713D01*
X165639850Y-100716712D01*
X165644497Y-100716203D01*
X165728837Y-100693998D01*
X165899918Y-100648956D01*
X165899920Y-100648955D01*
X165904441Y-100647765D01*
X165908738Y-100645919D01*
X165908744Y-100645917D01*
X165958657Y-100624472D01*
X166029142Y-100615959D01*
X166097491Y-100651144D01*
X168068076Y-102621729D01*
X168102102Y-102684041D01*
X168104143Y-102703031D01*
X168104502Y-102703000D01*
X168124457Y-102931087D01*
X168125881Y-102936400D01*
X168125881Y-102936402D01*
X168159320Y-103061195D01*
X168183716Y-103152243D01*
X168186039Y-103157224D01*
X168186039Y-103157225D01*
X168278151Y-103354762D01*
X168278154Y-103354767D01*
X168280477Y-103359749D01*
X168411802Y-103547300D01*
X168573700Y-103709198D01*
X168578208Y-103712355D01*
X168578211Y-103712357D01*
X168656389Y-103767098D01*
X168761251Y-103840523D01*
X168766233Y-103842846D01*
X168766238Y-103842849D01*
X168963775Y-103934961D01*
X168968757Y-103937284D01*
X168974065Y-103938706D01*
X168974067Y-103938707D01*
X169184598Y-103995119D01*
X169184600Y-103995119D01*
X169189913Y-103996543D01*
X169418000Y-104016498D01*
X169646087Y-103996543D01*
X169651400Y-103995119D01*
X169651402Y-103995119D01*
X169861933Y-103938707D01*
X169861935Y-103938706D01*
X169867243Y-103937284D01*
X169872225Y-103934961D01*
X170069762Y-103842849D01*
X170069767Y-103842846D01*
X170074749Y-103840523D01*
X170179611Y-103767098D01*
X170257789Y-103712357D01*
X170257792Y-103712355D01*
X170262300Y-103709198D01*
X170424198Y-103547300D01*
X170555523Y-103359749D01*
X170557846Y-103354767D01*
X170557849Y-103354762D01*
X170649961Y-103157225D01*
X170649961Y-103157224D01*
X170652284Y-103152243D01*
X170676681Y-103061195D01*
X170710119Y-102936402D01*
X170710119Y-102936400D01*
X170711543Y-102931087D01*
X170731498Y-102703000D01*
X170711543Y-102474913D01*
X170706552Y-102456285D01*
X170653707Y-102259067D01*
X170653706Y-102259065D01*
X170652284Y-102253757D01*
X170646761Y-102241913D01*
X170557849Y-102051238D01*
X170557846Y-102051233D01*
X170555523Y-102046251D01*
X170442710Y-101885138D01*
X170427357Y-101863211D01*
X170427355Y-101863208D01*
X170424198Y-101858700D01*
X170262300Y-101696802D01*
X170257792Y-101693645D01*
X170257789Y-101693643D01*
X170162813Y-101627140D01*
X170074749Y-101565477D01*
X170069767Y-101563154D01*
X170069762Y-101563151D01*
X169872225Y-101471039D01*
X169872224Y-101471039D01*
X169867243Y-101468716D01*
X169861935Y-101467294D01*
X169861933Y-101467293D01*
X169651402Y-101410881D01*
X169651400Y-101410881D01*
X169646087Y-101409457D01*
X169418000Y-101389502D01*
X169189913Y-101409457D01*
X169184600Y-101410881D01*
X169184598Y-101410881D01*
X168974067Y-101467293D01*
X168974065Y-101467294D01*
X168968757Y-101468716D01*
X168963773Y-101471040D01*
X168963765Y-101471043D01*
X168922964Y-101490068D01*
X168852773Y-101500729D01*
X168787960Y-101471748D01*
X168780621Y-101464968D01*
X167033362Y-99717709D01*
X166999336Y-99655397D01*
X167004401Y-99584582D01*
X167007574Y-99576865D01*
X167010128Y-99571194D01*
X167018199Y-99553278D01*
X167020117Y-99546479D01*
X167089893Y-99299072D01*
X167089894Y-99299069D01*
X167091163Y-99294568D01*
X167109043Y-99154019D01*
X167124688Y-99031045D01*
X167124688Y-99031041D01*
X167125086Y-99027915D01*
X167125398Y-99016019D01*
X167126675Y-98967222D01*
X167127571Y-98933000D01*
X167119357Y-98822476D01*
X167107996Y-98669592D01*
X167107996Y-98669591D01*
X167107650Y-98664937D01*
X167106619Y-98660379D01*
X167049361Y-98407331D01*
X167049360Y-98407326D01*
X167048327Y-98402763D01*
X166950902Y-98152238D01*
X166817518Y-97918864D01*
X166810166Y-97909537D01*
X166718414Y-97793151D01*
X166651105Y-97707769D01*
X166455317Y-97523591D01*
X166290857Y-97409500D01*
X166238299Y-97373039D01*
X166238296Y-97373037D01*
X166234457Y-97370374D01*
X166230264Y-97368306D01*
X165997564Y-97253551D01*
X165997561Y-97253550D01*
X165993376Y-97251486D01*
X165984214Y-97248553D01*
X165850534Y-97205762D01*
X165737370Y-97169538D01*
X165732763Y-97168788D01*
X165732760Y-97168787D01*
X165476674Y-97127081D01*
X165476675Y-97127081D01*
X165472063Y-97126330D01*
X165341719Y-97124624D01*
X165207961Y-97122873D01*
X165207958Y-97122873D01*
X165203284Y-97122812D01*
X164936937Y-97159060D01*
X164932451Y-97160368D01*
X164932449Y-97160368D01*
X164906989Y-97167789D01*
X164678874Y-97234278D01*
X164674621Y-97236238D01*
X164674620Y-97236239D01*
X164668592Y-97239018D01*
X164434763Y-97346815D01*
X164413591Y-97360696D01*
X164213881Y-97491631D01*
X164213876Y-97491635D01*
X164209968Y-97494197D01*
X164140387Y-97556301D01*
X164045621Y-97640883D01*
X164009426Y-97673188D01*
X164006433Y-97676786D01*
X164003189Y-97680146D01*
X164002211Y-97679202D01*
X163948295Y-97715421D01*
X163877313Y-97716865D01*
X163816819Y-97679704D01*
X163789730Y-97631710D01*
X163789568Y-97631174D01*
X163788886Y-97628916D01*
X163788527Y-97627704D01*
X163788405Y-97627284D01*
X163762372Y-97537678D01*
X163759900Y-97532910D01*
X163758348Y-97527768D01*
X163755453Y-97522323D01*
X163755450Y-97522316D01*
X163714367Y-97445050D01*
X163713753Y-97443882D01*
X163706863Y-97430588D01*
X163670634Y-97360696D01*
X163667282Y-97356497D01*
X163664761Y-97351756D01*
X163656391Y-97341493D01*
X163605562Y-97279171D01*
X163604734Y-97278145D01*
X163575429Y-97241436D01*
X163575428Y-97241435D01*
X163573232Y-97238684D01*
X163570737Y-97236189D01*
X163570027Y-97235395D01*
X163566307Y-97231040D01*
X163542663Y-97202049D01*
X163542660Y-97202046D01*
X163538768Y-97197274D01*
X163503127Y-97167789D01*
X163494348Y-97159800D01*
X159791239Y-93456691D01*
X159757213Y-93394379D01*
X159762278Y-93323564D01*
X159804825Y-93266728D01*
X159827085Y-93253401D01*
X159909758Y-93214851D01*
X159909764Y-93214847D01*
X159914749Y-93212523D01*
X160020649Y-93138371D01*
X160097789Y-93084357D01*
X160097792Y-93084355D01*
X160102300Y-93081198D01*
X160264198Y-92919300D01*
X160271464Y-92908923D01*
X160354995Y-92789629D01*
X160410452Y-92745301D01*
X160458208Y-92735900D01*
X161730737Y-92735900D01*
X161739308Y-92736192D01*
X161792843Y-92739842D01*
X161800320Y-92738537D01*
X161800321Y-92738537D01*
X161825626Y-92734121D01*
X161851347Y-92729631D01*
X161857865Y-92728670D01*
X161876223Y-92726448D01*
X161909262Y-92722450D01*
X161909264Y-92722450D01*
X161916805Y-92721537D01*
X161923913Y-92718851D01*
X161930879Y-92717140D01*
X161936068Y-92715721D01*
X161942947Y-92713644D01*
X161950424Y-92712339D01*
X162004795Y-92688471D01*
X162010886Y-92685986D01*
X162059336Y-92667679D01*
X162059338Y-92667678D01*
X162066441Y-92664994D01*
X162072702Y-92660691D01*
X162079026Y-92657385D01*
X162083798Y-92654729D01*
X162089944Y-92651094D01*
X162096896Y-92648042D01*
X162144001Y-92611898D01*
X162149334Y-92608023D01*
X162196101Y-92575880D01*
X162263568Y-92553780D01*
X162300081Y-92558014D01*
X162326594Y-92565119D01*
X162326608Y-92565121D01*
X162331913Y-92566543D01*
X162560000Y-92586498D01*
X162788087Y-92566543D01*
X162793398Y-92565120D01*
X162793409Y-92565118D01*
X162820980Y-92557730D01*
X162891956Y-92559419D01*
X162942687Y-92590341D01*
X165121386Y-94769039D01*
X165127239Y-94775304D01*
X165162524Y-94815752D01*
X165183729Y-94830655D01*
X165211099Y-94849891D01*
X165216393Y-94853823D01*
X165263121Y-94890463D01*
X165270047Y-94893590D01*
X165276176Y-94897302D01*
X165280815Y-94899949D01*
X165287182Y-94903363D01*
X165293397Y-94907731D01*
X165300472Y-94910490D01*
X165300475Y-94910491D01*
X165348703Y-94929294D01*
X165354781Y-94931849D01*
X165408912Y-94956290D01*
X165416380Y-94957674D01*
X165423196Y-94959810D01*
X165428368Y-94961284D01*
X165435353Y-94963077D01*
X165442434Y-94965838D01*
X165449971Y-94966830D01*
X165449970Y-94966830D01*
X165501289Y-94973586D01*
X165507805Y-94974618D01*
X165558728Y-94984056D01*
X165558730Y-94984056D01*
X165566197Y-94985440D01*
X165573777Y-94985003D01*
X165573778Y-94985003D01*
X165623968Y-94982109D01*
X165631221Y-94981900D01*
X167899605Y-94981900D01*
X167967726Y-95001902D01*
X168014356Y-95056240D01*
X168015220Y-95058646D01*
X168017433Y-95062765D01*
X168017435Y-95062769D01*
X168083844Y-95186361D01*
X168142450Y-95295431D01*
X168145241Y-95299168D01*
X168145245Y-95299175D01*
X168226887Y-95408506D01*
X168303281Y-95510810D01*
X168306590Y-95514090D01*
X168306595Y-95514096D01*
X168448615Y-95654881D01*
X168494180Y-95700050D01*
X168497942Y-95702808D01*
X168497945Y-95702811D01*
X168705605Y-95855073D01*
X168748713Y-95911484D01*
X168757100Y-95956685D01*
X168757100Y-96502792D01*
X168737098Y-96570913D01*
X168703371Y-96606005D01*
X168578211Y-96693643D01*
X168578208Y-96693645D01*
X168573700Y-96696802D01*
X168411802Y-96858700D01*
X168408645Y-96863208D01*
X168408643Y-96863211D01*
X168394636Y-96883215D01*
X168280477Y-97046251D01*
X168278154Y-97051233D01*
X168278151Y-97051238D01*
X168190589Y-97239018D01*
X168183716Y-97253757D01*
X168182294Y-97259065D01*
X168182293Y-97259067D01*
X168136334Y-97430588D01*
X168124457Y-97474913D01*
X168104502Y-97703000D01*
X168124457Y-97931087D01*
X168125881Y-97936400D01*
X168125881Y-97936402D01*
X168166690Y-98088700D01*
X168183716Y-98152243D01*
X168186039Y-98157224D01*
X168186039Y-98157225D01*
X168278151Y-98354762D01*
X168278154Y-98354767D01*
X168280477Y-98359749D01*
X168353257Y-98463689D01*
X168367309Y-98483757D01*
X168411802Y-98547300D01*
X168573700Y-98709198D01*
X168578208Y-98712355D01*
X168578211Y-98712357D01*
X168656389Y-98767098D01*
X168761251Y-98840523D01*
X168766233Y-98842846D01*
X168766238Y-98842849D01*
X168963775Y-98934961D01*
X168968757Y-98937284D01*
X168974065Y-98938706D01*
X168974067Y-98938707D01*
X169184598Y-98995119D01*
X169184600Y-98995119D01*
X169189913Y-98996543D01*
X169418000Y-99016498D01*
X169646087Y-98996543D01*
X169651400Y-98995119D01*
X169651402Y-98995119D01*
X169861933Y-98938707D01*
X169861935Y-98938706D01*
X169867243Y-98937284D01*
X169872225Y-98934961D01*
X170069762Y-98842849D01*
X170069767Y-98842846D01*
X170074749Y-98840523D01*
X170179611Y-98767098D01*
X170257789Y-98712357D01*
X170257792Y-98712355D01*
X170262300Y-98709198D01*
X170424198Y-98547300D01*
X170468692Y-98483757D01*
X170482743Y-98463689D01*
X170555523Y-98359749D01*
X170557846Y-98354767D01*
X170557849Y-98354762D01*
X170649961Y-98157225D01*
X170649961Y-98157224D01*
X170652284Y-98152243D01*
X170669311Y-98088700D01*
X170710119Y-97936402D01*
X170710119Y-97936400D01*
X170711543Y-97931087D01*
X170731498Y-97703000D01*
X170711543Y-97474913D01*
X170699666Y-97430588D01*
X170653707Y-97259067D01*
X170653706Y-97259065D01*
X170652284Y-97253757D01*
X170645411Y-97239018D01*
X170557849Y-97051238D01*
X170557846Y-97051233D01*
X170555523Y-97046251D01*
X170441364Y-96883215D01*
X170427357Y-96863211D01*
X170427355Y-96863208D01*
X170424198Y-96858700D01*
X170262300Y-96696802D01*
X170257792Y-96693645D01*
X170257789Y-96693643D01*
X170132629Y-96606005D01*
X170088301Y-96550548D01*
X170078900Y-96502792D01*
X170078900Y-96181209D01*
X170098902Y-96113088D01*
X170152558Y-96066595D01*
X170172819Y-96059361D01*
X170257921Y-96036955D01*
X170262441Y-96035765D01*
X170509414Y-95929657D01*
X170629941Y-95855073D01*
X170734017Y-95790669D01*
X170734021Y-95790666D01*
X170737990Y-95788210D01*
X170943149Y-95614530D01*
X171120382Y-95412434D01*
X171125636Y-95404267D01*
X171245321Y-95218195D01*
X171265797Y-95186361D01*
X171376199Y-94941278D01*
X171388602Y-94897302D01*
X171447893Y-94687072D01*
X171447894Y-94687069D01*
X171449163Y-94682568D01*
X171461982Y-94581801D01*
X171482688Y-94419045D01*
X171482688Y-94419041D01*
X171483086Y-94415915D01*
X171483285Y-94408341D01*
X171485089Y-94339398D01*
X171485571Y-94321000D01*
X171467335Y-94075607D01*
X171465996Y-94057592D01*
X171465996Y-94057591D01*
X171465650Y-94052937D01*
X171463792Y-94044724D01*
X171407361Y-93795331D01*
X171407360Y-93795326D01*
X171406327Y-93790763D01*
X171308902Y-93540238D01*
X171175518Y-93306864D01*
X171167249Y-93296374D01*
X171098657Y-93209366D01*
X171009105Y-93095769D01*
X170813317Y-92911591D01*
X170637511Y-92789629D01*
X170596299Y-92761039D01*
X170596296Y-92761037D01*
X170592457Y-92758374D01*
X170588264Y-92756306D01*
X170355564Y-92641551D01*
X170355561Y-92641550D01*
X170351376Y-92639486D01*
X170303745Y-92624239D01*
X170197847Y-92590341D01*
X170095370Y-92557538D01*
X170090763Y-92556788D01*
X170090760Y-92556787D01*
X169834674Y-92515081D01*
X169834675Y-92515081D01*
X169830063Y-92514330D01*
X169699719Y-92512624D01*
X169565961Y-92510873D01*
X169565958Y-92510873D01*
X169561284Y-92510812D01*
X169294937Y-92547060D01*
X169290451Y-92548368D01*
X169290449Y-92548368D01*
X169238849Y-92563408D01*
X169036874Y-92622278D01*
X168792763Y-92734815D01*
X168788854Y-92737378D01*
X168571881Y-92879631D01*
X168571876Y-92879635D01*
X168567968Y-92882197D01*
X168520071Y-92924947D01*
X168394781Y-93036773D01*
X168367426Y-93061188D01*
X168195544Y-93267854D01*
X168193121Y-93271847D01*
X168077556Y-93462292D01*
X168056096Y-93497656D01*
X168054287Y-93501970D01*
X168054285Y-93501974D01*
X168020382Y-93582825D01*
X167975594Y-93637911D01*
X167904185Y-93660100D01*
X165933944Y-93660100D01*
X165865823Y-93640098D01*
X165844849Y-93623195D01*
X164861140Y-92639486D01*
X163877341Y-91655688D01*
X163843316Y-91593376D01*
X163844729Y-91533982D01*
X163852119Y-91506402D01*
X163852119Y-91506400D01*
X163853543Y-91501087D01*
X163873498Y-91273000D01*
X163853543Y-91044913D01*
X163825328Y-90939615D01*
X163795707Y-90829067D01*
X163795706Y-90829065D01*
X163794284Y-90823757D01*
X163790897Y-90816493D01*
X163699849Y-90621238D01*
X163699846Y-90621233D01*
X163697523Y-90616251D01*
X163621075Y-90507072D01*
X163569357Y-90433211D01*
X163569355Y-90433208D01*
X163566198Y-90428700D01*
X163404300Y-90266802D01*
X163399792Y-90263645D01*
X163399789Y-90263643D01*
X163295031Y-90190291D01*
X163216749Y-90135477D01*
X163211767Y-90133154D01*
X163211762Y-90133151D01*
X163014225Y-90041039D01*
X163014224Y-90041039D01*
X163009243Y-90038716D01*
X163003935Y-90037294D01*
X163003933Y-90037293D01*
X162793402Y-89980881D01*
X162793400Y-89980881D01*
X162788087Y-89979457D01*
X162560000Y-89959502D01*
X162331913Y-89979457D01*
X162326600Y-89980881D01*
X162326598Y-89980881D01*
X162116067Y-90037293D01*
X162116065Y-90037294D01*
X162110757Y-90038716D01*
X162105776Y-90041039D01*
X162105775Y-90041039D01*
X161908238Y-90133151D01*
X161908233Y-90133154D01*
X161903251Y-90135477D01*
X161824969Y-90190291D01*
X161720211Y-90263643D01*
X161720208Y-90263645D01*
X161715700Y-90266802D01*
X161553802Y-90428700D01*
X161550645Y-90433208D01*
X161550643Y-90433211D01*
X161498925Y-90507072D01*
X161422477Y-90616251D01*
X161420154Y-90621233D01*
X161420151Y-90621238D01*
X161329103Y-90816493D01*
X161325716Y-90823757D01*
X161324294Y-90829065D01*
X161324293Y-90829067D01*
X161294672Y-90939615D01*
X161266457Y-91044913D01*
X161246502Y-91273000D01*
X161246981Y-91278475D01*
X161246981Y-91283982D01*
X161245484Y-91283982D01*
X161232869Y-91346731D01*
X161183466Y-91397720D01*
X161121341Y-91414100D01*
X160458208Y-91414100D01*
X160390087Y-91394098D01*
X160354995Y-91360371D01*
X160267357Y-91235211D01*
X160267355Y-91235208D01*
X160264198Y-91230700D01*
X160102300Y-91068802D01*
X160097792Y-91065645D01*
X160097789Y-91065643D01*
X159998797Y-90996328D01*
X159914749Y-90937477D01*
X159909767Y-90935154D01*
X159909762Y-90935151D01*
X159712225Y-90843039D01*
X159712224Y-90843039D01*
X159707243Y-90840716D01*
X159701935Y-90839294D01*
X159701933Y-90839293D01*
X159491402Y-90782881D01*
X159491400Y-90782881D01*
X159486087Y-90781457D01*
X159258000Y-90761502D01*
X159029913Y-90781457D01*
X159024600Y-90782881D01*
X159024598Y-90782881D01*
X158814067Y-90839293D01*
X158814065Y-90839294D01*
X158808757Y-90840716D01*
X158803776Y-90843039D01*
X158803775Y-90843039D01*
X158606238Y-90935151D01*
X158606233Y-90935154D01*
X158601251Y-90937477D01*
X158517203Y-90996328D01*
X158418211Y-91065643D01*
X158418208Y-91065645D01*
X158413700Y-91068802D01*
X158251802Y-91230700D01*
X158248645Y-91235208D01*
X158248643Y-91235211D01*
X158222183Y-91273000D01*
X158120477Y-91418251D01*
X158118153Y-91423236D01*
X158118149Y-91423242D01*
X158079599Y-91505915D01*
X158032683Y-91559200D01*
X157964405Y-91578662D01*
X157896445Y-91558121D01*
X157876309Y-91541761D01*
X157860205Y-91525657D01*
X157826179Y-91463345D01*
X157823300Y-91436562D01*
X157823300Y-88162076D01*
X157824037Y-88148468D01*
X157827497Y-88116621D01*
X157827497Y-88116617D01*
X157828162Y-88110496D01*
X157823754Y-88060110D01*
X157823425Y-88055282D01*
X157823300Y-88052728D01*
X157823300Y-88049643D01*
X157819076Y-88006559D01*
X157818957Y-88005281D01*
X157811325Y-87918045D01*
X157811325Y-87918043D01*
X157810788Y-87911909D01*
X157809289Y-87906749D01*
X157808765Y-87901406D01*
X157781679Y-87811694D01*
X157781323Y-87810491D01*
X157756894Y-87726405D01*
X157756894Y-87726404D01*
X157755172Y-87720478D01*
X157752700Y-87715710D01*
X157751148Y-87710568D01*
X157748253Y-87705123D01*
X157748250Y-87705116D01*
X157707167Y-87627850D01*
X157706553Y-87626682D01*
X157674227Y-87564317D01*
X157663434Y-87543496D01*
X157660082Y-87539297D01*
X157657561Y-87534556D01*
X157643915Y-87517824D01*
X157598362Y-87461971D01*
X157597534Y-87460945D01*
X157568229Y-87424236D01*
X157568228Y-87424235D01*
X157566032Y-87421484D01*
X157563537Y-87418989D01*
X157562827Y-87418195D01*
X157559107Y-87413840D01*
X157535463Y-87384849D01*
X157535460Y-87384846D01*
X157531568Y-87380074D01*
X157495927Y-87350589D01*
X157487148Y-87342600D01*
X156247405Y-86102857D01*
X156213379Y-86040545D01*
X156210500Y-86013762D01*
X156210500Y-85725000D01*
X165604502Y-85725000D01*
X165624457Y-85953087D01*
X165625881Y-85958400D01*
X165625881Y-85958402D01*
X165682293Y-86168931D01*
X165683716Y-86174243D01*
X165686039Y-86179224D01*
X165686039Y-86179225D01*
X165778151Y-86376762D01*
X165778154Y-86376767D01*
X165780477Y-86381749D01*
X165911802Y-86569300D01*
X166073700Y-86731198D01*
X166078208Y-86734355D01*
X166078211Y-86734357D01*
X166156389Y-86789098D01*
X166261251Y-86862523D01*
X166266233Y-86864846D01*
X166266238Y-86864849D01*
X166463775Y-86956961D01*
X166468757Y-86959284D01*
X166474065Y-86960706D01*
X166474067Y-86960707D01*
X166684598Y-87017119D01*
X166684600Y-87017119D01*
X166689913Y-87018543D01*
X166918000Y-87038498D01*
X167146087Y-87018543D01*
X167151398Y-87017120D01*
X167151409Y-87017118D01*
X167178980Y-87009730D01*
X167249956Y-87011419D01*
X167300687Y-87042341D01*
X168264396Y-88006050D01*
X168298422Y-88068362D01*
X168293357Y-88139177D01*
X168272177Y-88175712D01*
X168195544Y-88267854D01*
X168056096Y-88497656D01*
X168054287Y-88501970D01*
X168054285Y-88501974D01*
X167964137Y-88716955D01*
X167952148Y-88745545D01*
X167885981Y-89006077D01*
X167859050Y-89273526D01*
X167859274Y-89278192D01*
X167859274Y-89278197D01*
X167863432Y-89364755D01*
X167871947Y-89542019D01*
X167924388Y-89805656D01*
X168015220Y-90058646D01*
X168142450Y-90295431D01*
X168145241Y-90299168D01*
X168145245Y-90299175D01*
X168245335Y-90433211D01*
X168303281Y-90510810D01*
X168306590Y-90514090D01*
X168306595Y-90514096D01*
X168467533Y-90673635D01*
X168494180Y-90700050D01*
X168497942Y-90702808D01*
X168497945Y-90702811D01*
X168688092Y-90842232D01*
X168710954Y-90858995D01*
X168715089Y-90861171D01*
X168715093Y-90861173D01*
X168944698Y-90981975D01*
X168948840Y-90984154D01*
X169202613Y-91072775D01*
X169207206Y-91073647D01*
X169462109Y-91122042D01*
X169462112Y-91122042D01*
X169466698Y-91122913D01*
X169594370Y-91127929D01*
X169730625Y-91133283D01*
X169730630Y-91133283D01*
X169735293Y-91133466D01*
X169839607Y-91122042D01*
X169997844Y-91104713D01*
X169997850Y-91104712D01*
X170002497Y-91104203D01*
X170092417Y-91080529D01*
X170257918Y-91036956D01*
X170257920Y-91036955D01*
X170262441Y-91035765D01*
X170270788Y-91032179D01*
X170505120Y-90931502D01*
X170505122Y-90931501D01*
X170509414Y-90929657D01*
X170623603Y-90858995D01*
X170734017Y-90790669D01*
X170734021Y-90790666D01*
X170737990Y-90788210D01*
X170943149Y-90614530D01*
X171120382Y-90412434D01*
X171265797Y-90186361D01*
X171376199Y-89941278D01*
X171413337Y-89809598D01*
X171447893Y-89687072D01*
X171447894Y-89687069D01*
X171449163Y-89682568D01*
X171466460Y-89546604D01*
X171482688Y-89419045D01*
X171482688Y-89419041D01*
X171483086Y-89415915D01*
X171483385Y-89404521D01*
X171485488Y-89324160D01*
X171485571Y-89321000D01*
X171476482Y-89198700D01*
X171465996Y-89057592D01*
X171465996Y-89057591D01*
X171465650Y-89052937D01*
X171461999Y-89036802D01*
X171407361Y-88795331D01*
X171407360Y-88795326D01*
X171406327Y-88790763D01*
X171308902Y-88540238D01*
X171175518Y-88306864D01*
X171159953Y-88287119D01*
X171038079Y-88132523D01*
X171009105Y-88095769D01*
X170813317Y-87911591D01*
X170592457Y-87758374D01*
X170588264Y-87756306D01*
X170355564Y-87641551D01*
X170355561Y-87641550D01*
X170351376Y-87639486D01*
X170311377Y-87626682D01*
X170249621Y-87606914D01*
X170095370Y-87557538D01*
X170090763Y-87556788D01*
X170090760Y-87556787D01*
X169834674Y-87515081D01*
X169834675Y-87515081D01*
X169830063Y-87514330D01*
X169775660Y-87513618D01*
X169690711Y-87512506D01*
X169622858Y-87491614D01*
X169603265Y-87475612D01*
X168235341Y-86107688D01*
X168201315Y-86045376D01*
X168202729Y-85985982D01*
X168210119Y-85958402D01*
X168210119Y-85958400D01*
X168211543Y-85953087D01*
X168231498Y-85725000D01*
X168211543Y-85496913D01*
X168188361Y-85410397D01*
X168153707Y-85281067D01*
X168153706Y-85281065D01*
X168152284Y-85275757D01*
X168137759Y-85244608D01*
X168057849Y-85073238D01*
X168057846Y-85073233D01*
X168055523Y-85068251D01*
X167949878Y-84917375D01*
X167927357Y-84885211D01*
X167927355Y-84885208D01*
X167924198Y-84880700D01*
X167762300Y-84718802D01*
X167757792Y-84715645D01*
X167757789Y-84715643D01*
X167632629Y-84628005D01*
X167588301Y-84572548D01*
X167578900Y-84524792D01*
X167578900Y-80510882D01*
X167598902Y-80442761D01*
X167652558Y-80396268D01*
X167722832Y-80386164D01*
X167751283Y-80393730D01*
X167800252Y-80413118D01*
X167873261Y-80442024D01*
X167877096Y-80443009D01*
X167877100Y-80443010D01*
X167923927Y-80455033D01*
X168181364Y-80521132D01*
X168185292Y-80521628D01*
X168185296Y-80521629D01*
X168310276Y-80537417D01*
X168496952Y-80561000D01*
X168815048Y-80561000D01*
X169001724Y-80537417D01*
X169126704Y-80521629D01*
X169126708Y-80521628D01*
X169130636Y-80521132D01*
X169388073Y-80455033D01*
X169434896Y-80443011D01*
X169434900Y-80443010D01*
X169438739Y-80442024D01*
X169442419Y-80440567D01*
X169442422Y-80440566D01*
X169627241Y-80367391D01*
X169734498Y-80324925D01*
X169737960Y-80323022D01*
X170009776Y-80173590D01*
X170009779Y-80173588D01*
X170013248Y-80171681D01*
X170016452Y-80169353D01*
X170016457Y-80169350D01*
X170267390Y-79987037D01*
X170267392Y-79987036D01*
X170270594Y-79984709D01*
X170291263Y-79965300D01*
X170499589Y-79769667D01*
X170502476Y-79766956D01*
X170705238Y-79521859D01*
X170875683Y-79253281D01*
X170877367Y-79249702D01*
X170877371Y-79249695D01*
X171009433Y-78969049D01*
X171009435Y-78969045D01*
X171011122Y-78965459D01*
X171018942Y-78941393D01*
X171089221Y-78725093D01*
X171109419Y-78662931D01*
X171169025Y-78350469D01*
X171188998Y-78033000D01*
X171169025Y-77715531D01*
X171109419Y-77403069D01*
X171011122Y-77100541D01*
X171009433Y-77096951D01*
X170877371Y-76816305D01*
X170877367Y-76816298D01*
X170875683Y-76812719D01*
X170830569Y-76741630D01*
X170757750Y-76626886D01*
X170705238Y-76544141D01*
X170697507Y-76534795D01*
X170593800Y-76409436D01*
X170502476Y-76299044D01*
X170392011Y-76195310D01*
X170273480Y-76084001D01*
X170273479Y-76084000D01*
X170270594Y-76081291D01*
X170267390Y-76078963D01*
X170016457Y-75896650D01*
X170016452Y-75896647D01*
X170013248Y-75894319D01*
X169941211Y-75854716D01*
X169737960Y-75742978D01*
X169737957Y-75742977D01*
X169734498Y-75741075D01*
X169491792Y-75644981D01*
X169442422Y-75625434D01*
X169442419Y-75625433D01*
X169438739Y-75623976D01*
X169434900Y-75622990D01*
X169434896Y-75622989D01*
X169291653Y-75586210D01*
X169130636Y-75544868D01*
X169126708Y-75544372D01*
X169126704Y-75544371D01*
X169001723Y-75528583D01*
X168815048Y-75505000D01*
X168496952Y-75505000D01*
X168310277Y-75528583D01*
X168185296Y-75544371D01*
X168185292Y-75544372D01*
X168181364Y-75544868D01*
X168020347Y-75586210D01*
X167877104Y-75622989D01*
X167877100Y-75622990D01*
X167873261Y-75623976D01*
X167869581Y-75625433D01*
X167869578Y-75625434D01*
X167820208Y-75644981D01*
X167577502Y-75741075D01*
X167574043Y-75742977D01*
X167574040Y-75742978D01*
X167370790Y-75854716D01*
X167298752Y-75894319D01*
X167295548Y-75896647D01*
X167295543Y-75896650D01*
X167044610Y-76078963D01*
X167041406Y-76081291D01*
X167038521Y-76084000D01*
X167038520Y-76084001D01*
X166919989Y-76195310D01*
X166809524Y-76299044D01*
X166718200Y-76409436D01*
X166614494Y-76534795D01*
X166606762Y-76544141D01*
X166554250Y-76626886D01*
X166481432Y-76741630D01*
X166436317Y-76812719D01*
X166434633Y-76816298D01*
X166434629Y-76816305D01*
X166302567Y-77096951D01*
X166300878Y-77100541D01*
X166202581Y-77403069D01*
X166142975Y-77715531D01*
X166123002Y-78033000D01*
X166142975Y-78350469D01*
X166202581Y-78662931D01*
X166222779Y-78725093D01*
X166293059Y-78941393D01*
X166300878Y-78965459D01*
X166302565Y-78969045D01*
X166302567Y-78969049D01*
X166420276Y-79219193D01*
X166431182Y-79289347D01*
X166409355Y-79345291D01*
X166395287Y-79365308D01*
X166389109Y-79374099D01*
X166385177Y-79379393D01*
X166348537Y-79426121D01*
X166345411Y-79433045D01*
X166341698Y-79439176D01*
X166339062Y-79443796D01*
X166335640Y-79450178D01*
X166331269Y-79456397D01*
X166328509Y-79463476D01*
X166309702Y-79511713D01*
X166307146Y-79517792D01*
X166282711Y-79571912D01*
X166281325Y-79579388D01*
X166279170Y-79586266D01*
X166277710Y-79591391D01*
X166275922Y-79598355D01*
X166273162Y-79605434D01*
X166272170Y-79612966D01*
X166272170Y-79612968D01*
X166265414Y-79664292D01*
X166264384Y-79670798D01*
X166253560Y-79729197D01*
X166253997Y-79736777D01*
X166253997Y-79736778D01*
X166256891Y-79786967D01*
X166257100Y-79794220D01*
X166257100Y-84524792D01*
X166237098Y-84592913D01*
X166203371Y-84628005D01*
X166078211Y-84715643D01*
X166078208Y-84715645D01*
X166073700Y-84718802D01*
X165911802Y-84880700D01*
X165908645Y-84885208D01*
X165908643Y-84885211D01*
X165886122Y-84917375D01*
X165780477Y-85068251D01*
X165778154Y-85073233D01*
X165778151Y-85073238D01*
X165698241Y-85244608D01*
X165683716Y-85275757D01*
X165682294Y-85281065D01*
X165682293Y-85281067D01*
X165647639Y-85410397D01*
X165624457Y-85496913D01*
X165604502Y-85725000D01*
X156210500Y-85725000D01*
X156210500Y-85324315D01*
X156233287Y-85252044D01*
X156284460Y-85178961D01*
X156331523Y-85111749D01*
X156333846Y-85106767D01*
X156333849Y-85106762D01*
X156425961Y-84909225D01*
X156425961Y-84909224D01*
X156428284Y-84904243D01*
X156434593Y-84880700D01*
X156486119Y-84688402D01*
X156486119Y-84688400D01*
X156487543Y-84683087D01*
X156507498Y-84455000D01*
X156487543Y-84226913D01*
X156486119Y-84221598D01*
X156429707Y-84011067D01*
X156429706Y-84011065D01*
X156428284Y-84005757D01*
X156406583Y-83959219D01*
X156333849Y-83803238D01*
X156333846Y-83803233D01*
X156331523Y-83798251D01*
X156233287Y-83657956D01*
X156210500Y-83585685D01*
X156210500Y-82739273D01*
X156211237Y-82725665D01*
X156214696Y-82693821D01*
X156215362Y-82687695D01*
X156210955Y-82637322D01*
X156210626Y-82632507D01*
X156210500Y-82629931D01*
X156210500Y-82626843D01*
X156206267Y-82583665D01*
X156206146Y-82582354D01*
X156198524Y-82495245D01*
X156197987Y-82489108D01*
X156196489Y-82483953D01*
X156195965Y-82478606D01*
X156168823Y-82388707D01*
X156168500Y-82387615D01*
X156144091Y-82303596D01*
X156144089Y-82303590D01*
X156142371Y-82297678D01*
X156139902Y-82292914D01*
X156138348Y-82287768D01*
X156094310Y-82204944D01*
X156093763Y-82203902D01*
X156053471Y-82126170D01*
X156053471Y-82126169D01*
X156050633Y-82120695D01*
X156047282Y-82116497D01*
X156044761Y-82111756D01*
X155985613Y-82039233D01*
X155984785Y-82038208D01*
X155967598Y-82016679D01*
X155953232Y-81998683D01*
X155950736Y-81996187D01*
X155950017Y-81995383D01*
X155946297Y-81991028D01*
X155922663Y-81962049D01*
X155922660Y-81962046D01*
X155918768Y-81957274D01*
X155883133Y-81927794D01*
X155874354Y-81919805D01*
X155247554Y-81293005D01*
X154601528Y-80646980D01*
X154567503Y-80584668D01*
X154572567Y-80513853D01*
X154615114Y-80457017D01*
X154681634Y-80432206D01*
X154701603Y-80432364D01*
X154720522Y-80434019D01*
X154720525Y-80434019D01*
X154726000Y-80434498D01*
X154954087Y-80414543D01*
X154959400Y-80413119D01*
X154959402Y-80413119D01*
X155169933Y-80356707D01*
X155169935Y-80356706D01*
X155175243Y-80355284D01*
X155180225Y-80352961D01*
X155377762Y-80260849D01*
X155377767Y-80260846D01*
X155382749Y-80258523D01*
X155510101Y-80169350D01*
X155565789Y-80130357D01*
X155565792Y-80130355D01*
X155570300Y-80127198D01*
X155732198Y-79965300D01*
X155740966Y-79952779D01*
X155834707Y-79818902D01*
X155863523Y-79777749D01*
X155865846Y-79772767D01*
X155865849Y-79772762D01*
X155957961Y-79575225D01*
X155957961Y-79575224D01*
X155960284Y-79570243D01*
X155988893Y-79463476D01*
X156018119Y-79354402D01*
X156018119Y-79354400D01*
X156019543Y-79349087D01*
X156039498Y-79121000D01*
X156019543Y-78892913D01*
X156017174Y-78884072D01*
X155961707Y-78677067D01*
X155961706Y-78677065D01*
X155960284Y-78671757D01*
X155957929Y-78666707D01*
X155865849Y-78469238D01*
X155865846Y-78469233D01*
X155863523Y-78464251D01*
X155732198Y-78276700D01*
X155570300Y-78114802D01*
X155565792Y-78111645D01*
X155565789Y-78111643D01*
X155464493Y-78040715D01*
X155382749Y-77983477D01*
X155377767Y-77981154D01*
X155377762Y-77981151D01*
X155180225Y-77889039D01*
X155180224Y-77889039D01*
X155175243Y-77886716D01*
X155169935Y-77885294D01*
X155169933Y-77885293D01*
X154959402Y-77828881D01*
X154959400Y-77828881D01*
X154954087Y-77827457D01*
X154726000Y-77807502D01*
X154497913Y-77827457D01*
X154492600Y-77828881D01*
X154492598Y-77828881D01*
X154282067Y-77885293D01*
X154282065Y-77885294D01*
X154276757Y-77886716D01*
X154271776Y-77889039D01*
X154271775Y-77889039D01*
X154074238Y-77981151D01*
X154074233Y-77981154D01*
X154069251Y-77983477D01*
X154004178Y-78029042D01*
X153928956Y-78081713D01*
X153856685Y-78104500D01*
X152507315Y-78104500D01*
X152435044Y-78081713D01*
X152359822Y-78029042D01*
X152294749Y-77983477D01*
X152289767Y-77981154D01*
X152289762Y-77981151D01*
X152092225Y-77889039D01*
X152092224Y-77889039D01*
X152087243Y-77886716D01*
X152081935Y-77885294D01*
X152081933Y-77885293D01*
X151953950Y-77851000D01*
X151866087Y-77827457D01*
X151836272Y-77824848D01*
X151819627Y-77823392D01*
X151753509Y-77797529D01*
X151741515Y-77786967D01*
X150368815Y-76414267D01*
X150359713Y-76404124D01*
X150339634Y-76379151D01*
X150335775Y-76374351D01*
X150296998Y-76341813D01*
X150293371Y-76338649D01*
X150291502Y-76336954D01*
X150289308Y-76334760D01*
X150255742Y-76307188D01*
X150254945Y-76306526D01*
X150183067Y-76246214D01*
X150178361Y-76243627D01*
X150174211Y-76240218D01*
X150168787Y-76237310D01*
X150168777Y-76237303D01*
X150091632Y-76195939D01*
X150090472Y-76195310D01*
X150072972Y-76185689D01*
X150008379Y-76150179D01*
X150003259Y-76148555D01*
X149998526Y-76146017D01*
X149909007Y-76118648D01*
X149907748Y-76118256D01*
X149824239Y-76091765D01*
X149824235Y-76091764D01*
X149818365Y-76089902D01*
X149813027Y-76089303D01*
X149807891Y-76087733D01*
X149801760Y-76087110D01*
X149801759Y-76087110D01*
X149771150Y-76084001D01*
X149714569Y-76078254D01*
X149713449Y-76078134D01*
X149663216Y-76072500D01*
X149659711Y-76072500D01*
X149658603Y-76072438D01*
X149652908Y-76071990D01*
X149615695Y-76068210D01*
X149615688Y-76068210D01*
X149609565Y-76067588D01*
X149563515Y-76071941D01*
X149551657Y-76072500D01*
X130096111Y-76072500D01*
X130083378Y-76071855D01*
X130047498Y-76068210D01*
X130047493Y-76068210D01*
X130041370Y-76067588D01*
X129995320Y-76071941D01*
X129983462Y-76072500D01*
X128631315Y-76072500D01*
X128559044Y-76049713D01*
X128546371Y-76040839D01*
X128418749Y-75951477D01*
X128413767Y-75949154D01*
X128413762Y-75949151D01*
X128216225Y-75857039D01*
X128216224Y-75857039D01*
X128211243Y-75854716D01*
X128205935Y-75853294D01*
X128205933Y-75853293D01*
X127995402Y-75796881D01*
X127995400Y-75796881D01*
X127990087Y-75795457D01*
X127762000Y-75775502D01*
X127533913Y-75795457D01*
X127528600Y-75796881D01*
X127528598Y-75796881D01*
X127318067Y-75853293D01*
X127318065Y-75853294D01*
X127312757Y-75854716D01*
X127307776Y-75857039D01*
X127307775Y-75857039D01*
X127110238Y-75949151D01*
X127110233Y-75949154D01*
X127105251Y-75951477D01*
X127000389Y-76024902D01*
X126922211Y-76079643D01*
X126922208Y-76079645D01*
X126917700Y-76082802D01*
X126755802Y-76244700D01*
X126752645Y-76249208D01*
X126752643Y-76249211D01*
X126719648Y-76296333D01*
X126624477Y-76432251D01*
X126622154Y-76437233D01*
X126622151Y-76437238D01*
X126577465Y-76533069D01*
X126527716Y-76639757D01*
X126526292Y-76645070D01*
X126526292Y-76645071D01*
X126500558Y-76741111D01*
X126463606Y-76801734D01*
X126399746Y-76832755D01*
X126378851Y-76834500D01*
X123630669Y-76834500D01*
X123562548Y-76814498D01*
X123552577Y-76807382D01*
X123440414Y-76718800D01*
X123440410Y-76718798D01*
X123436359Y-76715598D01*
X123404305Y-76697903D01*
X123359709Y-76673285D01*
X123240789Y-76607638D01*
X123235920Y-76605914D01*
X123235916Y-76605912D01*
X123035087Y-76534795D01*
X123035083Y-76534794D01*
X123030212Y-76533069D01*
X123025119Y-76532162D01*
X123025116Y-76532161D01*
X122815373Y-76494800D01*
X122815367Y-76494799D01*
X122810284Y-76493894D01*
X122736452Y-76492992D01*
X122592081Y-76491228D01*
X122592079Y-76491228D01*
X122586911Y-76491165D01*
X122366091Y-76524955D01*
X122153756Y-76594357D01*
X121955607Y-76697507D01*
X121951474Y-76700610D01*
X121951471Y-76700612D01*
X121781100Y-76828530D01*
X121776965Y-76831635D01*
X121622629Y-76993138D01*
X121496743Y-77177680D01*
X121467117Y-77241505D01*
X121429702Y-77322109D01*
X121402688Y-77380305D01*
X121342989Y-77595570D01*
X121319251Y-77817695D01*
X121319548Y-77822848D01*
X121319548Y-77822851D01*
X121325011Y-77917590D01*
X121332110Y-78040715D01*
X121333247Y-78045761D01*
X121333248Y-78045767D01*
X121351218Y-78125502D01*
X121381222Y-78258639D01*
X121465266Y-78465616D01*
X121506766Y-78533338D01*
X121573434Y-78642130D01*
X121581987Y-78656088D01*
X121629094Y-78710469D01*
X121634737Y-78716984D01*
X121664220Y-78781570D01*
X121665500Y-78799482D01*
X121665500Y-80283685D01*
X121642713Y-80355956D01*
X121544477Y-80496251D01*
X121542154Y-80501233D01*
X121542151Y-80501238D01*
X121494247Y-80603970D01*
X121447716Y-80703757D01*
X121388457Y-80924913D01*
X121368502Y-81153000D01*
X121388457Y-81381087D01*
X121389881Y-81386402D01*
X121389882Y-81386407D01*
X121390362Y-81388198D01*
X121390343Y-81389018D01*
X121390836Y-81391817D01*
X121390274Y-81391916D01*
X121388675Y-81459175D01*
X121348883Y-81517972D01*
X121283620Y-81545922D01*
X121213606Y-81534152D01*
X121179562Y-81509909D01*
X119097273Y-79427620D01*
X119063247Y-79365308D01*
X119068312Y-79294493D01*
X119110859Y-79237657D01*
X119180657Y-79212654D01*
X119182659Y-79212563D01*
X119187837Y-79212753D01*
X119359145Y-79190808D01*
X119404288Y-79185025D01*
X119404289Y-79185025D01*
X119409416Y-79184368D01*
X119419032Y-79181483D01*
X119618429Y-79121661D01*
X119618434Y-79121659D01*
X119623384Y-79120174D01*
X119823994Y-79021896D01*
X120005860Y-78892173D01*
X120013990Y-78884072D01*
X120101292Y-78797074D01*
X120164096Y-78734489D01*
X120185566Y-78704611D01*
X120291435Y-78557277D01*
X120294453Y-78553077D01*
X120303114Y-78535554D01*
X120391136Y-78357453D01*
X120391137Y-78357451D01*
X120393430Y-78352811D01*
X120458370Y-78139069D01*
X120487529Y-77917590D01*
X120488227Y-77889039D01*
X120489074Y-77854365D01*
X120489074Y-77854361D01*
X120489156Y-77851000D01*
X120470852Y-77628361D01*
X120416431Y-77411702D01*
X120327354Y-77206840D01*
X120206014Y-77019277D01*
X120055670Y-76854051D01*
X120037594Y-76839775D01*
X119996532Y-76781858D01*
X119993301Y-76710935D01*
X120028926Y-76649524D01*
X120062036Y-76626888D01*
X120336869Y-76497562D01*
X120603375Y-76328432D01*
X120763531Y-76195939D01*
X120843530Y-76129758D01*
X120843531Y-76129757D01*
X120846582Y-76127233D01*
X121062654Y-75897140D01*
X121248184Y-75641779D01*
X121257972Y-75623976D01*
X121398340Y-75368648D01*
X121398341Y-75368647D01*
X121400247Y-75365179D01*
X121516443Y-75071702D01*
X121594940Y-74765975D01*
X121634500Y-74452821D01*
X121634500Y-74137179D01*
X121594940Y-73824025D01*
X121516443Y-73518298D01*
X121400247Y-73224821D01*
X121248184Y-72948221D01*
X121062654Y-72692860D01*
X120846582Y-72462767D01*
X120603375Y-72261568D01*
X120336869Y-72092438D01*
X120333290Y-72090754D01*
X120333283Y-72090750D01*
X120054856Y-71959733D01*
X120054852Y-71959731D01*
X120051266Y-71958044D01*
X120012097Y-71945317D01*
X119754848Y-71861732D01*
X119754850Y-71861732D01*
X119751072Y-71860505D01*
X119478139Y-71808440D01*
X119414973Y-71776028D01*
X119379357Y-71714611D01*
X119382601Y-71643688D01*
X119423673Y-71585778D01*
X119462812Y-71564839D01*
X119489785Y-71556075D01*
X119518167Y-71539689D01*
X119645994Y-71465888D01*
X119651715Y-71462585D01*
X119662721Y-71452675D01*
X119785766Y-71341885D01*
X119785767Y-71341883D01*
X119790669Y-71337470D01*
X119900573Y-71186200D01*
X119964209Y-71043273D01*
X119973940Y-71021416D01*
X119973940Y-71021414D01*
X119976625Y-71015385D01*
X120015500Y-70832490D01*
X120015500Y-70705695D01*
X121319251Y-70705695D01*
X121319548Y-70710848D01*
X121319548Y-70710851D01*
X121330624Y-70902943D01*
X121332110Y-70928715D01*
X121333247Y-70933761D01*
X121333248Y-70933767D01*
X121350187Y-71008928D01*
X121381222Y-71146639D01*
X121417509Y-71236004D01*
X121460503Y-71341885D01*
X121465266Y-71353616D01*
X121467965Y-71358020D01*
X121579182Y-71539510D01*
X121581987Y-71544088D01*
X121585367Y-71547990D01*
X121594138Y-71558116D01*
X121728250Y-71712938D01*
X121900126Y-71855632D01*
X122093000Y-71968338D01*
X122301692Y-72048030D01*
X122306760Y-72049061D01*
X122306763Y-72049062D01*
X122355119Y-72058900D01*
X122520597Y-72092567D01*
X122525772Y-72092757D01*
X122525774Y-72092757D01*
X122738673Y-72100564D01*
X122738677Y-72100564D01*
X122743837Y-72100753D01*
X122748957Y-72100097D01*
X122748959Y-72100097D01*
X122960288Y-72073025D01*
X122960289Y-72073025D01*
X122965416Y-72072368D01*
X123010307Y-72058900D01*
X123174429Y-72009661D01*
X123174434Y-72009659D01*
X123179384Y-72008174D01*
X123379994Y-71909896D01*
X123561860Y-71780173D01*
X123590340Y-71751793D01*
X123716435Y-71626137D01*
X123720096Y-71622489D01*
X123746476Y-71585778D01*
X123847435Y-71445277D01*
X123850453Y-71441077D01*
X123873914Y-71393608D01*
X123947136Y-71245453D01*
X123947137Y-71245451D01*
X123949430Y-71240811D01*
X124001361Y-71069888D01*
X124012865Y-71032023D01*
X124012865Y-71032021D01*
X124014370Y-71027069D01*
X124043529Y-70805590D01*
X124043977Y-70787250D01*
X124045074Y-70742365D01*
X124045074Y-70742361D01*
X124045156Y-70739000D01*
X124026852Y-70516361D01*
X123972431Y-70299702D01*
X123883354Y-70094840D01*
X123773628Y-69925229D01*
X123764822Y-69911617D01*
X123764820Y-69911614D01*
X123762014Y-69907277D01*
X123611670Y-69742051D01*
X123607619Y-69738852D01*
X123607615Y-69738848D01*
X123440414Y-69606800D01*
X123440410Y-69606798D01*
X123436359Y-69603598D01*
X123240789Y-69495638D01*
X123235920Y-69493914D01*
X123235916Y-69493912D01*
X123035087Y-69422795D01*
X123035083Y-69422794D01*
X123030212Y-69421069D01*
X123025119Y-69420162D01*
X123025116Y-69420161D01*
X122815373Y-69382800D01*
X122815367Y-69382799D01*
X122810284Y-69381894D01*
X122736452Y-69380992D01*
X122592081Y-69379228D01*
X122592079Y-69379228D01*
X122586911Y-69379165D01*
X122366091Y-69412955D01*
X122153756Y-69482357D01*
X121955607Y-69585507D01*
X121951474Y-69588610D01*
X121951471Y-69588612D01*
X121781100Y-69716530D01*
X121776965Y-69719635D01*
X121622629Y-69881138D01*
X121496743Y-70065680D01*
X121402688Y-70268305D01*
X121342989Y-70483570D01*
X121319251Y-70705695D01*
X120015500Y-70705695D01*
X120015500Y-70645510D01*
X120014110Y-70638968D01*
X119993128Y-70540256D01*
X119976625Y-70462615D01*
X119973940Y-70456584D01*
X119903258Y-70297830D01*
X119903257Y-70297828D01*
X119900573Y-70291800D01*
X119859330Y-70235033D01*
X119794548Y-70145869D01*
X119790669Y-70140530D01*
X119744757Y-70099190D01*
X119656623Y-70019834D01*
X119656622Y-70019833D01*
X119651715Y-70015415D01*
X119489785Y-69921925D01*
X119352754Y-69877401D01*
X119318235Y-69866185D01*
X119318234Y-69866185D01*
X119311956Y-69864145D01*
X119305393Y-69863455D01*
X119305392Y-69863455D01*
X119282803Y-69861081D01*
X119172620Y-69849500D01*
X119079380Y-69849500D01*
X118969197Y-69861081D01*
X118946608Y-69863455D01*
X118946607Y-69863455D01*
X118940044Y-69864145D01*
X118933766Y-69866185D01*
X118933765Y-69866185D01*
X118899246Y-69877401D01*
X118762215Y-69921925D01*
X118600285Y-70015415D01*
X118595378Y-70019833D01*
X118595377Y-70019834D01*
X118507244Y-70099190D01*
X118461331Y-70140530D01*
X118457452Y-70145869D01*
X118392671Y-70235033D01*
X118351427Y-70291800D01*
X118348743Y-70297828D01*
X118348742Y-70297830D01*
X118278060Y-70456584D01*
X118275375Y-70462615D01*
X118258872Y-70540256D01*
X118237891Y-70638968D01*
X118236500Y-70645510D01*
X118236500Y-70832490D01*
X118275375Y-71015385D01*
X118278060Y-71021414D01*
X118278060Y-71021416D01*
X118287792Y-71043273D01*
X118351427Y-71186200D01*
X118461331Y-71337470D01*
X118466233Y-71341883D01*
X118466234Y-71341885D01*
X118589279Y-71452675D01*
X118600285Y-71462585D01*
X118606006Y-71465888D01*
X118733834Y-71539689D01*
X118762215Y-71556075D01*
X118789188Y-71564839D01*
X118847794Y-71604913D01*
X118875430Y-71670310D01*
X118863323Y-71740267D01*
X118815316Y-71792573D01*
X118773862Y-71808440D01*
X118500928Y-71860505D01*
X118497150Y-71861732D01*
X118497152Y-71861732D01*
X118239904Y-71945317D01*
X118200734Y-71958044D01*
X118197148Y-71959731D01*
X118197144Y-71959733D01*
X117918717Y-72090750D01*
X117918710Y-72090754D01*
X117915131Y-72092438D01*
X117648625Y-72261568D01*
X117405418Y-72462767D01*
X117189346Y-72692860D01*
X117003816Y-72948221D01*
X116851753Y-73224821D01*
X116735557Y-73518298D01*
X116657060Y-73824025D01*
X116617500Y-74137179D01*
X116617500Y-74452821D01*
X116657060Y-74765975D01*
X116735557Y-75071702D01*
X116851753Y-75365179D01*
X116853659Y-75368647D01*
X116853660Y-75368648D01*
X116994029Y-75623976D01*
X117003816Y-75641779D01*
X117189346Y-75897140D01*
X117405418Y-76127233D01*
X117408469Y-76129757D01*
X117408470Y-76129758D01*
X117488469Y-76195939D01*
X117648625Y-76328432D01*
X117915131Y-76497562D01*
X118188468Y-76626184D01*
X118241588Y-76673285D01*
X118260811Y-76741630D01*
X118240032Y-76809518D01*
X118220918Y-76831590D01*
X118220965Y-76831635D01*
X118066629Y-76993138D01*
X117940743Y-77177680D01*
X117911117Y-77241505D01*
X117873702Y-77322109D01*
X117846688Y-77380305D01*
X117786989Y-77595570D01*
X117765407Y-77797529D01*
X117764621Y-77804880D01*
X117737493Y-77870489D01*
X117679201Y-77911018D01*
X117608251Y-77913597D01*
X117550239Y-77880586D01*
X117072614Y-77402961D01*
X117066760Y-77396695D01*
X117036470Y-77361973D01*
X117031476Y-77356248D01*
X116982898Y-77322107D01*
X116977604Y-77318175D01*
X116936855Y-77286223D01*
X116936856Y-77286223D01*
X116930879Y-77281537D01*
X116923955Y-77278411D01*
X116917824Y-77274698D01*
X116913204Y-77272062D01*
X116906822Y-77268640D01*
X116900603Y-77264269D01*
X116845286Y-77242701D01*
X116839207Y-77240146D01*
X116807593Y-77225872D01*
X116753651Y-77179475D01*
X116652822Y-77023617D01*
X116652820Y-77023614D01*
X116650014Y-77019277D01*
X116499670Y-76854051D01*
X116495619Y-76850852D01*
X116495615Y-76850848D01*
X116328414Y-76718800D01*
X116328410Y-76718798D01*
X116324359Y-76715598D01*
X116292305Y-76697903D01*
X116247709Y-76673285D01*
X116128789Y-76607638D01*
X116123920Y-76605914D01*
X116123916Y-76605912D01*
X115923087Y-76534795D01*
X115923083Y-76534794D01*
X115918212Y-76533069D01*
X115913119Y-76532162D01*
X115913116Y-76532161D01*
X115703373Y-76494800D01*
X115703367Y-76494799D01*
X115698284Y-76493894D01*
X115624452Y-76492992D01*
X115480081Y-76491228D01*
X115480079Y-76491228D01*
X115474911Y-76491165D01*
X115254091Y-76524955D01*
X115041756Y-76594357D01*
X114843607Y-76697507D01*
X114839474Y-76700610D01*
X114839471Y-76700612D01*
X114669100Y-76828530D01*
X114664965Y-76831635D01*
X114510629Y-76993138D01*
X114384743Y-77177680D01*
X114355117Y-77241505D01*
X114317702Y-77322109D01*
X114290688Y-77380305D01*
X114230989Y-77595570D01*
X114207251Y-77817695D01*
X114207548Y-77822848D01*
X114207548Y-77822851D01*
X114213011Y-77917590D01*
X114220110Y-78040715D01*
X114221247Y-78045761D01*
X114221248Y-78045767D01*
X114239218Y-78125502D01*
X114269222Y-78258639D01*
X114353266Y-78465616D01*
X114355965Y-78470020D01*
X114461434Y-78642130D01*
X114469987Y-78656088D01*
X114473367Y-78659990D01*
X114479244Y-78666775D01*
X114616250Y-78824938D01*
X114788126Y-78967632D01*
X114981000Y-79080338D01*
X115189692Y-79160030D01*
X115194760Y-79161061D01*
X115194763Y-79161062D01*
X115295136Y-79181483D01*
X115408597Y-79204567D01*
X115413772Y-79204757D01*
X115413774Y-79204757D01*
X115626673Y-79212564D01*
X115626677Y-79212564D01*
X115631837Y-79212753D01*
X115636957Y-79212097D01*
X115636959Y-79212097D01*
X115848288Y-79185025D01*
X115848289Y-79185025D01*
X115853416Y-79184368D01*
X115863032Y-79181483D01*
X116062429Y-79121661D01*
X116062434Y-79121659D01*
X116067384Y-79120174D01*
X116267994Y-79021896D01*
X116449860Y-78892173D01*
X116457990Y-78884072D01*
X116482305Y-78859841D01*
X116544676Y-78825923D01*
X116615483Y-78831111D01*
X116660341Y-78859995D01*
X121941393Y-84141047D01*
X121947246Y-84147312D01*
X121982524Y-84187752D01*
X122031093Y-84221887D01*
X122036386Y-84225818D01*
X122083122Y-84262463D01*
X122090050Y-84265591D01*
X122096206Y-84269319D01*
X122100825Y-84271954D01*
X122107181Y-84275362D01*
X122113397Y-84279731D01*
X122120476Y-84282491D01*
X122168698Y-84301292D01*
X122174779Y-84303848D01*
X122228912Y-84328290D01*
X122236375Y-84329673D01*
X122243193Y-84331810D01*
X122248378Y-84333287D01*
X122255355Y-84335078D01*
X122262434Y-84337838D01*
X122269967Y-84338830D01*
X122269968Y-84338830D01*
X122293152Y-84341882D01*
X122321308Y-84345589D01*
X122327805Y-84346618D01*
X122386198Y-84357440D01*
X122393779Y-84357003D01*
X122393780Y-84357003D01*
X122443968Y-84354109D01*
X122451221Y-84353900D01*
X128359500Y-84353900D01*
X128427621Y-84373902D01*
X128474114Y-84427558D01*
X128485500Y-84479900D01*
X128485500Y-84541134D01*
X128492255Y-84603316D01*
X128543385Y-84739705D01*
X128630739Y-84856261D01*
X128747295Y-84943615D01*
X128883684Y-84994745D01*
X128945866Y-85001500D01*
X130548657Y-85001500D01*
X130616778Y-85021502D01*
X130663271Y-85075158D01*
X130673375Y-85145432D01*
X130643881Y-85210012D01*
X130637752Y-85216595D01*
X130615961Y-85238386D01*
X130609696Y-85244239D01*
X130569248Y-85279524D01*
X130537768Y-85324315D01*
X130535109Y-85328099D01*
X130531177Y-85333393D01*
X130494537Y-85380121D01*
X130491411Y-85387045D01*
X130487698Y-85393176D01*
X130485062Y-85397796D01*
X130481640Y-85404178D01*
X130477269Y-85410397D01*
X130474509Y-85417476D01*
X130455702Y-85465713D01*
X130453146Y-85471792D01*
X130428711Y-85525912D01*
X130427325Y-85533388D01*
X130425170Y-85540266D01*
X130423710Y-85545391D01*
X130421922Y-85552355D01*
X130419162Y-85559434D01*
X130418170Y-85566966D01*
X130418170Y-85566968D01*
X130411414Y-85618292D01*
X130410384Y-85624798D01*
X130399560Y-85683197D01*
X130399997Y-85690777D01*
X130399997Y-85690778D01*
X130402891Y-85740967D01*
X130403100Y-85748220D01*
X130403100Y-92257056D01*
X130383098Y-92325177D01*
X130366195Y-92346151D01*
X130176687Y-92535659D01*
X130114375Y-92569685D01*
X130054980Y-92568270D01*
X130027409Y-92560882D01*
X130027398Y-92560880D01*
X130022087Y-92559457D01*
X129794000Y-92539502D01*
X129565913Y-92559457D01*
X129560600Y-92560881D01*
X129560598Y-92560881D01*
X129350067Y-92617293D01*
X129350065Y-92617294D01*
X129344757Y-92618716D01*
X129339776Y-92621039D01*
X129339775Y-92621039D01*
X129142238Y-92713151D01*
X129142233Y-92713154D01*
X129137251Y-92715477D01*
X129075988Y-92758374D01*
X128954211Y-92843643D01*
X128954208Y-92843645D01*
X128949700Y-92846802D01*
X128787802Y-93008700D01*
X128784645Y-93013208D01*
X128784643Y-93013211D01*
X128697005Y-93138371D01*
X128641548Y-93182699D01*
X128593792Y-93192100D01*
X127720216Y-93192100D01*
X127652095Y-93172098D01*
X127617003Y-93138371D01*
X127501357Y-92973211D01*
X127501355Y-92973208D01*
X127498198Y-92968700D01*
X127336300Y-92806802D01*
X127331792Y-92803645D01*
X127331789Y-92803643D01*
X127238808Y-92738537D01*
X127148749Y-92675477D01*
X127143767Y-92673154D01*
X127143762Y-92673151D01*
X126946225Y-92581039D01*
X126946224Y-92581039D01*
X126941243Y-92578716D01*
X126935935Y-92577294D01*
X126935933Y-92577293D01*
X126725402Y-92520881D01*
X126725400Y-92520881D01*
X126720087Y-92519457D01*
X126492000Y-92499502D01*
X126263913Y-92519457D01*
X126258600Y-92520881D01*
X126258598Y-92520881D01*
X126048067Y-92577293D01*
X126048065Y-92577294D01*
X126042757Y-92578716D01*
X126037776Y-92581039D01*
X126037775Y-92581039D01*
X125840238Y-92673151D01*
X125840233Y-92673154D01*
X125835251Y-92675477D01*
X125745192Y-92738537D01*
X125652211Y-92803643D01*
X125652208Y-92803645D01*
X125647700Y-92806802D01*
X125485802Y-92968700D01*
X125482645Y-92973208D01*
X125482643Y-92973211D01*
X125395005Y-93098371D01*
X125339548Y-93142699D01*
X125291792Y-93152100D01*
X124745944Y-93152100D01*
X124677823Y-93132098D01*
X124656849Y-93115195D01*
X121136614Y-89594961D01*
X121130760Y-89588695D01*
X121100470Y-89553973D01*
X121095476Y-89548248D01*
X121046898Y-89514107D01*
X121041604Y-89510175D01*
X121000855Y-89478223D01*
X121000856Y-89478223D01*
X120994879Y-89473537D01*
X120987955Y-89470411D01*
X120981824Y-89466698D01*
X120977204Y-89464062D01*
X120970822Y-89460640D01*
X120964603Y-89456269D01*
X120909286Y-89434701D01*
X120903207Y-89432146D01*
X120849088Y-89407711D01*
X120841612Y-89406325D01*
X120834734Y-89404170D01*
X120829609Y-89402710D01*
X120822645Y-89400922D01*
X120815566Y-89398162D01*
X120808034Y-89397170D01*
X120808032Y-89397170D01*
X120782804Y-89393849D01*
X120756700Y-89390413D01*
X120750202Y-89389384D01*
X120691803Y-89378560D01*
X120684223Y-89378997D01*
X120684222Y-89378997D01*
X120634033Y-89381891D01*
X120626780Y-89382100D01*
X118607079Y-89382100D01*
X118538958Y-89362098D01*
X118501287Y-89324540D01*
X118430822Y-89215617D01*
X118430820Y-89215614D01*
X118428014Y-89211277D01*
X118277670Y-89046051D01*
X118273619Y-89042852D01*
X118273615Y-89042848D01*
X118106414Y-88910800D01*
X118106410Y-88910798D01*
X118102359Y-88907598D01*
X118095235Y-88903665D01*
X118050136Y-88878769D01*
X117906789Y-88799638D01*
X117901920Y-88797914D01*
X117901916Y-88797912D01*
X117701087Y-88726795D01*
X117701083Y-88726794D01*
X117696212Y-88725069D01*
X117691119Y-88724162D01*
X117691116Y-88724161D01*
X117481373Y-88686800D01*
X117481367Y-88686799D01*
X117476284Y-88685894D01*
X117402452Y-88684992D01*
X117258081Y-88683228D01*
X117258079Y-88683228D01*
X117252911Y-88683165D01*
X117032091Y-88716955D01*
X117031806Y-88715093D01*
X116969055Y-88711829D01*
X116921689Y-88682035D01*
X115747374Y-87507720D01*
X114546815Y-86307162D01*
X114512790Y-86244850D01*
X114517434Y-86176065D01*
X114518284Y-86174243D01*
X114561285Y-86013762D01*
X114576119Y-85958402D01*
X114576119Y-85958400D01*
X114577543Y-85953087D01*
X114597498Y-85725000D01*
X114577543Y-85496913D01*
X114554361Y-85410397D01*
X114519707Y-85281067D01*
X114519706Y-85281065D01*
X114518284Y-85275757D01*
X114503759Y-85244608D01*
X114423849Y-85073238D01*
X114423846Y-85073233D01*
X114421523Y-85068251D01*
X114315878Y-84917375D01*
X114293357Y-84885211D01*
X114293355Y-84885208D01*
X114290198Y-84880700D01*
X114128300Y-84718802D01*
X114123792Y-84715645D01*
X114123789Y-84715643D01*
X113973936Y-84610715D01*
X113940749Y-84587477D01*
X113935767Y-84585154D01*
X113935762Y-84585151D01*
X113738225Y-84493039D01*
X113738224Y-84493039D01*
X113733243Y-84490716D01*
X113727935Y-84489294D01*
X113727933Y-84489293D01*
X113517402Y-84432881D01*
X113517400Y-84432881D01*
X113512087Y-84431457D01*
X113284000Y-84411502D01*
X113055913Y-84431457D01*
X113050600Y-84432881D01*
X113050598Y-84432881D01*
X112840067Y-84489293D01*
X112840065Y-84489294D01*
X112834757Y-84490716D01*
X112829776Y-84493039D01*
X112829775Y-84493039D01*
X112632238Y-84585151D01*
X112632233Y-84585154D01*
X112627251Y-84587477D01*
X112594064Y-84610715D01*
X112444211Y-84715643D01*
X112444208Y-84715645D01*
X112439700Y-84718802D01*
X112277802Y-84880700D01*
X112274645Y-84885208D01*
X112274643Y-84885211D01*
X112252122Y-84917375D01*
X112146477Y-85068251D01*
X112144154Y-85073233D01*
X112144151Y-85073238D01*
X112064241Y-85244608D01*
X112049716Y-85275757D01*
X112048294Y-85281065D01*
X112048293Y-85281067D01*
X112013639Y-85410397D01*
X111990457Y-85496913D01*
X111970502Y-85725000D01*
X111990457Y-85953087D01*
X111991881Y-85958400D01*
X111991881Y-85958402D01*
X112048293Y-86168931D01*
X112049716Y-86174243D01*
X112052039Y-86179224D01*
X112052039Y-86179225D01*
X112144151Y-86376762D01*
X112144154Y-86376767D01*
X112146477Y-86381749D01*
X112277802Y-86569300D01*
X112439700Y-86731198D01*
X112444208Y-86734355D01*
X112444211Y-86734357D01*
X112522389Y-86789098D01*
X112627251Y-86862523D01*
X112632233Y-86864846D01*
X112632238Y-86864849D01*
X112829775Y-86956961D01*
X112834757Y-86959284D01*
X112840065Y-86960706D01*
X112840067Y-86960707D01*
X113050598Y-87017119D01*
X113050600Y-87017119D01*
X113055913Y-87018543D01*
X113284000Y-87038498D01*
X113289475Y-87038019D01*
X113340270Y-87033575D01*
X113409875Y-87047564D01*
X113440347Y-87070001D01*
X115989365Y-89619018D01*
X116023390Y-89681330D01*
X116021687Y-89741783D01*
X116008989Y-89787570D01*
X116008441Y-89792700D01*
X116008440Y-89792704D01*
X116006067Y-89814913D01*
X115985251Y-90009695D01*
X115985548Y-90014848D01*
X115985548Y-90014851D01*
X115988073Y-90058646D01*
X115998110Y-90232715D01*
X115999247Y-90237761D01*
X115999248Y-90237767D01*
X116023304Y-90344508D01*
X116047222Y-90450639D01*
X116106423Y-90596435D01*
X116120519Y-90631148D01*
X116131266Y-90657616D01*
X116168355Y-90718140D01*
X116242012Y-90838337D01*
X116247987Y-90848088D01*
X116394250Y-91016938D01*
X116566126Y-91159632D01*
X116636595Y-91200811D01*
X116639445Y-91202476D01*
X116688169Y-91254114D01*
X116701240Y-91323897D01*
X116674509Y-91389669D01*
X116634055Y-91423027D01*
X116621607Y-91429507D01*
X116617474Y-91432610D01*
X116617471Y-91432612D01*
X116447100Y-91560530D01*
X116442965Y-91563635D01*
X116439393Y-91567373D01*
X116314890Y-91697658D01*
X116288629Y-91725138D01*
X116285715Y-91729410D01*
X116285714Y-91729411D01*
X116232319Y-91807685D01*
X116162743Y-91909680D01*
X116143493Y-91951151D01*
X116108753Y-92025993D01*
X116068688Y-92112305D01*
X116067305Y-92117291D01*
X116067303Y-92117297D01*
X116062629Y-92134151D01*
X116025149Y-92194447D01*
X115961019Y-92224909D01*
X115890601Y-92215863D01*
X115852118Y-92189570D01*
X114554815Y-90892267D01*
X114545713Y-90882124D01*
X114525634Y-90857151D01*
X114521775Y-90852351D01*
X114482998Y-90819813D01*
X114479371Y-90816649D01*
X114477502Y-90814954D01*
X114475308Y-90812760D01*
X114441742Y-90785188D01*
X114440945Y-90784526D01*
X114369067Y-90724214D01*
X114364361Y-90721627D01*
X114360211Y-90718218D01*
X114354787Y-90715310D01*
X114354777Y-90715303D01*
X114277632Y-90673939D01*
X114276472Y-90673310D01*
X114255935Y-90662020D01*
X114194379Y-90628179D01*
X114189259Y-90626555D01*
X114184526Y-90624017D01*
X114095007Y-90596648D01*
X114093748Y-90596256D01*
X114010239Y-90569765D01*
X114010235Y-90569764D01*
X114004365Y-90567902D01*
X113999027Y-90567303D01*
X113993891Y-90565733D01*
X113987760Y-90565110D01*
X113987759Y-90565110D01*
X113967103Y-90563012D01*
X113900569Y-90556254D01*
X113899449Y-90556134D01*
X113849216Y-90550500D01*
X113845711Y-90550500D01*
X113844603Y-90550438D01*
X113838908Y-90549990D01*
X113801695Y-90546210D01*
X113801688Y-90546210D01*
X113795565Y-90545588D01*
X113751398Y-90549763D01*
X113749515Y-90549941D01*
X113737657Y-90550500D01*
X112330276Y-90550500D01*
X112316668Y-90549763D01*
X112284821Y-90546303D01*
X112284817Y-90546303D01*
X112278696Y-90545638D01*
X112241828Y-90548863D01*
X112228310Y-90550046D01*
X112223482Y-90550375D01*
X112220927Y-90550500D01*
X112217843Y-90550500D01*
X112202469Y-90552008D01*
X112174781Y-90554722D01*
X112173468Y-90554844D01*
X112133371Y-90558352D01*
X112080108Y-90563012D01*
X112074948Y-90564511D01*
X112069606Y-90565035D01*
X111979904Y-90592117D01*
X111978764Y-90592455D01*
X111888678Y-90618628D01*
X111883910Y-90621100D01*
X111878768Y-90622652D01*
X111873323Y-90625547D01*
X111873316Y-90625550D01*
X111796050Y-90666633D01*
X111794946Y-90667213D01*
X111711696Y-90710366D01*
X111707497Y-90713718D01*
X111702756Y-90716239D01*
X111697984Y-90720131D01*
X111630171Y-90775438D01*
X111629145Y-90776266D01*
X111598415Y-90800798D01*
X111589684Y-90807768D01*
X111587189Y-90810263D01*
X111586395Y-90810973D01*
X111582040Y-90814693D01*
X111553049Y-90838337D01*
X111553046Y-90838340D01*
X111548274Y-90842232D01*
X111544346Y-90846980D01*
X111544345Y-90846981D01*
X111518789Y-90877873D01*
X111510800Y-90886652D01*
X110831267Y-91566185D01*
X110821125Y-91575286D01*
X110791351Y-91599225D01*
X110758813Y-91638002D01*
X110755649Y-91641629D01*
X110753954Y-91643498D01*
X110751760Y-91645692D01*
X110724188Y-91679258D01*
X110723526Y-91680055D01*
X110663214Y-91751933D01*
X110660627Y-91756639D01*
X110657218Y-91760789D01*
X110654310Y-91766213D01*
X110654303Y-91766223D01*
X110612939Y-91843368D01*
X110612310Y-91844528D01*
X110567179Y-91926621D01*
X110565555Y-91931741D01*
X110563017Y-91936474D01*
X110538790Y-92015716D01*
X110535648Y-92025993D01*
X110535256Y-92027252D01*
X110518002Y-92081643D01*
X110506902Y-92116635D01*
X110506303Y-92121973D01*
X110504733Y-92127109D01*
X110498389Y-92189570D01*
X110495263Y-92220343D01*
X110495134Y-92221551D01*
X110489500Y-92271784D01*
X110489500Y-92275289D01*
X110489438Y-92276397D01*
X110488990Y-92282092D01*
X110485210Y-92319305D01*
X110485210Y-92319312D01*
X110484588Y-92325435D01*
X107188500Y-92325435D01*
X107188500Y-70705695D01*
X114207251Y-70705695D01*
X114207548Y-70710848D01*
X114207548Y-70710851D01*
X114218624Y-70902943D01*
X114220110Y-70928715D01*
X114221247Y-70933761D01*
X114221248Y-70933767D01*
X114238187Y-71008928D01*
X114269222Y-71146639D01*
X114305509Y-71236004D01*
X114348503Y-71341885D01*
X114353266Y-71353616D01*
X114355965Y-71358020D01*
X114467182Y-71539510D01*
X114469987Y-71544088D01*
X114473367Y-71547990D01*
X114482138Y-71558116D01*
X114616250Y-71712938D01*
X114788126Y-71855632D01*
X114981000Y-71968338D01*
X115189692Y-72048030D01*
X115194760Y-72049061D01*
X115194763Y-72049062D01*
X115243119Y-72058900D01*
X115408597Y-72092567D01*
X115413772Y-72092757D01*
X115413774Y-72092757D01*
X115626673Y-72100564D01*
X115626677Y-72100564D01*
X115631837Y-72100753D01*
X115636957Y-72100097D01*
X115636959Y-72100097D01*
X115848288Y-72073025D01*
X115848289Y-72073025D01*
X115853416Y-72072368D01*
X115898307Y-72058900D01*
X116062429Y-72009661D01*
X116062434Y-72009659D01*
X116067384Y-72008174D01*
X116267994Y-71909896D01*
X116449860Y-71780173D01*
X116478340Y-71751793D01*
X116604435Y-71626137D01*
X116608096Y-71622489D01*
X116634476Y-71585778D01*
X116735435Y-71445277D01*
X116738453Y-71441077D01*
X116761914Y-71393608D01*
X116835136Y-71245453D01*
X116835137Y-71245451D01*
X116837430Y-71240811D01*
X116889361Y-71069888D01*
X116900865Y-71032023D01*
X116900865Y-71032021D01*
X116902370Y-71027069D01*
X116931529Y-70805590D01*
X116931977Y-70787250D01*
X116933074Y-70742365D01*
X116933074Y-70742361D01*
X116933156Y-70739000D01*
X116914852Y-70516361D01*
X116860431Y-70299702D01*
X116771354Y-70094840D01*
X116661628Y-69925229D01*
X116652822Y-69911617D01*
X116652820Y-69911614D01*
X116650014Y-69907277D01*
X116499670Y-69742051D01*
X116495619Y-69738852D01*
X116495615Y-69738848D01*
X116328414Y-69606800D01*
X116328410Y-69606798D01*
X116324359Y-69603598D01*
X116128789Y-69495638D01*
X116123920Y-69493914D01*
X116123916Y-69493912D01*
X115923087Y-69422795D01*
X115923083Y-69422794D01*
X115918212Y-69421069D01*
X115913119Y-69420162D01*
X115913116Y-69420161D01*
X115703373Y-69382800D01*
X115703367Y-69382799D01*
X115698284Y-69381894D01*
X115624452Y-69380992D01*
X115480081Y-69379228D01*
X115480079Y-69379228D01*
X115474911Y-69379165D01*
X115254091Y-69412955D01*
X115041756Y-69482357D01*
X114843607Y-69585507D01*
X114839474Y-69588610D01*
X114839471Y-69588612D01*
X114669100Y-69716530D01*
X114664965Y-69719635D01*
X114510629Y-69881138D01*
X114384743Y-70065680D01*
X114290688Y-70268305D01*
X114230989Y-70483570D01*
X114207251Y-70705695D01*
X107188500Y-70705695D01*
X107188500Y-68969818D01*
X107208502Y-68901697D01*
X107225405Y-68880722D01*
X107361724Y-68744404D01*
X107424036Y-68710379D01*
X107450819Y-68707500D01*
X133116087Y-68707500D01*
X133184208Y-68727502D01*
G37*
%TD.AperFunction*%
M02*
