M48
; DRILL file {KiCad 6.0.11-2627ca5db0~126~ubuntu22.04.1} date Tue 23 May 2023 07:44:06 PM EDT
; FORMAT={-:-/ absolute / metric / decimal}
; #@! TF.CreationDate,2023-05-23T19:44:06-04:00
; #@! TF.GenerationSoftware,Kicad,Pcbnew,6.0.11-2627ca5db0~126~ubuntu22.04.1
; #@! TF.FileFunction,Plated,1,2,PTH
FMAT,2
METRIC
; #@! TA.AperFunction,Plated,PTH,ComponentDrill
T1C0.762
; #@! TA.AperFunction,Plated,PTH,ComponentDrill
T2C0.800
; #@! TA.AperFunction,Plated,PTH,ComponentDrill
T3C1.000
; #@! TA.AperFunction,Plated,PTH,ComponentDrill
T4C1.300
; #@! TA.AperFunction,Plated,PTH,ComponentDrill
T5C1.850
; #@! TA.AperFunction,Plated,PTH,ComponentDrill
T6C2.000
; #@! TA.AperFunction,Plated,PTH,ComponentDrill
T7C2.200
; #@! TA.AperFunction,Plated,PTH,ComponentDrill
T8C2.693
; #@! TA.AperFunction,Plated,PTH,ComponentDrill
T9C2.818
; #@! TA.AperFunction,Plated,PTH,ComponentDrill
T10C4.000
%
G90
G05
T1
X129.54Y-65.786
T2
X123.698Y-80.772
X123.698Y-88.392
X125.984Y-65.786
X125.984Y-72.898
X128.809Y-108.966
X129.54Y-72.898
X130.809Y-108.966
X132.842Y-93.98
X132.842Y-104.14
X133.096Y-65.786
X133.096Y-72.898
X133.096Y-76.2
X133.096Y-91.44
X136.906Y-83.86
X136.906Y-88.86
X137.16Y-93.98
X137.16Y-101.6
X137.668Y-108.966
X138.176Y-67.136
X138.176Y-72.136
X139.74Y-105.41
X140.208Y-78.74
X140.208Y-88.9
X140.716Y-97.322
X140.716Y-102.322
X143.256Y-78.994
X143.256Y-82.042
X143.55Y-88.138
X144.74Y-105.41
X145.034Y-85.09
X145.288Y-91.201
X145.288Y-98.821
X145.288Y-108.966
X147.828Y-91.201
X147.828Y-98.821
X148.336Y-101.6
X148.336Y-109.22
X148.55Y-88.138
X150.368Y-91.201
X150.368Y-98.821
X150.876Y-78.994
X150.876Y-82.042
X152.654Y-85.09
X152.908Y-91.201
X152.908Y-98.821
X155.448Y-91.201
X155.448Y-98.821
X155.742Y-88.138
X157.988Y-91.201
X157.988Y-98.821
X158.028Y-101.854
X160.528Y-91.201
X160.528Y-98.821
X160.742Y-88.138
X162.052Y-74.168
X162.052Y-81.788
X163.028Y-101.854
X163.068Y-91.201
X163.068Y-98.821
X165.14Y-74.168
X165.608Y-79.502
X165.608Y-87.122
X165.608Y-91.201
X165.608Y-98.821
X167.386Y-104.942
X167.386Y-109.942
X169.672Y-79.502
X169.672Y-87.122
X170.14Y-74.168
X170.688Y-105.918
X170.688Y-109.728
X172.974Y-81.32
X172.974Y-86.32
X177.332Y-80.772
X178.308Y-105.918
X178.308Y-109.728
X179.832Y-92.75
X179.832Y-97.75
X182.332Y-80.772
T3
X127.762Y-82.55
X127.762Y-85.09
X127.762Y-87.63
X127.762Y-90.17
X127.762Y-92.71
X127.762Y-95.25
X127.762Y-97.79
X127.762Y-100.33
T4
X161.036Y-105.41
X161.036Y-110.41
X170.728Y-93.98
X175.728Y-93.98
X180.086Y-84.368
X180.086Y-89.368
T5
X144.779Y-65.473
X146.684Y-75.003
X151.385Y-75.003
X156.084Y-75.003
X157.989Y-65.473
T6
X124.46Y-69.342
X134.62Y-69.342
T7
X127.762Y-78.486
X127.762Y-104.394
T8
X179.07Y-73.08
T9
X179.07Y-68.58
T10
X129.54Y-69.342
T0
M30
