%TF.GenerationSoftware,KiCad,Pcbnew,6.0.11-2627ca5db0~126~ubuntu22.04.1*%
%TF.CreationDate,2023-05-13T09:44:54-04:00*%
%TF.ProjectId,sub_rf_mod,7375625f-7266-45f6-9d6f-642e6b696361,rev?*%
%TF.SameCoordinates,Original*%
%TF.FileFunction,Copper,L1,Top*%
%TF.FilePolarity,Positive*%
%FSLAX46Y46*%
G04 Gerber Fmt 4.6, Leading zero omitted, Abs format (unit mm)*
G04 Created by KiCad (PCBNEW 6.0.11-2627ca5db0~126~ubuntu22.04.1) date 2023-05-13 09:44:54*
%MOMM*%
%LPD*%
G01*
G04 APERTURE LIST*
%TA.AperFunction,Profile*%
%ADD10C,0.100000*%
%TD*%
%TA.AperFunction,ComponentPad*%
%ADD11R,1.700000X1.700000*%
%TD*%
%TA.AperFunction,ComponentPad*%
%ADD12O,1.700000X1.700000*%
%TD*%
%TA.AperFunction,ComponentPad*%
%ADD13C,1.600000*%
%TD*%
%TA.AperFunction,ComponentPad*%
%ADD14O,1.600000X1.600000*%
%TD*%
%TA.AperFunction,ComponentPad*%
%ADD15C,4.227000*%
%TD*%
%TA.AperFunction,ComponentPad*%
%ADD16C,4.039000*%
%TD*%
%TA.AperFunction,ComponentPad*%
%ADD17C,3.800000*%
%TD*%
%TA.AperFunction,ComponentPad*%
%ADD18C,2.775000*%
%TD*%
%TA.AperFunction,ComponentPad*%
%ADD19C,2.600000*%
%TD*%
%TA.AperFunction,ComponentPad*%
%ADD20R,1.600000X1.600000*%
%TD*%
%TA.AperFunction,ComponentPad*%
%ADD21R,1.600000X2.400000*%
%TD*%
%TA.AperFunction,ComponentPad*%
%ADD22O,1.600000X2.400000*%
%TD*%
%TA.AperFunction,ComponentPad*%
%ADD23C,1.700000*%
%TD*%
%TA.AperFunction,ComponentPad*%
%ADD24C,3.000000*%
%TD*%
G04 APERTURE END LIST*
D10*
X175260000Y-118237000D02*
X175768000Y-117729000D01*
X107188000Y-118237000D02*
X175260000Y-118237000D01*
X107188000Y-68199000D02*
X175260000Y-68199000D01*
X107188000Y-68199000D02*
X106680000Y-68707000D01*
X175768000Y-117729000D02*
X175768000Y-68707000D01*
X175260000Y-68199000D02*
X175768000Y-68707000D01*
X106680000Y-117729000D02*
X107188000Y-118237000D01*
X106680000Y-117729000D02*
X106680000Y-68707000D01*
D11*
%TO.P,J4B1,1,Pin_1*%
%TO.N,N/C*%
X117348000Y-87503000D03*
D12*
%TO.P,J4B1,2,Pin_2*%
X117348000Y-90043000D03*
%TO.P,J4B1,3,Pin_3*%
X117348000Y-92583000D03*
%TO.P,J4B1,4,Pin_4*%
X117348000Y-95123000D03*
%TO.P,J4B1,5,Pin_5*%
X117348000Y-97663000D03*
%TO.P,J4B1,6,Pin_6*%
X117348000Y-100203000D03*
%TO.P,J4B1,7,Pin_7*%
X117348000Y-102743000D03*
%TO.P,J4B1,8,Pin_8*%
X117348000Y-105283000D03*
%TD*%
D13*
%TO.P,RF_R7,1*%
%TO.N,N/C*%
X159258000Y-92075000D03*
D14*
%TO.P,RF_R7,2*%
X159258000Y-84455000D03*
%TD*%
D13*
%TO.P,RF_R8,1*%
%TO.N,N/C*%
X155194000Y-92075000D03*
D14*
%TO.P,RF_R8,2*%
X155194000Y-84455000D03*
%TD*%
D15*
%TO.P,RF_J1,S*%
%TO.N,N/C*%
X168656000Y-73533000D03*
D16*
%TO.P,RF_J1,T*%
X168656000Y-78033000D03*
%TD*%
D13*
%TO.P,RF_C8,1*%
%TO.N,N/C*%
X154726000Y-79121000D03*
%TO.P,RF_C8,2*%
X159726000Y-79121000D03*
%TD*%
%TO.P,RF_C9,1*%
%TO.N,N/C*%
X162560000Y-91273000D03*
%TO.P,RF_C9,2*%
X162560000Y-86273000D03*
%TD*%
D17*
%TO.P,H16,1,1*%
%TO.N,N/C*%
X117348000Y-109347000D03*
%TD*%
D13*
%TO.P,RF_R4,1*%
%TO.N,N/C*%
X137922000Y-114173000D03*
D14*
%TO.P,RF_R4,2*%
X137922000Y-106553000D03*
%TD*%
D13*
%TO.P,RF_R1,1*%
%TO.N,N/C*%
X113284000Y-93345000D03*
D14*
%TO.P,RF_R1,2*%
X113284000Y-85725000D03*
%TD*%
D13*
%TO.P,RF_R9,1*%
%TO.N,N/C*%
X151638000Y-79121000D03*
D14*
%TO.P,RF_R9,2*%
X151638000Y-86741000D03*
%TD*%
D18*
%TO.P,RF_SW1,1,A*%
%TO.N,N/C*%
X145670500Y-79956000D03*
%TO.P,RF_SW1,2,B*%
X140970500Y-79956000D03*
%TO.P,RF_SW1,3,C*%
X136270500Y-79956000D03*
%TO.P,RF_SW1,4*%
X134365500Y-70426000D03*
X147575500Y-70426000D03*
%TD*%
D13*
%TO.P,RF_R10,1*%
%TO.N,N/C*%
X140462000Y-83947000D03*
D14*
%TO.P,RF_R10,2*%
X132842000Y-83947000D03*
%TD*%
D19*
%TO.P,RF_L1,1,1*%
%TO.N,N/C*%
X169672000Y-94321000D03*
%TO.P,RF_L1,2,2*%
X169672000Y-89321000D03*
%TD*%
D13*
%TO.P,RF_C3,1*%
%TO.N,N/C*%
X130302000Y-102275000D03*
%TO.P,RF_C3,2*%
X130302000Y-107275000D03*
%TD*%
%TO.P,RF_R12,1*%
%TO.N,N/C*%
X142240000Y-90043000D03*
D14*
%TO.P,RF_R12,2*%
X134620000Y-90043000D03*
%TD*%
D13*
%TO.P,RF_R3,1*%
%TO.N,N/C*%
X127254000Y-113919000D03*
D14*
%TO.P,RF_R3,2*%
X134874000Y-113919000D03*
%TD*%
D19*
%TO.P,RF_L3,1,1*%
%TO.N,N/C*%
X150622000Y-110363000D03*
%TO.P,RF_L3,2,2*%
X150622000Y-115363000D03*
%TD*%
D13*
%TO.P,RF_C11,1*%
%TO.N,N/C*%
X166918000Y-85725000D03*
%TO.P,RF_C11,2*%
X171918000Y-85725000D03*
%TD*%
D20*
%TO.P,RF_D1,1,K*%
%TO.N,N/C*%
X122428000Y-109093000D03*
D14*
%TO.P,RF_D1,2,A*%
X122428000Y-98933000D03*
%TD*%
D20*
%TO.P,RF_D2,1,K*%
%TO.N,N/C*%
X129794000Y-83693000D03*
D14*
%TO.P,RF_D2,2,A*%
X129794000Y-93853000D03*
%TD*%
D13*
%TO.P,RF_C1,1*%
%TO.N,N/C*%
X127762000Y-77089000D03*
%TO.P,RF_C1,2*%
X127762000Y-72089000D03*
%TD*%
%TO.P,RF_R2,1*%
%TO.N,N/C*%
X126746000Y-98933000D03*
D14*
%TO.P,RF_R2,2*%
X126746000Y-106553000D03*
%TD*%
D21*
%TO.P,RF_U1,1,CHROMA_LEAD*%
%TO.N,N/C*%
X134874000Y-103774000D03*
D22*
%TO.P,RF_U1,2,R-Y*%
X137414000Y-103774000D03*
%TO.P,RF_U1,3,CHROMA_BIAS*%
X139954000Y-103774000D03*
%TO.P,RF_U1,4,B-Y*%
X142494000Y-103774000D03*
%TO.P,RF_U1,5,GND*%
X145034000Y-103774000D03*
%TO.P,RF_U1,6,CHB_TANK1*%
X147574000Y-103774000D03*
%TO.P,RF_U1,7,CHB_TANK2*%
X150114000Y-103774000D03*
%TO.P,RF_U1,8,CHA_TANK1*%
X152654000Y-103774000D03*
%TO.P,RF_U1,9,CHA_TANK2*%
X155194000Y-103774000D03*
%TO.P,RF_U1,10,CHB_OUTPUT*%
X155194000Y-96154000D03*
%TO.P,RF_U1,11,CHA_OUTPUT*%
X152654000Y-96154000D03*
%TO.P,RF_U1,12,VIDEO_IN*%
X150114000Y-96154000D03*
%TO.P,RF_U1,13,CHROMA_SUBCAR*%
X147574000Y-96154000D03*
%TO.P,RF_U1,14,RF_SUPPLY*%
X145034000Y-96154000D03*
%TO.P,RF_U1,15,SOUND_TANK*%
X142494000Y-96154000D03*
%TO.P,RF_U1,16,CHROMA_SUPPLY*%
X139954000Y-96154000D03*
%TO.P,RF_U1,17,CHROMA_OSC*%
X137414000Y-96154000D03*
%TO.P,RF_U1,18,CHROMA_LAG*%
X134874000Y-96154000D03*
%TD*%
D13*
%TO.P,RF_C7,1*%
%TO.N,N/C*%
X145328000Y-93091000D03*
%TO.P,RF_C7,2*%
X150328000Y-93091000D03*
%TD*%
D17*
%TO.P,H17,1,1*%
%TO.N,N/C*%
X117348000Y-83439000D03*
%TD*%
D23*
%TO.P,RF_VL1,1,1*%
%TO.N,N/C*%
X115570000Y-77851000D03*
%TO.P,RF_VL1,2,2*%
X119126000Y-77851000D03*
%TO.P,RF_VL1,3,3*%
X122682000Y-77851000D03*
%TO.P,RF_VL1,4,4*%
X122682000Y-70739000D03*
%TO.P,RF_VL1,6,6*%
X115570000Y-70739000D03*
D24*
%TO.P,RF_VL1,S,S*%
X114046000Y-74295000D03*
X124206000Y-74295000D03*
%TD*%
D13*
%TO.P,RF_C4,1*%
%TO.N,N/C*%
X134326000Y-110363000D03*
%TO.P,RF_C4,2*%
X129326000Y-110363000D03*
%TD*%
%TO.P,RF_R5,1*%
%TO.N,N/C*%
X167894000Y-110871000D03*
D14*
%TO.P,RF_R5,2*%
X160274000Y-110871000D03*
%TD*%
D19*
%TO.P,RF_L2,1,1*%
%TO.N,N/C*%
X160314000Y-98933000D03*
%TO.P,RF_L2,2,2*%
X165314000Y-98933000D03*
%TD*%
D13*
%TO.P,RF_C10,1*%
%TO.N,N/C*%
X169418000Y-102703000D03*
%TO.P,RF_C10,2*%
X169418000Y-97703000D03*
%TD*%
%TO.P,RF_JP1,1,A*%
%TO.N,N/C*%
X122682000Y-81153000D03*
D14*
%TO.P,RF_JP1,2,B*%
X122682000Y-96393000D03*
%TD*%
D13*
%TO.P,RF_C6,1*%
%TO.N,N/C*%
X156972000Y-109895000D03*
%TO.P,RF_C6,2*%
X156972000Y-114895000D03*
%TD*%
%TO.P,RF_C5,1*%
%TO.N,N/C*%
X133136000Y-93091000D03*
%TO.P,RF_C5,2*%
X138136000Y-93091000D03*
%TD*%
%TO.P,RF_R11,1*%
%TO.N,N/C*%
X132842000Y-86995000D03*
D14*
%TO.P,RF_R11,2*%
X140462000Y-86995000D03*
%TD*%
D13*
%TO.P,RF_C12,1*%
%TO.N,N/C*%
X152614000Y-106807000D03*
%TO.P,RF_C12,2*%
X147614000Y-106807000D03*
%TD*%
%TO.P,RF_R6,1*%
%TO.N,N/C*%
X160274000Y-114681000D03*
D14*
%TO.P,RF_R6,2*%
X167894000Y-114681000D03*
%TD*%
D13*
%TO.P,RF_C2,1*%
%TO.N,N/C*%
X126492000Y-88813000D03*
%TO.P,RF_C2,2*%
X126492000Y-93813000D03*
%TD*%
D20*
%TO.P,RF_C13,1*%
%TO.N,N/C*%
X118395328Y-113919000D03*
D13*
%TO.P,RF_C13,2*%
X120395328Y-113919000D03*
%TD*%
M02*
