%TF.GenerationSoftware,KiCad,Pcbnew,7.0.11-7.0.11~ubuntu22.04.1*%
%TF.CreationDate,2024-10-09T20:20:53-04:00*%
%TF.ProjectId,sub_rf_mod,7375625f-7266-45f6-9d6f-642e6b696361,rev?*%
%TF.SameCoordinates,Original*%
%TF.FileFunction,Legend,Top*%
%TF.FilePolarity,Positive*%
%FSLAX46Y46*%
G04 Gerber Fmt 4.6, Leading zero omitted, Abs format (unit mm)*
G04 Created by KiCad (PCBNEW 7.0.11-7.0.11~ubuntu22.04.1) date 2024-10-09 20:20:53*
%MOMM*%
%LPD*%
G01*
G04 APERTURE LIST*
%ADD10C,0.150000*%
%ADD11C,0.254000*%
%ADD12C,0.120000*%
%ADD13C,0.200000*%
%ADD14C,0.100000*%
%TA.AperFunction,Profile*%
%ADD15C,0.100000*%
%TD*%
G04 APERTURE END LIST*
D10*
X138630819Y-81740190D02*
X138154628Y-82073523D01*
X138630819Y-82311618D02*
X137630819Y-82311618D01*
X137630819Y-82311618D02*
X137630819Y-81930666D01*
X137630819Y-81930666D02*
X137678438Y-81835428D01*
X137678438Y-81835428D02*
X137726057Y-81787809D01*
X137726057Y-81787809D02*
X137821295Y-81740190D01*
X137821295Y-81740190D02*
X137964152Y-81740190D01*
X137964152Y-81740190D02*
X138059390Y-81787809D01*
X138059390Y-81787809D02*
X138107009Y-81835428D01*
X138107009Y-81835428D02*
X138154628Y-81930666D01*
X138154628Y-81930666D02*
X138154628Y-82311618D01*
X138107009Y-80978285D02*
X138107009Y-81311618D01*
X138630819Y-81311618D02*
X137630819Y-81311618D01*
X137630819Y-81311618D02*
X137630819Y-80835428D01*
X138726057Y-80692571D02*
X138726057Y-79930666D01*
X138630819Y-79692570D02*
X137630819Y-79692570D01*
X137630819Y-79692570D02*
X137630819Y-79454475D01*
X137630819Y-79454475D02*
X137678438Y-79311618D01*
X137678438Y-79311618D02*
X137773676Y-79216380D01*
X137773676Y-79216380D02*
X137868914Y-79168761D01*
X137868914Y-79168761D02*
X138059390Y-79121142D01*
X138059390Y-79121142D02*
X138202247Y-79121142D01*
X138202247Y-79121142D02*
X138392723Y-79168761D01*
X138392723Y-79168761D02*
X138487961Y-79216380D01*
X138487961Y-79216380D02*
X138583200Y-79311618D01*
X138583200Y-79311618D02*
X138630819Y-79454475D01*
X138630819Y-79454475D02*
X138630819Y-79692570D01*
X137726057Y-78740189D02*
X137678438Y-78692570D01*
X137678438Y-78692570D02*
X137630819Y-78597332D01*
X137630819Y-78597332D02*
X137630819Y-78359237D01*
X137630819Y-78359237D02*
X137678438Y-78263999D01*
X137678438Y-78263999D02*
X137726057Y-78216380D01*
X137726057Y-78216380D02*
X137821295Y-78168761D01*
X137821295Y-78168761D02*
X137916533Y-78168761D01*
X137916533Y-78168761D02*
X138059390Y-78216380D01*
X138059390Y-78216380D02*
X138630819Y-78787808D01*
X138630819Y-78787808D02*
X138630819Y-78168761D01*
X140662819Y-77223904D02*
X139662819Y-77223904D01*
X140662819Y-76652476D02*
X140091390Y-77081047D01*
X139662819Y-76652476D02*
X140234247Y-77223904D01*
X175714819Y-83264190D02*
X175238628Y-83597523D01*
X175714819Y-83835618D02*
X174714819Y-83835618D01*
X174714819Y-83835618D02*
X174714819Y-83454666D01*
X174714819Y-83454666D02*
X174762438Y-83359428D01*
X174762438Y-83359428D02*
X174810057Y-83311809D01*
X174810057Y-83311809D02*
X174905295Y-83264190D01*
X174905295Y-83264190D02*
X175048152Y-83264190D01*
X175048152Y-83264190D02*
X175143390Y-83311809D01*
X175143390Y-83311809D02*
X175191009Y-83359428D01*
X175191009Y-83359428D02*
X175238628Y-83454666D01*
X175238628Y-83454666D02*
X175238628Y-83835618D01*
X175191009Y-82502285D02*
X175191009Y-82835618D01*
X175714819Y-82835618D02*
X174714819Y-82835618D01*
X174714819Y-82835618D02*
X174714819Y-82359428D01*
X175810057Y-82216571D02*
X175810057Y-81454666D01*
X175619580Y-80645142D02*
X175667200Y-80692761D01*
X175667200Y-80692761D02*
X175714819Y-80835618D01*
X175714819Y-80835618D02*
X175714819Y-80930856D01*
X175714819Y-80930856D02*
X175667200Y-81073713D01*
X175667200Y-81073713D02*
X175571961Y-81168951D01*
X175571961Y-81168951D02*
X175476723Y-81216570D01*
X175476723Y-81216570D02*
X175286247Y-81264189D01*
X175286247Y-81264189D02*
X175143390Y-81264189D01*
X175143390Y-81264189D02*
X174952914Y-81216570D01*
X174952914Y-81216570D02*
X174857676Y-81168951D01*
X174857676Y-81168951D02*
X174762438Y-81073713D01*
X174762438Y-81073713D02*
X174714819Y-80930856D01*
X174714819Y-80930856D02*
X174714819Y-80835618D01*
X174714819Y-80835618D02*
X174762438Y-80692761D01*
X174762438Y-80692761D02*
X174810057Y-80645142D01*
X175714819Y-80168951D02*
X175714819Y-79978475D01*
X175714819Y-79978475D02*
X175667200Y-79883237D01*
X175667200Y-79883237D02*
X175619580Y-79835618D01*
X175619580Y-79835618D02*
X175476723Y-79740380D01*
X175476723Y-79740380D02*
X175286247Y-79692761D01*
X175286247Y-79692761D02*
X174905295Y-79692761D01*
X174905295Y-79692761D02*
X174810057Y-79740380D01*
X174810057Y-79740380D02*
X174762438Y-79787999D01*
X174762438Y-79787999D02*
X174714819Y-79883237D01*
X174714819Y-79883237D02*
X174714819Y-80073713D01*
X174714819Y-80073713D02*
X174762438Y-80168951D01*
X174762438Y-80168951D02*
X174810057Y-80216570D01*
X174810057Y-80216570D02*
X174905295Y-80264189D01*
X174905295Y-80264189D02*
X175143390Y-80264189D01*
X175143390Y-80264189D02*
X175238628Y-80216570D01*
X175238628Y-80216570D02*
X175286247Y-80168951D01*
X175286247Y-80168951D02*
X175333866Y-80073713D01*
X175333866Y-80073713D02*
X175333866Y-79883237D01*
X175333866Y-79883237D02*
X175286247Y-79787999D01*
X175286247Y-79787999D02*
X175238628Y-79740380D01*
X175238628Y-79740380D02*
X175143390Y-79692761D01*
X122089394Y-109674819D02*
X121756061Y-109198628D01*
X121517966Y-109674819D02*
X121517966Y-108674819D01*
X121517966Y-108674819D02*
X121898918Y-108674819D01*
X121898918Y-108674819D02*
X121994156Y-108722438D01*
X121994156Y-108722438D02*
X122041775Y-108770057D01*
X122041775Y-108770057D02*
X122089394Y-108865295D01*
X122089394Y-108865295D02*
X122089394Y-109008152D01*
X122089394Y-109008152D02*
X122041775Y-109103390D01*
X122041775Y-109103390D02*
X121994156Y-109151009D01*
X121994156Y-109151009D02*
X121898918Y-109198628D01*
X121898918Y-109198628D02*
X121517966Y-109198628D01*
X122851299Y-109151009D02*
X122517966Y-109151009D01*
X122517966Y-109674819D02*
X122517966Y-108674819D01*
X122517966Y-108674819D02*
X122994156Y-108674819D01*
X123137014Y-109770057D02*
X123898918Y-109770057D01*
X124708442Y-109579580D02*
X124660823Y-109627200D01*
X124660823Y-109627200D02*
X124517966Y-109674819D01*
X124517966Y-109674819D02*
X124422728Y-109674819D01*
X124422728Y-109674819D02*
X124279871Y-109627200D01*
X124279871Y-109627200D02*
X124184633Y-109531961D01*
X124184633Y-109531961D02*
X124137014Y-109436723D01*
X124137014Y-109436723D02*
X124089395Y-109246247D01*
X124089395Y-109246247D02*
X124089395Y-109103390D01*
X124089395Y-109103390D02*
X124137014Y-108912914D01*
X124137014Y-108912914D02*
X124184633Y-108817676D01*
X124184633Y-108817676D02*
X124279871Y-108722438D01*
X124279871Y-108722438D02*
X124422728Y-108674819D01*
X124422728Y-108674819D02*
X124517966Y-108674819D01*
X124517966Y-108674819D02*
X124660823Y-108722438D01*
X124660823Y-108722438D02*
X124708442Y-108770057D01*
X125660823Y-109674819D02*
X125089395Y-109674819D01*
X125375109Y-109674819D02*
X125375109Y-108674819D01*
X125375109Y-108674819D02*
X125279871Y-108817676D01*
X125279871Y-108817676D02*
X125184633Y-108912914D01*
X125184633Y-108912914D02*
X125089395Y-108960533D01*
X125994157Y-108674819D02*
X126613204Y-108674819D01*
X126613204Y-108674819D02*
X126279871Y-109055771D01*
X126279871Y-109055771D02*
X126422728Y-109055771D01*
X126422728Y-109055771D02*
X126517966Y-109103390D01*
X126517966Y-109103390D02*
X126565585Y-109151009D01*
X126565585Y-109151009D02*
X126613204Y-109246247D01*
X126613204Y-109246247D02*
X126613204Y-109484342D01*
X126613204Y-109484342D02*
X126565585Y-109579580D01*
X126565585Y-109579580D02*
X126517966Y-109627200D01*
X126517966Y-109627200D02*
X126422728Y-109674819D01*
X126422728Y-109674819D02*
X126137014Y-109674819D01*
X126137014Y-109674819D02*
X126041776Y-109627200D01*
X126041776Y-109627200D02*
X125994157Y-109579580D01*
X143456819Y-101044190D02*
X142980628Y-101377523D01*
X143456819Y-101615618D02*
X142456819Y-101615618D01*
X142456819Y-101615618D02*
X142456819Y-101234666D01*
X142456819Y-101234666D02*
X142504438Y-101139428D01*
X142504438Y-101139428D02*
X142552057Y-101091809D01*
X142552057Y-101091809D02*
X142647295Y-101044190D01*
X142647295Y-101044190D02*
X142790152Y-101044190D01*
X142790152Y-101044190D02*
X142885390Y-101091809D01*
X142885390Y-101091809D02*
X142933009Y-101139428D01*
X142933009Y-101139428D02*
X142980628Y-101234666D01*
X142980628Y-101234666D02*
X142980628Y-101615618D01*
X142933009Y-100282285D02*
X142933009Y-100615618D01*
X143456819Y-100615618D02*
X142456819Y-100615618D01*
X142456819Y-100615618D02*
X142456819Y-100139428D01*
X143552057Y-99996571D02*
X143552057Y-99234666D01*
X143361580Y-98425142D02*
X143409200Y-98472761D01*
X143409200Y-98472761D02*
X143456819Y-98615618D01*
X143456819Y-98615618D02*
X143456819Y-98710856D01*
X143456819Y-98710856D02*
X143409200Y-98853713D01*
X143409200Y-98853713D02*
X143313961Y-98948951D01*
X143313961Y-98948951D02*
X143218723Y-98996570D01*
X143218723Y-98996570D02*
X143028247Y-99044189D01*
X143028247Y-99044189D02*
X142885390Y-99044189D01*
X142885390Y-99044189D02*
X142694914Y-98996570D01*
X142694914Y-98996570D02*
X142599676Y-98948951D01*
X142599676Y-98948951D02*
X142504438Y-98853713D01*
X142504438Y-98853713D02*
X142456819Y-98710856D01*
X142456819Y-98710856D02*
X142456819Y-98615618D01*
X142456819Y-98615618D02*
X142504438Y-98472761D01*
X142504438Y-98472761D02*
X142552057Y-98425142D01*
X142456819Y-98091808D02*
X142456819Y-97472761D01*
X142456819Y-97472761D02*
X142837771Y-97806094D01*
X142837771Y-97806094D02*
X142837771Y-97663237D01*
X142837771Y-97663237D02*
X142885390Y-97567999D01*
X142885390Y-97567999D02*
X142933009Y-97520380D01*
X142933009Y-97520380D02*
X143028247Y-97472761D01*
X143028247Y-97472761D02*
X143266342Y-97472761D01*
X143266342Y-97472761D02*
X143361580Y-97520380D01*
X143361580Y-97520380D02*
X143409200Y-97567999D01*
X143409200Y-97567999D02*
X143456819Y-97663237D01*
X143456819Y-97663237D02*
X143456819Y-97948951D01*
X143456819Y-97948951D02*
X143409200Y-98044189D01*
X143409200Y-98044189D02*
X143361580Y-98091808D01*
X131264819Y-82121143D02*
X130788628Y-82454476D01*
X131264819Y-82692571D02*
X130264819Y-82692571D01*
X130264819Y-82692571D02*
X130264819Y-82311619D01*
X130264819Y-82311619D02*
X130312438Y-82216381D01*
X130312438Y-82216381D02*
X130360057Y-82168762D01*
X130360057Y-82168762D02*
X130455295Y-82121143D01*
X130455295Y-82121143D02*
X130598152Y-82121143D01*
X130598152Y-82121143D02*
X130693390Y-82168762D01*
X130693390Y-82168762D02*
X130741009Y-82216381D01*
X130741009Y-82216381D02*
X130788628Y-82311619D01*
X130788628Y-82311619D02*
X130788628Y-82692571D01*
X130741009Y-81359238D02*
X130741009Y-81692571D01*
X131264819Y-81692571D02*
X130264819Y-81692571D01*
X130264819Y-81692571D02*
X130264819Y-81216381D01*
X131360057Y-81073524D02*
X131360057Y-80311619D01*
X130264819Y-79787809D02*
X130979104Y-79787809D01*
X130979104Y-79787809D02*
X131121961Y-79835428D01*
X131121961Y-79835428D02*
X131217200Y-79930666D01*
X131217200Y-79930666D02*
X131264819Y-80073523D01*
X131264819Y-80073523D02*
X131264819Y-80168761D01*
X131264819Y-79311618D02*
X130264819Y-79311618D01*
X130264819Y-79311618D02*
X130264819Y-78930666D01*
X130264819Y-78930666D02*
X130312438Y-78835428D01*
X130312438Y-78835428D02*
X130360057Y-78787809D01*
X130360057Y-78787809D02*
X130455295Y-78740190D01*
X130455295Y-78740190D02*
X130598152Y-78740190D01*
X130598152Y-78740190D02*
X130693390Y-78787809D01*
X130693390Y-78787809D02*
X130741009Y-78835428D01*
X130741009Y-78835428D02*
X130788628Y-78930666D01*
X130788628Y-78930666D02*
X130788628Y-79311618D01*
X131264819Y-77787809D02*
X131264819Y-78359237D01*
X131264819Y-78073523D02*
X130264819Y-78073523D01*
X130264819Y-78073523D02*
X130407676Y-78168761D01*
X130407676Y-78168761D02*
X130502914Y-78263999D01*
X130502914Y-78263999D02*
X130550533Y-78359237D01*
X152733618Y-80210819D02*
X152400285Y-79734628D01*
X152162190Y-80210819D02*
X152162190Y-79210819D01*
X152162190Y-79210819D02*
X152543142Y-79210819D01*
X152543142Y-79210819D02*
X152638380Y-79258438D01*
X152638380Y-79258438D02*
X152685999Y-79306057D01*
X152685999Y-79306057D02*
X152733618Y-79401295D01*
X152733618Y-79401295D02*
X152733618Y-79544152D01*
X152733618Y-79544152D02*
X152685999Y-79639390D01*
X152685999Y-79639390D02*
X152638380Y-79687009D01*
X152638380Y-79687009D02*
X152543142Y-79734628D01*
X152543142Y-79734628D02*
X152162190Y-79734628D01*
X153495523Y-79687009D02*
X153162190Y-79687009D01*
X153162190Y-80210819D02*
X153162190Y-79210819D01*
X153162190Y-79210819D02*
X153638380Y-79210819D01*
X153781238Y-80306057D02*
X154543142Y-80306057D01*
X155352666Y-80210819D02*
X155019333Y-79734628D01*
X154781238Y-80210819D02*
X154781238Y-79210819D01*
X154781238Y-79210819D02*
X155162190Y-79210819D01*
X155162190Y-79210819D02*
X155257428Y-79258438D01*
X155257428Y-79258438D02*
X155305047Y-79306057D01*
X155305047Y-79306057D02*
X155352666Y-79401295D01*
X155352666Y-79401295D02*
X155352666Y-79544152D01*
X155352666Y-79544152D02*
X155305047Y-79639390D01*
X155305047Y-79639390D02*
X155257428Y-79687009D01*
X155257428Y-79687009D02*
X155162190Y-79734628D01*
X155162190Y-79734628D02*
X154781238Y-79734628D01*
X156305047Y-80210819D02*
X155733619Y-80210819D01*
X156019333Y-80210819D02*
X156019333Y-79210819D01*
X156019333Y-79210819D02*
X155924095Y-79353676D01*
X155924095Y-79353676D02*
X155828857Y-79448914D01*
X155828857Y-79448914D02*
X155733619Y-79496533D01*
X156924095Y-79210819D02*
X157019333Y-79210819D01*
X157019333Y-79210819D02*
X157114571Y-79258438D01*
X157114571Y-79258438D02*
X157162190Y-79306057D01*
X157162190Y-79306057D02*
X157209809Y-79401295D01*
X157209809Y-79401295D02*
X157257428Y-79591771D01*
X157257428Y-79591771D02*
X157257428Y-79829866D01*
X157257428Y-79829866D02*
X157209809Y-80020342D01*
X157209809Y-80020342D02*
X157162190Y-80115580D01*
X157162190Y-80115580D02*
X157114571Y-80163200D01*
X157114571Y-80163200D02*
X157019333Y-80210819D01*
X157019333Y-80210819D02*
X156924095Y-80210819D01*
X156924095Y-80210819D02*
X156828857Y-80163200D01*
X156828857Y-80163200D02*
X156781238Y-80115580D01*
X156781238Y-80115580D02*
X156733619Y-80020342D01*
X156733619Y-80020342D02*
X156686000Y-79829866D01*
X156686000Y-79829866D02*
X156686000Y-79591771D01*
X156686000Y-79591771D02*
X156733619Y-79401295D01*
X156733619Y-79401295D02*
X156781238Y-79306057D01*
X156781238Y-79306057D02*
X156828857Y-79258438D01*
X156828857Y-79258438D02*
X156924095Y-79210819D01*
X129756819Y-93765523D02*
X130471104Y-93765523D01*
X130471104Y-93765523D02*
X130613961Y-93813142D01*
X130613961Y-93813142D02*
X130709200Y-93908380D01*
X130709200Y-93908380D02*
X130756819Y-94051237D01*
X130756819Y-94051237D02*
X130756819Y-94146475D01*
X130090152Y-92860761D02*
X130756819Y-92860761D01*
X129709200Y-93098856D02*
X130423485Y-93336951D01*
X130423485Y-93336951D02*
X130423485Y-92717904D01*
X130233009Y-92003618D02*
X130280628Y-91860761D01*
X130280628Y-91860761D02*
X130328247Y-91813142D01*
X130328247Y-91813142D02*
X130423485Y-91765523D01*
X130423485Y-91765523D02*
X130566342Y-91765523D01*
X130566342Y-91765523D02*
X130661580Y-91813142D01*
X130661580Y-91813142D02*
X130709200Y-91860761D01*
X130709200Y-91860761D02*
X130756819Y-91955999D01*
X130756819Y-91955999D02*
X130756819Y-92336951D01*
X130756819Y-92336951D02*
X129756819Y-92336951D01*
X129756819Y-92336951D02*
X129756819Y-92003618D01*
X129756819Y-92003618D02*
X129804438Y-91908380D01*
X129804438Y-91908380D02*
X129852057Y-91860761D01*
X129852057Y-91860761D02*
X129947295Y-91813142D01*
X129947295Y-91813142D02*
X130042533Y-91813142D01*
X130042533Y-91813142D02*
X130137771Y-91860761D01*
X130137771Y-91860761D02*
X130185390Y-91908380D01*
X130185390Y-91908380D02*
X130233009Y-92003618D01*
X130233009Y-92003618D02*
X130233009Y-92336951D01*
X130756819Y-90813142D02*
X130756819Y-91384570D01*
X130756819Y-91098856D02*
X129756819Y-91098856D01*
X129756819Y-91098856D02*
X129899676Y-91194094D01*
X129899676Y-91194094D02*
X129994914Y-91289332D01*
X129994914Y-91289332D02*
X130042533Y-91384570D01*
X136344819Y-81740190D02*
X135868628Y-82073523D01*
X136344819Y-82311618D02*
X135344819Y-82311618D01*
X135344819Y-82311618D02*
X135344819Y-81930666D01*
X135344819Y-81930666D02*
X135392438Y-81835428D01*
X135392438Y-81835428D02*
X135440057Y-81787809D01*
X135440057Y-81787809D02*
X135535295Y-81740190D01*
X135535295Y-81740190D02*
X135678152Y-81740190D01*
X135678152Y-81740190D02*
X135773390Y-81787809D01*
X135773390Y-81787809D02*
X135821009Y-81835428D01*
X135821009Y-81835428D02*
X135868628Y-81930666D01*
X135868628Y-81930666D02*
X135868628Y-82311618D01*
X135821009Y-80978285D02*
X135821009Y-81311618D01*
X136344819Y-81311618D02*
X135344819Y-81311618D01*
X135344819Y-81311618D02*
X135344819Y-80835428D01*
X136440057Y-80692571D02*
X136440057Y-79930666D01*
X136249580Y-79121142D02*
X136297200Y-79168761D01*
X136297200Y-79168761D02*
X136344819Y-79311618D01*
X136344819Y-79311618D02*
X136344819Y-79406856D01*
X136344819Y-79406856D02*
X136297200Y-79549713D01*
X136297200Y-79549713D02*
X136201961Y-79644951D01*
X136201961Y-79644951D02*
X136106723Y-79692570D01*
X136106723Y-79692570D02*
X135916247Y-79740189D01*
X135916247Y-79740189D02*
X135773390Y-79740189D01*
X135773390Y-79740189D02*
X135582914Y-79692570D01*
X135582914Y-79692570D02*
X135487676Y-79644951D01*
X135487676Y-79644951D02*
X135392438Y-79549713D01*
X135392438Y-79549713D02*
X135344819Y-79406856D01*
X135344819Y-79406856D02*
X135344819Y-79311618D01*
X135344819Y-79311618D02*
X135392438Y-79168761D01*
X135392438Y-79168761D02*
X135440057Y-79121142D01*
X135440057Y-78740189D02*
X135392438Y-78692570D01*
X135392438Y-78692570D02*
X135344819Y-78597332D01*
X135344819Y-78597332D02*
X135344819Y-78359237D01*
X135344819Y-78359237D02*
X135392438Y-78263999D01*
X135392438Y-78263999D02*
X135440057Y-78216380D01*
X135440057Y-78216380D02*
X135535295Y-78168761D01*
X135535295Y-78168761D02*
X135630533Y-78168761D01*
X135630533Y-78168761D02*
X135773390Y-78216380D01*
X135773390Y-78216380D02*
X136344819Y-78787808D01*
X136344819Y-78787808D02*
X136344819Y-78168761D01*
X180387809Y-110182819D02*
X180054476Y-109706628D01*
X179816381Y-110182819D02*
X179816381Y-109182819D01*
X179816381Y-109182819D02*
X180197333Y-109182819D01*
X180197333Y-109182819D02*
X180292571Y-109230438D01*
X180292571Y-109230438D02*
X180340190Y-109278057D01*
X180340190Y-109278057D02*
X180387809Y-109373295D01*
X180387809Y-109373295D02*
X180387809Y-109516152D01*
X180387809Y-109516152D02*
X180340190Y-109611390D01*
X180340190Y-109611390D02*
X180292571Y-109659009D01*
X180292571Y-109659009D02*
X180197333Y-109706628D01*
X180197333Y-109706628D02*
X179816381Y-109706628D01*
X181149714Y-109659009D02*
X180816381Y-109659009D01*
X180816381Y-110182819D02*
X180816381Y-109182819D01*
X180816381Y-109182819D02*
X181292571Y-109182819D01*
X181435429Y-110278057D02*
X182197333Y-110278057D01*
X183006857Y-110182819D02*
X182673524Y-109706628D01*
X182435429Y-110182819D02*
X182435429Y-109182819D01*
X182435429Y-109182819D02*
X182816381Y-109182819D01*
X182816381Y-109182819D02*
X182911619Y-109230438D01*
X182911619Y-109230438D02*
X182959238Y-109278057D01*
X182959238Y-109278057D02*
X183006857Y-109373295D01*
X183006857Y-109373295D02*
X183006857Y-109516152D01*
X183006857Y-109516152D02*
X182959238Y-109611390D01*
X182959238Y-109611390D02*
X182911619Y-109659009D01*
X182911619Y-109659009D02*
X182816381Y-109706628D01*
X182816381Y-109706628D02*
X182435429Y-109706628D01*
X183864000Y-109182819D02*
X183673524Y-109182819D01*
X183673524Y-109182819D02*
X183578286Y-109230438D01*
X183578286Y-109230438D02*
X183530667Y-109278057D01*
X183530667Y-109278057D02*
X183435429Y-109420914D01*
X183435429Y-109420914D02*
X183387810Y-109611390D01*
X183387810Y-109611390D02*
X183387810Y-109992342D01*
X183387810Y-109992342D02*
X183435429Y-110087580D01*
X183435429Y-110087580D02*
X183483048Y-110135200D01*
X183483048Y-110135200D02*
X183578286Y-110182819D01*
X183578286Y-110182819D02*
X183768762Y-110182819D01*
X183768762Y-110182819D02*
X183864000Y-110135200D01*
X183864000Y-110135200D02*
X183911619Y-110087580D01*
X183911619Y-110087580D02*
X183959238Y-109992342D01*
X183959238Y-109992342D02*
X183959238Y-109754247D01*
X183959238Y-109754247D02*
X183911619Y-109659009D01*
X183911619Y-109659009D02*
X183864000Y-109611390D01*
X183864000Y-109611390D02*
X183768762Y-109563771D01*
X183768762Y-109563771D02*
X183578286Y-109563771D01*
X183578286Y-109563771D02*
X183483048Y-109611390D01*
X183483048Y-109611390D02*
X183435429Y-109659009D01*
X183435429Y-109659009D02*
X183387810Y-109754247D01*
X184350819Y-97710381D02*
X183874628Y-98043714D01*
X184350819Y-98281809D02*
X183350819Y-98281809D01*
X183350819Y-98281809D02*
X183350819Y-97900857D01*
X183350819Y-97900857D02*
X183398438Y-97805619D01*
X183398438Y-97805619D02*
X183446057Y-97758000D01*
X183446057Y-97758000D02*
X183541295Y-97710381D01*
X183541295Y-97710381D02*
X183684152Y-97710381D01*
X183684152Y-97710381D02*
X183779390Y-97758000D01*
X183779390Y-97758000D02*
X183827009Y-97805619D01*
X183827009Y-97805619D02*
X183874628Y-97900857D01*
X183874628Y-97900857D02*
X183874628Y-98281809D01*
X183827009Y-96948476D02*
X183827009Y-97281809D01*
X184350819Y-97281809D02*
X183350819Y-97281809D01*
X183350819Y-97281809D02*
X183350819Y-96805619D01*
X184446057Y-96662762D02*
X184446057Y-95900857D01*
X184255580Y-95091333D02*
X184303200Y-95138952D01*
X184303200Y-95138952D02*
X184350819Y-95281809D01*
X184350819Y-95281809D02*
X184350819Y-95377047D01*
X184350819Y-95377047D02*
X184303200Y-95519904D01*
X184303200Y-95519904D02*
X184207961Y-95615142D01*
X184207961Y-95615142D02*
X184112723Y-95662761D01*
X184112723Y-95662761D02*
X183922247Y-95710380D01*
X183922247Y-95710380D02*
X183779390Y-95710380D01*
X183779390Y-95710380D02*
X183588914Y-95662761D01*
X183588914Y-95662761D02*
X183493676Y-95615142D01*
X183493676Y-95615142D02*
X183398438Y-95519904D01*
X183398438Y-95519904D02*
X183350819Y-95377047D01*
X183350819Y-95377047D02*
X183350819Y-95281809D01*
X183350819Y-95281809D02*
X183398438Y-95138952D01*
X183398438Y-95138952D02*
X183446057Y-95091333D01*
X184350819Y-94138952D02*
X184350819Y-94710380D01*
X184350819Y-94424666D02*
X183350819Y-94424666D01*
X183350819Y-94424666D02*
X183493676Y-94519904D01*
X183493676Y-94519904D02*
X183588914Y-94615142D01*
X183588914Y-94615142D02*
X183636533Y-94710380D01*
X183350819Y-93519904D02*
X183350819Y-93424666D01*
X183350819Y-93424666D02*
X183398438Y-93329428D01*
X183398438Y-93329428D02*
X183446057Y-93281809D01*
X183446057Y-93281809D02*
X183541295Y-93234190D01*
X183541295Y-93234190D02*
X183731771Y-93186571D01*
X183731771Y-93186571D02*
X183969866Y-93186571D01*
X183969866Y-93186571D02*
X184160342Y-93234190D01*
X184160342Y-93234190D02*
X184255580Y-93281809D01*
X184255580Y-93281809D02*
X184303200Y-93329428D01*
X184303200Y-93329428D02*
X184350819Y-93424666D01*
X184350819Y-93424666D02*
X184350819Y-93519904D01*
X184350819Y-93519904D02*
X184303200Y-93615142D01*
X184303200Y-93615142D02*
X184255580Y-93662761D01*
X184255580Y-93662761D02*
X184160342Y-93710380D01*
X184160342Y-93710380D02*
X183969866Y-93757999D01*
X183969866Y-93757999D02*
X183731771Y-93757999D01*
X183731771Y-93757999D02*
X183541295Y-93710380D01*
X183541295Y-93710380D02*
X183446057Y-93662761D01*
X183446057Y-93662761D02*
X183398438Y-93615142D01*
X183398438Y-93615142D02*
X183350819Y-93519904D01*
X153051047Y-108404819D02*
X152717714Y-107928628D01*
X152479619Y-108404819D02*
X152479619Y-107404819D01*
X152479619Y-107404819D02*
X152860571Y-107404819D01*
X152860571Y-107404819D02*
X152955809Y-107452438D01*
X152955809Y-107452438D02*
X153003428Y-107500057D01*
X153003428Y-107500057D02*
X153051047Y-107595295D01*
X153051047Y-107595295D02*
X153051047Y-107738152D01*
X153051047Y-107738152D02*
X153003428Y-107833390D01*
X153003428Y-107833390D02*
X152955809Y-107881009D01*
X152955809Y-107881009D02*
X152860571Y-107928628D01*
X152860571Y-107928628D02*
X152479619Y-107928628D01*
X153812952Y-107881009D02*
X153479619Y-107881009D01*
X153479619Y-108404819D02*
X153479619Y-107404819D01*
X153479619Y-107404819D02*
X153955809Y-107404819D01*
X154098667Y-108500057D02*
X154860571Y-108500057D01*
X155574857Y-108404819D02*
X155098667Y-108404819D01*
X155098667Y-108404819D02*
X155098667Y-107404819D01*
X155812953Y-107404819D02*
X156432000Y-107404819D01*
X156432000Y-107404819D02*
X156098667Y-107785771D01*
X156098667Y-107785771D02*
X156241524Y-107785771D01*
X156241524Y-107785771D02*
X156336762Y-107833390D01*
X156336762Y-107833390D02*
X156384381Y-107881009D01*
X156384381Y-107881009D02*
X156432000Y-107976247D01*
X156432000Y-107976247D02*
X156432000Y-108214342D01*
X156432000Y-108214342D02*
X156384381Y-108309580D01*
X156384381Y-108309580D02*
X156336762Y-108357200D01*
X156336762Y-108357200D02*
X156241524Y-108404819D01*
X156241524Y-108404819D02*
X155955810Y-108404819D01*
X155955810Y-108404819D02*
X155860572Y-108357200D01*
X155860572Y-108357200D02*
X155812953Y-108309580D01*
X122459905Y-78940819D02*
X122459905Y-77940819D01*
X122459905Y-78417009D02*
X123031333Y-78417009D01*
X123031333Y-78940819D02*
X123031333Y-77940819D01*
X124031333Y-78940819D02*
X123459905Y-78940819D01*
X123745619Y-78940819D02*
X123745619Y-77940819D01*
X123745619Y-77940819D02*
X123650381Y-78083676D01*
X123650381Y-78083676D02*
X123555143Y-78178914D01*
X123555143Y-78178914D02*
X123459905Y-78226533D01*
X124364667Y-77940819D02*
X125031333Y-77940819D01*
X125031333Y-77940819D02*
X124602762Y-78940819D01*
X143412819Y-96511000D02*
X142936628Y-96844333D01*
X143412819Y-97082428D02*
X142412819Y-97082428D01*
X142412819Y-97082428D02*
X142412819Y-96701476D01*
X142412819Y-96701476D02*
X142460438Y-96606238D01*
X142460438Y-96606238D02*
X142508057Y-96558619D01*
X142508057Y-96558619D02*
X142603295Y-96511000D01*
X142603295Y-96511000D02*
X142746152Y-96511000D01*
X142746152Y-96511000D02*
X142841390Y-96558619D01*
X142841390Y-96558619D02*
X142889009Y-96606238D01*
X142889009Y-96606238D02*
X142936628Y-96701476D01*
X142936628Y-96701476D02*
X142936628Y-97082428D01*
X142889009Y-95749095D02*
X142889009Y-96082428D01*
X143412819Y-96082428D02*
X142412819Y-96082428D01*
X142412819Y-96082428D02*
X142412819Y-95606238D01*
X143508057Y-95463381D02*
X143508057Y-94701476D01*
X142412819Y-94463380D02*
X143222342Y-94463380D01*
X143222342Y-94463380D02*
X143317580Y-94415761D01*
X143317580Y-94415761D02*
X143365200Y-94368142D01*
X143365200Y-94368142D02*
X143412819Y-94272904D01*
X143412819Y-94272904D02*
X143412819Y-94082428D01*
X143412819Y-94082428D02*
X143365200Y-93987190D01*
X143365200Y-93987190D02*
X143317580Y-93939571D01*
X143317580Y-93939571D02*
X143222342Y-93891952D01*
X143222342Y-93891952D02*
X142412819Y-93891952D01*
X143412819Y-92891952D02*
X143412819Y-93463380D01*
X143412819Y-93177666D02*
X142412819Y-93177666D01*
X142412819Y-93177666D02*
X142555676Y-93272904D01*
X142555676Y-93272904D02*
X142650914Y-93368142D01*
X142650914Y-93368142D02*
X142698533Y-93463380D01*
X165139618Y-101546819D02*
X164806285Y-101070628D01*
X164568190Y-101546819D02*
X164568190Y-100546819D01*
X164568190Y-100546819D02*
X164949142Y-100546819D01*
X164949142Y-100546819D02*
X165044380Y-100594438D01*
X165044380Y-100594438D02*
X165091999Y-100642057D01*
X165091999Y-100642057D02*
X165139618Y-100737295D01*
X165139618Y-100737295D02*
X165139618Y-100880152D01*
X165139618Y-100880152D02*
X165091999Y-100975390D01*
X165091999Y-100975390D02*
X165044380Y-101023009D01*
X165044380Y-101023009D02*
X164949142Y-101070628D01*
X164949142Y-101070628D02*
X164568190Y-101070628D01*
X165901523Y-101023009D02*
X165568190Y-101023009D01*
X165568190Y-101546819D02*
X165568190Y-100546819D01*
X165568190Y-100546819D02*
X166044380Y-100546819D01*
X166187238Y-101642057D02*
X166949142Y-101642057D01*
X167758666Y-101451580D02*
X167711047Y-101499200D01*
X167711047Y-101499200D02*
X167568190Y-101546819D01*
X167568190Y-101546819D02*
X167472952Y-101546819D01*
X167472952Y-101546819D02*
X167330095Y-101499200D01*
X167330095Y-101499200D02*
X167234857Y-101403961D01*
X167234857Y-101403961D02*
X167187238Y-101308723D01*
X167187238Y-101308723D02*
X167139619Y-101118247D01*
X167139619Y-101118247D02*
X167139619Y-100975390D01*
X167139619Y-100975390D02*
X167187238Y-100784914D01*
X167187238Y-100784914D02*
X167234857Y-100689676D01*
X167234857Y-100689676D02*
X167330095Y-100594438D01*
X167330095Y-100594438D02*
X167472952Y-100546819D01*
X167472952Y-100546819D02*
X167568190Y-100546819D01*
X167568190Y-100546819D02*
X167711047Y-100594438D01*
X167711047Y-100594438D02*
X167758666Y-100642057D01*
X168711047Y-101546819D02*
X168139619Y-101546819D01*
X168425333Y-101546819D02*
X168425333Y-100546819D01*
X168425333Y-100546819D02*
X168330095Y-100689676D01*
X168330095Y-100689676D02*
X168234857Y-100784914D01*
X168234857Y-100784914D02*
X168139619Y-100832533D01*
X169092000Y-100642057D02*
X169139619Y-100594438D01*
X169139619Y-100594438D02*
X169234857Y-100546819D01*
X169234857Y-100546819D02*
X169472952Y-100546819D01*
X169472952Y-100546819D02*
X169568190Y-100594438D01*
X169568190Y-100594438D02*
X169615809Y-100642057D01*
X169615809Y-100642057D02*
X169663428Y-100737295D01*
X169663428Y-100737295D02*
X169663428Y-100832533D01*
X169663428Y-100832533D02*
X169615809Y-100975390D01*
X169615809Y-100975390D02*
X169044381Y-101546819D01*
X169044381Y-101546819D02*
X169663428Y-101546819D01*
X139984819Y-94948190D02*
X139508628Y-95281523D01*
X139984819Y-95519618D02*
X138984819Y-95519618D01*
X138984819Y-95519618D02*
X138984819Y-95138666D01*
X138984819Y-95138666D02*
X139032438Y-95043428D01*
X139032438Y-95043428D02*
X139080057Y-94995809D01*
X139080057Y-94995809D02*
X139175295Y-94948190D01*
X139175295Y-94948190D02*
X139318152Y-94948190D01*
X139318152Y-94948190D02*
X139413390Y-94995809D01*
X139413390Y-94995809D02*
X139461009Y-95043428D01*
X139461009Y-95043428D02*
X139508628Y-95138666D01*
X139508628Y-95138666D02*
X139508628Y-95519618D01*
X139461009Y-94186285D02*
X139461009Y-94519618D01*
X139984819Y-94519618D02*
X138984819Y-94519618D01*
X138984819Y-94519618D02*
X138984819Y-94043428D01*
X140080057Y-93900571D02*
X140080057Y-93138666D01*
X139984819Y-92329142D02*
X139508628Y-92662475D01*
X139984819Y-92900570D02*
X138984819Y-92900570D01*
X138984819Y-92900570D02*
X138984819Y-92519618D01*
X138984819Y-92519618D02*
X139032438Y-92424380D01*
X139032438Y-92424380D02*
X139080057Y-92376761D01*
X139080057Y-92376761D02*
X139175295Y-92329142D01*
X139175295Y-92329142D02*
X139318152Y-92329142D01*
X139318152Y-92329142D02*
X139413390Y-92376761D01*
X139413390Y-92376761D02*
X139461009Y-92424380D01*
X139461009Y-92424380D02*
X139508628Y-92519618D01*
X139508628Y-92519618D02*
X139508628Y-92900570D01*
X139080057Y-91948189D02*
X139032438Y-91900570D01*
X139032438Y-91900570D02*
X138984819Y-91805332D01*
X138984819Y-91805332D02*
X138984819Y-91567237D01*
X138984819Y-91567237D02*
X139032438Y-91471999D01*
X139032438Y-91471999D02*
X139080057Y-91424380D01*
X139080057Y-91424380D02*
X139175295Y-91376761D01*
X139175295Y-91376761D02*
X139270533Y-91376761D01*
X139270533Y-91376761D02*
X139413390Y-91424380D01*
X139413390Y-91424380D02*
X139984819Y-91995808D01*
X139984819Y-91995808D02*
X139984819Y-91376761D01*
X141170819Y-70564190D02*
X140694628Y-70897523D01*
X141170819Y-71135618D02*
X140170819Y-71135618D01*
X140170819Y-71135618D02*
X140170819Y-70754666D01*
X140170819Y-70754666D02*
X140218438Y-70659428D01*
X140218438Y-70659428D02*
X140266057Y-70611809D01*
X140266057Y-70611809D02*
X140361295Y-70564190D01*
X140361295Y-70564190D02*
X140504152Y-70564190D01*
X140504152Y-70564190D02*
X140599390Y-70611809D01*
X140599390Y-70611809D02*
X140647009Y-70659428D01*
X140647009Y-70659428D02*
X140694628Y-70754666D01*
X140694628Y-70754666D02*
X140694628Y-71135618D01*
X140647009Y-69802285D02*
X140647009Y-70135618D01*
X141170819Y-70135618D02*
X140170819Y-70135618D01*
X140170819Y-70135618D02*
X140170819Y-69659428D01*
X141266057Y-69516571D02*
X141266057Y-68754666D01*
X141075580Y-67945142D02*
X141123200Y-67992761D01*
X141123200Y-67992761D02*
X141170819Y-68135618D01*
X141170819Y-68135618D02*
X141170819Y-68230856D01*
X141170819Y-68230856D02*
X141123200Y-68373713D01*
X141123200Y-68373713D02*
X141027961Y-68468951D01*
X141027961Y-68468951D02*
X140932723Y-68516570D01*
X140932723Y-68516570D02*
X140742247Y-68564189D01*
X140742247Y-68564189D02*
X140599390Y-68564189D01*
X140599390Y-68564189D02*
X140408914Y-68516570D01*
X140408914Y-68516570D02*
X140313676Y-68468951D01*
X140313676Y-68468951D02*
X140218438Y-68373713D01*
X140218438Y-68373713D02*
X140170819Y-68230856D01*
X140170819Y-68230856D02*
X140170819Y-68135618D01*
X140170819Y-68135618D02*
X140218438Y-67992761D01*
X140218438Y-67992761D02*
X140266057Y-67945142D01*
X141170819Y-66992761D02*
X141170819Y-67564189D01*
X141170819Y-67278475D02*
X140170819Y-67278475D01*
X140170819Y-67278475D02*
X140313676Y-67373713D01*
X140313676Y-67373713D02*
X140408914Y-67468951D01*
X140408914Y-67468951D02*
X140456533Y-67564189D01*
X150669809Y-87830819D02*
X150336476Y-87354628D01*
X150098381Y-87830819D02*
X150098381Y-86830819D01*
X150098381Y-86830819D02*
X150479333Y-86830819D01*
X150479333Y-86830819D02*
X150574571Y-86878438D01*
X150574571Y-86878438D02*
X150622190Y-86926057D01*
X150622190Y-86926057D02*
X150669809Y-87021295D01*
X150669809Y-87021295D02*
X150669809Y-87164152D01*
X150669809Y-87164152D02*
X150622190Y-87259390D01*
X150622190Y-87259390D02*
X150574571Y-87307009D01*
X150574571Y-87307009D02*
X150479333Y-87354628D01*
X150479333Y-87354628D02*
X150098381Y-87354628D01*
X151431714Y-87307009D02*
X151098381Y-87307009D01*
X151098381Y-87830819D02*
X151098381Y-86830819D01*
X151098381Y-86830819D02*
X151574571Y-86830819D01*
X151717429Y-87926057D02*
X152479333Y-87926057D01*
X153288857Y-87735580D02*
X153241238Y-87783200D01*
X153241238Y-87783200D02*
X153098381Y-87830819D01*
X153098381Y-87830819D02*
X153003143Y-87830819D01*
X153003143Y-87830819D02*
X152860286Y-87783200D01*
X152860286Y-87783200D02*
X152765048Y-87687961D01*
X152765048Y-87687961D02*
X152717429Y-87592723D01*
X152717429Y-87592723D02*
X152669810Y-87402247D01*
X152669810Y-87402247D02*
X152669810Y-87259390D01*
X152669810Y-87259390D02*
X152717429Y-87068914D01*
X152717429Y-87068914D02*
X152765048Y-86973676D01*
X152765048Y-86973676D02*
X152860286Y-86878438D01*
X152860286Y-86878438D02*
X153003143Y-86830819D01*
X153003143Y-86830819D02*
X153098381Y-86830819D01*
X153098381Y-86830819D02*
X153241238Y-86878438D01*
X153241238Y-86878438D02*
X153288857Y-86926057D01*
X153622191Y-86830819D02*
X154288857Y-86830819D01*
X154288857Y-86830819D02*
X153860286Y-87830819D01*
X160220819Y-82248190D02*
X159744628Y-82581523D01*
X160220819Y-82819618D02*
X159220819Y-82819618D01*
X159220819Y-82819618D02*
X159220819Y-82438666D01*
X159220819Y-82438666D02*
X159268438Y-82343428D01*
X159268438Y-82343428D02*
X159316057Y-82295809D01*
X159316057Y-82295809D02*
X159411295Y-82248190D01*
X159411295Y-82248190D02*
X159554152Y-82248190D01*
X159554152Y-82248190D02*
X159649390Y-82295809D01*
X159649390Y-82295809D02*
X159697009Y-82343428D01*
X159697009Y-82343428D02*
X159744628Y-82438666D01*
X159744628Y-82438666D02*
X159744628Y-82819618D01*
X159697009Y-81486285D02*
X159697009Y-81819618D01*
X160220819Y-81819618D02*
X159220819Y-81819618D01*
X159220819Y-81819618D02*
X159220819Y-81343428D01*
X160316057Y-81200571D02*
X160316057Y-80438666D01*
X160220819Y-79629142D02*
X159744628Y-79962475D01*
X160220819Y-80200570D02*
X159220819Y-80200570D01*
X159220819Y-80200570D02*
X159220819Y-79819618D01*
X159220819Y-79819618D02*
X159268438Y-79724380D01*
X159268438Y-79724380D02*
X159316057Y-79676761D01*
X159316057Y-79676761D02*
X159411295Y-79629142D01*
X159411295Y-79629142D02*
X159554152Y-79629142D01*
X159554152Y-79629142D02*
X159649390Y-79676761D01*
X159649390Y-79676761D02*
X159697009Y-79724380D01*
X159697009Y-79724380D02*
X159744628Y-79819618D01*
X159744628Y-79819618D02*
X159744628Y-80200570D01*
X160220819Y-79152951D02*
X160220819Y-78962475D01*
X160220819Y-78962475D02*
X160173200Y-78867237D01*
X160173200Y-78867237D02*
X160125580Y-78819618D01*
X160125580Y-78819618D02*
X159982723Y-78724380D01*
X159982723Y-78724380D02*
X159792247Y-78676761D01*
X159792247Y-78676761D02*
X159411295Y-78676761D01*
X159411295Y-78676761D02*
X159316057Y-78724380D01*
X159316057Y-78724380D02*
X159268438Y-78771999D01*
X159268438Y-78771999D02*
X159220819Y-78867237D01*
X159220819Y-78867237D02*
X159220819Y-79057713D01*
X159220819Y-79057713D02*
X159268438Y-79152951D01*
X159268438Y-79152951D02*
X159316057Y-79200570D01*
X159316057Y-79200570D02*
X159411295Y-79248189D01*
X159411295Y-79248189D02*
X159649390Y-79248189D01*
X159649390Y-79248189D02*
X159744628Y-79200570D01*
X159744628Y-79200570D02*
X159792247Y-79152951D01*
X159792247Y-79152951D02*
X159839866Y-79057713D01*
X159839866Y-79057713D02*
X159839866Y-78867237D01*
X159839866Y-78867237D02*
X159792247Y-78771999D01*
X159792247Y-78771999D02*
X159744628Y-78724380D01*
X159744628Y-78724380D02*
X159649390Y-78676761D01*
D11*
X161767762Y-66360318D02*
X161344428Y-65755556D01*
X161042047Y-66360318D02*
X161042047Y-65090318D01*
X161042047Y-65090318D02*
X161525857Y-65090318D01*
X161525857Y-65090318D02*
X161646809Y-65150794D01*
X161646809Y-65150794D02*
X161707286Y-65211270D01*
X161707286Y-65211270D02*
X161767762Y-65332222D01*
X161767762Y-65332222D02*
X161767762Y-65513651D01*
X161767762Y-65513651D02*
X161707286Y-65634603D01*
X161707286Y-65634603D02*
X161646809Y-65695080D01*
X161646809Y-65695080D02*
X161525857Y-65755556D01*
X161525857Y-65755556D02*
X161042047Y-65755556D01*
X162735381Y-65695080D02*
X162312047Y-65695080D01*
X162312047Y-66360318D02*
X162312047Y-65090318D01*
X162312047Y-65090318D02*
X162916809Y-65090318D01*
X163098238Y-66481270D02*
X164065857Y-66481270D01*
X164307761Y-66299842D02*
X164489190Y-66360318D01*
X164489190Y-66360318D02*
X164791571Y-66360318D01*
X164791571Y-66360318D02*
X164912523Y-66299842D01*
X164912523Y-66299842D02*
X164972999Y-66239365D01*
X164972999Y-66239365D02*
X165033476Y-66118413D01*
X165033476Y-66118413D02*
X165033476Y-65997461D01*
X165033476Y-65997461D02*
X164972999Y-65876508D01*
X164972999Y-65876508D02*
X164912523Y-65816032D01*
X164912523Y-65816032D02*
X164791571Y-65755556D01*
X164791571Y-65755556D02*
X164549666Y-65695080D01*
X164549666Y-65695080D02*
X164428714Y-65634603D01*
X164428714Y-65634603D02*
X164368237Y-65574127D01*
X164368237Y-65574127D02*
X164307761Y-65453175D01*
X164307761Y-65453175D02*
X164307761Y-65332222D01*
X164307761Y-65332222D02*
X164368237Y-65211270D01*
X164368237Y-65211270D02*
X164428714Y-65150794D01*
X164428714Y-65150794D02*
X164549666Y-65090318D01*
X164549666Y-65090318D02*
X164852047Y-65090318D01*
X164852047Y-65090318D02*
X165033476Y-65150794D01*
X165456809Y-65090318D02*
X165759190Y-66360318D01*
X165759190Y-66360318D02*
X166001095Y-65453175D01*
X166001095Y-65453175D02*
X166243000Y-66360318D01*
X166243000Y-66360318D02*
X166545381Y-65090318D01*
X167694429Y-66360318D02*
X166968714Y-66360318D01*
X167331571Y-66360318D02*
X167331571Y-65090318D01*
X167331571Y-65090318D02*
X167210619Y-65271746D01*
X167210619Y-65271746D02*
X167089667Y-65392699D01*
X167089667Y-65392699D02*
X166968714Y-65453175D01*
X172024318Y-69287570D02*
X171419556Y-69710904D01*
X172024318Y-70013285D02*
X170754318Y-70013285D01*
X170754318Y-70013285D02*
X170754318Y-69529475D01*
X170754318Y-69529475D02*
X170814794Y-69408523D01*
X170814794Y-69408523D02*
X170875270Y-69348046D01*
X170875270Y-69348046D02*
X170996222Y-69287570D01*
X170996222Y-69287570D02*
X171177651Y-69287570D01*
X171177651Y-69287570D02*
X171298603Y-69348046D01*
X171298603Y-69348046D02*
X171359080Y-69408523D01*
X171359080Y-69408523D02*
X171419556Y-69529475D01*
X171419556Y-69529475D02*
X171419556Y-70013285D01*
X171359080Y-68319951D02*
X171359080Y-68743285D01*
X172024318Y-68743285D02*
X170754318Y-68743285D01*
X170754318Y-68743285D02*
X170754318Y-68138523D01*
X172145270Y-67957095D02*
X172145270Y-66989475D01*
X170754318Y-66324237D02*
X171661461Y-66324237D01*
X171661461Y-66324237D02*
X171842889Y-66384714D01*
X171842889Y-66384714D02*
X171963842Y-66505666D01*
X171963842Y-66505666D02*
X172024318Y-66687095D01*
X172024318Y-66687095D02*
X172024318Y-66808047D01*
X172024318Y-65054237D02*
X172024318Y-65779952D01*
X172024318Y-65417095D02*
X170754318Y-65417095D01*
X170754318Y-65417095D02*
X170935746Y-65538047D01*
X170935746Y-65538047D02*
X171056699Y-65658999D01*
X171056699Y-65658999D02*
X171117175Y-65779952D01*
D10*
X122459905Y-104848819D02*
X122459905Y-103848819D01*
X122459905Y-104325009D02*
X123031333Y-104325009D01*
X123031333Y-104848819D02*
X123031333Y-103848819D01*
X124031333Y-104848819D02*
X123459905Y-104848819D01*
X123745619Y-104848819D02*
X123745619Y-103848819D01*
X123745619Y-103848819D02*
X123650381Y-103991676D01*
X123650381Y-103991676D02*
X123555143Y-104086914D01*
X123555143Y-104086914D02*
X123459905Y-104134533D01*
X124888476Y-103848819D02*
X124698000Y-103848819D01*
X124698000Y-103848819D02*
X124602762Y-103896438D01*
X124602762Y-103896438D02*
X124555143Y-103944057D01*
X124555143Y-103944057D02*
X124459905Y-104086914D01*
X124459905Y-104086914D02*
X124412286Y-104277390D01*
X124412286Y-104277390D02*
X124412286Y-104658342D01*
X124412286Y-104658342D02*
X124459905Y-104753580D01*
X124459905Y-104753580D02*
X124507524Y-104801200D01*
X124507524Y-104801200D02*
X124602762Y-104848819D01*
X124602762Y-104848819D02*
X124793238Y-104848819D01*
X124793238Y-104848819D02*
X124888476Y-104801200D01*
X124888476Y-104801200D02*
X124936095Y-104753580D01*
X124936095Y-104753580D02*
X124983714Y-104658342D01*
X124983714Y-104658342D02*
X124983714Y-104420247D01*
X124983714Y-104420247D02*
X124936095Y-104325009D01*
X124936095Y-104325009D02*
X124888476Y-104277390D01*
X124888476Y-104277390D02*
X124793238Y-104229771D01*
X124793238Y-104229771D02*
X124602762Y-104229771D01*
X124602762Y-104229771D02*
X124507524Y-104277390D01*
X124507524Y-104277390D02*
X124459905Y-104325009D01*
X124459905Y-104325009D02*
X124412286Y-104420247D01*
X180463809Y-106118819D02*
X180130476Y-105642628D01*
X179892381Y-106118819D02*
X179892381Y-105118819D01*
X179892381Y-105118819D02*
X180273333Y-105118819D01*
X180273333Y-105118819D02*
X180368571Y-105166438D01*
X180368571Y-105166438D02*
X180416190Y-105214057D01*
X180416190Y-105214057D02*
X180463809Y-105309295D01*
X180463809Y-105309295D02*
X180463809Y-105452152D01*
X180463809Y-105452152D02*
X180416190Y-105547390D01*
X180416190Y-105547390D02*
X180368571Y-105595009D01*
X180368571Y-105595009D02*
X180273333Y-105642628D01*
X180273333Y-105642628D02*
X179892381Y-105642628D01*
X181225714Y-105595009D02*
X180892381Y-105595009D01*
X180892381Y-106118819D02*
X180892381Y-105118819D01*
X180892381Y-105118819D02*
X181368571Y-105118819D01*
X181511429Y-106214057D02*
X182273333Y-106214057D01*
X183082857Y-106118819D02*
X182749524Y-105642628D01*
X182511429Y-106118819D02*
X182511429Y-105118819D01*
X182511429Y-105118819D02*
X182892381Y-105118819D01*
X182892381Y-105118819D02*
X182987619Y-105166438D01*
X182987619Y-105166438D02*
X183035238Y-105214057D01*
X183035238Y-105214057D02*
X183082857Y-105309295D01*
X183082857Y-105309295D02*
X183082857Y-105452152D01*
X183082857Y-105452152D02*
X183035238Y-105547390D01*
X183035238Y-105547390D02*
X182987619Y-105595009D01*
X182987619Y-105595009D02*
X182892381Y-105642628D01*
X182892381Y-105642628D02*
X182511429Y-105642628D01*
X183987619Y-105118819D02*
X183511429Y-105118819D01*
X183511429Y-105118819D02*
X183463810Y-105595009D01*
X183463810Y-105595009D02*
X183511429Y-105547390D01*
X183511429Y-105547390D02*
X183606667Y-105499771D01*
X183606667Y-105499771D02*
X183844762Y-105499771D01*
X183844762Y-105499771D02*
X183940000Y-105547390D01*
X183940000Y-105547390D02*
X183987619Y-105595009D01*
X183987619Y-105595009D02*
X184035238Y-105690247D01*
X184035238Y-105690247D02*
X184035238Y-105928342D01*
X184035238Y-105928342D02*
X183987619Y-106023580D01*
X183987619Y-106023580D02*
X183940000Y-106071200D01*
X183940000Y-106071200D02*
X183844762Y-106118819D01*
X183844762Y-106118819D02*
X183606667Y-106118819D01*
X183606667Y-106118819D02*
X183511429Y-106071200D01*
X183511429Y-106071200D02*
X183463810Y-106023580D01*
X165909809Y-103324819D02*
X165576476Y-102848628D01*
X165338381Y-103324819D02*
X165338381Y-102324819D01*
X165338381Y-102324819D02*
X165719333Y-102324819D01*
X165719333Y-102324819D02*
X165814571Y-102372438D01*
X165814571Y-102372438D02*
X165862190Y-102420057D01*
X165862190Y-102420057D02*
X165909809Y-102515295D01*
X165909809Y-102515295D02*
X165909809Y-102658152D01*
X165909809Y-102658152D02*
X165862190Y-102753390D01*
X165862190Y-102753390D02*
X165814571Y-102801009D01*
X165814571Y-102801009D02*
X165719333Y-102848628D01*
X165719333Y-102848628D02*
X165338381Y-102848628D01*
X166671714Y-102801009D02*
X166338381Y-102801009D01*
X166338381Y-103324819D02*
X166338381Y-102324819D01*
X166338381Y-102324819D02*
X166814571Y-102324819D01*
X166957429Y-103420057D02*
X167719333Y-103420057D01*
X168528857Y-103229580D02*
X168481238Y-103277200D01*
X168481238Y-103277200D02*
X168338381Y-103324819D01*
X168338381Y-103324819D02*
X168243143Y-103324819D01*
X168243143Y-103324819D02*
X168100286Y-103277200D01*
X168100286Y-103277200D02*
X168005048Y-103181961D01*
X168005048Y-103181961D02*
X167957429Y-103086723D01*
X167957429Y-103086723D02*
X167909810Y-102896247D01*
X167909810Y-102896247D02*
X167909810Y-102753390D01*
X167909810Y-102753390D02*
X167957429Y-102562914D01*
X167957429Y-102562914D02*
X168005048Y-102467676D01*
X168005048Y-102467676D02*
X168100286Y-102372438D01*
X168100286Y-102372438D02*
X168243143Y-102324819D01*
X168243143Y-102324819D02*
X168338381Y-102324819D01*
X168338381Y-102324819D02*
X168481238Y-102372438D01*
X168481238Y-102372438D02*
X168528857Y-102420057D01*
X169386000Y-102324819D02*
X169195524Y-102324819D01*
X169195524Y-102324819D02*
X169100286Y-102372438D01*
X169100286Y-102372438D02*
X169052667Y-102420057D01*
X169052667Y-102420057D02*
X168957429Y-102562914D01*
X168957429Y-102562914D02*
X168909810Y-102753390D01*
X168909810Y-102753390D02*
X168909810Y-103134342D01*
X168909810Y-103134342D02*
X168957429Y-103229580D01*
X168957429Y-103229580D02*
X169005048Y-103277200D01*
X169005048Y-103277200D02*
X169100286Y-103324819D01*
X169100286Y-103324819D02*
X169290762Y-103324819D01*
X169290762Y-103324819D02*
X169386000Y-103277200D01*
X169386000Y-103277200D02*
X169433619Y-103229580D01*
X169433619Y-103229580D02*
X169481238Y-103134342D01*
X169481238Y-103134342D02*
X169481238Y-102896247D01*
X169481238Y-102896247D02*
X169433619Y-102801009D01*
X169433619Y-102801009D02*
X169386000Y-102753390D01*
X169386000Y-102753390D02*
X169290762Y-102705771D01*
X169290762Y-102705771D02*
X169100286Y-102705771D01*
X169100286Y-102705771D02*
X169005048Y-102753390D01*
X169005048Y-102753390D02*
X168957429Y-102801009D01*
X168957429Y-102801009D02*
X168909810Y-102896247D01*
X169561047Y-89354819D02*
X169227714Y-88878628D01*
X168989619Y-89354819D02*
X168989619Y-88354819D01*
X168989619Y-88354819D02*
X169370571Y-88354819D01*
X169370571Y-88354819D02*
X169465809Y-88402438D01*
X169465809Y-88402438D02*
X169513428Y-88450057D01*
X169513428Y-88450057D02*
X169561047Y-88545295D01*
X169561047Y-88545295D02*
X169561047Y-88688152D01*
X169561047Y-88688152D02*
X169513428Y-88783390D01*
X169513428Y-88783390D02*
X169465809Y-88831009D01*
X169465809Y-88831009D02*
X169370571Y-88878628D01*
X169370571Y-88878628D02*
X168989619Y-88878628D01*
X170322952Y-88831009D02*
X169989619Y-88831009D01*
X169989619Y-89354819D02*
X169989619Y-88354819D01*
X169989619Y-88354819D02*
X170465809Y-88354819D01*
X170608667Y-89450057D02*
X171370571Y-89450057D01*
X172084857Y-89354819D02*
X171608667Y-89354819D01*
X171608667Y-89354819D02*
X171608667Y-88354819D01*
X172370572Y-88450057D02*
X172418191Y-88402438D01*
X172418191Y-88402438D02*
X172513429Y-88354819D01*
X172513429Y-88354819D02*
X172751524Y-88354819D01*
X172751524Y-88354819D02*
X172846762Y-88402438D01*
X172846762Y-88402438D02*
X172894381Y-88450057D01*
X172894381Y-88450057D02*
X172942000Y-88545295D01*
X172942000Y-88545295D02*
X172942000Y-88640533D01*
X172942000Y-88640533D02*
X172894381Y-88783390D01*
X172894381Y-88783390D02*
X172322953Y-89354819D01*
X172322953Y-89354819D02*
X172942000Y-89354819D01*
X166203809Y-72336819D02*
X165870476Y-71860628D01*
X165632381Y-72336819D02*
X165632381Y-71336819D01*
X165632381Y-71336819D02*
X166013333Y-71336819D01*
X166013333Y-71336819D02*
X166108571Y-71384438D01*
X166108571Y-71384438D02*
X166156190Y-71432057D01*
X166156190Y-71432057D02*
X166203809Y-71527295D01*
X166203809Y-71527295D02*
X166203809Y-71670152D01*
X166203809Y-71670152D02*
X166156190Y-71765390D01*
X166156190Y-71765390D02*
X166108571Y-71813009D01*
X166108571Y-71813009D02*
X166013333Y-71860628D01*
X166013333Y-71860628D02*
X165632381Y-71860628D01*
X166965714Y-71813009D02*
X166632381Y-71813009D01*
X166632381Y-72336819D02*
X166632381Y-71336819D01*
X166632381Y-71336819D02*
X167108571Y-71336819D01*
X167251429Y-72432057D02*
X168013333Y-72432057D01*
X168822857Y-72241580D02*
X168775238Y-72289200D01*
X168775238Y-72289200D02*
X168632381Y-72336819D01*
X168632381Y-72336819D02*
X168537143Y-72336819D01*
X168537143Y-72336819D02*
X168394286Y-72289200D01*
X168394286Y-72289200D02*
X168299048Y-72193961D01*
X168299048Y-72193961D02*
X168251429Y-72098723D01*
X168251429Y-72098723D02*
X168203810Y-71908247D01*
X168203810Y-71908247D02*
X168203810Y-71765390D01*
X168203810Y-71765390D02*
X168251429Y-71574914D01*
X168251429Y-71574914D02*
X168299048Y-71479676D01*
X168299048Y-71479676D02*
X168394286Y-71384438D01*
X168394286Y-71384438D02*
X168537143Y-71336819D01*
X168537143Y-71336819D02*
X168632381Y-71336819D01*
X168632381Y-71336819D02*
X168775238Y-71384438D01*
X168775238Y-71384438D02*
X168822857Y-71432057D01*
X169394286Y-71765390D02*
X169299048Y-71717771D01*
X169299048Y-71717771D02*
X169251429Y-71670152D01*
X169251429Y-71670152D02*
X169203810Y-71574914D01*
X169203810Y-71574914D02*
X169203810Y-71527295D01*
X169203810Y-71527295D02*
X169251429Y-71432057D01*
X169251429Y-71432057D02*
X169299048Y-71384438D01*
X169299048Y-71384438D02*
X169394286Y-71336819D01*
X169394286Y-71336819D02*
X169584762Y-71336819D01*
X169584762Y-71336819D02*
X169680000Y-71384438D01*
X169680000Y-71384438D02*
X169727619Y-71432057D01*
X169727619Y-71432057D02*
X169775238Y-71527295D01*
X169775238Y-71527295D02*
X169775238Y-71574914D01*
X169775238Y-71574914D02*
X169727619Y-71670152D01*
X169727619Y-71670152D02*
X169680000Y-71717771D01*
X169680000Y-71717771D02*
X169584762Y-71765390D01*
X169584762Y-71765390D02*
X169394286Y-71765390D01*
X169394286Y-71765390D02*
X169299048Y-71813009D01*
X169299048Y-71813009D02*
X169251429Y-71860628D01*
X169251429Y-71860628D02*
X169203810Y-71955866D01*
X169203810Y-71955866D02*
X169203810Y-72146342D01*
X169203810Y-72146342D02*
X169251429Y-72241580D01*
X169251429Y-72241580D02*
X169299048Y-72289200D01*
X169299048Y-72289200D02*
X169394286Y-72336819D01*
X169394286Y-72336819D02*
X169584762Y-72336819D01*
X169584762Y-72336819D02*
X169680000Y-72289200D01*
X169680000Y-72289200D02*
X169727619Y-72241580D01*
X169727619Y-72241580D02*
X169775238Y-72146342D01*
X169775238Y-72146342D02*
X169775238Y-71955866D01*
X169775238Y-71955866D02*
X169727619Y-71860628D01*
X169727619Y-71860628D02*
X169680000Y-71813009D01*
X169680000Y-71813009D02*
X169584762Y-71765390D01*
X150669809Y-89354819D02*
X150336476Y-88878628D01*
X150098381Y-89354819D02*
X150098381Y-88354819D01*
X150098381Y-88354819D02*
X150479333Y-88354819D01*
X150479333Y-88354819D02*
X150574571Y-88402438D01*
X150574571Y-88402438D02*
X150622190Y-88450057D01*
X150622190Y-88450057D02*
X150669809Y-88545295D01*
X150669809Y-88545295D02*
X150669809Y-88688152D01*
X150669809Y-88688152D02*
X150622190Y-88783390D01*
X150622190Y-88783390D02*
X150574571Y-88831009D01*
X150574571Y-88831009D02*
X150479333Y-88878628D01*
X150479333Y-88878628D02*
X150098381Y-88878628D01*
X151431714Y-88831009D02*
X151098381Y-88831009D01*
X151098381Y-89354819D02*
X151098381Y-88354819D01*
X151098381Y-88354819D02*
X151574571Y-88354819D01*
X151717429Y-89450057D02*
X152479333Y-89450057D01*
X153288857Y-89259580D02*
X153241238Y-89307200D01*
X153241238Y-89307200D02*
X153098381Y-89354819D01*
X153098381Y-89354819D02*
X153003143Y-89354819D01*
X153003143Y-89354819D02*
X152860286Y-89307200D01*
X152860286Y-89307200D02*
X152765048Y-89211961D01*
X152765048Y-89211961D02*
X152717429Y-89116723D01*
X152717429Y-89116723D02*
X152669810Y-88926247D01*
X152669810Y-88926247D02*
X152669810Y-88783390D01*
X152669810Y-88783390D02*
X152717429Y-88592914D01*
X152717429Y-88592914D02*
X152765048Y-88497676D01*
X152765048Y-88497676D02*
X152860286Y-88402438D01*
X152860286Y-88402438D02*
X153003143Y-88354819D01*
X153003143Y-88354819D02*
X153098381Y-88354819D01*
X153098381Y-88354819D02*
X153241238Y-88402438D01*
X153241238Y-88402438D02*
X153288857Y-88450057D01*
X154193619Y-88354819D02*
X153717429Y-88354819D01*
X153717429Y-88354819D02*
X153669810Y-88831009D01*
X153669810Y-88831009D02*
X153717429Y-88783390D01*
X153717429Y-88783390D02*
X153812667Y-88735771D01*
X153812667Y-88735771D02*
X154050762Y-88735771D01*
X154050762Y-88735771D02*
X154146000Y-88783390D01*
X154146000Y-88783390D02*
X154193619Y-88831009D01*
X154193619Y-88831009D02*
X154241238Y-88926247D01*
X154241238Y-88926247D02*
X154241238Y-89164342D01*
X154241238Y-89164342D02*
X154193619Y-89259580D01*
X154193619Y-89259580D02*
X154146000Y-89307200D01*
X154146000Y-89307200D02*
X154050762Y-89354819D01*
X154050762Y-89354819D02*
X153812667Y-89354819D01*
X153812667Y-89354819D02*
X153717429Y-89307200D01*
X153717429Y-89307200D02*
X153669810Y-89259580D01*
X131176819Y-100536190D02*
X130700628Y-100869523D01*
X131176819Y-101107618D02*
X130176819Y-101107618D01*
X130176819Y-101107618D02*
X130176819Y-100726666D01*
X130176819Y-100726666D02*
X130224438Y-100631428D01*
X130224438Y-100631428D02*
X130272057Y-100583809D01*
X130272057Y-100583809D02*
X130367295Y-100536190D01*
X130367295Y-100536190D02*
X130510152Y-100536190D01*
X130510152Y-100536190D02*
X130605390Y-100583809D01*
X130605390Y-100583809D02*
X130653009Y-100631428D01*
X130653009Y-100631428D02*
X130700628Y-100726666D01*
X130700628Y-100726666D02*
X130700628Y-101107618D01*
X130653009Y-99774285D02*
X130653009Y-100107618D01*
X131176819Y-100107618D02*
X130176819Y-100107618D01*
X130176819Y-100107618D02*
X130176819Y-99631428D01*
X131272057Y-99488571D02*
X131272057Y-98726666D01*
X131176819Y-98488570D02*
X130176819Y-98488570D01*
X130176819Y-98488570D02*
X130176819Y-98250475D01*
X130176819Y-98250475D02*
X130224438Y-98107618D01*
X130224438Y-98107618D02*
X130319676Y-98012380D01*
X130319676Y-98012380D02*
X130414914Y-97964761D01*
X130414914Y-97964761D02*
X130605390Y-97917142D01*
X130605390Y-97917142D02*
X130748247Y-97917142D01*
X130748247Y-97917142D02*
X130938723Y-97964761D01*
X130938723Y-97964761D02*
X131033961Y-98012380D01*
X131033961Y-98012380D02*
X131129200Y-98107618D01*
X131129200Y-98107618D02*
X131176819Y-98250475D01*
X131176819Y-98250475D02*
X131176819Y-98488570D01*
X131176819Y-96964761D02*
X131176819Y-97536189D01*
X131176819Y-97250475D02*
X130176819Y-97250475D01*
X130176819Y-97250475D02*
X130319676Y-97345713D01*
X130319676Y-97345713D02*
X130414914Y-97440951D01*
X130414914Y-97440951D02*
X130462533Y-97536189D01*
X131496819Y-104401904D02*
X130496819Y-104401904D01*
X131496819Y-103830476D02*
X130925390Y-104259047D01*
X130496819Y-103830476D02*
X131068247Y-104401904D01*
X185112819Y-84248381D02*
X184636628Y-84581714D01*
X185112819Y-84819809D02*
X184112819Y-84819809D01*
X184112819Y-84819809D02*
X184112819Y-84438857D01*
X184112819Y-84438857D02*
X184160438Y-84343619D01*
X184160438Y-84343619D02*
X184208057Y-84296000D01*
X184208057Y-84296000D02*
X184303295Y-84248381D01*
X184303295Y-84248381D02*
X184446152Y-84248381D01*
X184446152Y-84248381D02*
X184541390Y-84296000D01*
X184541390Y-84296000D02*
X184589009Y-84343619D01*
X184589009Y-84343619D02*
X184636628Y-84438857D01*
X184636628Y-84438857D02*
X184636628Y-84819809D01*
X184589009Y-83486476D02*
X184589009Y-83819809D01*
X185112819Y-83819809D02*
X184112819Y-83819809D01*
X184112819Y-83819809D02*
X184112819Y-83343619D01*
X185208057Y-83200762D02*
X185208057Y-82438857D01*
X185017580Y-81629333D02*
X185065200Y-81676952D01*
X185065200Y-81676952D02*
X185112819Y-81819809D01*
X185112819Y-81819809D02*
X185112819Y-81915047D01*
X185112819Y-81915047D02*
X185065200Y-82057904D01*
X185065200Y-82057904D02*
X184969961Y-82153142D01*
X184969961Y-82153142D02*
X184874723Y-82200761D01*
X184874723Y-82200761D02*
X184684247Y-82248380D01*
X184684247Y-82248380D02*
X184541390Y-82248380D01*
X184541390Y-82248380D02*
X184350914Y-82200761D01*
X184350914Y-82200761D02*
X184255676Y-82153142D01*
X184255676Y-82153142D02*
X184160438Y-82057904D01*
X184160438Y-82057904D02*
X184112819Y-81915047D01*
X184112819Y-81915047D02*
X184112819Y-81819809D01*
X184112819Y-81819809D02*
X184160438Y-81676952D01*
X184160438Y-81676952D02*
X184208057Y-81629333D01*
X185112819Y-80676952D02*
X185112819Y-81248380D01*
X185112819Y-80962666D02*
X184112819Y-80962666D01*
X184112819Y-80962666D02*
X184255676Y-81057904D01*
X184255676Y-81057904D02*
X184350914Y-81153142D01*
X184350914Y-81153142D02*
X184398533Y-81248380D01*
X185112819Y-79724571D02*
X185112819Y-80295999D01*
X185112819Y-80010285D02*
X184112819Y-80010285D01*
X184112819Y-80010285D02*
X184255676Y-80105523D01*
X184255676Y-80105523D02*
X184350914Y-80200761D01*
X184350914Y-80200761D02*
X184398533Y-80295999D01*
X134667809Y-106626819D02*
X134334476Y-106150628D01*
X134096381Y-106626819D02*
X134096381Y-105626819D01*
X134096381Y-105626819D02*
X134477333Y-105626819D01*
X134477333Y-105626819D02*
X134572571Y-105674438D01*
X134572571Y-105674438D02*
X134620190Y-105722057D01*
X134620190Y-105722057D02*
X134667809Y-105817295D01*
X134667809Y-105817295D02*
X134667809Y-105960152D01*
X134667809Y-105960152D02*
X134620190Y-106055390D01*
X134620190Y-106055390D02*
X134572571Y-106103009D01*
X134572571Y-106103009D02*
X134477333Y-106150628D01*
X134477333Y-106150628D02*
X134096381Y-106150628D01*
X135429714Y-106103009D02*
X135096381Y-106103009D01*
X135096381Y-106626819D02*
X135096381Y-105626819D01*
X135096381Y-105626819D02*
X135572571Y-105626819D01*
X135715429Y-106722057D02*
X136477333Y-106722057D01*
X137286857Y-106531580D02*
X137239238Y-106579200D01*
X137239238Y-106579200D02*
X137096381Y-106626819D01*
X137096381Y-106626819D02*
X137001143Y-106626819D01*
X137001143Y-106626819D02*
X136858286Y-106579200D01*
X136858286Y-106579200D02*
X136763048Y-106483961D01*
X136763048Y-106483961D02*
X136715429Y-106388723D01*
X136715429Y-106388723D02*
X136667810Y-106198247D01*
X136667810Y-106198247D02*
X136667810Y-106055390D01*
X136667810Y-106055390D02*
X136715429Y-105864914D01*
X136715429Y-105864914D02*
X136763048Y-105769676D01*
X136763048Y-105769676D02*
X136858286Y-105674438D01*
X136858286Y-105674438D02*
X137001143Y-105626819D01*
X137001143Y-105626819D02*
X137096381Y-105626819D01*
X137096381Y-105626819D02*
X137239238Y-105674438D01*
X137239238Y-105674438D02*
X137286857Y-105722057D01*
X138144000Y-105960152D02*
X138144000Y-106626819D01*
X137905905Y-105579200D02*
X137667810Y-106293485D01*
X137667810Y-106293485D02*
X138286857Y-106293485D01*
X152987618Y-83258819D02*
X152654285Y-82782628D01*
X152416190Y-83258819D02*
X152416190Y-82258819D01*
X152416190Y-82258819D02*
X152797142Y-82258819D01*
X152797142Y-82258819D02*
X152892380Y-82306438D01*
X152892380Y-82306438D02*
X152939999Y-82354057D01*
X152939999Y-82354057D02*
X152987618Y-82449295D01*
X152987618Y-82449295D02*
X152987618Y-82592152D01*
X152987618Y-82592152D02*
X152939999Y-82687390D01*
X152939999Y-82687390D02*
X152892380Y-82735009D01*
X152892380Y-82735009D02*
X152797142Y-82782628D01*
X152797142Y-82782628D02*
X152416190Y-82782628D01*
X153749523Y-82735009D02*
X153416190Y-82735009D01*
X153416190Y-83258819D02*
X153416190Y-82258819D01*
X153416190Y-82258819D02*
X153892380Y-82258819D01*
X154035238Y-83354057D02*
X154797142Y-83354057D01*
X155606666Y-83258819D02*
X155273333Y-82782628D01*
X155035238Y-83258819D02*
X155035238Y-82258819D01*
X155035238Y-82258819D02*
X155416190Y-82258819D01*
X155416190Y-82258819D02*
X155511428Y-82306438D01*
X155511428Y-82306438D02*
X155559047Y-82354057D01*
X155559047Y-82354057D02*
X155606666Y-82449295D01*
X155606666Y-82449295D02*
X155606666Y-82592152D01*
X155606666Y-82592152D02*
X155559047Y-82687390D01*
X155559047Y-82687390D02*
X155511428Y-82735009D01*
X155511428Y-82735009D02*
X155416190Y-82782628D01*
X155416190Y-82782628D02*
X155035238Y-82782628D01*
X156559047Y-83258819D02*
X155987619Y-83258819D01*
X156273333Y-83258819D02*
X156273333Y-82258819D01*
X156273333Y-82258819D02*
X156178095Y-82401676D01*
X156178095Y-82401676D02*
X156082857Y-82496914D01*
X156082857Y-82496914D02*
X155987619Y-82544533D01*
X157511428Y-83258819D02*
X156940000Y-83258819D01*
X157225714Y-83258819D02*
X157225714Y-82258819D01*
X157225714Y-82258819D02*
X157130476Y-82401676D01*
X157130476Y-82401676D02*
X157035238Y-82496914D01*
X157035238Y-82496914D02*
X156940000Y-82544533D01*
X168195809Y-78178819D02*
X167862476Y-77702628D01*
X167624381Y-78178819D02*
X167624381Y-77178819D01*
X167624381Y-77178819D02*
X168005333Y-77178819D01*
X168005333Y-77178819D02*
X168100571Y-77226438D01*
X168100571Y-77226438D02*
X168148190Y-77274057D01*
X168148190Y-77274057D02*
X168195809Y-77369295D01*
X168195809Y-77369295D02*
X168195809Y-77512152D01*
X168195809Y-77512152D02*
X168148190Y-77607390D01*
X168148190Y-77607390D02*
X168100571Y-77655009D01*
X168100571Y-77655009D02*
X168005333Y-77702628D01*
X168005333Y-77702628D02*
X167624381Y-77702628D01*
X168957714Y-77655009D02*
X168624381Y-77655009D01*
X168624381Y-78178819D02*
X168624381Y-77178819D01*
X168624381Y-77178819D02*
X169100571Y-77178819D01*
X169243429Y-78274057D02*
X170005333Y-78274057D01*
X170814857Y-78178819D02*
X170481524Y-77702628D01*
X170243429Y-78178819D02*
X170243429Y-77178819D01*
X170243429Y-77178819D02*
X170624381Y-77178819D01*
X170624381Y-77178819D02*
X170719619Y-77226438D01*
X170719619Y-77226438D02*
X170767238Y-77274057D01*
X170767238Y-77274057D02*
X170814857Y-77369295D01*
X170814857Y-77369295D02*
X170814857Y-77512152D01*
X170814857Y-77512152D02*
X170767238Y-77607390D01*
X170767238Y-77607390D02*
X170719619Y-77655009D01*
X170719619Y-77655009D02*
X170624381Y-77702628D01*
X170624381Y-77702628D02*
X170243429Y-77702628D01*
X171148191Y-77178819D02*
X171814857Y-77178819D01*
X171814857Y-77178819D02*
X171386286Y-78178819D01*
X163776819Y-86820190D02*
X163300628Y-87153523D01*
X163776819Y-87391618D02*
X162776819Y-87391618D01*
X162776819Y-87391618D02*
X162776819Y-87010666D01*
X162776819Y-87010666D02*
X162824438Y-86915428D01*
X162824438Y-86915428D02*
X162872057Y-86867809D01*
X162872057Y-86867809D02*
X162967295Y-86820190D01*
X162967295Y-86820190D02*
X163110152Y-86820190D01*
X163110152Y-86820190D02*
X163205390Y-86867809D01*
X163205390Y-86867809D02*
X163253009Y-86915428D01*
X163253009Y-86915428D02*
X163300628Y-87010666D01*
X163300628Y-87010666D02*
X163300628Y-87391618D01*
X163253009Y-86058285D02*
X163253009Y-86391618D01*
X163776819Y-86391618D02*
X162776819Y-86391618D01*
X162776819Y-86391618D02*
X162776819Y-85915428D01*
X163872057Y-85772571D02*
X163872057Y-85010666D01*
X163776819Y-84201142D02*
X163300628Y-84534475D01*
X163776819Y-84772570D02*
X162776819Y-84772570D01*
X162776819Y-84772570D02*
X162776819Y-84391618D01*
X162776819Y-84391618D02*
X162824438Y-84296380D01*
X162824438Y-84296380D02*
X162872057Y-84248761D01*
X162872057Y-84248761D02*
X162967295Y-84201142D01*
X162967295Y-84201142D02*
X163110152Y-84201142D01*
X163110152Y-84201142D02*
X163205390Y-84248761D01*
X163205390Y-84248761D02*
X163253009Y-84296380D01*
X163253009Y-84296380D02*
X163300628Y-84391618D01*
X163300628Y-84391618D02*
X163300628Y-84772570D01*
X163205390Y-83629713D02*
X163157771Y-83724951D01*
X163157771Y-83724951D02*
X163110152Y-83772570D01*
X163110152Y-83772570D02*
X163014914Y-83820189D01*
X163014914Y-83820189D02*
X162967295Y-83820189D01*
X162967295Y-83820189D02*
X162872057Y-83772570D01*
X162872057Y-83772570D02*
X162824438Y-83724951D01*
X162824438Y-83724951D02*
X162776819Y-83629713D01*
X162776819Y-83629713D02*
X162776819Y-83439237D01*
X162776819Y-83439237D02*
X162824438Y-83343999D01*
X162824438Y-83343999D02*
X162872057Y-83296380D01*
X162872057Y-83296380D02*
X162967295Y-83248761D01*
X162967295Y-83248761D02*
X163014914Y-83248761D01*
X163014914Y-83248761D02*
X163110152Y-83296380D01*
X163110152Y-83296380D02*
X163157771Y-83343999D01*
X163157771Y-83343999D02*
X163205390Y-83439237D01*
X163205390Y-83439237D02*
X163205390Y-83629713D01*
X163205390Y-83629713D02*
X163253009Y-83724951D01*
X163253009Y-83724951D02*
X163300628Y-83772570D01*
X163300628Y-83772570D02*
X163395866Y-83820189D01*
X163395866Y-83820189D02*
X163586342Y-83820189D01*
X163586342Y-83820189D02*
X163681580Y-83772570D01*
X163681580Y-83772570D02*
X163729200Y-83724951D01*
X163729200Y-83724951D02*
X163776819Y-83629713D01*
X163776819Y-83629713D02*
X163776819Y-83439237D01*
X163776819Y-83439237D02*
X163729200Y-83343999D01*
X163729200Y-83343999D02*
X163681580Y-83296380D01*
X163681580Y-83296380D02*
X163586342Y-83248761D01*
X163586342Y-83248761D02*
X163395866Y-83248761D01*
X163395866Y-83248761D02*
X163300628Y-83296380D01*
X163300628Y-83296380D02*
X163253009Y-83343999D01*
X163253009Y-83343999D02*
X163205390Y-83439237D01*
X121782819Y-86058190D02*
X121306628Y-86391523D01*
X121782819Y-86629618D02*
X120782819Y-86629618D01*
X120782819Y-86629618D02*
X120782819Y-86248666D01*
X120782819Y-86248666D02*
X120830438Y-86153428D01*
X120830438Y-86153428D02*
X120878057Y-86105809D01*
X120878057Y-86105809D02*
X120973295Y-86058190D01*
X120973295Y-86058190D02*
X121116152Y-86058190D01*
X121116152Y-86058190D02*
X121211390Y-86105809D01*
X121211390Y-86105809D02*
X121259009Y-86153428D01*
X121259009Y-86153428D02*
X121306628Y-86248666D01*
X121306628Y-86248666D02*
X121306628Y-86629618D01*
X121259009Y-85296285D02*
X121259009Y-85629618D01*
X121782819Y-85629618D02*
X120782819Y-85629618D01*
X120782819Y-85629618D02*
X120782819Y-85153428D01*
X121878057Y-85010571D02*
X121878057Y-84248666D01*
X121782819Y-83439142D02*
X121306628Y-83772475D01*
X121782819Y-84010570D02*
X120782819Y-84010570D01*
X120782819Y-84010570D02*
X120782819Y-83629618D01*
X120782819Y-83629618D02*
X120830438Y-83534380D01*
X120830438Y-83534380D02*
X120878057Y-83486761D01*
X120878057Y-83486761D02*
X120973295Y-83439142D01*
X120973295Y-83439142D02*
X121116152Y-83439142D01*
X121116152Y-83439142D02*
X121211390Y-83486761D01*
X121211390Y-83486761D02*
X121259009Y-83534380D01*
X121259009Y-83534380D02*
X121306628Y-83629618D01*
X121306628Y-83629618D02*
X121306628Y-84010570D01*
X121782819Y-82486761D02*
X121782819Y-83058189D01*
X121782819Y-82772475D02*
X120782819Y-82772475D01*
X120782819Y-82772475D02*
X120925676Y-82867713D01*
X120925676Y-82867713D02*
X121020914Y-82962951D01*
X121020914Y-82962951D02*
X121068533Y-83058189D01*
X182261047Y-92148819D02*
X181927714Y-91672628D01*
X181689619Y-92148819D02*
X181689619Y-91148819D01*
X181689619Y-91148819D02*
X182070571Y-91148819D01*
X182070571Y-91148819D02*
X182165809Y-91196438D01*
X182165809Y-91196438D02*
X182213428Y-91244057D01*
X182213428Y-91244057D02*
X182261047Y-91339295D01*
X182261047Y-91339295D02*
X182261047Y-91482152D01*
X182261047Y-91482152D02*
X182213428Y-91577390D01*
X182213428Y-91577390D02*
X182165809Y-91625009D01*
X182165809Y-91625009D02*
X182070571Y-91672628D01*
X182070571Y-91672628D02*
X181689619Y-91672628D01*
X183022952Y-91625009D02*
X182689619Y-91625009D01*
X182689619Y-92148819D02*
X182689619Y-91148819D01*
X182689619Y-91148819D02*
X183165809Y-91148819D01*
X183308667Y-92244057D02*
X184070571Y-92244057D01*
X184784857Y-92148819D02*
X184308667Y-92148819D01*
X184308667Y-92148819D02*
X184308667Y-91148819D01*
X185642000Y-92148819D02*
X185070572Y-92148819D01*
X185356286Y-92148819D02*
X185356286Y-91148819D01*
X185356286Y-91148819D02*
X185261048Y-91291676D01*
X185261048Y-91291676D02*
X185165810Y-91386914D01*
X185165810Y-91386914D02*
X185070572Y-91434533D01*
X130841524Y-74983180D02*
X131174857Y-75459371D01*
X131412952Y-74983180D02*
X131412952Y-75983180D01*
X131412952Y-75983180D02*
X131032000Y-75983180D01*
X131032000Y-75983180D02*
X130936762Y-75935561D01*
X130936762Y-75935561D02*
X130889143Y-75887942D01*
X130889143Y-75887942D02*
X130841524Y-75792704D01*
X130841524Y-75792704D02*
X130841524Y-75649847D01*
X130841524Y-75649847D02*
X130889143Y-75554609D01*
X130889143Y-75554609D02*
X130936762Y-75506990D01*
X130936762Y-75506990D02*
X131032000Y-75459371D01*
X131032000Y-75459371D02*
X131412952Y-75459371D01*
X130079619Y-75506990D02*
X130412952Y-75506990D01*
X130412952Y-74983180D02*
X130412952Y-75983180D01*
X130412952Y-75983180D02*
X129936762Y-75983180D01*
X129793905Y-74887942D02*
X129032000Y-74887942D01*
X128936761Y-75983180D02*
X128603428Y-74983180D01*
X128603428Y-74983180D02*
X128270095Y-75983180D01*
X127460571Y-74983180D02*
X127936761Y-74983180D01*
X127936761Y-74983180D02*
X127936761Y-75983180D01*
X126603428Y-74983180D02*
X127174856Y-74983180D01*
X126889142Y-74983180D02*
X126889142Y-75983180D01*
X126889142Y-75983180D02*
X126984380Y-75840323D01*
X126984380Y-75840323D02*
X127079618Y-75745085D01*
X127079618Y-75745085D02*
X127174856Y-75697466D01*
X143049809Y-103578819D02*
X142716476Y-103102628D01*
X142478381Y-103578819D02*
X142478381Y-102578819D01*
X142478381Y-102578819D02*
X142859333Y-102578819D01*
X142859333Y-102578819D02*
X142954571Y-102626438D01*
X142954571Y-102626438D02*
X143002190Y-102674057D01*
X143002190Y-102674057D02*
X143049809Y-102769295D01*
X143049809Y-102769295D02*
X143049809Y-102912152D01*
X143049809Y-102912152D02*
X143002190Y-103007390D01*
X143002190Y-103007390D02*
X142954571Y-103055009D01*
X142954571Y-103055009D02*
X142859333Y-103102628D01*
X142859333Y-103102628D02*
X142478381Y-103102628D01*
X143811714Y-103055009D02*
X143478381Y-103055009D01*
X143478381Y-103578819D02*
X143478381Y-102578819D01*
X143478381Y-102578819D02*
X143954571Y-102578819D01*
X144097429Y-103674057D02*
X144859333Y-103674057D01*
X145668857Y-103578819D02*
X145335524Y-103102628D01*
X145097429Y-103578819D02*
X145097429Y-102578819D01*
X145097429Y-102578819D02*
X145478381Y-102578819D01*
X145478381Y-102578819D02*
X145573619Y-102626438D01*
X145573619Y-102626438D02*
X145621238Y-102674057D01*
X145621238Y-102674057D02*
X145668857Y-102769295D01*
X145668857Y-102769295D02*
X145668857Y-102912152D01*
X145668857Y-102912152D02*
X145621238Y-103007390D01*
X145621238Y-103007390D02*
X145573619Y-103055009D01*
X145573619Y-103055009D02*
X145478381Y-103102628D01*
X145478381Y-103102628D02*
X145097429Y-103102628D01*
X146002191Y-102578819D02*
X146621238Y-102578819D01*
X146621238Y-102578819D02*
X146287905Y-102959771D01*
X146287905Y-102959771D02*
X146430762Y-102959771D01*
X146430762Y-102959771D02*
X146526000Y-103007390D01*
X146526000Y-103007390D02*
X146573619Y-103055009D01*
X146573619Y-103055009D02*
X146621238Y-103150247D01*
X146621238Y-103150247D02*
X146621238Y-103388342D01*
X146621238Y-103388342D02*
X146573619Y-103483580D01*
X146573619Y-103483580D02*
X146526000Y-103531200D01*
X146526000Y-103531200D02*
X146430762Y-103578819D01*
X146430762Y-103578819D02*
X146145048Y-103578819D01*
X146145048Y-103578819D02*
X146049810Y-103531200D01*
X146049810Y-103531200D02*
X146002191Y-103483580D01*
X146859809Y-111960819D02*
X146526476Y-111484628D01*
X146288381Y-111960819D02*
X146288381Y-110960819D01*
X146288381Y-110960819D02*
X146669333Y-110960819D01*
X146669333Y-110960819D02*
X146764571Y-111008438D01*
X146764571Y-111008438D02*
X146812190Y-111056057D01*
X146812190Y-111056057D02*
X146859809Y-111151295D01*
X146859809Y-111151295D02*
X146859809Y-111294152D01*
X146859809Y-111294152D02*
X146812190Y-111389390D01*
X146812190Y-111389390D02*
X146764571Y-111437009D01*
X146764571Y-111437009D02*
X146669333Y-111484628D01*
X146669333Y-111484628D02*
X146288381Y-111484628D01*
X147621714Y-111437009D02*
X147288381Y-111437009D01*
X147288381Y-111960819D02*
X147288381Y-110960819D01*
X147288381Y-110960819D02*
X147764571Y-110960819D01*
X147907429Y-112056057D02*
X148669333Y-112056057D01*
X149478857Y-111960819D02*
X149145524Y-111484628D01*
X148907429Y-111960819D02*
X148907429Y-110960819D01*
X148907429Y-110960819D02*
X149288381Y-110960819D01*
X149288381Y-110960819D02*
X149383619Y-111008438D01*
X149383619Y-111008438D02*
X149431238Y-111056057D01*
X149431238Y-111056057D02*
X149478857Y-111151295D01*
X149478857Y-111151295D02*
X149478857Y-111294152D01*
X149478857Y-111294152D02*
X149431238Y-111389390D01*
X149431238Y-111389390D02*
X149383619Y-111437009D01*
X149383619Y-111437009D02*
X149288381Y-111484628D01*
X149288381Y-111484628D02*
X148907429Y-111484628D01*
X150336000Y-111294152D02*
X150336000Y-111960819D01*
X150097905Y-110913200D02*
X149859810Y-111627485D01*
X149859810Y-111627485D02*
X150478857Y-111627485D01*
X154511618Y-84782819D02*
X154178285Y-84306628D01*
X153940190Y-84782819D02*
X153940190Y-83782819D01*
X153940190Y-83782819D02*
X154321142Y-83782819D01*
X154321142Y-83782819D02*
X154416380Y-83830438D01*
X154416380Y-83830438D02*
X154463999Y-83878057D01*
X154463999Y-83878057D02*
X154511618Y-83973295D01*
X154511618Y-83973295D02*
X154511618Y-84116152D01*
X154511618Y-84116152D02*
X154463999Y-84211390D01*
X154463999Y-84211390D02*
X154416380Y-84259009D01*
X154416380Y-84259009D02*
X154321142Y-84306628D01*
X154321142Y-84306628D02*
X153940190Y-84306628D01*
X155273523Y-84259009D02*
X154940190Y-84259009D01*
X154940190Y-84782819D02*
X154940190Y-83782819D01*
X154940190Y-83782819D02*
X155416380Y-83782819D01*
X155559238Y-84878057D02*
X156321142Y-84878057D01*
X157130666Y-84782819D02*
X156797333Y-84306628D01*
X156559238Y-84782819D02*
X156559238Y-83782819D01*
X156559238Y-83782819D02*
X156940190Y-83782819D01*
X156940190Y-83782819D02*
X157035428Y-83830438D01*
X157035428Y-83830438D02*
X157083047Y-83878057D01*
X157083047Y-83878057D02*
X157130666Y-83973295D01*
X157130666Y-83973295D02*
X157130666Y-84116152D01*
X157130666Y-84116152D02*
X157083047Y-84211390D01*
X157083047Y-84211390D02*
X157035428Y-84259009D01*
X157035428Y-84259009D02*
X156940190Y-84306628D01*
X156940190Y-84306628D02*
X156559238Y-84306628D01*
X158083047Y-84782819D02*
X157511619Y-84782819D01*
X157797333Y-84782819D02*
X157797333Y-83782819D01*
X157797333Y-83782819D02*
X157702095Y-83925676D01*
X157702095Y-83925676D02*
X157606857Y-84020914D01*
X157606857Y-84020914D02*
X157511619Y-84068533D01*
X158464000Y-83878057D02*
X158511619Y-83830438D01*
X158511619Y-83830438D02*
X158606857Y-83782819D01*
X158606857Y-83782819D02*
X158844952Y-83782819D01*
X158844952Y-83782819D02*
X158940190Y-83830438D01*
X158940190Y-83830438D02*
X158987809Y-83878057D01*
X158987809Y-83878057D02*
X159035428Y-83973295D01*
X159035428Y-83973295D02*
X159035428Y-84068533D01*
X159035428Y-84068533D02*
X158987809Y-84211390D01*
X158987809Y-84211390D02*
X158416381Y-84782819D01*
X158416381Y-84782819D02*
X159035428Y-84782819D01*
D12*
%TO.C,RF_D2*%
X141328000Y-82300000D02*
X139088000Y-82300000D01*
X139088000Y-81700000D02*
X139088000Y-85940000D01*
X141328000Y-81700000D02*
X139088000Y-81700000D01*
X140208000Y-79780000D02*
X140208000Y-81700000D01*
X140208000Y-87860000D02*
X140208000Y-85940000D01*
X141328000Y-85940000D02*
X141328000Y-81700000D01*
X141328000Y-82540000D02*
X139088000Y-82540000D01*
X139088000Y-85940000D02*
X141328000Y-85940000D01*
X141328000Y-82420000D02*
X139088000Y-82420000D01*
%TO.C,RF_C9*%
X171604000Y-87440000D02*
X174344000Y-87440000D01*
X171604000Y-80200000D02*
X174344000Y-80200000D01*
X171604000Y-87440000D02*
X171604000Y-80200000D01*
X174344000Y-87440000D02*
X174344000Y-80200000D01*
%TO.C,RF_C13*%
X130169328Y-110006000D02*
X130169328Y-111522000D01*
X130209328Y-106416000D02*
X130209328Y-107926000D01*
X131690328Y-110006000D02*
X131690328Y-110751000D01*
X130650328Y-106524000D02*
X130650328Y-107926000D01*
X130169328Y-106410000D02*
X130169328Y-107926000D01*
X130049328Y-110006000D02*
X130049328Y-111535000D01*
X132010328Y-107583000D02*
X132010328Y-110349000D01*
X130730328Y-106552000D02*
X130730328Y-107926000D01*
X129929328Y-106388000D02*
X129929328Y-107926000D01*
X132330328Y-108289000D02*
X132330328Y-109643000D01*
X127004553Y-107491000D02*
X127504553Y-107491000D01*
X131330328Y-106871000D02*
X131330328Y-107926000D01*
X131130328Y-110006000D02*
X131130328Y-111190000D01*
X130129328Y-106405000D02*
X130129328Y-107926000D01*
X127254553Y-107241000D02*
X127254553Y-107741000D01*
X131970328Y-107523000D02*
X131970328Y-110409000D01*
X131370328Y-106901000D02*
X131370328Y-107926000D01*
X131650328Y-110006000D02*
X131650328Y-110792000D01*
X130049328Y-106397000D02*
X130049328Y-107926000D01*
X132170328Y-107868000D02*
X132170328Y-110064000D01*
X130570328Y-110006000D02*
X130570328Y-111434000D01*
X131290328Y-106844000D02*
X131290328Y-107926000D01*
X130329328Y-110006000D02*
X130329328Y-111494000D01*
X130129328Y-110006000D02*
X130129328Y-111527000D01*
X131130328Y-106742000D02*
X131130328Y-107926000D01*
X130970328Y-110006000D02*
X130970328Y-111276000D01*
X130610328Y-110006000D02*
X130610328Y-111421000D01*
X131330328Y-110006000D02*
X131330328Y-111061000D01*
X130890328Y-106618000D02*
X130890328Y-107926000D01*
X130690328Y-110006000D02*
X130690328Y-111394000D01*
X132410328Y-108682000D02*
X132410328Y-109250000D01*
X130810328Y-110006000D02*
X130810328Y-111348000D01*
X129809328Y-106386000D02*
X129809328Y-107926000D01*
X131490328Y-110006000D02*
X131490328Y-110937000D01*
X132290328Y-108161000D02*
X132290328Y-109771000D01*
X131490328Y-106995000D02*
X131490328Y-107926000D01*
X131930328Y-107466000D02*
X131930328Y-110466000D01*
X130369328Y-106446000D02*
X130369328Y-107926000D01*
X130930328Y-106637000D02*
X130930328Y-107926000D01*
X130570328Y-106498000D02*
X130570328Y-107926000D01*
X130970328Y-106656000D02*
X130970328Y-107926000D01*
X132090328Y-107715000D02*
X132090328Y-110217000D01*
X130249328Y-106423000D02*
X130249328Y-107926000D01*
X130610328Y-106511000D02*
X130610328Y-107926000D01*
X129849328Y-106386000D02*
X129849328Y-107926000D01*
X130810328Y-106584000D02*
X130810328Y-107926000D01*
X131210328Y-106791000D02*
X131210328Y-107926000D01*
X130850328Y-106601000D02*
X130850328Y-107926000D01*
X131210328Y-110006000D02*
X131210328Y-111141000D01*
X132370328Y-108448000D02*
X132370328Y-109484000D01*
X131530328Y-107029000D02*
X131530328Y-107926000D01*
X131770328Y-110006000D02*
X131770328Y-110665000D01*
X131090328Y-110006000D02*
X131090328Y-111213000D01*
X131250328Y-106817000D02*
X131250328Y-107926000D01*
X129929328Y-110006000D02*
X129929328Y-111544000D01*
X130770328Y-110006000D02*
X130770328Y-111364000D01*
X131010328Y-106676000D02*
X131010328Y-107926000D01*
X131050328Y-110006000D02*
X131050328Y-111234000D01*
X131690328Y-107181000D02*
X131690328Y-107926000D01*
X131450328Y-106962000D02*
X131450328Y-107926000D01*
X130249328Y-110006000D02*
X130249328Y-111509000D01*
X130409328Y-106455000D02*
X130409328Y-107926000D01*
X131370328Y-110006000D02*
X131370328Y-111031000D01*
X130089328Y-110006000D02*
X130089328Y-111531000D01*
X129809328Y-110006000D02*
X129809328Y-111546000D01*
X130489328Y-110006000D02*
X130489328Y-111457000D01*
X129969328Y-110006000D02*
X129969328Y-111542000D01*
X130409328Y-110006000D02*
X130409328Y-111477000D01*
X131770328Y-107267000D02*
X131770328Y-107926000D01*
X130329328Y-106438000D02*
X130329328Y-107926000D01*
X129969328Y-106390000D02*
X129969328Y-107926000D01*
X131610328Y-107102000D02*
X131610328Y-107926000D01*
X132210328Y-107955000D02*
X132210328Y-109977000D01*
X130770328Y-106568000D02*
X130770328Y-107926000D01*
X131050328Y-106698000D02*
X131050328Y-107926000D01*
X130209328Y-110006000D02*
X130209328Y-111516000D01*
X129889328Y-106387000D02*
X129889328Y-107926000D01*
X130009328Y-106393000D02*
X130009328Y-107926000D01*
X130650328Y-110006000D02*
X130650328Y-111408000D01*
X130530328Y-110006000D02*
X130530328Y-111446000D01*
X131810328Y-107313000D02*
X131810328Y-107926000D01*
X131730328Y-107223000D02*
X131730328Y-107926000D01*
X132130328Y-107788000D02*
X132130328Y-110144000D01*
X131410328Y-110006000D02*
X131410328Y-111001000D01*
X131010328Y-110006000D02*
X131010328Y-111256000D01*
X129889328Y-110006000D02*
X129889328Y-111545000D01*
X130890328Y-110006000D02*
X130890328Y-111314000D01*
X131170328Y-106766000D02*
X131170328Y-107926000D01*
X130850328Y-110006000D02*
X130850328Y-111331000D01*
X131570328Y-110006000D02*
X131570328Y-110867000D01*
X130449328Y-106465000D02*
X130449328Y-107926000D01*
X131090328Y-106719000D02*
X131090328Y-107926000D01*
X130730328Y-110006000D02*
X130730328Y-111380000D01*
X130930328Y-110006000D02*
X130930328Y-111295000D01*
X130530328Y-106486000D02*
X130530328Y-107926000D01*
X131850328Y-107361000D02*
X131850328Y-110571000D01*
X131530328Y-110006000D02*
X131530328Y-110903000D01*
X130009328Y-110006000D02*
X130009328Y-111539000D01*
X131730328Y-110006000D02*
X131730328Y-110709000D01*
X132050328Y-107647000D02*
X132050328Y-110285000D01*
X130289328Y-106430000D02*
X130289328Y-107926000D01*
X131890328Y-107412000D02*
X131890328Y-110520000D01*
X130089328Y-106401000D02*
X130089328Y-107926000D01*
X130369328Y-110006000D02*
X130369328Y-111486000D01*
X131250328Y-110006000D02*
X131250328Y-111115000D01*
X131610328Y-110006000D02*
X131610328Y-110830000D01*
X129849328Y-110006000D02*
X129849328Y-111546000D01*
X131410328Y-106931000D02*
X131410328Y-107926000D01*
X132250328Y-108051000D02*
X132250328Y-109881000D01*
X131570328Y-107065000D02*
X131570328Y-107926000D01*
X131290328Y-110006000D02*
X131290328Y-111088000D01*
X130289328Y-110006000D02*
X130289328Y-111502000D01*
X131650328Y-107140000D02*
X131650328Y-107926000D01*
X131170328Y-110006000D02*
X131170328Y-111166000D01*
X130690328Y-106538000D02*
X130690328Y-107926000D01*
X130449328Y-110006000D02*
X130449328Y-111467000D01*
X131450328Y-110006000D02*
X131450328Y-110970000D01*
X131810328Y-110006000D02*
X131810328Y-110619000D01*
X130489328Y-106475000D02*
X130489328Y-107926000D01*
X132429328Y-108966000D02*
G75*
G03*
X127189328Y-108966000I-2620000J0D01*
G01*
X127189328Y-108966000D02*
G75*
G03*
X132429328Y-108966000I2620000J0D01*
G01*
%TO.C,RF_C3*%
X142086000Y-96202000D02*
X142086000Y-103442000D01*
X139346000Y-96202000D02*
X139346000Y-103442000D01*
X142086000Y-96202000D02*
X139346000Y-96202000D01*
X142086000Y-103442000D02*
X139346000Y-103442000D01*
%TO.C,RF_JP1*%
X134466000Y-80550000D02*
X131726000Y-80550000D01*
X131726000Y-80550000D02*
X131726000Y-87090000D01*
X133096000Y-90400000D02*
X133096000Y-87090000D01*
X134466000Y-87090000D02*
X134466000Y-80550000D01*
X133096000Y-77240000D02*
X133096000Y-80550000D01*
X131726000Y-87090000D02*
X134466000Y-87090000D01*
%TO.C,RF_R10*%
X150336000Y-77954000D02*
X150336000Y-77624000D01*
X143796000Y-80364000D02*
X143796000Y-80034000D01*
X150336000Y-80364000D02*
X143796000Y-80364000D01*
X143796000Y-77624000D02*
X143796000Y-77954000D01*
X150336000Y-77624000D02*
X143796000Y-77624000D01*
X150336000Y-80034000D02*
X150336000Y-80364000D01*
%TO.C,J4B1*%
X126432000Y-83820000D02*
X129092000Y-83820000D01*
X129092000Y-81220000D02*
X129092000Y-82550000D01*
X126432000Y-83820000D02*
X126432000Y-101660000D01*
X126432000Y-101660000D02*
X129092000Y-101660000D01*
X127762000Y-81220000D02*
X129092000Y-81220000D01*
X129092000Y-83820000D02*
X129092000Y-101660000D01*
%TO.C,RF_C2*%
X138276000Y-82740000D02*
X135536000Y-82740000D01*
X138276000Y-82740000D02*
X138276000Y-89980000D01*
X138276000Y-89980000D02*
X135536000Y-89980000D01*
X135536000Y-82740000D02*
X135536000Y-89980000D01*
%TO.C,RF_R6*%
X177768000Y-108358000D02*
X177768000Y-108688000D01*
X171228000Y-111098000D02*
X177768000Y-111098000D01*
X171228000Y-108688000D02*
X171228000Y-108358000D01*
X171228000Y-110768000D02*
X171228000Y-111098000D01*
X177768000Y-111098000D02*
X177768000Y-110768000D01*
X171228000Y-108358000D02*
X177768000Y-108358000D01*
%TO.C,RF_C10*%
X178462000Y-98870000D02*
X178462000Y-91630000D01*
X178462000Y-91630000D02*
X181202000Y-91630000D01*
X178462000Y-98870000D02*
X181202000Y-98870000D01*
X181202000Y-98870000D02*
X181202000Y-91630000D01*
%TO.C,RF_L3*%
X159476000Y-104368349D02*
G75*
G03*
X159476000Y-111451651I1560000J-3541651D01*
G01*
X162596000Y-111451651D02*
G75*
G03*
X162596000Y-104368349I-1560000J3541651D01*
G01*
%TO.C,RF_U1*%
X166938000Y-92761000D02*
X143958000Y-92761000D01*
X143958000Y-97261000D02*
X166938000Y-97261000D01*
X143958000Y-92761000D02*
X143958000Y-94011000D01*
X166938000Y-97261000D02*
X166938000Y-92761000D01*
X143958000Y-96011000D02*
X143958000Y-97261000D01*
X143958000Y-96011000D02*
G75*
G03*
X143958000Y-94011000I0J1000000D01*
G01*
%TO.C,RF_C12*%
X156908000Y-103224000D02*
X156908000Y-100484000D01*
X164148000Y-103224000D02*
X156908000Y-103224000D01*
X164148000Y-100484000D02*
X156908000Y-100484000D01*
X164148000Y-103224000D02*
X164148000Y-100484000D01*
%TO.C,RF_R2*%
X138200000Y-94520000D02*
X138530000Y-94520000D01*
X136120000Y-94520000D02*
X135790000Y-94520000D01*
X135790000Y-94520000D02*
X135790000Y-101060000D01*
X138530000Y-94520000D02*
X138530000Y-101060000D01*
X138530000Y-101060000D02*
X138200000Y-101060000D01*
X135790000Y-101060000D02*
X136120000Y-101060000D01*
%TO.C,RF_C1*%
X136806000Y-66016000D02*
X139546000Y-66016000D01*
X136806000Y-73256000D02*
X139546000Y-73256000D01*
X136806000Y-73256000D02*
X136806000Y-66016000D01*
X139546000Y-73256000D02*
X139546000Y-66016000D01*
%TO.C,S5*%
G36*
X120127248Y-73219773D02*
G01*
X120142000Y-73279000D01*
X120209772Y-73391249D01*
X120269000Y-73406000D01*
X120372428Y-73476587D01*
X120396000Y-73575334D01*
X120343060Y-73713238D01*
X120269000Y-73744667D01*
X120180693Y-73800590D01*
X120144304Y-73985970D01*
X120142000Y-74083334D01*
X120128487Y-74303860D01*
X120072053Y-74401554D01*
X119964224Y-74422000D01*
X119850742Y-74392755D01*
X119799459Y-74379539D01*
X119552866Y-74269361D01*
X119331626Y-74146834D01*
X119070108Y-73974382D01*
X118929786Y-73835697D01*
X118898395Y-73750301D01*
X119337666Y-73750301D01*
X119537546Y-73916817D01*
X119738189Y-74056130D01*
X119850742Y-74059263D01*
X119887891Y-73926112D01*
X119888000Y-73914000D01*
X119852551Y-73794463D01*
X119716287Y-73750149D01*
X119612833Y-73747484D01*
X119337666Y-73750301D01*
X118898395Y-73750301D01*
X118877797Y-73694264D01*
X118874401Y-73638834D01*
X118881395Y-73509930D01*
X118932237Y-73440347D01*
X119066618Y-73411808D01*
X119324231Y-73406033D01*
X119380000Y-73406000D01*
X119674972Y-73396247D01*
X119833341Y-73361672D01*
X119886998Y-73294303D01*
X119888000Y-73279000D01*
X119955772Y-73166752D01*
X120015000Y-73152000D01*
X120127248Y-73219773D01*
G37*
G36*
X120224884Y-76070494D02*
G01*
X120255877Y-76100834D01*
X120337326Y-76268154D01*
X120387008Y-76512812D01*
X120398277Y-76764163D01*
X120364486Y-76951560D01*
X120339555Y-76990223D01*
X120212002Y-77042359D01*
X120161043Y-77046667D01*
X120078046Y-76994516D01*
X120090412Y-76841728D01*
X120107574Y-76583883D01*
X120022346Y-76416064D01*
X119888000Y-76369334D01*
X119730367Y-76439320D01*
X119663381Y-76626744D01*
X119685587Y-76841728D01*
X119704988Y-76961971D01*
X119659365Y-77022682D01*
X119511013Y-77044138D01*
X119304511Y-77046667D01*
X118872000Y-77046667D01*
X118872000Y-76538667D01*
X118881753Y-76243695D01*
X118916328Y-76085325D01*
X118983697Y-76031669D01*
X118999000Y-76030667D01*
X119087306Y-76086590D01*
X119123695Y-76271970D01*
X119126000Y-76369334D01*
X119146971Y-76604819D01*
X119216488Y-76701854D01*
X119253000Y-76708000D01*
X119354001Y-76632568D01*
X119379999Y-76460048D01*
X119424045Y-76232095D01*
X119513047Y-76079048D01*
X119732010Y-75965854D01*
X119996128Y-75963789D01*
X120224884Y-76070494D01*
G37*
G36*
X120224884Y-72006494D02*
G01*
X120255877Y-72036834D01*
X120337326Y-72204154D01*
X120387008Y-72448812D01*
X120398277Y-72700163D01*
X120364486Y-72887560D01*
X120339555Y-72926223D01*
X120212002Y-72978359D01*
X120161043Y-72982667D01*
X120078046Y-72930516D01*
X120090412Y-72777728D01*
X120107574Y-72519883D01*
X120022346Y-72352064D01*
X119888000Y-72305334D01*
X119730367Y-72375320D01*
X119663381Y-72562744D01*
X119685587Y-72777728D01*
X119704988Y-72897971D01*
X119659365Y-72958682D01*
X119511013Y-72980138D01*
X119304511Y-72982667D01*
X118872000Y-72982667D01*
X118872000Y-72474667D01*
X118881753Y-72179695D01*
X118916328Y-72021325D01*
X118983697Y-71967669D01*
X118999000Y-71966667D01*
X119087306Y-72022590D01*
X119123695Y-72207970D01*
X119126000Y-72305334D01*
X119146971Y-72540819D01*
X119216488Y-72637854D01*
X119253000Y-72644000D01*
X119354001Y-72568568D01*
X119379999Y-72396048D01*
X119424045Y-72168095D01*
X119513047Y-72015048D01*
X119732010Y-71901854D01*
X119996128Y-71899789D01*
X120224884Y-72006494D01*
G37*
G36*
X120386852Y-69682246D02*
G01*
X120396000Y-69799304D01*
X120329915Y-69990492D01*
X120117529Y-70166754D01*
X120099666Y-70177449D01*
X119913061Y-70307209D01*
X119810280Y-70416890D01*
X119803333Y-70439812D01*
X119877752Y-70497658D01*
X120060746Y-70526577D01*
X120099666Y-70527334D01*
X120300064Y-70543148D01*
X120382104Y-70614313D01*
X120396000Y-70739000D01*
X120389932Y-70839200D01*
X120350006Y-70901413D01*
X120243636Y-70934693D01*
X120038237Y-70948091D01*
X119701223Y-70950657D01*
X119634000Y-70950667D01*
X119337666Y-70950667D01*
X118872000Y-70950667D01*
X118872000Y-70459600D01*
X118876689Y-70379167D01*
X119142118Y-70379167D01*
X119164736Y-70491467D01*
X119314524Y-70527078D01*
X119337666Y-70527334D01*
X119501871Y-70498078D01*
X119535780Y-70394502D01*
X119533215Y-70379167D01*
X119437341Y-70257250D01*
X119337666Y-70231000D01*
X119187871Y-70295225D01*
X119142118Y-70379167D01*
X118876689Y-70379167D01*
X118888601Y-70174815D01*
X118931451Y-69953601D01*
X118973599Y-69866934D01*
X119166036Y-69776951D01*
X119399015Y-69786933D01*
X119563283Y-69878050D01*
X119656819Y-69934606D01*
X119786639Y-69900050D01*
X119959436Y-69793384D01*
X120195834Y-69646692D01*
X120329425Y-69609526D01*
X120386852Y-69682246D01*
G37*
G36*
X120340236Y-64806741D02*
G01*
X120379829Y-64938023D01*
X120395070Y-65195435D01*
X120396000Y-65320334D01*
X120396000Y-65870667D01*
X118872000Y-65870667D01*
X118872000Y-65320334D01*
X118880478Y-65011644D01*
X118910774Y-64840072D01*
X118970177Y-64774030D01*
X118999000Y-64770000D01*
X119087306Y-64825924D01*
X119123695Y-65011303D01*
X119126000Y-65108667D01*
X119140200Y-65330235D01*
X119197594Y-65428160D01*
X119295333Y-65447334D01*
X119412041Y-65414186D01*
X119459131Y-65284778D01*
X119464666Y-65151000D01*
X119492206Y-64931827D01*
X119580100Y-64855203D01*
X119591666Y-64854667D01*
X119685598Y-64918927D01*
X119718437Y-65124012D01*
X119718666Y-65151000D01*
X119734480Y-65351399D01*
X119805646Y-65433438D01*
X119930333Y-65447334D01*
X120066706Y-65428849D01*
X120127319Y-65341659D01*
X120141924Y-65138160D01*
X120142000Y-65108667D01*
X120162971Y-64873182D01*
X120232488Y-64776147D01*
X120269000Y-64770000D01*
X120340236Y-64806741D01*
G37*
G36*
X119565561Y-66897614D02*
G01*
X119935631Y-67033186D01*
X120175476Y-67128425D01*
X120313271Y-67202865D01*
X120377189Y-67276037D01*
X120395405Y-67367475D01*
X120396000Y-67473352D01*
X120383302Y-67596758D01*
X120323432Y-67689060D01*
X120183724Y-67774016D01*
X119931513Y-67875382D01*
X119756580Y-67938375D01*
X119439246Y-68051453D01*
X119175031Y-68146370D01*
X119011968Y-68205851D01*
X118994580Y-68212412D01*
X118900052Y-68197404D01*
X118872000Y-68043274D01*
X118892236Y-67917946D01*
X118976520Y-67821613D01*
X119160213Y-67726827D01*
X119397230Y-67635588D01*
X119922461Y-67444079D01*
X119397230Y-67276071D01*
X119111922Y-67177857D01*
X118953645Y-67095626D01*
X118885860Y-67001563D01*
X118872000Y-66876279D01*
X118872000Y-66644496D01*
X119565561Y-66897614D01*
G37*
G36*
X120340236Y-68362741D02*
G01*
X120379829Y-68494023D01*
X120395070Y-68751435D01*
X120396000Y-68876334D01*
X120396000Y-69426667D01*
X118872000Y-69426667D01*
X118872000Y-68876334D01*
X118880478Y-68567644D01*
X118910774Y-68396072D01*
X118970177Y-68330030D01*
X118999000Y-68326000D01*
X119087306Y-68381924D01*
X119123695Y-68567303D01*
X119126000Y-68664667D01*
X119140200Y-68886235D01*
X119197594Y-68984160D01*
X119295333Y-69003334D01*
X119412041Y-68970186D01*
X119459131Y-68840778D01*
X119464666Y-68707000D01*
X119492206Y-68487827D01*
X119580100Y-68411203D01*
X119591666Y-68410667D01*
X119685598Y-68474927D01*
X119718437Y-68680012D01*
X119718666Y-68707000D01*
X119734480Y-68907399D01*
X119805646Y-68989438D01*
X119930333Y-69003334D01*
X120066706Y-68984849D01*
X120127319Y-68897659D01*
X120141924Y-68694160D01*
X120142000Y-68664667D01*
X120162971Y-68429182D01*
X120232488Y-68332147D01*
X120269000Y-68326000D01*
X120340236Y-68362741D01*
G37*
G36*
X119100767Y-74622505D02*
G01*
X119335092Y-74705439D01*
X119636880Y-74824263D01*
X119738688Y-74866500D01*
X120061906Y-75007639D01*
X120257769Y-75113327D01*
X120357463Y-75207605D01*
X120392171Y-75314513D01*
X120394894Y-75372363D01*
X120396000Y-75603059D01*
X119761000Y-75313680D01*
X119125999Y-75024301D01*
X119125999Y-75400484D01*
X119108963Y-75649855D01*
X119051177Y-75762370D01*
X118999000Y-75776667D01*
X118929998Y-75741813D01*
X118890507Y-75616487D01*
X118873851Y-75369546D01*
X118872000Y-75184000D01*
X118883295Y-74839708D01*
X118919070Y-74647503D01*
X118977794Y-74591334D01*
X119100767Y-74622505D01*
G37*
G36*
X119100767Y-77331839D02*
G01*
X119335092Y-77414773D01*
X119636880Y-77533597D01*
X119738688Y-77575834D01*
X120061906Y-77716972D01*
X120257769Y-77822660D01*
X120357463Y-77916938D01*
X120392171Y-78023847D01*
X120394894Y-78081696D01*
X120396000Y-78312392D01*
X119761000Y-78023013D01*
X119125999Y-77733634D01*
X119125999Y-78109817D01*
X119108963Y-78359189D01*
X119051177Y-78471703D01*
X118999000Y-78486000D01*
X118929998Y-78451146D01*
X118890507Y-78325820D01*
X118873851Y-78078880D01*
X118872000Y-77893334D01*
X118883295Y-77549041D01*
X118919070Y-77356836D01*
X118977794Y-77300667D01*
X119100767Y-77331839D01*
G37*
%TO.C,RF_C7*%
X154622000Y-86768000D02*
X154622000Y-89508000D01*
X161862000Y-86768000D02*
X161862000Y-89508000D01*
X154622000Y-86768000D02*
X161862000Y-86768000D01*
X154622000Y-89508000D02*
X161862000Y-89508000D01*
%TO.C,RF_R9*%
X160682000Y-81248000D02*
X161012000Y-81248000D01*
X160682000Y-74708000D02*
X160682000Y-81248000D01*
X161012000Y-74708000D02*
X160682000Y-74708000D01*
X163422000Y-74708000D02*
X163422000Y-81248000D01*
X163092000Y-74708000D02*
X163422000Y-74708000D01*
X163422000Y-81248000D02*
X163092000Y-81248000D01*
D13*
%TO.C,RF_SW1*%
X144884500Y-74903000D02*
X144884500Y-74903000D01*
D14*
X145034500Y-70823000D02*
X145034500Y-67473000D01*
D13*
X144884500Y-75103000D02*
X144884500Y-75103000D01*
D14*
X157734500Y-70823000D02*
X145034500Y-70823000D01*
X156384500Y-64473000D02*
X146384500Y-64473000D01*
X157734500Y-67473000D02*
X157734500Y-70823000D01*
D13*
X144884500Y-75103000D02*
G75*
G03*
X144884500Y-74903000I0J100000D01*
G01*
X144884500Y-74903000D02*
G75*
G03*
X144884500Y-75103000I0J-100000D01*
G01*
%TO.C,RF_J1*%
X184670000Y-68480000D02*
X184670000Y-68480000D01*
D14*
X174070000Y-74580000D02*
X174070000Y-67080000D01*
X181070000Y-64580000D02*
X177070000Y-64580000D01*
X181570000Y-74580000D02*
X184070000Y-74580000D01*
X184070000Y-74580000D02*
X184070000Y-67080000D01*
D13*
X184870000Y-68480000D02*
X184870000Y-68480000D01*
D14*
X176570000Y-74580000D02*
X174070000Y-74580000D01*
D13*
X184670000Y-68480000D02*
G75*
G03*
X184870000Y-68480000I100000J0D01*
G01*
X184870000Y-68480000D02*
G75*
G03*
X184670000Y-68480000I-100000J0D01*
G01*
D12*
%TO.C,RF_R5*%
X177768000Y-106958000D02*
X177768000Y-107288000D01*
X171228000Y-104548000D02*
X171228000Y-104878000D01*
X177768000Y-104878000D02*
X177768000Y-104548000D01*
X171228000Y-107288000D02*
X171228000Y-106958000D01*
X177768000Y-104548000D02*
X171228000Y-104548000D01*
X177768000Y-107288000D02*
X171228000Y-107288000D01*
%TO.C,RF_C6*%
X168756000Y-103822000D02*
X166016000Y-103822000D01*
X166016000Y-103822000D02*
X166016000Y-111062000D01*
X168756000Y-111062000D02*
X166016000Y-111062000D01*
X168756000Y-103822000D02*
X168756000Y-111062000D01*
%TO.C,RF_L2*%
X176769651Y-92420000D02*
G75*
G03*
X169686349Y-92420000I-3541651J-1560000D01*
G01*
X169686349Y-95540000D02*
G75*
G03*
X176769651Y-95540000I3541651J1560000D01*
G01*
%TO.C,RF_C8*%
X164020000Y-72798000D02*
X171260000Y-72798000D01*
X164020000Y-75538000D02*
X171260000Y-75538000D01*
X164020000Y-72798000D02*
X164020000Y-75538000D01*
X171260000Y-72798000D02*
X171260000Y-75538000D01*
%TO.C,RF_C5*%
X142430000Y-89508000D02*
X149670000Y-89508000D01*
X142430000Y-86768000D02*
X142430000Y-89508000D01*
X149670000Y-86768000D02*
X149670000Y-89508000D01*
X142430000Y-86768000D02*
X149670000Y-86768000D01*
%TO.C,RF_D1*%
X131722000Y-100580000D02*
X133962000Y-100580000D01*
X132842000Y-103100000D02*
X132842000Y-101180000D01*
X133962000Y-101180000D02*
X133962000Y-96940000D01*
X131722000Y-96940000D02*
X131722000Y-101180000D01*
X133962000Y-96940000D02*
X131722000Y-96940000D01*
X131722000Y-100460000D02*
X133962000Y-100460000D01*
X132842000Y-95020000D02*
X132842000Y-96940000D01*
X131722000Y-101180000D02*
X133962000Y-101180000D01*
X131722000Y-100340000D02*
X133962000Y-100340000D01*
%TO.C,RF_C11*%
X183452000Y-79402000D02*
X183452000Y-82142000D01*
X176212000Y-79402000D02*
X183452000Y-79402000D01*
X176212000Y-82142000D02*
X183452000Y-82142000D01*
X176212000Y-79402000D02*
X176212000Y-82142000D01*
%TO.C,RF_C4*%
X145860000Y-104040000D02*
X138620000Y-104040000D01*
X145860000Y-106780000D02*
X138620000Y-106780000D01*
X138620000Y-106780000D02*
X138620000Y-104040000D01*
X145860000Y-106780000D02*
X145860000Y-104040000D01*
%TO.C,RF_R11*%
X143796000Y-80672000D02*
X150336000Y-80672000D01*
X150336000Y-83412000D02*
X150336000Y-83082000D01*
X143796000Y-83412000D02*
X150336000Y-83412000D01*
X143796000Y-83082000D02*
X143796000Y-83412000D01*
X143796000Y-81002000D02*
X143796000Y-80672000D01*
X150336000Y-80672000D02*
X150336000Y-81002000D01*
%TO.C,RF_R7*%
X171042000Y-80042000D02*
X170712000Y-80042000D01*
X168302000Y-86582000D02*
X168302000Y-80042000D01*
X168632000Y-86582000D02*
X168302000Y-86582000D01*
X170712000Y-86582000D02*
X171042000Y-86582000D01*
X171042000Y-86582000D02*
X171042000Y-80042000D01*
X168302000Y-80042000D02*
X168632000Y-80042000D01*
%TO.C,RF_R8*%
X166978000Y-86582000D02*
X166978000Y-80042000D01*
X166978000Y-80042000D02*
X166648000Y-80042000D01*
X164568000Y-86582000D02*
X164238000Y-86582000D01*
X166648000Y-86582000D02*
X166978000Y-86582000D01*
X164238000Y-80042000D02*
X164568000Y-80042000D01*
X164238000Y-86582000D02*
X164238000Y-80042000D01*
%TO.C,RF_R1*%
X122328000Y-81312000D02*
X122658000Y-81312000D01*
X122328000Y-87852000D02*
X122328000Y-81312000D01*
X125068000Y-87852000D02*
X125068000Y-81312000D01*
X125068000Y-81312000D02*
X124738000Y-81312000D01*
X122658000Y-87852000D02*
X122328000Y-87852000D01*
X124738000Y-87852000D02*
X125068000Y-87852000D01*
%TO.C,RF_L1*%
X178526000Y-83326349D02*
G75*
G03*
X178526000Y-90409651I1560000J-3541651D01*
G01*
X181646000Y-90409651D02*
G75*
G03*
X181646000Y-83326349I-1560000J3541651D01*
G01*
%TO.C,RF_VL1*%
X134620000Y-74422000D02*
X134620000Y-71120000D01*
X124460000Y-71120000D02*
X124460000Y-74422000D01*
X134620000Y-64262000D02*
X124460000Y-64262000D01*
X124460000Y-64262000D02*
X124460000Y-67564000D01*
X124460000Y-74422000D02*
X134620000Y-74422000D01*
X134620000Y-67564000D02*
X134620000Y-64262000D01*
%TO.C,RF_R3*%
X138208000Y-110006000D02*
X138208000Y-110336000D01*
X138208000Y-107926000D02*
X138208000Y-107596000D01*
X144748000Y-110336000D02*
X144748000Y-110006000D01*
X138208000Y-110336000D02*
X144748000Y-110336000D01*
X144748000Y-107596000D02*
X144748000Y-107926000D01*
X138208000Y-107596000D02*
X144748000Y-107596000D01*
%TO.C,RF_R4*%
X146966000Y-108680000D02*
X146966000Y-102140000D01*
X146966000Y-102140000D02*
X147296000Y-102140000D01*
X149376000Y-108680000D02*
X149706000Y-108680000D01*
X149706000Y-108680000D02*
X149706000Y-102140000D01*
X147296000Y-108680000D02*
X146966000Y-108680000D01*
X149706000Y-102140000D02*
X149376000Y-102140000D01*
%TO.C,RF_R12*%
X145574000Y-83720000D02*
X145574000Y-84050000D01*
X152114000Y-83720000D02*
X145574000Y-83720000D01*
X152114000Y-84050000D02*
X152114000Y-83720000D01*
X145574000Y-86460000D02*
X145574000Y-86130000D01*
X152114000Y-86460000D02*
X145574000Y-86460000D01*
X152114000Y-86130000D02*
X152114000Y-86460000D01*
%TD*%
D15*
X186182000Y-112776000D02*
X186182000Y-63754000D01*
X185674000Y-113284000D02*
X186182000Y-112776000D01*
X117094000Y-112776000D02*
X117094000Y-63754000D01*
X117602000Y-63246000D02*
X117094000Y-63754000D01*
X117602000Y-63246000D02*
X185674000Y-63246000D01*
X117602000Y-113284000D02*
X185674000Y-113284000D01*
X117094000Y-112776000D02*
X117602000Y-113284000D01*
X185674000Y-63246000D02*
X186182000Y-63754000D01*
M02*
