%TF.GenerationSoftware,KiCad,Pcbnew,6.0.11-2627ca5db0~126~ubuntu22.04.1*%
%TF.CreationDate,2023-05-23T19:44:04-04:00*%
%TF.ProjectId,sub_rf_mod,7375625f-7266-45f6-9d6f-642e6b696361,rev?*%
%TF.SameCoordinates,Original*%
%TF.FileFunction,Copper,L2,Bot*%
%TF.FilePolarity,Positive*%
%FSLAX46Y46*%
G04 Gerber Fmt 4.6, Leading zero omitted, Abs format (unit mm)*
G04 Created by KiCad (PCBNEW 6.0.11-2627ca5db0~126~ubuntu22.04.1) date 2023-05-23 19:44:04*
%MOMM*%
%LPD*%
G01*
G04 APERTURE LIST*
%TA.AperFunction,Profile*%
%ADD10C,0.100000*%
%TD*%
%TA.AperFunction,ComponentPad*%
%ADD11C,1.600000*%
%TD*%
%TA.AperFunction,ComponentPad*%
%ADD12O,1.600000X1.600000*%
%TD*%
%TA.AperFunction,ComponentPad*%
%ADD13R,1.600000X1.600000*%
%TD*%
%TA.AperFunction,ComponentPad*%
%ADD14C,2.600000*%
%TD*%
%TA.AperFunction,ComponentPad*%
%ADD15R,1.600000X2.400000*%
%TD*%
%TA.AperFunction,ComponentPad*%
%ADD16O,1.600000X2.400000*%
%TD*%
%TA.AperFunction,ComponentPad*%
%ADD17C,3.800000*%
%TD*%
%TA.AperFunction,ComponentPad*%
%ADD18C,1.700000*%
%TD*%
%TA.AperFunction,ComponentPad*%
%ADD19C,3.000000*%
%TD*%
%TA.AperFunction,ComponentPad*%
%ADD20R,1.700000X1.700000*%
%TD*%
%TA.AperFunction,ComponentPad*%
%ADD21O,1.700000X1.700000*%
%TD*%
%TA.AperFunction,ComponentPad*%
%ADD22C,4.227000*%
%TD*%
%TA.AperFunction,ComponentPad*%
%ADD23C,4.039000*%
%TD*%
%TA.AperFunction,ComponentPad*%
%ADD24C,2.775000*%
%TD*%
%TA.AperFunction,Conductor*%
%ADD25C,0.304800*%
%TD*%
%TA.AperFunction,Conductor*%
%ADD26C,1.016000*%
%TD*%
G04 APERTURE END LIST*
D10*
X117602000Y-63246000D02*
X185674000Y-63246000D01*
X117602000Y-63246000D02*
X117094000Y-63754000D01*
X186182000Y-112776000D02*
X186182000Y-63754000D01*
X185674000Y-63246000D02*
X186182000Y-63754000D01*
X117094000Y-112776000D02*
X117602000Y-113284000D01*
X117094000Y-112776000D02*
X117094000Y-63754000D01*
X185674000Y-113284000D02*
X186182000Y-112776000D01*
X117602000Y-113284000D02*
X185674000Y-113284000D01*
D11*
%TO.P,RF_C10,1*%
%TO.N,N/C*%
X179832000Y-97750000D03*
%TO.P,RF_C10,2*%
X179832000Y-92750000D03*
%TD*%
%TO.P,RF_JP1,1,A*%
%TO.N,N/C*%
X133096000Y-76200000D03*
D12*
%TO.P,RF_JP1,2,B*%
X133096000Y-91440000D03*
%TD*%
D11*
%TO.P,RF_C6,1*%
%TO.N,N/C*%
X167386000Y-104942000D03*
%TO.P,RF_C6,2*%
X167386000Y-109942000D03*
%TD*%
%TO.P,RF_C5,1*%
%TO.N,N/C*%
X143550000Y-88138000D03*
%TO.P,RF_C5,2*%
X148550000Y-88138000D03*
%TD*%
%TO.P,RF_R11,1*%
%TO.N,N/C*%
X143256000Y-82042000D03*
D12*
%TO.P,RF_R11,2*%
X150876000Y-82042000D03*
%TD*%
D11*
%TO.P,RF_C12,1*%
%TO.N,N/C*%
X163028000Y-101854000D03*
%TO.P,RF_C12,2*%
X158028000Y-101854000D03*
%TD*%
%TO.P,RF_R6,1*%
%TO.N,N/C*%
X170688000Y-109728000D03*
D12*
%TO.P,RF_R6,2*%
X178308000Y-109728000D03*
%TD*%
D11*
%TO.P,RF_C2,1*%
%TO.N,N/C*%
X136906000Y-83860000D03*
%TO.P,RF_C2,2*%
X136906000Y-88860000D03*
%TD*%
D13*
%TO.P,RF_C13,1*%
%TO.N,N/C*%
X128809328Y-108966000D03*
D11*
%TO.P,RF_C13,2*%
X130809328Y-108966000D03*
%TD*%
%TO.P,RF_R3,1*%
%TO.N,N/C*%
X137668000Y-108966000D03*
D12*
%TO.P,RF_R3,2*%
X145288000Y-108966000D03*
%TD*%
D14*
%TO.P,RF_L3,1,1*%
%TO.N,N/C*%
X161036000Y-105410000D03*
%TO.P,RF_L3,2,2*%
X161036000Y-110410000D03*
%TD*%
D11*
%TO.P,RF_C11,1*%
%TO.N,N/C*%
X177332000Y-80772000D03*
%TO.P,RF_C11,2*%
X182332000Y-80772000D03*
%TD*%
D13*
%TO.P,RF_D1,1,K*%
%TO.N,N/C*%
X132842000Y-104140000D03*
D12*
%TO.P,RF_D1,2,A*%
X132842000Y-93980000D03*
%TD*%
D13*
%TO.P,RF_D2,1,K*%
%TO.N,N/C*%
X140208000Y-78740000D03*
D12*
%TO.P,RF_D2,2,A*%
X140208000Y-88900000D03*
%TD*%
D11*
%TO.P,RF_C1,1*%
%TO.N,N/C*%
X138176000Y-72136000D03*
%TO.P,RF_C1,2*%
X138176000Y-67136000D03*
%TD*%
%TO.P,RF_R2,1*%
%TO.N,N/C*%
X137160000Y-93980000D03*
D12*
%TO.P,RF_R2,2*%
X137160000Y-101600000D03*
%TD*%
D15*
%TO.P,RF_U1,1,CHROMA_LEAD*%
%TO.N,N/C*%
X145288000Y-98821000D03*
D16*
%TO.P,RF_U1,2,R-Y*%
X147828000Y-98821000D03*
%TO.P,RF_U1,3,CHROMA_BIAS*%
X150368000Y-98821000D03*
%TO.P,RF_U1,4,B-Y*%
X152908000Y-98821000D03*
%TO.P,RF_U1,5,GND*%
X155448000Y-98821000D03*
%TO.P,RF_U1,6,CHB_TANK1*%
X157988000Y-98821000D03*
%TO.P,RF_U1,7,CHB_TANK2*%
X160528000Y-98821000D03*
%TO.P,RF_U1,8,CHA_TANK1*%
X163068000Y-98821000D03*
%TO.P,RF_U1,9,CHA_TANK2*%
X165608000Y-98821000D03*
%TO.P,RF_U1,10,CHB_OUTPUT*%
X165608000Y-91201000D03*
%TO.P,RF_U1,11,CHA_OUTPUT*%
X163068000Y-91201000D03*
%TO.P,RF_U1,12,VIDEO_IN*%
X160528000Y-91201000D03*
%TO.P,RF_U1,13,CHROMA_SUBCAR*%
X157988000Y-91201000D03*
%TO.P,RF_U1,14,RF_SUPPLY*%
X155448000Y-91201000D03*
%TO.P,RF_U1,15,SOUND_TANK*%
X152908000Y-91201000D03*
%TO.P,RF_U1,16,CHROMA_SUPPLY*%
X150368000Y-91201000D03*
%TO.P,RF_U1,17,CHROMA_OSC*%
X147828000Y-91201000D03*
%TO.P,RF_U1,18,CHROMA_LAG*%
X145288000Y-91201000D03*
%TD*%
D11*
%TO.P,RF_C7,1*%
%TO.N,N/C*%
X155742000Y-88138000D03*
%TO.P,RF_C7,2*%
X160742000Y-88138000D03*
%TD*%
D17*
%TO.P,H17,1,1*%
%TO.N,N/C*%
X127762000Y-78486000D03*
%TD*%
D18*
%TO.P,RF_VL1,1,1*%
%TO.N,N/C*%
X125984000Y-72898000D03*
%TO.P,RF_VL1,2,2*%
X129540000Y-72898000D03*
%TO.P,RF_VL1,3,3*%
X133096000Y-72898000D03*
%TO.P,RF_VL1,4,4*%
X133096000Y-65786000D03*
%TO.P,RF_VL1,6,6*%
X125984000Y-65786000D03*
D19*
%TO.P,RF_VL1,S,S*%
X124460000Y-69342000D03*
X134620000Y-69342000D03*
%TD*%
D11*
%TO.P,RF_C4,1*%
%TO.N,N/C*%
X144740000Y-105410000D03*
%TO.P,RF_C4,2*%
X139740000Y-105410000D03*
%TD*%
%TO.P,RF_R5,1*%
%TO.N,N/C*%
X178308000Y-105918000D03*
D12*
%TO.P,RF_R5,2*%
X170688000Y-105918000D03*
%TD*%
D20*
%TO.P,J4B1,1,Pin_1*%
%TO.N,N/C*%
X127762000Y-82550000D03*
D21*
%TO.P,J4B1,2,Pin_2*%
X127762000Y-85090000D03*
%TO.P,J4B1,3,Pin_3*%
X127762000Y-87630000D03*
%TO.P,J4B1,4,Pin_4*%
X127762000Y-90170000D03*
%TO.P,J4B1,5,Pin_5*%
X127762000Y-92710000D03*
%TO.P,J4B1,6,Pin_6*%
X127762000Y-95250000D03*
%TO.P,J4B1,7,Pin_7*%
X127762000Y-97790000D03*
%TO.P,J4B1,8,Pin_8*%
X127762000Y-100330000D03*
%TD*%
D11*
%TO.P,RF_R7,1*%
%TO.N,N/C*%
X169672000Y-87122000D03*
D12*
%TO.P,RF_R7,2*%
X169672000Y-79502000D03*
%TD*%
D11*
%TO.P,RF_R8,1*%
%TO.N,N/C*%
X165608000Y-87122000D03*
D12*
%TO.P,RF_R8,2*%
X165608000Y-79502000D03*
%TD*%
D22*
%TO.P,RF_J1,S*%
%TO.N,N/C*%
X179070000Y-68580000D03*
D23*
%TO.P,RF_J1,T*%
X179070000Y-73080000D03*
%TD*%
D11*
%TO.P,RF_C8,1*%
%TO.N,N/C*%
X165140000Y-74168000D03*
%TO.P,RF_C8,2*%
X170140000Y-74168000D03*
%TD*%
%TO.P,RF_C9,1*%
%TO.N,N/C*%
X172974000Y-86320000D03*
%TO.P,RF_C9,2*%
X172974000Y-81320000D03*
%TD*%
D17*
%TO.P,H16,1,1*%
%TO.N,N/C*%
X127762000Y-104394000D03*
%TD*%
D11*
%TO.P,RF_R4,1*%
%TO.N,N/C*%
X148336000Y-109220000D03*
D12*
%TO.P,RF_R4,2*%
X148336000Y-101600000D03*
%TD*%
D11*
%TO.P,RF_R1,1*%
%TO.N,N/C*%
X123698000Y-88392000D03*
D12*
%TO.P,RF_R1,2*%
X123698000Y-80772000D03*
%TD*%
D11*
%TO.P,RF_R9,1*%
%TO.N,N/C*%
X162052000Y-74168000D03*
D12*
%TO.P,RF_R9,2*%
X162052000Y-81788000D03*
%TD*%
D24*
%TO.P,RF_SW1,1,A*%
%TO.N,N/C*%
X156084500Y-75003000D03*
%TO.P,RF_SW1,2,B*%
X151384500Y-75003000D03*
%TO.P,RF_SW1,3,C*%
X146684500Y-75003000D03*
%TO.P,RF_SW1,4*%
X144779500Y-65473000D03*
X157989500Y-65473000D03*
%TD*%
D11*
%TO.P,RF_R10,1*%
%TO.N,N/C*%
X150876000Y-78994000D03*
D12*
%TO.P,RF_R10,2*%
X143256000Y-78994000D03*
%TD*%
D14*
%TO.P,RF_L1,1,1*%
%TO.N,N/C*%
X180086000Y-89368000D03*
%TO.P,RF_L1,2,2*%
X180086000Y-84368000D03*
%TD*%
D11*
%TO.P,RF_C3,1*%
%TO.N,N/C*%
X140716000Y-97322000D03*
%TO.P,RF_C3,2*%
X140716000Y-102322000D03*
%TD*%
%TO.P,RF_R12,1*%
%TO.N,N/C*%
X152654000Y-85090000D03*
D12*
%TO.P,RF_R12,2*%
X145034000Y-85090000D03*
%TD*%
D14*
%TO.P,RF_L2,1,1*%
%TO.N,N/C*%
X170728000Y-93980000D03*
%TO.P,RF_L2,2,2*%
X175728000Y-93980000D03*
%TD*%
D25*
%TO.N,*%
X163028000Y-101854000D02*
X165314000Y-101854000D01*
X165314000Y-101854000D02*
X167386000Y-99782000D01*
X167386000Y-99782000D02*
X167386000Y-95250000D01*
X167386000Y-95250000D02*
X164350800Y-92214800D01*
X164350800Y-92214800D02*
X164350800Y-80660500D01*
X164350800Y-80660500D02*
X156848600Y-73158300D01*
X156848600Y-73158300D02*
X148529200Y-73158300D01*
X148529200Y-73158300D02*
X146684500Y-75003000D01*
X150876000Y-82042000D02*
X161798000Y-82042000D01*
X152654000Y-85304000D02*
X152654000Y-85090000D01*
X155488000Y-88138000D02*
X152654000Y-85304000D01*
X161504000Y-109942000D02*
X161036000Y-110410000D01*
X167600000Y-109728000D02*
X167386000Y-109942000D01*
X158028000Y-98861000D02*
X157988000Y-98821000D01*
X167386000Y-109942000D02*
X161504000Y-109942000D01*
X158028000Y-101854000D02*
X158028000Y-98861000D01*
X158028000Y-107402000D02*
X158028000Y-101854000D01*
X170688000Y-109728000D02*
X167600000Y-109728000D01*
X161036000Y-110410000D02*
X158028000Y-107402000D01*
X163322000Y-87335950D02*
X163322000Y-81280050D01*
X162305950Y-80264000D02*
X154940000Y-80264000D01*
X160528000Y-95250000D02*
X161798000Y-93980000D01*
X161798000Y-88859950D02*
X163322000Y-87335950D01*
X167172000Y-105156000D02*
X167386000Y-104942000D01*
X151384500Y-76708500D02*
X151384500Y-75003000D01*
X169712000Y-104942000D02*
X170688000Y-105918000D01*
X160528000Y-98821000D02*
X160528000Y-95250000D01*
X163322000Y-81280050D02*
X162305950Y-80264000D01*
X154940000Y-80264000D02*
X151384500Y-76708500D01*
X161036000Y-105410000D02*
X160528000Y-104902000D01*
X161798000Y-93980000D02*
X161798000Y-88859950D01*
X167386000Y-104942000D02*
X169712000Y-104942000D01*
X161290000Y-105156000D02*
X167172000Y-105156000D01*
X161036000Y-105410000D02*
X161290000Y-105156000D01*
X160528000Y-104902000D02*
X160528000Y-98821000D01*
X145288000Y-91201000D02*
X145288000Y-89876000D01*
X145288000Y-89876000D02*
X143550000Y-88138000D01*
X141224000Y-93980000D02*
X144003000Y-91201000D01*
X144003000Y-91201000D02*
X145288000Y-91201000D01*
X137160000Y-93980000D02*
X141224000Y-93980000D01*
X143804000Y-105410000D02*
X140716000Y-102322000D01*
X144740000Y-105410000D02*
X144740000Y-108418000D01*
X144740000Y-105410000D02*
X143804000Y-105410000D01*
X144740000Y-108418000D02*
X145288000Y-108966000D01*
X144033000Y-98821000D02*
X142534000Y-97322000D01*
X142534000Y-97322000D02*
X140716000Y-97322000D01*
X145288000Y-98821000D02*
X144033000Y-98821000D01*
D26*
X162052000Y-74168000D02*
X165140000Y-74168000D01*
X178308000Y-105918000D02*
X173228000Y-100838000D01*
X155448000Y-90424000D02*
X155448000Y-91201000D01*
X173228000Y-100838000D02*
X173228000Y-92964000D01*
X178308000Y-105918000D02*
X178308000Y-109652000D01*
X173228000Y-92964000D02*
X167220800Y-86956800D01*
X150876000Y-78994000D02*
X147309805Y-78994000D01*
X165608000Y-77724000D02*
X162052000Y-74168000D01*
X133096000Y-72898000D02*
X137414000Y-72898000D01*
X151731000Y-93980000D02*
X153924000Y-93980000D01*
X133096000Y-76200000D02*
X133096000Y-72898000D01*
X150368000Y-91201000D02*
X150368000Y-92617000D01*
X140451805Y-72136000D02*
X138176000Y-72136000D01*
X160020000Y-72136000D02*
X162052000Y-74168000D01*
X165608000Y-81534000D02*
X165608000Y-77724000D01*
X150876000Y-78994000D02*
X148590000Y-81280000D01*
X155448000Y-92456000D02*
X155448000Y-91201000D01*
D25*
X131064000Y-85090000D02*
X127762000Y-85090000D01*
X141478000Y-87630000D02*
X141478000Y-80772000D01*
X141478000Y-87630000D02*
X140208000Y-88900000D01*
X123698000Y-80772000D02*
X123698000Y-81026000D01*
X141478000Y-80772000D02*
X143256000Y-78994000D01*
X136946000Y-88900000D02*
X136906000Y-88860000D01*
X136906000Y-88860000D02*
X134834000Y-88860000D01*
X134834000Y-88860000D02*
X131064000Y-85090000D01*
X140208000Y-88900000D02*
X136946000Y-88900000D01*
X123698000Y-81026000D02*
X127762000Y-85090000D01*
X148336000Y-101600000D02*
X150368000Y-99568000D01*
X131572000Y-92710000D02*
X132842000Y-93980000D01*
X127762000Y-92710000D02*
X131572000Y-92710000D01*
X149085200Y-95491200D02*
X149085200Y-88673200D01*
X141732000Y-98806000D02*
X138938000Y-98806000D01*
X150368000Y-98821000D02*
X150368000Y-96774000D01*
X148336000Y-101600000D02*
X148082000Y-101854000D01*
X145796000Y-88138000D02*
X148550000Y-88138000D01*
X148082000Y-101854000D02*
X144780000Y-101854000D01*
X150368000Y-96774000D02*
X149085200Y-95491200D01*
X138938000Y-98806000D02*
X137922000Y-97790000D01*
X123698000Y-88646000D02*
X123698000Y-88392000D01*
X144780000Y-101854000D02*
X141732000Y-98806000D01*
X127762000Y-92710000D02*
X123698000Y-88646000D01*
X143256000Y-82042000D02*
X143256000Y-85598000D01*
X149085200Y-88673200D02*
X148550000Y-88138000D01*
X137922000Y-97790000D02*
X136652000Y-97790000D01*
X136652000Y-97790000D02*
X132842000Y-93980000D01*
X143256000Y-85598000D02*
X145796000Y-88138000D01*
X150368000Y-99568000D02*
X150368000Y-98821000D01*
X139740000Y-105410000D02*
X139740000Y-104180000D01*
X129032000Y-101600000D02*
X127762000Y-100330000D01*
X137160000Y-101600000D02*
X129032000Y-101600000D01*
X139740000Y-104180000D02*
X137160000Y-101600000D01*
X137414000Y-99822000D02*
X138430000Y-100838000D01*
X141009950Y-100838000D02*
X144057950Y-103886000D01*
X127762000Y-97790000D02*
X129794000Y-99822000D01*
X152908000Y-100584000D02*
X152908000Y-98821000D01*
X149606000Y-103886000D02*
X152908000Y-100584000D01*
X144057950Y-103886000D02*
X149606000Y-103886000D01*
X138430000Y-100838000D02*
X141009950Y-100838000D01*
X129794000Y-99822000D02*
X137414000Y-99822000D01*
X134874000Y-94234000D02*
X134874000Y-90424000D01*
X136144000Y-95504000D02*
X134874000Y-94234000D01*
X146500800Y-95504000D02*
X136144000Y-95504000D01*
X147828000Y-96831200D02*
X147828000Y-98821000D01*
X132080000Y-87630000D02*
X127762000Y-87630000D01*
X134874000Y-90424000D02*
X132080000Y-87630000D01*
X146500800Y-95504000D02*
X147828000Y-96831200D01*
D26*
X129032000Y-91440000D02*
X127762000Y-90170000D01*
X121920000Y-87376000D02*
X121920000Y-89154000D01*
X124206000Y-86614000D02*
X122682000Y-86614000D01*
X132842000Y-104140000D02*
X132842000Y-104394000D01*
X132842000Y-104394000D02*
X128809328Y-108426672D01*
X128809328Y-108426672D02*
X128809328Y-108966000D01*
X124714000Y-91948000D02*
X124714000Y-105410000D01*
X127762000Y-90170000D02*
X124206000Y-86614000D01*
X122682000Y-86614000D02*
X121920000Y-87376000D01*
X121920000Y-89154000D02*
X124714000Y-91948000D01*
X133096000Y-91440000D02*
X129032000Y-91440000D01*
X128270000Y-108966000D02*
X128809328Y-108966000D01*
X124714000Y-105410000D02*
X128270000Y-108966000D01*
D25*
X165608000Y-87376000D02*
X165608000Y-91201000D01*
X167949000Y-91201000D02*
X170728000Y-93980000D01*
X165608000Y-91201000D02*
X167949000Y-91201000D01*
X140208000Y-78486000D02*
X141478000Y-77216000D01*
X145034000Y-78232000D02*
X145034000Y-85090000D01*
X132842000Y-78740000D02*
X127000000Y-72898000D01*
X148082000Y-85090000D02*
X145034000Y-85090000D01*
X141478000Y-77216000D02*
X144018000Y-77216000D01*
X144018000Y-77216000D02*
X145034000Y-78232000D01*
X152908000Y-91201000D02*
X152908000Y-89916000D01*
X127000000Y-72898000D02*
X125984000Y-72898000D01*
X140208000Y-78740000D02*
X140208000Y-78486000D01*
X140208000Y-78740000D02*
X132842000Y-78740000D01*
X152908000Y-89916000D02*
X148082000Y-85090000D01*
X177332000Y-74818000D02*
X179070000Y-73080000D01*
X180086000Y-83526000D02*
X180086000Y-84368000D01*
X177332000Y-80772000D02*
X180086000Y-83526000D01*
X177332000Y-80772000D02*
X177332000Y-74818000D01*
X175728000Y-93980000D02*
X179498000Y-97750000D01*
X179498000Y-97750000D02*
X179832000Y-97750000D01*
X180086000Y-89368000D02*
X176022000Y-89368000D01*
X179832000Y-89622000D02*
X180086000Y-89368000D01*
X179832000Y-92750000D02*
X179832000Y-89622000D01*
X176022000Y-89368000D02*
X172974000Y-86320000D01*
X169672000Y-87122000D02*
X172172000Y-87122000D01*
X172172000Y-87122000D02*
X172974000Y-86320000D01*
X160488000Y-91161000D02*
X160528000Y-91201000D01*
X161798000Y-82042000D02*
X162052000Y-81788000D01*
X162052000Y-86828000D02*
X160488000Y-88392000D01*
X162052000Y-81788000D02*
X162052000Y-86828000D01*
X160488000Y-88392000D02*
X160488000Y-91161000D01*
D26*
X167220800Y-86956800D02*
X167220800Y-83146800D01*
X138176000Y-72136000D02*
X160020000Y-72136000D01*
X178308000Y-109652000D02*
X178232000Y-109728000D01*
X150368000Y-92617000D02*
X151731000Y-93980000D01*
X148590000Y-83566000D02*
X155448000Y-90424000D01*
X153924000Y-93980000D02*
X155448000Y-92456000D01*
X147309805Y-78994000D02*
X140451805Y-72136000D01*
X137414000Y-72898000D02*
X138176000Y-72136000D01*
X148590000Y-81280000D02*
X148590000Y-83566000D01*
X167220800Y-83146800D02*
X165608000Y-81534000D01*
D25*
X144386200Y-102857200D02*
X149110800Y-102857200D01*
X141351000Y-99822000D02*
X144386200Y-102857200D01*
X149110800Y-102857200D02*
X151650800Y-100317200D01*
X138684000Y-99822000D02*
X141351000Y-99822000D01*
X151650800Y-100317200D02*
X151650800Y-97900251D01*
X151650800Y-97900251D02*
X157988000Y-91563051D01*
X131318000Y-98806000D02*
X137668000Y-98806000D01*
X127762000Y-95250000D02*
X131318000Y-98806000D01*
X137668000Y-98806000D02*
X138684000Y-99822000D01*
X157988000Y-91563051D02*
X157988000Y-91201000D01*
%TD*%
%TA.AperFunction,NonConductor*%
G36*
X143598208Y-63774502D02*
G01*
X143644701Y-63828158D01*
X143654805Y-63898432D01*
X143625311Y-63963012D01*
X143603345Y-63983015D01*
X143571478Y-64005787D01*
X143571474Y-64005790D01*
X143567857Y-64008375D01*
X143470717Y-64101042D01*
X143394613Y-64173642D01*
X143373577Y-64193709D01*
X143207350Y-64404568D01*
X143072491Y-64636745D01*
X143070823Y-64640862D01*
X143070820Y-64640869D01*
X142973365Y-64881474D01*
X142971691Y-64885607D01*
X142906962Y-65146190D01*
X142879595Y-65413293D01*
X142879770Y-65417745D01*
X142884405Y-65535707D01*
X142890136Y-65681588D01*
X142892131Y-65692510D01*
X142927459Y-65885947D01*
X142938375Y-65945720D01*
X143023350Y-66200421D01*
X143069336Y-66292453D01*
X143125583Y-66405020D01*
X143143365Y-66440608D01*
X143296024Y-66661488D01*
X143478283Y-66858655D01*
X143481737Y-66861467D01*
X143683048Y-67025360D01*
X143683052Y-67025363D01*
X143686505Y-67028174D01*
X143916535Y-67166664D01*
X143920630Y-67168398D01*
X143920632Y-67168399D01*
X143939764Y-67176500D01*
X144163784Y-67271360D01*
X144168077Y-67272498D01*
X144168082Y-67272500D01*
X144296097Y-67306442D01*
X144423318Y-67340174D01*
X144689958Y-67371733D01*
X144958385Y-67365407D01*
X144962779Y-67364676D01*
X144962786Y-67364675D01*
X145218841Y-67322056D01*
X145218845Y-67322055D01*
X145223243Y-67321323D01*
X145479247Y-67240359D01*
X145483258Y-67238433D01*
X145483263Y-67238431D01*
X145717270Y-67126062D01*
X145717271Y-67126061D01*
X145721289Y-67124132D01*
X145728419Y-67119368D01*
X145940832Y-66977439D01*
X145940836Y-66977436D01*
X145944540Y-66974961D01*
X146144545Y-66795821D01*
X146317314Y-66590287D01*
X146351422Y-66535598D01*
X146457042Y-66366242D01*
X146457042Y-66366241D01*
X146459400Y-66362461D01*
X146567967Y-66116888D01*
X146640849Y-65858467D01*
X146650113Y-65789496D01*
X146676165Y-65595537D01*
X146676166Y-65595529D01*
X146676592Y-65592355D01*
X146678690Y-65525588D01*
X146680242Y-65476222D01*
X146680242Y-65476217D01*
X146680343Y-65473000D01*
X146661380Y-65205169D01*
X146657583Y-65187530D01*
X146605804Y-64947029D01*
X146605804Y-64947027D01*
X146604868Y-64942682D01*
X146511935Y-64690776D01*
X146433436Y-64545292D01*
X146386548Y-64458393D01*
X146384435Y-64454477D01*
X146224912Y-64238501D01*
X146036550Y-64047157D01*
X146033010Y-64044456D01*
X146033004Y-64044450D01*
X145949422Y-63980663D01*
X145907405Y-63923435D01*
X145902997Y-63852575D01*
X145937599Y-63790581D01*
X146000225Y-63757136D01*
X146025864Y-63754500D01*
X156740087Y-63754500D01*
X156808208Y-63774502D01*
X156854701Y-63828158D01*
X156864805Y-63898432D01*
X156835311Y-63963012D01*
X156813345Y-63983015D01*
X156781478Y-64005787D01*
X156781474Y-64005790D01*
X156777857Y-64008375D01*
X156680717Y-64101042D01*
X156604613Y-64173642D01*
X156583577Y-64193709D01*
X156417350Y-64404568D01*
X156282491Y-64636745D01*
X156280823Y-64640862D01*
X156280820Y-64640869D01*
X156183365Y-64881474D01*
X156181691Y-64885607D01*
X156116962Y-65146190D01*
X156089595Y-65413293D01*
X156089770Y-65417745D01*
X156094405Y-65535707D01*
X156100136Y-65681588D01*
X156102131Y-65692510D01*
X156137459Y-65885947D01*
X156148375Y-65945720D01*
X156233350Y-66200421D01*
X156279336Y-66292453D01*
X156335583Y-66405020D01*
X156353365Y-66440608D01*
X156506024Y-66661488D01*
X156688283Y-66858655D01*
X156691737Y-66861467D01*
X156893048Y-67025360D01*
X156893052Y-67025363D01*
X156896505Y-67028174D01*
X157126535Y-67166664D01*
X157130630Y-67168398D01*
X157130632Y-67168399D01*
X157149764Y-67176500D01*
X157373784Y-67271360D01*
X157378077Y-67272498D01*
X157378082Y-67272500D01*
X157506097Y-67306442D01*
X157633318Y-67340174D01*
X157899958Y-67371733D01*
X158168385Y-67365407D01*
X158172779Y-67364676D01*
X158172786Y-67364675D01*
X158428841Y-67322056D01*
X158428845Y-67322055D01*
X158433243Y-67321323D01*
X158689247Y-67240359D01*
X158693258Y-67238433D01*
X158693263Y-67238431D01*
X158927270Y-67126062D01*
X158927271Y-67126061D01*
X158931289Y-67124132D01*
X158938419Y-67119368D01*
X159150832Y-66977439D01*
X159150836Y-66977436D01*
X159154540Y-66974961D01*
X159354545Y-66795821D01*
X159527314Y-66590287D01*
X159561422Y-66535598D01*
X159667042Y-66366242D01*
X159667042Y-66366241D01*
X159669400Y-66362461D01*
X159777967Y-66116888D01*
X159850849Y-65858467D01*
X159860113Y-65789496D01*
X159886165Y-65595537D01*
X159886166Y-65595529D01*
X159886592Y-65592355D01*
X159888690Y-65525588D01*
X159890242Y-65476222D01*
X159890242Y-65476217D01*
X159890343Y-65473000D01*
X159871380Y-65205169D01*
X159867583Y-65187530D01*
X159815804Y-64947029D01*
X159815804Y-64947027D01*
X159814868Y-64942682D01*
X159721935Y-64690776D01*
X159643436Y-64545292D01*
X159596548Y-64458393D01*
X159594435Y-64454477D01*
X159434912Y-64238501D01*
X159246550Y-64047157D01*
X159243010Y-64044456D01*
X159243004Y-64044450D01*
X159159422Y-63980663D01*
X159117405Y-63923435D01*
X159112997Y-63852575D01*
X159147599Y-63790581D01*
X159210225Y-63757136D01*
X159235864Y-63754500D01*
X173760819Y-63754500D01*
X173828940Y-63774502D01*
X173875433Y-63828158D01*
X173885537Y-63898432D01*
X173856043Y-63963012D01*
X173838827Y-63979448D01*
X173636773Y-64138735D01*
X173458909Y-64327810D01*
X173456241Y-64331656D01*
X173317433Y-64531747D01*
X173310945Y-64541099D01*
X173308878Y-64545289D01*
X173308877Y-64545292D01*
X173235073Y-64694953D01*
X173196133Y-64773915D01*
X173116994Y-65021144D01*
X173075268Y-65277356D01*
X173073569Y-65407138D01*
X173072665Y-65476222D01*
X173071870Y-65536920D01*
X173106875Y-65794136D01*
X173108184Y-65798626D01*
X173108185Y-65798632D01*
X173139049Y-65904520D01*
X173179515Y-66043352D01*
X173181473Y-66047599D01*
X173181474Y-66047602D01*
X173222600Y-66136810D01*
X173288194Y-66279094D01*
X173290754Y-66282999D01*
X173290757Y-66283004D01*
X173427957Y-66492270D01*
X173427961Y-66492275D01*
X173430523Y-66496183D01*
X173465702Y-66535598D01*
X173580981Y-66664757D01*
X173603377Y-66689850D01*
X173802959Y-66855839D01*
X174024882Y-66990506D01*
X174029196Y-66992315D01*
X174029200Y-66992317D01*
X174173663Y-67052895D01*
X174264274Y-67090891D01*
X174515873Y-67154789D01*
X174731481Y-67176500D01*
X174885896Y-67176500D01*
X174888221Y-67176327D01*
X174888227Y-67176327D01*
X175074221Y-67162505D01*
X175074225Y-67162504D01*
X175078873Y-67162159D01*
X175332059Y-67104869D01*
X175336413Y-67103176D01*
X175569643Y-67012478D01*
X175569645Y-67012477D01*
X175573996Y-67010785D01*
X175606309Y-66992317D01*
X175754699Y-66907505D01*
X175799369Y-66881974D01*
X176003227Y-66721265D01*
X176181091Y-66532190D01*
X176287272Y-66379131D01*
X176326390Y-66322743D01*
X176326392Y-66322740D01*
X176329055Y-66318901D01*
X176344387Y-66287811D01*
X176441802Y-66090273D01*
X176441803Y-66090270D01*
X176443867Y-66086085D01*
X176451454Y-66062385D01*
X176509999Y-65879490D01*
X176523006Y-65838856D01*
X176562632Y-65595537D01*
X176563981Y-65587256D01*
X176563981Y-65587255D01*
X176564732Y-65582644D01*
X176568130Y-65323080D01*
X176533125Y-65065864D01*
X176520091Y-65021144D01*
X176483760Y-64896500D01*
X176460485Y-64816648D01*
X176351806Y-64580906D01*
X176323189Y-64537257D01*
X176212043Y-64367730D01*
X176212039Y-64367725D01*
X176209477Y-64363817D01*
X176123050Y-64266983D01*
X176039740Y-64173642D01*
X176039738Y-64173640D01*
X176036623Y-64170150D01*
X175837041Y-64004161D01*
X175833049Y-64001739D01*
X175833044Y-64001735D01*
X175810769Y-63988218D01*
X175762909Y-63935779D01*
X175750998Y-63865788D01*
X175778817Y-63800469D01*
X175837534Y-63760559D01*
X175876136Y-63754500D01*
X182260819Y-63754500D01*
X182328940Y-63774502D01*
X182375433Y-63828158D01*
X182385537Y-63898432D01*
X182356043Y-63963012D01*
X182338827Y-63979448D01*
X182136773Y-64138735D01*
X181958909Y-64327810D01*
X181956241Y-64331656D01*
X181817433Y-64531747D01*
X181810945Y-64541099D01*
X181808878Y-64545289D01*
X181808877Y-64545292D01*
X181735073Y-64694953D01*
X181696133Y-64773915D01*
X181616994Y-65021144D01*
X181575268Y-65277356D01*
X181573569Y-65407138D01*
X181572665Y-65476222D01*
X181571870Y-65536920D01*
X181606875Y-65794136D01*
X181608184Y-65798626D01*
X181608185Y-65798632D01*
X181639049Y-65904520D01*
X181679515Y-66043352D01*
X181681473Y-66047599D01*
X181681474Y-66047602D01*
X181722600Y-66136810D01*
X181788194Y-66279094D01*
X181790754Y-66282999D01*
X181790757Y-66283004D01*
X181927957Y-66492270D01*
X181927961Y-66492275D01*
X181930523Y-66496183D01*
X181965702Y-66535598D01*
X182080981Y-66664757D01*
X182103377Y-66689850D01*
X182302959Y-66855839D01*
X182524882Y-66990506D01*
X182529196Y-66992315D01*
X182529200Y-66992317D01*
X182673663Y-67052895D01*
X182764274Y-67090891D01*
X183015873Y-67154789D01*
X183231481Y-67176500D01*
X183385896Y-67176500D01*
X183388221Y-67176327D01*
X183388227Y-67176327D01*
X183574221Y-67162505D01*
X183574225Y-67162504D01*
X183578873Y-67162159D01*
X183832059Y-67104869D01*
X183836413Y-67103176D01*
X184069643Y-67012478D01*
X184069645Y-67012477D01*
X184073996Y-67010785D01*
X184106309Y-66992317D01*
X184254699Y-66907505D01*
X184299369Y-66881974D01*
X184503227Y-66721265D01*
X184681091Y-66532190D01*
X184787272Y-66379131D01*
X184826390Y-66322743D01*
X184826392Y-66322740D01*
X184829055Y-66318901D01*
X184844387Y-66287811D01*
X184941802Y-66090273D01*
X184941803Y-66090270D01*
X184943867Y-66086085D01*
X184951454Y-66062385D01*
X185009999Y-65879490D01*
X185023006Y-65838856D01*
X185062632Y-65595537D01*
X185063981Y-65587256D01*
X185063981Y-65587255D01*
X185064732Y-65582644D01*
X185068130Y-65323080D01*
X185033125Y-65065864D01*
X185020091Y-65021144D01*
X184983760Y-64896500D01*
X184960485Y-64816648D01*
X184851806Y-64580906D01*
X184823189Y-64537257D01*
X184712043Y-64367730D01*
X184712039Y-64367725D01*
X184709477Y-64363817D01*
X184623050Y-64266983D01*
X184539740Y-64173642D01*
X184539738Y-64173640D01*
X184536623Y-64170150D01*
X184337041Y-64004161D01*
X184333049Y-64001739D01*
X184333044Y-64001735D01*
X184310769Y-63988218D01*
X184262909Y-63935779D01*
X184250998Y-63865788D01*
X184278817Y-63800469D01*
X184337534Y-63760559D01*
X184376136Y-63754500D01*
X185411182Y-63754500D01*
X185479303Y-63774502D01*
X185500278Y-63791405D01*
X185636596Y-63927724D01*
X185670621Y-63990036D01*
X185673500Y-64016819D01*
X185673500Y-112513181D01*
X185653498Y-112581302D01*
X185636596Y-112602276D01*
X185500278Y-112738595D01*
X185437966Y-112772620D01*
X185411182Y-112775500D01*
X117864819Y-112775500D01*
X117796698Y-112755498D01*
X117775724Y-112738596D01*
X117639405Y-112602278D01*
X117605380Y-112539966D01*
X117602500Y-112513182D01*
X117602500Y-87372435D01*
X120898588Y-87372435D01*
X120902941Y-87418485D01*
X120903500Y-87430343D01*
X120903500Y-89091724D01*
X120902763Y-89105332D01*
X120899714Y-89133402D01*
X120898638Y-89143304D01*
X120901575Y-89176870D01*
X120903046Y-89193690D01*
X120903375Y-89198518D01*
X120903500Y-89201073D01*
X120903500Y-89204157D01*
X120903801Y-89207224D01*
X120907722Y-89247219D01*
X120907844Y-89248532D01*
X120910206Y-89275523D01*
X120916012Y-89341892D01*
X120917511Y-89347052D01*
X120918035Y-89352394D01*
X120943802Y-89437737D01*
X120945098Y-89442031D01*
X120945455Y-89443236D01*
X120971628Y-89533322D01*
X120974100Y-89538090D01*
X120975652Y-89543232D01*
X120978547Y-89548677D01*
X120978550Y-89548684D01*
X121019633Y-89625950D01*
X121020213Y-89627054D01*
X121063366Y-89710304D01*
X121066718Y-89714503D01*
X121069239Y-89719244D01*
X121073131Y-89724016D01*
X121128438Y-89791829D01*
X121129266Y-89792855D01*
X121147681Y-89815922D01*
X121160768Y-89832316D01*
X121163263Y-89834811D01*
X121163973Y-89835605D01*
X121167693Y-89839960D01*
X121191337Y-89868951D01*
X121191340Y-89868954D01*
X121195232Y-89873726D01*
X121199980Y-89877654D01*
X121199981Y-89877655D01*
X121230873Y-89903211D01*
X121239652Y-89911200D01*
X123660595Y-92332143D01*
X123694621Y-92394455D01*
X123697500Y-92421238D01*
X123697500Y-105347724D01*
X123696763Y-105361332D01*
X123692638Y-105399304D01*
X123693175Y-105405439D01*
X123697046Y-105449690D01*
X123697375Y-105454518D01*
X123697500Y-105457073D01*
X123697500Y-105460157D01*
X123697801Y-105463224D01*
X123701722Y-105503219D01*
X123701844Y-105504532D01*
X123710012Y-105597892D01*
X123711511Y-105603052D01*
X123712035Y-105608394D01*
X123738302Y-105695393D01*
X123739098Y-105698031D01*
X123739455Y-105699236D01*
X123765628Y-105789322D01*
X123768100Y-105794090D01*
X123769652Y-105799232D01*
X123772547Y-105804677D01*
X123772550Y-105804684D01*
X123813633Y-105881950D01*
X123814213Y-105883054D01*
X123857366Y-105966304D01*
X123860718Y-105970503D01*
X123863239Y-105975244D01*
X123867131Y-105980016D01*
X123922438Y-106047829D01*
X123923266Y-106048855D01*
X123949605Y-106081849D01*
X123954768Y-106088316D01*
X123957263Y-106090811D01*
X123957973Y-106091605D01*
X123961693Y-106095960D01*
X123985337Y-106124951D01*
X123985340Y-106124954D01*
X123989232Y-106129726D01*
X123993980Y-106133654D01*
X123993981Y-106133655D01*
X124024873Y-106159211D01*
X124033652Y-106167200D01*
X127463923Y-109597471D01*
X127497949Y-109659783D01*
X127500828Y-109686566D01*
X127500828Y-109814134D01*
X127507583Y-109876316D01*
X127558713Y-110012705D01*
X127646067Y-110129261D01*
X127762623Y-110216615D01*
X127899012Y-110267745D01*
X127961194Y-110274500D01*
X129657462Y-110274500D01*
X129719644Y-110267745D01*
X129856033Y-110216615D01*
X129972589Y-110129261D01*
X130059943Y-110012705D01*
X130111073Y-109876316D01*
X130117828Y-109814134D01*
X130117828Y-108607910D01*
X130137830Y-108539789D01*
X130154733Y-108518815D01*
X133188143Y-105485405D01*
X133250455Y-105451379D01*
X133277238Y-105448500D01*
X133690134Y-105448500D01*
X133752316Y-105441745D01*
X133888705Y-105390615D01*
X134005261Y-105303261D01*
X134092615Y-105186705D01*
X134143745Y-105050316D01*
X134150500Y-104988134D01*
X134150500Y-103291866D01*
X134143745Y-103229684D01*
X134092615Y-103093295D01*
X134005261Y-102976739D01*
X133888705Y-102889385D01*
X133752316Y-102838255D01*
X133690134Y-102831500D01*
X131993866Y-102831500D01*
X131931684Y-102838255D01*
X131795295Y-102889385D01*
X131678739Y-102976739D01*
X131591385Y-103093295D01*
X131540255Y-103229684D01*
X131533500Y-103291866D01*
X131533500Y-104212761D01*
X131513498Y-104280882D01*
X131496595Y-104301856D01*
X129903796Y-105894656D01*
X128359095Y-107439357D01*
X128296783Y-107473383D01*
X128225968Y-107468318D01*
X128180905Y-107439357D01*
X125767405Y-105025857D01*
X125733379Y-104963545D01*
X125730500Y-104936762D01*
X125730500Y-92010276D01*
X125731237Y-91996668D01*
X125734697Y-91964821D01*
X125734697Y-91964817D01*
X125735362Y-91958696D01*
X125734825Y-91952557D01*
X125732871Y-91930215D01*
X125746861Y-91860611D01*
X125796262Y-91809619D01*
X125865388Y-91793430D01*
X125932293Y-91817184D01*
X125947487Y-91830141D01*
X126403364Y-92286018D01*
X126437390Y-92348330D01*
X126435686Y-92408785D01*
X126424370Y-92449588D01*
X126424369Y-92449596D01*
X126422989Y-92454570D01*
X126422441Y-92459700D01*
X126422440Y-92459704D01*
X126414006Y-92538631D01*
X126399251Y-92676695D01*
X126399548Y-92681848D01*
X126399548Y-92681851D01*
X126411730Y-92893118D01*
X126412110Y-92899715D01*
X126413247Y-92904761D01*
X126413248Y-92904767D01*
X126428537Y-92972607D01*
X126461222Y-93117639D01*
X126545266Y-93324616D01*
X126579037Y-93379726D01*
X126619284Y-93445402D01*
X126661987Y-93515088D01*
X126808250Y-93683938D01*
X126980126Y-93826632D01*
X127050595Y-93867811D01*
X127053445Y-93869476D01*
X127102169Y-93921114D01*
X127115240Y-93990897D01*
X127088509Y-94056669D01*
X127048055Y-94090027D01*
X127035607Y-94096507D01*
X127031474Y-94099610D01*
X127031471Y-94099612D01*
X126890303Y-94205604D01*
X126856965Y-94230635D01*
X126702629Y-94392138D01*
X126699715Y-94396410D01*
X126699714Y-94396411D01*
X126646982Y-94473713D01*
X126576743Y-94576680D01*
X126540512Y-94654733D01*
X126505412Y-94730351D01*
X126482688Y-94779305D01*
X126422989Y-94994570D01*
X126399251Y-95216695D01*
X126399548Y-95221848D01*
X126399548Y-95221851D01*
X126407459Y-95359050D01*
X126412110Y-95439715D01*
X126413247Y-95444761D01*
X126413248Y-95444767D01*
X126418535Y-95468225D01*
X126461222Y-95657639D01*
X126545266Y-95864616D01*
X126661987Y-96055088D01*
X126808250Y-96223938D01*
X126980126Y-96366632D01*
X127016685Y-96387995D01*
X127053445Y-96409476D01*
X127102169Y-96461114D01*
X127115240Y-96530897D01*
X127088509Y-96596669D01*
X127048055Y-96630027D01*
X127035607Y-96636507D01*
X127031474Y-96639610D01*
X127031471Y-96639612D01*
X126881069Y-96752537D01*
X126856965Y-96770635D01*
X126702629Y-96932138D01*
X126576743Y-97116680D01*
X126547117Y-97180505D01*
X126491298Y-97300757D01*
X126482688Y-97319305D01*
X126422989Y-97534570D01*
X126399251Y-97756695D01*
X126399548Y-97761848D01*
X126399548Y-97761851D01*
X126405202Y-97859908D01*
X126412110Y-97979715D01*
X126413247Y-97984761D01*
X126413248Y-97984767D01*
X126424804Y-98036042D01*
X126461222Y-98197639D01*
X126509678Y-98316973D01*
X126526322Y-98357961D01*
X126545266Y-98404616D01*
X126547965Y-98409020D01*
X126658740Y-98589789D01*
X126661987Y-98595088D01*
X126808250Y-98763938D01*
X126980126Y-98906632D01*
X127047505Y-98946005D01*
X127053445Y-98949476D01*
X127102169Y-99001114D01*
X127115240Y-99070897D01*
X127088509Y-99136669D01*
X127048055Y-99170027D01*
X127035607Y-99176507D01*
X127031474Y-99179610D01*
X127031471Y-99179612D01*
X126861100Y-99307530D01*
X126856965Y-99310635D01*
X126853393Y-99314373D01*
X126712996Y-99461290D01*
X126702629Y-99472138D01*
X126576743Y-99656680D01*
X126568135Y-99675225D01*
X126516558Y-99786339D01*
X126482688Y-99859305D01*
X126422989Y-100074570D01*
X126399251Y-100296695D01*
X126399548Y-100301842D01*
X126399548Y-100301851D01*
X126405131Y-100398669D01*
X126412110Y-100519715D01*
X126413247Y-100524761D01*
X126413248Y-100524767D01*
X126435391Y-100623019D01*
X126461222Y-100737639D01*
X126545266Y-100944616D01*
X126547965Y-100949020D01*
X126652956Y-101120350D01*
X126661987Y-101135088D01*
X126808250Y-101303938D01*
X126980126Y-101446632D01*
X127173000Y-101559338D01*
X127177825Y-101561180D01*
X127177826Y-101561181D01*
X127245992Y-101587211D01*
X127381692Y-101639030D01*
X127386760Y-101640061D01*
X127386763Y-101640062D01*
X127476834Y-101658387D01*
X127600597Y-101683567D01*
X127605772Y-101683757D01*
X127605774Y-101683757D01*
X127818673Y-101691564D01*
X127818677Y-101691564D01*
X127823837Y-101691753D01*
X127828957Y-101691097D01*
X127828959Y-101691097D01*
X127898153Y-101682233D01*
X128045416Y-101663368D01*
X128050369Y-101661882D01*
X128050374Y-101661881D01*
X128062019Y-101658387D01*
X128133014Y-101657969D01*
X128187323Y-101689977D01*
X128545393Y-102048047D01*
X128551246Y-102054312D01*
X128586524Y-102094752D01*
X128592742Y-102099122D01*
X128635084Y-102128880D01*
X128640380Y-102132813D01*
X128687121Y-102169463D01*
X128694045Y-102172589D01*
X128700176Y-102176302D01*
X128704796Y-102178938D01*
X128711178Y-102182360D01*
X128717397Y-102186731D01*
X128724476Y-102189491D01*
X128772713Y-102208298D01*
X128778792Y-102210854D01*
X128832912Y-102235289D01*
X128840388Y-102236675D01*
X128847266Y-102238830D01*
X128852391Y-102240290D01*
X128859355Y-102242078D01*
X128866434Y-102244838D01*
X128873966Y-102245830D01*
X128873968Y-102245830D01*
X128899196Y-102249151D01*
X128925300Y-102252587D01*
X128931798Y-102253616D01*
X128990197Y-102264440D01*
X128997777Y-102264003D01*
X128997778Y-102264003D01*
X129047967Y-102261109D01*
X129055220Y-102260900D01*
X135959792Y-102260900D01*
X136027913Y-102280902D01*
X136063005Y-102314629D01*
X136150643Y-102439789D01*
X136153802Y-102444300D01*
X136315700Y-102606198D01*
X136320208Y-102609355D01*
X136320211Y-102609357D01*
X136323760Y-102611842D01*
X136503251Y-102737523D01*
X136508233Y-102739846D01*
X136508238Y-102739849D01*
X136705578Y-102831869D01*
X136710757Y-102834284D01*
X136716065Y-102835706D01*
X136716067Y-102835707D01*
X136926598Y-102892119D01*
X136926600Y-102892119D01*
X136931913Y-102893543D01*
X137160000Y-102913498D01*
X137388087Y-102893543D01*
X137393398Y-102892120D01*
X137393409Y-102892118D01*
X137420980Y-102884730D01*
X137491956Y-102886419D01*
X137542687Y-102917341D01*
X138873329Y-104247983D01*
X138907355Y-104310295D01*
X138902290Y-104381110D01*
X138873329Y-104426173D01*
X138733802Y-104565700D01*
X138730645Y-104570208D01*
X138730643Y-104570211D01*
X138698305Y-104616395D01*
X138602477Y-104753251D01*
X138600154Y-104758233D01*
X138600151Y-104758238D01*
X138564569Y-104834545D01*
X138505716Y-104960757D01*
X138504294Y-104966065D01*
X138504293Y-104966067D01*
X138479736Y-105057715D01*
X138446457Y-105181913D01*
X138426502Y-105410000D01*
X138446457Y-105638087D01*
X138447881Y-105643400D01*
X138447881Y-105643402D01*
X138486981Y-105789322D01*
X138505716Y-105859243D01*
X138508039Y-105864224D01*
X138508039Y-105864225D01*
X138600151Y-106061762D01*
X138600154Y-106061767D01*
X138602477Y-106066749D01*
X138643231Y-106124951D01*
X138721004Y-106236022D01*
X138733802Y-106254300D01*
X138895700Y-106416198D01*
X138900208Y-106419355D01*
X138900211Y-106419357D01*
X138978389Y-106474098D01*
X139083251Y-106547523D01*
X139088233Y-106549846D01*
X139088238Y-106549849D01*
X139202428Y-106603096D01*
X139290757Y-106644284D01*
X139296065Y-106645706D01*
X139296067Y-106645707D01*
X139506598Y-106702119D01*
X139506600Y-106702119D01*
X139511913Y-106703543D01*
X139740000Y-106723498D01*
X139968087Y-106703543D01*
X139973400Y-106702119D01*
X139973402Y-106702119D01*
X140183933Y-106645707D01*
X140183935Y-106645706D01*
X140189243Y-106644284D01*
X140277572Y-106603096D01*
X140391762Y-106549849D01*
X140391767Y-106549846D01*
X140396749Y-106547523D01*
X140501611Y-106474098D01*
X140579789Y-106419357D01*
X140579792Y-106419355D01*
X140584300Y-106416198D01*
X140746198Y-106254300D01*
X140758997Y-106236022D01*
X140836769Y-106124951D01*
X140877523Y-106066749D01*
X140879846Y-106061767D01*
X140879849Y-106061762D01*
X140971961Y-105864225D01*
X140971961Y-105864224D01*
X140974284Y-105859243D01*
X140993020Y-105789322D01*
X141032119Y-105643402D01*
X141032119Y-105643400D01*
X141033543Y-105638087D01*
X141053498Y-105410000D01*
X141033543Y-105181913D01*
X141000264Y-105057715D01*
X140975707Y-104966067D01*
X140975706Y-104966065D01*
X140974284Y-104960757D01*
X140915431Y-104834545D01*
X140879849Y-104758238D01*
X140879846Y-104758233D01*
X140877523Y-104753251D01*
X140781695Y-104616395D01*
X140749357Y-104570211D01*
X140749355Y-104570208D01*
X140746198Y-104565700D01*
X140584300Y-104403802D01*
X140579792Y-104400645D01*
X140579789Y-104400643D01*
X140454629Y-104313005D01*
X140410301Y-104257548D01*
X140400900Y-104209792D01*
X140400900Y-104207263D01*
X140401192Y-104198692D01*
X140402359Y-104181569D01*
X140404842Y-104145157D01*
X140394631Y-104086653D01*
X140393669Y-104080131D01*
X140387450Y-104028738D01*
X140387450Y-104028736D01*
X140386537Y-104021195D01*
X140383851Y-104014087D01*
X140382140Y-104007121D01*
X140380721Y-104001932D01*
X140378644Y-103995053D01*
X140377339Y-103987576D01*
X140353471Y-103933205D01*
X140350986Y-103927114D01*
X140332679Y-103878664D01*
X140332678Y-103878662D01*
X140329994Y-103871559D01*
X140325691Y-103865298D01*
X140322385Y-103858974D01*
X140319729Y-103854202D01*
X140316094Y-103848056D01*
X140313042Y-103841104D01*
X140276898Y-103793999D01*
X140273037Y-103788686D01*
X140272139Y-103787380D01*
X140250025Y-103719916D01*
X140267896Y-103651205D01*
X140320077Y-103603063D01*
X140390002Y-103590775D01*
X140408576Y-103594285D01*
X140482591Y-103614118D01*
X140482602Y-103614120D01*
X140487913Y-103615543D01*
X140716000Y-103635498D01*
X140944087Y-103615543D01*
X140949398Y-103614120D01*
X140949409Y-103614118D01*
X140976980Y-103606730D01*
X141047956Y-103608419D01*
X141098687Y-103639341D01*
X143317393Y-105858047D01*
X143323246Y-105864312D01*
X143358524Y-105904752D01*
X143364735Y-105909117D01*
X143364738Y-105909120D01*
X143407107Y-105938897D01*
X143412402Y-105942830D01*
X143459121Y-105979462D01*
X143466046Y-105982589D01*
X143472223Y-105986330D01*
X143476802Y-105988942D01*
X143483180Y-105992362D01*
X143489397Y-105996731D01*
X143542648Y-106017492D01*
X143598848Y-106060873D01*
X143602006Y-106065738D01*
X143602477Y-106066749D01*
X143605005Y-106070359D01*
X143605008Y-106070364D01*
X143721004Y-106236022D01*
X143733802Y-106254300D01*
X143895700Y-106416198D01*
X143900208Y-106419355D01*
X143900211Y-106419357D01*
X144025371Y-106506995D01*
X144069699Y-106562452D01*
X144079100Y-106610208D01*
X144079100Y-108390737D01*
X144078808Y-108399309D01*
X144075322Y-108450434D01*
X144063809Y-108495111D01*
X144056041Y-108511770D01*
X144053716Y-108516757D01*
X144052294Y-108522065D01*
X144052293Y-108522067D01*
X143995881Y-108732598D01*
X143994457Y-108737913D01*
X143974502Y-108966000D01*
X143994457Y-109194087D01*
X144053716Y-109415243D01*
X144056039Y-109420224D01*
X144056039Y-109420225D01*
X144148151Y-109617762D01*
X144148154Y-109617767D01*
X144150477Y-109622749D01*
X144197054Y-109689268D01*
X144249926Y-109764776D01*
X144281802Y-109810300D01*
X144443700Y-109972198D01*
X144448208Y-109975355D01*
X144448211Y-109975357D01*
X144489542Y-110004297D01*
X144631251Y-110103523D01*
X144636233Y-110105846D01*
X144636238Y-110105849D01*
X144789345Y-110177243D01*
X144838757Y-110200284D01*
X144844065Y-110201706D01*
X144844067Y-110201707D01*
X145054598Y-110258119D01*
X145054600Y-110258119D01*
X145059913Y-110259543D01*
X145288000Y-110279498D01*
X145516087Y-110259543D01*
X145521400Y-110258119D01*
X145521402Y-110258119D01*
X145731933Y-110201707D01*
X145731935Y-110201706D01*
X145737243Y-110200284D01*
X145786655Y-110177243D01*
X145939762Y-110105849D01*
X145939767Y-110105846D01*
X145944749Y-110103523D01*
X146086458Y-110004297D01*
X146127789Y-109975357D01*
X146127792Y-109975355D01*
X146132300Y-109972198D01*
X146294198Y-109810300D01*
X146326075Y-109764776D01*
X146378946Y-109689268D01*
X146425523Y-109622749D01*
X146427846Y-109617767D01*
X146427849Y-109617762D01*
X146519961Y-109420225D01*
X146519961Y-109420224D01*
X146522284Y-109415243D01*
X146581543Y-109194087D01*
X146601498Y-108966000D01*
X146581543Y-108737913D01*
X146580119Y-108732598D01*
X146523707Y-108522067D01*
X146523706Y-108522065D01*
X146522284Y-108516757D01*
X146512623Y-108496039D01*
X146427849Y-108314238D01*
X146427846Y-108314233D01*
X146425523Y-108309251D01*
X146294198Y-108121700D01*
X146132300Y-107959802D01*
X146127792Y-107956645D01*
X146127789Y-107956643D01*
X146019428Y-107880768D01*
X145944749Y-107828477D01*
X145939767Y-107826154D01*
X145939762Y-107826151D01*
X145742225Y-107734039D01*
X145742224Y-107734039D01*
X145737243Y-107731716D01*
X145731935Y-107730294D01*
X145731933Y-107730293D01*
X145631328Y-107703336D01*
X145516087Y-107672457D01*
X145510598Y-107671977D01*
X145505194Y-107671024D01*
X145505646Y-107668458D01*
X145449675Y-107646482D01*
X145408108Y-107588926D01*
X145400900Y-107546922D01*
X145400900Y-106610208D01*
X145420902Y-106542087D01*
X145454629Y-106506995D01*
X145579789Y-106419357D01*
X145579792Y-106419355D01*
X145584300Y-106416198D01*
X145746198Y-106254300D01*
X145758997Y-106236022D01*
X145836769Y-106124951D01*
X145877523Y-106066749D01*
X145879846Y-106061767D01*
X145879849Y-106061762D01*
X145971961Y-105864225D01*
X145971961Y-105864224D01*
X145974284Y-105859243D01*
X145993020Y-105789322D01*
X146032119Y-105643402D01*
X146032119Y-105643400D01*
X146033543Y-105638087D01*
X146053498Y-105410000D01*
X146033543Y-105181913D01*
X146000264Y-105057715D01*
X145975707Y-104966067D01*
X145975706Y-104966065D01*
X145974284Y-104960757D01*
X145915431Y-104834545D01*
X145879849Y-104758238D01*
X145879846Y-104758233D01*
X145877523Y-104753251D01*
X145871867Y-104745173D01*
X145849177Y-104677900D01*
X145866460Y-104609039D01*
X145918229Y-104560454D01*
X145975078Y-104546900D01*
X149578737Y-104546900D01*
X149587308Y-104547192D01*
X149640843Y-104550842D01*
X149648320Y-104549537D01*
X149648321Y-104549537D01*
X149673626Y-104545121D01*
X149699347Y-104540631D01*
X149705865Y-104539670D01*
X149724223Y-104537448D01*
X149757262Y-104533450D01*
X149757264Y-104533450D01*
X149764805Y-104532537D01*
X149771913Y-104529851D01*
X149778879Y-104528140D01*
X149784068Y-104526721D01*
X149790947Y-104524644D01*
X149798424Y-104523339D01*
X149852795Y-104499471D01*
X149858886Y-104496986D01*
X149863878Y-104495100D01*
X149883475Y-104487695D01*
X149907336Y-104478679D01*
X149907338Y-104478678D01*
X149914441Y-104475994D01*
X149920702Y-104471691D01*
X149927026Y-104468385D01*
X149931798Y-104465729D01*
X149937944Y-104462094D01*
X149944896Y-104459042D01*
X149992001Y-104422898D01*
X149997334Y-104419023D01*
X150008699Y-104411212D01*
X150046271Y-104385389D01*
X150084769Y-104342180D01*
X150089749Y-104336905D01*
X153356047Y-101070607D01*
X153362313Y-101064753D01*
X153397025Y-101034472D01*
X153402752Y-101029476D01*
X153436882Y-100980913D01*
X153440814Y-100975618D01*
X153468877Y-100939829D01*
X153477463Y-100928879D01*
X153480589Y-100921955D01*
X153484302Y-100915824D01*
X153486938Y-100911204D01*
X153490360Y-100904822D01*
X153494731Y-100898603D01*
X153516299Y-100843286D01*
X153518854Y-100837207D01*
X153540161Y-100790015D01*
X153543289Y-100783088D01*
X153544675Y-100775612D01*
X153546830Y-100768734D01*
X153548290Y-100763609D01*
X153550078Y-100756645D01*
X153552838Y-100749566D01*
X153560587Y-100690700D01*
X153561618Y-100684189D01*
X153572440Y-100625803D01*
X153571766Y-100614104D01*
X153569109Y-100568033D01*
X153568900Y-100560780D01*
X153568900Y-100421208D01*
X153588902Y-100353087D01*
X153622629Y-100317995D01*
X153747789Y-100230357D01*
X153747792Y-100230355D01*
X153752300Y-100227198D01*
X153914198Y-100065300D01*
X154045523Y-99877749D01*
X154047846Y-99872767D01*
X154047849Y-99872762D01*
X154139961Y-99675225D01*
X154139961Y-99675224D01*
X154142284Y-99670243D01*
X154195367Y-99472138D01*
X154200119Y-99454402D01*
X154200119Y-99454400D01*
X154201543Y-99449087D01*
X154216500Y-99278127D01*
X154216500Y-98363873D01*
X154201543Y-98192913D01*
X154195594Y-98170711D01*
X154143707Y-97977067D01*
X154143706Y-97977065D01*
X154142284Y-97971757D01*
X154097727Y-97876203D01*
X154047849Y-97769238D01*
X154047846Y-97769233D01*
X154045523Y-97764251D01*
X153945507Y-97621414D01*
X153917357Y-97581211D01*
X153917355Y-97581208D01*
X153914198Y-97576700D01*
X153752300Y-97414802D01*
X153747792Y-97411645D01*
X153747789Y-97411643D01*
X153659399Y-97349752D01*
X153564749Y-97283477D01*
X153559761Y-97281151D01*
X153559758Y-97281149D01*
X153480602Y-97244239D01*
X153427317Y-97197323D01*
X153407855Y-97129045D01*
X153428396Y-97061085D01*
X153444756Y-97040949D01*
X157575383Y-92910322D01*
X157637695Y-92876296D01*
X157697088Y-92877710D01*
X157737046Y-92888416D01*
X157759913Y-92894543D01*
X157988000Y-92914498D01*
X158216087Y-92894543D01*
X158221400Y-92893119D01*
X158221402Y-92893119D01*
X158431933Y-92836707D01*
X158431935Y-92836706D01*
X158437243Y-92835284D01*
X158497142Y-92807353D01*
X158639762Y-92740849D01*
X158639767Y-92740846D01*
X158644749Y-92738523D01*
X158753606Y-92662300D01*
X158827789Y-92610357D01*
X158827792Y-92610355D01*
X158832300Y-92607198D01*
X158994198Y-92445300D01*
X159011047Y-92421238D01*
X159062097Y-92348330D01*
X159125523Y-92257749D01*
X159127846Y-92252767D01*
X159127849Y-92252762D01*
X159143805Y-92218543D01*
X159190722Y-92165258D01*
X159258999Y-92145797D01*
X159326959Y-92166339D01*
X159372195Y-92218543D01*
X159388151Y-92252762D01*
X159388154Y-92252767D01*
X159390477Y-92257749D01*
X159453903Y-92348330D01*
X159504954Y-92421238D01*
X159521802Y-92445300D01*
X159683700Y-92607198D01*
X159688208Y-92610355D01*
X159688211Y-92610357D01*
X159762394Y-92662300D01*
X159871251Y-92738523D01*
X159876233Y-92740846D01*
X159876238Y-92740849D01*
X160018858Y-92807353D01*
X160078757Y-92835284D01*
X160084065Y-92836706D01*
X160084067Y-92836707D01*
X160294598Y-92893119D01*
X160294600Y-92893119D01*
X160299913Y-92894543D01*
X160528000Y-92914498D01*
X160756087Y-92894543D01*
X160761400Y-92893119D01*
X160761402Y-92893119D01*
X160977243Y-92835284D01*
X160977842Y-92837520D01*
X161038816Y-92833623D01*
X161100869Y-92868120D01*
X161134420Y-92930688D01*
X161137100Y-92956537D01*
X161137100Y-93654056D01*
X161117098Y-93722177D01*
X161100195Y-93743151D01*
X160079961Y-94763386D01*
X160073696Y-94769239D01*
X160033248Y-94804524D01*
X160000597Y-94850982D01*
X159999109Y-94853099D01*
X159995177Y-94858393D01*
X159958537Y-94905121D01*
X159955411Y-94912045D01*
X159951698Y-94918176D01*
X159949062Y-94922796D01*
X159945640Y-94929178D01*
X159941269Y-94935397D01*
X159924424Y-94978603D01*
X159919702Y-94990713D01*
X159917146Y-94996792D01*
X159892711Y-95050912D01*
X159891325Y-95058388D01*
X159889170Y-95065266D01*
X159887710Y-95070391D01*
X159885922Y-95077355D01*
X159883162Y-95084434D01*
X159882170Y-95091966D01*
X159882170Y-95091968D01*
X159875414Y-95143292D01*
X159874384Y-95149798D01*
X159863560Y-95208197D01*
X159863997Y-95215777D01*
X159863997Y-95215778D01*
X159866891Y-95265967D01*
X159867100Y-95273220D01*
X159867100Y-97220792D01*
X159847098Y-97288913D01*
X159813371Y-97324005D01*
X159688211Y-97411643D01*
X159688208Y-97411645D01*
X159683700Y-97414802D01*
X159521802Y-97576700D01*
X159518645Y-97581208D01*
X159518643Y-97581211D01*
X159490493Y-97621414D01*
X159390477Y-97764251D01*
X159388154Y-97769233D01*
X159388151Y-97769238D01*
X159372195Y-97803457D01*
X159325278Y-97856742D01*
X159257001Y-97876203D01*
X159189041Y-97855661D01*
X159143805Y-97803457D01*
X159127849Y-97769238D01*
X159127846Y-97769233D01*
X159125523Y-97764251D01*
X159025507Y-97621414D01*
X158997357Y-97581211D01*
X158997355Y-97581208D01*
X158994198Y-97576700D01*
X158832300Y-97414802D01*
X158827792Y-97411645D01*
X158827789Y-97411643D01*
X158739399Y-97349752D01*
X158644749Y-97283477D01*
X158639767Y-97281154D01*
X158639762Y-97281151D01*
X158442225Y-97189039D01*
X158442224Y-97189039D01*
X158437243Y-97186716D01*
X158431935Y-97185294D01*
X158431933Y-97185293D01*
X158221402Y-97128881D01*
X158221400Y-97128881D01*
X158216087Y-97127457D01*
X157988000Y-97107502D01*
X157759913Y-97127457D01*
X157754600Y-97128881D01*
X157754598Y-97128881D01*
X157544067Y-97185293D01*
X157544065Y-97185294D01*
X157538757Y-97186716D01*
X157533776Y-97189039D01*
X157533775Y-97189039D01*
X157336238Y-97281151D01*
X157336233Y-97281154D01*
X157331251Y-97283477D01*
X157236601Y-97349752D01*
X157148211Y-97411643D01*
X157148208Y-97411645D01*
X157143700Y-97414802D01*
X156981802Y-97576700D01*
X156978645Y-97581208D01*
X156978643Y-97581211D01*
X156950493Y-97621414D01*
X156850477Y-97764251D01*
X156848154Y-97769233D01*
X156848151Y-97769238D01*
X156798273Y-97876203D01*
X156753716Y-97971757D01*
X156752294Y-97977065D01*
X156752293Y-97977067D01*
X156700406Y-98170711D01*
X156694457Y-98192913D01*
X156679500Y-98363873D01*
X156679500Y-99278127D01*
X156694457Y-99449087D01*
X156695881Y-99454400D01*
X156695881Y-99454402D01*
X156700634Y-99472138D01*
X156753716Y-99670243D01*
X156756039Y-99675224D01*
X156756039Y-99675225D01*
X156848151Y-99872762D01*
X156848154Y-99872767D01*
X156850477Y-99877749D01*
X156981802Y-100065300D01*
X157143700Y-100227198D01*
X157148208Y-100230355D01*
X157148211Y-100230357D01*
X157313371Y-100346003D01*
X157357699Y-100401460D01*
X157367100Y-100449216D01*
X157367100Y-100653792D01*
X157347098Y-100721913D01*
X157313371Y-100757005D01*
X157188211Y-100844643D01*
X157188208Y-100844645D01*
X157183700Y-100847802D01*
X157021802Y-101009700D01*
X157018645Y-101014208D01*
X157018643Y-101014211D01*
X156979154Y-101070607D01*
X156890477Y-101197251D01*
X156888154Y-101202233D01*
X156888151Y-101202238D01*
X156798652Y-101394171D01*
X156793716Y-101404757D01*
X156792294Y-101410065D01*
X156792293Y-101410067D01*
X156741400Y-101600000D01*
X156734457Y-101625913D01*
X156714502Y-101854000D01*
X156734457Y-102082087D01*
X156735881Y-102087400D01*
X156735881Y-102087402D01*
X156783202Y-102264003D01*
X156793716Y-102303243D01*
X156796039Y-102308224D01*
X156796039Y-102308225D01*
X156888151Y-102505762D01*
X156888154Y-102505767D01*
X156890477Y-102510749D01*
X157021802Y-102698300D01*
X157183700Y-102860198D01*
X157188208Y-102863355D01*
X157188211Y-102863357D01*
X157313371Y-102950995D01*
X157357699Y-103006452D01*
X157367100Y-103054208D01*
X157367100Y-107374737D01*
X157366808Y-107383308D01*
X157363158Y-107436843D01*
X157364463Y-107444320D01*
X157364463Y-107444321D01*
X157373368Y-107495343D01*
X157374330Y-107501865D01*
X157381463Y-107560805D01*
X157384149Y-107567913D01*
X157385860Y-107574879D01*
X157387279Y-107580068D01*
X157389356Y-107586947D01*
X157390661Y-107594424D01*
X157414529Y-107648795D01*
X157417012Y-107654881D01*
X157438006Y-107710441D01*
X157442309Y-107716702D01*
X157445615Y-107723026D01*
X157448271Y-107727798D01*
X157451906Y-107733944D01*
X157454958Y-107740896D01*
X157459580Y-107746919D01*
X157491102Y-107788001D01*
X157494973Y-107793328D01*
X157528611Y-107842271D01*
X157534287Y-107847328D01*
X157571819Y-107880768D01*
X157577095Y-107885749D01*
X159318302Y-109626956D01*
X159352328Y-109689268D01*
X159345405Y-109764774D01*
X159316148Y-109834545D01*
X159249981Y-110095077D01*
X159223050Y-110362526D01*
X159223274Y-110367192D01*
X159223274Y-110367197D01*
X159226898Y-110442629D01*
X159235947Y-110631019D01*
X159288388Y-110894656D01*
X159379220Y-111147646D01*
X159381432Y-111151762D01*
X159381433Y-111151765D01*
X159394608Y-111176284D01*
X159506450Y-111384431D01*
X159509241Y-111388168D01*
X159509245Y-111388175D01*
X159590887Y-111497506D01*
X159667281Y-111599810D01*
X159670590Y-111603090D01*
X159670595Y-111603096D01*
X159854863Y-111785762D01*
X159858180Y-111789050D01*
X159861942Y-111791808D01*
X159861945Y-111791811D01*
X159974299Y-111874192D01*
X160074954Y-111947995D01*
X160079089Y-111950171D01*
X160079093Y-111950173D01*
X160308698Y-112070975D01*
X160312840Y-112073154D01*
X160566613Y-112161775D01*
X160571206Y-112162647D01*
X160826109Y-112211042D01*
X160826112Y-112211042D01*
X160830698Y-112211913D01*
X160958370Y-112216929D01*
X161094625Y-112222283D01*
X161094630Y-112222283D01*
X161099293Y-112222466D01*
X161203607Y-112211042D01*
X161361844Y-112193713D01*
X161361850Y-112193712D01*
X161366497Y-112193203D01*
X161371021Y-112192012D01*
X161621918Y-112125956D01*
X161621920Y-112125955D01*
X161626441Y-112124765D01*
X161630738Y-112122919D01*
X161869120Y-112020502D01*
X161869122Y-112020501D01*
X161873414Y-112018657D01*
X161992071Y-111945230D01*
X162098017Y-111879669D01*
X162098021Y-111879666D01*
X162101990Y-111877210D01*
X162307149Y-111703530D01*
X162484382Y-111501434D01*
X162629797Y-111275361D01*
X162740199Y-111030278D01*
X162813163Y-110771568D01*
X162820614Y-110712998D01*
X162849053Y-110647947D01*
X162908147Y-110608597D01*
X162945607Y-110602900D01*
X166185792Y-110602900D01*
X166253913Y-110622902D01*
X166289005Y-110656629D01*
X166376643Y-110781789D01*
X166379802Y-110786300D01*
X166541700Y-110948198D01*
X166546208Y-110951355D01*
X166546211Y-110951357D01*
X166563849Y-110963707D01*
X166729251Y-111079523D01*
X166734233Y-111081846D01*
X166734238Y-111081849D01*
X166875342Y-111147646D01*
X166936757Y-111176284D01*
X166942065Y-111177706D01*
X166942067Y-111177707D01*
X167152598Y-111234119D01*
X167152600Y-111234119D01*
X167157913Y-111235543D01*
X167386000Y-111255498D01*
X167614087Y-111235543D01*
X167619400Y-111234119D01*
X167619402Y-111234119D01*
X167829933Y-111177707D01*
X167829935Y-111177706D01*
X167835243Y-111176284D01*
X167896658Y-111147646D01*
X168037762Y-111081849D01*
X168037767Y-111081846D01*
X168042749Y-111079523D01*
X168208151Y-110963707D01*
X168225789Y-110951357D01*
X168225792Y-110951355D01*
X168230300Y-110948198D01*
X168392198Y-110786300D01*
X168399366Y-110776064D01*
X168489074Y-110647947D01*
X168523523Y-110598749D01*
X168525846Y-110593767D01*
X168525849Y-110593762D01*
X168587453Y-110461650D01*
X168634370Y-110408365D01*
X168701648Y-110388900D01*
X169487792Y-110388900D01*
X169555913Y-110408902D01*
X169591005Y-110442629D01*
X169681802Y-110572300D01*
X169843700Y-110734198D01*
X169848208Y-110737355D01*
X169848211Y-110737357D01*
X169890457Y-110766938D01*
X170031251Y-110865523D01*
X170036233Y-110867846D01*
X170036238Y-110867849D01*
X170233775Y-110959961D01*
X170238757Y-110962284D01*
X170244065Y-110963706D01*
X170244067Y-110963707D01*
X170454598Y-111020119D01*
X170454600Y-111020119D01*
X170459913Y-111021543D01*
X170688000Y-111041498D01*
X170916087Y-111021543D01*
X170921400Y-111020119D01*
X170921402Y-111020119D01*
X171131933Y-110963707D01*
X171131935Y-110963706D01*
X171137243Y-110962284D01*
X171142225Y-110959961D01*
X171339762Y-110867849D01*
X171339767Y-110867846D01*
X171344749Y-110865523D01*
X171485543Y-110766938D01*
X171527789Y-110737357D01*
X171527792Y-110737355D01*
X171532300Y-110734198D01*
X171694198Y-110572300D01*
X171825523Y-110384749D01*
X171827846Y-110379767D01*
X171827849Y-110379762D01*
X171919961Y-110182225D01*
X171919961Y-110182224D01*
X171922284Y-110177243D01*
X171942038Y-110103523D01*
X171980119Y-109961402D01*
X171980119Y-109961400D01*
X171981543Y-109956087D01*
X172001498Y-109728000D01*
X171981543Y-109499913D01*
X171922284Y-109278757D01*
X171900997Y-109233106D01*
X171827849Y-109076238D01*
X171827846Y-109076233D01*
X171825523Y-109071251D01*
X171730680Y-108935802D01*
X171697357Y-108888211D01*
X171697355Y-108888208D01*
X171694198Y-108883700D01*
X171532300Y-108721802D01*
X171527792Y-108718645D01*
X171527789Y-108718643D01*
X171424812Y-108646538D01*
X171344749Y-108590477D01*
X171339767Y-108588154D01*
X171339762Y-108588151D01*
X171142225Y-108496039D01*
X171142224Y-108496039D01*
X171137243Y-108493716D01*
X171131935Y-108492294D01*
X171131933Y-108492293D01*
X170921402Y-108435881D01*
X170921400Y-108435881D01*
X170916087Y-108434457D01*
X170688000Y-108414502D01*
X170459913Y-108434457D01*
X170454600Y-108435881D01*
X170454598Y-108435881D01*
X170244067Y-108492293D01*
X170244065Y-108492294D01*
X170238757Y-108493716D01*
X170233776Y-108496039D01*
X170233775Y-108496039D01*
X170036238Y-108588151D01*
X170036233Y-108588154D01*
X170031251Y-108590477D01*
X169951188Y-108646538D01*
X169848211Y-108718643D01*
X169848208Y-108718645D01*
X169843700Y-108721802D01*
X169681802Y-108883700D01*
X169678645Y-108888208D01*
X169678643Y-108888211D01*
X169591005Y-109013371D01*
X169535548Y-109057699D01*
X169487792Y-109067100D01*
X168413788Y-109067100D01*
X168345667Y-109047098D01*
X168324693Y-109030195D01*
X168230300Y-108935802D01*
X168225792Y-108932645D01*
X168225789Y-108932643D01*
X168104012Y-108847374D01*
X168042749Y-108804477D01*
X168037767Y-108802154D01*
X168037762Y-108802151D01*
X167840225Y-108710039D01*
X167840224Y-108710039D01*
X167835243Y-108707716D01*
X167829935Y-108706294D01*
X167829933Y-108706293D01*
X167619402Y-108649881D01*
X167619400Y-108649881D01*
X167614087Y-108648457D01*
X167386000Y-108628502D01*
X167157913Y-108648457D01*
X167152600Y-108649881D01*
X167152598Y-108649881D01*
X166942067Y-108706293D01*
X166942065Y-108706294D01*
X166936757Y-108707716D01*
X166931776Y-108710039D01*
X166931775Y-108710039D01*
X166734238Y-108802151D01*
X166734233Y-108802154D01*
X166729251Y-108804477D01*
X166667988Y-108847374D01*
X166546211Y-108932643D01*
X166546208Y-108932645D01*
X166541700Y-108935802D01*
X166379802Y-109097700D01*
X166376645Y-109102208D01*
X166376643Y-109102211D01*
X166289005Y-109227371D01*
X166233548Y-109271699D01*
X166185792Y-109281100D01*
X162510161Y-109281100D01*
X162442040Y-109261098D01*
X162411211Y-109233106D01*
X162375997Y-109188437D01*
X162375994Y-109188434D01*
X162373105Y-109184769D01*
X162177317Y-109000591D01*
X161956457Y-108847374D01*
X161952264Y-108845306D01*
X161719564Y-108730551D01*
X161719561Y-108730550D01*
X161715376Y-108728486D01*
X161706670Y-108725699D01*
X161594733Y-108689868D01*
X161459370Y-108646538D01*
X161454763Y-108645788D01*
X161454760Y-108645787D01*
X161198674Y-108604081D01*
X161198675Y-108604081D01*
X161194063Y-108603330D01*
X161063719Y-108601624D01*
X160929961Y-108599873D01*
X160929958Y-108599873D01*
X160925284Y-108599812D01*
X160658937Y-108636060D01*
X160654451Y-108637368D01*
X160654449Y-108637368D01*
X160611519Y-108649881D01*
X160400874Y-108711278D01*
X160393832Y-108714524D01*
X160392364Y-108715201D01*
X160322126Y-108725553D01*
X160257441Y-108696289D01*
X160250521Y-108689868D01*
X158725805Y-107165152D01*
X158691779Y-107102840D01*
X158688900Y-107076057D01*
X158688900Y-103054208D01*
X158708902Y-102986087D01*
X158742629Y-102950995D01*
X158867789Y-102863357D01*
X158867792Y-102863355D01*
X158872300Y-102860198D01*
X159034198Y-102698300D01*
X159165523Y-102510749D01*
X159167846Y-102505767D01*
X159167849Y-102505762D01*
X159259961Y-102308225D01*
X159259961Y-102308224D01*
X159262284Y-102303243D01*
X159272799Y-102264003D01*
X159320119Y-102087402D01*
X159320119Y-102087400D01*
X159321543Y-102082087D01*
X159341498Y-101854000D01*
X159321543Y-101625913D01*
X159314600Y-101600000D01*
X159263707Y-101410067D01*
X159263706Y-101410065D01*
X159262284Y-101404757D01*
X159257348Y-101394171D01*
X159167849Y-101202238D01*
X159167846Y-101202233D01*
X159165523Y-101197251D01*
X159076846Y-101070607D01*
X159037357Y-101014211D01*
X159037355Y-101014208D01*
X159034198Y-101009700D01*
X158872300Y-100847802D01*
X158867792Y-100844645D01*
X158867789Y-100844643D01*
X158742629Y-100757005D01*
X158698301Y-100701548D01*
X158688900Y-100653792D01*
X158688900Y-100393199D01*
X158708902Y-100325078D01*
X158742630Y-100289986D01*
X158827784Y-100230361D01*
X158827790Y-100230356D01*
X158832300Y-100227198D01*
X158994198Y-100065300D01*
X159125523Y-99877749D01*
X159127846Y-99872767D01*
X159127849Y-99872762D01*
X159143805Y-99838543D01*
X159190722Y-99785258D01*
X159258999Y-99765797D01*
X159326959Y-99786339D01*
X159372195Y-99838543D01*
X159388151Y-99872762D01*
X159388154Y-99872767D01*
X159390477Y-99877749D01*
X159521802Y-100065300D01*
X159683700Y-100227198D01*
X159688208Y-100230355D01*
X159688211Y-100230357D01*
X159813371Y-100317995D01*
X159857699Y-100373452D01*
X159867100Y-100421208D01*
X159867100Y-103972666D01*
X159847098Y-104040787D01*
X159825001Y-104066669D01*
X159737063Y-104145157D01*
X159731426Y-104150188D01*
X159559544Y-104356854D01*
X159557121Y-104360847D01*
X159478189Y-104490923D01*
X159420096Y-104586656D01*
X159418287Y-104590970D01*
X159418285Y-104590974D01*
X159350237Y-104753251D01*
X159316148Y-104834545D01*
X159249981Y-105095077D01*
X159223050Y-105362526D01*
X159223274Y-105367192D01*
X159223274Y-105367197D01*
X159225067Y-105404525D01*
X159235947Y-105631019D01*
X159288388Y-105894656D01*
X159379220Y-106147646D01*
X159381432Y-106151762D01*
X159381433Y-106151765D01*
X159445555Y-106271100D01*
X159506450Y-106384431D01*
X159509241Y-106388168D01*
X159509245Y-106388175D01*
X159532530Y-106419357D01*
X159667281Y-106599810D01*
X159670590Y-106603090D01*
X159670595Y-106603096D01*
X159854863Y-106785762D01*
X159858180Y-106789050D01*
X159861942Y-106791808D01*
X159861945Y-106791811D01*
X159974299Y-106874192D01*
X160074954Y-106947995D01*
X160079089Y-106950171D01*
X160079093Y-106950173D01*
X160279329Y-107055523D01*
X160312840Y-107073154D01*
X160321153Y-107076057D01*
X160543510Y-107153707D01*
X160566613Y-107161775D01*
X160571206Y-107162647D01*
X160826109Y-107211042D01*
X160826112Y-107211042D01*
X160830698Y-107211913D01*
X160958370Y-107216929D01*
X161094625Y-107222283D01*
X161094630Y-107222283D01*
X161099293Y-107222466D01*
X161193983Y-107212096D01*
X161361844Y-107193713D01*
X161361850Y-107193712D01*
X161366497Y-107193203D01*
X161371021Y-107192012D01*
X161621918Y-107125956D01*
X161621920Y-107125955D01*
X161626441Y-107124765D01*
X161739812Y-107076057D01*
X161869120Y-107020502D01*
X161869122Y-107020501D01*
X161873414Y-107018657D01*
X161992071Y-106945230D01*
X162098017Y-106879669D01*
X162098021Y-106879666D01*
X162101990Y-106877210D01*
X162307149Y-106703530D01*
X162484382Y-106501434D01*
X162629797Y-106275361D01*
X162740199Y-106030278D01*
X162742671Y-106021515D01*
X162774488Y-105908699D01*
X162812229Y-105848565D01*
X162876491Y-105818382D01*
X162895757Y-105816900D01*
X166358212Y-105816900D01*
X166426333Y-105836902D01*
X166447307Y-105853805D01*
X166541700Y-105948198D01*
X166546208Y-105951355D01*
X166546211Y-105951357D01*
X166596158Y-105986330D01*
X166729251Y-106079523D01*
X166734233Y-106081846D01*
X166734238Y-106081849D01*
X166908258Y-106162995D01*
X166936757Y-106176284D01*
X166942065Y-106177706D01*
X166942067Y-106177707D01*
X167152598Y-106234119D01*
X167152600Y-106234119D01*
X167157913Y-106235543D01*
X167386000Y-106255498D01*
X167614087Y-106235543D01*
X167619400Y-106234119D01*
X167619402Y-106234119D01*
X167829933Y-106177707D01*
X167829935Y-106177706D01*
X167835243Y-106176284D01*
X167863742Y-106162995D01*
X168037762Y-106081849D01*
X168037767Y-106081846D01*
X168042749Y-106079523D01*
X168175842Y-105986330D01*
X168225789Y-105951357D01*
X168225792Y-105951355D01*
X168230300Y-105948198D01*
X168392198Y-105786300D01*
X168459689Y-105689913D01*
X168482995Y-105656629D01*
X168538452Y-105612301D01*
X168586208Y-105602900D01*
X169264564Y-105602900D01*
X169332685Y-105622902D01*
X169379178Y-105676558D01*
X169390085Y-105739881D01*
X169379481Y-105861085D01*
X169374502Y-105918000D01*
X169394457Y-106146087D01*
X169395881Y-106151400D01*
X169395881Y-106151402D01*
X169402930Y-106177707D01*
X169453716Y-106367243D01*
X169456039Y-106372224D01*
X169456039Y-106372225D01*
X169548151Y-106569762D01*
X169548154Y-106569767D01*
X169550477Y-106574749D01*
X169681802Y-106762300D01*
X169843700Y-106924198D01*
X169848208Y-106927355D01*
X169848211Y-106927357D01*
X169880796Y-106950173D01*
X170031251Y-107055523D01*
X170036233Y-107057846D01*
X170036238Y-107057849D01*
X170182296Y-107125956D01*
X170238757Y-107152284D01*
X170244065Y-107153706D01*
X170244067Y-107153707D01*
X170454598Y-107210119D01*
X170454600Y-107210119D01*
X170459913Y-107211543D01*
X170688000Y-107231498D01*
X170916087Y-107211543D01*
X170921400Y-107210119D01*
X170921402Y-107210119D01*
X171131933Y-107153707D01*
X171131935Y-107153706D01*
X171137243Y-107152284D01*
X171193704Y-107125956D01*
X171339762Y-107057849D01*
X171339767Y-107057846D01*
X171344749Y-107055523D01*
X171495204Y-106950173D01*
X171527789Y-106927357D01*
X171527792Y-106927355D01*
X171532300Y-106924198D01*
X171694198Y-106762300D01*
X171825523Y-106574749D01*
X171827846Y-106569767D01*
X171827849Y-106569762D01*
X171919961Y-106372225D01*
X171919961Y-106372224D01*
X171922284Y-106367243D01*
X171973071Y-106177707D01*
X171980119Y-106151402D01*
X171980119Y-106151400D01*
X171981543Y-106146087D01*
X172001498Y-105918000D01*
X171981543Y-105689913D01*
X171958415Y-105603597D01*
X171923707Y-105474067D01*
X171923706Y-105474065D01*
X171922284Y-105468757D01*
X171908395Y-105438971D01*
X171827849Y-105266238D01*
X171827846Y-105266233D01*
X171825523Y-105261251D01*
X171712428Y-105099735D01*
X171697357Y-105078211D01*
X171697355Y-105078208D01*
X171694198Y-105073700D01*
X171532300Y-104911802D01*
X171527792Y-104908645D01*
X171527789Y-104908643D01*
X171415805Y-104830231D01*
X171344749Y-104780477D01*
X171339767Y-104778154D01*
X171339762Y-104778151D01*
X171142225Y-104686039D01*
X171142224Y-104686039D01*
X171137243Y-104683716D01*
X171131935Y-104682294D01*
X171131933Y-104682293D01*
X170921402Y-104625881D01*
X170921400Y-104625881D01*
X170916087Y-104624457D01*
X170688000Y-104604502D01*
X170459913Y-104624457D01*
X170454600Y-104625881D01*
X170454598Y-104625881D01*
X170427018Y-104633271D01*
X170356041Y-104631581D01*
X170305312Y-104600659D01*
X170198614Y-104493961D01*
X170192760Y-104487695D01*
X170175915Y-104468385D01*
X170157476Y-104447248D01*
X170108898Y-104413107D01*
X170103604Y-104409175D01*
X170091804Y-104399922D01*
X170056879Y-104372537D01*
X170049955Y-104369411D01*
X170043824Y-104365698D01*
X170039204Y-104363062D01*
X170032822Y-104359640D01*
X170026603Y-104355269D01*
X169971286Y-104333701D01*
X169965207Y-104331146D01*
X169911088Y-104306711D01*
X169903612Y-104305325D01*
X169896734Y-104303170D01*
X169891609Y-104301710D01*
X169884645Y-104299922D01*
X169877566Y-104297162D01*
X169870034Y-104296170D01*
X169870032Y-104296170D01*
X169844804Y-104292849D01*
X169818700Y-104289413D01*
X169812202Y-104288384D01*
X169753803Y-104277560D01*
X169746223Y-104277997D01*
X169746222Y-104277997D01*
X169696033Y-104280891D01*
X169688780Y-104281100D01*
X168586208Y-104281100D01*
X168518087Y-104261098D01*
X168482995Y-104227371D01*
X168395357Y-104102211D01*
X168395355Y-104102208D01*
X168392198Y-104097700D01*
X168230300Y-103935802D01*
X168225792Y-103932645D01*
X168225789Y-103932643D01*
X168138552Y-103871559D01*
X168042749Y-103804477D01*
X168037767Y-103802154D01*
X168037762Y-103802151D01*
X167840225Y-103710039D01*
X167840224Y-103710039D01*
X167835243Y-103707716D01*
X167829935Y-103706294D01*
X167829933Y-103706293D01*
X167619402Y-103649881D01*
X167619400Y-103649881D01*
X167614087Y-103648457D01*
X167386000Y-103628502D01*
X167157913Y-103648457D01*
X167152600Y-103649881D01*
X167152598Y-103649881D01*
X166942067Y-103706293D01*
X166942065Y-103706294D01*
X166936757Y-103707716D01*
X166931776Y-103710039D01*
X166931775Y-103710039D01*
X166734238Y-103802151D01*
X166734233Y-103802154D01*
X166729251Y-103804477D01*
X166633448Y-103871559D01*
X166546211Y-103932643D01*
X166546208Y-103932645D01*
X166541700Y-103935802D01*
X166379802Y-104097700D01*
X166248477Y-104285251D01*
X166246154Y-104290233D01*
X166246151Y-104290238D01*
X166184547Y-104422350D01*
X166137630Y-104475635D01*
X166070352Y-104495100D01*
X162669349Y-104495100D01*
X162601228Y-104475098D01*
X162559956Y-104431623D01*
X162541837Y-104399922D01*
X162539518Y-104395864D01*
X162534653Y-104389692D01*
X162447346Y-104278944D01*
X162373105Y-104184769D01*
X162177317Y-104000591D01*
X162001561Y-103878664D01*
X161960299Y-103850039D01*
X161960296Y-103850037D01*
X161956457Y-103847374D01*
X161943743Y-103841104D01*
X161719564Y-103730551D01*
X161719561Y-103730550D01*
X161715376Y-103728486D01*
X161688604Y-103719916D01*
X161613621Y-103695914D01*
X161459370Y-103646538D01*
X161454763Y-103645788D01*
X161454760Y-103645787D01*
X161294646Y-103619711D01*
X161230627Y-103589019D01*
X161193363Y-103528587D01*
X161188900Y-103495349D01*
X161188900Y-100421208D01*
X161208902Y-100353087D01*
X161242629Y-100317995D01*
X161367789Y-100230357D01*
X161367792Y-100230355D01*
X161372300Y-100227198D01*
X161534198Y-100065300D01*
X161665523Y-99877749D01*
X161667846Y-99872767D01*
X161667849Y-99872762D01*
X161683805Y-99838543D01*
X161730722Y-99785258D01*
X161798999Y-99765797D01*
X161866959Y-99786339D01*
X161912195Y-99838543D01*
X161928151Y-99872762D01*
X161928154Y-99872767D01*
X161930477Y-99877749D01*
X162061802Y-100065300D01*
X162223700Y-100227198D01*
X162228208Y-100230355D01*
X162228211Y-100230357D01*
X162289222Y-100273077D01*
X162411251Y-100358523D01*
X162416233Y-100360846D01*
X162416238Y-100360849D01*
X162530177Y-100413979D01*
X162583462Y-100460896D01*
X162602923Y-100529173D01*
X162582381Y-100597133D01*
X162530177Y-100642369D01*
X162376238Y-100714151D01*
X162376233Y-100714154D01*
X162371251Y-100716477D01*
X162286638Y-100775724D01*
X162188211Y-100844643D01*
X162188208Y-100844645D01*
X162183700Y-100847802D01*
X162021802Y-101009700D01*
X162018645Y-101014208D01*
X162018643Y-101014211D01*
X161979154Y-101070607D01*
X161890477Y-101197251D01*
X161888154Y-101202233D01*
X161888151Y-101202238D01*
X161798652Y-101394171D01*
X161793716Y-101404757D01*
X161792294Y-101410065D01*
X161792293Y-101410067D01*
X161741400Y-101600000D01*
X161734457Y-101625913D01*
X161714502Y-101854000D01*
X161734457Y-102082087D01*
X161735881Y-102087400D01*
X161735881Y-102087402D01*
X161783202Y-102264003D01*
X161793716Y-102303243D01*
X161796039Y-102308224D01*
X161796039Y-102308225D01*
X161888151Y-102505762D01*
X161888154Y-102505767D01*
X161890477Y-102510749D01*
X162021802Y-102698300D01*
X162183700Y-102860198D01*
X162188208Y-102863355D01*
X162188211Y-102863357D01*
X162233075Y-102894771D01*
X162371251Y-102991523D01*
X162376233Y-102993846D01*
X162376238Y-102993849D01*
X162505680Y-103054208D01*
X162578757Y-103088284D01*
X162584065Y-103089706D01*
X162584067Y-103089707D01*
X162794598Y-103146119D01*
X162794600Y-103146119D01*
X162799913Y-103147543D01*
X163028000Y-103167498D01*
X163256087Y-103147543D01*
X163261400Y-103146119D01*
X163261402Y-103146119D01*
X163471933Y-103089707D01*
X163471935Y-103089706D01*
X163477243Y-103088284D01*
X163550320Y-103054208D01*
X163679762Y-102993849D01*
X163679767Y-102993846D01*
X163684749Y-102991523D01*
X163822925Y-102894771D01*
X163867789Y-102863357D01*
X163867792Y-102863355D01*
X163872300Y-102860198D01*
X164034198Y-102698300D01*
X164096477Y-102609357D01*
X164124995Y-102568629D01*
X164180452Y-102524301D01*
X164228208Y-102514900D01*
X165286737Y-102514900D01*
X165295308Y-102515192D01*
X165348843Y-102518842D01*
X165356320Y-102517537D01*
X165356321Y-102517537D01*
X165381626Y-102513121D01*
X165407347Y-102508631D01*
X165413865Y-102507670D01*
X165432223Y-102505448D01*
X165465262Y-102501450D01*
X165465264Y-102501450D01*
X165472805Y-102500537D01*
X165479913Y-102497851D01*
X165486879Y-102496140D01*
X165492068Y-102494721D01*
X165498947Y-102492644D01*
X165506424Y-102491339D01*
X165560795Y-102467471D01*
X165566886Y-102464986D01*
X165615336Y-102446679D01*
X165615338Y-102446678D01*
X165622441Y-102443994D01*
X165628702Y-102439691D01*
X165635026Y-102436385D01*
X165639798Y-102433729D01*
X165645944Y-102430094D01*
X165652896Y-102427042D01*
X165700001Y-102390898D01*
X165705334Y-102387023D01*
X165754271Y-102353389D01*
X165792769Y-102310180D01*
X165797749Y-102304905D01*
X167834047Y-100268607D01*
X167840313Y-100262753D01*
X167875025Y-100232472D01*
X167880752Y-100227476D01*
X167914892Y-100178900D01*
X167918818Y-100173614D01*
X167950774Y-100132858D01*
X167955463Y-100126878D01*
X167958591Y-100119950D01*
X167962319Y-100113794D01*
X167964954Y-100109175D01*
X167968362Y-100102819D01*
X167972731Y-100096603D01*
X167986694Y-100060789D01*
X167994292Y-100041302D01*
X167996848Y-100035221D01*
X168018166Y-99988007D01*
X168021290Y-99981088D01*
X168022673Y-99973625D01*
X168024810Y-99966807D01*
X168026287Y-99961622D01*
X168028078Y-99954645D01*
X168030838Y-99947566D01*
X168038589Y-99888692D01*
X168039620Y-99882183D01*
X168049056Y-99831269D01*
X168050440Y-99823802D01*
X168047109Y-99766031D01*
X168046900Y-99758779D01*
X168046900Y-95277263D01*
X168047192Y-95268692D01*
X168050325Y-95222733D01*
X168050842Y-95215157D01*
X168049072Y-95205012D01*
X168040632Y-95156657D01*
X168039669Y-95150131D01*
X168033450Y-95098738D01*
X168033450Y-95098736D01*
X168032537Y-95091195D01*
X168029851Y-95084087D01*
X168028140Y-95077121D01*
X168026721Y-95071932D01*
X168024644Y-95065053D01*
X168023339Y-95057576D01*
X167999471Y-95003205D01*
X167996986Y-94997114D01*
X167994628Y-94990872D01*
X167988671Y-94975109D01*
X167978679Y-94948664D01*
X167978678Y-94948662D01*
X167975994Y-94941559D01*
X167971691Y-94935298D01*
X167968385Y-94928974D01*
X167965729Y-94924202D01*
X167962094Y-94918056D01*
X167959042Y-94911104D01*
X167929851Y-94873061D01*
X167922898Y-94863999D01*
X167919023Y-94858666D01*
X167885389Y-94809729D01*
X167842180Y-94771231D01*
X167836905Y-94766251D01*
X166960503Y-93889849D01*
X166081296Y-93010643D01*
X166047271Y-92948331D01*
X166052335Y-92877516D01*
X166094882Y-92820680D01*
X166117142Y-92807353D01*
X166259758Y-92740851D01*
X166259764Y-92740847D01*
X166264749Y-92738523D01*
X166373606Y-92662300D01*
X166447789Y-92610357D01*
X166447792Y-92610355D01*
X166452300Y-92607198D01*
X166614198Y-92445300D01*
X166631047Y-92421238D01*
X166682097Y-92348330D01*
X166745523Y-92257749D01*
X166747846Y-92252767D01*
X166747849Y-92252762D01*
X166806997Y-92125916D01*
X166842284Y-92050243D01*
X166867727Y-91955288D01*
X166904679Y-91894666D01*
X166968539Y-91863645D01*
X166989434Y-91861900D01*
X167623056Y-91861900D01*
X167691177Y-91881902D01*
X167712151Y-91898805D01*
X169010302Y-93196956D01*
X169044328Y-93259268D01*
X169037405Y-93334774D01*
X169008148Y-93404545D01*
X168941981Y-93665077D01*
X168915050Y-93932526D01*
X168915274Y-93937192D01*
X168915274Y-93937197D01*
X168917854Y-93990897D01*
X168927947Y-94201019D01*
X168980388Y-94464656D01*
X169071220Y-94717646D01*
X169073432Y-94721762D01*
X169073433Y-94721765D01*
X169149859Y-94863999D01*
X169198450Y-94954431D01*
X169201241Y-94958168D01*
X169201245Y-94958175D01*
X169290067Y-95077121D01*
X169359281Y-95169810D01*
X169362590Y-95173090D01*
X169362595Y-95173096D01*
X169510695Y-95319908D01*
X169550180Y-95359050D01*
X169553942Y-95361808D01*
X169553945Y-95361811D01*
X169653145Y-95434547D01*
X169766954Y-95517995D01*
X169771089Y-95520171D01*
X169771093Y-95520173D01*
X169994597Y-95637765D01*
X170004840Y-95643154D01*
X170258613Y-95731775D01*
X170263206Y-95732647D01*
X170518109Y-95781042D01*
X170518112Y-95781042D01*
X170522698Y-95781913D01*
X170650370Y-95786929D01*
X170786625Y-95792283D01*
X170786630Y-95792283D01*
X170791293Y-95792466D01*
X170895607Y-95781042D01*
X171053844Y-95763713D01*
X171053850Y-95763712D01*
X171058497Y-95763203D01*
X171142837Y-95740998D01*
X171313918Y-95695956D01*
X171313920Y-95695955D01*
X171318441Y-95694765D01*
X171322738Y-95692919D01*
X171561120Y-95590502D01*
X171561122Y-95590501D01*
X171565414Y-95588657D01*
X171684071Y-95515230D01*
X171790017Y-95449669D01*
X171790021Y-95449666D01*
X171793990Y-95447210D01*
X171999149Y-95273530D01*
X171999379Y-95273802D01*
X172059786Y-95241495D01*
X172130555Y-95247174D01*
X172187020Y-95290212D01*
X172211252Y-95356945D01*
X172211500Y-95364843D01*
X172211500Y-100775724D01*
X172210763Y-100789332D01*
X172206638Y-100827304D01*
X172207768Y-100840217D01*
X172211046Y-100877690D01*
X172211375Y-100882518D01*
X172211500Y-100885073D01*
X172211500Y-100888157D01*
X172211801Y-100891224D01*
X172215722Y-100931219D01*
X172215844Y-100932532D01*
X172217218Y-100948238D01*
X172224012Y-101025892D01*
X172225511Y-101031052D01*
X172226035Y-101036394D01*
X172251383Y-101120350D01*
X172253098Y-101126031D01*
X172253455Y-101127236D01*
X172279628Y-101217322D01*
X172282100Y-101222090D01*
X172283652Y-101227232D01*
X172286547Y-101232677D01*
X172286550Y-101232684D01*
X172327633Y-101309950D01*
X172328213Y-101311054D01*
X172371366Y-101394304D01*
X172374718Y-101398503D01*
X172377239Y-101403244D01*
X172381131Y-101408016D01*
X172436438Y-101475829D01*
X172437266Y-101476855D01*
X172454865Y-101498900D01*
X172468768Y-101516316D01*
X172471263Y-101518811D01*
X172471973Y-101519605D01*
X172475693Y-101523960D01*
X172499337Y-101552951D01*
X172499340Y-101552954D01*
X172503232Y-101557726D01*
X172507980Y-101561654D01*
X172507981Y-101561655D01*
X172538873Y-101587211D01*
X172547652Y-101595200D01*
X176973967Y-106021515D01*
X177007993Y-106083827D01*
X177010392Y-106099627D01*
X177014457Y-106146087D01*
X177073716Y-106367243D01*
X177076039Y-106372224D01*
X177076039Y-106372225D01*
X177168151Y-106569762D01*
X177168154Y-106569767D01*
X177170477Y-106574749D01*
X177173634Y-106579257D01*
X177268713Y-106715044D01*
X177291500Y-106787315D01*
X177291500Y-108858685D01*
X177268713Y-108930956D01*
X177170477Y-109071251D01*
X177168154Y-109076233D01*
X177168151Y-109076238D01*
X177095003Y-109233106D01*
X177073716Y-109278757D01*
X177014457Y-109499913D01*
X176994502Y-109728000D01*
X177014457Y-109956087D01*
X177015881Y-109961400D01*
X177015881Y-109961402D01*
X177053963Y-110103523D01*
X177073716Y-110177243D01*
X177076039Y-110182224D01*
X177076039Y-110182225D01*
X177168151Y-110379762D01*
X177168154Y-110379767D01*
X177170477Y-110384749D01*
X177301802Y-110572300D01*
X177463700Y-110734198D01*
X177468208Y-110737355D01*
X177468211Y-110737357D01*
X177510457Y-110766938D01*
X177651251Y-110865523D01*
X177656233Y-110867846D01*
X177656238Y-110867849D01*
X177853775Y-110959961D01*
X177858757Y-110962284D01*
X177864065Y-110963706D01*
X177864067Y-110963707D01*
X178074598Y-111020119D01*
X178074600Y-111020119D01*
X178079913Y-111021543D01*
X178308000Y-111041498D01*
X178536087Y-111021543D01*
X178541400Y-111020119D01*
X178541402Y-111020119D01*
X178751933Y-110963707D01*
X178751935Y-110963706D01*
X178757243Y-110962284D01*
X178762225Y-110959961D01*
X178959762Y-110867849D01*
X178959767Y-110867846D01*
X178964749Y-110865523D01*
X179105543Y-110766938D01*
X179147789Y-110737357D01*
X179147792Y-110737355D01*
X179152300Y-110734198D01*
X179314198Y-110572300D01*
X179445523Y-110384749D01*
X179447846Y-110379767D01*
X179447849Y-110379762D01*
X179539961Y-110182225D01*
X179539961Y-110182224D01*
X179542284Y-110177243D01*
X179562038Y-110103523D01*
X179600119Y-109961402D01*
X179600119Y-109961400D01*
X179601543Y-109956087D01*
X179621498Y-109728000D01*
X179601543Y-109499913D01*
X179542284Y-109278757D01*
X179520997Y-109233106D01*
X179447849Y-109076238D01*
X179447846Y-109076233D01*
X179445523Y-109071251D01*
X179347287Y-108930956D01*
X179324500Y-108858685D01*
X179324500Y-106787315D01*
X179347287Y-106715044D01*
X179442366Y-106579257D01*
X179445523Y-106574749D01*
X179447846Y-106569767D01*
X179447849Y-106569762D01*
X179539961Y-106372225D01*
X179539961Y-106372224D01*
X179542284Y-106367243D01*
X179593071Y-106177707D01*
X179600119Y-106151402D01*
X179600119Y-106151400D01*
X179601543Y-106146087D01*
X179621498Y-105918000D01*
X179601543Y-105689913D01*
X179578415Y-105603597D01*
X179543707Y-105474067D01*
X179543706Y-105474065D01*
X179542284Y-105468757D01*
X179528395Y-105438971D01*
X179447849Y-105266238D01*
X179447846Y-105266233D01*
X179445523Y-105261251D01*
X179332428Y-105099735D01*
X179317357Y-105078211D01*
X179317355Y-105078208D01*
X179314198Y-105073700D01*
X179152300Y-104911802D01*
X179147792Y-104908645D01*
X179147789Y-104908643D01*
X179035805Y-104830231D01*
X178964749Y-104780477D01*
X178959767Y-104778154D01*
X178959762Y-104778151D01*
X178762225Y-104686039D01*
X178762224Y-104686039D01*
X178757243Y-104683716D01*
X178751935Y-104682294D01*
X178751933Y-104682293D01*
X178673748Y-104661343D01*
X178536087Y-104624457D01*
X178506272Y-104621848D01*
X178489627Y-104620392D01*
X178423509Y-104594529D01*
X178411515Y-104583967D01*
X174281405Y-100453857D01*
X174247379Y-100391545D01*
X174244500Y-100364762D01*
X174244500Y-95358350D01*
X174264502Y-95290229D01*
X174318158Y-95243736D01*
X174388432Y-95233632D01*
X174453012Y-95263126D01*
X174459197Y-95268857D01*
X174550180Y-95359050D01*
X174553942Y-95361808D01*
X174553945Y-95361811D01*
X174653145Y-95434547D01*
X174766954Y-95517995D01*
X174771089Y-95520171D01*
X174771093Y-95520173D01*
X174994597Y-95637765D01*
X175004840Y-95643154D01*
X175258613Y-95731775D01*
X175263206Y-95732647D01*
X175518109Y-95781042D01*
X175518112Y-95781042D01*
X175522698Y-95781913D01*
X175650370Y-95786929D01*
X175786625Y-95792283D01*
X175786630Y-95792283D01*
X175791293Y-95792466D01*
X175895607Y-95781042D01*
X176053844Y-95763713D01*
X176053850Y-95763712D01*
X176058497Y-95763203D01*
X176142837Y-95740998D01*
X176313918Y-95695956D01*
X176313920Y-95695955D01*
X176318441Y-95694765D01*
X176322738Y-95692919D01*
X176322744Y-95692917D01*
X176372657Y-95671472D01*
X176443142Y-95662959D01*
X176511491Y-95698144D01*
X178482076Y-97668729D01*
X178516102Y-97731041D01*
X178518143Y-97750031D01*
X178518502Y-97750000D01*
X178538457Y-97978087D01*
X178539881Y-97983400D01*
X178539881Y-97983402D01*
X178573320Y-98108195D01*
X178597716Y-98199243D01*
X178600039Y-98204224D01*
X178600039Y-98204225D01*
X178692151Y-98401762D01*
X178692154Y-98401767D01*
X178694477Y-98406749D01*
X178825802Y-98594300D01*
X178987700Y-98756198D01*
X178992208Y-98759355D01*
X178992211Y-98759357D01*
X179070389Y-98814098D01*
X179175251Y-98887523D01*
X179180233Y-98889846D01*
X179180238Y-98889849D01*
X179377775Y-98981961D01*
X179382757Y-98984284D01*
X179388065Y-98985706D01*
X179388067Y-98985707D01*
X179598598Y-99042119D01*
X179598600Y-99042119D01*
X179603913Y-99043543D01*
X179832000Y-99063498D01*
X180060087Y-99043543D01*
X180065400Y-99042119D01*
X180065402Y-99042119D01*
X180275933Y-98985707D01*
X180275935Y-98985706D01*
X180281243Y-98984284D01*
X180286225Y-98981961D01*
X180483762Y-98889849D01*
X180483767Y-98889846D01*
X180488749Y-98887523D01*
X180593611Y-98814098D01*
X180671789Y-98759357D01*
X180671792Y-98759355D01*
X180676300Y-98756198D01*
X180838198Y-98594300D01*
X180969523Y-98406749D01*
X180971846Y-98401767D01*
X180971849Y-98401762D01*
X181063961Y-98204225D01*
X181063961Y-98204224D01*
X181066284Y-98199243D01*
X181090681Y-98108195D01*
X181124119Y-97983402D01*
X181124119Y-97983400D01*
X181125543Y-97978087D01*
X181145498Y-97750000D01*
X181125543Y-97521913D01*
X181120552Y-97503285D01*
X181067707Y-97306067D01*
X181067706Y-97306065D01*
X181066284Y-97300757D01*
X181060761Y-97288913D01*
X180971849Y-97098238D01*
X180971846Y-97098233D01*
X180969523Y-97093251D01*
X180856710Y-96932138D01*
X180841357Y-96910211D01*
X180841355Y-96910208D01*
X180838198Y-96905700D01*
X180676300Y-96743802D01*
X180671792Y-96740645D01*
X180671789Y-96740643D01*
X180576813Y-96674140D01*
X180488749Y-96612477D01*
X180483767Y-96610154D01*
X180483762Y-96610151D01*
X180286225Y-96518039D01*
X180286224Y-96518039D01*
X180281243Y-96515716D01*
X180275935Y-96514294D01*
X180275933Y-96514293D01*
X180065402Y-96457881D01*
X180065400Y-96457881D01*
X180060087Y-96456457D01*
X179832000Y-96436502D01*
X179603913Y-96456457D01*
X179598600Y-96457881D01*
X179598598Y-96457881D01*
X179388067Y-96514293D01*
X179388065Y-96514294D01*
X179382757Y-96515716D01*
X179377773Y-96518040D01*
X179377765Y-96518043D01*
X179336964Y-96537068D01*
X179266773Y-96547729D01*
X179201960Y-96518748D01*
X179194621Y-96511968D01*
X177447362Y-94764709D01*
X177413336Y-94702397D01*
X177418401Y-94631582D01*
X177421574Y-94623865D01*
X177424128Y-94618194D01*
X177432199Y-94600278D01*
X177434117Y-94593479D01*
X177503893Y-94346072D01*
X177503894Y-94346069D01*
X177505163Y-94341568D01*
X177523043Y-94201019D01*
X177538688Y-94078045D01*
X177538688Y-94078041D01*
X177539086Y-94074915D01*
X177539398Y-94063019D01*
X177540675Y-94014222D01*
X177541571Y-93980000D01*
X177533357Y-93869476D01*
X177521996Y-93716592D01*
X177521996Y-93716591D01*
X177521650Y-93711937D01*
X177520619Y-93707379D01*
X177463361Y-93454331D01*
X177463360Y-93454326D01*
X177462327Y-93449763D01*
X177364902Y-93199238D01*
X177231518Y-92965864D01*
X177224166Y-92956537D01*
X177132414Y-92840151D01*
X177065105Y-92754769D01*
X176869317Y-92570591D01*
X176704857Y-92456500D01*
X176652299Y-92420039D01*
X176652296Y-92420037D01*
X176648457Y-92417374D01*
X176644264Y-92415306D01*
X176411564Y-92300551D01*
X176411561Y-92300550D01*
X176407376Y-92298486D01*
X176398214Y-92295553D01*
X176264534Y-92252762D01*
X176151370Y-92216538D01*
X176146763Y-92215788D01*
X176146760Y-92215787D01*
X175890674Y-92174081D01*
X175890675Y-92174081D01*
X175886063Y-92173330D01*
X175755719Y-92171624D01*
X175621961Y-92169873D01*
X175621958Y-92169873D01*
X175617284Y-92169812D01*
X175350937Y-92206060D01*
X175346451Y-92207368D01*
X175346449Y-92207368D01*
X175320989Y-92214789D01*
X175092874Y-92281278D01*
X175088621Y-92283238D01*
X175088620Y-92283239D01*
X175082592Y-92286018D01*
X174848763Y-92393815D01*
X174827591Y-92407696D01*
X174627881Y-92538631D01*
X174627876Y-92538635D01*
X174623968Y-92541197D01*
X174554387Y-92603301D01*
X174459621Y-92687883D01*
X174423426Y-92720188D01*
X174420433Y-92723786D01*
X174417189Y-92727146D01*
X174416211Y-92726202D01*
X174362295Y-92762421D01*
X174291313Y-92763865D01*
X174230819Y-92726704D01*
X174203730Y-92678710D01*
X174203568Y-92678174D01*
X174202886Y-92675916D01*
X174202527Y-92674704D01*
X174202405Y-92674284D01*
X174176372Y-92584678D01*
X174173900Y-92579910D01*
X174172348Y-92574768D01*
X174169453Y-92569323D01*
X174169450Y-92569316D01*
X174128367Y-92492050D01*
X174127753Y-92490882D01*
X174120863Y-92477588D01*
X174084634Y-92407696D01*
X174081282Y-92403497D01*
X174078761Y-92398756D01*
X174070391Y-92388493D01*
X174019562Y-92326171D01*
X174018734Y-92325145D01*
X173989429Y-92288436D01*
X173989428Y-92288435D01*
X173987232Y-92285684D01*
X173984737Y-92283189D01*
X173984027Y-92282395D01*
X173980307Y-92278040D01*
X173956663Y-92249049D01*
X173956660Y-92249046D01*
X173952768Y-92244274D01*
X173917127Y-92214789D01*
X173908348Y-92206800D01*
X170205239Y-88503691D01*
X170171213Y-88441379D01*
X170176278Y-88370564D01*
X170218825Y-88313728D01*
X170241085Y-88300401D01*
X170323758Y-88261851D01*
X170323764Y-88261847D01*
X170328749Y-88259523D01*
X170434649Y-88185371D01*
X170511789Y-88131357D01*
X170511792Y-88131355D01*
X170516300Y-88128198D01*
X170678198Y-87966300D01*
X170685464Y-87955923D01*
X170768995Y-87836629D01*
X170824452Y-87792301D01*
X170872208Y-87782900D01*
X172144737Y-87782900D01*
X172153308Y-87783192D01*
X172206843Y-87786842D01*
X172214320Y-87785537D01*
X172214321Y-87785537D01*
X172239626Y-87781121D01*
X172265347Y-87776631D01*
X172271865Y-87775670D01*
X172290223Y-87773448D01*
X172323262Y-87769450D01*
X172323264Y-87769450D01*
X172330805Y-87768537D01*
X172337913Y-87765851D01*
X172344879Y-87764140D01*
X172350068Y-87762721D01*
X172356947Y-87760644D01*
X172364424Y-87759339D01*
X172418795Y-87735471D01*
X172424886Y-87732986D01*
X172473336Y-87714679D01*
X172473338Y-87714678D01*
X172480441Y-87711994D01*
X172486702Y-87707691D01*
X172493026Y-87704385D01*
X172497798Y-87701729D01*
X172503944Y-87698094D01*
X172510896Y-87695042D01*
X172558001Y-87658898D01*
X172563334Y-87655023D01*
X172610101Y-87622880D01*
X172677568Y-87600780D01*
X172714081Y-87605014D01*
X172740594Y-87612119D01*
X172740608Y-87612121D01*
X172745913Y-87613543D01*
X172974000Y-87633498D01*
X173202087Y-87613543D01*
X173207398Y-87612120D01*
X173207409Y-87612118D01*
X173234980Y-87604730D01*
X173305956Y-87606419D01*
X173356687Y-87637341D01*
X175535386Y-89816039D01*
X175541239Y-89822304D01*
X175576524Y-89862752D01*
X175597729Y-89877655D01*
X175625099Y-89896891D01*
X175630393Y-89900823D01*
X175677121Y-89937463D01*
X175684047Y-89940590D01*
X175690176Y-89944302D01*
X175694815Y-89946949D01*
X175701182Y-89950363D01*
X175707397Y-89954731D01*
X175714472Y-89957490D01*
X175714475Y-89957491D01*
X175762703Y-89976294D01*
X175768781Y-89978849D01*
X175822912Y-90003290D01*
X175830380Y-90004674D01*
X175837196Y-90006810D01*
X175842368Y-90008284D01*
X175849353Y-90010077D01*
X175856434Y-90012838D01*
X175863971Y-90013830D01*
X175863970Y-90013830D01*
X175915289Y-90020586D01*
X175921805Y-90021618D01*
X175972728Y-90031056D01*
X175972730Y-90031056D01*
X175980197Y-90032440D01*
X175987777Y-90032003D01*
X175987778Y-90032003D01*
X176037968Y-90029109D01*
X176045221Y-90028900D01*
X178313605Y-90028900D01*
X178381726Y-90048902D01*
X178428356Y-90103240D01*
X178429220Y-90105646D01*
X178431433Y-90109765D01*
X178431435Y-90109769D01*
X178497844Y-90233361D01*
X178556450Y-90342431D01*
X178559241Y-90346168D01*
X178559245Y-90346175D01*
X178640887Y-90455506D01*
X178717281Y-90557810D01*
X178720590Y-90561090D01*
X178720595Y-90561096D01*
X178862615Y-90701881D01*
X178908180Y-90747050D01*
X178911942Y-90749808D01*
X178911945Y-90749811D01*
X179119605Y-90902073D01*
X179162713Y-90958484D01*
X179171100Y-91003685D01*
X179171100Y-91549792D01*
X179151098Y-91617913D01*
X179117371Y-91653005D01*
X178992211Y-91740643D01*
X178992208Y-91740645D01*
X178987700Y-91743802D01*
X178825802Y-91905700D01*
X178822645Y-91910208D01*
X178822643Y-91910211D01*
X178808636Y-91930215D01*
X178694477Y-92093251D01*
X178692154Y-92098233D01*
X178692151Y-92098238D01*
X178604589Y-92286018D01*
X178597716Y-92300757D01*
X178596294Y-92306065D01*
X178596293Y-92306067D01*
X178550334Y-92477588D01*
X178538457Y-92521913D01*
X178518502Y-92750000D01*
X178538457Y-92978087D01*
X178539881Y-92983400D01*
X178539881Y-92983402D01*
X178580690Y-93135700D01*
X178597716Y-93199243D01*
X178600039Y-93204224D01*
X178600039Y-93204225D01*
X178692151Y-93401762D01*
X178692154Y-93401767D01*
X178694477Y-93406749D01*
X178767257Y-93510689D01*
X178781309Y-93530757D01*
X178825802Y-93594300D01*
X178987700Y-93756198D01*
X178992208Y-93759355D01*
X178992211Y-93759357D01*
X179070389Y-93814098D01*
X179175251Y-93887523D01*
X179180233Y-93889846D01*
X179180238Y-93889849D01*
X179377775Y-93981961D01*
X179382757Y-93984284D01*
X179388065Y-93985706D01*
X179388067Y-93985707D01*
X179598598Y-94042119D01*
X179598600Y-94042119D01*
X179603913Y-94043543D01*
X179832000Y-94063498D01*
X180060087Y-94043543D01*
X180065400Y-94042119D01*
X180065402Y-94042119D01*
X180275933Y-93985707D01*
X180275935Y-93985706D01*
X180281243Y-93984284D01*
X180286225Y-93981961D01*
X180483762Y-93889849D01*
X180483767Y-93889846D01*
X180488749Y-93887523D01*
X180593611Y-93814098D01*
X180671789Y-93759357D01*
X180671792Y-93759355D01*
X180676300Y-93756198D01*
X180838198Y-93594300D01*
X180882692Y-93530757D01*
X180896743Y-93510689D01*
X180969523Y-93406749D01*
X180971846Y-93401767D01*
X180971849Y-93401762D01*
X181063961Y-93204225D01*
X181063961Y-93204224D01*
X181066284Y-93199243D01*
X181083311Y-93135700D01*
X181124119Y-92983402D01*
X181124119Y-92983400D01*
X181125543Y-92978087D01*
X181145498Y-92750000D01*
X181125543Y-92521913D01*
X181113666Y-92477588D01*
X181067707Y-92306067D01*
X181067706Y-92306065D01*
X181066284Y-92300757D01*
X181059411Y-92286018D01*
X180971849Y-92098238D01*
X180971846Y-92098233D01*
X180969523Y-92093251D01*
X180855364Y-91930215D01*
X180841357Y-91910211D01*
X180841355Y-91910208D01*
X180838198Y-91905700D01*
X180676300Y-91743802D01*
X180671792Y-91740645D01*
X180671789Y-91740643D01*
X180546629Y-91653005D01*
X180502301Y-91597548D01*
X180492900Y-91549792D01*
X180492900Y-91228209D01*
X180512902Y-91160088D01*
X180566558Y-91113595D01*
X180586819Y-91106361D01*
X180671921Y-91083955D01*
X180676441Y-91082765D01*
X180923414Y-90976657D01*
X181043941Y-90902073D01*
X181148017Y-90837669D01*
X181148021Y-90837666D01*
X181151990Y-90835210D01*
X181357149Y-90661530D01*
X181534382Y-90459434D01*
X181539636Y-90451267D01*
X181659321Y-90265195D01*
X181679797Y-90233361D01*
X181790199Y-89988278D01*
X181802602Y-89944302D01*
X181861893Y-89734072D01*
X181861894Y-89734069D01*
X181863163Y-89729568D01*
X181875982Y-89628801D01*
X181896688Y-89466045D01*
X181896688Y-89466041D01*
X181897086Y-89462915D01*
X181897285Y-89455341D01*
X181899089Y-89386398D01*
X181899571Y-89368000D01*
X181881335Y-89122607D01*
X181879996Y-89104592D01*
X181879996Y-89104591D01*
X181879650Y-89099937D01*
X181877792Y-89091724D01*
X181821361Y-88842331D01*
X181821360Y-88842326D01*
X181820327Y-88837763D01*
X181722902Y-88587238D01*
X181589518Y-88353864D01*
X181581249Y-88343374D01*
X181512657Y-88256366D01*
X181423105Y-88142769D01*
X181227317Y-87958591D01*
X181051511Y-87836629D01*
X181010299Y-87808039D01*
X181010296Y-87808037D01*
X181006457Y-87805374D01*
X181002264Y-87803306D01*
X180769564Y-87688551D01*
X180769561Y-87688550D01*
X180765376Y-87686486D01*
X180717745Y-87671239D01*
X180611847Y-87637341D01*
X180509370Y-87604538D01*
X180504763Y-87603788D01*
X180504760Y-87603787D01*
X180248674Y-87562081D01*
X180248675Y-87562081D01*
X180244063Y-87561330D01*
X180113719Y-87559624D01*
X179979961Y-87557873D01*
X179979958Y-87557873D01*
X179975284Y-87557812D01*
X179708937Y-87594060D01*
X179704451Y-87595368D01*
X179704449Y-87595368D01*
X179652849Y-87610408D01*
X179450874Y-87669278D01*
X179206763Y-87781815D01*
X179202854Y-87784378D01*
X178985881Y-87926631D01*
X178985876Y-87926635D01*
X178981968Y-87929197D01*
X178934071Y-87971947D01*
X178808781Y-88083773D01*
X178781426Y-88108188D01*
X178609544Y-88314854D01*
X178607121Y-88318847D01*
X178491556Y-88509292D01*
X178470096Y-88544656D01*
X178468287Y-88548970D01*
X178468285Y-88548974D01*
X178434382Y-88629825D01*
X178389594Y-88684911D01*
X178318185Y-88707100D01*
X176347944Y-88707100D01*
X176279823Y-88687098D01*
X176258849Y-88670195D01*
X175275140Y-87686486D01*
X174291341Y-86702688D01*
X174257316Y-86640376D01*
X174258729Y-86580982D01*
X174266119Y-86553402D01*
X174266119Y-86553400D01*
X174267543Y-86548087D01*
X174287498Y-86320000D01*
X174267543Y-86091913D01*
X174239328Y-85986615D01*
X174209707Y-85876067D01*
X174209706Y-85876065D01*
X174208284Y-85870757D01*
X174204897Y-85863493D01*
X174113849Y-85668238D01*
X174113846Y-85668233D01*
X174111523Y-85663251D01*
X174035075Y-85554072D01*
X173983357Y-85480211D01*
X173983355Y-85480208D01*
X173980198Y-85475700D01*
X173818300Y-85313802D01*
X173813792Y-85310645D01*
X173813789Y-85310643D01*
X173709031Y-85237291D01*
X173630749Y-85182477D01*
X173625767Y-85180154D01*
X173625762Y-85180151D01*
X173428225Y-85088039D01*
X173428224Y-85088039D01*
X173423243Y-85085716D01*
X173417935Y-85084294D01*
X173417933Y-85084293D01*
X173207402Y-85027881D01*
X173207400Y-85027881D01*
X173202087Y-85026457D01*
X172974000Y-85006502D01*
X172745913Y-85026457D01*
X172740600Y-85027881D01*
X172740598Y-85027881D01*
X172530067Y-85084293D01*
X172530065Y-85084294D01*
X172524757Y-85085716D01*
X172519776Y-85088039D01*
X172519775Y-85088039D01*
X172322238Y-85180151D01*
X172322233Y-85180154D01*
X172317251Y-85182477D01*
X172238969Y-85237291D01*
X172134211Y-85310643D01*
X172134208Y-85310645D01*
X172129700Y-85313802D01*
X171967802Y-85475700D01*
X171964645Y-85480208D01*
X171964643Y-85480211D01*
X171912925Y-85554072D01*
X171836477Y-85663251D01*
X171834154Y-85668233D01*
X171834151Y-85668238D01*
X171743103Y-85863493D01*
X171739716Y-85870757D01*
X171738294Y-85876065D01*
X171738293Y-85876067D01*
X171708672Y-85986615D01*
X171680457Y-86091913D01*
X171660502Y-86320000D01*
X171660981Y-86325475D01*
X171660981Y-86330982D01*
X171659484Y-86330982D01*
X171646869Y-86393731D01*
X171597466Y-86444720D01*
X171535341Y-86461100D01*
X170872208Y-86461100D01*
X170804087Y-86441098D01*
X170768995Y-86407371D01*
X170681357Y-86282211D01*
X170681355Y-86282208D01*
X170678198Y-86277700D01*
X170516300Y-86115802D01*
X170511792Y-86112645D01*
X170511789Y-86112643D01*
X170412797Y-86043328D01*
X170328749Y-85984477D01*
X170323767Y-85982154D01*
X170323762Y-85982151D01*
X170126225Y-85890039D01*
X170126224Y-85890039D01*
X170121243Y-85887716D01*
X170115935Y-85886294D01*
X170115933Y-85886293D01*
X169905402Y-85829881D01*
X169905400Y-85829881D01*
X169900087Y-85828457D01*
X169672000Y-85808502D01*
X169443913Y-85828457D01*
X169438600Y-85829881D01*
X169438598Y-85829881D01*
X169228067Y-85886293D01*
X169228065Y-85886294D01*
X169222757Y-85887716D01*
X169217776Y-85890039D01*
X169217775Y-85890039D01*
X169020238Y-85982151D01*
X169020233Y-85982154D01*
X169015251Y-85984477D01*
X168931203Y-86043328D01*
X168832211Y-86112643D01*
X168832208Y-86112645D01*
X168827700Y-86115802D01*
X168665802Y-86277700D01*
X168662645Y-86282208D01*
X168662643Y-86282211D01*
X168636183Y-86320000D01*
X168534477Y-86465251D01*
X168532153Y-86470236D01*
X168532149Y-86470242D01*
X168493599Y-86552915D01*
X168446683Y-86606200D01*
X168378405Y-86625662D01*
X168310445Y-86605121D01*
X168290309Y-86588761D01*
X168274205Y-86572657D01*
X168240179Y-86510345D01*
X168237300Y-86483562D01*
X168237300Y-83209076D01*
X168238037Y-83195468D01*
X168241497Y-83163621D01*
X168241497Y-83163617D01*
X168242162Y-83157496D01*
X168237754Y-83107110D01*
X168237425Y-83102282D01*
X168237300Y-83099728D01*
X168237300Y-83096643D01*
X168233076Y-83053559D01*
X168232957Y-83052281D01*
X168225325Y-82965045D01*
X168225325Y-82965043D01*
X168224788Y-82958909D01*
X168223289Y-82953749D01*
X168222765Y-82948406D01*
X168195679Y-82858694D01*
X168195323Y-82857491D01*
X168170894Y-82773405D01*
X168170894Y-82773404D01*
X168169172Y-82767478D01*
X168166700Y-82762710D01*
X168165148Y-82757568D01*
X168162253Y-82752123D01*
X168162250Y-82752116D01*
X168121167Y-82674850D01*
X168120553Y-82673682D01*
X168088227Y-82611317D01*
X168077434Y-82590496D01*
X168074082Y-82586297D01*
X168071561Y-82581556D01*
X168057915Y-82564824D01*
X168012362Y-82508971D01*
X168011534Y-82507945D01*
X167982229Y-82471236D01*
X167982228Y-82471235D01*
X167980032Y-82468484D01*
X167977537Y-82465989D01*
X167976827Y-82465195D01*
X167973107Y-82460840D01*
X167949463Y-82431849D01*
X167949460Y-82431846D01*
X167945568Y-82427074D01*
X167909927Y-82397589D01*
X167901148Y-82389600D01*
X166661405Y-81149857D01*
X166627379Y-81087545D01*
X166624500Y-81060762D01*
X166624500Y-80772000D01*
X176018502Y-80772000D01*
X176038457Y-81000087D01*
X176039881Y-81005400D01*
X176039881Y-81005402D01*
X176096293Y-81215931D01*
X176097716Y-81221243D01*
X176100039Y-81226224D01*
X176100039Y-81226225D01*
X176192151Y-81423762D01*
X176192154Y-81423767D01*
X176194477Y-81428749D01*
X176325802Y-81616300D01*
X176487700Y-81778198D01*
X176492208Y-81781355D01*
X176492211Y-81781357D01*
X176570389Y-81836098D01*
X176675251Y-81909523D01*
X176680233Y-81911846D01*
X176680238Y-81911849D01*
X176877775Y-82003961D01*
X176882757Y-82006284D01*
X176888065Y-82007706D01*
X176888067Y-82007707D01*
X177098598Y-82064119D01*
X177098600Y-82064119D01*
X177103913Y-82065543D01*
X177332000Y-82085498D01*
X177560087Y-82065543D01*
X177565398Y-82064120D01*
X177565409Y-82064118D01*
X177592980Y-82056730D01*
X177663956Y-82058419D01*
X177714687Y-82089341D01*
X178678396Y-83053050D01*
X178712422Y-83115362D01*
X178707357Y-83186177D01*
X178686177Y-83222712D01*
X178609544Y-83314854D01*
X178470096Y-83544656D01*
X178468287Y-83548970D01*
X178468285Y-83548974D01*
X178378137Y-83763955D01*
X178366148Y-83792545D01*
X178299981Y-84053077D01*
X178273050Y-84320526D01*
X178273274Y-84325192D01*
X178273274Y-84325197D01*
X178277432Y-84411755D01*
X178285947Y-84589019D01*
X178338388Y-84852656D01*
X178429220Y-85105646D01*
X178556450Y-85342431D01*
X178559241Y-85346168D01*
X178559245Y-85346175D01*
X178659335Y-85480211D01*
X178717281Y-85557810D01*
X178720590Y-85561090D01*
X178720595Y-85561096D01*
X178881533Y-85720635D01*
X178908180Y-85747050D01*
X178911942Y-85749808D01*
X178911945Y-85749811D01*
X179102092Y-85889232D01*
X179124954Y-85905995D01*
X179129089Y-85908171D01*
X179129093Y-85908173D01*
X179358698Y-86028975D01*
X179362840Y-86031154D01*
X179616613Y-86119775D01*
X179621206Y-86120647D01*
X179876109Y-86169042D01*
X179876112Y-86169042D01*
X179880698Y-86169913D01*
X180008370Y-86174929D01*
X180144625Y-86180283D01*
X180144630Y-86180283D01*
X180149293Y-86180466D01*
X180253607Y-86169042D01*
X180411844Y-86151713D01*
X180411850Y-86151712D01*
X180416497Y-86151203D01*
X180506417Y-86127529D01*
X180671918Y-86083956D01*
X180671920Y-86083955D01*
X180676441Y-86082765D01*
X180684788Y-86079179D01*
X180919120Y-85978502D01*
X180919122Y-85978501D01*
X180923414Y-85976657D01*
X181037603Y-85905995D01*
X181148017Y-85837669D01*
X181148021Y-85837666D01*
X181151990Y-85835210D01*
X181357149Y-85661530D01*
X181534382Y-85459434D01*
X181679797Y-85233361D01*
X181790199Y-84988278D01*
X181827337Y-84856598D01*
X181861893Y-84734072D01*
X181861894Y-84734069D01*
X181863163Y-84729568D01*
X181880460Y-84593604D01*
X181896688Y-84466045D01*
X181896688Y-84466041D01*
X181897086Y-84462915D01*
X181897385Y-84451521D01*
X181899488Y-84371160D01*
X181899571Y-84368000D01*
X181890482Y-84245700D01*
X181879996Y-84104592D01*
X181879996Y-84104591D01*
X181879650Y-84099937D01*
X181875999Y-84083802D01*
X181821361Y-83842331D01*
X181821360Y-83842326D01*
X181820327Y-83837763D01*
X181722902Y-83587238D01*
X181589518Y-83353864D01*
X181573953Y-83334119D01*
X181452079Y-83179523D01*
X181423105Y-83142769D01*
X181227317Y-82958591D01*
X181006457Y-82805374D01*
X181002264Y-82803306D01*
X180769564Y-82688551D01*
X180769561Y-82688550D01*
X180765376Y-82686486D01*
X180725377Y-82673682D01*
X180663621Y-82653914D01*
X180509370Y-82604538D01*
X180504763Y-82603788D01*
X180504760Y-82603787D01*
X180248674Y-82562081D01*
X180248675Y-82562081D01*
X180244063Y-82561330D01*
X180189660Y-82560618D01*
X180104711Y-82559506D01*
X180036858Y-82538614D01*
X180017265Y-82522612D01*
X178649341Y-81154688D01*
X178615315Y-81092376D01*
X178616729Y-81032982D01*
X178624119Y-81005402D01*
X178624119Y-81005400D01*
X178625543Y-81000087D01*
X178645498Y-80772000D01*
X178625543Y-80543913D01*
X178602361Y-80457397D01*
X178567707Y-80328067D01*
X178567706Y-80328065D01*
X178566284Y-80322757D01*
X178551759Y-80291608D01*
X178471849Y-80120238D01*
X178471846Y-80120233D01*
X178469523Y-80115251D01*
X178363878Y-79964375D01*
X178341357Y-79932211D01*
X178341355Y-79932208D01*
X178338198Y-79927700D01*
X178176300Y-79765802D01*
X178171792Y-79762645D01*
X178171789Y-79762643D01*
X178046629Y-79675005D01*
X178002301Y-79619548D01*
X177992900Y-79571792D01*
X177992900Y-75557882D01*
X178012902Y-75489761D01*
X178066558Y-75443268D01*
X178136832Y-75433164D01*
X178165283Y-75440730D01*
X178214252Y-75460118D01*
X178287261Y-75489024D01*
X178291096Y-75490009D01*
X178291100Y-75490010D01*
X178337927Y-75502033D01*
X178595364Y-75568132D01*
X178599292Y-75568628D01*
X178599296Y-75568629D01*
X178724276Y-75584417D01*
X178910952Y-75608000D01*
X179229048Y-75608000D01*
X179415724Y-75584417D01*
X179540704Y-75568629D01*
X179540708Y-75568628D01*
X179544636Y-75568132D01*
X179802073Y-75502033D01*
X179848896Y-75490011D01*
X179848900Y-75490010D01*
X179852739Y-75489024D01*
X179856419Y-75487567D01*
X179856422Y-75487566D01*
X180041241Y-75414391D01*
X180148498Y-75371925D01*
X180151960Y-75370022D01*
X180423776Y-75220590D01*
X180423779Y-75220588D01*
X180427248Y-75218681D01*
X180430452Y-75216353D01*
X180430457Y-75216350D01*
X180681390Y-75034037D01*
X180681392Y-75034036D01*
X180684594Y-75031709D01*
X180705263Y-75012300D01*
X180913589Y-74816667D01*
X180916476Y-74813956D01*
X181119238Y-74568859D01*
X181289683Y-74300281D01*
X181291367Y-74296702D01*
X181291371Y-74296695D01*
X181423433Y-74016049D01*
X181423435Y-74016045D01*
X181425122Y-74012459D01*
X181450421Y-73934598D01*
X181522192Y-73713707D01*
X181523419Y-73709931D01*
X181583025Y-73397469D01*
X181602998Y-73080000D01*
X181583025Y-72762531D01*
X181523419Y-72450069D01*
X181425122Y-72147541D01*
X181423433Y-72143951D01*
X181291371Y-71863305D01*
X181291367Y-71863298D01*
X181289683Y-71859719D01*
X181244569Y-71788630D01*
X181171750Y-71673886D01*
X181119238Y-71591141D01*
X181111507Y-71581795D01*
X181007800Y-71456436D01*
X180916476Y-71346044D01*
X180806011Y-71242310D01*
X180687480Y-71131001D01*
X180687479Y-71131000D01*
X180684594Y-71128291D01*
X180681390Y-71125963D01*
X180430457Y-70943650D01*
X180430452Y-70943647D01*
X180427248Y-70941319D01*
X180355211Y-70901716D01*
X180151960Y-70789978D01*
X180151957Y-70789977D01*
X180148498Y-70788075D01*
X179905792Y-70691981D01*
X179856422Y-70672434D01*
X179856419Y-70672433D01*
X179852739Y-70670976D01*
X179848900Y-70669990D01*
X179848896Y-70669989D01*
X179705653Y-70633210D01*
X179544636Y-70591868D01*
X179540708Y-70591372D01*
X179540704Y-70591371D01*
X179415723Y-70575583D01*
X179229048Y-70552000D01*
X178910952Y-70552000D01*
X178724277Y-70575583D01*
X178599296Y-70591371D01*
X178599292Y-70591372D01*
X178595364Y-70591868D01*
X178434347Y-70633210D01*
X178291104Y-70669989D01*
X178291100Y-70669990D01*
X178287261Y-70670976D01*
X178283581Y-70672433D01*
X178283578Y-70672434D01*
X178234208Y-70691981D01*
X177991502Y-70788075D01*
X177988043Y-70789977D01*
X177988040Y-70789978D01*
X177784790Y-70901716D01*
X177712752Y-70941319D01*
X177709548Y-70943647D01*
X177709543Y-70943650D01*
X177458610Y-71125963D01*
X177455406Y-71128291D01*
X177452521Y-71131000D01*
X177452520Y-71131001D01*
X177333989Y-71242310D01*
X177223524Y-71346044D01*
X177132200Y-71456436D01*
X177028494Y-71581795D01*
X177020762Y-71591141D01*
X176968250Y-71673886D01*
X176895432Y-71788630D01*
X176850317Y-71859719D01*
X176848633Y-71863298D01*
X176848629Y-71863305D01*
X176716567Y-72143951D01*
X176714878Y-72147541D01*
X176616581Y-72450069D01*
X176556975Y-72762531D01*
X176537002Y-73080000D01*
X176556975Y-73397469D01*
X176616581Y-73709931D01*
X176617808Y-73713707D01*
X176689580Y-73934598D01*
X176714878Y-74012459D01*
X176716565Y-74016045D01*
X176716567Y-74016049D01*
X176834276Y-74266193D01*
X176845182Y-74336347D01*
X176823355Y-74392291D01*
X176809287Y-74412308D01*
X176803109Y-74421099D01*
X176799177Y-74426393D01*
X176762537Y-74473121D01*
X176759411Y-74480045D01*
X176755698Y-74486176D01*
X176753062Y-74490796D01*
X176749640Y-74497178D01*
X176745269Y-74503397D01*
X176742509Y-74510476D01*
X176723702Y-74558713D01*
X176721146Y-74564792D01*
X176696711Y-74618912D01*
X176695325Y-74626388D01*
X176693170Y-74633266D01*
X176691710Y-74638391D01*
X176689922Y-74645355D01*
X176687162Y-74652434D01*
X176686170Y-74659966D01*
X176686170Y-74659968D01*
X176679414Y-74711292D01*
X176678384Y-74717798D01*
X176667560Y-74776197D01*
X176667997Y-74783777D01*
X176667997Y-74783778D01*
X176670891Y-74833967D01*
X176671100Y-74841220D01*
X176671100Y-79571792D01*
X176651098Y-79639913D01*
X176617371Y-79675005D01*
X176492211Y-79762643D01*
X176492208Y-79762645D01*
X176487700Y-79765802D01*
X176325802Y-79927700D01*
X176322645Y-79932208D01*
X176322643Y-79932211D01*
X176300122Y-79964375D01*
X176194477Y-80115251D01*
X176192154Y-80120233D01*
X176192151Y-80120238D01*
X176112241Y-80291608D01*
X176097716Y-80322757D01*
X176096294Y-80328065D01*
X176096293Y-80328067D01*
X176061639Y-80457397D01*
X176038457Y-80543913D01*
X176018502Y-80772000D01*
X166624500Y-80772000D01*
X166624500Y-80371315D01*
X166647287Y-80299044D01*
X166698460Y-80225961D01*
X166745523Y-80158749D01*
X166747846Y-80153767D01*
X166747849Y-80153762D01*
X166839961Y-79956225D01*
X166839961Y-79956224D01*
X166842284Y-79951243D01*
X166848593Y-79927700D01*
X166900119Y-79735402D01*
X166900119Y-79735400D01*
X166901543Y-79730087D01*
X166921498Y-79502000D01*
X166901543Y-79273913D01*
X166900119Y-79268598D01*
X166843707Y-79058067D01*
X166843706Y-79058065D01*
X166842284Y-79052757D01*
X166820583Y-79006219D01*
X166747849Y-78850238D01*
X166747846Y-78850233D01*
X166745523Y-78845251D01*
X166647287Y-78704956D01*
X166624500Y-78632685D01*
X166624500Y-77786273D01*
X166625237Y-77772665D01*
X166628696Y-77740821D01*
X166629362Y-77734695D01*
X166624955Y-77684322D01*
X166624626Y-77679507D01*
X166624500Y-77676931D01*
X166624500Y-77673843D01*
X166620267Y-77630665D01*
X166620146Y-77629354D01*
X166612524Y-77542245D01*
X166611987Y-77536108D01*
X166610489Y-77530953D01*
X166609965Y-77525606D01*
X166582823Y-77435707D01*
X166582500Y-77434615D01*
X166558091Y-77350596D01*
X166558089Y-77350590D01*
X166556371Y-77344678D01*
X166553902Y-77339914D01*
X166552348Y-77334768D01*
X166508310Y-77251944D01*
X166507763Y-77250902D01*
X166467471Y-77173170D01*
X166467471Y-77173169D01*
X166464633Y-77167695D01*
X166461282Y-77163497D01*
X166458761Y-77158756D01*
X166399613Y-77086233D01*
X166398785Y-77085208D01*
X166369428Y-77048434D01*
X166367232Y-77045683D01*
X166364736Y-77043187D01*
X166364017Y-77042383D01*
X166360297Y-77038028D01*
X166336663Y-77009049D01*
X166336660Y-77009046D01*
X166332768Y-77004274D01*
X166297133Y-76974794D01*
X166288354Y-76966805D01*
X165661554Y-76340005D01*
X165015528Y-75693980D01*
X164981503Y-75631668D01*
X164986567Y-75560853D01*
X165029114Y-75504017D01*
X165095634Y-75479206D01*
X165115603Y-75479364D01*
X165134522Y-75481019D01*
X165134525Y-75481019D01*
X165140000Y-75481498D01*
X165368087Y-75461543D01*
X165373400Y-75460119D01*
X165373402Y-75460119D01*
X165583933Y-75403707D01*
X165583935Y-75403706D01*
X165589243Y-75402284D01*
X165594225Y-75399961D01*
X165791762Y-75307849D01*
X165791767Y-75307846D01*
X165796749Y-75305523D01*
X165924101Y-75216350D01*
X165979789Y-75177357D01*
X165979792Y-75177355D01*
X165984300Y-75174198D01*
X166146198Y-75012300D01*
X166154966Y-74999779D01*
X166248707Y-74865902D01*
X166277523Y-74824749D01*
X166279846Y-74819767D01*
X166279849Y-74819762D01*
X166371961Y-74622225D01*
X166371961Y-74622224D01*
X166374284Y-74617243D01*
X166402893Y-74510476D01*
X166432119Y-74401402D01*
X166432119Y-74401400D01*
X166433543Y-74396087D01*
X166453498Y-74168000D01*
X166433543Y-73939913D01*
X166431174Y-73931072D01*
X166375707Y-73724067D01*
X166375706Y-73724065D01*
X166374284Y-73718757D01*
X166371929Y-73713707D01*
X166279849Y-73516238D01*
X166279846Y-73516233D01*
X166277523Y-73511251D01*
X166146198Y-73323700D01*
X165984300Y-73161802D01*
X165979792Y-73158645D01*
X165979789Y-73158643D01*
X165878493Y-73087715D01*
X165796749Y-73030477D01*
X165791767Y-73028154D01*
X165791762Y-73028151D01*
X165594225Y-72936039D01*
X165594224Y-72936039D01*
X165589243Y-72933716D01*
X165583935Y-72932294D01*
X165583933Y-72932293D01*
X165373402Y-72875881D01*
X165373400Y-72875881D01*
X165368087Y-72874457D01*
X165140000Y-72854502D01*
X164911913Y-72874457D01*
X164906600Y-72875881D01*
X164906598Y-72875881D01*
X164696067Y-72932293D01*
X164696065Y-72932294D01*
X164690757Y-72933716D01*
X164685776Y-72936039D01*
X164685775Y-72936039D01*
X164488238Y-73028151D01*
X164488233Y-73028154D01*
X164483251Y-73030477D01*
X164418178Y-73076042D01*
X164342956Y-73128713D01*
X164270685Y-73151500D01*
X162921315Y-73151500D01*
X162849044Y-73128713D01*
X162773822Y-73076042D01*
X162708749Y-73030477D01*
X162703767Y-73028154D01*
X162703762Y-73028151D01*
X162506225Y-72936039D01*
X162506224Y-72936039D01*
X162501243Y-72933716D01*
X162495935Y-72932294D01*
X162495933Y-72932293D01*
X162367950Y-72898000D01*
X162280087Y-72874457D01*
X162250272Y-72871848D01*
X162233627Y-72870392D01*
X162167509Y-72844529D01*
X162155515Y-72833967D01*
X160782815Y-71461267D01*
X160773713Y-71451124D01*
X160753634Y-71426151D01*
X160749775Y-71421351D01*
X160710998Y-71388813D01*
X160707371Y-71385649D01*
X160705502Y-71383954D01*
X160703308Y-71381760D01*
X160669742Y-71354188D01*
X160668945Y-71353526D01*
X160597067Y-71293214D01*
X160592361Y-71290627D01*
X160588211Y-71287218D01*
X160582787Y-71284310D01*
X160582777Y-71284303D01*
X160505632Y-71242939D01*
X160504472Y-71242310D01*
X160486972Y-71232689D01*
X160422379Y-71197179D01*
X160417259Y-71195555D01*
X160412526Y-71193017D01*
X160323007Y-71165648D01*
X160321748Y-71165256D01*
X160238239Y-71138765D01*
X160238235Y-71138764D01*
X160232365Y-71136902D01*
X160227027Y-71136303D01*
X160221891Y-71134733D01*
X160215760Y-71134110D01*
X160215759Y-71134110D01*
X160185150Y-71131001D01*
X160128569Y-71125254D01*
X160127449Y-71125134D01*
X160077216Y-71119500D01*
X160073711Y-71119500D01*
X160072603Y-71119438D01*
X160066908Y-71118990D01*
X160029695Y-71115210D01*
X160029688Y-71115210D01*
X160023565Y-71114588D01*
X159977515Y-71118941D01*
X159965657Y-71119500D01*
X140510111Y-71119500D01*
X140497378Y-71118855D01*
X140461498Y-71115210D01*
X140461493Y-71115210D01*
X140455370Y-71114588D01*
X140409320Y-71118941D01*
X140397462Y-71119500D01*
X139045315Y-71119500D01*
X138973044Y-71096713D01*
X138960371Y-71087839D01*
X138832749Y-70998477D01*
X138827767Y-70996154D01*
X138827762Y-70996151D01*
X138630225Y-70904039D01*
X138630224Y-70904039D01*
X138625243Y-70901716D01*
X138619935Y-70900294D01*
X138619933Y-70900293D01*
X138409402Y-70843881D01*
X138409400Y-70843881D01*
X138404087Y-70842457D01*
X138176000Y-70822502D01*
X137947913Y-70842457D01*
X137942600Y-70843881D01*
X137942598Y-70843881D01*
X137732067Y-70900293D01*
X137732065Y-70900294D01*
X137726757Y-70901716D01*
X137721776Y-70904039D01*
X137721775Y-70904039D01*
X137524238Y-70996151D01*
X137524233Y-70996154D01*
X137519251Y-70998477D01*
X137414389Y-71071902D01*
X137336211Y-71126643D01*
X137336208Y-71126645D01*
X137331700Y-71129802D01*
X137169802Y-71291700D01*
X137166645Y-71296208D01*
X137166643Y-71296211D01*
X137133648Y-71343333D01*
X137038477Y-71479251D01*
X137036154Y-71484233D01*
X137036151Y-71484238D01*
X136991465Y-71580069D01*
X136941716Y-71686757D01*
X136940292Y-71692070D01*
X136940292Y-71692071D01*
X136914558Y-71788111D01*
X136877606Y-71848734D01*
X136813746Y-71879755D01*
X136792851Y-71881500D01*
X134044669Y-71881500D01*
X133976548Y-71861498D01*
X133966577Y-71854382D01*
X133854414Y-71765800D01*
X133854410Y-71765798D01*
X133850359Y-71762598D01*
X133818305Y-71744903D01*
X133773709Y-71720285D01*
X133654789Y-71654638D01*
X133649920Y-71652914D01*
X133649916Y-71652912D01*
X133449087Y-71581795D01*
X133449083Y-71581794D01*
X133444212Y-71580069D01*
X133439119Y-71579162D01*
X133439116Y-71579161D01*
X133229373Y-71541800D01*
X133229367Y-71541799D01*
X133224284Y-71540894D01*
X133150452Y-71539992D01*
X133006081Y-71538228D01*
X133006079Y-71538228D01*
X133000911Y-71538165D01*
X132780091Y-71571955D01*
X132567756Y-71641357D01*
X132369607Y-71744507D01*
X132365474Y-71747610D01*
X132365471Y-71747612D01*
X132195100Y-71875530D01*
X132190965Y-71878635D01*
X132036629Y-72040138D01*
X131910743Y-72224680D01*
X131881117Y-72288505D01*
X131843702Y-72369109D01*
X131816688Y-72427305D01*
X131756989Y-72642570D01*
X131733251Y-72864695D01*
X131733548Y-72869848D01*
X131733548Y-72869851D01*
X131739011Y-72964590D01*
X131746110Y-73087715D01*
X131747247Y-73092761D01*
X131747248Y-73092767D01*
X131765218Y-73172502D01*
X131795222Y-73305639D01*
X131879266Y-73512616D01*
X131922124Y-73582554D01*
X131987434Y-73689130D01*
X131995987Y-73703088D01*
X132043094Y-73757469D01*
X132048737Y-73763984D01*
X132078220Y-73828570D01*
X132079500Y-73846482D01*
X132079500Y-75330685D01*
X132056713Y-75402956D01*
X131958477Y-75543251D01*
X131956154Y-75548233D01*
X131956151Y-75548238D01*
X131908247Y-75650970D01*
X131861716Y-75750757D01*
X131802457Y-75971913D01*
X131782502Y-76200000D01*
X131802457Y-76428087D01*
X131803881Y-76433402D01*
X131803882Y-76433407D01*
X131804362Y-76435198D01*
X131804343Y-76436018D01*
X131804836Y-76438817D01*
X131804274Y-76438916D01*
X131802675Y-76506175D01*
X131762883Y-76564972D01*
X131697620Y-76592922D01*
X131627606Y-76581152D01*
X131593562Y-76556909D01*
X129511273Y-74474620D01*
X129477247Y-74412308D01*
X129482312Y-74341493D01*
X129524859Y-74284657D01*
X129594657Y-74259654D01*
X129596659Y-74259563D01*
X129601837Y-74259753D01*
X129773145Y-74237808D01*
X129818288Y-74232025D01*
X129818289Y-74232025D01*
X129823416Y-74231368D01*
X129833032Y-74228483D01*
X130032429Y-74168661D01*
X130032434Y-74168659D01*
X130037384Y-74167174D01*
X130237994Y-74068896D01*
X130419860Y-73939173D01*
X130427990Y-73931072D01*
X130515292Y-73844074D01*
X130578096Y-73781489D01*
X130599566Y-73751611D01*
X130705435Y-73604277D01*
X130708453Y-73600077D01*
X130717114Y-73582554D01*
X130805136Y-73404453D01*
X130805137Y-73404451D01*
X130807430Y-73399811D01*
X130872370Y-73186069D01*
X130901529Y-72964590D01*
X130902227Y-72936039D01*
X130903074Y-72901365D01*
X130903074Y-72901361D01*
X130903156Y-72898000D01*
X130884852Y-72675361D01*
X130830431Y-72458702D01*
X130741354Y-72253840D01*
X130620014Y-72066277D01*
X130469670Y-71901051D01*
X130451594Y-71886775D01*
X130410532Y-71828858D01*
X130407301Y-71757935D01*
X130442926Y-71696524D01*
X130476036Y-71673888D01*
X130750869Y-71544562D01*
X131017375Y-71375432D01*
X131177531Y-71242939D01*
X131257530Y-71176758D01*
X131257531Y-71176757D01*
X131260582Y-71174233D01*
X131476654Y-70944140D01*
X131662184Y-70688779D01*
X131671972Y-70670976D01*
X131812340Y-70415648D01*
X131812341Y-70415647D01*
X131814247Y-70412179D01*
X131930443Y-70118702D01*
X132008940Y-69812975D01*
X132048500Y-69499821D01*
X132048500Y-69184179D01*
X132008940Y-68871025D01*
X131930443Y-68565298D01*
X131814247Y-68271821D01*
X131662184Y-67995221D01*
X131476654Y-67739860D01*
X131260582Y-67509767D01*
X131017375Y-67308568D01*
X130750869Y-67139438D01*
X130747290Y-67137754D01*
X130747283Y-67137750D01*
X130468856Y-67006733D01*
X130468852Y-67006731D01*
X130465266Y-67005044D01*
X130426097Y-66992317D01*
X130168848Y-66908732D01*
X130168850Y-66908732D01*
X130165072Y-66907505D01*
X129892139Y-66855440D01*
X129828973Y-66823028D01*
X129793357Y-66761611D01*
X129796601Y-66690688D01*
X129837673Y-66632778D01*
X129876812Y-66611839D01*
X129903785Y-66603075D01*
X129932167Y-66586689D01*
X130059994Y-66512888D01*
X130065715Y-66509585D01*
X130076721Y-66499675D01*
X130199766Y-66388885D01*
X130199767Y-66388883D01*
X130204669Y-66384470D01*
X130314573Y-66233200D01*
X130378209Y-66090273D01*
X130387940Y-66068416D01*
X130387940Y-66068414D01*
X130390625Y-66062385D01*
X130429500Y-65879490D01*
X130429500Y-65752695D01*
X131733251Y-65752695D01*
X131733548Y-65757848D01*
X131733548Y-65757851D01*
X131744624Y-65949943D01*
X131746110Y-65975715D01*
X131747247Y-65980761D01*
X131747248Y-65980767D01*
X131764187Y-66055928D01*
X131795222Y-66193639D01*
X131831509Y-66283004D01*
X131874503Y-66388885D01*
X131879266Y-66400616D01*
X131881965Y-66405020D01*
X131993182Y-66586510D01*
X131995987Y-66591088D01*
X131999367Y-66594990D01*
X132008138Y-66605116D01*
X132142250Y-66759938D01*
X132314126Y-66902632D01*
X132507000Y-67015338D01*
X132715692Y-67095030D01*
X132720760Y-67096061D01*
X132720763Y-67096062D01*
X132769119Y-67105900D01*
X132934597Y-67139567D01*
X132939772Y-67139757D01*
X132939774Y-67139757D01*
X133152673Y-67147564D01*
X133152677Y-67147564D01*
X133157837Y-67147753D01*
X133162957Y-67147097D01*
X133162959Y-67147097D01*
X133374288Y-67120025D01*
X133374289Y-67120025D01*
X133379416Y-67119368D01*
X133424307Y-67105900D01*
X133588429Y-67056661D01*
X133588434Y-67056659D01*
X133593384Y-67055174D01*
X133793994Y-66956896D01*
X133975860Y-66827173D01*
X134004340Y-66798793D01*
X134130435Y-66673137D01*
X134134096Y-66669489D01*
X134160476Y-66632778D01*
X134261435Y-66492277D01*
X134264453Y-66488077D01*
X134287914Y-66440608D01*
X134361136Y-66292453D01*
X134361137Y-66292451D01*
X134363430Y-66287811D01*
X134415361Y-66116888D01*
X134426865Y-66079023D01*
X134426865Y-66079021D01*
X134428370Y-66074069D01*
X134457529Y-65852590D01*
X134457977Y-65834250D01*
X134459074Y-65789365D01*
X134459074Y-65789361D01*
X134459156Y-65786000D01*
X134440852Y-65563361D01*
X134386431Y-65346702D01*
X134297354Y-65141840D01*
X134187628Y-64972229D01*
X134178822Y-64958617D01*
X134178820Y-64958614D01*
X134176014Y-64954277D01*
X134025670Y-64789051D01*
X134021619Y-64785852D01*
X134021615Y-64785848D01*
X133854414Y-64653800D01*
X133854410Y-64653798D01*
X133850359Y-64650598D01*
X133654789Y-64542638D01*
X133649920Y-64540914D01*
X133649916Y-64540912D01*
X133449087Y-64469795D01*
X133449083Y-64469794D01*
X133444212Y-64468069D01*
X133439119Y-64467162D01*
X133439116Y-64467161D01*
X133229373Y-64429800D01*
X133229367Y-64429799D01*
X133224284Y-64428894D01*
X133150452Y-64427992D01*
X133006081Y-64426228D01*
X133006079Y-64426228D01*
X133000911Y-64426165D01*
X132780091Y-64459955D01*
X132567756Y-64529357D01*
X132369607Y-64632507D01*
X132365474Y-64635610D01*
X132365471Y-64635612D01*
X132195100Y-64763530D01*
X132190965Y-64766635D01*
X132036629Y-64928138D01*
X131910743Y-65112680D01*
X131816688Y-65315305D01*
X131756989Y-65530570D01*
X131733251Y-65752695D01*
X130429500Y-65752695D01*
X130429500Y-65692510D01*
X130428110Y-65685968D01*
X130407128Y-65587256D01*
X130390625Y-65509615D01*
X130387940Y-65503584D01*
X130317258Y-65344830D01*
X130317257Y-65344828D01*
X130314573Y-65338800D01*
X130273330Y-65282033D01*
X130208548Y-65192869D01*
X130204669Y-65187530D01*
X130158757Y-65146190D01*
X130070623Y-65066834D01*
X130070622Y-65066833D01*
X130065715Y-65062415D01*
X129903785Y-64968925D01*
X129766754Y-64924401D01*
X129732235Y-64913185D01*
X129732234Y-64913185D01*
X129725956Y-64911145D01*
X129719393Y-64910455D01*
X129719392Y-64910455D01*
X129696803Y-64908081D01*
X129586620Y-64896500D01*
X129493380Y-64896500D01*
X129383197Y-64908081D01*
X129360608Y-64910455D01*
X129360607Y-64910455D01*
X129354044Y-64911145D01*
X129347766Y-64913185D01*
X129347765Y-64913185D01*
X129313246Y-64924401D01*
X129176215Y-64968925D01*
X129014285Y-65062415D01*
X129009378Y-65066833D01*
X129009377Y-65066834D01*
X128921244Y-65146190D01*
X128875331Y-65187530D01*
X128871452Y-65192869D01*
X128806671Y-65282033D01*
X128765427Y-65338800D01*
X128762743Y-65344828D01*
X128762742Y-65344830D01*
X128692060Y-65503584D01*
X128689375Y-65509615D01*
X128672872Y-65587256D01*
X128651891Y-65685968D01*
X128650500Y-65692510D01*
X128650500Y-65879490D01*
X128689375Y-66062385D01*
X128692060Y-66068414D01*
X128692060Y-66068416D01*
X128701792Y-66090273D01*
X128765427Y-66233200D01*
X128875331Y-66384470D01*
X128880233Y-66388883D01*
X128880234Y-66388885D01*
X129003279Y-66499675D01*
X129014285Y-66509585D01*
X129020006Y-66512888D01*
X129147834Y-66586689D01*
X129176215Y-66603075D01*
X129203188Y-66611839D01*
X129261794Y-66651913D01*
X129289430Y-66717310D01*
X129277323Y-66787267D01*
X129229316Y-66839573D01*
X129187862Y-66855440D01*
X128914928Y-66907505D01*
X128911150Y-66908732D01*
X128911152Y-66908732D01*
X128653904Y-66992317D01*
X128614734Y-67005044D01*
X128611148Y-67006731D01*
X128611144Y-67006733D01*
X128332717Y-67137750D01*
X128332710Y-67137754D01*
X128329131Y-67139438D01*
X128062625Y-67308568D01*
X127819418Y-67509767D01*
X127603346Y-67739860D01*
X127417816Y-67995221D01*
X127265753Y-68271821D01*
X127149557Y-68565298D01*
X127071060Y-68871025D01*
X127031500Y-69184179D01*
X127031500Y-69499821D01*
X127071060Y-69812975D01*
X127149557Y-70118702D01*
X127265753Y-70412179D01*
X127267659Y-70415647D01*
X127267660Y-70415648D01*
X127408029Y-70670976D01*
X127417816Y-70688779D01*
X127603346Y-70944140D01*
X127819418Y-71174233D01*
X127822469Y-71176757D01*
X127822470Y-71176758D01*
X127902469Y-71242939D01*
X128062625Y-71375432D01*
X128329131Y-71544562D01*
X128602468Y-71673184D01*
X128655588Y-71720285D01*
X128674811Y-71788630D01*
X128654032Y-71856518D01*
X128634918Y-71878590D01*
X128634965Y-71878635D01*
X128480629Y-72040138D01*
X128354743Y-72224680D01*
X128325117Y-72288505D01*
X128287702Y-72369109D01*
X128260688Y-72427305D01*
X128200989Y-72642570D01*
X128179407Y-72844529D01*
X128178621Y-72851880D01*
X128151493Y-72917489D01*
X128093201Y-72958018D01*
X128022251Y-72960597D01*
X127964239Y-72927586D01*
X127486614Y-72449961D01*
X127480760Y-72443695D01*
X127450470Y-72408973D01*
X127445476Y-72403248D01*
X127396898Y-72369107D01*
X127391604Y-72365175D01*
X127350855Y-72333223D01*
X127350856Y-72333223D01*
X127344879Y-72328537D01*
X127337955Y-72325411D01*
X127331824Y-72321698D01*
X127327204Y-72319062D01*
X127320822Y-72315640D01*
X127314603Y-72311269D01*
X127259286Y-72289701D01*
X127253207Y-72287146D01*
X127221593Y-72272872D01*
X127167651Y-72226475D01*
X127066822Y-72070617D01*
X127066820Y-72070614D01*
X127064014Y-72066277D01*
X126913670Y-71901051D01*
X126909619Y-71897852D01*
X126909615Y-71897848D01*
X126742414Y-71765800D01*
X126742410Y-71765798D01*
X126738359Y-71762598D01*
X126706305Y-71744903D01*
X126661709Y-71720285D01*
X126542789Y-71654638D01*
X126537920Y-71652914D01*
X126537916Y-71652912D01*
X126337087Y-71581795D01*
X126337083Y-71581794D01*
X126332212Y-71580069D01*
X126327119Y-71579162D01*
X126327116Y-71579161D01*
X126117373Y-71541800D01*
X126117367Y-71541799D01*
X126112284Y-71540894D01*
X126038452Y-71539992D01*
X125894081Y-71538228D01*
X125894079Y-71538228D01*
X125888911Y-71538165D01*
X125668091Y-71571955D01*
X125455756Y-71641357D01*
X125257607Y-71744507D01*
X125253474Y-71747610D01*
X125253471Y-71747612D01*
X125083100Y-71875530D01*
X125078965Y-71878635D01*
X124924629Y-72040138D01*
X124798743Y-72224680D01*
X124769117Y-72288505D01*
X124731702Y-72369109D01*
X124704688Y-72427305D01*
X124644989Y-72642570D01*
X124621251Y-72864695D01*
X124621548Y-72869848D01*
X124621548Y-72869851D01*
X124627011Y-72964590D01*
X124634110Y-73087715D01*
X124635247Y-73092761D01*
X124635248Y-73092767D01*
X124653218Y-73172502D01*
X124683222Y-73305639D01*
X124767266Y-73512616D01*
X124769965Y-73517020D01*
X124875434Y-73689130D01*
X124883987Y-73703088D01*
X124887367Y-73706990D01*
X124893244Y-73713775D01*
X125030250Y-73871938D01*
X125202126Y-74014632D01*
X125395000Y-74127338D01*
X125603692Y-74207030D01*
X125608760Y-74208061D01*
X125608763Y-74208062D01*
X125709136Y-74228483D01*
X125822597Y-74251567D01*
X125827772Y-74251757D01*
X125827774Y-74251757D01*
X126040673Y-74259564D01*
X126040677Y-74259564D01*
X126045837Y-74259753D01*
X126050957Y-74259097D01*
X126050959Y-74259097D01*
X126262288Y-74232025D01*
X126262289Y-74232025D01*
X126267416Y-74231368D01*
X126277032Y-74228483D01*
X126476429Y-74168661D01*
X126476434Y-74168659D01*
X126481384Y-74167174D01*
X126681994Y-74068896D01*
X126863860Y-73939173D01*
X126871990Y-73931072D01*
X126896305Y-73906841D01*
X126958676Y-73872923D01*
X127029483Y-73878111D01*
X127074341Y-73906995D01*
X132355393Y-79188047D01*
X132361246Y-79194312D01*
X132396524Y-79234752D01*
X132445093Y-79268887D01*
X132450386Y-79272818D01*
X132497122Y-79309463D01*
X132504050Y-79312591D01*
X132510206Y-79316319D01*
X132514825Y-79318954D01*
X132521181Y-79322362D01*
X132527397Y-79326731D01*
X132534476Y-79329491D01*
X132582698Y-79348292D01*
X132588779Y-79350848D01*
X132642912Y-79375290D01*
X132650375Y-79376673D01*
X132657193Y-79378810D01*
X132662378Y-79380287D01*
X132669355Y-79382078D01*
X132676434Y-79384838D01*
X132683967Y-79385830D01*
X132683968Y-79385830D01*
X132707152Y-79388882D01*
X132735308Y-79392589D01*
X132741805Y-79393618D01*
X132800198Y-79404440D01*
X132807779Y-79404003D01*
X132807780Y-79404003D01*
X132857968Y-79401109D01*
X132865221Y-79400900D01*
X138773500Y-79400900D01*
X138841621Y-79420902D01*
X138888114Y-79474558D01*
X138899500Y-79526900D01*
X138899500Y-79588134D01*
X138906255Y-79650316D01*
X138957385Y-79786705D01*
X139044739Y-79903261D01*
X139161295Y-79990615D01*
X139297684Y-80041745D01*
X139359866Y-80048500D01*
X140962657Y-80048500D01*
X141030778Y-80068502D01*
X141077271Y-80122158D01*
X141087375Y-80192432D01*
X141057881Y-80257012D01*
X141051752Y-80263595D01*
X141029961Y-80285386D01*
X141023696Y-80291239D01*
X140983248Y-80326524D01*
X140978881Y-80332738D01*
X140949109Y-80375099D01*
X140945177Y-80380393D01*
X140908537Y-80427121D01*
X140905411Y-80434045D01*
X140901698Y-80440176D01*
X140899062Y-80444796D01*
X140895640Y-80451178D01*
X140891269Y-80457397D01*
X140888509Y-80464476D01*
X140869702Y-80512713D01*
X140867146Y-80518792D01*
X140842711Y-80572912D01*
X140841325Y-80580388D01*
X140839170Y-80587266D01*
X140837710Y-80592391D01*
X140835922Y-80599355D01*
X140833162Y-80606434D01*
X140832170Y-80613966D01*
X140832170Y-80613968D01*
X140825414Y-80665292D01*
X140824384Y-80671798D01*
X140813560Y-80730197D01*
X140813997Y-80737777D01*
X140813997Y-80737778D01*
X140816891Y-80787967D01*
X140817100Y-80795220D01*
X140817100Y-87304056D01*
X140797098Y-87372177D01*
X140780195Y-87393151D01*
X140590687Y-87582659D01*
X140528375Y-87616685D01*
X140468980Y-87615270D01*
X140441409Y-87607882D01*
X140441398Y-87607880D01*
X140436087Y-87606457D01*
X140208000Y-87586502D01*
X139979913Y-87606457D01*
X139974600Y-87607881D01*
X139974598Y-87607881D01*
X139764067Y-87664293D01*
X139764065Y-87664294D01*
X139758757Y-87665716D01*
X139753776Y-87668039D01*
X139753775Y-87668039D01*
X139556238Y-87760151D01*
X139556233Y-87760154D01*
X139551251Y-87762477D01*
X139489988Y-87805374D01*
X139368211Y-87890643D01*
X139368208Y-87890645D01*
X139363700Y-87893802D01*
X139201802Y-88055700D01*
X139198645Y-88060208D01*
X139198643Y-88060211D01*
X139111005Y-88185371D01*
X139055548Y-88229699D01*
X139007792Y-88239100D01*
X138134216Y-88239100D01*
X138066095Y-88219098D01*
X138031003Y-88185371D01*
X137915357Y-88020211D01*
X137915355Y-88020208D01*
X137912198Y-88015700D01*
X137750300Y-87853802D01*
X137745792Y-87850645D01*
X137745789Y-87850643D01*
X137652808Y-87785537D01*
X137562749Y-87722477D01*
X137557767Y-87720154D01*
X137557762Y-87720151D01*
X137360225Y-87628039D01*
X137360224Y-87628039D01*
X137355243Y-87625716D01*
X137349935Y-87624294D01*
X137349933Y-87624293D01*
X137139402Y-87567881D01*
X137139400Y-87567881D01*
X137134087Y-87566457D01*
X136906000Y-87546502D01*
X136677913Y-87566457D01*
X136672600Y-87567881D01*
X136672598Y-87567881D01*
X136462067Y-87624293D01*
X136462065Y-87624294D01*
X136456757Y-87625716D01*
X136451776Y-87628039D01*
X136451775Y-87628039D01*
X136254238Y-87720151D01*
X136254233Y-87720154D01*
X136249251Y-87722477D01*
X136159192Y-87785537D01*
X136066211Y-87850643D01*
X136066208Y-87850645D01*
X136061700Y-87853802D01*
X135899802Y-88015700D01*
X135896645Y-88020208D01*
X135896643Y-88020211D01*
X135809005Y-88145371D01*
X135753548Y-88189699D01*
X135705792Y-88199100D01*
X135159944Y-88199100D01*
X135091823Y-88179098D01*
X135070849Y-88162195D01*
X131550614Y-84641961D01*
X131544760Y-84635695D01*
X131514470Y-84600973D01*
X131509476Y-84595248D01*
X131460898Y-84561107D01*
X131455604Y-84557175D01*
X131414855Y-84525223D01*
X131414856Y-84525223D01*
X131408879Y-84520537D01*
X131401955Y-84517411D01*
X131395824Y-84513698D01*
X131391204Y-84511062D01*
X131384822Y-84507640D01*
X131378603Y-84503269D01*
X131323286Y-84481701D01*
X131317207Y-84479146D01*
X131263088Y-84454711D01*
X131255612Y-84453325D01*
X131248734Y-84451170D01*
X131243609Y-84449710D01*
X131236645Y-84447922D01*
X131229566Y-84445162D01*
X131222034Y-84444170D01*
X131222032Y-84444170D01*
X131196804Y-84440849D01*
X131170700Y-84437413D01*
X131164202Y-84436384D01*
X131105803Y-84425560D01*
X131098223Y-84425997D01*
X131098222Y-84425997D01*
X131048033Y-84428891D01*
X131040780Y-84429100D01*
X129021079Y-84429100D01*
X128952958Y-84409098D01*
X128915287Y-84371540D01*
X128844822Y-84262617D01*
X128844820Y-84262614D01*
X128842014Y-84258277D01*
X128691670Y-84093051D01*
X128687619Y-84089852D01*
X128687615Y-84089848D01*
X128520414Y-83957800D01*
X128520410Y-83957798D01*
X128516359Y-83954598D01*
X128509235Y-83950665D01*
X128464136Y-83925769D01*
X128320789Y-83846638D01*
X128315920Y-83844914D01*
X128315916Y-83844912D01*
X128115087Y-83773795D01*
X128115083Y-83773794D01*
X128110212Y-83772069D01*
X128105119Y-83771162D01*
X128105116Y-83771161D01*
X127895373Y-83733800D01*
X127895367Y-83733799D01*
X127890284Y-83732894D01*
X127816452Y-83731992D01*
X127672081Y-83730228D01*
X127672079Y-83730228D01*
X127666911Y-83730165D01*
X127446091Y-83763955D01*
X127445806Y-83762093D01*
X127383055Y-83758829D01*
X127335689Y-83729035D01*
X126161374Y-82554720D01*
X124960815Y-81354162D01*
X124926790Y-81291850D01*
X124931434Y-81223065D01*
X124932284Y-81221243D01*
X124975285Y-81060762D01*
X124990119Y-81005402D01*
X124990119Y-81005400D01*
X124991543Y-81000087D01*
X125011498Y-80772000D01*
X124991543Y-80543913D01*
X124968361Y-80457397D01*
X124933707Y-80328067D01*
X124933706Y-80328065D01*
X124932284Y-80322757D01*
X124917759Y-80291608D01*
X124837849Y-80120238D01*
X124837846Y-80120233D01*
X124835523Y-80115251D01*
X124729878Y-79964375D01*
X124707357Y-79932211D01*
X124707355Y-79932208D01*
X124704198Y-79927700D01*
X124542300Y-79765802D01*
X124537792Y-79762645D01*
X124537789Y-79762643D01*
X124387936Y-79657715D01*
X124354749Y-79634477D01*
X124349767Y-79632154D01*
X124349762Y-79632151D01*
X124152225Y-79540039D01*
X124152224Y-79540039D01*
X124147243Y-79537716D01*
X124141935Y-79536294D01*
X124141933Y-79536293D01*
X123931402Y-79479881D01*
X123931400Y-79479881D01*
X123926087Y-79478457D01*
X123698000Y-79458502D01*
X123469913Y-79478457D01*
X123464600Y-79479881D01*
X123464598Y-79479881D01*
X123254067Y-79536293D01*
X123254065Y-79536294D01*
X123248757Y-79537716D01*
X123243776Y-79540039D01*
X123243775Y-79540039D01*
X123046238Y-79632151D01*
X123046233Y-79632154D01*
X123041251Y-79634477D01*
X123008064Y-79657715D01*
X122858211Y-79762643D01*
X122858208Y-79762645D01*
X122853700Y-79765802D01*
X122691802Y-79927700D01*
X122688645Y-79932208D01*
X122688643Y-79932211D01*
X122666122Y-79964375D01*
X122560477Y-80115251D01*
X122558154Y-80120233D01*
X122558151Y-80120238D01*
X122478241Y-80291608D01*
X122463716Y-80322757D01*
X122462294Y-80328065D01*
X122462293Y-80328067D01*
X122427639Y-80457397D01*
X122404457Y-80543913D01*
X122384502Y-80772000D01*
X122404457Y-81000087D01*
X122405881Y-81005400D01*
X122405881Y-81005402D01*
X122462293Y-81215931D01*
X122463716Y-81221243D01*
X122466039Y-81226224D01*
X122466039Y-81226225D01*
X122558151Y-81423762D01*
X122558154Y-81423767D01*
X122560477Y-81428749D01*
X122691802Y-81616300D01*
X122853700Y-81778198D01*
X122858208Y-81781355D01*
X122858211Y-81781357D01*
X122936389Y-81836098D01*
X123041251Y-81909523D01*
X123046233Y-81911846D01*
X123046238Y-81911849D01*
X123243775Y-82003961D01*
X123248757Y-82006284D01*
X123254065Y-82007706D01*
X123254067Y-82007707D01*
X123464598Y-82064119D01*
X123464600Y-82064119D01*
X123469913Y-82065543D01*
X123698000Y-82085498D01*
X123703475Y-82085019D01*
X123754270Y-82080575D01*
X123823875Y-82094564D01*
X123854347Y-82117001D01*
X126403365Y-84666018D01*
X126437390Y-84728330D01*
X126435687Y-84788783D01*
X126422989Y-84834570D01*
X126422441Y-84839700D01*
X126422440Y-84839704D01*
X126420067Y-84861913D01*
X126399251Y-85056695D01*
X126399548Y-85061848D01*
X126399548Y-85061851D01*
X126402073Y-85105646D01*
X126412110Y-85279715D01*
X126413247Y-85284761D01*
X126413248Y-85284767D01*
X126437304Y-85391508D01*
X126461222Y-85497639D01*
X126520423Y-85643435D01*
X126534519Y-85678148D01*
X126545266Y-85704616D01*
X126582355Y-85765140D01*
X126656012Y-85885337D01*
X126661987Y-85895088D01*
X126808250Y-86063938D01*
X126980126Y-86206632D01*
X127050595Y-86247811D01*
X127053445Y-86249476D01*
X127102169Y-86301114D01*
X127115240Y-86370897D01*
X127088509Y-86436669D01*
X127048055Y-86470027D01*
X127035607Y-86476507D01*
X127031474Y-86479610D01*
X127031471Y-86479612D01*
X126861100Y-86607530D01*
X126856965Y-86610635D01*
X126853393Y-86614373D01*
X126728890Y-86744658D01*
X126702629Y-86772138D01*
X126699715Y-86776410D01*
X126699714Y-86776411D01*
X126646319Y-86854685D01*
X126576743Y-86956680D01*
X126557493Y-86998151D01*
X126522753Y-87072993D01*
X126482688Y-87159305D01*
X126481305Y-87164291D01*
X126481303Y-87164297D01*
X126476629Y-87181151D01*
X126439149Y-87241447D01*
X126375019Y-87271909D01*
X126304601Y-87262863D01*
X126266118Y-87236570D01*
X124968815Y-85939267D01*
X124959713Y-85929124D01*
X124939634Y-85904151D01*
X124935775Y-85899351D01*
X124896998Y-85866813D01*
X124893371Y-85863649D01*
X124891502Y-85861954D01*
X124889308Y-85859760D01*
X124855742Y-85832188D01*
X124854945Y-85831526D01*
X124783067Y-85771214D01*
X124778361Y-85768627D01*
X124774211Y-85765218D01*
X124768787Y-85762310D01*
X124768777Y-85762303D01*
X124691632Y-85720939D01*
X124690472Y-85720310D01*
X124669935Y-85709020D01*
X124608379Y-85675179D01*
X124603259Y-85673555D01*
X124598526Y-85671017D01*
X124509007Y-85643648D01*
X124507748Y-85643256D01*
X124424239Y-85616765D01*
X124424235Y-85616764D01*
X124418365Y-85614902D01*
X124413027Y-85614303D01*
X124407891Y-85612733D01*
X124401760Y-85612110D01*
X124401759Y-85612110D01*
X124381103Y-85610012D01*
X124314569Y-85603254D01*
X124313449Y-85603134D01*
X124263216Y-85597500D01*
X124259711Y-85597500D01*
X124258603Y-85597438D01*
X124252908Y-85596990D01*
X124215695Y-85593210D01*
X124215688Y-85593210D01*
X124209565Y-85592588D01*
X124165398Y-85596763D01*
X124163515Y-85596941D01*
X124151657Y-85597500D01*
X122744276Y-85597500D01*
X122730668Y-85596763D01*
X122698821Y-85593303D01*
X122698817Y-85593303D01*
X122692696Y-85592638D01*
X122655828Y-85595863D01*
X122642310Y-85597046D01*
X122637482Y-85597375D01*
X122634927Y-85597500D01*
X122631843Y-85597500D01*
X122616469Y-85599008D01*
X122588781Y-85601722D01*
X122587468Y-85601844D01*
X122547371Y-85605352D01*
X122494108Y-85610012D01*
X122488948Y-85611511D01*
X122483606Y-85612035D01*
X122393904Y-85639117D01*
X122392764Y-85639455D01*
X122302678Y-85665628D01*
X122297910Y-85668100D01*
X122292768Y-85669652D01*
X122287323Y-85672547D01*
X122287316Y-85672550D01*
X122210050Y-85713633D01*
X122208946Y-85714213D01*
X122125696Y-85757366D01*
X122121497Y-85760718D01*
X122116756Y-85763239D01*
X122111984Y-85767131D01*
X122044171Y-85822438D01*
X122043145Y-85823266D01*
X122012415Y-85847798D01*
X122003684Y-85854768D01*
X122001189Y-85857263D01*
X122000395Y-85857973D01*
X121996040Y-85861693D01*
X121967049Y-85885337D01*
X121967046Y-85885340D01*
X121962274Y-85889232D01*
X121958346Y-85893980D01*
X121958345Y-85893981D01*
X121932789Y-85924873D01*
X121924800Y-85933652D01*
X121245267Y-86613185D01*
X121235125Y-86622286D01*
X121205351Y-86646225D01*
X121172813Y-86685002D01*
X121169649Y-86688629D01*
X121167954Y-86690498D01*
X121165760Y-86692692D01*
X121138188Y-86726258D01*
X121137526Y-86727055D01*
X121077214Y-86798933D01*
X121074627Y-86803639D01*
X121071218Y-86807789D01*
X121068310Y-86813213D01*
X121068303Y-86813223D01*
X121026939Y-86890368D01*
X121026310Y-86891528D01*
X120981179Y-86973621D01*
X120979555Y-86978741D01*
X120977017Y-86983474D01*
X120952790Y-87062716D01*
X120949648Y-87072993D01*
X120949256Y-87074252D01*
X120932002Y-87128643D01*
X120920902Y-87163635D01*
X120920303Y-87168973D01*
X120918733Y-87174109D01*
X120912389Y-87236570D01*
X120909263Y-87267343D01*
X120909134Y-87268551D01*
X120903500Y-87318784D01*
X120903500Y-87322289D01*
X120903438Y-87323397D01*
X120902990Y-87329092D01*
X120899210Y-87366305D01*
X120899210Y-87366312D01*
X120898588Y-87372435D01*
X117602500Y-87372435D01*
X117602500Y-65752695D01*
X124621251Y-65752695D01*
X124621548Y-65757848D01*
X124621548Y-65757851D01*
X124632624Y-65949943D01*
X124634110Y-65975715D01*
X124635247Y-65980761D01*
X124635248Y-65980767D01*
X124652187Y-66055928D01*
X124683222Y-66193639D01*
X124719509Y-66283004D01*
X124762503Y-66388885D01*
X124767266Y-66400616D01*
X124769965Y-66405020D01*
X124881182Y-66586510D01*
X124883987Y-66591088D01*
X124887367Y-66594990D01*
X124896138Y-66605116D01*
X125030250Y-66759938D01*
X125202126Y-66902632D01*
X125395000Y-67015338D01*
X125603692Y-67095030D01*
X125608760Y-67096061D01*
X125608763Y-67096062D01*
X125657119Y-67105900D01*
X125822597Y-67139567D01*
X125827772Y-67139757D01*
X125827774Y-67139757D01*
X126040673Y-67147564D01*
X126040677Y-67147564D01*
X126045837Y-67147753D01*
X126050957Y-67147097D01*
X126050959Y-67147097D01*
X126262288Y-67120025D01*
X126262289Y-67120025D01*
X126267416Y-67119368D01*
X126312307Y-67105900D01*
X126476429Y-67056661D01*
X126476434Y-67056659D01*
X126481384Y-67055174D01*
X126681994Y-66956896D01*
X126863860Y-66827173D01*
X126892340Y-66798793D01*
X127018435Y-66673137D01*
X127022096Y-66669489D01*
X127048476Y-66632778D01*
X127149435Y-66492277D01*
X127152453Y-66488077D01*
X127175914Y-66440608D01*
X127249136Y-66292453D01*
X127249137Y-66292451D01*
X127251430Y-66287811D01*
X127303361Y-66116888D01*
X127314865Y-66079023D01*
X127314865Y-66079021D01*
X127316370Y-66074069D01*
X127345529Y-65852590D01*
X127345977Y-65834250D01*
X127347074Y-65789365D01*
X127347074Y-65789361D01*
X127347156Y-65786000D01*
X127328852Y-65563361D01*
X127274431Y-65346702D01*
X127185354Y-65141840D01*
X127075628Y-64972229D01*
X127066822Y-64958617D01*
X127066820Y-64958614D01*
X127064014Y-64954277D01*
X126913670Y-64789051D01*
X126909619Y-64785852D01*
X126909615Y-64785848D01*
X126742414Y-64653800D01*
X126742410Y-64653798D01*
X126738359Y-64650598D01*
X126542789Y-64542638D01*
X126537920Y-64540914D01*
X126537916Y-64540912D01*
X126337087Y-64469795D01*
X126337083Y-64469794D01*
X126332212Y-64468069D01*
X126327119Y-64467162D01*
X126327116Y-64467161D01*
X126117373Y-64429800D01*
X126117367Y-64429799D01*
X126112284Y-64428894D01*
X126038452Y-64427992D01*
X125894081Y-64426228D01*
X125894079Y-64426228D01*
X125888911Y-64426165D01*
X125668091Y-64459955D01*
X125455756Y-64529357D01*
X125257607Y-64632507D01*
X125253474Y-64635610D01*
X125253471Y-64635612D01*
X125083100Y-64763530D01*
X125078965Y-64766635D01*
X124924629Y-64928138D01*
X124798743Y-65112680D01*
X124704688Y-65315305D01*
X124644989Y-65530570D01*
X124621251Y-65752695D01*
X117602500Y-65752695D01*
X117602500Y-64016818D01*
X117622502Y-63948697D01*
X117639405Y-63927722D01*
X117775724Y-63791404D01*
X117838036Y-63757379D01*
X117864819Y-63754500D01*
X143530087Y-63754500D01*
X143598208Y-63774502D01*
G37*
%TD.AperFunction*%
M02*
