M48
; DRILL file {KiCad 6.0.11-2627ca5db0~126~ubuntu22.04.1} date Sat 13 May 2023 09:44:59 AM EDT
; FORMAT={-:-/ absolute / metric / decimal}
; #@! TF.CreationDate,2023-05-13T09:44:59-04:00
; #@! TF.GenerationSoftware,Kicad,Pcbnew,6.0.11-2627ca5db0~126~ubuntu22.04.1
; #@! TF.FileFunction,Plated,1,2,PTH
FMAT,2
METRIC
; #@! TA.AperFunction,Plated,PTH,ComponentDrill
T1C0.762
; #@! TA.AperFunction,Plated,PTH,ComponentDrill
T2C0.800
; #@! TA.AperFunction,Plated,PTH,ComponentDrill
T3C1.000
; #@! TA.AperFunction,Plated,PTH,ComponentDrill
T4C1.300
; #@! TA.AperFunction,Plated,PTH,ComponentDrill
T5C1.850
; #@! TA.AperFunction,Plated,PTH,ComponentDrill
T6C2.000
; #@! TA.AperFunction,Plated,PTH,ComponentDrill
T7C2.200
; #@! TA.AperFunction,Plated,PTH,ComponentDrill
T8C2.693
; #@! TA.AperFunction,Plated,PTH,ComponentDrill
T9C2.818
; #@! TA.AperFunction,Plated,PTH,ComponentDrill
T10C4.000
%
G90
G05
T1
X119.126Y-70.739
T2
X113.284Y-85.725
X113.284Y-93.345
X115.57Y-70.739
X115.57Y-77.851
X118.395Y-113.919
X119.126Y-77.851
X120.395Y-113.919
X122.428Y-98.933
X122.428Y-109.093
X122.682Y-70.739
X122.682Y-77.851
X122.682Y-81.153
X122.682Y-96.393
X126.492Y-88.813
X126.492Y-93.813
X126.746Y-98.933
X126.746Y-106.553
X127.254Y-113.919
X127.762Y-72.089
X127.762Y-77.089
X129.326Y-110.363
X129.794Y-83.693
X129.794Y-93.853
X130.302Y-102.275
X130.302Y-107.275
X132.842Y-83.947
X132.842Y-86.995
X133.136Y-93.091
X134.326Y-110.363
X134.62Y-90.043
X134.874Y-96.154
X134.874Y-103.774
X134.874Y-113.919
X137.414Y-96.154
X137.414Y-103.774
X137.922Y-106.553
X137.922Y-114.173
X138.136Y-93.091
X139.954Y-96.154
X139.954Y-103.774
X140.462Y-83.947
X140.462Y-86.995
X142.24Y-90.043
X142.494Y-96.154
X142.494Y-103.774
X145.034Y-96.154
X145.034Y-103.774
X145.328Y-93.091
X147.574Y-96.154
X147.574Y-103.774
X147.614Y-106.807
X150.114Y-96.154
X150.114Y-103.774
X150.328Y-93.091
X151.638Y-79.121
X151.638Y-86.741
X152.614Y-106.807
X152.654Y-96.154
X152.654Y-103.774
X154.726Y-79.121
X155.194Y-84.455
X155.194Y-92.075
X155.194Y-96.154
X155.194Y-103.774
X156.972Y-109.895
X156.972Y-114.895
X159.258Y-84.455
X159.258Y-92.075
X159.726Y-79.121
X160.274Y-110.871
X160.274Y-114.681
X162.56Y-86.273
X162.56Y-91.273
X166.918Y-85.725
X167.894Y-110.871
X167.894Y-114.681
X169.418Y-97.703
X169.418Y-102.703
X171.918Y-85.725
T3
X117.348Y-87.503
X117.348Y-90.043
X117.348Y-92.583
X117.348Y-95.123
X117.348Y-97.663
X117.348Y-100.203
X117.348Y-102.743
X117.348Y-105.283
T4
X150.622Y-110.363
X150.622Y-115.363
X160.314Y-98.933
X165.314Y-98.933
X169.672Y-89.321
X169.672Y-94.321
T5
X134.365Y-70.426
X136.27Y-79.956
X140.97Y-79.956
X145.671Y-79.956
X147.576Y-70.426
T6
X114.046Y-74.295
X124.206Y-74.295
T7
X117.348Y-83.439
X117.348Y-109.347
T8
X168.656Y-78.033
T9
X168.656Y-73.533
T10
X119.126Y-74.295
T0
M30
