%TF.GenerationSoftware,KiCad,Pcbnew,6.0.11-2627ca5db0~126~ubuntu22.04.1*%
%TF.CreationDate,2023-05-23T19:44:05-04:00*%
%TF.ProjectId,sub_rf_mod,7375625f-7266-45f6-9d6f-642e6b696361,rev?*%
%TF.SameCoordinates,Original*%
%TF.FileFunction,Legend,Top*%
%TF.FilePolarity,Positive*%
%FSLAX46Y46*%
G04 Gerber Fmt 4.6, Leading zero omitted, Abs format (unit mm)*
G04 Created by KiCad (PCBNEW 6.0.11-2627ca5db0~126~ubuntu22.04.1) date 2023-05-23 19:44:05*
%MOMM*%
%LPD*%
G01*
G04 APERTURE LIST*
%TA.AperFunction,Profile*%
%ADD10C,0.100000*%
%TD*%
%ADD11C,0.150000*%
%ADD12C,0.254000*%
%ADD13C,0.120000*%
%ADD14C,0.200000*%
%ADD15C,0.100000*%
G04 APERTURE END LIST*
D10*
X117602000Y-63246000D02*
X185674000Y-63246000D01*
X117602000Y-63246000D02*
X117094000Y-63754000D01*
X186182000Y-112776000D02*
X186182000Y-63754000D01*
X185674000Y-63246000D02*
X186182000Y-63754000D01*
X117094000Y-112776000D02*
X117602000Y-113284000D01*
X117094000Y-112776000D02*
X117094000Y-63754000D01*
X185674000Y-113284000D02*
X186182000Y-112776000D01*
X117602000Y-113284000D02*
X185674000Y-113284000D01*
D11*
%TO.C,RF_C10*%
X184348380Y-97710380D02*
X183872190Y-98043714D01*
X184348380Y-98281809D02*
X183348380Y-98281809D01*
X183348380Y-97900857D01*
X183396000Y-97805619D01*
X183443619Y-97758000D01*
X183538857Y-97710380D01*
X183681714Y-97710380D01*
X183776952Y-97758000D01*
X183824571Y-97805619D01*
X183872190Y-97900857D01*
X183872190Y-98281809D01*
X183824571Y-96948476D02*
X183824571Y-97281809D01*
X184348380Y-97281809D02*
X183348380Y-97281809D01*
X183348380Y-96805619D01*
X184443619Y-96662761D02*
X184443619Y-95900857D01*
X184253142Y-95091333D02*
X184300761Y-95138952D01*
X184348380Y-95281809D01*
X184348380Y-95377047D01*
X184300761Y-95519904D01*
X184205523Y-95615142D01*
X184110285Y-95662761D01*
X183919809Y-95710380D01*
X183776952Y-95710380D01*
X183586476Y-95662761D01*
X183491238Y-95615142D01*
X183396000Y-95519904D01*
X183348380Y-95377047D01*
X183348380Y-95281809D01*
X183396000Y-95138952D01*
X183443619Y-95091333D01*
X184348380Y-94138952D02*
X184348380Y-94710380D01*
X184348380Y-94424666D02*
X183348380Y-94424666D01*
X183491238Y-94519904D01*
X183586476Y-94615142D01*
X183634095Y-94710380D01*
X183348380Y-93519904D02*
X183348380Y-93424666D01*
X183396000Y-93329428D01*
X183443619Y-93281809D01*
X183538857Y-93234190D01*
X183729333Y-93186571D01*
X183967428Y-93186571D01*
X184157904Y-93234190D01*
X184253142Y-93281809D01*
X184300761Y-93329428D01*
X184348380Y-93424666D01*
X184348380Y-93519904D01*
X184300761Y-93615142D01*
X184253142Y-93662761D01*
X184157904Y-93710380D01*
X183967428Y-93758000D01*
X183729333Y-93758000D01*
X183538857Y-93710380D01*
X183443619Y-93662761D01*
X183396000Y-93615142D01*
X183348380Y-93519904D01*
%TO.C,RF_JP1*%
X131262380Y-82121142D02*
X130786190Y-82454476D01*
X131262380Y-82692571D02*
X130262380Y-82692571D01*
X130262380Y-82311619D01*
X130310000Y-82216380D01*
X130357619Y-82168761D01*
X130452857Y-82121142D01*
X130595714Y-82121142D01*
X130690952Y-82168761D01*
X130738571Y-82216380D01*
X130786190Y-82311619D01*
X130786190Y-82692571D01*
X130738571Y-81359238D02*
X130738571Y-81692571D01*
X131262380Y-81692571D02*
X130262380Y-81692571D01*
X130262380Y-81216380D01*
X131357619Y-81073523D02*
X131357619Y-80311619D01*
X130262380Y-79787809D02*
X130976666Y-79787809D01*
X131119523Y-79835428D01*
X131214761Y-79930666D01*
X131262380Y-80073523D01*
X131262380Y-80168761D01*
X131262380Y-79311619D02*
X130262380Y-79311619D01*
X130262380Y-78930666D01*
X130310000Y-78835428D01*
X130357619Y-78787809D01*
X130452857Y-78740190D01*
X130595714Y-78740190D01*
X130690952Y-78787809D01*
X130738571Y-78835428D01*
X130786190Y-78930666D01*
X130786190Y-79311619D01*
X131262380Y-77787809D02*
X131262380Y-78359238D01*
X131262380Y-78073523D02*
X130262380Y-78073523D01*
X130405238Y-78168761D01*
X130500476Y-78264000D01*
X130548095Y-78359238D01*
%TO.C,RF_C6*%
X165909809Y-103322380D02*
X165576476Y-102846190D01*
X165338380Y-103322380D02*
X165338380Y-102322380D01*
X165719333Y-102322380D01*
X165814571Y-102370000D01*
X165862190Y-102417619D01*
X165909809Y-102512857D01*
X165909809Y-102655714D01*
X165862190Y-102750952D01*
X165814571Y-102798571D01*
X165719333Y-102846190D01*
X165338380Y-102846190D01*
X166671714Y-102798571D02*
X166338380Y-102798571D01*
X166338380Y-103322380D02*
X166338380Y-102322380D01*
X166814571Y-102322380D01*
X166957428Y-103417619D02*
X167719333Y-103417619D01*
X168528857Y-103227142D02*
X168481238Y-103274761D01*
X168338380Y-103322380D01*
X168243142Y-103322380D01*
X168100285Y-103274761D01*
X168005047Y-103179523D01*
X167957428Y-103084285D01*
X167909809Y-102893809D01*
X167909809Y-102750952D01*
X167957428Y-102560476D01*
X168005047Y-102465238D01*
X168100285Y-102370000D01*
X168243142Y-102322380D01*
X168338380Y-102322380D01*
X168481238Y-102370000D01*
X168528857Y-102417619D01*
X169386000Y-102322380D02*
X169195523Y-102322380D01*
X169100285Y-102370000D01*
X169052666Y-102417619D01*
X168957428Y-102560476D01*
X168909809Y-102750952D01*
X168909809Y-103131904D01*
X168957428Y-103227142D01*
X169005047Y-103274761D01*
X169100285Y-103322380D01*
X169290761Y-103322380D01*
X169386000Y-103274761D01*
X169433619Y-103227142D01*
X169481238Y-103131904D01*
X169481238Y-102893809D01*
X169433619Y-102798571D01*
X169386000Y-102750952D01*
X169290761Y-102703333D01*
X169100285Y-102703333D01*
X169005047Y-102750952D01*
X168957428Y-102798571D01*
X168909809Y-102893809D01*
%TO.C,RF_C5*%
X150669809Y-89352380D02*
X150336476Y-88876190D01*
X150098380Y-89352380D02*
X150098380Y-88352380D01*
X150479333Y-88352380D01*
X150574571Y-88400000D01*
X150622190Y-88447619D01*
X150669809Y-88542857D01*
X150669809Y-88685714D01*
X150622190Y-88780952D01*
X150574571Y-88828571D01*
X150479333Y-88876190D01*
X150098380Y-88876190D01*
X151431714Y-88828571D02*
X151098380Y-88828571D01*
X151098380Y-89352380D02*
X151098380Y-88352380D01*
X151574571Y-88352380D01*
X151717428Y-89447619D02*
X152479333Y-89447619D01*
X153288857Y-89257142D02*
X153241238Y-89304761D01*
X153098380Y-89352380D01*
X153003142Y-89352380D01*
X152860285Y-89304761D01*
X152765047Y-89209523D01*
X152717428Y-89114285D01*
X152669809Y-88923809D01*
X152669809Y-88780952D01*
X152717428Y-88590476D01*
X152765047Y-88495238D01*
X152860285Y-88400000D01*
X153003142Y-88352380D01*
X153098380Y-88352380D01*
X153241238Y-88400000D01*
X153288857Y-88447619D01*
X154193619Y-88352380D02*
X153717428Y-88352380D01*
X153669809Y-88828571D01*
X153717428Y-88780952D01*
X153812666Y-88733333D01*
X154050761Y-88733333D01*
X154146000Y-88780952D01*
X154193619Y-88828571D01*
X154241238Y-88923809D01*
X154241238Y-89161904D01*
X154193619Y-89257142D01*
X154146000Y-89304761D01*
X154050761Y-89352380D01*
X153812666Y-89352380D01*
X153717428Y-89304761D01*
X153669809Y-89257142D01*
%TO.C,RF_R11*%
X152987619Y-83256380D02*
X152654285Y-82780190D01*
X152416190Y-83256380D02*
X152416190Y-82256380D01*
X152797142Y-82256380D01*
X152892380Y-82304000D01*
X152940000Y-82351619D01*
X152987619Y-82446857D01*
X152987619Y-82589714D01*
X152940000Y-82684952D01*
X152892380Y-82732571D01*
X152797142Y-82780190D01*
X152416190Y-82780190D01*
X153749523Y-82732571D02*
X153416190Y-82732571D01*
X153416190Y-83256380D02*
X153416190Y-82256380D01*
X153892380Y-82256380D01*
X154035238Y-83351619D02*
X154797142Y-83351619D01*
X155606666Y-83256380D02*
X155273333Y-82780190D01*
X155035238Y-83256380D02*
X155035238Y-82256380D01*
X155416190Y-82256380D01*
X155511428Y-82304000D01*
X155559047Y-82351619D01*
X155606666Y-82446857D01*
X155606666Y-82589714D01*
X155559047Y-82684952D01*
X155511428Y-82732571D01*
X155416190Y-82780190D01*
X155035238Y-82780190D01*
X156559047Y-83256380D02*
X155987619Y-83256380D01*
X156273333Y-83256380D02*
X156273333Y-82256380D01*
X156178095Y-82399238D01*
X156082857Y-82494476D01*
X155987619Y-82542095D01*
X157511428Y-83256380D02*
X156940000Y-83256380D01*
X157225714Y-83256380D02*
X157225714Y-82256380D01*
X157130476Y-82399238D01*
X157035238Y-82494476D01*
X156940000Y-82542095D01*
%TO.C,RF_C12*%
X165139619Y-101544380D02*
X164806285Y-101068190D01*
X164568190Y-101544380D02*
X164568190Y-100544380D01*
X164949142Y-100544380D01*
X165044380Y-100592000D01*
X165092000Y-100639619D01*
X165139619Y-100734857D01*
X165139619Y-100877714D01*
X165092000Y-100972952D01*
X165044380Y-101020571D01*
X164949142Y-101068190D01*
X164568190Y-101068190D01*
X165901523Y-101020571D02*
X165568190Y-101020571D01*
X165568190Y-101544380D02*
X165568190Y-100544380D01*
X166044380Y-100544380D01*
X166187238Y-101639619D02*
X166949142Y-101639619D01*
X167758666Y-101449142D02*
X167711047Y-101496761D01*
X167568190Y-101544380D01*
X167472952Y-101544380D01*
X167330095Y-101496761D01*
X167234857Y-101401523D01*
X167187238Y-101306285D01*
X167139619Y-101115809D01*
X167139619Y-100972952D01*
X167187238Y-100782476D01*
X167234857Y-100687238D01*
X167330095Y-100592000D01*
X167472952Y-100544380D01*
X167568190Y-100544380D01*
X167711047Y-100592000D01*
X167758666Y-100639619D01*
X168711047Y-101544380D02*
X168139619Y-101544380D01*
X168425333Y-101544380D02*
X168425333Y-100544380D01*
X168330095Y-100687238D01*
X168234857Y-100782476D01*
X168139619Y-100830095D01*
X169092000Y-100639619D02*
X169139619Y-100592000D01*
X169234857Y-100544380D01*
X169472952Y-100544380D01*
X169568190Y-100592000D01*
X169615809Y-100639619D01*
X169663428Y-100734857D01*
X169663428Y-100830095D01*
X169615809Y-100972952D01*
X169044380Y-101544380D01*
X169663428Y-101544380D01*
%TO.C,RF_R6*%
X180387809Y-110180380D02*
X180054476Y-109704190D01*
X179816380Y-110180380D02*
X179816380Y-109180380D01*
X180197333Y-109180380D01*
X180292571Y-109228000D01*
X180340190Y-109275619D01*
X180387809Y-109370857D01*
X180387809Y-109513714D01*
X180340190Y-109608952D01*
X180292571Y-109656571D01*
X180197333Y-109704190D01*
X179816380Y-109704190D01*
X181149714Y-109656571D02*
X180816380Y-109656571D01*
X180816380Y-110180380D02*
X180816380Y-109180380D01*
X181292571Y-109180380D01*
X181435428Y-110275619D02*
X182197333Y-110275619D01*
X183006857Y-110180380D02*
X182673523Y-109704190D01*
X182435428Y-110180380D02*
X182435428Y-109180380D01*
X182816380Y-109180380D01*
X182911619Y-109228000D01*
X182959238Y-109275619D01*
X183006857Y-109370857D01*
X183006857Y-109513714D01*
X182959238Y-109608952D01*
X182911619Y-109656571D01*
X182816380Y-109704190D01*
X182435428Y-109704190D01*
X183864000Y-109180380D02*
X183673523Y-109180380D01*
X183578285Y-109228000D01*
X183530666Y-109275619D01*
X183435428Y-109418476D01*
X183387809Y-109608952D01*
X183387809Y-109989904D01*
X183435428Y-110085142D01*
X183483047Y-110132761D01*
X183578285Y-110180380D01*
X183768761Y-110180380D01*
X183864000Y-110132761D01*
X183911619Y-110085142D01*
X183959238Y-109989904D01*
X183959238Y-109751809D01*
X183911619Y-109656571D01*
X183864000Y-109608952D01*
X183768761Y-109561333D01*
X183578285Y-109561333D01*
X183483047Y-109608952D01*
X183435428Y-109656571D01*
X183387809Y-109751809D01*
%TO.C,RF_C2*%
X136342380Y-81740190D02*
X135866190Y-82073523D01*
X136342380Y-82311619D02*
X135342380Y-82311619D01*
X135342380Y-81930666D01*
X135390000Y-81835428D01*
X135437619Y-81787809D01*
X135532857Y-81740190D01*
X135675714Y-81740190D01*
X135770952Y-81787809D01*
X135818571Y-81835428D01*
X135866190Y-81930666D01*
X135866190Y-82311619D01*
X135818571Y-80978285D02*
X135818571Y-81311619D01*
X136342380Y-81311619D02*
X135342380Y-81311619D01*
X135342380Y-80835428D01*
X136437619Y-80692571D02*
X136437619Y-79930666D01*
X136247142Y-79121142D02*
X136294761Y-79168761D01*
X136342380Y-79311619D01*
X136342380Y-79406857D01*
X136294761Y-79549714D01*
X136199523Y-79644952D01*
X136104285Y-79692571D01*
X135913809Y-79740190D01*
X135770952Y-79740190D01*
X135580476Y-79692571D01*
X135485238Y-79644952D01*
X135390000Y-79549714D01*
X135342380Y-79406857D01*
X135342380Y-79311619D01*
X135390000Y-79168761D01*
X135437619Y-79121142D01*
X135437619Y-78740190D02*
X135390000Y-78692571D01*
X135342380Y-78597333D01*
X135342380Y-78359238D01*
X135390000Y-78264000D01*
X135437619Y-78216380D01*
X135532857Y-78168761D01*
X135628095Y-78168761D01*
X135770952Y-78216380D01*
X136342380Y-78787809D01*
X136342380Y-78168761D01*
%TO.C,RF_C13*%
X122089395Y-109672380D02*
X121756061Y-109196190D01*
X121517966Y-109672380D02*
X121517966Y-108672380D01*
X121898918Y-108672380D01*
X121994156Y-108720000D01*
X122041776Y-108767619D01*
X122089395Y-108862857D01*
X122089395Y-109005714D01*
X122041776Y-109100952D01*
X121994156Y-109148571D01*
X121898918Y-109196190D01*
X121517966Y-109196190D01*
X122851299Y-109148571D02*
X122517966Y-109148571D01*
X122517966Y-109672380D02*
X122517966Y-108672380D01*
X122994156Y-108672380D01*
X123137014Y-109767619D02*
X123898918Y-109767619D01*
X124708442Y-109577142D02*
X124660823Y-109624761D01*
X124517966Y-109672380D01*
X124422728Y-109672380D01*
X124279871Y-109624761D01*
X124184633Y-109529523D01*
X124137014Y-109434285D01*
X124089395Y-109243809D01*
X124089395Y-109100952D01*
X124137014Y-108910476D01*
X124184633Y-108815238D01*
X124279871Y-108720000D01*
X124422728Y-108672380D01*
X124517966Y-108672380D01*
X124660823Y-108720000D01*
X124708442Y-108767619D01*
X125660823Y-109672380D02*
X125089395Y-109672380D01*
X125375109Y-109672380D02*
X125375109Y-108672380D01*
X125279871Y-108815238D01*
X125184633Y-108910476D01*
X125089395Y-108958095D01*
X125994156Y-108672380D02*
X126613204Y-108672380D01*
X126279871Y-109053333D01*
X126422728Y-109053333D01*
X126517966Y-109100952D01*
X126565585Y-109148571D01*
X126613204Y-109243809D01*
X126613204Y-109481904D01*
X126565585Y-109577142D01*
X126517966Y-109624761D01*
X126422728Y-109672380D01*
X126137014Y-109672380D01*
X126041776Y-109624761D01*
X125994156Y-109577142D01*
%TO.C,RF_R3*%
X143049809Y-103576380D02*
X142716476Y-103100190D01*
X142478380Y-103576380D02*
X142478380Y-102576380D01*
X142859333Y-102576380D01*
X142954571Y-102624000D01*
X143002190Y-102671619D01*
X143049809Y-102766857D01*
X143049809Y-102909714D01*
X143002190Y-103004952D01*
X142954571Y-103052571D01*
X142859333Y-103100190D01*
X142478380Y-103100190D01*
X143811714Y-103052571D02*
X143478380Y-103052571D01*
X143478380Y-103576380D02*
X143478380Y-102576380D01*
X143954571Y-102576380D01*
X144097428Y-103671619D02*
X144859333Y-103671619D01*
X145668857Y-103576380D02*
X145335523Y-103100190D01*
X145097428Y-103576380D02*
X145097428Y-102576380D01*
X145478380Y-102576380D01*
X145573619Y-102624000D01*
X145621238Y-102671619D01*
X145668857Y-102766857D01*
X145668857Y-102909714D01*
X145621238Y-103004952D01*
X145573619Y-103052571D01*
X145478380Y-103100190D01*
X145097428Y-103100190D01*
X146002190Y-102576380D02*
X146621238Y-102576380D01*
X146287904Y-102957333D01*
X146430761Y-102957333D01*
X146526000Y-103004952D01*
X146573619Y-103052571D01*
X146621238Y-103147809D01*
X146621238Y-103385904D01*
X146573619Y-103481142D01*
X146526000Y-103528761D01*
X146430761Y-103576380D01*
X146145047Y-103576380D01*
X146049809Y-103528761D01*
X146002190Y-103481142D01*
%TO.C,RF_L3*%
X153051047Y-108402380D02*
X152717714Y-107926190D01*
X152479619Y-108402380D02*
X152479619Y-107402380D01*
X152860571Y-107402380D01*
X152955809Y-107450000D01*
X153003428Y-107497619D01*
X153051047Y-107592857D01*
X153051047Y-107735714D01*
X153003428Y-107830952D01*
X152955809Y-107878571D01*
X152860571Y-107926190D01*
X152479619Y-107926190D01*
X153812952Y-107878571D02*
X153479619Y-107878571D01*
X153479619Y-108402380D02*
X153479619Y-107402380D01*
X153955809Y-107402380D01*
X154098666Y-108497619D02*
X154860571Y-108497619D01*
X155574857Y-108402380D02*
X155098666Y-108402380D01*
X155098666Y-107402380D01*
X155812952Y-107402380D02*
X156432000Y-107402380D01*
X156098666Y-107783333D01*
X156241523Y-107783333D01*
X156336761Y-107830952D01*
X156384380Y-107878571D01*
X156432000Y-107973809D01*
X156432000Y-108211904D01*
X156384380Y-108307142D01*
X156336761Y-108354761D01*
X156241523Y-108402380D01*
X155955809Y-108402380D01*
X155860571Y-108354761D01*
X155812952Y-108307142D01*
%TO.C,RF_C11*%
X185110380Y-84248380D02*
X184634190Y-84581714D01*
X185110380Y-84819809D02*
X184110380Y-84819809D01*
X184110380Y-84438857D01*
X184158000Y-84343619D01*
X184205619Y-84296000D01*
X184300857Y-84248380D01*
X184443714Y-84248380D01*
X184538952Y-84296000D01*
X184586571Y-84343619D01*
X184634190Y-84438857D01*
X184634190Y-84819809D01*
X184586571Y-83486476D02*
X184586571Y-83819809D01*
X185110380Y-83819809D02*
X184110380Y-83819809D01*
X184110380Y-83343619D01*
X185205619Y-83200761D02*
X185205619Y-82438857D01*
X185015142Y-81629333D02*
X185062761Y-81676952D01*
X185110380Y-81819809D01*
X185110380Y-81915047D01*
X185062761Y-82057904D01*
X184967523Y-82153142D01*
X184872285Y-82200761D01*
X184681809Y-82248380D01*
X184538952Y-82248380D01*
X184348476Y-82200761D01*
X184253238Y-82153142D01*
X184158000Y-82057904D01*
X184110380Y-81915047D01*
X184110380Y-81819809D01*
X184158000Y-81676952D01*
X184205619Y-81629333D01*
X185110380Y-80676952D02*
X185110380Y-81248380D01*
X185110380Y-80962666D02*
X184110380Y-80962666D01*
X184253238Y-81057904D01*
X184348476Y-81153142D01*
X184396095Y-81248380D01*
X185110380Y-79724571D02*
X185110380Y-80296000D01*
X185110380Y-80010285D02*
X184110380Y-80010285D01*
X184253238Y-80105523D01*
X184348476Y-80200761D01*
X184396095Y-80296000D01*
%TO.C,RF_D1*%
X131174380Y-100536190D02*
X130698190Y-100869523D01*
X131174380Y-101107619D02*
X130174380Y-101107619D01*
X130174380Y-100726666D01*
X130222000Y-100631428D01*
X130269619Y-100583809D01*
X130364857Y-100536190D01*
X130507714Y-100536190D01*
X130602952Y-100583809D01*
X130650571Y-100631428D01*
X130698190Y-100726666D01*
X130698190Y-101107619D01*
X130650571Y-99774285D02*
X130650571Y-100107619D01*
X131174380Y-100107619D02*
X130174380Y-100107619D01*
X130174380Y-99631428D01*
X131269619Y-99488571D02*
X131269619Y-98726666D01*
X131174380Y-98488571D02*
X130174380Y-98488571D01*
X130174380Y-98250476D01*
X130222000Y-98107619D01*
X130317238Y-98012380D01*
X130412476Y-97964761D01*
X130602952Y-97917142D01*
X130745809Y-97917142D01*
X130936285Y-97964761D01*
X131031523Y-98012380D01*
X131126761Y-98107619D01*
X131174380Y-98250476D01*
X131174380Y-98488571D01*
X131174380Y-96964761D02*
X131174380Y-97536190D01*
X131174380Y-97250476D02*
X130174380Y-97250476D01*
X130317238Y-97345714D01*
X130412476Y-97440952D01*
X130460095Y-97536190D01*
X131494380Y-104401904D02*
X130494380Y-104401904D01*
X131494380Y-103830476D02*
X130922952Y-104259047D01*
X130494380Y-103830476D02*
X131065809Y-104401904D01*
%TO.C,RF_D2*%
X138628380Y-81740190D02*
X138152190Y-82073523D01*
X138628380Y-82311619D02*
X137628380Y-82311619D01*
X137628380Y-81930666D01*
X137676000Y-81835428D01*
X137723619Y-81787809D01*
X137818857Y-81740190D01*
X137961714Y-81740190D01*
X138056952Y-81787809D01*
X138104571Y-81835428D01*
X138152190Y-81930666D01*
X138152190Y-82311619D01*
X138104571Y-80978285D02*
X138104571Y-81311619D01*
X138628380Y-81311619D02*
X137628380Y-81311619D01*
X137628380Y-80835428D01*
X138723619Y-80692571D02*
X138723619Y-79930666D01*
X138628380Y-79692571D02*
X137628380Y-79692571D01*
X137628380Y-79454476D01*
X137676000Y-79311619D01*
X137771238Y-79216380D01*
X137866476Y-79168761D01*
X138056952Y-79121142D01*
X138199809Y-79121142D01*
X138390285Y-79168761D01*
X138485523Y-79216380D01*
X138580761Y-79311619D01*
X138628380Y-79454476D01*
X138628380Y-79692571D01*
X137723619Y-78740190D02*
X137676000Y-78692571D01*
X137628380Y-78597333D01*
X137628380Y-78359238D01*
X137676000Y-78264000D01*
X137723619Y-78216380D01*
X137818857Y-78168761D01*
X137914095Y-78168761D01*
X138056952Y-78216380D01*
X138628380Y-78787809D01*
X138628380Y-78168761D01*
X140660380Y-77223904D02*
X139660380Y-77223904D01*
X140660380Y-76652476D02*
X140088952Y-77081047D01*
X139660380Y-76652476D02*
X140231809Y-77223904D01*
%TO.C,RF_C1*%
X141168380Y-70564190D02*
X140692190Y-70897523D01*
X141168380Y-71135619D02*
X140168380Y-71135619D01*
X140168380Y-70754666D01*
X140216000Y-70659428D01*
X140263619Y-70611809D01*
X140358857Y-70564190D01*
X140501714Y-70564190D01*
X140596952Y-70611809D01*
X140644571Y-70659428D01*
X140692190Y-70754666D01*
X140692190Y-71135619D01*
X140644571Y-69802285D02*
X140644571Y-70135619D01*
X141168380Y-70135619D02*
X140168380Y-70135619D01*
X140168380Y-69659428D01*
X141263619Y-69516571D02*
X141263619Y-68754666D01*
X141073142Y-67945142D02*
X141120761Y-67992761D01*
X141168380Y-68135619D01*
X141168380Y-68230857D01*
X141120761Y-68373714D01*
X141025523Y-68468952D01*
X140930285Y-68516571D01*
X140739809Y-68564190D01*
X140596952Y-68564190D01*
X140406476Y-68516571D01*
X140311238Y-68468952D01*
X140216000Y-68373714D01*
X140168380Y-68230857D01*
X140168380Y-68135619D01*
X140216000Y-67992761D01*
X140263619Y-67945142D01*
X141168380Y-66992761D02*
X141168380Y-67564190D01*
X141168380Y-67278476D02*
X140168380Y-67278476D01*
X140311238Y-67373714D01*
X140406476Y-67468952D01*
X140454095Y-67564190D01*
%TO.C,RF_R2*%
X139982380Y-94948190D02*
X139506190Y-95281523D01*
X139982380Y-95519619D02*
X138982380Y-95519619D01*
X138982380Y-95138666D01*
X139030000Y-95043428D01*
X139077619Y-94995809D01*
X139172857Y-94948190D01*
X139315714Y-94948190D01*
X139410952Y-94995809D01*
X139458571Y-95043428D01*
X139506190Y-95138666D01*
X139506190Y-95519619D01*
X139458571Y-94186285D02*
X139458571Y-94519619D01*
X139982380Y-94519619D02*
X138982380Y-94519619D01*
X138982380Y-94043428D01*
X140077619Y-93900571D02*
X140077619Y-93138666D01*
X139982380Y-92329142D02*
X139506190Y-92662476D01*
X139982380Y-92900571D02*
X138982380Y-92900571D01*
X138982380Y-92519619D01*
X139030000Y-92424380D01*
X139077619Y-92376761D01*
X139172857Y-92329142D01*
X139315714Y-92329142D01*
X139410952Y-92376761D01*
X139458571Y-92424380D01*
X139506190Y-92519619D01*
X139506190Y-92900571D01*
X139077619Y-91948190D02*
X139030000Y-91900571D01*
X138982380Y-91805333D01*
X138982380Y-91567238D01*
X139030000Y-91472000D01*
X139077619Y-91424380D01*
X139172857Y-91376761D01*
X139268095Y-91376761D01*
X139410952Y-91424380D01*
X139982380Y-91995809D01*
X139982380Y-91376761D01*
%TO.C,RF_U1*%
X143410380Y-96511000D02*
X142934190Y-96844333D01*
X143410380Y-97082428D02*
X142410380Y-97082428D01*
X142410380Y-96701476D01*
X142458000Y-96606238D01*
X142505619Y-96558619D01*
X142600857Y-96511000D01*
X142743714Y-96511000D01*
X142838952Y-96558619D01*
X142886571Y-96606238D01*
X142934190Y-96701476D01*
X142934190Y-97082428D01*
X142886571Y-95749095D02*
X142886571Y-96082428D01*
X143410380Y-96082428D02*
X142410380Y-96082428D01*
X142410380Y-95606238D01*
X143505619Y-95463380D02*
X143505619Y-94701476D01*
X142410380Y-94463380D02*
X143219904Y-94463380D01*
X143315142Y-94415761D01*
X143362761Y-94368142D01*
X143410380Y-94272904D01*
X143410380Y-94082428D01*
X143362761Y-93987190D01*
X143315142Y-93939571D01*
X143219904Y-93891952D01*
X142410380Y-93891952D01*
X143410380Y-92891952D02*
X143410380Y-93463380D01*
X143410380Y-93177666D02*
X142410380Y-93177666D01*
X142553238Y-93272904D01*
X142648476Y-93368142D01*
X142696095Y-93463380D01*
%TO.C,RF_C7*%
X150669809Y-87828380D02*
X150336476Y-87352190D01*
X150098380Y-87828380D02*
X150098380Y-86828380D01*
X150479333Y-86828380D01*
X150574571Y-86876000D01*
X150622190Y-86923619D01*
X150669809Y-87018857D01*
X150669809Y-87161714D01*
X150622190Y-87256952D01*
X150574571Y-87304571D01*
X150479333Y-87352190D01*
X150098380Y-87352190D01*
X151431714Y-87304571D02*
X151098380Y-87304571D01*
X151098380Y-87828380D02*
X151098380Y-86828380D01*
X151574571Y-86828380D01*
X151717428Y-87923619D02*
X152479333Y-87923619D01*
X153288857Y-87733142D02*
X153241238Y-87780761D01*
X153098380Y-87828380D01*
X153003142Y-87828380D01*
X152860285Y-87780761D01*
X152765047Y-87685523D01*
X152717428Y-87590285D01*
X152669809Y-87399809D01*
X152669809Y-87256952D01*
X152717428Y-87066476D01*
X152765047Y-86971238D01*
X152860285Y-86876000D01*
X153003142Y-86828380D01*
X153098380Y-86828380D01*
X153241238Y-86876000D01*
X153288857Y-86923619D01*
X153622190Y-86828380D02*
X154288857Y-86828380D01*
X153860285Y-87828380D01*
%TO.C,H17*%
X122459904Y-78938380D02*
X122459904Y-77938380D01*
X122459904Y-78414571D02*
X123031333Y-78414571D01*
X123031333Y-78938380D02*
X123031333Y-77938380D01*
X124031333Y-78938380D02*
X123459904Y-78938380D01*
X123745619Y-78938380D02*
X123745619Y-77938380D01*
X123650380Y-78081238D01*
X123555142Y-78176476D01*
X123459904Y-78224095D01*
X124364666Y-77938380D02*
X125031333Y-77938380D01*
X124602761Y-78938380D01*
%TO.C,RF_VL1*%
X130841523Y-74985619D02*
X131174857Y-75461809D01*
X131412952Y-74985619D02*
X131412952Y-75985619D01*
X131032000Y-75985619D01*
X130936761Y-75938000D01*
X130889142Y-75890380D01*
X130841523Y-75795142D01*
X130841523Y-75652285D01*
X130889142Y-75557047D01*
X130936761Y-75509428D01*
X131032000Y-75461809D01*
X131412952Y-75461809D01*
X130079619Y-75509428D02*
X130412952Y-75509428D01*
X130412952Y-74985619D02*
X130412952Y-75985619D01*
X129936761Y-75985619D01*
X129793904Y-74890380D02*
X129032000Y-74890380D01*
X128936761Y-75985619D02*
X128603428Y-74985619D01*
X128270095Y-75985619D01*
X127460571Y-74985619D02*
X127936761Y-74985619D01*
X127936761Y-75985619D01*
X126603428Y-74985619D02*
X127174857Y-74985619D01*
X126889142Y-74985619D02*
X126889142Y-75985619D01*
X126984380Y-75842761D01*
X127079619Y-75747523D01*
X127174857Y-75699904D01*
%TO.C,RF_C4*%
X134667809Y-106624380D02*
X134334476Y-106148190D01*
X134096380Y-106624380D02*
X134096380Y-105624380D01*
X134477333Y-105624380D01*
X134572571Y-105672000D01*
X134620190Y-105719619D01*
X134667809Y-105814857D01*
X134667809Y-105957714D01*
X134620190Y-106052952D01*
X134572571Y-106100571D01*
X134477333Y-106148190D01*
X134096380Y-106148190D01*
X135429714Y-106100571D02*
X135096380Y-106100571D01*
X135096380Y-106624380D02*
X135096380Y-105624380D01*
X135572571Y-105624380D01*
X135715428Y-106719619D02*
X136477333Y-106719619D01*
X137286857Y-106529142D02*
X137239238Y-106576761D01*
X137096380Y-106624380D01*
X137001142Y-106624380D01*
X136858285Y-106576761D01*
X136763047Y-106481523D01*
X136715428Y-106386285D01*
X136667809Y-106195809D01*
X136667809Y-106052952D01*
X136715428Y-105862476D01*
X136763047Y-105767238D01*
X136858285Y-105672000D01*
X137001142Y-105624380D01*
X137096380Y-105624380D01*
X137239238Y-105672000D01*
X137286857Y-105719619D01*
X138144000Y-105957714D02*
X138144000Y-106624380D01*
X137905904Y-105576761D02*
X137667809Y-106291047D01*
X138286857Y-106291047D01*
%TO.C,RF_R5*%
X180463809Y-106116380D02*
X180130476Y-105640190D01*
X179892380Y-106116380D02*
X179892380Y-105116380D01*
X180273333Y-105116380D01*
X180368571Y-105164000D01*
X180416190Y-105211619D01*
X180463809Y-105306857D01*
X180463809Y-105449714D01*
X180416190Y-105544952D01*
X180368571Y-105592571D01*
X180273333Y-105640190D01*
X179892380Y-105640190D01*
X181225714Y-105592571D02*
X180892380Y-105592571D01*
X180892380Y-106116380D02*
X180892380Y-105116380D01*
X181368571Y-105116380D01*
X181511428Y-106211619D02*
X182273333Y-106211619D01*
X183082857Y-106116380D02*
X182749523Y-105640190D01*
X182511428Y-106116380D02*
X182511428Y-105116380D01*
X182892380Y-105116380D01*
X182987619Y-105164000D01*
X183035238Y-105211619D01*
X183082857Y-105306857D01*
X183082857Y-105449714D01*
X183035238Y-105544952D01*
X182987619Y-105592571D01*
X182892380Y-105640190D01*
X182511428Y-105640190D01*
X183987619Y-105116380D02*
X183511428Y-105116380D01*
X183463809Y-105592571D01*
X183511428Y-105544952D01*
X183606666Y-105497333D01*
X183844761Y-105497333D01*
X183940000Y-105544952D01*
X183987619Y-105592571D01*
X184035238Y-105687809D01*
X184035238Y-105925904D01*
X183987619Y-106021142D01*
X183940000Y-106068761D01*
X183844761Y-106116380D01*
X183606666Y-106116380D01*
X183511428Y-106068761D01*
X183463809Y-106021142D01*
%TO.C,J4B1*%
X129754380Y-93765523D02*
X130468666Y-93765523D01*
X130611523Y-93813142D01*
X130706761Y-93908380D01*
X130754380Y-94051238D01*
X130754380Y-94146476D01*
X130087714Y-92860761D02*
X130754380Y-92860761D01*
X129706761Y-93098857D02*
X130421047Y-93336952D01*
X130421047Y-92717904D01*
X130230571Y-92003619D02*
X130278190Y-91860761D01*
X130325809Y-91813142D01*
X130421047Y-91765523D01*
X130563904Y-91765523D01*
X130659142Y-91813142D01*
X130706761Y-91860761D01*
X130754380Y-91956000D01*
X130754380Y-92336952D01*
X129754380Y-92336952D01*
X129754380Y-92003619D01*
X129802000Y-91908380D01*
X129849619Y-91860761D01*
X129944857Y-91813142D01*
X130040095Y-91813142D01*
X130135333Y-91860761D01*
X130182952Y-91908380D01*
X130230571Y-92003619D01*
X130230571Y-92336952D01*
X130754380Y-90813142D02*
X130754380Y-91384571D01*
X130754380Y-91098857D02*
X129754380Y-91098857D01*
X129897238Y-91194095D01*
X129992476Y-91289333D01*
X130040095Y-91384571D01*
%TO.C,RF_R7*%
X168195809Y-78176380D02*
X167862476Y-77700190D01*
X167624380Y-78176380D02*
X167624380Y-77176380D01*
X168005333Y-77176380D01*
X168100571Y-77224000D01*
X168148190Y-77271619D01*
X168195809Y-77366857D01*
X168195809Y-77509714D01*
X168148190Y-77604952D01*
X168100571Y-77652571D01*
X168005333Y-77700190D01*
X167624380Y-77700190D01*
X168957714Y-77652571D02*
X168624380Y-77652571D01*
X168624380Y-78176380D02*
X168624380Y-77176380D01*
X169100571Y-77176380D01*
X169243428Y-78271619D02*
X170005333Y-78271619D01*
X170814857Y-78176380D02*
X170481523Y-77700190D01*
X170243428Y-78176380D02*
X170243428Y-77176380D01*
X170624380Y-77176380D01*
X170719619Y-77224000D01*
X170767238Y-77271619D01*
X170814857Y-77366857D01*
X170814857Y-77509714D01*
X170767238Y-77604952D01*
X170719619Y-77652571D01*
X170624380Y-77700190D01*
X170243428Y-77700190D01*
X171148190Y-77176380D02*
X171814857Y-77176380D01*
X171386285Y-78176380D01*
%TO.C,RF_R8*%
X163774380Y-86820190D02*
X163298190Y-87153523D01*
X163774380Y-87391619D02*
X162774380Y-87391619D01*
X162774380Y-87010666D01*
X162822000Y-86915428D01*
X162869619Y-86867809D01*
X162964857Y-86820190D01*
X163107714Y-86820190D01*
X163202952Y-86867809D01*
X163250571Y-86915428D01*
X163298190Y-87010666D01*
X163298190Y-87391619D01*
X163250571Y-86058285D02*
X163250571Y-86391619D01*
X163774380Y-86391619D02*
X162774380Y-86391619D01*
X162774380Y-85915428D01*
X163869619Y-85772571D02*
X163869619Y-85010666D01*
X163774380Y-84201142D02*
X163298190Y-84534476D01*
X163774380Y-84772571D02*
X162774380Y-84772571D01*
X162774380Y-84391619D01*
X162822000Y-84296380D01*
X162869619Y-84248761D01*
X162964857Y-84201142D01*
X163107714Y-84201142D01*
X163202952Y-84248761D01*
X163250571Y-84296380D01*
X163298190Y-84391619D01*
X163298190Y-84772571D01*
X163202952Y-83629714D02*
X163155333Y-83724952D01*
X163107714Y-83772571D01*
X163012476Y-83820190D01*
X162964857Y-83820190D01*
X162869619Y-83772571D01*
X162822000Y-83724952D01*
X162774380Y-83629714D01*
X162774380Y-83439238D01*
X162822000Y-83344000D01*
X162869619Y-83296380D01*
X162964857Y-83248761D01*
X163012476Y-83248761D01*
X163107714Y-83296380D01*
X163155333Y-83344000D01*
X163202952Y-83439238D01*
X163202952Y-83629714D01*
X163250571Y-83724952D01*
X163298190Y-83772571D01*
X163393428Y-83820190D01*
X163583904Y-83820190D01*
X163679142Y-83772571D01*
X163726761Y-83724952D01*
X163774380Y-83629714D01*
X163774380Y-83439238D01*
X163726761Y-83344000D01*
X163679142Y-83296380D01*
X163583904Y-83248761D01*
X163393428Y-83248761D01*
X163298190Y-83296380D01*
X163250571Y-83344000D01*
X163202952Y-83439238D01*
D12*
%TO.C,RF_J1*%
X172024523Y-69287571D02*
X171419761Y-69710904D01*
X172024523Y-70013285D02*
X170754523Y-70013285D01*
X170754523Y-69529476D01*
X170815000Y-69408523D01*
X170875476Y-69348047D01*
X170996428Y-69287571D01*
X171177857Y-69287571D01*
X171298809Y-69348047D01*
X171359285Y-69408523D01*
X171419761Y-69529476D01*
X171419761Y-70013285D01*
X171359285Y-68319952D02*
X171359285Y-68743285D01*
X172024523Y-68743285D02*
X170754523Y-68743285D01*
X170754523Y-68138523D01*
X172145476Y-67957095D02*
X172145476Y-66989476D01*
X170754523Y-66324238D02*
X171661666Y-66324238D01*
X171843095Y-66384714D01*
X171964047Y-66505666D01*
X172024523Y-66687095D01*
X172024523Y-66808047D01*
X172024523Y-65054238D02*
X172024523Y-65779952D01*
X172024523Y-65417095D02*
X170754523Y-65417095D01*
X170935952Y-65538047D01*
X171056904Y-65659000D01*
X171117380Y-65779952D01*
D11*
%TO.C,RF_C8*%
X166203809Y-72334380D02*
X165870476Y-71858190D01*
X165632380Y-72334380D02*
X165632380Y-71334380D01*
X166013333Y-71334380D01*
X166108571Y-71382000D01*
X166156190Y-71429619D01*
X166203809Y-71524857D01*
X166203809Y-71667714D01*
X166156190Y-71762952D01*
X166108571Y-71810571D01*
X166013333Y-71858190D01*
X165632380Y-71858190D01*
X166965714Y-71810571D02*
X166632380Y-71810571D01*
X166632380Y-72334380D02*
X166632380Y-71334380D01*
X167108571Y-71334380D01*
X167251428Y-72429619D02*
X168013333Y-72429619D01*
X168822857Y-72239142D02*
X168775238Y-72286761D01*
X168632380Y-72334380D01*
X168537142Y-72334380D01*
X168394285Y-72286761D01*
X168299047Y-72191523D01*
X168251428Y-72096285D01*
X168203809Y-71905809D01*
X168203809Y-71762952D01*
X168251428Y-71572476D01*
X168299047Y-71477238D01*
X168394285Y-71382000D01*
X168537142Y-71334380D01*
X168632380Y-71334380D01*
X168775238Y-71382000D01*
X168822857Y-71429619D01*
X169394285Y-71762952D02*
X169299047Y-71715333D01*
X169251428Y-71667714D01*
X169203809Y-71572476D01*
X169203809Y-71524857D01*
X169251428Y-71429619D01*
X169299047Y-71382000D01*
X169394285Y-71334380D01*
X169584761Y-71334380D01*
X169680000Y-71382000D01*
X169727619Y-71429619D01*
X169775238Y-71524857D01*
X169775238Y-71572476D01*
X169727619Y-71667714D01*
X169680000Y-71715333D01*
X169584761Y-71762952D01*
X169394285Y-71762952D01*
X169299047Y-71810571D01*
X169251428Y-71858190D01*
X169203809Y-71953428D01*
X169203809Y-72143904D01*
X169251428Y-72239142D01*
X169299047Y-72286761D01*
X169394285Y-72334380D01*
X169584761Y-72334380D01*
X169680000Y-72286761D01*
X169727619Y-72239142D01*
X169775238Y-72143904D01*
X169775238Y-71953428D01*
X169727619Y-71858190D01*
X169680000Y-71810571D01*
X169584761Y-71762952D01*
%TO.C,RF_C9*%
X175712380Y-83264190D02*
X175236190Y-83597523D01*
X175712380Y-83835619D02*
X174712380Y-83835619D01*
X174712380Y-83454666D01*
X174760000Y-83359428D01*
X174807619Y-83311809D01*
X174902857Y-83264190D01*
X175045714Y-83264190D01*
X175140952Y-83311809D01*
X175188571Y-83359428D01*
X175236190Y-83454666D01*
X175236190Y-83835619D01*
X175188571Y-82502285D02*
X175188571Y-82835619D01*
X175712380Y-82835619D02*
X174712380Y-82835619D01*
X174712380Y-82359428D01*
X175807619Y-82216571D02*
X175807619Y-81454666D01*
X175617142Y-80645142D02*
X175664761Y-80692761D01*
X175712380Y-80835619D01*
X175712380Y-80930857D01*
X175664761Y-81073714D01*
X175569523Y-81168952D01*
X175474285Y-81216571D01*
X175283809Y-81264190D01*
X175140952Y-81264190D01*
X174950476Y-81216571D01*
X174855238Y-81168952D01*
X174760000Y-81073714D01*
X174712380Y-80930857D01*
X174712380Y-80835619D01*
X174760000Y-80692761D01*
X174807619Y-80645142D01*
X175712380Y-80168952D02*
X175712380Y-79978476D01*
X175664761Y-79883238D01*
X175617142Y-79835619D01*
X175474285Y-79740380D01*
X175283809Y-79692761D01*
X174902857Y-79692761D01*
X174807619Y-79740380D01*
X174760000Y-79788000D01*
X174712380Y-79883238D01*
X174712380Y-80073714D01*
X174760000Y-80168952D01*
X174807619Y-80216571D01*
X174902857Y-80264190D01*
X175140952Y-80264190D01*
X175236190Y-80216571D01*
X175283809Y-80168952D01*
X175331428Y-80073714D01*
X175331428Y-79883238D01*
X175283809Y-79788000D01*
X175236190Y-79740380D01*
X175140952Y-79692761D01*
%TO.C,H16*%
X122459904Y-104846380D02*
X122459904Y-103846380D01*
X122459904Y-104322571D02*
X123031333Y-104322571D01*
X123031333Y-104846380D02*
X123031333Y-103846380D01*
X124031333Y-104846380D02*
X123459904Y-104846380D01*
X123745619Y-104846380D02*
X123745619Y-103846380D01*
X123650380Y-103989238D01*
X123555142Y-104084476D01*
X123459904Y-104132095D01*
X124888476Y-103846380D02*
X124698000Y-103846380D01*
X124602761Y-103894000D01*
X124555142Y-103941619D01*
X124459904Y-104084476D01*
X124412285Y-104274952D01*
X124412285Y-104655904D01*
X124459904Y-104751142D01*
X124507523Y-104798761D01*
X124602761Y-104846380D01*
X124793238Y-104846380D01*
X124888476Y-104798761D01*
X124936095Y-104751142D01*
X124983714Y-104655904D01*
X124983714Y-104417809D01*
X124936095Y-104322571D01*
X124888476Y-104274952D01*
X124793238Y-104227333D01*
X124602761Y-104227333D01*
X124507523Y-104274952D01*
X124459904Y-104322571D01*
X124412285Y-104417809D01*
%TO.C,RF_R4*%
X146859809Y-111958380D02*
X146526476Y-111482190D01*
X146288380Y-111958380D02*
X146288380Y-110958380D01*
X146669333Y-110958380D01*
X146764571Y-111006000D01*
X146812190Y-111053619D01*
X146859809Y-111148857D01*
X146859809Y-111291714D01*
X146812190Y-111386952D01*
X146764571Y-111434571D01*
X146669333Y-111482190D01*
X146288380Y-111482190D01*
X147621714Y-111434571D02*
X147288380Y-111434571D01*
X147288380Y-111958380D02*
X147288380Y-110958380D01*
X147764571Y-110958380D01*
X147907428Y-112053619D02*
X148669333Y-112053619D01*
X149478857Y-111958380D02*
X149145523Y-111482190D01*
X148907428Y-111958380D02*
X148907428Y-110958380D01*
X149288380Y-110958380D01*
X149383619Y-111006000D01*
X149431238Y-111053619D01*
X149478857Y-111148857D01*
X149478857Y-111291714D01*
X149431238Y-111386952D01*
X149383619Y-111434571D01*
X149288380Y-111482190D01*
X148907428Y-111482190D01*
X150336000Y-111291714D02*
X150336000Y-111958380D01*
X150097904Y-110910761D02*
X149859809Y-111625047D01*
X150478857Y-111625047D01*
%TO.C,RF_R1*%
X121780380Y-86058190D02*
X121304190Y-86391523D01*
X121780380Y-86629619D02*
X120780380Y-86629619D01*
X120780380Y-86248666D01*
X120828000Y-86153428D01*
X120875619Y-86105809D01*
X120970857Y-86058190D01*
X121113714Y-86058190D01*
X121208952Y-86105809D01*
X121256571Y-86153428D01*
X121304190Y-86248666D01*
X121304190Y-86629619D01*
X121256571Y-85296285D02*
X121256571Y-85629619D01*
X121780380Y-85629619D02*
X120780380Y-85629619D01*
X120780380Y-85153428D01*
X121875619Y-85010571D02*
X121875619Y-84248666D01*
X121780380Y-83439142D02*
X121304190Y-83772476D01*
X121780380Y-84010571D02*
X120780380Y-84010571D01*
X120780380Y-83629619D01*
X120828000Y-83534380D01*
X120875619Y-83486761D01*
X120970857Y-83439142D01*
X121113714Y-83439142D01*
X121208952Y-83486761D01*
X121256571Y-83534380D01*
X121304190Y-83629619D01*
X121304190Y-84010571D01*
X121780380Y-82486761D02*
X121780380Y-83058190D01*
X121780380Y-82772476D02*
X120780380Y-82772476D01*
X120923238Y-82867714D01*
X121018476Y-82962952D01*
X121066095Y-83058190D01*
%TO.C,RF_R9*%
X160218380Y-82248190D02*
X159742190Y-82581523D01*
X160218380Y-82819619D02*
X159218380Y-82819619D01*
X159218380Y-82438666D01*
X159266000Y-82343428D01*
X159313619Y-82295809D01*
X159408857Y-82248190D01*
X159551714Y-82248190D01*
X159646952Y-82295809D01*
X159694571Y-82343428D01*
X159742190Y-82438666D01*
X159742190Y-82819619D01*
X159694571Y-81486285D02*
X159694571Y-81819619D01*
X160218380Y-81819619D02*
X159218380Y-81819619D01*
X159218380Y-81343428D01*
X160313619Y-81200571D02*
X160313619Y-80438666D01*
X160218380Y-79629142D02*
X159742190Y-79962476D01*
X160218380Y-80200571D02*
X159218380Y-80200571D01*
X159218380Y-79819619D01*
X159266000Y-79724380D01*
X159313619Y-79676761D01*
X159408857Y-79629142D01*
X159551714Y-79629142D01*
X159646952Y-79676761D01*
X159694571Y-79724380D01*
X159742190Y-79819619D01*
X159742190Y-80200571D01*
X160218380Y-79152952D02*
X160218380Y-78962476D01*
X160170761Y-78867238D01*
X160123142Y-78819619D01*
X159980285Y-78724380D01*
X159789809Y-78676761D01*
X159408857Y-78676761D01*
X159313619Y-78724380D01*
X159266000Y-78772000D01*
X159218380Y-78867238D01*
X159218380Y-79057714D01*
X159266000Y-79152952D01*
X159313619Y-79200571D01*
X159408857Y-79248190D01*
X159646952Y-79248190D01*
X159742190Y-79200571D01*
X159789809Y-79152952D01*
X159837428Y-79057714D01*
X159837428Y-78867238D01*
X159789809Y-78772000D01*
X159742190Y-78724380D01*
X159646952Y-78676761D01*
D12*
%TO.C,RF_SW1*%
X161767761Y-66360523D02*
X161344428Y-65755761D01*
X161042047Y-66360523D02*
X161042047Y-65090523D01*
X161525857Y-65090523D01*
X161646809Y-65151000D01*
X161707285Y-65211476D01*
X161767761Y-65332428D01*
X161767761Y-65513857D01*
X161707285Y-65634809D01*
X161646809Y-65695285D01*
X161525857Y-65755761D01*
X161042047Y-65755761D01*
X162735380Y-65695285D02*
X162312047Y-65695285D01*
X162312047Y-66360523D02*
X162312047Y-65090523D01*
X162916809Y-65090523D01*
X163098238Y-66481476D02*
X164065857Y-66481476D01*
X164307761Y-66300047D02*
X164489190Y-66360523D01*
X164791571Y-66360523D01*
X164912523Y-66300047D01*
X164973000Y-66239571D01*
X165033476Y-66118619D01*
X165033476Y-65997666D01*
X164973000Y-65876714D01*
X164912523Y-65816238D01*
X164791571Y-65755761D01*
X164549666Y-65695285D01*
X164428714Y-65634809D01*
X164368238Y-65574333D01*
X164307761Y-65453380D01*
X164307761Y-65332428D01*
X164368238Y-65211476D01*
X164428714Y-65151000D01*
X164549666Y-65090523D01*
X164852047Y-65090523D01*
X165033476Y-65151000D01*
X165456809Y-65090523D02*
X165759190Y-66360523D01*
X166001095Y-65453380D01*
X166243000Y-66360523D01*
X166545380Y-65090523D01*
X167694428Y-66360523D02*
X166968714Y-66360523D01*
X167331571Y-66360523D02*
X167331571Y-65090523D01*
X167210619Y-65271952D01*
X167089666Y-65392904D01*
X166968714Y-65453380D01*
D11*
%TO.C,RF_R10*%
X152733619Y-80208380D02*
X152400285Y-79732190D01*
X152162190Y-80208380D02*
X152162190Y-79208380D01*
X152543142Y-79208380D01*
X152638380Y-79256000D01*
X152686000Y-79303619D01*
X152733619Y-79398857D01*
X152733619Y-79541714D01*
X152686000Y-79636952D01*
X152638380Y-79684571D01*
X152543142Y-79732190D01*
X152162190Y-79732190D01*
X153495523Y-79684571D02*
X153162190Y-79684571D01*
X153162190Y-80208380D02*
X153162190Y-79208380D01*
X153638380Y-79208380D01*
X153781238Y-80303619D02*
X154543142Y-80303619D01*
X155352666Y-80208380D02*
X155019333Y-79732190D01*
X154781238Y-80208380D02*
X154781238Y-79208380D01*
X155162190Y-79208380D01*
X155257428Y-79256000D01*
X155305047Y-79303619D01*
X155352666Y-79398857D01*
X155352666Y-79541714D01*
X155305047Y-79636952D01*
X155257428Y-79684571D01*
X155162190Y-79732190D01*
X154781238Y-79732190D01*
X156305047Y-80208380D02*
X155733619Y-80208380D01*
X156019333Y-80208380D02*
X156019333Y-79208380D01*
X155924095Y-79351238D01*
X155828857Y-79446476D01*
X155733619Y-79494095D01*
X156924095Y-79208380D02*
X157019333Y-79208380D01*
X157114571Y-79256000D01*
X157162190Y-79303619D01*
X157209809Y-79398857D01*
X157257428Y-79589333D01*
X157257428Y-79827428D01*
X157209809Y-80017904D01*
X157162190Y-80113142D01*
X157114571Y-80160761D01*
X157019333Y-80208380D01*
X156924095Y-80208380D01*
X156828857Y-80160761D01*
X156781238Y-80113142D01*
X156733619Y-80017904D01*
X156686000Y-79827428D01*
X156686000Y-79589333D01*
X156733619Y-79398857D01*
X156781238Y-79303619D01*
X156828857Y-79256000D01*
X156924095Y-79208380D01*
%TO.C,RF_L1*%
X182261047Y-92146380D02*
X181927714Y-91670190D01*
X181689619Y-92146380D02*
X181689619Y-91146380D01*
X182070571Y-91146380D01*
X182165809Y-91194000D01*
X182213428Y-91241619D01*
X182261047Y-91336857D01*
X182261047Y-91479714D01*
X182213428Y-91574952D01*
X182165809Y-91622571D01*
X182070571Y-91670190D01*
X181689619Y-91670190D01*
X183022952Y-91622571D02*
X182689619Y-91622571D01*
X182689619Y-92146380D02*
X182689619Y-91146380D01*
X183165809Y-91146380D01*
X183308666Y-92241619D02*
X184070571Y-92241619D01*
X184784857Y-92146380D02*
X184308666Y-92146380D01*
X184308666Y-91146380D01*
X185642000Y-92146380D02*
X185070571Y-92146380D01*
X185356285Y-92146380D02*
X185356285Y-91146380D01*
X185261047Y-91289238D01*
X185165809Y-91384476D01*
X185070571Y-91432095D01*
%TO.C,RF_C3*%
X143454380Y-101044190D02*
X142978190Y-101377523D01*
X143454380Y-101615619D02*
X142454380Y-101615619D01*
X142454380Y-101234666D01*
X142502000Y-101139428D01*
X142549619Y-101091809D01*
X142644857Y-101044190D01*
X142787714Y-101044190D01*
X142882952Y-101091809D01*
X142930571Y-101139428D01*
X142978190Y-101234666D01*
X142978190Y-101615619D01*
X142930571Y-100282285D02*
X142930571Y-100615619D01*
X143454380Y-100615619D02*
X142454380Y-100615619D01*
X142454380Y-100139428D01*
X143549619Y-99996571D02*
X143549619Y-99234666D01*
X143359142Y-98425142D02*
X143406761Y-98472761D01*
X143454380Y-98615619D01*
X143454380Y-98710857D01*
X143406761Y-98853714D01*
X143311523Y-98948952D01*
X143216285Y-98996571D01*
X143025809Y-99044190D01*
X142882952Y-99044190D01*
X142692476Y-98996571D01*
X142597238Y-98948952D01*
X142502000Y-98853714D01*
X142454380Y-98710857D01*
X142454380Y-98615619D01*
X142502000Y-98472761D01*
X142549619Y-98425142D01*
X142454380Y-98091809D02*
X142454380Y-97472761D01*
X142835333Y-97806095D01*
X142835333Y-97663238D01*
X142882952Y-97568000D01*
X142930571Y-97520380D01*
X143025809Y-97472761D01*
X143263904Y-97472761D01*
X143359142Y-97520380D01*
X143406761Y-97568000D01*
X143454380Y-97663238D01*
X143454380Y-97948952D01*
X143406761Y-98044190D01*
X143359142Y-98091809D01*
%TO.C,RF_R12*%
X154511619Y-84780380D02*
X154178285Y-84304190D01*
X153940190Y-84780380D02*
X153940190Y-83780380D01*
X154321142Y-83780380D01*
X154416380Y-83828000D01*
X154464000Y-83875619D01*
X154511619Y-83970857D01*
X154511619Y-84113714D01*
X154464000Y-84208952D01*
X154416380Y-84256571D01*
X154321142Y-84304190D01*
X153940190Y-84304190D01*
X155273523Y-84256571D02*
X154940190Y-84256571D01*
X154940190Y-84780380D02*
X154940190Y-83780380D01*
X155416380Y-83780380D01*
X155559238Y-84875619D02*
X156321142Y-84875619D01*
X157130666Y-84780380D02*
X156797333Y-84304190D01*
X156559238Y-84780380D02*
X156559238Y-83780380D01*
X156940190Y-83780380D01*
X157035428Y-83828000D01*
X157083047Y-83875619D01*
X157130666Y-83970857D01*
X157130666Y-84113714D01*
X157083047Y-84208952D01*
X157035428Y-84256571D01*
X156940190Y-84304190D01*
X156559238Y-84304190D01*
X158083047Y-84780380D02*
X157511619Y-84780380D01*
X157797333Y-84780380D02*
X157797333Y-83780380D01*
X157702095Y-83923238D01*
X157606857Y-84018476D01*
X157511619Y-84066095D01*
X158464000Y-83875619D02*
X158511619Y-83828000D01*
X158606857Y-83780380D01*
X158844952Y-83780380D01*
X158940190Y-83828000D01*
X158987809Y-83875619D01*
X159035428Y-83970857D01*
X159035428Y-84066095D01*
X158987809Y-84208952D01*
X158416380Y-84780380D01*
X159035428Y-84780380D01*
%TO.C,RF_L2*%
X169561047Y-89352380D02*
X169227714Y-88876190D01*
X168989619Y-89352380D02*
X168989619Y-88352380D01*
X169370571Y-88352380D01*
X169465809Y-88400000D01*
X169513428Y-88447619D01*
X169561047Y-88542857D01*
X169561047Y-88685714D01*
X169513428Y-88780952D01*
X169465809Y-88828571D01*
X169370571Y-88876190D01*
X168989619Y-88876190D01*
X170322952Y-88828571D02*
X169989619Y-88828571D01*
X169989619Y-89352380D02*
X169989619Y-88352380D01*
X170465809Y-88352380D01*
X170608666Y-89447619D02*
X171370571Y-89447619D01*
X172084857Y-89352380D02*
X171608666Y-89352380D01*
X171608666Y-88352380D01*
X172370571Y-88447619D02*
X172418190Y-88400000D01*
X172513428Y-88352380D01*
X172751523Y-88352380D01*
X172846761Y-88400000D01*
X172894380Y-88447619D01*
X172942000Y-88542857D01*
X172942000Y-88638095D01*
X172894380Y-88780952D01*
X172322952Y-89352380D01*
X172942000Y-89352380D01*
D13*
%TO.C,RF_C10*%
X178462000Y-98870000D02*
X178462000Y-91630000D01*
X178462000Y-91630000D02*
X181202000Y-91630000D01*
X178462000Y-98870000D02*
X181202000Y-98870000D01*
X181202000Y-98870000D02*
X181202000Y-91630000D01*
%TO.C,RF_JP1*%
X134466000Y-80550000D02*
X131726000Y-80550000D01*
X131726000Y-80550000D02*
X131726000Y-87090000D01*
X133096000Y-90400000D02*
X133096000Y-87090000D01*
X134466000Y-87090000D02*
X134466000Y-80550000D01*
X133096000Y-77240000D02*
X133096000Y-80550000D01*
X131726000Y-87090000D02*
X134466000Y-87090000D01*
%TO.C,RF_C6*%
X168756000Y-103822000D02*
X166016000Y-103822000D01*
X166016000Y-103822000D02*
X166016000Y-111062000D01*
X168756000Y-111062000D02*
X166016000Y-111062000D01*
X168756000Y-103822000D02*
X168756000Y-111062000D01*
%TO.C,RF_C5*%
X142430000Y-89508000D02*
X149670000Y-89508000D01*
X142430000Y-86768000D02*
X142430000Y-89508000D01*
X149670000Y-86768000D02*
X149670000Y-89508000D01*
X142430000Y-86768000D02*
X149670000Y-86768000D01*
%TO.C,RF_R11*%
X143796000Y-80672000D02*
X150336000Y-80672000D01*
X150336000Y-83412000D02*
X150336000Y-83082000D01*
X143796000Y-83412000D02*
X150336000Y-83412000D01*
X143796000Y-83082000D02*
X143796000Y-83412000D01*
X143796000Y-81002000D02*
X143796000Y-80672000D01*
X150336000Y-80672000D02*
X150336000Y-81002000D01*
%TO.C,RF_C12*%
X156908000Y-103224000D02*
X156908000Y-100484000D01*
X164148000Y-103224000D02*
X156908000Y-103224000D01*
X164148000Y-100484000D02*
X156908000Y-100484000D01*
X164148000Y-103224000D02*
X164148000Y-100484000D01*
%TO.C,RF_R6*%
X177768000Y-108358000D02*
X177768000Y-108688000D01*
X171228000Y-111098000D02*
X177768000Y-111098000D01*
X171228000Y-108688000D02*
X171228000Y-108358000D01*
X171228000Y-110768000D02*
X171228000Y-111098000D01*
X177768000Y-111098000D02*
X177768000Y-110768000D01*
X171228000Y-108358000D02*
X177768000Y-108358000D01*
%TO.C,RF_C2*%
X138276000Y-82740000D02*
X135536000Y-82740000D01*
X138276000Y-82740000D02*
X138276000Y-89980000D01*
X138276000Y-89980000D02*
X135536000Y-89980000D01*
X135536000Y-82740000D02*
X135536000Y-89980000D01*
%TO.C,RF_C13*%
X130169328Y-110006000D02*
X130169328Y-111522000D01*
X130209328Y-106416000D02*
X130209328Y-107926000D01*
X131690328Y-110006000D02*
X131690328Y-110751000D01*
X130650328Y-106524000D02*
X130650328Y-107926000D01*
X130169328Y-106410000D02*
X130169328Y-107926000D01*
X130049328Y-110006000D02*
X130049328Y-111535000D01*
X132010328Y-107583000D02*
X132010328Y-110349000D01*
X130730328Y-106552000D02*
X130730328Y-107926000D01*
X129929328Y-106388000D02*
X129929328Y-107926000D01*
X132330328Y-108289000D02*
X132330328Y-109643000D01*
X127004553Y-107491000D02*
X127504553Y-107491000D01*
X131330328Y-106871000D02*
X131330328Y-107926000D01*
X131130328Y-110006000D02*
X131130328Y-111190000D01*
X130129328Y-106405000D02*
X130129328Y-107926000D01*
X127254553Y-107241000D02*
X127254553Y-107741000D01*
X131970328Y-107523000D02*
X131970328Y-110409000D01*
X131370328Y-106901000D02*
X131370328Y-107926000D01*
X131650328Y-110006000D02*
X131650328Y-110792000D01*
X130049328Y-106397000D02*
X130049328Y-107926000D01*
X132170328Y-107868000D02*
X132170328Y-110064000D01*
X130570328Y-110006000D02*
X130570328Y-111434000D01*
X131290328Y-106844000D02*
X131290328Y-107926000D01*
X130329328Y-110006000D02*
X130329328Y-111494000D01*
X130129328Y-110006000D02*
X130129328Y-111527000D01*
X131130328Y-106742000D02*
X131130328Y-107926000D01*
X130970328Y-110006000D02*
X130970328Y-111276000D01*
X130610328Y-110006000D02*
X130610328Y-111421000D01*
X131330328Y-110006000D02*
X131330328Y-111061000D01*
X130890328Y-106618000D02*
X130890328Y-107926000D01*
X130690328Y-110006000D02*
X130690328Y-111394000D01*
X132410328Y-108682000D02*
X132410328Y-109250000D01*
X130810328Y-110006000D02*
X130810328Y-111348000D01*
X129809328Y-106386000D02*
X129809328Y-107926000D01*
X131490328Y-110006000D02*
X131490328Y-110937000D01*
X132290328Y-108161000D02*
X132290328Y-109771000D01*
X131490328Y-106995000D02*
X131490328Y-107926000D01*
X131930328Y-107466000D02*
X131930328Y-110466000D01*
X130369328Y-106446000D02*
X130369328Y-107926000D01*
X130930328Y-106637000D02*
X130930328Y-107926000D01*
X130570328Y-106498000D02*
X130570328Y-107926000D01*
X130970328Y-106656000D02*
X130970328Y-107926000D01*
X132090328Y-107715000D02*
X132090328Y-110217000D01*
X130249328Y-106423000D02*
X130249328Y-107926000D01*
X130610328Y-106511000D02*
X130610328Y-107926000D01*
X129849328Y-106386000D02*
X129849328Y-107926000D01*
X130810328Y-106584000D02*
X130810328Y-107926000D01*
X131210328Y-106791000D02*
X131210328Y-107926000D01*
X130850328Y-106601000D02*
X130850328Y-107926000D01*
X131210328Y-110006000D02*
X131210328Y-111141000D01*
X132370328Y-108448000D02*
X132370328Y-109484000D01*
X131530328Y-107029000D02*
X131530328Y-107926000D01*
X131770328Y-110006000D02*
X131770328Y-110665000D01*
X131090328Y-110006000D02*
X131090328Y-111213000D01*
X131250328Y-106817000D02*
X131250328Y-107926000D01*
X129929328Y-110006000D02*
X129929328Y-111544000D01*
X130770328Y-110006000D02*
X130770328Y-111364000D01*
X131010328Y-106676000D02*
X131010328Y-107926000D01*
X131050328Y-110006000D02*
X131050328Y-111234000D01*
X131690328Y-107181000D02*
X131690328Y-107926000D01*
X131450328Y-106962000D02*
X131450328Y-107926000D01*
X130249328Y-110006000D02*
X130249328Y-111509000D01*
X130409328Y-106455000D02*
X130409328Y-107926000D01*
X131370328Y-110006000D02*
X131370328Y-111031000D01*
X130089328Y-110006000D02*
X130089328Y-111531000D01*
X129809328Y-110006000D02*
X129809328Y-111546000D01*
X130489328Y-110006000D02*
X130489328Y-111457000D01*
X129969328Y-110006000D02*
X129969328Y-111542000D01*
X130409328Y-110006000D02*
X130409328Y-111477000D01*
X131770328Y-107267000D02*
X131770328Y-107926000D01*
X130329328Y-106438000D02*
X130329328Y-107926000D01*
X129969328Y-106390000D02*
X129969328Y-107926000D01*
X131610328Y-107102000D02*
X131610328Y-107926000D01*
X132210328Y-107955000D02*
X132210328Y-109977000D01*
X130770328Y-106568000D02*
X130770328Y-107926000D01*
X131050328Y-106698000D02*
X131050328Y-107926000D01*
X130209328Y-110006000D02*
X130209328Y-111516000D01*
X129889328Y-106387000D02*
X129889328Y-107926000D01*
X130009328Y-106393000D02*
X130009328Y-107926000D01*
X130650328Y-110006000D02*
X130650328Y-111408000D01*
X130530328Y-110006000D02*
X130530328Y-111446000D01*
X131810328Y-107313000D02*
X131810328Y-107926000D01*
X131730328Y-107223000D02*
X131730328Y-107926000D01*
X132130328Y-107788000D02*
X132130328Y-110144000D01*
X131410328Y-110006000D02*
X131410328Y-111001000D01*
X131010328Y-110006000D02*
X131010328Y-111256000D01*
X129889328Y-110006000D02*
X129889328Y-111545000D01*
X130890328Y-110006000D02*
X130890328Y-111314000D01*
X131170328Y-106766000D02*
X131170328Y-107926000D01*
X130850328Y-110006000D02*
X130850328Y-111331000D01*
X131570328Y-110006000D02*
X131570328Y-110867000D01*
X130449328Y-106465000D02*
X130449328Y-107926000D01*
X131090328Y-106719000D02*
X131090328Y-107926000D01*
X130730328Y-110006000D02*
X130730328Y-111380000D01*
X130930328Y-110006000D02*
X130930328Y-111295000D01*
X130530328Y-106486000D02*
X130530328Y-107926000D01*
X131850328Y-107361000D02*
X131850328Y-110571000D01*
X131530328Y-110006000D02*
X131530328Y-110903000D01*
X130009328Y-110006000D02*
X130009328Y-111539000D01*
X131730328Y-110006000D02*
X131730328Y-110709000D01*
X132050328Y-107647000D02*
X132050328Y-110285000D01*
X130289328Y-106430000D02*
X130289328Y-107926000D01*
X131890328Y-107412000D02*
X131890328Y-110520000D01*
X130089328Y-106401000D02*
X130089328Y-107926000D01*
X130369328Y-110006000D02*
X130369328Y-111486000D01*
X131250328Y-110006000D02*
X131250328Y-111115000D01*
X131610328Y-110006000D02*
X131610328Y-110830000D01*
X129849328Y-110006000D02*
X129849328Y-111546000D01*
X131410328Y-106931000D02*
X131410328Y-107926000D01*
X132250328Y-108051000D02*
X132250328Y-109881000D01*
X131570328Y-107065000D02*
X131570328Y-107926000D01*
X131290328Y-110006000D02*
X131290328Y-111088000D01*
X130289328Y-110006000D02*
X130289328Y-111502000D01*
X131650328Y-107140000D02*
X131650328Y-107926000D01*
X131170328Y-110006000D02*
X131170328Y-111166000D01*
X130690328Y-106538000D02*
X130690328Y-107926000D01*
X130449328Y-110006000D02*
X130449328Y-111467000D01*
X131450328Y-110006000D02*
X131450328Y-110970000D01*
X131810328Y-110006000D02*
X131810328Y-110619000D01*
X130489328Y-106475000D02*
X130489328Y-107926000D01*
X132429328Y-108966000D02*
G75*
G03*
X132429328Y-108966000I-2620000J0D01*
G01*
%TO.C,RF_R3*%
X138208000Y-110006000D02*
X138208000Y-110336000D01*
X138208000Y-107926000D02*
X138208000Y-107596000D01*
X144748000Y-110336000D02*
X144748000Y-110006000D01*
X138208000Y-110336000D02*
X144748000Y-110336000D01*
X144748000Y-107596000D02*
X144748000Y-107926000D01*
X138208000Y-107596000D02*
X144748000Y-107596000D01*
%TO.C,RF_L3*%
X159476000Y-104368348D02*
G75*
G03*
X159476000Y-111451652I1560000J-3541652D01*
G01*
X162596000Y-111451652D02*
G75*
G03*
X162596000Y-104368348I-1560000J3541652D01*
G01*
%TO.C,RF_C11*%
X183452000Y-79402000D02*
X183452000Y-82142000D01*
X176212000Y-79402000D02*
X183452000Y-79402000D01*
X176212000Y-82142000D02*
X183452000Y-82142000D01*
X176212000Y-79402000D02*
X176212000Y-82142000D01*
%TO.C,RF_D1*%
X131722000Y-100580000D02*
X133962000Y-100580000D01*
X132842000Y-103100000D02*
X132842000Y-101180000D01*
X133962000Y-101180000D02*
X133962000Y-96940000D01*
X131722000Y-96940000D02*
X131722000Y-101180000D01*
X133962000Y-96940000D02*
X131722000Y-96940000D01*
X131722000Y-100460000D02*
X133962000Y-100460000D01*
X132842000Y-95020000D02*
X132842000Y-96940000D01*
X131722000Y-101180000D02*
X133962000Y-101180000D01*
X131722000Y-100340000D02*
X133962000Y-100340000D01*
%TO.C,RF_D2*%
X141328000Y-82300000D02*
X139088000Y-82300000D01*
X139088000Y-81700000D02*
X139088000Y-85940000D01*
X141328000Y-81700000D02*
X139088000Y-81700000D01*
X140208000Y-79780000D02*
X140208000Y-81700000D01*
X140208000Y-87860000D02*
X140208000Y-85940000D01*
X141328000Y-85940000D02*
X141328000Y-81700000D01*
X141328000Y-82540000D02*
X139088000Y-82540000D01*
X139088000Y-85940000D02*
X141328000Y-85940000D01*
X141328000Y-82420000D02*
X139088000Y-82420000D01*
%TO.C,RF_C1*%
X136806000Y-66016000D02*
X139546000Y-66016000D01*
X136806000Y-73256000D02*
X139546000Y-73256000D01*
X136806000Y-73256000D02*
X136806000Y-66016000D01*
X139546000Y-73256000D02*
X139546000Y-66016000D01*
%TO.C,S5*%
G36*
X119552866Y-74269361D02*
G01*
X119331626Y-74146834D01*
X119070108Y-73974382D01*
X118929786Y-73835697D01*
X118898395Y-73750301D01*
X119337666Y-73750301D01*
X119537546Y-73916817D01*
X119738189Y-74056130D01*
X119850742Y-74059263D01*
X119887891Y-73926112D01*
X119888000Y-73914000D01*
X119852551Y-73794463D01*
X119716287Y-73750149D01*
X119612833Y-73747484D01*
X119337666Y-73750301D01*
X118898395Y-73750301D01*
X118877797Y-73694264D01*
X118874401Y-73638834D01*
X118881395Y-73509930D01*
X118932237Y-73440347D01*
X119066618Y-73411808D01*
X119324231Y-73406033D01*
X119380000Y-73406000D01*
X119674972Y-73396247D01*
X119833341Y-73361672D01*
X119886998Y-73294303D01*
X119888000Y-73279000D01*
X119955772Y-73166752D01*
X120015000Y-73152000D01*
X120127248Y-73219773D01*
X120142000Y-73279000D01*
X120209772Y-73391249D01*
X120269000Y-73406000D01*
X120372428Y-73476587D01*
X120396000Y-73575334D01*
X120343060Y-73713238D01*
X120269000Y-73744667D01*
X120180693Y-73800590D01*
X120144304Y-73985970D01*
X120142000Y-74083334D01*
X120128487Y-74303860D01*
X120072053Y-74401554D01*
X119964224Y-74422000D01*
X119850742Y-74392755D01*
X119799459Y-74379539D01*
X119552866Y-74269361D01*
G37*
G36*
X120224884Y-76070494D02*
G01*
X120255877Y-76100834D01*
X120337326Y-76268154D01*
X120387008Y-76512812D01*
X120398277Y-76764163D01*
X120364486Y-76951560D01*
X120339555Y-76990223D01*
X120212002Y-77042359D01*
X120161043Y-77046667D01*
X120078046Y-76994516D01*
X120090412Y-76841728D01*
X120107574Y-76583883D01*
X120022346Y-76416064D01*
X119888000Y-76369334D01*
X119730367Y-76439320D01*
X119663381Y-76626744D01*
X119685587Y-76841728D01*
X119704988Y-76961971D01*
X119659365Y-77022682D01*
X119511013Y-77044138D01*
X119304511Y-77046667D01*
X118872000Y-77046667D01*
X118872000Y-76538667D01*
X118881753Y-76243695D01*
X118916328Y-76085325D01*
X118983697Y-76031669D01*
X118999000Y-76030667D01*
X119087306Y-76086590D01*
X119123695Y-76271970D01*
X119126000Y-76369334D01*
X119146971Y-76604819D01*
X119216488Y-76701854D01*
X119253000Y-76708000D01*
X119354001Y-76632568D01*
X119379999Y-76460048D01*
X119424045Y-76232095D01*
X119513047Y-76079048D01*
X119732010Y-75965854D01*
X119996128Y-75963789D01*
X120224884Y-76070494D01*
G37*
G36*
X120224884Y-72006494D02*
G01*
X120255877Y-72036834D01*
X120337326Y-72204154D01*
X120387008Y-72448812D01*
X120398277Y-72700163D01*
X120364486Y-72887560D01*
X120339555Y-72926223D01*
X120212002Y-72978359D01*
X120161043Y-72982667D01*
X120078046Y-72930516D01*
X120090412Y-72777728D01*
X120107574Y-72519883D01*
X120022346Y-72352064D01*
X119888000Y-72305334D01*
X119730367Y-72375320D01*
X119663381Y-72562744D01*
X119685587Y-72777728D01*
X119704988Y-72897971D01*
X119659365Y-72958682D01*
X119511013Y-72980138D01*
X119304511Y-72982667D01*
X118872000Y-72982667D01*
X118872000Y-72474667D01*
X118881753Y-72179695D01*
X118916328Y-72021325D01*
X118983697Y-71967669D01*
X118999000Y-71966667D01*
X119087306Y-72022590D01*
X119123695Y-72207970D01*
X119126000Y-72305334D01*
X119146971Y-72540819D01*
X119216488Y-72637854D01*
X119253000Y-72644000D01*
X119354001Y-72568568D01*
X119379999Y-72396048D01*
X119424045Y-72168095D01*
X119513047Y-72015048D01*
X119732010Y-71901854D01*
X119996128Y-71899789D01*
X120224884Y-72006494D01*
G37*
G36*
X118872000Y-70459600D02*
G01*
X118876689Y-70379167D01*
X119142118Y-70379167D01*
X119164736Y-70491467D01*
X119314524Y-70527078D01*
X119337666Y-70527334D01*
X119501871Y-70498078D01*
X119535780Y-70394502D01*
X119533215Y-70379167D01*
X119437341Y-70257250D01*
X119337666Y-70231000D01*
X119187871Y-70295225D01*
X119142118Y-70379167D01*
X118876689Y-70379167D01*
X118888601Y-70174815D01*
X118931451Y-69953601D01*
X118973599Y-69866934D01*
X119166036Y-69776951D01*
X119399015Y-69786933D01*
X119563283Y-69878050D01*
X119656819Y-69934606D01*
X119786639Y-69900050D01*
X119959436Y-69793384D01*
X120195834Y-69646692D01*
X120329425Y-69609526D01*
X120386852Y-69682246D01*
X120396000Y-69799304D01*
X120329915Y-69990492D01*
X120117529Y-70166754D01*
X120099666Y-70177449D01*
X119913061Y-70307209D01*
X119810280Y-70416890D01*
X119803333Y-70439812D01*
X119877752Y-70497658D01*
X120060746Y-70526577D01*
X120099666Y-70527334D01*
X120300064Y-70543148D01*
X120382104Y-70614313D01*
X120396000Y-70739000D01*
X120389932Y-70839200D01*
X120350006Y-70901413D01*
X120243636Y-70934693D01*
X120038237Y-70948091D01*
X119701223Y-70950657D01*
X119634000Y-70950667D01*
X118872000Y-70950667D01*
X118872000Y-70459600D01*
G37*
G36*
X120340236Y-64806741D02*
G01*
X120379829Y-64938023D01*
X120395070Y-65195435D01*
X120396000Y-65320334D01*
X120396000Y-65870667D01*
X118872000Y-65870667D01*
X118872000Y-65320334D01*
X118880478Y-65011644D01*
X118910774Y-64840072D01*
X118970177Y-64774030D01*
X118999000Y-64770000D01*
X119087306Y-64825924D01*
X119123695Y-65011303D01*
X119126000Y-65108667D01*
X119140200Y-65330235D01*
X119197594Y-65428160D01*
X119295333Y-65447334D01*
X119412041Y-65414186D01*
X119459131Y-65284778D01*
X119464666Y-65151000D01*
X119492206Y-64931827D01*
X119580100Y-64855203D01*
X119591666Y-64854667D01*
X119685598Y-64918927D01*
X119718437Y-65124012D01*
X119718666Y-65151000D01*
X119734480Y-65351399D01*
X119805646Y-65433438D01*
X119930333Y-65447334D01*
X120066706Y-65428849D01*
X120127319Y-65341659D01*
X120141924Y-65138160D01*
X120142000Y-65108667D01*
X120162971Y-64873182D01*
X120232488Y-64776147D01*
X120269000Y-64770000D01*
X120340236Y-64806741D01*
G37*
G36*
X119565561Y-66897614D02*
G01*
X119935631Y-67033186D01*
X120175476Y-67128425D01*
X120313271Y-67202865D01*
X120377189Y-67276037D01*
X120395405Y-67367475D01*
X120396000Y-67473352D01*
X120383302Y-67596758D01*
X120323432Y-67689060D01*
X120183724Y-67774016D01*
X119931513Y-67875382D01*
X119756580Y-67938375D01*
X119439246Y-68051453D01*
X119175031Y-68146370D01*
X119011968Y-68205851D01*
X118994580Y-68212412D01*
X118900052Y-68197404D01*
X118872000Y-68043274D01*
X118892236Y-67917946D01*
X118976520Y-67821613D01*
X119160213Y-67726827D01*
X119397230Y-67635588D01*
X119922461Y-67444079D01*
X119397230Y-67276071D01*
X119111922Y-67177857D01*
X118953645Y-67095626D01*
X118885860Y-67001563D01*
X118872000Y-66876279D01*
X118872000Y-66644496D01*
X119565561Y-66897614D01*
G37*
G36*
X120340236Y-68362741D02*
G01*
X120379829Y-68494023D01*
X120395070Y-68751435D01*
X120396000Y-68876334D01*
X120396000Y-69426667D01*
X118872000Y-69426667D01*
X118872000Y-68876334D01*
X118880478Y-68567644D01*
X118910774Y-68396072D01*
X118970177Y-68330030D01*
X118999000Y-68326000D01*
X119087306Y-68381924D01*
X119123695Y-68567303D01*
X119126000Y-68664667D01*
X119140200Y-68886235D01*
X119197594Y-68984160D01*
X119295333Y-69003334D01*
X119412041Y-68970186D01*
X119459131Y-68840778D01*
X119464666Y-68707000D01*
X119492206Y-68487827D01*
X119580100Y-68411203D01*
X119591666Y-68410667D01*
X119685598Y-68474927D01*
X119718437Y-68680012D01*
X119718666Y-68707000D01*
X119734480Y-68907399D01*
X119805646Y-68989438D01*
X119930333Y-69003334D01*
X120066706Y-68984849D01*
X120127319Y-68897659D01*
X120141924Y-68694160D01*
X120142000Y-68664667D01*
X120162971Y-68429182D01*
X120232488Y-68332147D01*
X120269000Y-68326000D01*
X120340236Y-68362741D01*
G37*
G36*
X119100767Y-74622505D02*
G01*
X119335092Y-74705439D01*
X119636880Y-74824263D01*
X119738688Y-74866500D01*
X120061906Y-75007639D01*
X120257769Y-75113327D01*
X120357463Y-75207605D01*
X120392171Y-75314513D01*
X120394894Y-75372363D01*
X120396000Y-75603059D01*
X119761000Y-75313680D01*
X119125999Y-75024301D01*
X119125999Y-75400484D01*
X119108963Y-75649855D01*
X119051177Y-75762370D01*
X118999000Y-75776667D01*
X118929998Y-75741813D01*
X118890507Y-75616487D01*
X118873851Y-75369546D01*
X118872000Y-75184000D01*
X118883295Y-74839708D01*
X118919070Y-74647503D01*
X118977794Y-74591334D01*
X119100767Y-74622505D01*
G37*
G36*
X119100767Y-77331839D02*
G01*
X119335092Y-77414773D01*
X119636880Y-77533597D01*
X119738688Y-77575834D01*
X120061906Y-77716972D01*
X120257769Y-77822660D01*
X120357463Y-77916938D01*
X120392171Y-78023847D01*
X120394894Y-78081696D01*
X120396000Y-78312392D01*
X119761000Y-78023013D01*
X119125999Y-77733634D01*
X119125999Y-78109817D01*
X119108963Y-78359189D01*
X119051177Y-78471703D01*
X118999000Y-78486000D01*
X118929998Y-78451146D01*
X118890507Y-78325820D01*
X118873851Y-78078880D01*
X118872000Y-77893334D01*
X118883295Y-77549041D01*
X118919070Y-77356836D01*
X118977794Y-77300667D01*
X119100767Y-77331839D01*
G37*
%TO.C,RF_R2*%
X138200000Y-94520000D02*
X138530000Y-94520000D01*
X136120000Y-94520000D02*
X135790000Y-94520000D01*
X135790000Y-94520000D02*
X135790000Y-101060000D01*
X138530000Y-94520000D02*
X138530000Y-101060000D01*
X138530000Y-101060000D02*
X138200000Y-101060000D01*
X135790000Y-101060000D02*
X136120000Y-101060000D01*
%TO.C,RF_U1*%
X166938000Y-92761000D02*
X143958000Y-92761000D01*
X143958000Y-97261000D02*
X166938000Y-97261000D01*
X143958000Y-92761000D02*
X143958000Y-94011000D01*
X166938000Y-97261000D02*
X166938000Y-92761000D01*
X143958000Y-96011000D02*
X143958000Y-97261000D01*
X143958000Y-96011000D02*
G75*
G03*
X143958000Y-94011000I0J1000000D01*
G01*
%TO.C,RF_C7*%
X154622000Y-86768000D02*
X154622000Y-89508000D01*
X161862000Y-86768000D02*
X161862000Y-89508000D01*
X154622000Y-86768000D02*
X161862000Y-86768000D01*
X154622000Y-89508000D02*
X161862000Y-89508000D01*
%TO.C,RF_VL1*%
X134620000Y-74422000D02*
X134620000Y-71120000D01*
X124460000Y-71120000D02*
X124460000Y-74422000D01*
X134620000Y-64262000D02*
X124460000Y-64262000D01*
X124460000Y-64262000D02*
X124460000Y-67564000D01*
X124460000Y-74422000D02*
X134620000Y-74422000D01*
X134620000Y-67564000D02*
X134620000Y-64262000D01*
%TO.C,RF_C4*%
X145860000Y-104040000D02*
X138620000Y-104040000D01*
X145860000Y-106780000D02*
X138620000Y-106780000D01*
X138620000Y-106780000D02*
X138620000Y-104040000D01*
X145860000Y-106780000D02*
X145860000Y-104040000D01*
%TO.C,RF_R5*%
X177768000Y-106958000D02*
X177768000Y-107288000D01*
X171228000Y-104548000D02*
X171228000Y-104878000D01*
X177768000Y-104878000D02*
X177768000Y-104548000D01*
X171228000Y-107288000D02*
X171228000Y-106958000D01*
X177768000Y-104548000D02*
X171228000Y-104548000D01*
X177768000Y-107288000D02*
X171228000Y-107288000D01*
%TO.C,J4B1*%
X126432000Y-83820000D02*
X129092000Y-83820000D01*
X129092000Y-81220000D02*
X129092000Y-82550000D01*
X126432000Y-83820000D02*
X126432000Y-101660000D01*
X126432000Y-101660000D02*
X129092000Y-101660000D01*
X127762000Y-81220000D02*
X129092000Y-81220000D01*
X129092000Y-83820000D02*
X129092000Y-101660000D01*
%TO.C,RF_R7*%
X171042000Y-80042000D02*
X170712000Y-80042000D01*
X168302000Y-86582000D02*
X168302000Y-80042000D01*
X168632000Y-86582000D02*
X168302000Y-86582000D01*
X170712000Y-86582000D02*
X171042000Y-86582000D01*
X171042000Y-86582000D02*
X171042000Y-80042000D01*
X168302000Y-80042000D02*
X168632000Y-80042000D01*
%TO.C,RF_R8*%
X166978000Y-86582000D02*
X166978000Y-80042000D01*
X166978000Y-80042000D02*
X166648000Y-80042000D01*
X164568000Y-86582000D02*
X164238000Y-86582000D01*
X166648000Y-86582000D02*
X166978000Y-86582000D01*
X164238000Y-80042000D02*
X164568000Y-80042000D01*
X164238000Y-86582000D02*
X164238000Y-80042000D01*
D14*
%TO.C,RF_J1*%
X184670000Y-68480000D02*
X184670000Y-68480000D01*
D15*
X174070000Y-74580000D02*
X174070000Y-67080000D01*
X181070000Y-64580000D02*
X177070000Y-64580000D01*
X181570000Y-74580000D02*
X184070000Y-74580000D01*
X184070000Y-74580000D02*
X184070000Y-67080000D01*
D14*
X184870000Y-68480000D02*
X184870000Y-68480000D01*
D15*
X176570000Y-74580000D02*
X174070000Y-74580000D01*
D14*
X184670000Y-68480000D02*
G75*
G03*
X184870000Y-68480000I100000J0D01*
G01*
X184870000Y-68480000D02*
G75*
G03*
X184670000Y-68480000I-100000J0D01*
G01*
D13*
%TO.C,RF_C8*%
X164020000Y-72798000D02*
X171260000Y-72798000D01*
X164020000Y-75538000D02*
X171260000Y-75538000D01*
X164020000Y-72798000D02*
X164020000Y-75538000D01*
X171260000Y-72798000D02*
X171260000Y-75538000D01*
%TO.C,RF_C9*%
X171604000Y-87440000D02*
X174344000Y-87440000D01*
X171604000Y-80200000D02*
X174344000Y-80200000D01*
X171604000Y-87440000D02*
X171604000Y-80200000D01*
X174344000Y-87440000D02*
X174344000Y-80200000D01*
%TO.C,RF_R4*%
X146966000Y-108680000D02*
X146966000Y-102140000D01*
X146966000Y-102140000D02*
X147296000Y-102140000D01*
X149376000Y-108680000D02*
X149706000Y-108680000D01*
X149706000Y-108680000D02*
X149706000Y-102140000D01*
X147296000Y-108680000D02*
X146966000Y-108680000D01*
X149706000Y-102140000D02*
X149376000Y-102140000D01*
%TO.C,RF_R1*%
X122328000Y-81312000D02*
X122658000Y-81312000D01*
X122328000Y-87852000D02*
X122328000Y-81312000D01*
X125068000Y-87852000D02*
X125068000Y-81312000D01*
X125068000Y-81312000D02*
X124738000Y-81312000D01*
X122658000Y-87852000D02*
X122328000Y-87852000D01*
X124738000Y-87852000D02*
X125068000Y-87852000D01*
%TO.C,RF_R9*%
X160682000Y-81248000D02*
X161012000Y-81248000D01*
X160682000Y-74708000D02*
X160682000Y-81248000D01*
X161012000Y-74708000D02*
X160682000Y-74708000D01*
X163422000Y-74708000D02*
X163422000Y-81248000D01*
X163092000Y-74708000D02*
X163422000Y-74708000D01*
X163422000Y-81248000D02*
X163092000Y-81248000D01*
D14*
%TO.C,RF_SW1*%
X144884500Y-74903000D02*
X144884500Y-74903000D01*
D15*
X145034500Y-70823000D02*
X145034500Y-67473000D01*
D14*
X144884500Y-75103000D02*
X144884500Y-75103000D01*
D15*
X157734500Y-70823000D02*
X145034500Y-70823000D01*
X156384500Y-64473000D02*
X146384500Y-64473000D01*
X157734500Y-67473000D02*
X157734500Y-70823000D01*
D14*
X144884500Y-75103000D02*
G75*
G03*
X144884500Y-74903000I0J100000D01*
G01*
X144884500Y-74903000D02*
G75*
G03*
X144884500Y-75103000I0J-100000D01*
G01*
D13*
%TO.C,RF_R10*%
X150336000Y-77954000D02*
X150336000Y-77624000D01*
X143796000Y-80364000D02*
X143796000Y-80034000D01*
X150336000Y-80364000D02*
X143796000Y-80364000D01*
X143796000Y-77624000D02*
X143796000Y-77954000D01*
X150336000Y-77624000D02*
X143796000Y-77624000D01*
X150336000Y-80034000D02*
X150336000Y-80364000D01*
%TO.C,RF_L1*%
X178526000Y-83326348D02*
G75*
G03*
X178526000Y-90409652I1560000J-3541652D01*
G01*
X181646000Y-90409652D02*
G75*
G03*
X181646000Y-83326348I-1560000J3541652D01*
G01*
%TO.C,RF_C3*%
X142086000Y-96202000D02*
X142086000Y-103442000D01*
X139346000Y-96202000D02*
X139346000Y-103442000D01*
X142086000Y-96202000D02*
X139346000Y-96202000D01*
X142086000Y-103442000D02*
X139346000Y-103442000D01*
%TO.C,RF_R12*%
X145574000Y-83720000D02*
X145574000Y-84050000D01*
X152114000Y-83720000D02*
X145574000Y-83720000D01*
X152114000Y-84050000D02*
X152114000Y-83720000D01*
X145574000Y-86460000D02*
X145574000Y-86130000D01*
X152114000Y-86460000D02*
X145574000Y-86460000D01*
X152114000Y-86130000D02*
X152114000Y-86460000D01*
%TO.C,RF_L2*%
X176769652Y-92420000D02*
G75*
G03*
X169686348Y-92420000I-3541652J-1560000D01*
G01*
X169686348Y-95540000D02*
G75*
G03*
X176769652Y-95540000I3541652J1560000D01*
G01*
%TD*%
M02*
