%TF.GenerationSoftware,KiCad,Pcbnew,6.0.11-2627ca5db0~126~ubuntu22.04.1*%
%TF.CreationDate,2023-05-13T09:44:54-04:00*%
%TF.ProjectId,sub_rf_mod,7375625f-7266-45f6-9d6f-642e6b696361,rev?*%
%TF.SameCoordinates,Original*%
%TF.FileFunction,Legend,Top*%
%TF.FilePolarity,Positive*%
%FSLAX46Y46*%
G04 Gerber Fmt 4.6, Leading zero omitted, Abs format (unit mm)*
G04 Created by KiCad (PCBNEW 6.0.11-2627ca5db0~126~ubuntu22.04.1) date 2023-05-13 09:44:54*
%MOMM*%
%LPD*%
G01*
G04 APERTURE LIST*
%TA.AperFunction,Profile*%
%ADD10C,0.100000*%
%TD*%
%ADD11C,0.150000*%
%ADD12C,0.254000*%
%ADD13C,0.120000*%
%ADD14C,0.200000*%
%ADD15C,0.100000*%
G04 APERTURE END LIST*
D10*
X175260000Y-118237000D02*
X175768000Y-117729000D01*
X107188000Y-118237000D02*
X175260000Y-118237000D01*
X107188000Y-68199000D02*
X175260000Y-68199000D01*
X107188000Y-68199000D02*
X106680000Y-68707000D01*
X175768000Y-117729000D02*
X175768000Y-68707000D01*
X175260000Y-68199000D02*
X175768000Y-68707000D01*
X106680000Y-117729000D02*
X107188000Y-118237000D01*
X106680000Y-117729000D02*
X106680000Y-68707000D01*
D11*
%TO.C,J4B1*%
X119340380Y-98718523D02*
X120054666Y-98718523D01*
X120197523Y-98766142D01*
X120292761Y-98861380D01*
X120340380Y-99004238D01*
X120340380Y-99099476D01*
X119673714Y-97813761D02*
X120340380Y-97813761D01*
X119292761Y-98051857D02*
X120007047Y-98289952D01*
X120007047Y-97670904D01*
X119816571Y-96956619D02*
X119864190Y-96813761D01*
X119911809Y-96766142D01*
X120007047Y-96718523D01*
X120149904Y-96718523D01*
X120245142Y-96766142D01*
X120292761Y-96813761D01*
X120340380Y-96909000D01*
X120340380Y-97289952D01*
X119340380Y-97289952D01*
X119340380Y-96956619D01*
X119388000Y-96861380D01*
X119435619Y-96813761D01*
X119530857Y-96766142D01*
X119626095Y-96766142D01*
X119721333Y-96813761D01*
X119768952Y-96861380D01*
X119816571Y-96956619D01*
X119816571Y-97289952D01*
X120340380Y-95766142D02*
X120340380Y-96337571D01*
X120340380Y-96051857D02*
X119340380Y-96051857D01*
X119483238Y-96147095D01*
X119578476Y-96242333D01*
X119626095Y-96337571D01*
%TO.C,RF_R7*%
X157781809Y-83129380D02*
X157448476Y-82653190D01*
X157210380Y-83129380D02*
X157210380Y-82129380D01*
X157591333Y-82129380D01*
X157686571Y-82177000D01*
X157734190Y-82224619D01*
X157781809Y-82319857D01*
X157781809Y-82462714D01*
X157734190Y-82557952D01*
X157686571Y-82605571D01*
X157591333Y-82653190D01*
X157210380Y-82653190D01*
X158543714Y-82605571D02*
X158210380Y-82605571D01*
X158210380Y-83129380D02*
X158210380Y-82129380D01*
X158686571Y-82129380D01*
X158829428Y-83224619D02*
X159591333Y-83224619D01*
X160400857Y-83129380D02*
X160067523Y-82653190D01*
X159829428Y-83129380D02*
X159829428Y-82129380D01*
X160210380Y-82129380D01*
X160305619Y-82177000D01*
X160353238Y-82224619D01*
X160400857Y-82319857D01*
X160400857Y-82462714D01*
X160353238Y-82557952D01*
X160305619Y-82605571D01*
X160210380Y-82653190D01*
X159829428Y-82653190D01*
X160734190Y-82129380D02*
X161400857Y-82129380D01*
X160972285Y-83129380D01*
%TO.C,RF_R8*%
X153360380Y-91773190D02*
X152884190Y-92106523D01*
X153360380Y-92344619D02*
X152360380Y-92344619D01*
X152360380Y-91963666D01*
X152408000Y-91868428D01*
X152455619Y-91820809D01*
X152550857Y-91773190D01*
X152693714Y-91773190D01*
X152788952Y-91820809D01*
X152836571Y-91868428D01*
X152884190Y-91963666D01*
X152884190Y-92344619D01*
X152836571Y-91011285D02*
X152836571Y-91344619D01*
X153360380Y-91344619D02*
X152360380Y-91344619D01*
X152360380Y-90868428D01*
X153455619Y-90725571D02*
X153455619Y-89963666D01*
X153360380Y-89154142D02*
X152884190Y-89487476D01*
X153360380Y-89725571D02*
X152360380Y-89725571D01*
X152360380Y-89344619D01*
X152408000Y-89249380D01*
X152455619Y-89201761D01*
X152550857Y-89154142D01*
X152693714Y-89154142D01*
X152788952Y-89201761D01*
X152836571Y-89249380D01*
X152884190Y-89344619D01*
X152884190Y-89725571D01*
X152788952Y-88582714D02*
X152741333Y-88677952D01*
X152693714Y-88725571D01*
X152598476Y-88773190D01*
X152550857Y-88773190D01*
X152455619Y-88725571D01*
X152408000Y-88677952D01*
X152360380Y-88582714D01*
X152360380Y-88392238D01*
X152408000Y-88297000D01*
X152455619Y-88249380D01*
X152550857Y-88201761D01*
X152598476Y-88201761D01*
X152693714Y-88249380D01*
X152741333Y-88297000D01*
X152788952Y-88392238D01*
X152788952Y-88582714D01*
X152836571Y-88677952D01*
X152884190Y-88725571D01*
X152979428Y-88773190D01*
X153169904Y-88773190D01*
X153265142Y-88725571D01*
X153312761Y-88677952D01*
X153360380Y-88582714D01*
X153360380Y-88392238D01*
X153312761Y-88297000D01*
X153265142Y-88249380D01*
X153169904Y-88201761D01*
X152979428Y-88201761D01*
X152884190Y-88249380D01*
X152836571Y-88297000D01*
X152788952Y-88392238D01*
D12*
%TO.C,RF_J1*%
X161610523Y-74240571D02*
X161005761Y-74663904D01*
X161610523Y-74966285D02*
X160340523Y-74966285D01*
X160340523Y-74482476D01*
X160401000Y-74361523D01*
X160461476Y-74301047D01*
X160582428Y-74240571D01*
X160763857Y-74240571D01*
X160884809Y-74301047D01*
X160945285Y-74361523D01*
X161005761Y-74482476D01*
X161005761Y-74966285D01*
X160945285Y-73272952D02*
X160945285Y-73696285D01*
X161610523Y-73696285D02*
X160340523Y-73696285D01*
X160340523Y-73091523D01*
X161731476Y-72910095D02*
X161731476Y-71942476D01*
X160340523Y-71277238D02*
X161247666Y-71277238D01*
X161429095Y-71337714D01*
X161550047Y-71458666D01*
X161610523Y-71640095D01*
X161610523Y-71761047D01*
X161610523Y-70007238D02*
X161610523Y-70732952D01*
X161610523Y-70370095D02*
X160340523Y-70370095D01*
X160521952Y-70491047D01*
X160642904Y-70612000D01*
X160703380Y-70732952D01*
D11*
%TO.C,RF_C8*%
X155789809Y-77287380D02*
X155456476Y-76811190D01*
X155218380Y-77287380D02*
X155218380Y-76287380D01*
X155599333Y-76287380D01*
X155694571Y-76335000D01*
X155742190Y-76382619D01*
X155789809Y-76477857D01*
X155789809Y-76620714D01*
X155742190Y-76715952D01*
X155694571Y-76763571D01*
X155599333Y-76811190D01*
X155218380Y-76811190D01*
X156551714Y-76763571D02*
X156218380Y-76763571D01*
X156218380Y-77287380D02*
X156218380Y-76287380D01*
X156694571Y-76287380D01*
X156837428Y-77382619D02*
X157599333Y-77382619D01*
X158408857Y-77192142D02*
X158361238Y-77239761D01*
X158218380Y-77287380D01*
X158123142Y-77287380D01*
X157980285Y-77239761D01*
X157885047Y-77144523D01*
X157837428Y-77049285D01*
X157789809Y-76858809D01*
X157789809Y-76715952D01*
X157837428Y-76525476D01*
X157885047Y-76430238D01*
X157980285Y-76335000D01*
X158123142Y-76287380D01*
X158218380Y-76287380D01*
X158361238Y-76335000D01*
X158408857Y-76382619D01*
X158980285Y-76715952D02*
X158885047Y-76668333D01*
X158837428Y-76620714D01*
X158789809Y-76525476D01*
X158789809Y-76477857D01*
X158837428Y-76382619D01*
X158885047Y-76335000D01*
X158980285Y-76287380D01*
X159170761Y-76287380D01*
X159266000Y-76335000D01*
X159313619Y-76382619D01*
X159361238Y-76477857D01*
X159361238Y-76525476D01*
X159313619Y-76620714D01*
X159266000Y-76668333D01*
X159170761Y-76715952D01*
X158980285Y-76715952D01*
X158885047Y-76763571D01*
X158837428Y-76811190D01*
X158789809Y-76906428D01*
X158789809Y-77096904D01*
X158837428Y-77192142D01*
X158885047Y-77239761D01*
X158980285Y-77287380D01*
X159170761Y-77287380D01*
X159266000Y-77239761D01*
X159313619Y-77192142D01*
X159361238Y-77096904D01*
X159361238Y-76906428D01*
X159313619Y-76811190D01*
X159266000Y-76763571D01*
X159170761Y-76715952D01*
%TO.C,RF_C9*%
X165298380Y-88217190D02*
X164822190Y-88550523D01*
X165298380Y-88788619D02*
X164298380Y-88788619D01*
X164298380Y-88407666D01*
X164346000Y-88312428D01*
X164393619Y-88264809D01*
X164488857Y-88217190D01*
X164631714Y-88217190D01*
X164726952Y-88264809D01*
X164774571Y-88312428D01*
X164822190Y-88407666D01*
X164822190Y-88788619D01*
X164774571Y-87455285D02*
X164774571Y-87788619D01*
X165298380Y-87788619D02*
X164298380Y-87788619D01*
X164298380Y-87312428D01*
X165393619Y-87169571D02*
X165393619Y-86407666D01*
X165203142Y-85598142D02*
X165250761Y-85645761D01*
X165298380Y-85788619D01*
X165298380Y-85883857D01*
X165250761Y-86026714D01*
X165155523Y-86121952D01*
X165060285Y-86169571D01*
X164869809Y-86217190D01*
X164726952Y-86217190D01*
X164536476Y-86169571D01*
X164441238Y-86121952D01*
X164346000Y-86026714D01*
X164298380Y-85883857D01*
X164298380Y-85788619D01*
X164346000Y-85645761D01*
X164393619Y-85598142D01*
X165298380Y-85121952D02*
X165298380Y-84931476D01*
X165250761Y-84836238D01*
X165203142Y-84788619D01*
X165060285Y-84693380D01*
X164869809Y-84645761D01*
X164488857Y-84645761D01*
X164393619Y-84693380D01*
X164346000Y-84741000D01*
X164298380Y-84836238D01*
X164298380Y-85026714D01*
X164346000Y-85121952D01*
X164393619Y-85169571D01*
X164488857Y-85217190D01*
X164726952Y-85217190D01*
X164822190Y-85169571D01*
X164869809Y-85121952D01*
X164917428Y-85026714D01*
X164917428Y-84836238D01*
X164869809Y-84741000D01*
X164822190Y-84693380D01*
X164726952Y-84645761D01*
%TO.C,H16*%
X112045904Y-109799380D02*
X112045904Y-108799380D01*
X112045904Y-109275571D02*
X112617333Y-109275571D01*
X112617333Y-109799380D02*
X112617333Y-108799380D01*
X113617333Y-109799380D02*
X113045904Y-109799380D01*
X113331619Y-109799380D02*
X113331619Y-108799380D01*
X113236380Y-108942238D01*
X113141142Y-109037476D01*
X113045904Y-109085095D01*
X114474476Y-108799380D02*
X114284000Y-108799380D01*
X114188761Y-108847000D01*
X114141142Y-108894619D01*
X114045904Y-109037476D01*
X113998285Y-109227952D01*
X113998285Y-109608904D01*
X114045904Y-109704142D01*
X114093523Y-109751761D01*
X114188761Y-109799380D01*
X114379238Y-109799380D01*
X114474476Y-109751761D01*
X114522095Y-109704142D01*
X114569714Y-109608904D01*
X114569714Y-109370809D01*
X114522095Y-109275571D01*
X114474476Y-109227952D01*
X114379238Y-109180333D01*
X114188761Y-109180333D01*
X114093523Y-109227952D01*
X114045904Y-109275571D01*
X113998285Y-109370809D01*
%TO.C,RF_R4*%
X136445809Y-116911380D02*
X136112476Y-116435190D01*
X135874380Y-116911380D02*
X135874380Y-115911380D01*
X136255333Y-115911380D01*
X136350571Y-115959000D01*
X136398190Y-116006619D01*
X136445809Y-116101857D01*
X136445809Y-116244714D01*
X136398190Y-116339952D01*
X136350571Y-116387571D01*
X136255333Y-116435190D01*
X135874380Y-116435190D01*
X137207714Y-116387571D02*
X136874380Y-116387571D01*
X136874380Y-116911380D02*
X136874380Y-115911380D01*
X137350571Y-115911380D01*
X137493428Y-117006619D02*
X138255333Y-117006619D01*
X139064857Y-116911380D02*
X138731523Y-116435190D01*
X138493428Y-116911380D02*
X138493428Y-115911380D01*
X138874380Y-115911380D01*
X138969619Y-115959000D01*
X139017238Y-116006619D01*
X139064857Y-116101857D01*
X139064857Y-116244714D01*
X139017238Y-116339952D01*
X138969619Y-116387571D01*
X138874380Y-116435190D01*
X138493428Y-116435190D01*
X139922000Y-116244714D02*
X139922000Y-116911380D01*
X139683904Y-115863761D02*
X139445809Y-116578047D01*
X140064857Y-116578047D01*
%TO.C,RF_R1*%
X111366380Y-91011190D02*
X110890190Y-91344523D01*
X111366380Y-91582619D02*
X110366380Y-91582619D01*
X110366380Y-91201666D01*
X110414000Y-91106428D01*
X110461619Y-91058809D01*
X110556857Y-91011190D01*
X110699714Y-91011190D01*
X110794952Y-91058809D01*
X110842571Y-91106428D01*
X110890190Y-91201666D01*
X110890190Y-91582619D01*
X110842571Y-90249285D02*
X110842571Y-90582619D01*
X111366380Y-90582619D02*
X110366380Y-90582619D01*
X110366380Y-90106428D01*
X111461619Y-89963571D02*
X111461619Y-89201666D01*
X111366380Y-88392142D02*
X110890190Y-88725476D01*
X111366380Y-88963571D02*
X110366380Y-88963571D01*
X110366380Y-88582619D01*
X110414000Y-88487380D01*
X110461619Y-88439761D01*
X110556857Y-88392142D01*
X110699714Y-88392142D01*
X110794952Y-88439761D01*
X110842571Y-88487380D01*
X110890190Y-88582619D01*
X110890190Y-88963571D01*
X111366380Y-87439761D02*
X111366380Y-88011190D01*
X111366380Y-87725476D02*
X110366380Y-87725476D01*
X110509238Y-87820714D01*
X110604476Y-87915952D01*
X110652095Y-88011190D01*
%TO.C,RF_R9*%
X149804380Y-87201190D02*
X149328190Y-87534523D01*
X149804380Y-87772619D02*
X148804380Y-87772619D01*
X148804380Y-87391666D01*
X148852000Y-87296428D01*
X148899619Y-87248809D01*
X148994857Y-87201190D01*
X149137714Y-87201190D01*
X149232952Y-87248809D01*
X149280571Y-87296428D01*
X149328190Y-87391666D01*
X149328190Y-87772619D01*
X149280571Y-86439285D02*
X149280571Y-86772619D01*
X149804380Y-86772619D02*
X148804380Y-86772619D01*
X148804380Y-86296428D01*
X149899619Y-86153571D02*
X149899619Y-85391666D01*
X149804380Y-84582142D02*
X149328190Y-84915476D01*
X149804380Y-85153571D02*
X148804380Y-85153571D01*
X148804380Y-84772619D01*
X148852000Y-84677380D01*
X148899619Y-84629761D01*
X148994857Y-84582142D01*
X149137714Y-84582142D01*
X149232952Y-84629761D01*
X149280571Y-84677380D01*
X149328190Y-84772619D01*
X149328190Y-85153571D01*
X149804380Y-84105952D02*
X149804380Y-83915476D01*
X149756761Y-83820238D01*
X149709142Y-83772619D01*
X149566285Y-83677380D01*
X149375809Y-83629761D01*
X148994857Y-83629761D01*
X148899619Y-83677380D01*
X148852000Y-83725000D01*
X148804380Y-83820238D01*
X148804380Y-84010714D01*
X148852000Y-84105952D01*
X148899619Y-84153571D01*
X148994857Y-84201190D01*
X149232952Y-84201190D01*
X149328190Y-84153571D01*
X149375809Y-84105952D01*
X149423428Y-84010714D01*
X149423428Y-83820238D01*
X149375809Y-83725000D01*
X149328190Y-83677380D01*
X149232952Y-83629761D01*
D12*
%TO.C,RF_SW1*%
X151353761Y-71313523D02*
X150930428Y-70708761D01*
X150628047Y-71313523D02*
X150628047Y-70043523D01*
X151111857Y-70043523D01*
X151232809Y-70104000D01*
X151293285Y-70164476D01*
X151353761Y-70285428D01*
X151353761Y-70466857D01*
X151293285Y-70587809D01*
X151232809Y-70648285D01*
X151111857Y-70708761D01*
X150628047Y-70708761D01*
X152321380Y-70648285D02*
X151898047Y-70648285D01*
X151898047Y-71313523D02*
X151898047Y-70043523D01*
X152502809Y-70043523D01*
X152684238Y-71434476D02*
X153651857Y-71434476D01*
X153893761Y-71253047D02*
X154075190Y-71313523D01*
X154377571Y-71313523D01*
X154498523Y-71253047D01*
X154559000Y-71192571D01*
X154619476Y-71071619D01*
X154619476Y-70950666D01*
X154559000Y-70829714D01*
X154498523Y-70769238D01*
X154377571Y-70708761D01*
X154135666Y-70648285D01*
X154014714Y-70587809D01*
X153954238Y-70527333D01*
X153893761Y-70406380D01*
X153893761Y-70285428D01*
X153954238Y-70164476D01*
X154014714Y-70104000D01*
X154135666Y-70043523D01*
X154438047Y-70043523D01*
X154619476Y-70104000D01*
X155042809Y-70043523D02*
X155345190Y-71313523D01*
X155587095Y-70406380D01*
X155829000Y-71313523D01*
X156131380Y-70043523D01*
X157280428Y-71313523D02*
X156554714Y-71313523D01*
X156917571Y-71313523D02*
X156917571Y-70043523D01*
X156796619Y-70224952D01*
X156675666Y-70345904D01*
X156554714Y-70406380D01*
D11*
%TO.C,RF_R10*%
X142319619Y-85161380D02*
X141986285Y-84685190D01*
X141748190Y-85161380D02*
X141748190Y-84161380D01*
X142129142Y-84161380D01*
X142224380Y-84209000D01*
X142272000Y-84256619D01*
X142319619Y-84351857D01*
X142319619Y-84494714D01*
X142272000Y-84589952D01*
X142224380Y-84637571D01*
X142129142Y-84685190D01*
X141748190Y-84685190D01*
X143081523Y-84637571D02*
X142748190Y-84637571D01*
X142748190Y-85161380D02*
X142748190Y-84161380D01*
X143224380Y-84161380D01*
X143367238Y-85256619D02*
X144129142Y-85256619D01*
X144938666Y-85161380D02*
X144605333Y-84685190D01*
X144367238Y-85161380D02*
X144367238Y-84161380D01*
X144748190Y-84161380D01*
X144843428Y-84209000D01*
X144891047Y-84256619D01*
X144938666Y-84351857D01*
X144938666Y-84494714D01*
X144891047Y-84589952D01*
X144843428Y-84637571D01*
X144748190Y-84685190D01*
X144367238Y-84685190D01*
X145891047Y-85161380D02*
X145319619Y-85161380D01*
X145605333Y-85161380D02*
X145605333Y-84161380D01*
X145510095Y-84304238D01*
X145414857Y-84399476D01*
X145319619Y-84447095D01*
X146510095Y-84161380D02*
X146605333Y-84161380D01*
X146700571Y-84209000D01*
X146748190Y-84256619D01*
X146795809Y-84351857D01*
X146843428Y-84542333D01*
X146843428Y-84780428D01*
X146795809Y-84970904D01*
X146748190Y-85066142D01*
X146700571Y-85113761D01*
X146605333Y-85161380D01*
X146510095Y-85161380D01*
X146414857Y-85113761D01*
X146367238Y-85066142D01*
X146319619Y-84970904D01*
X146272000Y-84780428D01*
X146272000Y-84542333D01*
X146319619Y-84351857D01*
X146367238Y-84256619D01*
X146414857Y-84209000D01*
X146510095Y-84161380D01*
%TO.C,RF_L1*%
X171847047Y-97099380D02*
X171513714Y-96623190D01*
X171275619Y-97099380D02*
X171275619Y-96099380D01*
X171656571Y-96099380D01*
X171751809Y-96147000D01*
X171799428Y-96194619D01*
X171847047Y-96289857D01*
X171847047Y-96432714D01*
X171799428Y-96527952D01*
X171751809Y-96575571D01*
X171656571Y-96623190D01*
X171275619Y-96623190D01*
X172608952Y-96575571D02*
X172275619Y-96575571D01*
X172275619Y-97099380D02*
X172275619Y-96099380D01*
X172751809Y-96099380D01*
X172894666Y-97194619D02*
X173656571Y-97194619D01*
X174370857Y-97099380D02*
X173894666Y-97099380D01*
X173894666Y-96099380D01*
X175228000Y-97099380D02*
X174656571Y-97099380D01*
X174942285Y-97099380D02*
X174942285Y-96099380D01*
X174847047Y-96242238D01*
X174751809Y-96337476D01*
X174656571Y-96385095D01*
%TO.C,RF_C3*%
X133040380Y-105997190D02*
X132564190Y-106330523D01*
X133040380Y-106568619D02*
X132040380Y-106568619D01*
X132040380Y-106187666D01*
X132088000Y-106092428D01*
X132135619Y-106044809D01*
X132230857Y-105997190D01*
X132373714Y-105997190D01*
X132468952Y-106044809D01*
X132516571Y-106092428D01*
X132564190Y-106187666D01*
X132564190Y-106568619D01*
X132516571Y-105235285D02*
X132516571Y-105568619D01*
X133040380Y-105568619D02*
X132040380Y-105568619D01*
X132040380Y-105092428D01*
X133135619Y-104949571D02*
X133135619Y-104187666D01*
X132945142Y-103378142D02*
X132992761Y-103425761D01*
X133040380Y-103568619D01*
X133040380Y-103663857D01*
X132992761Y-103806714D01*
X132897523Y-103901952D01*
X132802285Y-103949571D01*
X132611809Y-103997190D01*
X132468952Y-103997190D01*
X132278476Y-103949571D01*
X132183238Y-103901952D01*
X132088000Y-103806714D01*
X132040380Y-103663857D01*
X132040380Y-103568619D01*
X132088000Y-103425761D01*
X132135619Y-103378142D01*
X132040380Y-103044809D02*
X132040380Y-102425761D01*
X132421333Y-102759095D01*
X132421333Y-102616238D01*
X132468952Y-102521000D01*
X132516571Y-102473380D01*
X132611809Y-102425761D01*
X132849904Y-102425761D01*
X132945142Y-102473380D01*
X132992761Y-102521000D01*
X133040380Y-102616238D01*
X133040380Y-102901952D01*
X132992761Y-102997190D01*
X132945142Y-103044809D01*
%TO.C,RF_R12*%
X144097619Y-89733380D02*
X143764285Y-89257190D01*
X143526190Y-89733380D02*
X143526190Y-88733380D01*
X143907142Y-88733380D01*
X144002380Y-88781000D01*
X144050000Y-88828619D01*
X144097619Y-88923857D01*
X144097619Y-89066714D01*
X144050000Y-89161952D01*
X144002380Y-89209571D01*
X143907142Y-89257190D01*
X143526190Y-89257190D01*
X144859523Y-89209571D02*
X144526190Y-89209571D01*
X144526190Y-89733380D02*
X144526190Y-88733380D01*
X145002380Y-88733380D01*
X145145238Y-89828619D02*
X145907142Y-89828619D01*
X146716666Y-89733380D02*
X146383333Y-89257190D01*
X146145238Y-89733380D02*
X146145238Y-88733380D01*
X146526190Y-88733380D01*
X146621428Y-88781000D01*
X146669047Y-88828619D01*
X146716666Y-88923857D01*
X146716666Y-89066714D01*
X146669047Y-89161952D01*
X146621428Y-89209571D01*
X146526190Y-89257190D01*
X146145238Y-89257190D01*
X147669047Y-89733380D02*
X147097619Y-89733380D01*
X147383333Y-89733380D02*
X147383333Y-88733380D01*
X147288095Y-88876238D01*
X147192857Y-88971476D01*
X147097619Y-89019095D01*
X148050000Y-88828619D02*
X148097619Y-88781000D01*
X148192857Y-88733380D01*
X148430952Y-88733380D01*
X148526190Y-88781000D01*
X148573809Y-88828619D01*
X148621428Y-88923857D01*
X148621428Y-89019095D01*
X148573809Y-89161952D01*
X148002380Y-89733380D01*
X148621428Y-89733380D01*
%TO.C,RF_R3*%
X132635809Y-108529380D02*
X132302476Y-108053190D01*
X132064380Y-108529380D02*
X132064380Y-107529380D01*
X132445333Y-107529380D01*
X132540571Y-107577000D01*
X132588190Y-107624619D01*
X132635809Y-107719857D01*
X132635809Y-107862714D01*
X132588190Y-107957952D01*
X132540571Y-108005571D01*
X132445333Y-108053190D01*
X132064380Y-108053190D01*
X133397714Y-108005571D02*
X133064380Y-108005571D01*
X133064380Y-108529380D02*
X133064380Y-107529380D01*
X133540571Y-107529380D01*
X133683428Y-108624619D02*
X134445333Y-108624619D01*
X135254857Y-108529380D02*
X134921523Y-108053190D01*
X134683428Y-108529380D02*
X134683428Y-107529380D01*
X135064380Y-107529380D01*
X135159619Y-107577000D01*
X135207238Y-107624619D01*
X135254857Y-107719857D01*
X135254857Y-107862714D01*
X135207238Y-107957952D01*
X135159619Y-108005571D01*
X135064380Y-108053190D01*
X134683428Y-108053190D01*
X135588190Y-107529380D02*
X136207238Y-107529380D01*
X135873904Y-107910333D01*
X136016761Y-107910333D01*
X136112000Y-107957952D01*
X136159619Y-108005571D01*
X136207238Y-108100809D01*
X136207238Y-108338904D01*
X136159619Y-108434142D01*
X136112000Y-108481761D01*
X136016761Y-108529380D01*
X135731047Y-108529380D01*
X135635809Y-108481761D01*
X135588190Y-108434142D01*
%TO.C,RF_L3*%
X142637047Y-113355380D02*
X142303714Y-112879190D01*
X142065619Y-113355380D02*
X142065619Y-112355380D01*
X142446571Y-112355380D01*
X142541809Y-112403000D01*
X142589428Y-112450619D01*
X142637047Y-112545857D01*
X142637047Y-112688714D01*
X142589428Y-112783952D01*
X142541809Y-112831571D01*
X142446571Y-112879190D01*
X142065619Y-112879190D01*
X143398952Y-112831571D02*
X143065619Y-112831571D01*
X143065619Y-113355380D02*
X143065619Y-112355380D01*
X143541809Y-112355380D01*
X143684666Y-113450619D02*
X144446571Y-113450619D01*
X145160857Y-113355380D02*
X144684666Y-113355380D01*
X144684666Y-112355380D01*
X145398952Y-112355380D02*
X146018000Y-112355380D01*
X145684666Y-112736333D01*
X145827523Y-112736333D01*
X145922761Y-112783952D01*
X145970380Y-112831571D01*
X146018000Y-112926809D01*
X146018000Y-113164904D01*
X145970380Y-113260142D01*
X145922761Y-113307761D01*
X145827523Y-113355380D01*
X145541809Y-113355380D01*
X145446571Y-113307761D01*
X145398952Y-113260142D01*
%TO.C,RF_C11*%
X174696380Y-89201380D02*
X174220190Y-89534714D01*
X174696380Y-89772809D02*
X173696380Y-89772809D01*
X173696380Y-89391857D01*
X173744000Y-89296619D01*
X173791619Y-89249000D01*
X173886857Y-89201380D01*
X174029714Y-89201380D01*
X174124952Y-89249000D01*
X174172571Y-89296619D01*
X174220190Y-89391857D01*
X174220190Y-89772809D01*
X174172571Y-88439476D02*
X174172571Y-88772809D01*
X174696380Y-88772809D02*
X173696380Y-88772809D01*
X173696380Y-88296619D01*
X174791619Y-88153761D02*
X174791619Y-87391857D01*
X174601142Y-86582333D02*
X174648761Y-86629952D01*
X174696380Y-86772809D01*
X174696380Y-86868047D01*
X174648761Y-87010904D01*
X174553523Y-87106142D01*
X174458285Y-87153761D01*
X174267809Y-87201380D01*
X174124952Y-87201380D01*
X173934476Y-87153761D01*
X173839238Y-87106142D01*
X173744000Y-87010904D01*
X173696380Y-86868047D01*
X173696380Y-86772809D01*
X173744000Y-86629952D01*
X173791619Y-86582333D01*
X174696380Y-85629952D02*
X174696380Y-86201380D01*
X174696380Y-85915666D02*
X173696380Y-85915666D01*
X173839238Y-86010904D01*
X173934476Y-86106142D01*
X173982095Y-86201380D01*
X174696380Y-84677571D02*
X174696380Y-85249000D01*
X174696380Y-84963285D02*
X173696380Y-84963285D01*
X173839238Y-85058523D01*
X173934476Y-85153761D01*
X173982095Y-85249000D01*
%TO.C,RF_D1*%
X120760380Y-105489190D02*
X120284190Y-105822523D01*
X120760380Y-106060619D02*
X119760380Y-106060619D01*
X119760380Y-105679666D01*
X119808000Y-105584428D01*
X119855619Y-105536809D01*
X119950857Y-105489190D01*
X120093714Y-105489190D01*
X120188952Y-105536809D01*
X120236571Y-105584428D01*
X120284190Y-105679666D01*
X120284190Y-106060619D01*
X120236571Y-104727285D02*
X120236571Y-105060619D01*
X120760380Y-105060619D02*
X119760380Y-105060619D01*
X119760380Y-104584428D01*
X120855619Y-104441571D02*
X120855619Y-103679666D01*
X120760380Y-103441571D02*
X119760380Y-103441571D01*
X119760380Y-103203476D01*
X119808000Y-103060619D01*
X119903238Y-102965380D01*
X119998476Y-102917761D01*
X120188952Y-102870142D01*
X120331809Y-102870142D01*
X120522285Y-102917761D01*
X120617523Y-102965380D01*
X120712761Y-103060619D01*
X120760380Y-103203476D01*
X120760380Y-103441571D01*
X120760380Y-101917761D02*
X120760380Y-102489190D01*
X120760380Y-102203476D02*
X119760380Y-102203476D01*
X119903238Y-102298714D01*
X119998476Y-102393952D01*
X120046095Y-102489190D01*
X121080380Y-109354904D02*
X120080380Y-109354904D01*
X121080380Y-108783476D02*
X120508952Y-109212047D01*
X120080380Y-108783476D02*
X120651809Y-109354904D01*
%TO.C,RF_D2*%
X128214380Y-86693190D02*
X127738190Y-87026523D01*
X128214380Y-87264619D02*
X127214380Y-87264619D01*
X127214380Y-86883666D01*
X127262000Y-86788428D01*
X127309619Y-86740809D01*
X127404857Y-86693190D01*
X127547714Y-86693190D01*
X127642952Y-86740809D01*
X127690571Y-86788428D01*
X127738190Y-86883666D01*
X127738190Y-87264619D01*
X127690571Y-85931285D02*
X127690571Y-86264619D01*
X128214380Y-86264619D02*
X127214380Y-86264619D01*
X127214380Y-85788428D01*
X128309619Y-85645571D02*
X128309619Y-84883666D01*
X128214380Y-84645571D02*
X127214380Y-84645571D01*
X127214380Y-84407476D01*
X127262000Y-84264619D01*
X127357238Y-84169380D01*
X127452476Y-84121761D01*
X127642952Y-84074142D01*
X127785809Y-84074142D01*
X127976285Y-84121761D01*
X128071523Y-84169380D01*
X128166761Y-84264619D01*
X128214380Y-84407476D01*
X128214380Y-84645571D01*
X127309619Y-83693190D02*
X127262000Y-83645571D01*
X127214380Y-83550333D01*
X127214380Y-83312238D01*
X127262000Y-83217000D01*
X127309619Y-83169380D01*
X127404857Y-83121761D01*
X127500095Y-83121761D01*
X127642952Y-83169380D01*
X128214380Y-83740809D01*
X128214380Y-83121761D01*
X130246380Y-82176904D02*
X129246380Y-82176904D01*
X130246380Y-81605476D02*
X129674952Y-82034047D01*
X129246380Y-81605476D02*
X129817809Y-82176904D01*
%TO.C,RF_C1*%
X130754380Y-75517190D02*
X130278190Y-75850523D01*
X130754380Y-76088619D02*
X129754380Y-76088619D01*
X129754380Y-75707666D01*
X129802000Y-75612428D01*
X129849619Y-75564809D01*
X129944857Y-75517190D01*
X130087714Y-75517190D01*
X130182952Y-75564809D01*
X130230571Y-75612428D01*
X130278190Y-75707666D01*
X130278190Y-76088619D01*
X130230571Y-74755285D02*
X130230571Y-75088619D01*
X130754380Y-75088619D02*
X129754380Y-75088619D01*
X129754380Y-74612428D01*
X130849619Y-74469571D02*
X130849619Y-73707666D01*
X130659142Y-72898142D02*
X130706761Y-72945761D01*
X130754380Y-73088619D01*
X130754380Y-73183857D01*
X130706761Y-73326714D01*
X130611523Y-73421952D01*
X130516285Y-73469571D01*
X130325809Y-73517190D01*
X130182952Y-73517190D01*
X129992476Y-73469571D01*
X129897238Y-73421952D01*
X129802000Y-73326714D01*
X129754380Y-73183857D01*
X129754380Y-73088619D01*
X129802000Y-72945761D01*
X129849619Y-72898142D01*
X130754380Y-71945761D02*
X130754380Y-72517190D01*
X130754380Y-72231476D02*
X129754380Y-72231476D01*
X129897238Y-72326714D01*
X129992476Y-72421952D01*
X130040095Y-72517190D01*
%TO.C,RF_R2*%
X129568380Y-99901190D02*
X129092190Y-100234523D01*
X129568380Y-100472619D02*
X128568380Y-100472619D01*
X128568380Y-100091666D01*
X128616000Y-99996428D01*
X128663619Y-99948809D01*
X128758857Y-99901190D01*
X128901714Y-99901190D01*
X128996952Y-99948809D01*
X129044571Y-99996428D01*
X129092190Y-100091666D01*
X129092190Y-100472619D01*
X129044571Y-99139285D02*
X129044571Y-99472619D01*
X129568380Y-99472619D02*
X128568380Y-99472619D01*
X128568380Y-98996428D01*
X129663619Y-98853571D02*
X129663619Y-98091666D01*
X129568380Y-97282142D02*
X129092190Y-97615476D01*
X129568380Y-97853571D02*
X128568380Y-97853571D01*
X128568380Y-97472619D01*
X128616000Y-97377380D01*
X128663619Y-97329761D01*
X128758857Y-97282142D01*
X128901714Y-97282142D01*
X128996952Y-97329761D01*
X129044571Y-97377380D01*
X129092190Y-97472619D01*
X129092190Y-97853571D01*
X128663619Y-96901190D02*
X128616000Y-96853571D01*
X128568380Y-96758333D01*
X128568380Y-96520238D01*
X128616000Y-96425000D01*
X128663619Y-96377380D01*
X128758857Y-96329761D01*
X128854095Y-96329761D01*
X128996952Y-96377380D01*
X129568380Y-96948809D01*
X129568380Y-96329761D01*
%TO.C,RF_U1*%
X132996380Y-101464000D02*
X132520190Y-101797333D01*
X132996380Y-102035428D02*
X131996380Y-102035428D01*
X131996380Y-101654476D01*
X132044000Y-101559238D01*
X132091619Y-101511619D01*
X132186857Y-101464000D01*
X132329714Y-101464000D01*
X132424952Y-101511619D01*
X132472571Y-101559238D01*
X132520190Y-101654476D01*
X132520190Y-102035428D01*
X132472571Y-100702095D02*
X132472571Y-101035428D01*
X132996380Y-101035428D02*
X131996380Y-101035428D01*
X131996380Y-100559238D01*
X133091619Y-100416380D02*
X133091619Y-99654476D01*
X131996380Y-99416380D02*
X132805904Y-99416380D01*
X132901142Y-99368761D01*
X132948761Y-99321142D01*
X132996380Y-99225904D01*
X132996380Y-99035428D01*
X132948761Y-98940190D01*
X132901142Y-98892571D01*
X132805904Y-98844952D01*
X131996380Y-98844952D01*
X132996380Y-97844952D02*
X132996380Y-98416380D01*
X132996380Y-98130666D02*
X131996380Y-98130666D01*
X132139238Y-98225904D01*
X132234476Y-98321142D01*
X132282095Y-98416380D01*
%TO.C,RF_C7*%
X140255809Y-92781380D02*
X139922476Y-92305190D01*
X139684380Y-92781380D02*
X139684380Y-91781380D01*
X140065333Y-91781380D01*
X140160571Y-91829000D01*
X140208190Y-91876619D01*
X140255809Y-91971857D01*
X140255809Y-92114714D01*
X140208190Y-92209952D01*
X140160571Y-92257571D01*
X140065333Y-92305190D01*
X139684380Y-92305190D01*
X141017714Y-92257571D02*
X140684380Y-92257571D01*
X140684380Y-92781380D02*
X140684380Y-91781380D01*
X141160571Y-91781380D01*
X141303428Y-92876619D02*
X142065333Y-92876619D01*
X142874857Y-92686142D02*
X142827238Y-92733761D01*
X142684380Y-92781380D01*
X142589142Y-92781380D01*
X142446285Y-92733761D01*
X142351047Y-92638523D01*
X142303428Y-92543285D01*
X142255809Y-92352809D01*
X142255809Y-92209952D01*
X142303428Y-92019476D01*
X142351047Y-91924238D01*
X142446285Y-91829000D01*
X142589142Y-91781380D01*
X142684380Y-91781380D01*
X142827238Y-91829000D01*
X142874857Y-91876619D01*
X143208190Y-91781380D02*
X143874857Y-91781380D01*
X143446285Y-92781380D01*
%TO.C,H17*%
X112045904Y-83891380D02*
X112045904Y-82891380D01*
X112045904Y-83367571D02*
X112617333Y-83367571D01*
X112617333Y-83891380D02*
X112617333Y-82891380D01*
X113617333Y-83891380D02*
X113045904Y-83891380D01*
X113331619Y-83891380D02*
X113331619Y-82891380D01*
X113236380Y-83034238D01*
X113141142Y-83129476D01*
X113045904Y-83177095D01*
X113950666Y-82891380D02*
X114617333Y-82891380D01*
X114188761Y-83891380D01*
%TO.C,RF_VL1*%
X120427523Y-79938619D02*
X120760857Y-80414809D01*
X120998952Y-79938619D02*
X120998952Y-80938619D01*
X120618000Y-80938619D01*
X120522761Y-80891000D01*
X120475142Y-80843380D01*
X120427523Y-80748142D01*
X120427523Y-80605285D01*
X120475142Y-80510047D01*
X120522761Y-80462428D01*
X120618000Y-80414809D01*
X120998952Y-80414809D01*
X119665619Y-80462428D02*
X119998952Y-80462428D01*
X119998952Y-79938619D02*
X119998952Y-80938619D01*
X119522761Y-80938619D01*
X119379904Y-79843380D02*
X118618000Y-79843380D01*
X118522761Y-80938619D02*
X118189428Y-79938619D01*
X117856095Y-80938619D01*
X117046571Y-79938619D02*
X117522761Y-79938619D01*
X117522761Y-80938619D01*
X116189428Y-79938619D02*
X116760857Y-79938619D01*
X116475142Y-79938619D02*
X116475142Y-80938619D01*
X116570380Y-80795761D01*
X116665619Y-80700523D01*
X116760857Y-80652904D01*
%TO.C,RF_C4*%
X124253809Y-111577380D02*
X123920476Y-111101190D01*
X123682380Y-111577380D02*
X123682380Y-110577380D01*
X124063333Y-110577380D01*
X124158571Y-110625000D01*
X124206190Y-110672619D01*
X124253809Y-110767857D01*
X124253809Y-110910714D01*
X124206190Y-111005952D01*
X124158571Y-111053571D01*
X124063333Y-111101190D01*
X123682380Y-111101190D01*
X125015714Y-111053571D02*
X124682380Y-111053571D01*
X124682380Y-111577380D02*
X124682380Y-110577380D01*
X125158571Y-110577380D01*
X125301428Y-111672619D02*
X126063333Y-111672619D01*
X126872857Y-111482142D02*
X126825238Y-111529761D01*
X126682380Y-111577380D01*
X126587142Y-111577380D01*
X126444285Y-111529761D01*
X126349047Y-111434523D01*
X126301428Y-111339285D01*
X126253809Y-111148809D01*
X126253809Y-111005952D01*
X126301428Y-110815476D01*
X126349047Y-110720238D01*
X126444285Y-110625000D01*
X126587142Y-110577380D01*
X126682380Y-110577380D01*
X126825238Y-110625000D01*
X126872857Y-110672619D01*
X127730000Y-110910714D02*
X127730000Y-111577380D01*
X127491904Y-110529761D02*
X127253809Y-111244047D01*
X127872857Y-111244047D01*
%TO.C,RF_R5*%
X170049809Y-111069380D02*
X169716476Y-110593190D01*
X169478380Y-111069380D02*
X169478380Y-110069380D01*
X169859333Y-110069380D01*
X169954571Y-110117000D01*
X170002190Y-110164619D01*
X170049809Y-110259857D01*
X170049809Y-110402714D01*
X170002190Y-110497952D01*
X169954571Y-110545571D01*
X169859333Y-110593190D01*
X169478380Y-110593190D01*
X170811714Y-110545571D02*
X170478380Y-110545571D01*
X170478380Y-111069380D02*
X170478380Y-110069380D01*
X170954571Y-110069380D01*
X171097428Y-111164619D02*
X171859333Y-111164619D01*
X172668857Y-111069380D02*
X172335523Y-110593190D01*
X172097428Y-111069380D02*
X172097428Y-110069380D01*
X172478380Y-110069380D01*
X172573619Y-110117000D01*
X172621238Y-110164619D01*
X172668857Y-110259857D01*
X172668857Y-110402714D01*
X172621238Y-110497952D01*
X172573619Y-110545571D01*
X172478380Y-110593190D01*
X172097428Y-110593190D01*
X173573619Y-110069380D02*
X173097428Y-110069380D01*
X173049809Y-110545571D01*
X173097428Y-110497952D01*
X173192666Y-110450333D01*
X173430761Y-110450333D01*
X173526000Y-110497952D01*
X173573619Y-110545571D01*
X173621238Y-110640809D01*
X173621238Y-110878904D01*
X173573619Y-110974142D01*
X173526000Y-111021761D01*
X173430761Y-111069380D01*
X173192666Y-111069380D01*
X173097428Y-111021761D01*
X173049809Y-110974142D01*
%TO.C,RF_L2*%
X159147047Y-94305380D02*
X158813714Y-93829190D01*
X158575619Y-94305380D02*
X158575619Y-93305380D01*
X158956571Y-93305380D01*
X159051809Y-93353000D01*
X159099428Y-93400619D01*
X159147047Y-93495857D01*
X159147047Y-93638714D01*
X159099428Y-93733952D01*
X159051809Y-93781571D01*
X158956571Y-93829190D01*
X158575619Y-93829190D01*
X159908952Y-93781571D02*
X159575619Y-93781571D01*
X159575619Y-94305380D02*
X159575619Y-93305380D01*
X160051809Y-93305380D01*
X160194666Y-94400619D02*
X160956571Y-94400619D01*
X161670857Y-94305380D02*
X161194666Y-94305380D01*
X161194666Y-93305380D01*
X161956571Y-93400619D02*
X162004190Y-93353000D01*
X162099428Y-93305380D01*
X162337523Y-93305380D01*
X162432761Y-93353000D01*
X162480380Y-93400619D01*
X162528000Y-93495857D01*
X162528000Y-93591095D01*
X162480380Y-93733952D01*
X161908952Y-94305380D01*
X162528000Y-94305380D01*
%TO.C,RF_C10*%
X173934380Y-102663380D02*
X173458190Y-102996714D01*
X173934380Y-103234809D02*
X172934380Y-103234809D01*
X172934380Y-102853857D01*
X172982000Y-102758619D01*
X173029619Y-102711000D01*
X173124857Y-102663380D01*
X173267714Y-102663380D01*
X173362952Y-102711000D01*
X173410571Y-102758619D01*
X173458190Y-102853857D01*
X173458190Y-103234809D01*
X173410571Y-101901476D02*
X173410571Y-102234809D01*
X173934380Y-102234809D02*
X172934380Y-102234809D01*
X172934380Y-101758619D01*
X174029619Y-101615761D02*
X174029619Y-100853857D01*
X173839142Y-100044333D02*
X173886761Y-100091952D01*
X173934380Y-100234809D01*
X173934380Y-100330047D01*
X173886761Y-100472904D01*
X173791523Y-100568142D01*
X173696285Y-100615761D01*
X173505809Y-100663380D01*
X173362952Y-100663380D01*
X173172476Y-100615761D01*
X173077238Y-100568142D01*
X172982000Y-100472904D01*
X172934380Y-100330047D01*
X172934380Y-100234809D01*
X172982000Y-100091952D01*
X173029619Y-100044333D01*
X173934380Y-99091952D02*
X173934380Y-99663380D01*
X173934380Y-99377666D02*
X172934380Y-99377666D01*
X173077238Y-99472904D01*
X173172476Y-99568142D01*
X173220095Y-99663380D01*
X172934380Y-98472904D02*
X172934380Y-98377666D01*
X172982000Y-98282428D01*
X173029619Y-98234809D01*
X173124857Y-98187190D01*
X173315333Y-98139571D01*
X173553428Y-98139571D01*
X173743904Y-98187190D01*
X173839142Y-98234809D01*
X173886761Y-98282428D01*
X173934380Y-98377666D01*
X173934380Y-98472904D01*
X173886761Y-98568142D01*
X173839142Y-98615761D01*
X173743904Y-98663380D01*
X173553428Y-98711000D01*
X173315333Y-98711000D01*
X173124857Y-98663380D01*
X173029619Y-98615761D01*
X172982000Y-98568142D01*
X172934380Y-98472904D01*
%TO.C,RF_JP1*%
X120848380Y-87074142D02*
X120372190Y-87407476D01*
X120848380Y-87645571D02*
X119848380Y-87645571D01*
X119848380Y-87264619D01*
X119896000Y-87169380D01*
X119943619Y-87121761D01*
X120038857Y-87074142D01*
X120181714Y-87074142D01*
X120276952Y-87121761D01*
X120324571Y-87169380D01*
X120372190Y-87264619D01*
X120372190Y-87645571D01*
X120324571Y-86312238D02*
X120324571Y-86645571D01*
X120848380Y-86645571D02*
X119848380Y-86645571D01*
X119848380Y-86169380D01*
X120943619Y-86026523D02*
X120943619Y-85264619D01*
X119848380Y-84740809D02*
X120562666Y-84740809D01*
X120705523Y-84788428D01*
X120800761Y-84883666D01*
X120848380Y-85026523D01*
X120848380Y-85121761D01*
X120848380Y-84264619D02*
X119848380Y-84264619D01*
X119848380Y-83883666D01*
X119896000Y-83788428D01*
X119943619Y-83740809D01*
X120038857Y-83693190D01*
X120181714Y-83693190D01*
X120276952Y-83740809D01*
X120324571Y-83788428D01*
X120372190Y-83883666D01*
X120372190Y-84264619D01*
X120848380Y-82740809D02*
X120848380Y-83312238D01*
X120848380Y-83026523D02*
X119848380Y-83026523D01*
X119991238Y-83121761D01*
X120086476Y-83217000D01*
X120134095Y-83312238D01*
%TO.C,RF_C6*%
X155495809Y-108275380D02*
X155162476Y-107799190D01*
X154924380Y-108275380D02*
X154924380Y-107275380D01*
X155305333Y-107275380D01*
X155400571Y-107323000D01*
X155448190Y-107370619D01*
X155495809Y-107465857D01*
X155495809Y-107608714D01*
X155448190Y-107703952D01*
X155400571Y-107751571D01*
X155305333Y-107799190D01*
X154924380Y-107799190D01*
X156257714Y-107751571D02*
X155924380Y-107751571D01*
X155924380Y-108275380D02*
X155924380Y-107275380D01*
X156400571Y-107275380D01*
X156543428Y-108370619D02*
X157305333Y-108370619D01*
X158114857Y-108180142D02*
X158067238Y-108227761D01*
X157924380Y-108275380D01*
X157829142Y-108275380D01*
X157686285Y-108227761D01*
X157591047Y-108132523D01*
X157543428Y-108037285D01*
X157495809Y-107846809D01*
X157495809Y-107703952D01*
X157543428Y-107513476D01*
X157591047Y-107418238D01*
X157686285Y-107323000D01*
X157829142Y-107275380D01*
X157924380Y-107275380D01*
X158067238Y-107323000D01*
X158114857Y-107370619D01*
X158972000Y-107275380D02*
X158781523Y-107275380D01*
X158686285Y-107323000D01*
X158638666Y-107370619D01*
X158543428Y-107513476D01*
X158495809Y-107703952D01*
X158495809Y-108084904D01*
X158543428Y-108180142D01*
X158591047Y-108227761D01*
X158686285Y-108275380D01*
X158876761Y-108275380D01*
X158972000Y-108227761D01*
X159019619Y-108180142D01*
X159067238Y-108084904D01*
X159067238Y-107846809D01*
X159019619Y-107751571D01*
X158972000Y-107703952D01*
X158876761Y-107656333D01*
X158686285Y-107656333D01*
X158591047Y-107703952D01*
X158543428Y-107751571D01*
X158495809Y-107846809D01*
%TO.C,RF_C5*%
X140255809Y-94305380D02*
X139922476Y-93829190D01*
X139684380Y-94305380D02*
X139684380Y-93305380D01*
X140065333Y-93305380D01*
X140160571Y-93353000D01*
X140208190Y-93400619D01*
X140255809Y-93495857D01*
X140255809Y-93638714D01*
X140208190Y-93733952D01*
X140160571Y-93781571D01*
X140065333Y-93829190D01*
X139684380Y-93829190D01*
X141017714Y-93781571D02*
X140684380Y-93781571D01*
X140684380Y-94305380D02*
X140684380Y-93305380D01*
X141160571Y-93305380D01*
X141303428Y-94400619D02*
X142065333Y-94400619D01*
X142874857Y-94210142D02*
X142827238Y-94257761D01*
X142684380Y-94305380D01*
X142589142Y-94305380D01*
X142446285Y-94257761D01*
X142351047Y-94162523D01*
X142303428Y-94067285D01*
X142255809Y-93876809D01*
X142255809Y-93733952D01*
X142303428Y-93543476D01*
X142351047Y-93448238D01*
X142446285Y-93353000D01*
X142589142Y-93305380D01*
X142684380Y-93305380D01*
X142827238Y-93353000D01*
X142874857Y-93400619D01*
X143779619Y-93305380D02*
X143303428Y-93305380D01*
X143255809Y-93781571D01*
X143303428Y-93733952D01*
X143398666Y-93686333D01*
X143636761Y-93686333D01*
X143732000Y-93733952D01*
X143779619Y-93781571D01*
X143827238Y-93876809D01*
X143827238Y-94114904D01*
X143779619Y-94210142D01*
X143732000Y-94257761D01*
X143636761Y-94305380D01*
X143398666Y-94305380D01*
X143303428Y-94257761D01*
X143255809Y-94210142D01*
%TO.C,RF_R11*%
X142573619Y-88209380D02*
X142240285Y-87733190D01*
X142002190Y-88209380D02*
X142002190Y-87209380D01*
X142383142Y-87209380D01*
X142478380Y-87257000D01*
X142526000Y-87304619D01*
X142573619Y-87399857D01*
X142573619Y-87542714D01*
X142526000Y-87637952D01*
X142478380Y-87685571D01*
X142383142Y-87733190D01*
X142002190Y-87733190D01*
X143335523Y-87685571D02*
X143002190Y-87685571D01*
X143002190Y-88209380D02*
X143002190Y-87209380D01*
X143478380Y-87209380D01*
X143621238Y-88304619D02*
X144383142Y-88304619D01*
X145192666Y-88209380D02*
X144859333Y-87733190D01*
X144621238Y-88209380D02*
X144621238Y-87209380D01*
X145002190Y-87209380D01*
X145097428Y-87257000D01*
X145145047Y-87304619D01*
X145192666Y-87399857D01*
X145192666Y-87542714D01*
X145145047Y-87637952D01*
X145097428Y-87685571D01*
X145002190Y-87733190D01*
X144621238Y-87733190D01*
X146145047Y-88209380D02*
X145573619Y-88209380D01*
X145859333Y-88209380D02*
X145859333Y-87209380D01*
X145764095Y-87352238D01*
X145668857Y-87447476D01*
X145573619Y-87495095D01*
X147097428Y-88209380D02*
X146526000Y-88209380D01*
X146811714Y-88209380D02*
X146811714Y-87209380D01*
X146716476Y-87352238D01*
X146621238Y-87447476D01*
X146526000Y-87495095D01*
%TO.C,RF_C12*%
X154725619Y-106497380D02*
X154392285Y-106021190D01*
X154154190Y-106497380D02*
X154154190Y-105497380D01*
X154535142Y-105497380D01*
X154630380Y-105545000D01*
X154678000Y-105592619D01*
X154725619Y-105687857D01*
X154725619Y-105830714D01*
X154678000Y-105925952D01*
X154630380Y-105973571D01*
X154535142Y-106021190D01*
X154154190Y-106021190D01*
X155487523Y-105973571D02*
X155154190Y-105973571D01*
X155154190Y-106497380D02*
X155154190Y-105497380D01*
X155630380Y-105497380D01*
X155773238Y-106592619D02*
X156535142Y-106592619D01*
X157344666Y-106402142D02*
X157297047Y-106449761D01*
X157154190Y-106497380D01*
X157058952Y-106497380D01*
X156916095Y-106449761D01*
X156820857Y-106354523D01*
X156773238Y-106259285D01*
X156725619Y-106068809D01*
X156725619Y-105925952D01*
X156773238Y-105735476D01*
X156820857Y-105640238D01*
X156916095Y-105545000D01*
X157058952Y-105497380D01*
X157154190Y-105497380D01*
X157297047Y-105545000D01*
X157344666Y-105592619D01*
X158297047Y-106497380D02*
X157725619Y-106497380D01*
X158011333Y-106497380D02*
X158011333Y-105497380D01*
X157916095Y-105640238D01*
X157820857Y-105735476D01*
X157725619Y-105783095D01*
X158678000Y-105592619D02*
X158725619Y-105545000D01*
X158820857Y-105497380D01*
X159058952Y-105497380D01*
X159154190Y-105545000D01*
X159201809Y-105592619D01*
X159249428Y-105687857D01*
X159249428Y-105783095D01*
X159201809Y-105925952D01*
X158630380Y-106497380D01*
X159249428Y-106497380D01*
%TO.C,RF_R6*%
X169973809Y-115133380D02*
X169640476Y-114657190D01*
X169402380Y-115133380D02*
X169402380Y-114133380D01*
X169783333Y-114133380D01*
X169878571Y-114181000D01*
X169926190Y-114228619D01*
X169973809Y-114323857D01*
X169973809Y-114466714D01*
X169926190Y-114561952D01*
X169878571Y-114609571D01*
X169783333Y-114657190D01*
X169402380Y-114657190D01*
X170735714Y-114609571D02*
X170402380Y-114609571D01*
X170402380Y-115133380D02*
X170402380Y-114133380D01*
X170878571Y-114133380D01*
X171021428Y-115228619D02*
X171783333Y-115228619D01*
X172592857Y-115133380D02*
X172259523Y-114657190D01*
X172021428Y-115133380D02*
X172021428Y-114133380D01*
X172402380Y-114133380D01*
X172497619Y-114181000D01*
X172545238Y-114228619D01*
X172592857Y-114323857D01*
X172592857Y-114466714D01*
X172545238Y-114561952D01*
X172497619Y-114609571D01*
X172402380Y-114657190D01*
X172021428Y-114657190D01*
X173450000Y-114133380D02*
X173259523Y-114133380D01*
X173164285Y-114181000D01*
X173116666Y-114228619D01*
X173021428Y-114371476D01*
X172973809Y-114561952D01*
X172973809Y-114942904D01*
X173021428Y-115038142D01*
X173069047Y-115085761D01*
X173164285Y-115133380D01*
X173354761Y-115133380D01*
X173450000Y-115085761D01*
X173497619Y-115038142D01*
X173545238Y-114942904D01*
X173545238Y-114704809D01*
X173497619Y-114609571D01*
X173450000Y-114561952D01*
X173354761Y-114514333D01*
X173164285Y-114514333D01*
X173069047Y-114561952D01*
X173021428Y-114609571D01*
X172973809Y-114704809D01*
%TO.C,RF_C2*%
X125928380Y-86693190D02*
X125452190Y-87026523D01*
X125928380Y-87264619D02*
X124928380Y-87264619D01*
X124928380Y-86883666D01*
X124976000Y-86788428D01*
X125023619Y-86740809D01*
X125118857Y-86693190D01*
X125261714Y-86693190D01*
X125356952Y-86740809D01*
X125404571Y-86788428D01*
X125452190Y-86883666D01*
X125452190Y-87264619D01*
X125404571Y-85931285D02*
X125404571Y-86264619D01*
X125928380Y-86264619D02*
X124928380Y-86264619D01*
X124928380Y-85788428D01*
X126023619Y-85645571D02*
X126023619Y-84883666D01*
X125833142Y-84074142D02*
X125880761Y-84121761D01*
X125928380Y-84264619D01*
X125928380Y-84359857D01*
X125880761Y-84502714D01*
X125785523Y-84597952D01*
X125690285Y-84645571D01*
X125499809Y-84693190D01*
X125356952Y-84693190D01*
X125166476Y-84645571D01*
X125071238Y-84597952D01*
X124976000Y-84502714D01*
X124928380Y-84359857D01*
X124928380Y-84264619D01*
X124976000Y-84121761D01*
X125023619Y-84074142D01*
X125023619Y-83693190D02*
X124976000Y-83645571D01*
X124928380Y-83550333D01*
X124928380Y-83312238D01*
X124976000Y-83217000D01*
X125023619Y-83169380D01*
X125118857Y-83121761D01*
X125214095Y-83121761D01*
X125356952Y-83169380D01*
X125928380Y-83740809D01*
X125928380Y-83121761D01*
%TO.C,RF_C13*%
X111675395Y-114625380D02*
X111342061Y-114149190D01*
X111103966Y-114625380D02*
X111103966Y-113625380D01*
X111484918Y-113625380D01*
X111580156Y-113673000D01*
X111627776Y-113720619D01*
X111675395Y-113815857D01*
X111675395Y-113958714D01*
X111627776Y-114053952D01*
X111580156Y-114101571D01*
X111484918Y-114149190D01*
X111103966Y-114149190D01*
X112437299Y-114101571D02*
X112103966Y-114101571D01*
X112103966Y-114625380D02*
X112103966Y-113625380D01*
X112580156Y-113625380D01*
X112723014Y-114720619D02*
X113484918Y-114720619D01*
X114294442Y-114530142D02*
X114246823Y-114577761D01*
X114103966Y-114625380D01*
X114008728Y-114625380D01*
X113865871Y-114577761D01*
X113770633Y-114482523D01*
X113723014Y-114387285D01*
X113675395Y-114196809D01*
X113675395Y-114053952D01*
X113723014Y-113863476D01*
X113770633Y-113768238D01*
X113865871Y-113673000D01*
X114008728Y-113625380D01*
X114103966Y-113625380D01*
X114246823Y-113673000D01*
X114294442Y-113720619D01*
X115246823Y-114625380D02*
X114675395Y-114625380D01*
X114961109Y-114625380D02*
X114961109Y-113625380D01*
X114865871Y-113768238D01*
X114770633Y-113863476D01*
X114675395Y-113911095D01*
X115580156Y-113625380D02*
X116199204Y-113625380D01*
X115865871Y-114006333D01*
X116008728Y-114006333D01*
X116103966Y-114053952D01*
X116151585Y-114101571D01*
X116199204Y-114196809D01*
X116199204Y-114434904D01*
X116151585Y-114530142D01*
X116103966Y-114577761D01*
X116008728Y-114625380D01*
X115723014Y-114625380D01*
X115627776Y-114577761D01*
X115580156Y-114530142D01*
D13*
%TO.C,J4B1*%
X116018000Y-88773000D02*
X118678000Y-88773000D01*
X118678000Y-86173000D02*
X118678000Y-87503000D01*
X116018000Y-88773000D02*
X116018000Y-106613000D01*
X116018000Y-106613000D02*
X118678000Y-106613000D01*
X117348000Y-86173000D02*
X118678000Y-86173000D01*
X118678000Y-88773000D02*
X118678000Y-106613000D01*
%TO.C,RF_R7*%
X160628000Y-84995000D02*
X160298000Y-84995000D01*
X157888000Y-91535000D02*
X157888000Y-84995000D01*
X158218000Y-91535000D02*
X157888000Y-91535000D01*
X160298000Y-91535000D02*
X160628000Y-91535000D01*
X160628000Y-91535000D02*
X160628000Y-84995000D01*
X157888000Y-84995000D02*
X158218000Y-84995000D01*
%TO.C,RF_R8*%
X156564000Y-91535000D02*
X156564000Y-84995000D01*
X156564000Y-84995000D02*
X156234000Y-84995000D01*
X154154000Y-91535000D02*
X153824000Y-91535000D01*
X156234000Y-91535000D02*
X156564000Y-91535000D01*
X153824000Y-84995000D02*
X154154000Y-84995000D01*
X153824000Y-91535000D02*
X153824000Y-84995000D01*
D14*
%TO.C,RF_J1*%
X174256000Y-73433000D02*
X174256000Y-73433000D01*
D15*
X163656000Y-79533000D02*
X163656000Y-72033000D01*
X170656000Y-69533000D02*
X166656000Y-69533000D01*
X171156000Y-79533000D02*
X173656000Y-79533000D01*
X173656000Y-79533000D02*
X173656000Y-72033000D01*
D14*
X174456000Y-73433000D02*
X174456000Y-73433000D01*
D15*
X166156000Y-79533000D02*
X163656000Y-79533000D01*
D14*
X174256000Y-73433000D02*
G75*
G03*
X174456000Y-73433000I100000J0D01*
G01*
X174456000Y-73433000D02*
G75*
G03*
X174256000Y-73433000I-100000J0D01*
G01*
D13*
%TO.C,RF_C8*%
X153606000Y-77751000D02*
X160846000Y-77751000D01*
X153606000Y-80491000D02*
X160846000Y-80491000D01*
X153606000Y-77751000D02*
X153606000Y-80491000D01*
X160846000Y-77751000D02*
X160846000Y-80491000D01*
%TO.C,RF_C9*%
X161190000Y-92393000D02*
X163930000Y-92393000D01*
X161190000Y-85153000D02*
X163930000Y-85153000D01*
X161190000Y-92393000D02*
X161190000Y-85153000D01*
X163930000Y-92393000D02*
X163930000Y-85153000D01*
%TO.C,RF_R4*%
X136552000Y-113633000D02*
X136552000Y-107093000D01*
X136552000Y-107093000D02*
X136882000Y-107093000D01*
X138962000Y-113633000D02*
X139292000Y-113633000D01*
X139292000Y-113633000D02*
X139292000Y-107093000D01*
X136882000Y-113633000D02*
X136552000Y-113633000D01*
X139292000Y-107093000D02*
X138962000Y-107093000D01*
%TO.C,RF_R1*%
X111914000Y-86265000D02*
X112244000Y-86265000D01*
X111914000Y-92805000D02*
X111914000Y-86265000D01*
X114654000Y-92805000D02*
X114654000Y-86265000D01*
X114654000Y-86265000D02*
X114324000Y-86265000D01*
X112244000Y-92805000D02*
X111914000Y-92805000D01*
X114324000Y-92805000D02*
X114654000Y-92805000D01*
%TO.C,RF_R9*%
X150268000Y-86201000D02*
X150598000Y-86201000D01*
X150268000Y-79661000D02*
X150268000Y-86201000D01*
X150598000Y-79661000D02*
X150268000Y-79661000D01*
X153008000Y-79661000D02*
X153008000Y-86201000D01*
X152678000Y-79661000D02*
X153008000Y-79661000D01*
X153008000Y-86201000D02*
X152678000Y-86201000D01*
D14*
%TO.C,RF_SW1*%
X134470500Y-79856000D02*
X134470500Y-79856000D01*
D15*
X134620500Y-75776000D02*
X134620500Y-72426000D01*
D14*
X134470500Y-80056000D02*
X134470500Y-80056000D01*
D15*
X147320500Y-75776000D02*
X134620500Y-75776000D01*
X145970500Y-69426000D02*
X135970500Y-69426000D01*
X147320500Y-72426000D02*
X147320500Y-75776000D01*
D14*
X134470500Y-80056000D02*
G75*
G03*
X134470500Y-79856000I0J100000D01*
G01*
X134470500Y-79856000D02*
G75*
G03*
X134470500Y-80056000I0J-100000D01*
G01*
D13*
%TO.C,RF_R10*%
X139922000Y-82907000D02*
X139922000Y-82577000D01*
X133382000Y-85317000D02*
X133382000Y-84987000D01*
X139922000Y-85317000D02*
X133382000Y-85317000D01*
X133382000Y-82577000D02*
X133382000Y-82907000D01*
X139922000Y-82577000D02*
X133382000Y-82577000D01*
X139922000Y-84987000D02*
X139922000Y-85317000D01*
%TO.C,RF_L1*%
X168112000Y-88279348D02*
G75*
G03*
X168112000Y-95362652I1560000J-3541652D01*
G01*
X171232000Y-95362652D02*
G75*
G03*
X171232000Y-88279348I-1560000J3541652D01*
G01*
%TO.C,RF_C3*%
X131672000Y-101155000D02*
X131672000Y-108395000D01*
X128932000Y-101155000D02*
X128932000Y-108395000D01*
X131672000Y-101155000D02*
X128932000Y-101155000D01*
X131672000Y-108395000D02*
X128932000Y-108395000D01*
%TO.C,RF_R12*%
X135160000Y-88673000D02*
X135160000Y-89003000D01*
X141700000Y-88673000D02*
X135160000Y-88673000D01*
X141700000Y-89003000D02*
X141700000Y-88673000D01*
X135160000Y-91413000D02*
X135160000Y-91083000D01*
X141700000Y-91413000D02*
X135160000Y-91413000D01*
X141700000Y-91083000D02*
X141700000Y-91413000D01*
%TO.C,RF_R3*%
X127794000Y-114959000D02*
X127794000Y-115289000D01*
X127794000Y-112879000D02*
X127794000Y-112549000D01*
X134334000Y-115289000D02*
X134334000Y-114959000D01*
X127794000Y-115289000D02*
X134334000Y-115289000D01*
X134334000Y-112549000D02*
X134334000Y-112879000D01*
X127794000Y-112549000D02*
X134334000Y-112549000D01*
%TO.C,RF_L3*%
X149062000Y-109321348D02*
G75*
G03*
X149062000Y-116404652I1560000J-3541652D01*
G01*
X152182000Y-116404652D02*
G75*
G03*
X152182000Y-109321348I-1560000J3541652D01*
G01*
%TO.C,RF_C11*%
X173038000Y-84355000D02*
X173038000Y-87095000D01*
X165798000Y-84355000D02*
X173038000Y-84355000D01*
X165798000Y-87095000D02*
X173038000Y-87095000D01*
X165798000Y-84355000D02*
X165798000Y-87095000D01*
%TO.C,RF_D1*%
X121308000Y-105533000D02*
X123548000Y-105533000D01*
X122428000Y-108053000D02*
X122428000Y-106133000D01*
X123548000Y-106133000D02*
X123548000Y-101893000D01*
X121308000Y-101893000D02*
X121308000Y-106133000D01*
X123548000Y-101893000D02*
X121308000Y-101893000D01*
X121308000Y-105413000D02*
X123548000Y-105413000D01*
X122428000Y-99973000D02*
X122428000Y-101893000D01*
X121308000Y-106133000D02*
X123548000Y-106133000D01*
X121308000Y-105293000D02*
X123548000Y-105293000D01*
%TO.C,RF_D2*%
X130914000Y-87253000D02*
X128674000Y-87253000D01*
X128674000Y-86653000D02*
X128674000Y-90893000D01*
X130914000Y-86653000D02*
X128674000Y-86653000D01*
X129794000Y-84733000D02*
X129794000Y-86653000D01*
X129794000Y-92813000D02*
X129794000Y-90893000D01*
X130914000Y-90893000D02*
X130914000Y-86653000D01*
X130914000Y-87493000D02*
X128674000Y-87493000D01*
X128674000Y-90893000D02*
X130914000Y-90893000D01*
X130914000Y-87373000D02*
X128674000Y-87373000D01*
%TO.C,RF_C1*%
X126392000Y-70969000D02*
X129132000Y-70969000D01*
X126392000Y-78209000D02*
X129132000Y-78209000D01*
X126392000Y-78209000D02*
X126392000Y-70969000D01*
X129132000Y-78209000D02*
X129132000Y-70969000D01*
%TO.C,S5*%
G36*
X109138866Y-79222361D02*
G01*
X108917626Y-79099834D01*
X108656108Y-78927382D01*
X108515786Y-78788697D01*
X108484395Y-78703301D01*
X108923666Y-78703301D01*
X109123546Y-78869817D01*
X109324189Y-79009130D01*
X109436742Y-79012263D01*
X109473891Y-78879112D01*
X109474000Y-78867000D01*
X109438551Y-78747463D01*
X109302287Y-78703149D01*
X109198833Y-78700484D01*
X108923666Y-78703301D01*
X108484395Y-78703301D01*
X108463797Y-78647264D01*
X108460401Y-78591834D01*
X108467395Y-78462930D01*
X108518237Y-78393347D01*
X108652618Y-78364808D01*
X108910231Y-78359033D01*
X108966000Y-78359000D01*
X109260972Y-78349247D01*
X109419341Y-78314672D01*
X109472998Y-78247303D01*
X109474000Y-78232000D01*
X109541772Y-78119752D01*
X109601000Y-78105000D01*
X109713248Y-78172773D01*
X109728000Y-78232000D01*
X109795772Y-78344249D01*
X109855000Y-78359000D01*
X109958428Y-78429587D01*
X109982000Y-78528334D01*
X109929060Y-78666238D01*
X109855000Y-78697667D01*
X109766693Y-78753590D01*
X109730304Y-78938970D01*
X109728000Y-79036334D01*
X109714487Y-79256860D01*
X109658053Y-79354554D01*
X109550224Y-79375000D01*
X109436742Y-79345755D01*
X109385459Y-79332539D01*
X109138866Y-79222361D01*
G37*
G36*
X109810884Y-81023494D02*
G01*
X109841877Y-81053834D01*
X109923326Y-81221154D01*
X109973008Y-81465812D01*
X109984277Y-81717163D01*
X109950486Y-81904560D01*
X109925555Y-81943223D01*
X109798002Y-81995359D01*
X109747043Y-81999667D01*
X109664046Y-81947516D01*
X109676412Y-81794728D01*
X109693574Y-81536883D01*
X109608346Y-81369064D01*
X109474000Y-81322334D01*
X109316367Y-81392320D01*
X109249381Y-81579744D01*
X109271587Y-81794728D01*
X109290988Y-81914971D01*
X109245365Y-81975682D01*
X109097013Y-81997138D01*
X108890511Y-81999667D01*
X108458000Y-81999667D01*
X108458000Y-81491667D01*
X108467753Y-81196695D01*
X108502328Y-81038325D01*
X108569697Y-80984669D01*
X108585000Y-80983667D01*
X108673306Y-81039590D01*
X108709695Y-81224970D01*
X108712000Y-81322334D01*
X108732971Y-81557819D01*
X108802488Y-81654854D01*
X108839000Y-81661000D01*
X108940001Y-81585568D01*
X108965999Y-81413048D01*
X109010045Y-81185095D01*
X109099047Y-81032048D01*
X109318010Y-80918854D01*
X109582128Y-80916789D01*
X109810884Y-81023494D01*
G37*
G36*
X109810884Y-76959494D02*
G01*
X109841877Y-76989834D01*
X109923326Y-77157154D01*
X109973008Y-77401812D01*
X109984277Y-77653163D01*
X109950486Y-77840560D01*
X109925555Y-77879223D01*
X109798002Y-77931359D01*
X109747043Y-77935667D01*
X109664046Y-77883516D01*
X109676412Y-77730728D01*
X109693574Y-77472883D01*
X109608346Y-77305064D01*
X109474000Y-77258334D01*
X109316367Y-77328320D01*
X109249381Y-77515744D01*
X109271587Y-77730728D01*
X109290988Y-77850971D01*
X109245365Y-77911682D01*
X109097013Y-77933138D01*
X108890511Y-77935667D01*
X108458000Y-77935667D01*
X108458000Y-77427667D01*
X108467753Y-77132695D01*
X108502328Y-76974325D01*
X108569697Y-76920669D01*
X108585000Y-76919667D01*
X108673306Y-76975590D01*
X108709695Y-77160970D01*
X108712000Y-77258334D01*
X108732971Y-77493819D01*
X108802488Y-77590854D01*
X108839000Y-77597000D01*
X108940001Y-77521568D01*
X108965999Y-77349048D01*
X109010045Y-77121095D01*
X109099047Y-76968048D01*
X109318010Y-76854854D01*
X109582128Y-76852789D01*
X109810884Y-76959494D01*
G37*
G36*
X108458000Y-75412600D02*
G01*
X108462689Y-75332167D01*
X108728118Y-75332167D01*
X108750736Y-75444467D01*
X108900524Y-75480078D01*
X108923666Y-75480334D01*
X109087871Y-75451078D01*
X109121780Y-75347502D01*
X109119215Y-75332167D01*
X109023341Y-75210250D01*
X108923666Y-75184000D01*
X108773871Y-75248225D01*
X108728118Y-75332167D01*
X108462689Y-75332167D01*
X108474601Y-75127815D01*
X108517451Y-74906601D01*
X108559599Y-74819934D01*
X108752036Y-74729951D01*
X108985015Y-74739933D01*
X109149283Y-74831050D01*
X109242819Y-74887606D01*
X109372639Y-74853050D01*
X109545436Y-74746384D01*
X109781834Y-74599692D01*
X109915425Y-74562526D01*
X109972852Y-74635246D01*
X109982000Y-74752304D01*
X109915915Y-74943492D01*
X109703529Y-75119754D01*
X109685666Y-75130449D01*
X109499061Y-75260209D01*
X109396280Y-75369890D01*
X109389333Y-75392812D01*
X109463752Y-75450658D01*
X109646746Y-75479577D01*
X109685666Y-75480334D01*
X109886064Y-75496148D01*
X109968104Y-75567313D01*
X109982000Y-75692000D01*
X109975932Y-75792200D01*
X109936006Y-75854413D01*
X109829636Y-75887693D01*
X109624237Y-75901091D01*
X109287223Y-75903657D01*
X109220000Y-75903667D01*
X108458000Y-75903667D01*
X108458000Y-75412600D01*
G37*
G36*
X109926236Y-69759741D02*
G01*
X109965829Y-69891023D01*
X109981070Y-70148435D01*
X109982000Y-70273334D01*
X109982000Y-70823667D01*
X108458000Y-70823667D01*
X108458000Y-70273334D01*
X108466478Y-69964644D01*
X108496774Y-69793072D01*
X108556177Y-69727030D01*
X108585000Y-69723000D01*
X108673306Y-69778924D01*
X108709695Y-69964303D01*
X108712000Y-70061667D01*
X108726200Y-70283235D01*
X108783594Y-70381160D01*
X108881333Y-70400334D01*
X108998041Y-70367186D01*
X109045131Y-70237778D01*
X109050666Y-70104000D01*
X109078206Y-69884827D01*
X109166100Y-69808203D01*
X109177666Y-69807667D01*
X109271598Y-69871927D01*
X109304437Y-70077012D01*
X109304666Y-70104000D01*
X109320480Y-70304399D01*
X109391646Y-70386438D01*
X109516333Y-70400334D01*
X109652706Y-70381849D01*
X109713319Y-70294659D01*
X109727924Y-70091160D01*
X109728000Y-70061667D01*
X109748971Y-69826182D01*
X109818488Y-69729147D01*
X109855000Y-69723000D01*
X109926236Y-69759741D01*
G37*
G36*
X109151561Y-71850614D02*
G01*
X109521631Y-71986186D01*
X109761476Y-72081425D01*
X109899271Y-72155865D01*
X109963189Y-72229037D01*
X109981405Y-72320475D01*
X109982000Y-72426352D01*
X109969302Y-72549758D01*
X109909432Y-72642060D01*
X109769724Y-72727016D01*
X109517513Y-72828382D01*
X109342580Y-72891375D01*
X109025246Y-73004453D01*
X108761031Y-73099370D01*
X108597968Y-73158851D01*
X108580580Y-73165412D01*
X108486052Y-73150404D01*
X108458000Y-72996274D01*
X108478236Y-72870946D01*
X108562520Y-72774613D01*
X108746213Y-72679827D01*
X108983230Y-72588588D01*
X109508461Y-72397079D01*
X108983230Y-72229071D01*
X108697922Y-72130857D01*
X108539645Y-72048626D01*
X108471860Y-71954563D01*
X108458000Y-71829279D01*
X108458000Y-71597496D01*
X109151561Y-71850614D01*
G37*
G36*
X109926236Y-73315741D02*
G01*
X109965829Y-73447023D01*
X109981070Y-73704435D01*
X109982000Y-73829334D01*
X109982000Y-74379667D01*
X108458000Y-74379667D01*
X108458000Y-73829334D01*
X108466478Y-73520644D01*
X108496774Y-73349072D01*
X108556177Y-73283030D01*
X108585000Y-73279000D01*
X108673306Y-73334924D01*
X108709695Y-73520303D01*
X108712000Y-73617667D01*
X108726200Y-73839235D01*
X108783594Y-73937160D01*
X108881333Y-73956334D01*
X108998041Y-73923186D01*
X109045131Y-73793778D01*
X109050666Y-73660000D01*
X109078206Y-73440827D01*
X109166100Y-73364203D01*
X109177666Y-73363667D01*
X109271598Y-73427927D01*
X109304437Y-73633012D01*
X109304666Y-73660000D01*
X109320480Y-73860399D01*
X109391646Y-73942438D01*
X109516333Y-73956334D01*
X109652706Y-73937849D01*
X109713319Y-73850659D01*
X109727924Y-73647160D01*
X109728000Y-73617667D01*
X109748971Y-73382182D01*
X109818488Y-73285147D01*
X109855000Y-73279000D01*
X109926236Y-73315741D01*
G37*
G36*
X108686767Y-79575505D02*
G01*
X108921092Y-79658439D01*
X109222880Y-79777263D01*
X109324688Y-79819500D01*
X109647906Y-79960639D01*
X109843769Y-80066327D01*
X109943463Y-80160605D01*
X109978171Y-80267513D01*
X109980894Y-80325363D01*
X109982000Y-80556059D01*
X109347000Y-80266680D01*
X108711999Y-79977301D01*
X108711999Y-80353484D01*
X108694963Y-80602855D01*
X108637177Y-80715370D01*
X108585000Y-80729667D01*
X108515998Y-80694813D01*
X108476507Y-80569487D01*
X108459851Y-80322546D01*
X108458000Y-80137000D01*
X108469295Y-79792708D01*
X108505070Y-79600503D01*
X108563794Y-79544334D01*
X108686767Y-79575505D01*
G37*
G36*
X108686767Y-82284839D02*
G01*
X108921092Y-82367773D01*
X109222880Y-82486597D01*
X109324688Y-82528834D01*
X109647906Y-82669972D01*
X109843769Y-82775660D01*
X109943463Y-82869938D01*
X109978171Y-82976847D01*
X109980894Y-83034696D01*
X109982000Y-83265392D01*
X109347000Y-82976013D01*
X108711999Y-82686634D01*
X108711999Y-83062817D01*
X108694963Y-83312189D01*
X108637177Y-83424703D01*
X108585000Y-83439000D01*
X108515998Y-83404146D01*
X108476507Y-83278820D01*
X108459851Y-83031880D01*
X108458000Y-82846334D01*
X108469295Y-82502041D01*
X108505070Y-82309836D01*
X108563794Y-82253667D01*
X108686767Y-82284839D01*
G37*
%TO.C,RF_R2*%
X127786000Y-99473000D02*
X128116000Y-99473000D01*
X125706000Y-99473000D02*
X125376000Y-99473000D01*
X125376000Y-99473000D02*
X125376000Y-106013000D01*
X128116000Y-99473000D02*
X128116000Y-106013000D01*
X128116000Y-106013000D02*
X127786000Y-106013000D01*
X125376000Y-106013000D02*
X125706000Y-106013000D01*
%TO.C,RF_U1*%
X156524000Y-97714000D02*
X133544000Y-97714000D01*
X133544000Y-102214000D02*
X156524000Y-102214000D01*
X133544000Y-97714000D02*
X133544000Y-98964000D01*
X156524000Y-102214000D02*
X156524000Y-97714000D01*
X133544000Y-100964000D02*
X133544000Y-102214000D01*
X133544000Y-100964000D02*
G75*
G03*
X133544000Y-98964000I0J1000000D01*
G01*
%TO.C,RF_C7*%
X144208000Y-91721000D02*
X144208000Y-94461000D01*
X151448000Y-91721000D02*
X151448000Y-94461000D01*
X144208000Y-91721000D02*
X151448000Y-91721000D01*
X144208000Y-94461000D02*
X151448000Y-94461000D01*
%TO.C,RF_VL1*%
X124206000Y-79375000D02*
X124206000Y-76073000D01*
X114046000Y-76073000D02*
X114046000Y-79375000D01*
X124206000Y-69215000D02*
X114046000Y-69215000D01*
X114046000Y-69215000D02*
X114046000Y-72517000D01*
X114046000Y-79375000D02*
X124206000Y-79375000D01*
X124206000Y-72517000D02*
X124206000Y-69215000D01*
%TO.C,RF_C4*%
X135446000Y-108993000D02*
X128206000Y-108993000D01*
X135446000Y-111733000D02*
X128206000Y-111733000D01*
X128206000Y-111733000D02*
X128206000Y-108993000D01*
X135446000Y-111733000D02*
X135446000Y-108993000D01*
%TO.C,RF_R5*%
X167354000Y-111911000D02*
X167354000Y-112241000D01*
X160814000Y-109501000D02*
X160814000Y-109831000D01*
X167354000Y-109831000D02*
X167354000Y-109501000D01*
X160814000Y-112241000D02*
X160814000Y-111911000D01*
X167354000Y-109501000D02*
X160814000Y-109501000D01*
X167354000Y-112241000D02*
X160814000Y-112241000D01*
%TO.C,RF_L2*%
X166355652Y-97373000D02*
G75*
G03*
X159272348Y-97373000I-3541652J-1560000D01*
G01*
X159272348Y-100493000D02*
G75*
G03*
X166355652Y-100493000I3541652J1560000D01*
G01*
%TO.C,RF_C10*%
X168048000Y-103823000D02*
X168048000Y-96583000D01*
X168048000Y-96583000D02*
X170788000Y-96583000D01*
X168048000Y-103823000D02*
X170788000Y-103823000D01*
X170788000Y-103823000D02*
X170788000Y-96583000D01*
%TO.C,RF_JP1*%
X124052000Y-85503000D02*
X121312000Y-85503000D01*
X121312000Y-85503000D02*
X121312000Y-92043000D01*
X122682000Y-95353000D02*
X122682000Y-92043000D01*
X124052000Y-92043000D02*
X124052000Y-85503000D01*
X122682000Y-82193000D02*
X122682000Y-85503000D01*
X121312000Y-92043000D02*
X124052000Y-92043000D01*
%TO.C,RF_C6*%
X158342000Y-108775000D02*
X155602000Y-108775000D01*
X155602000Y-108775000D02*
X155602000Y-116015000D01*
X158342000Y-116015000D02*
X155602000Y-116015000D01*
X158342000Y-108775000D02*
X158342000Y-116015000D01*
%TO.C,RF_C5*%
X132016000Y-94461000D02*
X139256000Y-94461000D01*
X132016000Y-91721000D02*
X132016000Y-94461000D01*
X139256000Y-91721000D02*
X139256000Y-94461000D01*
X132016000Y-91721000D02*
X139256000Y-91721000D01*
%TO.C,RF_R11*%
X133382000Y-85625000D02*
X139922000Y-85625000D01*
X139922000Y-88365000D02*
X139922000Y-88035000D01*
X133382000Y-88365000D02*
X139922000Y-88365000D01*
X133382000Y-88035000D02*
X133382000Y-88365000D01*
X133382000Y-85955000D02*
X133382000Y-85625000D01*
X139922000Y-85625000D02*
X139922000Y-85955000D01*
%TO.C,RF_C12*%
X146494000Y-108177000D02*
X146494000Y-105437000D01*
X153734000Y-108177000D02*
X146494000Y-108177000D01*
X153734000Y-105437000D02*
X146494000Y-105437000D01*
X153734000Y-108177000D02*
X153734000Y-105437000D01*
%TO.C,RF_R6*%
X167354000Y-113311000D02*
X167354000Y-113641000D01*
X160814000Y-116051000D02*
X167354000Y-116051000D01*
X160814000Y-113641000D02*
X160814000Y-113311000D01*
X160814000Y-115721000D02*
X160814000Y-116051000D01*
X167354000Y-116051000D02*
X167354000Y-115721000D01*
X160814000Y-113311000D02*
X167354000Y-113311000D01*
%TO.C,RF_C2*%
X127862000Y-87693000D02*
X125122000Y-87693000D01*
X127862000Y-87693000D02*
X127862000Y-94933000D01*
X127862000Y-94933000D02*
X125122000Y-94933000D01*
X125122000Y-87693000D02*
X125122000Y-94933000D01*
%TO.C,RF_C13*%
X119755328Y-114959000D02*
X119755328Y-116475000D01*
X119795328Y-111369000D02*
X119795328Y-112879000D01*
X121276328Y-114959000D02*
X121276328Y-115704000D01*
X120236328Y-111477000D02*
X120236328Y-112879000D01*
X119755328Y-111363000D02*
X119755328Y-112879000D01*
X119635328Y-114959000D02*
X119635328Y-116488000D01*
X121596328Y-112536000D02*
X121596328Y-115302000D01*
X120316328Y-111505000D02*
X120316328Y-112879000D01*
X119515328Y-111341000D02*
X119515328Y-112879000D01*
X121916328Y-113242000D02*
X121916328Y-114596000D01*
X116590553Y-112444000D02*
X117090553Y-112444000D01*
X120916328Y-111824000D02*
X120916328Y-112879000D01*
X120716328Y-114959000D02*
X120716328Y-116143000D01*
X119715328Y-111358000D02*
X119715328Y-112879000D01*
X116840553Y-112194000D02*
X116840553Y-112694000D01*
X121556328Y-112476000D02*
X121556328Y-115362000D01*
X120956328Y-111854000D02*
X120956328Y-112879000D01*
X121236328Y-114959000D02*
X121236328Y-115745000D01*
X119635328Y-111350000D02*
X119635328Y-112879000D01*
X121756328Y-112821000D02*
X121756328Y-115017000D01*
X120156328Y-114959000D02*
X120156328Y-116387000D01*
X120876328Y-111797000D02*
X120876328Y-112879000D01*
X119915328Y-114959000D02*
X119915328Y-116447000D01*
X119715328Y-114959000D02*
X119715328Y-116480000D01*
X120716328Y-111695000D02*
X120716328Y-112879000D01*
X120556328Y-114959000D02*
X120556328Y-116229000D01*
X120196328Y-114959000D02*
X120196328Y-116374000D01*
X120916328Y-114959000D02*
X120916328Y-116014000D01*
X120476328Y-111571000D02*
X120476328Y-112879000D01*
X120276328Y-114959000D02*
X120276328Y-116347000D01*
X121996328Y-113635000D02*
X121996328Y-114203000D01*
X120396328Y-114959000D02*
X120396328Y-116301000D01*
X119395328Y-111339000D02*
X119395328Y-112879000D01*
X121076328Y-114959000D02*
X121076328Y-115890000D01*
X121876328Y-113114000D02*
X121876328Y-114724000D01*
X121076328Y-111948000D02*
X121076328Y-112879000D01*
X121516328Y-112419000D02*
X121516328Y-115419000D01*
X119955328Y-111399000D02*
X119955328Y-112879000D01*
X120516328Y-111590000D02*
X120516328Y-112879000D01*
X120156328Y-111451000D02*
X120156328Y-112879000D01*
X120556328Y-111609000D02*
X120556328Y-112879000D01*
X121676328Y-112668000D02*
X121676328Y-115170000D01*
X119835328Y-111376000D02*
X119835328Y-112879000D01*
X120196328Y-111464000D02*
X120196328Y-112879000D01*
X119435328Y-111339000D02*
X119435328Y-112879000D01*
X120396328Y-111537000D02*
X120396328Y-112879000D01*
X120796328Y-111744000D02*
X120796328Y-112879000D01*
X120436328Y-111554000D02*
X120436328Y-112879000D01*
X120796328Y-114959000D02*
X120796328Y-116094000D01*
X121956328Y-113401000D02*
X121956328Y-114437000D01*
X121116328Y-111982000D02*
X121116328Y-112879000D01*
X121356328Y-114959000D02*
X121356328Y-115618000D01*
X120676328Y-114959000D02*
X120676328Y-116166000D01*
X120836328Y-111770000D02*
X120836328Y-112879000D01*
X119515328Y-114959000D02*
X119515328Y-116497000D01*
X120356328Y-114959000D02*
X120356328Y-116317000D01*
X120596328Y-111629000D02*
X120596328Y-112879000D01*
X120636328Y-114959000D02*
X120636328Y-116187000D01*
X121276328Y-112134000D02*
X121276328Y-112879000D01*
X121036328Y-111915000D02*
X121036328Y-112879000D01*
X119835328Y-114959000D02*
X119835328Y-116462000D01*
X119995328Y-111408000D02*
X119995328Y-112879000D01*
X120956328Y-114959000D02*
X120956328Y-115984000D01*
X119675328Y-114959000D02*
X119675328Y-116484000D01*
X119395328Y-114959000D02*
X119395328Y-116499000D01*
X120075328Y-114959000D02*
X120075328Y-116410000D01*
X119555328Y-114959000D02*
X119555328Y-116495000D01*
X119995328Y-114959000D02*
X119995328Y-116430000D01*
X121356328Y-112220000D02*
X121356328Y-112879000D01*
X119915328Y-111391000D02*
X119915328Y-112879000D01*
X119555328Y-111343000D02*
X119555328Y-112879000D01*
X121196328Y-112055000D02*
X121196328Y-112879000D01*
X121796328Y-112908000D02*
X121796328Y-114930000D01*
X120356328Y-111521000D02*
X120356328Y-112879000D01*
X120636328Y-111651000D02*
X120636328Y-112879000D01*
X119795328Y-114959000D02*
X119795328Y-116469000D01*
X119475328Y-111340000D02*
X119475328Y-112879000D01*
X119595328Y-111346000D02*
X119595328Y-112879000D01*
X120236328Y-114959000D02*
X120236328Y-116361000D01*
X120116328Y-114959000D02*
X120116328Y-116399000D01*
X121396328Y-112266000D02*
X121396328Y-112879000D01*
X121316328Y-112176000D02*
X121316328Y-112879000D01*
X121716328Y-112741000D02*
X121716328Y-115097000D01*
X120996328Y-114959000D02*
X120996328Y-115954000D01*
X120596328Y-114959000D02*
X120596328Y-116209000D01*
X119475328Y-114959000D02*
X119475328Y-116498000D01*
X120476328Y-114959000D02*
X120476328Y-116267000D01*
X120756328Y-111719000D02*
X120756328Y-112879000D01*
X120436328Y-114959000D02*
X120436328Y-116284000D01*
X121156328Y-114959000D02*
X121156328Y-115820000D01*
X120035328Y-111418000D02*
X120035328Y-112879000D01*
X120676328Y-111672000D02*
X120676328Y-112879000D01*
X120316328Y-114959000D02*
X120316328Y-116333000D01*
X120516328Y-114959000D02*
X120516328Y-116248000D01*
X120116328Y-111439000D02*
X120116328Y-112879000D01*
X121436328Y-112314000D02*
X121436328Y-115524000D01*
X121116328Y-114959000D02*
X121116328Y-115856000D01*
X119595328Y-114959000D02*
X119595328Y-116492000D01*
X121316328Y-114959000D02*
X121316328Y-115662000D01*
X121636328Y-112600000D02*
X121636328Y-115238000D01*
X119875328Y-111383000D02*
X119875328Y-112879000D01*
X121476328Y-112365000D02*
X121476328Y-115473000D01*
X119675328Y-111354000D02*
X119675328Y-112879000D01*
X119955328Y-114959000D02*
X119955328Y-116439000D01*
X120836328Y-114959000D02*
X120836328Y-116068000D01*
X121196328Y-114959000D02*
X121196328Y-115783000D01*
X119435328Y-114959000D02*
X119435328Y-116499000D01*
X120996328Y-111884000D02*
X120996328Y-112879000D01*
X121836328Y-113004000D02*
X121836328Y-114834000D01*
X121156328Y-112018000D02*
X121156328Y-112879000D01*
X120876328Y-114959000D02*
X120876328Y-116041000D01*
X119875328Y-114959000D02*
X119875328Y-116455000D01*
X121236328Y-112093000D02*
X121236328Y-112879000D01*
X120756328Y-114959000D02*
X120756328Y-116119000D01*
X120276328Y-111491000D02*
X120276328Y-112879000D01*
X120035328Y-114959000D02*
X120035328Y-116420000D01*
X121036328Y-114959000D02*
X121036328Y-115923000D01*
X121396328Y-114959000D02*
X121396328Y-115572000D01*
X120075328Y-111428000D02*
X120075328Y-112879000D01*
X122015328Y-113919000D02*
G75*
G03*
X122015328Y-113919000I-2620000J0D01*
G01*
%TD*%
M02*
